<?xml version="1.0" encoding="utf-8"?>
<!-- Generator: Adobe Illustrator 16.0.4, SVG Export Plug-In . SVG Version: 6.00 Build 0)  -->
<!DOCTYPE svg PUBLIC "-//W3C//DTD SVG 1.1//EN" "http://www.w3.org/Graphics/SVG/1.1/DTD/svg11.dtd">
<svg version="1.1" id="Layer_1" xmlns="http://www.w3.org/2000/svg" xmlns:xlink="http://www.w3.org/1999/xlink" x="0px" y="0px"
	 width="70px" height="70px" viewBox="0 0.5 70 70" enable-background="new 0 0.5 70 70" xml:space="preserve">
<path d="M42.1,12.8c-2.699-2.1-9.3-1.5-13.2,1.1C21,19.3,21.6,27.2,30.6,40.2c3,4.2,5.4,8.2,5.4,8.8c0,0.5-0.7,0.2-1.4-0.7
	c-2.2-3-7.6-2-7.6,1.3c0,2.601,8.7,11.9,11.2,11.9c2.3,0,5.8-5.6,5.8-9.3c0-3.2-3.1-9.7-7-14.7c-4.4-5.601-7.4-12.399-6.7-15.3
	c0.8-2.9,4.9-5.9,7.101-5.1C39.6,18,40.4,23.5,39.1,29.5c-1.3,5.899-0.899,7,2.301,7c3.699,0,4.6-1.899,4.6-10.3
	C46,18.3,45,15.101,42.1,12.8z"/>
</svg>
