<?xml version="1.0" encoding="utf-8"?>
<!-- Generator: Adobe Illustrator 16.0.4, SVG Export Plug-In . SVG Version: 6.00 Build 0)  -->
<!DOCTYPE svg PUBLIC "-//W3C//DTD SVG 1.1//EN" "http://www.w3.org/Graphics/SVG/1.1/DTD/svg11.dtd">
<svg version="1.1" id="Layer_1" xmlns="http://www.w3.org/2000/svg" xmlns:xlink="http://www.w3.org/1999/xlink" x="0px" y="0px"
	 width="70px" height="70px" viewBox="0 0.5 70 70" enable-background="new 0 0.5 70 70" xml:space="preserve">
<rect y="0.5" fill="#FFFFFF" width="70" height="70"/>
<g transform="translate(0.000000,71.000000) scale(0.100000,-0.100000)">
	<path d="M0,355V5h350h350v350v350H350H0V355z M420.996,582.002C450,558.994,460,527.002,460,447.998
		C460,363.994,450.996,345,414.004,345c-32.002,0-36.006,11.006-23.008,70c13.008,60,5,115-16.992,123.994
		c-22.002,8.008-63.003-21.992-71.006-50.996C296.001,458.994,326.001,391.006,370,335c39.004-50,70-115,70-147.002
		C440,150.996,405,95,382.002,95C357.002,95,270,187.998,270,214.004c0,32.998,53.999,42.998,76.001,12.998
		C352.998,217.998,360,215,360,220c0,5.996-23.999,45.996-53.999,87.998c-90,130-96.001,209.004-17.002,263.008
		C327.998,597.002,394.004,602.998,420.996,582.002z"/>
</g>
</svg>
