<?xml version="1.0" standalone="no"?>
<!DOCTYPE svg PUBLIC "-//W3C//DTD SVG 20010904//EN"
 "http://www.w3.org/TR/2001/REC-SVG-20010904/DTD/svg10.dtd">
<svg version="1.0" xmlns="http://www.w3.org/2000/svg"
 width="70.000000pt" height="71.000000pt" viewBox="0 0 70.000000 71.000000"
 preserveAspectRatio="xMidYMid meet">
<metadata>
Created by potrace 1.11, written by Peter Selinger 2001-2013
</metadata>
<g transform="translate(0.000000,71.000000) scale(0.100000,-0.100000)"
fill="#000000" stroke="none">
<path d="M0 360 l0 -350 350 0 350 0 0 350 0 350 -350 0 -350 0 0 -350z m421
227 c29 -23 39 -55 39 -134 0 -84 -9 -103 -46 -103 -32 0 -36 11 -23 70 13 60
5 115 -17 124 -22 8 -63 -22 -71 -51 -7 -29 23 -97 67 -153 39 -50 70 -115 70
-147 0 -37 -35 -93 -58 -93 -25 0 -112 93 -112 119 0 33 54 43 76 13 7 -9 14
-12 14 -7 0 6 -24 46 -54 88 -90 130 -96 209 -17 263 39 26 105 32 132 11z"/>
</g>
</svg>
