<?xml version="1.0" encoding="utf-8"?>
<!-- Generator: Adobe Illustrator 16.0.4, SVG Export Plug-In . SVG Version: 6.00 Build 0)  -->
<!DOCTYPE svg PUBLIC "-//W3C//DTD SVG 1.1//EN" "http://www.w3.org/Graphics/SVG/1.1/DTD/svg11.dtd">
<svg version="1.1" id="Layer_1" xmlns="http://www.w3.org/2000/svg" xmlns:xlink="http://www.w3.org/1999/xlink" x="0px" y="0px"
   width="371.4px" height="75.5px" viewBox="0 0 371.4 75.5" enable-background="new 0 0 371.4 75.5" xml:space="preserve">
<g>
  <path fill="white" d="M18.8,22.4c3.601-2.2,6.5-3.7,10.2-3.7c9.7,0,17.3,7.9,17.3,19.6C46.3,49.8,39,61.4,26.5,61.4c-2.399,0-5.6-0.301-7.8-1.4
    c0,0-0.4-0.2-0.4,0.2v7.1c0,0,0,0.7,0.5,0.7h4.5c0,0,0.5,0,0.5,0.5v3.8c0,0.4-0.399,0.601-0.399,0.601H0.6c0,0-0.601,0-0.601-0.5
    v-3.9C0,67.9,0.5,68,0.5,68h1.9C3,67.9,3,67.4,3,67.4V28.1c0-0.6-0.5-0.4-0.5-0.4l-2.1,0.5c0,0-0.4,0.2-0.4-0.4v-4.1
    c0-0.5,0.4-0.4,0.4-0.4L18,18.8c0,0,0.4-0.1,0.4,0.3v3.1C18.4,22.6,18.8,22.4,18.8,22.4 M18.4,28.4v20.1c0,3.6,1.2,6.6,5.2,6.6
    c5.1,0,7.3-3.1,7.3-12.3c0-14.7-7.4-15.5-10-15.5l-2,0.3C18.9,27.7,18.4,27.9,18.4,28.4 M362.7,55.2h1.9c0.699,0,0.5,0.5,0.5,0.5v4
    c0,0.7-0.601,0.399-0.601,0.399h-16c0,0-0.3,0.101-0.399-0.399c-0.2-1-0.5-2-0.7-2.9c-0.2-0.899-0.7,0-0.7,0
    c-3.3,2.601-6.9,4.601-11.4,4.601C327.6,61.4,321.9,56.6,321.9,49c0-9.5,6.1-14.9,13.6-14.9l11.4-0.3c0,0,0.1,0,0.1-0.5V32
    c0-3.4-1.899-4.8-5.6-4.8c-4.7,0-7,1.7-9.2,4.4c0,0-0.1,0.3-0.6,0.1c-0.5-0.2-4.5-1.6-4.5-1.6s-0.4,0-0.2-0.5s5.1-12.5,5.1-12.5
    s0-0.4,0.4-0.3c0.6,0.2,3.8,1.2,4.3,1.4c0.5,0.2,0.3,0.6,0.3,0.6s-0.2,0.5-0.3,1c-0.4,1,0.3,0.5,0.3,0.5c3.101-1.2,6.3-1.7,9.7-1.7
    c9.5,0,15.7,3.9,15.7,13.6v22.2C362.4,54.5,362.3,55.2,362.7,55.2 M346.6,38.9H344.5c-4.2,0-7.3,2.899-7.3,7
    c0,3.199,0.9,6.8,5.1,6.8c3.9,0,4.601-2.9,4.601-6v-7.5C347,39.3,347.1,38.9,346.6,38.9 M196.6,19.9c-0.9-0.5-1-0.7-2.7-0.6
    c-1,0.1-1.5,0.9-1.5,1.8c0,1.6,7.899,4.2,7.899,13.8c0,12.7-11.8,15.4-21.899,17.9c0,0-1.101,0.2,0,0.3
    c6.8,0.7,20.6,2.4,20.6,11.301c0,8.899-12.2,11.1-17.3,11.1c-7.4,0-15-1.6-15-8.2c0-3.8,4.1-6.399,7.6-7c0,0,1.101-0.2,0-0.3
    c-1.199-0.2-7.899-0.7-10.199-0.3c0,0-0.5,0.1-0.7-0.3c-0.2-0.601-1.601-4.101-1.7-4.4c-0.3-0.6,0.3-0.6,0.3-0.6
    c5-0.801,9.3-3.4,11.4-4c1.1-0.301,0-0.5,0-0.5c-7-1.2-13.9-6-13.9-14.4c0-11.8,9.601-16.9,18.8-16.9c4.2,0,6.7,0.7,8.9,1
    c0,0,0.3,0.2,0.5-0.4c0.2-0.7,0.9-2.7,0.9-2.7c1-3,2.5-4.3,7.1-4.3c0.9,0,1.8,0.1,2.7,0.2c0,0,0.5-0.1,0.399,0.4
    c-0.1,0.5-1.6,6.4-1.699,6.7C196.9,20.3,196.6,19.9,196.6,19.9 M179.8,62.2c-0.6,0.6-1.3,3.399-1.3,5.2c0,2,1.101,4.3,3.5,4.3
    c2.101,0,3.2-1,3.2-3c0-3.601-2-4.9-4.8-6.601C180.4,62,180.2,61.8,179.8,62.2 M173.2,29.3c0,4.4,2.6,16.8,8.9,16.8
    c3.1,0,4.399-1.6,4.399-5.5c0-4.399-2.6-16.8-8.899-16.8C174.5,23.9,173.2,25.4,173.2,29.3 M156.9,55.2h1.899
    c0.7,0,0.5,0.5,0.5,0.5v4c0,0.7-0.6,0.399-0.6,0.399h-16c0,0-0.3,0.101-0.4-0.399c-0.199-1-0.5-2-0.699-2.9c-0.2-0.899-0.7,0-0.7,0
    C137.6,59.4,134,61.4,129.5,61.4C121.8,61.4,116.1,56.6,116.1,49c0-9.5,6.1-14.9,13.6-14.9l11.4-0.3c0,0,0.1,0,0.1-0.5V32
    c0-3.4-1.9-4.8-5.6-4.8c-4.7,0-7,1.7-9.2,4.4c0,0-0.101,0.3-0.601,0.1c-0.5-0.2-4.5-1.6-4.5-1.6s-0.399,0-0.199-0.5
    c0.199-0.5,5.1-12.5,5.1-12.5s0-0.4,0.4-0.3c0.6,0.2,3.8,1.2,4.3,1.4c0.5,0.2,0.3,0.6,0.3,0.6s-0.2,0.5-0.3,1
    c-0.4,1,0.3,0.5,0.3,0.5c3.1-1.2,6.3-1.7,9.7-1.7c9.5,0,15.7,3.9,15.7,13.6v22.2C156.5,54.5,156.5,55.2,156.9,55.2 M140.7,38.9
    h-2.1c-4.2,0-7.301,2.899-7.301,7c0,3.199,0.9,6.8,5.101,6.8c3.899,0,4.6-2.9,4.6-6v-7.5C141.1,39.3,141.2,38.9,140.7,38.9
     M312.1,6.4c3.6,0,7.5,0.9,7.5,5.2c0,5.2-6.7,7-10.9,7c-3.4,0-5.7-1.7-5.7-5.1C303,9.4,308.5,6.4,312.1,6.4 M318.6,18.8L300.8,23.7
    c0,0-0.3,0-0.3,0.4v4c0,0.6,0.5,0.3,0.5,0.3s1.101-0.2,2.2-0.4c0.5-0.1,0.4,0.4,0.4,0.7v26.1c0,0,0.1,0.4-0.4,0.4h-2.5
    c0,0-0.3-0.101-0.3,0.399v4.2c0,0.5,0.3,0.3,0.3,0.3h20.8c0.5,0,0.3-0.399,0.3-0.399s0-3.5,0-4.101c0-0.6-0.399-0.399-0.399-0.399
    H319.3c-0.5,0-0.3-0.4-0.3-0.4V19.1C319,18.6,318.6,18.8,318.6,18.8 M297.1,60.1H276.3c0,0-0.399,0.101-0.399-0.3v-4.3
    c0-0.4,0.5-0.4,0.5-0.4h2.5c0.399,0,0.3-0.3,0.3-0.3V32.1c0-2.4-2.2-3.6-4.5-3.6c-2.7,0-4.7,1.5-6.6,3.1c0,0-0.301,0.2-0.301,0.6
    v22.7c0,0-0.1,0.3,0.301,0.3h2.6c0,0,0.4-0.101,0.4,0.399V59.9c0,0.399-0.301,0.3-0.301,0.3h-21.1c0,0-0.3,0.2-0.3-0.4v-4.2
    c0-0.5,0.3-0.399,0.3-0.399h2.4c0.399,0,0.3-0.4,0.3-0.4V28c0,0,0.2-0.5-0.4-0.3c-0.6,0.2-2.1,0.6-2.1,0.6s-0.4,0.2-0.4-0.3v-4
    c0-0.5,0.4-0.4,0.4-0.4l17.8-4.7c0,0,0.4-0.2,0.4,0.2V25c0,0.7,0.399,0.1,0.399,0.1c4.2-3.2,8.4-6.3,14-6.3
    c10.7,0,12.2,7.1,12.2,11.6v24.5c0,0,0,0.399,0.3,0.399h2.2c0,0,0.3-0.1,0.3,0.4v4.2C297.5,60.3,297.1,60.1,297.1,60.1 M217.4,34.2
    c0,5.899,2.5,21,11.1,21c4.601,0,5.7-4.8,5.7-9.3c0-5.9-2.5-21-11.1-21C217.4,24.9,217.4,31.1,217.4,34.2 M202,40
    c0-13.2,10.4-21.3,23.8-21.3c13.5,0,23.9,8.1,23.9,21.3c0,13.3-10.4,21.4-23.9,21.4C212.4,61.4,202,53.2,202,40 M88.2,21.7
    c6.3-1.8,12-6,14.6-12c0,0,0-0.4,0.5-0.3s3.7,0.7,4.4,0.8c0.5,0.1,0.3,0.4,0.3,0.4c-0.399,1.9-0.5,4.3-0.5,6v2.9
    c0,0.5,0.3,0.3,0.3,0.3h6.9c0.4,0,0.2,0.4,0.2,0.4s-1,5.1-1.101,5.7c-0.1,0.5-0.5,0.3-0.5,0.3h-5.5c-0.5,0-0.399,0.3-0.399,0.3V50
    c0,2.5,2.2,3,3.5,3s1.5,0,2.5-0.5c0,0,0.399-0.3,0.5,0.2c0.1,0.399,1.5,3.7,1.7,4.1c0.199,0.4-0.2,0.5-0.2,0.5
    c-5.4,3.9-5.9,4.101-12.8,4.101C95,61.4,92,57.7,92,50.5V26.6c0,0,0.101-0.3-0.3-0.3h-3.6c0,0-0.301,0.2-0.301-0.4v-3.8
    C87.9,21.8,88.2,21.7,88.2,21.7 M87.2,55.2h1.9c0.699,0,0.5,0.5,0.5,0.5v4C89.6,60.4,89,60.1,89,60.1H73c0,0-0.3,0-0.399-0.5
    c-0.2-1-0.5-2.1-0.7-2.899c-0.2-0.9-0.7,0-0.7,0c-3.3,2.6-6.9,4.6-11.4,4.6C52.1,61.3,46.4,56.5,46.4,48.9C46.4,39.4,52.5,34,60,34
    l11.4-0.3c0,0,0.1,0,0.1-0.5V32c0-3.4-1.899-4.8-5.6-4.8c-4.7,0-7,1.7-9.2,4.4c0,0-0.1,0.3-0.6,0.1c-0.5-0.2-4.5-1.6-4.5-1.6
    s-0.4,0-0.2-0.5s5.1-12.5,5.1-12.5s0-0.4,0.4-0.3c0.6,0.2,3.8,1.2,4.3,1.4c0.5,0.2,0.3,0.6,0.3,0.6s-0.2,0.5-0.3,1
    c-0.4,1,0.3,0.5,0.3,0.5c3.101-1.2,6.3-1.7,9.7-1.7c9.5,0,15.7,3.9,15.7,13.6v22.2C86.9,54.5,86.8,55.2,87.2,55.2 M71.1,38.9H69
    c-4.2,0-7.3,2.899-7.3,7c0,3.199,0.9,6.8,5.1,6.8c3.9,0,4.601-2.9,4.601-6v-7.5C71.5,39.3,71.6,38.9,71.1,38.9"/>
  <path fill="white" d="M367.1,13.6c-0.301-0.1-0.7-0.2-1.301-0.2H364.9v2.1h1c0.5,0,0.8,0,1-0.1c0.399-0.2,0.6-0.5,0.6-0.9S367.4,13.8,367.1,13.6
     M365.9,12.7c0.7,0,1.3,0.1,1.6,0.2c0.601,0.3,0.9,0.8,0.9,1.5c0,0.5-0.2,0.9-0.601,1.2c-0.199,0.1-0.5,0.2-0.899,0.3
    c0.5,0.1,0.8,0.3,1,0.6s0.3,0.6,0.3,0.9v0.4c0,0.1,0,0.3,0,0.4c0,0.2,0,0.3,0.1,0.3v0.1h-1c0,0,0,0,0-0.1c0,0,0,0,0-0.1v-0.2v-0.5
    c0-0.7-0.199-1.1-0.6-1.3c-0.2-0.1-0.6-0.2-1.2-0.2h-0.8v2.3h-1v-5.9h2.2V12.7z M362.8,12.4c-0.899,0.9-1.399,2-1.399,3.3
    c0,1.3,0.399,2.4,1.3,3.3s2,1.4,3.3,1.4s2.4-0.5,3.3-1.4c0.9-0.9,1.4-2,1.4-3.3c0-1.3-0.5-2.4-1.4-3.3c-0.899-0.9-2-1.4-3.3-1.4
    C364.8,11,363.7,11.5,362.8,12.4 M369.9,19.4c-1,1.1-2.3,1.6-3.8,1.6s-2.801-0.5-3.801-1.6c-1-1-1.6-2.3-1.6-3.8s0.5-2.7,1.6-3.8
    c1-1,2.301-1.6,3.801-1.6s2.8,0.5,3.8,1.6c1.1,1,1.6,2.3,1.6,3.8C371.4,17.1,370.9,18.4,369.9,19.4"/>
</g>
</svg>
