<?xml version="1.0" encoding="utf-8"?>
<!-- Generator: Adobe Illustrator 19.1.0, SVG Export Plug-In . SVG Version: 6.00 Build 0)  -->
<svg version="1.1" id="Layer_1" xmlns="http://www.w3.org/2000/svg" xmlns:xlink="http://www.w3.org/1999/xlink" x="0px" y="0px"
	 viewBox="0 0 374.4 669.9" style="enable-background:new 0 0 374.4 669.9;" xml:space="preserve">
<path d="M0.5,579.8h373.9V0H0.5V579.8z M19.7,21l4.3-1.8h3.3v0h34v1L19.7,37.3V21z M355.2,363.7L19.7,501.4v-16.3l335.5-137.7V363.7
	z M355.2,370.6v16.3L19.7,524.6v-16.3L355.2,370.6z M355.2,340.5L19.7,478.2v-16.3l330.8-135.7h4.7V340.5z M82.6,22.3h265.7v282.5
	H82.6V22.3z M164,326.1L19.7,385.3v-16.3l104.6-42.9H164z M180.8,326.1h39.7L19.7,408.6v-16.3L180.8,326.1z M237.4,326.1h39.7
	L19.7,431.8v-16.3L237.4,326.1z M294,326.1h39.7L19.7,455v-16.3L294,326.1z M19.7,44.2l41.6-17.1v16.3L19.7,60.5V44.2z M19.7,67.4
	l41.6-17.1v16.3L19.7,83.7V67.4z M19.7,90.6l41.6-17.1v16.3l-41.6,17.1V90.6z M19.7,113.8l41.6-17.1V113l-41.6,17.1V113.8z
	 M19.7,137l41.6-17.1v16.3l-41.6,17.1V137z M19.7,160.2l41.6-17.1v16.3l-41.6,17.1V160.2z M19.7,183.4l41.6-17.1v16.3l-41.6,17.1
	V183.4z M19.7,206.6l41.6-17.1v16.3l-41.6,17.1V206.6z M19.7,229.8l41.6-17.1V229l-41.6,17.1V229.8z M19.7,253L61.3,236v16.3
	l-41.6,17.1V253z M19.7,276.2l41.6-17.1v16.3l-41.6,17.1V276.2z M19.7,299.4l41.6-17.1v16.3l-41.6,17.1V299.4z M19.7,322.6
	l41.6-17.1v16.3l-41.6,17.1V322.6z M19.7,345.8l48-19.7h39.7l-87.7,36V345.8z M19.7,531.5l335.5-137.7v16.3L19.7,547.8V531.5z
	 M355.2,456.5l-253.5,104H62l293.2-120.3V456.5z M355.2,463.4v16.3l-197,80.8h-39.7L355.2,463.4z M355.2,486.7v16.3l-140.4,57.6
	h-39.7L355.2,486.7z M355.2,509.9v16.3l-83.8,34.4h-39.7L355.2,509.9z M355.2,533.1v13.3l-34.7,14.2h-32.3L355.2,533.1z M19.7,554.7
	L355.2,417v16.3L46.4,560l2.4,0.5H19.7V554.7z M337.4,560.6l17.8-7.3v7.3H337.4z"/>
<path d="M272.4,73c-23.5,0-41.5,17.9-41.5,41.4c0,6,1.2,11.8,3.3,16.9H257c-3.4-3.7-6-9.8-6-16.9c0-11.8,9.6-20.7,21.4-20.7
	c11.7,0,21.4,8.9,21.4,20.7c0,7.1-2.6,13-6.3,16.9h23.1c2.1-5.1,3.3-10.9,3.3-16.9C313.9,90.9,295.9,73,272.4,73"/>
<path d="M232.1,212.7l14.6,4.9v26.9l-14.6,5v22.5l80.5-29.6v-22.5l-80.5-29.6V212.7z M266.1,224.1l20.2,6.9l-20.2,6.9V224.1z"/>
<polygon points="196.4,128.4 141.6,109.2 196.4,90 196.4,65.2 115.9,65.2 115.9,85.3 160.5,85.3 115.9,100.5 115.9,117.9 160.6,133 
	115.9,133 115.9,153.1 196.4,153.1 "/>
<path d="M118,228.1h28.2v9.2c0,16.1,9.8,27.2,26.1,27.2c16.3,0,26.2-11.1,26.2-27.2V208H118V228.1z M165.6,228.1h13.5v9
	c0,3.9-2.4,6.7-6.7,6.7c-4.4,0-6.7-2.8-6.7-6.7V228.1z"/>
<polygon points="8.4,658.5 8.4,669.9 0,669.9 0,636.3 19.7,636.3 19.7,644.4 8.4,644.4 8.4,650.4 18.7,650.4 18.7,658.5 "/>
<rect x="43.8" y="636.3" width="8.4" height="33.6"/>
<path d="M76.7,636.3h12.5c6.7,0,11.4,3.6,11.4,10c0,4.7-2.6,7.5-5.7,8.5c4.4,2.3,6.4,8.4,7,15.2h-8.8c-1-6.8-3.2-11.8-7.2-11.8h-0.8
	v11.8h-8.4V636.3z M89.2,644.4h-4.1v5.6h4.1c1.6,0,2.8-1,2.8-2.8C91.9,645.4,90.8,644.4,89.2,644.4"/>
<polygon points="126.4,669.9 126.4,636.3 146.1,636.3 146.1,644.4 134.8,644.4 134.8,648.9 145.1,648.9 145.1,657 134.8,657 
	134.8,661.8 146.1,661.8 146.1,669.9 "/>
<path d="M172,636.3h12.6c6.3,0,10.7,3.7,10.7,9.1c0,3.6-1.4,6-3.6,7.3c2.7,1.5,4.5,4.1,4.5,7.9c0,5.4-4.6,9.4-11.4,9.4H172V636.3z
	 M184.5,644.4h-4.1v4.3h4.1c1.3,0,2.1-0.7,2.1-2.1C186.6,645.1,185.8,644.4,184.5,644.4 M184.8,656.7h-4.4v5h4.4
	c1.6,0,2.7-0.8,2.7-2.5C187.5,657.6,186.4,656.7,184.8,656.7"/>
<polygon points="221.1,669.9 221.1,636.3 240.8,636.3 240.8,644.4 229.5,644.4 229.5,648.9 239.8,648.9 239.8,657 229.5,657 
	229.5,661.8 240.8,661.8 240.8,669.9 "/>
<polygon points="266.7,669.9 266.7,636.3 275.1,636.3 275.1,661.8 286.4,661.8 286.4,669.9 "/>
<polygon points="309.6,669.9 309.6,636.3 318,636.3 318,661.8 329.3,661.8 329.3,669.9 "/>
<polygon points="355.3,655.6 344.7,636.3 354.1,636.3 359.5,647.2 365,636.3 374.4,636.3 363.7,655.6 363.7,669.9 355.3,669.9 "/>
<path d="M83.2,195.5h1H83.2z"/>
</svg>
