<?xml version="1.0" encoding="utf-8"?>
<!-- Generator: Adobe Illustrator 18.1.1, SVG Export Plug-In . SVG Version: 6.00 Build 0)  -->
<svg version="1.1" id="Layer_1" xmlns="http://www.w3.org/2000/svg" xmlns:xlink="http://www.w3.org/1999/xlink" x="0px" y="0px"
	 viewBox="-78.9 0 765 792" style="enable-background:new -78.9 0 765 792;" xml:space="preserve">
<path d="M84.8,685.4h442V0h-442V685.4z M107.5,24.9l5.1-2.1h3.9l0,0h40.2V24l-49.2,20.1V24.9z M504.1,430L107.5,592.7v-19.3
	l396.6-162.7L504.1,430L504.1,430z M504.1,438.1v19.3L107.5,620.1v-19.3L504.1,438.1z M504.1,402.5L107.5,565.3v-19.3l391.1-160.4
	h5.6L504.1,402.5L504.1,402.5z M181.8,26.3h314.1v333.9H181.8V26.3z M278.1,385.5l-170.6,69.9v-19.3l123.7-50.7H278.1z M297.9,385.5
	h46.9L107.5,483v-19.3L297.9,385.5z M364.9,385.5h46.9l-304.3,125v-19.3L364.9,385.5z M431.8,385.5h46.9L107.5,537.9v-19.3
	L431.8,385.5z M107.5,52.2L156.7,32v19.3l-49.2,20.2V52.2z M107.5,79.7l49.2-20.2v19.3l-49.2,20.1V79.7z M107.5,107.1l49.2-20.2
	v19.3l-49.2,20.2V107.1z M107.5,134.5l49.2-20.2v19.3l-49.2,20.2V134.5z M107.5,162l49.2-20.2V161l-49.2,20.2V162z M107.5,189.3
	l49.2-20.1v19.3l-49.2,20.2V189.3z M107.5,216.8l49.2-20.2v19.3l-49.2,20.2V216.8z M107.5,244.2l49.2-20.2v19.3l-49.2,20.2V244.2z
	 M107.5,271.7l49.2-20.2v19.3l-49.2,20.2V271.7z M107.5,299.1l49.2-20.1v19.3l-49.2,20.2V299.1z M107.5,326.5l49.2-20.2v19.3
	l-49.2,20.2V326.5z M107.5,353.9l49.2-20.2V353l-49.2,20.2V353.9z M107.5,381.4l49.2-20.2v19.3l-49.2,20.2V381.4z M107.5,408.8
	l56.8-23.3h46.9l-103.7,42.6V408.8z M107.5,628.3l396.6-162.7v19.3L107.5,647.6V628.3z M504.1,539.6l-299.7,123h-46.9l346.6-142.2
	V539.6z M504.1,547.8v19.3l-232.9,95.5h-46.9L504.1,547.8z M504.1,575.4v19.3l-166,68.1h-46.9L504.1,575.4z M504.1,602.7V622
	L405,662.7h-46.9L504.1,602.7z M504.1,630.2v15.7l-41,16.7h-38.2L504.1,630.2z M107.5,655.7l396.6-162.7v19.3L139.1,662l2.9,0.6
	h-34.4V655.7z M483,662.7l21-8.6v8.6H483z M406.2,86.3c-27.8,0-49,21.2-49,48.9c0,7.1,1.4,14,3.9,20H388c-4-4.4-7.1-11.6-7.1-20
	c0-14,11.3-24.5,25.3-24.5c13.9,0,25.3,10.6,25.3,24.5c0,8.4-3.1,15.3-7.4,20h27.3c2.4-6,3.9-12.9,3.9-20
	C455.2,107.4,433.9,86.3,406.2,86.3 M358.6,251.4l17.3,5.8V289l-17.3,5.9v26.6l95.2-35V260l-95.2-35V251.4z M398.8,264.9l23.9,8.2
	l-23.9,8.2V264.9z M316.4,151.8l-64.8-22.7l64.8-22.7V77.1h-95.2v23.7H274l-52.8,18v20.6l52.9,17.9h-52.9V181h95.2V151.8z
	 M223.7,269.7H257v10.9c0,19,11.6,32.2,30.9,32.2s31-13.1,31-32.2v-34.6h-95.2V269.7z M279.9,269.7h16v10.6c0,4.6-2.9,7.9-7.9,7.9
	c-5.2,0-7.9-3.3-7.9-7.9L279.9,269.7L279.9,269.7z M94.2,778.4v13.5h-9.9v-39.7h23.3v9.6H94.2v7.1h12.2v9.6L94.2,778.4L94.2,778.4z
	 M135.9,752.1h9.9v39.8h-9.9V752.1z M174.8,752.1h14.7c7.9,0,13.5,4.3,13.5,11.9c0,5.6-3.1,8.9-6.7,10c5.2,2.7,7.6,9.9,8.3,18h-10.4
	c-1.2-8-3.8-14-8.5-14h-1v14h-9.9V752.1z M189.7,761.7h-4.9v6.6h4.9c1.9,0,3.3-1.2,3.3-3.3C192.8,763,191.6,761.7,189.7,761.7
	 M233.6,791.9v-39.7h23.3v9.6h-13.3v5.3h12.2v9.6h-12.2v5.7h13.3v9.6L233.6,791.9L233.6,791.9z M287.5,752.1h14.9
	c7.4,0,12.6,4.4,12.6,10.7c0,4.3-1.7,7.1-4.3,8.6c3.2,1.7,5.3,4.9,5.3,9.3c0,6.4-5.4,11.1-13.5,11.1h-15.1L287.5,752.1L287.5,752.1z
	 M302.3,761.7h-4.9v5.1h4.9c1.6,0,2.4-0.8,2.4-2.4C304.8,762.6,303.8,761.7,302.3,761.7 M302.7,776.3h-5.2v5.9h5.2
	c1.9,0,3.2-1,3.2-3C305.8,777.3,304.5,776.3,302.7,776.3 M345.6,791.9v-39.7h23.3v9.6h-13.3v5.3h12.2v9.6h-12.2v5.7h13.3v9.6
	L345.6,791.9L345.6,791.9z M399.5,791.9v-39.7h9.9v30.1h13.3v9.6H399.5z M450.2,791.9v-39.7h9.9v30.1h13.3v9.6H450.2z M504.2,775
	l-12.6-22.9h11.1l6.4,12.9l6.5-12.9h11.1L514.1,775v16.9h-9.9L504.2,775L504.2,775z M182.5,231.1h1.2H182.5z"/>
</svg>
