<?xml version="1.0" encoding="utf-8"?>
<!-- Generator: Adobe Illustrator 18.1.1, SVG Export Plug-In . SVG Version: 6.00 Build 0)  -->
<svg version="1.1" id="Layer_1" xmlns="http://www.w3.org/2000/svg" xmlns:xlink="http://www.w3.org/1999/xlink" x="0px" y="0px"
	 viewBox="85 -65.8 170 118.2" enable-background="new 85 -65.8 170 118.2" xml:space="preserve">
<path d="M208.8,36.6h2.6l-1.3-3.3L208.8,36.6z M85,18.8v33.6h170V18.8H85z M110.4,40.4h-5.6v-9.6h1.8v7.9h3.8V40.4z M117.7,40.4
	h-1.8v-9.6h1.8L117.7,40.4L117.7,40.4z M131.5,40.4h-1.8l-4.1-6.3v6.3h-1.8v-9.6h1.8l4.1,6.3v-6.3h1.8L131.5,40.4L131.5,40.4z
	 M138.5,37.3c0.3,0.5,0.7,0.9,1.2,1.2c0.5,0.3,1.1,0.4,1.7,0.4c0.5,0,1-0.1,1.5-0.3s1-0.6,1.5-1.1l1.3,1.3c-0.7,0.7-1.4,1.2-2,1.5
	c-0.7,0.3-1.3,0.4-2.1,0.4c-1.5,0-2.7-0.4-3.7-1.4s-1.4-2.1-1.4-3.6c0-1,0.2-1.8,0.7-2.6c0.4-0.7,1-1.3,1.8-1.8
	c0.8-0.4,1.7-0.7,2.6-0.7c0.8,0,1.5,0.1,2.3,0.5c0.7,0.4,1.4,0.8,1.9,1.4l-1.3,1.3c-0.9-0.9-1.8-1.4-2.9-1.4c-0.9,0-1.7,0.3-2.3,1
	c-0.7,0.7-1,1.4-1,2.3C138.2,36.3,138.2,36.8,138.5,37.3z M158.2,39.2c-1,1-2.1,1.5-3.5,1.5c-1.5,0-2.7-0.5-3.6-1.5
	c-1-1-1.4-2.2-1.4-3.5c0-0.9,0.2-1.8,0.7-2.5c0.4-0.7,1-1.4,1.8-1.8c0.8-0.4,1.6-0.7,2.5-0.7c1.3,0,2.5,0.5,3.5,1.5
	c1,1,1.5,2.2,1.5,3.6C159.7,37,159.1,38.2,158.2,39.2z M169.7,40.4h-5.3v-9.6h1.8v7.9h3.5V40.4z M182.8,40.4H181l-4.1-6.3v6.3H175
	v-9.6h1.8l4.1,6.3v-6.3h1.8L182.8,40.4L182.8,40.4z M201,40.4h-1.8v-4.2H196v4.2h-1.8v-9.6h1.8v3.6h3.2v-3.6h1.8V40.4z M212.7,40.4
	l-0.7-2h-3.9l-0.8,2h-1.9l3.7-9.6h1.8l3.7,9.6H212.7z M224.4,40.4h-5.3v-9.6h1.8v7.9h3.5L224.4,40.4L224.4,40.4z M235.1,40.4h-5.3
	v-9.6h1.8v7.9h3.5L235.1,40.4L235.1,40.4z M154.6,32.4c-0.9,0-1.6,0.3-2.2,1c-0.6,0.6-0.9,1.4-0.9,2.4c0,1,0.4,1.9,1.2,2.5
	c0.6,0.5,1.3,0.7,2.1,0.7c0.9,0,1.6-0.3,2.2-1s0.9-1.4,0.9-2.3c0-0.9-0.3-1.7-0.9-2.3C156.3,32.6,155.5,32.4,154.6,32.4z
	 M119.5-65.8h11.9V-15h32.8v11.2h-44.7C119.5-3.8,119.5-65.8,119.5-65.8z M176.1-3.2H188v-27.1h20.9v27.1h11.9v-62h-11.9v23.3H188
	v-23.3h-11.9V-3.2L176.1-3.2z"/>
</svg>
