<?xml version="1.0" encoding="utf-8"?>
<!-- Generator: Adobe Illustrator 19.1.0, SVG Export Plug-In . SVG Version: 6.00 Build 0)  -->
<svg version="1.1" id="Layer_1" xmlns="http://www.w3.org/2000/svg" xmlns:xlink="http://www.w3.org/1999/xlink" x="0px" y="0px"
	 viewBox="0 0 230.9 160.5" style="enable-background:new 0 0 230.9 160.5;" xml:space="preserve">
<path d="M168.1,139.1h3.5l-1.7-4.5L168.1,139.1z M0,114.9v45.6h230.9v-45.6H0z M34.5,144.2h-7.6v-13h2.5v10.7h5.1V144.2z
	 M44.4,144.2H42v-13h2.5V144.2z M63.1,144.2h-2.4l-5.6-8.5v8.5h-2.5v-13h2.4l5.6,8.6v-8.6h2.5V144.2z M72.7,140
	c0.4,0.7,0.9,1.2,1.6,1.6c0.7,0.4,1.5,0.6,2.3,0.6c0.7,0,1.4-0.1,2-0.4c0.6-0.3,1.3-0.8,2-1.5l1.7,1.8c-1,0.9-1.9,1.6-2.7,2
	c-0.9,0.4-1.8,0.5-2.9,0.5c-2,0-3.7-0.6-5-1.9c-1.3-1.3-1.9-2.9-1.9-4.9c0-1.3,0.3-2.5,0.9-3.5c0.6-1,1.4-1.8,2.5-2.4
	c1.1-0.6,2.3-0.9,3.5-0.9c1.1,0,2.1,0.2,3.1,0.7c1,0.5,1.9,1.1,2.6,1.9l-1.7,1.7c-1.2-1.2-2.5-1.9-4-1.9c-1.2,0-2.3,0.4-3.1,1.3
	c-0.9,0.9-1.3,1.9-1.3,3.1C72.2,138.6,72.3,139.3,72.7,140z M99.4,142.6c-1.3,1.3-2.9,2-4.8,2c-2,0-3.6-0.7-4.9-2
	c-1.3-1.4-1.9-3-1.9-4.8c0-1.2,0.3-2.4,0.9-3.4c0.6-1,1.4-1.9,2.5-2.5c1.1-0.6,2.2-0.9,3.4-0.9c1.8,0,3.4,0.7,4.8,2
	c1.3,1.3,2,3,2,4.9C101.4,139.6,100.7,141.3,99.4,142.6z M115,144.2h-7.2v-13h2.5v10.7h4.7V144.2z M132.8,144.2h-2.4l-5.6-8.5v8.5
	h-2.5v-13h2.4l5.6,8.6v-8.6h2.5V144.2z M157.6,144.2h-2.5v-5.7h-4.3v5.7h-2.5v-13h2.5v4.9h4.3v-4.9h2.5V144.2z M173.5,144.2l-1-2.7
	h-5.3l-1.1,2.7h-2.6l5-13h2.5l5,13H173.5z M189.4,144.2h-7.2v-13h2.5v10.7h4.7V144.2z M203.9,144.2h-7.2v-13h2.5v10.7h4.7V144.2z
	 M94.6,133.3c-1.2,0-2.2,0.4-3,1.3c-0.8,0.8-1.2,1.9-1.2,3.2c0,1.4,0.5,2.6,1.6,3.4c0.8,0.7,1.7,1,2.8,1c1.2,0,2.2-0.4,3-1.3
	c0.8-0.9,1.2-1.9,1.2-3.1c0-1.2-0.4-2.3-1.2-3.1C96.8,133.7,95.8,133.3,94.6,133.3z M46.8,0h16.1v69h44.6v15.2H46.8V0z M123.8,85
	h16.1V48.2h28.4V85h16.1V0.8h-16.1v31.7h-28.4V0.8h-16.1V85z"/>
</svg>
