<?xml version="1.0" encoding="utf-8"?>
<!-- Generator: Adobe Illustrator 16.0.4, SVG Export Plug-In . SVG Version: 6.00 Build 0)  -->
<!DOCTYPE svg PUBLIC "-//W3C//DTD SVG 1.1//EN" "http://www.w3.org/Graphics/SVG/1.1/DTD/svg11.dtd">
<svg version="1.1" id="Layer_1" xmlns="http://www.w3.org/2000/svg" xmlns:xlink="http://www.w3.org/1999/xlink" x="0px" y="0px"
	 width="200px" height="160.792px" viewBox="-15 61.5 200 160.792" enable-background="new -15 61.5 200 160.792"
	 xml:space="preserve">
<path d="M123.764,193.328h2.576l-1.251-3.312L123.764,193.328z M0,175.512v33.572h170v-33.572H0z M25.4,197.083h-5.595v-9.571h1.84
	v7.878H25.4V197.083z M32.689,197.083h-1.767v-9.571h1.841v9.571H32.689z M46.458,197.083H44.69l-4.123-6.258v6.258h-1.841v-9.571
	h1.767l4.123,6.332v-6.332h1.841V197.083z M53.525,193.99c0.294,0.516,0.663,0.885,1.178,1.179c0.516,0.294,1.104,0.442,1.693,0.442
	c0.516,0,1.031-0.074,1.473-0.295s0.957-0.59,1.473-1.104l1.251,1.325c-0.736,0.662-1.399,1.178-1.988,1.473
	c-0.663,0.295-1.325,0.368-2.135,0.368c-1.472,0-2.724-0.442-3.681-1.399s-1.399-2.135-1.399-3.607c0-0.957,0.221-1.84,0.663-2.576
	c0.442-0.736,1.031-1.326,1.841-1.768c0.81-0.441,1.693-0.662,2.577-0.662c0.81,0,1.546,0.146,2.283,0.515
	c0.736,0.368,1.398,0.81,1.914,1.399l-1.251,1.252c-0.884-0.885-1.841-1.399-2.945-1.399c-0.883,0-1.693,0.294-2.282,0.957
	c-0.663,0.663-0.957,1.399-0.957,2.282C53.157,192.96,53.231,193.476,53.525,193.99z M73.183,195.905
	c-0.957,0.957-2.135,1.473-3.534,1.473c-1.473,0-2.651-0.516-3.608-1.473c-0.957-1.03-1.399-2.209-1.399-3.534
	c0-0.883,0.221-1.768,0.663-2.503c0.442-0.736,1.031-1.399,1.841-1.841s1.62-0.662,2.503-0.662c1.325,0,2.503,0.515,3.534,1.473
	c0.957,0.957,1.473,2.208,1.473,3.607C74.656,193.696,74.14,194.948,73.183,195.905z M84.669,197.083h-5.301v-9.571h1.841v7.878
	h3.46V197.083z M97.773,197.083h-1.767l-4.123-6.258v6.258h-1.841v-9.571h1.768l4.123,6.332v-6.332h1.84V197.083L97.773,197.083z
	 M116.033,197.083h-1.841v-4.196h-3.166v4.196h-1.841v-9.571h1.841v3.607h3.166v-3.607h1.841V197.083z M127.739,197.083
	l-0.736-1.987h-3.901l-0.811,1.987h-1.914l3.682-9.571h1.84l3.682,9.571H127.739z M139.445,197.083h-5.301v-9.571h1.841v7.878h3.46
	V197.083z M150.121,197.083h-5.301v-9.571h1.841v7.878h3.46V197.083z M69.649,189.059c-0.884,0-1.62,0.294-2.209,0.957
	c-0.589,0.588-0.883,1.398-0.883,2.355c0,1.031,0.368,1.914,1.178,2.504c0.589,0.515,1.251,0.736,2.062,0.736
	c0.884,0,1.62-0.295,2.209-0.958c0.589-0.663,0.883-1.398,0.883-2.282c0-0.883-0.294-1.693-0.883-2.282
	C71.269,189.353,70.533,189.059,69.649,189.059z M34.457,90.916H46.31v50.801h32.837v11.191h-44.69V90.916z M91.147,153.497h11.854
	v-27.094h20.908v27.094h11.854V91.505H123.91v23.339h-20.908V91.505H91.147V153.497L91.147,153.497z"/>
</svg>
