<?xml version="1.0" encoding="utf-8"?>
<!-- Generator: Adobe Illustrator 16.0.4, SVG Export Plug-In . SVG Version: 6.00 Build 0)  -->
<!DOCTYPE svg PUBLIC "-//W3C//DTD SVG 1.1//EN" "http://www.w3.org/Graphics/SVG/1.1/DTD/svg11.dtd">
<svg version="1.1" id="Layer_1" xmlns="http://www.w3.org/2000/svg" xmlns:xlink="http://www.w3.org/1999/xlink" x="0px" y="0px"
	 width="200px" height="200px" viewBox="-15 50.122 200 200" enable-background="new -15 50.122 200 200" xml:space="preserve">
<g id="logos">
	<g>
		<path d="M86.708,130.268v-27.116H59.592l7.83,7.83l-43.984,43.774c-0.105,1.313-0.21,2.627-0.21,3.941
			c0,5.728,2.26,10.194,3.941,15.345l51.657-51.657L86.708,130.268z"/>
		<path d="M113.352,158.014l-50.396,50.501c4.729,1.419,9.301,2.89,14.557,3.521c2.049,0.264,3.468,0.158,5.465-0.053l41.83-42.564
			l7.83,7.829v-27.116h-27.115L113.352,158.014z"/>
		<path d="M124.859,138.57v-27.116H97.744l7.829,7.83l-69.576,69.63c3.258,4.309,7.146,8.145,11.561,11.298l69.471-69.472
			L124.859,138.57z"/>
		<path d="M85.026,65C38.151,65,0,103.151,0,150.026c0,46.874,38.151,85.026,85.026,85.026C131.9,235.053,170,196.9,170,150.026
			C170,103.151,131.849,65,85.026,65z M85.026,218.078c-37.521,0-68.053-30.531-68.053-68.052c0-37.521,30.532-68.053,68.053-68.053
			c37.521,0,68.052,30.532,68.052,68.053C153.078,187.547,122.547,218.078,85.026,218.078z"/>
	</g>
</g>
<g id="guides">
</g>
</svg>
