<?xml version="1.0" encoding="utf-8"?>
<!-- Generator: Adobe Illustrator 16.0.4, SVG Export Plug-In . SVG Version: 6.00 Build 0)  -->
<!DOCTYPE svg PUBLIC "-//W3C//DTD SVG 1.1//EN" "http://www.w3.org/Graphics/SVG/1.1/DTD/svg11.dtd">
<svg version="1.1" id="Layer_1" xmlns="http://www.w3.org/2000/svg" xmlns:xlink="http://www.w3.org/1999/xlink" x="0px" y="0px"
	 width="200px" height="200px" viewBox="-15 50 200 200" enable-background="new -15 50 200 200" xml:space="preserve">
<path d="M169.123,137.691c-1.418-9.736-4.582-19.387-9.629-28.52c-17.554-31.85-52.758-47.976-86.833-43.015
	c-9.779,1.396-19.457,4.582-28.62,9.57c-31.929,17.514-48.131,52.592-43.156,86.58c1.413,9.733,4.571,19.369,9.622,28.51
	c17.539,31.822,52.713,47.988,86.812,43.029c9.77-1.438,19.487-4.582,28.625-9.594C157.875,206.773,174.072,171.686,169.123,137.691
	z M77.683,199.481c-0.611,0.332-1.312,0.581-1.998,0.682c-5.203,0.651-11.504-4.354-15.738-11.999
	c-1.927-3.426-3.083-6.934-3.537-10.084c-0.717-4.871,0.237-9.156,3.441-10.951c0.605-0.354,1.287-0.568,2.039-0.696
	c5.157-0.639,11.449,4.365,15.752,12.045c1.877,3.399,3.063,6.885,3.517,10.05C81.875,193.371,80.922,197.688,77.683,199.481z
	 M130.83,170.368c-0.637,0.349-1.312,0.55-2.033,0.644c-5.183,0.707-11.465-4.317-15.764-11.93
	c-1.883-3.452-3.062-6.945-3.542-10.085c-0.691-4.883,0.247-9.161,3.466-10.968c0.646-0.362,1.343-0.574,2.023-0.654
	c5.218-0.659,11.505,4.34,15.759,11.979c1.917,3.402,3.067,6.9,3.532,10.066C134.982,164.287,134.055,168.543,130.83,170.368z
	 M135.836,116.785c-2.796,2.565-5.531,4.337-7.523,4.652c-0.611,0.083-1.328,0.03-1.852-0.526c-0.268-0.264-0.374-0.611-0.455-0.942
	c-0.131-1.961,1.681-4.516,4.385-7.317c-5.934-4.873-22.024-15.729-44.579-12.417c-7.266,1.061-15.203,3.565-23.735,8.223
	c-34.907,19.151-34.286,49.658-33.04,59.721c0.696-0.133,1.368-0.241,2.014-0.364c3.421-0.327,6.13-0.608,7.104,1.506
	c0,0.008,0,0.067,0.055,0.173c0.041,1.486-1.125,2.267-2.604,3.172c-1.534,0.89-3.578,1.699-6.01,2.301
	c-1.06,0.273-2.089,0.51-3.103,0.651c-3.437,0.321-6.136,0.608-7.125-1.526c-0.016-0.033-0.025-0.061-0.025-0.148
	c-0.096-1.479,1.084-2.208,2.503-3.123c1.287-0.739,2.997-1.459,4.95-2.049c-0.686-2.168-1.519-5.307-2.089-9.176
	c-2.26-15.128,0-41.265,32.914-59.231c8.987-4.941,17.256-7.642,24.78-8.721c27.021-3.895,44,12.721,49.681,19.43
	c2.503-2.147,4.859-3.605,6.63-3.877c0.601-0.096,1.307-0.05,1.883,0.508c0.242,0.247,0.378,0.604,0.424,0.966
	C141.189,110.793,139.009,113.677,135.836,116.785z"/>
</svg>
