<?xml version="1.0" encoding="utf-8"?>
<!-- Generator: Adobe Illustrator 16.0.4, SVG Export Plug-In . SVG Version: 6.00 Build 0)  -->
<!DOCTYPE svg PUBLIC "-//W3C//DTD SVG 1.1//EN" "http://www.w3.org/Graphics/SVG/1.1/DTD/svg11.dtd">
<svg version="1.1" id="Layer_1" xmlns="http://www.w3.org/2000/svg" xmlns:xlink="http://www.w3.org/1999/xlink" x="0px" y="0px"
	 width="150px" height="140px" viewBox="10.077 441.729 150 140" enable-background="new 10.077 441.729 150 140"
	 xml:space="preserve">
<path d="M43.221,472.086c-2.042,1.701-4.849,2.467-8.592,2.467h-7.146v12.336h-7.061v-34.2H35.14c3.403,0,6.125,0.852,8.082,2.638
	c2.042,1.786,2.978,4.509,2.978,8.167C46.199,467.576,45.178,470.469,43.221,472.086z M37.777,459.75
	c-0.936-0.766-2.212-1.105-3.828-1.105h-6.466v10.038h6.466c1.616,0,2.893-0.425,3.828-1.191c0.936-0.851,1.361-2.127,1.361-3.913
	S38.627,460.516,37.777,459.75z M56.237,461.621v15.229c0,1.446,0.17,2.552,0.511,3.232c0.596,1.276,1.787,1.957,3.573,1.957
	c2.212,0,3.828-0.936,4.594-2.723c0.425-1.021,0.681-2.297,0.681-3.913v-13.781h6.635v25.267h-6.465v-3.573
	c-0.085,0.085-0.255,0.34-0.425,0.681c-0.255,0.425-0.511,0.766-0.851,1.021c-1.021,0.936-2.042,1.531-2.978,1.872
	c-0.936,0.34-2.127,0.51-3.402,0.51c-3.743,0-6.21-1.36-7.572-3.998c-0.765-1.446-1.105-3.658-1.105-6.551v-15.228L56.237,461.621
	L56.237,461.621z M98.434,464.684c1.871,2.383,2.808,5.53,2.808,9.273c0,3.913-0.937,7.146-2.808,9.783
	c-1.871,2.552-4.509,3.913-7.826,3.913c-2.127,0-3.828-0.425-5.105-1.276c-0.765-0.51-1.616-1.36-2.467-2.637v3.147h-6.55v-34.199
	h6.635v12.166c0.851-1.191,1.787-2.042,2.808-2.723c1.191-0.766,2.723-1.191,4.594-1.191
	C93.84,461.026,96.477,462.217,98.434,464.684z M92.904,480.082c0.936-1.361,1.445-3.147,1.445-5.444
	c0-1.787-0.255-3.318-0.68-4.424c-0.852-2.212-2.553-3.318-4.935-3.318s-4.083,1.106-5.019,3.233
	c-0.511,1.19-0.681,2.637-0.681,4.509c0,2.127,0.51,3.998,1.446,5.359c0.936,1.446,2.468,2.127,4.425,2.127
	C90.607,482.124,91.883,481.443,92.904,480.082z M111.535,486.888h-6.636v-34.199h6.636V486.888z M123.104,458.559h-6.721v-6.125
	h6.721V458.559z M116.384,461.621h6.721v25.268h-6.721V461.621z M143.097,470.725c-0.085-0.937-0.425-1.787-0.937-2.553
	c-0.765-1.021-1.871-1.531-3.487-1.531c-2.212,0-3.743,1.105-4.594,3.318c-0.425,1.19-0.681,2.722-0.681,4.679
	c0,1.871,0.256,3.317,0.681,4.509c0.765,2.127,2.297,3.147,4.509,3.147c1.531,0,2.637-0.425,3.318-1.276
	c0.68-0.851,1.02-1.956,1.19-3.232h6.721c-0.17,2.042-0.851,3.913-2.212,5.7c-2.041,2.892-4.85,4.338-8.848,4.338
	c-4.084,0-7.401-1.19-9.357-3.658c-1.957-2.382-2.893-5.529-2.893-9.357c0-4.339,1.021-7.742,3.147-10.124s5.019-3.658,8.763-3.658
	c3.147,0,5.785,0.681,7.826,2.127c2.042,1.446,3.232,3.914,3.573,7.571L143.097,470.725L143.097,470.725z M27.738,492.248
	l4.424,19.056l0.936,5.274l0.936-5.189l3.743-19.227h7.316l3.998,19.057l1.021,5.274l1.021-5.104l4.424-19.312h7.061l-9.358,33.349
	h-6.635l-3.999-19.482l-1.191-6.465l-1.191,6.465l-3.999,19.482H29.78l-9.443-33.178H27.738z M82.355,504.072
	c-2.042-2.637-5.274-3.913-9.443-3.913c-4.254,0-7.401,1.276-9.443,3.913c-2.042,2.638-3.147,5.7-3.147,9.273
	c0,3.658,1.021,6.721,3.147,9.272c2.042,2.553,5.274,3.828,9.443,3.828c4.253,0,7.401-1.275,9.443-3.828
	c2.042-2.552,3.148-5.7,3.148-9.272C85.502,509.772,84.481,506.71,82.355,504.072z M77.25,519.046
	c-1.021,1.36-2.467,2.041-4.338,2.041c-1.872,0-3.318-0.681-4.339-2.041c-1.021-1.361-1.531-3.233-1.531-5.7
	s0.511-4.339,1.531-5.699c1.021-1.361,2.467-1.957,4.339-1.957c1.871,0,3.317,0.681,4.338,1.957c1.021,1.36,1.531,3.232,1.531,5.699
	C78.697,515.812,78.271,517.685,77.25,519.046z M101.582,500.415c-1.957,0-3.488,0.51-4.68,1.531
	c-0.766,0.596-1.616,1.701-2.637,3.402v-4.339h-6.125v24.672h6.465v-11.74c0-1.957,0.256-3.403,0.766-4.424
	c0.852-1.701,2.637-2.553,5.189-2.553c0.17,0,0.426,0,0.766,0s0.681,0.085,1.105,0.085v-6.635c-0.255,0-0.51,0-0.596,0
	C101.752,500.415,101.666,500.415,101.582,500.415z M105.069,525.596h6.295v-7.741l2.638-2.808l5.955,10.549h7.826l-9.188-15.313
	l8.848-9.188h-7.997l-8.167,9.273v-17.95h-6.295v33.178H105.069z M127.273,517.77c0,2.552,0.936,4.594,2.807,6.295
	c1.872,1.616,4.68,2.468,8.593,2.468c3.828,0,6.636-0.766,8.423-2.297c1.786-1.532,2.722-3.573,2.722-5.955
	c0-1.872-0.596-3.403-1.872-4.68c-1.275-1.19-3.232-2.127-5.785-2.722c-3.828-0.851-6.125-1.446-6.721-1.787
	c-0.596-0.34-0.936-0.851-0.936-1.616c0-0.596,0.34-1.105,0.936-1.531c0.596-0.425,1.617-0.681,2.978-0.681
	c1.702,0,2.893,0.426,3.658,1.276c0.341,0.511,0.596,1.105,0.681,1.957h6.465c-0.254-2.978-1.36-5.104-3.316-6.381
	c-1.957-1.191-4.424-1.872-7.572-1.872c-3.232,0-5.785,0.852-7.571,2.468s-2.722,3.573-2.722,5.87c0,1.956,0.596,3.402,1.701,4.424
	c1.105,1.021,3.147,1.871,5.955,2.637c3.913,0.936,6.125,1.531,6.721,1.957c0.596,0.34,0.936,0.936,0.936,1.616
	c0,0.766-0.34,1.361-1.105,1.701c-0.766,0.341-1.787,0.596-3.062,0.596c-2.127,0-3.658-0.425-4.424-1.276
	c-0.426-0.511-0.766-1.275-0.852-2.467H127.273L127.273,517.77z M75.89,542.355H21.698v3.147h54.106v-3.147H75.89z M94.436,542.355
	v3.147h54.105v-3.147H94.436z M25.611,563.368c-0.085-0.34-0.17-1.021-0.936-1.021c-0.425,0-0.936,0.34-0.936,0.851
	c0,0.596,0.255,0.766,2.127,1.616c1.957,0.851,2.467,1.787,2.467,2.978c0,1.531-0.851,3.233-3.658,3.233
	c-2.978,0-3.743-1.957-3.743-3.318v-0.34h2.637c0,1.19,0.766,1.445,1.106,1.445c0.596,0,1.021-0.51,1.021-1.021
	c0-0.681-0.425-0.851-2.042-1.531c-0.765-0.255-2.552-1.021-2.552-2.978s1.872-3.062,3.658-3.062c1.021,0,2.127,0.34,2.808,1.191
	c0.596,0.766,0.681,1.446,0.681,2.041h-2.637L25.611,563.368L25.611,563.368z M36.161,560.051c3.233,0,5.53,2.467,5.53,5.444
	c0,2.893-2.297,5.444-5.53,5.444c-3.318,0-5.445-2.637-5.445-5.274c0-0.68,0.085-1.445,0.425-2.212
	C31.567,562.007,33.268,560.051,36.161,560.051z M36.161,568.558c1.872,0,2.808-1.701,2.808-3.062s-0.936-3.062-2.808-3.062
	s-2.808,1.616-2.808,3.062C33.353,567.111,34.374,568.558,36.161,568.558z M44.583,560.306h3.402l2.042,6.891l0,0l2.042-6.891h3.403
	v10.464h-2.467l0.085-7.826l0,0l-2.212,7.826h-1.786l-2.212-7.826l0,0l0.085,7.826h-2.467v-10.464H44.583z M58.96,560.306h5.785
	v2.382h-3.233v1.616h3.148v2.382h-3.148v1.787h3.233v2.297H58.96V560.306z M72.912,560.051c3.232,0,5.53,2.467,5.53,5.444
	c0,2.893-2.297,5.444-5.53,5.444c-3.318,0-5.445-2.637-5.445-5.274c0-0.68,0.085-1.445,0.425-2.212
	C68.403,562.007,70.02,560.051,72.912,560.051z M72.997,568.558c1.872,0,2.808-1.701,2.808-3.062s-0.936-3.062-2.808-3.062
	s-2.808,1.616-2.808,3.062C70.104,567.111,71.21,568.558,72.997,568.558z M81.249,560.306h3.488c1.191,0,3.233,0,4.594,1.957
	c0.681,1.021,0.936,2.126,0.936,3.232c0,2.808-1.446,5.274-5.359,5.274h-3.658V560.306L81.249,560.306z M83.971,568.388h1.106
	c1.956,0,2.552-1.361,2.552-2.893c0-0.596-0.085-1.361-0.51-1.957c-0.341-0.425-0.852-0.936-2.042-0.936h-1.191v5.785H83.971
	L83.971,568.388z M93.244,560.306h3.488c1.191,0,3.232,0,4.594,1.957c0.681,1.021,0.936,2.126,0.936,3.232
	c0,2.808-1.445,5.274-5.359,5.274h-3.658V560.306L93.244,560.306z M95.881,568.388h1.106c1.956,0,2.552-1.361,2.552-2.893
	c0-0.596-0.084-1.361-0.51-1.957c-0.341-0.425-0.852-0.936-2.042-0.936h-1.191v5.785H95.881L95.881,568.388z M105.239,560.306h3.403
	c1.957,0,2.637,0.255,3.232,0.766c0.852,0.681,1.191,1.701,1.191,2.723c0,1.021-0.426,2.212-1.105,2.722
	c-0.682,0.596-1.447,0.936-3.062,0.936h-1.191v3.233h-2.553v-10.379H105.239L105.239,560.306z M107.791,565.069h1.106
	c0.511,0,1.702,0,1.702-1.275c0-1.191-1.191-1.191-1.787-1.191h-1.021V565.069L107.791,565.069z M115.618,560.306h2.638v10.464
	h-2.638V560.306z M121.658,560.306h2.637v8.082h3.062v2.297h-5.784v-10.379H121.658L121.658,560.306z M134.76,560.051
	c3.232,0,5.529,2.467,5.529,5.444c0,2.893-2.297,5.444-5.529,5.444c-3.318,0-5.445-2.637-5.445-5.274
	c0-0.68,0.086-1.445,0.426-2.212C130.166,562.007,131.867,560.051,134.76,560.051z M134.76,568.558c1.871,0,2.807-1.701,2.807-3.062
	s-0.936-3.062-2.807-3.062c-1.872,0-2.808,1.616-2.808,3.062C131.952,567.111,132.973,568.558,134.76,568.558z M144.203,562.603
	h-2.043v-2.382h6.807v2.382h-2.042v8.082h-2.638v-8.082H144.203z M91.032,540.229l-2.212-2.212l-3.743,3.743l-3.743-3.743
	l-2.212,2.212l3.743,3.743l-3.743,3.743l2.212,2.212l3.743-3.743l3.743,3.743l2.212-2.212l-3.743-3.743L91.032,540.229z"/>
</svg>
