<?xml version="1.0" encoding="iso-8859-1"?>
<!-- Generator: Adobe Illustrator 18.1.1, SVG Export Plug-In . SVG Version: 6.00 Build 0)  -->
<svg version="1.1" id="Layer_1" xmlns="http://www.w3.org/2000/svg" xmlns:xlink="http://www.w3.org/1999/xlink" x="0px" y="0px"
	 viewBox="0 362.137 612 429.863" style="enable-background:new 0 362.137 612 429.863;" xml:space="preserve">
<path d="M155.597,432.883c-7.35,6.125-17.457,8.882-30.932,8.882H98.939v44.408H73.52V363.055h52.983
	c12.25,0,22.051,3.063,29.095,9.494c7.35,6.431,10.719,16.232,10.719,29.401C166.317,416.651,162.641,427.064,155.597,432.883z
	 M135.997,388.475c-3.369-2.756-7.963-3.981-13.782-3.981H98.939v36.139h23.276c5.819,0,10.413-1.531,13.782-4.288
	c3.369-3.063,4.9-7.657,4.9-14.088C140.897,395.825,139.059,391.231,135.997,388.475z M202.455,395.213v54.821
	c0,5.206,0.613,9.188,1.838,11.638c2.144,4.594,6.431,7.044,12.863,7.044c7.963,0,13.782-3.369,16.538-9.8
	c1.531-3.675,2.45-8.269,2.45-14.088v-49.614h23.888v90.959h-23.276v-12.863c-0.306,0.306-0.919,1.225-1.531,2.45
	c-0.919,1.531-1.838,2.756-3.063,3.675c-3.675,3.369-7.35,5.513-10.719,6.738s-7.657,1.838-12.25,1.838
	c-13.475,0-22.357-4.9-27.257-14.394c-2.756-5.206-3.981-13.169-3.981-23.582v-54.821L202.455,395.213L202.455,395.213z
	 M354.361,406.238c6.738,8.575,10.107,19.907,10.107,33.382c0,14.088-3.369,25.726-10.107,35.22
	c-6.738,9.188-16.232,14.088-28.176,14.088c-7.657,0-13.782-1.531-18.376-4.594c-2.756-1.838-5.819-4.9-8.882-9.494v11.332h-23.582
	V363.055h23.888v43.795c3.063-4.288,6.431-7.35,10.107-9.8c4.288-2.756,9.8-4.288,16.538-4.288
	C337.823,393.069,347.317,397.357,354.361,406.238z M334.454,461.671c3.369-4.9,5.206-11.332,5.206-19.601
	c0-6.431-0.919-11.944-2.45-15.926c-3.063-7.963-9.188-11.944-17.763-11.944s-14.701,3.981-18.069,11.638
	c-1.838,4.288-2.45,9.494-2.45,16.232c0,7.657,1.838,14.394,5.206,19.294c3.369,5.206,8.882,7.657,15.926,7.657
	C326.185,469.022,330.779,466.572,334.454,461.671z M401.525,486.172h-23.888V363.055h23.888V486.172z M443.177,384.187h-24.195
	v-22.051h24.195V384.187z M418.982,395.213h24.195v90.96h-24.195V395.213z M515.148,427.983c-0.306-3.369-1.531-6.431-3.369-9.188
	c-2.756-3.675-6.738-5.513-12.557-5.513c-7.963,0-13.475,3.981-16.538,11.944c-1.531,4.288-2.45,9.8-2.45,16.844
	c0,6.738,0.919,11.944,2.45,16.232c2.756,7.657,8.269,11.332,16.232,11.332c5.513,0,9.494-1.531,11.944-4.594
	c2.45-3.063,3.675-7.044,4.288-11.638h24.195c-0.613,7.35-3.063,14.088-7.963,20.519c-7.35,10.413-17.457,15.619-31.851,15.619
	c-14.701,0-26.645-4.288-33.689-13.169c-7.044-8.575-10.413-19.907-10.413-33.689c0-15.619,3.675-27.87,11.332-36.445
	c7.657-8.575,18.069-13.169,31.545-13.169c11.332,0,20.826,2.45,28.176,7.657c7.35,5.206,11.638,14.088,12.863,27.257
	L515.148,427.983L515.148,427.983z M99.858,505.467l15.926,68.602l3.369,18.988l3.369-18.682l13.475-69.215h26.338l14.394,68.602
	l3.675,18.988l3.675-18.376l15.926-69.521h25.42l-33.689,120.054h-23.888l-14.394-70.134l-4.288-23.276l-4.288,23.276
	l-14.394,70.134h-23.276L73.213,505.467H99.858z M296.478,548.037c-7.35-9.494-18.988-14.088-33.995-14.088
	c-15.313,0-26.645,4.594-33.995,14.088c-7.35,9.494-11.332,20.519-11.332,33.382c0,13.169,3.675,24.195,11.332,33.382
	c7.35,9.188,18.988,13.782,33.995,13.782c15.313,0,26.645-4.594,33.995-13.782c7.35-9.188,11.332-20.52,11.332-33.382
	C307.809,568.557,304.134,557.531,296.478,548.037z M278.102,601.939c-3.675,4.9-8.882,7.35-15.619,7.35
	c-6.738,0-11.944-2.45-15.619-7.35c-3.675-4.9-5.513-11.638-5.513-20.519s1.838-15.619,5.513-20.519
	c3.675-4.9,8.882-7.044,15.619-7.044s11.944,2.45,15.619,7.044c3.675,4.9,5.513,11.638,5.513,20.519
	C283.308,590.301,281.777,597.039,278.102,601.939z M365.693,534.868c-7.044,0-12.557,1.838-16.844,5.513
	c-2.756,2.144-5.819,6.125-9.494,12.25v-15.619h-22.051v88.816h23.276v-42.264c0-7.044,0.919-12.25,2.756-15.926
	c3.063-6.125,9.494-9.188,18.682-9.188c0.613,0,1.531,0,2.756,0c1.225,0,2.45,0.306,3.981,0.306v-23.888c-0.919,0-1.838,0-2.144,0
	C366.305,534.868,365.999,534.868,365.693,534.868z M378.249,625.521h22.663v-27.87l9.494-10.107l21.438,37.976h28.176
	l-33.076-55.127l31.851-33.076h-28.789L400.606,570.7v-64.621h-22.663v119.442H378.249z M458.183,597.345
	c0,9.188,3.369,16.538,10.107,22.663c6.738,5.819,16.844,8.882,30.932,8.882c13.782,0,23.888-2.756,30.32-8.269
	s9.8-12.863,9.8-21.438c0-6.738-2.144-12.25-6.738-16.844c-4.594-4.288-11.638-7.657-20.826-9.8
	c-13.782-3.063-22.051-5.206-24.195-6.432c-2.144-1.225-3.369-3.063-3.369-5.819c0-2.144,1.225-3.981,3.369-5.513
	c2.144-1.531,5.819-2.45,10.719-2.45c6.125,0,10.413,1.531,13.169,4.594c1.225,1.838,2.144,3.981,2.45,7.044h23.276
	c-0.919-10.719-4.9-18.376-11.944-22.97c-7.044-4.288-15.926-6.738-27.257-6.738c-11.638,0-20.826,3.063-27.257,8.882
	c-6.431,5.819-9.8,12.863-9.8,21.132c0,7.044,2.144,12.25,6.125,15.926c3.981,3.675,11.332,6.738,21.438,9.494
	c14.088,3.369,22.051,5.513,24.195,7.044c2.144,1.225,3.369,3.369,3.369,5.819c0,2.756-1.225,4.9-3.981,6.125
	s-6.431,2.144-11.025,2.144c-7.657,0-13.169-1.531-15.926-4.594c-1.531-1.838-2.756-4.594-3.063-8.882H458.183L458.183,597.345z
	 M273.202,685.854H78.113v11.332h194.782v-11.332H273.202z M339.967,685.854v11.332h194.782v-11.332H339.967z M92.201,761.501
	c-0.306-1.225-0.613-3.675-3.369-3.675c-1.531,0-3.369,1.225-3.369,3.063c0,2.144,0.919,2.756,7.657,5.819
	c7.044,3.063,8.882,6.432,8.882,10.719c0,5.513-3.063,11.638-13.169,11.638c-10.719,0-13.475-7.044-13.475-11.944v-1.225h9.494
	c0,4.288,2.756,5.206,3.981,5.206c2.144,0,3.675-1.838,3.675-3.675c0-2.45-1.531-3.063-7.35-5.513
	c-2.756-0.919-9.188-3.675-9.188-10.719s6.738-11.025,13.169-11.025c3.675,0,7.657,1.225,10.107,4.288
	c2.144,2.756,2.45,5.206,2.45,7.35h-9.494V761.501z M130.178,749.557c11.638,0,19.907,8.882,19.907,19.601
	c0,10.413-8.269,19.601-19.907,19.601c-11.944,0-19.601-9.494-19.601-18.988c0-2.45,0.306-5.206,1.531-7.963
	C113.64,756.601,119.765,749.557,130.178,749.557z M130.178,780.183c6.738,0,10.107-6.125,10.107-11.025
	c0-4.9-3.369-11.025-10.107-11.025c-6.738,0-10.107,5.819-10.107,11.025C120.071,774.976,123.746,780.183,130.178,780.183z
	 M160.498,750.476h12.25l7.35,24.807l0,0l7.35-24.807h12.25v37.67h-8.882l0.306-28.176l0,0l-7.963,28.176h-6.431l-7.963-28.176l0,0
	l0.306,28.176h-8.882v-37.67H160.498z M212.256,750.476h20.826v8.575h-11.638v5.819h11.332v8.575h-11.332v6.432h11.638v8.269
	h-20.826V750.476z M262.483,749.557c11.638,0,19.907,8.882,19.907,19.601c0,10.413-8.269,19.601-19.907,19.601
	c-11.944,0-19.601-9.494-19.601-18.988c0-2.45,0.306-5.206,1.531-7.963C246.251,756.601,252.07,749.557,262.483,749.557z
	 M262.789,780.183c6.738,0,10.107-6.125,10.107-11.025c0-4.9-3.369-11.025-10.107-11.025c-6.738,0-10.107,5.819-10.107,11.025
	C252.376,774.976,256.357,780.183,262.789,780.183z M292.496,750.476h12.557c4.288,0,11.638,0,16.538,7.044
	c2.45,3.675,3.369,7.656,3.369,11.638c0,10.107-5.206,18.988-19.294,18.988h-13.169L292.496,750.476L292.496,750.476z
	 M302.296,779.57h3.981c7.044,0,9.188-4.9,9.188-10.413c0-2.144-0.306-4.9-1.838-7.044c-1.225-1.531-3.063-3.369-7.35-3.369h-4.288
	v20.826H302.296z M335.679,750.476h12.557c4.288,0,11.638,0,16.538,7.044c2.45,3.675,3.369,7.656,3.369,11.638
	c0,10.107-5.206,18.988-19.294,18.988h-13.169L335.679,750.476L335.679,750.476z M345.173,779.57h3.981
	c7.044,0,9.188-4.9,9.188-10.413c0-2.144-0.306-4.9-1.838-7.044c-1.225-1.531-3.063-3.369-7.35-3.369h-4.288v20.826H345.173z
	 M378.862,750.476h12.25c7.044,0,9.494,0.919,11.638,2.756c3.063,2.45,4.288,6.125,4.288,9.8c0,3.675-1.531,7.963-3.981,9.8
	c-2.45,2.144-5.206,3.369-11.025,3.369h-4.288v11.638h-9.188v-37.364H378.862z M388.05,767.626h3.981c1.838,0,6.125,0,6.125-4.594
	c0-4.288-4.288-4.288-6.431-4.288h-3.675V767.626L388.05,767.626z M416.226,750.476h9.494v37.67h-9.494V750.476z M437.97,750.476
	h9.494v29.095h11.025v8.269h-20.826v-37.364H437.97z M485.134,749.557c11.638,0,19.907,8.882,19.907,19.601
	c0,10.413-8.269,19.601-19.907,19.601c-11.944,0-19.601-9.494-19.601-18.988c0-2.45,0.306-5.206,1.531-7.963
	C468.596,756.601,474.721,749.557,485.134,749.557z M485.134,780.183c6.738,0,10.107-6.125,10.107-11.025
	c0-4.9-3.369-11.025-10.107-11.025s-10.107,5.819-10.107,11.025C475.028,774.976,478.703,780.183,485.134,780.183z M519.129,758.745
	h-7.35v-8.575h24.501v8.575h-7.35v29.095h-9.494v-29.095H519.129z M327.716,678.198l-7.963-7.963l-13.475,13.475l-13.475-13.475
	l-7.963,7.963l13.475,13.475l-13.475,13.475l7.963,7.963l13.475-13.475l13.475,13.475l7.963-7.963l-13.475-13.475L327.716,678.198z"
	/>
</svg>
