<?xml version="1.0" encoding="utf-8"?>
<!-- Generator: Adobe Illustrator 18.1.1, SVG Export Plug-In . SVG Version: 6.00 Build 0)  -->
<svg version="1.1" id="Layer_1" xmlns="http://www.w3.org/2000/svg" xmlns:xlink="http://www.w3.org/1999/xlink" x="0px" y="0px"
	 viewBox="0 0 1200 270" enable-background="new 0 0 1200 270" xml:space="preserve">
<g>
	<g>
		<g>
			<path fill="#221F20" d="M427.1,4.6C367,13.8,324.3,47,324.3,63.3c0,19.3,30.4,35.6,50.6,57.1c10.8,11.5,13.9,21.3,13.9,31.2
				c0,5.2-0.7,10.9-2.4,13.5c-3.2,4.8-16.4,11.5-26.7,9.7c-20.5-3.8-24.3-32.5-19.2-46.9c0.8-2.2,0.1-6.5-3.2-8.5
				c-3.2-1.9-8.3-1.7-10.7,4.5c-5.5,14-9.1,48.2,11.6,62.6c6.5,4.6,14.5,6.4,26.4,6.4c35,0,56.1-26.6,65.7-51.9
				c10.6-27.7,15-53.2-13.4-77.2c-7.3-6.2-13-18.3-11.1-24.4c2.4-7.5,8.5-9.4,8.5-4.2c0,8.4,20.2,14.8,26.3-12.7
				C441.4,19.5,435.8,3.3,427.1,4.6"/>
		</g>
	</g>
	<g>
		<path fill="#221F20" d="M563.2,127.4c-2.3,2.6-1.1,1-3.1,3.8c-1.7,2.4-10.8,11.4-19.6,12.4c-12.3,1.4-13.9-14.9-14-20.9
			c-0.1-8,6.4-22.9,15.4-23c2.8,0,3.2,0.7,4.1,2c1,1.2,1.8,1.9,0.9,3.7c-5.5,11.2-3.6,17.6,0.3,17.6c1.6,0,2-1,3.3-1.8
			c1.3-0.9,11.3-8.3,11.3-15.1c0-6.8-4.9-22.1-12.9-24.4c-3.2-0.9-12,1.8-19.2,6.2c-11.6,7-19.2,24-19.2,24
			c-5.2,6.7-7.4,8.6-10.9,12.2c-3.5,3.6-9.8,11.6-16.9,12c-5.5,0.3-7.7-6.3-9.3-10.3c-0.7-1.7-1.8-5.8-1.3-5.8c0.8,0,2.3-0.5,4-1
			c3.4-1,25.1-14.2,25-31c-0.1-6.1-5.6-10.3-9.2-10.2c-3.6,0-12.7,1.9-18.6,5.8c-9.8,6.5-17.6,14.2-21,19.2
			c-9.1,13.2-13.7,37.3-2.5,50.3c5.2,6.1,11.7,11.1,19.1,12.3c16.5,2.7,26.6-19.5,34.5-26.6c1.5,14.8,3.4,19.9,9.6,24.1
			c6.1,4.2,13.6,5.1,23.8-1.2c10.3-6.2,22.8-17,26.8-22.3c0.1,12.8,9.3,22.8,21.8,24.2c23.1,2.7,37.7-31.1,40.6-47
			c2.5-13.1-0.8-18.4,0.5-19.1c1.9-0.9,10.5-3.3,12.4-2.4c1.9,0.9,4.9,15.4,3.7,23.8c-1.9,14-7.2,38.1,2.2,39
			c9.2,0.9,23.3-23.9,29.5-23.9c7.8-0.1,11,20,20.1,20c9.2,0.1,18.8-10.5,24.4-10.5c-0.9,13.8,6.2,22.8,17.4,22.7
			c19.7-0.2,47.3-37,55.9-46.8c-3.3,16.6-3.7,39.8-4,44.8c-0.3,5,2.9,11.9,5.7,11.9c8.8-0.1,23.2-9.4,27.7-20.6
			c-0.4-6.6,3.2-21.4,9.6-34.8c8.7-18.2,14.2-37.9,14.2-44.8c0-8.8-7.7-40.3-17-41.5c-6.2-0.8-19.3,9-20.9,11.2
			c-2.9,4.1-3,9.2-4.5,16.9c-2.1,10.7-4.1,22-8.5,32c-3.5,7.9-6.5,15.3-10.7,21.1c-9.9,13.7-21.5,20.1-23.1,19.2
			c-2.4-1.5-2-9.9,0.9-17.3c1.8-4.5,4.2-6.9,8.1-7.9c3.9-1,8.2-0.8,9.1-0.6c3.2,0.7,4.6-4.7,4.2-7.9c-0.3-2.7-7.9-3.4-15.5-3
			c-23.8,1.3-29.1,11.7-35.5,21.6c-10.3,16-23.5,12.7-28.8,3c-5.1-9.4-9.1-19.8-16.4-16.4c-3.4,1.6-10.6,6.3-13.1,8.5
			c-2.5,2.2-6.2,5.2-6.9,4.3c-1-1.5,1.2-8.6,1.6-11.7c2-16,3-30.5-3.6-34c-3.3-1.7-15.5,0.1-23.4,4.4c-3.5,1.9-23.7,9.6-32.2,9.7
			c-3.3,0-3.9-3.9-7-3.9C579.4,83.7,563.5,113.7,563.2,127.4 M469.3,110c-0.8-2.5-1.8-5.7-1.5-9.3c0.2-2.2,2.2-4.6,3.7-5.6
			c2.4-1.6,4.7-3.5,6.3-3.2c1.6,0.2,3.2,1.7,3.8,3c0.5,1.3,0.1,6.9-1.3,8.7C478.2,106.2,474.2,110.4,469.3,110z M616.7,113.9
			c0,4.4-6,18-10.3,21.6c-2.9,2.4-6.9,2.1-9.7-0.9c-2.7-2.8-6.1-8-4.1-19.2c0.9-5.4,4.6-12.9,9.7-14c1.1-0.2,7.4-0.1,10.2-0.5
			C616.1,100.5,616.6,103.1,616.7,113.9z"/>
	</g>
	<g>
		<g>
			<path fill="#221F20" d="M947.3,34.9c-16.5,0-75,35.5-78.5,75.6c-2.7,30,15.2,61.5,30,66.6c3.3,1.2,10.8,1.6,17.8-0.6
				c26-8.3,55.1-42.1,73.2-66.2c0.6-0.7,1.7-0.3,1.2,1.4c-3.3,16.2-4.6,28.3-3.9,35.6c0.9,10,8.4,13.4,11.4,14
				c8.2,1.4,22.7-22.8,28.4-33.5c0.4-0.7,1.1-0.5,1.1,0.4c-1.1,21.4,2.7,29.9,6.8,33.5c2.5,2.2,8.4,4.3,9.6,4.2
				c11.5-1.1,24.1-21,32.8-35.4c0.7-1.2,1.9,0.5,1.9,2.1c0,23,3.4,27.9,7.5,29.7c0.9,0.4,5.8,2.5,8,1.9c8.3-1.9,18.9-10.3,27.6-23.7
				c-1.9,26.2-22,82.7-26.5,104.7c-1.6,8-1.6,14.3-0.5,15.5c4.9,4.9,22.1,6.3,35.2,1c13.2-5.4,17.6-13.6,18.1-16
				c1.9-9.4-10.3-59.6,7.5-122.5c0.2-0.8,0.5-1.5,1.4-3.6c1.4-3.3,1-8-3.5-14.1c-2.5-3.5-6.8-4.7-12.3-3.7c-6.1,1.2-7,3.1-9.8,8.9
				c-2.8,5.9-13.6,22.4-21.1,22.1c-5.1-0.2-5.7-3.9-6.1-9.4c-0.5-6.8-1.9-19.9-1.9-22.3c0-2.4-0.9-6.2-6.8-5.9
				c-8.4,0.4-17.6,19-30,31c-5.4,5.2-8.2,3.8-9.9,3.1c-1.6-0.7-1.9-12.7-0.5-23.5c0.9-6.8,8-38,8.9-45.3c14.8,1.8,35.3,3.6,55.4,4.2
				c18.9,0.5,36.4-0.7,48.4-0.3c7-4.9,20.7-23.7,22.3-30.5c1.1-4.5-0.1-7.6-5.9-8c-20.9-1.4-40.9,2.3-62.9,8.7
				c-16.1,4.6-20.2,5.1-26.3,6.6c-6.1,1.4-24.6,4-29.5,4.7c0.2-2.8,1.1-5.7-0.5-6.6c-2.7-1.6-8.2-1.8-13.1,1.6
				c-1.5,1.4-2.7,4.7-3.3,6.5c-11.6,1.7-24.9,0.6-31.4-1.4c-2.3-0.7-3.5-2.3-3.8-4c-0.3-1.7-1.2-9.2-2.8-10.8
				c-1.6-1.6-1.2-9.8-3.3-10.8c-2.1-0.9-10.6-5.6-20.7,12.4c-6.2,11.1-5.4,14.8-1.4,18.8c1.6,1.7,4.2,3.3,7,3.3
				c8.2,0,13.1-1.9,16.9-4c3.8-2.1,4.7-0.5,8.5,0.9c3.8,1.4,19.5,5.6,27.7,6.3c-4.4,11.7-13.6,35.7-16,45.1
				c-5.1,9.7-13.4,22.7-18.1,22.7c-2.8,0-4.6-3.1-5.2-5.1c-0.9-3.8,1.2-16.9,2.8-26.5c1.6-9.6,5-18.5-4-18.5c-8,0-8.3,0.6-11.3,4.5
				c-16.7,21.4-43.6,48.5-62.3,52.7c-10.7,2.4-21-17.7-21-27.4c0-13.4,4.2-28.7,18.5-38.9c1.6-1.2,1.6-1.2,2.6-1.2
				c0.9,0,3.1-0.5,3.5,1.2c0.5,1.6,3,9.2,7,9.2c5.2,0,14.1-13,14.1-30.3C956.7,35.6,948.4,34.9,947.3,34.9"/>
		</g>
		<g>
			<path fill="#221F20" d="M309.6,129.1c-0.6-5-7.8-2.2-11.3-0.4c-3.5,1.9-7.5,5.6-7.5,9.1c0,3.4,0.6,7.2,0.3,10
				c-0.3,2.8-1.1,5.1-5.7,6.1c-3.4,0.8-10-1.4-13.1-5.2c-6.9-8.3-7.5-10.1-9.3-13.5c6.3-4.4,16.7-11.5,17.7-22.8
				c1.3-13.4-17.1-11.7-28.6-5.5c-22.9,12.3-25.6,23.7-23.3,32.9c-7.3,7.8-16.9,8.1-25.6,3.9c-18.4-8.8-16.2-21.9-27.1-24.1
				c-11.4-2.3-19.5,7.2-24.2,7.2c5-25.7,17.5-60.4,40.7-102.8c0.1-0.5,0.7-2.8-1.9-3.5c-3-0.8-11.7-1.5-16.7,1.9
				c-5,3.4-8,10.1-10.5,14.2c-10.5,4.2-15,5.9-29.2,6.8c-7,0.4-15.5,0.9-17.8,0.9c0.2-4.7-0.9-16.4-1.4-19c-0.4-2.6-2.8-5.4-7.7-4.7
				c-9.3,1.3-27.9,7.2-29.9,19.9c-10.2-0.5-29-6.1-41.4-5.3c-24.9,1.7-28.6,2.7-29.4,9.7c-0.4,3.8,0.7,6.8,0.7,8.2
				c0,1.5,0.7,7.1,5.9,6.1c22.1-4.3,54-3.6,61.2-4.1c-2.2,23.4-8.8,76.3-14.4,97.6c-4.3,16.4-7.3,27.6,5.6,22.1
				c13.7-5.9,18.8-9.3,23.5-12.2c4.7-2.8,13.7-11.9,15.6-25.3c2.4-16.9,6.7-37.1,7.2-44.1c0.5-7,3.4-30,4.4-38c15,0,35-6.2,41.1-8.6
				c-25.5,47.8-41.2,100.6-40.2,110.4c0.5,4.7,3.5,7.1,9.6,6.1c6.1-0.9,15.1-7,20.2-12.6c5.2-5.6,10.3-7.5,16.9-6.5
				c6.6,1,9.7,3.4,11.7,7.5c4.5,9.3,12,12.6,24.6,10.6c16.4-2.6,23-8.9,30.8-14.7c7.8,15.5,17.1,22.3,38.2,22.3
				c11.9,0,28.2-9.2,34.8-17.6C308,147.2,310.3,134.1,309.6,129.1 M259,125.8c-1.6-1.9-2.5-8.1-2.8-12.2c0.9-2.5,6.6-5.5,10-2.9
				c3.4,2.5,5,7.1-0.4,12.7C263.7,125.6,261.6,126.5,259,125.8z"/>
		</g>
	</g>
	<g>
		<path fill="#221F20" d="M1178.2,116.8c-1.6,1.6-3.5,2.4-5.7,2.4c-2.3,0-4.2-0.8-5.7-2.4c-1.6-1.6-2.4-3.5-2.4-5.7
			c0-2.2,0.8-4.1,2.4-5.7c1.6-1.6,3.5-2.4,5.7-2.4c2.2,0,4.1,0.8,5.7,2.4c1.6,1.5,2.4,3.4,2.4,5.7
			C1180.6,113.3,1179.8,115.2,1178.2,116.8 M1167.5,106.1c-1.3,1.4-2,3-2,4.9c0,1.9,0.7,3.6,2,4.9c1.4,1.4,3,2.1,4.9,2.1
			c1.9,0,3.6-0.7,4.9-2.1c1.4-1.3,2-3,2-4.9c0-1.9-0.7-3.5-2-4.9c-1.4-1.3-3-2-4.9-2C1170.5,104.1,1168.9,104.8,1167.5,106.1z
			 M1172.3,106.6c1.1,0,1.9,0.1,2.4,0.3c0.9,0.4,1.4,1.1,1.4,2.3c0,0.8-0.3,1.4-0.9,1.7c-0.3,0.2-0.8,0.3-1.3,0.4
			c0.7,0.1,1.2,0.4,1.5,0.9c0.3,0.5,0.5,0.9,0.5,1.3v0.7c0,0.2,0,0.4,0,0.7c0,0.2,0.1,0.4,0.1,0.4l0.1,0.1h-1.5v-0.1
			c0-0.1,0-0.1,0-0.1l-0.1-0.3v-0.7c0-1-0.2-1.7-0.8-2c-0.4-0.2-0.9-0.3-1.8-0.3h-1.2v3.5h-1.5v-8.9H1172.3z M1174,108
			c-0.4-0.2-1-0.3-1.9-0.3h-1.4v3.2h1.4c0.7,0,1.2-0.1,1.5-0.2c0.6-0.2,0.9-0.7,0.9-1.4C1174.6,108.7,1174.4,108.3,1174,108z"/>
	</g>
</g>
</svg>
