<?xml version="1.0" encoding="utf-8"?>
<!-- Generator: Adobe Illustrator 18.1.1, SVG Export Plug-In . SVG Version: 6.00 Build 0)  -->
<svg version="1.1" id="Layer_1" xmlns="http://www.w3.org/2000/svg" xmlns:xlink="http://www.w3.org/1999/xlink" x="0px" y="0px"
	 viewBox="0 582 612 210" enable-background="new 0 582 612 210" xml:space="preserve">
<g id="Layer_1_1_">
	<g>
		<g>
			<g>
				<path fill="#221F20" d="M217.2,657.5c-31.1,4.8-53.1,21.9-53.1,30.2c0,10,15.8,18.4,26.1,29.6c5.6,5.9,7.2,11,7.2,16.1
					c0,2.6-0.3,5.6-1.2,6.9c-1.6,2.5-8.5,5.9-13.8,4.9c-10.5-2-12.5-16.8-9.9-24.2c0.3-1.2,0-3.3-1.6-4.4c-1.6-1-4.3-0.8-5.6,2.3
					c-2.8,7.2-4.8,25,5.9,32.4c3.5,2.3,7.6,3.3,13.6,3.3c18.1,0,28.9-13.8,34-26.8c5.4-14.3,7.7-27.4-6.9-39.9
					c-3.8-3.1-6.7-9.4-5.8-12.7c1.2-3.8,4.4-4.8,4.4-2.1c0,4.3,10.4,7.6,13.6-6.6C224.6,665.2,221.8,656.8,217.2,657.5"/>
			</g>
		</g>
		<g>
			<path fill="#221F20" d="M287.5,720.8c-1.2,1.3-0.5,0.5-1.6,2c-0.8,1.3-5.6,5.9-10.2,6.4c-6.4,0.8-7.2-7.7-7.2-10.8
				c0-4.1,3.3-11.8,8.1-11.8c1.5,0,1.6,0.3,2.1,1s1,1,0.5,2c-2.8,5.8-1.8,9,0.2,9c0.8,0,1-0.5,1.6-1c0.7-0.5,5.9-4.3,5.8-7.9
				c0-3.5-2.5-11.5-6.7-12.7c-1.6-0.5-6.2,1-9.9,3.1c-5.9,3.6-9.9,12.3-9.9,12.3c-2.6,3.5-3.8,4.4-5.6,6.2c-1.8,1.8-5.1,6.1-8.7,6.2
				c-2.8,0.2-3.9-3.3-4.8-5.4c-0.3-0.8-1-3-0.7-3c0.5,0,1.2-0.3,2.1-0.5c1.8-0.5,13-7.4,13-15.9c0-3.1-3-5.3-4.8-5.3s-6.6,1-9.7,3
				c-5.1,3.3-9,7.4-10.8,9.9c-4.8,6.9-7.1,19.2-1.3,26c2.6,3.1,6.1,5.8,9.9,6.4c8.5,1.3,13.8-10,17.9-13.8
				c0.8,7.6,1.8,10.4,4.9,12.5s7.1,2.6,12.3-0.7c5.3-3.1,11.8-8.7,13.8-11.5c0,6.6,4.8,11.8,11.2,12.5c12,1.5,19.4-16.1,21-24.3
				c1.3-6.7-0.3-9.5,0.3-9.9c1-0.5,5.4-1.6,6.4-1.2c1,0.4,2.5,7.9,2,12.3c-1,7.2-3.8,19.7,1.2,20c4.8,0.5,12-12.3,15.3-12.3
				c3.9,0,5.6,10.4,10.4,10.4s9.7-5.4,12.7-5.4c-0.5,7.1,3.3,11.8,9,11.7c10.2-0.2,24.5-19.1,28.9-24.2c-1.6,8.5-2,20.5-2.1,23.2
				c-0.1,2.7,1.5,6.1,3,6.1c4.6,0,12-4.8,14.3-10.7c-0.2-3.5,1.6-11,4.9-18.1c4.4-9.4,7.4-19.6,7.4-23.2c0-4.6-3.9-20.9-8.7-21.4
				c-3.1-0.3-10,4.6-10.8,5.8c-1.5,2.1-1.5,4.8-2.3,8.7c-1.2,5.6-2.1,11.3-4.4,16.6c-1.8,4.1-3.3,7.9-5.6,10.8
				c-5.1,7.1-11.2,10.4-12,9.9c-1.3-0.8-1-5.1,0.5-8.9c1-2.3,2.1-3.6,4.1-4.1s4.3-0.3,4.8-0.3c1.6,0.3,2.3-2.5,2.1-4.1
				c-0.2-1.5-4.1-1.8-8.1-1.5c-12.3,0.7-15.1,6.1-18.4,11.2c-5.3,8.2-12.2,6.6-14.8,1.6c-2.6-4.8-4.8-10.2-8.5-8.4
				c-1.8,0.8-5.4,3.3-6.7,4.4c-1.3,1.2-3.3,2.6-3.6,2.1c-0.5-0.8,0.7-4.4,0.8-6.1c1-8.2,1.6-15.8-1.8-17.6c-1.6-0.8-8.1,0-12,2.3
				c-1.8,1-12.3,4.9-16.6,4.9c-1.6,0-2-2-3.6-2C295.9,698.3,287.7,713.8,287.5,720.8 M239,712c-0.5-1.3-1-3-0.8-4.8
				c0.2-1.2,1.2-2.5,2-3c1.2-0.8,2.5-1.8,3.3-1.6c0.8,0.2,1.6,0.8,2,1.5c0.3,0.7,0,3.6-0.7,4.4C243.6,710,241.5,712.2,239,712z
				 M315.3,714c0,2.3-3.1,9.4-5.3,11.2c-1.5,1.2-3.6,1.2-5.1-0.5c-1.5-1.5-3.1-4.1-2.1-9.9c0.5-2.8,2.3-6.7,4.9-7.2
				c0.7-0.2,3.8,0,5.3-0.3C315,707,315.1,708.5,315.3,714z"/>
		</g>
		<g>
			<g>
				<path fill="#221F20" d="M486,673c-8.5,0-38.8,18.4-40.6,39.1c-1.3,15.4,7.9,31.7,15.4,34.5c1.6,0.7,5.6,0.8,9.2-0.3
					c13.5-4.3,28.4-21.7,37.8-34.2c0.3-0.3,0.8-0.2,0.7,0.7c-1.6,8.4-2.3,14.6-2,18.4c0.5,5.1,4.4,6.9,5.9,7.2
					c4.3,0.7,11.8-11.8,14.6-17.3c0.2-0.3,0.5-0.3,0.7,0.2c-0.5,11,1.5,15.4,3.5,17.3c1.3,1.2,4.4,2.1,4.9,2.1
					c5.9-0.5,12.5-10.8,16.9-18.2c0.3-0.7,1,0.2,1,1.2c0,11.8,1.8,14.5,3.9,15.3c0.5,0.2,3,1.3,4.1,1c4.3-1,9.7-5.3,14.3-12.3
					c-1,13.5-11.3,42.7-13.6,54.1c-0.8,4.1-0.8,7.4-0.2,8.1c2.5,2.5,11.5,3.3,18.2,0.5c6.7-2.8,9-7.1,9.4-8.2
					c1-4.9-5.3-30.7,3.9-63.3c0.2-0.3,0.3-0.8,0.7-1.8c0.7-1.6,0.5-4.1-1.8-7.2c-1.3-1.8-3.5-2.5-6.4-2c-3.1,0.7-3.6,1.6-5.1,4.6
					s-7.1,11.5-10.8,11.3c-2.6-0.2-3-2-3.1-4.9c-0.2-3.5-1-10.4-1-11.5c0-1.2-0.5-3.3-3.5-3c-4.4,0.2-9,9.9-15.4,15.9
					c-2.8,2.6-4.3,2-5.1,1.6c-0.8-0.4-1-6.6-0.2-12.2c0.5-3.5,4.1-19.7,4.6-23.3c7.6,1,18.2,1.8,28.6,2.1c9.7,0.3,18.7-0.3,25-0.2
					c3.6-2.5,10.7-12.3,11.5-15.8c0.5-2.3,0-3.9-3-4.1c-10.8-0.7-21,1.2-32.5,4.4c-8.4,2.3-10.5,2.6-13.6,3.5
					c-3.1,0.7-12.8,2.1-15.3,2.5c0.2-1.5,0.7-3-0.3-3.5c-1.3-0.8-4.3-1-6.7,0.8c-0.8,0.7-1.3,2.5-1.6,3.3
					c-5.9,0.8-12.8,0.3-16.3-0.7c-1.2-0.3-1.8-1.2-2-2.1c-0.2-0.8-0.7-4.8-1.5-5.6s-0.7-5.1-1.6-5.6c-1.2-0.5-5.4-3-10.7,6.4
					c-3.1,5.8-2.8,7.6-0.7,9.7c0.8,0.8,2.1,1.6,3.6,1.6c4.3,0,6.7-1,8.7-2.1c2-1.2,2.5-0.2,4.4,0.5c2,0.8,10,3,14.3,3.3
					c-2.3,6.1-7.1,18.4-8.2,23.3c-2.6,5.1-6.9,11.8-9.4,11.8c-1.5,0-2.5-1.6-2.6-2.6c-0.5-2,0.7-8.7,1.5-13.6s2.6-9.5-2-9.5
					c-4.1,0-4.3,0.3-5.9,2.3c-8.5,11-22.5,25.1-32.2,27.3c-5.6,1.2-10.8-9.2-10.8-14.1c0-6.9,2.1-14.8,9.5-20
					c0.8-0.7,0.8-0.7,1.3-0.7s1.6-0.3,1.8,0.7c0.2,0.8,1.6,4.8,3.6,4.8c2.6,0,7.2-6.7,7.2-15.6C490.9,673.5,486.6,673,486,673"/>
			</g>
			<g>
				<path fill="#221F20" d="M156.6,721.8c-0.3-2.6-4.1-1.2-5.8-0.2c-1.8,1-3.9,3-3.9,4.8c0,1.8,0.3,3.8,0.2,5.1
					c-0.2,1.5-0.5,2.6-3,3.1c-1.8,0.3-5.1-0.8-6.7-2.6c-3.6-4.3-3.8-5.3-4.8-6.9c3.3-2.3,8.5-5.9,9.2-11.8c0.7-6.9-8.9-6.1-14.8-2.8
					c-11.8,6.4-13.1,12.3-12,16.9c-3.8,3.9-8.7,4.1-13.1,2c-9.5-4.6-8.4-11.3-14-12.5c-5.9-1.2-10,3.8-12.5,3.8
					c2.6-13.3,9-31.2,21-53.1c0-0.2,0.3-1.5-1-1.8c-1.6-0.5-6.1-0.8-8.7,1c-2.6,1.8-4.1,5.3-5.4,7.4c-5.4,2.1-7.7,3.1-15.1,3.5
					c-3.6,0.2-8.1,0.5-9.2,0.5c0.2-2.5-0.5-8.5-0.7-9.9c-0.5-1.5-1.8-3-4.3-2.6c-4.8,0.7-14.5,3.8-15.4,10.2
					c-5.3-0.3-15-3.1-21.4-2.8c-12.8,0.8-14.8,1.3-15.3,5.1c-0.2,2,0.3,3.5,0.3,4.3c0,0.8,0.3,3.6,3,3.1c11.3-2.3,27.9-1.8,31.5-2.1
					c-1.2,12.2-4.6,39.4-7.4,50.4c-2.1,8.5-3.8,14.3,2.8,11.3c7.1-3.1,9.7-4.8,12.2-6.2c2.5-1.5,7.1-6.1,8.1-13.1
					c1.2-8.7,3.5-19.2,3.8-22.8c0.2-3.6,1.8-15.4,2.3-19.7c7.7,0,18.1-3.3,21.2-4.4c-13.1,24.6-21.2,51.9-20.7,57
					c0.2,2.5,1.8,3.6,4.9,3.1s7.7-3.6,10.5-6.6c2.6-3,5.3-3.9,8.7-3.5c3.5,0.5,4.9,1.8,6.1,3.9c2.3,4.8,6.2,6.6,12.7,5.4
					c8.5-1.3,11.8-4.6,15.9-7.6c4.1,8.1,8.9,11.5,19.7,11.5c6.1,0,14.6-4.8,17.9-9C155.8,731.2,156.9,724.3,156.6,721.8 M130.5,720
					c-0.8-1-1.3-4.3-1.5-6.2c0.5-1.3,3.5-2.8,5.1-1.5c1.8,1.3,2.6,3.6-0.2,6.6C132.9,720,131.8,720.3,130.5,720z"/>
			</g>
		</g>
		<g>
			<path fill="#221F20" d="M605.3,715.5c-0.8,0.8-1.8,1.3-3,1.3s-2.1-0.5-3-1.3s-1.2-1.8-1.2-3s0.3-2.1,1.2-3c0.8-0.8,1.8-1.2,3-1.2
				s2.1,0.3,3,1.2c0.8,0.8,1.2,1.8,1.2,3C606.6,713.7,606.1,714.7,605.3,715.5 M599.8,709.8c-0.7,0.7-1,1.5-1,2.5s0.3,1.8,1,2.6
				c0.7,0.7,1.5,1,2.6,1c1,0,1.8-0.3,2.5-1s1-1.5,1-2.6c0-1-0.3-1.8-1-2.5c-0.7-0.7-1.5-1-2.5-1
				C601.3,708.8,600.5,709.2,599.8,709.8z M602.3,710.2c0.5,0,1,0,1.3,0.2c0.5,0.2,0.7,0.7,0.7,1.2c0,0.3-0.2,0.7-0.5,0.8
				c-0.2,0.2-0.3,0.2-0.7,0.2c0.3,0,0.7,0.2,0.8,0.5c0.2,0.2,0.3,0.5,0.3,0.7v0.3c0,0.2,0,0.2,0,0.3c0,0.2,0,0.2,0,0.2l0,0h-0.8l0,0
				l0,0v-0.2v-0.3c0-0.5-0.2-0.8-0.5-1c-0.2,0-0.5-0.2-1-0.2h-0.7v1.8h-0.8v-4.6h1.8v0.1H602.3z M603.1,710.8
				c-0.2-0.2-0.5-0.2-1-0.2h-0.7v1.6h0.7c0.3,0,0.7,0,0.8-0.2c0.3-0.2,0.5-0.3,0.5-0.7C603.5,711.3,603.3,711,603.1,710.8z"/>
		</g>
	</g>
</g>
<g id="Layer_3">
</g>
</svg>
