<?xml version="1.0" encoding="utf-8"?>
<!-- Generator: Adobe Illustrator 19.1.0, SVG Export Plug-In . SVG Version: 6.00 Build 0)  -->
<svg version="1.1" id="Layer_1" xmlns="http://www.w3.org/2000/svg" xmlns:xlink="http://www.w3.org/1999/xlink" x="0px" y="0px"
	 viewBox="0 0 52.6 56.9" style="enable-background:new 0 0 52.6 56.9;" xml:space="preserve">
<style type="text/css">
	.st0{fill:#080808;}
	.st1{fill:url(#SVGID_1_);}
	.st2{fill:#6B6B6B;}
</style>
<g>
	<path class="st0" d="M27.1,16.5l6.7-2.7c-1.5-0.8-3-1.2-4.6-1.4L27.1,16.5z"/>
	<linearGradient id="SVGID_1_" gradientUnits="userSpaceOnUse" x1="-39.9398" y1="-6.739" x2="28.8877" y2="28.0051">
		<stop  offset="0" style="stop-color:#FFFFFF"/>
		<stop  offset="3.082335e-03" style="stop-color:#FFFEFE"/>
		<stop  offset="0.1701" style="stop-color:#FFCBBC"/>
		<stop  offset="0.3342" style="stop-color:#FF9F82"/>
		<stop  offset="0.4913" style="stop-color:#FF7B54"/>
		<stop  offset="0.64" style="stop-color:#FF5F2F"/>
		<stop  offset="0.7783" style="stop-color:#FF4A15"/>
		<stop  offset="0.9024" style="stop-color:#FF3E06"/>
		<stop  offset="1" style="stop-color:#FF3A00"/>
	</linearGradient>
	<path class="st1" d="M2.9,14.9c-6.7,13.4-1.4,29.7,12,36.4l0,0l5.5-10.9l0,0c-7.3-3.7-10.3-12.7-6.6-20c3.7-7.3,12.7-10.3,20-6.6h0
		l5.5-10.9l0,0C26-3.8,9.7,1.5,2.9,14.9z"/>
	<path class="st0" d="M14.9,51.3c-1.5-0.7-2.8-1.6-4.1-2.5L8.2,54L14.9,51.3L14.9,51.3z"/>
	<path class="st2" d="M46.7,36.5c2.7-10.5-1.2-21.8-10-28.4l-2.9,5.7h0l-6.7,2.7c7.3,3.7,10.3,12.7,6.6,20c-2.9,5.8-9.2,8.9-15.4,8
		l-3.4,6.8L8.2,54c11.6,5.8,25.3,2.6,33.2-7.1L52.6,46L46.7,36.5z"/>
</g>
</svg>
