<?xml version="1.0" encoding="utf-8"?>
<!-- Generator: Adobe Illustrator 16.0.4, SVG Export Plug-In . SVG Version: 6.00 Build 0)  -->
<!DOCTYPE svg PUBLIC "-//W3C//DTD SVG 1.1//EN" "http://www.w3.org/Graphics/SVG/1.1/DTD/svg11.dtd">
<svg version="1.1" id="Layer_1" xmlns="http://www.w3.org/2000/svg" xmlns:xlink="http://www.w3.org/1999/xlink" x="0px" y="0px"
	 width="230px" height="220px" viewBox="-38.229 40 230 220" enable-background="new -38.229 40 230 220" xml:space="preserve">
<g>
	<path fill="#080808" d="M87.586,111.378l21.654-8.726c-4.849-2.586-9.696-3.878-14.867-4.525L87.586,111.378z"/>
	
		<linearGradient id="SVGID_1_" gradientUnits="userSpaceOnUse" x1="28.7871" y1="231.2803" x2="97.614" y2="196.5365" gradientTransform="matrix(3.2319 0 0 -3.2319 -222.116 783.7505)">
		<stop  offset="0" style="stop-color:#FFFFFF"/>
		<stop  offset="0.0031" style="stop-color:#FFFEFE"/>
		<stop  offset="0.1701" style="stop-color:#FFCBBC"/>
		<stop  offset="0.3342" style="stop-color:#FF9F82"/>
		<stop  offset="0.4913" style="stop-color:#FF7B54"/>
		<stop  offset="0.64" style="stop-color:#FF5F2F"/>
		<stop  offset="0.7783" style="stop-color:#FF4A15"/>
		<stop  offset="0.9024" style="stop-color:#FF3E06"/>
		<stop  offset="1" style="stop-color:#FF3A00"/>
	</linearGradient>
	<path fill="url(#SVGID_1_)" d="M9.373,106.207c-21.654,43.308-4.524,95.988,38.783,117.643l0,0l17.776-35.229l0,0
		c-23.593-11.957-33.289-41.045-21.331-64.638c11.958-23.593,41.046-33.289,64.64-21.331l0,0l17.775-35.229l0,0
		C84.03,45.77,31.35,62.899,9.373,106.207z"/>
	<path fill="#080808" d="M48.156,223.85c-4.848-2.262-9.049-5.171-13.251-8.08l-8.403,16.807L48.156,223.85L48.156,223.85z"/>
	<path fill="#6B6B6B" d="M150.932,176.018c8.727-33.936-3.879-70.457-32.319-91.788l-9.372,18.422l0,0l-21.654,8.726
		c23.593,11.958,33.289,41.045,21.33,64.639c-9.372,18.744-29.733,28.764-49.771,25.855L48.156,223.85l-21.654,8.727
		c37.49,18.745,81.768,8.402,107.301-22.947L170,206.721L150.932,176.018z"/>
</g>
</svg>
