<?xml version="1.0" encoding="utf-8"?>
<!-- Generator: Adobe Illustrator 18.1.1, SVG Export Plug-In . SVG Version: 6.00 Build 0)  -->
<svg version="1.1" id="Layer_1" xmlns="http://www.w3.org/2000/svg" xmlns:xlink="http://www.w3.org/1999/xlink" x="0px" y="0px"
	 viewBox="0 0 193.6 69.1" style="enable-background:new 0 0 193.6 69.1;" xml:space="preserve">
<style type="text/css">
	.st0{fill:#54B948;}
	.st1{fill:#141006;}
</style>
<polygon points="59.6,54.6 47.5,54.6 47.5,44.4 44.5,44.4 44.5,68.5 47.5,68.5 47.5,57.4 59.6,57.4 59.6,68.5 62.7,68.5 62.7,44.4 
	59.6,44.4 "/>
<path d="M39.4,62.9c-1.5,2.3-3.6,3.3-6.4,3.3c-6.1,0-9.3-4.9-9.3-9.8s3.2-9.8,9.3-9.8c2.4,0,4.9,1.5,5.7,2.9l0.2,0.3l2.6-2l-0.2-0.3
	c-1.9-2.4-4.9-3.8-8.3-3.8c-7.1,0-12.5,5.4-12.5,12.6c0,7.2,5.4,12.6,12.5,12.6c3.7,0,7.2-1.7,8.9-4.4l0.2-0.3l-2.5-1.8L39.4,62.9z"
	/>
<rect x="67.1" y="44.4" width="3" height="24"/>
<path d="M131.8,58.4h5.6v6.3c-1.8,1-4,1.5-6.1,1.5c-6.1,0-9.3-4.9-9.3-9.8s3.2-9.8,9.3-9.8c2.6,0,4.8,0.9,6.4,2.6l0.2,0.2l2.3-2.2
	l-0.2-0.2c-2.2-2.2-5-3.2-8.7-3.2c-7.1,0-12.5,5.4-12.5,12.6c0,7.2,5.4,12.6,12.5,12.6c3,0,6.5-0.9,9-2.4l0.2-0.1v-11h-8.6V58.4z"/>
<path d="M155.8,43.9c-7.1,0-12.5,5.4-12.5,12.6c0,7.2,5.4,12.6,12.5,12.6c7.1,0,12.5-5.4,12.5-12.6
	C168.3,49.3,162.9,43.9,155.8,43.9z M155.8,66.2c-6.1,0-9.3-4.9-9.3-9.8s3.2-9.8,9.3-9.8c6.1,0,9.3,4.9,9.3,9.8
	S161.9,66.2,155.8,66.2z"/>
<path d="M92.4,62.9c-1.5,2.3-3.6,3.3-6.4,3.3c-6.1,0-9.3-4.9-9.3-9.8s3.2-9.8,9.3-9.8c2.4,0,4.9,1.5,5.7,2.9l0.2,0.3l2.6-2l-0.2-0.3
	c-1.9-2.4-4.9-3.8-8.3-3.8c-7.1,0-12.5,5.4-12.5,12.6c0,7.2,5.4,12.6,12.5,12.6c3.7,0,7.2-1.7,8.9-4.4l0.2-0.3l-2.5-1.8L92.4,62.9z"
	/>
<g>
	<path class="st0" d="M0,16.5V11h3V7.3l7.6-5.5V11H15v5.5h-4.4v10.3c0,0.9,0.1,1.6,0.4,1.9c0.2,0.3,0.8,0.5,1.6,0.5
		c0.7,0,1.5-0.2,2.4-0.5V34c-2,0.8-3.9,1.2-5.7,1.2C5.1,35.2,3,33.1,3,29V16.5H0z"/>
	<path class="st0" d="M48,29.3v5.5H36.6v-2c-2.3,1.6-4.6,2.4-6.9,2.4c-2.3,0-4.1-0.6-5.4-1.9c-1.3-1.3-2-3.1-2-5.5V16.5h-3.6V11
		h11.1v14.8c0,1.2,0.2,2,0.5,2.4c0.4,0.4,1,0.7,2,0.7c1.3,0,2.7-0.6,4.2-1.7V16.5h-3.7V11h11.3v18.3H48z"/>
	<path class="st0" d="M48.8,16.5V11h3V7.3l7.6-5.5V11h4.4v5.5h-4.4v10.3c0,0.9,0.1,1.6,0.4,1.9c0.2,0.3,0.8,0.5,1.6,0.5
		c0.7,0,1.5-0.2,2.4-0.5V34c-2,0.8-3.9,1.2-5.7,1.2c-4.2,0-6.2-2.1-6.2-6.2V16.5H48.8z"/>
	<path class="st0" d="M78.9,35.4c-3.5,0-6.5-1.1-8.9-3.3c-2.4-2.2-3.6-5.3-3.6-9.1c0-3.9,1.2-6.9,3.6-9.1c2.4-2.2,5.4-3.3,8.9-3.3
		c3.5,0,6.5,1.1,8.9,3.3c2.4,2.2,3.6,5.3,3.6,9.1c0,3.8-1.2,6.9-3.6,9.1C85.4,34.2,82.4,35.4,78.9,35.4z M78.8,29.5
		c1.4,0,2.6-0.5,3.4-1.6c0.9-1.1,1.3-2.8,1.3-5.1c0-2-0.4-3.6-1.3-4.8s-2-1.7-3.5-1.7c-3.1,0-4.7,2.3-4.7,6.8c0,1.9,0.4,3.4,1.2,4.6
		C76.1,28.8,77.3,29.5,78.8,29.5z"/>
	<path class="st0" d="M110.1,29.3v5.5H93.3v-5.5h4.4V16.5h-4.1V11h11.1v6.1c0.4-1.7,1.4-3.2,2.9-4.5c1.5-1.3,3.3-1.9,5.4-1.9
		c0.3,0,0.8,0,1.2,0v7.2c-1.9,0-3.5,0.2-4.7,0.6c-1.2,0.4-2.2,1.4-3,2.8c-0.8,1.4-1.2,3.2-1.2,5.1v2.9H110.1z"/>
	<path class="st0" d="M117.9,16.5V11h11.2v18.3h3.5v5.5h-14.8v-5.5h3.6V16.5H117.9z M121.3,4.2c0-1.1,0.4-2.1,1.2-2.9
		c0.8-0.8,1.8-1.2,2.9-1.2c1.2,0,2.1,0.4,3,1.2c0.8,0.8,1.2,1.8,1.2,2.9c0,1.1-0.4,2.1-1.2,2.9c-0.8,0.8-1.8,1.2-2.9,1.2
		c-1.1,0-2.1-0.4-2.9-1.2C121.7,6.3,121.3,5.3,121.3,4.2z"/>
	<path class="st0" d="M135.6,16.5V11h11.2v2.2c2.3-1.7,4.6-2.6,7-2.6c4.8,0,7.2,3.1,7.2,9.2v9.5h3.6v5.5h-11.2V20.4
		c0-1.3-0.2-2.2-0.5-2.7c-0.4-0.5-0.9-0.7-1.7-0.7c-1.4,0-2.9,0.5-4.3,1.6v10.8h3.7v5.5h-14.9v-5.5h3.6V16.5H135.6z"/>
	<path class="st0" d="M193.6,11v5.5h-2.9v17.6c0,7.9-4.2,11.8-12.5,11.8c-4.8,0-8.3-0.9-10.6-2.6l3.7-5c1.9,1.2,3.8,1.8,5.8,1.8
		c1.7,0,3.1-0.4,4.3-1.3c1.2-0.9,1.7-2.6,1.7-5.1v-1.8c-2.5,2.2-4.9,3.3-7.2,3.3c-2.8,0-5.1-1.2-7-3.5c-1.9-2.3-2.9-5.2-2.9-8.8
		c0-3.6,1-6.5,3-8.8c2-2.3,4.4-3.4,7.3-3.4c2.8,0,5.1,1.1,6.9,3.3V11H193.6z M183.1,23c0-1.9-0.4-3.4-1.3-4.6
		c-0.9-1.1-2-1.7-3.5-1.7c-1.5,0-2.7,0.6-3.5,1.7c-0.8,1.2-1.2,2.6-1.2,4.4c0,1.8,0.4,3.3,1.2,4.4c0.8,1.1,2,1.7,3.4,1.7
		c1.3,0,2.5-0.5,3.4-1.6C182.7,26.4,183.1,24.9,183.1,23z"/>
</g>
<g>
	<g>
		<g>
			<path class="st0" d="M116.7,62.6c0-2.3-1.3-4.1-2.9-4.1c-1.6,0-2.9,1.8-2.9,4.1V67v1.3h5.8V62.6L116.7,62.6z"/>
			<path class="st0" d="M103.4,67l0-4.4c0,0,0,0,0,0c0-2.3-1.3-4.1-2.9-4.1s-2.9,1.8-2.9,4.1h0v5.7h5.8l0-1.7V67z"/>
			<path class="st0" d="M110,67l0-4.4c0,0,0,0,0,0c0-2.3-1.3-4.1-2.9-4.1c-1.6,0-2.9,1.8-2.9,4.1h0v5.7h5.8l0-1.7V67z"/>
		</g>
	</g>
	<path class="st1" d="M112,52.3l-4.9-8.4l-4.9,8.4C102.3,52.3,106.7,54.7,112,52.3z"/>
</g>
</svg>
