<?xml version="1.0" encoding="iso-8859-1"?>
<!-- Generator: Adobe Illustrator 18.1.1, SVG Export Plug-In . SVG Version: 6.00 Build 0)  -->
<svg version="1.1" id="Layer_1" xmlns="http://www.w3.org/2000/svg" xmlns:xlink="http://www.w3.org/1999/xlink" x="0px" y="0px"
	 viewBox="0 0 609.79 607.836" style="enable-background:new 0 0 609.79 607.836;" xml:space="preserve">
<path d="M606.642,259.766c-5.086-34.924-16.435-69.542-34.534-102.301C509.141,43.22,382.862-14.624,260.638,3.172
	c-35.077,5.006-69.791,16.434-102.659,34.329C43.448,100.324-14.669,226.15,3.177,348.06c5.068,34.916,16.398,69.479,34.515,102.266
	c62.913,114.145,189.083,172.133,311.397,154.346c35.041-5.159,69.9-16.434,102.677-34.411
	C566.298,507.565,624.397,381.704,606.642,259.766z M278.648,481.408c-2.191,1.191-4.707,2.084-7.168,2.445
	c-18.661,2.336-41.266-15.622-56.452-43.043c-6.914-12.285-11.058-24.868-12.687-36.169c-2.571-17.471,0.851-32.841,12.343-39.281
	c2.172-1.272,4.616-2.038,7.312-2.498c18.497-2.292,41.067,15.658,56.505,43.204c6.733,12.195,10.987,24.696,12.616,36.052
	C293.688,459.491,290.267,474.977,278.648,481.408z M469.286,376.978c-2.281,1.253-4.706,1.975-7.294,2.309
	c-18.588,2.534-41.121-15.487-56.542-42.79c-6.751-12.385-10.986-24.913-12.705-36.178c-2.48-17.517,0.887-32.86,12.433-39.344
	c2.317-1.299,4.815-2.057,7.259-2.345c18.714-2.364,41.266,15.568,56.524,42.97c6.877,12.204,11.004,24.75,12.669,36.106
	C484.182,355.168,480.852,370.43,469.286,376.978z M487.241,184.776c-10.027,9.2-19.837,15.559-26.986,16.686
	c-2.19,0.298-4.76,0.109-6.642-1.885c-0.959-0.947-1.339-2.192-1.629-3.382c-0.471-7.035,6.027-16.199,15.729-26.247
	c-21.285-17.48-79.003-56.419-159.907-44.539c-26.063,3.806-54.532,12.789-85.139,29.494
	C97.456,223.597,99.682,333.025,104.153,369.122c2.497-0.478,4.905-0.866,7.222-1.308c12.271-1.173,21.99-2.182,25.484,5.402
	c0,0.028,0,0.244,0.199,0.623c0.145,5.331-4.037,8.127-9.34,11.374c-5.502,3.193-12.832,6.097-21.556,8.253
	c-3.801,0.984-7.493,1.832-11.131,2.337c-12.326,1.155-22.009,2.182-25.556-5.475c-0.055-0.117-0.091-0.217-0.091-0.532
	c-0.344-5.304,3.891-7.92,8.978-11.203c4.615-2.652,10.75-5.231,17.755-7.351c-2.461-7.775-5.448-19.032-7.493-32.913
	c-8.108-54.263,0-148.014,118.061-212.46c32.235-17.724,61.899-27.411,88.885-31.28c96.922-13.972,157.826,45.631,178.205,69.696
	c8.977-7.703,17.43-12.934,23.782-13.909c2.154-0.343,4.688-0.18,6.751,1.822c0.869,0.884,1.358,2.164,1.521,3.464
	C506.444,163.282,498.625,173.628,487.241,184.776z"/>
</svg>
