<?xml version="1.0" encoding="utf-8"?>
<!-- Generator: Adobe Illustrator 19.1.0, SVG Export Plug-In . SVG Version: 6.00 Build 0)  -->
<svg version="1.1" id="Layer_1" xmlns="http://www.w3.org/2000/svg" xmlns:xlink="http://www.w3.org/1999/xlink" x="0px" y="0px"
	 viewBox="0 0 337.9 78.8" style="enable-background:new 0 0 337.9 78.8;" xml:space="preserve">
<style type="text/css">
	.st0{fill:#EF4044;}
</style>
<path class="st0" d="M227.4,0c-13.2,0-19.1,7.3-19.1,23.7v8.9c0,10.1,5.4,16.2,14.5,16.2c4.6,0,7-1.3,9.8-3.9v15.7
	c0,4.3-1.7,6.4-5.2,6.4c-3.4,0-4.7-1.9-4.7-6.4V56h-12.8v5.4c0,4.9,1.7,9.3,4.6,12.4c3.1,3.3,7.4,5,12.5,5c0.1,0,0.3,0,0.4,0
	c13.2,0,19.1-6.6,19.1-21.4v-36C246.5,6.6,240.6,0,227.4,0z M222.2,18.2c0-4.3,1.7-6.4,5.2-6.4c3.5,0,5.2,2.1,5.2,6.4V34
	c-1.3,1.1-3.9,3-5.9,3c-3,0-4.6-2.3-4.6-6.4V18.2z"/>
<path class="st0" d="M267.3,0l-0.2,0.2c-3.7,3.2-8.5,6.2-15.1,9.6l-0.4,0.2v8.2h10.2v59.5h13.2V0H267.3z"/>
<rect x="280.8" y="63.9" class="st0" width="13.9" height="13.9"/>
<path class="st0" d="M323.4,23.7c-3.8,0-6.4,0.5-9.2,3.3l0.6-13.8H335L335.5,1h-32.9v0.8c0,14.4-0.3,23-0.7,32.1
	c-0.1,2.1-0.2,4.2-0.2,6.5l0,0.8H313l0.2-0.5c1.3-3.6,3.2-5.2,6.2-5.2c2.9,0,4.6,2.2,4.6,6.1v17.1c0,7.4-2.8,8.4-5.6,8.4
	c-3,0-4.9-2.2-4.9-5.8v-6.8h-13.2v6.5c0,11.5,6.9,17.9,19.3,17.9c12.6,0,18.3-7.4,18.3-24.1V44.3C337.9,30.4,333.1,23.7,323.4,23.7z
	"/>
<polygon points="55.2,1.9 48.6,46 40.6,1.9 28.7,1.9 20.9,46.1 13.6,1.9 0,1.9 14.3,77.4 14.5,78 26.5,78 34.7,31.8 43.4,78 
	55.4,78 68.8,1.9 "/>
<path d="M106.6,38c5.8-3.2,7.9-10,7.9-15.6c0-13.6-6.9-20.5-20.6-20.5H74V78h21c13.4,0,20.8-7.9,20.8-22.4
	C115.9,47,112.9,41.4,106.6,38z M88.4,44.6h3.3c6.9,0,9.7,3.1,9.7,10.7c0,7.6-2.5,10.7-8.5,10.7h-4.6V44.6z M92.3,32.4h-3.9V14h4.1
	c5.1,0,7.6,3.2,7.6,9.7C100.1,29.1,97.1,32.4,92.3,32.4z"/>
<polygon points="135.5,65.3 135.5,45 152.1,45 152.1,32.2 135.5,32.2 135.5,14.6 157,14.6 157,1.9 121.1,1.9 121.1,78 158.5,78 
	158.5,65.3 "/>
<polygon points="201.8,15 201.8,1.9 166.3,1.9 166.3,14.6 186.9,14.6 163.4,64.9 163.4,78 201.8,78 201.8,65.3 178.7,65.3 
	201.7,15.2 "/>
</svg>
