<?xml version="1.0" encoding="utf-8"?>
<!-- Generator: Adobe Illustrator 16.0.4, SVG Export Plug-In . SVG Version: 6.00 Build 0)  -->
<!DOCTYPE svg PUBLIC "-//W3C//DTD SVG 1.1//EN" "http://www.w3.org/Graphics/SVG/1.1/DTD/svg11.dtd">
<svg version="1.1" id="Layer_1" xmlns="http://www.w3.org/2000/svg" xmlns:xlink="http://www.w3.org/1999/xlink" x="0px" y="0px"
	 width="190px" height="60px" viewBox="-10 120.503 190 60" enable-background="new -10 120.503 190 60" xml:space="preserve">
<path fill="#EF4044" d="M114.406,130.178c-6.641,0-9.609,3.672-9.609,11.923v4.478c0,5.081,2.717,8.149,7.295,8.149
	c2.314,0,3.522-0.653,4.932-1.961v7.898c0,2.163-0.855,3.22-2.617,3.22c-1.71,0-2.364-0.956-2.364-3.22v-2.314h-6.44v2.717
	c0,2.465,0.855,4.679,2.314,6.238c1.561,1.66,3.724,2.516,6.289,2.516c0.051,0,0.151,0,0.201,0c6.642,0,9.609-3.32,9.609-10.767
	v-18.112C124.016,133.498,121.048,130.178,114.406,130.178z M111.791,139.334c0-2.163,0.854-3.22,2.615-3.22
	c1.762,0,2.617,1.057,2.617,3.22v7.949c-0.654,0.553-1.963,1.509-2.969,1.509c-1.51,0-2.314-1.157-2.314-3.22v-6.239H111.791z"/>
<path fill="#EF4044" d="M134.48,130.178l-0.101,0.101c-1.861,1.61-4.276,3.119-7.597,4.83l-0.201,0.101v4.125h5.131v29.936h6.642
	v-39.092H134.48z"/>
<rect x="141.272" y="162.326" fill="#EF4044" width="6.993" height="6.993"/>
<path fill="#EF4044" d="M162.705,142.101c-1.912,0-3.221,0.251-4.629,1.66l0.303-6.943h10.162l0.252-6.138H152.24v0.402
	c0,7.245-0.15,11.572-0.352,16.15c-0.051,1.057-0.102,2.113-0.102,3.27v0.403h5.686l0.101-0.252c0.653-1.812,1.61-2.616,3.119-2.616
	c1.459,0,2.314,1.106,2.314,3.069v8.603c0,3.724-1.409,4.226-2.817,4.226c-1.51,0-2.465-1.106-2.465-2.918v-3.421h-6.642v3.271
	c0,5.785,3.472,9.006,9.71,9.006c6.34,0,9.207-3.723,9.207-12.125v-5.283C170,145.472,167.585,142.101,162.705,142.101z"/>
<polygon points="27.771,131.133 24.451,153.32 20.426,131.133 14.439,131.133 10.515,153.371 6.842,131.133 0,131.133 
	7.194,169.118 7.295,169.42 13.333,169.42 17.458,146.176 21.835,169.42 27.872,169.42 34.614,131.133 "/>
<path d="M53.631,149.295c2.918-1.61,3.975-5.031,3.975-7.848c0-6.842-3.472-10.314-10.364-10.314H37.23v38.287h10.565
	c6.741,0,10.464-3.975,10.464-11.27C58.31,153.824,56.801,151.006,53.631,149.295z M44.475,152.616h1.66
	c3.472,0,4.88,1.56,4.88,5.384c0,3.823-1.258,5.383-4.276,5.383h-2.314v-10.767H44.475z M46.437,146.478h-1.962v-9.257h2.063
	c2.566,0,3.823,1.61,3.823,4.88C50.361,144.818,48.852,146.478,46.437,146.478z"/>
<polygon points="68.171,163.03 68.171,152.817 76.522,152.817 76.522,146.377 68.171,146.377 68.171,137.523 78.988,137.523 
	78.988,131.133 60.926,131.133 60.926,169.42 79.743,169.42 79.743,163.03 "/>
<polygon points="101.527,137.724 101.527,131.133 83.667,131.133 83.667,137.523 94.031,137.523 82.208,162.829 82.208,169.42 
	101.527,169.42 101.527,163.03 89.905,163.03 101.477,137.825 "/>
</svg>
