<?xml version="1.0" encoding="utf-8"?>
<!-- Generator: Adobe Illustrator 22.0.1, SVG Export Plug-In . SVG Version: 6.00 Build 0)  -->
<svg version="1.1" id="Layer_1" xmlns="http://www.w3.org/2000/svg" xmlns:xlink="http://www.w3.org/1999/xlink" x="0px" y="0px"
	 viewBox="0 0 608.5 601.4" style="enable-background:new 0 0 608.5 601.4;" xml:space="preserve">
<style type="text/css">
	.st0{fill:#6B8CE9;}
</style>
<g>
	<path class="st0" d="M437.1,191.1h-35.6v-24.3c0-4.7-4.5-8.5-10.1-8.5c-5.6,0-10.1,3.8-10.1,8.5v24.3h-36v-24.3
		c0-4.7-4.5-8.5-10.1-8.5c-5.5,0-10.1,3.8-10.1,8.5v24.3h-36v-24.3c0-4.7-4.5-8.5-10.1-8.5s-10.1,3.8-10.1,8.5v24.3h-36v-24.3
		c0-4.7-4.5-8.5-10.1-8.5c-5.5,0-10.1,3.8-10.1,8.5v24.3h-39.6c-5.6,0-10.1,3.8-10.1,8.5v234.2c0,4.7,4.5,8.5,10.1,8.5h263.9
		c5.5,0,10.1-3.8,10.1-8.5V199.6C447.1,194.9,442.6,191.1,437.1,191.1z M423.5,419.5H186.8V282.7h236.7V419.5z M423.5,259.9H186.8
		v-45.6h28.7v12.8c0,5.6,4.4,10.1,9.8,10.1c5.4,0,9.8-4.5,9.8-10.1v-12.8h35v12.8c0,5.6,4.4,10.1,9.8,10.1c5.4,0,9.8-4.5,9.8-10.1
		v-12.8h35v12.8c0,5.6,4.4,10.1,9.8,10.1c5.4,0,9.8-4.5,9.8-10.1v-12.8h35v12.8c0,5.6,4.4,10.1,9.8,10.1c5.4,0,9.8-4.5,9.8-10.1
		v-12.8h24.8V259.9z"/>
	<path class="st0" d="M237,366.2l32.7,27.9c1.9,1.7,4.5,2.5,7.2,2.5h0.7c2.9-0.2,5.7-1.4,7.4-3.4l65.3-73.9c3.4-3.8,2.4-9.2-2-12.1
		c-4.5-2.9-10.9-2.1-14.3,1.7l-58.2,65.9L251.5,354c-4-3.4-10.4-3.4-14.4,0C233.1,357.4,233.1,362.8,237,366.2z"/>
	<path class="st0" d="M513.1,92.3C456.8,36,382,5,302.5,5S148.1,36,91.9,92.3C35.6,148.5,4.6,223.3,4.6,302.9
		c0,79.6,31,154.4,87.2,210.6c56.3,56.3,131.1,87.2,210.6,87.2s154.4-31,210.6-87.2c56.3-56.3,87.2-131.1,87.2-210.6
		C600.3,223.3,569.4,148.5,513.1,92.3z M497.3,497.7c-52,52-121.2,80.7-194.8,80.7s-142.8-28.7-194.8-80.7S27,376.5,27,302.9
		c0-73.6,28.7-142.8,80.7-194.8s121.2-80.7,194.8-80.7S445.3,56,497.3,108.1S578,229.3,578,302.9C578,376.5,549.3,445.7,497.3,497.7
		z"/>
</g>
</svg>
