<?xml version="1.0" encoding="utf-8"?>
<!-- Generator: Adobe Illustrator 22.0.1, SVG Export Plug-In . SVG Version: 6.00 Build 0)  -->
<svg version="1.1" id="Layer_1" xmlns="http://www.w3.org/2000/svg" xmlns:xlink="http://www.w3.org/1999/xlink" x="0px" y="0px"
	 viewBox="0 0 615.3 613.4" style="enable-background:new 0 0 615.3 613.4;" xml:space="preserve">
<style type="text/css">
	.st0{fill:#464189;}
</style>
<g>
	<path class="st0" d="M521.1,96.3C464.9,40.1,390.1,9.1,310.5,9.1c-79.6,0-154.4,31-210.6,87.2S12.7,227.4,12.7,306.9
		c0,79.6,31,154.4,87.2,210.6c56.3,56.3,131.1,87.2,210.6,87.2c79.6,0,154.4-31,210.6-87.2c56.3-56.3,87.2-131.1,87.2-210.6
		C608.4,227.4,577.4,152.6,521.1,96.3z M505.3,501.8c-52,52-121.2,80.7-194.8,80.7c-73.6,0-142.8-28.7-194.8-80.7
		c-52-52-80.7-121.2-80.7-194.8c0-73.6,28.7-142.8,80.7-194.8c52-52,121.2-80.7,194.8-80.7c73.6,0,142.8,28.7,194.8,80.7
		c52,52,80.7,121.2,80.7,194.8C586,380.5,557.4,449.7,505.3,501.8z"/>
	<path class="st0" d="M475.4,284.7L475.4,284.7c-3.3,0-6.6,0.7-9.9,1.9c-5.5-6.5-13.2-10.2-21.6-10.2c-4.4,0-8.8,1.1-13,3.3
		l-9.5,5.9c-5.4-5.9-12.9-9.3-20.7-9.3c-4.4,0-8.8,1.1-13,3.3l-41,26.4l-0.7-0.2v-30.5l7.6,0.6l4.5,0c13.2,0,26-5,36.2-14
		c11.3-9.9,18.2-24.1,19.4-40l1.8-15.3c0.5-5.4-3.3-10-8.7-10.5l-15.3-1.1c-16.3-1.3-32.1,4.8-43.5,16.5l-0.8-12.3
		c-1.1-15.3-8.1-29.9-19.4-40c-11.8-10.3-26.4-15.2-41-13.6l-15.7,1.1c-4.9,0.5-8.6,4.9-8.6,10.3l1.1,16.2c2.2,30.3,26.8,54,55.9,54
		h4.3l3.2-0.2v73c-2.9-0.9-5.8-1.8-8.7-2.6c-11.7-3.5-21.5-6.3-28.9-8.3c-4.4-1.2-7.9-2-10.7-2.6c-1.5-0.3-2.9-0.6-4.1-0.8
		c-1.1-0.2-2.3-0.3-3.6-0.3c-1,0-1.9,0.1-2.8,0.2c-2.8,0.4-6.7,1.2-12.7,2.7c-9.1,2.3-20.5,5.4-28,7.6v-9.8
		c0-10.5-8.2-19.1-18.2-19.1h-43.2c-10,0-18.2,8.6-18.2,19.1v128.4c0,10.5,8.2,19.1,18.2,19.1h43.2c10,0,18.2-8.6,18.2-19.1v-6.8
		c9.6,2.2,28.7,6.5,48.8,10.9c17.2,3.7,31.6,6.7,42.7,8.8c6.7,1.3,12.3,2.3,16.7,2.9c4.6,0.7,8.3,1.2,11.2,1.2c2.6,0,5-0.6,6.8-1.1
		c3.8-1.1,8.2-3,13.9-5.9c15-7.7,37.2-21.9,67.6-43.3c18.1-12.8,35.1-25.2,47.5-34.3c3.9-2.9,7.3-5.4,10-7.3
		c7.4-5.4,11.8-14.5,11.8-24.5C504.3,298.3,491.4,284.7,475.4,284.7z M384.9,347.5c0,4.1-1.5,7.9-4.2,10.7c-2.6,2.7-6.1,4.3-9.7,4.4
		l-15-1.5l-51.9-7c-2.2-0.3-4.3,0.3-6.1,1.7c-1.8,1.4-3,3.5-3.3,5.9c-0.6,4.7,2.7,9.1,7.2,9.7l52.2,7.1l16.1,1.7l0.3,0
		c17.2,0,31.3-14.6,31.3-32.5c0-4.4-0.9-8.7-2.6-12.6c-2.3-5.1-6.1-9.6-11.2-13.2c-4.1-2.9-9-5.4-14.7-7.2l-0.2-0.1
		c-1.4-0.5-3.1-1-4.9-1.6l27.4-17.7c1.8-0.9,3.5-1.4,5.2-1.4c0,0,0,0,0,0c1.9,0,3.7,0.5,5.4,1.4l-12.7,7.9
		c-3.9,2.4-5.2,7.8-2.9,11.9c1.2,2.1,3,3.5,5.2,4.1c2.2,0.6,4.4,0.2,6.3-1l36.6-22.9c1.8-0.9,3.5-1.4,5.2-1.4c0,0,0,0,0,0
		c2.2,0,4.3,0.6,6.1,1.8l-39.8,24.9c-3.9,2.4-5.2,7.8-2.9,11.9c1.2,2.1,3,3.5,5.2,4.1c2.2,0.6,4.4,0.2,6.3-1l51.2-32
		c1.8-0.9,3.5-1.4,5.2-1.4c3.2,0,6.2,1.3,8.5,3.7c2.3,2.5,3.6,5.7,3.6,9.2c0,4.2-1.8,8.1-4.6,10.2l0,0c-2.7,2-6.1,4.5-10,7.3
		c-15.8,11.6-39.7,29.1-63.1,45.1c-16.4,11.2-30.1,20-40.7,26.2c-6,3.4-11.1,6.1-15.1,7.9c-2,0.9-3.7,1.5-5.1,1.9
		c-1.2,0.4-2,0.5-2.2,0.5c0,0,0,0-0.1,0c-1.1,0-4.2-0.3-8.5-1l-69.3-14c-12.9-2.8-24.7-5.5-32.4-7.2c-3.4-0.8-6.3-1.4-8.5-1.9
		l-0.5-0.1V314c0.8-0.2,1.7-0.5,2.7-0.8c5.2-1.5,15.2-4.3,24.1-6.6c4.4-1.2,8.4-2.1,11.4-2.8c1.6-0.4,2.9-0.6,3.9-0.8
		c0.1,0,0.2,0,0.3,0l0.1,0.1l1.3-0.3c0.2,0,0.5,0.1,0.9,0.1c3,0.5,9.5,2.1,17.8,4.3c26.9,7.4,70.2,21.2,78.6,23.9
		c5.3,1.7,9.7,4.1,12.5,6.8c1.4,1.4,2.4,2.8,3.1,4.3C384.6,343.9,384.9,345.6,384.9,347.5z M210.6,286.1v128.4
		c0,0.9-0.7,1.6-1.4,1.6h-43.2c-0.7,0-1.4-0.8-1.4-1.6V286.1c0-0.9,0.7-1.6,1.4-1.6h43.2C209.9,284.4,210.6,285.2,210.6,286.1z"/>
</g>
</svg>
