<?xml version="1.0" encoding="utf-8"?>
<!-- Generator: Adobe Illustrator 22.0.1, SVG Export Plug-In . SVG Version: 6.00 Build 0)  -->
<svg version="1.1" id="Layer_1" xmlns="http://www.w3.org/2000/svg" xmlns:xlink="http://www.w3.org/1999/xlink" x="0px" y="0px"
	 viewBox="0 0 605 613.9" style="enable-background:new 0 0 605 613.9;" xml:space="preserve">
<style type="text/css">
	.st0{fill:#F3C500;}
</style>
<g>
	<path class="st0" d="M511.5,96.2C455.2,39.9,380.4,8.9,300.9,8.9c-79.6,0-154.4,31-210.6,87.2C34,152.5,3,227.3,3,306.8
		c0,79.6,31,154.4,87.2,210.6c56.3,56.3,131.1,87.2,210.6,87.2c79.6,0,154.4-31,210.6-87.2c56.3-56.3,87.2-131.1,87.2-210.6
		C598.7,227.3,567.8,152.5,511.5,96.2z M495.7,501.6c-52,52-121.2,80.7-194.8,80.7c-73.6,0-142.8-28.7-194.8-80.7
		S25.4,380.4,25.4,306.8C25.4,233.2,54,164,106.1,112c52-52,121.2-80.7,194.8-80.7c73.6,0,142.8,28.7,194.8,80.7
		s80.7,121.2,80.7,194.8C576.4,380.4,547.7,449.6,495.7,501.6z"/>
	<path class="st0" d="M474.8,268.1c-3.3-28.4-18.2-55-41-72.8c-22.3-17.5-50.3-25.1-79.1-21.5c-19,2.8-35.5,9.4-49.1,19.8
		c-4-3-11.1-8.1-15.7-10.6c-46.2-25.6-103.2-15.2-135.5,24.8c-21.9,26.9-28.2,59.6-18.6,97.2c5.5,21.6,18.2,43.5,35.1,60.1
		c0.4,10.2,4.9,19.8,12.6,27c5.3,4.9,11.7,8.3,18.4,9.6c1.6,7.5,5.3,14.3,10.5,19c5.1,5,11.7,8.3,18.9,9.6c1.7,7.7,5.7,15,11,19.9
		c4.8,4.4,13,9.5,22.2,11.5c3.8,11.9,10.9,19.5,21.6,23c2.2,0.7,6.6,1.9,12.1,1.9c8.6,0,16.5-3,22.8-8.6c0.1-0.1,0.3-0.2,0.5-0.4
		l0.1-0.1c0.5-0.5,1.3-1.3,2.4-2.2l0.6-0.6c9.6-9,20.1-19.3,26.1-28.1c9.7,2.1,19.8,0.5,26.2-4.5c7.5-5.4,12.1-13.3,13-22.4
		c7.8-0.8,15.4-4.2,20.5-9.2c5.4-5.3,8.8-13.2,9.4-21.1c8.9-1,16.5-4.7,22.3-10.8c8.8-9.3,8.3-21,7.4-26.3
		C469.1,328,478.3,297.4,474.8,268.1z M332.4,303.6c-2.1,2.1-3.2,4.8-3.2,7.7c0,2.9,1.1,5.7,3.2,7.7l65.1,65.6
		c1.2,2.4,0.3,7.7-2.4,10.4c-2.5,2.5-9.2,4-11.7,2.7l-65.9-67.4c-4.2-4.3-11.1-4.4-15.4-0.2c-2.1,2-3.3,4.8-3.3,7.7
		c0,2.9,1.1,5.7,3.1,7.8l65.9,67.4c0.7,2.8,1,8.2-3.9,11.7l-0.1,0.1c-1.4,1.1-5.4,1.4-8.9,0.6c-1.2-5.1-3.5-11.5-8-17
		c-4.4-5.4-12.5-10.8-21.7-11.9c-0.8-6.7-3.1-12.3-7-16.8c-6.7-7.9-15.5-10.4-22.7-11c-0.5-6.6-2.8-14.8-10-21.9
		c-5.6-5.5-12.7-8.2-20.8-8c-0.8-6.1-3.5-12-7.8-17.1c-14.7-17.6-35.4-12.4-45-5c-0.3,0.2-0.6,0.5-0.9,0.8l-29,28
		c-12.2-13.4-21-29.4-25.1-45.6c-7.9-31-3.1-56.6,14.4-78.2c25.6-31.7,71-39.9,107.9-19.5c2.1,1.2,5.5,3.5,9.9,6.6l-51.1,49.9
		c-2,1.8-11,10.3-11,22.4c0,5.4,1.8,13.5,10.5,21.1c19.6,16.9,49,14.9,69.9-4.5c7-6.5,22.3-21.5,32.4-31.3l87.9,89.2
		c0.4,1.9,0.8,5.6-1.6,8.1c-4.3,4.5-10.7,4.7-14.7,4.2l-63.6-64.1C343.6,299.4,336.7,299.4,332.4,303.6z M225.6,333.5
		c2.3-1.5,9.1-4.8,14.7,1.9c4.4,5.2,3.1,9.6,2.1,11.5l-34.9,33.6c-3.1-0.3-6.4-1.8-9.1-4.4c-3.2-3-5.2-6.8-5.6-10.9L225.6,333.5z
		 M257.5,362.6c2-1,9.1-4.1,12.7-0.6c4,4,3.9,9.4,3.4,12.4L237,409c-2.4-0.1-6.3-0.9-9.5-4l-0.1-0.1c-2.2-2-3.9-5.6-4.3-9
		L257.5,362.6z M288.7,390.3c3.1-0.4,9.6-0.7,13,3.3c2,2.4,2.3,7,1.9,10.8l-34.6,36c-4.1-0.9-8.8-3.3-11.9-6.2
		c-2.2-2.1-4.1-6-4.7-9.6L288.7,390.3z M320.4,418.3c2.9-1.1,8,1.7,9.6,3.8c2.3,2.8,3.5,7.3,4,10.1c-1,2.1-5.2,8.8-24.4,26.7l0,0
		c-1.4,1.3-2.6,2.4-3.3,3.1c-5.2,4.4-11.5,2.8-13.4,2.1c-2.9-1-5.6-2.4-7.7-9.2L320.4,418.3z M332.4,243l-0.3,0.3
		c-7,6.9-30.6,30-39.4,38.2c-12.6,11.8-29.8,13.4-40.8,4c-1.4-1.2-3-2.9-3-4.4c0-2.1,2.4-5.1,3.6-6.1c0.2-0.2,0.4-0.4,0.7-0.6
		l60.3-58.9c11.5-10.8,26.5-17.5,44.2-20.1c22.7-2.9,45,3.2,62.7,17c18.2,14.3,30.1,35.5,32.8,58.2c2.6,21.7-3.3,43.8-16.6,62.6
		l-88.7-90c-2-2.1-4.8-3.2-7.8-3.3C337.1,239.9,334.4,241,332.4,243z"/>
</g>
</svg>
