<?xml version="1.0" encoding="utf-8"?>
<!-- Generator: Adobe Illustrator 22.0.1, SVG Export Plug-In . SVG Version: 6.00 Build 0)  -->
<svg version="1.1" id="Layer_1" xmlns="http://www.w3.org/2000/svg" xmlns:xlink="http://www.w3.org/1999/xlink" x="0px" y="0px"
	 viewBox="0 0 613.2 611.5" style="enable-background:new 0 0 613.2 611.5;" xml:space="preserve">
<style type="text/css">
	.st0{fill:#75B671;}
</style>
<g>
	<path class="st0" d="M518.6,96.3C462.3,40,387.5,9,308,9C228.4,9,153.6,40,97.3,96.3c-56.3,56.3-87.2,131.1-87.2,210.6
		s31,154.4,87.2,210.6c56.3,56.3,131.1,87.2,210.6,87.2c79.6,0,154.4-31,210.6-87.2c56.3-56.3,87.2-131.1,87.2-210.6
		S574.8,152.5,518.6,96.3z M502.8,501.7c-52,52-121.2,80.7-194.8,80.7c-73.6,0-142.8-28.7-194.8-80.7c-52-52-80.7-121.2-80.7-194.8
		s28.7-142.8,80.7-194.8c52-52,121.2-80.7,194.8-80.7c73.6,0,142.8,28.7,194.8,80.7c52,52,80.7,121.2,80.7,194.8
		S554.8,449.7,502.8,501.7z"/>
	<path class="st0" d="M249.8,267.8h110c5.9,0,10.8-4.7,10.8-10.6c0-5.8-4.8-10.6-10.8-10.6h-110c-5.9,0-10.8,4.7-10.8,10.6
		C239.1,263.1,243.9,267.8,249.8,267.8z"/>
	<path class="st0" d="M249.8,332.5h110c5.9,0,10.8-4.7,10.8-10.6s-4.8-10.6-10.8-10.6h-110c-5.9,0-10.8,4.7-10.8,10.6
		S243.9,332.5,249.8,332.5z"/>
	<path class="st0" d="M249.8,300.8h110c5.9,0,10.8-4.7,10.8-10.6c0-5.8-4.8-10.6-10.8-10.6h-110c-5.9,0-10.8,4.7-10.8,10.6
		C239.1,296,243.9,300.8,249.8,300.8z"/>
	<path class="st0" d="M423.4,162.9h-43.7c-0.4-5.5-5.1-9.8-10.8-9.8h-13.7c-7.2-21.3-27.3-35.5-50.5-35.5
		c-22.7,0-43.1,14.5-50.4,35.5h-12.5c-5.7,0-10.4,4.3-10.7,9.8h-44.9c-5.9,0-10.8,4.7-10.8,10.6v164.1c-2.5,0.3-4.7,1.3-6.5,3
		l-20.9,20.2c-2.1,2-3.2,4.6-3.2,7.5c0,2.8,1.1,5.5,3.1,7.5l27.5,27.1v53.8c0,5.8,4.8,10.6,10.8,10.6h54.5l15.5,15.3
		c1.5,1.5,3.4,2.5,5.5,2.9l26.9,5.3l1.9,0.2l0.3,0c2.8,0,5.5-1.1,7.5-3c2.6-2.5,3.7-6.1,3-9.6l-2.2-11.2h124.3
		c5.9,0,10.8-4.7,10.8-10.6V173.5C434.2,167.6,429.4,162.9,423.4,162.9z M219.3,446.1h-22.2v-21.9L219.3,446.1z M277.2,466.9
		l-12.1-2l-96.1-95l10-9.2l97.4,96.2L277.2,466.9z M252.7,200.1v-25.9h10.2c4.9,0,9.1-3.3,10.3-7.9l0.2-0.6l0.1-0.5
		c2.3-15.4,15.5-26.5,31.3-26.5c15.8,0,29,11.1,31.3,26.5l0.3,1.1c1.2,4.7,5.5,7.9,10.3,7.9h11.4v25.9H252.7z M241.9,221.3H369
		c5.9,0,10.8-4.7,10.8-10.6V184h32.9v262H291.1l-94-92.8V184h34.1v26.7C231.1,216.6,236,221.3,241.9,221.3z"/>
	<path class="st0" d="M249.8,396h110c5.9,0,10.8-4.7,10.8-10.6s-4.8-10.6-10.8-10.6h-110c-5.9,0-10.8,4.7-10.8,10.6
		S243.9,396,249.8,396z"/>
	<path class="st0" d="M249.8,363.8h110c5.9,0,10.8-4.7,10.8-10.6s-4.8-10.6-10.8-10.6h-110c-5.9,0-10.8,4.7-10.8,10.6
		S243.9,363.8,249.8,363.8z"/>
</g>
</svg>
