<?xml version="1.0" encoding="utf-8"?>
<!-- Generator: Adobe Illustrator 21.1.0, SVG Export Plug-In . SVG Version: 6.00 Build 0)  -->
<svg version="1.1" id="Layer_1" xmlns="http://www.w3.org/2000/svg" xmlns:xlink="http://www.w3.org/1999/xlink" x="0px" y="0px"
	 viewBox="0 0 16.8 16.8" style="enable-background:new 0 0 16.8 16.8;" xml:space="preserve">
<g>
	<path d="M10.4,9.9c1.3-1.6,0.8-4.1-1.1-5.1C8.1,4.1,6.6,4.3,5.5,5.2C3.9,6.7,4,9.1,5.7,10.4c1.2,1,3,1,4.2,0l1.9,1.9
		c0.2,0.2,0.4,0.2,0.5,0s0.2-0.4,0-0.5L10.4,9.9z M9.7,9.6L9.6,9.7c-1,1-2.7,0.9-3.7-0.1C5.4,9.1,5.2,8.4,5.2,7.8
		c0-1.4,1.2-2.6,2.6-2.6c1.4,0,2.6,1.2,2.6,2.6C10.4,8.4,10.1,9.1,9.7,9.6z"/>
	<path d="M7,0.1C3.5,0.7,0.7,3.5,0.1,7c-0.9,5.7,4,10.6,9.7,9.7c3.5-0.6,6.3-3.4,6.9-6.9C17.6,4.1,12.7-0.8,7,0.1z M6.9,15.6
		C4,15.1,1.7,12.7,1.1,9.8c-1-5.2,3.5-9.7,8.7-8.7c2.9,0.6,5.2,2.9,5.8,5.8C16.6,12.1,12.1,16.6,6.9,15.6z"/>
</g>
</svg>
