<?xml version="1.0" encoding="utf-8"?>
<!-- Generator: Adobe Illustrator 21.1.0, SVG Export Plug-In . SVG Version: 6.00 Build 0)  -->
<svg version="1.1" id="Layer_1" xmlns="http://www.w3.org/2000/svg" xmlns:xlink="http://www.w3.org/1999/xlink" x="0px" y="0px"
	 viewBox="0 0 16.8 16.8" style="enable-background:new 0 0 16.8 16.8;" xml:space="preserve" fill="#6b8be9">
<path d="M7.1,3.9C7.2,4.1,7.2,4.4,7,4.5L5.4,5.8c3.7,0.5,6.4,3.7,6.4,7.4c0,0.2-0.2,0.4-0.4,0.4S11,13.4,11,13.1
	C11,9.8,8.5,7,5.1,6.5l1.4,1.8c0.1,0.2,0.1,0.4-0.1,0.6C6.3,9,6,9,5.9,8.8L4,6.3c0,0,0,0,0,0C3.8,6.2,3.8,5.9,4,5.8l2.5-1.9
	C6.7,3.7,6.9,3.8,7.1,3.9C7.1,3.9,7.1,3.9,7.1,3.9z M12.8,3.6c-0.2-0.2-0.4-0.2-0.6,0l-1,1l-1-1c-0.2-0.2-0.4-0.1-0.6,0
	C9.5,3.8,9.5,4,9.7,4.2l1,1l-1,1c-0.2,0.2-0.2,0.4,0,0.6c0.2,0.2,0.4,0.2,0.6,0c0,0,0,0,0,0l1-1l1,1c0.2,0.2,0.4,0.1,0.6,0
	c0.1-0.2,0.1-0.4,0-0.6l-1-1l1-1C13,4,13,3.8,12.8,3.6z M8.1,11.9c0-1-0.8-1.8-1.8-1.8s-1.8,0.8-1.8,1.8c0,1,0.8,1.8,1.8,1.8
	S8.1,13,8.1,11.9z M7.3,11.9c0,0.6-0.5,1.1-1.1,1.1s-1.1-0.5-1.1-1.1s0.5-1.1,1.1-1.1S7.3,11.3,7.3,11.9z M16.8,8.4
	C16.8,3.8,13,0,8.4,0S0,3.8,0,8.4s3.8,8.4,8.4,8.4S16.8,13,16.8,8.4z M15.8,8.4c0,4.1-3.3,7.4-7.4,7.4S1,12.5,1,8.4
	C1,4.3,4.3,1,8.4,1S15.8,4.3,15.8,8.4z"/>
</svg>
