<?xml version="1.0" encoding="utf-8"?>
<!-- Generator: Adobe Illustrator 21.1.0, SVG Export Plug-In . SVG Version: 6.00 Build 0)  -->
<svg version="1.1" id="Layer_1" xmlns="http://www.w3.org/2000/svg" xmlns:xlink="http://www.w3.org/1999/xlink" x="0px" y="0px"
	 viewBox="0 0 16.8 16.8" style="enable-background:new 0 0 16.8 16.8;" xml:space="preserve">
<path d="M8.4,16.8C3.8,16.8,0,13,0,8.4S3.8,0,8.4,0s8.4,3.8,8.4,8.4S13,16.8,8.4,16.8z M8.4,1C4.3,1,1,4.3,1,8.4
	c0,4.1,3.3,7.4,7.4,7.4s7.4-3.3,7.4-7.4C15.8,4.3,12.5,1,8.4,1z M12.8,9.4c-0.1-0.1-0.1-0.1-0.2-0.1l0-1.7c0.1,0,0.1-0.1,0.2-0.1
	c0.3-0.3,0.3-0.8,0-1.1C12.6,6.1,12.3,6,12,6.1L9.2,3.3c0.1-0.3,0-0.6-0.2-0.8c-0.3-0.3-0.8-0.3-1.1,0C7.6,2.7,7.6,3,7.6,3.3
	L4.8,6.1C4.5,6,4.2,6.1,4,6.3C3.7,6.6,3.7,7.1,4,7.4c0.1,0.1,0.1,0.1,0.2,0.1v1.7C4.1,9.3,4.1,9.3,4,9.4c-0.3,0.3-0.3,0.8,0,1.1
	c0.2,0.2,0.5,0.3,0.8,0.2l2.8,2.8c-0.1,0.3,0,0.6,0.2,0.8c0.2,0.2,0.4,0.2,0.6,0.2s0.4-0.1,0.6-0.2c0.2-0.2,0.3-0.5,0.2-0.8l2.8-2.8
	c0.3,0.1,0.6,0,0.8-0.2C13.1,10.2,13.1,9.7,12.8,9.4z M8.8,4l2.7,2.7c0,0.1,0,0.3,0,0.4l-0.8,0.8L9.2,6.3c0.1-0.3,0-0.6-0.2-0.8
	C8.9,5.5,8.8,5.4,8.8,5.4V4z M5.3,6.6L8,4v1.4c-0.1,0-0.1,0.1-0.2,0.1C7.6,5.7,7.6,6,7.6,6.3L6.1,7.8L5.3,7.1
	C5.4,6.9,5.4,6.8,5.3,6.6z M5,7.8l0.6,0.6L5,9L5,7.8z M8,12.8l-2.7-2.7c0-0.1,0-0.3,0-0.4l0.8-0.8l1.5,1.5c-0.1,0.3,0,0.6,0.2,0.8
	c0.1,0.1,0.1,0.1,0.2,0.1V12.8z M8.4,9.9c-0.1,0-0.1,0-0.2,0L6.6,8.4l1.5-1.5c0.1,0,0.3,0,0.4,0l1.5,1.5L8.6,9.9
	C8.5,9.9,8.5,9.9,8.4,9.9z M11.4,10.1l-2.7,2.7l0-1.4c0.1,0,0.1-0.1,0.2-0.1c0.2-0.2,0.3-0.5,0.2-0.8l1.5-1.5l0.8,0.8
	C11.4,9.8,11.4,10,11.4,10.1z M11.2,8.4l0.6-0.6l0,1.2L11.2,8.4z"/>
</svg>
