<?xml version="1.0" encoding="utf-8"?>
<!-- Generator: Adobe Illustrator 21.1.0, SVG Export Plug-In . SVG Version: 6.00 Build 0)  -->
<svg version="1.1" id="Layer_1" xmlns="http://www.w3.org/2000/svg" xmlns:xlink="http://www.w3.org/1999/xlink" x="0px" y="0px"
	 viewBox="0 0 16.8 16.8" style="enable-background:new 0 0 16.8 16.8;" xml:space="preserve" fill="#6b8be9">
<path d="M8.4,16.8C3.8,16.8,0,13,0,8.4S3.8,0,8.4,0c4.6,0,8.4,3.8,8.4,8.4S13,16.8,8.4,16.8z M8.4,1C4.3,1,1,4.3,1,8.4
	c0,4.1,3.3,7.4,7.4,7.4s7.4-3.3,7.4-7.4C15.8,4.3,12.5,1,8.4,1z M8.3,6.7c0.1,0,0.2,0,0.3-0.1l1.5-1.5c0.2-0.2,0.2-0.4,0-0.6
	C10,4.5,9.9,4.4,9.8,4.4c-0.1,0-0.2,0-0.3,0.1L8,6C7.9,6.2,7.9,6.4,8,6.6C8.1,6.7,8.2,6.7,8.3,6.7z M7.2,6.3c0.2,0,0.4-0.2,0.4-0.4
	V3.8c0-0.2-0.2-0.4-0.4-0.4C7,3.4,6.8,3.6,6.8,3.8v2.1C6.8,6.1,7,6.3,7.2,6.3z M8.4,7.4c0,0.2,0.2,0.4,0.4,0.4h2.1
	c0.2,0,0.4-0.2,0.4-0.4S11.1,7,10.8,7H8.8C8.5,7,8.4,7.2,8.4,7.4z M6.1,8.1c-0.1,0-0.2,0-0.3,0.1L4.4,9.7C4.3,9.7,4.3,9.8,4.3,9.9
	s0,0.2,0.1,0.3c0.1,0.1,0.2,0.1,0.3,0.1c0.1,0,0.2,0,0.3-0.1l1.5-1.5c0.2-0.2,0.2-0.4,0-0.6C6.4,8.1,6.3,8.1,6.1,8.1z M7.2,8.5
	C7,8.5,6.8,8.7,6.8,8.9V11c0,0.2,0.2,0.4,0.4,0.4c0.2,0,0.4-0.2,0.4-0.4V8.9C7.6,8.7,7.5,8.5,7.2,8.5z M5,4.5
	C4.9,4.5,4.8,4.4,4.7,4.4c-0.1,0-0.2,0-0.3,0.1C4.2,4.7,4.2,5,4.4,5.1l1.5,1.5C5.9,6.7,6,6.7,6.1,6.7s0.2,0,0.3-0.1
	c0.2-0.2,0.2-0.4,0-0.6L5,4.5z M6.1,7.4C6.1,7.2,5.9,7,5.7,7H3.6C3.4,7,3.2,7.2,3.2,7.4s0.2,0.4,0.4,0.4h2.1
	C5.9,7.8,6.1,7.6,6.1,7.4z M12.4,12l-5-5C7.3,6.9,7.2,6.9,7.1,6.9C7,6.9,6.9,6.9,6.8,7c-0.1,0.1-0.1,0.4,0,0.5l5,5
	c0.1,0.1,0.2,0.1,0.3,0.1c0.1,0,0.2,0,0.3-0.1C12.5,12.4,12.5,12.2,12.4,12z"/>
</svg>
