<?xml version="1.0" encoding="utf-8"?>
<!-- Generator: Adobe Illustrator 21.1.0, SVG Export Plug-In . SVG Version: 6.00 Build 0)  -->
<svg version="1.1" id="Layer_1" xmlns="http://www.w3.org/2000/svg" xmlns:xlink="http://www.w3.org/1999/xlink" x="0px" y="0px"
	 viewBox="0 0 16.8 16.8" style="enable-background:new 0 0 16.8 16.8;" xml:space="preserve">
<path d="M8.4,16.8C3.8,16.8,0,13,0,8.4S3.8,0,8.4,0s8.4,3.8,8.4,8.4S13,16.8,8.4,16.8z M8.4,1C4.3,1,1,4.3,1,8.4
	c0,4.1,3.3,7.4,7.4,7.4s7.4-3.3,7.4-7.4C15.8,4.3,12.5,1,8.4,1z M11.7,6.7V5.4c0-0.4-0.3-0.7-0.7-0.7H7.3V3.3H4.5v3.5h0.7v5.5
	c0,0.4,0.3,0.7,0.7,0.7h5c0.4,0,0.7-0.3,0.7-0.7v-1h1.4V6.7H11.7z M12.6,10.3l-1-1.3l1-1.3V10.3z M11.7,7.2h0.7l-1,1.4l-1-1.4h0.6
	H11.7z M10,7.7L11,9l-1,1.3V7.7z M6.8,5.8L6.2,5l0.6-0.8v0.4v0.7V5.8z M6.6,3.8L5.9,4.6L5.2,3.8H6.6z M5,5.8V4.2L5.6,5L5,5.8z
	 M5.2,6.3l0.7-0.8l0.7,0.8H5.9H5.2z M10.9,12.3l-5,0l0-5.5h1.4V5.4l3.6,0v1.3H9.5v4.6h1.4V12.3z M11.7,10.8h-0.8h-0.6l1-1.4l1,1.4
	H11.7z M6.4,10.8h2.3v0.5H6.4V10.8z M6.4,9.8h2.3v0.5H6.4V9.8z M6.4,8.8h2.3v0.5H6.4V8.8z"/>
</svg>
