<?xml version="1.0" standalone="no"?>
<!DOCTYPE svg PUBLIC "-//W3C//DTD SVG 1.1//EN" "http://www.w3.org/Graphics/SVG/1.1/DTD/svg11.dtd">
<svg xmlns="http://www.w3.org/2000/svg">
<metadata>Copyright (C) 2017 by original authors @ fontello.com</metadata>
<defs>
<font id="sop-cult-fontello" horiz-adv-x="1000" >
<font-face font-family="sop-cult-fontello" font-weight="400" font-stretch="normal" units-per-em="1000" ascent="850" descent="-150" />
<missing-glyph horiz-adv-x="1000" />
<glyph glyph-name="play" unicode="&#xe800;" d="M271 850l866-500-866-500v1000z" horiz-adv-x="1137" />

<glyph glyph-name="close-x" unicode="&#xe801;" d="M605 350l395-395-105-105-395 395-395-395-105 105 395 395-395 395 105 105 395-395 395 395 105-105-395-395z" horiz-adv-x="1000" />

<glyph glyph-name="arrow-right" unicode="&#xe802;" d="M39-121l-23 25 463 446-463 446 23 25 489-471-489-471z" horiz-adv-x="544" />

<glyph glyph-name="arrow-left" unicode="&#xe803;" d="M504 821l24-25-463-446 463-446-24-25-488 471 488 471z" horiz-adv-x="544" />

<glyph glyph-name="vimeo" unicode="&#xe804;" d="M896 558q-32-186-171-351t-245-237q-42-28-81-17t-66 38-43 61q-16 32-78 239t-74 223q-16 12-38 5t-44-21l-20-14-36 50q18 20 46 52t100 89 124 67q30 6 53-7t36-35 23-60 15-70 12-75 13-67q14-54 21-80t17-54 18-39 18-11q40 0 126 166 42 76 6 124t-112 2q22 126 140 188 104 54 182 8 80-46 58-174z" horiz-adv-x="901" />

<glyph glyph-name="twitter" unicode="&#xe805;" d="M920 636q-36-54-94-98l0-24q0-130-60-250t-186-203-290-83q-160 0-290 84 14-2 46-2 132 0 234 80-62 2-110 38t-66 94q10-4 34-4 26 0 50 6-66 14-108 66t-42 120l0 2q36-20 84-24-84 58-84 158 0 48 26 94 154-188 390-196-6 18-6 42 0 78 55 133t135 55q82 0 136-58 60 12 120 44-20-66-82-104 56 8 108 30z" horiz-adv-x="920" />

<glyph glyph-name="sop-logo" unicode="&#xe806;" d="M2913 537l-1 4-1 4c-1 8-3 22-18 29-2 1-3 1-3 1-33 7-64-1-94-8-28-7-59-15-91-9-2 1-24 1-24 1-48 1-98 3-141 16-20 8-41 4-63-12l0 0-2-1-1-1c-6-9-8-18-8-27 0 0 0-4 1-8-5-2-13-5-13-5-1 0-9-4-9-4l-7 0c0 0-60-91-62-94-3-1-79-26-79-26-1 0-17-10-20-12 2 9 5 19 5 19 6 26 13 56 13 86l0 8 0 4-1 2c-5 27-31 27-45 27 0 0-4 0-7 1-3 20-11 39-19 55 0 0-3 6-3 6-37 62-112 98-200 96-88-4-149-85-175-153-8-17-16-36-23-55-1 1-1 2-1 3l-1 0 0 1c-12 24-89 106-177 77-53-18-55-41-69-79l-1-2c0 0-1 0-1-1-17 25-37 34-62 49-20 7-106 25-150-9-31-24-37-75-47-139 6 41-25 73-58 100l-2 2-1 0c-14 7-33 11-49 10l-2 0-3-1-1-1c-25-12-39-30-42-52-3-6-4-14-4-20v-14c0-8 0-12-4-15l-1-1-2-2-13-29c-22-47-49-106-49-163v-2c-7 1-32 2-32 2l-2 0c-44-10-54-47-63-77 0 0-5-14-8-22-45 21-71 64-79 129 9-3 39-10 39-10 24-8 49-15 74-14h1l2 0c20 5 34 19 38 38 0 0 0 2 0 2 0 2 0 4 0 4 0 1-17 64-17 64l-2 8-31 116c0 0-1 4-1 4-9 29-18 60-33 88-8 19-30 33-53 34-19 2-37-6-48-22-34-61-55-128-63-196-5-1-13-2-15-2-1 8-7 49-7 49 0 0-1 5-1 5-3 22-6 45-11 68-1 2-4 10-4 10-4 13-11 39-37 42-22 7-46-1-59-22l-1-2-1-1c-4-20-12-40-19-58-3 23-6 46-14 68l0 1-1 2c-12 21-39 26-58 22l-2-1c-22-8-30-25-37-40 0 0-2-4-3-7-4 1-13 3-13 3-17-3-28-7-40-20-7-7-11-15-11-24 0-10 4-19 8-26 0-1 1-3 1-3 2-13 3-28 3-46 0-28-3-56-7-86-5 42-17 84-35 123l-2 2-10 13c-23 26-50 59-95 46l-2-1c-22-10-39-27-51-48 1 11 1 22 1 32 0 35-6 65-19 93-20 39-68 63-118 58-58-14-111-55-137-106l-1 0 0-2 0-1c-4-15-6-30-6-45 0-82 53-154 102-215 0 1 13-18 13-18 20-28 40-58 45-90-11 13-23 28-32 45 0 0-2 4-2 4l-1 2-7 1c-16 2-53 3-70-25l0 0-1-3-1-2c-7-32 16-54 34-71 1 0 20-21 20-21l1-1 2-2 1-1c-1 1 16-17 16-17l3-3c9-12 19-25 35-32l2-1 6-1c13-2 28-4 41 3l1 0 1 1c18 15 26 35 33 53 19-20 46-31 74-28 42-1 71 23 96 50 22 22 38 48 48 77 0-7 0-15 0-22 0-19 1-38 3-56l0-1 1-1 1-2c9-20 28-23 43-25 1 0 12-2 12-2l4 4c-1-1 7 3 7 3 8 3 20 7 25 21-1-1 0 1 0 1l1 1 0 3-1 51c0 57 4 108 12 153 5-44 18-165 18-165 0-1 16-31 16-31l2-3 8 1c0 0 12-2 12-2 8-2 22-6 36 3 1 0 5 3 5 3 7 4 17 10 19 23l0 0 0 2 0 14c0 50 9 100 19 149 10-56 21-113 48-163 9-25 35-21 48-18 1 0 10 1 10 1 0 0 3-1 3-1l2 0 3 3c10 6 16 15 20 26 7-11 22-36 22-36 25-31 92-98 173-75 30 5 33 31 34 46l1 5 1 11 1 1v1c1 14 8 26 17 42 0 0 3 5 3 5s4 9 8 17c6-13 14-25 23-36 32-32 80-30 115-18 2 0 3 1 3 1 39 25 67 63 82 109 1-2 1-5 1-8 1-16 1-37 20-51 0 0 1-2 1-2l1-1 5 0c10-1 12-5 16-21 5-15 11-35 34-43 11-2 36-6 54 5 2 1 3 2 3 2 0 1 23 25 23 25l4 3c0 0 27 28 33 35 9 1 18-6 30-14l22-14c71-27 124 2 176 50 21 20 27 29 33 37 1-73 12-126 30-195 0-1 32-114 32-114l2-10 1-3 1 0c9-17 27-15 38-14 1 1 13 0 13 0l7-2 9 8c10 8 25 19 25 39l0 4c-6 31-7 72-9 108l0 20v69c0 45 1 92 8 136 3 1 13 5 13 5 28 9 56 18 83 31 1-1 1-3 1-3l-1-23 0-14c0-14 1-24 4-34 2-31 4-73 46-85l0 0 3 0 11 1c12 0 26 1 40 16 6 8 9 16 9 25l-2 15-1 2-1 10-2 2c-7 13-10 31-10 55l4 53c0-1 0 2 0 2l0 1 0 2-1 8c0 20 17 35 38 51 0 0 1 1 2 2-8-35-16-69-16-106l1-16 0-2 1-2c9-21 28-32 55-30 15 1 29 8 38 19l0 1 2 2 0 1c25 50 63 86 106 100 2-22 8-43 17-64 16-32 48-55 82-61 55-4 106 17 138 57 25 26 38 61 38 104 0 34-8 72-23 117 10-1 56-2 56-2s61-2 80-3c-9-42-20-84-31-124-21-74-38-141-44-211l-1-4 1-1c0 0 0-3 0-3l-1-11c0 0 0-4 0-4l-1-10c0-18 7-29 22-34 1 0 8-2 8-2l5 5 13 7c12 7 28 15 31 34 25 133 63 261 96 371 3 1 17 5 17 5 19 4 48 9 54 39 0 0 1 3 1 3l1 2c0 0-2 4-2 4z m-2672-310c0 0-10-27-14-40-17 30-37 58-57 84l-1 2c-39 51-80 103-86 169 3 29 32 52 56 70 0 0 2 2 2 2 16 5 32 3 43-6 10-20 15-44 15-72 0-30-6-58-12-77l0-2v-2l-2-12-1-5c0 0-5-25-5-25 0-15 8-27 21-34l1-1 2 0c19-5 41-1 55 9 0 0 1 1 1 1 0-3 0-8 0-8s1-6 1-7c-1-3-19-46-19-46z m86-123c-2-2-7-5-11-6-6 8-9 18-9 29 0 13 3 28 9 47 12 32 31 78 65 94 2-10 4-21 4-31 0-51-21-98-58-133z m583 297c2-6 4-12 4-12 9-29 16-55 21-82-15 1-29 5-41 9 2 23 7 53 16 85z m307-217c-5-13-13-23-23-32-1 0-3 2-7 6 0 0-2 2-3 3-3 13-5 26-5 38 0 42 16 88 45 135 6-26 10-51 10-73 0-31-5-57-17-77z m304 142c-1-22-6-41-14-57-5-8-34-52-82-60-14-3-19 10-20 30-2 19 1 92 4 128 3 38 7 83 16 84 17 2 48-6 78-36 10-11 14-25 16-41 2-11 2-27 2-48z m226 4c-3-33-21-70-49-99-29-29-66-33-72-37 0 0-8 0-9 4-1 3-3 17-1 44 2 27 6 72 12 113 5 33 6 36 6 36 6 36 10 79 20 80 16 2 49-5 75-36 9-11 13-23 16-38l1-3c3-17 4-39 1-64z m404 169c-5 3-9 6-15 6-19 4-36-3-49-8l-4-2c-1-1-3-2-3-2-20-23-22-49-24-75-2-15-3-29-8-42-30-19-64-35-106-49 1 6 1 13 1 13l3 33c0 32-13 50-40 56 1 5 3 11 3 11 20 62 41 124 100 162 43 11 92-5 123-43 9-14 19-36 19-58 0 0 0-2 0-2z m385-181c0 0-7-7-7-7-19-20-35-37-59-29-14 13-23 32-23 53 0 0 1 8 1 8 6 1 11 0 19-1l1 0c15-3 34-6 52 10 9 9 19 23 19 39 0 10-5 19-12 26l-2 1c-9 7-20 10-31 13 1 0 1 1 1 1 8 9 16 21 21 34 10-16 16-36 21-54 0 0 3-13 3-13 3-14 4-27 4-38 0-17-2-31-8-43z m-333 458c1 14 1 30-5 46 0 1-1 3-1 3l-1 2c-13 15-34 23-61 23h-4-3l-4-6c0 0-8-7-8-7l-2-2c-8-5-19-12-22-26l0-1 0-2c-2-27 17-43 33-55l1-1 14-11c0-1 4-4 4-4l13 0c13-1 28-2 41 11 0 0 3 3 3 3l2 1-1 7c1 0 1 19 1 19z" horiz-adv-x="2915" />

<glyph glyph-name="pause" unicode="&#xe807;" d="M0-25l0 750 313 0 0-750-313 0z m438 0l0 750 312 0 0-750-312 0z" horiz-adv-x="750" />

<glyph glyph-name="facebook" unicode="&#xe808;" d="M535 843v-147h-87q-48 0-65-20t-17-60v-106h164l-22-165h-142v-424h-171v424h-142v165h142v122q0 104 58 161t155 57q82 0 127-7z" horiz-adv-x="571.4" />

<glyph glyph-name="tumblr" unicode="&#xe809;" d="M527 108l44-132q-12-19-61-37t-99-18q-58-1-107 15t-79 41-53 59-31 67-9 66v304h-94v120q40 14 72 39t51 50 32 57 19 55 8 49q1 3 3 5t4 2h136v-237h186v-140h-186v-289q0-17 3-32t13-29 28-23 45-8q44 1 75 16z" horiz-adv-x="571.4" />

<glyph glyph-name="instagram" unicode="&#xe80a;" d="M760 54v362h-75q11-35 11-73 0-71-36-130t-97-94-134-35q-110 0-188 76t-78 183q0 38 11 73h-79v-362q0-14 10-24t25-10h596q14 0 24 10t10 24z m-158 298q0 69-51 118t-122 49q-71 0-121-49t-51-118 51-118 121-49q72 0 122 49t51 118z m158 201v92q0 15-11 27t-27 11h-98q-16 0-27-11t-11-27v-92q0-17 11-28t27-11h98q16 0 27 11t11 28z m97 116v-638q0-45-32-77t-78-33h-637q-45 0-78 33t-32 77v638q0 45 32 77t78 33h637q45 0 78-33t32-77z" horiz-adv-x="857.1" />

<glyph glyph-name="cult-symbols-01" unicode="&#xe80b;" d="M1117 386c-17 9-34 17-52 24-5 24-9 44-14 67-12 45-31 88-54 131-16 31-36 60-63 84-23 19-45 41-65 61 0 27 1 50 0 74-1 17-13 26-30 24-15-1-28-9-39-18-18-15-39-19-62-10-6 2-14 4-21 6-61 21-124 22-188 18-44-2-87-15-129-24-17-4-32-3-46 8-10 7-23 13-35 16-27 8-47-6-50-33-2-9-2-18-2-26 0-25-10-44-30-61-37-30-68-65-90-108-26-48-56-96-64-150-5-42-16-74-62-83-1 0-3-2-4-3-17-9-22-23-16-41 6-13 16-22 28-28 14-7 28-14 44-22 22-137 87-250 189-343 0-19-1-35 0-51 4-36 31-51 64-32 7 3 15 9 22 14 11 10 23 10 37 6 9-2 17-5 26-8 69-22 139-28 210-23 41 4 79 7 118 20 24 7 46 9 66-11 10-8 24-10 37-14 11-3 21 4 23 16 3 16 7 35 5 51-1 22 6 41 22 55 7 5 12 13 20 18 28 21 49 49 69 81 31 50 57 102 71 160 5 25 13 48 26 70 13 7 27 12 39 20 32 23 32 47 0 65z m-256 268c52-36 101-118 121-207-51 18-95 39-138 59-3 41 7 124 17 148z m-282 123c59-2 85-7 108-24-31-27-64-51-98-74-10-8-22-9-33-1-32 23-63 46-96 70-1 1-2 5-2 7 27 17 66 24 121 22z m-307-124c6 0 7 0 8-1 2 0 3-3 3-4 5-42 10-85 15-126 0-4-1-9-2-14-42-20-83-41-129-56-2 5-6 10-5 13 17 75 56 137 110 188z m12-605c-8 4-13 4-17 8-52 52-87 113-106 184-1 4 0 8 1 19 48-21 92-41 139-61-7-51-12-98-17-150z m279-119c-56 0-83 7-113 23 38 33 78 59 119 90 39-29 76-55 111-82 2-2 5-6 9-11-42-20-83-20-126-20z m297 121c-3 4-5 8-7 11-5 45-9 89-14 130 29 21 97 52 138 62-3-63-61-164-117-203z m114 290c-50-24-101-48-152-71-9-4-19-8-28-13-25-12-31-23-29-49 7-57 13-114 20-171 1-15 6-29 0-43-12-8-21-2-29 4-27 19-54 40-82 59-23 17-47 35-71 52-23 17-47 16-69-1-20-16-42-33-63-48-34-26-66-53-103-74-13 5-13 14-10 22 14 65 13 130 16 195 1 28-8 46-35 58-45 19-86 45-133 58-20 5-40 17-59 34 7 6 13 14 19 17 55 25 108 47 162 71 5 3 11 4 17 7 21 7 30 22 29 44-2 19-2 39-4 57-4 45-8 91-12 136-1 12-4 23 9 34 9-5 20-12 29-18 41-30 83-61 124-91 8-7 17-12 26-18 16-11 31-11 45 0 15 10 29 20 43 31 37 27 74 54 111 80 6 5 14 11 22 14 5 3 16-2 16-9 0-9 2-18 0-26-6-57-13-114-18-171-5-43-1-49 39-67 51-24 103-46 153-68 11-5 22-7 29-23-2-4-7-9-12-12z" horiz-adv-x="1141" />

<glyph glyph-name="top" unicode="&#xe80c;" d="M0 174l352 352 148 148 148-148 352-352-148-148-352 351-352-351z" horiz-adv-x="1000" />

<glyph glyph-name="heart" unicode="&#xe80d;" d="M500-79q-14 0-25 10l-348 336q-5 5-15 15t-31 36-38 55-30 67-13 77q0 123 71 192t196 70q34 0 70-12t67-33 54-38 42-38q20 20 42 38t54 38 67 33 70 12q125 0 196-70t71-192q0-123-128-251l-347-335q-10-10-25-10z" horiz-adv-x="1000" />

<glyph glyph-name="cult-symbols-02" unicode="&#xe80e;" d="M469-150c-75 0-151 0-226 0-65 0-130 2-195 2-8 0-14 0-22 2-18 5-31 23-23 42 5 13 11 23 17 34 71 125 143 248 213 371 23 42 30 40 0 93-39 67-75 137-118 202-35 54-65 110-96 167-6 10-11 20-16 30-9 23 5 47 28 51 13 2 25 2 39 1 69 0 136-1 205-1 104 2 208 6 311 6 97 0 194-4 290-6 9 0 18-1 25-3 24-6 34-27 24-50-5-10-11-20-16-30-71-123-143-246-214-368-29-50-25-48 0-89 75-130 151-261 226-392 8-12 13-25 10-40-2-11-7-17-18-20-5-1-12-1-18-1-141 0-284 0-426-1 0 1 0 0 0 0z m157 421c-13-23-26-46-40-70-28-50-57-101-87-151-20-32-46-31-66 0-4 5-7 10-9 15-36 61-73 123-109 184-4 7-7 16-22 16-2-1-3-5-5-9-60-105-122-208-182-314-2-3-2-10-3-17 11-1 18-3 27-3 45 0 91 0 136 2 58 1 117 5 174 1 81-4 163-3 243-3 37 0 73 2 111 2 11 0 22-2 31 13-62 108-125 216-187 324 0 4-5 7-12 10z m200 493c-6 4-8 5-11 6-5 1-11 1-17 1-228 0-455-1-683-1 0-1-2-2-2-2-2-2-3-3-5-5 0-13 7-25 15-38 30-50 58-101 91-149 27-41 55-82 75-128 2-7 9-10 12-15 5 5 8 7 10 11 38 62 74 124 112 186 3 8 8 15 13 21 17 20 43 20 58 0 6-7 10-17 15-25 37-63 75-127 112-191 2-2 4-2 8-5 2 3 7 4 10 8 19 33 36 67 55 101 14 25 25 51 42 74 33 41 58 87 84 133 3 4 4 10 6 18z m-362-626c10 13 16 21 21 30 16 28 33 56 48 85 13 25 27 50 41 73 9 15 7 29-1 44-32 54-60 109-92 164-5 7-8 17-22 20-39-68-78-135-118-203 35-75 82-138 123-213z" horiz-adv-x="932" />

<glyph glyph-name="cult-symbols-03" unicode="&#xe80f;" d="M150 213c-73 10-124 45-144 115-18 64 3 118 52 160 40 34 102 52 185 8 31 16 59 41 89 62 2 16-2 33-4 49-5 47 2 93 29 134 37 60 92 96 162 107 47 6 92 1 137-20 42-20 71-52 90-94 21-46 35-94 22-146-6-20 2-34 19-45 15-10 31-22 46-33 14-10 26-11 43-3 34 14 70 20 107 10 70-18 121-88 113-159-2-9-3-18-5-27-9-43-30-77-73-94-22-9-44-20-70-20-5-14-10-27-15-39-29-88-56-176-85-264-4-10-7-18-9-28-7-22-20-30-42-30-76 1-153 1-228 0-62-3-126-6-189-6-28 0-56 2-83 3-17 1-29 9-35 25-6 20-14 40-21 61-28 84-55 168-82 252-2 8-6 15-9 22z m137 230c2-7 3-12 5-16 30-74-1-153-62-188-6-3-9-8-14-12 7-26 15-49 23-74 22-70 44-139 68-209 9-26 9-26 37-26 49 0 99 0 148 0 9 0 17 3 27 4 0 15 1 27 1 39-1 77-2 155-3 231 0 49 2 99 2 148 0 22 1 46-6 67-97 39-75 26-147 92-25-18-54-31-79-56z m305-525c41 0 80-1 119-2 18 0 36 2 53 3 16 1 26 9 30 24 6 21 14 41 18 63 9 38 22 75 37 111 13 35 27 71 37 111-27 14-50 31-66 55-16 24-23 50-26 78-2 30 9 57 18 85-25 20-49 41-74 53-26-21-47-43-72-59-26-16-55-24-83-37-3-157 1-314 5-471-1-3 1-6 4-14z m109 692c16 59-10 116-71 154-49 30-116 39-184-20-14-11-27-23-35-40-11-22-18-44-19-68 0-10-1-20 6-30 5 3 11 4 14 7 32 24 66 48 97 73 33 25 43 26 77 2 27-20 55-40 83-59 10-7 21-12 32-19z m-572-322c-5 14-7 23-10 33-3 10-7 19-9 29-10 32-8 39 18 58 13 10 26 19 40 29 4 3 9 9 14 14-6 3-11 6-15 7-35 5-75-14-87-40-21-45-18-85 11-112 7-7 16-13 25-17 1-2 5-1 13-1z m292 251c23-33 50-57 93-62 2 10 4 17 4 26 0 28 0 56-1 84 0 9-13 14-20 10-27-16-54-34-76-58z m549-257c31 11 47 27 57 48 11 24 6 50 0 74-7 23-25 35-45 44-19 9-38 13-60 1 6-6 9-10 14-13 13-10 26-19 40-29 24-19 26-26 17-56-7-20-14-40-23-69z m-384 322c-5-42-4-84 2-126 42 4 69 26 90 58-26 28-65 58-92 68z m321-314c6 19 11 32 15 47 4 11 1 24-6 32-14 14-28 28-49 32-15-45-6-82 40-111z m-716 8c46 18 59 55 38 104-20-12-41-23-58-43 7-21 13-41 20-61z" horiz-adv-x="1097" />

<glyph glyph-name="cult-symbols-04" unicode="&#xe810;" d="M1002 455c-21 34-39 69-59 103-29 49-58 100-86 149-7 13-15 25-30 31-57 19-108 51-167 66-43 11-84 26-125 41-18 6-34 7-51 2-21-9-42-16-64-23-24-8-47-20-72-24-44-10-87-27-129-43-24-9-43-23-56-46-49-87-98-173-149-258-13-23-16-45-13-70 1-10 4-21 6-31 16-82 33-164 48-248 4-19 12-34 27-46 76-64 151-127 226-190 17-15 33-20 55-19 49 1 97 0 145 0 50 0 100 0 152 0 16 0 31 4 45 15 78 66 157 132 235 198 12 10 19 21 21 37 6 34 12 68 19 102 12 64 22 129 34 192 5 23 1 43-12 62z m-59-87c-9-51-18-102-29-153-5-28-14-58-19-86-4-15-11-27-23-36-61-52-123-102-184-154-13-11-27-16-43-16-20 0-40 0-60-2-52-1-104-3-155-5-77 0-77 0-137 50-42 36-85 73-128 108-21 18-34 39-42 66-23 66-30 137-44 206-5 22-12 46-9 67 4 21 19 40 31 60 34 59 69 119 103 180 9 18 21 28 41 35 81 28 161 58 240 87 17 6 31 6 46 0 80-29 161-59 240-88 18-6 30-15 39-32 24-43 49-85 68-131 12-27 27-51 45-75 21-25 24-51 20-81z m-187 221c-10 18-23 30-43 38-59 21-117 45-176 67-14 6-28 5-43 0-36-12-71-23-106-35-23-8-47-18-71-26-31-10-53-29-66-60-8-21-21-39-32-59-15-29-31-57-48-84-14-22-17-43-10-69 6-22 10-44 13-67 2-37 12-73 21-110 3-16 11-29 24-40 50-41 99-82 147-123 14-12 29-17 47-17 31 1 64 0 96 0 0-2 0-2 0-3 31 0 64 0 96 0 19 0 34 5 48 17 8 7 16 14 25 21 20 17 38 36 58 54 21 18 42 36 65 54 11 9 20 21 22 36 11 63 31 124 34 189 1 22 0 41-12 61-29 51-59 103-89 156z m35-216c-9-53-18-104-28-157-2-14-8-25-20-33-34-28-68-56-101-84-18-17-41-25-65-25-26-1-51 0-76 0 0 0 0-1 0-1-24 0-48 0-72 0-13 0-23 3-33 13-36 37-81 64-120 98-11 10-19 18-22 33-8 53-17 106-27 157-2 13 0 24 6 34 27 46 54 93 80 138 7 13 16 20 31 25 49 18 97 35 146 53 13 4 26 4 39 0 50-19 99-37 150-55 12-5 20-12 26-24 25-47 52-92 79-138 7-11 9-21 7-34z m-215 104c-64 31-128 15-174-28-35-33-55-75-51-125 3-45 28-80 56-112 3-3 8-7 13-9 28-12 57-21 89-21 74 0 137 51 151 123 7 36 1 71-15 104-14 32-38 53-69 68z m17-171c-13-35-43-56-88-57-25-2-52 13-66 47-3 5-6 11-9 17-15 34-7 62 18 88 23 25 53 32 84 20 16-5 31-12 41-22 26-27 33-59 20-93z" horiz-adv-x="1015" />

<glyph glyph-name="cult-symbols-05" unicode="&#xe811;" d="M555 521c-5 9-9 16-14 23-76 143 27 311 191 306 93-2 178-82 190-174 12-92-26-162-100-214-12-8-27-13-42-15-50-10-100-9-147 14-7 4-15 6-23 10-1 0-3 0-5 0-37-38-70-78-104-123 26-23 51-43 75-65-6-22-20-37-38-50-31 12-48 43-79 56-22-8-29-30-45-45-15-16-29-33-42-49-1-21 11-35 18-51 25-54 28-108 6-163-53-139-231-175-337-70-69 70-75 178-33 246 32 52 80 87 141 98 47 8 92 7 136-16 2-1 4-1 9-1 28 18 47 47 63 77 10 20 4 40-14 60-10 10-22 19-36 31 8 9 12 19 18 26 6 7 12 15 21 23 31-13 49-43 80-56 5 2 11 3 15 7 32 36 62 74 96 115z m-347-605c60-2 135 44 137 135 0 62-47 140-132 139-99-3-145-72-143-137 0-76 60-137 138-137z m647 723c-3 89-58 144-138 144-69 0-137-88-134-143 5-78 64-134 142-133 81 2 136 74 130 132z" horiz-adv-x="924" />

<glyph glyph-name="cult-symbols-06" unicode="&#xe812;" d="M536 129c-19-13-34-28-48-43-10-11-20-22-30-33-60-68-132-123-192-189-19-20-35-20-55-1-26 25-52 51-78 76-25 25-51 48-75 72-13 13-26 28-39 42-24 27-23 41 1 66 14 14 28 28 42 42 29 29 55 59 83 87 16 18 35 33 53 50 28 26 56 53 82 83-10 11-20 20-30 29-39 35-73 74-109 113-18 21-38 40-57 61-20 21-22 33-3 56 13 17 30 32 44 48 47 49 93 100 146 142 5 5 9 9 15 13 13 8 26 8 38-1 9-7 18-17 26-25 93-93 186-186 279-278 53-53 107-105 160-158 65-66 130-132 195-198 4-4 9-9 13-15 5-9 5-21 0-31-3-4-6-8-10-13-47-47-94-95-141-142-17-17-36-33-52-51-17-19-41-19-59 1-55 57-112 112-167 169-12 9-21 18-32 28z m-294-193c12 12 22 21 31 29 71 71 143 143 214 214 7 7 15 15 23 22 15 13 31 13 47 0 8-7 17-14 24-21 53-53 106-106 159-159 7-7 16-13 26-20 6 5 10 7 14 10 33 36 66 71 99 106 7 9 14 17 20 25 4 6 7 14 9 19-2 5-3 7-5 9-74 75-146 148-220 221-22 21-47 40-67 63-28 31-56 62-89 86-6 4-10 10-15 14-21 23-43 44-64 66-7 9-14 16-23 24-35 38-72 75-108 114-4 4-8 6-14 10-21-15-36-35-52-51-18-17-33-34-51-52-16-16-36-32-48-52 4-6 5-9 7-11 48-49 98-96 146-144 17-17 32-32 47-50 14-16 14-27 1-43-26-31-53-60-81-89-26-25-53-48-79-74-28-28-56-57-83-86-9-9-20-17-24-35 51-47 93-104 156-145z" horiz-adv-x="1000" />

<glyph glyph-name="cult-symbols-07" unicode="&#xe813;" d="M303 492c27 14 42 33 62 53-10 11-19 19-27 27-31 30-61 60-92 90-6 5-9 13-13 20-7 11-4 23 4 34 7 8 14 15 22 22 183 165 451 138 607-13 17-17 36-35 53-55 12-13 22-27 28-44 19-46 39-90 50-140 10-52 10-104 9-155 0-9-2-17-6-24-21-49-39-100-69-145-17-25-36-47-56-69-19-22-39-22-59-1-22 21-42 44-64 65-15 15-29 29-44 42-5 3-12 6-20 9-17-18-33-35-51-54 7-8 14-17 21-25 30-29 59-59 89-88 7-7 13-13 19-21 9-13 9-25-2-37-7-8-14-16-22-22-122-104-261-135-417-96-18 5-35 12-54 17-53 13-93 46-131 82-22 23-45 46-65 71-14 16-24 34-35 53-25 44-40 91-41 141 0 24-1 49 0 72 3 113 42 211 116 295 30 34 48 34 81 2 28-27 54-55 81-84 7-8 15-14 26-22z m386-490c-20 21-35 39-54 54-28 25-53 52-79 79-16 18-32 37-48 54-37 38-73 74-111 111-32 31-61 64-95 92-39 33-75 68-108 108-10 13-21 27-38 33-5-2-9-3-11-7-7-8-13-16-19-26-76-127-82-258-13-390 30-56 72-103 129-134 50-28 103-48 162-53 12-1 24-4 35-5 22-1 43-2 64 0 60 7 113 30 163 64 8 7 14 13 23 20z m-374 691c10-10 20-21 30-30 11-11 23-19 32-31 64-76 140-140 208-211 33-35 68-69 102-102 40-39 80-79 121-117 24-21 52-16 67 11 16 26 27 52 40 79 4 6 5 13 7 19 12 50 14 100 7 152-10 77-48 140-97 199-23 27-50 49-82 64-24 13-50 24-76 36-26 13-53 20-81 19-39-2-78-3-117-6-59-6-110-33-157-70 0-2-1-7-4-12z m96-201c-21-18-39-34-48-58 53-63 54-65 89-83 16 16 32 33 49 49-16 25-63 73-90 92z m85-197c36-27 55-67 97-85 9 9 17 17 25 25 9 8 16 18 25 28-33 28-55 63-89 88-5-4-10-6-13-10-14-13-27-28-45-46z" horiz-adv-x="1006" />

<glyph glyph-name="cult-symbols-08" unicode="&#xe814;" d="M727 213c-24 8-49 16-69 31-17 84-16 159 3 208 36 17 72 32 105 50 34 19 71 35 100 63-9 22-22 36-41 49-23-14-46-27-69-42-23-15-43-30-75-36 18 54 43 102 63 151-16 16-33 23-52 30-40-68-65-139-87-210-9-3-16-6-24-7-28-4-57-7-85-9-33-3-64 0-96 8-14 3-23 10-26 24-10 33-21 66-33 100-5 17-12 34-19 50-26 61-29 55-80 17-1-2-1-3-2-6 6-15 14-31 22-48 8-15 15-32 22-49 6-16 15-32 14-53-53 19-97 49-147 77-11-19-26-31-31-50 2-4 4-8 8-9 23-15 47-30 73-43 35-18 71-35 108-52 14-7 20-17 22-33 8-51 8-102 1-154-3-22-11-36-34-44-55-20-107-48-157-80-6-4-13-11-20-17 11-17 19-35 37-46 45 27 90 56 146 77-15-59-42-105-62-154 16-14 31-23 51-29 17 18 26 39 35 61 16 41 30 84 46 126 3 8 7 16 9 23 77 25 168 24 224-2 59-162 65-178 91-207 16 8 34 14 48 30-6 12-10 22-15 33-13 32-27 63-41 96-2 5 0 11 0 18 52-18 96-47 143-72 17 16 28 31 35 52-19 20-45 27-66 42-25 17-49 27-75 36z m-144 49c-16 3-30 3-45 6-20 5-41 5-61 2-25-3-51-5-78-8-2 22 7 40 7 59 0 18-3 36-4 53-1 20-3 38-5 60 32-5 63-14 93-10 31 5 61 7 99 10-4-30-8-57-9-86-3-28 1-55 3-86z m-323 55c23 14 21 37 1 54-3 2-7 4-10 6-49 28-97 57-146 85-19 12-38 22-57 31-21 9-40-1-45-23-2-8-3-17-3-26 0-33 0-66 0-100 0 0 0-77 1-115 0-4 0-8 1-12 5-21 24-31 44-23 6 2 12 5 17 9 42 22 84 45 125 69 24 14 48 29 72 45z m-165-17c-6-4-15-2-22-2-10 30-11 67-2 103 16-7 33-14 49-22 17-9 33-19 51-31-24-21-50-35-76-48z m890 68c0 29 1 58 0 88-2 37-24 48-57 31-3-1-5-2-7-3-62-36-124-72-186-107-5-3-10-6-13-9-17-15-16-35 1-50 4-2 7-5 9-7 62-49 136-77 204-116 2-1 4-3 6-4 13-4 28 0 34 12 4 6 6 14 7 21 1 49 3 140 2 144z m-88-77c-29 17-61 31-88 56 35 21 67 39 98 57 3 1 5 0 9-1-1-20-3-38-3-57s2-38 3-60c-7 1-14 1-19 5z m-512 427c23-39 47-77 70-115 3-5 6-9 8-14 12-23 46-25 59 1 3 6 7 11 10 17 33 57 66 113 99 170 4 9 10 18 13 28 6 15-3 31-18 37-6 2-12 2-19 4-37 1-75 2-120 4-33-1-73-3-115-6-19-1-32-11-33-27 0-9 2-18 6-26 13-25 27-49 40-73z m57 60c31 1 64 1 96 2 3 0 7-2 15-7-17-36-35-68-58-100-17 13-20 34-31 49s-20 33-31 50c3 1 7 6 9 6z m193-869c-36 62-71 124-107 186-23 40-47 39-70-1-36-61-70-122-107-183-3-6-6-11-9-17-7-20 4-40 24-44 9-1 18-1 27-1 34 0 67 0 100 0 34 0 66 0 100 0 8 0 16 0 23 1 24 3 35 24 26 45-2 6-5 9-7 14z m-98 5c-30-1-59-1-88 0-4 0-7 3-15 5 18 34 34 64 50 95 1 3 5 4 9 8 16-14 19-33 29-50 9-17 18-34 28-53-5-1-9-5-13-5z" horiz-adv-x="986" />

<glyph glyph-name="cult-symbols-09" unicode="&#xe815;" d="M992 372c-5 6-10 12-16 18-25 26-51 52-78 77-16 15-23 31-23 51-2 42-6 84-8 125-1 13 0 27-1 39-3 20-13 30-34 31-47 4-94 11-140 5-28-5-50 6-69 26-2 4-5 6-8 10-28 28-57 56-87 83-18 16-34 16-54 2-9-7-17-17-25-25-24-24-47-48-71-72-19-19-40-30-69-29-43 3-86 2-129 0-35-1-42-9-43-44 0-3 0-6 0-8-1-41-1-81-4-122-2-47 1-45-41-84-2-2-4-3-6-4-29-15-46-43-68-65-20-20-26-46 0-68 6-4 12-11 18-16 28-28 57-57 86-86 10-9 16-20 15-34-1-19-1-37-3-55-2-38-5-76 5-113 5-18 14-26 32-29 10-1 21 0 31 0 49 0 99 0 153 0 33-34 65-66 97-98 7-7 15-14 22-22 16-18 40-18 58 1 7 8 15 15 21 22 33 32 65 64 97 95 8 0 13 1 18 1 51 0 102 1 153 1 2 0 6 0 8 0 25 3 37 12 39 35 3 39 7 78 5 117-2 21 0 41 0 64 2 4 5 8 9 12 31 31 63 63 94 94 7 7 14 13 19 20 10 14 10 31-3 45z m-855-40c0-10-1-19-1-31-25 12-33 19-56 51 5 6 10 11 15 17 11 11 22 22 39 38 4-31 3-53 3-75z m607 318c18 0 36 1 55-1 6-23 4-43 2-65-4 0-8-3-9-1-20 17-41 35-61 52-2 3-3 7-5 13 7 1 12 2 18 2z m-243 116c5-4 10-8 15-12 9-11 18-21 26-31-3-4-5-6-7-6-26-2-53-2-87 0 18 23 33 38 53 49z m-299-118c24 5 48 2 70 1 6-8 1-12-3-17-19-18-37-37-57-55-1-1-4-1-11-4-1 27-2 50 1 75z m63-599c-19 0-39 0-57 0-9 26-10 42-4 75 27-16 59-49 70-72-2-1-5-3-9-3z m236-120c-18 12-29 27-45 43 7 4 10 8 15 8 23 4 48 2 74-5-10-19-26-32-44-46z m299 143c-1-5-5-8-10-11-18-9-39-11-59-3-1 0-1 2-1 6 21 20 43 42 63 63 14-5 10-14 10-21 0-11-2-23-3-34z m3 353c-3-27 0-55 0-82 0-30-2-60 0-90 0-17-4-30-16-41-48-45-95-91-141-137-18-18-40-24-64-24-64 0-127 1-192 2-8 0-17 6-24 12-22 20-42 42-63 64-12 13-26 25-39 38-18 17-35 34-54 52-8 8-11 17-10 28 0 7 0 13 0 20 7 60 4 119 0 180-1 20 3 35 18 48 50 46 98 94 147 142 13 11 25 17 43 16 29-2 59-3 89-4 29-1 58-3 86 0 32 4 55-7 76-31s44-46 66-68c13-13 27-27 42-40 23-25 39-50 36-85z m67-127c-7 38-7 69 0 100 4-1 7-3 11-5 13-14 27-27 42-42-14-20-32-35-53-53z m-342 202c-19 18-34 18-54 0-41-40-81-80-121-122-21-20-20-35-2-58 16-20 31-38 47-58 22-26 48-49 76-66 8-5 16-7 20-10 16-1 25 4 33 11 12 11 24 24 36 35 29 30 59 59 88 89 18 19 20 40 1 58-41 42-82 82-124 121z m-25-235c-31 22-54 51-84 80 24 35 53 61 86 85 7-6 13-10 19-15 20-21 43-40 63-64-27-31-55-58-84-86z" horiz-adv-x="1001" />

<glyph glyph-name="cult-symbols-10" unicode="&#xe816;" d="M503 285c-72-64-140-127-205-196 4-13 8-27 12-40 19-56-5-138-74-178-45-25-91-28-139-13-5 1-12 4-16 8-82 60-118 172-24 265 31 31 74 39 118 35 15-2 29-6 44-10 16-4 29-1 41 11 45 46 90 93 137 138 19 20 22 66 2 86-17 17-142 142-163 158-10-4-21-8-33-11-123-31-220 68-199 185 21 114 146 159 236 105 57-35 86-89 76-158-3-16-6-33-10-49-2-12 2-22 10-30 55-50 104-108 163-156 4-3 6-5 10-8 8-5 18-5 27 0 7 4 12 9 17 15 36 38 72 76 109 115 12 12 24 24 34 36 7 8 15 14 23 24-17 46-29 92-7 140 18 37 48 59 81 77 47 27 129 23 182-34 48-51 57-129 21-189-38-63-97-99-212-61-69-61-135-128-204-197 21-28 43-49 67-69 22-16 39-35 55-55 17-21 37-39 55-59 15-16 32-20 54-12 17 5 35 8 53 8 118-2 191-128 135-231-43-80-143-108-223-65-50 28-85 117-72 164 6 18 10 35 15 52-20 28-154 165-196 199z m408-282c0 50-28 78-78 78-37 0-68-31-69-69-1-41 32-75 73-77 37-3 78 26 74 68z m-753-67c45 0 68 29 73 80 2 30-36 70-74 67-42-2-75-34-73-75 0-43 31-73 74-72z m756 756c0 45-27 69-76 69-41 2-73-33-73-75 2-38 32-69 69-69 47 2 80 34 80 75z m-759-70c35 0 63 15 73 42 21 52-21 105-78 99-43-4-69-35-66-76 1-40 29-65 71-65z" horiz-adv-x="999" />

<glyph glyph-name="cult-symbols-11" unicode="&#xe817;" d="M910 355c0-22 0-45-1-67-1-31-2-63-6-94-5-47-21-91-45-132-20-34-39-69-67-97-48-48-106-76-169-96-208-66-431 46-505 254-6 16-13 34-17 52s-6 39-6 59c0 104 0 207 1 311 0 15-1 31-1 46-18 12-34 23-50 35-29 20-41 49-43 83-2 43 10 79 43 107 41 38 107 45 154 18 9-5 18-11 24-19 25-29 37-62 37-101-1-42-20-77-57-98-37-23-36-24-36-69 0-90 1-178 0-268-1-82 26-156 70-224 27-43 66-74 112-95 16-8 35-12 54-14 18-4 33 6 42 21 10 18 16 36 17 56 2 22 3 43 3 64 1 113 2 227 4 340 0 8 0 14 0 22 1 17-7 29-23 37-5 2-10 5-15 9-61 41-80 128-21 198 14 17 36 22 55 31 20 10 40 11 62 6 48-10 94-57 101-103 10-56-7-101-55-134-10-7-22-12-33-18 0-21 0-43 0-64 1-46 3-93 3-140-1-102-3-204-5-306 0-13-2-27 9-39 4 0 10-1 14 0 30 9 61 15 88 30 101 54 169 133 185 249 6 43 4 85 5 128 0 13-6 23-19 31-16 10-30 21-45 31-21 14-30 35-31 57-4 43 6 83 36 115 37 39 91 51 141 32 50-20 83-67 83-122 0-41-14-75-50-97-14-8-28-16-43-25z m-91 121c0-29 30-54 61-51 28 2 50 29 50 58-1 30-27 57-57 55-33 0-55-26-54-62z m-687 191c31 0 53 22 53 53 0 37-24 60-58 59-27-1-51-22-51-47 1-32 14-65 56-65z m377-120c27 1 46 24 46 55s-28 59-55 57c-27-1-55-27-55-53-1-32 30-60 64-59z" horiz-adv-x="1001" />

<glyph glyph-name="cult-symbols-12" unicode="&#xe818;" d="M230 426c-8 9-13 15-18 20-48 46-94 92-144 135-21 18-40 41-58 63-5 7-8 16-10 25-2 12 2 22 14 29 10 7 22 7 33 0 7-4 13-11 20-18 28-28 57-57 85-85 36-36 74-73 111-108 3-3 8-7 14-11 27 27 61 48 78 87-8 7-16 14-24 19-65 56-67 134-35 198 20 41 57 66 105 69 9 0 19 0 28 1 33 3 61-7 86-27 28-22 49-50 58-85 13-55 1-102-38-143-12-14-26-25-39-37 6-21 28-27 39-41 13-15 26-29 40-43 27 21 49 45 70 68 19 20 39 42 59 61 26 26 55 51 82 77 5 6 11 11 17 16 13 10 32 8 42-4 9-10 10-27 1-38-6-8-14-16-22-23-58-58-116-117-174-174-9-9-18-19-28-29 8-9 15-17 22-24 28-28 57-56 85-85 7-6 14-12 19-19 13-16 14-29-1-45-21-23-43-44-66-66-19-19-38-37-57-59 5-7 10-14 14-18 39-36 77-73 115-110 30-31 61-64 91-95 5-6 9-16 9-24 1-23-25-36-45-26-5 3-10 8-14 12-48 50-102 92-147 144-20 25-45 46-69 69-7-5-13-9-18-14-34-35-68-71-102-107-19-21-34-23-57-4-4 4-9 9-13 13-33 33-65 66-98 100-2 2-4 3-8 6-5-4-12-7-17-12-39-37-78-75-116-112-31-29-62-59-92-88-8-7-17-13-29-11-22 4-34 29-21 48 4 8 11 14 18 20 26 29 52 58 79 86 22 21 46 41 67 63 20 18 40 37 60 57-6 8-11 16-17 21-31 32-63 64-95 97-29 29-29 39-1 70 23 24 48 46 71 70 12 12 25 25 41 41z m283 270c0 51-34 92-81 89-54-1-92-35-92-87 0-50 35-83 87-82 42 0 88 27 86 80z m-241-319c-34-33-67-65-98-100 34-35 64-68 97-97 36 20 78 59 102 94-16 31-60 76-101 103z m203-100c24-30 75-80 100-98 37 25 62 63 96 92 1 1 1 2 1 3s0 2 0 3c-19 31-72 82-97 96-24-14-55-42-100-96z m53-150c-25 36-62 56-89 87-4 5-10 7-16 9-28-20-79-71-95-96 11-21 31-33 46-50 16-18 30-39 52-51 21 13 31 35 47 51 18 17 37 33 55 50z m-207 299c37-35 68-71 105-102 21 15 33 34 50 51 16 16 33 32 50 49-26 39-59 69-99 94-41-21-71-56-106-92z" horiz-adv-x="853" />

<glyph glyph-name="cult-symbols-13" unicode="&#xe819;" d="M943 389c-48 58-104 109-163 156-35 28-70 55-112 71-18 6-35 13-52 19-9 3-18 9-27 13 5 13 10 24 14 36 22 72-21 147-94 163-38 8-74 1-107-18-13-7-24-17-32-30-21-40-23-83-6-125 3-9 8-17 14-29-19-7-34-12-49-18-47-20-90-48-135-76-75-46-130-111-185-179-12-14-12-29-1-44 26-36 51-73 85-101 21-16 41-33 61-49 63-49 131-89 207-114 6-2 11-7 18-10-38-63-33-132 17-173 45-35 107-42 156-10 27 17 45 42 56 71 15 40-1 77-21 114 9 5 16 8 22 10 59 20 113 50 163 86 63 45 119 99 171 160 30 34 30 40 0 77z m-461 393c4-1 15-4 26-6 13-3 22-12 27-24 3-5 5-11 7-17 10-29 3-51-21-68-20-15-51-19-75 3-17 15-31 30-29 56 1 35 24 57 65 56z m64-823c-5-31-39-53-69-49-34 4-58 31-57 72 1 4 2 15 6 23 7 25 28 38 54 35 18-2 37-9 51-21 18-15 18-39 15-60z m336 375c-31-30-61-62-93-91-54-51-117-90-187-116-60-23-121-25-183-13-95 17-175 66-245 130-20 18-39 34-58 52-16 17-31 35-50 55 78 88 158 167 267 206 13 4 26 9 38 15 62 30 126 28 193 13 41-10 79-27 116-48 82-46 151-109 214-183-5-8-8-14-12-20z m-398 184c-100 2-171-82-171-167 0-95 74-170 168-171 95 0 169 74 169 168s-72 168-166 170z m95-216c-19-38-51-60-95-55-9 0-18 0-27 0-6 0-13 2-17 5-50 29-88 82-53 149 19 36 52 52 93 56 69 5 139-72 99-155z" horiz-adv-x="957" />

<glyph glyph-name="cult-symbols-14" unicode="&#xe81a;" d="M810 686c0 8 0 17 0 25-1 28-12 40-42 39-77-2-154 6-231 3-9 0-20-5-27 4 1 18 17 25 26 39 7 15 6 32-5 43-12 12-28 15-42 5-11-8-21-19-32-27-16-16-32-31-48-47-11-11-25-17-42-16-29 1-56 1-84 1-50 1-98 2-147 2-31 0-62-2-93-6-22-1-32-12-34-34-2-10 0-20 0-30 0-41 0-81 0-122 0-12 0-26-3-38-9-40-6-81-5-121 2-35 4-71 4-105 0-48-6-95-2-144 3-53 4-106 4-159 0-34 12-46 45-47 9 0 17 0 25 0 67 0 134 0 202 0 11 0 21-1 40-2-9-11-13-15-16-20-7-7-14-14-20-21-11-15-10-33 2-46 14-15 29-16 45-3 7 6 14 12 21 19 14 15 28 31 43 46 18 20 39 28 68 25 23-4 48-5 71-3 70 6 137 4 207 3 12 0 25 0 38 2 17 4 27 15 29 31 2 11 2 22 2 33 1 225 1 449 1 671z m-72-504c4-43 2-86 2-131 0-10-5-18-8-27-37-6-192-6-229 0 2 5 4 10 7 14 7 8 16 16 22 24 10 14 10 31-1 44-12 13-30 16-46 5-8-7-16-15-24-24-21-21-42-41-63-62-3-2-5-2-7-3-29 0-56 0-85 0-33 0-66 0-101 0-33 0-68-3-101-2-24 0-30 8-30 33 0 108 1 216 1 324 0 58 0 115 0 173 0 25-1 51 0 75 2 19 5 36 8 58 79 0 153 0 227 0 5-9-1-13-6-18s-10-10-15-15c-16-18-17-39-3-52 14-13 31-13 50 3 25 21 48 43 70 66 13 13 26 20 45 20 90 0 180 0 269 0 4 0 8-1 13-2 2-8 5-15 5-24-1-55-3-112-5-168 0-2-1-6-1-8 3-104-2-204 6-303z m-153 389c-15-7-28-17-41-28-11-9-18-21-28-31-55-55-111-108-165-162-13-12-24-23-36-36-24-24-47-48-71-73-12-12-23-23-35-35-6-8-13-15-18-24-8-15-5-31 8-42 11-8 27-11 39-2 8 5 15 12 23 19 71 70 142 140 213 210 40 40 80 79 120 119 11 11 20 23 30 36 3 5 4 12 6 16 0 23-25 42-45 33z" horiz-adv-x="810" />

<glyph glyph-name="cult-symbols-15" unicode="&#xe81b;" d="M918 469c-28 130-102 227-228 279-69 27-141 33-215 19-200-42-305-224-296-373 0-11 0-22 0-32-1-42 8-80 32-114 7-9 10-19 16-28 85-148 251-218 416-176 187 43 317 238 275 425z m-196-294c-44-34-92-55-146-51-11 0-22 0-32 0-128-8-229 91-261 187-38 115 2 243 99 317 37 27 79 46 127 44 14 0 29 2 43 2 93 11 163-27 219-96 11-14 21-30 29-46 19-42 30-87 32-132 3-94-38-168-110-225z m-183-239c-11 2-22 4-32 4-142 16-254 81-337 198-10 13-18 27-24 42-50 113-55 142-53 265 0 3 0 8 0 11 8 71 27 135 72 191 33 41 64 88 107 123 3 2 3 6 6 10 4 32-17 49-43 70-11-8-21-14-29-21-233-187-275-531-89-768 53-67 118-121 197-160 65-32 132-49 204-51 10 0 21 5 31 6 1 28 5 53-2 74-5 5-6 6-8 6z m13 652c-106 0-189-82-189-186s82-189 186-189 187 82 189 186c0 105-80 189-186 189z m83-237c-21-40-65-56-112-42-41 13-65 53-59 98 2 9 5 17 6 25 12 48 31 63 80 61 76 0 120-73 85-142z" horiz-adv-x="926" />

<glyph glyph-name="cult-symbols-16" unicode="&#xe81c;" d="M704 79c-10-8-21-16-30-25-46-40-93-74-144-105-71-44-148-74-228-92-65-15-128-6-188 22-65 31-101 88-110 159-4 29-5 59-1 89 9 71 21 141 63 203 26 39 50 81 75 122 18 30 39 59 65 84 19 17 19 33 0 50-38 38-76 76-114 114-13 15-26 29-38 44-11 17-8 36 6 50 14 11 31 13 45 1 32-28 66-51 92-86 25-32 57-61 88-90 13 10 24 21 36 30 76 66 159 121 252 159 66 28 133 46 205 42 21-1 42-4 62-9 83-20 129-75 150-155 13-53 7-104-3-155-4-21-9-41-15-61-6-25-14-48-28-69-6-8-10-16-14-24-35-71-81-135-132-197-10-11-17-21-25-32 2-23 18-39 34-52 42-34 76-76 113-115 8-8 16-14 21-22 9-12 8-32 0-42-9-12-21-16-36-14-17 2-31 9-42 23-40 57-97 96-145 145-3 4-7 5-14 8z m-416 429c-5-2-8-2-11-5-4-4-9-8-13-13-51-58-97-121-131-192-17-35-32-73-45-112-14-40-17-84-14-128 1-24 9-48 21-69 18-31 46-52 82-56 33-3 66-3 99 1 62 9 121 34 179 58 69 29 128 75 185 125 7 5 12 12 18 20-17 21-32 38-52 51-86-45-167-44-237 25-73 71-75 155-29 244-19 20-36 36-52 51z m419-308c7 4 9 4 12 6 72 71 127 154 167 247 18 44 30 87 37 134 5 38-2 75-19 109-25 54-67 83-127 79-63-4-125-16-182-43-31-15-61-32-93-45-59-26-108-68-155-112-1-1-3-5-4-10 18-16 35-33 58-43 87 39 171 28 230-31 69-71 72-152 31-239 8-25 27-39 45-52z m-167 57c-25 25-47 49-72 73s-45 51-75 69c-16-25-16-50-9-75 6-26 22-48 46-64s50-26 80-24c10 0 24 2 30 21z m-87 195c10-9 16-20 24-28 32-26 61-52 85-85 11-13 23-28 43-29 19 47 10 95-27 126-19 17-43 26-69 28-19 2-39 5-56-12z" horiz-adv-x="997" />

<glyph glyph-name="cult-symbols-17" unicode="&#xe81d;" d="M683 590c10 10 14 14 18 19 42 54 94 97 153 130 69 37 145 55 223 53 26 0 38-12 38-40 1-78 1-154 3-232 0-28-3-54-3-81 0-153 0-307 0-460 0-13 0-26-1-39 0-20-12-31-34-33-8-1-17 0-24 0-51 4-101 13-149 32-21 9-42 16-63 25-41 16-69 47-99 77-18 18-36 39-52 59-12-2-10-10-10-16 0-58 0-115 0-173 0-12 0-23-2-34-4-16-19-27-35-26s-28 13-31 29c-1 7-1 13-1 21-3 62-9 124-5 185 0 4-1 8-3 13-12 0-16-11-22-19-72-85-162-138-270-162-29-6-61-10-91-11-31-1-45 12-45 43-1 52 0 104 0 156 0 10 0 20 0 30 2 15-5 26-16 37-42 42-84 84-125 126-6 6-11 13-17 18-25 22-23 43-1 65 22 25 44 51 70 72 19 15 34 35 50 52 12 12 24 24 38 36 1 10 3 21 3 32 0 52 0 104 0 156 0 10 0 20 1 30 2 18 15 31 33 31 19 1 37 0 55-3 125-16 231-69 314-166 5-5 10-10 15-15 1-1 2-1 6-1 11 9 11 24 11 37 0 49 0 96 0 144 0 9-1 17 0 25 0 23 14 38 32 38 16 0 33-12 34-32 2-25 3-51 3-76 0-38-1-75-2-113 0-10 1-20 1-39z m360-242c-1 0 3 97 3 147 1 62 1 124 1 185 0 4 0 9-1 13-3 15-10 22-25 22-7 0-14 0-21-1-70-14-135-38-186-92-13-15-28-27-42-41-12-13-26-26-34-42-61-100-76-204-29-314 4-9 9-17 11-27 10-32 29-58 50-83 59-68 134-111 221-130 9-1 16-3 25-4 26-1 31 5 32 32 0 10 0 20 0 30-2 103-3 203-5 305z m-788-364c7 0 12-2 16 0 64 18 129 41 187 76 14 8 27 17 37 28 102 99 142 216 102 356-14 47-35 89-64 128-29 42-68 75-115 97s-97 37-148 49c-8 1-15-2-25-3 0-59 0-115 0-171 6-7 12-14 20-22 43-43 85-85 129-129 7-7 13-13 19-21 10-13 12-29 2-43-7-7-14-15-20-21-36-36-72-72-108-108-53-54-42-28-43-105 1-37 1-74 11-111z m-7 283c34 24 55 51 79 74 6 7 3 18-5 26-19 19-39 38-58 56-4 3-9 4-16 6-3-54-4-104 0-162z m-76 168c-35-27-61-55-88-85 26-28 51-56 79-78 2-1 5 1 7 1 0 26-2 51 0 76 1 27 11 53 2 86z" horiz-adv-x="1119" />

<glyph glyph-name="cult-symbols-18" unicode="&#xe81e;" d="M142 183c-6 8-11 14-17 20-33 35-66 70-99 105-5 4-9 9-13 15-18 22-18 34 2 55 6 7 13 13 20 20 37 38 72 76 109 114-18 34-35 67-53 100-17 31-21 64-15 98 7 40 30 62 70 65 20 1 40-3 59-7 38-10 75-24 108-44 17-11 33-10 47 3 9 7 19 16 27 24 25 25 49 50 74 74 6 6 12 12 18 17 14 10 27 10 40 1 7-6 14-13 20-19 32-32 65-65 97-97 7-7 15-14 23-21 24 13 46 25 69 37 30 15 61 28 94 32 7 1 13 2 20 2 50-1 80-31 80-80 0-18-2-36-7-52-12-32-26-61-40-92-6-13-14-26-21-40 15-25 38-44 59-60 29-23 50-52 74-79 15-18 14-32-2-50-42-45-84-90-130-137 2-4 6-13 9-21 16-32 32-62 45-94 11-24 14-50 12-75-3-42-31-69-72-72-45-2-85 12-124 31-22 12-45 25-67 38-8-7-15-12-22-18-33-32-65-65-97-97-1-8-8-14-15-20-15-11-31-13-44-1-26 24-51 47-77 72-21 20-41 41-63 64-12-6-22-10-30-16-34-18-68-37-106-47-19-4-40-7-59-6-35 2-59 24-67 59-6 26-1 51 7 76 9 26 21 52 33 78 6 13 14 27 24 45z m359 21c42 40 80 78 119 115 6 6 12 12 17 18 2 2 3 7 6 12-19 28-46 48-70 71-25 23-39 57-73 72-31-18-49-46-73-69-25-23-52-46-70-75 43-55 97-93 144-144z m-155-125c38 25 72 49 102 80-46 46-92 92-138 138-29-32-54-64-79-104 38-38 76-75 115-114z m103 462c-34 30-65 54-99 76-40-32-100-95-115-120 22-33 46-64 75-95 46 46 91 91 139 139z m318-46c-10 24-26 35-41 50-20 21-41 41-63 61-6 6-16 5-23 1-30-19-59-40-85-66 22-29 110-113 138-131 31 23 45 58 74 85z m-112-411c34 34 68 67 102 101 4 3 6 8 10 14-20 35-46 66-75 97-42-51-95-87-139-137 30-24 57-46 85-68 5-4 11-5 17-7z m163 161c20 20 37 38 55 54 16 17 35 32 45 58-31 30-61 58-90 87-2 3-7 4-12 6-13-16-27-33-39-50-13-17-28-32-38-52 25-33 50-66 79-103z m-737 102c29-28 58-56 88-83 13-12 23-11 33 6 13 23 30 43 49 62 5 5 8 11 13 17-3 6-7 12-10 16-19 25-38 49-57 73-4 5-9 9-15 13-32-31-63-62-92-92-4-3-5-7-9-12z m420 238c36 27 67 53 102 80-11 15-25 23-36 34-12 11-22 24-33 35-10 12-19 26-36 34-33-35-69-64-98-103 33-27 66-52 101-80z m-102-555c36-34 69-64 102-94 1-1 3 0 6 0 31 32 64 65 98 100-39 25-68 56-105 78-19-15-37-29-54-43-16-13-30-25-47-41z m314 625c13-18 30-33 45-48 17-15 29-34 51-45 22 35 39 70 50 108 3 11 4 23-2 35-14 7-29 4-42 0-37-12-71-25-102-50z m2-613c34-23 72-41 112-51 9-2 21-4 30 4 5 40-11 87-49 139-25-14-76-65-93-92z m-520 96c-19-25-31-51-40-77-6-15-10-31-12-46-1-7 2-14 4-21 21-5 38 1 54 7s29 13 44 19c25 10 25 10 43 28-31 28-60 58-93 90z m94 516c-30 25-63 38-97 50-15 5-30 8-47 2-7-15-3-30 0-43 12-36 25-70 51-102 33 30 63 60 93 93z" horiz-adv-x="1001" />

<glyph glyph-name="cult-symbols-19" unicode="&#xe81f;" d="M448 217c12-13 18-20 23-25 29-30 59-59 89-89 6-6 12-12 17-18 10-13 10-26 2-38-6-7-13-13-18-19-30-30-62-59-91-92-22-24-46-46-70-68s-36-22-60 2c-17 15-32 32-49 47-13 14-28 26-42 38-32 28-60 61-86 94-9 11-8 25 1 36 5 6 12 13 17 18 29 29 58 57 86 86 6 6 13 14 20 21-5 11-14 7-20 7-71 0-141 0-212 0-8 0-17 0-26 1-18 3-29 13-29 30 0 21 1 43 3 64 4 25 9 50 16 75 9 31 23 59 43 87 38 49 77 92 132 123 13 7 18 20 18 34 0 21 0 43 0 64 0 37 0 73 2 110 0 7 0 15 2 22 3 14 14 23 25 24 16 1 30-9 33-24 4-15 5-30 6-46 1-38 0-78 0-117 0-8 1-14 1-24 19-3 35 3 51 2 10 10 7 20 7 30 0 40-2 81-2 121 0 9 2 19 4 29 3 17 17 28 32 26 12-2 30-13 30-30 0-29 2-58 2-86 0-21-1-43-1-64 0-17 8-25 21-27 15-2 29 4 33 19 3 11 4 22 4 33 2 35 0 71 2 106 0 9 0 18 1 27 2 12 15 22 27 22 12 1 26-8 30-20 2-6 3-12 3-19 2-35 3-71 2-105 0-31-3-63 0-95 17-12 35-24 53-37 24-16 47-33 65-56 57-72 91-154 96-246 4-43-6-54-51-54-65 0-130-6-195 0-13 2-26 1-47 1z m-46 66c21 0 36 0 53 0 35 1 69 2 105-3 23-2 47-2 72-1 14 1 30 1 45 11-4 50-19 97-46 137-27 40-60 76-99 103-37 27-78 44-126 47-1-6-3-10-3-16-1-90-1-182-1-278z m-69 0c9 17 3 33 4 47 0 40 0 81 2 121 0 36 2 73 2 109 0 5-4 9-5 14-56-3-141-44-180-87-53-58-92-148-88-203 29-8 59 3 89 1 29-4 58-6 86-5 28 3 59-7 90 3z m-98-217c19-28 108-116 132-133 39 25 118 102 134 131-1 3-2 7-4 10-28 29-56 58-83 87-2 2-7 1-12 1 0-18 0-33 0-50 0-15 1-30-2-45-2-21-15-32-35-32-16 0-28 13-28 33 0 22 2 45 3 67 0 7-1 15-3 26-27-24-52-45-75-66-6-6-13-12-19-18-4-3-6-8-8-11z" horiz-adv-x="742" />

<glyph glyph-name="cult-symbols-20" unicode="&#xe820;" d="M739 536c-10-9-18-17-26-24-110-110-220-221-332-331-3-4-7-9-12-12-12-11-17-25-17-41 0-70 0-140 0-209 0-11 0-22-1-34-3-22-14-31-36-33-2 0-6 0-9 0-77 0-153-1-230-1-11 0-22 0-33 1-28 3-37 11-40 38-3 43-4 87-2 133 3 42 3 83 4 125 0 4 0 8 0 12 2 27 12 38 38 41 33 2 67 2 100 2 37 0 73-1 110-2 35-2 64 9 89 35 49 52 99 102 149 152 20 21 38 45 58 65 17 17 37 31 54 47 18 17 37 34 55 51 21 20 27 40 16 71-34 93 17 191 112 218 66 19 125 4 175-48 43-42 49-91 39-145-20-102-127-162-227-125-11 3-20 8-34 14z m-659-616c27-3 56-1 84-1 31 0 62 1 92 2 14 0 21 6 23 20 2 5 3 11 3 16 1 31 2 63 2 95 0 5-2 10-5 16-24-15-41-33-58-50-9-7-16-16-25-22-11-8-29-5-39 5s-14 26-7 38c2 5 6 10 9 13 19 20 37 38 56 57 3 5 7 9 11 16-40 9-123 8-152-3 0-53 0-107 0-162 0-11 1-22 1-33 0 0 2-1 5-7z m717 670c65-16 107 0 128 48 21 47 4 101-39 127-42 26-97 18-129-19-27-31-33-75-12-102 14 5 21 17 31 27 11 12 22 25 35 36 14 11 35 7 46-5 13-14 14-31 1-46-14-16-30-29-43-45-6-5-12-12-18-21z m-244-468c30 30 61 58 90 87 32 32 64 66 96 99 16 18 18 35 9 49-11 16-30 19-53 8-18-9-28-26-42-39-17-19-33-37-51-56-25-24-52-46-76-71-12-12-25-27-33-43-13-22 3-47 27-49 13-2 23 5 33 15z m-251 212c7 5 12 11 18 16 54 53 108 104 160 157 13 12 23 24 32 38 9 12 6 27-3 38-14 15-32 16-48 1-33-29-65-60-97-91-21-20-40-41-61-62-15-16-31-32-46-49-9-12-11-26-2-39 6-11 16-16 32-16 2 2 10 3 15 7z" horiz-adv-x="1005" />

<glyph glyph-name="cult-symbols-21" unicode="&#xe821;" d="M278 532c5 14 7 24 11 36 12 30 24 59 42 87 80 124 237 157 341 137 5-1 10-1 17-2 9 8 19 16 29 24 98 75 238 30 273-88 17-56 9-109-27-154-19-23-24-44-20-72 9-51 1-101-13-149-22-70-69-124-128-167-11-8-24-16-36-22-18-8-25-20-31-37-10-27-22-53-34-78-22-42-56-74-95-101-36-27-76-45-118-57-12-4-23-5-35-5-52-2-103 1-153 18-11-6-20-13-29-20-50-33-106-39-160-20-66 21-101 75-111 142-4 31 0 61 13 91 7 17 15 33 29 45 11 10 21 20 32 31-12 164 54 285 203 361z m475-303c7 3 11 4 14 6 21 16 82 89 93 113 2 5 6 11 8 18 14 39 19 77 15 118-1 7-4 15-6 23-9-1-17-3-25-4-73-12-129 13-172 73-25 35-33 71-30 112 2 8 3 16 4 23 0 5 0 10 0 16-9 2-16 5-24 5-46 5-88-10-129-24-66-25-113-72-142-136-2-4-2-11-2-18 225 25 380-127 396-325z m-483 210c-19 1-31-8-41-18-56-53-91-115-92-194 0-7 2-15 3-23 17-3 33-2 48-2 11 0 23-1 34-5 15-4 29-11 43-17 23-10 44-25 55-47 23-46 38-94 25-146-2-8-3-17-6-28 41-11 80-17 120-5 63 17 124 38 165 93 16 22 34 41 38 73-21 1-40 1-59 2-56 3-112 14-160 44-83 49-140 120-162 217-4 17-8 35-11 56z m75 44c-15-76 23-177 87-232 63-56 176-80 250-52 15 78-24 174-94 233-70 57-171 79-243 51z m-114-552c-12 10-20 18-29 24-27 13-45 35-61 59-13 21-24 43-35 64-3 7-8 12-11 19-39-31-38-100-7-139 32-43 84-55 143-27z m533 834c9-7 15-13 23-16 22-12 40-28 58-46 23-23 42-48 59-76 3-5 8-8 13-13 30 50 26 103-10 132-22 19-45 37-76 35-22 0-46 5-67-16z m-46-57c-2-45 0-83 35-113 31-26 64-37 105-23-3 20-13 33-24 45-22 23-45 46-69 68-11 11-25 19-47 23z m-441-719c16 40 8 74-17 105-26 32-61 46-104 39 6-28 14-54 33-71 27-24 46-62 88-73z" horiz-adv-x="1000" />

<glyph glyph-name="cult-symbols-22" unicode="&#xe822;" d="M993 370c-6 7-14 14-20 22-54 56-114 108-163 169-4 4-9 8-13 13-54 51-107 104-160 155-37 36-73 72-109 108-6 6-14 13-28 13-4-2-12-3-17-8-7-4-11-9-17-15-75-72-149-145-224-217-11-11-20-21-31-32-31-31-60-62-91-94-36-36-72-72-107-109-19-19-17-32 0-51 13-14 29-27 42-44 25-33 55-60 86-87 11-10 22-20 33-31 95-95 190-189 285-284 6-6 14-14 21-20 13-11 28-11 41 0 7 6 14 13 22 20 144 145 288 289 432 433 6 6 13 12 18 18 10 13 10 28 0 41z m-758-30c3-18 2-37 2-55 0-30 0-59 0-89-4 0-8-1-9 0-50 50-101 102-152 152 18 24 128 134 160 159 4-24 2-43 0-63-7-35-7-69-1-104z m464 154c1-18 0-37 0-59-7 2-11 2-14 6-33 32-66 64-98 97-1 1-2 4-5 12 39 1 75 2 112-1 8-18 4-36 5-55z m-12-142c-65-64-125-124-187-186-4 3-10 6-15 10-20 21-38 43-59 63-29 27-53 59-85 82-10 6-18 17-25 26 15 23 148 158 184 186 18-8 30-24 42-38 30-38 64-72 101-102 16-12 30-28 44-41z m-331 280c26 26 53 51 80 77 15 14 29 30 44 45 16 15 28 17 42 2 42-42 85-86 127-130 1-1 2-4 5-12-104 0-203 0-301 0-6 8-1 13 3 18z m-55-83c40 4 77 3 114 1 4-12-3-17-9-20-37-24-66-54-92-89-2-3-5-4-8-6-9 22-10 60-5 114z m-2-285c5 1 8 2 9 1 26-21 94-91 108-110-23-8-72-9-116-3-2 40-2 76-1 112z m347-191c-30-21-52-48-75-78-19-24-39-45-63-63-7 2-13 3-17 7-46 44-91 87-137 130-2 3-5 6-11 14 23 6 42 4 62 4 21 0 43-2 63-3 20-1 40-1 60-1s43 1 64 0c19-2 39 5 60 0-3-5-3-9-6-10z m52 81c-33-7-87-7-112 1 0 2 0 5 1 6 34 34 68 69 103 103 1 1 4 1 7 2 6-26 7-79 1-112z m211 177c-43-34-76-80-117-117-7-7-15-14-28-26-2 39-3 69 0 98 5 32 1 64 0 96 0 29 0 58-1 86 0 4 2 10 2 14 16 9 28 1 37-7 23-23 46-46 68-69 14-16 29-31 43-47 3-3 5-8 8-13-3-6-6-11-12-15z m-406 106c-47 0-85-31-89-76-6-48 27-92 74-100 16-4 34-5 47 4 31 20 53 45 53 84 0 50-36 87-85 88z m-2-114c-14 0-25 11-26 25-1 14 9 26 23 27 16 2 29-9 29-25 1-14-11-27-26-27z" horiz-adv-x="1001" />

<glyph glyph-name="cult-symbols-23" unicode="&#xe823;" d="M970 380c-8 3-18 5-28 6-63 1-126 2-189 5-44 1-87 0-132-3-6 0-15-2-18 8 2 15 15 23 23 33 34 35 67 68 102 103 7 7 13 14 20 22 11 14 9 31-2 42-12 14-29 15-45 4-7-4-12-10-17-14-24-23-49-47-73-70-18-17-38-31-61-42-17 16-15 34-15 53 0 84 0 170 0 254 0 11 0 22-2 33-2 14-17 24-33 24s-28-11-32-29c-1-7-1-13-1-21 0-83-8-166-3-249 1-24 1-50 3-75 0-6 2-15-12-19-25 26-51 52-76 81-21 25-45 46-68 69-3 3-8 5-11 8-15 7-35 3-46-10-10-12-10-30 1-44 6-7 14-15 20-21 38-38 78-78 116-116 5-5 14-10 13-21-4-1-8-4-12-4-49 0-99 1-147 1-63 0-126-1-189-1-8 0-14-1-21-4-14-4-23-19-21-33 1-14 12-27 26-30 11-2 22-2 33-2 102-1 203-3 305-4 3 0 8 0 12 0 5-1 9-4 17-6-12-10-21-16-28-24-10-9-21-18-31-29-22-25-45-51-68-76-8-8-16-16-24-24-11-14-11-31-2-44 10-13 28-18 46-8 12 7 22 16 32 26 36 37 72 75 109 112 5 5 11 8 18 13 3-14 5-23 5-33 0-24-1-50-1-75 0-20-3-40 0-60 5-44 4-90 2-135-1-21 2-42 4-63 3-15 16-23 31-24 14 0 25 6 31 18 2 6 5 14 5 20 1 37 4 73 4 110 0 68-3 135-4 203 0 11 1 21 2 41 14-12 23-17 29-25 37-36 75-72 113-107 8-8 16-17 25-23 13-7 30-3 40 5 11 10 15 25 6 39-10 16-21 33-34 47-19 19-40 36-60 53-22 20-44 38-63 65 24 8 45 5 64 4 97-9 195-1 291 1 4 0 9 2 13 2 13 2 22 12 24 26 4 17-2 32-16 37z m-767-300c-11 5-22 11-35 15-89 30-179-49-167-115 2-17 2-30 4-42 2-18 9-32 21-46 63-68 162-45 203 12 27 39 26 81 17 122-5 23-19 43-43 54z m-28-125c-8-13-18-22-33-23-8-2-16-3-23-3-29 0-45 15-48 43-3 23 8 44 31 55s48 6 64-12c17-18 20-39 9-60z m699 643c32 1 67 14 94 43 22 23 39 53 37 87-4 74-51 117-125 122-84 5-146-75-125-160 15-58 67-91 119-92z m0 179c34 0 58-21 57-53-1-29-25-53-53-55-30-1-57 25-57 55 1 31 23 53 53 53z" horiz-adv-x="1006" />

<glyph glyph-name="cult-symbols-24" unicode="&#xe824;" d="M80 539c-20 20-36 35-52 51-6 6-12 11-16 17-9 12-7 27 3 37 10 9 23 10 34 1 7-5 14-12 20-18 18-18 36-35 52-53 2-2 4-2 6-4 23 7 71 35 99 56 0 9 0 21 0 32 0 28 1 57 0 85-1 17 7 29 22 38 6 4 12 7 18 10 23 13 44 26 67 39 8 5 16 8 24 12 15 8 30 7 45-2 35-21 71-42 107-61 18-10 24-23 23-44-1-27 0-55 0-82 0-10 0-20 0-31 9-6 16-11 24-15 52-30 104-59 156-89 6-3 12-7 18-10 19-9 27-23 26-43-1-11 0-23 0-34 5-105 0-211 1-315 0-11-1-23-2-34 0-15-8-25-21-33-17-10-35-19-53-34 15-15 29-30 43-44 6-6 13-13 19-20 10-11 11-26 3-36-9-11-22-13-36-7-13 5-22 15-31 26-10 11-20 24-32 35-15 15-20 15-39 4-29-16-57-33-85-49-31-18-63-34-95-51-10-5-20-11-30-17-13-8-26-8-39 0-6 4-12 7-18 10-80 49-163 93-245 137-27 14-51 33-77 50-10 7-15 16-15 29 0 6 0 11 0 17-2 74-4 149-4 224 0 48 3 97 3 146 0 20 9 32 25 41 16 8 32 17 52 29z m300-630c62 36 122 71 181 106 2 1 4 3 5 4 8 8 9 18 2 27-6 8-13 16-20 23-13 14-27 28-39 42-15 14-27 30-45 42-45-5-89-7-133-3-43 4-86 13-127 32-20 9-38 21-53 37-33 36-34 80-2 117 17 19 36 33 60 43 5 2 9 5 15 8-4 5-6 9-9 12-19 21-39 41-59 62-8 8-17 16-26 22-4 3-12 6-16 4-18-8-41-11-55-28 0-121 0-241 0-363 11-6 21-13 32-18 39-18 76-38 112-63 20-14 43-26 64-38 15-9 30-16 43-27 22-14 45-27 70-41z m319 554c-35 19-68 36-101 54-13 7-25 15-38 23-15 9-29 17-44 25-10 7-20 5-31-1-25-14-52-27-77-44-21-14-39-13-60 1-21 14-42 25-64 37-10 5-21 9-33 6-28-8-55-19-78-37 2-4 2-6 4-8 34-35 69-69 103-104 9-9 19-11 30-10 27 2 55 2 82 4 55 5 106-10 154-32 23-10 44-22 62-41 33-37 33-80 0-117-6-7-13-13-20-18-14-9-30-17-44-26-4-3-8-6-16-12 8-5 13-9 19-13 19-13 34-30 48-48 13-16 28-29 42-44 25 9 41 28 62 40 0 122 0 243 0 365z m-213-246c25 5 48 14 66 27 6 5 12 10 17 16 9 11 10 24 0 34-9 10-20 20-32 25-54 24-112 34-171 35-5 0-12 1-13-4 44-44 87-87 133-133z m-89-10c-2 15-10 20-16 26-20 20-40 40-60 60-10 10-17 20-26 30-14 15-30 18-49 10-21-9-42-18-57-36-11-13-10-24 0-37 3-3 6-7 10-9 22-14 44-28 71-30 11-1 22-4 33-6 30-7 60-7 94-8z m-114 451c11 5 18 8 25 12 17 10 35 20 52 31 13 8 26 8 39 0 18-10 35-21 53-30 5-3 12-4 20-7 0 26 8 50-1 73-26 15-51 29-76 45-7 4-14 7-22 4-32-15-63-30-90-53 0-24 0-47 0-75z m162-50c-23 13-44 25-67 37-22-11-44-22-66-39 24-13 45-25 66-37 23 13 47 20 67 39z" horiz-adv-x="758" />

<glyph glyph-name="cult-symbols-25" unicode="&#xe825;" d="M359 691c19-8 39-4 58-4 56 0 112 1 169 2 8 0 15 0 22 0 20 0 37-7 51-23 17-19 36-36 55-55 8 7 16 12 21 18 31 33 62 65 92 99 19 23 41 38 64 54 12 11 27 7 38-3 11-11 12-27 1-42-7-7-13-14-21-22-42-42-83-83-125-125-7-7-14-15-23-24 7-8 12-14 18-20 13-12 25-26 39-38 14-14 19-30 19-49 0-65 0-130 0-196 0-9 0-18 0-27 0-15 8-26 22-32 22-9 42-19 63-30 19-9 32-24 43-42 32-48 41-100 27-155-3-14-11-28-19-41-37-64-93-88-164-87-16 0-31 4-47 5-31 4-54 21-73 44-19 25-35 51-44 80-5 22-20 32-42 32-64-2-125 4-189-5-34-4-65 3-90 31-13 15-29 28-45 44-9-8-18-14-24-20-43-43-86-86-129-128-7-7-12-13-20-18-12-9-28-8-40 2-11 11-12 29-3 42 2 3 5 6 8 9 25 28 48 56 74 82 19 20 40 36 59 56 9 9 19 16 21 33-14 15-28 31-45 45-16 15-25 31-23 54 1 32 0 65-2 96-1 41-3 82-4 123 0 19-7 33-27 36-2 0-5 2-7 2-44 14-75 41-98 81-37 70-33 148 18 209 39 41 81 66 135 66 23 0 47 0 68-9 53-21 87-61 107-114 6-11 8-23 12-36z m-29-562c14-14 28-27 41-41 10-12 22-15 37-15 49 0 100 0 149 0 58 0 58 0 93 44 12 16 27 31 44 43 26 17 46 40 68 62 9 8 14 18 14 30 0 64 0 128 0 193 0 8-2 15-6 21-4 10-38 38-55 48-7-6-14-12-21-20-23-22-44-46-68-68-21-21-43-40-64-61-6-5-9-13-12-17 9-18 24-28 37-41 14-14 29-29 40-45 13-17 3-40-17-46-11-3-20 0-28 7-17 16-32 31-49 47-10 9-18 21-32 28-20-21-38-44-61-59-37-29-67-63-100-95-4-3-5-8-10-15z m-53 53c9 6 16 8 20 13 30 28 59 57 88 85 13 13 26 25 38 37 5 5 11 9 14 14 12 12 12 21 2 34-11 12-23 23-35 35-10 11-21 21-30 33-10 13-8 29 2 39 10 11 25 14 38 5s27-20 39-31c12-11 22-25 34-37 10-11 19-11 30-2 3 3 6 6 8 8 40 41 81 81 121 123 4 3 7 7 11 11 6 9 7 21 1 29-19 22-42 42-75 42-58 1-118 1-176 1-15 0-27-4-38-15-45-46-92-93-137-139-2-2-3-4-7-9 1-29 4-61 4-92 0-22-1-43-1-65s0-47 0-67c15-17 31-34 49-52z m657-156c4 59-41 113-110 118-63 3-118-50-119-114-1-62 50-116 113-117 66-3 113 43 116 113z m-871 645c-1-95 97-135 161-108 43 18 68 53 71 101 2 28-13 51-26 75-9 16-26 23-43 30-7 3-16 7-24 9-74 18-139-32-139-107z" horiz-adv-x="1000" />

<glyph glyph-name="cult-symbols-26" unicode="&#xe826;" d="M949 439c-2 21-12 32-34 34-11 1-21 0-32 1-40 2-79 2-119 4-27 2-53 4-81 0-14-2-30-1-44-1-18 1-23 6-24 25 0 8 0 17 0 24 1 42 2 84 2 130-1 47-1 100-3 151-2 30-12 41-43 42-6 0-11 0-17 0-83 0-166 0-249 0-8 0-17 0-24 0-21-3-32-11-36-32-3-20-3-39-3-57 0-80 1-160 1-240 0-38-4-42-41-44-6 0-11 0-17 0-33 0-68 1-101 1-15 0-30 0-44-1-29-4-39-15-40-42 0-6 0-11 0-17 0-86 0-171 0-257 0-9 0-17 0-24 2-19 12-30 31-32 11-2 22-2 32-2 143 0 286-1 429-1 15 0 32-2 48-6 15-2 27-13 31-28 3-17 7-35 8-52 1-39 0-79 1-118 0-34 11-43 44-45 4 0 9 0 12 0 87 0 171 0 258 0 46 0 55 8 55 54 0 86 0 171 0 257 0 15 0 30 1 45 11 76 2 154-1 231z m-66-512c-11-3-19-8-29-8-57-1-115-1-171 0-11 0-20 4-33 5-2 11-4 20-4 29 0 49 0 98 0 147 0 10 0 19 0 29-1 26-11 37-37 38-11 1-22 0-32 0-119 0-237 0-356 0-40 0-81 1-122 2-7 0-13 3-21 4-3 10-6 18-7 26-8 69-5 161 6 207 10 0 22 1 34 3 46 0 90 0 135 0 9 0 17 0 24 0 30 1 40 10 41 39 0 10 0 19 0 29 0 87 0 174 0 261 0 13 1 26 1 41 25 10 49 2 73 3 27 2 52 2 78 1 24-1 48-5 75-7 6-29 8-53 8-78 0-78 0-155 1-233 0-53 6-58 60-58 76 0 151 0 228 0 13 0 26-1 43-1 1-10 4-19 4-28-2-58-3-115-3-171 0-79 3-158 4-237 0-15 0-28 0-43z m-82 360c0-73 9-147 0-220-1-11 0-22-1-33 0-8-1-16-3-24-4-13-18-24-31-22-14 1-24 7-29 19-4 12-5 24-5 36-1 58-1 117-2 175 0 11-1 22-3 33-16 12-32 9-48 9-28 0-57-2-86-2-47 0-95 0-142 2-50 2-100 3-151 0-40-2-81 2-122 4-19 1-31 14-31 31 0 18 10 31 29 34 15 2 32 3 49 3 36 0 71 0 106 0 59 1 71 13 67 71-7 89 5 179 3 269 0 6 0 11 1 17 2 14 14 23 27 25 15 1 28-6 33-19 2-8 3-16 5-24 1-43 1-88 1-131 0-52-1-106-1-159 0-15-3-33 9-48 16-6 31-2 48-2 41 1 81 2 122 2 36 0 71-3 106-3 33 0 49-12 49-43z" horiz-adv-x="956" />
</font>
</defs>
</svg>
