<?xml version="1.0" encoding="utf-8"?>
<!-- Generator: Adobe Illustrator 21.0.2, SVG Export Plug-In . SVG Version: 6.00 Build 0)  -->
<svg version="1.1" id="Layer_2" xmlns="http://www.w3.org/2000/svg" xmlns:xlink="http://www.w3.org/1999/xlink" x="0px" y="0px"
	 viewBox="0 0 1102.3 2203.6" style="enable-background:new 0 0 1102.3 2203.6;" xml:space="preserve">
<style type="text/css">
	.st0{display:none;}
	.st1{display:inline;fill:#F3F3F3;}
	.st2{fill:#F3F3F3;}
	.st3{clip-path:url(#SVGID_2_);}
	.st4{clip-path:url(#SVGID_4_);}
	.st5{clip-path:url(#SVGID_6_);}
	.st6{clip-path:url(#SVGID_8_);}
	.st7{opacity:0.4;}
	.st8{opacity:0.2;}
	.st9{display:inline;fill:url(#SVGID_9_);}
	.st10{display:inline;fill:#DFE1E2;}
	.st11{display:inline;fill:url(#SVGID_10_);}
	.st12{display:inline;fill:url(#SVGID_11_);}
	.st13{fill:#F4F3F3;}
	.st14{fill:url(#SVGID_12_);}
	.st15{fill:#E7E6E6;}
	.st16{fill:#F3F2F2;}
	.st17{fill:#97999D;}
	.st18{fill:#C7C9CA;}
	.st19{fill:#86898D;}
	.st20{opacity:0.5;}
	.st21{fill:#EAEAEA;}
	.st22{fill:#313232;}
	.st23{fill:#242525;}
	.st24{fill:url(#SVGID_13_);}
	.st25{fill:url(#SVGID_14_);}
	.st26{fill:url(#SVGID_15_);stroke:url(#SVGID_16_);stroke-miterlimit:10;}
	.st27{fill:url(#SVGID_17_);}
	.st28{fill:#F3F3F3;stroke:#F7F7F7;stroke-width:6;stroke-miterlimit:10;}
	.st29{opacity:0.9;}
	.st30{fill:none;stroke:url(#SVGID_18_);stroke-width:6;stroke-miterlimit:10;}
	.st31{fill:none;stroke:url(#SVGID_19_);stroke-width:6;stroke-miterlimit:10;}
	.st32{fill:none;stroke:url(#SVGID_20_);stroke-width:6;stroke-miterlimit:10;}
	.st33{clip-path:url(#SVGID_22_);}
	.st34{fill:url(#SVGID_23_);}
	.st35{fill:#DFE1E2;}
	.st36{clip-path:url(#SVGID_25_);}
	.st37{fill:url(#SVGID_26_);}
	.st38{clip-path:url(#SVGID_28_);}
	.st39{fill:url(#SVGID_29_);}
	.st40{clip-path:url(#SVGID_31_);}
	.st41{fill:url(#SVGID_32_);}
	.st42{fill:#E4AF23;}
</style>
<g id="Layer_2">
	<g>
		<g id="silence_button_7_" class="st0">
			<path class="st1" d="M25,332c0,3.3-2.7,6-6,6h-4c-3.3,0-6-2.7-6-6v-70c0-3.3,2.7-6,6-6h4c3.3,0,6,2.7,6,6V332z"/>
			<path class="st1" d="M28,332c0,3.3-2.7,6-6,6h-4c-3.3,0-6-2.7-6-6v-70c0-3.3,2.7-6,6-6h4c3.3,0,6,2.7,6,6V332z"/>
		</g>
		<g id="sleep_7_" class="st0">
			<path class="st1" d="M1095,560c0,3.3-2.7,6-6,6h-4c-3.3,0-6-2.7-6-6V430c0-3.3,2.7-6,6-6h4c3.3,0,6,2.7,6,6V560z"/>
			<path class="st1" d="M1092,560c0,3.3-2.7,6-6,6h-4c-3.3,0-6-2.7-6-6V430c0-3.3,2.7-6,6-6h4c3.3,0,6,2.7,6,6V560z"/>
		</g>
		<g id="vol_up_7_" class="st0">
			<path class="st1" d="M25,560c0,3.3-2.7,6-6,6h-4c-3.3,0-6-2.7-6-6V430c0-3.3,2.7-6,6-6h4c3.3,0,6,2.7,6,6V560z"/>
			<path class="st1" d="M28,560c0,3.3-2.7,6-6,6h-4c-3.3,0-6-2.7-6-6V430c0-3.3,2.7-6,6-6h4c3.3,0,6,2.7,6,6V560z"/>
		</g>
		<g id="base_57_">
			<path id="base-fill_7_" class="st2" d="M1088.5,2040c0,85.1-53.9,155-139,155h-794c-85.1,0-142-69.9-142-155V155.5
				C13.5,70.4,67.4,2,152.5,2h796c85.1,0,140,68.4,140,153.5V2040z"/>
			<g id="base_64_">
				<path class="st2" d="M948.2,42c31.5,0,58.6,6.6,78.1,28.6c19.4,21.9,30.1,47.7,30.1,82l0,1889.5c0,34.7-9.8,56.6-29.5,79.6
					c-19.7,23.1-46.5,25.4-77.5,25.4h-794c-31,0-57.8-2.2-77.5-25.4c-19.6-23.1-32.5-44.9-32.5-79.7V152.5
					c0-34.2,9.7-60.1,29.1-81.9C94,48.6,121,42,152.5,42H948 M948.5,0h-796c-85.1,0-139,67.4-139,152.5V2042
					c0,85.1,56.9,157,142,157h794c85.1,0,139-71.9,139-157V152.5C1088.5,67.4,1033.6,0,948.5,0L948.5,0z"/>
			</g>
			<g id="base_63_">
				<path class="st2" d="M948.2,20c35.1,0,65.2,13,87.1,37.6c21.3,24.1,33.1,57.8,33.1,94.9l0,1889.5c0,37.6-10.8,72.2-32.3,97.4
					c-22,25.9-52,39.6-86.7,39.6h-794c-34.7,0-64.6-13.7-86.7-39.6c-21.5-25.2-35.3-59.8-35.3-97.4V152.5
					c0-37.1,10.7-70.8,32.1-94.9C87.4,33,117.4,20,152.5,20H948 M948.5,0h-796c-85.1,0-139,67.4-139,152.5V2042
					c0,85.1,56.9,157,142,157h794c85.1,0,139-71.9,139-157V152.5C1088.5,67.4,1033.6,0,948.5,0L948.5,0z"/>
			</g>
			<g id="base_62_">
				<path class="st2" d="M948.2,16c36.2,0,67.5,13.5,90,39c22,24.8,34.1,59.4,34.1,97.5l0,1889.5c0,38.5-11.2,74.1-33.3,100
					c-11,12.9-24,23-38.8,29.9c-15.5,7.3-32.7,11-50.9,11h-794c-18.3,0-35.4-3.7-50.9-11c-14.7-7-27.8-17-38.8-29.9
					c-22.1-26-36.3-61.5-36.3-100V152.5c0-38.1,11.1-72.7,33.1-97.5c22.6-25.5,53.7-39,89.9-39H948 M948.5,0h-796
					c-85.1,0-139,67.4-139,152.5V2042c0,85.1,56.9,157,142,157h794c85.1,0,139-71.9,139-157V152.5C1088.5,67.4,1033.6,0,948.5,0
					L948.5,0z"/>
			</g>
			<g id="base_61_">
				<path class="st2" d="M948.2,12c37.4,0,69.7,13.9,93,40.3c22.6,25.5,35.1,61.1,35.1,100.2l0,1889.5c0,39.5-11.5,75.9-34.2,102.6
					c-11.4,13.3-24.9,23.8-40.1,31c-16.1,7.6-33.8,11.4-52.6,11.4h-794c-18.9,0-36.6-3.8-52.6-11.4c-15.3-7.2-28.8-17.6-40.1-31
					c-22.7-26.7-37.2-63.1-37.2-102.6V152.5c0-39.1,11.5-74.7,34.1-100.2C83,25.9,115.1,12,152.5,12H948 M948.5,0h-796
					c-85.1,0-139,67.4-139,152.5V2042c0,85.1,56.9,157,142,157h794c85.1,0,139-71.9,139-157V152.5C1088.5,67.4,1033.6,0,948.5,0
					L948.5,0z"/>
			</g>
			<g id="base_60_">
				<path class="st2" d="M948.2,10c19.3,0,37.5,3.7,53.8,11c15.6,7,29.3,17,40.8,30c22.9,25.9,35.6,61.9,35.6,101.5l0,1889.5
					c0,40-11.7,76.9-34.7,103.9c-11.6,13.6-25.3,24.1-40.8,31.5c-16.3,7.7-34.3,11.6-53.5,11.6h-794c-19.2,0-37.2-3.9-53.5-11.6
					c-15.5-7.3-29.2-17.9-40.8-31.5c-23-27.1-37.7-64-37.7-103.9V152.5c0-39.6,11.6-75.6,34.6-101.5C69.6,38,83.3,28,98.8,21
					c16.3-7.3,34.4-11,53.7-11H948 M948.5,0h-796c-85.1,0-139,67.4-139,152.5V2042c0,85.1,56.9,157,142,157h794
					c85.1,0,139-71.9,139-157V152.5C1088.5,67.4,1033.6,0,948.5,0L948.5,0z"/>
			</g>
			<g id="base_59_">
				<path class="st2" d="M948.2,2c20.4,0,39.7,3.9,57.1,11.7c16.6,7.4,31.3,18.2,43.5,32c24.2,27.4,37.6,65.3,37.6,106.8l0,1889.5
					c0,41.9-12.4,80.6-36.6,109.1c-12.3,14.4-26.9,25.7-43.5,33.5c-17.4,8.2-36.6,12.4-56.9,12.4h-794c-20.3,0-39.5-4.2-56.9-12.4
					c-16.6-7.8-31.2-19.1-43.5-33.5c-24.3-28.5-39.6-67.2-39.6-109.1V152.5C15.5,111,27.9,73,52.1,45.7c12.2-13.8,26.9-24.6,43.5-32
					C112.9,5.9,132.1,2,152.5,2H948 M948.5,0h-796c-85.1,0-139,67.4-139,152.5V2042c0,85.1,56.9,157,142,157h794
					c85.1,0,139-71.9,139-157V152.5C1088.5,67.4,1033.6,0,948.5,0L948.5,0z"/>
			</g>
			<g id="base_58_">
				<path class="st2" d="M948.2,4c20.1,0,39.2,3.9,56.2,11.5c16.3,7.3,30.8,17.9,42.8,31.5c23.9,27,36.1,64.5,36.1,105.5l0,1889.5
					c0,41.4-11.2,79.7-35.1,107.8c-12.1,14.2-26.5,25.3-42.8,33c-17.1,8.1-36,12.2-56,12.2h-794c-20.1,0-38.9-4.1-56-12.2
					c-16.3-7.7-30.7-18.8-42.8-33c-24-28.1-38.2-66.4-38.2-107.8V152.5c0-41,11.2-78.5,35.1-105.5c12-13.6,26.4-24.2,42.8-31.5
					C113.5,7.9,132.4,4,152.5,4H948 M948.5,0h-796c-85.1,0-139,67.4-139,152.5V2042c0,85.1,56.9,157,142,157h794
					c85.1,0,139-71.9,139-157V152.5C1088.5,67.4,1033.6,0,948.5,0L948.5,0z"/>
			</g>
		</g>
		<g id="speaker_7_">
			<path class="st2" d="M627.5,134.9c0-0.4,0-0.8-0.1-1.1c-0.5,3.6-3.5,6.2-7.2,6.2H484.6c-3.4,0-6.2-2.1-7.1-5.2c0,0.1,0,0.3,0,0.4
				c0,2.4,1.2,4.4,3,5.7c1.2,0.8,2.6,1.1,4.1,1.1h135.5C624.2,142,627.4,138.9,627.5,134.9z"/>
			<path class="st2" d="M627,133c0,3.9-3.1,7-7,7H484c-3.9,0-7-3.1-7-7l0,0c0-3.9,3.1-7,7-7h136C623.9,126,627,129.1,627,133
				L627,133z"/>
			<path class="st2" d="M627.5,133c0,3.9-3.1,7-7,7H484c-3.9,0-7-3.1-7-7l0,0c0-3.9,3.1-7,7-7h136.4
				C624.4,126,627.5,129.1,627.5,133L627.5,133z"/>
			<path class="st2" d="M477.5,133.2c0,0.4,0,0.7,0.1,1c0.5-3.6,3.5-6.2,7.3-6.2h135.5c3.4,0,6.2,2.2,7.1,5.4c0-0.1,0-0.2,0-0.4
				c0-2.4-1.2-4.5-3-5.8c-1.2-0.8-2.6-1.2-4.1-1.2H484.9C480.9,126,477.6,129.2,477.5,133.2z"/>
		</g>
		<g id="cam_7_">
			<circle class="st2" cx="402.7" cy="133.3" r="15.7"/>
			<circle class="st2" cx="402.7" cy="133.3" r="13.8"/>
			<circle class="st2" cx="402.7" cy="133.3" r="9.8"/>
			<circle class="st2" cx="403.2" cy="133.8" r="5.8"/>
		</g>
		<g id="home_7_">
			<circle class="st2" cx="552.5" cy="2063" r="70"/>
			<g>
				<circle class="st2" cx="552.5" cy="2063" r="70"/>
				<circle class="st2" cx="552.5" cy="2063" r="70"/>
				<circle class="st2" cx="552.5" cy="2063" r="70"/>
			</g>
		</g>
		<g>
			<g>
				<g>
					<g>
						<defs>
							<path id="SVGID_1_" d="M16,734c0,3.3-2.7,6-6,6H6c-3.3,0-6-2.7-6-6V600c0-3.3,2.7-6,6-6h4c3.3,0,6,2.7,6,6V734z"/>
						</defs>
						<clipPath id="SVGID_2_">
							<use xlink:href="#SVGID_1_"  style="overflow:visible;"/>
						</clipPath>
						<g id="vol_down_31_" class="st3">
							<path class="st2" d="M25,732c0,3.3-2.7,6-6,6h-4c-3.3,0-6-2.7-6-6V602c0-3.3,2.7-6,6-6h4c3.3,0,6,2.7,6,6V732z"/>
							<path class="st2" d="M29,732c0,3.3-2.7,6-6,6h-4c-3.3,0-6-2.7-6-6V602c0-3.3,2.7-6,6-6h4c3.3,0,6,2.7,6,6V732z"/>
						</g>
					</g>
				</g>
			</g>
		</g>
		<g>
			<g>
				<g>
					<g>
						<defs>
							<path id="SVGID_3_" d="M16,562c0,3.3-2.7,6-6,6H6c-3.3,0-6-2.7-6-6V428c0-3.3,2.7-6,6-6h4c3.3,0,6,2.7,6,6V562z"/>
						</defs>
						<clipPath id="SVGID_4_">
							<use xlink:href="#SVGID_3_"  style="overflow:visible;"/>
						</clipPath>
						<g id="vol_down_30_" class="st4">
							<path class="st2" d="M25,560c0,3.3-2.7,6-6,6h-4c-3.3,0-6-2.7-6-6V430c0-3.3,2.7-6,6-6h4c3.3,0,6,2.7,6,6V560z"/>
							<path class="st2" d="M29,560c0,3.3-2.7,6-6,6h-4c-3.3,0-6-2.7-6-6V430c0-3.3,2.7-6,6-6h4c3.3,0,6,2.7,6,6V560z"/>
						</g>
					</g>
				</g>
			</g>
		</g>
		<g>
			<g>
				<g>
					<g>
						<defs>
							<path id="SVGID_5_" d="M16,334c0,3.3-2.7,6-6,6H6c-3.3,0-6-2.7-6-6v-74c0-3.3,2.7-6,6-6h4c3.3,0,6,2.7,6,6V334z"/>
						</defs>
						<clipPath id="SVGID_6_">
							<use xlink:href="#SVGID_5_"  style="overflow:visible;"/>
						</clipPath>
						<g id="vol_down_29_" class="st5">
							<path class="st2" d="M25,332c0,3.3-2.7,6-6,6h-4c-3.3,0-6-2.7-6-6v-70c0-3.3,2.7-6,6-6h4c3.3,0,6,2.7,6,6V332z"/>
							<path class="st2" d="M29,332c0,3.3-2.7,6-6,6h-4c-3.3,0-6-2.7-6-6v-70c0-3.3,2.7-6,6-6h4c3.3,0,6,2.7,6,6V332z"/>
						</g>
					</g>
				</g>
			</g>
		</g>
		<g>
			<g>
				<g>
					<g>
						<defs>
							<path id="SVGID_7_" d="M1086.3,428c0-3.3,2.7-6,6-6h4c3.3,0,6,2.7,6,6v134c0,3.3-2.7,6-6,6h-4c-3.3,0-6-2.7-6-6V428z"/>
						</defs>
						<clipPath id="SVGID_8_">
							<use xlink:href="#SVGID_7_"  style="overflow:visible;"/>
						</clipPath>
						<g id="vol_down_28_" class="st6">
							<path class="st2" d="M1077.3,430c0-3.3,2.7-6,6-6h4c3.3,0,6,2.7,6,6v130c0,3.3-2.7,6-6,6h-4c-3.3,0-6-2.7-6-6V430z"/>
							<path class="st2" d="M1073.3,430c0-3.3,2.7-6,6-6h4c3.3,0,6,2.7,6,6v130c0,3.3-2.7,6-6,6h-4c-3.3,0-6-2.7-6-6V430z"/>
						</g>
					</g>
				</g>
			</g>
		</g>
		<rect class="st2" width="1102.3" height="2203.6"/>
	</g>
	<g>
		<g>
			<g class="st7">
				
					<image style="overflow:visible;" width="2889" height="91" xlink:href="937F0F40F7141888.png"  transform="matrix(1 0 0 1 -890.188 2142.938)">
				</image>
			</g>
			<g class="st8">
				
					<image style="overflow:visible;" width="3264" height="91" xlink:href="937F0F40F7141889.png"  transform="matrix(1 0 0 1 -1077.6821 2142.938)">
				</image>
			</g>
		</g>
		<g id="silence_button_6_" class="st0">
			
				<linearGradient id="SVGID_9_" gradientUnits="userSpaceOnUse" x1="159" y1="4850" x2="159" y2="4932" gradientTransform="matrix(1 0 0 -1 -142 5188)">
				<stop  offset="0" style="stop-color:#76787A"/>
				<stop  offset="1.590000e-02" style="stop-color:#7E8082"/>
				<stop  offset="8.140001e-02" style="stop-color:#989A9C"/>
				<stop  offset="0.1538" style="stop-color:#ACAEB0"/>
				<stop  offset="0.2357" style="stop-color:#BABCBE"/>
				<stop  offset="0.3349" style="stop-color:#C2C4C6"/>
				<stop  offset="0.5" style="stop-color:#C5C7C9"/>
				<stop  offset="0.6651" style="stop-color:#C2C4C6"/>
				<stop  offset="0.7643" style="stop-color:#BABCBE"/>
				<stop  offset="0.8462" style="stop-color:#ACAEB0"/>
				<stop  offset="0.9186" style="stop-color:#989A9C"/>
				<stop  offset="0.9841" style="stop-color:#7E8082"/>
				<stop  offset="1" style="stop-color:#76787A"/>
			</linearGradient>
			<path class="st9" d="M25,332c0,3.3-2.7,6-6,6h-4c-3.3,0-6-2.7-6-6v-70c0-3.3,2.7-6,6-6h4c3.3,0,6,2.7,6,6V332z"/>
			<path class="st10" d="M28,332c0,3.3-2.7,6-6,6h-4c-3.3,0-6-2.7-6-6v-70c0-3.3,2.7-6,6-6h4c3.3,0,6,2.7,6,6V332z"/>
		</g>
		<g id="sleep_6_" class="st0">
			
				<linearGradient id="SVGID_10_" gradientUnits="userSpaceOnUse" x1="3083" y1="-3307" x2="3083" y2="-3165" gradientTransform="matrix(-1 0 0 1 4170 3731)">
				<stop  offset="0" style="stop-color:#76787A"/>
				<stop  offset="1.590000e-02" style="stop-color:#7E8082"/>
				<stop  offset="8.140001e-02" style="stop-color:#989A9C"/>
				<stop  offset="0.1538" style="stop-color:#ACAEB0"/>
				<stop  offset="0.2357" style="stop-color:#BABCBE"/>
				<stop  offset="0.3349" style="stop-color:#C2C4C6"/>
				<stop  offset="0.5" style="stop-color:#C5C7C9"/>
				<stop  offset="0.6651" style="stop-color:#C2C4C6"/>
				<stop  offset="0.7643" style="stop-color:#BABCBE"/>
				<stop  offset="0.8462" style="stop-color:#ACAEB0"/>
				<stop  offset="0.9186" style="stop-color:#989A9C"/>
				<stop  offset="0.9841" style="stop-color:#7E8082"/>
				<stop  offset="1" style="stop-color:#76787A"/>
			</linearGradient>
			<path class="st11" d="M1095,560c0,3.3-2.7,6-6,6h-4c-3.3,0-6-2.7-6-6V430c0-3.3,2.7-6,6-6h4c3.3,0,6,2.7,6,6V560z"/>
			<path class="st10" d="M1092,560c0,3.3-2.7,6-6,6h-4c-3.3,0-6-2.7-6-6V430c0-3.3,2.7-6,6-6h4c3.3,0,6,2.7,6,6V560z"/>
		</g>
		<g id="vol_up_6_" class="st0">
			
				<linearGradient id="SVGID_11_" gradientUnits="userSpaceOnUse" x1="159" y1="4622" x2="159" y2="4764" gradientTransform="matrix(1 0 0 -1 -142 5188)">
				<stop  offset="0" style="stop-color:#76787A"/>
				<stop  offset="1.590000e-02" style="stop-color:#7E8082"/>
				<stop  offset="8.140001e-02" style="stop-color:#989A9C"/>
				<stop  offset="0.1538" style="stop-color:#ACAEB0"/>
				<stop  offset="0.2357" style="stop-color:#BABCBE"/>
				<stop  offset="0.3349" style="stop-color:#C2C4C6"/>
				<stop  offset="0.5" style="stop-color:#C5C7C9"/>
				<stop  offset="0.6651" style="stop-color:#C2C4C6"/>
				<stop  offset="0.7643" style="stop-color:#BABCBE"/>
				<stop  offset="0.8462" style="stop-color:#ACAEB0"/>
				<stop  offset="0.9186" style="stop-color:#989A9C"/>
				<stop  offset="0.9841" style="stop-color:#7E8082"/>
				<stop  offset="1" style="stop-color:#76787A"/>
			</linearGradient>
			<path class="st12" d="M25,560c0,3.3-2.7,6-6,6h-4c-3.3,0-6-2.7-6-6V430c0-3.3,2.7-6,6-6h4c3.3,0,6,2.7,6,6V560z"/>
			<path class="st10" d="M28,560c0,3.3-2.7,6-6,6h-4c-3.3,0-6-2.7-6-6V430c0-3.3,2.7-6,6-6h4c3.3,0,6,2.7,6,6V560z"/>
		</g>
		<g id="base_49_">
			<path id="base-fill_6_" class="st13" d="M1088.5,2040c0,85.1-53.9,155-139,155h-794c-85.1,0-142-69.9-142-155V155.5
				C13.5,70.4,67.4,2,152.5,2h796c85.1,0,140,68.4,140,153.5V2040z"/>
			<g id="base_56_">
				
					<linearGradient id="SVGID_12_" gradientUnits="userSpaceOnUse" x1="693" y1="5188" x2="693" y2="2989" gradientTransform="matrix(1 0 0 -1 -142 5188)">
					<stop  offset="0" style="stop-color:#FFFFFF;stop-opacity:0"/>
					<stop  offset="0.2" style="stop-color:#FFFFFF"/>
					<stop  offset="0.8" style="stop-color:#FFFFFF"/>
					<stop  offset="1" style="stop-color:#FFFFFF;stop-opacity:0"/>
				</linearGradient>
				<path class="st14" d="M948.2,42c31.5,0,58.6,6.6,78.1,28.6c19.4,21.9,30.1,47.7,30.1,82l0,1889.5c0,34.7-9.8,56.6-29.5,79.6
					c-19.7,23.1-46.5,25.4-77.5,25.4h-794c-31,0-57.8-2.2-77.5-25.4c-19.6-23.1-32.5-44.9-32.5-79.7V152.5
					c0-34.2,9.7-60.1,29.1-81.9C94,48.6,121,42,152.5,42H948 M948.5,0h-796c-85.1,0-139,67.4-139,152.5V2042
					c0,85.1,56.9,157,142,157h794c85.1,0,139-71.9,139-157V152.5C1088.5,67.4,1033.6,0,948.5,0L948.5,0z"/>
			</g>
			<g id="base_55_">
				<path class="st15" d="M948.2,20c35.1,0,65.2,13,87.1,37.6c21.3,24.1,33.1,57.8,33.1,94.9l0,1889.5c0,37.6-10.8,72.2-32.3,97.4
					c-22,25.9-52,39.6-86.7,39.6h-794c-34.7,0-64.6-13.7-86.7-39.6c-21.5-25.2-35.3-59.8-35.3-97.4V152.5
					c0-37.1,10.7-70.8,32.1-94.9C87.4,33,117.4,20,152.5,20H948 M948.5,0h-796c-85.1,0-139,67.4-139,152.5V2042
					c0,85.1,56.9,157,142,157h794c85.1,0,139-71.9,139-157V152.5C1088.5,67.4,1033.6,0,948.5,0L948.5,0z"/>
			</g>
			<g id="base_54_">
				<path class="st16" d="M948.2,16c36.2,0,67.5,13.5,90,39c22,24.8,34.1,59.4,34.1,97.5l0,1889.5c0,38.5-11.2,74.1-33.3,100
					c-11,12.9-24,23-38.8,29.9c-15.5,7.3-32.7,11-50.9,11h-794c-18.3,0-35.4-3.7-50.9-11c-14.7-7-27.8-17-38.8-29.9
					c-22.1-26-36.3-61.5-36.3-100V152.5c0-38.1,11.1-72.7,33.1-97.5c22.6-25.5,53.7-39,89.9-39H948 M948.5,0h-796
					c-85.1,0-139,67.4-139,152.5V2042c0,85.1,56.9,157,142,157h794c85.1,0,139-71.9,139-157V152.5C1088.5,67.4,1033.6,0,948.5,0
					L948.5,0z"/>
			</g>
			<g id="base_53_">
				<path class="st17" d="M948.2,12c37.4,0,69.7,13.9,93,40.3c22.6,25.5,35.1,61.1,35.1,100.2l0,1889.5c0,39.5-11.5,75.9-34.2,102.6
					c-11.4,13.3-24.9,23.8-40.1,31c-16.1,7.6-33.8,11.4-52.6,11.4h-794c-18.9,0-36.6-3.8-52.6-11.4c-15.3-7.2-28.8-17.6-40.1-31
					c-22.7-26.7-37.2-63.1-37.2-102.6V152.5c0-39.1,11.5-74.7,34.1-100.2C83,25.9,115.1,12,152.5,12H948 M948.5,0h-796
					c-85.1,0-139,67.4-139,152.5V2042c0,85.1,56.9,157,142,157h794c85.1,0,139-71.9,139-157V152.5C1088.5,67.4,1033.6,0,948.5,0
					L948.5,0z"/>
			</g>
			<g id="base_52_">
				<path class="st18" d="M948.2,10c19.3,0,37.5,3.7,53.8,11c15.6,7,29.3,17,40.8,30c22.9,25.9,35.6,61.9,35.6,101.5l0,1889.5
					c0,40-11.7,76.9-34.7,103.9c-11.6,13.6-25.3,24.1-40.8,31.5c-16.3,7.7-34.3,11.6-53.5,11.6h-794c-19.2,0-37.2-3.9-53.5-11.6
					c-15.5-7.3-29.2-17.9-40.8-31.5c-23-27.1-37.7-64-37.7-103.9V152.5c0-39.6,11.6-75.6,34.6-101.5C69.6,38,83.3,28,98.8,21
					c16.3-7.3,34.4-11,53.7-11H948 M948.5,0h-796c-85.1,0-139,67.4-139,152.5V2042c0,85.1,56.9,157,142,157h794
					c85.1,0,139-71.9,139-157V152.5C1088.5,67.4,1033.6,0,948.5,0L948.5,0z"/>
			</g>
			<g id="base_51_">
				<path class="st19" d="M948.2,2c20.4,0,39.7,3.9,57.1,11.7c16.6,7.4,31.3,18.2,43.5,32c24.2,27.4,37.6,65.3,37.6,106.8l0,1889.5
					c0,41.9-12.4,80.6-36.6,109.1c-12.3,14.4-26.9,25.7-43.5,33.5c-17.4,8.2-36.6,12.4-56.9,12.4h-794c-20.3,0-39.5-4.2-56.9-12.4
					c-16.6-7.8-31.2-19.1-43.5-33.5c-24.3-28.5-39.6-67.2-39.6-109.1V152.5C15.5,111,27.9,73,52.1,45.7c12.2-13.8,26.9-24.6,43.5-32
					C112.9,5.9,132.1,2,152.5,2H948 M948.5,0h-796c-85.1,0-139,67.4-139,152.5V2042c0,85.1,56.9,157,142,157h794
					c85.1,0,139-71.9,139-157V152.5C1088.5,67.4,1033.6,0,948.5,0L948.5,0z"/>
			</g>
			<g id="base_50_" class="st20">
				<path class="st19" d="M948.2,4c20.1,0,39.2,3.9,56.2,11.5c16.3,7.3,30.8,17.9,42.8,31.5c23.9,27,36.1,64.5,36.1,105.5l0,1889.5
					c0,41.4-11.2,79.7-35.1,107.8c-12.1,14.2-26.5,25.3-42.8,33c-17.1,8.1-36,12.2-56,12.2h-794c-20.1,0-38.9-4.1-56-12.2
					c-16.3-7.7-30.7-18.8-42.8-33c-24-28.1-38.2-66.4-38.2-107.8V152.5c0-41,11.2-78.5,35.1-105.5c12-13.6,26.4-24.2,42.8-31.5
					C113.5,7.9,132.4,4,152.5,4H948 M948.5,0h-796c-85.1,0-139,67.4-139,152.5V2042c0,85.1,56.9,157,142,157h794
					c85.1,0,139-71.9,139-157V152.5C1088.5,67.4,1033.6,0,948.5,0L948.5,0z"/>
			</g>
		</g>
		<g id="speaker_6_">
			<path class="st21" d="M627.5,134.9c0-0.4,0-0.8-0.1-1.1c-0.5,3.6-3.5,6.2-7.2,6.2H484.6c-3.4,0-6.2-2.1-7.1-5.2
				c0,0.1,0,0.3,0,0.4c0,2.4,1.2,4.4,3,5.7c1.2,0.8,2.6,1.1,4.1,1.1h135.5C624.2,142,627.4,138.9,627.5,134.9z"/>
			<path class="st22" d="M627,133c0,3.9-3.1,7-7,7H484c-3.9,0-7-3.1-7-7l0,0c0-3.9,3.1-7,7-7h136C623.9,126,627,129.1,627,133
				L627,133z"/>
			<path class="st22" d="M627.5,133c0,3.9-3.1,7-7,7H484c-3.9,0-7-3.1-7-7l0,0c0-3.9,3.1-7,7-7h136.4
				C624.4,126,627.5,129.1,627.5,133L627.5,133z"/>
			<path class="st23" d="M477.5,133.2c0,0.4,0,0.7,0.1,1c0.5-3.6,3.5-6.2,7.3-6.2h135.5c3.4,0,6.2,2.2,7.1,5.4c0-0.1,0-0.2,0-0.4
				c0-2.4-1.2-4.5-3-5.8c-1.2-0.8-2.6-1.2-4.1-1.2H484.9C480.9,126,477.6,129.2,477.5,133.2z"/>
		</g>
		<g id="cam_6_">
			
				<linearGradient id="SVGID_13_" gradientUnits="userSpaceOnUse" x1="552.5014" y1="5041.0967" x2="536.8326" y2="5068.2354" gradientTransform="matrix(1 0 0 -1 -142 5188)">
				<stop  offset="0" style="stop-color:#5E5F5F"/>
				<stop  offset="1" style="stop-color:#191A1A"/>
			</linearGradient>
			<circle class="st24" cx="402.7" cy="133.3" r="15.7"/>
			
				<linearGradient id="SVGID_14_" gradientUnits="userSpaceOnUse" x1="551.5842" y1="5042.6851" x2="537.7498" y2="5066.647" gradientTransform="matrix(1 0 0 -1 -142 5188)">
				<stop  offset="0" style="stop-color:#5E5F5F"/>
				<stop  offset="1" style="stop-color:#000000"/>
			</linearGradient>
			<circle class="st25" cx="402.7" cy="133.3" r="13.8"/>
			
				<linearGradient id="SVGID_15_" gradientUnits="userSpaceOnUse" x1="548.0307" y1="5045.4243" x2="541.3033" y2="5063.9077" gradientTransform="matrix(1 0 0 -1 -142 5188)">
				<stop  offset="0" style="stop-color:#202F4D"/>
				<stop  offset="1" style="stop-color:#344C7B"/>
			</linearGradient>
			
				<linearGradient id="SVGID_16_" gradientUnits="userSpaceOnUse" x1="549.8338" y1="5045.7168" x2="539.5002" y2="5063.6152" gradientTransform="matrix(1 0 0 -1 -142 5188)">
				<stop  offset="0" style="stop-color:#5E5F5F"/>
				<stop  offset="1" style="stop-color:#000000"/>
			</linearGradient>
			<circle class="st26" cx="402.7" cy="133.3" r="9.8"/>
			
				<radialGradient id="SVGID_17_" cx="545.167" cy="5054.166" r="5.831" gradientTransform="matrix(1 0 0 -1 -142 5188)" gradientUnits="userSpaceOnUse">
				<stop  offset="0" style="stop-color:#000000;stop-opacity:0.8"/>
				<stop  offset="1" style="stop-color:#111929;stop-opacity:0"/>
			</radialGradient>
			<circle class="st27" cx="403.2" cy="133.8" r="5.8"/>
		</g>
		<g id="home_6_">
			<circle class="st28" cx="552.5" cy="2063" r="70"/>
			<g class="st29">
				
					<linearGradient id="SVGID_18_" gradientUnits="userSpaceOnUse" x1="694.5" y1="3198" x2="694.5" y2="3052" gradientTransform="matrix(1 0 0 -1 -142 5188)">
					<stop  offset="0" style="stop-color:#000000;stop-opacity:0.3"/>
					<stop  offset="0.69" style="stop-color:#111929;stop-opacity:0"/>
				</linearGradient>
				<circle class="st30" cx="552.5" cy="2063" r="70"/>
				
					<linearGradient id="SVGID_19_" gradientUnits="userSpaceOnUse" x1="657.994" y1="3188.23" x2="731.006" y2="3061.77" gradientTransform="matrix(1 0 0 -1 -142 5188)">
					<stop  offset="0" style="stop-color:#000000;stop-opacity:0.8"/>
					<stop  offset="0.4225" style="stop-color:#111929;stop-opacity:0"/>
				</linearGradient>
				<circle class="st31" cx="552.5" cy="2063" r="70"/>
				
					<linearGradient id="SVGID_20_" gradientUnits="userSpaceOnUse" x1="767.5" y1="3125" x2="621.5" y2="3125" gradientTransform="matrix(1 0 0 -1 -142 5188)">
					<stop  offset="0.1" style="stop-color:#000000;stop-opacity:0"/>
					<stop  offset="0.5193" style="stop-color:#000000;stop-opacity:0.8"/>
					<stop  offset="0.9" style="stop-color:#111929;stop-opacity:0"/>
				</linearGradient>
				<circle class="st32" cx="552.5" cy="2063" r="70"/>
			</g>
		</g>
		<g>
			<g>
				<g>
					<g>
						<defs>
							<path id="SVGID_21_" d="M16,734c0,3.3-2.7,6-6,6H6c-3.3,0-6-2.7-6-6V600c0-3.3,2.7-6,6-6h4c3.3,0,6,2.7,6,6V734z"/>
						</defs>
						<clipPath id="SVGID_22_">
							<use xlink:href="#SVGID_21_"  style="overflow:visible;"/>
						</clipPath>
						<g id="vol_down_27_" class="st33">
							
								<linearGradient id="SVGID_23_" gradientUnits="userSpaceOnUse" x1="159" y1="4450" x2="159" y2="4592" gradientTransform="matrix(1 0 0 -1 -142 5188)">
								<stop  offset="0" style="stop-color:#76787A"/>
								<stop  offset="1.590000e-02" style="stop-color:#7E8082"/>
								<stop  offset="8.140001e-02" style="stop-color:#989A9C"/>
								<stop  offset="0.1538" style="stop-color:#ACAEB0"/>
								<stop  offset="0.2357" style="stop-color:#BABCBE"/>
								<stop  offset="0.3349" style="stop-color:#C2C4C6"/>
								<stop  offset="0.5" style="stop-color:#C5C7C9"/>
								<stop  offset="0.6651" style="stop-color:#C2C4C6"/>
								<stop  offset="0.7643" style="stop-color:#BABCBE"/>
								<stop  offset="0.8462" style="stop-color:#ACAEB0"/>
								<stop  offset="0.9186" style="stop-color:#989A9C"/>
								<stop  offset="0.9841" style="stop-color:#7E8082"/>
								<stop  offset="1" style="stop-color:#76787A"/>
							</linearGradient>
							<path class="st34" d="M25,732c0,3.3-2.7,6-6,6h-4c-3.3,0-6-2.7-6-6V602c0-3.3,2.7-6,6-6h4c3.3,0,6,2.7,6,6V732z"/>
							<path class="st35" d="M29,732c0,3.3-2.7,6-6,6h-4c-3.3,0-6-2.7-6-6V602c0-3.3,2.7-6,6-6h4c3.3,0,6,2.7,6,6V732z"/>
						</g>
					</g>
				</g>
			</g>
		</g>
		<g>
			<g>
				<g>
					<g>
						<defs>
							<path id="SVGID_24_" d="M16,562c0,3.3-2.7,6-6,6H6c-3.3,0-6-2.7-6-6V428c0-3.3,2.7-6,6-6h4c3.3,0,6,2.7,6,6V562z"/>
						</defs>
						<clipPath id="SVGID_25_">
							<use xlink:href="#SVGID_24_"  style="overflow:visible;"/>
						</clipPath>
						<g id="vol_down_26_" class="st36">
							
								<linearGradient id="SVGID_26_" gradientUnits="userSpaceOnUse" x1="159" y1="4622" x2="159" y2="4764" gradientTransform="matrix(1 0 0 -1 -142 5188)">
								<stop  offset="0" style="stop-color:#76787A"/>
								<stop  offset="1.590000e-02" style="stop-color:#7E8082"/>
								<stop  offset="8.140001e-02" style="stop-color:#989A9C"/>
								<stop  offset="0.1538" style="stop-color:#ACAEB0"/>
								<stop  offset="0.2357" style="stop-color:#BABCBE"/>
								<stop  offset="0.3349" style="stop-color:#C2C4C6"/>
								<stop  offset="0.5" style="stop-color:#C5C7C9"/>
								<stop  offset="0.6651" style="stop-color:#C2C4C6"/>
								<stop  offset="0.7643" style="stop-color:#BABCBE"/>
								<stop  offset="0.8462" style="stop-color:#ACAEB0"/>
								<stop  offset="0.9186" style="stop-color:#989A9C"/>
								<stop  offset="0.9841" style="stop-color:#7E8082"/>
								<stop  offset="1" style="stop-color:#76787A"/>
							</linearGradient>
							<path class="st37" d="M25,560c0,3.3-2.7,6-6,6h-4c-3.3,0-6-2.7-6-6V430c0-3.3,2.7-6,6-6h4c3.3,0,6,2.7,6,6V560z"/>
							<path class="st35" d="M29,560c0,3.3-2.7,6-6,6h-4c-3.3,0-6-2.7-6-6V430c0-3.3,2.7-6,6-6h4c3.3,0,6,2.7,6,6V560z"/>
						</g>
					</g>
				</g>
			</g>
		</g>
		<g>
			<g>
				<g>
					<g>
						<defs>
							<path id="SVGID_27_" d="M16,334c0,3.3-2.7,6-6,6H6c-3.3,0-6-2.7-6-6v-74c0-3.3,2.7-6,6-6h4c3.3,0,6,2.7,6,6V334z"/>
						</defs>
						<clipPath id="SVGID_28_">
							<use xlink:href="#SVGID_27_"  style="overflow:visible;"/>
						</clipPath>
						<g id="vol_down_25_" class="st38">
							
								<linearGradient id="SVGID_29_" gradientUnits="userSpaceOnUse" x1="159" y1="4850" x2="159" y2="4932" gradientTransform="matrix(1 0 0 -1 -142 5188)">
								<stop  offset="0" style="stop-color:#76787A"/>
								<stop  offset="1.590000e-02" style="stop-color:#7E8082"/>
								<stop  offset="8.140001e-02" style="stop-color:#989A9C"/>
								<stop  offset="0.1538" style="stop-color:#ACAEB0"/>
								<stop  offset="0.2357" style="stop-color:#BABCBE"/>
								<stop  offset="0.3349" style="stop-color:#C2C4C6"/>
								<stop  offset="0.5" style="stop-color:#C5C7C9"/>
								<stop  offset="0.6651" style="stop-color:#C2C4C6"/>
								<stop  offset="0.7643" style="stop-color:#BABCBE"/>
								<stop  offset="0.8462" style="stop-color:#ACAEB0"/>
								<stop  offset="0.9186" style="stop-color:#989A9C"/>
								<stop  offset="0.9841" style="stop-color:#7E8082"/>
								<stop  offset="1" style="stop-color:#76787A"/>
							</linearGradient>
							<path class="st39" d="M25,332c0,3.3-2.7,6-6,6h-4c-3.3,0-6-2.7-6-6v-70c0-3.3,2.7-6,6-6h4c3.3,0,6,2.7,6,6V332z"/>
							<path class="st35" d="M29,332c0,3.3-2.7,6-6,6h-4c-3.3,0-6-2.7-6-6v-70c0-3.3,2.7-6,6-6h4c3.3,0,6,2.7,6,6V332z"/>
						</g>
					</g>
				</g>
			</g>
		</g>
		<g>
			<g>
				<g>
					<g>
						<defs>
							<path id="SVGID_30_" d="M1086.3,428c0-3.3,2.7-6,6-6h4c3.3,0,6,2.7,6,6v134c0,3.3-2.7,6-6,6h-4c-3.3,0-6-2.7-6-6V428z"/>
						</defs>
						<clipPath id="SVGID_31_">
							<use xlink:href="#SVGID_30_"  style="overflow:visible;"/>
						</clipPath>
						<g id="vol_down_24_" class="st40">
							
								<linearGradient id="SVGID_32_" gradientUnits="userSpaceOnUse" x1="2744.667" y1="226" x2="2744.667" y2="368" gradientTransform="matrix(-1 0 0 1 3830 198)">
								<stop  offset="0" style="stop-color:#76787A"/>
								<stop  offset="1.590000e-02" style="stop-color:#7E8082"/>
								<stop  offset="8.140001e-02" style="stop-color:#989A9C"/>
								<stop  offset="0.1538" style="stop-color:#ACAEB0"/>
								<stop  offset="0.2357" style="stop-color:#BABCBE"/>
								<stop  offset="0.3349" style="stop-color:#C2C4C6"/>
								<stop  offset="0.5" style="stop-color:#C5C7C9"/>
								<stop  offset="0.6651" style="stop-color:#C2C4C6"/>
								<stop  offset="0.7643" style="stop-color:#BABCBE"/>
								<stop  offset="0.8462" style="stop-color:#ACAEB0"/>
								<stop  offset="0.9186" style="stop-color:#989A9C"/>
								<stop  offset="0.9841" style="stop-color:#7E8082"/>
								<stop  offset="1" style="stop-color:#76787A"/>
							</linearGradient>
							<path class="st41" d="M1077.3,430c0-3.3,2.7-6,6-6h4c3.3,0,6,2.7,6,6v130c0,3.3-2.7,6-6,6h-4c-3.3,0-6-2.7-6-6V430z"/>
							<path class="st35" d="M1073.3,430c0-3.3,2.7-6,6-6h4c3.3,0,6,2.7,6,6v130c0,3.3-2.7,6-6,6h-4c-3.3,0-6-2.7-6-6V430z"/>
						</g>
					</g>
				</g>
			</g>
		</g>
		<rect class="st42" width="1102.3" height="2203.6"/>
	</g>
	<g>
		<g>
			<g>
				<g>
					<g>
						<defs>
							<path id="SVGID_33_" d="M16,734c0,3.3-2.7,6-6,6H6c-3.3,0-6-2.7-6-6V600c0-3.3,2.7-6,6-6h4c3.3,0,6,2.7,6,6V734z"/>
						</defs>
						<clipPath id="SVGID_34_">
							<use xlink:href="#SVGID_33_"  style="overflow:visible;"/>
						</clipPath>
					</g>
				</g>
			</g>
		</g>
		<g>
			<g>
				<g>
					<g>
						<defs>
							<path id="SVGID_35_" d="M16,562c0,3.3-2.7,6-6,6H6c-3.3,0-6-2.7-6-6V428c0-3.3,2.7-6,6-6h4c3.3,0,6,2.7,6,6V562z"/>
						</defs>
						<clipPath id="SVGID_36_">
							<use xlink:href="#SVGID_35_"  style="overflow:visible;"/>
						</clipPath>
					</g>
				</g>
			</g>
		</g>
		<g>
			<g>
				<g>
					<g>
						<defs>
							<path id="SVGID_37_" d="M16,334c0,3.3-2.7,6-6,6H6c-3.3,0-6-2.7-6-6v-74c0-3.3,2.7-6,6-6h4c3.3,0,6,2.7,6,6V334z"/>
						</defs>
						<clipPath id="SVGID_38_">
							<use xlink:href="#SVGID_37_"  style="overflow:visible;"/>
						</clipPath>
					</g>
				</g>
			</g>
		</g>
		<g>
			<g>
				<g>
					<g>
						<defs>
							<path id="SVGID_39_" d="M1086.3,428c0-3.3,2.7-6,6-6h4c3.3,0,6,2.7,6,6v134c0,3.3-2.7,6-6,6h-4c-3.3,0-6-2.7-6-6V428z"/>
						</defs>
						<clipPath id="SVGID_40_">
							<use xlink:href="#SVGID_39_"  style="overflow:visible;"/>
						</clipPath>
					</g>
				</g>
			</g>
		</g>
	</g>
</g>
</svg>
