<?xml version="1.0" encoding="utf-8"?>
<!-- Generator: Adobe Illustrator 22.0.0, SVG Export Plug-In . SVG Version: 6.00 Build 0)  -->
<svg version="1.1" id="Layer_1" xmlns="http://www.w3.org/2000/svg" xmlns:xlink="http://www.w3.org/1999/xlink" x="0px" y="0px"
	 viewBox="0 0 173 44.6" style="enable-background:new 0 0 173 44.6;" xml:space="preserve">
<g>
	<path d="M0.2,0.1h45.3c0,0,5.4-0.6,7.6,1.8c2.2,2.4,2.6,4,2.6,6.2c0,2.2,0,29.1,0,29.1s0.5,7.5-6.2,7.5c-5.5,0-42.9,0-42.9,0
		S0,43.3,0,38.8c0-4.6,0-17.2,0-17.2s0.5-6.8,6.5-6.8c6,0,34.6,0,34.6,0v7.3H10.2c0,0-3.3-0.9-3.3,3.3c0,4.2,0,9.1,0,9.1
		S6.2,37,11.3,37c5.1,0,32.6,0,32.6,0s4.4,0.9,4.4-4.6c0-5.5,0-21.7,0-21.7s0.9-3.3-4.9-3.3c-5.8,0-43.1,0-43.1,0V0.1L0.2,0.1z"/>
	<g>
		<path d="M82.6,10.3l5.6,16.7c0.7,2,1.1,2.5,2.3,2.5h1.1v2.9H79.4v-2.9h1c1,0,1.8-0.1,1.8-0.5c0-0.3,0-0.7-0.2-1.2l-0.7-2.4h-6.8
			l-0.4,1.3c-0.4,1.2-0.5,1.7-0.5,2.1c0,0.5,1.2,0.6,2.1,0.6h1v2.9h-9.8v-2.9H68c1.2,0,1.6-0.5,2.3-2.5l5.6-16.7H82.6z M75.5,22.4
			h4.8l-2.4-7.2h-0.1L75.5,22.4z"/>
		<path d="M93.2,14.4c0-0.9-0.2-1.4-1.2-1.4h-1.5v-2.7h8.3v8.3c1.2-1.4,2.8-2.3,4.3-2.3c5,0,6.9,3.9,6.9,8.3c0,4.4-1.9,8.3-6.9,8.3
			c-2.1,0-4-0.7-5.1-2.6l-1,2.1h-3.7V14.4z M98.7,24.6c0,3.4,0.8,5.4,2.6,5.4c1.9,0,2.6-2,2.6-5.4c0-3.4-0.8-5.4-2.6-5.4
			C99.5,19.1,98.7,21.2,98.7,24.6z"/>
		<path d="M111.5,14.4c0-0.9-0.2-1.4-1.2-1.4h-1.5v-2.7h8.3v8.3c1.2-1.4,2.8-2.3,4.3-2.3c5,0,6.9,3.9,6.9,8.3c0,4.4-1.9,8.3-6.9,8.3
			c-2.1,0-4-0.7-5.1-2.6l-1,2.1h-3.7V14.4z M117.1,24.6c0,3.4,0.8,5.4,2.6,5.4c1.9,0,2.6-2,2.6-5.4c0-3.4-0.8-5.4-2.6-5.4
			C117.9,19.1,117.1,21.2,117.1,24.6z"/>
		<path d="M147.1,24.6c0,5.3-3.6,8.3-8.6,8.3c-5,0-8.6-3-8.6-8.3c0-5.3,3.6-8.3,8.6-8.3C143.4,16.3,147.1,19.2,147.1,24.6z
			 M135.8,24.6c0,3.9,0.7,5.6,2.7,5.6c2,0,2.7-1.7,2.7-5.6s-0.7-5.6-2.7-5.6C136.5,18.9,135.8,20.6,135.8,24.6z"/>
		<path d="M154.8,10.6v6.2h4.1v2.7h-4.1v9.2c0,0.7,0.4,1.3,1.1,1.3c1.3,0,1.6-0.9,1.6-2.4v-2.6h2.7v3c0,3.3-1.6,5.1-5.6,5.1
			c-3.4,0-5.3-1.7-5.3-5.1v-8.4h-2.2v-2.7c3.3,0,4.2-3.4,4.5-6.2H154.8z"/>
		<path d="M167.6,10.6v6.2h4.1v2.7h-4.1v9.2c0,0.7,0.4,1.3,1.1,1.3c1.3,0,1.6-0.9,1.6-2.4v-2.6h2.7v3c0,3.3-1.6,5.1-5.6,5.1
			c-3.4,0-5.3-1.7-5.3-5.1v-8.4h-2.2v-2.7c3.3,0,4.2-3.4,4.5-6.2H167.6z"/>
		<rect x="158.4" y="16.8" width="1.9" height="2.7"/>
	</g>
</g>
</svg>
