<?xml version="1.0" encoding="utf-8"?>
<!-- Generator: Adobe Illustrator 19.0.0, SVG Export Plug-In . SVG Version: 6.00 Build 0)  -->
<svg version="1.1" id="Layer_1" xmlns="http://www.w3.org/2000/svg" xmlns:xlink="http://www.w3.org/1999/xlink" x="0px" y="0px"
	 viewBox="-546 342.5 130 37.5" style="enable-background:new -546 342.5 130 37.5;" xml:space="preserve">
<g>
	<path d="M-539.8,355c-3.4,0-6.2,2.8-6.2,6.2v12.5c0,3.4,2.8,6.2,6.2,6.2h34.3c3.4,0,6.2-2.8,6.2-6.2v-25c0-3.4-2.8-6.2-6.2-6.2
		H-546v6.2h38.5c1.1,0,2,0.9,2,2v20.9c0,1.1-0.9,2-2,2h-30.3c-1.1,0-2-0.9-2-2v-8.5c0-1.1,0.9-2,2-2h26v-6.2h-28V355z M-465.8,347.1
		c0,0.1,0.1,0.1,0.1,0.1h0.8c0.1,0,0.1-0.1,0.1-0.1v-3.6h0.9c0.1,0,0.1-0.1,0.1-0.1v-0.7c0-0.1-0.1-0.1-0.1-0.1h-2.9
		c-0.1,0-0.1,0.1-0.1,0.1v0.7c0,0.1,0.1,0.1,0.2,0.1h0.9V347.1L-465.8,347.1z M-470.1,347.1c0,0.1,0.1,0.1,0.1,0.1h0.8
		c0.1,0,0.1-0.1,0.1-0.1v-3.6h0.9c0.2,0,0.2,0,0.2-0.1v-0.7c0-0.1-0.1-0.1-0.1-0.1h-2.9c-0.1,0-0.1,0.1-0.1,0.1v0.7
		c0,0.1,0,0.1,0.1,0.1h0.9V347.1L-470.1,347.1z M-475.7,344.9c0-0.7,0.6-1.3,1.3-1.3c0.7,0,1.3,0.6,1.3,1.3c0,0.7-0.6,1.3-1.3,1.3
		S-475.7,345.6-475.7,344.9L-475.7,344.9z M-476.8,344.9c0,1.3,1,2.4,2.4,2.4c1.3,0,2.4-1,2.4-2.4c0-1.3-1.1-2.4-2.4-2.4
		C-475.7,342.5-476.8,343.6-476.8,344.9L-476.8,344.9z M-480,346.2v-0.9h0.5c0.2,0,0.5,0.2,0.5,0.5c0,0.3-0.2,0.5-0.5,0.5
		L-480,346.2L-480,346.2z M-480,344.4v-0.9h0.5c0.3,0,0.5,0.2,0.5,0.4c0,0.3-0.2,0.5-0.5,0.5H-480L-480,344.4z M-481.1,347.1
		c0,0.1,0.1,0.1,0.1,0.1h1.6c0.8,0,1.4-0.5,1.4-1.3c0-0.6-0.5-0.9-0.9-1.1c0.3-0.2,0.8-0.5,0.8-1c0-0.7-0.6-1.2-1.4-1.2h-1.5
		c-0.1,0-0.1,0.1-0.1,0.1V347.1L-481.1,347.1z M-484.6,346.2v-0.9h0.5c0.3,0,0.5,0.2,0.5,0.5c0,0.3-0.2,0.5-0.5,0.5L-484.6,346.2
		L-484.6,346.2z M-484.6,344.4v-0.9h0.5c0.2,0,0.5,0.2,0.5,0.4c0,0.3-0.2,0.5-0.5,0.5H-484.6L-484.6,344.4z M-485.6,347.1
		c0,0.1,0.1,0.1,0.1,0.1h1.6c0.8,0,1.4-0.5,1.4-1.3c0-0.6-0.5-0.9-0.9-1.1c0.3-0.2,0.8-0.5,0.8-1c0-0.7-0.6-1.2-1.4-1.2h-1.5
		c-0.1,0-0.1,0.1-0.1,0.1V347.1L-485.6,347.1z M-489.4,345.6l0.5-1.1l0,0l0.5,1.1H-489.4L-489.4,345.6z M-491,347.2h0.7
		c0.1,0,0.2-0.1,0.2-0.2l0.3-0.5h1.8l0.2,0.5c0.1,0.1,0.1,0.2,0.2,0.2h0.7c0.1,0,0.2-0.1,0.1-0.2l-2.1-4.4l-0.1-0.1l0,0
		c0,0-0.1,0-0.1,0.1l-2.1,4.4C-491.2,347.1-491.1,347.2-491,347.2L-491,347.2z M-443.5,379.1c0.3,0.3,1.1,0.9,2.7,0.9
		c1.8,0,2.8-1.2,2.8-2.5c0-1.6-1.5-2.4-2.4-2.7c-0.9-0.4-1.3-0.7-1.3-1.2c0-0.3,0.3-0.6,0.8-0.6c0.7,0,1.6,0.7,1.7,0.7
		c0.1,0.1,0.3,0,0.4-0.2l0.6-0.9c0-0.1,0.1-0.3-0.1-0.4c-0.4-0.3-1.3-0.9-2.6-0.9c-1.8,0-2.8,1.2-2.8,2.4c0,1.4,1.3,2.2,2.3,2.6
		c0.8,0.3,1.2,0.7,1.2,1.2c0,0.4-0.3,0.7-0.8,0.7c-0.8,0-1.7-0.6-1.7-0.7c-0.1-0.1-0.3-0.1-0.4,0.1l-0.6,1
		C-443.6,379-443.6,379-443.5,379.1L-443.5,379.1z M-450.7,375.1v-1.9h1.8c0.5,0,0.9,0.4,0.9,0.9s-0.4,1-0.9,1H-450.7L-450.7,375.1z
		 M-452.5,379.7c0,0.1,0.1,0.2,0.2,0.2h1.4c0.1,0,0.2-0.1,0.2-0.2v-3.1h0.8l1.6,3.2c0,0,0.1,0.1,0.2,0.1h1.6c0.2,0,0.3-0.2,0.2-0.3
		l-1.6-3c1-0.4,1.8-1.3,1.8-2.4c0-1.4-1.2-2.6-2.6-2.6h-3.6c-0.1,0-0.2,0.1-0.2,0.2V379.7L-452.5,379.7z M-461.6,375.7
		c0-1.3,1.1-2.4,2.4-2.4c1.3,0,2.4,1.1,2.4,2.4c0,1.3-1.1,2.4-2.4,2.4C-460.5,378.1-461.6,377.1-461.6,375.7L-461.6,375.7z
		 M-463.5,375.7c0,2.4,1.9,4.3,4.3,4.3c2.4,0,4.3-1.9,4.3-4.3c0-2.4-1.9-4.3-4.3-4.3C-461.6,371.4-463.5,373.3-463.5,375.7
		L-463.5,375.7z M-470.4,379.2c0.2,0.3,0.8,0.9,1.8,0.9c1.4,0,2.6-1,2.6-2.6v-5.7c0-0.1-0.1-0.2-0.2-0.2h-1.5
		c-0.1,0-0.2,0.1-0.2,0.2v5.6c0,0.6-0.4,0.9-0.7,0.9c-0.3,0-0.5-0.1-0.6-0.3c-0.1-0.1-0.2-0.1-0.3,0l-0.8,0.8
		C-470.5,379-470.5,379.1-470.4,379.2L-470.4,379.2z M-476.7,377.1l0.9-2l0,0l0.9,2H-476.7L-476.7,377.1z M-479.6,379.9h1.3
		c0.2,0,0.4-0.1,0.4-0.3l0.4-1h3.3l0.4,0.9c0.1,0.2,0.2,0.3,0.4,0.3h1.4c0.2,0,0.3-0.2,0.2-0.3l-3.8-8.1c0-0.1-0.1-0.1-0.2-0.1h-0.1
		c-0.1,0-0.2,0.1-0.2,0.1l-3.8,8.1C-479.9,379.8-479.8,379.9-479.6,379.9L-479.6,379.9z M-490.9,379.7c0,0.2,0.1,0.3,0.2,0.3h1.4
		c0.1,0,0.2-0.1,0.2-0.2l0.5-3.7l0,0l2,3.9c0,0.1,0.1,0.1,0.2,0.1h0.4c0.1,0,0.2-0.1,0.2-0.1l2-3.9l0,0l0.5,3.7
		c0,0.1,0.1,0.2,0.2,0.2h1.4c0.1,0,0.3-0.1,0.2-0.3l-1.4-8.1c0-0.1-0.1-0.2-0.2-0.2h-0.2c-0.1,0-0.2,0-0.2,0.1l-2.8,5.2l0,0
		l-2.6-5.2c0-0.1-0.1-0.1-0.2-0.1h-0.2c-0.1,0-0.2,0.1-0.2,0.2L-490.9,379.7L-490.9,379.7z M-423.2,368.8c0,0.1,0.1,0.2,0.2,0.2h1.4
		c0.1,0,0.2-0.1,0.2-0.2v-4.5l0,0l4.7,4.8c0,0,0.1,0.1,0.2,0.1h0.2c0.1,0,0.2-0.1,0.2-0.2v-8.1c0-0.1-0.1-0.2-0.2-0.2h-1.4
		c-0.1,0-0.2,0.1-0.2,0.2v4.3l0,0l-4.8-4.6h-0.3c-0.1,0-0.2,0.1-0.2,0.2V368.8L-423.2,368.8z M-432.2,364.8c0-1.3,1.1-2.4,2.4-2.4
		c1.3,0,2.4,1.1,2.4,2.4c0,1.3-1.1,2.4-2.4,2.4C-431.2,367.2-432.2,366.1-432.2,364.8L-432.2,364.8z M-434.2,364.8
		c0,2.4,1.9,4.3,4.3,4.3s4.3-1.9,4.3-4.3c0-2.4-1.9-4.3-4.3-4.3S-434.2,362.4-434.2,364.8L-434.2,364.8z M-443.7,368.8
		c0,0.1,0.1,0.2,0.2,0.2h1.4c0.1,0,0.2-0.1,0.2-0.2v-3.2h3.4v3.2c0,0.1,0.1,0.2,0.2,0.2h1.4c0.1,0,0.2-0.1,0.2-0.2v-7.9
		c0-0.1-0.1-0.2-0.2-0.2h-1.4c-0.1,0-0.2,0.1-0.2,0.2v3h-3.4v-3c0-0.1-0.1-0.2-0.2-0.2h-1.4c-0.1,0-0.2,0.1-0.2,0.2V368.8
		L-443.7,368.8z M-450.1,368.8c0,0.1,0.1,0.2,0.2,0.2h1.4c0.1,0,0.2-0.1,0.2-0.2v-6.4h1.7c0.1,0,0.2-0.1,0.2-0.2v-1.3
		c0-0.1-0.1-0.2-0.2-0.2h-5.3c-0.1,0-0.2,0.1-0.2,0.2v1.3c0,0.1,0.1,0.2,0.2,0.2h1.7v6.4H-450.1z M-458.2,366.1l0.9-2l0,0l0.9,2
		H-458.2L-458.2,366.1z M-461.1,369h1.3c0.2,0,0.4-0.1,0.4-0.3l0.4-1h3.3l0.4,0.9c0.1,0.2,0.2,0.3,0.4,0.3h1.3
		c0.2,0,0.3-0.2,0.2-0.3l-3.8-8.1c0-0.1-0.1-0.1-0.2-0.1h-0.1c-0.1,0-0.2,0.1-0.2,0.1l-3.8,8.1C-461.4,368.9-461.3,369-461.1,369
		L-461.1,369z M-467.6,364.2v-1.9h1.8c0.5,0,0.9,0.4,0.9,0.9s-0.4,1-0.9,1H-467.6L-467.6,364.2z M-469.4,368.8
		c0,0.1,0.1,0.2,0.2,0.2h1.4c0.1,0,0.2-0.1,0.2-0.2v-3.1h0.8l1.6,3.2c0,0,0.1,0.1,0.2,0.1h1.6c0.2,0,0.3-0.2,0.2-0.3l-1.6-3
		c1-0.4,1.8-1.3,1.8-2.4c0-1.4-1.2-2.6-2.6-2.6h-3.6c-0.1,0-0.2,0.1-0.2,0.2V368.8L-469.4,368.8z M-476.7,366.1l0.9-2l0,0l0.9,2
		H-476.7L-476.7,366.1z M-479.6,369h1.3c0.2,0,0.4-0.1,0.4-0.3l0.4-1h3.3l0.4,0.9c0.1,0.2,0.2,0.3,0.4,0.3h1.4
		c0.2,0,0.3-0.2,0.2-0.3l-3.8-8.1c0-0.1-0.1-0.1-0.2-0.1h-0.1c-0.1,0-0.2,0.1-0.2,0.1l-3.8,8.1C-479.9,368.9-479.8,369-479.6,369
		L-479.6,369z M-490.9,368.8c0,0.2,0.1,0.3,0.2,0.3h1.4c0.1,0,0.2-0.1,0.2-0.2l0.5-3.7l0,0l2,3.9c0,0.1,0.1,0.1,0.2,0.1h0.4
		c0.1,0,0.2-0.1,0.2-0.1l2-3.9l0,0l0.5,3.7c0,0.1,0.1,0.2,0.2,0.2h1.4c0.1,0,0.3-0.1,0.2-0.3l-1.4-8.1c0-0.1-0.1-0.2-0.2-0.2h-0.2
		c-0.1,0-0.2,0-0.2,0.1l-2.8,5.2l0,0l-2.8-5.2c0-0.1-0.1-0.1-0.2-0.1h-0.2c-0.1,0-0.2,0.1-0.2,0.2L-490.9,368.8L-490.9,368.8z
		 M-451.1,356.3v-4.8h1.1c1.4,0,2.3,1.1,2.3,2.4c0,1.4-1,2.4-2.3,2.4H-451.1L-451.1,356.3z M-453,357.9c0,0.1,0.1,0.2,0.2,0.2h2.9
		c2.3,0,4.2-1.9,4.2-4.2c0-2.3-1.9-4.2-4.2-4.2h-2.9c-0.1,0-0.2,0.1-0.2,0.2V357.9L-453,357.9z M-460.2,357.9c0,0.1,0.1,0.2,0.2,0.2
		h4.5c0.1,0,0.2-0.1,0.2-0.2v-1.3c0-0.1-0.1-0.2-0.2-0.2h-2.9v-6.5c0-0.1-0.1-0.2-0.2-0.2h-1.4c-0.1,0-0.2,0.1-0.2,0.2V357.9
		L-460.2,357.9z M-467.6,353.3v-1.9h1.8c0.5,0,0.9,0.4,0.9,0.9s-0.4,1-0.9,1H-467.6L-467.6,353.3z M-469.4,357.9
		c0,0.1,0.1,0.2,0.2,0.2h1.4c0.1,0,0.2-0.1,0.2-0.2v-3.1h0.8l1.6,3.2c0,0,0.1,0.1,0.2,0.1h1.6c0.2,0,0.3-0.2,0.2-0.3l-1.6-3
		c1-0.4,1.8-1.3,1.8-2.4c0-1.4-1.2-2.6-2.6-2.6h-3.6c-0.1,0-0.2,0.1-0.2,0.2V357.9L-469.4,357.9z M-478.2,353.9
		c0-1.3,1.1-2.4,2.4-2.4c1.3,0,2.4,1.1,2.4,2.4c0,1.3-1.1,2.4-2.4,2.4C-477.1,356.3-478.2,355.2-478.2,353.9L-478.2,353.9z
		 M-480.1,353.9c0,2.4,1.9,4.3,4.3,4.3c2.4,0,4.3-1.9,4.3-4.3s-1.9-4.3-4.3-4.3C-478.2,349.6-480.1,351.5-480.1,353.9L-480.1,353.9z
		 M-488.9,358c0,0.1,0.1,0.2,0.2,0.2h0.2c0.1,0,0.2-0.1,0.2-0.1l2.2-4.9l0,0l2.2,4.9c0,0.1,0.1,0.1,0.2,0.1h0.2
		c0.1,0,0.2-0.1,0.2-0.2l2.3-8c0-0.2,0-0.3-0.2-0.3h-1.4c-0.1,0-0.2,0.1-0.2,0.2l-1,4.1l0,0l-1.9-4.2c0-0.1-0.1-0.1-0.2-0.1h-0.2
		c-0.1,0-0.2,0.1-0.2,0.1l-1.9,4.2l0,0l-1-4.1c0-0.1-0.1-0.2-0.2-0.2h-1.6c-0.2,0-0.3,0.1-0.2,0.3L-488.9,358L-488.9,358z"/>
</g>
</svg>
