<?xml version="1.0" encoding="utf-8"?>
<!-- Generator: Adobe Illustrator 19.0.0, SVG Export Plug-In . SVG Version: 6.00 Build 0)  -->
<svg version="1.1" id="Layer_1" xmlns="http://www.w3.org/2000/svg" xmlns:xlink="http://www.w3.org/1999/xlink" x="0px" y="0px"
	 viewBox="0 0 730.4 662.5" style="enable-background:new 0 0 730.4 662.5;" xml:space="preserve">
<path id="XMLID_73_" d="M365.4,364.7c-0.8-55.3-0.6-110.6-0.2-165.9c0.2-22.2,9.9-40.1,30.3-50.1c35.4-17.4,77.1,5.7,77.6,47.8
	c0.5,36,0.5,72.1,0.2,108.1c-0.2,25.7-0.1,51.5-0.3,77.2c-0.2,27.3-24.2,50.5-51.5,51.6c-25.3,1-52.6-18.2-55.8-47.6
	C365,378.8,365.5,371.7,365.4,364.7z"/>
<path id="XMLID_72_" d="M331.3,216.2c-0.1,9.8-2.4,19.1-7.4,27.6c-31.2,53.2-62.3,106.4-93.8,159.5c-10.9,18.4-28.1,26.4-49.1,25
	c-22.6-1.5-38.3-13.5-46.6-34.5c-6.1-15.6-5.2-31.3,3.3-45.9c25.8-44.4,51.8-88.7,77.8-133c6.1-10.3,11.1-21.4,18.8-30.5
	c30.1-35.6,78.5-22.4,93.2,12.7C330.2,203,331.4,209.5,331.3,216.2z"/>
<path id="XMLID_66_" d="M375.1,580.2c5.5-7,12.1-9.5,20-8.1c7.9,1.3,11.9,5.8,12.7,13.8c0.6,6.1,0.4,12.3,0.4,18.4
	c0,10.1-0.1,20.1,0.1,30.2c0,3-0.8,4.2-4,4.1c-8-0.2-6.5,0.5-6.6-6.7c-0.1-12.3,0-24.6,0-36.9c0-0.8,0-1.6,0-2.4
	c-0.1-8.1-2.9-11.8-9.1-11.9c-7.3-0.1-12.7,4.8-13,12.1c-0.2,4.1,0,8.3,0,12.4c0,9.8-0.1,19.7,0,29.5c0,2.6-0.6,3.9-3.5,3.8
	c-8.2-0.2-7.1,0.6-7.1-7c0-18,0.1-36-0.1-54.1c0-3.3,1-4.6,4.2-4.1c0.7,0.1,1.4,0.1,2,0c2.9-0.4,4.2,0.8,3.8,3.8
	C374.9,577.9,375.1,578.6,375.1,580.2z"/>
<path id="XMLID_65_" d="M562.2,624c2.3-10.4,4.5-20.6,6.7-30.7c1.2-5.6,2.5-11.1,3.6-16.7c0.4-2.3,1.5-3.1,3.9-3.1
	c8.2-0.1,8.3-0.1,6.2,7.7c-5.7,21-11.3,41.9-17,62.8c-0.6,2-1.2,4.1-2,6c-2.7,6.5-7.2,9.5-14.3,9.6c-1.3,0-2.7,0-4,0
	c-4.3,0-4.1-0.1-4.4-4.3c-0.2-3.2,1.1-3.9,4.1-3.8c8,0.2,13.2-7,11-14.7c-5.7-19.7-11.3-39.3-17-59c-1.2-4.1-1.1-4.3,3-4.3
	c8.6,0.1,6.8-1.2,8.8,6.9c3.5,13.6,6.8,27.4,10.2,41C561.1,622.3,561.1,623.1,562.2,624z"/>
<path id="XMLID_64_" d="M262.4,640.1c-4.1,0.1-8-0.6-11.7-2.3c-6.6-3.2-11.2-11.8-10.1-19c0-0.2,0-0.5,0.1-0.7
	c2.2-2.6,5.2-0.9,7.8-1.3c1.5-0.2,2.6,0.5,2.6,2.2c0,1.2,0.1,2.5,0.4,3.7c1.2,6,5.6,9.5,11.7,9.2c5.6-0.2,9.6-3.6,10.2-8.8
	c0.7-5.4-1.4-9.4-6.9-11.7c-4.5-1.9-9.2-3.4-13.9-5.1c-6.5-2.4-10.3-6.9-10.8-13.9c-1.1-14.1,9.2-22.7,24.4-20.6
	c10.4,1.5,15.7,7.3,16,17.4c0.1,2.6-0.8,3.5-3.3,3.3c-0.4,0-0.9,0-1.3,0c-5.1,0-5.1,0-6.1-4.9c-1-5.2-3.6-7.5-8.6-7.7
	c-5.5-0.2-9.4,2.3-10.5,6.9c-1.2,4.9,0.5,8.7,5.4,10.9c4.7,2,9.7,3.4,14.5,5.3c8.7,3.4,12.3,9.3,11.4,18.6
	C282.7,633.9,275.5,640.1,262.4,640.1z"/>
<path id="XMLID_63_" d="M450.9,600.2c0,11.5-0.1,23,0.1,34.6c0,2.9-0.8,4-3.8,3.9c-8.2-0.2-7,0.5-7-7c-0.1-21.9-0.1-43.9,0-65.8
	c0-3.3-0.8-4.6-4.3-4.4c-4.8,0.3-9.6,0-14.4,0.1c-2.1,0-3-0.7-3-2.9c0.1-7.7-0.6-6.6,6.3-6.6c14.8-0.1,29.5,0,44.3,0
	c1.3,0,3.3-0.6,3.6,1.4c0.3,2.5,0.8,5.2-0.4,7.5c-0.5,0.9-1.9,0.5-2.8,0.5c-5,0-10.1,0.1-15.1,0c-2.7-0.1-3.5,0.8-3.5,3.5
	C451,576.7,450.9,588.4,450.9,600.2z"/>
<path id="XMLID_62_" d="M602,595.4c0-13.2,0.1-26.4-0.1-39.6c0-2.9,0.8-4,3.8-3.9c7.6,0.3,6.8-0.9,6.8,6.9c0,25.1,0,50.2,0,75.2
	c0,4.5,0,4.5-4.5,4.5c-0.9,0-1.8-0.1-2.7,0c-2.7,0.3-3.4-0.9-3.4-3.5C602.1,621.9,602,608.7,602,595.4z"/>
<path id="XMLID_61_" d="M211,595.3c0-13.2,0.1-26.4-0.1-39.6c0-2.7,0.8-3.8,3.6-3.7c7.9,0.2,7-0.9,7,7c0,25,0,49.9,0,74.9
	c0,4.7,0,4.7-4.6,4.7c-0.9,0-1.8-0.1-2.7,0c-2.5,0.2-3.3-0.8-3.3-3.3C211,621.9,211,608.6,211,595.3z"/>
<path id="XMLID_60_" d="M709,581.4c0.9-1.3,1.7-2.6,2.6-3.9c1.7-2.3,3.7-4.2,6.5-5.1c2.7-0.9,6-1.9,8,0.1c2.1,2.1,0.7,5.5,0.7,8.3
	c0,1.4-1.2,1.3-2.3,1.3c-11.7,0.6-16.3,5.5-16.3,17.2c0,11.6-0.1,23.3,0.1,34.9c0,3.2-0.9,4.3-4.1,4.2c-7.2-0.2-6.2,0.3-6.2-6.1
	c0-18.1,0-36.2,0-54.3c0-4.6,0-4.6,4.6-4.7c0.4,0,0.9,0.1,1.3,0c3.3-0.5,4.9,0.7,4.4,4.2c-0.2,1.2,0,2.4,0,3.6
	C708.5,581.3,708.8,581.4,709,581.4z"/>
<path id="XMLID_79_" d="M66.9,634.4c-6.4-24-12.9-48-19.4-71.9c-0.9-3.4-1.4-8-3.4-9.9c0,0,0,0-0.1,0c-1.3-1-10.5-0.6-10.5-0.6
	c-2.6-0.2-3.7,0.9-4.4,3.3c-5.4,18.9-10.8,37.9-16.4,56.7c-2.4,8.2-4.3,16.7-7.4,24.7c0,0.7,0,1.3,0,2c2.6-0.1,5.1-0.3,7.7-0.2
	c2.5,0.1,3.8-0.8,4.5-3.4c1.4-5.9,3.2-11.7,4.6-17.5c0.6-2.2,1.6-3.1,3.9-3.1c7,0.1,14.1,0.1,21.1,0c2.5-0.1,3.5,1,4.1,3.3
	c1,4.6,2.3,9.1,3.5,13.6c2.1,7.8,0.3,6.9,9,6.9C68,638.6,68,638.5,66.9,634.4z M45.8,605.9c-6,0-12.1,0-18.1,0
	c-1.5,0-2.3-0.4-1.8-2.2c3.6-12.6,7.2-25.3,10.8-37.9c0.3,0,0.6,0,0.9,0c2.7,10.2,5.4,20.5,8.1,30.7c0.6,2.4,1.3,4.7,1.9,7.1
	C48,605.2,47.5,605.9,45.8,605.9z"/>
<path id="XMLID_78_" d="M127.3,595.8c-0.5-5.6-1.7-11.1-4.7-16c-3.8-6.3-10.6-9.2-17.8-7.8c-4.7,0.9-8.5,3.3-11.9,7.1
	c0-1.1,0-2.2,0-3.3c0-6.5,0-13,0-19.5c0-4.4,0-4.4-4.5-4.4c-0.3,0-0.7,0-1,0c-4.7,0-4.7,0-4.7,4.8c0,25.4,0,50.8,0,76.2
	c0,5.6,0,5.4,5.7,5.6c3.1,0.1,4.7-0.8,4.3-4.1c-0.1-0.5-0.1-1.1,0.7-1.6c3,4.1,6.9,6.8,12.2,7.1c8.6,0.5,15.3-4.2,18.9-13.2
	C128.3,616.8,128.2,606.3,127.3,595.8z M114.9,623c-1.8,5.5-5,8.3-9.7,8.3c-4.8,0.1-8.9-2.6-10.5-7.9c-3.6-11.6-3.6-23.4,0.1-35
	c1.5-4.6,4.7-7.5,9.9-7.6c4.3-0.1,7.3,1.6,9.2,5.5c2.9,6.2,2.9,12.8,3,22.2C117,611.5,116.8,617.3,114.9,623z"/>
<path id="XMLID_82_" d="M526,634.2c0.2-1.2,0.2-2.6-1.7-2.6c-3.3,0.1-3.7-2-3.7-4.7c0-12.1,0-24.2,0-36.3c0-2-0.2-4-0.4-6
	c-0.8-6.3-4.4-10.1-10.4-11.8c-5.3-1.4-10.6-1.5-16-0.6c-7.9,1.3-12.6,5.6-14.3,13.5c-1.5,6.9-1.1,7.4,5.9,7.5c2.7,0,3.6-0.8,4-3.5
	c1.1-7.6,6-10.9,13.6-9.5c4.5,0.8,7,3.6,7.4,8.2c0.5,6-0.7,8.3-5.6,10c-4.5,1.6-9.2,2.9-13.8,4.2c-9.6,2.9-14.2,8.8-13.9,18.8
	c0.2,7.4,2,14.1,9.7,17.3c7.8,3.2,15.8,1.3,21.7-5c0.5-0.6,0.9-1.3,1.7-2.3c1.2,3.3,1.8,6.3,4.9,7.2c3.1,1,6.2,0.8,9.3,0.1
	C527.1,638.1,525.8,635.8,526,634.2z M510,618.9c-0.1,7-5.3,12.5-12.3,13c-4.7,0.3-8.5-2.3-9.2-6.9c-1.5-10.3,1.3-13.7,9.2-16.3
	c3.5-1.2,7.1-2,10.3-3.9c1.6-0.9,2-0.2,2,1.3c0,2.5,0,4.9,0,7.4c0,0,0,0,0,0C510,615.4,510,617.2,510,618.9z"/>
<path id="XMLID_80_" d="M187,616.8c-6.6-0.3-6.6-0.3-8.2,6.1c-1.5,5.8-4.8,8.9-9.7,9.1c-5.3,0.3-9.3-2.7-11.2-8.4
	c-1.4-4.3-1.4-8.8-1.6-13.3c-0.1-2.6,1-3.3,3.4-3.2c4.5,0.1,9,0,13.4,0c0,0,0,0,0,0c4.7,0,9.4-0.1,14.1,0c2.1,0,3.1-0.7,3-2.9
	c-0.1-3.4,0.1-6.7-0.2-10.1c-0.6-5.9-1.7-11.8-5.9-16.5c-10.2-11.2-30-7-35.6,7.5c-2.1,5.4-2.8,11.1-3,16.8
	c-0.4,9.1-0.1,18.1,3.6,26.7c2,4.5,5,8,9.7,9.7c13.9,4.9,28.3-0.8,30.9-18.4C190,617.9,189.5,616.9,187,616.8z M159.4,585.3
	c2-3.7,5.3-5.4,9.4-5.4c4.2,0.1,7.2,2.3,8.9,6c1.6,3.4,1.9,7.1,1.8,10.8c0,1.8-0.9,2.3-2.5,2.3c-3,0-6,0-9.1,0c-2.9,0-5.8-0.1-8.7,0
	c-1.8,0-2.7-0.6-2.6-2.5C156.8,592.7,157.4,588.9,159.4,585.3z"/>
<path id="XMLID_81_" d="M345.9,606.1c0-3,0.2-6.1-0.1-9.1c-0.3-3-0.9-6-1.7-8.9c-3-10.9-10.2-16.4-21.2-16.5
	c-10.7-0.1-18.2,5.4-21.2,16.1c-3.4,12.1-3.4,24.4,0,36.5c3,10.7,10.1,15.9,20.9,15.9c11.1,0,18.1-5.2,21.4-15.8
	C345.7,618.4,346.3,612.3,345.9,606.1z M334.4,619.1c-0.4,2.4-1.2,4.8-2.3,7c-2.1,3.9-5.3,6-9.7,5.9c-4.5-0.1-7.5-2.5-9.3-6.6
	c-2.7-6.2-2.8-12.8-2.7-20.2c-0.1-5.4,0.1-11.6,2.2-17.4c2.2-6.1,6.6-8.7,12.4-7.6c3.2,0.6,5.4,2.5,6.9,5.3c1.8,3.3,2.6,6.9,3,10.6
	C335.6,603.8,335.7,611.5,334.4,619.1z"/>
<path id="XMLID_83_" d="M676.2,586.6c-3-9.8-10.3-14.8-20.4-14.9c-10.5-0.1-17.5,4.7-21,14.5c-2.3,6.4-2.9,13.1-2.7,20
	c-0.2,6.5,0.3,13,2.5,19.4c3.4,9.8,10.2,14.6,20.5,14.6c10.7,0,17.7-4.6,20.9-14.5C680.2,612.7,680.2,599.5,676.2,586.6z M666.6,621
	c-0.5,2.1-1.2,4.1-2.4,5.9c-4.4,7.1-14.1,6.8-18.1-0.6c-1.8-3.3-2.5-6.9-2.8-10.6c-0.8-8.5-0.9-17,1-25.3
	c1.9-7.9,6.6-11.4,13.2-10.2c4.3,0.8,6.7,3.8,8.1,7.6c2.2,5.8,2.3,11.8,2.2,17.8C668,610.8,667.9,616,666.6,621z"/>
<path id="XMLID_15_" d="M348.9,7.2C404.2,6.5,459.5,6.7,514.8,7c22.2,0.2,40.1,9.9,50.1,30.3c17.4,35.4-5.7,77.1-47.8,77.6
	c-36,0.5-72.1,0.5-108.1,0.2c-25.7-0.2-51.5-0.1-77.2-0.3c-27.3-0.2-50.5-24.2-51.6-51.5c-1-25.3,18.2-52.6,47.6-55.8
	C334.8,6.9,341.9,7.4,348.9,7.2z"/>
</svg>
