<svg xmlns="http://www.w3.org/2000/svg" viewBox="0 0 500 112">
  <defs/>
  <path d="M160.6 62.1v12.1h-35.7c-1.4 0-2 .7-2 2v4.2h37.7v11.4h-37.7v16H110V70.5c0-5.7 2.9-8.4 8.7-8.4h41.9zm21.7 0v45.7h-13V62.1h13zm63.9 0v12.1h-21.1v33.6h-13V74.2H191V62.1h55.2zM315 99c0 6.9-4.3 9.8-9 9.8-4.1 0-7.1-1.1-9.4-3.6l-26.4-29c-.4-.4-.7-.6-1.1-.6-.6 0-1.2.5-1.2 1.3v31h-12.7v-36c0-7.8 4.7-10.7 11.2-10.7 4.5 0 7.4 1.1 10.4 4.5l23.5 26.7c.4.5.8.5 1.2.5.6 0 1-.4 1-1.2V62.1H315V99zm59.3-36.9v12.1h-36.6c-.8 0-1.1.4-1.1 1.1v5.2h37.7v9.3h-37.7v5c0 .8.4 1.2 1.1 1.2h36.6v11.7h-43.8c-4.5 0-6.8-2.1-6.8-6.4v-33c0-4.1 2.3-6.1 6.8-6.1h43.8v-.1zm59.6 12.1h-34.6c-1.6 0-2.4.3-3 .9-.6.6-1 1.4-1 2.4s.5 1.9 1.2 2.4c.6.5 1.3.7 2.8.7h21.1c5.4 0 9 1.6 11.6 4.1s4.1 5.9 4.1 9.5c0 3.3-1.3 6.5-3.6 8.9-2.6 2.9-6.5 4.7-12.2 4.7H383V96.1h35c2 0 3-.4 3.6-1.1.5-.5.8-1.3.8-2.1 0-.9-.4-1.8-1-2.4-.6-.7-1.6-1-3.4-1h-19.6c-6.4 0-10.1-1.6-12.7-4.1-2.6-2.5-4.1-5.8-4.1-9.5 0-3.6 1.6-7 4.1-9.5 2.6-2.5 6.2-4.1 12.6-4.1h35.3l.3 11.9zm60.9 0h-34.6c-1.6 0-2.4.3-3 .9-.6.6-1 1.4-1 2.4s.5 1.9 1.2 2.4c.6.5 1.3.7 2.8.7h21.1c5.4 0 9 1.6 11.6 4.1s4.1 5.9 4.1 9.5c0 3.3-1.3 6.5-3.6 8.9-2.6 2.9-6.5 4.7-12.2 4.7h-37.3V96.1h35c2 0 3-.4 3.6-1.1.5-.5.8-1.3.8-2.1 0-.9-.4-1.8-1-2.4-.6-.7-1.6-1-3.4-1h-19.6c-6.4 0-10.1-1.6-12.7-4.1-2.6-2.5-4.1-5.8-4.1-9.5 0-3.6 1.6-7 4.1-9.5 2.6-2.5 6.2-4.1 12.6-4.1h35.3l.3 11.9zM216 33.4c0 .3-.1.9-.6.9-.4 0-.6-.1-.9-.4L193.3 8.5c-2.7-3.2-5.3-4.4-9.6-4.4-6.8 0-10.4 3.6-10.4 10.4V49h12V19.4c0-.6.4-.9.8-.9.3 0 .5.2.8.5l23.8 27.6c2.1 2.4 4.8 3.5 8.7 3.5 4.1 0 8.4-2.5 8.4-9.6V5.1H216v28.3zm56.9-28.3l-12 13.4c-.2.2-.4.4-.7.4s-.5-.1-.7-.3l-12-13.5h-15.1l21.2 23.6v20.4h13.2V28.7L288 5.1h-15.1zm19.7 12.1h19.1v31.9H324V17.2h19V5.1h-50.3v12.1zm59.2-12.1H364v44h-12.3v-44zm84.6 1.7c-1.5-1.2-4.1-2.7-7.8-2.7-5 0-8.6 2.6-11.2 8.3l-9.8 21.3c-.2.6-.5.7-.8.7-.4 0-.6-.1-.8-.7l-9.8-21.3c-2.6-5.6-6.2-8.3-11.2-8.3-3.6 0-6.2 1.5-7.8 2.7-2.8 2.3-4.2 5.5-4.2 10.2v32.1h11.8v-30c0-.6.4-.9.7-.9.2 0 .5.1.6.3l13.2 27.3c1.3 2.6 4 4.1 7.6 4.1s6.3-1.5 7.6-4.1l13.2-27.3c.1-.2.4-.3.6-.3.4 0 .7.3.7.9v30h11.8V17c-.3-4.7-1.6-7.9-4.4-10.2zm25 10.4h33.4V5.1h-39.9c-4.3 0-6.5 2.1-6.5 6.1v31.5c0 4.2 2.2 6.3 6.4 6.3h40V37.4h-33.4c-.5 0-.7-.1-.7-.9V32h34.2v-9.4h-34.2V18c0-.6.2-.8.7-.8zm-309-4.9c-2.5-5.6-6.6-8.2-12.9-8.2h-.1c-6.2 0-10.3 2.6-12.9 8.2l-16.6 36.8h13.9l3-6.7H152l3 6.7h14l-16.6-36.8zm-11.2 4.8l6.5 15.1h-16.2l6.4-15.1c.4-.8.9-1.2 1.6-1.2.8 0 1.3.4 1.7 1.2zM39.6 9.6c-6.3 0-11.4 5.1-11.4 11.4s5.1 11.4 11.4 11.4S51 27.2 51 21 45.9 9.6 39.6 9.6z"/>
  <path d="M83.9 6.5C81 3.6 76 3.2 73.4 6.1c0 0-17.4 22.7-22 27.3-6.8 6.7-13.9 12-21.1 16-.9.5-1.9.5-2.6-.2L17.2 38.7c-4.1-4.1-8.8-3.7-11.1-1.4-2.1 2.1-2.5 5.9 1.4 9.8l15.3 15.2c2.6 2.6 6.6 3 9.6 1l.4-.2c4.6-3.3 11.9-11.8 16.9-18.1.9-1.1 2.4-1.3 3.5-.6C67.5 54.5 73 58.6 75 60.2c2 1.6 2.8 2.6 2.8 3.5-.1 1.7-3.5 4.4-7.3 7.1-4.6 3.3-7.6 5.7-9.7 7.5-2.9 2.7-4 4.1-4.6 6.3-.5 1.6-.2 3.4.1 4.1.7 2 2.3 3.8 4.7 5.3l22 12.8c6.5 3.5 9.8 1.4 11.7-1.4 1.8-2.6 2.6-7.6-3.5-11.3l-15.8-9.9c-1.7-1-1.1-2.2-.7-2.6.8-.9 4.2-4 5-4.9 5.3-5.2 7.9-9.8 7.9-14.1 0-4.4-2.9-7.6-5.3-10-2.3-2.2-4.5-4.4-7.9-7.7-2.6-2.6-6-5.9-10.6-10.4-.6-.6-.9-1.4-.9-2.2 0-.7.4-1.4.9-1.8 1.8-1.5 4.2-3.6 6.5-5.6 2.3-2.1 4.5-4 6.1-5.3.8-.6 1.9-.6 2.6.1l10.5 10.2c2.5 2.5 5.7 3.6 8.5 2.9.9-.2 1.6-.6 2.3-1.2.8-.7 1.4-1.6 1.7-2.7.4-1.4.5-4.2-2.7-7.4l-15.4-15z"/>
</svg>
