<svg xmlns="http://www.w3.org/2000/svg" viewBox="0 0 500 112">
  <defs/>
  <path d="M109.2 62.1v8.2H85c-.9 0-1.4.5-1.4 1.4v2.8h25.5v7.7H83.7V93H75V67.8c0-3.9 2-5.7 5.9-5.7h28.3zm14.7 0V93h-8.8V62.1h8.8zm43.3 0v8.2h-14.3v22.8h-8.8V70.3h-14.3v-8.2h37.4zm46.6 25c0 4.7-2.9 6.6-6.1 6.6-2.8 0-4.8-.7-6.4-2.4l-17.9-19.6c-.3-.3-.5-.4-.7-.4-.4 0-.8.3-.8.9v21h-8.6V68.8c0-5.3 3.2-7.2 7.6-7.2 3 0 5 .7 7 3l15.9 18.1c.3.3.5.3.8.3.4 0 .7-.3.7-.8v-20h8.5v24.9zm40.1-25v8.2h-24.8c-.5 0-.7.3-.7.7v3.5h25.5v6.3h-25.5v3.4c0 .5.3.8.7.8h24.8v8h-29.7c-3 0-4.6-1.4-4.6-4.3V66.3c0-2.8 1.6-4.1 4.6-4.1l29.7-.1c0 .1 0 0 0 0zm40.4 8.2h-23.4c-1.1 0-1.6.2-2 .6-.4.4-.7.9-.7 1.6 0 .7.3 1.3.8 1.6.4.3.9.5 1.9.5h14.3c3.7 0 6.1 1.1 7.9 2.8 1.8 1.7 2.8 4 2.8 6.4 0 2.2-.9 4.4-2.4 6-1.8 2-4.4 3.2-8.3 3.2h-25.3v-7.9h23.7c1.4 0 2-.3 2.4-.7.3-.3.5-.9.5-1.4 0-.6-.3-1.2-.7-1.6-.4-.5-1.1-.7-2.3-.7h-13.3c-4.3 0-6.8-1.1-8.6-2.8-1.8-1.7-2.8-3.9-2.8-6.4 0-2.4 1.1-4.7 2.8-6.4 1.8-1.7 4.2-2.8 8.5-2.8H294l.3 8zm41.2 0h-23.4c-1.1 0-1.6.2-2 .6-.4.4-.7.9-.7 1.6 0 .7.3 1.3.8 1.6.4.3.9.5 1.9.5h14.3c3.7 0 6.1 1.1 7.9 2.8s2.8 4 2.8 6.4c0 2.2-.9 4.4-2.4 6-1.8 2-4.4 3.2-8.3 3.2h-25.3v-7.9h23.7c1.4 0 2-.3 2.4-.7.3-.3.5-.9.5-1.4 0-.6-.3-1.2-.7-1.6-.4-.5-1.1-.7-2.3-.7h-13.3c-4.3 0-6.8-1.1-8.6-2.8-1.8-1.7-2.8-3.9-2.8-6.4 0-2.4 1.1-4.7 2.8-6.4 1.8-1.7 4.2-2.8 8.5-2.8h23.9l.3 8zM146.7 42.7c0 .2-.1.6-.4.6-.3 0-.4-.1-.6-.3l-14.4-17.2c-1.8-2.2-3.6-3-6.5-3-4.6 0-7 2.4-7 7v23.4h8.1v-20c0-.4.3-.6.5-.6s.3.1.5.3L143 51.6c1.4 1.6 3.3 2.4 5.9 2.4 2.8 0 5.7-1.7 5.7-6.5v-24h-8c.1 0 .1 19.2.1 19.2zm38.6-19.2l-8.1 9.1c-.1.1-.3.3-.5.3s-.3-.1-.5-.2l-8.1-9.1h-10.2l14.4 16v13.8h8.9V39.5l14.4-16h-10.3zm13.3 8.2h12.9v21.6h8.3V31.7h12.9v-8.2h-34.1v8.2zm40.1-8.2h8.3v29.8h-8.3V23.5zm57.3 1.2c-1-.8-2.8-1.8-5.3-1.8-3.4 0-5.8 1.8-7.6 5.6l-6.6 14.4c-.1.4-.3.5-.5.5-.3 0-.4-.1-.5-.5l-6.6-14.4c-1.8-3.8-4.2-5.6-7.6-5.6-2.4 0-4.2 1-5.3 1.8-1.9 1.6-2.8 3.7-2.8 6.9v21.7h8V33c0-.4.3-.6.5-.6.1 0 .3.1.4.2l8.9 18.5c.9 1.8 2.7 2.8 5.1 2.8s4.3-1 5.1-2.8l8.9-18.5c.1-.1.3-.2.4-.2.3 0 .5.2.5.6v20.3h8V31.6c-.2-3.2-1.1-5.3-3-6.9zm16.9 7h22.6v-8.2h-27c-2.9 0-4.4 1.4-4.4 4.1V49c0 2.8 1.5 4.3 4.3 4.3h27.1v-7.9h-22.6c-.3 0-.5-.1-.5-.6v-3h23.2v-6.4h-23.2v-3.1c.1-.4.2-.6.5-.6zm-209.2-3.3c-1.7-3.8-4.5-5.6-8.7-5.6h-.1c-4.2 0-7 1.8-8.7 5.6L74.9 53.3h9.4l2-4.5h17.1l2 4.5h9.5l-11.2-24.9zm-7.6 3.3l4.4 10.2h-11l4.3-10.2c.3-.5.6-.8 1.1-.8.6 0 .9.2 1.2.8zm-68.8-5.1c-4.3 0-7.7 3.5-7.7 7.7S23 42 27.3 42s7.7-3.5 7.7-7.7-3.5-7.7-7.7-7.7z"/>
  <path d="M57.3 24.5c-2-2-5.3-2.2-7.1-.3 0 0-11.8 15.4-14.9 18.5-4.6 4.5-9.4 8.1-14.3 10.8-.6.3-1.3.3-1.8-.1l-7.1-7.1c-2.8-2.8-6-2.5-7.5-.9-1.4 1.4-1.7 4 .9 6.6l10.4 10.3c1.8 1.8 4.5 2 6.5.7l.3-.1c3.1-2.2 8.1-8 11.4-12.3.6-.7 1.6-.9 2.4-.4 9.7 6.8 13.4 9.6 14.8 10.7s1.9 1.8 1.9 2.4c-.1 1.2-2.4 3-4.9 4.8-3.1 2.2-5.1 3.9-6.6 5.1-2 1.8-2.7 2.8-3.1 4.3-.3 1.1-.1 2.3.1 2.8.5 1.4 1.6 2.6 3.2 3.6l14.9 8.7c4.4 2.4 6.6.9 7.9-.9 1.2-1.8 1.8-5.1-2.4-7.7l-10.7-6.7c-1.2-.7-.7-1.5-.5-1.8.5-.6 2.8-2.7 3.4-3.3 3.6-3.5 5.3-6.6 5.3-9.5 0-3-2-5.1-3.6-6.8-1.6-1.5-3-3-5.3-5.2-1.8-1.8-4.1-4-7.2-7-.4-.4-.6-.9-.6-1.5 0-.5.3-.9.6-1.2 1.2-1 2.8-2.4 4.4-3.8 1.6-1.4 3-2.7 4.1-3.6.5-.4 1.3-.4 1.8.1l7.1 6.9c1.7 1.7 3.9 2.4 5.8 2 .6-.1 1.1-.4 1.6-.8.5-.5.9-1.1 1.2-1.8.3-.9.3-2.8-1.8-5-.2-.3-10.6-10.5-10.6-10.5z"/>
</svg>
