<?xml version="1.0" encoding="utf-8"?>
<!-- Generator: Adobe Illustrator 16.0.4, SVG Export Plug-In . SVG Version: 6.00 Build 0)  -->
<!DOCTYPE svg PUBLIC "-//W3C//DTD SVG 1.1//EN" "http://www.w3.org/Graphics/SVG/1.1/DTD/svg11.dtd">
<svg version="1.1" id="Layer_1" xmlns="http://www.w3.org/2000/svg" xmlns:xlink="http://www.w3.org/1999/xlink" x="0px" y="0px"
	 width="239.333px" height="238.667px" viewBox="0 0 239.333 238.667" enable-background="new 0 0 239.333 238.667"
	 xml:space="preserve">
<rect x="26.532" y="23.409" fill="#010101" width="195.468" height="195.468"/>
<path fill="#FFFFFF" d="M57.223,144.515l-2.423-5.396h-7.687l-0.077,0.209c-0.678,1.565-1.407,3.362-2.059,4.977H42.11l6.201-13.342
	c1.015-2.189,1.694-3.725,2.266-5.233l0.679-0.185l6.252,13.419c0.732,1.615,1.747,3.727,2.58,5.341L57.223,144.515z
	 M53.836,136.982l-2.893-6.485l-2.865,6.485H53.836z"/>
<path fill="#FFFFFF" d="M76.77,144.488l-4.69-7.375H69.24v3.442c0,1.014,0.023,3.021,0.103,3.751h-2.892
	c0.13-1.253,0.182-4.589,0.182-6.281v-5.759c0-1.668-0.052-5.027-0.182-6.278c0.938,0,3.595-0.103,4.793-0.129
	c4.587-0.079,7.113,2.448,7.036,5.339c-0.079,2.53-1.355,4.197-3.831,5.316l2.66,3.909c0.702,0.989,2.136,2.996,2.736,3.726
	L76.77,144.488z M69.24,134.952h2.63c2.397,0,3.727-1.59,3.727-3.415c0-2.241-1.355-3.411-4.09-3.411
	c-0.836,0-1.565,0.025-2.244,0.075c-0.023,0.522-0.023,1.123-0.023,1.513V134.952z"/>
<path fill="#FFFFFF" d="M99.287,128.202c-2.007-0.025-3.752-0.051-6.071-0.051c-0.028,0.549-0.028,1.224-0.028,1.641v10.764
	c0,1.014,0.028,3.021,0.107,3.75h-2.893c0.13-1.251,0.181-4.587,0.181-6.28v-5.652c0-1.068-0.025-2.761-0.077-4.222
	c-2.32,0-4.145,0.025-6.149,0.051c0.077-0.676,0.104-1.561,0.104-2.369c2.37,0.076,4.587,0.13,7.426,0.13
	c2.84,0,5.209-0.054,7.609-0.13C99.366,126.587,99.312,127.343,99.287,128.202"/>
<path fill="#FFFFFF" d="M44.924,173.029c0.132-1.252,0.183-4.587,0.183-6.28v-5.759c0-1.668-0.051-5.027-0.183-6.279
	c1.044,0,2.034-0.025,2.893-0.129c-0.077,0.756-0.104,2.838-0.104,3.855v10.84c0,0.989,0.027,3.022,0.104,3.752H44.924z"/>
<path fill="#FFFFFF" d="M72.572,158.436l-0.18,10.997c0,1.016-0.026,3.127,0.051,3.856l-0.677,0.182l-11.96-13.731v9.537
	c0,1.016,0.025,3.022,0.104,3.752h-2.866c0.157-1.251,0.287-4.587,0.313-6.28l0.104-6.277c0.026-1.669,0.026-4.771-0.104-6.02
	l0.703-0.185l12.065,13.94v-7.218c0-1.668-0.053-5.027-0.209-6.278c1.042,0,1.98-0.027,2.866-0.129
	C72.678,155.337,72.599,157.42,72.572,158.436"/>
<path fill="#FFFFFF" d="M85.243,173.498c-1.694,0-3.778-0.652-5.133-1.537l0.156-2.762c1.043,0.938,3.179,1.951,5.133,1.951
	c1.955,0,3.335-0.962,3.335-2.892c0-3.644-7.895-3.828-7.895-8.624c0-2.942,2.37-5.367,5.758-5.367c1.746,0,3.256,0.601,4.274,1.357
	l-0.862,2.292c-0.884-0.729-2.343-1.304-3.514-1.304c-1.905,0-3.05,1.019-3.05,2.658c0,3.257,7.868,3.413,7.868,8.625
	C91.313,171.049,89.021,173.498,85.243,173.498"/>
<path fill="#FFFFFF" d="M112.004,156.925c-2.006-0.027-3.751-0.051-6.07-0.051c-0.028,0.546-0.028,1.224-0.028,1.641v10.762
	c0,1.016,0.028,3.023,0.107,3.752h-2.893c0.13-1.251,0.181-4.587,0.181-6.28v-5.652c0-1.068-0.025-2.764-0.078-4.222
	c-2.319,0-4.144,0.023-6.148,0.051c0.077-0.676,0.103-1.562,0.103-2.369c2.371,0.077,4.588,0.128,7.427,0.128
	c2.839,0,5.209-0.051,7.608-0.128C112.084,155.311,112.031,156.067,112.004,156.925"/>
<path fill="#FFFFFF" d="M119.069,173.029c0.133-1.252,0.184-4.587,0.184-6.28v-5.759c0-1.668-0.051-5.027-0.184-6.279
	c1.045,0,2.034-0.025,2.893-0.129c-0.077,0.756-0.104,2.838-0.104,3.855v10.84c0,0.989,0.027,3.022,0.104,3.752H119.069z"/>
<path fill="#FFFFFF" d="M143.594,156.925c-2.008-0.027-3.752-0.051-6.071-0.051c-0.028,0.546-0.028,1.224-0.028,1.641v10.762
	c0,1.016,0.028,3.023,0.107,3.752h-2.893c0.129-1.251,0.181-4.587,0.181-6.28v-5.652c0-1.068-0.024-2.764-0.077-4.222
	c-2.32,0-4.145,0.023-6.148,0.051c0.076-0.676,0.104-1.562,0.104-2.369c2.37,0.077,4.587,0.128,7.426,0.128
	c2.84,0,5.209-0.051,7.609-0.128C143.672,155.311,143.619,156.067,143.594,156.925"/>
<path fill="#FFFFFF" d="M166.579,154.739l-5.835,13.341c-0.967,2.214-1.592,3.725-2.111,5.233l-0.678,0.185l-5.835-13.394
	c-0.706-1.641-1.668-3.752-2.451-5.343l2.866-0.207l5.706,13.681l3.517-8.52c0.627-1.54,1.307-3.336,1.905-4.977H166.579z"/>
<path fill="#FFFFFF" d="M186.229,156.925c-2.007-0.027-3.751-0.051-6.07-0.051c-0.027,0.546-0.027,1.224-0.027,1.641v10.762
	c0,1.016,0.027,3.023,0.106,3.752h-2.893c0.13-1.251,0.181-4.587,0.181-6.28v-5.652c0-1.068-0.024-2.764-0.077-4.222
	c-2.319,0-4.145,0.023-6.148,0.051c0.077-0.676,0.103-1.562,0.103-2.369c2.37,0.077,4.589,0.128,7.428,0.128
	s5.208-0.051,7.607-0.128C186.309,155.311,186.257,156.067,186.229,156.925"/>
<path fill="#FFFFFF" d="M204.632,173.133c-1.564-0.104-3.492-0.132-5.343-0.132c-1.85,0-3.804,0.027-5.342,0.132
	c0.131-1.25,0.183-4.612,0.183-6.278v-6.022c0-1.69-0.052-5.026-0.183-6.276c1.538,0.077,3.309,0.128,5.16,0.128
	c1.85,0,3.62-0.051,5.185-0.128c-0.13,0.755-0.182,1.457-0.21,2.318c-1.536-0.026-3.125-0.052-4.975-0.052
	c-0.782,0-1.565,0-2.32,0.025c-0.051,0.47-0.051,1.145-0.051,1.538v3.934h6.331c-0.054,0.65-0.079,1.355-0.079,2.138h-6.252v4.819
	c0,0.389,0,1.095,0.051,1.562c0.755,0,1.538,0.026,2.32,0.026c2.109,0,3.935-0.026,5.705-0.077
	C204.709,171.544,204.655,172.273,204.632,173.133"/>
<path fill="#FFFFFF" d="M58.474,200.136c-1.745,1.355-3.751,2.084-5.968,2.084c-5.34,0-9.118-4.247-9.118-9.146
	c0-5.628,4.065-10.082,9.614-10.082c1.955,0,4.041,0.649,5.419,1.641l-0.729,2.397c-1.302-1.042-3.075-1.693-4.846-1.693
	c-3.962,0-6.774,3.127-6.774,7.192c0,4.766,2.919,7.345,6.59,7.345c2.451,0,4.248-0.989,5.996-2.63L58.474,200.136z"/>
<path fill="#FFFFFF" d="M78.411,201.752c0.156-1.252,0.209-4.587,0.209-6.282v-2.186h-9.563V198c0,0.989,0.025,3.022,0.104,3.752
	h-2.893c0.131-1.252,0.184-4.587,0.184-6.282v-5.757c0-1.668-0.053-5.027-0.184-6.279c1.043,0,2.034-0.025,2.893-0.131
	c-0.079,0.756-0.104,2.84-0.104,3.857v3.986h9.563v-1.434c0-1.668-0.053-5.027-0.209-6.279c1.042,0,2.057-0.025,2.945-0.131
	c-0.106,0.756-0.131,2.84-0.131,3.857V198c0,0.989,0.025,3.022,0.131,3.752H78.411z"/>
<path fill="#FFFFFF" d="M90.688,201.752c0.133-1.252,0.184-4.587,0.184-6.282v-5.757c0-1.668-0.051-5.027-0.184-6.279
	c1.045,0,2.034-0.025,2.893-0.131c-0.076,0.756-0.104,2.84-0.104,3.857V198c0,0.989,0.028,3.022,0.104,3.752H90.688z"/>
<path fill="#FFFFFF" d="M116.488,200.136c-1.745,1.355-3.752,2.084-5.969,2.084c-5.339,0-9.117-4.247-9.117-9.146
	c0-5.628,4.065-10.082,9.614-10.082c1.954,0,4.04,0.649,5.418,1.641l-0.729,2.397c-1.301-1.042-3.075-1.693-4.846-1.693
	c-3.961,0-6.773,3.127-6.773,7.192c0,4.766,2.919,7.345,6.59,7.345c2.45,0,4.247-0.989,5.995-2.63L116.488,200.136z"/>
<path fill="#FFFFFF" d="M136.974,201.96l-2.423-5.396h-7.688l-0.076,0.211c-0.679,1.563-1.408,3.36-2.061,4.977h-2.865l6.201-13.341
	c1.016-2.19,1.693-3.726,2.266-5.236l0.68-0.185l6.252,13.419c0.732,1.617,1.746,3.727,2.58,5.343L136.974,201.96z M133.588,194.429
	l-2.894-6.488l-2.864,6.488H133.588z"/>
<path fill="#FFFFFF" d="M158.111,193.151c1.039-0.014,1.553-0.038,2.698-0.099c-0.129,0.988-0.092,3.54-0.092,5.234v2.005
	c-1.462,0.966-3.336,1.931-6.491,1.931c-5.34,0-9.43-4.248-9.43-9.148c0-5.785,4.298-10.082,9.926-10.082
	c2.191,0,4.352,0.703,5.785,1.641l-0.73,2.396c-1.304-1.041-3.439-1.693-5.211-1.693c-4.195,0-7.087,2.973-7.087,7.192
	c0,4.9,3.232,7.347,6.904,7.347c1.512,0,2.735-0.261,3.778-0.833v-3.178c0-0.393,0-1.095-0.051-1.563V193.151z"/>
<path fill="#FFFFFF" d="M186.073,192.136c0,5.629-3.831,10.085-9.406,10.085c-5.315,0-8.886-4.221-8.886-9.148
	c0-5.628,3.83-10.082,9.407-10.082C182.503,182.991,186.073,187.212,186.073,192.136 M183.391,192.555c0-4.614-2.816-7.35-6.49-7.35
	c-3.854,0-6.435,3.389-6.435,7.452c0,4.613,2.812,7.35,6.486,7.35C180.811,200.007,183.391,196.619,183.391,192.555"/>
</svg>
