<?xml version="1.0" encoding="utf-8"?>
<!-- Generator: Adobe Illustrator 18.1.1, SVG Export Plug-In . SVG Version: 6.00 Build 0)  -->
<svg version="1.1" id="Layer_1" xmlns="http://www.w3.org/2000/svg" xmlns:xlink="http://www.w3.org/1999/xlink" x="0px" y="0px"
	 viewBox="105 -104.7 239.3 238.7" enable-background="new 105 -104.7 239.3 238.7" xml:space="preserve">
<polygon fill="#010101" points="232.8,89.8 238.6,89.8 235.7,83.3 "/>
<path fill="#010101" d="M131.5-81.3v195.5H327V-81.3H131.5z M189.5,21.2c2.4,0.1,4.6,0.1,7.4,0.1c2.8,0,5.2-0.1,7.6-0.1
	c-0.1,0.8-0.2,1.5-0.2,2.4c-2,0-3.8-0.1-6.1-0.1c0,0.5,0,1.2,0,1.6v10.8c0,1,0,3,0.1,3.8h-2.9c0.1-1.3,0.2-4.6,0.2-6.3v-5.7
	c0-1.1,0-2.8-0.1-4.2c-2.3,0-4.1,0-6.1,0.1C189.4,22.9,189.5,22,189.5,21.2z M171.5,21.3c0.9,0,3.6-0.1,4.8-0.1
	c4.6-0.1,7.1,2.4,7,5.3c-0.1,2.5-1.4,4.2-3.8,5.3l2.7,3.9c0.7,1,2.1,3,2.7,3.7l-3.1,0.3l-4.7-7.4h-2.8v3.4c0,1,0,3,0.1,3.8h-2.9
	c0.1-1.3,0.2-4.6,0.2-6.3v-5.8C171.6,25.9,171.6,22.6,171.5,21.3z M153.3,26.3c1-2.2,1.7-3.7,2.3-5.2l0.7-0.2l6.3,13.4
	c0.7,1.6,1.7,3.7,2.6,5.3l-2.9,0.2l-2.4-5.4h-7.7l-0.1,0.2c-0.7,1.6-1.4,3.4-2.1,5h-2.9L153.3,26.3z M152.8,68.4h-2.9
	c0.1-1.3,0.2-4.6,0.2-6.3v-5.8c0-1.7-0.1-5-0.2-6.3c1,0,2,0,2.9-0.1c-0.1,0.8-0.1,2.8-0.1,3.9v10.8
	C152.7,65.6,152.7,67.6,152.8,68.4z M163.5,95.5c-1.7,1.4-3.8,2.1-6,2.1c-5.3,0-9.1-4.2-9.1-9.1c0-5.6,4.1-10.1,9.6-10.1
	c2,0,4,0.6,5.4,1.6l-0.7,2.4c-1.3-1-3.1-1.7-4.8-1.7c-4,0-6.8,3.1-6.8,7.2c0,4.8,2.9,7.3,6.6,7.3c2.5,0,4.2-1,6-2.6L163.5,95.5z
	 M162,68.4c0.2-1.3,0.3-4.6,0.3-6.3l0.1-6.3c0-1.7,0-4.8-0.1-6l0.7-0.2l12.1,13.9v-7.2c0-1.7-0.1-5-0.2-6.3c1,0,2,0,2.9-0.1
	c-0.1,0.8-0.2,2.8-0.2,3.9l-0.2,11c0,1,0,3.1,0.1,3.9l-0.7,0.2l-12-13.7v9.5c0,1,0,3,0.1,3.8H162z M186.4,97.1h-2.9
	c0.2-1.3,0.2-4.6,0.2-6.3v-2.2h-9.6v4.7c0,1,0,3,0.1,3.8h-2.9c0.1-1.3,0.2-4.6,0.2-6.3V85c0-1.7-0.1-5-0.2-6.3c1,0,2,0,2.9-0.1
	c-0.1,0.8-0.1,2.8-0.1,3.9v4h9.6V85c0-1.7-0.1-5-0.2-6.3c1,0,2.1,0,2.9-0.1c-0.1,0.8-0.1,2.8-0.1,3.9v10.8
	C186.2,94.3,186.2,96.4,186.4,97.1z M190.2,68.8c-1.7,0-3.8-0.7-5.1-1.5l0.2-2.8c1,0.9,3.2,2,5.1,2c2,0,3.3-1,3.3-2.9
	c0-3.6-7.9-3.8-7.9-8.6c0-2.9,2.4-5.4,5.8-5.4c1.7,0,3.3,0.6,4.3,1.4l-0.9,2.3c-0.9-0.7-2.3-1.3-3.5-1.3c-1.9,0-3,1-3,2.7
	c0,3.3,7.9,3.4,7.9,8.6C196.3,66.4,194,68.8,190.2,68.8z M198.6,97.1h-2.9c0.1-1.3,0.2-4.6,0.2-6.3V85c0-1.7-0.1-5-0.2-6.3
	c1,0,2,0,2.9-0.1c-0.1,0.8-0.1,2.8-0.1,3.9v10.8C198.5,94.3,198.5,96.4,198.6,97.1z M202.2,49.9c2.4,0.1,4.6,0.1,7.4,0.1
	s5.2-0.1,7.6-0.1c-0.1,0.8-0.2,1.5-0.2,2.4c-2,0-3.8-0.1-6.1-0.1c0,0.5,0,1.2,0,1.6v10.8c0,1,0,3,0.1,3.8h-2.9
	c0.1-1.3,0.2-4.6,0.2-6.3v-5.7c0-1.1,0-2.8-0.1-4.2c-2.3,0-4.1,0-6.1,0.1C202.2,51.6,202.2,50.7,202.2,49.9z M221.5,95.5
	c-1.7,1.4-3.8,2.1-6,2.1c-5.3,0-9.1-4.2-9.1-9.1c0-5.6,4.1-10.1,9.6-10.1c2,0,4,0.6,5.4,1.6l-0.7,2.4c-1.3-1-3.1-1.7-4.8-1.7
	c-4,0-6.8,3.1-6.8,7.2c0,4.8,2.9,7.3,6.6,7.3c2.4,0,4.2-1,6-2.6L221.5,95.5z M224.1,50c1,0,2,0,2.9-0.1c-0.1,0.8-0.1,2.8-0.1,3.9
	v10.8c0,1,0,3,0.1,3.8h-2.9c0.1-1.3,0.2-4.6,0.2-6.3v-5.8C224.3,54.7,224.2,51.3,224.1,50z M242,97.3l-2.4-5.4h-7.7l-0.1,0.2
	c-0.7,1.6-1.4,3.4-2.1,5h-2.9l6.2-13.3c1-2.2,1.7-3.7,2.3-5.2l0.7-0.2l6.3,13.4c0.7,1.6,1.7,3.7,2.6,5.3L242,97.3z M248.6,52.3
	c-2,0-3.8-0.1-6.1-0.1c0,0.5,0,1.2,0,1.6v10.8c0,1,0,3,0.1,3.8h-2.9c0.1-1.3,0.2-4.6,0.2-6.3v-5.7c0-1.1,0-2.8-0.1-4.2
	c-2.3,0-4.1,0-6.1,0.1c0.1-0.7,0.1-1.6,0.1-2.4c2.4,0.1,4.6,0.1,7.4,0.1c2.8,0,5.2-0.1,7.6-0.1C248.7,50.6,248.6,51.4,248.6,52.3z
	 M265.7,93.6v2c-1.5,1-3.3,1.9-6.5,1.9c-5.3,0-9.4-4.2-9.4-9.1c0-5.8,4.3-10.1,9.9-10.1c2.2,0,4.4,0.7,5.8,1.6l-0.7,2.4
	c-1.3-1-3.4-1.7-5.2-1.7c-4.2,0-7.1,3-7.1,7.2c0,4.9,3.2,7.3,6.9,7.3c1.5,0,2.7-0.3,3.8-0.8v-3.2c0-0.4,0-1.1-0.1-1.6v-1.2h0
	c1,0,1.6,0,2.7-0.1C265.7,89.4,265.7,91.9,265.7,93.6z M271.6,50.1l-5.8,13.3c-1,2.2-1.6,3.7-2.1,5.2l-0.7,0.2l-5.8-13.4
	c-0.7-1.6-1.7-3.8-2.5-5.3l2.9-0.2l5.7,13.7l3.5-8.5c0.6-1.5,1.3-3.3,1.9-5L271.6,50.1L271.6,50.1z M281.7,97.6
	c-5.3,0-8.9-4.2-8.9-9.1c0-5.6,3.8-10.1,9.4-10.1c5.3,0,8.9,4.2,8.9,9.1C291.1,93.1,287.2,97.6,281.7,97.6z M291.2,52.3
	c-2,0-3.8-0.1-6.1-0.1c0,0.5,0,1.2,0,1.6v10.8c0,1,0,3,0.1,3.8h-2.9c0.1-1.3,0.2-4.6,0.2-6.3v-5.7c0-1.1,0-2.8-0.1-4.2
	c-2.3,0-4.1,0-6.1,0.1c0.1-0.7,0.1-1.6,0.1-2.4c2.4,0.1,4.6,0.1,7.4,0.1s5.2-0.1,7.6-0.1C291.3,50.6,291.3,51.4,291.2,52.3z
	 M309.6,68.5c-1.6-0.1-3.5-0.1-5.3-0.1c-1.8,0-3.8,0-5.3,0.1c0.1-1.2,0.2-4.6,0.2-6.3v-6c0-1.7-0.1-5-0.2-6.3
	c1.5,0.1,3.3,0.1,5.2,0.1c1.9,0,3.6-0.1,5.2-0.1c-0.1,0.8-0.2,1.5-0.2,2.3c-1.5,0-3.1-0.1-5-0.1c-0.8,0-1.6,0-2.3,0
	c-0.1,0.5-0.1,1.1-0.1,1.5v3.9h6.3c-0.1,0.7-0.1,1.4-0.1,2.1h-6.3v4.8c0,0.4,0,1.1,0.1,1.6c0.8,0,1.5,0,2.3,0c2.1,0,3.9,0,5.7-0.1
	C309.7,66.9,309.7,67.6,309.6,68.5z"/>
<path fill="#010101" d="M281.9,80.5c-3.9,0-6.4,3.4-6.4,7.5c0,4.6,2.8,7.3,6.5,7.3c3.9,0,6.4-3.4,6.4-7.5
	C288.4,83.3,285.6,80.5,281.9,80.5z"/>
<polygon fill="#010101" points="155.9,25.8 153.1,32.3 158.8,32.3 "/>
<path fill="#010101" d="M180.6,26.9c0-2.2-1.4-3.4-4.1-3.4c-0.8,0-1.6,0-2.2,0.1c0,0.5,0,1.1,0,1.5v5.2h2.6
	C179.3,30.3,180.6,28.7,180.6,26.9z"/>
</svg>
