<?xml version="1.0" encoding="utf-8"?>
<!-- Generator: Adobe Illustrator 16.0.4, SVG Export Plug-In . SVG Version: 6.00 Build 0)  -->
<!DOCTYPE svg PUBLIC "-//W3C//DTD SVG 1.1//EN" "http://www.w3.org/Graphics/SVG/1.1/DTD/svg11.dtd">
<svg version="1.1" id="Layer_1" xmlns="http://www.w3.org/2000/svg" xmlns:xlink="http://www.w3.org/1999/xlink" x="0px" y="0px"
	 width="321px" height="143px" viewBox="0 0 321 143" enable-background="new 0 0 321 143" xml:space="preserve">
<g>
	<g>
		<path d="M42.371,68.488c0,18.317,15.158,33.691,33.79,34.27l0.068-2.199c-17.456-0.543-31.658-14.93-31.658-32.071H42.371z"/>
	</g>
	<g>
		<path d="M59.07,69.45c0,9.598,7.809,17.407,17.407,17.407v-1c-9.047,0-16.407-7.36-16.407-16.407
			c0-8.696,6.794-15.891,15.468-16.38l-0.057-0.998C66.279,52.59,59.07,60.224,59.07,69.45z"/>
	</g>
	<polygon points="91.475,33.397 91.475,30.502 76.49,34.749 76.49,37.643 	"/>
	<polygon points="91.475,38.638 91.475,35.744 76.49,39.99 76.49,42.885 	"/>
	<polygon points="91.475,43.946 91.475,41.051 76.49,45.297 76.49,48.192 	"/>
	<path d="M168.284,85.844V52.802h-4.596l-0.056,9.803h-8.749V49.442h45.355v13.164h-9.196l-0.001-9.803h-4.203v33.042h3.681v3.375
		h-25.917v-3.375H168.284z"/>
	<path d="M201.938,89.219v-3.354h4.115V52.858h-4.115v-3.416h45.789v13.339h-9.358v-9.923h-13.762v13.366l12.444,0.009v3.738
		l-12.444,0.03v15.865h13.868V74.734h8.99v14.485H201.938z"/>
	<path d="M250.785,75.498h8.915c0,7.689,5.3,11.208,11.271,11.208c5.964,0,8.494-0.37,8.494-3.751
		c0-8.277-29.318-5.346-29.318-20.923c0-9.192,5.904-13.509,23.133-13.509c6.111,0,11.202,1.438,17.142,3.104v11.158h-8.341
		c0-6.075-4.121-10.983-9.979-10.983c-5.965,0-9.131,1.019-9.131,3.389c0,8.277,30.782,6.438,30.782,20.981
		c0,11.178-4.605,13.968-23.492,13.968c-5.669,0-12.886-0.919-19.476-3.161V75.498z"/>
	<g>
		<rect x="92.635" y="67.676" width="30.924" height="1"/>
	</g>
	<path d="M160.215,85.879l-17.312-36.54h-13.038l-16.233,36.534h-3.229l-0.02,3.373h10.907l0.021-3.373h-3.333l4.41-10.245h13.488
		l4.761,10.251h-5.049v3.367h27.123v-3.367H160.215z M123.687,72.6l5.056-12.612L134.49,72.6H123.687z"/>
	<g>
		<rect x="75.791" y="23.028" width="1" height="26.336"/>
	</g>
	<g>
		<rect x="29.807" y="67.676" width="37.379" height="1"/>
	</g>
	<g>
		<rect x="75.791" y="89.162" width="1" height="24.53"/>
	</g>
	<path d="M93.993,49.442c11.192,0,17.229,0.917,17.229,9.025c0,9.251-7.025,9.427-15.051,9.542v0.115
		c8.762,0.402,16.818,0.834,16.818,10.634c0,10.452-11.781,10.462-20.396,10.462H63.658v-3.291h3.534V52.753h-3.534v-3.311H93.993z
		 M84.695,85.928h1.675c5.007,0,5.994-1.075,5.994-7.573c0-7.204-0.987-8.451-5.994-8.451h-1.675V85.928z M84.695,66.417h2.338
		c3.755,0,4.889-1.932,4.889-7.318c0-4.983-1.134-6.346-4.889-6.346h-2.338V66.417z"/>
	<circle cx="43.7" cy="65.209" r="1.118"/>
	<circle cx="44.348" cy="61.554" r="1.118"/>
	<circle cx="45.401" cy="57.982" r="1.118"/>
	<circle cx="46.848" cy="54.581" r="1.118"/>
	<circle cx="48.671" cy="51.348" r="1.118"/>
	<circle cx="50.852" cy="48.34" r="1.118"/>
	<circle cx="53.371" cy="45.613" r="1.118"/>
	<circle cx="56.171" cy="43.188" r="1.118"/>
	<circle cx="59.235" cy="41.103" r="1.118"/>
	<circle cx="62.524" cy="39.373" r="1.118"/>
	<circle cx="65.983" cy="38.038" r="1.118"/>
	<circle cx="69.573" cy="37.08" r="1.118"/>
	<circle cx="73.239" cy="36.553" r="1.118"/>
	<g>
		<path d="M294.503,50.69c1.229,0,2.21,1,2.21,2.25c0,1.27-0.98,2.26-2.221,2.26c-1.229,0-2.229-0.99-2.229-2.26
			c0-1.25,1-2.25,2.229-2.25H294.503z M294.492,51.041c-0.989,0-1.8,0.85-1.8,1.9c0,1.07,0.811,1.91,1.811,1.91
			c1,0.01,1.8-0.84,1.8-1.9c0-1.06-0.8-1.91-1.8-1.91H294.492z M294.072,54.25h-0.399v-2.51c0.21-0.03,0.41-0.06,0.71-0.06
			c0.38,0,0.63,0.08,0.78,0.19c0.149,0.11,0.229,0.28,0.229,0.52c0,0.33-0.22,0.53-0.49,0.61v0.02c0.221,0.04,0.37,0.24,0.42,0.61
			c0.061,0.39,0.12,0.54,0.16,0.62h-0.42c-0.06-0.08-0.12-0.31-0.17-0.64c-0.06-0.32-0.22-0.44-0.54-0.44h-0.28V54.25z
			 M294.072,52.86h0.29c0.33,0,0.61-0.12,0.61-0.43c0-0.22-0.16-0.44-0.61-0.44c-0.13,0-0.22,0.01-0.29,0.02V52.86z"/>
	</g>
</g>
</svg>
