<?xml version="1.0" encoding="utf-8"?>
<!-- Generator: Adobe Illustrator 16.0.4, SVG Export Plug-In . SVG Version: 6.00 Build 0)  -->
<!DOCTYPE svg PUBLIC "-//W3C//DTD SVG 1.1//EN" "http://www.w3.org/Graphics/SVG/1.1/DTD/svg11.dtd">
<svg version="1.1" id="Layer_1" xmlns="http://www.w3.org/2000/svg" xmlns:xlink="http://www.w3.org/1999/xlink" x="0px" y="0px"
	 width="617px" height="211px" viewBox="0 0 617 211" enable-background="new 0 0 617 211" xml:space="preserve">
<g>
	<path fill="#231F20" d="M577.01,105.572c-0.643-1.597-2.581-2.711-5.055-2.939c-7.067-0.652-10.963,3.047-14.891,9.236
		c-1.296,0.725-2.632,1.536-4.049,2.409c1.508-2.464,2.288-4.603,2.35-6.562c0.153-3.794-2.954-6.824-7.403-7.199
		c-6.657-0.559-16.894,6.937-26.666,14.247c-4.02,3-7.818,5.863-11.259,8.076c-7.719,5.038-13.025,7.053-17.754,6.75
		c-1.541-0.099-2.595-0.512-3.119-1.227c-0.339-0.449-0.505-1.113-0.497-1.933c0.024-0.898,0.25-2.007,0.664-3.339
		c20.674-2.544,33.258-10.77,33.454-17.484c0.092-4.103-3.968-7.281-9.891-7.702c-8.272-0.59-20.066,3.988-31.408,12.263
		c-0.115,0.076-6.831,5.303-11.318,8.553c0.36-1.945,0.468-3.841,0.466-5.001c0.011-1.768-0.143-3.363-0.304-5.06
		c-0.186-1.941-0.388-3.972-0.369-6.565c0.006-1.603,0.006-1.603,1.457-1.938c0,0,0.024,0,0.043,0.002
		c0.517-0.079,5.832-0.851,5.88-4.837c0.019-2.38-1.909-4.049-4.928-4.219c-3.038-0.171-5.731,1.522-8.022,4.985
		c-7.089,5.065-12.555,9.467-17.354,13.379c-1.672,1.35-3.344,2.7-5.011,4.05c-5.296,4.217-12.732,9.725-18.303,11.912
		c-1.739,0.705-3.261,0.712-3.546,0.489c0,0,0.003-0.019,0-0.061c-0.005-0.141,0.06-0.449,0.369-1.051
		c1.319-2.369,19.061-21.79,25.924-29.013c0.483-0.507,0.965-1.011,1.448-1.518c-5.433,0.028-10.868,0.07-16.299,0.126
		c-0.073,0.059-0.14,0.11-0.21,0.163c-6.527,4.444-11.332,8.438-15.961,12.309c-1.613,1.332-3.227,2.665-4.836,4
		c-0.229,0.182-0.455,0.366-0.684,0.547c-6.218,5.074-16.544,13.572-25.004,13.363c-1.581-0.038-2.664-0.432-3.234-1.206
		c-0.377-0.471-0.557-1.12-0.581-1.921c-0.011-0.898,0.199-2.004,0.589-3.221c20.547-3.381,32.812-12.091,32.736-18.831
		c-0.062-4.76-5.307-7.129-10.181-7.278c-8.339-0.274-19.671,4.633-30.895,13.473c-1.086,0.882-2.178,1.759-3.261,2.64
		c-1.633,1.366-3.02,2.53-4.283,3.37c-3.1,1.993-5.667,2.896-7.506,3.268c7.406-7.248,12.256-14.447,12.141-18.384
		c-0.072-2.414-1.481-4.327-3.804-5.118c-2.774-0.93-6.07-0.058-7.858,2.099c-1.61,1.965-2.086,4.217-2.656,6.799
		c-0.416,1.941-0.876,4.149-1.938,6.602c-4.438,10.401-16.297,16.17-22.929,16.821c-1.774,0.168-2.656-0.099-2.853-0.375
		c-0.143-0.195-0.134-0.683,0.328-1.489c1.486-2.505,5.807-7.523,11.312-13.849c3.923-4.502,8.369-9.577,12.982-15.091
		c0.433-0.509,0.857-1.021,1.288-1.534c-5.222,0.163-10.444,0.336-15.666,0.525c-0.086,0.108-0.169,0.213-0.258,0.317
		c-13.737,16.943-27.413,29.263-35.184,31.283c-1.5,0.405-1.913,0.286-1.999,0.25c-0.044-0.024-0.063-0.071-0.063-0.145
		c-0.023-0.455,0.667-1.641,2.093-3.501c4.119-5.388,14.171-17.289,19.649-23.651c1.52-1.778,3.043-3.559,4.57-5.335
		c-0.736,0.036-1.476,0.07-2.21,0.1c-4.583,0.202-9.17,0.413-13.753,0.633c-0.078,0.058-0.156,0.113-0.231,0.171
		c-3.175,2.359-24.494,20.846-25.352,21.655c-7.31,6.097-10.886,8.485-12.626,9.399c-0.768,0.384-1.222,0.5-1.422,0.511
		c0-0.021-0.004-0.014-0.004-0.049c-0.021-0.154,0.009-0.43,0.127-0.906c0.652-2.396,12.063-17.972,23.363-32.908
		c5.551-7.347,11.32-14.923,16.421-21.674c0.368-0.504,0.745-1.001,1.113-1.502c-5.076,0.176-10.153,0.365-15.228,0.567
		c-0.049-0.016-18.277,25.352-19.987,27.845c-1.113-1.805-3.617-3.917-9.157-3.823c-7.549,0.116-19.268,5.695-29.688,14.224
		c-1.643,1.409-3.283,2.827-4.921,4.242c-6.087,5.296-15.198,13.365-18.692,15.545c-0.939,0.57-1.442,0.55-1.533,0.512
		c-0.021-0.017-0.024-0.055-0.034-0.122c-0.011-0.187,0.018-0.523,0.278-1.051c0.532-1.085,1.616-2.482,2.987-4.277
		c0,0-0.11,0.069-0.174,0.101c0.41-0.387,1.206-1.422,3.398-4.248c6.185-7.986,12.426-15.95,18.722-23.892
		c-5.233,0.374-10.461,0.768-15.688,1.175c-0.075,0.107-0.151,0.218-0.229,0.325c-12.92,17.36-26.004,30.219-33.701,32.677
		c-1.533,0.5-2.049,0.407-2.156,0.374l-0.005-0.014c-0.014-0.129-0.006-0.423,0.201-0.977c0.791-2.186,14.312-19.584,20.2-26.99
		c1.49-1.899,2.984-3.801,4.481-5.698c-0.724,0.058-1.447,0.119-2.169,0.176c-4.696,0.38-9.387,0.77-14.078,1.176
		c-0.086,0.087-0.168,0.176-0.254,0.264c-6.691,7.463-16.165,15.878-21.604,20.602c0.203-1.28,0.264-2.565,0.143-3.815
		c-0.2-1.899-0.765-3.743-1.739-5.484c-1.674-3.086-4.405-5.53-7.81-7.082c16.706-4.179,21.945-14.337,21.199-22.186
		c-0.639-6.73-7.39-13.625-18.623-13.029c-4.317,0.229-13.319,0.729-23.95,13.14c-1.408-0.46-2.806-0.835-4.171-1.153
		c1.844-3.307,2.064-5.685,1.972-7.571c-0.012-0.314-0.023-0.63-0.031-0.945c-4.597,0.287-9.194,0.586-13.789,0.896
		c0,0-2.941,3.639-3.494,4.344c-13.165-2.498-25.352-3.31-36.189-2.429C62.861,72.138,51.438,82.892,52.79,92.22
		c1.081,7.502,10.752,14.203,29.962,12.626c6.722-0.543,13.699-2.077,20.069-4.257c-1.707,2.313-3.686,4.917-5.766,7.657
		c-7.229,9.525-15.312,20.371-17.032,26.565c-0.569,2.067-0.726,3.961-0.503,5.629c0.327,2.382,1.432,4.308,3.26,5.556
		c3.341,2.291,8.343,1.836,13.106-1.162c3.546-2.219,7.713-5.979,12.438-11.127c0.512,2.378,1.833,4.655,3.893,6.467
		c2.761,2.428,8.08,5.17,17.712,4.511c20.622-1.39,33.177-12.646,47.996-25.629c0,0,0.535-0.471,0.695-0.624
		c-1.399,3.148-1.266,4.877-1.174,5.853c0.428,4.285,3.906,8.467,10.704,8.151c4.264-0.199,9.759-3.205,16.409-8.859
		c0.003,0.049,0.003,0.076,0.006,0.136c0.23,2.625,1.621,4.987,3.885,6.399c3.173,1.98,7.187,1.666,11.052-0.867
		c2.863-1.894,10.882-8.688,14.681-11.907c-0.043,0.675-0.052,1.35-0.002,2.019c0.23,2.974,1.311,5.777,3.067,7.727
		c2.009,2.227,4.831,3.378,8.198,3.288c4.744-0.124,10.188-2.679,15.866-7.344c0.131,1.439,0.578,3.21,1.938,4.6
		c1.46,1.521,3.606,2.285,6.362,2.238c5.753-0.097,9.995-3.525,17.073-9.154c0.058-0.044,2.984-2.364,6.172-5.023
		c-0.85,1.792-1.28,3.492-1.173,5.228c0.289,5.178,4.44,8.627,10.323,8.595c4.361-0.02,10.116-2.91,17.152-8.474
		c0.221,2.037,1.059,4,2.451,5.451c1.796,1.886,4.366,2.882,7.434,2.898c6.479,0.031,14.453-3.047,23.091-8.856
		c4.046,0.471,11.481-0.41,17.651-4.515c0.011,0.176-0.043,0.359-0.026,0.538c0.102,3.253,1.336,6.526,3.519,8.974
		c1.86,2.115,5.253,4.663,10.926,4.807c6.742,0.162,13.272-2.488,22.636-9.126c1.643-1.203,3.532-2.61,5.598-4.229
		c-0.989,1.82-1.618,3.672-1.597,5.479c0.072,5.184,4.008,8.806,9.793,9.021c4.734,0.181,9.808-2.547,17.614-7.881
		c-0.069,0.327-0.121,0.666-0.118,1.041c0.019,3.481,3.064,7.699,11.558,8.112c9.474,0.468,16.248-3.87,27.787-12.184
		c-0.006,0.095-0.035,0.176-0.027,0.281c-0.029,3.267,1.095,6.526,3.196,9.051c1.802,2.184,5.127,4.846,10.729,5.203
		c8.444,0.548,16.351-3.901,22.319-7.82c2.618-1.715,6.14-4.366,9.857-7.177c8.254-6.209,18.649-13.869,22.93-13.993
		c0.158,0.003,0.279,0.014,0.365,0.019c-1.494,1.85-9.264,9.23-16.705,16.399c-5.105,4.925-9.904,9.596-12.737,12.509
		c-0.501,0.513-1.001,1.022-1.498,1.534c5.372-0.014,10.74-0.014,16.117,0.002c0.083-0.073,0.167-0.141,0.247-0.212
		c5.966-4.886,12.7-10.227,18.485-14.153c-0.156,0.525-0.256,1.058-0.285,1.558c-0.026,0.923,0.15,1.817,0.575,2.644
		c1.119,2.142,3.681,3.521,7.245,3.838c5.041,0.442,12.176-3.031,14.007-5.465c1.054-1.406,0.629-2.69-0.11-3.425
		c-0.954-0.952-2.57-1.211-3.638-0.539c-0.414,0.257-0.825,0.512-1.242,0.771c-2.511,1.611-5.656,3.604-9.014,3.307
		c-1.56-0.137-1.535-0.891-1.514-1.25c0.115-3.003,3.936-6.507,7.57-8.162c7.901-3.419,9.92-4.567,11.246-5.742
		C577.585,107.983,577.321,106.391,577.01,105.572 M492.944,116.854c6.713-8.834,16.894-13.948,20.356-13.696
		c0.209,0.013,0.397,0.091,0.492,0.199c0.013,0.008,0.048,0.066,0.062,0.104C513.609,106.447,505.536,114.2,492.944,116.854
		 M451.097,113.6c4.305-3.552,9.13-7.49,12.835-10.098c-0.401,10.53-6.245,17.09-8.84,19.507c-2.946,2.7-5.629,3.898-7.038,3.948
		c0.086-0.16,0.21-0.366,0.431-0.667c0.924-1.346,1.247-2.095,1.244-2.987c0.017-2.251-2.223-4.106-5.062-4.239
		c-0.083-0.005-0.186,0.007-0.266,0.009C446.397,117.476,448.696,115.579,451.097,113.6 M405.045,99.062L405.045,99.062
		c-1.814,3.826-9.32,10.271-19.964,12.993c5.762-8.256,14.284-13.42,18.553-14.358c1.169-0.247,1.632-0.086,1.713-0.005
		c0.019,0.027,0.062,0.102,0.056,0.239C405.402,98.117,405.338,98.498,405.045,99.062 M246.322,124.443
		c-0.507,0.011-0.897-0.09-1.101-0.274c-0.25-0.218-0.396-0.656-0.41-1.198c-0.055-2.999,3.838-10.785,9.594-17.192
		c5.122-5.6,10.62-8.862,14.994-8.933c1.019-0.017,1.949,0.265,2.479,0.735c0.234,0.226,0.366,0.46,0.374,0.71
		c0,0.023,0,0.02,0,0.02c0.039,3.105-4.156,11.044-13.426,19.129C253.962,121.679,249.167,124.369,246.322,124.443 M132.106,116.025
		c1.13-0.115,1.929-0.806,2.015-1.751c0.087-1.041-0.729-2.018-2.079-2.472c-1.574-0.518-3.773-0.504-6.084-0.011
		c1.623-2.258,3.703-5.258,6.038-8.565c4.561-6.555,10.256-14.582,14.524-19.988c3.541,1.355,4.82,2.139,5.842,2.769
		c0.597,0.328,1.188,0.656,1.784,0.982c2.301,1.044,3.95,0.468,4.572-0.581c0.22-0.357,0.329-0.801,0.271-1.28
		c-0.082-0.856-0.659-1.809-1.915-2.601c-1.715-1.074-4.155-2.161-7.197-3.271c6.48-7.79,13.272-9.007,15.952-9.15
		c6.402-0.341,7.836,4.342,8.109,7.15c0.479,4.674-3.604,11.33-13.68,15.754c-5.044,2.219-8.564,2.206-11.367,1.896
		c-2.272-0.544-4.439-0.757-6.419-0.636c-2.026,0.126-3.705,0.696-4.839,1.691c-1.057,0.899-1.586,2.091-1.448,3.292
		c0.203,1.688,1.808,3.405,4.91,3.21c0.898-0.058,1.528-0.252,2.285-0.49c1.085-0.347,2.461-0.778,5.453-0.957
		c8.438-0.507,11.225,4.405,11.532,7.353c1.153,11.397-16.376,28.311-35.218,29.635c-5.767,0.405-9.5-1.778-10.001-5.873
		C114.074,123.438,123.117,116.953,132.106,116.025 M139.937,81.107c-10.048,14.034-33.678,48.302-45.365,57.929
		c-2.83,2.298-4.713,2.918-5.112,2.598c-0.11-0.094-0.242-0.263-0.289-0.581c-0.089-0.672,0.242-2.057,2.075-4.842
		c2.855-4.32,6.268-8.721,11.031-14.772c6.09-7.752,14.459-18.351,27-35.116c1.242-0.956,4.662-4.005,6.667-6.219
		C137.137,80.354,138.489,80.708,139.937,81.107 M83.729,98.456c-15.22,1.271-22.869-3.089-23.539-7.784
		c-0.433-3.06,1.896-6.369,6.433-9.104c3.804-2.28,11.014-5.272,23.605-6.288c0.003,0,0.006,0,0.01,0
		c8.023-0.66,17.86-0.071,29.92,1.836c-1.547,1.994-11.259,14.789-11.429,15.018C101.656,95.464,92.114,97.873,83.729,98.456"/>
	<path fill="#231F20" d="M449.729,84.874c3.987,0.191,7.438-2.921,7.438-5.742c0.009-2.782-2.223-4.498-5.008-4.636
		c-3.684-0.181-7.636,2.712-7.63,5.76C444.537,82.769,446.626,84.727,449.729,84.874"/>
	<path fill="#231F20" d="M196.22,95.417c-7.637,8.52-18.742,18.183-24.091,22.725c3.235-8.309-1.781-16.76-10.797-19.297
		c18.67-3.626,24.094-14.352,23.361-21.928c-0.621-6.604-7.201-12.727-17.571-12.178c-5.259,0.278-13.6,1.266-23.684,13.274
		c-2.122-0.696-4.074-1.219-5.965-1.632c2.257-3.59,2.535-6.018,2.448-8.122c-4.108,0.259-8.216,0.527-12.319,0.801
		c0,0-3.241,4.048-3.601,4.479c-14.552-2.819-26.678-3.323-36.515-2.524c-44.677,3.858-43.889,36.357-4.853,32.956
		c7.476-0.62,15.556-2.428,22.669-5.211c-7.053,9.96-22.037,27.841-24.358,36.316c-2.893,10.459,5.644,14.523,14.397,9.018
		c3.811-2.389,8.408-6.62,13.649-12.517c-0.046,5.537,5.429,13.272,20.835,12.212c22.554-1.514,35.35-15.072,52.458-29.756
		c-4.274,6.167-4.021,8.871-3.893,10.194c0.372,3.813,3.42,7.609,9.68,7.318c4.375-0.207,10.409-3.728,17.539-10.121
		c-1.217,6.48,5.469,12.226,13.326,7.076c3.611-2.39,15.645-12.773,16.467-13.438c-1.332,6.291,1.387,14.638,9.975,14.412
		c5.021-0.13,10.821-3.081,16.903-8.477c-0.41,3.339,0.724,8.078,7.268,7.965c5.428-0.089,9.58-3.436,16.528-8.953
		c-0.003-0.004,6.742-5.337,10.885-9.129c-2.527,3.464-4.531,6.773-4.342,10.026c0.26,4.341,3.675,7.73,9.352,7.702
		c4.402-0.021,10.637-3.342,18.081-9.489c-0.425,4.022,2.014,9.333,8.941,9.362c6.39,0.031,14.267-3.04,22.856-8.882
		c3.552,0.516,12.24-0.042,19.025-5.503c-1.164,6.67,3.256,15.084,13.308,15.333c6.514,0.162,12.888-2.448,22.056-8.944
		c2.917-2.106,6.452-4.836,10.562-8.088c-2.874,3.532-5.076,6.948-5.024,10.089c0.056,4.71,3.615,7.892,8.86,8.093
		c4.931,0.189,10.353-3.026,19.383-9.352c5.463-3.863,17.875-14.946,24.881-19.529c0.403,16.625-12.592,26.37-17.041,26.167
		c-1.382-0.07-1.006-0.9-0.167-2.109c0.917-1.308,1.078-1.87,1.103-2.5c-0.017-1.66-1.721-3.187-4.121-3.3
		c-3.334-0.157-5.611,2.1-5.595,4.729c0.003,3.227,2.914,6.789,10.619,7.161c9.544,0.473,16.225-4.044,28.938-13.257
		c-1.374,6.951,3.186,15.002,12.734,15.614c7.837,0.501,15.37-3.471,21.758-7.662c8.549-5.662,26.66-21.149,33.279-21.333
		c1.752-0.038,1.712,0.858,1.212,1.462c-2.589,3.168-22.504,21.748-29.508,28.992c4.509-0.009,9.022-0.003,13.531,0.011
		c7.36-6.052,15.318-12.298,21.598-16.209c-3.69,4.831-1.672,9.299,5.087,9.895c4.683,0.413,11.495-2.853,13.178-5.132
		c1.546-2.051-1.086-3.46-2.422-2.646c-2.704,1.635-6.527,4.584-10.82,4.204c-1.46-0.129-2.492-0.817-2.431-2.221
		c0.143-3.563,4.401-7.227,8.065-8.884c7.694-3.351,9.788-4.504,11.02-5.616c2.879-2.529,0.787-5.178-2.992-5.528
		c-6.67-0.613-10.272,2.842-14.162,9.005c-2.646,1.473-5.576,3.383-8.458,5.297c2.678-3.293,4.992-6.899,5.135-10.205
		c0.118-3.359-2.626-5.886-6.514-6.214c-8.947-0.757-25.502,14.483-37.328,22.178c-8.092,5.261-13.458,7.205-18.326,6.888
		c-5.205-0.33-5.173-3.849-3.705-8.17c20.096-2.385,33.091-10.189,33.261-16.777c0.094-3.421-3.277-6.323-8.966-6.728
		c-8.044-0.573-19.596,3.922-30.766,12.075c-0.006-0.004-9.351,7.274-13.461,10.075c0.925-2.654,1.054-5.882,1.057-7.292
		c0.027-3.73-0.71-6.667-0.686-11.626c0.019-2.304,0.538-2.388,2.21-2.766c0.027,0,5.141-0.612,5.17-4.008
		c0.023-1.988-1.678-3.136-3.963-3.262c-2.742-0.153-5.207,1.446-7.32,4.722c-9.826,7.006-16.674,12.903-22.442,17.494
		c-4.245,3.372-12.432,9.644-18.539,12.042c-2.31,0.925-6.259,1.403-4.406-1.901c1.597-3.008,25.978-29.205,26.045-29.171
		c-4.595,0.024-9.187,0.061-13.778,0.11c-8.834,6.026-14.665,11.345-20.729,16.269c-6.092,4.917-17.149,14.341-26.309,14.115
		c-3.853-0.099-6.035-2.237-4.006-8.027c19.985-3.167,32.629-11.53,32.557-18.084c-0.073-4.76-5.944-6.247-9.216-6.348
		c-8.062-0.257-19.05,4.438-30.282,13.266c-3.183,2.508-5.524,4.666-7.63,6.053c-5.417,3.496-9.188,3.797-10.549,3.616
		c8.418-7.816,13.789-15.595,13.671-19.482c-0.138-5.167-7.028-5.941-9.932-2.429c-2.661,3.244-2.032,7.444-4.473,13.187
		c-4.369,10.21-16.168,16.612-23.674,17.352c-4.277,0.413-4.584-1.379-3.492-3.221c2.569-4.36,13.087-15.64,24.364-29.052
		c-4.374,0.144-8.745,0.3-13.119,0.462c-13.901,17.113-27.741,29.509-35.667,31.568c-1.572,0.413-2.505,0.418-2.918,0.04
		c-1.061-0.985,0.539-3.058,1.941-4.902c5.254-6.898,20.583-24.768,22.825-27.387c-4.479,0.196-8.96,0.402-13.437,0.617
		c-3.221,2.359-25.373,21.582-25.328,21.607c-7.059,5.905-10.794,8.467-12.801,9.522c-1.911,0.996-3.364,0.982-2.685-1.498
		c0.941-3.711,23.702-33.494,39.875-54.857c-4.255,0.152-8.508,0.314-12.762,0.488c-0.055-0.02-19.19,26.612-20.693,28.858
		c-0.757-2.703-3.443-4.914-8.923-4.823c-7.127,0.118-18.687,5.478-29.113,14.017c-3.396,2.731-18.883,16.804-23.72,19.835
		c-2.417,1.505-3.756,0.363-2.695-1.806c0.573-1.15,1.71-2.616,3.11-4.424c6.812-8.834,13.693-17.649,20.642-26.433
		c-4.363,0.321-8.724,0.655-13.081,0.999c-13.074,17.569-26.312,30.461-34.146,32.977c-3.349,1.063-3.891,0.071-3.199-1.814
		c1.001-2.83,20.822-27.887,23.531-31.278C205.351,94.647,200.787,95.025,196.22,95.417 M490.828,118.194
		c6.802-10.244,18.427-16.231,22.499-15.934c0.466,0.034,0.896,0.229,1.167,0.534c0.207,0.212,0.317,0.48,0.32,0.735
		C514.519,107.141,505.195,115.972,490.828,118.194 M405.933,99.471c-2.027,4.205-10.461,11.533-22.916,13.972
		c5.751-9.401,15.466-15.551,20.346-16.605C406.064,96.236,406.965,97.313,405.933,99.471 M246.378,125.344
		c-0.763,0.019-1.39-0.188-1.807-0.546c-0.448-0.413-0.688-1.046-0.699-1.86c-0.065-3.196,3.813-11.105,9.782-17.757
		c5.309-5.781,11.038-9.162,15.708-9.238c1.276-0.021,2.438,0.363,3.171,1.016c0.398,0.394,0.638,0.831,0.672,1.318
		c0.005,0.024,0.005,0.055,0.005,0.087c0.027,3.777-4.807,11.949-13.712,19.722C254.387,122.554,249.504,125.263,246.378,125.344
		 M90.107,74.39c8.925-0.733,19.515,0.068,31.75,2.101c-0.914,1.129-12.298,16.087-12.469,16.355
		c-6.99,3.317-16.817,5.897-25.552,6.501C50.603,102.285,49.292,77.856,90.107,74.39 M128.557,85.704
		c1.183-0.899,5.079-4.333,6.991-6.592c1.873,0.379,3.8,0.842,5.899,1.5c-10.81,15.118-34.457,49.408-46.25,59.117
		c-0.573,0.469-4.735,3.835-6.333,2.569c-1.516-1.198-0.134-3.994,1.562-6.585C97.039,125.827,106.209,115.653,128.557,85.704
		 M114.217,132.2c-1.105-8.934,7.991-16.047,17.742-17.057c1.624-0.168,1.676-1.87-0.202-2.502
		c-1.902-0.628-5.041-0.376-8.141,0.771c4.252-5.737,15.409-22.335,22.538-31.269c6.206,2.33,6.299,3.112,8.392,4.055
		c3.373,1.531,4.831-1.156,2.007-2.947c-1.919-1.185-4.702-2.39-8.242-3.617c6.31-8.122,13.423-10.208,17.415-10.42
		c7.737-0.413,8.949,5.708,9.178,7.994c0.463,4.678-3.237,11.789-14.208,16.606c-5.261,2.32-8.985,2.309-11.925,1.968
		c-2.194-0.534-4.309-0.743-6.21-0.616c-7.116,0.439-6.842,6.754-1.567,6.418c1.985-0.126,2.676-1.156,7.747-1.461
		c8.466-0.504,12.172,4.308,12.581,8.206c1.223,12.052-17.155,29.239-36.073,30.571C118.016,139.405,114.673,135.991,114.217,132.2"
		/>
</g>
</svg>
