<?xml version="1.0" encoding="utf-8"?>
<!-- Generator: Adobe Illustrator 18.1.1, SVG Export Plug-In . SVG Version: 6.00 Build 0)  -->
<svg version="1.1" id="Layer_1" xmlns="http://www.w3.org/2000/svg" xmlns:xlink="http://www.w3.org/1999/xlink" x="0px" y="0px"
	 viewBox="0 384.4 3000 2231.2" enable-background="new 0 384.4 3000 2231.2" xml:space="preserve">
<path d="M2539.4,984.4c0-7.3-7.3-9.2-12.8-9.2h-12.8v18.3h11C2532.1,993.6,2539.4,993.6,2539.4,984.4z"/>
<path d="M2524.8,953.2c-23.9,0-42.2,20.2-42.2,44c0,25.7,18.3,44,42.2,44s42.2-18.3,42.2-44C2567,971.6,2548.6,953.2,2524.8,953.2z
	 M2541.3,1026.6l-16.5-25.7h-9.2v25.7h-9.2v-58.7h22c14.7,0,22,5.5,22,16.5c0,11-5.5,14.7-14.7,16.5l16.5,25.7H2541.3z"/>
<polygon points="1554.1,1134.9 1491.7,1456 1616.5,1456 "/>
<path d="M0,384.4v2231.2h3000V384.4H0z M1392.7,945.9h324.8l205.5,875.2l-368.8-308.3l-352.3,284.4L1392.7,945.9z M792.7,2059.6
	c-132.1,0-234.9-97.2-234.9-227.5v-671.6c0-130.3,80.7-238.5,295.4-238.5c207.3,0,293.6,108.3,293.6,238.5v236.7h-233v-227.5
	c0-33-25.7-58.7-58.7-58.7c-33,0-56.9,25.7-56.9,58.7v644c0,33,23.9,58.7,56.9,58.7c33,0,58.7-25.7,58.7-58.7v-227.5h233v167
	c0,38.5-7.3,82.6-49.5,119.3l-233,187.2H792.7z M967,2061.5l589-477.1l567,477.1H967z M2440.4,1162.4h-161.5v897.2h-69.7
	L2018.3,1900v-737.6h-161.5V944h583.5V1162.4z M2524.8,1048.6c-29.4,0-53.2-22-53.2-51.4c0-29.4,23.9-51.4,53.2-51.4
	c29.4,0,53.2,22,53.2,51.4C2578,1026.6,2552.3,1048.6,2524.8,1048.6z"/>
</svg>
