<?xml version="1.0" encoding="utf-8"?>
<!-- Generator: Adobe Illustrator 22.0.0, SVG Export Plug-In . SVG Version: 6.00 Build 0)  -->
<svg version="1.1" id="Layer_1" xmlns="http://www.w3.org/2000/svg" xmlns:xlink="http://www.w3.org/1999/xlink" x="0px" y="0px"
	 viewBox="0 0 104.2 58.8" style="enable-background:new 0 0 104.2 58.8;" xml:space="preserve">
<g>
	<path d="M27.8,49.1c2.2-1.8,2.6-4.1,2.6-6.2v-8.6H18.4V46c0,1.7-1.4,3-3,3c-1.7,0-2.9-1.4-2.9-3V12.8c0-1.7,1.2-3,2.9-3
		c1.7,0,3,1.4,3,3v11.8h12V12.3l0,0C30.4,5.6,26,0,15.2,0l0,0C4.2,0,0,5.6,0,12.3L0,47c0,6.7,5.3,11.8,12.1,11.8h3.7L27.8,49.1z"/>
	<polygon points="75.4,50.4 75.4,12.4 67,12.4 67,1.1 97.2,1.1 97.2,12.4 88.8,12.4 88.8,58.7 85.2,58.7 	"/>
	<path d="M59.8,1.2H43l-9.8,43.9l18.2-14.7l19,15.9L59.8,1.2z M48.2,27.6L51.4,11l3.2,16.6H48.2z"/>
	<polygon points="80.8,58.8 51.4,34.2 21,58.8 	"/>
	<path d="M99.3,3.8c0-1.3,1-2.2,2.2-2.2c1.2,0,2.2,1,2.2,2.2c0,1.3-1,2.2-2.2,2.2C100.3,6.1,99.3,5.1,99.3,3.8z M101.5,6.5
		c1.5,0,2.7-1.1,2.7-2.7c0-1.5-1.3-2.7-2.7-2.7c-1.5,0-2.7,1.1-2.7,2.7C98.8,5.4,100,6.5,101.5,6.5z M100.9,4.1h0.5l0.8,1.3h0.5
		L101.9,4c0.5-0.1,0.8-0.3,0.8-0.9c0-0.6-0.4-0.9-1.1-0.9h-1.2v3.1h0.5V4.1z M100.9,3.7v-1h0.6c0.3,0,0.7,0.1,0.7,0.5
		c0,0.5-0.4,0.5-0.8,0.5H100.9z"/>
</g>
</svg>
