<?xml version="1.0" encoding="utf-8"?>
<!-- Generator: Adobe Illustrator 16.0.4, SVG Export Plug-In . SVG Version: 6.00 Build 0)  -->
<!DOCTYPE svg PUBLIC "-//W3C//DTD SVG 1.1//EN" "http://www.w3.org/Graphics/SVG/1.1/DTD/svg11.dtd">
<svg version="1.1" id="Layer_1" xmlns="http://www.w3.org/2000/svg" xmlns:xlink="http://www.w3.org/1999/xlink" x="0px" y="0px"
	 width="1224px" height="792px" viewBox="0 0 1224 792" enable-background="new 0 0 1224 792" xml:space="preserve">
<g>
	<path d="M980.646,212.55c0-2.561-2.328-3.026-4.656-3.026h-4.423v6.519h3.957C978.085,216.042,980.646,215.81,980.646,212.55z"/>
	<path d="M975.523,202.074c-8.613,0-15.132,6.519-15.132,15.365c0,8.847,6.751,15.365,15.132,15.365s14.9-6.519,14.9-15.365
		C990.424,208.593,983.904,202.074,975.523,202.074z M980.879,228.148l-5.588-9.312h-3.492v9.312h-3.259v-21.185h8.147
		c4.889,0,7.45,1.862,7.45,6.053c0,3.725-2.562,5.354-5.587,5.82l6.053,9.312H980.879z"/>
	<polygon points="631.439,266.561 609.09,380.635 653.556,380.635 	"/>
	<path d="M79.693,0v792h1064.613V0H79.693z M573.471,199.048h115.471l73.101,310.328L631.439,399.958L506.19,500.995
		L573.471,199.048z M361.619,594.814c-46.794,0.233-83.344-34.688-83.344-80.783V275.873c0-46.561,28.635-84.974,104.529-84.974
		c74.032,0,104.296,38.18,104.296,84.741v84.042h-82.878v-81.016c0-11.64-9.545-20.952-20.953-20.952
		c-11.408,0-20.021,9.545-20.021,20.952v228.148c0,11.641,8.614,20.953,20.021,20.953c11.64,0,20.953-9.545,20.953-20.953v-80.55
		h82.878v59.365c0,14.201-2.561,29.799-17.926,42.603l-81.947,66.582H361.619z M422.613,595.048l208.826-169.017l201.608,169.017
		H422.613z M945.725,275.873l-61.693,21.418V616l-20.254-21.65l-67.745-56.805V275.873h-57.271v-77.291h206.963V275.873z
		 M975.523,235.831c-10.243,0-18.856-7.683-18.856-18.624c0-10.477,8.613-18.392,18.856-18.392c10.011,0,18.625,7.683,18.625,18.392
		S985.534,235.831,975.523,235.831z"/>
</g>
</svg>
