<?xml version="1.0" encoding="utf-8"?>
<!-- Generator: Adobe Illustrator 21.0.2, SVG Export Plug-In . SVG Version: 6.00 Build 0)  -->
<svg version="1.1" id="Layer_1" xmlns="http://www.w3.org/2000/svg" xmlns:xlink="http://www.w3.org/1999/xlink" x="0px" y="0px"
	 viewBox="0 0 256.2 487.8" style="enable-background:new 0 0 256.2 487.8;" xml:space="preserve">
<style type="text/css">
	.st0{clip-path:url(#SVGID_2_);}
	.st1{clip-path:url(#SVGID_4_);}
</style>
<rect x="52" y="297" width="151.7" height="15.2"/>
<g>
	<defs>
		<rect id="SVGID_1_" y="0" width="256.2" height="487.8"/>
	</defs>
	<clipPath id="SVGID_2_">
		<use xlink:href="#SVGID_1_"  style="overflow:visible;"/>
	</clipPath>
	<path class="st0" d="M62.2,374.6c0-8.9,5.7-16.1,14.8-16.1c7.2,0,12,4.1,13.1,10.6h-4.8c-0.7-4.1-3.6-6.7-8.2-6.7
		c-6.5,0-9.9,5.4-9.9,12.1c0,6.7,3.4,12.1,9.9,12.1c5,0,7.9-2.8,8.3-7.6H90c-0.7,7.3-5.4,11.6-13.1,11.6
		C67.8,390.7,62.2,383.5,62.2,374.6"/>
</g>
<rect x="94.7" y="347.6" width="4.8" height="42.3"/>
<g>
	<defs>
		<rect id="SVGID_3_" y="0" width="256.2" height="487.8"/>
	</defs>
	<clipPath id="SVGID_4_">
		<use xlink:href="#SVGID_3_"  style="overflow:visible;"/>
	</clipPath>
	<path class="st1" d="M109.5,372.1h18.4c-0.3-6.1-3.4-9.8-8.9-9.8C113.3,362.3,110.2,366.6,109.5,372.1 M104.5,374.6
		c0-8.9,5.8-16.1,14.5-16.1c9.2,0,14.1,7.1,14.1,17.2h-23.6c0.4,6.2,3.7,10.9,9.9,10.9c4.4,0,7.4-2.1,8.5-6.3h4.7
		c-1.4,6.6-6.2,10.3-13.1,10.3C109.9,390.7,104.5,383.5,104.5,374.6"/>
	<path class="st1" d="M156.5,378.6v-5.2c-1.6,1-4.4,1.8-7,2.2c-4.8,0.9-8.6,1.7-8.6,6.2c0,4.1,3.2,5,6.3,5
		C153.6,386.8,156.5,382.1,156.5,378.6 M156.4,385.6L156.4,385.6c-1.9,2.4-5,4.8-10.2,4.8c-5.8,0-10.3-2.7-10.3-8.5
		c0-7.2,5.7-8.7,13.3-9.9c4.3-0.6,7.3-1.1,7.3-4.4c0-3.4-2.5-5.4-6.9-5.4c-5,0-7.4,2.1-7.6,6.7h-4.6c0.2-5.9,4.1-10.3,12.2-10.3
		c6.5,0,11.3,2.4,11.3,9.7V383c0,2.5,0.6,3.8,3.3,3.2h0.2v3.5c-0.6,0.2-1.4,0.5-2.6,0.5C158.5,390.2,156.9,388.8,156.4,385.6"/>
	<path class="st1" d="M172.6,363.3h0.1c2.2-2.9,5.3-4.7,9.7-4.7c6.4,0,10.3,3.5,10.3,9.8v21.5h-4.8v-21c0-4-2.6-6.2-6.9-6.2
		c-4.8,0-8.4,3.4-8.4,8.5v18.8h-4.8v-30.6h4.8V363.3z"/>
	<path class="st1" d="M84.3,420c-0.4-3.6-2.6-5.9-5.7-5.9c-3.7,0-5.6,2.3-6.2,5.9H84.3z M62.8,423.2c0-9,6.3-16,15.5-16
		c4.3,0,7.7,1.4,10.3,3.8c3.6,3.3,5.4,8.6,5.3,14.7H72.3c0.6,4.1,2.8,6.6,6.8,6.6c2.5,0,4.2-1.1,5-3h9.4c-0.7,2.7-2.4,5.3-5.1,7.2
		c-2.5,1.8-5.6,2.8-9.5,2.8C69,439.3,62.8,432.4,62.8,423.2"/>
	<path class="st1" d="M97.3,408.2h9.3v4.1h0.2c2.2-3.2,5.1-5,9.3-5c6.6,0,10.5,4.7,10.5,11.5v19.7H117v-17.7c0-3.2-1.6-5.4-4.7-5.4
		c-3.2,0-5.3,2.7-5.3,6.4v16.7h-9.6V408.2z"/>
	<path class="st1" d="M151.1,420c-0.4-3.6-2.6-5.9-5.7-5.9c-3.7,0-5.6,2.3-6.2,5.9H151.1z M129.6,423.2c0-9,6.3-16,15.5-16
		c4.3,0,7.7,1.4,10.3,3.8c3.6,3.3,5.4,8.6,5.3,14.7h-21.7c0.6,4.1,2.8,6.6,6.8,6.6c2.5,0,4.2-1.1,5-3h9.4c-0.6,2.7-2.4,5.3-5.1,7.2
		c-2.5,1.8-5.6,2.8-9.5,2.8C135.8,439.3,129.6,432.4,129.6,423.2"/>
	<path class="st1" d="M164.1,408.2h9.2v4.7h0.2c2.1-3.6,4.6-5.2,8.3-5.2c0.9,0,1.5,0.1,1.9,0.2v8.3h-0.2c-5.9-0.8-9.7,2.1-9.7,8.6
		v13.6h-9.6V408.2z"/>
	<path class="st1" d="M206.2,422c0-4.1-2.1-7.5-6.1-7.5c-3.6,0-6,3-6,7.6c0,4.5,2.4,7.5,6,7.5C204.3,429.6,206.2,426.3,206.2,422
		 M185.4,439.1h9.3c0.5,1.6,2.1,3,5.3,3c4.1,0,5.8-2.1,5.8-5.8v-3h-0.2c-1.8,2-4.1,3.5-7.7,3.5c-6.8,0-13.1-5.1-13.1-14.4
		c0-8.9,5.2-15.1,12.7-15.1c4,0,6.7,1.6,8.5,4.1h0.1v-3.2h9.2v27.3c0,4.6-1.6,7.9-4,10c-2.7,2.4-6.6,3.4-11.1,3.4
		C191.8,448.9,186.3,445.4,185.4,439.1"/>
	<path class="st1" d="M220.9,440.9h3.3c2.8,0,4-1.1,4-3.2c0-1.3-0.6-3.1-1.8-6.3l-8.9-23.3h10.2l4.1,12.9c0.9,3,1.9,7,1.9,7h0.1
		c0,0,0.8-4,1.8-7l4-12.9h9.6l-10.5,30.7c-2.4,7.1-5.3,9.6-11.4,9.6h-6.3V440.9z"/>
	<path class="st1" d="M63.2,456.4h4.4v-9.6h4.8v9.6h5.9v3.9h-5.9v19.9c0,2.1,1.1,2.8,3.1,2.8c0.9,0,2-0.2,2.5-0.4h0.2v4.1
		c-1.1,0.2-2.4,0.4-3.8,0.4c-3.9,0-6.7-1.6-6.7-5.9v-20.9h-4.4V456.4z"/>
	<path class="st1" d="M88.1,461.5h0.1c1.8-3,5-5.4,9.1-5.4c0.9,0,1.4,0.1,2,0.4v4.6h-0.2c-0.7-0.2-1.2-0.3-2.1-0.3
		c-4.7,0-8.9,3.5-8.9,9.3v17h-4.8v-30.6h4.8V461.5z"/>
	<path class="st1" d="M123,487v-4.2h-0.1c-2.2,3-4.8,4.9-9.2,4.9c-6.3,0-10.3-3.8-10.3-10.1v-21.2h4.8v21c0,4,2.5,6.3,6.9,6.3
		c4.8,0,8-3.7,8-8.5v-18.8h4.8V487H123z"/>
	<path class="st1" d="M132.3,477h4.9c0.6,5.3,4.2,6.8,8.7,6.8c5,0,7.1-2.2,7.1-5c0-3.4-2.4-4.3-8-5.5c-6-1.2-11.4-2.5-11.4-9.2
		c0-5.1,3.9-8.4,11-8.4c7.6,0,11.3,3.6,12,9.6h-4.9c-0.5-4-2.7-5.8-7.2-5.8c-4.4,0-6.1,1.9-6.1,4.4c0,3.3,3,4,8.2,5
		c6.1,1.2,11.3,2.6,11.3,9.6c0,6.1-5,9.3-12.1,9.3C137.5,487.8,132.8,483.9,132.3,477"/>
	<path class="st1" d="M160,456.4h4.4v-9.6h4.8v9.6h5.9v3.9h-5.9v19.9c0,2.1,1.1,2.8,3.1,2.8c0.9,0,2-0.2,2.5-0.4h0.2v4.1
		c-1.1,0.2-2.4,0.4-3.8,0.4c-3.9,0-6.7-1.6-6.7-5.9v-20.9H160V456.4z"/>
	<path class="st1" d="M244.3,30.2c-0.1,0.6-0.4,1.3-0.6,2c-0.5,1.4-1.1,2.9-1.7,4.4c-1,2.4-2.1,4.8-3.2,7.1c0-0.2,0-0.4,0.1-0.6
		c0.1-2.2-0.1-4-0.5-5.9c-0.8-3.7-2.4-7.1-4.3-10.1c-2-3-4.3-5.6-6.9-8c-2.6-2.3-5.4-4.4-8.9-6c-1.8-0.9-4.1-1.4-5.9-1.4
		c-1.9-0.1-3.6,0-5.3,0.1c-3.4,0.3-6.6,0.9-9.7,1.5c-6.3,1.2-12.5,2.8-18.4,3.4c-6,0.3-12.5,0-18.8,0l-19-0.3l-12.4-0.1
		c0,0-0.1,0-0.1,0c0.2-0.3,0.6-0.5,0.9-0.6v0c0,0,0,0,0,0c0.1-0.1,0.2-0.1,0.2-0.1v0c3.5-1.2,7.4-1.7,11.3-1.9l14.3,0.1l17.7,0.2
		l5,0.1c1.7,0,3.3,0.2,5.2,0c3.5-0.2,6.8-0.7,10.2-1.2l19.7-3.3c3.3-0.5,6.5-1,9.7-1.3c1.5-0.1,3.1-0.2,4.4-0.1c0.3,0,0.6,0,0.8,0.1
		c0,0,0.3,0.1,0.2,0l0.6,0.2c0.5,0.1,1,0.3,1.6,0.6c4.7,2.4,9.3,7,11.9,12c1.3,2.5,2.1,5.2,2.2,7.6
		C244.5,29.4,244.5,29.7,244.3,30.2 M230.5,42.5c0,0.8-0.4,2.3-0.8,3.7c-1.4,4.1-3,8.3-4.7,12.5c0.1-0.8,0.2-1.7,0.2-2.6
		c0.1-2.3-0.3-3.8-0.6-5.6c-0.4-1.7-1-3.4-1.7-4.9c-1.4-3.1-3.1-6-5.1-8.6c-2-2.6-4.2-5-6.6-7.2c-2.5-2.2-5-4.2-8.3-5.8
		c-2.1-1.1-4-1.3-5.7-1.4c-1.7-0.1-3.3-0.2-4.9-0.1c-3.2,0.1-6.2,0.3-9.2,0.5c-6.1,0.5-11.7,1.2-17.6,0.6l-36-2.2l-5.7-0.3
		c0,0,2.1-2.2,3.2-2.9c0.3-0.1,1.9-0.1,2.8,0l11.4,0.8c12.7,0.9,25,2.1,38,2.9c6.7-0.1,12.9-1.1,19.2-1.6c3.1-0.3,6.2-0.6,9.1-0.6
		c1.5,0,2.9,0,4.2,0.2c1.4,0.2,2.1,0.4,3.2,1c4.6,2.5,9.2,6.6,12.2,11.1c1.5,2.3,2.7,4.7,3.2,7.2C230.4,40.1,230.5,41.6,230.5,42.5
		 M216.9,55.7c-0.1,2.3-0.7,5.2-1.4,8c-0.7,2.8-1.5,5.6-2.3,8.5c-1.6,5.4-3.4,10.7-5.2,16.1c0.3-1.5,0.7-2.9,1-4.4
		c0.6-2.8,1.2-5.6,1.7-8.5c0.4-3,1-5.7,0.6-9.6c-0.6-3.7-2-6.6-3.6-9.4c-1.6-2.7-3.3-5.2-5.2-7.5c-1.8-2.3-3.8-4.5-6-6.6
		c-2.1-2.1-4.2-4-7-6c-1.1-0.7-1.7-0.9-2.4-1.3c-0.7-0.4-1.5-0.6-2.2-0.9c-1.5-0.5-3.1-0.9-4.6-1.2c-3-0.6-6-0.8-8.9-1
		c-2.9-0.1-5.7-0.2-8.4-0.3c-2.5-0.2-5.5-0.7-8.3-1c-11.5-1.4-22.9-2.9-34.3-4.4c0.5-1.1,0.9-2,1.3-2.7c0.1-0.2,0.3-0.4,0.4-0.6
		l7.2,0.9c11.9,1.6,23.8,3.2,35.7,5c2.9,0.5,6.3,0.8,9.3,0.9c3.1,0.1,6.1,0.1,9.1,0.1c3,0,6,0,8.8,0.1c2.8,0.1,5.8,0.5,7.1,1.2
		c2,1.1,4.3,2.8,6.3,4.7c2,1.9,3.9,3.9,5.5,6.1c1.7,2.2,3.1,4.5,4.2,6.8c0.5,1.2,0.9,2.4,1.2,3.6C216.7,53.5,217,55,216.9,55.7
		 M211.6,172.9c-2.1-2.5-4.2-5-6.4-7.5c-3.6-4.1-7.2-8-10.8-11.9l-1.3-1.5c-0.4-0.4-0.9-1.1-1-1.2c0,0-0.2-0.5-0.2-1
		c-0.1-0.5-0.1-1.1-0.1-1.7c0-0.8,0-1.5,0-2.3c0.1,0.3,0.3,0.6,0.5,0.9l2.8,3.3l10.8,13c2,2.5,4,5,6,7.5
		C211.9,171.3,211.7,172.1,211.6,172.9 M210,178.5c-2.8-2.7-5.7-5.4-8.7-8l-11.7-10.1c-0.3-0.2-0.6-0.5-0.9-0.8
		c-0.4-0.4-1.2-1.6-1.6-2.5c-0.1-0.3-0.2-0.6-0.2-1c-0.2-1.6-0.5-4.6-0.3-4.6c0.1,0,0.3,0.2,0.4,0.6c0,0.1,0.1,0.3,0.2,0.4
		c0,0,0,0.1,0,0.1c0,0.1,0,0.1,0.1,0.1c0.1,0.3,0.3,0.6,0.5,0.9c0.7,1,1.1,1.3,1.6,1.8l1.4,1.4l11.6,11.2c2.8,2.7,5.6,5.5,8.3,8.3
		C210.5,177.1,210.3,177.8,210,178.5 M208.9,181.4c-0.2,0.5-0.4,1-0.6,1.5c-3.5-2.6-7-5-10.7-7.3l-12.7-7.9l-1.5-1
		c-0.4-0.3-0.1-0.1-0.3-0.3c-0.1-0.1-0.2-0.3-0.3-0.5c-0.5-0.8-0.9-1.9-1.3-3c-0.8-2.2-1.4-4.6-2-7c-2.2-9.6-3.8-19.4-5.4-29.2
		l-2.4-14.8c-0.4-2.6-0.7-4.7-1.4-7.7c-1-3.2-2.3-5.4-3.6-7.7c-2.7-4.5-5.7-8.6-8.8-12.7c-1.5-2-3.1-4-4.7-5.9l-2.4-2.9
		c-0.8-1-1.8-2-2.1-2.6c-1.1-1.6-2.2-3.8-3.3-6c-1.1-2.2-2.2-4.5-3.6-6.8c-0.7-1.2-1.3-2.3-2.3-3.6c-0.5-0.6-0.9-1.2-1.8-2
		c-0.7-0.6-1.3-0.9-1.9-1.3c-2.3-1.4-4.6-2.6-6.9-3.7c-5.6-2.6-11.2-5-16.9-7.2c0.4-0.5,0.8-1,1.1-1.4c0,0,0.2-0.3,0.6-0.9
		c0.1-0.1,0.2-0.2,0.2-0.4c6.2,2.4,12.4,4.9,18.4,7.7c2.3,1.1,4.6,2.2,6.8,3.4c2.1,1.2,4.4,2.5,5.9,3.8c3.6,3,7.1,6.9,10.5,10.6
		c6.7,7.5,13.5,15.3,18.1,23.6c1.1,2.1,2,4.1,2.4,6.1c0.4,2.1,0.6,4.7,0.9,7.2c0.4,5,0.7,10.2,1,15.4c0.7,10.3,1.2,20.7,2.5,31.1
		c0.3,2.6,0.7,5.2,1.4,7.9c0.4,1.4,0.7,2.7,1.5,4.3c0.2,0.4,0.5,0.8,1,1.3c0.4,0.4,0.5,0.5,0.9,0.8l1.6,1.3l12.5,9.3
		c3.4,2.5,6.7,5.1,10,7.6C209,181.3,208.9,181.5,208.9,181.4 M206.5,187.4c-4.2-2.2-8.5-4.3-12.8-6.3l-13.5-6l-1.6-0.8
		c-0.3-0.1-0.6-0.3-0.5-0.3c-0.1,0-0.2-0.2-0.3-0.3c-0.6-0.6-1.2-1.6-1.7-2.5c-1.1-2-2.1-4.2-3-6.4c-3.6-8.9-6.5-18.3-9.4-27.7
		l-4.4-14.1c-0.8-2.4-1.5-4.7-2.4-7.2c-0.9-2.6-2.4-5.1-3.9-7.3c-5.9-8.6-12.8-15.5-17-23.3c-1.9-3.6-2.9-8.1-3.8-12.9
		c-0.5-2.4-1-4.9-2-7.7c-0.5-1.3-1.5-3.2-2.8-4.3c-1.1-1-2.2-1.7-3.2-2.5c-5.6-3.7-11.3-7-17.2-10c0.7-0.7,1.3-1.4,2-2.1
		c0.1-0.1,0.2-0.3,0.4-0.4c5.8,2.8,11.4,5.8,16.9,9.1c2.1,1.3,4.2,2.6,6,3.9c0.4,0.3,0.9,0.7,1.1,1c0,0,0.4,0.5,0.6,0.9
		c0.5,0.8,1,1.8,1.5,2.8c1,2.1,1.9,4.4,2.9,6.7c1,2.3,2,4.7,3.7,7.2l9.4,11.9c3,3.9,5.9,7.8,8.4,11.8c1.2,2,2.4,4.1,2.9,5.7
		c0.5,1.8,1,4.6,1.5,6.9l3,14.7c2.2,9.8,4.4,19.6,7.3,29.3c0.8,2.4,1.5,4.9,2.6,7.3c0.5,1.2,1.1,2.4,1.9,3.8c0.2,0.3,0.5,0.7,0.8,1
		c0.2,0.3,1,0.9,1.2,1l1.7,1l13.3,7c3.9,2.1,7.7,4.2,11.5,6.4C207,185.9,206.7,186.8,206.5,187.4 M205.5,190.1
		c-0.3,0.5-0.6,1.1-1,1.8c-0.2-0.1-0.5-0.2-0.7-0.3c-4.7-1.5-9.5-2.9-14.3-4.2c-4.8-1.3-9.6-2.5-14.1-4.1l-0.8-0.3
		c-0.3-0.1-0.6-0.2-0.6-0.3c-0.3-0.2-0.7-0.4-1.1-0.8c-0.7-0.7-1.5-1.5-2.2-2.4c-1.4-1.8-2.8-3.8-4.1-5.8c-5.2-8.2-9.6-17-14-25.8
		l-6.5-13.3c-1-2.1-2.3-4.7-3.6-6.9c-1.3-2.2-2.8-4.3-4.2-6.4c-2.9-4.1-5.8-8.1-8.7-12.1c-2.8-3.9-6.1-8-8.1-11.6
		c-0.6-1.1-0.9-3.2-1.1-5.4c-0.1-2.2,0-4.6,0.1-7.1c0.1-2.4,0.2-5,0.2-7.6c0-1.3-0.1-2.7-0.3-4.1c-0.2-1.5-0.4-2.8-1.5-4.8
		c-0.4-0.7-0.3-0.5-0.8-1.1l-0.7-0.8l-1.4-1.4l-2.8-2.6c-1.9-1.7-3.7-3.4-5.7-5c-1.9-1.6-3.9-3.2-5.9-4.7c0.8-0.7,1.5-1.4,2.2-2.1
		c5.7,3.7,11.3,7.6,16.4,11.8c0.9,0.8,1.8,1.6,2.4,2.3c0.5,0.5,0.6,1,0.9,2c0.5,1.9,0.7,4.3,1.1,6.7c0.7,4.8,1.1,10.2,3.7,15.4
		c4.8,9.8,12.4,16.7,17.6,24.3c1.3,1.9,2.4,3.7,3.2,5.6c0.9,2.1,1.7,4.4,2.6,6.7c1.7,4.6,3.3,9.2,5.1,13.8c3.5,9.2,7,18.5,11.3,27.5
		c1.1,2.3,2.3,4.5,3.7,6.7c0.7,1.1,1.5,2.2,2.7,3.3c0.3,0.3,0.7,0.6,1.1,0.8c0.6,0.3,0.8,0.4,1.1,0.5l1.8,0.7l13.9,5
		c4.5,1.7,9.1,3.3,13.5,5.1C205.8,189.5,205.7,189.8,205.5,190.1 M202.3,195.6c-0.6-0.1-1.2-0.3-1.8-0.4c-5-1-10-1.7-15-2.2
		c-5-0.6-10-1.2-14.7-2.3c-0.5-0.1-1.3-0.3-1.5-0.4c-0.4-0.2-0.8-0.4-1.2-0.7c-0.9-0.6-1.8-1.4-2.7-2.2c-1.8-1.6-3.5-3.4-5.1-5.2
		c-6.6-7.4-12.7-15.4-18.6-23.4c-6-8-11.8-16.2-17.7-24.4c-2.9-4.1-5.8-8.2-8.6-12.3l-4.2-6.2l-2-3.1c-0.6-1-1.3-2.1-1.6-2.7
		c-0.5-1.2-0.7-3.3-0.5-5.5c0.2-2.2,0.6-4.6,1.1-7c1-4.8,2.4-9.7,2.7-15.4c0-1.5,0.1-2.9-0.5-4.9c-0.2-0.5-0.1-0.4-0.5-1.2
		c-0.2-0.5-0.4-0.8-0.6-1.1c-0.4-0.6-0.8-1.2-1.2-1.7c-1.6-2.1-3.3-4.1-5-6c-2.7-3-5.6-5.9-8.5-8.7c1.4-0.9,2.8-1.8,4.1-2.8
		c2,1.8,3.9,3.6,5.8,5.5c1.7,1.7,3.4,3.5,5,5.3l2.4,2.7l1.1,1.4l0.5,0.6c-0.1-0.2,0.4,0.6,0.2,0.4c0.1,0.2,0.3,1.4,0.4,2.3
		c0,1,0,2.2-0.1,3.3c-0.2,2.3-0.5,4.7-0.8,7.2c-0.3,2.5-0.5,5-0.6,7.7c0,2.7,0,5.7,1.7,9.1c1.4,2.7,2.8,4.7,4.2,6.8
		c1.5,2.1,2.9,4.1,4.4,6.1c3,4,6,7.9,8.8,11.8c1.4,2,2.8,4,4.1,5.9c1.3,2,2.3,3.8,3.5,6.1c2.4,4.4,4.7,8.8,7.1,13.1
		c5,8.6,10,17.2,15.9,25.4c1.5,2.1,3.1,4.1,4.8,6c0.9,1,1.8,1.9,3,2.8c0.6,0.5,1.2,0.9,2,1.3c0.5,0.2,0.8,0.3,1.1,0.4l1,0.3
		c5,1.3,9.8,2.1,14.7,3.1c4.9,0.9,9.7,1.8,14.5,2.8c0.1,0,0.1,0,0.2,0C203.2,194.1,202.7,194.8,202.3,195.6 M201,197.7
		c-0.1,0.1-0.1,0.1-0.2,0.2c-0.4,0.4-0.8,0.8-1.1,1.2c-0.9-0.1-1.8-0.2-2.7-0.2c-5.3-0.2-10.6-0.1-15.9,0.1
		c-2.6,0.1-5.2,0.2-7.8,0.1c-2.6,0-5.1-0.1-7.2-0.7c-4.2-1.5-8.5-4.8-12.5-7.9c-8-6.5-15.4-13.8-22.6-21.3
		c-3.6-3.7-7.2-7.5-10.6-11.4c-3.5-3.8-6.9-7.7-10.2-11.7c-3.3-4-6.5-8-9.6-12.1c-1.5-2.1-3-4.1-4.3-6.3c-0.7-1-1.3-2.1-1.9-3.2
		l-0.9-1.6l-0.2-0.4c-0.1-0.1,0-0.1-0.1-0.1c0,0-0.1-0.1-0.1-0.3c-0.3-1.1,0-3.7,0.5-5.9c0.6-2.3,1.3-4.8,2.1-7.2
		c1.6-4.9,3.4-9.9,4.8-15.2c0.7-2.7,1.3-5.4,1.2-8.7c-0.1-0.9-0.1-1.6-0.6-2.8c-0.2-0.7-0.4-0.8-0.5-1.1l-0.1-0.1l-0.2-0.3l0-0.1
		l-0.1-0.2l-0.3-0.4l-2.3-3.2c-3.1-4.3-6.3-8.5-9.6-12.6c-0.4-0.5-0.9-1.1-1.3-1.6c1.3-0.8,2.6-1.6,3.9-2.4
		c2.9,3.4,5.8,6.8,8.5,10.3c1.5,2,3,4,4.2,6c0.3,0.5,0.6,1,0.8,1.4c0.3,0.6,0.2,0.5,0.4,1.2c0,0.4,0.1,1.6-0.1,2.6
		c-0.6,4.3-2.4,9.1-3.7,14.1c-0.7,2.5-1.3,5.1-1.7,7.9c-0.3,2.8-0.5,5.9,0.9,9.5c0.7,1.7,1.5,2.8,2.1,3.9l2.1,3.3
		c1.4,2.2,2.8,4.3,4.2,6.4c2.9,4.2,5.9,8.3,8.8,12.4c12,16.3,24.6,32.2,39.1,46.7c1.9,1.8,3.7,3.5,5.8,5.2c1,0.8,2.1,1.6,3.4,2.4
		c0.6,0.4,1.3,0.7,2.1,1c1,0.3,1.5,0.4,2.2,0.5c5.2,0.8,10.3,1,15.3,1.2c5,0.3,10.1,0.3,15.1,0.8c0.4,0,0.7,0.1,1.1,0.1
		C201.2,197.4,201.1,197.5,201,197.7 M196.4,203.1c-0.1,0.2-0.2,0.4-0.4,0.5c-0.1,0.1-0.2,0.2-0.2,0.2c-0.9,0.1-1.7,0.1-2.6,0.2
		c-5.5,0.5-11,1.3-16.5,2c-5.4,0.6-11.1,1.4-15.8,0.6c-0.5-0.1-1.2-0.3-1.4-0.4c0,0-0.3-0.1-0.4-0.2l-0.3-0.2l-0.9-0.5l-3.5-2.1
		l-7-4.4c-9.3-5.9-18.4-12.1-27.3-18.5c-4.4-3.2-8.8-6.5-12.9-9.9c-2.1-1.7-3.9-3.4-5.7-5.3c-1.8-1.9-3.6-3.9-5.3-6
		c-3.4-4.1-6.6-8.4-9.7-12.9c-1.5-2.2-3-4.5-4.5-6.8l-1.1-1.7l-0.6-0.9c-0.1-0.2-0.2-0.3-0.3-0.5c-0.4-0.7-0.6-1.5-0.7-2.5
		c-0.4-3.9,1.5-9.1,3.7-13.9c1.8-4.3,3.9-8.5,5.9-13.1c-0.9,2.4-1.8,4.9-2.6,7.5c-0.7,2.8-1.6,5.5-0.9,9.6c0.1,0.9,0.9,2.5,1,2.8
		l1,1.9c0.7,1.2,1.4,2.4,2.1,3.6c1.4,2.3,3,4.6,4.5,6.8c3.1,4.4,6.4,8.6,9.9,12.6c6.9,8.1,14.3,15.8,22,23
		c7.8,7.2,15.9,14.1,24.6,20.3c2.2,1.5,4.4,3,6.8,4.4c2.4,1.4,4.8,2.7,7.8,3.4c3,0.6,5.8,0.4,8.4,0.2c2.7-0.2,5.3-0.5,7.9-0.8
		c5.2-0.5,10.4-1.3,15.6-1.5c0.4,0,0.9,0,1.4,0C197.6,201.6,196.9,202.4,196.4,203.1 M192.7,208.2c-0.1,0.2-0.2,0.5-0.4,0.7
		c-1.1,0.1-2.2,0.3-3.2,0.5c-5.8,1-11.6,2.1-17.4,3.3c-2.9,0.6-5.8,1.2-8.6,1.7c-1.4,0.3-2.9,0.5-4.1,0.6c-1,0-2.4-0.2-3.7-0.5
		c-5.3-1.4-10.6-3.9-15.8-6.4c-10.4-5.1-20.4-11.2-30.7-17c-5.1-2.9-10.1-5.8-14.8-8.9c-4.7-3.1-8.9-6.5-12.5-10.6
		c-3.6-4.2-6.8-8.9-10-13.8l-4.7-7.4l-1.1-1.8c-0.2-0.3-0.3-0.6-0.4-0.9c-0.2-0.7-0.3-1.7-0.1-2.9c0.6-4.7,3.1-10,5.7-15.1
		c0.3-0.6,0.6-1.2,0.9-1.9c-0.5,2-0.9,4.3-0.7,6.7c0.1,1.8,0.5,3.7,1.4,5.5c0.2,0.4,0.5,0.9,0.7,1.3l0.5,0.9l1.1,1.8
		c1.5,2.4,3,4.8,4.6,7.1c3.1,4.7,6.5,9.3,10.2,13.6c1.8,2.2,3.8,4.3,5.8,6.3c2,2.1,4.3,4.1,6.5,5.9c4.5,3.5,9.1,6.7,13.8,9.8
		c9.4,6.1,19,11.7,28.7,17l7.3,4l3.7,1.9l0.9,0.5l0.5,0.3l0.6,0.2c1,0.4,1.8,0.5,2.6,0.7c3.2,0.4,6,0,8.8-0.3
		c2.8-0.4,5.6-0.9,8.3-1.4c5.5-1,10.8-2.4,16.2-3.4c0.2,0,0.5-0.1,0.7-0.1C193.7,206.6,193.1,207.3,192.7,208.2 M190.3,213.8
		c-1.7,0.4-3.5,0.9-5.2,1.3l-18.1,5c-3,0.8-6,1.6-9,2.1c-1.5,0.3-3,0.5-4.3,0.5c-1.2,0-2.7-0.3-4.2-0.6c-5.9-1.3-11.8-3.5-17.6-5.6
		c-11.7-4.4-23.1-9.5-34.4-14.7c-5.6-2.6-11.2-5.3-16.6-8.3c-2.6-1.4-5.4-3-7.5-4.5c-2.1-1.7-4.3-3.8-6.3-6
		c-4-4.5-7.7-9.3-11.2-14.3c-1.7-2.5-3.5-5.2-4.6-7.4c-0.2-0.4-0.2-0.5-0.3-0.6c0-0.2-0.1-0.3-0.1-0.5c-0.1-0.4-0.1-0.9-0.1-1.4
		c0.1-1.1,0.3-2.4,0.6-3.7c1.3-4.6,3.7-9.2,6.3-13.9c-0.2,0.8-0.4,1.6-0.5,2.5c-0.2,1.8-0.4,3.8,0.1,5.9c0.2,1.1,0.6,2.1,1.2,3.1
		l1.2,2l4.7,7.5c3.2,5,6.5,10.1,10.7,14.8c4.1,4.8,9.2,8.8,14.4,12c5.2,3.2,10.4,6,15.7,8.7c10.5,5.4,21,10.7,31.9,15.4
		c5.5,2.3,11,4.6,17.2,5.8c1.6,0.2,3.1,0.5,5,0.3c1.7-0.2,3.1-0.6,4.6-0.9c2.9-0.7,5.7-1.5,8.6-2.3c5.7-1.5,11.3-3.2,17-4.7
		c0.7-0.2,1.4-0.3,1.9-0.4C191,211.8,190.7,212.8,190.3,213.8 M188.7,218.6c-2.3,0.8-4.6,1.6-7.1,2.5l-18.9,6.6
		c-3.2,1.1-6.3,2.1-9.5,2.9c-0.8,0.2-1.6,0.4-2.2,0.5c-0.6,0.1-1.4,0.1-2.1,0.1c-1.5-0.1-3.1-0.3-4.7-0.5
		c-6.4-1.1-12.8-2.8-19.2-4.6c-12.8-3.7-25.4-8.2-37.8-12.8c-6.2-2.3-12.4-4.7-18.5-7.3l-4.5-2l-2.2-1c-0.7-0.3-1.2-0.6-1.8-1
		c-2.4-1.5-4.7-3.5-6.8-5.7c-4.3-4.5-7.9-9.9-11.4-15.4c-1.7-2.7-3.4-5.8-4.8-8.3c-0.7-1.2-0.4-3.9,0.6-6.6
		c1.3-3.6,3.2-7.3,5.4-10.9c-0.3,1.1-0.5,2.2-0.5,3.4c-0.1,1,0,2.1,0.2,3.3c0.1,0.6,0.2,1.1,0.4,1.7c0.2,0.6,0.5,1.3,0.6,1.6
		c1.7,3.4,3.4,5.9,5.2,8.6c3.6,5.4,7.5,10.5,12,15.3c2.3,2.4,4.6,4.7,7.4,6.9c3,2.2,5.8,3.6,8.7,5.2c5.8,2.9,11.6,5.4,17.4,7.9
		c11.7,4.9,23.6,9.2,35.6,13.1c6.1,1.9,12.1,3.7,18.6,4.8c1.7,0.3,3.3,0.5,5.2,0.4c1.9-0.2,3.4-0.6,5-0.9c3.1-0.8,6.2-1.8,9.2-2.8
		c6-2,11.9-4.3,17.8-6.5l4-1.4C189.5,216.6,189.1,217.6,188.7,218.6 M185.8,223.8c-0.2,0.2-0.4,0.5-0.7,0.7c-8.7,4-18.2,8.4-32,12.9
		c-1.6,0.5-3.3,1-4.9,1.4c-1.7,0.4-2.9,0.6-4.6,0.5c-3.3-0.1-6.7-0.6-10.1-1.2c-6.8-1.1-13.6-2.6-20.4-4.2
		c-13.5-3.1-26.9-6.9-40.3-10.7c-6.7-1.9-13.3-4-19.7-6.2c-1.6-0.5-3.2-1.1-4.8-1.7c-1.5-0.6-3.1-1.3-4-1.9c-2.3-1.5-4.8-3.9-7-6.3
		c-4.5-4.9-8.6-10.3-11.8-16c-1.6-2.8-2.9-5.7-3.3-8.3c-0.1-0.4,0.1-1.9,0.6-3.2c0.5-1.4,1.1-2.8,1.8-4.3c1.1-2.3,2.5-4.5,3.8-6.8
		c0,0.1,0,0.2,0,0.3c-0.2,2.1-0.1,4.7,1,7.1c1.7,3.4,3.3,6.1,5.1,9.2c3.6,5.9,7.6,11.6,12.6,16.8c2.5,2.6,5.3,5,8.6,7
		c0.8,0.5,1.8,1,2.6,1.3l2.4,1.1c1.6,0.7,3.2,1.3,4.8,1.9c6.3,2.5,12.7,4.7,19.1,6.9c12.8,4.3,25.7,8,38.9,11.2
		c6.6,1.6,13.2,3,20,3.8c1.7,0.2,3.5,0.3,5.3,0.3c0.9,0,1.9-0.1,2.9-0.3c1-0.2,1.8-0.5,2.6-0.7c3.3-1.1,6.4-2.3,9.6-3.6
		c8.4-3.3,15.9-6.8,23.9-10.4C187.3,221.8,186.7,222.9,185.8,223.8 M177,231.1c-1.6,1.4-3.5,2.5-5.3,3.6c-1.1,0.7-1.9,1.1-2.2,1.3
		c-1.2,0.6-2.4,1.2-3.6,1.8c-2.5,1.3-10.4,4.6-10.4,4.6l0,0c-1.4,0.6-2.9,1.2-4.4,1.7c0,0-0.1,0-0.1,0.1c-2.4,0.8-4.9,1.6-7.4,2.2
		c-0.8,0.2-1.7,0.4-2.4,0.5c-0.7,0.1-1.5,0.1-2.3,0.1c-1.7,0-3.4-0.1-5.1-0.2c-13.8-1.1-27.6-3.7-41.3-6.3
		c-6.9-1.3-13.7-2.8-20.5-4.3c-6.8-1.4-13.6-2.9-20.4-4.6l-10.1-2.5c-3.3-0.9-6.8-1.8-9.5-2.9c-2.3-1-4.8-3-7.2-5.3
		c-2.3-2.3-4.5-4.8-6.6-7.4c-2-2.6-4-5.4-5.6-8.2c-1.6-2.8-3.1-5.8-3.8-8.4c-0.2-0.6-0.3-1.3-0.3-1.7c0,0.1,0-0.9,0-0.9
		c0-0.2,0.1-0.5,0.1-0.8c0.3-1.3,0.7-2.7,1.3-4.2c1.2-2.7,2.7-5.4,4.3-8.1c-0.1,0.9-0.1,1.8,0,3c0.6,4.4,2.4,7.9,4.1,11.2
		c3.6,6.5,8,12.3,13,17.7c2.6,2.7,5.1,5.2,8.7,7.6c2.1,1.3,3.7,1.9,5.5,2.6c1.7,0.7,3.4,1.3,5.1,1.8c6.8,2.2,13.6,4,20.4,5.8
		c13.6,3.6,27.3,6.5,41.1,9.1c6.9,1.3,13.8,2.5,20.9,3.3c3.5,0.4,7,0.8,10.8,0.7c1.8,0,4.1-0.4,5.7-0.9c1.7-0.5,3.4-1.1,5.1-1.7
		c6.6-2.5,13-5.5,19.2-8.8c1.9-1,3.3-1.7,4.6-2.3C177.8,230.4,177.4,230.8,177,231.1 M60.3,97.6c0-0.4,0-0.7,0.1-1.1
		c0.2,2.1,0.4,4.3,0.6,6.4c0.2,1.7,0.4,3.4,0.7,5.1l0.1,0.3c0-0.1,0,0.2,0,0.2c0,0.2,0.1,0.5,0,0.6c0,0.2,0,0.5,0,0.9
		c0,0.7-0.1,1.3-0.3,2c-0.2,0.6-0.4,1.2-0.6,1.8c0-0.8-0.1-1.5-0.1-2.3l-0.4-5.7c-0.1-1.9-0.1-3.7-0.1-5.6
		C60.2,99.4,60.2,98.4,60.3,97.6 M66.1,81.3c0.2,1.5,0.5,2.9,0.7,4.3l1.7,9.3l0.9,4.6c0.3,1.5,0.8,3.4,0.6,4.1
		c-0.1,2.4-1.3,5.2-2.6,7.8c-0.3,0.6-0.7,1.3-1,1.9c0-0.1,0.1-0.2,0.1-0.3c0.2-0.9,0.3-1.9,0.3-2.9c0-0.5,0-1.1-0.1-1.6
		c0-0.3-0.1-0.4-0.1-0.7l-0.1-0.7c-0.3-1.6-0.7-3.2-0.9-4.8C65,99,64.5,95.7,64,92.4c-0.3-1.8-0.5-3.6-0.7-5.3
		C64.1,85.1,65.1,83.2,66.1,81.3 M71.4,73.8c0.6,2,1.3,4,1.9,6l2.7,8.4l1.3,4.2c0.4,1.4,1,2.9,1.1,3.8c0.2,2-0.5,4.7-1.5,7.2
		c-0.7,1.8-1.6,3.5-2.5,5.2c0.4-1.5,0.7-3.2,0.7-5c-0.1-2.4-0.7-3.5-1-5.1l-1.2-4.6l-2.4-9.1l-1.9-7.6C69.5,76,70.4,74.9,71.4,73.8
		 M77.5,68.6c0.8,1.6,1.6,3.3,2.3,4.9c2.3,5,4.7,10.1,6.8,15c1.6,3.8-0.5,9-2.7,13.7c-0.5,1-1,2-1.5,3c0.9-2.9,1.8-6.1,1.2-9.8
		c-0.4-2-1.1-3.2-1.6-4.6l-1.6-4.1l-3.3-8.2c-1-2.4-2-4.8-3-7.2C75.2,70.3,76.3,69.4,77.5,68.6 M95.8,83.7L95.8,83.7
		C95.9,83.8,95.8,83.8,95.8,83.7 M83.6,64.5c0.5,0.7,0.9,1.3,1.4,2c2.9,4.4,5.7,8.8,8.5,13.2l2,3.3l0.2,0.4l0.1,0.1l0,0.1
		c0.1,0.3,0.4,0.7,0.3,0.7c0,0,0.1,0.6,0,1c0,1.9-0.7,4.4-1.5,6.7c-1.2,3.7-2.8,7.4-4.4,11.2c0.9-2.2,1.6-4.6,2.1-7.1
		c0.6-3,0.6-6.6-0.9-9.8c-2.6-5.1-5.2-9.9-8-14.7c-1-1.7-2-3.4-3-5.1C81.4,65.9,82.5,65.2,83.6,64.5 M117.3,33.5
		c8.4,2.4,16.8,4.9,25.1,7.8c5,1.7,10.1,3.6,14.9,5.6c2.4,1,4.8,2.1,7.1,3.2c2.4,1.2,3.8,2.1,5.6,3.9c3.6,3.4,7.1,7.4,10.3,11.4
		c3.2,4,6.3,8.3,8.1,12.5c0.5,1,0.8,2.2,0.9,2.8c0.2,1,0.2,2.1,0.2,3.4c0,2.5-0.1,5.1-0.3,7.8c-0.3,5.3-0.8,10.6-1.2,16
		c-0.6,8-1.3,16-1.7,24.1c0,0.2,0,0.5,0,0.7c0,0.5,0,0.9,0,1.3c0,0.4,0,0.7,0,1.1c-0.1,2.9-0.2,2.9-0.4,2.9c0,0-0.1-0.5-0.1-1.2
		c-0.1-1.3-0.1-2.6-0.2-3.9c-0.1-2-0.2-4.3-0.2-5.9c0-3.3,0-6.7-0.1-10.1c-0.1-5.2-0.2-10.4-0.4-15.6c-0.1-2.7-0.2-5.2-0.7-8.2
		c-0.5-3.1-1.8-5.9-3-8.4c-5.3-9.8-12.1-17.9-19.5-25.5c-3.7-3.8-7.6-7.3-12.1-10.6c-2.6-1.8-5-2.8-7.5-3.9c-2.5-1-4.9-2-7.4-2.9
		c-6.2-2.2-12.4-4.1-18.6-5.9C116.4,35.2,116.8,34.4,117.3,33.5 M196.1,142.9c-0.1-0.5-0.1-1.1,0-1.8c0-0.8,0.1-1.6,0.2-2.4l0.1,0.2
		l2.4,3.8l9.7,15.2l1,1.5c0.1,0.3,0.2,0.5,0.3,0.8c0.5,1.3,0.8,2.5,1.1,3.8c-0.7-1.1-1.5-2.2-2.2-3.2c-3.3-4.6-6.6-9.2-10-13.7
		l-2.5-3.3C196.3,143.9,196.1,143.4,196.1,142.9 M118.9,29.9c0.2-0.6,0.5-1.3,0.7-1.8l1.1,0.2c11.1,2.2,22.1,4.5,33.1,7
		c10.8,3.5,23.8,2.8,31.1,7.7c1.8,1.4,3.8,3.3,5.6,5.2c1.9,1.9,3.6,4,5.3,6c1.7,2.1,3.2,4.2,4.5,6.4c1.3,2.1,2.3,4.5,2.6,6.3
		c0.2,1.7-0.1,4.6-0.5,7.2c-0.4,2.7-0.8,5.4-1.4,8.1c-1,5.5-2.2,11-3.3,16.5c-0.7,3.5-1.4,6.9-2.1,10.4c0-0.2,0.1-0.4,0.1-0.5
		c0.6-5.4,1.3-10.7,1.8-16.1c0.3-2.7,0.5-5.4,0.5-8.3c0-1.4,0-3-0.2-4.6c-0.4-2-0.9-3.4-1.5-4.9c-2.5-5.6-5.7-10.1-9.2-14.5
		c-3.5-4.4-7.2-8.4-11.7-12.1c-0.6-0.5-1.1-0.9-1.8-1.4c-0.5-0.4-1.5-1.1-2-1.3c-1.5-0.9-2.8-1.4-4.1-1.9c-2.6-1.1-5.3-2-7.9-2.7
		c-5.3-1.6-10.5-2.9-15.8-4.2c-8.4-2-16.8-3.9-25.3-5.6C118.7,30.5,118.8,30.2,118.9,29.9 M256.1,25.5c-0.1-1.4-0.4-2.8-0.7-4.3
		c-0.4-1.4-0.9-2.7-1.4-4.1c-1.7-4.1-4.5-7.9-8-10.7c-8-6.7-14.4-6.2-21-6.4c-6.6-0.2-20.7,4.7-20.7,4.7h0.1
		c-4.1,1.1-8.1,2.2-12.1,3.1c-3.2,0.8-6.4,1.5-9.6,1.9c-1.4,0.2-3.1,0.2-4.8,0.3l-5,0.2l-20,1l-2.7,0.1c-0.3,0-1.3,0-1.6,0
		c-4.7,0-9.9,0-14.7,0.9c-5.9,0.8-10.8,3.7-13.6,5.6c0,0-0.1,0-0.1,0.1c0,0-1,0.7-1.9,1.5c-0.3,0.3-0.5,0.4-0.5,0.4l0,0
		c-0.2,0.2-0.4,0.4-0.5,0.6c-0.9,1-1.8,2.2-2.4,3.3c-0.1,0.2-0.2,0.3-0.3,0.5c-0.9,1.2-1.8,2.6-2.7,4.3c0,0,0,0,0,0
		c-0.7,1-1.3,2-2,3.1c-0.5,0.7-1,1.3-1.4,1.8c-0.7,1-1.2,1.5-1.2,1.5c-1.5,1.8-2.8,3.7-4.5,5.5c-1.5,1.6-3,3.2-4.5,4.7
		c-3.1,3-5.2,5.3-9.1,7.7l-1.1,0.8c-6.2,3.9-13.2,7.5-19.2,12.9c-0.7,0.6-1.4,1.3-2,2c-0.7,0.5-1.2,0.9-1.7,1.3
		c-0.9,0.7-1.4,1.2-1.4,1.2l-2.4,2.4L59,75.9c-0.4,0.4-0.7,0.9-1.1,1.3l-1,1.4l-2,2.9c-1.1,2-2.3,3.9-3.3,6c-2,4.1-3.6,8.4-4.7,12.8
		c-1.2,4.4-1.9,8.8-2.5,13.2c-0.6,4.5-0.7,8.7-1.5,12.7c-0.2,1.2-0.5,2.4-0.9,3.6c-0.7,1.5-1.6,3-2.5,4.4c-1.8,2.9-3.8,5.6-5.9,8.4
		c-8.4,11-17.8,21.4-25.9,33.5c-2,3-3.9,6.2-5.5,9.7c-0.8,1.8-1.5,3.7-1.9,5.8c-0.1,0.5-0.2,1.1-0.3,1.8C0,194.5,0,194.4,0,195.3
		c0,1.3,0.2,2.4,0.5,3.5c1.1,4.2,2.8,7.5,4.6,10.8c1.9,3.2,3.9,6.3,6.2,9.2c2.3,2.9,4.7,5.6,7.5,8.3c2.7,2.5,5.7,5.1,9.9,6.9
		c3.8,1.4,7.1,2.2,10.6,3.1c3.5,0.9,6.9,1.6,10.4,2.4c13.8,3,27.7,5.4,41.6,7.4c14,2,27.9,4,42.2,4.4c1.8,0,3.6,0,5.5-0.1
		c0.9-0.1,1.9-0.2,2.9-0.4c1-0.2,1.8-0.5,2.7-0.7c3.5-1.1,6.8-2.4,10-4c3.5-1.7,7-3.6,10.4-5.6c3.5-1.6,6.9-3.4,10.2-5.5
		c1.5-0.9,3.5-2.1,5.3-3.2c0,0,0,0,0,0s6-3.6,9.7-7.4c1.5-1.6,2.8-3.2,3.9-5.1c1.2-2.1,1.8-4.5,2.4-6.7c0.2-0.9,0.6-1.6,1-2.4
		c0.8-1.4,2.4-3.4,2.4-3.4c1.5-1.9,3.3-3.5,4.6-4.4c0.2-0.2,0.5-0.3,0.7-0.5c0,0,0.1,0,0.1-0.1c0.5-0.3,1.2-0.9,1.9-1.5
		c0.1,0,0.1-0.1,0.2-0.1c0.2-0.2,0.4-0.4,0.6-0.6c0,0,0.1-0.1,0.1-0.1c0.5-0.4,0.8-0.7,0.8-0.7l0,0c0.7-0.7,1.5-1.6,2.3-2.5
		c0,0,0.1-0.1,0.1-0.1c0.2-0.3,0.3-0.4,0.3-0.4c1.5-2,2.7-3.8,3.9-6c0.1-0.2,0.2-0.4,0.3-0.5c0.4-0.8,0.8-1.7,1.1-2.6
		c2.1-4.8,3.8-11,4.6-18.6c0.2-1.9,0.3-3.8,0.4-5.7c0.1-0.7,0.3-4.7-0.6-8.7c-0.2-1.4-0.5-2.8-0.8-4.2c-1.1-4.1-2.3-7.8-3.4-11.5
		c-0.1-0.7-0.2-1.4-0.3-2c-0.6-4.7-0.7-9.2-0.1-13.7c0.7-4.5,2.1-8.9,3.9-13.2c1.8-4.3,4.2-8.4,6.7-12.6c2.5-4.2,5-8.4,7.6-12.6
		c5.1-8.4,10.2-17.1,14.1-26.5c1.9-4.7,3.5-9.6,4.6-14.7l0.4-1.9c0.1-0.3,0.2-0.7,0.2-0.8l0-0.5l0-0.1c0.6-1.8,1.1-3.6,1.4-5.4
		c0.3-1.3,0.4-2.7,0.5-4.1C256.2,28.4,256.1,26.9,256.1,25.5"/>
</g>
</svg>
