<?xml version="1.0" encoding="utf-8"?>
<!-- Generator: Adobe Illustrator 24.2.0, SVG Export Plug-In . SVG Version: 6.00 Build 0)  -->
<svg version="1.1" xmlns="http://www.w3.org/2000/svg" xmlns:xlink="http://www.w3.org/1999/xlink" x="0px" y="0px"
	 viewBox="0 0 258 115" style="enable-background:new 0 0 258 115;" xml:space="preserve">
<style type="text/css">
	.st0{display:none;}
	.st1{display:inline;}
	.st2{fill:#010101;}
	.st3{display:inline;fill:#010101;}
</style>
<g id="ID" class="st0">
	<g class="st1">
		<g>
			<rect x="14.39" y="25.85" class="st2" width="4.49" height="25.56"/>
			<polygon class="st2" points="33,25.85 33,51.41 37.42,51.41 37.42,33.23 51.51,51.41 55.28,51.41 55.28,25.85 50.86,25.85 
				50.86,43.53 37.16,25.85 			"/>
			<polygon class="st2" points="67.14,25.85 67.14,30.01 75.24,30.01 75.24,51.41 79.77,51.41 79.77,30.01 87.88,30.01 87.88,25.85 
							"/>
			<polygon class="st2" points="99.92,25.85 99.92,51.41 119.05,51.41 119.05,47.39 104.41,47.39 104.41,40.53 117.22,40.53 
				117.22,36.51 104.41,36.51 104.41,29.87 118.87,29.87 118.87,25.85 			"/>
			<path class="st2" d="M131.67,25.85v25.56h4.49V42.5h5.62l6.28,8.91h5.29l-6.9-9.68c3.58-0.98,6.1-3.54,6.1-7.78
				c0-5.01-3.61-8.11-9.5-8.11H131.67z M147.99,34.22c0,2.63-2.04,4.31-5.26,4.31h-6.57v-8.57h6.54
				C146.02,29.95,147.99,31.4,147.99,34.22"/>
			<rect x="165.62" y="25.85" class="st2" width="4.49" height="25.56"/>
			<path class="st2" d="M183.1,38.67c0,7.23,5.48,13.18,13.33,13.18c7.85,0,13.4-6.03,13.4-13.25c0-7.23-5.48-13.18-13.33-13.18
				C188.65,25.41,183.1,31.44,183.1,38.67 M205.12,38.67c0,5.01-3.54,9.05-8.62,9.05c-5.07,0-8.69-4.12-8.69-9.12
				c0-5.01,3.54-9.06,8.61-9.06C201.51,29.54,205.12,33.67,205.12,38.67"/>
			<path class="st2" d="M221.92,25.85v25.56h4.49V42.5h5.62l6.28,8.91h5.29l-6.9-9.68c3.58-0.98,6.1-3.54,6.1-7.78
				c0-5.01-3.62-8.11-9.49-8.11H221.92z M238.25,34.22c0,2.63-2.04,4.31-5.26,4.31h-6.57v-8.57h6.53
				C236.27,29.95,238.25,31.4,238.25,34.22"/>
		</g>
		<g>
			<path class="st2" d="M42.81,74.02v25.56h9.53c8.03,0,13.58-5.59,13.58-12.81c0-7.23-5.55-12.75-13.58-12.75H42.81z M61.21,86.84
				c0,5.04-3.5,8.65-8.87,8.65H47.3V78.12h5.04C57.71,78.12,61.21,81.8,61.21,86.84"/>
			<polygon class="st2" points="78.05,74.02 78.05,99.59 97.18,99.59 97.18,95.57 82.54,95.57 82.54,88.7 95.36,88.7 95.36,84.69 
				82.54,84.69 82.54,78.05 97,78.05 97,74.02 			"/>
			<polygon class="st2" points="109.8,74.02 109.8,99.59 114.3,99.59 114.3,89.18 127.19,89.18 127.19,85.09 114.3,85.09 
				114.3,78.12 128.83,78.12 128.83,74.02 			"/>
			<rect x="141.3" y="74.02" class="st2" width="4.49" height="25.56"/>
			<polygon class="st2" points="159.92,74.02 159.92,99.59 164.34,99.59 164.34,81.4 178.43,99.59 182.19,99.59 182.19,74.02 
				177.78,74.02 177.78,91.7 164.08,74.02 			"/>
			<polygon class="st2" points="196.06,74.02 196.06,99.59 215.19,99.59 215.19,95.57 200.55,95.57 200.55,88.7 213.36,88.7 
				213.36,84.69 200.55,84.69 200.55,78.05 215.01,78.05 215.01,74.02 			"/>
		</g>
	</g>
</g>
<g id="saucony" class="st0">
	<g class="st1">
		<polygon class="st2" points="14.75,59.24 14.74,59.24 14.74,59.24 		"/>
		<path class="st2" d="M178.72,77.78c-1,0-2.05-0.31-3.14-0.9l-0.52-0.28l-2.42,5.33l0.46,0.24c2.07,1.12,3.95,1.6,6.26,1.6
			c4.29,0,6.77-2.09,8.86-7.45c0-0.01,10.37-26.82,10.37-26.82h-0.8h-6.44c0,0-5.36,15.35-6.2,17.77c-0.92-2.4-6.8-17.77-6.8-17.77
			h-7.4c0,0,10.6,25.43,10.79,25.88C180.82,77.36,179.93,77.78,178.72,77.78z"/>
		<path class="st2" d="M111.55,71.03l0.35-0.39l-4.27-4.21l-0.39,0.4c-2.02,2.08-3.93,3-6.18,3c-4.01,0-7.03-3.26-7.03-7.61v-0.09
			c0-4.21,2.96-7.51,6.75-7.51c2.93,0,4.7,1.44,6.18,2.99l0.4,0.43l4.35-4.68l-0.34-0.37c-2.85-3.15-6.1-4.55-10.54-4.55
			c-7.68,0-13.7,6.06-13.7,13.79v0.1c0,7.65,5.99,13.65,13.65,13.65C106.37,75.97,109.36,73.48,111.55,71.03z"/>
		<path class="st2" d="M127.33,75.88c7.93,0,14.13-6.04,14.13-13.75v-0.1c0-7.68-6.16-13.7-14.03-13.7c-7.9,0-14.09,6.06-14.09,13.8
			v0.1C113.34,69.88,119.49,75.88,127.33,75.88z M120.25,62.03c0-4.36,2.98-7.52,7.08-7.52c4.12,0,7.23,3.27,7.23,7.62v0.1
			c0,3.73-2.45,7.51-7.13,7.51c-4.03,0-7.18-3.34-7.18-7.61V62.03z"/>
		<path class="st2" d="M75.72,49.24l0.03,0.54v14.5c0,2.95-1.91,5-4.67,5c-2.72,0-4.78-2.18-4.78-5.08V49.24h-7.27v15.04
			c0,6.56,5.26,10.88,11.97,10.88c2.05,0,3.97-0.76,5.65-1.62c0.16-0.08,0.31-0.17,0.47-0.25l0.08,1.34v0.51h5.81V64.2v-2.38V49.24
			h-7.27H75.72z"/>
		<path class="st2" d="M152.68,75.16l-0.03-0.54v-14.5c0-2.95,1.91-5.01,4.67-5.01c2.72,0,4.78,2.18,4.78,5.08v14.96h7.26V60.12
			c0-6.57-5.26-10.88-11.98-10.88c-2.05,0-3.97,0.76-5.64,1.62c-0.16,0.08-0.32,0.17-0.48,0.25l-0.08-1.34v-0.53h-5.82v10.96v2.38
			v12.58h7.28H152.68z"/>
		<path class="st2" d="M47.23,49.67v1.12c-2.09-1.19-4.57-2.41-7.3-2.41c-8.05,0-14.37,5.61-14.37,13.5v0.1
			c0,7.81,6.27,13.36,14.27,13.36c2.73,0,5.25-1.26,7.4-2.48v1.12v0.69h6.49V49.05h-6.49V49.67z M40.17,69.65
			c-4.36,0-7.9-3.48-7.9-7.77c0-4.29,3.54-7.76,7.9-7.76c4.36,0,7.9,3.47,7.9,7.76C48.07,66.17,44.54,69.65,40.17,69.65z"/>
		<path class="st2" d="M12.94,52.87c1.77,0,4.21,0.85,7.25,2.53l0.24,0.13l2.72-4.92l-0.22-0.14c-2.95-1.83-6.68-2.92-9.95-2.92
			c-5.03,0-10.11,2.69-10.11,8.71v0.1c0,4.92,4.53,6.88,8.47,8.04c2.61,0.77,5.16,1.69,5.16,3.63v0.1c0,0.84-0.37,3.02-3.85,3.02
			c-2.44,0-5.53-1.43-8.72-3.58l-0.23-0.16l-3.04,4.68l0.21,0.15c3.4,2.51,7.5,4.21,11.57,4.21c6.83,0,10.59-3.31,10.59-8.75v-0.55
			c0-3.44-2.75-6.03-8.42-7.92h0.01h-0.01l0,0L13.92,59c-2.63-0.87-4.53-1.51-4.53-3.51v-0.11C9.39,54.17,10.5,52.87,12.94,52.87z"
			/>
		<path class="st2" d="M252.98,79.2v-0.01c-2.13-1.44-2.13-1.45-3.57-2.33c-13.92-8.44-21.12-9.43-27.87-7.17
			c-5.25,1.76-14.27,8.89-14.27,8.89c-8.24,5.5-16.58,14.58-36.11,13.52c-18.19-0.98-55.64-10.71-56.09-10.84
			c-0.45-0.13-0.93,0.21-0.79,0.74c0.11,0.4,1.02,2.39,1.02,2.39c0.12,0.27,0.36,0.34,0.47,0.39c14.92,5.99,60.41,22.67,76.48,22.67
			c19.16,0,35.01-26.6,52.05-26.6c5.29,0,6.63,0.19,7.4,0.2c0.74,0.06,1.39-0.17,1.57-0.83C253.27,80.23,253.53,79.68,252.98,79.2z
			 M202.03,99.39L202.03,99.39L202.03,99.39z M203.54,96.26c-0.21,1.08-0.83,2-1.75,2.61l0,0c-0.92,0.61-2.01,0.82-3.08,0.61
			c-1.07-0.21-2-0.84-2.61-1.75c-1.26-1.89-0.74-4.44,1.14-5.69c1.88-1.25,4.44-0.73,5.69,1.15
			C203.54,94.09,203.76,95.18,203.54,96.26z M213.86,90.83c-1.89,1.25-4.43,0.73-5.69-1.14c-1.25-1.89-0.74-4.44,1.15-5.69
			c1.89-1.25,4.44-0.74,5.68,1.14c0.46,0.69,0.69,1.48,0.69,2.25C215.69,88.73,215.05,90.04,213.86,90.83z M227.68,80.19
			c-0.22,1.07-0.84,2-1.75,2.6c-0.92,0.61-2,0.83-3.08,0.61c-1.07-0.21-2-0.83-2.61-1.75c-0.61-0.92-0.82-2-0.61-3.08
			c0.22-1.07,0.84-2,1.75-2.61c0.91-0.61,2-0.82,3.07-0.61c1.08,0.21,2,0.84,2.61,1.75C227.68,78.02,227.89,79.12,227.68,80.19z"/>
	</g>
</g>
<g id="patagonia" class="st0">
	<path class="st3" d="M50.97,62.62h-1.55c-2.75,0-4.99,2.06-4.99,4.81c0,2.24,0.69,4.81,3.61,4.81c2.58,0,3.09-2.06,3.09-4.13v-5.16
		C51.14,62.97,51.32,62.62,50.97,62.62L50.97,62.62z M129.32,87.73h-5.42c-3.89-0.46-7.25-1.95-7.25-5.5c0-2.58,2.92-4.47,5.33-4.81
		c0,0,0.69-0.17,0-0.17c-0.86-0.17-5.5-0.52-7.05-0.17c0,0-0.34,0-0.52-0.34c-0.17-0.35-1.03-2.75-1.2-2.92
		c-0.17-0.34,0.17-0.52,0.17-0.52c3.44-0.52,6.53-2.24,7.91-2.75c0.86-0.17,0-0.34,0-0.34c-4.81-0.86-9.63-4.13-9.63-9.8
		c0-8.08,6.71-11.69,13.07-11.69c2.92,0,4.64,0.52,6.19,0.69c0,0,0.17,0.17,0.34-0.17c0-0.52,0.51-1.89,0.51-1.89
		c0.69-2.06,1.72-2.92,4.82-2.92c0.69,0,1.38,0,1.89,0.17c0,0,0.35-0.17,0.35,0.34c-0.18,0.17-1.21,4.3-1.21,4.47
		c-0.17,0.52-0.34,0.17-0.34,0.17c-0.52-0.34-0.69-0.52-1.89-0.34c-0.69,0-1.03,0.52-1.03,1.2c0,1.2,5.5,2.92,5.5,9.46
		c0,8.77-8.08,10.66-15.13,12.38c0,0-0.69,0.17,0,0.17c4.64,0.52,14.27,1.72,14.27,7.74C139,85.23,133.35,87.18,129.32,87.73
		L129.32,87.73z M61.98,73.8h1.38c0.34,0,0.34,0.34,0.34,0.34v2.75c0,0.52-0.52,0.35-0.52,0.35h-11c0,0-0.17,0-0.17-0.35
		c-0.17-0.69-0.51-1.38-0.51-1.89c-0.17-0.69-0.52,0-0.52,0c-2.23,1.72-4.81,3.1-7.91,3.1c-5.16,0-9.11-3.27-9.11-8.6
		c0-6.53,4.13-10.14,9.29-10.14l7.91-0.34v-0.34v-0.86c0-2.24-1.2-3.27-3.78-3.27c-3.27,0-4.81,1.2-6.36,3.09c0,0,0,0.17-0.34,0.17
		c-0.34-0.17-3.09-1.2-3.09-1.2s-0.34,0-0.17-0.34c0.17-0.34,3.61-8.6,3.61-8.6s0-0.34,0.17-0.17c0.52,0.17,2.58,0.86,3.09,0.86
		c0.34,0.17,0.17,0.52,0.17,0.52l-0.34,0.69c-0.17,0.69,0.17,0.34,0.17,0.34c2.24-0.86,4.47-1.2,6.71-1.2
		c6.53,0,10.83,2.75,10.83,9.46v15.13C61.8,73.28,61.8,73.8,61.98,73.8L61.98,73.8z M62.66,50.76c4.47-1.2,8.25-4.13,10.14-8.25
		c0,0,0-0.17,0.34-0.17c0.34,0,2.58,0.52,2.92,0.52c0.34,0.17,0.17,0.34,0.17,0.34c-0.17,1.38-0.34,2.92-0.34,4.13v2.06
		c0,0.34,0.34,0.17,0.34,0.17h4.64c0.34,0,0.17,0.34,0.17,0.34s-0.69,3.44-0.69,3.78c-0.17,0.34-0.34,0.34-0.34,0.34h-3.78
		c-0.35,0-0.34,0.17-0.34,0.17v15.99c0,1.89,1.55,2.23,2.41,2.23c0.86,0,1.03,0,1.72-0.34c0,0,0.34-0.34,0.34,0
		c0.17,0.34,1.03,2.58,1.2,2.92c0.17,0.17-0.17,0.34-0.17,0.34c-3.61,2.58-3.95,2.75-8.77,2.75c-5.33,0-7.22-2.58-7.22-7.39V54.2
		c0,0,0-0.17-0.34-0.17h-2.41c0,0-0.17,0-0.17-0.34V51.1C62.49,50.93,62.66,50.76,62.66,50.76L62.66,50.76z M141.06,63.31
		c0-8.94,7.05-14.61,16.33-14.61c9.28,0,16.5,5.67,16.5,14.61c0,9.28-7.22,14.78-16.5,14.78C148.11,78.1,141.06,72.6,141.06,63.31z
		 M151.72,59.36c0,4.13,1.72,14.44,7.56,14.44c3.09,0,3.95-3.27,3.95-6.36c0-4.13-1.72-14.44-7.74-14.44
		C151.72,53,151.72,57.29,151.72,59.36z M206.57,77.24h-14.44c0,0-0.17,0-0.17-0.17v-2.92c0-0.34,0.34-0.34,0.34-0.34h1.72
		c0.17,0,0.17-0.17,0.17-0.17V57.98c0-1.72-1.55-2.41-3.1-2.41c-1.89,0-3.26,0.86-4.64,2.06c0,0-0.17,0.17-0.17,0.34v15.65
		c0,0,0,0.17,0.17,0.17h1.89c0,0,0.17,0,0.17,0.34v2.92c0,0.17-0.17,0.17-0.17,0.17H173.9c0,0-0.17,0.17-0.17-0.35v-2.75
		c0-0.34,0.17-0.34,0.17-0.34h1.54c0.35,0,0.18-0.17,0.18-0.17v-18.4c0,0,0.17-0.34-0.18-0.34l-1.54,0.52c0,0-0.17,0.17-0.17-0.17
		v-2.92c0-0.34,0.17-0.17,0.17-0.17l12.21-3.27c0,0,0.34-0.17,0.34,0.17V53c0,0.51,0.17,0.17,0.17,0.17
		c2.92-2.24,5.85-4.47,9.8-4.47c7.39,0,8.43,4.99,8.43,8.08v16.85c0,0-0.17,0.17,0.17,0.17h1.55c0,0,0.17,0,0.17,0.34v2.75
		C206.74,77.41,206.57,77.24,206.57,77.24L206.57,77.24z M221.18,48.87l-12.21,3.27c0,0-0.17,0-0.17,0.34v2.75
		c0,0.34,0.34,0.17,0.34,0.17s0.86-0.17,1.55-0.34c0.34,0,0.17,0.34,0.17,0.52v18.05c0,0,0.17,0.17-0.17,0.17h-1.72
		c0,0-0.35,0-0.35,0.34v2.92c0,0.35,0.35,0.17,0.35,0.17h14.27c0.34,0,0.17-0.35,0.17-0.35v-2.75c0-0.34-0.34-0.34-0.34-0.34h-1.38
		c-0.35,0-0.17-0.17-0.17-0.17V49.04C221.53,48.7,221.18,48.87,221.18,48.87L221.18,48.87z M216.88,40.27
		c2.41,0,5.16,0.69,5.16,3.61c0,3.44-4.64,4.81-7.56,4.81c-2.41,0-3.96-1.2-3.96-3.61C210.52,42.34,214.3,40.27,216.88,40.27z
		 M98.77,62.62h-1.38c-2.92,0-4.99,2.06-4.99,4.81c0,2.24,0.69,4.81,3.44,4.81c2.75,0,3.27-2.06,3.27-4.13v-5.16
		C99.11,62.97,99.11,62.62,98.77,62.62L98.77,62.62z M109.94,73.8h1.2c0.51,0,0.51,0.34,0.51,0.34v2.75c0,0.52-0.51,0.35-0.51,0.35
		h-11c0,0-0.17,0-0.34-0.35c-0.17-0.69-0.34-1.37-0.34-1.89c-0.17-0.69-0.52,0-0.52,0c-2.41,1.72-4.81,3.1-7.91,3.1
		c-5.33,0-9.28-3.27-9.28-8.6c0-6.53,4.3-10.31,9.46-10.31l7.74-0.17c0,0,0.17,0,0.17-0.34v-0.86c0-2.24-1.2-3.27-3.78-3.27
		c-3.27,0-4.81,1.2-6.36,3.09c0,0-0.17,0.17-0.34,0c-0.34,0-3.27-1.03-3.27-1.03s-0.17,0,0-0.34c0.17-0.34,3.44-8.6,3.44-8.6
		s0-0.34,0.34-0.17c0.34,0.17,2.58,0.86,2.92,0.86c0.34,0.17,0.17,0.52,0.17,0.52s0,0.34-0.17,0.69c-0.34,0.69,0.17,0.34,0.17,0.34
		c2.24-0.86,4.47-1.2,6.71-1.2c6.53,0,10.83,2.75,10.83,9.46v15.13C109.77,73.28,109.6,73.8,109.94,73.8L109.94,73.8L109.94,73.8z
		 M121.29,56.09c0,3.09,1.72,11.52,6.02,11.52c2.24,0,3.09-1.03,3.09-3.78c0-3.1-1.89-11.52-6.19-11.52
		C122.15,52.31,121.29,53.34,121.29,56.09L121.29,56.09z M125.76,78.61c-0.52,0.52-0.86,2.41-0.86,3.61c0,1.38,0.69,2.92,2.41,2.92
		c1.38,0,2.24-0.69,2.24-2.06c0-2.58-1.55-3.44-3.44-4.64C126.11,78.44,125.93,78.44,125.76,78.61z M240.44,62.62h-1.38
		c-2.92,0-4.99,2.06-4.99,4.81c0,2.24,0.69,4.81,3.44,4.81c2.75,0,3.27-2.06,3.27-4.13v-5.16
		C240.78,62.97,240.78,62.62,240.44,62.62L240.44,62.62z M251.61,73.8h1.38c0.34,0,0.34,0.34,0.34,0.34v2.75
		c0,0.52-0.52,0.35-0.52,0.35h-11c0,0-0.17,0-0.34-0.35c-0.17-0.69-0.35-1.37-0.35-1.89c-0.17-0.69-0.52,0-0.52,0
		c-2.41,1.72-4.81,3.1-7.91,3.1c-5.33,0-9.28-3.27-9.28-8.6c0-6.53,4.3-10.31,9.46-10.31l7.74-0.17c0,0,0.17,0,0.17-0.34v-0.86
		c0-2.24-1.2-3.27-3.78-3.27c-3.27,0-4.81,1.2-6.36,3.09c0,0-0.17,0.17-0.34,0c-0.35,0-3.1-1.03-3.1-1.03s-0.34,0-0.17-0.34
		c0.17-0.34,3.44-8.6,3.44-8.6s0-0.34,0.35-0.17c0.34,0.17,2.58,0.86,2.92,0.86c0.34,0.17,0.34,0.51,0.34,0.51l-0.34,0.69
		c-0.34,0.69,0.17,0.34,0.17,0.34c2.24-0.86,4.47-1.2,6.7-1.2c6.54,0,10.83,2.75,10.83,9.46v15.13
		C251.44,73.28,251.44,73.8,251.61,73.8L251.61,73.8z M14.69,55.4v13.93c0,2.41,0.86,4.47,3.61,4.47c3.44,0,4.99-2.06,4.99-8.43
		c0-10.14-5.16-10.66-6.88-10.66l-1.38,0.17C15.04,54.89,14.69,55.06,14.69,55.4L14.69,55.4z M14.87,51.28
		c2.58-1.55,4.47-2.58,7.05-2.58c6.71,0,12.03,5.5,12.03,13.58c0,7.91-4.99,15.82-13.58,15.82c-1.72,0-3.95-0.17-5.5-1.03
		c0,0-0.17,0-0.17,0.17v4.98c0,0,0,0.35,0.34,0.35h3.09c0,0,0.34,0,0.34,0.34v2.75c0,0.17-0.34,0.35-0.34,0.35H2.49
		c0,0-0.52,0-0.52-0.35v-0.03v-0.03v-0.03v-0.03v-0.03v-0.03v-0.03v-0.03v-0.04v-0.04V85.3v-0.04v-0.04v-0.04v-0.05v-0.04v-0.05V85
		v-0.05V84.9v-0.05v-0.05v-0.05v-0.05v-0.05V84.6v-0.05V84.5v-0.05V84.4v-0.05v-0.05v-0.05v-0.05v-0.06v-0.05v-0.05v-0.05v-0.05
		v-0.05v-0.05v-0.05v-0.05v-0.05v-0.05v-0.05v-0.05V83.5v-0.05v-0.04v-0.05v-0.04v-0.04v-0.04V83.2v-0.04v-0.04V83.1v-0.03v-0.03V83
		v-0.03v-0.03v-0.02c0-0.35,0.34-0.35,0.34-0.35h1.38c0.34,0,0.34-0.34,0.34-0.34V55.24c0-0.34-0.34-0.17-0.34-0.17l-1.38,0.34
		c0,0-0.34,0-0.34-0.34v-0.02v-0.02v-0.02v-0.02v-0.03v-0.03V54.9v-0.03v-0.04V54.8v-0.04v-0.04v-0.04v-0.04v-0.04v-0.04V54.5v-0.05
		V54.4v-0.05V54.3v-0.05v-0.05v-0.05v-0.05v-0.06v-0.06v-0.06v-0.06v-0.06v-0.06V53.7v-0.06v-0.06v-0.06v-0.06v-0.06v-0.06V53.3
		v-0.05V53.2v-0.05v-0.05v-0.05v-0.05v-0.05v-0.05v-0.05V52.8v-0.04v-0.04v-0.04v-0.04v-0.04v-0.04v-0.03v-0.03v-0.03v-0.03V52.4
		v-0.03v-0.02v-0.02v-0.02c0-0.34,0.34-0.34,0.34-0.34l12.03-3.09c0,0,0.34-0.17,0.34,0.17v2.06
		C14.69,51.45,14.87,51.28,14.87,51.28L14.87,51.28z"/>
</g>
<g id="chaco">
	<g>
		<path d="M83.31,33.39c-0.11,0.17-0.09,0.48,0.23,0.48c2.04,0.02,4.05,0.08,6.04,0.18c37.03,1.82,65.9,16.66,65.9,34.7
			c0,19.27-32.95,34.88-73.6,34.88c-40.64,0-73.59-15.62-73.59-34.88c0-4.09,0.99-8.51,3.72-12.16c0,0,0.11-0.18-0.09-0.31
			c-0.2-0.13-0.36,0.06-0.36,0.06c-3.99,4.54-6.19,9.54-6.19,14.78c0,20.89,35.02,37.83,78.22,37.83s78.22-16.94,78.22-37.83
			c0-19.91-31.8-36.23-72.18-37.72c-1.99-0.07-4-0.11-6.03-0.11C83.59,33.28,83.39,33.27,83.31,33.39"/>
		<path d="M145.59,61.02c0,0.79-0.57,1.33-1.23,1.33v0c-0.69,0-1.24-0.53-1.24-1.33c0-0.8,0.55-1.33,1.24-1.33
			C145.02,59.69,145.59,60.22,145.59,61.02 M146.09,61.02c0-1.09-0.82-1.73-1.73-1.73c-0.92,0-1.74,0.64-1.74,1.73
			c0,1.09,0.82,1.73,1.74,1.73C145.27,62.75,146.09,62.11,146.09,61.02 M144.07,61.16h0.19l0.43,0.78h0.47l-0.48-0.81
			c0.25-0.02,0.45-0.14,0.45-0.49c0-0.43-0.29-0.56-0.76-0.56h-0.7v1.86h0.4V61.16z M144.07,60.85V60.4h0.28
			c0.15,0,0.35,0.01,0.35,0.21c0,0.21-0.1,0.24-0.28,0.24H144.07z"/>
		<path d="M134.03,63.57c-4.7,0-7.71,4.92-7.71,9.27c0,4.36,3.01,9.28,7.71,9.28c4.69,0,7.71-4.92,7.71-9.28
			C141.74,68.49,138.72,63.57,134.03,63.57 M146.14,72.79c0,6.51-4.65,11.78-12.08,11.78c-7.43,0-12.08-5.27-12.08-11.78
			c0-6.5,5.41-11.78,12.08-11.78C140.73,61.01,146.14,66.29,146.14,72.79"/>
		<path d="M55.45,55.28c0,0-8.26-6.56-14.08-7.35c-5.63-0.8-10.84,0.61-15.98,5.26c-5.51,4.9-9.5,16.04-2.15,26.08
			c6.06,8.33,18.06,8.64,24.92,5.21c6.8-3.49,8.51-6.95,8.51-6.95l0.06-4.18c0,0-3.43,7.03-12.49,8.74
			c-7.23,1.34-14.97-2.25-18-8.95c-2.46-5.43-0.82-14.65,3.74-18.61c4.62-4.01,9.62-5.26,15-2.99c5.45,2.21,6.49,6.43,5.94,8.45
			c-0.86,3.06-1.29,3.12-1.29,3.12l0.79,0.49L55.45,55.28z"/>
		<path d="M122.12,65.59c0,0-0.68,1.25-1.17,2.27c-0.52,1.09-1.16,2.87-1.16,2.87h-0.61c0,0,0.31-2.45-0.73-4.22
			c-1.1-1.65-2.99-2.99-4.89-3c-2.68-0.01-5.08,1.22-6.8,4.04c-1.9,3.25-1.59,6.23-0.92,8.51c1.11,3.79,4.83,6,8.63,5.58
			c5.14-0.49,7.35-3.55,7.35-3.55l0.91,1.59c0,0-1.04,1.35-2.94,2.69c-1.53,1.1-3.8,2.39-7.9,2.2c-4.9-0.19-8.02-2.58-9.61-6.13
			c-1.47-3.13-1.9-8.19,0.98-12.54c2.7-3.86,6.27-4.87,9.69-4.86c3.44,0.01,6.4,2.13,7.2,2.73
			C121.25,64.58,122.12,65.59,122.12,65.59"/>
		<path d="M87.46,81.62c-2.14-0.92-3.34-2.85-3.06-5.33c0.11-0.99,0.48-2.08,1.34-3.18c2.94-3.86,9.63-1.57,9.63-1.57l-0.01,8.73
			C95.36,80.26,90.52,82.84,87.46,81.62 M102.89,81.68c0,0-0.98,1.04-1.77,0.8c-0.86-0.25-1.02-0.84-1.1-1.27
			c-0.05-0.25-0.54-10.46-0.59-11.17c0-5.34-4.12-9.19-9.2-9.19c-1.22,0-2.39,0.24-3.45,0.67c-0.28,0.11-0.57,0.25-0.87,0.4
			c-2.17,1.02-4.59,2.2-4.59,2.2l2.06,3.03c0,0,0.45-0.51,1.16-1.17c0.48-0.44,1.52-1.6,3.22-2.24c0.61-0.23,1.31-0.32,2-0.32
			c3.82,0,5.59,2.48,5.59,5.54l0.01,0.54c0,0-4.26-0.76-7.22-0.36c-2.57,0.35-5.94,1.16-7.53,4.59c-0.37,0.8-0.61,1.65-0.74,2.57
			c-0.37,2.82,0.67,5.88,3.85,7.53c3.12,1.59,5.51,1.17,7.72,0.56c1.78-0.55,4.29-2.14,4.29-2.14s0.86,2.27,2.63,2.39
			c1.59,0.11,2.57-0.31,3.43-0.86c0.92-0.61,1.59-1.59,1.59-1.59L102.89,81.68z"/>
		<path d="M79.83,84.23C79.83,84.23,79.83,84.23,79.83,84.23L79.83,84.23l-0.03-0.01c-0.16-0.06-1.06-0.44-1.28-1.27
			c-0.12-0.31-0.11-2.39-0.11-2.39s-0.05-7,0-9.23c0.12-3.18-0.49-4.96-0.98-6.13c-0.43-0.86-2.33-3.98-7.04-4.1
			c-4.41-0.12-7.78,4.83-7.78,4.83l0.01-16.59c0,0,0.12-1.59-0.43-2.33c-0.25-0.37-0.61-0.49-0.61-0.49L56.8,54.3
			c0,0,0.67,0,1.1,0.37c0.43,0.49,0.36,1.78,0.36,1.78l-0.01,24.1c0,0,0.01,2.09-0.11,2.4c-0.24,0.91-1.3,1.28-1.31,1.29h-0.01v0.61
			h7.19v-0.61h0.01c0,0-1.07-0.36-1.31-1.28c-0.12-0.31-0.11-2.4-0.11-2.4l0-9.23c0,0-0.03-0.7,1.78-3.13
			c1.22-1.64,1.5-1.97,2.94-3.24c0.94-0.83,3.32-1.9,5.15-0.24c1.78,1.65,1.59,5.15,1.59,5.15v10.7c0,0-0.01,2.09-0.13,2.39
			c-0.22,0.84-1.12,1.21-1.28,1.28h-0.02v0.01l0,0h0v0.6h7.2L79.83,84.23L79.83,84.23z"/>
		<path d="M57.44,43.22c-2.43,0.76-5.41,0.28-5.41,0.28c1.59-0.35,5.2-3.12,5.47-3.4c0.28-0.28,0.63-0.83,0.42-1.04
			c-0.21-0.21-0.45,0.03-0.45,0.03c-1.66,1.48-5.36,2.83-5.36,2.83c0.52-0.39,1.22-1,3.18-3.79c1.96-2.79,0.17-3.44,0.17-3.44
			c-7.33-1.64-13.31,2.69-14.22,3.4c-0.08,0.06-0.11,0.13-0.11,0.13c-0.25,0.98,0.98,0.77,0.98,0.77c3.53-0.76,6.24-0.35,7.42-0.28
			c1.18,0.07,0.83,1.18,0.21,2.43c-0.62,1.25-2.92,2.89-3.81,3.26c-0.79,0.33-0.37,0.74-0.37,0.74c0.08,0.08,0.24,0.04,0.34,0.04
			c0.05,0,0.15,0,0.22,0c2.91,0.32,7.02,3.58,7.02,3.58s0.78,0.82,0.9,0.07c0.17-1.05-2.91-3.53-2.91-3.53
			c4.09,0.14,6.31-1.18,6.31-1.18s0.62-0.28,0.55-0.62C57.92,43.15,57.44,43.22,57.44,43.22"/>
		<path d="M88.96,43.63c-1.66-3.05-4.16-3.68-4.16-3.68c1.07,0.04,2.29-1.49,2.43-1.7c0.14-0.21,0.24-0.55,0.1-0.66
			c-0.14-0.1-0.38,0.14-0.38,0.14c-1.84,1.91-4.96,1.35-7.11,0.38c-2.15-0.97-4.68-0.9-4.68-0.9s3.5-2.32,3.92-5.23
			c0.41-2.91-0.83-2.08-0.83-2.08c-1.91,2.63-3.99,2.74-4.4,2.84c-0.41,0.1-1.98,0.17-2.22,1.11c-0.24,0.93-1.35,2.22-2.56,3.12
			c-0.86,0.64-0.33,1.28-0.33,1.28c0.58,0.75,1.65,1.25,2.09,1.36c0.45,0.1,1.46-0.66,6.14,0.03c4.68,0.69,7.63,6.24,7.73,7.07
			c0.04,0.33,0.12,0.5,0.2,0.6c0.05,0.04,0.2,0.14,0.28,0.01c0.89-2.55-1.1-5.52-1.1-5.52c3.05,0.55,4.09,1.91,4.19,1.98
			c0.1,0.07,0.42,0.35,0.59,0.24C89.02,43.91,88.96,43.63,88.96,43.63"/>
		<path d="M92.78,8.57c-0.13-1.85-1.37-2.35-2.02-2.49c-0.24-0.03-0.51-0.02-0.68-0.01c-6.4,1-9.7,6.23-9.73,6.29
			c-0.89,1.22-2,4.65-2.53,6.4l0-0.01c-0.38,1.42-0.92,2.2-0.92,2.2c-1.64,2.57-6.86,8.63-18.51,6.06
			c-17.43-3.84-27.41,9.77-27.51,9.91c-7.01,8.77-13.82,13.47-20.22,13.98c-5.2,0.41-8.19-2.24-8.22-2.27
			c-0.06-0.05-0.14-0.05-0.2,0c-0.06,0.05-0.06,0.14-0.01,0.2c2.48,2.7,5.51,4.11,9.02,4.19c9.82,0.22,20.3-10.1,20.41-10.21
			c16.46-15.18,30.21-11.54,30.35-11.51c14.51,2.78,19.13-5.16,20.2-7.62h0c0,0,0-0.01,0.01-0.03c0.04-0.1,0.08-0.18,0.11-0.26
			c0.09-0.22,0.23-0.45,0.42-0.62c0.81-0.68,1.71-1.3,2.6-1.91c1.6-1.09,3.25-2.21,4.35-3.7c1.83-2.48,3.09-6.3,3.09-8.31
			C92.79,8.76,92.79,8.66,92.78,8.57"/>
		<path d="M45.18,17.5c-1.66-1.15-7.92,3.36-7.92,3.36s-0.32,0.2-0.32,0.12c0-0.08,0.16-0.4,0.16-0.4c1.05-1.81,2.65-4.14,2.02-4.63
			c-0.63-0.49-3.04,3.09-3.36,3.68c-0.31,0.57-0.46,0.39-0.46,0.39c0-1.8-0.41-3.52-0.63-4.02c-0.2-0.45-0.36-0.45-0.55-0.45
			c-0.18,0-0.2,0.26-0.2,0.26c0.57,3.76-1.41,7.52-1.64,7.76c-0.31,0.32-0.04,0.5-0.04,0.5c2.09,0.76,6.62-1.75,8.14-1.18
			c1.53,0.57-2,4.8-2,4.8c-0.04,0.05-0.06,0.09-0.07,0.14c-0.01,0.04-0.02,0.07-0.02,0.11c0,0.19,0.15,0.36,0.34,0.34
			c0.06,0,0.1-0.01,0.14-0.03c1.64-0.44,4.7-2.47,5.16-3C44.39,24.7,46.84,18.65,45.18,17.5"/>
		<path d="M75.83,12.55c-0.26-0.14-0.4,0.21-0.4,0.21c-1.07,2.22-2.82,2.33-2.82,2.33c2.47-2.39,1.5-5.36,1.39-5.54
			c-0.07-0.11-0.18-0.08-0.25-0.05c-0.07,0.03-0.07,0.2-0.07,0.21c0,2.77-2.47,4.59-2.47,4.59c0.43-2.86-0.45-3.87-0.64-4.11
			c-0.24-0.31-0.32,0-0.32,0c0.21,5.25-1.32,6.75-3.75,7.97c-2.43,1.21-4.93,1.64-5.18,2.57c-0.25,0.93,0.46,1.11,3.36,1.89
			c1.82,0.49,2.51,1.23,2.78,1.71c0,0,0,0,0,0c0.06,0.11,0.12,0.28,0.15,0.44c0.01,0.07,0.07,0.14,0.19,0.16c0,0,0.01,0,0.01,0
			c0.29,0.05,0.96-0.12,2.2-1.24c1.79-1.61,1.16-2.58,1.16-2.58c-1-1.58-3-1.54-3-1.54c5.9-2.11,7.36-5.94,7.52-6.25
			C75.82,13.04,75.97,12.63,75.83,12.55"/>
	</g>
</g>
</svg>