<svg xmlns="http://www.w3.org/2000/svg" viewBox="0 0 500 150">
  <defs/>
  <path d="M101.3 46.3c-.1.2-.1.5.3.5 2.4 0 4.8.1 7.1.2 43.4 2.2 77.3 19.6 77.3 40.7 0 22.6-38.7 40.9-86.4 40.9s-86.4-18.3-86.4-40.9c0-4.8 1.2-10 4.3-14.2 0 0 .1-.2-.1-.4-.3-.2-.5.1-.5.1-4.7 5.3-7.3 11.2-7.3 17.4 0 24.5 41.1 44.4 91.9 44.4s91.9-19.9 91.9-44.4c0-23.3-37.3-42.5-84.7-44.3-2.3-.1-4.7-.1-7.1-.1 0 0-.2 0-.3.1"/>
  <path d="M160.8 81.7c-5.5 0-9 5.8-9 10.9s3.5 10.9 9 10.9 9-5.8 9-10.9-3.5-10.9-9-10.9M175 92.6c0 7.7-5.5 13.8-14.2 13.8s-14.2-6.2-14.2-13.8 6.3-13.8 14.2-13.8c7.9 0 14.2 6.1 14.2 13.8M68.6 72s-9.7-7.7-16.5-8.7c-6.6-.9-12.7.7-18.7 6.1-6.5 5.8-11.2 18.8-2.5 30.6 7.1 9.7 21.2 10.1 29.3 6.1 8-4.1 10-8.1 10-8.1l.1-4.9s-4.1 8.3-14.7 10.3c-8.5 1.6-17.6-2.6-21.1-10.5-2.9-6.4-1-17.2 4.4-21.8 5.4-4.7 11.3-6.2 17.6-3.5 6.4 2.6 7.6 7.6 6.9 9.9-1 3.6-1.5 3.7-1.5 3.7l.9.5c-.1.2 5.8-9.7 5.8-9.7z"/>
  <path d="M146.8 84.1s-.8 1.4-1.4 2.6C144.8 88 144 90 144 90h-.7s.4-2.9-.9-5c-1.3-1.9-3.5-3.5-5.8-3.5-3.2 0-5.9 1.4-8 4.8-2.3 3.8-1.9 7.3-1.1 10 1.3 4.4 5.7 7 10.1 6.6 6-.5 8.7-4.1 8.7-4.1l1.1 1.9s-1.3 1.6-3.4 3.2c-1.8 1.3-4.4 2.8-9.3 2.6-5.8-.2-9.4-3.1-11.3-7.2-1.7-3.7-2.3-9.6 1.2-14.7 3.2-4.5 7.4-5.7 11.4-5.7 4.1 0 7.5 2.5 8.5 3.2 1.3.8 2.3 2 2.3 2"/>
  <path d="M106.2 102.9c-2.5-1.1-3.9-3.3-3.6-6.2.1-1.2.5-2.4 1.5-3.7 3.4-4.5 11.3-1.9 11.3-1.9v10.3c0-.1-5.6 3-9.2 1.5m18.1.1s-1.2 1.3-2.1.9c-1-.3-1.2-1-1.3-1.5-.1-.3-.6-12.3-.7-13.1 0-6.3-4.9-10.8-10.8-10.8-1.4 0-2.8.3-4.1.8-.4.1-.6.3-1 .5-2.5 1.2-5.4 2.6-5.4 2.6l2.4 3.5s.5-.6 1.4-1.4c.5-.5 1.8-1.9 3.8-2.6.7-.3 1.5-.4 2.3-.4 4.5 0 6.6 2.9 6.6 6.5v.6s-5-.9-8.5-.5c-3.1.5-6.9 1.4-8.8 5.4-.5.9-.7 2-.9 3-.5 3.3.8 6.9 4.5 8.8s6.5 1.4 9 .6c2.1-.6 5-2.5 5-2.5s1 2.7 3.1 2.8c1.9.1 3.1-.4 4.1-1 1.1-.7 1.9-1.9 1.9-1.9l-.5-.3zm-27.2 3c-.2-.1-1.3-.5-1.5-1.5-.2-.4-.1-2.8-.1-2.8s-.1-8.2 0-10.8c.2-3.7-.5-5.9-1.2-7.2-.5-1-2.7-4.7-8.3-4.8-5.1-.2-9.1 5.7-9.1 5.7V65.1s.2-1.9-.5-2.7c-.3-.5-.7-.5-.7-.5L70.1 71s.8 0 1.3.5.5 2.1.5 2.1v28.3s0 2.4-.1 2.8c-.3 1.1-1.5 1.5-1.5 1.5v.7h8.5v-.7s-1.3-.5-1.5-1.5c-.2-.4-.1-2.8-.1-2.8v-11s0-.8 2.1-3.7c1.4-1.9 1.8-2.3 3.4-3.8 1.1-1 3.9-2.3 6-.3 2.1 2 1.9 6 1.9 6v12.4s0 2.4-.2 2.8c-.3 1-1.4 1.4-1.5 1.5v.7h8.5l-.3-.5zM70.9 57.8c-2.9.9-6.3.4-6.3.4 1.9-.4 6.1-3.7 6.4-4 .4-.4.7-1 .5-1.3-.3-.3-.5 0-.5 0-2 1.7-6.3 3.3-6.3 3.3.6-.5 1.4-1.2 3.7-4.4 2.3-3.2.2-4.1.2-4.1-8.6-1.9-15.6 3.2-16.7 4-.1.1-.1.2-.1.2-.3 1.2 1.2.9 1.2.9 4.1-.9 7.3-.5 8.7-.4 1.4.1 1 1.4.3 2.9-.7 1.4-3.4 3.4-4.5 3.8-.9.4-.5.9-.5.9.1.1.3.1.4.1h.3c3.4.4 8.2 4.2 8.2 4.2s.9 1 1.1.1c.2-1.3-3.4-4.1-3.4-4.1 4.8.2 7.4-1.4 7.4-1.4s.7-.4.6-.7c-.2-.4-.7-.4-.7-.4m37 .5c-2-3.6-4.9-4.3-4.9-4.3 1.3 0 2.7-1.7 2.9-2 .2-.3.3-.6.1-.8-.2-.1-.5.2-.5.2-2.2 2.3-5.9 1.6-8.4.5-2.5-1.2-5.5-1.1-5.5-1.1s4.1-2.7 4.6-6.1-1-2.4-1-2.4c-2.3 3.1-4.7 3.2-5.1 3.3-.5.1-2.3.2-2.6 1.3-.3 1.1-1.6 2.6-3 3.7-1 .7-.4 1.5-.4 1.5.7.9 1.9 1.4 2.4 1.6.5.1 1.7-.8 7.2 0s8.9 7.3 9.1 8.3c0 .4.2.6.3.7s.3.2.4 0c1.1-3-1.3-6.5-1.3-6.5 3.6.6 4.8 2.3 5 2.3.1.1.5.4.7.3.1-.1 0-.5 0-.5"/>
  <path d="M112.4 17.2c-.2-2.2-1.6-2.8-2.3-2.9h-.8c-7.5 1.2-11.4 7.3-11.4 7.4-1.1 1.4-2.3 5.5-3 7.5-.5 1.6-1.1 2.6-1.1 2.6-1.9 3-8 10.1-21.7 7.1-20.5-4.5-32.2 11.4-32.3 11.6C31.5 60.8 23.5 66.3 16 67c-6.1.5-9.6-2.6-9.6-2.6-.1-.1-.2-.1-.3 0-.1.1-.1.2 0 .3 2.9 3.2 6.5 4.9 10.6 5 11.4.1 23.8-12.1 23.9-12.2 19.3-18 35.4-13.6 35.6-13.6 17 3.2 22.4-6 23.7-8.9.1-.1.1-.2.1-.3.1-.3.3-.5.5-.7 1-.8 2-1.5 3.1-2.3 1.9-1.3 3.8-2.6 5.1-4.3 2.2-2.9 3.6-7.4 3.6-9.7l.1-.5M56.5 27.6c-2-1.4-9.3 4-9.3 4s-.4.3-.4.2.2-.5.2-.5c1.3-2.2 3.1-4.9 2.3-5.4-.7-.5-3.6 3.6-4 4.3-.4.6-.5.5-.5.5 0-2.1-.5-4.1-.7-4.7s-.5-.5-.6-.5-.3.3-.3.3c.6 4.4-1.6 8.8-1.9 9.1-.4.4-.1.6-.1.6 2.4.9 7.8-2.1 9.6-1.4 1.8.6-2.3 5.7-2.3 5.7-.1.1-.1.1-.1.2v.1c0 .3.2.5.4.4h.2c1.9-.5 5.5-2.9 6-3.5.6-.9 3.5-8 1.5-9.4"/>
  <path d="M92.4 21.9c-.3-.2-.5.3-.5.3-1.3 2.6-3.3 2.7-3.3 2.7 2.9-2.8 1.8-6.3 1.6-6.5-.1-.1-.2-.1-.3-.1-.1 0-.1.3-.1.3 0 3.2-2.9 5.4-2.9 5.4.5-3.3-.5-4.5-.7-4.9-.3-.4-.4 0-.4 0 .3 6.1-1.5 7.9-4.4 9.4-2.9 1.4-5.8 1.9-6 3-.3 1.1.5 1.3 4 2.3 2.2.5 3 1.4 3.2 2 .1.1.1.4.2.5 0 .1.1.2.2.2.4.1 1.1-.2 2.6-1.4C87.7 33.2 87 32 87 32c-1.2-1.9-3.5-1.8-3.5-1.8 6.9-2.4 8.7-6.9 8.8-7.3.1-.5.3-.9.1-1"/>
</svg>
