<?xml version="1.0" encoding="utf-8"?>
<!-- Generator: Adobe Illustrator 16.0.0, SVG Export Plug-In . SVG Version: 6.00 Build 0)  -->
<!DOCTYPE svg PUBLIC "-//W3C//DTD SVG 1.1//EN" "http://www.w3.org/Graphics/SVG/1.1/DTD/svg11.dtd">
<svg version="1.1" id="Layer_1" xmlns="http://www.w3.org/2000/svg" xmlns:xlink="http://www.w3.org/1999/xlink" x="0px" y="0px"
	 width="576px" height="432px" viewBox="0 0 576 432" enable-background="new 0 0 576 432" xml:space="preserve">
<path fill="#6A6158" d="M290.826,140.934c-0.342,0.499-0.263,1.435,0.694,1.443c6.147,0.066,12.228,0.253,18.241,0.545
	c111.766,5.502,198.908,50.289,198.908,104.719c0,58.149-99.449,105.289-222.133,105.289c-122.67,0-222.124-47.14-222.124-105.289
	c0-12.345,2.995-25.691,11.229-36.696c0,0,0.346-0.536-0.258-0.944c-0.599-0.399-1.098,0.184-1.098,0.184
	C62.25,223.889,55.592,238.97,55.592,254.8c0,63.062,105.696,114.182,236.078,114.182s236.074-51.12,236.074-114.182
	c0-60.101-95.993-109.357-217.869-113.853c-6.011-0.221-12.07-0.337-18.205-0.337C291.67,140.61,291.075,140.576,290.826,140.934"/>
<path fill="#6A6158" d="M478.815,224.321c0,2.396-1.713,4.014-3.727,4.014v-0.013c-2.071,0.013-3.739-1.605-3.739-4.001
	c0-2.408,1.668-4.005,3.739-4.005C477.103,220.316,478.815,221.913,478.815,224.321 M480.321,224.321
	c0-3.303-2.471-5.224-5.232-5.224c-2.778,0-5.24,1.921-5.24,5.224c0,3.294,2.462,5.216,5.24,5.216
	C477.851,229.537,480.321,227.615,480.321,224.321 M474.216,224.758h0.574l1.289,2.358h1.423l-1.439-2.45
	c0.748-0.062,1.364-0.432,1.364-1.468c0-1.285-0.865-1.697-2.309-1.697h-2.101v5.615h1.198V224.758z M474.216,223.81v-1.355h0.849
	c0.449,0,1.068,0.037,1.068,0.624c0,0.619-0.312,0.731-0.848,0.731H474.216z"/>
<path fill="#6A6158" d="M443.929,232.012c-14.175,0-23.267,14.848-23.267,27.991c0,13.147,9.092,27.999,23.267,27.999
	c14.157,0,23.267-14.852,23.267-27.999C467.195,246.859,458.086,232.012,443.929,232.012 M480.463,259.857
	c0,19.635-14.029,35.553-36.464,35.553c-22.438,0-36.455-15.918-36.455-35.553c0-19.632,16.321-35.549,36.455-35.549
	C464.134,224.309,480.463,240.226,480.463,259.857"/>
<path fill="#6A6158" d="M206.74,206.99c0,0-24.939-19.785-42.499-22.197c-16.998-2.404-32.708,1.838-48.237,15.879
	c-16.637,14.777-28.666,48.409-6.497,78.725c18.283,25.139,54.51,26.07,75.206,15.73c20.521-10.522,25.699-20.967,25.699-20.967
	l0.188-12.614c0,0-10.356,21.212-37.707,26.373c-21.811,4.056-45.169-6.805-54.318-27.001c-7.438-16.392-2.471-44.225,11.287-56.178
	c13.959-12.116,29.023-15.88,45.277-9.038c16.445,6.659,19.581,19.411,17.918,25.513c-2.588,9.241-3.881,9.42-3.881,9.42l2.399,1.48
	L206.74,206.99z"/>
<path fill="#6A6158" d="M407.977,238.109c0,0-2.051,3.784-3.519,6.842c-1.576,3.298-3.511,8.676-3.511,8.676h-1.846
	c0,0,0.932-7.391-2.217-12.752c-3.323-4.982-9.034-9.034-14.77-9.055c-8.077-0.033-15.339,3.685-20.529,12.182
	c-5.728,9.795-4.796,18.812-2.779,25.688c3.353,11.441,14.591,18.121,26.054,16.828c15.521-1.469,22.185-10.71,22.185-10.71
	l2.762,4.808c0,0-3.145,4.063-8.867,8.127c-4.629,3.328-11.463,7.204-23.849,6.646c-14.777-0.562-24.202-7.773-29.002-18.491
	c-4.438-9.434-5.728-24.727,2.957-37.845c8.136-11.637,18.916-14.711,29.247-14.665c10.395,0.042,19.308,6.435,21.732,8.235
	C405.348,235.077,407.977,238.109,407.977,238.109"/>
<path fill="#6A6158" d="M303.357,286.488c-6.464-2.774-10.074-8.602-9.233-16.079c0.341-2.995,1.456-6.284,4.034-9.612
	c8.884-11.642,29.052-4.75,29.052-4.75l-0.017,26.341C327.193,282.388,312.604,290.186,303.357,286.488 M349.932,286.688
	c0,0-2.961,3.145-5.357,2.404c-2.595-0.744-3.077-2.524-3.323-3.847c-0.146-0.766-1.639-31.568-1.768-33.719
	c0-16.125-12.436-27.746-27.758-27.746c-3.681,0-7.208,0.724-10.419,2.03c-0.844,0.341-1.727,0.744-2.641,1.201
	c-6.555,3.065-13.846,6.643-13.846,6.643l6.205,9.134c0,0,1.359-1.548,3.506-3.519c1.456-1.331,4.584-4.842,9.729-6.775
	c1.826-0.69,3.951-0.978,6.026-0.978c11.529,0,16.866,7.486,16.866,16.724l0.041,1.622c0,0-12.848-2.3-21.79-1.072
	c-7.761,1.068-17.926,3.502-22.733,13.85c-1.103,2.408-1.855,4.987-2.222,7.761c-1.114,8.502,2.025,17.743,11.634,22.734
	c9.429,4.808,16.637,3.519,23.287,1.676c5.365-1.663,12.943-6.463,12.943-6.463s2.6,6.846,7.939,7.208
	c4.812,0.332,7.766-0.924,10.353-2.583c2.77-1.847,4.808-4.804,4.808-4.804L349.932,286.688z"/>
<path fill="#6A6158" d="M280.332,294.391c0,0-0.008-0.004-0.029-0.013v-0.017h-0.054c-0.487-0.187-3.194-1.318-3.876-3.839
	c-0.367-0.927-0.325-7.225-0.325-7.225s-0.149-21.116,0-27.866c0.374-9.611-1.48-14.973-2.961-18.487
	c-1.294-2.583-7.021-12.008-21.253-12.382c-13.302-0.374-23.487,14.59-23.487,14.59l0.021-50.08c0,0,0.366-4.804-1.289-7.025
	c-0.74-1.106-1.847-1.477-1.847-1.477l-14.424,23.462c0,0,2.029,0,3.327,1.105c1.289,1.485,1.102,5.361,1.102,5.361l-0.024,72.752
	c0,0,0.037,6.306-0.333,7.229c-0.736,2.757-3.918,3.868-3.951,3.88h-0.017v1.852h21.702v-1.852h0.018c0,0-3.215-1.098-3.956-3.867
	c-0.366-0.928-0.337-7.229-0.337-7.229l0.009-27.846c0,0-0.104-2.108,5.361-9.433c3.685-4.937,4.521-5.936,8.867-9.786
	c2.845-2.513,10.007-5.724,15.538-0.736c5.365,4.991,4.796,15.53,4.796,15.53v32.296c0,0-0.029,6.297-0.396,7.22
	c-0.678,2.525-3.394,3.665-3.876,3.852h-0.075v0.025l-0.008,0.004h0.008v1.822h21.74v-1.822H280.332z"/>
<path fill="#E4B023" d="M212.746,170.602c-7.32,2.3-16.321,0.836-16.321,0.836c4.808-1.044,15.688-9.412,16.521-10.248
	c0.84-0.84,1.889-2.512,1.26-3.145c-0.628-0.624-1.352,0.1-1.352,0.1c-4.999,4.467-16.175,8.543-16.175,8.543
	c1.576-1.185,3.685-3.023,9.6-11.438c5.918-8.414,0.523-10.381,0.523-10.381c-22.114-4.962-40.173,8.106-42.931,10.261
	c-0.245,0.191-0.32,0.387-0.32,0.387c-0.757,2.953,2.961,2.325,2.961,2.325c10.664-2.3,18.825-1.048,22.381-0.84
	c3.557,0.212,2.508,3.56,0.628,7.324c-1.884,3.768-8.813,8.713-11.504,9.833c-2.371,0.994-1.132,2.233-1.132,2.233
	c0.25,0.237,0.732,0.125,1.023,0.125c0.158,0,0.453,0.004,0.678,0.008c8.797,0.978,21.191,10.81,21.191,10.81
	s2.346,2.466,2.716,0.212c0.512-3.157-8.788-10.668-8.788-10.668c12.344,0.416,19.041-3.56,19.041-3.56s1.875-0.832,1.667-1.88
	C214.209,170.394,212.746,170.602,212.746,170.602"/>
<path fill="#E4B023" d="M307.874,171.854c-5.021-9.208-12.561-11.093-12.561-11.093c3.244,0.108,6.904-4.496,7.328-5.128
	c0.42-0.624,0.736-1.672,0.308-1.988c-0.416-0.308-1.147,0.424-1.147,0.424c-5.544,5.752-14.965,4.08-21.449,1.148
	c-6.483-2.928-14.128-2.72-14.128-2.72s10.572-7.012,11.828-15.796c1.252-8.792-2.517-6.28-2.517-6.28
	c-5.752,7.952-12.028,8.268-13.288,8.58c-1.252,0.312-5.965,0.524-6.696,3.348c-0.724,2.82-4.076,6.696-7.736,9.42
	c-2.595,1.917-0.989,3.855-0.989,3.855c1.759,2.25,4.966,3.781,6.321,4.093c1.364,0.312,4.4-1.988,18.525,0.104
	c14.12,2.092,23.029,18.845,23.324,21.345c0.116,0.986,0.358,1.518,0.599,1.801c0.162,0.121,0.591,0.412,0.854,0.017
	c2.682-7.69-3.328-16.674-3.328-16.674c9.209,1.672,12.341,5.752,12.656,5.964c0.316,0.208,1.265,1.044,1.789,0.728
	C308.082,172.693,307.874,171.854,307.874,171.854"/>
<path fill="#E4B023" d="M319.428,66.019c-0.398-5.577-4.121-7.104-6.097-7.528c-0.72-0.1-1.53-0.071-2.047-0.033
	c-19.331,3.032-29.264,18.812-29.363,18.974c-2.683,3.668-6.039,14.037-7.628,19.323l-0.013-0.025
	c-1.144,4.271-2.791,6.634-2.791,6.634c-4.957,7.77-20.695,26.053-55.882,18.296c-52.622-11.604-82.727,29.501-83.025,29.913
	c-21.162,26.457-41.709,40.66-61.04,42.203c-15.688,1.252-24.714-6.755-24.802-6.838c-0.17-0.153-0.428-0.149-0.594,0.013
	c-0.167,0.166-0.167,0.433-0.018,0.599c7.479,8.152,16.641,12.411,27.234,12.648c29.626,0.674,61.285-30.491,61.602-30.812
	c49.686-45.825,91.186-34.845,91.605-34.729c43.792,8.406,57.754-15.588,60.957-22.987h0.008c0,0,0.013-0.038,0.025-0.079
	c0.125-0.299,0.237-0.558,0.333-0.799c0.258-0.669,0.707-1.347,1.269-1.863c2.441-2.046,5.174-3.938,7.853-5.76
	c4.82-3.282,9.803-6.68,13.126-11.167c5.536-7.478,9.32-19.012,9.32-25.092C319.461,66.597,319.445,66.298,319.428,66.019"/>
<path fill="#E4B023" d="M175.737,92.979c-5.003-3.477-23.915,10.132-23.915,10.132s-0.978,0.603-0.978,0.362
	s0.491-1.219,0.491-1.219c3.169-5.469,7.989-12.507,6.102-13.975c-1.897-1.464-9.176,9.337-10.128,11.097
	c-0.94,1.73-1.401,1.168-1.401,1.168c0-5.428-1.224-10.614-1.896-12.141c-0.591-1.343-1.099-1.343-1.647-1.343
	c-0.554,0-0.611,0.794-0.611,0.794c1.709,11.35-4.243,22.701-4.945,23.433c-0.924,0.961-0.125,1.505-0.125,1.505
	c6.322,2.304,19.977-5.29,24.581-3.564c4.604,1.727-6.039,14.487-6.039,14.487c-0.134,0.146-0.191,0.278-0.225,0.412
	c-0.033,0.112-0.066,0.22-0.066,0.333c0,0.583,0.449,1.078,1.031,1.032c0.17-0.013,0.299-0.038,0.433-0.096
	c4.949-1.318,14.199-7.453,15.56-9.046C173.362,114.702,180.745,96.456,175.737,92.979"/>
<path fill="#E4B023" d="M268.271,78.043c-0.778-0.412-1.206,0.628-1.206,0.628c-3.236,6.688-8.502,7.025-8.502,7.025
	c7.445-7.22,4.534-16.179,4.209-16.716c-0.207-0.341-0.545-0.245-0.761-0.137c-0.216,0.079-0.216,0.611-0.216,0.624
	c0.012,8.352-7.441,13.862-7.441,13.862c1.294-8.63-1.363-11.675-1.938-12.407c-0.729-0.923-0.965,0-0.965,0
	c0.641,15.859-3.997,20.388-11.33,24.057c-7.337,3.664-14.89,4.962-15.639,7.77c-0.761,2.799,1.397,3.34,10.132,5.714
	c5.481,1.489,7.587,3.71,8.385,5.162c0,0-0.008,0.004,0,0.008c0.188,0.333,0.35,0.832,0.441,1.323
	c0.033,0.225,0.199,0.428,0.565,0.495c0.008,0,0.017,0.004,0.025,0.004c0.865,0.142,2.886-0.375,6.629-3.743
	c5.391-4.854,3.486-7.778,3.486-7.778c-3.028-4.754-9.067-4.642-9.067-4.642c17.801-6.363,22.227-17.934,22.7-18.875
	C268.225,79.507,268.694,78.272,268.271,78.043"/>
</svg>
