<svg xmlns="http://www.w3.org/2000/svg" viewBox="0 0 500 150">
  <defs/>
  <path d="M139.7 43.6c-.1.2-.1.6.3.6 2.7 0 5.3.1 7.9.2 48.2 2.4 85.8 21.7 85.8 45.2 0 25.1-42.9 45.4-95.8 45.4s-95.8-20.3-95.8-45.4c0-5.3 1.3-11.1 4.8-15.8 0 0 .1-.2-.1-.4-.3-.2-.5.1-.5.1-5.2 5.9-8.1 12.4-8.1 19.3 0 27.2 45.6 49.3 101.9 49.3 56.3 0 101.9-22.1 101.9-49.3 0-25.9-41.4-47.2-94-49.1-2.6-.1-5.2-.1-7.9-.1-.1-.1-.3-.1-.4 0"/>
  <path d="M205.7 82.9c-6.1 0-10 6.4-10 12.1s3.9 12.1 10 12.1 10-6.4 10-12.1-3.9-12.1-10-12.1m15.8 12c0 8.5-6.1 15.3-15.7 15.3-9.7 0-15.7-6.9-15.7-15.3s7-15.3 15.7-15.3 15.7 6.8 15.7 15.3M103.4 72.1s-10.8-8.5-18.3-9.6c-7.3-1-14.1.8-20.8 6.8-7.2 6.4-12.4 20.9-2.8 34 7.9 10.8 23.5 11.2 32.5 6.8 8.9-4.5 11.1-9 11.1-9l.1-5.4s-4.5 9.2-16.3 11.4c-9.4 1.8-19.5-2.9-23.4-11.6-3.2-7.1-1.1-19.1 4.9-24.2 6-5.2 12.5-6.9 19.5-3.9 7.1 2.9 8.4 8.4 7.7 11-1.1 4-1.7 4.1-1.7 4.1l1 .6 6.5-11z"/>
  <path d="M190.2 85.5s-.9 1.6-1.5 2.9c-.7 1.4-1.5 3.7-1.5 3.7h-.8s.4-3.2-1-5.5c-1.4-2.1-3.9-3.9-6.4-3.9-3.5 0-6.6 1.6-8.9 5.3-2.5 4.2-2.1 8.1-1.2 11.1 1.4 4.9 6.3 7.8 11.2 7.3 6.7-.6 9.6-4.6 9.6-4.6l1.2 2.1s-1.4 1.8-3.8 3.5c-2 1.4-4.9 3.1-10.3 2.9-6.4-.2-10.4-3.4-12.5-8-1.9-4.1-2.5-10.7 1.3-16.3 3.5-5 8.2-6.3 12.6-6.3 4.5 0 8.3 2.8 9.4 3.6 1.5.9 2.6 2.2 2.6 2.2"/>
  <path d="M145.1 106.4c-2.8-1.2-4.3-3.7-4-6.9.1-1.3.6-2.7 1.7-4.1 3.8-5 12.5-2.1 12.5-2.1v11.4c.1-.1-6.2 3.3-10.2 1.7m20.1.1s-1.3 1.4-2.3 1c-1.1-.3-1.3-1.1-1.4-1.7-.1-.3-.7-13.6-.8-14.5 0-7-5.4-12-12-12-1.6 0-3.1.3-4.5.9-.4.1-.7.3-1.1.5-2.8 1.3-6 2.9-6 2.9l2.7 3.9s.6-.7 1.5-1.5c.6-.6 2-2.1 4.2-2.9.8-.3 1.7-.4 2.6-.4 5 0 7.3 3.2 7.3 7.2v.7s-5.5-1-9.4-.5c-3.4.5-7.7 1.5-9.8 6-.5 1-.8 2.2-1 3.3-.5 3.7.9 7.7 5 9.8 4.1 2.1 7.2 1.5 10 .7 2.3-.7 5.6-2.8 5.6-2.8s1.1 3 3.4 3.1c2.1.1 3.4-.4 4.5-1.1 1.2-.8 2.1-2.1 2.1-2.1l-.6-.5zm-30.1 3.3c-.2-.1-1.4-.6-1.7-1.7-.2-.4-.1-3.1-.1-3.1s-.1-9.1 0-12c.2-4.1-.6-6.5-1.3-8-.6-1.1-3-5.2-9.2-5.3-5.7-.2-10.1 6.3-10.1 6.3V64.4s.2-2.1-.6-3c-.3-.5-.8-.6-.8-.6l-6.2 10.1s.9 0 1.4.5c.6.6.5 2.3.5 2.3v31.4s0 2.7-.1 3.1c-.3 1.2-1.7 1.7-1.7 1.7v.8h9.4v-.8s-1.4-.5-1.7-1.7c-.2-.4-.1-3.1-.1-3.1v-12s0-.9 2.3-4.1c1.6-2.1 2-2.6 3.8-4.2 1.2-1.1 4.3-2.5 6.7-.3 2.3 2.2 2.1 6.7 2.1 6.7V105s0 2.7-.2 3.1c-.3 1.1-1.5 1.6-1.7 1.7v.8h9.4l-.1-.8zM106 56.4c-3.2 1-7 .4-7 .4 2.1-.4 6.8-4.1 7.1-4.4.4-.4.8-1.1.5-1.4-.3-.3-.6 0-.6 0-2.2 1.9-7 3.7-7 3.7.7-.5 1.6-1.3 4.1-4.9 2.6-3.6.2-4.5.2-4.5-9.5-2.1-17.3 3.5-18.5 4.4-.1.1-.1.2-.1.2-.3 1.3 1.3 1 1.3 1 4.6-1 8.1-.5 9.7-.4 1.5.1 1.1 1.5.3 3.2-.8 1.6-3.8 3.8-5 4.2-1 .4-.5 1-.5 1 .1.1.3.1.4.1h.3c3.8.4 9.1 4.7 9.1 4.7s1 1.1 1.2.1c.2-1.4-3.8-4.6-3.8-4.6 5.3.2 8.2-1.5 8.2-1.5s.8-.4.7-.8c0-.6-.6-.5-.6-.5m41 .5c-2.2-4-5.4-4.8-5.4-4.8 1.4 0 3-1.9 3.2-2.2.2-.3.3-.7.1-.9-.2-.1-.5.2-.5.2-2.4 2.5-6.5 1.8-9.3.5-2.8-1.3-6.1-1.2-6.1-1.2s4.6-3 5.1-6.8S133 39 133 39c-2.5 3.4-5.2 3.6-5.7 3.7-.5.1-2.6.2-2.9 1.4-.3 1.2-1.8 2.9-3.3 4.1-1.1.8-.4 1.7-.4 1.7.8 1 2.1 1.6 2.7 1.8.6.1 1.9-.9 8 0s9.9 8.1 10.1 9.2c0 .4.2.7.3.8.1.1.3.2.4 0 1.2-3.3-1.4-7.2-1.4-7.2 4 .7 5.3 2.5 5.5 2.6.1.1.5.4.8.3 0-.1-.1-.5-.1-.5"/>
  <path d="M152 11.3c-.2-2.4-1.8-3.1-2.6-3.2h-.9c-8.3 1.3-12.6 8.1-12.7 8.2-1.2 1.6-2.6 6.1-3.3 8.3-.5 1.8-1.2 2.9-1.2 2.9-2.1 3.3-8.9 11.2-24.1 7.9-22.7-5-35.7 12.7-35.8 12.9-9.1 11.4-18 17.5-26.3 18.2-6.8.5-10.7-2.9-10.7-2.9-.1-.1-.2-.1-.3 0-.1.1-.1.2 0 .3 3.2 3.5 7.2 5.4 11.8 5.5 12.7.1 26.4-13.4 26.5-13.5 21.4-19.8 39.3-15 39.5-15 18.9 3.6 24.9-6.7 26.3-9.9.1-.1.1-.2.1-.3.1-.3.3-.6.6-.8 1.1-.9 2.2-1.7 3.4-2.5 2.1-1.4 4.2-2.9 5.7-4.8 2.4-3.2 4-8.2 4-10.8v-.5M90 22.9c-2.2-1.5-10.3 4.4-10.3 4.4s-.4.3-.4.2c0-.1.2-.5.2-.5 1.4-2.4 3.4-5.4 2.6-6-.8-.6-4 4-4.4 4.8-.4.7-.6.5-.6.5 0-2.3-.5-4.6-.8-5.2-.3-.6-.5-.6-.7-.6s-.3.3-.3.3c.7 4.9-1.8 9.8-2.1 10.1-.4.4-.1.7-.1.7 2.7 1 8.6-2.3 10.6-1.5 2 .7-2.6 6.3-2.6 6.3-.1.1-.1.1-.1.2v.1c0 .3.2.5.4.4h.2c2.1-.6 6.1-3.2 6.7-3.9.7-.9 3.9-8.8 1.7-10.3"/>
  <path d="M129.9 16.5c-.3-.2-.5.3-.5.3-1.4 2.9-3.7 3-3.7 3 3.2-3.1 2-7 1.8-7.2-.1-.1-.2-.1-.3-.1-.1 0-.1.3-.1.3 0 3.6-3.2 6-3.2 6 .6-3.7-.6-5-.8-5.4-.3-.4-.4 0-.4 0 .3 6.8-1.7 8.8-4.9 10.4-3.2 1.6-6.4 2.1-6.7 3.3-.3 1.2.6 1.4 4.4 2.5 2.4.6 3.3 1.6 3.6 2.2.1.1.1.4.2.6 0 .1.1.2.2.2.4.1 1.2-.2 2.9-1.6 2.3-2.1 1.5-3.4 1.5-3.4-1.3-2.1-3.9-2-3.9-2 7.7-2.7 9.6-7.7 9.8-8.1.1-.4.3-.9.1-1"/>
</svg>
