<?xml version="1.0" encoding="utf-8"?>
<!-- Generator: Adobe Illustrator 18.1.1, SVG Export Plug-In . SVG Version: 6.00 Build 0)  -->
<svg version="1.1" id="Layer_1" xmlns="http://www.w3.org/2000/svg" xmlns:xlink="http://www.w3.org/1999/xlink" x="0px" y="0px"
	 viewBox="0 0 173.8 190" style="enable-background:new 0 0 173.8 190;" xml:space="preserve">
<style type="text/css">
	.st0{fill-rule:evenodd;clip-rule:evenodd;fill:#020302;}
	.st1{fill-rule:evenodd;clip-rule:evenodd;fill:#020202;}
</style>
<g>
	<g>
		<path class="st0" d="M13.7,182.3L13.7,182.3C13.7,182.3,13.7,182.3,13.7,182.3z"/>
		<path class="st0" d="M28.7,10.8c-1.4-4.5-4.9-7.8-9.3-9.3c-0.5-0.2-1-0.2-1.6-0.3c-0.3,0-0.5-0.1-0.7-0.3c-0.4,0-0.8,0-1.2,0
			c-1.6,0-3.1,0-4.7,0.3c-2.5,0.5-4.8,2.2-6.5,4C3,7.2,1.7,9.5,1.5,12.1c-0.1,1.4-0.2,2.8-0.2,4.3c0,1.3,0.2,3.1,0.8,4.3
			c1.2,2.3,2.8,4.4,4.9,5.9c1.2,0.8,1.3,1.4,1.3,2.8c0,1.7,0,3.5,0,5.2c0,3-0.2,6,0,9c0.2,3-0.1,5.9,0,8.8c0.1,3-0.2,6-0.1,9
			c0,1.5,0.1,3.1,0.1,4.7c0,0.9-0.3,3.3,0.8,3.7c-1.1,0.7-1,1.9-0.9,3.1c0.1,1.7,0,3.4,0,5.1c0,1.6-0.1,3.1-0.1,4.7
			c0,0.7,0,1.4,0,2.1c0,0.3,0,0.6,0.1,0.8c0.1,0.3,0.5,0.6,0.5,0.9c0,0.5-0.4,1.1-0.5,1.6c-0.1,0.6-0.1,1.3,0.1,1.9
			c0.1,0.2,0.7,1.1,0.4,1.1c-0.4,0-0.5,1.7-0.5,1.9c0,1.5,0.1,3,0.1,4.6c-0.1,1.7,0,3.4,0,5.1c0,1.6-0.1,3.1-0.1,4.6
			c0,1.7,0.3,3.3,0.3,4.9c0,1.5-0.4,3-0.3,4.5c0.1,1.6,0.3,3.2,0.1,4.8c-0.3,3.1-0.1,6.2-0.1,9.3c0,3.2-0.1,6.4,0,9.6
			c0,2.3,0.2,4.6,0.1,6.9c-0.1,2.4,0.1,4.9,0.1,7.3c0,2.3,0,4.7,0,7c0,1.6-0.7,4.3,0.8,5.4c-1.4-0.1-0.9,1.7-0.8,2.5
			c0.1,1.6-0.1,3.2-0.1,4.8c0,1.6,0.1,3.2,0,4.8c-0.1,1.5-0.5,3.2,0.4,4.6c0.3,0.6-0.2,1.3-0.3,1.9c-0.2,0.8-0.1,1.7,0,2.5
			c0,0.7-0.4,1.7,0.5,1.7c0.9,0,1.8,0,2.7,0c1.7,0,3.4,0,5.1,0c0.9,0,1.4-0.5,2.3,0c0.8,0,1.6,0,2.4,0c-0.3-0.6-0.1-1.2,0.1-1.7
			c0.2-0.6,0.1-1.3,0.1-1.9c0-0.7,0-1.5,0-2.2c-0.1-0.8-0.4-1.5-0.3-2.3c0.1-0.6,0.4-1.1,0.4-1.6c0-0.7-0.1-1.4-0.1-2.1
			c0-0.7,0.1-1.5,0-2.2c0-0.8-0.2-1.6-0.2-2.4c0.1-0.7,0.1-0.9,0-1.6c-0.1-0.6,0.2-1.3,0.2-1.9c0.1-1.6,0-3.2,0-4.9
			c0-1.6-0.3-3.1-0.3-4.7c0-0.8,0.1-1.5,0.2-2.3c0.1-0.8-0.2-1.8,0.1-2.5c0.2-0.4-0.2-0.4-0.4-0.5c-0.4-0.1,0.2-0.7,0.2-0.9
			c0.2-0.6-0.4-0.8-0.3-1.3c0.1-0.7,0.3-1.3,0.4-2c0.1-1.5,0.2-3.1,0.1-4.6c0-0.8-0.1-1.5-0.3-2.3c-0.2-0.7,0.3-1.1,0.3-1.8
			c0-0.4-0.1-0.8-0.3-1.1c-0.3-0.4-1-0.6-1.1-1.1c-0.1-0.4,0.8-0.1,1-0.1c0.4-0.1,0.4-0.7,0.4-1.1c0-0.5-0.2-1-0.3-1.4
			c-0.1-0.4,0.4-1.1,0.4-1.5c0.1-0.7-0.1-1.3-0.1-2c-0.1-0.8,0-1.6,0-2.5c0-0.9-0.1-1.8-0.2-2.7c-0.1-0.8-0.5-1.9-0.1-2.6
			c0.3-0.6,0.5-0.8,0.2-1.4c-0.3-0.9-0.3-1.8-0.2-2.6c0.2-1.6,0.1-3.2,0.2-4.8c0.1-1.2-0.2-2-1.4-2.3c0.4,0.2,1.1,0.4,1.3-0.2
			c0.2-0.6,0.3-1.3,0.1-1.8c-0.2-0.8,0-1.6,0.1-2.5c0-0.4,0-0.8,0-1.3c-0.1-0.3-0.5-0.8-0.4-1.1c0.1-0.9,0.6-1.5,0.3-2.5
			c-0.2-1,0-1.7,0.1-2.6c0.1-1,0-2,0-3c0-0.4,0.1-0.9-0.1-1.2c-0.2-0.2-0.4-0.4-0.5-0.6c1-0.3,0.5-1.4,0.6-2.1
			c0.1-1.6,0.1-3.2,0-4.9c-0.1-1.4,0-2.8-0.1-4.2c0-0.7-0.1-1.4,0-2.1c0.1-0.7,0.4-1.2,0-1.9c-0.3-0.6-0.1-0.9,0.1-1.5
			c0.2-0.7,0.2-1.4,0.2-2.2c0-1.5,0.2-3-0.1-4.4c-0.3-1.4,0.2-2.7,0.1-4.1c0-0.7-0.2-1.5-0.3-2.2c-0.2-0.8,0-1.7,0.1-2.5
			c0.3-1.5,0.1-3,0.1-4.5c0-1.7-0.1-3.4-0.1-5.1c0-3.2,0.1-6.4,0.1-9.6c0-1.5-0.2-3.1,0.1-4.6c0.1-0.4-0.4-0.5-0.5-0.9
			c-0.1-0.2,0.2-0.4,0.3-0.5c0.2-0.3,0.2-0.7,0.2-1.1c-0.2-3.2,0-6.5,0-9.7c0-0.8-0.2-1.9,0.1-2.7c0.2-0.8,1.4-1,2-1.4
			c1.4-0.9,2.6-2.3,3.6-3.7C29.4,19.2,29.9,14.6,28.7,10.8C27.2,6,29.3,12.7,28.7,10.8z M6.7,20.8c-0.2-0.1-0.9-0.7-0.5-0.9
			C6.8,19.7,6.8,20.5,6.7,20.8C6.4,20.6,6.9,20.3,6.7,20.8z M19.9,38.1c-0.4-0.2-0.5-0.5-0.3-0.9C20,37.4,20.1,37.7,19.9,38.1z
			 M17.5,177.3c0.3,0.3,1,2,0.5,2.1c-0.5,0.1-0.5-0.3-0.4-0.6C17.7,178.4,17.2,177.9,17.5,177.3C18,177.8,17.2,178,17.5,177.3z
			 M18,174.8c0.2,0.4,0.1,0.8,0.1,1.6C17.8,175.6,17.8,175.2,18,174.8z M18.1,169.1c-0.9-0.9-1.8,0.7-2.6-0.1c0.7-0.2,0.6-0.6,1-1
			c0.3-0.4,0.7,0.7,1.1,0c0.3-0.5,0.3,0,0.6,0.1C19.1,168.4,18.1,169.1,18.1,169.1C17.3,168.3,18.1,169.1,18.1,169.1z M14.6,178.8
			c-0.3-0.3-0.1-0.8,0.3-0.7c0.4,0.1,0.6,0.6,1,0.6C15.6,179,15.1,179.2,14.6,178.8C14.4,178.6,15,179.1,14.6,178.8z M15.4,182.3
			c0,0.4-0.4,0.3-0.6,0.2C15,182.2,15.1,182.1,15.4,182.3C15.5,182.6,15.4,182.3,15.4,182.3z M13.8,182.7c0,0.2-0.1,0.9-0.4,0.5
			c-0.2-0.2,0.2-0.7,0.3-0.9c0.2-0.4,0.2-0.9,0.8-0.5c-0.2,0.3-0.4,0.6-0.8,0.5C13.7,182.4,13.8,182.6,13.8,182.7
			C13.8,182.9,13.8,182.6,13.8,182.7z M11.1,158.4c0-0.2-0.2-0.5,0.1-0.7c0.4-0.2,0.6,0,0.6,0.4c0,0.9,0.4,1.7-0.7,2.1
			C11.7,159.6,11.2,159.1,11.1,158.4C11.1,158.1,11.2,159,11.1,158.4z M11.4,120c0.5-0.1,0.2,0.9-0.3,0.9
			C10.6,120.9,11,120.1,11.4,120C11.6,119.9,11.1,120,11.4,120z M10.5,114.6c-0.2-0.8,0.3-0.9,0.8-1.3
			C11.3,114.1,10.9,114.2,10.5,114.6z M11.7,50.4c0.2,0.3,0.1,0.6-0.2,1C11.2,50.9,11.3,50.6,11.7,50.4z M11.4,39.3
			c0.1-0.4,0.5-0.6,0.5-0.1C11.8,39.6,11.3,39.7,11.4,39.3C11.4,39.1,11.4,39.4,11.4,39.3z M12.5,54.8c0.2,0.3-0.2,0.4-0.4,0.4
			c-0.3,0-0.5-0.4-0.7-0.6C11.9,54.4,12.3,54.4,12.5,54.8C12.6,54.9,12.3,54.4,12.5,54.8z M13,43.2c0.4-0.3,0.8-0.8,1.3-0.3
			c0.4,0.3,0,0.7-0.4,0.6C13.6,43.5,13.3,43.2,13,43.2C13.4,43,13.5,43.3,13,43.2z M13.7,46.2c-0.1,0.2-0.8,0.1-0.7-0.2
			C13.2,45.5,13.8,45.8,13.7,46.2C13.7,46.4,13.8,45.9,13.7,46.2z M13.6,28.1c0.5,0.1,0,0.5-0.3,0.5C12.9,28.5,13.3,28,13.6,28.1z
			 M13.5,27.3c0-0.4,0.5-0.1,0.5,0.2C13.8,27.8,13.5,27.6,13.5,27.3C13.5,27.2,13.5,27.5,13.5,27.3z M13.2,34.8c0,0,0.3,0.2,0.3,0.2
			c0,0.3-0.1,0.5-0.3,0.7c-0.2,0.1-0.4,0.3-0.6,0.1C12.4,35.6,13.1,35,13.2,34.8C13.2,34.8,13,35.1,13.2,34.8z M14,39.4
			c-0.1,0.6-1,0.6-0.8-0.1C13.3,38.9,14.1,38.9,14,39.4z M17.8,57.1c0-0.4,0.4-0.9,0.8-0.6c0.2,0.1-0.1,0.9-0.1,1.1
			c-0.1,1-0.9,0.4-1.5,0C17.3,57.6,17.8,57.5,17.8,57.1C17.8,56.6,17.8,57.5,17.8,57.1z M17.2,41.8c0.3,0.2,0.6,0.4,0.9,0.5
			C17.5,42.9,17.2,42.5,17.2,41.8C17.6,42.1,17.2,42.4,17.2,41.8z M18,154.8c-0.3,0-0.8,0.3-0.8-0.2c0-0.5-0.5-1.1,0.1-1.4
			c0.3,0.3,0,0.6,0.1,0.9c0.2,0,0.8-0.2,1-0.2C18.9,154.2,18.6,154.8,18,154.8C17.7,154.7,18.3,154.8,18,154.8z M18.3,162.1
			c-0.6-0.1-0.9-0.6-0.4-1C18.1,161.4,18.2,161.8,18.3,162.1C17.9,162,18.2,161.8,18.3,162.1z M12.2,136.9c0.2,0.8,0.1,1.4-0.6,2
			C11.7,138,11.3,137.4,12.2,136.9z M12.4,103.9c0.4,0,0.6,0.6,0.2,0.7C12.3,104.6,12,104,12.4,103.9
			C12.7,103.9,12.3,103.9,12.4,103.9z M12.6,146.2c0.5,0.3,0.2,0.8,0.1,1.2c-0.2-0.3-0.7-0.5-0.8-0.8C11.8,146,12.3,146,12.6,146.2
			C13.1,146.4,12.4,146,12.6,146.2z M12.8,139.2c-0.3,0-0.4-0.4-0.2-0.6C12.8,138.4,13.4,139.1,12.8,139.2
			C12.6,139.2,12.9,139.1,12.8,139.2z M12.8,123.3c0-0.2-0.1-0.6,0.2-0.7c0.2,0,0.7-0.7,0.9-0.4c0.2,0.4-0.4,0.3-0.4,0.6
			C13.5,123.2,12.8,123.9,12.8,123.3C12.8,123,12.8,123.5,12.8,123.3z M14.9,83c0-0.3-0.6-1.1,0-1.2c0.4-0.1,0.4,0.7,0.5,0.9
			c0,0.4,0.3,0.7,0.7,0.7c0.1,0-0.1,0.6-0.4,0.6c-0.2,0-0.4,0-0.5,0.3c-0.2-0.1-0.3-0.1-0.5-0.2c-0.4-0.1-0.6-0.4-0.5-0.8
			C14.4,82.8,15.1,83.8,14.9,83C14.9,82.7,15.1,83.9,14.9,83z M14.5,79.5c0-0.5,0.4-0.3,0.5,0C14.8,79.8,14.5,80,14.5,79.5
			C14.5,79.4,14.5,79.7,14.5,79.5z M14.8,73.7c0-0.9-0.7-1.8,0.6-2.5C14.6,72,15.7,72.9,14.8,73.7z M14.7,69.7
			c0.2-0.2,0.4,0.2,0.5,0.3c0.1,0.3-0.4,0.5-0.4,0.7C14.5,70.4,14.3,70,14.7,69.7C14.9,69.5,14.3,70,14.7,69.7z M14.3,65.8
			c-0.6-0.1,0.5-0.8,0.7-0.9c0.7-0.6,1.4,1.5,1.7,1.9C15.7,66.7,15.1,66,14.3,65.8C13.9,65.8,15.1,66,14.3,65.8z M14.5,67.3
			c-0.1,0.3-0.4,0.2-0.5-0.2C14,66.8,14.6,66.9,14.5,67.3C14.4,67.4,14.5,67.1,14.5,67.3z M17.3,76.8c0.1-0.2,0.4,0.1,0.3,0.3
			c0,0.2-0.3,0.4-0.4,0.4c-0.6,0.3-1.3,0.3-1.9,0.5C15.8,77.2,16.8,77.5,17.3,76.8C17.3,76.8,16.8,77.4,17.3,76.8z M18.2,67.6
			c-0.1,0-0.2-0.1-0.3-0.1C18.3,66.7,18.8,67.7,18.2,67.6C18.1,67.6,18.4,67.7,18.2,67.6z M18.3,83.2c0,0.4-0.7,0.3-0.6,0.2
			C17.7,83.1,18.3,82.8,18.3,83.2C18.3,83.5,18.3,83.1,18.3,83.2z M17.3,61.9c0.2-0.3,0.3-0.6,0.3-1c0-0.5,0.1-0.8,0.6-0.5
			C19.2,61.1,17.7,61.6,17.3,61.9C17.7,61.2,17.9,61.4,17.3,61.9z M17.7,62.5c-0.2,0.1-0.4,0.9-0.7,0.5
			C16.6,62.6,17.4,62.4,17.7,62.5C17.3,62.6,17.1,62.3,17.7,62.5z M17.1,73.4c0.5,0,0.2,0.6,0.2,0.6C17.1,73.9,16.6,73.4,17.1,73.4
			C17.3,73.4,17,73.4,17.1,73.4z M16.4,87.3c-0.7,0.1-0.3-1.3,0.4-1.1C17.6,86.3,16.8,87.2,16.4,87.3C16.2,87.3,16.8,87.2,16.4,87.3
			z M17.1,88.9c0.2,0.2,0.4,0,0.5-0.1c0.4-0.2,0.5,0.4,0.3,0.4c-0.3,0-0.6,0.1-0.9,0C16.6,89,16.9,88.6,17.1,88.9z M17.6,149.8
			c0.2-0.6-0.4-1.2-0.1-1.8c0.5,0.2,1,0.5,1.1,1.1C18.6,149.6,17.9,149.6,17.6,149.8C17.8,149.1,18.1,149.6,17.6,149.8z M17.5,151.6
			c-0.2,0-0.6-0.4-0.4-0.6C17.3,150.8,18,151.6,17.5,151.6C17.3,151.7,17.6,151.6,17.5,151.6z M15.2,117.3c0.6,0,1,0.7,0.3,0.9
			c-0.4,0.1-0.5-0.1-0.6,0.3c-0.1,0.2-0.2,0.4-0.5,0.4c-0.2,0-0.4-0.4-0.3-0.6c0.1-0.1,0.3-0.1,0.5-0.1
			C15.1,118.2,14.3,117.3,15.2,117.3C15.5,117.3,14.5,117.3,15.2,117.3z M15.5,123c-0.2,0.2-0.5-0.7,0.1-0.9
			C15.7,122.5,15.8,122.8,15.5,123z M14.9,123.4c0.4-0.2,0.3,0.4,0.4,0.6c0.2,0.2,0.6,0.2,0.6,0.6C15.5,124.5,14.1,123.8,14.9,123.4
			C15.2,123.2,14.6,123.5,14.9,123.4z M15.6,115.1c-0.2,0.1-0.5,0.2-0.6,0.5c-0.1,0.3,0.2,0.5,0.2,0.8c-0.1,0.7-1.5-0.8-1.6-1
			c-0.5-0.7,0.5-0.6,0.9-0.6c0.4,0,0.6-0.2,1-0.2C16,114.4,16,114.9,15.6,115.1C15.1,115.3,15.8,115,15.6,115.1z M14.6,104.1
			c0.3,0.4,0.8,0.5,1.1,0.9c0.4,0.4-0.2,0.6-0.4,0.9c-0.3-0.3-0.7-0.5-0.9-0.9C14.2,104.9,14.3,103.8,14.6,104.1
			C14.9,104.6,14.4,104,14.6,104.1z M14.5,85.6c0-0.5,0.9-0.2,0.6,0.2C15,86,14.5,85.9,14.5,85.6C14.5,85.4,14.5,85.8,14.5,85.6z
			 M15.8,99.5c-0.4,0.2-0.6-0.4-0.5-0.7c0.1-0.3,0.5-0.4,0.7-0.7C16.2,98.7,16.3,99.3,15.8,99.5C15.6,99.6,16.3,99.3,15.8,99.5z
			 M16.5,100.5c0.1-0.1,0.6,0,0.6,0.2c0,0.3-0.1,0.7-0.3,0.9c-0.4,0.5-1.1,0.7-1.3,1.3C14.9,101.6,16,101.5,16.5,100.5
			C16.5,100.5,16.1,101.3,16.5,100.5z M14.2,98.4c-0.1,0.3-0.5,0.2-0.6,0.1C13.7,98.4,14.3,97.8,14.2,98.4
			C14.2,98.6,14.3,98.3,14.2,98.4z M15.8,108.6c-0.2,0.1-0.6-0.9-0.2-1.1c0.7-0.3,0.7-0.5,1.6-0.3c0.2,0.1,0.5,0.3,0.3,0.5
			c-0.2,0.2-0.4-0.1-0.7-0.1C16,107.7,16.4,108.3,15.8,108.6z M16.5,105.9c0.4-0.4,0.5-0.6,0.9-0.2c-0.2,0.2-0.4,0.3-0.6,0.5
			C16.7,106.2,16.4,105.9,16.5,105.9C16.6,105.7,16.4,105.9,16.5,105.9z M18.1,118.7c-1.1,0.1-2.1-1.8-0.7-1.8c0.2,0,0.5,0,0.6-0.2
			c0.4,0.3,0.3,0.4-0.1,0.6C17.1,117.7,17.7,118.3,18.1,118.7C16.9,118.8,17.5,118.1,18.1,118.7z M17.5,121.1
			c0.1,0.5-1.3,0.3-1.5-0.2C15.5,119.7,17.4,120.4,17.5,121.1z M17.6,124.3c0.2,0.2,0.5,0.1,0.7,0.3c0.2,0.3,0.1,0.6-0.3,0.6
			C17.2,125.3,16.7,124.2,17.6,124.3C17.8,124.5,17.3,124.3,17.6,124.3z M18.3,142.7c0,0.3-0.5,0.5-0.7,0.2
			C17.5,142.4,18.3,142.4,18.3,142.7C18.3,142.9,18.3,142.5,18.3,142.7z M18.5,115.4c-0.3,0.7-0.8,0-1.4-0.1c-0.5-0.1-0.3,1-0.3,1.3
			c-0.5-0.5-0.7-2,0-2.4c0.4-0.2,0.7,0.2,1,0.4C18.1,114.8,18.8,114.8,18.5,115.4C18.4,115.6,18.6,115.1,18.5,115.4z M18,113.4
			c-0.4,0.8-1.7,0.2-1.9-0.4C15.7,112.2,18.3,112.9,18,113.4C17.8,113.8,18,113.4,18,113.4z M16.9,104.6c-0.7,0.1-1-1.1-0.3-0.9
			c0.3,0.1,0.7-0.2,1,0.1C18.1,104.3,17.3,104.6,16.9,104.6C16.4,104.7,17.3,104.6,16.9,104.6z M17,102.7c-0.3,0.1-0.4-0.5,0-0.4
			C17.4,102.2,17.3,102.5,17,102.7C16.8,102.7,17.1,102.6,17,102.7z M16.9,94.7c-0.2-0.2-0.4-0.1-0.7-0.1c-0.3,0-0.5-0.5-0.1-0.6
			c0.3,0,0.6,0,0.8,0C17.6,94.2,17.1,94.9,16.9,94.7C16.6,94.4,17,94.8,16.9,94.7z M15.4,93.6c-0.4,0-0.5-0.1-0.3-0.5
			c0.1-0.2,0.3-0.9,0.6-0.9C16.7,91.9,15.6,93.3,15.4,93.6C15.2,93.5,15.6,93.2,15.4,93.6z M15.6,89c-0.6,0-1-1.4-0.4-1.6
			C15.8,87.2,16.7,89.1,15.6,89C15,89,15.9,89,15.6,89z M15.4,80.4c0.3,0.1,0.4,0.7,0,0.7C15.1,81,15.1,80.3,15.4,80.4
			C15.7,80.4,15.2,80.3,15.4,80.4z M14.5,93.1c-0.1,0.9-0.5,0-0.7-0.4c-0.1-0.2,0.4-0.2,0.5-0.2C14.6,92.7,14.5,93,14.5,93.1
			C14.5,93.3,14.5,92.9,14.5,93.1z M13.5,78.3c-0.2-0.1-0.6-0.1-0.7-0.4c-0.1-0.1,0-0.8,0.1-0.9c0.5-0.4,0.6,1,1.1,0.9
			C13.9,78.2,13.8,78.4,13.5,78.3C13.1,78.2,13.8,78.4,13.5,78.3z M13.8,79.2c0,0.3-0.1,0.7-0.5,0.7C12.6,79.8,13.7,79.2,13.8,79.2
			C13.7,79.6,13.5,79.3,13.8,79.2z M12.9,82.5c0.1,0,0.3,0.1,0.4,0c-0.2-0.3-0.1-0.6,0.1-0.9c0.1,0.2,0.3,0.3,0.3,0.6
			c0,0.2-0.4,0.4-0.4,0.4c-0.1,0-0.4,0.5-0.8,0.4C12,82.9,12.7,82.5,12.9,82.5C13.1,82.5,12.7,82.5,12.9,82.5z M13.5,84.4
			c-0.1,0.7-0.7,0-0.7-0.4C12.8,83.4,13.6,83.9,13.5,84.4C13.5,84.6,13.6,84,13.5,84.4z M13,88.5c0-0.3,0.1-1.1,0.6-0.9
			c0.3,0.1-0.6,1.4-0.7,1.6C12.7,89,12.6,88.7,13,88.5C13,88.5,12.8,88.6,13,88.5z M13.2,147.6c0.3-0.1,0.4,0.7,0.5,0.9
			c0.3,0.5,0.5,0.9,0.2,1.5C13.5,149.7,12.8,147.7,13.2,147.6C13.3,147.6,13.1,147.6,13.2,147.6z M13.6,143.6
			c-0.1-0.1-0.4-0.4-0.2-0.6c0.2-0.2,0.6,0.3,0.7,0.4C14,143.4,13.6,143.7,13.6,143.6C13.5,143.5,13.6,143.7,13.6,143.6z M14,130.7
			c0-0.5,0.8-0.5,0.7,0c0,0.2,0.1,0.5-0.2,0.6C14.2,131.2,14,131,14,130.7C14,130.5,14,131,14,130.7z M16.3,132.5
			c-0.7,0.3-1.1-1.3-0.5-1.7c0.3-0.2,1-0.2,0.6,0.3C16.1,131.6,15.9,132.1,16.3,132.5C16.3,132.6,15.8,131.9,16.3,132.5z
			 M15.9,136.6c-0.1,0.4-1.2,0.3-0.8-0.3C15.3,136,15.9,136.3,15.9,136.6C15.8,136.9,15.9,136.2,15.9,136.6z M15.2,154.4
			c-0.2,0.9-0.7-0.9-0.7-1C15.1,153.5,15.4,153.8,15.2,154.4C15.2,154.5,15.4,153.8,15.2,154.4z M14.8,134.2c0,0,0.3,0.6-0.2,0.6
			C14.2,134.9,14.7,134.3,14.8,134.2C14.9,134.2,14.7,134.3,14.8,134.2z M15,147c0.1,0.3-0.6,0.3-0.7-0.2
			C14.5,146.8,14.8,146.8,15,147C15,147.1,14.8,146.7,15,147z M14.8,161c-0.1,0.2-0.4,1.3-0.8,0.8C13.5,161.4,14.6,161,14.8,161
			C14.6,161.4,14.2,161,14.8,161z M14.5,159.9c-0.3-0.4,0.5-0.3,0.6-0.2c0.3,0.2,0.3,0.6,0.5,0.9c-0.1,0.3-0.5,0.7-0.8,0.3
			C14.6,160.6,14.7,160.2,14.5,159.9C14.3,159.6,14.8,160.2,14.5,159.9z M15.1,155.3c0.5,0,0.3-1,1-0.2
			C15.8,155.2,15.6,155.6,15.1,155.3C15.6,155.3,15.6,155.6,15.1,155.3z M15.5,152.4c0.2-0.6-0.7-0.8,0-1.5c0.2-0.2,0.6-0.5,0.9-0.1
			c0.1,0.2-0.1,0.5,0,0.7c0,0.3-0.1,0.6,0.1,0.9c0.1,0.1,0.3,0.3,0.2,0.4C16.4,153.4,15.3,153.1,15.5,152.4
			C15.7,152,15.4,153.1,15.5,152.4z M16.3,127.1c-0.6-0.4-1.3,1.4-1.9,0.2c-0.2-0.3-0.6-1.1-0.2-1.4c0.4-0.3,0.3,0.3,0.6,0.4
			c0.6,0.3,1,0,1.5-0.3c0.2-0.1,0.8-0.5,1-0.2C17.9,126.9,16.3,126.4,16.3,127.1C16,126.9,16.3,126.4,16.3,127.1z M17,162.9
			c-0.1-0.2,0-0.9,0.3-0.6C17.6,162.5,17.2,162.9,17,162.9C17,162.9,17.4,162.9,17,162.9z M17.7,97c0.3-0.3,0.8-0.9,1.2-0.3
			C19.5,97.3,17.9,97.1,17.7,97C18.1,96.6,18.3,97.2,17.7,97z M17.8,92.4c0.1,0.6-1.2-0.3-1.2-0.3c-0.3-0.2-0.5-0.4-0.7-0.6
			c-0.1-0.1-0.2-0.6,0-0.5c1.1,0.6,1-2,2.3-0.5C17.4,90.9,17.6,91.6,17.8,92.4C17.8,92.4,17.7,91.7,17.8,92.4z M17.9,85.9
			c-0.3,0-0.7,0.1-0.8-0.3c-0.1-0.5,0.1-0.9,0.6-0.7c0.3,0.1,0.8,0,1,0.4C19,85.8,18.3,85.9,17.9,85.9
			C17.5,85.9,18.3,85.9,17.9,85.9z M17.5,58.7c0.7,0-0.9,1-0.9,1C16.7,59.1,16.9,58.7,17.5,58.7C17.6,58.7,17.1,58.7,17.5,58.7z
			 M16.4,64c-0.2-0.1-0.8-0.6-0.3-0.7C16.4,63.3,16.9,64,16.4,64C16.2,64,16.6,64,16.4,64z M16.3,60.8c-0.5,0.1-1.2-0.9-1.1-1.3
			C15.4,58.7,17.1,60.7,16.3,60.8C15.9,60.9,16.4,60.8,16.3,60.8z M15.7,52.9c-0.5-0.1-0.5-0.8,0-0.9C16.7,52,16.3,53,15.7,52.9
			C15.6,52.9,16.1,53,15.7,52.9z M14.6,49.2c0.5,0.7,0.9,1.3,1.5,2C14.3,51.4,14.3,51.4,14.6,49.2z M14.5,58.6
			c-0.4-0.1-1.3-0.2-0.9-0.9C13.9,57.1,14.4,58.5,14.5,58.6C14.1,58.5,14.2,58.3,14.5,58.6z M13.9,61.4c0.4,0.1,1.1,0.9,0.3,1
			C13.6,62.4,13.3,61.3,13.9,61.4C14.2,61.5,13.6,61.4,13.9,61.4z M14.1,68.5c0.5-0.3,0.4,0.5,0.8,0.6c-0.7,0-1,0-1.6,0.2
			c-0.3,0.1-0.4-0.3-0.2-0.4C13.5,68.7,13.8,68.7,14.1,68.5C14.7,68.1,13.8,68.7,14.1,68.5z M13.9,72.6c-0.5,0.5-0.9,0.2-0.8-0.5
			C13.4,72.3,13.7,72.4,13.9,72.6C13.8,72.7,13.7,72.4,13.9,72.6z M13.7,75.1c0.1-0.3,0.8-0.1,1.1-0.2c0.3,0,0.3-0.3,0.5-0.1
			c0.2,0.2-0.3,0.3-0.4,0.5c-0.4,0.3-0.6,0.7-0.9,1.1c-0.4,0.5-1-0.1-1.3,0.3C12.7,76,13.5,75.8,13.7,75.1
			C13.8,74.7,13.5,75.8,13.7,75.1z M12.5,71.7c-0.4-0.1-0.7-1-0.2-0.9C12.6,70.8,13,71.8,12.5,71.7C12.2,71.6,12.7,71.7,12.5,71.7z
			 M11.8,62.5c0-0.5,0.6-0.4,0.5,0C12.3,62.9,11.9,62.9,11.8,62.5C11.8,62.3,11.9,62.7,11.8,62.5z M11.9,98.1
			c0.5,0.5,0.8,1.1,0.2,1.7c0.3,0,0.7-0.1,1,0c0.6,0.3-0.1,0.5-0.3,0.5C11.6,100.4,11.4,98.9,11.9,98.1
			C12.4,98.7,11.6,98.7,11.9,98.1z M12.1,115.9c-0.4-0.1-0.6-0.3-0.7-0.6C11.9,115.2,12,115.4,12.1,115.9z M11.5,133
			c0.1,0.2-0.4,0.2-0.6,0.1C10.7,132.9,11.3,132.5,11.5,133C11.6,133.2,11.4,132.8,11.5,133z M11.3,135.8c0.2,0,0.4,0.1,0.5,0.3
			c0.2,0.5-0.4,0.5-0.7,0.4C10.2,136.5,10.6,135.8,11.3,135.8C11.6,135.8,11,135.8,11.3,135.8z M10.7,146c0.2-0.2,0.4,0.4,0.4,0.5
			c0.1,0.4-0.3,0.5-0.6,0.7C10.9,146.8,10.3,146.3,10.7,146C10.9,145.8,10.2,146.3,10.7,146z M11.2,155.2c0.3,0,0.6,0.4,0.2,0.5
			C11.1,155.8,11,155.4,11.2,155.2C11.4,155.2,11.2,155.3,11.2,155.2z M11.8,153c-0.3-0.2,0.2-0.9,0.4-1.1c0.2-0.2,0.1-0.9,0.6-0.7
			c0.5,0.3,0.3,0.5-0.1,0.7C12.4,152.1,12.6,153.6,11.8,153C11.4,152.8,12.1,153.2,11.8,153z M12.5,154.2c0.1,0,1.1,0.4,0.4,0.6
			C12,155,12.2,153.9,12.5,154.2C12.7,154.3,12.3,154,12.5,154.2z M13.3,156.7c0.3-0.1,0.5-0.5,0.9,0c0.2,0.3-0.2,0.6-0.2,0.8
			c0,0.5-0.3,0.2-0.6,0.1c-0.4-0.2-0.4,0.5-0.5,0.7C12.8,157.7,12.2,156.9,13.3,156.7C13.5,156.7,12.1,157,13.3,156.7z M15.1,167
			c1.1,0,0.5,2.2-0.4,1.8c-0.4-0.2,0-0.7-0.1-1C14.5,167.3,14.6,167,15.1,167C15.6,167,14.2,167,15.1,167z M14.7,166.2
			c0-0.6,0.9-0.4,0.9,0.1C15.7,166.7,14.8,166.6,14.7,166.2C14.7,165.9,14.8,166.5,14.7,166.2z M15.7,172c0,0.3-0.4,0.7-0.7,0.5
			c-0.4-0.3-0.2-0.8-0.2-1.2C15.1,171.6,15.7,171.6,15.7,172C15.7,172.3,15.7,171.5,15.7,172z M14.7,170.6c0,0.3-0.8,0.1-0.7-0.5
			C14.4,170.2,14.7,170.3,14.7,170.6C14.7,170.7,14.7,170.3,14.7,170.6z M14.6,169.6c-1.1,0.2-2,0.6-2.6,1.5
			C11.8,169.9,13.2,169.1,14.6,169.6z M13.3,172.1c0.5-0.1,0.7,0.4,0.4,0.8c-0.3,0.4-0.8,0.4-1,0.9C12.5,173,12.5,172.3,13.3,172.1
			C13.6,172,12.6,172.3,13.3,172.1z M12.9,174.3c0.5-0.5,1-0.8,1.4-1.3c0.1,0.6-0.2,1.4-0.7,1.8C13.1,175.1,12.3,174.8,12.9,174.3
			C13.1,174.1,12.8,174.4,12.9,174.3z M15.9,166.8c0.1-0.4,0.4-0.2,0.6-0.2C16.5,166.9,15.8,167.4,15.9,166.8
			C16,166.3,15.9,166.9,15.9,166.8z M17.4,165.1c-0.8-0.1-1.6-0.3-2.1-0.9c-0.2-0.3-0.3-0.8-0.7-1c-0.4-0.2-0.9,0-1.2-0.3
			c0.5-0.1,0.8-0.5,1.3-0.7c0.3-0.1,0.9,0.3,1.1-0.1c0.1-0.3,0.2-0.6,0.5-0.2c0.3,0.4-0.3,0.7-0.6,0.8c-0.5,0.2-0.5,0.8,0.1,0.6
			c0.3-0.1,0.8-0.4,1.1-0.2c0.5,0.3,0,1.2,0.7,1.2c0.3,0,0.5-0.2,0.7-0.1c0.3,0.1,0.5,0.4,0.8,0.5C18.7,165.2,18.1,165.2,17.4,165.1
			C16.3,165,18.1,165.2,17.4,165.1z M19.2,163.7c0.1-0.6,0.3-0.5,0.8-0.2C19.9,163.9,19.1,164.1,19.2,163.7
			C19.2,163.5,19.1,164,19.2,163.7z M18.9,123.7c0-0.3,0.7-0.3,0.7,0.2C19.5,124.4,18.9,124.1,18.9,123.7
			C18.9,123.5,18.9,124,18.9,123.7z M18.1,94.8c0.3-0.2,0.6-0.4,1-0.3c0.2,0.1,0.8,0.7,0.4,0.9C18.8,95.7,18.6,94.8,18.1,94.8
			C18.6,94.5,18.6,94.8,18.1,94.8z M19.2,85.5c-0.2-0.1,0.4-0.4,0.5-0.3c0.2,0.1,0.3,0.4,0.4,0.5C19.8,86,19.5,85.8,19.2,85.5
			C19.2,85.5,19.5,85.7,19.2,85.5z M19.3,68.1c-0.6,0-0.1-0.5,0.1-0.7C19.7,67.7,20,68.1,19.3,68.1C19.2,68.1,19.5,68.1,19.3,68.1z
			 M19.5,11.7c0.5,0.3,0,0.7,0.3,1.1c-0.6,0.1-0.4-0.2-0.6-0.7C19.1,12,19.1,11.5,19.5,11.7C20.1,12.1,19.4,11.7,19.5,11.7z
			 M18.9,49.3c-0.3,0.3-0.5,0.6-0.6-0.1c-0.1-0.5-0.5-1.9-0.1-2.1c0.5-0.4,0.7,0.3,0.9,0.7C19.4,48.3,19.3,48.8,18.9,49.3
			C18.7,49.4,19.8,48.3,18.9,49.3z M18.3,38.1c0.7-0.1,0.2,0.7,0.1,0.9C18,39.1,17.9,38.2,18.3,38.1C18.5,38.1,18,38.2,18.3,38.1z
			 M17.4,41c0.4,0.1,0.5-0.4,0.6-0.6c0,0.8,0.2,0.8-0.6,1.1C16.6,41.9,16.6,40.9,17.4,41C17.7,41.1,17.1,41,17.4,41z M16.9,31.5
			c-0.1,0.7-1,0.3-0.9-0.2C16,30.6,16.9,31.1,16.9,31.5C16.8,31.7,16.9,31.1,16.9,31.5z M15.8,7.4c0.1,0,0.2-0.1,0.3-0.1
			c0,0.3,0,0.6,0.1,0.9C15.9,8,15.5,7.7,15.8,7.4C15.9,7.3,15.5,7.7,15.8,7.4z M16.1,5.3c0.1,0.3,0,1.2-0.5,0.9
			C14.9,5.8,15.9,5.4,16.1,5.3C16.2,5.8,15.8,5.5,16.1,5.3z M15.7,38.4c0-0.5-0.4-1-0.2-1.6c0.5,0.2,0.7,0.9,1.2,1.1
			c0.3,0.1,0.5,0.1,0.4,0.5c0,0.2-0.2,0.6-0.5,0.5c0.2,0.2,0.6,0.3,0.5,0.6c-0.1,0.4-0.4,0.3-0.6,0.1c-0.1-0.2-0.3-0.2-0.4-0.4
			c-0.1-0.2,0.4-0.4,0.4-0.4c0-0.4-0.8-0.7-0.8-0.2C15.6,39.4,14.5,38.2,15.7,38.4C15.7,38.4,15.4,38.3,15.7,38.4z M15.1,44.6
			c0.4-0.7,1.3,0.4,1.8,0.5c-0.7,0.1-0.8,1.1-1.6,0.9c0-0.3,0.4-0.5,0.5-0.8C15.8,44.7,14.8,45,15.1,44.6
			C15.3,44.3,15.1,44.7,15.1,44.6z M14.7,36.9c-0.6,0-0.4-0.3-0.1-0.7C14.7,36.3,15.3,36.9,14.7,36.9C14.5,36.9,14.9,36.9,14.7,36.9
			z M14.9,31c0,0.4-0.7,0.1-0.8,0c-0.4-0.2-0.4-0.6-0.2-1C14.2,30.4,14.9,30.4,14.9,31C14.9,31.2,14.9,30.4,14.9,31z M13.1,20.6
			c0.7-0.1,0.2,0.9-0.3,0.1C13,20.7,13,20.6,13.1,20.6C13.3,20.6,13,20.6,13.1,20.6z M13.6,25c0-0.1,0.9-1.1,1-1
			c0.2,0.1,0.1,1.2,0.1,1.4c-0.1,0.6-0.5,1-1.1,1.1c-0.3,0.1-0.9,0.3-1.1,0c-0.3-0.3,0.1-0.4,0.3-0.4C13.6,26.1,13.9,25.8,13.6,25
			C13.5,24.8,14.1,26.4,13.6,25z M12.5,37.4c0.2-0.1,0.6,0.4,0.3,0.4C12.6,37.9,12.1,37.5,12.5,37.4C12.7,37.4,12.4,37.4,12.5,37.4z
			 M13.3,47.8c-0.4,0.1-0.5,0.4-0.7,0.7c-0.2,0.3-0.5,0.1-0.5,0C12.5,48.1,12.5,47.6,13.3,47.8C12.6,48,12.3,47.6,13.3,47.8z
			 M13.7,48.4c0.1-0.3,0.6-0.3,0.5,0.2c-0.1,0.4-0.4,0.8-0.5,1.2c-0.1,0.3-0.4,0.2-0.6,0.1c-0.2,0-0.6,0.2-0.8,0.1
			c-0.2-0.1-0.4-0.4-0.4-0.6c0-0.3,0.4-0.1,0.5-0.1C13.1,49.5,13.5,49.1,13.7,48.4C13.7,48.2,13.5,49.3,13.7,48.4z M12.1,44.2
			c-0.1,0.4-0.5,0.1-0.5-0.2C11.7,43.7,12.1,43.9,12.1,44.2C12.1,44.3,12.1,44.1,12.1,44.2z M12,31.7c-0.3,0.4-0.5,0.3-0.8,0
			C11.5,31.6,11.8,31.6,12,31.7C12,31.8,11.8,31.6,12,31.7z M10.9,70.2c0.3-0.6,0.8,0,0.6,0.3C11.3,70.6,10.7,70.5,10.9,70.2
			C11,70,10.8,70.4,10.9,70.2z M10.8,34.1c0.2,0.4-0.4,0.4-0.3,0.8C10.4,34.7,10.5,33.6,10.8,34.1C11,34.5,10.8,34.1,10.8,34.1z
			 M9.8,21.9c0.1-0.3,0.4-0.4,0.6-0.1c0.2,0.3,0,0.7,0,1C9.9,22.7,9.5,22.4,9.8,21.9C9.8,21.7,9.6,22.3,9.8,21.9z M10.4,51
			c-0.1,0.1-0.2,0.2-0.3,0.3c-0.1-0.2-0.4-0.4-0.2-0.5C10,50.6,10.3,50.8,10.4,51C10.3,51.1,10.3,50.8,10.4,51z M9.9,101.7
			c-0.3-0.4-0.6-0.6-0.4-1C9.8,100.9,10,101.1,9.9,101.7z M8.6,13.7C8,13.5,8.5,12.2,8.9,12c0.1,0.4,0.5,0.8,0.6,1.2
			C9.6,14,9,13.8,8.6,13.7C8,13.5,8.8,13.8,8.6,13.7z M9.1,114.3c0.4,0,0.6,0.3,0.7,0.6C9.4,115,9.3,114.7,9.1,114.3z M9.8,169.9
			c-0.1,0.2-0.3-0.3-0.3-0.4c0.1-0.2,0.3-0.4,0.3-0.7C9.9,169.1,10,169.5,9.8,169.9C9.8,169.9,10,169.5,9.8,169.9z M9.9,127.9
			c0.1-0.5,1.2-0.6,1.1-0.2c-0.1,0.2-0.2,0.6-0.4,0.6C10.3,128.5,9.9,128.3,9.9,127.9C10,127.5,9.8,128.4,9.9,127.9z M13.4,160.1
			c0,2.2-1.6,1.9-2.9,2.2C11.5,161.7,12.4,161,13.4,160.1z M11.2,173.5c0.7-0.1,0.4,1,0,1.2C10.7,174.7,10.7,173.5,11.2,173.5
			C11.5,173.5,10.6,173.5,11.2,173.5z M11.5,163.6c-0.5-0.2-0.3-0.3,0-0.5C11.9,163.2,11.9,163.7,11.5,163.6
			C11.4,163.6,11.7,163.7,11.5,163.6z M10.6,169.6c0.2-0.5,0.6,0.5,0.4,0.8C10.8,170.2,10.4,170,10.6,169.6
			C10.6,169.5,10.4,170,10.6,169.6z M11.2,181.2c-0.3,0-0.5-0.4-0.2-0.5C11.4,180.7,11.4,181.2,11.2,181.2
			C11,181.2,11.3,181.2,11.2,181.2z M11.4,175.2c0-0.4,0.5-0.3,0.6,0C12.3,175.7,11.4,175.8,11.4,175.2z M11.7,178.5
			c-0.3-0.1,0-0.5,0.1-0.6c0.3-0.2,0.7,0,0.9,0.2C12.5,178.2,12.2,178.6,11.7,178.5C11.6,178.4,12.2,178.6,11.7,178.5z M13.3,185.9
			c0.4-0.2,0.7-0.4,0.7-0.9c-0.7,0.4-1.1-0.1-1.5-0.6c1.3-0.2,2.3,0.5,3.2,1.3c-0.5,0.1-1.2-0.1-1.6,0.3c-0.2,0.1-0.3,0.7-0.5,0.7
			C13.2,186.7,12.9,186.2,13.3,185.9C13.6,185.8,13,186.1,13.3,185.9z M13.8,188.4c-0.6,0.1-0.1-0.8,0.2-0.6
			C14.1,187.9,14,188.3,13.8,188.4C13.6,188.4,14,188.3,13.8,188.4z M14.5,187.1c0.4-0.6,0.8-0.5,1.3-0.3
			C15.4,187.3,15,187.1,14.5,187.1z M16.1,188.8c-0.1-0.1-0.2-0.2-0.3-0.3C16.4,188,16.4,188.9,16.1,188.8
			C16,188.8,16.2,188.8,16.1,188.8z M16.7,178.5c-0.3-0.2-0.5-0.6-0.5-0.9c0-0.2,0.1-0.7,0.4-0.3c0.4,0.4,0.1,1,0.7,1.3
			C17.2,178.5,16.8,178.5,16.7,178.5C16.3,178.2,16.7,178.5,16.7,178.5z M16.7,181.7c0.3-0.6,1.3-0.9,1,0c-0.1,0.3-0.1,0.6-0.5,0.6
			C17,182.4,16.6,182,16.7,181.7C16.9,181.5,16.7,181.9,16.7,181.7z M17.2,185.7c-0.5,0-0.6-0.7,0-0.7
			C17.8,185,17.7,185.7,17.2,185.7C17,185.7,17.5,185.7,17.2,185.7z M18.1,183.6c-0.2,0-0.7,0-0.6-0.4c0.2-0.5,0.8-0.5,1.2-0.8
			C18.5,182.8,18.8,183.5,18.1,183.6C17.7,183.6,18.9,183.5,18.1,183.6z M18.6,170.7c0-0.3,0.2-0.5,0.4-0.7c0.1,0.4,1.2,0.7,0.9,1.1
			C19.6,171.5,18.6,171.2,18.6,170.7C18.5,170.4,18.6,171.3,18.6,170.7z M20.9,179.1c-0.3,0.4-0.5,0-0.8,0.1c0,0-0.1,1.2-0.1,1.3
			c0,0.2-0.3,1.1-0.7,0.6c-0.2-0.3,0-0.5,0.1-0.8c0.1-0.2,0.1-0.5,0.1-0.7c0.1-0.2,0.6-0.5,0.6-0.4c0,0,0.2-0.1,0.3-0.2
			C20.6,178.8,21.1,178.8,20.9,179.1C20.7,179.4,21,179,20.9,179.1z M20.7,161.5c-0.9-0.1-0.8-0.7-1.4-1.1
			C20.2,159.6,20.3,161,20.7,161.5C19.7,161.4,20.2,160.9,20.7,161.5z M19.6,142.4c0.1-0.2,0.5,0,0.6,0.1c0.1,0.2-0.1,0.5-0.1,0.8
			C19.8,143,19.4,142.8,19.6,142.4C19.6,142.3,19.4,142.8,19.6,142.4z M20.4,118.2c0.2,0.1-0.2,0.3-0.2,0.3
			c-0.3,0.1-0.6-0.1-0.8-0.2C19.8,118,20.1,118,20.4,118.2C20.5,118.2,20.1,118,20.4,118.2z M19.5,90.9c0.1-0.9,0.7,0.7,0.6,0.6
			C19.8,91.6,19.5,91.4,19.5,90.9C19.5,90.8,19.5,91.4,19.5,90.9z M20.4,86.6c-0.5,0.1-0.5-0.5,0-0.5C20.8,86.1,20.8,86.6,20.4,86.6
			C20.3,86.6,20.6,86.6,20.4,86.6z M19.9,80.7c-0.3-0.1-0.4-0.6-0.4-0.9c0-0.2,0.1-0.3,0.2-0.5c-0.1-0.2-0.3-0.4-0.2-0.6
			c0.2-0.4,0.5,0.2,0.4,0.4c-0.2,0.6,0.8,0.4,1,0.6C20.5,80,20.5,81,19.9,80.7C19.5,80.6,20.5,81,19.9,80.7z M20.6,21.7
			c-0.5-0.1-0.8-1.4-0.2-1.5C21.1,19.9,21.2,21.8,20.6,21.7C20.2,21.6,21,21.8,20.6,21.7z M21.7,22.6c-0.3,0.1-0.3-0.4-0.2-0.5
			C21.8,21.8,22.2,22.4,21.7,22.6C21.4,22.7,21.8,22.6,21.7,22.6z M22.6,14.8c0,0.1,0.5,1.2,0,0.8c-0.2-0.2-0.1-0.3-0.4-0.4
			c-0.3,0-0.5,0-0.5-0.3c0-0.2,0.7-1,1-1C23.6,14,22.7,14.7,22.6,14.8C22.6,15,22.8,14.6,22.6,14.8z"/>
	</g>
	<g>
		<path class="st1" d="M94.8,84.9c-1-1.1-2.1-2.2-3.3-3.1c-0.6-0.5-2.7-1.5-1.8-2.6c0.4-0.5,1-0.8,1.5-1.2c0.6-0.5,1.1-1.1,1.7-1.5
			c0.9-0.7,2-1.4,2.4-2.6c-1.4,0-2.7,0.5-4.1,0.9c-0.8,0.2-1.5,0.5-2.2,0.7c-0.4,0.1-1.2,0.5-1.6,0.2c-0.4-0.3-0.4-1.3-0.6-1.7
			c-0.2-0.7-0.4-1.4-0.5-2c-0.1-0.7-0.3-4-1.4-3.6c-0.3,0.1-0.3,0.8-0.4,1c-0.2,0.7-0.4,1.4-0.5,2.2c-0.3,1.3-0.4,2.7-0.9,3.9
			c-0.3,0.7-1.2,0.3-1.7,0.1c-1.6-0.5-3.1-1-4.7-1.5c-0.4-0.1-1.1-0.4-1.5-0.2c-0.5,0.3-0.1,0.8,0.2,1c1.2,1,2.3,2.3,3.5,3.3
			c0.7,0.6,2.3,1.5,1.4,2.6C79,82,77.6,83,76.3,84.1c-0.4,0.3-1.3,0.8-1.4,1.4c0,0.6,0.7,0.5,1,0.4c1.6-0.5,3.3-1.1,4.9-1.7
			c0.9-0.3,1.7-0.5,2.1,0.5c0.6,1.4,0.7,3,1,4.5c0.1,0.4,0.4,2.5,1,2.4c0.6-0.1,0.9-2.5,1-3c0.3-1.1,0.5-2.1,0.7-3.2
			c0.1-0.4,0.2-1.1,0.5-1.4c0.3-0.2,0.8,0,1.2,0.1c1,0.3,1.9,0.6,2.9,0.9c1,0.3,1.9,0.7,2.9,0.9c0.3,0.1,0.9,0.1,1-0.3
			C95.4,85.3,94.9,85.1,94.8,84.9C93.4,83.5,95,85.2,94.8,84.9z"/>
		<path class="st1" d="M67,85c-0.9-1-1.9-1.8-3-2.6c-0.6-0.5-2.5-1.8-2.3-2.8c0.1-0.5,0.7-0.8,1.1-1.1c0.6-0.4,1.1-0.9,1.7-1.4
			c0.5-0.5,1.1-0.9,1.6-1.4c0.3-0.3,1.3-0.9,1.4-1.4c0.2-1-3.1,0.3-3.5,0.4c-0.7,0.2-1.5,0.4-2.2,0.6c-0.6,0.2-1.2,0.5-1.9,0.5
			c-1,0-1-2.1-1.1-2.8c-0.2-0.7-0.4-1.4-0.6-2.2c-0.2-0.7-0.3-1.6-0.6-2.2c-0.5-1.2-1.5,1.9-1.5,2.3c-0.3,1.4-0.3,2.9-0.9,4.3
			c-0.4,0.8-1.5,0.8-2.2,0.4c-1.2-0.7-2.6-0.8-3.9-1.2c-0.5-0.1-1-0.5-1.5-0.5c-0.6,0-0.7,0.6-0.3,0.9c1.2,1,2.5,2,3.6,3.1
			c0.7,0.6,2.2,1.5,1.5,2.5c-0.8,1.2-2.1,1.9-3.2,2.9c-0.6,0.5-1.3,1-1.9,1.6c-0.6,0.6-0.2,1.3,0.6,1.1c1.9-0.5,3.7-1.1,5.6-1.8
			c1.2-0.5,1.7-0.3,2,1c0.4,1.9,0.8,3.9,1.4,5.7c0.2,0.5,0.9,0.9,1,0.1c0.1-0.9,0.3-1.7,0.6-2.6c0.2-0.8,0.5-1.7,0.6-2.6
			c0.1-0.5-0.1-1.5,0.3-1.9c0.4-0.4,1.2,0.1,1.7,0.3c0.9,0.3,1.9,0.6,2.9,0.9c0.9,0.3,1.9,0.5,2.8,0.8c0.3,0,0.7,0.1,0.9-0.2
			C67.5,85.3,67.1,85.2,67,85C65.6,83.4,67.2,85.2,67,85z M57,79.7c-0.2,0.1-0.7,0.3-0.5-0.1C56.6,79.3,57.2,79.3,57,79.7
			C57,79.7,57.2,79.4,57,79.7z"/>
		<path class="st1" d="M145.5,79c1.1-0.7,2-1.6,3-2.5c0.3-0.3,3.1-2.1,2.1-2.6c-0.4-0.2-1.3,0.2-1.7,0.3c-0.7,0.2-1.5,0.4-2.2,0.6
			c-0.9,0.3-2.3,1.2-3.3,1c-0.7-0.2-0.9-1.4-1-2c-0.2-1.5-0.8-2.9-1-4.4c0-0.4-0.2-0.9-0.7-1c-0.5,0-0.5,0.8-0.6,1.2
			c-0.4,1.6-0.8,3.1-1.2,4.7c-0.1,0.6-0.2,1.7-1,1.6c-1.4-0.2-2.8-0.8-4.2-1.3c-0.5-0.2-3-1.4-3.1-0.2c0,0.6,0.8,1,1.2,1.4
			c0.7,0.5,1.3,1.1,1.9,1.7c0.5,0.5,1.1,1,1.6,1.5c0.3,0.3,1.2,0.8,1.1,1.3c-0.1,0.5-1.1,1.1-1.5,1.4c-0.7,0.6-1.4,1.2-2.1,1.7
			c-0.3,0.2-3,2.1-1.9,2.6c0.5,0.2,1.3-0.2,1.8-0.4c0.8-0.3,1.7-0.5,2.6-0.8c0.9-0.3,1.7-0.5,2.5-0.8c0.7-0.2,0.8,0.1,1,0.8
			c0.6,1.8,0.8,3.7,1.3,5.6c0.1,0.3,0.3,1.8,0.9,1.3c0.5-0.3,0.6-1.9,0.7-2.5c0.5-1.8,0.9-3.7,1.1-5.6c1.6,0.5,3.1,1,4.7,1.5
			c0.4,0.1,4,1.6,3.4,0.2c-0.2-0.5-0.7-0.8-1.1-1.2c-0.7-0.6-1.3-1.2-2-1.8c-0.7-0.6-1.3-1.2-2-1.8C145.1,79.9,144.8,79.5,145.5,79
			C147.4,77.8,144.9,79.4,145.5,79z"/>
		<path class="st1" d="M118.3,81.1c-1.2-1-0.8-1.7,0.2-2.6c1.2-1.1,2.4-2.2,3.6-3.3c0.3-0.3,1.1-0.7,0.7-1.2c-0.3-0.4-1-0.1-1.4,0
			c-1.5,0.5-3.1,0.9-4.6,1.5c-0.5,0.2-1.6,0.8-2.1,0.2c-0.6-0.8-0.5-2.4-0.7-3.3c-0.2-0.7-0.3-1.4-0.5-2.1c-0.1-0.5-0.2-1.5-0.6-1.8
			c-0.8-0.6-1.4,2.9-1.5,3.3c-0.2,0.7-0.4,1.5-0.5,2.2c-0.1,0.5-0.1,1.2-0.5,1.6c-0.7,0.7-2.6-0.3-3.4-0.6c-1.3-0.5-2.6-0.9-4-1.2
			c-0.4-0.1-1,0.2-0.6,0.7c0.3,0.4,0.8,0.8,1.2,1.1c1,0.9,2.1,1.7,3.1,2.7c0.4,0.4,1.1,0.9,1.2,1.4c0.2,0.6-0.9,1.2-1.2,1.4
			c-1.1,1-2.3,2-3.4,3c-0.3,0.3-1.1,0.8-1.1,1.2c0,0.8,1.2,0.3,1.5,0.2c1.7-0.6,3.5-1.1,5.1-1.8c1-0.4,1.4-0.5,1.7,0.7
			c0.4,1.7,0.8,3.4,1.3,5.2c0.1,0.3,0.3,2.1,1,1.6c0.6-0.4,0.6-2,0.8-2.7c0.2-0.9,0.4-1.8,0.6-2.6c0.2-0.7,0.3-1.6,0.7-2.1
			c0.3-0.4,0.9-0.2,1.3,0c0.8,0.4,1.7,0.7,2.6,0.9c0.9,0.3,1.8,0.5,2.6,0.9c0.5,0.2,1.8,0.2,1.2-0.7c-0.5-0.8-1.6-1.4-2.3-2
			C119.9,82.4,119.1,81.8,118.3,81.1C117.2,80.2,119.8,82.3,118.3,81.1z M113.1,80.4c-0.3,0-0.3-0.8,0.1-0.7
			C113.7,79.8,113.6,80.4,113.1,80.4C112.9,80.3,113.4,80.4,113.1,80.4z"/>
		<path class="st1" d="M167.8,28.5c-26.5,0-52.9,0.1-79.4,0c-13.3,0-26.5,0-39.8,0c-6.6,0-13.3,0-19.9,0c-0.8,0-1.6,0-2.4,0
			c-0.4,0-1.1-0.1-1.4,0.2C24.6,29.1,25,30,25,30.4c0.1,0.9,0,1.8-0.1,2.6c-0.1,3.1-0.2,6.2,0.1,9.3c0.1,1.9-0.1,3.8,0.1,5.7
			c0.1,0.6,0.2,1.1,0.1,1.7c-0.1,0.6,0.2,0.8,0.7,0.9c-1.2,0.3-0.8,1.2-0.8,2.2c0,1.4,0.1,2.7,0.1,4.1c0,2.7-0.2,5.4-0.1,8.1
			c0,1.4,0.1,2.8,0,4.1c0,1.2,0.1,2.5-0.2,3.7c-0.3,1,0.9,1.7,0.7,2.7c-0.1,0.3-0.3,0.6-0.5,0.8c-0.1,0.1,0,0.4,0,0.6
			c-0.1,0.6,0.3,0.9,0.7,1.3c-1.1,0.8-0.6,2.2-0.6,3.3c0,0.9-0.5,2.1,0.7,2.5c-0.3,0.1-1.5,0.7-1,1.2c0.6,0.6,0.7,1.2,0.4,1.9
			c-0.2,0.7-0.2,1.2-0.1,1.9c0.1,0.9-0.1,1.9-0.1,2.8c0,0.8,0.1,1.6,0.1,2.4c0,0.9-0.2,1.9-0.1,2.8c0.1,2-0.4,4,0,6
			c0.1,0.8,0.1,1.3,0,2.2c0,0.2-0.1,0.6,0,0.8c0.1,0.3,0.5,0.1,0.7,0.3c0.2,0.2-0.4,1.4-0.5,1.6c-0.3,1-0.4,1.9-0.3,2.9
			c0.1,0.8,0,1.7-0.1,2.5c-0.1,0.8,0.1,1.6,0,2.4c0,1.3-0.1,2.5,1.3,3.1c-1.2,0-1.1,1.1-1.2,2c-0.1,1.6,0.2,3.2,0.1,4.9
			c-0.1,1.5-0.3,2.9-0.2,4.4c0,0.6,0,2.3,0.7,2.6c0.9,0.5,2.5,0.1,3.4,0.1c1.7,0,3.3,0,5,0c1.5,0,3.1,0,4.6-0.1
			c1.6-0.1,3.2,0.1,4.9,0c3.1-0.3,6.4,0.1,9.5,0.1c3.3,0,6.6,0,9.9,0c6.6,0,13.2,0,19.7,0c26.4,0,52.8,0,79.2,0c1.6,0,3.2,0,4.8,0
			c1.6,0,3.2-0.1,4.7,0.2c0.6,0.1,1.3,0.2,1.9,0.1c0.5-0.1,0.6-0.1,0.6-0.6c0-0.4,0-0.8,0-1.2c0-1.7,0-3.5,0-5.2c0-6.7,0-13.3,0-20
			c0-13.3,0-26.6,0-39.9c0-12.6,0-25.3,0-37.9C171.8,28.3,169.8,28.5,167.8,28.5C151.4,28.5,169.8,28.5,167.8,28.5z M168.3,104.8
			c0.1,0.3-0.5,0.4-0.5,0C167.8,104.4,168.2,104.4,168.3,104.8C168.4,104.9,168.2,104.6,168.3,104.8z M167.5,51.3
			c0.7,0,0.7,0.7,0,0.7C167,52,167,51.2,167.5,51.3C167.8,51.3,167.2,51.3,167.5,51.3z M163.1,55.4c0.3,0.3,0.2,0.7,0,1.1
			c-0.2-0.2-0.3-0.4-0.3-0.6C162.8,55.8,162.9,55.2,163.1,55.4C163.4,55.7,163.1,55.4,163.1,55.4z M162.8,36.5
			c0.3,0,0.1,0.8-0.5,0.6C162.6,36.9,162.4,36.5,162.8,36.5z M160.1,33.8c0.3,0,0.5,0.7,0.1,0.7C159.7,34.6,159.4,33.8,160.1,33.8z
			 M156.6,54.7c0.2,0,0.5,0.1,0.2,0.3C156.4,55.4,156.2,54.7,156.6,54.7z M154.8,55.2c0.3-0.4,0.4-0.7,0.6,0
			C155.3,55.9,154.6,55.5,154.8,55.2C154.9,55,154.7,55.4,154.8,55.2z M154.1,57.1c0.3-0.1,0.4,0.4,0,0.5
			C153.8,57.5,153.6,57.3,154.1,57.1C154.2,57,154,57.2,154.1,57.1z M152.7,54.8c0.5,0.4-0.1,0.6-0.1,1c-0.1-0.2-0.3-0.4-0.4-0.6
			C152.1,54.8,152.4,54.6,152.7,54.8C153.3,55.2,152.6,54.7,152.7,54.8z M151.9,53.2c0.5,0,0.5,0.7,0.1,0.7
			C151.4,54,151.4,53.2,151.9,53.2C152.1,53.2,151.7,53.2,151.9,53.2z M147.2,55.6c0.1-0.2,0.7-0.2,0.7,0.1
			C147.8,56,147,55.9,147.2,55.6C147.3,55.5,147.2,55.7,147.2,55.6z M145,54c0.1,0.6-0.6,0.5-1,0.2C144.3,54.1,144.7,54.1,145,54
			C145,54.1,144.7,54.1,145,54z M144.5,59.6c-0.1,0.2-0.2,0.3-0.4,0.5c0-0.2-0.1-0.4-0.1-0.6C144.1,59.1,144.7,59.2,144.5,59.6
			C144.5,59.7,144.6,59.4,144.5,59.6z M143.8,58.7c-0.2,0.3-0.1,0.7-0.7,0.8C143.4,59.2,143.2,58.8,143.8,58.7z M141.9,54.9
			c0.3,0,0.3,0.5,0.1,0.7C141.9,55.8,141.4,54.9,141.9,54.9C142.2,55,141.7,54.9,141.9,54.9z M141.6,58.3c0.4-0.1,0.5,0.5,0.2,0.7
			C141.2,59.3,141,58.5,141.6,58.3C141.9,58.2,141.4,58.4,141.6,58.3z M140.3,57.4c0.2,0,0.4,0.2,0.4,0.4c0.1,0.3-0.3,0.3-0.5,0.4
			C139.9,58.3,139.9,57.3,140.3,57.4C140.4,57.4,139.9,57.3,140.3,57.4z M139.6,55.3c0.1,0,0.3,0.6-0.1,0.6
			C139.1,55.9,139.4,55.4,139.6,55.3C139.6,55.3,139.4,55.4,139.6,55.3z M139,58.5c0.1,0.7-0.9,0.3-1.3,0.3c-1.1,0-0.4-0.9-0.2-1.4
			C137.6,58.4,138.9,57.6,139,58.5C139.1,58.7,138.9,57.6,139,58.5z M138.8,57c0.1,0.4-0.6,0.3-0.8,0.2c-0.4-0.2-0.4-0.8-0.5-1.1
			C137.9,56.5,138.6,56.6,138.8,57C138.9,57.3,138.6,56.6,138.8,57z M137,56.2c0.1,0,0.3,0.3,0.4,0.4C136.8,57,136.6,56.2,137,56.2z
			 M136,52.9c0.1-0.3,0.9-0.2,0.6,0.2C136.4,53.4,135.9,53.2,136,52.9C136,52.9,135.9,53.2,136,52.9z M133.1,57.7
			c0.1-0.1,0.6-1.1,0.7-0.3C133.8,58.2,132.9,58,133.1,57.7C133.2,57.5,133,57.8,133.1,57.7z M134.2,60.5c-0.1,0.3-0.3,0.5-0.6,0.6
			c-0.2,0.1-0.3,0-0.3-0.3C133.6,60.7,133.9,60.6,134.2,60.5C134,60.9,133.9,60.6,134.2,60.5z M132.4,55.9c0.2,0,0.1,0.5,0.1,0.6
			c-0.1,0.3-0.6,0.3-0.8,0.3C131.9,56.5,131.9,56,132.4,55.9C132.4,55.9,131.9,56,132.4,55.9z M130.8,58.2c0.5,0,0.5,1.3-0.1,1.2
			C130.2,59.4,130.3,58.1,130.8,58.2C131.1,58.2,130.5,58.2,130.8,58.2z M130,57.7c0.2-0.4,0.4-0.4,0.4,0
			C130.4,58.2,129.8,58,130,57.7C130,57.6,129.9,57.9,130,57.7z M128.8,53.6c-0.1-0.1,0.2-0.3,0.3-0.3c0.3-0.2,0.6,0.6,0.6,0.8
			c0.1,0.7-0.5,1.2-0.9,1.7C128.7,55,129.3,54.3,128.8,53.6C128.8,53.6,129.3,54.3,128.8,53.6z M129.8,59.5c-0.2,0.7-0.4,0.2-0.8,0
			C129.3,59.5,129.6,59.5,129.8,59.5C129.8,59.6,129.6,59.5,129.8,59.5z M128.4,52.5c0.4-0.1,0.2,0.5,0.2,0.7
			C128.5,53.1,127.9,52.6,128.4,52.5C128.6,52.5,128.3,52.6,128.4,52.5z M127.9,58.3c0.1,0.1-0.4,0.6-0.8,0.2
			c-0.1-0.1-0.4-0.2-0.4-0.4c0-0.3,0.3-0.8,0.5-1C127.7,57.3,127.4,58.1,127.9,58.3C128.1,58.4,127.4,58.1,127.9,58.3z M127.5,56.2
			c0,0.8-1,0.2-0.1-0.3C127.4,56,127.5,56.1,127.5,56.2C127.5,56.5,127.5,56.2,127.5,56.2z M127.2,53.7c0.1,0.4-0.2,1.3-0.8,1.1
			C125.8,54.6,127.1,53.8,127.2,53.7C127.5,54.5,126.9,54.1,127.2,53.7z M126.2,33.8c0.3-0.1,0.4,0.4,0,0.5
			C126,34.2,125.8,34,126.2,33.8C126.4,33.8,126.1,33.9,126.2,33.8z M124.5,56.2c0.2-0.3,0.6-0.6,0.9-0.8c0.4-0.2,1.1-0.1,0.9,0.5
			c-0.2,0.4-0.7,0.2-0.9,0.4c-0.3,0.3-0.3,0.7-0.4,1C124.8,57,124.2,56.6,124.5,56.2C124.8,55.8,124.2,56.5,124.5,56.2z M123.4,54.6
			c0.4,0.8,0.3,1.3,0.1,2.1C123.1,55.9,123.2,55.4,123.4,54.6z M122.1,51.6c0.5,0.1,0.2,0.6-0.2,0.6
			C121.6,52.1,121.7,51.5,122.1,51.6C122.2,51.6,121.8,51.5,122.1,51.6z M120.6,57.4c-0.2,0.5-0.6,0.7-0.8,1.1
			C119.5,57.8,119.5,57.2,120.6,57.4z M119,33.9c0.1,0.1,0.7,0.7,0.2,0.8C118.7,34.8,118.9,34.1,119,33.9
			C119.1,34.2,118.9,34.2,119,33.9z M119.3,55.5c-0.1-0.1-0.9-0.8-0.4-0.8C119.5,54.6,119.3,55.1,119.3,55.5
			C119.1,55.2,119.3,55.2,119.3,55.5z M118.6,52.8c0.4-0.1,0.6,0.6,0.3,0.7C118.4,53.5,118.1,52.9,118.6,52.8
			C118.8,52.7,118.4,52.8,118.6,52.8z M117.4,53.5c-0.2,0-1.2-0.6-0.8-0.9C117,52.3,117.4,53.2,117.4,53.5
			C116.9,53.4,117.4,52.9,117.4,53.5z M116.2,36.9c0.4,0,0.8,0.3,0.3,0.6C116,37.9,115.4,36.9,116.2,36.9
			C116.4,36.9,116,36.9,116.2,36.9z M115.7,54.2c0.1-0.3,0.8-0.3,0.6,0C116.2,54.5,115.6,54.5,115.7,54.2z M114.8,34.5
			c0.5,0.1,0.1,0.9-0.2,0.6C114.5,34.9,114.5,34.5,114.8,34.5C115,34.5,114.6,34.5,114.8,34.5z M115.1,56.8c0-0.4,1.3-0.1,0.6,0.4
			c-0.3,0.3,0,1.1-0.5,1.2c-0.4,0.1-0.9-0.4-1.2-0.6C114.3,57.4,115.1,57.5,115.1,56.8C115.1,56.5,115.1,57.5,115.1,56.8z M112.7,34
			c0.1-0.4,0.4-0.4,0.7-0.3C113.3,34.4,112.6,34.3,112.7,34C112.7,33.9,112.6,34.2,112.7,34z M111.7,54.7c0-0.4,0.5-0.3,0.5,0
			C112.1,55.2,111.7,55.3,111.7,54.7z M111.7,57.8c0.5,0.1-0.1,0.7-0.2,0.8C111.5,58.4,111.3,57.7,111.7,57.8
			C111.9,57.9,111.6,57.8,111.7,57.8z M110.9,54.5c0.3-0.1,0.2,0.3,0.2,0.4c-0.1,0.2-0.4,0.3-0.6,0.5
			C110.4,55,110.5,54.6,110.9,54.5C111,54.4,110.5,54.6,110.9,54.5z M109.9,56.8c0.4,0.2,0.9,0.2,1.1,0.9
			C109.8,57.8,109.8,57.8,109.9,56.8z M108.5,35.3c0.4,0.6-0.1,0.7-0.1,1.2c-0.4,0-0.4-0.1-0.2-0.3
			C108.3,35.8,108.4,35.6,108.5,35.3C109,36,108.4,35.7,108.5,35.3z M107.4,56.2c0.3-0.1,0.2-1.2,0.5-0.9c0.2,0.2,0.2,0.7,0.5,0.8
			c0.2,0.1,0.9-0.3,0.5,0.3c-0.2,0.3-0.4,0.2-0.7,0.1c-0.6-0.2-0.5,0.1-0.6,0.6C107.2,56.8,106.6,56.2,107.4,56.2
			C107.8,56,107.1,56.2,107.4,56.2z M105.2,57.4c0,0.3-0.4,0.7-0.5,0.2C104.7,57.2,105.1,56.9,105.2,57.4
			C105.2,57.6,105.2,57.3,105.2,57.4z M104.7,54.2c0.3,0,0.4,0.6,0.1,0.7C104.4,55,104.4,54.3,104.7,54.2
			C104.9,54.2,104.5,54.2,104.7,54.2z M104.5,58.1c0.3,0.1,0.3,1,0.4,1.3c0,0.2,0.2,0.6,0.2,0.9c-0.1,0.2-0.4,0.3-0.5,0.1
			c-0.1-0.2,0-0.4,0-0.6c-0.1-0.2-0.3-0.4-0.4-0.6C103.8,58.8,103.9,57.8,104.5,58.1C104.8,58.2,104.4,58,104.5,58.1z M102.7,32.4
			c0.5,0,0.4,0.7-0.1,0.7C102.2,33.1,102.2,32.4,102.7,32.4C103,32.4,102.5,32.4,102.7,32.4z M103.6,33.6c0.4-0.1,0.4,0.8,0.2,1
			c-0.2,0.2-1.4-0.1-1.8-0.1C102.3,33.7,103,33.8,103.6,33.6C103.8,33.6,103.1,33.8,103.6,33.6z M102.8,53.7
			c-0.1,0.7-0.7,0.2-0.6,0.1c0.1-0.1,0-0.3,0.2-0.5C102.7,53,102.8,53.5,102.8,53.7C102.8,53.9,102.8,53.5,102.8,53.7z M102.3,35.5
			c0.2,0,0.4,0.5,0.2,0.6C102.3,36.3,102,35.7,102.3,35.5C102.6,35.5,102.2,35.5,102.3,35.5z M101.9,54.9c0.1-0.4,0.6,0.1,0.7,0.2
			C102.4,55.2,101.7,55.5,101.9,54.9C101.9,54.8,101.8,55.1,101.9,54.9z M101.6,57.6c0.1,0.6-0.1,0.8-0.7,0.7c-0.2,0-0.3-0.2-0.5,0
			c-0.1,0.1-0.3,0.3-0.4,0.2c-0.4-0.3,0.2-1,0.5-1.1C101.2,57,101.4,56.8,101.6,57.6C101.8,58.5,101.5,57.3,101.6,57.6z M100.3,54.9
			c0.2-0.1,0.4-0.3,0.5,0c0,0.1,0.2,0.4,0.1,0.5c-0.2,0.2-0.5-0.1-0.7,0.2c-0.2,0.2-0.4,0.4-0.7,0.2C99.8,55.5,99.9,55,100.3,54.9
			C100.5,54.8,99.8,55,100.3,54.9z M98.8,32.2c0.5-0.3,0.8,0.3,1.1,0.6c-0.4,0-0.8,0.1-1.1,0C98.6,32.7,98.5,32.3,98.8,32.2
			C99.3,31.9,98.7,32.3,98.8,32.2z M98,54.9c0.3-0.1,0.4,0.6,0.1,0.7C97.6,55.7,97.4,55.1,98,54.9z M96.1,56.6
			c0.1-0.4,0.5-0.2,0.5,0.1C96.4,56.8,96,57,96.1,56.6C96.1,56.5,96.1,56.7,96.1,56.6z M95.8,33.1c0.5,0,0.1,0.5,0.2,0.5
			C95.5,33.5,95.1,33.1,95.8,33.1C96,33.1,95.6,33.1,95.8,33.1z M95.4,58.5c0.2-0.6,1-0.3,0.9-0.1c-0.1,0.2-0.3,0.4-0.4,0.6
			C95.6,58.9,95.3,58.8,95.4,58.5C95.4,58.3,95.3,58.7,95.4,58.5z M94.4,58.3c0.1,0,0.5,0.3,0.3,0.4C94.4,59.1,93.9,58.1,94.4,58.3
			C94.6,58.3,94.3,58.3,94.4,58.3z M93.1,55.6c-0.8,0.2-1.3-0.3-2-0.3C91.8,55.3,92.6,54.4,93.1,55.6z M90.1,34.7
			c0.1-0.4,0.7-0.7,0.7-0.2C90.9,35.2,90,35.5,90.1,34.7C90.1,34.5,90,34.9,90.1,34.7z M89.6,55c-0.1-0.3,0.3-0.3,0.5-0.1
			c0.3,0.2,0.1,0.4-0.1,0.6C89.9,55.4,89.7,55.2,89.6,55C89.6,54.9,89.7,55.2,89.6,55z M89.8,57.8C88.7,58.4,89.9,56.5,89.8,57.8
			C89.8,57.8,89.9,57.4,89.8,57.8z M90.2,53c0.2,0.4-0.2,0.6-0.2,0.9C89.6,53.7,89.6,53.1,90.2,53C90.4,53.4,89.7,53.1,90.2,53z
			 M89.3,32.1c0.5-0.2,0.1,0.6,0,0.7C89,32.5,88.8,32.4,89.3,32.1C89.4,32.1,89.2,32.2,89.3,32.1z M88.6,34.2
			c0.4-0.1,0.9-0.2,1.3-0.3c-0.1,0.6-0.6,0.8-1,1C88.2,35.3,87.9,34.3,88.6,34.2C89,34.2,88.2,34.3,88.6,34.2z M87.3,55.4
			c0.3,0.1,0.2,0.8,0,0.7C87.1,55.9,86.7,55.3,87.3,55.4C87.5,55.5,87.1,55.4,87.3,55.4z M86.6,49.7c0.5,0.2,0.3,0.8-0.1,0.7
			C85.9,50.2,86,49.5,86.6,49.7z M85.1,33.3c0.1-0.4,0.6,0.1,0.7,0.2C85.6,33.6,84.9,33.9,85.1,33.3C85.1,33.2,85,33.5,85.1,33.3z
			 M84.8,53.2c-0.3-0.4-0.1-0.9,0.3-1.1c0.2-0.1,0.5,0.1,0.6,0.3c0.1,0.3-0.4,0.5-0.4,0.8c-0.1,0.4,0.8,0.7,0.7,1.3
			c-0.1,0.4-0.8,0.7-1,1.1c-0.3-0.3-0.6-0.7-0.8-1C85,54.5,85.4,54,84.8,53.2C84.5,52.7,85.3,53.8,84.8,53.2z M86,57.2
			c0,0.5-0.6,0.3-0.7-0.1C85.3,56.8,86,56.7,86,57.2C86,57.4,86,57,86,57.2z M83.9,60.4c0.8,0.1,0.3,1-0.4,1
			C82.7,61.4,83.3,60.4,83.9,60.4C84.2,60.5,83.5,60.4,83.9,60.4z M83.2,51.5c0,1.3,0,1.3-1.1,1.1C82.4,52.1,82.7,51.8,83.2,51.5z
			 M82.2,35.2c0.1,0.1,0.4,1.1-0.1,1C81.6,36,81.8,35.4,82.2,35.2C82.5,35.6,81.9,35.4,82.2,35.2z M82,55.6
			c-0.1-0.6-0.2-1.2-0.3-1.9C82.5,54.3,82.5,54.9,82,55.6z M80.5,33.3c0.2-0.5,0.8-0.2,1.2-0.3c-0.1,0.2-0.3,0.6-0.6,0.7
			C80.8,33.9,80.3,33.7,80.5,33.3z M81.4,56.6c0.6,0.1-0.1,1-0.4,0.6C80.8,56.9,81.1,56.6,81.4,56.6C81.6,56.6,81.2,56.6,81.4,56.6z
			 M80.7,36.7c-0.3,0-0.2-0.7,0.1-0.7C81.1,36,81.1,36.7,80.7,36.7C80.5,36.6,80.9,36.7,80.7,36.7z M81,53.3c0-0.3,0.3-0.5,0.5-0.2
			C81.4,53.4,81,53.7,81,53.3z M80.6,58.3c0.1,0.2-0.4,0.2-0.5,0.2C79.7,58.3,80.4,57.7,80.6,58.3z M79.7,54.2
			c0.6-0.3,0.6,0.3,0.4,0.6c-0.1,0.2-0.1,0.4-0.2,0.6c-0.1,0.2-0.3,0.4-0.5,0.6C79.3,55.5,79.1,54.5,79.7,54.2
			C79.8,54.2,79.4,54.4,79.7,54.2z M77.1,52.7c0.5,0.7,0.1,1.2,0.4,1.7C76.6,54.1,76.9,53.6,77.1,52.7z M76.3,55.9
			c-0.2,0.7-0.6,0.5-0.8-0.2C75.4,55.3,76.5,55.3,76.3,55.9C76.2,56.1,76.4,55.6,76.3,55.9z M75.9,54c0.3,0,0.3,0.6,0.1,0.7
			C75.6,54.8,75.6,54,75.9,54C76.1,54,75.7,54,75.9,54z M75.3,34.1c0.3,0.2,0.5,0.6,0.1,0.7c-0.1-0.1-0.3-0.2-0.4-0.3
			C74.9,34.3,75,33.9,75.3,34.1C75.5,34.2,75.2,34,75.3,34.1z M74.8,36.2c0.3,0,0.7,0.6,0.3,0.7C74.7,37,74.2,36.2,74.8,36.2
			C75,36.3,74.6,36.2,74.8,36.2z M74,50.3c0.3-0.1,0.7,1,0.7,1.2c0.2,0.9-0.3,1.7-0.1,2.6c-0.4-0.9-0.9-1-0.4-2
			c0.2-0.3,0.2-0.8-0.1-1C73.9,51,73.4,50.6,74,50.3C74.4,50.2,73.7,50.5,74,50.3z M74.3,58c-0.3-0.1-0.8-0.5-0.4-0.8
			C74.4,56.9,74.7,57.8,74.3,58C74,58,74.5,58,74.3,58z M71.6,34.7c-0.1-0.7,0.9-0.6,0.7,0.1c-0.1,0.2-0.2,0.5-0.5,0.4
			C71.5,35.2,71.6,34.9,71.6,34.7C71.6,34.4,71.6,34.9,71.6,34.7z M70.5,58c0.7,0.1,0.1,0.8-0.6,0.6C70.1,58.4,70.2,58,70.5,58
			C70.7,58.1,70.2,58,70.5,58z M69.6,55.9c-0.7-0.6,0.1-1.2,0-1.9c0.3,0.4,0.2,1,0.9,1.2C70.8,55.3,70.2,56.4,69.6,55.9z M70.4,53.8
			c-0.8-0.1-0.4-2,0.6-1.5c0.3,0.2,0.3,0.8,0.4,1.1c0.3,0.5,0.5,1,0.1,1.6C71.3,54.6,71.1,53.9,70.4,53.8z M71.3,35.7
			c0.3,0,0.2,0.3-0.1,0.4C70.9,36.3,70.8,35.7,71.3,35.7z M69.5,35.8c0.2-0.2,0.7-0.5,0.7,0c0,0.5-0.1,0.6,0.4,0.8
			c0.3,0.2,0.7,0.3,0.8,0.8c0.1,0.4-0.8-0.1-0.8-0.2c-0.8-0.7-0.7-0.8-1.1,0.2c-0.3,0.6-0.6,0.3-1.1,0c0.2-0.4,0.7-0.4,1.1-0.6
			C69.7,36.6,68.9,36.2,69.5,35.8C69.6,35.7,69,36.1,69.5,35.8z M68.8,32c0.1-0.3,0.4,0,0.4,0.1c0.1,0.2,0,0.5-0.1,0.7
			C68.8,32.6,68.7,32.4,68.8,32C68.8,32,68.7,32.3,68.8,32z M69.1,32.9c-0.2,0.4-0.4,1.1-1,1.1c-0.4,0-0.1-0.5,0-0.6
			C68.4,33.2,68.8,33.1,69.1,32.9C68.8,33.6,68.5,33.2,69.1,32.9z M68.1,51.3c0.4,0,0.6,0.6,0.4,0.9C68,52.6,67.4,51.3,68.1,51.3
			C68.4,51.3,67.8,51.3,68.1,51.3z M69,57.9c-0.7-0.2-1.3-0.3-2-0.4C67.8,56.6,67.8,56.6,69,57.9z M66.2,53.2c0.6-0.1,0.1,0.5,0,0.7
			C66,53.7,65.7,53.3,66.2,53.2C66.4,53.2,66,53.3,66.2,53.2z M66.2,59.7C65.2,60.6,65.9,58.9,66.2,59.7
			C66.1,59.8,66.1,59.4,66.2,59.7z M65.4,57.7c0-0.2,0.4-0.7,0.5-0.2C65.9,58,65.3,58.2,65.4,57.7C65.4,57.6,65.4,57.9,65.4,57.7z
			 M65.4,60.9c0,0.2-0.2,0.3-0.4,0.5c-0.2-0.3,0-0.4,0.2-0.7C65.3,60.7,65.3,60.8,65.4,60.9z M64.6,52.5c0.5,0,0.6,0.8,0.2,0.7
			C64.7,53.1,64.1,52.5,64.6,52.5C64.9,52.6,64.4,52.5,64.6,52.5z M64.2,60.8c0-0.4,0.5-0.4,0.5,0C64.7,61.3,64.1,61.2,64.2,60.8
			C64.2,60.6,64.2,60.9,64.2,60.8z M63.6,35.8c0.1,0,0.3,0.4,0.2,0.5c-0.3,0.3-0.7,0-1,0.1C63,36.1,63.2,35.7,63.6,35.8
			C63.7,35.8,63.2,35.7,63.6,35.8z M63.7,56.1c0.1,0.1,0,0.4-0.1,0.4c-0.4,0.3-0.7,0-0.9-0.3C63.1,56.3,63.4,55.8,63.7,56.1
			C63.7,56.2,63.3,55.8,63.7,56.1z M63.7,61.1c0,0.3-0.8,0.2-0.1-0.4C63.6,60.9,63.7,61,63.7,61.1C63.7,61.3,63.7,61,63.7,61.1z
			 M61.8,31.2c0.3,0,0.7,0.3,0.3,0.5C61.7,31.7,61.3,31.2,61.8,31.2z M61.2,53.5C61.6,54,62,54.3,62,55c-0.3-0.6-0.7-0.5-1.3-0.6
			C59.8,54.3,61,53.8,61.2,53.5C61.5,53.9,60.9,53.8,61.2,53.5z M62,55.9c0,0.8-1.1,0.7-1,0c0.1-0.3,0.3-0.5,0.6-0.5
			C62,55.3,62,55.6,62,55.9C62,56.2,62,55.7,62,55.9z M59.6,32.4c0.3,0.1,0.7,0.8,0.2,0.8C59.4,33.1,59.2,32.3,59.6,32.4
			C59.9,32.4,59.4,32.3,59.6,32.4z M59.2,57.9c0.3-0.3,0.3-0.7,0.5-1.1c0.7,0.3,0.5,0.8,0.2,1.3C59.6,58.8,58.8,58.4,59.2,57.9
			C59.5,57.6,59.1,58.1,59.2,57.9z M58.6,32.4c0,0.7,0,1.1,0,1.7C58,33.5,58.1,33.1,58.6,32.4z M57.4,52c0,0.3-0.4,0.3-0.6,0.2
			C56.6,52.1,57.4,51.4,57.4,52C57.5,52.2,57.4,51.8,57.4,52z M56.2,58.3c0.2-0.1,0.4,0.2,0.5,0.3c-0.1,0.1-1.4,1-1.4,0.4
			C55.3,58.5,55.9,58.5,56.2,58.3C56.4,58.2,55.9,58.5,56.2,58.3z M55.3,55.1c-0.1-0.3,0.6,0,0.6,0c0.2,0.2,0.3,0.5,0.4,0.8
			C55.8,55.8,55.4,55.6,55.3,55.1C55.3,55.1,55.4,55.5,55.3,55.1z M56.6,37c0.3,0.1,0.4,0.3,0.6,0.5C56.8,37.7,56.4,37.5,56.6,37
			C56.8,37.1,56.4,37.4,56.6,37z M56,35c0.1-0.2,0.1-0.6,0.4-0.7c0.3-0.2,0.9,0.1,0.8,0.5c-0.1,0.3-0.3,0.3-0.6,0.4
			C56.6,35.1,55.8,35.4,56,35z M54.5,34.7c0.4-0.3,0.4-0.5,0.7,0c0.3,0.5,0.8,0.8,0.9,1.4c-0.4-0.2-0.8-0.6-1.3-0.8
			C54.4,35.2,54.1,35.1,54.5,34.7z M53.6,36.1c0.4,0.2,0.6,0.6,0,0.5C53.3,36.6,53.2,36,53.6,36.1z M53.5,55.6
			c0.3,0,0.5,0.4,0.1,0.5C53.1,56.1,53,55.6,53.5,55.6C53.7,55.7,53.3,55.6,53.5,55.6z M52.8,33.8c0.5-0.1,0.4,0.9-0.1,0.6
			C52.4,34.2,52.5,33.9,52.8,33.8C53.1,33.8,52.7,33.8,52.8,33.8z M52.1,36.3c0.3,0.1,0.4,0.6,0.1,0.8
			C51.7,37.3,51.5,36.2,52.1,36.3C52.2,36.3,51.8,36.2,52.1,36.3z M51.1,52.8c0.5,0,0.4,0.8-0.1,0.7C50.3,53.4,50.5,52.7,51.1,52.8
			C51.4,52.8,50.8,52.8,51.1,52.8z M50.8,58.9c0.4,0,0.9,0.9,0.4,1.1C50.6,60.3,50.1,58.9,50.8,58.9C51.3,58.9,50.6,58.9,50.8,58.9z
			 M50,56.8c0.9-0.2,0.1-1.4,1.2-1c0.3,0.1,0.3,0.6,0.1,0.9C50.9,57,50.4,56.8,50,56.8C50.7,56.6,50.7,56.9,50,56.8z M49.1,36.9
			c0.3-0.8,0.8-0.6,1.3-0.2c-0.2,0.2-0.3,0.6-0.6,0.7C49.5,37.5,49,37.2,49.1,36.9C49.2,36.6,49,37.2,49.1,36.9z M49.5,54.1
			c0.2,0.4-0.5,0.9-0.8,0.5c-0.2-0.2-0.2-0.8-0.6-0.7C48.6,53.7,49.2,53.5,49.5,54.1C49.6,54.3,49.2,53.5,49.5,54.1z M48.1,56.6
			c0.3,0.1,0.3,0.7,0,0.7C47.7,57.3,47.7,56.6,48.1,56.6C48.3,56.7,47.8,56.6,48.1,56.6z M47,32.6c0.3-0.2,0.4,0.5,0,0.5
			C46.6,33.1,46.7,32.8,47,32.6C47.2,32.6,46.9,32.7,47,32.6z M47,57.5c0.1,0.5,0.2,1,0.3,1.5C46.8,58.5,46.4,58.1,47,57.5z
			 M47.4,61.8c0,0.6-0.7,0-0.9-0.1c-0.5-0.4-0.6-0.8,0-1.1C46.1,61.5,47.4,61.1,47.4,61.8C47.4,62,47.4,61.1,47.4,61.8z M45.7,57.3
			c-0.5,0-0.6-0.3-0.5-0.7c0.1-0.5,0.5-0.8,1-0.9C45.6,56.2,47,57.2,45.7,57.3C45.5,57.3,47.1,57.2,45.7,57.3z M44.9,52.2
			c0.3-0.2,0.6-0.3,0.9-0.6c-0.1,0.5,0.2,1.3-0.4,1.5C44.8,53.5,44.6,52.6,44.9,52.2C45.1,52.1,44.5,52.6,44.9,52.2z M44.3,59.2
			c-0.6-0.1-0.9-0.2-0.4-0.7c0.4-0.4,0.3-1,0.6-1.5C45.5,57.9,44.1,58.4,44.3,59.2C44.1,59.2,44.1,58.5,44.3,59.2z M43.8,56.1
			c-0.3-0.7-0.4-1.1,0.2-1.4C44,55.1,44.1,55.5,43.8,56.1z M43.5,51.8c0-0.4,0.3-0.7,0.7-0.7c-0.1,0.2-0.2,0.5-0.3,0.7
			c-0.1,0.1-0.2,0.2-0.4,0.3c0,0.1,0,0.2-0.1,0.3c-0.1,0.1-0.4,0.1-0.4-0.1C43,52,43.3,51.9,43.5,51.8
			C43.5,51.4,43.3,51.9,43.5,51.8z M42.7,56.4c0.5-0.1,0.9,0.1,1.1,0.6c-0.3,0-0.7,0.2-1,0C42.6,56.9,42.3,56.4,42.7,56.4
			C43.1,56.3,42.4,56.4,42.7,56.4z M43.2,58.1c0.3,0.6-0.1,0.7-0.8,0.9C42.7,58.4,42.9,58.2,43.2,58.1z M40.1,54.4
			c-0.1-0.1-1.2-0.6-0.5-0.7C40.4,53.6,40.4,54.6,40.1,54.4C39.9,54.3,40.3,54.5,40.1,54.4z M40.1,56.1c-0.3,0.1-0.2-0.4-0.1-0.6
			C40.2,55.2,40.6,55.8,40.1,56.1C39.9,56.1,40.3,56,40.1,56.1z M42.2,59.7c0.2,0.3-0.1,0.6-0.4,0.5c-0.3-0.1-0.4-0.5-0.7-0.6
			c-0.8-0.2-1.1-0.1-1.4-1c-0.1-0.4-0.3-0.7,0.2-0.7c0.4,0,0.8,0.1,1.1,0.3C41.5,58.5,41.8,59.2,42.2,59.7
			C42.3,59.8,41.5,58.8,42.2,59.7z M41.5,54.5c0.6,0.6-0.1,1.6,0.7,2C41,56.2,41.4,55.3,41.5,54.5z M42,35.5c0.1,0.2,0.5,0.7,0,0.7
			C41.5,36.1,41.5,35.5,42,35.5C42.1,35.6,41.7,35.5,42,35.5z M42,52.7c0.3,0.3-0.4,0.6-0.6,0.6c-0.4,0.1-0.8-0.5-1.1-0.8
			C40.9,52.6,41.7,52.3,42,52.7C42.2,52.9,41.7,52.3,42,52.7z M40.3,35.5c-0.3,0.1-0.6-0.4-0.3-0.4C40.5,34.9,40.9,35.3,40.3,35.5
			C40.2,35.5,40.5,35.4,40.3,35.5z M40.3,33.8c0.2,0.3,0.5,0.8-0.1,0.9C39.3,34.9,40.2,34,40.3,33.8C40.4,34.1,40,34.1,40.3,33.8z
			 M39.9,50.6c-0.3,0.2-0.2,0.5-0.2,0.8c0,0.4-0.6,0.3-0.9,0.4c-0.4,0.1-0.8-0.2-0.4-0.6C38.8,50.8,39.5,50.7,39.9,50.6
			C39.4,51,39.1,50.9,39.9,50.6z M39.2,58.4c0.1,0.8-0.9,0.5-0.9-0.1C38.2,57.6,39.1,57.8,39.2,58.4C39.2,58.7,39.2,58,39.2,58.4z
			 M38.3,54.4c0.5,0.6-0.6,0.9-0.2,1.5c0.4,0.5-0.6,0.8-0.6,0.5c0-0.4,0-0.7,0.2-1.1C37.8,55,37.7,53.7,38.3,54.4z M32.8,111.8
			c-0.5-0.1-0.3-0.6,0.1-0.7C33.3,111,33.4,111.9,32.8,111.8C32.7,111.8,33.2,111.8,32.8,111.8z M33.4,113.5c0.4,0,0.3,0.5,0,0.5
			C32.9,114,32.9,113.5,33.4,113.5C33.5,113.5,33.2,113.5,33.4,113.5z M33.2,120.9c0.7,0,0.7,0.8,1.2,1.1c-0.6,0.1-1.2,0.1-1.7-0.4
			C32.3,121.2,32.7,120.9,33.2,120.9C33.9,120.9,33.1,120.9,33.2,120.9z M33.9,108.7c0.2,0.9-0.8,0.9-1.4,0.9
			c0.1-0.4,0.4-0.8,0.5-1.2c0-0.3-0.1-1,0.4-0.9c0.2,0,0.9,0.3,1.1,0.4C34.9,108.3,34.3,108.7,33.9,108.7
			C34.1,109.3,34.3,108.7,33.9,108.7z M35,125.8c0.1,0.6-0.8,1-0.8,0.2C34.1,125.3,34.8,125,35,125.8C35.1,126,35,125.6,35,125.8z
			 M33.5,103.2c0.4,0,0.5,0.5,0.1,0.5C33.3,103.6,33.1,103.2,33.5,103.2C33.7,103.1,33.4,103.2,33.5,103.2z M33.8,79.1
			c0,0,0.1,0.3,0,0.4c-0.1,0.2-0.3,0.3-0.4,0.3c-0.2,0.1-0.4-0.7,0.1-0.7c0.5,0,0.2-0.1,0.3-0.5c0.1-0.4,0.7-0.3,1-0.4
			C34.9,79.2,34.7,79.5,33.8,79.1z M32.2,92.8c-0.4-0.2-0.4-0.7-0.5-1.1c-0.1-0.3-0.8-1,0.1-1c0.4,0,1,0.3,1,0.8
			C32.7,92,32.1,92.2,32.2,92.8C31.5,92.4,32.1,92.3,32.2,92.8z M30.2,95.2c-1.2-0.1,0.2-1.5,0.8-1.6c0.4-0.1,0.1,0.8,0.1,0.9
			C31,95.1,30.7,95.3,30.2,95.2C29.7,95.2,31,95.3,30.2,95.2z M31,96.6c0,0.6-0.8,0.1-0.7-0.2C30.4,95.9,31,96.5,31,96.6
			C31,96.8,30.9,96.4,31,96.6z M28.9,116.9c-0.2-0.4-0.5-1.2,0.1-1.5c0.6-0.3,1,0.2,0.8,0.8C29.2,116,29,116.5,28.9,116.9
			C28.7,116.3,29,116.4,28.9,116.9z M29.4,123.9c-0.1,0.1-0.2,0.2-0.3,0.4C28.4,123.3,29.3,123.5,29.4,123.9
			C29.3,124,29.4,123.5,29.4,123.9z M26.5,80.6c-0.4-0.2-0.7-0.8-0.1-0.9C27,79.5,27.1,80.5,26.5,80.6
			C26.2,80.5,26.7,80.6,26.5,80.6z M27.1,81.3c0.5,0.3,0.4,0.5-0.1,0.7C26.7,82.1,26.6,81.4,27.1,81.3
			C27.2,81.3,26.8,81.3,27.1,81.3z M27.4,82.8c0.4-0.1,0.6,0.4,0.8,0.6c0.4,0.3-0.4,0.8-0.7,0.8C26.3,84.4,26.4,83.1,27.4,82.8
			C27.9,82.7,27,82.9,27.4,82.8z M29.7,79.7c0.6,0,0.9,1,0.2,0.9c-0.7-0.1-1.6-0.4-2.2,0.2C28.1,79.9,28.8,79.6,29.7,79.7
			C30,79.7,28.9,79.6,29.7,79.7z M28.4,74c0,0.2-0.3,0.5-0.4,0.2C27.8,73.7,28.4,73.5,28.4,74C28.4,74.2,28.4,73.9,28.4,74z
			 M33.4,67.5c-0.3,0.2-0.5-0.2-0.8-0.3C32.7,67.2,33.8,67.2,33.4,67.5C33,67.8,33.4,67.5,33.4,67.5z M33.6,68.1
			c0.4,0.1,0.4,0.4,0,0.5C33.1,68.6,33.1,68.1,33.6,68.1C33.7,68.2,33.4,68.1,33.6,68.1z M33,69.2c-0.3,0.5-0.8,0.7-1.3,1
			c-0.3,0.2-1,0.8-1.4,0.6c-0.6-0.4,0.5-1.1,0.8-1.2C31.6,69.1,32.3,69,33,69.2C32.4,70,31.8,68.8,33,69.2z M28.5,86.2
			c0.2-1.1,1.3-2.3,2.4-1.2c0.6,0.6-0.3,0.7-0.7,0.8C29.7,85.9,29,85.5,28.5,86.2C28.8,84.8,29.1,85.4,28.5,86.2z M29.6,95.7
			c0.5,0,0.1,0.7-0.3,0.7C28.9,96.4,29.1,95.7,29.6,95.7z M29,90.4c-0.3,0.3-0.5,0.5-0.8,0C27.9,89.6,28.8,90.3,29,90.4
			C28.8,90.6,28.8,90.3,29,90.4z M30.4,82.4c-0.2-0.1-1.2-0.6-0.4-0.9c0.3-0.1,0.6,0.3,0.8,0.5C31.2,82.4,30.8,82.7,30.4,82.4
			C30.2,82.3,30.6,82.6,30.4,82.4z M30.4,73.3c-0.6,0.3-1,0-1.2-0.6C29.6,72.9,30,73.1,30.4,73.3z M29,67.6c0-0.5,0.6-0.8,0.8-1.3
			c0.1,0.4,0.2,0.9-0.1,1.2C29.5,67.6,29,68.1,29,67.6C28.9,67.1,29,67.7,29,67.6z M30.8,73.6c-0.2-0.9,0.7,0.1,0.9,0.2
			C31.3,73.8,30.9,74.1,30.8,73.6C30.8,73.5,30.9,74.2,30.8,73.6z M32.5,77.4c0,0.3-0.3,0.8-0.6,0.5c-0.3-0.3-0.1-0.8-0.5-1
			c0.2-0.2,0.2-0.3,0.5-0.2C32.1,76.8,32.5,76.9,32.5,77.4C32.5,77.7,32.5,76.8,32.5,77.4z M32,71.9c0-0.4,0.3-0.5,0.6-0.2
			C32.9,72,32,72.5,32,71.9C32,71.7,32,72.1,32,71.9z M31.5,80.3c0.2,0.1,0.4,0.3,0.6,0.4c-0.2,0.3-0.4,0.4-0.8,0.3
			C30.8,80.9,31.3,80.5,31.5,80.3C31.8,80.5,31.4,80.5,31.5,80.3z M32,79.6c0.1-0.3,0.7-0.2,0.7,0.1C32.7,80,32,80,32,79.6
			C32.1,79.4,32,79.8,32,79.6z M30.7,66.9c-0.5-0.6,0.8-0.7,1-0.7C31.4,66.4,31.1,67,30.7,66.9C30.5,66.6,31.1,67,30.7,66.9z
			 M30.6,64.9c-0.1-0.5,0.1-0.9,0.3-1.4C31.3,64.3,31.2,64.5,30.6,64.9C30.6,64.8,31.3,64.4,30.6,64.9z M30.6,57
			c0.1-0.4,0.4-0.4,0.8-0.4c0.3,0,0,0.4-0.1,0.4C31.1,57.2,30.8,57.1,30.6,57C30.7,56.6,30.9,57.1,30.6,57z M30.7,61.7
			c-0.3,0.1-0.3,0.4-0.4,0.7c-0.2,0.3-0.5,0.1-0.5-0.2c0-0.2,0-0.6,0.1-0.8C30.2,60.9,30.6,61.5,30.7,61.7
			C30.2,61.8,30.6,61.5,30.7,61.7z M30.2,51.4c-0.5,0-0.2-0.5,0.1-0.6C30.7,50.7,30.6,51.4,30.2,51.4C30,51.4,30.4,51.4,30.2,51.4z
			 M29.9,50c-0.4-0.2-0.1-0.5,0.2-0.6C30.5,49.3,30.3,50.2,29.9,50C29.8,50,30.2,50.1,29.9,50z M29.8,58.6c0.5,0.3-0.9,0.5-1,0.5
			C29,58.8,29.3,58.3,29.8,58.6z M29,58c-0.2,0.1-0.4,0.3-0.5,0.5c-0.1-0.4,0-0.9,0.4-1.1C29.5,57.1,29.4,57.7,29,58
			C28.8,58.1,29.5,57.7,29,58z M28.3,94.3c0.1-0.1,0.5-0.6,0.6-0.4c0.3,0.6,0,1.2-0.4,1.7C28.4,95.1,27.6,94.8,28.3,94.3
			C28.5,94.1,27.6,94.8,28.3,94.3z M28.8,105.1c0.4,0,0.4,0.7,0.1,0.7C28.4,105.7,28.2,105.1,28.8,105.1
			C29.1,105.1,28.6,105.1,28.8,105.1z M28.7,108.5c0.2,0.4,0.6,0.4,0.9,0.6c-0.5,0.2-1.1,0.3-1.5-0.2
			C27.9,108.7,28.6,108.2,28.7,108.5C28.9,108.9,28.6,108.2,28.7,108.5z M31.5,120.9c-0.7-0.3-1.3-0.8-1.9-1.4
			C30.9,119.2,31.4,119.7,31.5,120.9z M30,114.3c0,0-0.4-0.6,0.1-0.6C30.5,113.8,30.2,114.3,30,114.3C30,114.4,30.2,114.3,30,114.3z
			 M30.3,92.3c0.2-0.6,0.6-0.5,0.7,0C31,92.9,30.2,92.8,30.3,92.3C30.4,92.1,30.3,92.5,30.3,92.3z M31.1,89.5
			c-0.9-0.1-1.5,0.4-1.8,1.2c-0.5-0.9,0.3-1.3,0.4-2.1c0.6,0.1,1.1,0.2,1.7,0.3C32,88.9,31.5,89.5,31.1,89.5
			C30.3,89.4,31.4,89.5,31.1,89.5z M32.5,94c0.1-0.4,0.6-0.7,0.7-0.1C33.1,94,32.3,94.6,32.5,94C32.6,93.9,32.4,94.2,32.5,94z
			 M33.1,70.8c-0.1-0.2-0.6-0.4-0.2-0.7c0.3-0.2,0.7-0.1,0.9,0.2c0.2,0.5,0.1,1,0.4,1.5C33.7,72.1,33.4,71.2,33.1,70.8
			C33,70.7,33.4,71.2,33.1,70.8z M34.4,75.2c0.1,0.4-0.5,0.4-0.6,0.2C33.5,75.2,34.1,74.6,34.4,75.2C34.5,75.5,34.3,75.1,34.4,75.2z
			 M32.5,62.3c0.2-0.2,0.6-0.2,0.9-0.3c0.3-0.1,0.6-0.6,0.8,0c0,0.2,0.1,0.5,0.3,0.7c0.3,0.2,0.7-0.1,0.9,0.2
			c0.2,0.2-0.1,0.5-0.2,0.7c-0.2,0.3-0.6-0.3-0.8-0.3C33.7,63,32.9,63,32.5,62.3C32.8,62,33,63.3,32.5,62.3z M34.4,56.1
			c0.1-0.4,0.5-0.5,0.9-0.4c-0.2,0.2-0.3,0.4-0.5,0.6C34.7,56.3,34.3,56.4,34.4,56.1C34.6,55.7,34.4,56.2,34.4,56.1z M35.4,84
			c0.4,0.1,0.5,0.4,0,0.5C35.1,84.5,35,83.9,35.4,84z M35.6,62.7c0.3-0.6,0.5-0.6,1.1-0.6c0.6,0,1.2-1,1.3,0.1
			c0.1,0.5-1.1,0.5-1.5,0.7C36,63.2,35.6,63.6,35.6,62.7C35.7,62.7,35.6,63,35.6,62.7z M36.1,60.1c-0.1-0.6,0.8-0.3,1,0.1
			C37.1,61,36.1,60.7,36.1,60.1C36,59.8,36.1,60.4,36.1,60.1z M37.3,59.3c0-0.4,0.5-0.2,0.5,0.2C37.6,59.8,37.3,59.7,37.3,59.3
			C37.3,59.2,37.3,59.5,37.3,59.3z M37.4,52.3c0.2,0.2,0.9,0.7,0.4,1C37.4,53.6,37.2,52.6,37.4,52.3C37.7,52.5,37.1,52.8,37.4,52.3z
			 M36.9,57c0.8,0.1,0.5,1.4-0.3,1.3C36,58.3,36.5,56.9,36.9,57C37.3,57,36.4,56.9,36.9,57z M36.3,52.5c0,0.6-0.8,0-0.9,0.5
			c0,0,0,0,0,0c0.6,0,1.1,1.2,0.4,1.2c-0.8,0-0.4-0.9-0.4-1.2c-0.3,0-0.7,0.1-0.9-0.2c-0.3-0.3,0.2-0.9,0.5-1
			c0.3-0.2,0.7-0.2,1.1-0.2C36.6,51.6,36.3,52.2,36.3,52.5C36.3,53.1,36.3,52.2,36.3,52.5z M34.5,34.5c0.4-0.1,0.4,0.2,0.2,0.5
			C34.4,35,34,34.6,34.5,34.5C34.7,34.5,34.4,34.5,34.5,34.5z M33.5,42.8c0.1-0.2,0.7-0.2,0.7,0.1C34,43.3,33.3,43.1,33.5,42.8
			C33.5,42.7,33.4,43,33.5,42.8z M33.5,53c0.3,0,0.5,0.2,0.4,0.5c0,0,0,0,0,0c0.5-0.4,1.1,0,0.5,0.4c-0.2,0.1-0.3,0.3-0.5,0.3
			c-0.5,0-0.1-0.5,0-0.7c0,0,0,0,0,0C33.7,53.5,33,53.1,33.5,53C33.9,53,33.5,53,33.5,53z M33.6,56.4c0.5,0,0.3,0.6-0.1,0.5
			C33,56.7,33.3,56.4,33.6,56.4C33.7,56.4,33.4,56.4,33.6,56.4z M32.6,58c-0.7,0.1-0.7-0.8,0-0.7c0.2,0,0.5-0.1,0.6,0.2
			C33.1,57.8,32.9,58,32.6,58C32.4,58.1,33,58,32.6,58z M32.7,49.9c0.1,0.2,0.2,1-0.2,0.9C31.9,50.7,32.4,50.1,32.7,49.9
			C32.8,50.3,32.2,50.1,32.7,49.9z M32.6,36.7c0.3,0,0.7,0.8,0.5,1.1c-0.1,0.1-0.3-0.1-0.4-0.1c-0.2,0-0.2,0.2-0.4,0.3
			C32,38,32,37.6,32,37.3C32.1,37,32.4,36.9,32.6,36.7C33.2,36.7,32.4,37,32.6,36.7z M32,42.3c0.3,0.2,0.9,0.2,1.1,0.5
			c0.1,0.2-0.1,1.3-0.2,1.5c-0.2,0.5-0.7,0.6-0.9,0.1C31.9,43.8,32,42.9,32,42.3C32.5,42.7,32,43.1,32,42.3z M32.5,59.5
			c0.1,0.4,0.3,0.9,0.2,1.3c-0.1,0.5-0.6,0.5-0.8,0.9c-0.2,0.5-0.8-0.3-0.6-0.6C31.6,60.5,32.3,60.2,32.5,59.5
			C32.7,60.3,32.3,60.1,32.5,59.5z M31.3,40.3c0.5,0.3,0.3,0.5-0.1,0.8C31.3,40.9,31.3,40.6,31.3,40.3
			C31.4,40.4,31.3,40.6,31.3,40.3z M31.3,55.7c-0.2,0.4-1,0.4-0.9-0.2C30.4,54.9,31.2,55.3,31.3,55.7C31.2,55.9,31.2,55.4,31.3,55.7
			z M30.8,47.9c-0.6-0.1-0.6-0.8-0.9-1.2c0.3,0.1,0.8,0.1,1,0.4C31.1,47.3,31.2,48,30.8,47.9C30.3,47.8,31,48,30.8,47.9z M30,41.2
			c0-0.3,0.5-0.2,0.5,0C30.6,41.6,30,41.6,30,41.2C30,41,30,41.3,30,41.2z M31,45.8c0,0.3-0.4,0.4-0.6,0.2C30,45.7,31,45.3,31,45.8
			C31,46,31,45.6,31,45.8z M30.2,36.3c0.3-0.3,0.5,0.3,0.3,0.5c-0.2,0.2-0.6,0.1-0.9,0.2c-0.4,0.2-0.7-0.1-0.3-0.4
			C29.5,36.3,29.9,36.5,30.2,36.3C30.4,36.1,29.9,36.6,30.2,36.3z M29.2,48c0.5,0,0.5,0.8,0.1,0.7C28.9,48.6,28.6,47.9,29.2,48
			C29.5,48,29,48,29.2,48z M29,51.4c0.2,0,0.1,0.3,0.1,0.4C29,52.1,28.7,52,28.4,52C28.5,51.7,28.7,51.5,29,51.4
			C29.2,51.4,28.7,51.5,29,51.4z M28.9,54.3c0,0-0.1-0.4,0-0.5c0.3-0.5,0.9-0.1,0.5,0.2c-0.3,0.2-0.4,0.2-0.5,0.4
			c-0.2,0.5-0.7,0.5-1.1,0.4C28.3,54.6,28.3,54,28.9,54.3C28.9,54.3,28.3,54,28.9,54.3z M28,46.3c0.4,0,0.2,0.5,0.1,0.7
			C28,46.8,27.4,46.2,28,46.3C28.2,46.3,27.8,46.3,28,46.3z M28.1,65c0.6,0,0.2,0.6-0.1,0.7C27.6,65.8,27.6,65,28.1,65
			C28.2,65,27.8,65,28.1,65z M27.7,67.2c0.2,0,0.4,0.5,0.2,0.6C27.6,68,27.4,67.4,27.7,67.2C28,67.2,27.6,67.2,27.7,67.2z
			 M27.6,75.8c0.4-0.1,0.6,0.1,0.8,0.4c-0.2,0-0.5,0.1-0.7,0C27.5,76.2,27.3,75.9,27.6,75.8C27.9,75.7,27.5,75.8,27.6,75.8z
			 M27.4,76.8c0.6,0,0.6,0.8,0.1,0.9C26.9,77.9,26.9,77,27.4,76.8C27.7,76.8,27.2,76.9,27.4,76.8z M26.5,55.4
			c0.5-0.1,0.6,0.5,0.1,0.7C25.9,56.4,25.9,55.5,26.5,55.4C26.7,55.4,26.2,55.4,26.5,55.4z M26,111.7c0-0.6,0.4-0.8,0.7-1.2
			C26.7,111.1,26.5,111.4,26,111.7z M26.5,88c0-0.3,0.4-0.2,0.5-0.1c0.3,0.2,0.3,0.6,0.4,0.9C27.1,88.5,26.6,88.5,26.5,88
			C26.5,87.8,26.6,88.5,26.5,88z M27.2,121.2c-0.4-0.1-0.2-0.4-0.2-0.6c0.3,0.1,0.5,0.3,0.5,0.6C27.5,121.1,27.3,121.2,27.2,121.2
			C26.8,121.1,27.3,121.2,27.2,121.2z M27.5,98.1c-0.4,0-0.3-0.5,0.1-0.4C27.8,98,27.9,98.1,27.5,98.1
			C27.3,98.1,27.6,98.1,27.5,98.1z M27.7,106.4c0-0.2,0.5-1,0.7-0.5C28.6,106.6,27.7,107,27.7,106.4
			C27.7,106.1,27.7,106.6,27.7,106.4z M28.5,125.7c-0.2-0.2-0.4-0.4-0.6-0.6c0.2-0.1,0.4-0.3,0.6-0.3c0.2,0.1,0.2,0.3,0.4,0.3
			C28.9,125.3,28.7,125.5,28.5,125.7C28.4,125.5,28.7,125.6,28.5,125.7z M29.4,125.9c-0.5,0.1-0.2-0.8,0.2-0.9
			C30,124.8,29.9,125.8,29.4,125.9C29.2,126,29.7,125.9,29.4,125.9z M30.3,122.4c-0.6-0.1-0.6-0.6,0.1-0.7
			C31.1,121.5,31,122.5,30.3,122.4C30.2,122.3,30.6,122.4,30.3,122.4z M31.7,123.5c-0.2-0.1-0.7-0.7-0.2-0.9
			C31.9,122.5,31.8,123.3,31.7,123.5C31.3,123.3,31.8,123.2,31.7,123.5z M31.8,103.6c-0.5,0.3,0.2,0.6-0.1,1
			c-0.2-0.1-0.4-0.3-0.6-0.4c0,0,0,0,0,0c0,0.2-0.1,1-0.6,0.6c-0.5-0.4,0.2-0.9,0.6-0.6c0-0.3-0.2-0.8,0.1-1
			C31.6,102.8,32.3,103.3,31.8,103.6C31.2,103.9,32,103.5,31.8,103.6z M31.1,102.5c-0.1,0.1-0.1,0.2-0.2,0.4
			C30.5,102.5,30.5,102.1,31.1,102.5C31,102.7,31,102.4,31.1,102.5z M30.8,101.1c0.1-0.2,0.2-0.4,0.3-0.6c0.2,0.2,0.4,0.3,0.3,0.6
			C31.3,101.4,30.7,101.6,30.8,101.1C30.9,100.9,30.8,101.3,30.8,101.1z M31.8,100c-0.3,0.2-0.5-0.3-0.4-0.5c0-0.2,0.7-0.6,0.6-0.6
			c-0.6-0.5-0.2-0.6-1-0.2c-0.6,0.3-1-0.5-0.4-0.8c0.2-0.1,0.4,0,0.7,0c0.5,0,1-0.2,1.5-0.2c-0.1-0.5-0.4-0.4-0.7-0.4
			c-0.4-0.1,0-1.2,0-1.5c0.7,0.5,1.3,1,2,1.5c-0.2,0.2-0.5,0.1-0.8,0.2c-0.5,0.2,0.2,0.8,0.3,1c0.1,0.4-0.1,1.1-0.5,1.1
			c-0.4,0.1-0.5-0.6-0.9-0.7c0,0,0,0,0,0C32.2,99,32,99.9,31.8,100C31.6,100.1,32.2,99.8,31.8,100z M33.2,128.6
			c-0.3,0.4-0.7,0.2-1.1,0C32.2,128.5,33.6,127.8,33.2,128.6C32.9,129,33.2,128.5,33.2,128.6z M33.7,124.3c0,0.5-0.3,0.5-0.7,0.4
			c0.1-0.3,0.7-0.6,0.6-0.9c-0.2-0.3-0.3-0.7,0.2-0.8C34.3,123,34.5,124.2,33.7,124.3C33.7,124.9,34.5,124.2,33.7,124.3z
			 M35.1,128.5c-0.1,0.3-0.1,0.7-0.4,0.9c-0.5,0.4-0.6,0-0.5-0.4c0-0.3-0.2-0.6,0.1-0.8C34.5,128,35.3,128.1,35.1,128.5
			C35,128.9,35.2,128.2,35.1,128.5z M34.3,99.1c0-0.3,0.4-0.3,0.5-0.2c0.3,0.2,0.3,0.6,0.4,0.9C34.9,99.7,34.3,99.6,34.3,99.1
			C34.3,99,34.3,99.6,34.3,99.1z M35.1,94.3c-0.2-0.1-0.2-0.3-0.1-0.4c0.2-0.4,0.5-0.1,0.7,0C35.5,94,35.3,94.3,35.1,94.3
			C35,94.2,35.3,94.3,35.1,94.3z M35.4,106.5c0.2-0.4,0.5-0.5,0.9-0.3C36,106.6,35.7,106.5,35.4,106.5z M36,126.4
			c-0.2-0.2-0.4-0.4-0.1-0.6c0.1-0.1,0.2-0.1,0.3,0.1C36.4,126.2,36.2,126.2,36,126.4C35.9,126.3,36.1,126.3,36,126.4z M36.5,125.4
			c-0.7,0-0.6-0.8-0.9-1.3c0.3,0.4,0.8,0,1.1,0.1C37.3,124.4,37,125.4,36.5,125.4C35.7,125.4,36.8,125.4,36.5,125.4z M37.6,104
			c0-0.2,0.4,0,0.4,0c0.3,0.2,0.3,0.6,0.3,0.9C37.9,104.6,37.5,104.5,37.6,104C37.6,103.9,37.5,104.5,37.6,104z M37.9,101.7
			c-0.6,0-0.3-0.8,0.1-0.9C38.4,100.8,38.4,101.7,37.9,101.7C37.7,101.7,38.3,101.7,37.9,101.7z M38.4,99.7
			c-0.2,0.3-0.4,0.3-0.6,0.1c-0.3-0.2-0.6-0.1-0.8-0.3C36.3,99.1,39.1,98.7,38.4,99.7C38.2,100.1,38.6,99.5,38.4,99.7z M39.8,124.3
			c-0.3,0-0.4-0.4,0-0.5C40.2,123.8,40.3,124.3,39.8,124.3C39.6,124.3,40,124.3,39.8,124.3z M40.2,126.4c0.6,0.5,0.3,1.1,0.5,1.6
			C40.3,127.7,40.1,127.2,40.2,126.4z M41.2,104.7c-0.3-0.2,0.4-0.4,0.5-0.4c0.3,0,0.5,0.1,0.7,0.4
			C41.9,104.9,41.5,104.9,41.2,104.7C41.1,104.7,41.5,104.9,41.2,104.7z M42.3,101c-0.1,0.6-1,0.4-0.8,0c0.1-0.2,0.2-0.6,0.5-0.6
			C42.3,100.4,42.4,100.7,42.3,101z M42.9,104.3c0.1-0.3,0.5-0.9,0.8-0.3C43.9,104.5,43.1,104.3,42.9,104.3
			C43,104,43.2,104.2,42.9,104.3z M44.3,128c-0.2-0.1,0.2-0.5,0.2-0.5c0.3-0.2,0.6-0.1,0.9,0.1C45.1,127.8,44.7,128.2,44.3,128
			C44.3,128,44.8,128.2,44.3,128z M45,125.9c-0.2-0.2-0.5-0.1-0.7-0.3c-0.2-0.2-0.1-0.8,0.3-0.6c0.3,0.2,0.7,0,0.9,0.3
			C45.9,125.7,45.3,126,45,125.9C44.8,125.7,45.4,126,45,125.9z M47.2,128.5c0.4-0.1,0.9-0.3,1.4,0
			C48.1,129.3,47.7,128.3,47.2,128.5z M45.7,126.7c1.2-0.6,2.3-0.5,3.3,0.3C47.9,126.8,46.8,127,45.7,126.7z M45.9,101.2
			c0.1-0.4,0.9-0.4,1.1-0.2C47.5,101.8,45.8,102,45.9,101.2C46,100.8,45.9,101.5,45.9,101.2z M47.6,106.1c-0.1-0.4,0.8-0.4,0.9-0.2
			C48.9,106.6,47.7,106.7,47.6,106.1C47.6,105.7,47.7,106.3,47.6,106.1z M49.7,129.1c-0.4-0.2-0.5-1,0.1-0.6
			C50,128.6,50.1,129.3,49.7,129.1C49.5,129,49.8,129.1,49.7,129.1z M49.7,104.1c0.2-0.1,0.6-0.1,0.7-0.3c0.2-0.1,0.3-0.4,0.6-0.3
			c0.4,0.2,0.4,0.5,0,0.6C50.6,104.3,50.2,104.2,49.7,104.1C49.9,104,50.3,104.2,49.7,104.1z M50.9,109c-0.1,0.2-0.2,0.3-0.4,0.4
			c0-0.2-0.2-0.6,0-0.7C50.8,108.6,51.1,108.8,50.9,109C50.8,109.2,51,108.9,50.9,109z M51.5,128.2c-0.1-0.6-0.2-1.2-0.5-1.7
			c-0.1-0.2-0.5-0.3-0.5-0.5c-0.1-0.4,0.5-0.3,0.6-0.2c0.6,0.2,0.7,0.8,0.9,1.3C52.3,127.6,52.1,127.9,51.5,128.2
			C51.4,127.4,52.1,127.9,51.5,128.2z M53.6,128.1c-0.3,0-0.5-0.7-0.2-0.7C54,127.4,54.3,128.1,53.6,128.1z M54.1,102.8
			c-0.3,0.5-1.4-0.2-1.4-0.6c0.6,0,1.2-0.2,1.8,0.1C54.4,102.4,54.2,102.6,54.1,102.8C53.8,103.3,54.2,102.6,54.1,102.8z
			 M55.4,105.6c-0.3,0-0.6-0.1-0.6-0.4c0-0.4,0.4-0.5,0.6-0.8C56.1,104.4,56.2,105.4,55.4,105.6C55.1,105.6,55.8,105.5,55.4,105.6z
			 M56.4,126.9c0.4,0.2,0.8,0.6,1.3,0.7C56.4,128,56.3,128,56.4,126.9z M56.3,105.8c0.1-0.5,0.9,0.1,0.7,0.4
			C56.7,106.5,56.2,106,56.3,105.8C56.3,105.6,56.2,106,56.3,105.8z M58.1,126.3c-0.3-0.3-1.4-0.4-0.8-1
			C57.8,124.6,58.2,125.8,58.1,126.3C57.7,126,58.3,125.7,58.1,126.3z M57.4,102c0.3,0,0.5,0.4,0.3,0.6C57.2,103,57,102,57.4,102
			C57.7,101.9,57.2,102,57.4,102z M60.9,129.3c-0.1,0.1-0.3-0.2-0.3-0.2c-0.1-0.3,0-0.6,0.3-0.8C61,128.6,61.2,129,60.9,129.3
			C60.8,129.3,61.2,129,60.9,129.3z M60.8,126.9c-0.3,0.3-0.7,0.3-1.1,0.2c0.4-0.2,0.8-0.3,0.8-0.7c0-0.3,0-0.7,0.4-0.8
			c0.2-0.1,0.5,0.6,0.5,0.8C61.5,126.7,61.1,126.8,60.8,126.9C60.6,127.3,61.1,126.7,60.8,126.9z M61.2,105.3
			c-0.3-0.2-0.6-0.9,0-0.9c0.2,0.1,0.4,0.2,0.4,0.5C61.5,104.9,61.2,105.3,61.2,105.3C60.9,105.1,61.2,105.3,61.2,105.3z
			 M59.6,104.3c0.6-0.5,1.1-1,0.5-1.7c0.6,0.2,1,0,1.6,0.1c0.4,0,0.9,0.8,0.4,0.8C61,103.4,60.7,104.6,59.6,104.3
			C60.1,103.7,60.6,104.6,59.6,104.3z M62.2,125.2c-0.3,0-0.7-0.4-0.2-0.5C62.4,124.7,62.7,125.2,62.2,125.2
			C62,125.2,62.4,125.2,62.2,125.2z M62.4,100.1c0.7,0.2,1.1,0.4,0.4,1.1C62.7,100.8,62.6,100.5,62.4,100.1z M63,105.4
			c-0.2-0.6,0.6,0,0.7,0.1C63.7,106,63.1,105.7,63,105.4C62.9,105.3,63.1,105.6,63,105.4z M64.1,126.8c-0.5,0.1-0.7-0.4-0.9-0.8
			c0.3,0,0.7,0,1,0.1C64.5,126.4,64.4,126.8,64.1,126.8z M64.3,104.3c-0.4,0-0.3-0.8,0.4-0.4C64.6,104.1,64.5,104.2,64.3,104.3
			C64.2,104.3,64.4,104.3,64.3,104.3z M64.5,102.9c-0.5,0-0.2-0.6,0.1-0.4C64.9,102.7,64.8,102.9,64.5,102.9
			C64.3,102.9,64.6,102.9,64.5,102.9z M65,127c0.4-0.2,0.8,0,1.1,0.2c-0.2,0.1-0.5,0.3-0.8,0.2C65.2,127.4,64.7,127.2,65,127z
			 M65.2,130.7c0.2-0.2,0.5-0.4,0.9-0.4C65.8,130.7,65.6,130.9,65.2,130.7z M65.9,104.2c-0.2,0.3-0.5,0.2-0.7-0.1
			c-0.3-0.5,0.2-0.4,0.5-0.5c0.6-0.3,0.8-0.8,1.6-0.4C66.7,103.4,66.3,103.8,65.9,104.2C65.6,104.5,66.3,103.8,65.9,104.2z
			 M66.5,101.7c0.5,0,0.6,0.8,0.2,0.6C66.5,102.3,65.9,101.8,66.5,101.7C66.8,101.7,66.3,101.7,66.5,101.7z M68.9,105.5
			c-0.2-0.4-0.7-0.4-1-0.8c-0.1-0.1-0.2-0.3,0-0.5c0.3-0.2,0.4,0.2,0.6,0.2c0.2,0,0.7-0.3,0.8,0C69.6,104.9,68.9,105.4,68.9,105.5
			C68.7,105,68.9,105.6,68.9,105.5z M68.1,102c0.5,0,0.6,0.4,1,0.7c0.2,0.2,0.1,1-0.3,0.9c-0.5-0.1-0.2-0.6-0.4-0.9
			C68.2,102.5,67.9,102.3,68.1,102C68.6,102,67.9,102.5,68.1,102z M70.4,127.4c-0.4,0-0.3-0.8,0.1-0.7
			C70.8,126.8,70.7,127.4,70.4,127.4C70.1,127.4,70.6,127.4,70.4,127.4z M70.5,109.5c0.2-0.3,0.4-0.3,0.6,0
			C71,109.7,70.4,109.7,70.5,109.5C70.6,109.3,70.4,109.6,70.5,109.5z M70.6,125.4c-0.2-0.1-0.1-0.7,0.3-0.6
			C71.3,124.8,71.2,125.6,70.6,125.4C70.6,125.4,71,125.5,70.6,125.4z M72.1,104.1c-0.3-0.2-0.7-0.2-0.9-0.5c-0.3-0.4,0-0.9,0.4-0.9
			C72.6,102.5,73.3,104.1,72.1,104.1C71.8,103.9,72.5,104.1,72.1,104.1z M72.8,102.6c0-0.5,0.5-0.5,0.7-0.1
			C73.7,103.1,72.8,103.4,72.8,102.6C72.8,102.4,72.8,102.9,72.8,102.6z M74,127c-0.1,0.1-1.1,0.4-0.9-0.1c0.2-0.5,0.9-0.5,1.4-0.5
			C74.5,126.7,74.2,126.8,74,127C73.8,127.1,74.2,126.8,74,127z M74.6,102.7c-0.7-0.1,0.2-0.6,0.3-0.8
			C74.9,102.2,75.1,102.7,74.6,102.7C74.5,102.7,75,102.7,74.6,102.7z M75.2,105.1c-0.3,0-0.3-0.5-0.1-0.6c0.1-0.1,0.4,0.1,0.4,0
			C75.5,104.6,75.5,105.1,75.2,105.1C74.9,105,75.4,105.1,75.2,105.1z M76.6,107.1c-0.1,0-0.4-0.6,0.1-0.5
			C76.9,106.8,76.9,107,76.6,107.1C76.5,107.1,76.8,107,76.6,107.1z M79.2,106.7c-0.2,0.2-0.4-0.2-0.4-0.4c0-0.3,0.4-0.5,0.5-0.7
			C79.6,105.9,79.6,106.3,79.2,106.7C79.1,106.8,79.6,106.4,79.2,106.7z M77.8,101.8c0.7-0.7,1.1-1.2,1.9-1.1
			C79.1,100.9,78.8,101.6,77.8,101.8z M80.3,105c-0.4-0.3,0.2-0.7,0.1-1.1c0.2,0.2,0.7,0.5,0.6,0.8C81,105.1,80.6,105.3,80.3,105
			C79.8,104.7,80.4,105.2,80.3,105z M81.7,125.3c0,0.4-0.7,0.6-0.7,0.2C80.9,124.9,81.8,124.9,81.7,125.3
			C81.7,125.7,81.7,125.1,81.7,125.3z M81.9,102.1c0.3,0.1,0.4,0.7,0,0.6C81.6,102.6,81.6,102,81.9,102.1z M82,107.2
			c-0.1,0.2-0.3-0.3-0.2-0.4c0.1-0.3,0.2-0.5,0.2-0.9C82.4,106.4,82.2,106.7,82,107.2C82,107.2,82.2,106.9,82,107.2z M83.4,126
			c0,0.2-0.1-0.4,0.1,0.2c0.1,0.3-0.2,0.6-0.1,0.9c-0.1-0.3-0.4-0.7-0.2-1c0.2-0.2,0.2-0.3,0.2-0.7c0-0.3,0.4-1,0.6-0.4
			C84.1,125.5,83.8,125.8,83.4,126C83.4,126,83.8,125.8,83.4,126z M84.3,127.4c-0.1-0.1-0.5-1.3,0.1-1.2
			C84.8,126.3,84.4,127.2,84.3,127.4C84.1,126.8,84.6,126.9,84.3,127.4z M84.4,104.2c-0.1-0.1-0.2-0.1-0.3-0.2
			C84.9,103.6,84.9,104.6,84.4,104.2C84.3,104.1,84.6,104.3,84.4,104.2z M85.6,108c-0.1,0.2-0.3,0.4-0.5,0.5c0-0.2-0.1-0.6,0-0.7
			C85.2,107.6,85.8,107.7,85.6,108C85.5,108.2,85.7,107.8,85.6,108z M86.7,104.5c-0.2-0.3-0.5,0.1-0.7,0.2c-0.1,0.1-0.2,0.1-0.3,0
			c-0.2-0.2,0.1-0.3,0.2-0.6c0.1-0.5,0.5-0.6,1-0.3C87.2,104.1,87.3,104.9,86.7,104.5C86.3,104.1,86.9,104.6,86.7,104.5z
			 M87.7,102.5c-0.1,0.3-0.5,0.6-0.7,0.2c-0.1-0.3,0-0.7,0-1C87.4,101.8,87.8,102,87.7,102.5C87.6,102.7,87.8,102.1,87.7,102.5z
			 M88.5,101.5c-0.2-0.1-0.7-0.3-0.2-0.5C88.8,100.8,89.1,101.6,88.5,101.5C88.4,101.4,88.8,101.5,88.5,101.5z M89.9,106.5
			c-0.7,0.2-1.1-1.2-0.4-1.3c0.3,0,1,0.1,1.2,0.4C91.1,106.2,90.3,106.4,89.9,106.5C89.2,106.7,90.3,106.4,89.9,106.5z M89.6,98.7
			c0.1-0.2,0.7-0.4,0.6,0.1C90.1,98.9,89.3,99.3,89.6,98.7C89.7,98.6,89.5,98.9,89.6,98.7z M91.5,104.1c-0.4,0-0.7-0.4-0.2-0.5
			C92,103.4,92.2,104.1,91.5,104.1C91.4,104.1,91.7,104.1,91.5,104.1z M91.7,101.3c-0.1-0.2-0.4-0.2-0.3-0.4c0.2-0.6,0.6-0.2,0.9,0
			c0.5,0.5,0.8,1.3,1.6,1.2C92.9,102.5,92.1,102.3,91.7,101.3C91.6,101.1,92.1,102.3,91.7,101.3z M93,105.4c0.1-0.3,0.1-0.7,0.5-0.8
			c0.6-0.1,0.7,0.7,0.6,1.1c0,0.4-0.5,0-0.7,0C93.1,105.8,92.7,106,93,105.4C93.1,105.1,92.9,105.5,93,105.4z M93.7,126.9
			c-0.5-0.1,0-0.5,0.2-0.5C94.3,126.4,94.1,127,93.7,126.9C93.5,126.9,93.8,126.9,93.7,126.9z M93.9,100.7c-0.2,0.1-0.3-1.1,0.5-0.3
			C94.3,100.6,94.1,100.7,93.9,100.7C93.7,100.8,94.1,100.7,93.9,100.7z M95.3,102.4c-0.1,0.3-0.3,0.2-0.5,0c-0.2-0.3,0-0.8,0-1.2
			C95,101.6,95.5,102,95.3,102.4z M96.2,103.8c-0.6,0.1-0.5-0.5-0.4-0.9C96,103,96.2,103.7,96.2,103.8c0.6-0.1,0.4-0.9,0.9-1.1
			c0.4-0.1,1.1,0.3,1.4,0.5c0.5,0.3,0.8,0.6,0.2,1.1c-0.5,0.4-1.3,1-1.9,1.1c0-0.3,0.1-0.6,0-0.9C96.7,104.2,95.7,104.4,96.2,103.8
			C96.2,103.8,96,104,96.2,103.8z M96.1,100.4c0.3-0.1,0.6-0.2,0.7,0.2C97,101.3,96.2,100.5,96.1,100.4
			C96.4,100.3,96.3,100.6,96.1,100.4z M96.5,125c-0.5-0.1,0-0.4,0.2-0.5C97.2,124.5,97,125,96.5,125z M96.9,107
			c-0.1-0.3,0.4-0.3,0.6-0.1C97.7,107.3,97,107,96.9,107C96.8,106.7,97,107,96.9,107z M97.3,127.5c-0.2-0.6,0.2-1,0.3-1.5
			C97.6,126.5,98.3,127.2,97.3,127.5z M97.8,128.4c-0.2-0.2,0.1-0.5,0.3-0.5c0.3,0,0.5,0.2,0.7,0.4
			C98.3,128.2,98.1,128.8,97.8,128.4C97.7,128.3,98.1,128.8,97.8,128.4z M99,125.9c-0.3-0.1-0.6-0.2-0.9-0.2c0.3-0.1,0.6-0.7,1-0.6
			C99.5,125.3,99.6,126,99,125.9C98.8,125.9,99.5,126,99,125.9z M100.5,107.7c-0.4,0.1-0.3-0.6-0.2-0.8
			C100.3,107.1,101,107.6,100.5,107.7C100.3,107.8,100.7,107.7,100.5,107.7z M100.7,106.3c-0.3-0.6-0.9,0.1-1.4-0.1
			c-0.3-0.1-0.4-0.7-0.4-1c1.2,0.2,2.2,1.1,3.5,1.1c0.6,0,0.2,1-0.3,0.7C101.7,106.6,101,106.9,100.7,106.3
			C100.6,106,101.1,106.9,100.7,106.3z M100.6,102.5c0.1,0.4-0.6,0.1-0.7,0.1C100.1,102.2,100.2,102.1,100.6,102.5
			C100.6,102.7,100.4,102.3,100.6,102.5z M100.5,99.3c0.2,0.1,1.1,0.3,0.8,0.6C101,100.3,100.6,99.4,100.5,99.3
			C101,99.5,100.7,99.8,100.5,99.3z M102.7,101.2c0.3,0.1,0.6-0.2,0.9-0.2c0.5,0,0.6,0.3,0.8,0.7c0.1,0.2-0.7,0.4-0.9,0.5
			c-0.5,0.1-0.7-0.7-1.2-0.4c-0.3,0.2-0.3,1-0.6,1.4c-0.1,0.2-0.4-0.3-0.4-0.3c0-0.2,0.1-0.4,0.3-0.5
			C102.2,101.7,101.5,100.8,102.7,101.2z M104.6,100.7c-0.4-0.3-1.1-1.1-0.4-1.5C104.7,99,104.5,100.5,104.6,100.7
			C103.9,100.1,104.2,100,104.6,100.7z M103,103.2c0-0.4,1.2-0.8,1.2-0.3c-0.2,0.3-0.4,0.6-0.7,0.6C103.4,103.6,103,103.4,103,103.2
			C103.1,102.8,103,103.3,103,103.2z M103,104.7c-0.1,0.3-0.5,0.6-0.5,0C102.6,104.3,103,104.3,103,104.7
			C103,104.9,103,104.6,103,104.7z M101.4,126.6c-0.4-0.5,0.6-0.3,0.8-0.3C102,126.4,101.7,126.9,101.4,126.6
			C101.2,126.3,101.7,126.9,101.4,126.6z M102.4,128.8c-0.2-0.3-0.1-0.6,0.2-0.8c0.5-0.4,0.6,0,0.9,0.3
			C103.2,128.4,102.8,128.6,102.4,128.8C102.1,128.3,102.8,128.6,102.4,128.8z M103.7,106.3c-0.4-0.1-0.6-0.7,0-0.7
			C104.2,105.5,104.1,106.4,103.7,106.3C103.5,106.2,104,106.3,103.7,106.3z M104.4,130.4c-0.1-0.5-0.3-1.1-0.4-1.6
			c-0.1-0.6,0.5-0.3,0.7,0c0.2,0.4-0.3,0.6-0.2,0.9C104.6,129.9,104.8,130.1,104.4,130.4C104.3,129.8,105.1,130,104.4,130.4z
			 M105.1,126.5c-0.4,0.4-1.2-0.3-0.9-0.5c0.2-0.1,0.5-0.1,0.5-0.4c0-0.3-0.2-0.4,0-0.7C104.7,125.6,105.9,125.7,105.1,126.5
			C104.7,126.8,106,125.6,105.1,126.5z M104.7,108.5c0.1-0.4,0.6-0.5,0.4-0.1C105.1,108.5,104.7,108.8,104.7,108.5
			C104.7,108.3,104.7,108.5,104.7,108.5z M105.8,106.3c-0.4,0.4-1.6,0.2-1.3-0.5c0.1-0.3,0.4-0.3,0.4-0.7c0-0.3-0.1-0.6,0.2-0.9
			c0.2,0.3,0.3,0.8,0.5,1.1C105.8,105.6,106.2,105.8,105.8,106.3C105.5,106.6,106,106,105.8,106.3z M105.2,101.2
			c0.4,0.3,0.5,0.5,0.4,0.9C105.2,102,105.2,101.7,105.2,101.2z M105.9,100.3c-0.4,0-0.2-0.6,0.1-0.6
			C106.3,99.6,106.2,100.3,105.9,100.3C105.7,100.3,106.1,100.3,105.9,100.3z M106.6,126.1c-1,0.2,0.3-1.2,0.5-1.4
			c0.5-0.4,0.4,0.3,0.3,0.6C107.2,125.7,107,126,106.6,126.1C106.3,126.2,107.2,126,106.6,126.1z M106.8,101.2c-0.6,0-0.5-0.9,0-0.9
			C107.3,100.3,107.2,101.2,106.8,101.2C106.6,101.2,107.1,101.2,106.8,101.2z M107.5,103.5c0.3-0.1,0.4,0,0.4,0.3
			c-0.1,0.3-0.4,0.5-0.6,0.7C107,104,107.1,103.7,107.5,103.5z M108.4,128.6c-0.4,0-0.5-0.3-0.6-0.6c-0.1-0.6-0.3-0.7,0.3-1.1
			c0.3,0.2,0.2,0.7,0.3,1C108.5,128,109,128.6,108.4,128.6C107.7,128.6,108.5,128.6,108.4,128.6z M108.2,104.6
			c-0.5-0.1-0.3-0.9,0.1-1C108.8,103.9,109,104.7,108.2,104.6C108,104.6,108.5,104.6,108.2,104.6z M109.6,127.2
			c-0.6,0.1-0.6-0.8-0.1-0.7C109.9,126.6,110.2,127.1,109.6,127.2C109.3,127.2,109.8,127.2,109.6,127.2z M110.1,107.5
			c-0.6,0.1-0.5-0.5-0.2-0.7C110.3,106.7,110.4,107.4,110.1,107.5C109.8,107.5,110.3,107.4,110.1,107.5z M110.3,104.5
			c-0.1-0.4,0.6-0.7,0.7-0.5C111.1,104.6,110.4,105.2,110.3,104.5C110.2,104.2,110.3,104.7,110.3,104.5z M110.9,124.1
			c0.3,0.3,0.5,1.1-0.2,0.9C110.2,124.9,110.8,124.3,110.9,124.1C111.3,124.4,110.8,124.4,110.9,124.1z M111.4,126.7
			c0,0.4-0.2,0.9-0.7,0.6c-0.3-0.2,0-0.6,0-0.9c0-0.3,0-0.5,0.4-0.5C111.6,126,111.3,126.4,111.4,126.7
			C111.5,127.1,111.3,126.5,111.4,126.7z M110,100.8c-0.3-0.4,1.1,0,1.3,0c0.3,0.1,0.4,0.4,0.3,0.7c-0.2,0.6,0.3,0.7,0.7,1
			c-0.6,0.3-0.5,0.3-1-0.2C110.9,101.9,110.5,101.4,110,100.8C109.9,100.7,110.6,101.6,110,100.8z M112.8,128.8
			c-0.4-0.3-0.7-0.6-0.5-1.1c0.1,0.3,0.5,0.3,0.7,0.5C113.1,128.3,112.9,128.9,112.8,128.8C112.5,128.5,112.8,128.8,112.8,128.8z
			 M112.4,105.3c-0.3,0.2-0.3-0.4-0.3-0.5c0.1-0.3,0.3-0.5,0.6-0.6c0.3-0.1,0.4,0.5,0.4,0.6C113.2,105.2,112.6,105.2,112.4,105.3
			C112.3,105.4,112.7,105.1,112.4,105.3z M113.1,98.4c0.2,0.9-0.2,1.3-0.6,1.7C112.2,99.4,112.8,99.1,113.1,98.4z M113.5,103.7
			c-0.3,0.5-0.6-0.4-1-0.1c0.2-0.3,0.4-0.7,0.6-1C113.3,102.9,113.8,103.2,113.5,103.7C113.2,104.2,113.8,103.2,113.5,103.7z
			 M113.7,126.9c-0.1-0.1-0.1-0.2-0.1-0.3c0.3-0.2,0.6-0.2,0.9-0.1C114.4,126.9,114.1,127,113.7,126.9
			C113.7,126.9,114.1,127,113.7,126.9z M116.2,105.2c-0.2,0.4-0.7,0-0.9-0.1c-0.5-0.1-1.1,0.1-1.6-0.1c0.2-0.9,0.3-1.7,1.2-2.1
			c0,0.4-0.4,1.7,0.2,1.7c0.3,0,0.6-0.2,0.8-0.2C116.2,104.5,116.3,105,116.2,105.2C116.1,105.4,116.3,105,116.2,105.2z
			 M113.7,101.9c0.1-0.1,0.9-0.7,0.7,0C114.3,102.4,113.9,102.1,113.7,101.9C113.8,101.7,113.8,102,113.7,101.9z M118.1,126.9
			c-0.4,0.1-1,0.1-1.3-0.2c-0.3-0.3,0-0.8,0.2-0.6c0.3,0.3,0.8,0.3,1.1,0.5C118.6,126.7,118.2,126.8,118.1,126.9
			C117.2,127,118,126.9,118.1,126.9z M117.8,106.9c0,0.4-0.9,0.6-0.9,0.2C117,106.6,117.8,106.3,117.8,106.9
			C117.9,107.1,117.8,106.7,117.8,106.9z M117.8,103.8c0.4-0.3,0.4,0,0.7,0c0.3,0,0.6-0.3,1-0.2c0.2,0,0.6,0.7,0.3,0.9
			c-0.3,0.1-0.8-0.3-0.8,0.2C118.9,104.6,117.4,104.1,117.8,103.8z M117.9,124.4c-0.2-0.4,0.5-0.6,0.7-0.6c0.4,0,0.5,0.5,0.7,0.8
			C118.9,124.2,118.2,125.2,117.9,124.4C117.8,124.1,118.3,125.2,117.9,124.4z M120,107.5c-0.6,0-0.4-0.6,0.1-0.7
			C120.8,106.7,120.5,107.4,120,107.5C119.8,107.5,120.3,107.5,120,107.5z M121.9,104.3c-0.4-0.2-0.5-0.7-0.3-1.1
			C122,103.4,122.4,104.6,121.9,104.3C121.5,104.1,122,104.4,121.9,104.3z M121.9,101.3c-0.1-0.1,0.3-0.3,0.3-0.3
			c0.2,0,0.4,0.3,0.5,0.4C122.4,101.5,122.1,101.6,121.9,101.3C121.9,101.3,122.1,101.6,121.9,101.3z M122.8,105.8
			c0.3,0,0,0.4-0.1,0.5c-0.2,0.1-0.4,0-0.6-0.1C122.3,105.8,122.5,105.8,122.8,105.8z M123.4,103.7c0,0.4-0.4,0.2-0.6,0.1
			C123,103.6,123.4,103.1,123.4,103.7C123.4,103.8,123.4,103.4,123.4,103.7z M123.3,99.4c0.4-0.2,0.7,0.1,1,0.4
			C124.2,99.8,122.7,99.7,123.3,99.4C123.7,99.2,123.2,99.4,123.3,99.4z M123,127.8c-0.2-0.3-0.7,0-0.8-0.4c-0.1-0.6,1,0,1.1,0.1
			C123.2,127.6,123.1,127.7,123,127.8C122.9,127.5,123.1,127.7,123,127.8z M123.2,105.7c0.4-0.6,0.8-0.5,1.2-0.3
			C124.1,106,123.7,105.8,123.2,105.7z M125.1,107.7c-0.3,0-0.3-0.6-0.1-0.7C125.4,106.9,125.5,107.6,125.1,107.7
			C125,107.7,125.3,107.7,125.1,107.7z M125.4,102.8c-0.4,0.2-0.3-0.5-0.2-0.6C125.7,102,125.5,102.7,125.4,102.8
			C125.1,102.9,125.4,102.7,125.4,102.8z M125.8,130.4c0.5-0.7,1-0.7,1.7-0.2C126.9,130.5,126.4,130.7,125.8,130.4z M126.5,102.3
			c0.1,0.2,0.1,0.5,0,0.8C126,102.8,126,102.6,126.5,102.3C126.6,102.5,126.2,102.4,126.5,102.3z M127.2,107
			C126.1,106.4,128.1,105.8,127.2,107C127,106.9,127.3,106.9,127.2,107z M127.2,105.1c0.4-0.3,0.8-0.3,1.3,0
			C127.9,105.4,127.6,105.4,127.2,105.1z M127.5,102.3c0-0.3,0.1-0.8,0.6-0.8C128.7,101.5,127.5,102.3,127.5,102.3
			C127.6,101.7,127.8,102,127.5,102.3z M129.1,102.2c0.8,0.7,0.8,0.8,0,1.5C128.9,103.2,128.9,102.7,129.1,102.2z M129.2,104.5
			c0-0.4,0.9-0.2,0.8,0.2C130.1,105.3,129.2,105,129.2,104.5C129.2,104.3,129.2,104.8,129.2,104.5z M129.9,124.5
			c-0.2-0.1-0.7-0.8-0.2-0.7C130,123.9,130.3,124.7,129.9,124.5z M131.2,129.3c-0.2,0.1-0.3-0.3-0.3-0.3c0-0.2,0.2-0.4,0.3-0.5
			C131.4,128.7,131.5,129.1,131.2,129.3C131.2,129.3,131.5,129,131.2,129.3z M131.3,104.8c-0.4-0.2-1.4-0.7-0.8-1.3
			C131.1,102.8,131.8,105.1,131.3,104.8C130.9,104.6,131.5,104.9,131.3,104.8z M132.6,98.7c0-0.5,0.4-0.3,0.5,0
			C132.9,99,132.6,99.2,132.6,98.7C132.6,98.6,132.6,98.9,132.6,98.7z M133,104.9c-0.2-0.4-0.3-0.8,0.2-1c0.3-0.1,0.3,0.3,0.3,0.4
			C133.5,104.6,133.2,104.8,133,104.9C133,104.8,133.4,104.6,133,104.9z M136.5,127.6c-0.1-0.1-0.8-0.7-0.4-0.8
			C136.7,126.6,136.6,127.3,136.5,127.6C136.2,127.3,136.6,127.4,136.5,127.6z M138.3,102c-0.3,0.4-0.8,0.1-1.2,0.2
			c0.2-0.2,0.4-0.5,0.7-0.5C137.8,101.6,138.5,101.8,138.3,102C138,102.4,138.3,102,138.3,102z M138.3,100.2
			c-0.4-0.2-0.9-1.1-0.2-1.2C139,98.9,138.9,100.5,138.3,100.2C138,100.2,138.6,100.4,138.3,100.2z M139.3,102.5
			c-0.1,0.3,0.1,1-0.5,0.7c-0.5-0.2-0.1-0.5,0.2-0.6c0.3-0.1-0.2-0.6,0.4-0.7C139.8,102,139.7,102.4,139.3,102.5
			C139.2,102.7,139.5,102.4,139.3,102.5z M141.1,103.3c0.6,0.3,0.3,0.8,0.4,1.3C140.8,104.2,140.9,103.8,141.1,103.3z M142.7,105
			c-0.4,0-0.3-1.1,0.6-0.8C143.1,104.5,143.2,105,142.7,105C142.6,105,143.2,105,142.7,105z M145,128.1c-0.4,0.5-0.9-0.1-1.3-0.1
			c0.3-0.1,0.5-0.4,0.9-0.5C144.9,127.3,145.3,127.7,145,128.1C144.5,128.6,145.1,127.9,145,128.1z M147.7,126.7
			c-1.1-0.1,0.3-1.3,0.8-0.9C149.3,126.2,147.8,126.5,147.7,126.7C147.4,126.7,147.9,126.3,147.7,126.7z M137.3,96.1
			c-3.2,0.1-6.3,0-9.5,0c-3.3-0.1-6.5,0-9.8,0c-3.3-0.1-6.5,0-9.8,0c-3.2,0-6.3-0.2-9.5,0c-1.5,0.1-3-0.1-4.5-0.1c-1.7,0-3.3,0-5,0
			c-3.3,0-6.6,0-9.9,0c-6.6,0-13.3,0-19.9,0c-6.5,0-13.1,0-19.6,0c-0.8,0-2.8,0.6-3.2-0.3c-0.2-0.6-0.1-1.5-0.1-2.1
			c0-0.9-0.1-1.8-0.1-2.7c0-1.5,0.3-3,0.3-4.5c0-1.6,0.1-3.2,0-4.8c-0.1-3.1-0.1-6.2,0-9.3c0-1.5,0-3-0.1-4.5c-0.1-0.7,0-1.4,0-2.1
			c0-0.5-0.2-1.3,0.3-1.7c0.7-0.7,2.3-0.2,3.1-0.1c1.6,0.1,3.3,0,5,0c1.4,0,3-0.3,4.4-0.1c1.6,0.3,3.3,0.1,5,0.1
			c26.4,0,52.8,0,79.2,0c6.7,0,13.3,0,20,0c1.6,0,3.2,0,4.8,0c1.2,0,2.8-0.3,3.9,0.2c0.4,0.2,0,0.6,0,0.9c-0.1,0.7,0,1.3,0,2
			c0,1.7-0.1,3.4-0.1,5.2c-0.1,6.4,0.1,12.8,0,19.2c0,0.7,0,1.5,0.1,2.2c0.1,0.6,0.3,1.2,0.2,1.8c-0.2,1.1-2.2,0.7-2.9,0.7
			c-2.9,0-5.8,0-8.7,0C146.3,96,141.8,95.9,137.3,96.1C134.9,96.2,141.4,95.9,137.3,96.1z M152.8,104.9c-1-0.1-0.4-0.7,0.1-0.9
			C153.4,103.6,153.5,104.9,152.8,104.9C152.6,104.8,153.3,104.9,152.8,104.9z M154.2,107.5c-0.4,0.2,0.1-0.7,0.1-0.7
			c0.1,0.1,0.3,0.2,0.4,0.3C154.5,107.3,154.3,107.4,154.2,107.5C154.1,107.5,154.3,107.4,154.2,107.5z M155.6,127.4
			c0,0.4,0,0.8,0.1,1.3C155,128.2,155,127.8,155.6,127.4z M157.2,130.5c-0.2,0.3-0.4,0.3-0.6,0.1
			C156.6,130.2,157.3,130.3,157.2,130.5C157.1,130.6,157.3,130.3,157.2,130.5z M158.7,101.7c-0.4-0.1-0.5-0.8-0.6-1.1
			c0.2,0.2,0.5,0.4,0.7,0.6C158.9,101.3,159.1,101.8,158.7,101.7z M159.4,107.2c-0.3,0-0.3-0.6,0-0.7
			C159.9,106.4,160,107.3,159.4,107.2C159.2,107.2,159.6,107.3,159.4,107.2z M160.7,101c0-0.4,0.4-0.5,0.8-0.6
			C161.5,100.5,160.6,101.7,160.7,101C160.7,100.7,160.7,101.1,160.7,101z M161.4,107.7c-0.2,0-0.3-0.2-0.4-0.4c0.1,0,0.5-0.2,0.6,0
			C161.7,107.5,161.5,107.7,161.4,107.7C161.1,107.7,161.4,107.7,161.4,107.7z M161.7,105.5c0.3-0.1,0.7-0.3,1.1-0.1
			c0.3,0.2,0.3,0.4,0.1,0.6C162.2,106.2,162.2,105.4,161.7,105.5C162.1,105.4,162.2,105.4,161.7,105.5z M162.7,124.3
			c-0.5-0.1-0.9-0.6-0.2-0.7C163.2,123.5,163.2,124.4,162.7,124.3C162.4,124.2,162.9,124.3,162.7,124.3z M163.2,60
			c-0.6,0-0.4-0.6,0.1-0.7C164,59.2,163.7,59.9,163.2,60C163,60,163.5,59.9,163.2,60z M165.3,117.5c-0.1,0.2-0.3-0.1-0.3-0.1
			c-0.1-0.3,0-0.6,0.1-0.9C165.5,116.8,165.5,117.1,165.3,117.5z M165.9,36.6c0,0.4-0.6,0.4-0.5,0.1
			C165.6,36.3,165.9,36.1,165.9,36.6z M166.4,126.7c-0.4-0.1-0.5-0.5-0.4-0.9c0.2,0.2,0.4,0.3,0.6,0.5
			C166.6,126.4,166.6,126.7,166.4,126.7C166,126.5,166.4,126.7,166.4,126.7z M168.5,123.6c-0.8,0.6-1.2,0.1-2-0.2
			c-0.2-0.1-1.2-0.8-0.3-0.9c0.3,0,0.6,0.1,0.9,0c0.2-0.2,0.4-0.1,0.6,0.1C167.9,122.8,168.9,123.3,168.5,123.6
			C168.3,123.8,168.6,123.5,168.5,123.6z M168.8,98.6c-0.4,0.2,0.1-0.7,0.1-0.7c0.1,0.1,0.2,0.2,0.3,0.4
			C169.1,98.4,169,98.5,168.8,98.6C168.8,98.6,169,98.5,168.8,98.6z M170.7,117C169.7,116.4,171.1,115.8,170.7,117
			C170.4,116.9,170.7,116.8,170.7,117z"/>
	</g>
</g>
</svg>
