<?xml version="1.0" encoding="utf-8"?>
<!-- Generator: Adobe Illustrator 18.1.1, SVG Export Plug-In . SVG Version: 6.00 Build 0)  -->
<svg version="1.1" id="case-study-marks_xA0_Image_1_"
	 xmlns="http://www.w3.org/2000/svg" xmlns:xlink="http://www.w3.org/1999/xlink" x="0px" y="0px" viewBox="0 0 541 165"
	 enable-background="new 0 0 541 165" xml:space="preserve">
<path fill-rule="evenodd" clip-rule="evenodd" d="M445.4,46.5c0.5,1.5-0.4,2.7-0.9,4c-0.9,2.2-1.8,4.4-2.5,6.7c-1,3-0.9,5.9,0.6,8.8
	c1.2,2.2,2.2,4.6,1.7,7.5c-0.9,0.1-1.8,0.4-2.7,0.3c-3.8-0.1-7.7-0.3-11.5-0.4c-1.9,0-3.3-0.6-4.2-2.5c-0.6-1.3-1.5-2.5-2.6-3.4
	c-4.2-3.8-9-5.5-14.5-3c-2,0.9-4.1,2-5.7,3.4c-4.2,3.5-7.4,8-9.7,12.9c-0.5,1.1-0.7,2.4-0.9,3.7c-0.1,0.5-0.1,1-0.1,1.4
	c1,11.9-1,23.6-2.1,35.4c-0.6,6.1,0.2,12.1,1.1,18.1c0.8,4.9,3.7,7.4,8.5,8.4c5.2,1.1,10.2,0.8,15.2-0.7c3.7-1.1,5.1-2.2,6.9-5.2
	c-0.2-0.9-1-0.7-1.5-0.7c-4.3,0.3-8.6,0.6-12.9,0.9c-0.9,0.1-1.9-0.1-3-0.1c-0.1-1.1-0.2-2-0.3-2.9c-0.1-1,0-1.9-0.2-2.9
	c-1.2-7-0.7-14,0-21c0.6-6,0.9-12.1,1.3-18.4c1.4-0.4,2.7,0.1,4.1,0.3c1.6,0.2,3.2,0.4,4.7,0.6c1.4,0.2,2.9,0.4,4.3,0.5
	c1.4,0.1,2.8,0.7,4.3-0.2c0-2.2,0-4.4,0-6.9c-1.1-0.1-2-0.4-2.8-0.3c-4,0.4-7.9,1-11.7,2.3c-0.9,0.3-1.8,0.4-3.1,0.6
	c-1.1-6,0.2-11.2,3.2-16.3c11.9,0,23.7,0.4,35.9,0.9c-0.3,1.2-0.4,2.1-0.7,2.9c-0.7,1.9-1.7,3.8-2.3,5.8c-1.2,3.8-1.8,7.7-0.7,11.8
	c0.6,2.1,0.6,4.4,0.5,6.6c0,2.7-0.3,5.4-0.5,8.1c-0.3,5.7-0.6,11.5,0,17.2c0.2,2.2,0.1,4.5,0,6.7c-0.1,3-1.3,5.6-3.5,7.7
	c-3.2,3.2-6.9,5.7-11.1,7.4c-8.5,3.4-17.4,4.1-26.4,3.2c-3-0.3-6-0.8-9-1.6c-2.5-0.6-4.9-1.5-7.2-2.5c-5.2-2.1-8.2-5.9-8.3-11.7
	c-0.1-3-0.5-6-0.8-9.1c-0.4-5-0.2-9.9,0.4-14.8c0.3-2.2,0.4-4.5,0.6-6.7c0.7-6.4,1-12.7,0.7-19.1c-0.3-4.9,1-9.4,3.4-13.8
	c2.3-4,4.2-8.2,6.3-12.4c0.8-1.6,1.2-3.3,0.6-5.1c-0.3-1.1-0.5-2.2-0.6-3.3c-0.1-2.6-0.8-5-1.7-7.4c-1.4-3.3-2.1-6.7-2.1-10.3
	c0-1.3-0.1-2.6-0.3-3.8c-0.6-4.1,0.3-7.9,1.8-11.7c2-5.1,5.5-8.9,10.4-11.4c4.3-2.2,8.9-3.5,13.7-4.2c7.5-1.1,15-1,22.3,1.3
	c2.6,0.8,5.1,1.9,7.5,3.2c3.7,2,5.9,5.3,7,9.3c0.1,0.4-0.1,0.9-0.1,1.7c-5.7,0.4-11.4,0.8-16.9,1.2c-0.7-0.7-1.1-1.2-1.5-1.7
	c-6.2-6.9-15.2-7.6-22.2-1.8c-4.4,3.6-6.6,8.2-6,13.9c0.2,1.9,0.4,3.8,0.6,5.7c0.3,3.7,1.8,6.8,4.6,9.2c2.2,1.9,4.1,4,5.7,6.4
	c2.7,4,7.6,3.8,10.7,0.6c2.8-2.9,5.6-5.7,8.5-8.4c0.7-0.6,1.5-1.1,2.4-1.4C431.8,46,443,46.2,445.4,46.5z M531.9,48.7
	c0.7-0.7,1.3-1.4,1.9-2.2c1.8-2.3,2.9-5,2.7-8c-0.4-4.9-0.8-9.9-1.3-14.8c-0.2-1.7-0.7-3.4-1.2-5.1c-0.9-3.6-3.1-6.2-6.3-8.1
	c-3.2-1.9-6.6-3.1-10.2-3.9C510,4.9,502.5,4.8,495,5.8c-5.7,0.8-11.2,2.4-16.3,5.4c-5.2,3.1-8,7.6-8.6,13.6
	c-0.5,4.5,0.3,8.9,0.5,13.4c0.2,4.1,1.7,7.7,4.2,11c1.2,1.5,2.1,3.2,2.9,4.9c0.9,1.9,1.4,3.9,2.3,5.8c0.8,1.7,0.5,3.1-0.6,4.4
	c-0.4,0.5-0.8,1-1.3,1.4c-3.2,3.8-6.3,7.7-9.5,11.4c-2.8,3.2-4.1,6.9-3.2,11.1c1.4,6.2,0.9,12.3,0.2,18.6
	c-0.7,6.8-1.2,13.7-1.6,20.5c-0.1,2.2,0,4.5,0.5,6.7c0.6,3,1.6,5.8,2.4,8.8c0.8,2.7,2.4,4.9,4.8,6.3c2.4,1.3,4.8,2.5,7.4,3.4
	c6.5,2.2,13.2,2.4,19.9,2c7.7-0.4,14.6-3.1,20.9-7.6c6-4.3,7.7-10.5,6.6-17.3c-0.7-4.4-0.7-8.6-0.2-12.8c0.5-3.6,1.1-7.3,1.3-10.9
	c0.1-2,0.1-4.2-0.6-6.1c-1.1-3.3-0.8-6.3,0.5-9.3c1.1-2.5,2.2-5,3.4-7.4c1.6-3.3,1.7-6.5-0.2-9.6c-1.5-2.4-3.2-4.8-4.8-7.1
	c-0.9-1.3-1.9-2.5-2.9-3.8C526,55.6,527.4,53.3,531.9,48.7z M484.9,138.8c-0.1-0.1-0.1-0.3-0.2-0.4c-3.1-4-3.7-8.3-2.4-13.1
	c0.7-2.6,0.7-5.4,0.9-8.1c0.2-3.2,0.3-6.4,0.4-9.6c0.1-3,0.2-6.1,1.7-8.9c0.7-1.3,0.6-2.8,0.1-4.2c-0.8-2.1-1.7-4.1-2.5-6.2
	c-2-5.2-1.4-7.8,3-11.3c3.6-2.9,7.5-5.4,12.2-6.4c4.4-1,8.6-0.3,12.5,1.9c1.2,0.7,2.4,1.6,3.4,2.7c2.6,2.7,2.8,5,0.9,8.3
	c-0.6,1.1-1.5,2.1-2.1,3.2c-1.3,2-2.6,4.1-3.8,6.1c-1.2,2.1-1.5,4.2,0.1,6.2c1.5,1.9,1.8,4.1,1.5,6.4c-0.4,3.3-0.7,6.7-1.3,10
	c-0.9,4.6-1.6,9.1,0.4,13.6c1.2,2.7,0.6,5.2-0.8,7.7c-3.3,6.1-6.6,8.2-13.3,8.2C490.8,144.7,487,143.2,484.9,138.8z M519.4,27
	c0.4,3.5,0.6,7,0.9,10.5c0.4,4.3-1.5,7.5-5.1,9.6c-7,3.9-14.3,4.3-21.6,1c-4.2-1.9-6.7-5.2-6.8-10.1c-0.1-2.4-0.6-4.8-0.7-7.2
	c-0.1-1.9-0.1-3.8,0.3-5.7c1.3-6.8,5.4-10.7,12.2-11.7c1.7-0.3,3.5-0.3,4.6-0.4C513.2,13,518.4,17.7,519.4,27z M99.6,27.5
	c0.2,2.1,0.3,4.1,0.7,6.2c1,5.7,1.4,11.4,1,17.2c-0.2,3.5-0.3,7-0.5,10.5c-0.3,5.9-0.7,11.8-3.1,17.4c-2.8,6.5-3.8,13.1-3,20.1
	c0.2,1.9,0,3.8-0.1,5.7c-0.4,4-0.9,7.9-1.4,11.9c-0.2,1.4-0.2,2.8-0.3,4.3c2.7,0.9,5.3,0.9,7.8,0.9c2.5,0,5,1.1,7.5-0.2
	c1.7-8.1,2.7-16.1,2.3-24.3c0-1,0.2-2.1,0.3-3.1c5.1-0.3,15.3,0.5,19.4,1.5c0.9,2.4,0.9,5,0.7,7.5c-0.4,5.7-0.9,11.5-2.1,17.1
	c-0.3,1.4-0.8,2.8,0.2,4.3c1.4,0.3,3,0.6,4.5,0.9c1.7,0.3,3.4,0.7,5.2,1c2.1,0.4,2.1,0.4,4.1,2.2c-1.3,1.1-2.8,1.4-4.3,1.7
	c-2.4,0.4-4.7,0.7-7.1,1.1c-0.9,0.2-1.7,0.6-2.7,0.9c0.3,2.1,0.5,4,0.7,5.9c0.2,2,0.6,4.1-0.3,6.3c-3.2,0.3-6.4,0.4-9.6,0.4
	c-3.3,0-6.6,0.7-10-0.2c-0.4-3.6,0.1-7.2-1.4-10.3c-4.4-0.2-12,0.7-15.2,1.7c0.9,7.3-1.1,14.7,0.6,22c5.3,0.8,12.3,0.5,15.6-0.6
	c0-2.2,0-4.6,0-6.8c3.7-1,14-1.4,19.5-0.6c0.2,1.1,0.5,2.3,0.7,3.6c0.2,1.4,0.3,2.8,0.4,4.3c2.8,0.6,5.4,0.3,7.9,0.3
	c2.5-0.1,5.1,0.5,7.8-0.7c-0.1-1.7-0.2-3.2-0.2-4.8c0-1.8-0.4-3.6,0-5.2c1.3-5.5,0.3-10.9-0.7-16.2c-0.6-3.2-0.5-6.3,0-9.4
	c0.2-1.4,0.5-2.8,0.8-4.2c1.1-7.1,2-14.2,1.5-21.5c-0.4-6,0.4-11.8,2.9-17.3c1.7-3.8,2.7-7.9,2.9-12c0.4-8.1,1-16.3,0.8-24.4
	c-0.2-6.8-1.6-13.6-2.5-20.6c-2.5-0.6-5,0-7.5,0.1c-2.6,0.1-5.4,0-7.8,1.3c-0.6,5.8,1.9,11.2,1.4,16.7c-5.5,1-16.4,1-19.8,0
	c-0.8-5.1-1.6-10.3-2.4-15.4c-4.4-0.3-11.8,0.3-15,1.1C99.8,26.3,99.5,26.9,99.6,27.5z M116.3,71.5c3.2,0,6.1,0.7,9.2,2.7
	c-3.5,2.2-6.8,2.5-10.1,2.2C114.8,74.6,115.4,73.1,116.3,71.5z M323.3,16.2c-1.9,5.3-3.8,10.5-5.2,15.9c-1.1,4.2-1.5,8.6-0.1,12.8
	c1.4,4.2,1.7,8.4,2.1,12.7c0.3,3.2-0.2,6-1.5,8.8c-2.2,4.8-4.7,9.4-7.8,13.7c-3.7,5.2-4.4,10.9-2.7,16.9c0.8,3,1.2,5.9,1.3,9
	c0.2,7,0.5,14.1,1.8,21c1.3,7.1-0.6,13.2-5.8,18.4c-3,2.9-5.6,6.1-8.4,9.2c-0.5,0.6-1.1,1.2-0.4,2.2c3.1,0,6.2,0.1,9.4,0
	c5.7-0.1,5.7-0.2,9.5-4c5.9-0.5,17.3-0.6,21.1-0.1c1,1.1,2.1,2.3,3.1,3.4c5,0,9.8,0,14.6,0c0.4,0,0.8-0.2,1.2-0.4
	c0.4-1.3-0.6-1.8-1.1-2.6c-1.6-2.2-3.5-4.2-4.9-6.5c-2.3-4-4.3-8.2-6.4-12.3c-1.6-3-1.7-6.1-1-9.3c0.4-1.6,1-3,1.5-4.6
	c2.6-8.3,3.6-16.9,4.8-25.4c0.1-0.8,0-1.6,0-2.4c0.1-4.3,0-8.6,0.3-13c0.3-4.7,0.2-9.3-0.8-13.8c-1.1-5.6-0.8-11.1,0.8-16.6
	c0.5-1.5,0.9-3.1,1.3-4.6c1.1-4.2,0.9-8.1-1.1-12.1c-3.3-6.7-6.4-13.6-8.1-21c-0.2-0.9-0.8-1.6-1.4-2.6c-4.1,0.1-8.1,0.3-11.9,0.4
	C325.4,11.6,324.1,13.8,323.3,16.2z M333.8,78.1c-1.3,5.8-1.4,11.7-1.7,17.6c-0.4,8.3-1.7,16.5-3.9,24.5c-0.3,0.9-0.6,1.8-0.9,2.7
	c-1.4,4.3-1.3,8.4,0.7,12.6c1.5,3.1,2.7,6.5,4.1,10c-0.9,0.3-1.5,0.8-2.2,0.8c-3,0.2-5.9,0.6-9.3,0.1c0.4-1,0.6-1.6,0.9-2
	c3.7-5.1,4.2-10.9,3.5-16.9c-0.4-3.6-0.6-7.3-0.8-11c-0.1-3-0.1-6.1,0-9.1c0.1-3.5-0.3-7-1.1-10.4c-1.3-5.7-0.6-11.2,2.6-16.1
	c2.7-4.2,5.3-8.4,7.1-13c0.1-0.2,0.5-0.3,1-0.7C334.5,71,334.6,74.6,333.8,78.1z M332.3,31c3.9,3.4,4.6,9.4,1.9,18.8
	C331.3,43.1,331.6,37.2,332.3,31z M285.2,34.8c-0.2-0.6-0.5-1.2-0.8-1.8c-3.1-6.8-8.3-12.1-13.6-17.2c-1.7-1.6-4-2.7-6.3-3.4
	c-6.6-2.1-13.2-1.7-19.8,0.5c-2.9,1-5.6,2.4-7.8,4.5c-2.5,2.4-5.1,4.9-7.4,7.6c-4.6,5.3-6.7,11.6-6.6,18.5c0.1,4.8,0.2,9.6-0.1,14.4
	c-0.4,7.7-1.5,15.2-4.6,22.4c-2.2,5.1-3,10.5-2.3,16c0.6,4.1,0.8,8.3,0.8,12.4c0,5.5,0.9,10.8,3.6,15.7c1.9,3.4,1.8,6.7-0.2,10
	c-1.6,2.7-3.1,5.6-4.6,8.4c-1.9,3.8-1.3,6.3,2.3,8.6c1.9,1.2,3.9,2.1,6,2.9c6.5,2.5,13.3,3.3,20.2,3.5c7.2,0.2,14.4-0.5,21.3-2.6
	c3.8-1.2,7.5-2.8,10.4-5.7c0.5-0.5,1.3-1,0.7-2.2c-1-0.1-2-0.2-3.1-0.2c-2.9,0.1-5.8,0.3-8.6,0.3c-2.1,0-4,0.6-5.9,1.6
	c-7.7,4-15.6,4-23.7,1.4c-0.6-0.2-1.2-0.5-1.7-0.8c-3.4-2-3.9-4.4-1.4-7.5c1.5-1.9,3.1-3.7,4.9-5.3c7.9-7.1,14.5-6.8,22.1-0.1
	c1.2,1,2.1,2.4,3.2,3.6c5.5-0.5,10.8-0.2,16.2-1.3c-0.2-1.1-0.3-1.8-0.6-2.5c-0.5-1.2-1.1-2.3-1.7-3.4c-1.6-2.7-1.6-5.5-0.6-8.3
	c0.3-1.1,0.9-2.1,1.2-3.1c0.6-1.6,1.3-3.2,1.1-5c-4-1.8-11.6-3.4-15.5-3.1c-1.3,5.2-5.2,8.5-9.6,11.2c-2.3,1.4-4.8,1.9-7.4,1.1
	c-6.1-2-10.8-5.5-11.8-12.4c-0.2-1.4-0.4-2.9-0.5-4.3c-0.4-3.8-0.6-7.7-1.1-11.5c-0.8-6.2,0.1-12.1,2.3-17.9
	c3.2-8.2,5.4-16.7,5.4-25.6c0-1.9-0.2-3.8-0.3-5.7c-0.1-2.2-0.4-4.5-0.3-6.7c0.4-6.8,4.9-12.2,11.5-13.6c5.4-1.2,10.2,0.2,14.2,3.9
	c1.7,1.6,3.2,3.5,4.8,5.3c4.7,0.4,12.4,0,16-0.9C285.4,35.7,285.3,35.2,285.2,34.8z M51.5,92.7c-1.7,2.1-3.3,4.3-5.2,6.3
	c-4.2,4.5-8.8,4.9-13.6,1.1c-1.9-1.5-3.7-3-5.4-4.7c-1.1-1.1-2.1-2.4-3-3.7c-2-3.1-2.6-8.2,0.9-12c0.8-0.8,1.5-1.7,2.3-2.5
	c2.7-2.9,3.5-6.3,2.6-10.2c-0.6-2.5-1.3-5-1.4-7.5c-0.2-4.3,0-8.6-0.1-12.9c0-4,2-6.7,5.5-8.2c7-2.9,14-2.9,21-0.2
	c0.6,0.2,1.3,0.5,1.7,0.9c2.3,2.5,5.3,2.7,8.4,2.5c2.7-0.1,5.4,0,8.2-0.1c0.7,0,1.5-0.2,2.5-0.4c-0.4-0.9-0.6-1.5-0.9-2
	c-1.3-1.9-3.2-3.1-5.2-4.2c-4.3-2.2-8.7-3.9-13.4-5.3c-5.6-1.6-11.3-2.2-17.1-1.1c-6.5,1.2-12.7,3.2-18.6,6.2
	c-1.8,0.9-3.5,2.3-5.1,3.6c-2.1,1.7-3.2,4.1-3.2,6.7c-0.1,6.2-0.9,12.5,0.4,18.7c0.2,0.9,0.2,1.9,0.3,2.9c0.4,4.5-0.5,8.6-3.5,12.1
	c-4,4.7-4.2,9.9-1.4,15.2c1.7,3.3,3,6.7,4.5,10.1c3,7.3,8.2,12,16.2,13.5c6.5,1.2,13,1.4,19.6,0.3c4.7-0.8,8.9-2.7,12.2-6.2
	c5.3-5.6,7.2-12.5,7.9-20c-3.8-1.1-9.7-1.5-15.5-1.1C52.7,91.2,52.1,91.9,51.5,92.7z M180,32.5c1,4.7,1.4,9.5,1.3,14.3
	c-0.1,5.3-0.2,10.5-0.5,15.8c-0.4,5.7-1,11.5-3.4,16.8c-2.3,5.1-3.2,10.4-2.9,15.9c0.6,8.5-0.4,16.9-1.9,25.3
	c-0.7,3.8-0.7,7.6-0.1,11.4c0.9,5.5,1.5,11,0.4,16.7c-0.6,3-0.4,6.3,0.9,9.6c4.9-0.1,9.8,0.3,14.8-0.4c0.1-0.8,0.4-1.4,0.3-2
	c-0.2-4.3-0.2-8.6,0.5-12.9c0.2-1.4,0-2.9-0.2-4.3c-1.5-8.3-1.2-16.4,0.3-24.7c1-5.9,1.5-12,0.8-18.1c-0.5-5.2,0.3-10.5,2.5-15.5
	c2.9-6.5,4-13.4,3.9-20.5c0-2.6,0.3-5.1,0.3-7.7c-0.1-5.6,0.1-11.2-0.6-16.7c-0.7-5.2-1.2-10.5-1.3-15.7c0-0.7-0.2-1.5-0.5-2.6
	c-5.1,0.8-10,1-15.4,2C179.3,23.9,179.1,28.2,180,32.5z M65.4,151.7c-4.2,0-8.3-0.1-12.5,0c-1.2,0-2.5,0.5-3.6,1
	c-8.1,3.1-16.2,2.9-24.5,0.8c-1.2-0.3-2.4-0.9-3.5-1.6c-1.8-1.1-1.9-3.1-0.2-4.3c1-0.7,2.2-1.4,3.4-1.8c7.3-2.4,14.7-2.6,22.2-1
	c0.6,0.1,1.3,0.3,1.8,0.6c2.3,1.4,4.8,1.5,7.4,1.4c2.9-0.1,5.7-0.1,8.6-0.1c0.7,0,1.5-0.2,2.7-0.3c-0.6-0.9-0.8-1.6-1.2-1.8
	c-1.7-0.9-3.4-1.8-5.2-2.4c-5.5-1.8-11.1-2.8-16.9-3c-10-0.4-19.7,1-29.3,3.7c-3.2,0.9-6.4,2.1-9,4.3c-2.4,2-2.3,4.1,0.2,5.9
	c1.1,0.8,2.4,1.6,3.7,2.1c2.2,0.9,4.5,1.7,6.8,2.3c10.7,2.7,21.5,2.6,32.4,1.4c4.3-0.5,8.5-1.4,12.5-3c1.9-0.8,3.9-1.4,5.4-3.4
	C65.9,151.9,65.6,151.7,65.4,151.7z M423.6,41.2c4.1,0,8.3,0.1,12.4,0.1c3.9,0,7.9,0.5,11.9-0.3c0.7-4.2-0.3-8.1-1-12.1
	c-1.3-0.1-2.4-0.2-3.5-0.1c-6.8,0.5-13.7,1-20.5,1.5c-3.2,0.3-6.4,0.5-9.5,0.9c-1,0.1-2,0.6-3,1c0.3,3,0.5,5.7,0.8,9
	C415.6,41.1,419.6,41.2,423.6,41.2z M270,64.9c5,0.2,10.1,1.3,15.7,1c-0.1-3.1-0.3-6-0.3-8.8c0-3,1-5.9,0.1-9.2
	c-5.2-0.1-10.2,0.1-15.3,0.9C268.1,55.6,268.1,60.4,270,64.9z M58.9,66.1c-2,3.7-3,7.1-2.2,11c5.2,0.6,13.4,0.1,16.9-1.1
	c0.5-2.4,0.9-4.8,1.5-7.8C69.3,66.9,64.1,66.7,58.9,66.1z"/>
</svg>
