<?xml version="1.0" encoding="utf-8"?>
<!-- Generator: Adobe Illustrator 25.0.1, SVG Export Plug-In . SVG Version: 6.00 Build 0)  -->
<svg version="1.1" id="Layer_1" xmlns="http://www.w3.org/2000/svg" xmlns:xlink="http://www.w3.org/1999/xlink" x="0px" y="0px"
	 viewBox="0 0 500 112" style="enable-background:new 0 0 500 112;" xml:space="preserve">
<path d="M98.8,50.8C98.8,50.9,98.8,50.9,98.8,50.8c-0.6,2.1-1.9,3.5-3.2,5c-0.2,0.3-0.6,0.5-0.9,0.7c-0.4,0.3-0.6,0.6-0.7,1
	c0.1,0.2,0.2,0.3,0.3,0.5c-0.2,0.1-0.4,0.2-0.6,0.2c-0.1,0-0.2,0-0.4-0.1c-0.3-0.1-0.6,0-0.7,0.3c-0.2,0.3-0.4,0.5-0.6,0.6
	c-1.3,0.7-2.6,1.3-3.9,2c-0.4,0.2-0.7,0.6-0.9,1c-0.3,1-0.5,2.1-0.3,2.5c0,0,0.1,0,0.1,0c0.1-0.1,0.2-0.2,0.3-0.3
	c0.1,0.2,0.1,0.3,0.1,0.5c0,0.4,0,0.9,0,1.3c0,0.3-0.1,0.5-0.4,0.7c-0.1,0.1-0.3,0.4-0.3,0.6c0,1,0.1,1.9,0.1,2.9
	c0,1.1-0.1,2.2-0.1,3.3c0,0.3,0.1,0.7,0.3,1c0.4,0.6,0.5,1.2,0.3,1.9c-0.1,0.3-0.3,0.6-0.3,0.9C87,78,87,78.5,87,79
	c0,0.6,0,1.2,0,1.8c0,0.5,0,0.9,0.1,1.4c0,0.5,0.1,0.9,0,1.4c-0.2,0.6-0.1,1.2,0,1.9c0.1,1.3,0.1,2.6,0.1,3.9c0,0.9-0.1,1.8,0.1,2.7
	c0.1,0.6,0.4,1.2,0.7,1.8c0.3,0.5,0.6,0.6,1.2,0.4c1.2-0.4,2.4-0.8,3.6-1.3c0.8-0.3,1.5-0.5,2.3-0.5c0.4,0,0.6,0.2,0.4,0.6
	c-0.2,0.4-0.4,0.8-0.7,1.2c-1.4,1.6-2.7,3.3-4.2,4.9c-1.1,1.1-2.4,1.9-3.6,2.9c-0.4,0.3-1,0.6-1.4,0.9c-0.1,0.1-0.3,0.3-0.3,0.5
	c0,0.3-0.1,0.3-0.3,0.3c-0.6-0.2-1.1-0.1-1.7,0.2c-1.4,0.8-3,1-4.6,1.1c-1.5,0.1-3.1,0.1-4.6,0.1c-3.3-0.1-6.4-0.9-9.3-2.3
	c-0.6-0.3-1.3-0.6-1.9-0.9c-1-0.5-2-0.9-3.1-1.4c-0.2-0.1-0.4-0.3-0.4-0.4c-0.4-0.9-1-1.3-1.9-1.4c-0.4-0.1-0.7-0.1-0.7-0.7
	c0-0.2-0.3-0.4-0.5-0.6c-2.8-2.5-5-5.4-6.5-8.8c-1-2.4-1.7-4.9-2.2-7.4c-0.3-1.6-0.3-3.1-0.4-4.7c-0.2-2.6,0.2-5.1,0.7-7.6
	c0.3-1.7,0.8-3.3,1.4-4.9c0.1-0.3,0.2-0.6,0.2-0.9c0-0.2-0.1-0.4-0.4-0.3c-0.2,0.1-0.5,0.2-0.7,0.4c-2.4,1.8-5.1,2.8-8,3.3
	c-0.2,0-0.4,0.1-0.6,0.1c-0.2,0-0.4,0.1-0.5,0.4c0,0.1-0.1,0.3-0.2,0.4c-0.4,0.3-1.6,0.2-2-0.2c-0.1-0.1-0.3-0.3-0.5-0.3
	c-0.8,0-1.6,0-2.4,0c-1.5-0.2-2.9-0.4-4.4-0.7c-0.7-0.1-1.4-0.2-2.2-0.3c-0.2,0-0.3-0.1-0.5-0.2c-0.4-0.3-0.7-0.6-1.1-0.8
	c-2.9-0.9-5.5-2.5-7.9-4.2c-2.5-1.7-4.5-3.9-6.2-6.4c-0.3-0.5-0.7-0.9-1.3-1c-0.2-0.1-0.3-0.2-0.2-0.4c0.2-0.3,0.1-0.6,0-0.8
	c-0.9-1.6-1.5-3.3-2.1-5c-0.1-0.3-0.3-0.6-0.7-0.6c-0.1,0-0.2-0.1-0.2-0.2c0,0,0-0.2,0.1-0.2c0.4-0.2,0.3-0.5,0.2-0.9
	c-0.3-1.2-0.6-2.4-0.8-3.5C7,39.7,7,37.8,7.1,35.9c0.1-1.8,0.4-3.7,0.6-5.5c0.3-1.8,1-3.4,1.6-5.1C11.9,19,16.2,14.2,22.2,11
	c2.3-1.2,4.6-2.4,7.1-3c1.5-0.4,3.1-0.6,4.7-0.8c0.7-0.1,1.5,0.1,2.1-0.1C37.4,6.6,38.7,7,40,7.2c0.6,0.1,0.7,0.4,0.5,1
	c-0.1,0.4-0.1,0.4,0.2,0.7c-0.1,0.1-0.2,0.2-0.3,0.2c-0.9,0-1.5,0.5-2.2,0.9c-0.9,0.5-1.7,1.1-2.7,1.4c-0.6,0.2-1.1,0.6-1.6,1
	c-0.2,0.1-0.3,0.4-0.4,0.6c-0.1,0.3-0.2,0.3-0.4,0.2c-0.2,0-0.4,0-0.6,0.1c-0.6,0.4-1.3,0.8-1.9,1.2c-0.5,0.3-0.9,0.8-1.1,1.4
	c-0.2,0.5-0.6,0.9-1.1,1c-0.7,0.1-1.2,0.5-1.6,1c-0.1,0.2-0.3,0.4-0.4,0.5c-0.2,0.2-0.3,0.4-0.2,0.7c0.1,0.5-0.1,0.9-0.6,0.9
	c-0.7,0-1,0.4-1.4,0.9c-2.5,3.7-4.2,7.7-5,12c-0.3,1.5-0.7,3-0.6,4.5c0.2,2.8,0.5,5.6,1.7,8.2c0.6,1.2,1.4,2.3,2.2,3.4
	c0.2,0.3,0.4,0.6,0.6,0.8c0.3,0.3,0.6,0.4,0.9,0.2c1-0.7,2-1.4,2.9-2.2c0.8-0.7,1-1.8,0.8-2.9c-0.2-1.2,0-2.3,0-3.5
	c0-0.7,0.1-1.4,0-2.1c-0.1-0.5-0.4-1-0.7-1.4c-0.2-0.3-0.6-0.2-0.9,0.1c-0.5,0.4-1.1,0.8-1.6,1.3c-0.3,0.3-0.6,0.6-0.8,0.9
	c-0.3,0.4-0.5,0.5-0.9,0.2c-0.6-0.5-0.9-1.2-0.9-2c-0.1-1.3,0.5-2.4,1.5-3.3c0.5-0.4,1-0.9,1.5-1.3c0.7-0.6,1.2-1.3,1.6-2.1
	c0.1-0.2,0.1-0.4-0.1-0.5c-0.4-0.4-0.4-0.7-0.1-1.1c0.1-0.1,0.1-0.1,0.2-0.2c0.7-0.5,0.9-1.2,0.9-2c0-1.5,0-3,0-4.5
	c0-0.2-0.2-0.4-0.2-0.6c-0.1-0.1-0.2-0.3-0.2-0.4c0.1-0.8,0.2-1.6,0.2-2.4c0.4,0.1,0.5-0.1,0.6-0.4c0.1-0.4,0.4-0.6,0.8-0.7
	c1.5-0.4,3-0.7,4.5-1c0.7-0.2,1.1-0.4,1.6-1.1c0.8,0.5,1.3,0,1.9-0.5c0.6-0.6,1.2-1.1,1.8-1.6c0.5-0.4,0.5-0.4,0-0.8
	c0.4-0.4,0.8-0.7,1.5-0.6c2.3,0.3,4.7,0.6,7,0.8c1.5,0.1,3.1-0.1,4.6-0.2c1.2-0.1,2.3-0.5,3.5-0.8c0.6-0.2,1-0.5,1.6-0.8
	c0.5-0.2,1-0.5,1.5-0.7c0.5-0.2,1-0.3,1.4-0.4c0.5-0.1,0.7,0,0.7,0.5c0,0.5-0.2,1.1-0.3,1.6c0,0.2-0.1,0.4-0.3,0.5
	c-0.9,1.4-1.8,2.8-3.2,3.8c-1.1,0.8-2,1.7-3,2.5c-0.8,0.6-1.6,1.1-2.4,1.6c-0.4,0.2-0.7,0.4-0.8,0.9c0,0.2-0.2,0.2-0.4,0.1
	c-0.5-0.2-0.8-0.1-1,0.3c-0.2,0.4-0.4,0.7-0.6,1.1c-0.1,0.3-0.1,0.5,0.1,0.7c0.2,0.2,0.2,0.4,0,0.6C48,25.7,48,26,47.9,26.2
	c0,0.9-0.1,1.9-0.1,2.8c0,0.2-0.1,0.5-0.1,0.7c0,0.1-0.1,0.3,0,0.4c0.4,1-0.1,2.1,0.2,3.2c0.2,0.8,0.1,1.5-0.2,2.3
	c-0.1,0.3,0.1,0.8,0.1,1.2c0.2,0.9,0.2,1.8,0,2.6c-0.2,0.7,0,1.4,0.1,2.1c0.1,1.2,0.1,2.5,0.1,3.7c0,2.5,0,5,0,7.4
	c0,0.9,0.2,1.8,0.7,2.6c0.4,0.7,0.8,0.9,1.6,0.7c1.1-0.3,2.1-0.7,3.2-1.1c0.4-0.1,0.9-0.3,1.3-0.3c0.6-0.1,1.2-0.3,1.6-0.7
	c1.2-0.9,2.3-1.8,3.5-2.8c0.1-0.1,0.2-0.1,0.3-0.2c0.6-0.2,0.6-0.3,0.1-0.7c0.3-0.2,0.5-0.5,0.9-0.3c0.3,0.1,0.7-0.1,1-0.2
	c1.7-0.8,3.4-1.7,5.1-2.3c2.9-1.1,6-1.7,9.1-1.6c0.7,0,1.5,0,2.2,0c0.5,0,0.9,0.1,1.1,0.6c0.2,0.5,0,0.9-0.4,1.2
	c-0.3,0.2-0.6,0.4-0.9,0.6c-1.5,0.9-3,1.8-4.6,2.7c-0.4,0.3-0.9,0.5-1.4,0.7c-1,0.4-1.8,1.1-2.5,1.9c-0.3,0.4-0.5,0.7-1.1,0.7
	c-0.3,0-0.6,0.2-0.8,0.4c-1.6,1.7-3.4,3.4-4.6,5.4c-1.6,2.7-3.1,5.4-3.8,8.5c-0.5,2.1-1,4.3-1.3,6.5c-0.2,1.2,0,2.4,0.1,3.6
	c0.2,2,0.7,4,1.7,5.8c0.2,0.3,0.4,0.6,0.8,0.8c0.1,0,0.2,0.1,0.2,0.2c-0.1,0.5,0.3,0.8,0.5,1.2c0.3,0.5,0.7,1.1,1,1.6
	c0.3,0.4,0.7,0.5,1.1,0.3c0.7-0.5,1.4-0.9,2-1.5c0.8-0.7,1.2-1.7,1.3-2.8c0.2-1,0.3-2-0.1-3c-0.1-0.2,0-0.6,0-0.9c0-1,0-1.9,0-2.9
	c0-0.6-0.2-0.9-0.7-1c-0.5-0.2-0.9,0-1.2,0.5c-0.6,1-1.6,1.4-2.6,1.8c-0.4,0.1-0.8-0.1-1-0.6c-0.1-0.2-0.2-0.5-0.2-0.7
	c-0.1-0.2-0.2-0.4-0.3-0.5c-0.1-0.2-0.4-0.4-0.3-0.5c0-0.2,0.2-0.5,0.3-0.7c0.5-0.7,1-1.3,1.5-2c0.3-0.3,0.6-0.6,0.9-0.8
	c1.7-1,2.7-2.5,3-4.4c0.2-1.5,0.4-3.1,0.2-4.7c0-0.1,0-0.3-0.1-0.4c-0.1-0.6-0.2-1,0.1-1.6c0.2-0.4,0.2-1.1,0.1-1.7
	c-0.1-0.8,0.1-1.5,0.5-2.1c0.2-0.3,0.6-0.5,0.9-0.5c1.6-0.3,3.2-0.7,4.7-1.3c0.3-0.1,0.4-0.2,0.2-0.6c0.4,0.1,0.7,0.1,1,0.2
	c0.5,0.1,0.6,0.1,0.5-0.4c0-0.6,0.4-1,1-0.9c0.6,0.1,1-0.2,1.4-0.7c0.7-1,1.7-1.4,2.9-1.5c1.2-0.1,2.3,0.1,3.5,0.4
	c4,0.8,7.7,0.3,11.4-1.4c0.9-0.4,1.8-0.8,2.6-1.1c0.1-0.1,0.3-0.1,0.4-0.1c0.6-0.2,0.7-0.1,0.9,0.4c0,0.1,0.1,0.1,0.1,0.2
	C98.8,50.6,98.8,50.7,98.8,50.8z M41.3,29.5c-0.1-0.4-0.3-0.9,0-1.3c0.4-0.5,0.5-1,0.5-1.5c0-0.5-0.1-1,0-1.4
	c0.1-0.6,0.1-1.2-0.2-1.8c-0.3-0.7-0.7-1.3-1-2c-0.3-0.6-0.6-0.7-1.3-0.5c-0.7,0.2-1.4,0.5-2.1,0.7c-0.8,0.2-1.3,0.7-1.4,1.5
	c-0.2,1-0.4,2-0.4,3.1c-0.1,1.5,0,2.9,0,4.4c0,1.6-0.1,3.2,0.3,4.8c0.1,0.2-0.1,0.4-0.1,0.7c-0.1,0.3-0.2,0.6-0.2,1
	c0,0.3,0,0.7,0.1,1c0,0.2,0.2,0.4,0.3,0.6c0,0,0.1,0,0.1,0c0.1-0.2,0.2-0.4,0.3-0.7c0.1,0.2,0.1,0.3,0.1,0.4c0,1,0,2-0.5,3
	c-0.4,0.7-0.6,1.6-0.3,2.4c0.2,0.6,0.2,1.1,0.1,1.7c-0.1,0.9-0.3,1.8-0.4,2.8c-0.1,1.2-0.6,2.2-1.6,2.9c-0.4,0.3-0.7,0.6-1,0.9
	c-1.1,0.9-2.2,1.9-3,3c1.6,0.9,3.4,1.4,5.2,1.8c0.5,0.1,1.1,0.1,1.6,0c0.8-0.2,0.9-0.2,1.4,0.4c0.8,1,2,1.1,2.8,0.2
	c0.9-1,1.3-2.1,1.3-3.5c0-1.1,0-2.2,0-3.3c0-0.6,0-1.2-0.1-1.8c-0.1-0.4-0.1-0.7,0.1-1.1c0.1-0.2,0.1-0.5,0.1-0.8
	c0-0.5-0.2-1-0.2-1.5c0-0.6,0.2-1.3,0.1-1.9c-0.1-1.6,0-3.2,0.1-4.8c0-0.6-0.1-1.2-0.2-1.9c-0.1-0.5-0.1-1,0-1.5
	c0.1-0.3,0.1-0.7,0.1-1c-0.2-1.7-0.2-3.3-0.1-5c0-0.2,0-0.5,0-0.7c0,0-0.1,0-0.1-0.1C41.7,29.1,41.5,29.3,41.3,29.5z M74.9,65.3
	c0.1,1.4,0.2,2.6,0.2,3.9c0,1.4-0.1,2.9-0.2,4.3c0,0.3,0.1,0.6,0.1,0.8c0.1,0.4,0.2,0.7,0.2,1.1c0,0.9-0.2,1.8-0.2,2.7
	c-0.1,1.4-0.1,2.9,0,4.3c0,0.2,0.1,0.5,0.2,0.6c0.3,0.3,0.2,0.6,0.1,0.9c-0.1,0.1-0.1,0.3-0.2,0.4c-0.2,1-0.6,2,0,3
	c0.2,0.3,0,0.5-0.2,0.6c-0.3,0.1-0.6,0.3-0.8,0.5c-0.9,0.9-1.8,1.9-2.7,2.8c-0.6,0.6-1.2,1.1-1.8,1.6c-0.5,0.4-0.4,0.7,0.1,1
	c0.3,0.1,0.6,0.3,0.9,0.4c1.7,0.5,3.3,1,5,1.6c0.7,0.2,1.4,0.3,2.2,0.1c0.7-0.2,1.2-0.1,1.6,0.6c0.2,0.4,0.8,0.4,1.4,0.2
	c0.4-0.1,0.3-0.5,0.3-0.8c0-1.4,0-2.8,0.1-4.2c0.1-1,0.2-1.9,0-2.9c-0.1-0.9,0-1.7,0.1-2.5c0.1-0.3,0.1-0.7,0.1-1c0-1.8,0-3.5,0-5.3
	c0-0.4,0-0.8-0.2-1.2c-0.1-0.1-0.1-0.4-0.1-0.5c0-0.6,0.3-1.2,0-1.8c0,0,0-0.1,0.1-0.2c0.1-0.6,0.2-1.2,0.3-1.8c0-0.7,0-1.3,0-2
	c0-1.9,0-3.9-0.1-5.8c0-0.9-0.2-1.7-0.2-2.6c0-1.4-0.3-2.7-1.1-3.8c-0.6-0.9-0.6-0.9-1.7-0.4c-0.5,0.2-1.1,0.6-1.6,0.6
	c-0.9,0.1-1.3,0.6-1.4,1.4C75.1,63,75,64.3,74.9,65.3z M18.1,30.6c0,0-0.1-0.1-0.1-0.1c-0.1,0.1-0.2,0.1-0.3,0.2
	c-0.8,0.8-2.1,0.5-2.9,0.1c-0.3-0.1-0.3-0.4-0.2-0.7c0.1-0.2,0.3-0.3,0.5-0.3c0.2-0.1,0.5,0,0.7,0c0.8,0,0.9-0.1,0.6-0.8
	c0.1,0,0.3-0.1,0.4-0.1c0.3-0.1,0.5-0.2,0.8-0.4c-0.2-0.2-0.4-0.4-0.6-0.6c-0.4-0.3-0.4-0.5-0.1-0.8c0.1-0.1,0.2-0.2,0.3-0.3
	c0,0-0.1,0-0.1,0c-0.1-0.4-0.3-0.7-0.4-1.1c-0.1-0.4-0.2-0.7-0.4-1c-0.4-0.6-0.3-0.8,0.4-0.9c0.4-0.1,0.9,0,1.3,0c0,0,0-0.1,0.1-0.1
	c-0.3-0.2-0.7-0.4-1-0.7c0.1-0.1,0.2-0.3,0.3-0.5c-0.4-0.2-0.7-0.4-1.1-0.6c0,0-0.1,0.1-0.1,0.1c0,0.2,0,0.4,0.1,0.5
	c0.1,0.4,0.1,0.6-0.4,0.8c-0.3,0.1-0.6,0.2-0.9,0.4c-0.2,0.1-0.4,0.2-0.6-0.1c-0.3-0.3-0.4-0.3-0.7,0.1c-0.1,0.2-0.3,0.4-0.6,0.4
	c0,0-0.2,0.3-0.1,0.3c0.2,0.5,0.7,0.7,1.2,0.5c0.2-0.1,0.4-0.2,0.5-0.4c0.3-0.2,0.5-0.1,0.6,0.1c0.1,0.1,0.3,0.3,0.2,0.5
	c-0.2,0.6-0.2,0.6,0.4,0.9c0.5,0.3,0.5,0.4,0.3,0.9c-0.1,0.2,0,0.4,0,0.6c0,0.2,0.1,0.5,0,0.7c-0.3,0.4-1,0.5-1.4,0.2
	c-1-0.8-1.9-1.7-2.3-3c-0.1-0.2-0.2-0.4-0.5-0.4c0.1,0.6,0.1,1.2,0.2,1.9c-0.4-0.2-0.7-0.4-1-0.5c-0.5-0.2-0.8,0-0.8,0.5
	c0,0.2,0,0.5,0,0.7c0.1,0.5,0.2,0.7,0.7,0.6c0.4-0.1,0.8-0.2,1.2-0.4c0.6-0.3,0.8-0.3,1.3,0.2c0.2,0.2,0.5,0.4,0.7,0.6
	c0.1,0.2,0.3,0.4,0.2,0.5C14.1,29.5,14,30,14,30.5c0,0.2,0,0.5,0,0.7c0.1,0.5,0,0.7-0.4,0.8c-0.2,0.1-0.4,0.1-0.5,0.2
	c0.1,0.2,0.2,0.3,0.1,0.4c-0.1,0.1-0.2,0.2-0.4,0.2c-0.4,0-0.7,0.1-0.7,0.5c-0.1,0.4-0.3,0.6-0.6,0.8c-0.3,0.2-0.6,0.3-0.9,0.5
	c0.1,0.4,0.5,0.4,0.8,0.3c0.6-0.2,1.1-0.5,1.3-1.1c0.1-0.2,0.3-0.4,0.4-0.6c0.1,0,0.1,0,0.2,0c0.1,0.3,0.4,0.6,0.4,0.9
	c0,0.5,0.1,0.9,0.4,1.3c0.1,0.1,0.1,0.3,0.2,0.5c0.1,0.2,0.2,0.3,0.3,0.5c0.1,0,0.1,0,0.2,0c0-0.2,0.1-0.5,0.1-0.7
	c0-0.4-0.1-0.8-0.2-1.2c0-0.6,0.1-0.8,0.7-1c0.2-0.1,0.3-0.2,0.5-0.3c-0.3-0.1-0.5-0.2-0.7-0.3c-0.2-0.1-0.5-0.1-0.5-0.4
	c0-0.3,0.4-0.7,0.7-0.7c0.1,0,0.3,0,0.4,0c0.5,0,1,0.1,1.5,0.1c0.1,0,0.2,0,0.3-0.1C17.7,31.2,17.9,30.9,18.1,30.6z M17.5,53
	c0.4,0,0.7,0,1-0.2c0.4-0.2,0.8-0.1,1.1,0.2c0.3,0.2,0.6,0.4,0.9,0.5c0.2,0,0.4-0.1,0.6-0.2c-0.1-0.2-0.2-0.4-0.4-0.6
	c0-0.1-0.2,0-0.3-0.1c-0.2-0.1-0.4-0.2-0.4-0.4c-0.1-0.4-0.4-0.6-0.8-0.6c-0.6,0-1.1-0.2-1.2-0.9c-0.1-0.4-0.4-0.5-0.8-0.4
	c-0.3,0.1-0.6,0.2-1,0.3c-0.4,0.2-0.6,0-0.8-0.3c-0.1-0.1-0.2-0.4-0.3-0.4c-0.2,0-0.4,0.1-0.6,0.1c0.1,0.1,0.1,0.3,0.2,0.4
	c0.3,0.2,0.4,0.5,0.3,0.8c-0.1,0.3-0.3,0.5-0.4,0.8c0,0.1,0,0.3,0,0.4c0.3,0.2,0.9,0,1-0.3c0.4-0.6,0.8-0.8,1.5-0.5
	c-0.1,0.3-0.1,0.6-0.2,0.9c-0.1,0-0.3,0-0.4,0c-0.2,0-0.3,0-0.5,0.1c-0.4,0.2-0.6,0.7-0.3,1c0.3,0.3,0.7,0.3,1.1,0.2
	c0.4-0.1,0.4-0.4,0.4-0.7C17.5,53.1,17.5,53,17.5,53z M52.7,56.7c-0.1-0.1-0.1-0.3-0.3-0.4c-0.6-0.4-1.7,0.1-1.7,0.8
	c-0.1,0.5-0.2,1-0.7,1.2c-0.3,0.2-0.5,0.5-0.6,0.9c-0.1,0.4-0.3,0.6-0.8,0.7c-0.1,0-0.3,0.3-0.2,0.4c0.2,0.6,0.5,1.1,1.1,1.4
	c0.4,0.2,0.8,0.4,1.3,0.6c0.2,0.1,0.5,0.1,0.6,0c0.1-0.2,0.1-0.5,0.1-0.8c0-0.2-0.1-0.4-0.4-0.4c-0.5-0.1-0.9-0.3-1.3-0.5
	c-0.1,0-0.2-0.3-0.1-0.5c0.1-0.3,0.4-0.6,0.6-0.8c0.1-0.1,0.2-0.4,0.4-0.4c0.5-0.1,0.8-0.4,1.1-0.8c0.2-0.2,0.4-0.3,0.6-0.4
	C52.5,57.5,52.7,57.2,52.7,56.7z M31.5,40.5c0.2,0,0.3,0,0.5,0c0.6-0.1,0.9-0.6,0.5-1c-0.4-0.4-0.4-0.8-0.2-1.2c0-0.1,0-0.1,0.1-0.2
	c0.1-0.6-0.2-0.8-0.7-0.5c-0.5,0.2-0.9,0.5-1.3,0.8c-0.3,0.2-0.2,0.4-0.1,0.5c0,0.1,0.2,0.2,0.2,0.2c0.3,0.3,0.3,0.5,0,0.8
	c-0.2,0.2-0.5,0.5-0.7,0.7c-0.7,0.7-0.7,0.7,0.1,1.3c0,0,0.1,0,0.1,0.1c0.5,0.4,0.9,0.3,1.3,0c0.3-0.3,0.3-0.5-0.1-0.8
	c-0.2-0.1-0.6-0.1-0.5-0.4C30.9,40.3,31.3,40.5,31.5,40.5C31.5,40.5,31.5,40.5,31.5,40.5z M20,21.6c0.1,0.2,0.2,0.4,0.3,0.5
	c0.1,0.2,0.3,0.4,0.6,0.2c0.3-0.2,0.3-0.5,0.1-0.7c-0.5-0.7-1.3-0.7-1.7,0.1c-0.1,0.1-0.2,0.3-0.2,0.5c-0.3,0.9-0.7,1.6-1.4,2.2
	c-0.1,0.1-0.1,0.3-0.1,0.4c0.1,0.3,0.3,0.6,0.5,0.9c0.1,0.2,0.2,0.4,0.3,0.6c0.2-0.3,0.2-0.7,0.3-1c0.3-0.5,0.6-1,1-1.5
	c0.2-0.3,0.3-0.7,0.1-1c-0.1-0.1-0.1-0.3,0-0.4C19.8,22.1,19.9,21.9,20,21.6z M10.2,38.4c0-0.1,0-0.1,0.1-0.2
	c0.3,0.1,0.6,0.1,0.9,0.2c0.3,0.1,0.6,0.1,0.7-0.2c0.1-0.2,0.1-0.5,0-0.7c-0.4-0.7-1.2-0.8-1.8-0.3c-0.3,0.2-0.6,0.5-0.8,0.7
	c-0.3,0.2-0.2,0.4,0,0.6c0.3,0.3,0.5,0.6,0.6,1.1c0,0.3,0.2,0.5,0.5,0.6c0.4,0,0.7,0,1.2,0C11,39.5,10.6,38.9,10.2,38.4z M13.1,40.5
	c0.5-0.2,1-0.3,1-1c0-0.2,0.3-0.5,0.5-0.6c0.7-0.4,1.2-1,1.4-1.8c0-0.1,0-0.3,0-0.4c-0.1-0.1-0.3,0-0.4,0c-0.1,0-0.2,0.1-0.2,0.2
	c-0.4,0.3-0.6,0.9-1.2,0.8c0,0-0.1,0.1-0.1,0.2c-0.2,0.5-0.5,0.8-1.1,0.9c-0.4,0.1-0.5,0.3-0.3,0.7C12.7,39.9,12.9,40.2,13.1,40.5z
	 M29.6,58.7c-0.1-0.2-0.1-0.3-0.2-0.3c-0.3-0.3-0.7-0.5-1.1-0.7c-0.4-0.3-0.4-0.2-0.5,0.2c-0.1,0.6-0.3,0.7-0.9,0.7
	c-0.3,0-0.5,0-0.7,0.1c-0.3,0.2-0.5,0.1-0.7,0c-0.1-0.1-0.3-0.2-0.4-0.2c-0.2,0-0.5,0-0.6,0.1c-0.1,0.1-0.2,0.4-0.1,0.6
	c0.1,0.5,0.9,1,1.4,0.8c0.8-0.4,1.7-0.6,2.3-1.3c0.3-0.3,0.6-0.3,1-0.2C29.2,58.6,29.3,58.7,29.6,58.7z M17.4,42.6
	c0.1,0.2,0.2,0.4,0.3,0.5c0.2,0.3,0.2,0.6-0.1,0.9c-0.2,0.2-0.5,0.3-0.6,0.6c-0.1,0.1-0.2,0.3-0.2,0.5c0,0.5-0.2,0.9-0.6,1.2
	c-0.2,0.1-0.4,0.2-0.5,0.4c-0.1,0.1-0.1,0.4-0.2,0.5c0.2,0,0.4,0.2,0.6,0.1c0.3-0.1,0.6-0.3,0.9-0.6c0.9-0.8,1.2-2,1.5-3.2
	C18.3,43.2,17.8,42.6,17.4,42.6z M29.8,44.6c0,0.3-0.1,0.5-0.1,0.8c0,0.5,0.1,0.7,0.6,0.7c1.1-0.1,2.2-0.2,3.2-0.4
	c0.2,0,0.4-0.3,0.4-0.6c0-0.1-0.2-0.4-0.4-0.5c-0.3-0.2-0.6-0.1-0.9,0.3c-0.6,0.7-0.8,0.7-1.6,0.4C30.6,45,30.3,44.8,29.8,44.6z
	 M11.9,44.5c0,0,0.1,0.1,0.1,0.1c0.2,0,0.3-0.1,0.5-0.1c0.3-0.1,0.5-0.3,0.7-0.3c0.1,0,0.4,0.1,0.5,0.2c0.1,0.4-0.4,1.2-0.8,1.3
	c-0.2,0.1-0.4,0.2-0.6,0.2c0.7,0.7,1.4,0.5,1.7-0.3c0.1-0.5,0.2-1,0.3-1.5c0.1-0.3,0-0.6-0.2-0.7c-0.2-0.1-0.6-0.1-0.8,0
	c-0.4,0.1-0.7,0.4-1,0.7C12.1,44.1,12,44.3,11.9,44.5z M55.4,79.3c0.1-0.4-0.4-1.6-0.9-2.1c0,0.4-0.1,0.8-0.1,1.2
	c-0.3,0-0.6,0-0.9-0.1c-0.1,0-0.2-0.1-0.4-0.1c-0.1,0-0.3,0-0.4,0c-0.2,0.2,0,0.9,0.2,1c0.6,0.1,1.1,0.2,1.7,0.2
	c0-0.2,0-0.4,0.1-0.5C54.9,79.1,55.1,79.2,55.4,79.3z M20.4,60.6c0.5,0,1.3-0.4,1.4-0.8c0-0.1,0-0.3-0.1-0.4
	c-0.1-0.3-0.1-0.5,0.2-0.6c0.1-0.1,0.3-0.1,0.4-0.2c0.2-0.2,0.3-0.4,0-0.6c-0.3-0.3-1.1-0.3-1.4,0c-0.1,0.1-0.2,0.3-0.1,0.4
	c0.2,0.4,0.1,0.8,0,1.1C20.6,59.9,20.5,60.2,20.4,60.6z M27.3,50.6c-0.6-0.5-1-0.2-1.5-0.1c-0.4,0.1-0.7,0.4-0.7,0.8
	c0,0.1,0.1,0.3,0.2,0.4c0.4,0.3,0.9,0.6,1.3,0.9c0.1,0.1,0.3,0,0.4,0c0.1-0.1,0.1-0.3,0-0.4c-0.1-0.1-0.2-0.3-0.3-0.4
	c-0.3-0.4-0.3-0.5,0.1-0.9C26.9,50.8,27.1,50.7,27.3,50.6z M20.3,47.7c0-0.1-0.1-0.1-0.1-0.2c-0.2,0.1-0.5,0-0.7,0.2
	c-0.8,0.5-1.6,1-2.4,1.5c-0.3,0.2-0.3,0.4,0.1,0.5c0.2,0.1,0.5,0,0.7-0.1c0.2-0.1,0.4-0.3,0.6-0.4C19.1,48.8,19.7,48.2,20.3,47.7z
	 M48,17.6C48,17.6,48,17.5,48,17.6c-0.1-0.2-0.1-0.4-0.2-0.5c-0.1-0.1-0.4-0.3-0.5-0.2c-0.2,0.1-0.4,0.2-0.2,0.5
	c0.2,0.4,0.1,0.9-0.1,1.3c-0.2,0.3-0.4,0.5-0.5,0.8c-0.1,0.1,0,0.4,0.1,0.5c0.1,0.1,0.3,0.1,0.4,0.1c0,0,0.1,0,0.1-0.1
	C47.5,19.2,47.7,18.4,48,17.6z M33.3,36c-0.3-0.1-0.5-0.2-0.7-0.2c-0.6,0.1-1.2,0.3-1.7,0.5c-0.4,0.1-0.7,0.2-1,0.4
	c-0.2,0.1-0.3,0.3,0,0.4c0.1,0.1,0.4,0.1,0.5,0c0.7-0.4,1.4-0.6,2.2-0.5C32.8,36.6,33.1,36.4,33.3,36z M21.2,18.9
	c-0.5-0.7-0.4-1,0.3-1.5c0.1-0.1,0.3-0.3,0.2-0.3c-0.1-0.1-0.2-0.3-0.4-0.3c-1.2,0-1.1-0.1-1.2,1c0,0.1,0,0.3,0,0.4
	C20.3,18.8,20.5,19,21.2,18.9z M39.2,59.4c-0.2,0.1-0.4,0.2-0.6,0.4c0,0,0,0.3,0.1,0.3c0.2,0.1,0.4,0.1,0.6,0.2c0,0,0.1,0,0.1,0
	c0.5-0.2,0.9-0.1,1.3,0.2c0.3,0.3,0.7,0.5,1.1,0.7c0.1,0,0.2,0,0.3,0c0-0.1,0-0.2-0.1-0.3c-0.2-0.2-0.5-0.4-0.8-0.6
	C40.6,59.8,40,59.5,39.2,59.4z M15,22.4c-0.2,0-0.3-0.1-0.5-0.1c-0.3-0.1-0.6-0.1-0.9-0.3c-0.4-0.3-0.7-0.3-1,0
	c-0.1,0.1-0.2,0.3-0.3,0.5c0.2,0.1,0.5,0.3,0.6,0.2c0.4-0.2,0.7,0.1,1,0.1C14.3,22.8,14.7,23,15,22.4z M46.1,55.1
	C46.1,55.1,46,55,46,55c-0.2,0.2-0.4,0.5-0.6,0.7c0.2,0.2,0.5,0.5,0.7,0.5c0.7,0.1,1.4,0.1,2.1,0.1c0.1,0,0.2-0.2,0.3-0.3
	c-0.1,0-0.2-0.1-0.3-0.1c-0.7-0.1-1.4-0.1-2.1-0.2C46.1,55.5,46.1,55.3,46.1,55.1z M28.5,56.3c-0.1-0.2-0.1-0.3-0.2-0.4
	c-0.2-0.3-0.4-0.3-0.6,0c-0.3,0.4-0.6,0.4-1,0.3c-0.6-0.2-1.1,0-1.6,0.2C25.5,56.6,28,56.6,28.5,56.3z M51.3,59.8
	c-0.1,0.1-0.4,0.2-0.6,0.3c0.1,0.2,0.2,0.4,0.3,0.5c0.1,0.1,0.1,0.2,0.2,0.3c0.1,0.1,0.2,0.2,0.3,0.2c0.4,0.1,0.7-0.2,0.8-0.7
	c0-0.4,0-0.5-0.6-0.6C51.6,59.8,51.5,59.8,51.3,59.8z M86.4,58.5c-0.3-0.5-0.5-1-1.1-1c-0.7,0-0.8,0.6-1.1,1
	C84.9,58.8,85.6,58.3,86.4,58.5z M30.6,33.4c-0.3-0.4-0.5-0.8-1-0.6c-0.3,0.1-0.6,0.4-0.5,0.7c0.1,0.3,0.4,0.5,0.6,0.7
	C30,33.9,30.3,33.6,30.6,33.4z M17.3,39.4c-0.2-0.5-0.4-0.9-0.6-1.4c-0.4,0.2-0.7,0.5-1.1,0.7C16.1,39.4,16.7,39.6,17.3,39.4z
	 M10.4,32.5C10.4,32.5,10.4,32.5,10.4,32.5c0.2,0,0.4,0,0.6-0.1c0.2-0.1,0.3-0.2,0.5-0.3c-0.1-0.2-0.3-0.4-0.4-0.5
	c-0.2-0.1-0.5-0.1-0.8,0.1c-0.2,0.1-0.4,0.4-0.6,0.6c0,0-0.1,0.2,0,0.2c0,0.1,0.1,0.1,0.2,0.1C10.1,32.5,10.3,32.5,10.4,32.5z
	 M22.8,15.3c0.4-0.4,0.8-0.7,1.2-1c-0.6-0.1-1.2-0.2-1.7-0.3C22.2,14.5,22.2,14.6,22.8,15.3z M22.6,53.4c0.8,0.4,2,0,2.2-0.9
	c-0.3,0-0.7-0.1-0.9,0C23.4,52.8,23,53.1,22.6,53.4z M54.1,57.6c-0.3,0.2-0.6,0.4-0.9,0.6c0.4,0.3,0.8,0.6,1.2,0.9
	c0.1,0,0.2,0,0.3,0c0-0.1,0-0.2,0-0.3C54.4,58.5,54.2,58.1,54.1,57.6z M54.9,80.5c-0.1,0.1-0.1,0.2-0.2,0.3
	c-0.1,0.2-0.1,0.3-0.2,0.5c-0.2,0.4,0,0.7,0.4,0.7c0.2,0,0.3,0,0.5,0C55.6,81.3,55.4,80.8,54.9,80.5z M36.2,59.5
	c0.1,0.1,0.3,0.4,0.5,0.4c0.2,0.1,0.7-0.4,0.7-0.6c0-0.3-0.2-0.4-0.5-0.5C36.6,58.8,36.2,59,36.2,59.5z M20.1,50.4
	c0.1,0.2,0.1,0.3,0.2,0.4c0.2,0.2,0.5,0.3,0.7,0.4c0.1-0.3,0.2-0.5,0.2-0.8c0-0.3-0.2-0.4-0.5-0.4C20.5,50.1,20.3,50.2,20.1,50.4z
	 M32.4,60.2c-0.4,0.2-0.7,0.4-1,0.6c-0.1,0.1-0.2,0.2-0.1,0.4c0,0.1,0.2,0.1,0.3,0.2c0.1,0,0.3,0,0.3,0c0.3-0.2,0.5-0.4,0.7-0.7
	C32.6,60.6,32.4,60.4,32.4,60.2z M27.8,60.5c0.5,0.3,0.9,0.2,1.2,0c0.2-0.1,0.2-0.3,0.3-0.5c-0.2-0.1-0.5-0.3-0.6-0.2
	C28.3,60,28.1,60.3,27.8,60.5z M18.7,57.3c-0.2,0.2-0.4,0.4-0.6,0.6c-0.2,0.3-0.1,0.5,0.2,0.5c0.3,0,0.7,0.2,0.8-0.2
	c0.1-0.2-0.2-0.5-0.3-0.7C18.8,57.4,18.7,57.4,18.7,57.3z M11.1,41.2c0,0,0-0.1-0.1-0.1c-0.1,0-0.2-0.1-0.3-0.1
	c-0.5,0.2-0.9,0.4-1.3,0.6c0,0,0,0.2-0.1,0.3c0.1,0,0.2,0.1,0.3,0.1c0.4-0.2,0.8-0.4,1.2-0.6C10.9,41.2,11,41.2,11.1,41.2z
	 M57.1,82.1c-0.2,0-0.4-0.1-0.6-0.1c-0.2,0.1-0.4,0.3-0.4,0.5c0,0.2,0.2,0.3,0.4,0.5c0.2-0.3,0.3-0.5,0.4-0.7
	C56.9,82.4,57,82.3,57.1,82.1z M24.1,55.7c-0.5-0.5-0.7-0.5-1.3,0.2C23.4,56.2,23.5,56.2,24.1,55.7z M34.1,58
	c-0.6,0-1.2-0.1-1.7-0.1C32.8,58.4,33.8,58.4,34.1,58z M55.9,87.4c0.1,0,0.1,0,0.2,0c0.1-0.2,0.3-0.4,0.4-0.6c0-0.1,0-0.3-0.1-0.3
	c-0.1,0-0.3,0-0.4,0.1c-0.1,0.1-0.2,0.3-0.2,0.4C55.8,87.1,55.9,87.3,55.9,87.4z M23.2,50.8c-0.6-0.1-0.9,0.2-0.8,0.8
	C23,51.5,23.2,51.3,23.2,50.8z M66.1,91.4c0,0,0-0.1-0.1-0.1c-0.4,0.1-0.9,0.2-1.3,0.3c-0.1,0-0.1,0.2-0.2,0.2
	c0.1,0,0.2,0.1,0.3,0.1c0.3,0,0.5-0.1,0.8-0.2C65.8,91.7,66,91.5,66.1,91.4z M37.7,61c0.3,0.3,0.7,0.5,1.1,0.3
	c0.1,0,0.2-0.2,0.2-0.3c0-0.1-0.1-0.2-0.2-0.2C38.5,60.9,38.1,60.9,37.7,61z M13.8,49.4c-0.3,0-0.5-0.5-0.8-0.2
	c-0.1,0.1,0,0.4,0,0.5C13.4,50,13.5,49.6,13.8,49.4z M22.3,51.8c-0.1,0-0.1-0.1-0.2-0.1c-0.2,0.1-0.4,0.2-0.5,0.3
	c-0.1,0.1-0.1,0.2-0.1,0.4c0.2,0,0.4,0.1,0.4,0.1C22.1,52.2,22.2,52,22.3,51.8z M30.2,32.2c0.3-0.3,0.6-0.5,0.9-0.7
	C30.3,31.3,30.1,31.6,30.2,32.2z M56.8,85.3c0.4,0.4,0.7,0,1-0.1C57.5,84.7,57.5,84.7,56.8,85.3z M62,90.5c0,0.1,0,0.1,0,0.2
	c0.1,0.2,0.3,0.4,0.4,0.5c0,0,0.2,0.1,0.2,0.1c0.1,0,0.1-0.1,0.1-0.2c-0.1-0.2-0.2-0.4-0.3-0.5C62.3,90.5,62.1,90.5,62,90.5z
	 M43.9,21.4c0.4-0.1,0.8-0.2,1.1-0.3C44.6,20.9,44.1,21,43.9,21.4z M64.2,91.3c-0.3-0.3-0.6-0.1-0.9,0.1
	C63.5,91.8,63.9,91.7,64.2,91.3z M49.6,57.9c-0.1-0.3-0.2-0.4-0.4-0.2c-0.1,0.1-0.6,0.1-0.3,0.6C49.1,58.2,49.3,58,49.6,57.9z
	 M16.4,34.4c-0.4,0-0.7,0-1,0C16,34.9,16.1,34.9,16.4,34.4z M28.1,34c-0.4-0.4-0.6-0.1-0.9,0.1C27.7,34.4,27.7,34.4,28.1,34z
	 M54.8,92c0.3-0.5,0.1-0.9-0.4-0.9C54.5,91.4,54.6,91.6,54.8,92z M50.4,79.1c0.1,0,0.1,0.1,0.2,0.1c0.2-0.2,0.5-0.4,0.7-0.6
	c-0.3-0.1-0.4-0.1-0.7,0.2C50.5,78.8,50.4,79,50.4,79.1z M15.8,20.3c0.1-0.4,0.2-0.7,0.3-1.1c-0.1,0-0.1,0-0.2,0
	C15.9,19.5,15.4,19.8,15.8,20.3z M35.3,64.5c0,0.1,0.1,0.1,0.1,0.2c0.2-0.1,0.4-0.2,0.7-0.3c-0.2-0.2-0.3-0.2-0.4-0.3
	C35.5,64.2,35.4,64.3,35.3,64.5z M14.3,48.2c0,0,0.1,0,0.1,0c0-0.1,0-0.3-0.1-0.4c-0.1-0.2-0.3-0.3-0.5-0.4c0,0-0.1,0.1-0.1,0.1
	C13.9,47.8,14.1,48,14.3,48.2z M15.9,44.2c0.5-0.2,0.5-0.2,0.1-0.8C16,43.7,16,43.9,15.9,44.2z M57.6,88.9c0,0,0,0.1,0,0.1
	c0.2,0,0.4,0,0.6,0c0,0,0-0.1,0-0.1c-0.1-0.1-0.2-0.2-0.3-0.3C57.8,88.7,57.7,88.8,57.6,88.9z M28.9,61.9c-0.1-0.1-0.3-0.3-0.4-0.5
	c0,0.3,0,0.5,0,0.8C28.7,62.2,28.8,62.1,28.9,61.9z"/>
</svg>
