<?xml version="1.0" encoding="utf-8"?>
<!-- Generator: Adobe Illustrator 16.0.4, SVG Export Plug-In . SVG Version: 6.00 Build 0)  -->
<!DOCTYPE svg PUBLIC "-//W3C//DTD SVG 1.1//EN" "http://www.w3.org/Graphics/SVG/1.1/DTD/svg11.dtd">
<svg version="1.1" id="Layer_1" xmlns="http://www.w3.org/2000/svg" xmlns:xlink="http://www.w3.org/1999/xlink" x="0px" y="0px"
	 width="170px" height="64.3px" viewBox="0 117.9 170 64.3" style="enable-background:new 0 117.9 170 64.3;" xml:space="preserve">
<g>
	<path d="M32.2,117.9h-8.5v15.8c-2.9,0-5.9,0-7.8,0c-8.8,0-16,7.2-16,16c0.1,9,7.2,16.2,16.1,16.2c9,0,16.2-7.2,16.2-16.2
		c0-4.3,0.2-16,0.2-16L32.2,117.9L32.2,117.9z M23.7,149.7c0,4.3-3.4,7.8-7.8,7.8c-4.1,0-7.5-3.4-7.5-7.8c0.1-4.1,3.5-7.5,7.6-7.5
		h7.8L23.7,149.7L23.7,149.7z"/>
	<path d="M102,149.7c0-8.8,7.2-16,16.2-16c8.8,0,16,7.2,16,16c0,9-7.2,16.2-16,16.2C109.2,165.9,102,158.7,102,149.7L102,149.7z
		 M118,157.4c4.3,0,7.8-3.4,7.8-7.8c0-4.1-3.4-7.5-7.8-7.5c-4.1,0-7.5,3.4-7.5,7.5C110.4,154,113.9,157.4,118,157.4L118,157.4z"/>
	<path d="M161.4,149.7c0-4.1-3.4-7.5-7.5-7.5c-4.3,0-7.8,3.4-7.8,7.5c0,2.2,0,15.5,0,15.5c-4.3,0.2-8.5,0.2-8.5,0.2s0-11.2,0-15.7
		c0-8.8,7.2-16,16.2-16c8.8,0,16.2,7.2,16.2,16c0,4.7,0,15.5,0,15.5s-4.3,0-8.6,0C161.4,165.2,161.4,151.9,161.4,149.7L161.4,149.7z
		"/>
	<path d="M82.1,144.1c-1.1-0.7-0.7-2.3,1.2-2.9c2.7-0.7,7,0,10.8,1.6l4.1-5.4c-1.8-1.4-5.6-3.4-11.2-3.8c0,0-9.2-1.1-13,5.9
		c0,0-3.4,6.7,3.3,10.6c4,2.5,10.8,3.4,13,4.7c1.8,0.9,1.2,2.9-1.4,3.4c-4.3,1.1-10.2-1.4-12.3-2.9l-4.1,5.6c2.7,2,6.3,3.8,11.9,4.9
		c0,0,8.6,1.4,13.5-4.5c0.9-1.2,4.9-8.6-3-12.8C90.8,146.5,84.2,145.6,82.1,144.1L82.1,144.1z"/>
	<path d="M42.4,171.5c0.4,0.4,4.3,3.1,8.1,3.1c9.4,0.2,9.9-9.4,9.9-11.7c-1.8,2-5.4,3.1-7.5,3.1c-9,0-16.2-7-16.2-15.8
		c0-4.5,0-15.8,0-15.8s4.1,0,8.5,0c0,0,0.2,13.9,0.2,15.8c0,4.1,3.4,7.5,7.5,7.5c4.1,0,7.5-3.4,7.5-7.5c0-1.8,0-15.8,0-15.8
		c4.3,0,8.6,0,8.6,0v15.8c0,13.9,0.5,28.2-13,31.5c-10.2,2.5-17.5-4-17.8-4.3L42.4,171.5L42.4,171.5z"/>
</g>
</svg>
