<?xml version="1.0" encoding="utf-8"?>
<!-- Generator: Adobe Illustrator 18.1.1, SVG Export Plug-In . SVG Version: 6.00 Build 0)  -->
<svg version="1.1" id="case-study-marks_xA0_Image_1_"
	 xmlns="http://www.w3.org/2000/svg" xmlns:xlink="http://www.w3.org/1999/xlink" x="0px" y="0px" viewBox="0 0 603.5 171.2"
	 enable-background="new 0 0 603.5 171.2" xml:space="preserve">
<path fill-rule="evenodd" clip-rule="evenodd" d="M260.3,155.2c-2.9,0-5.5,0-8.4,0c-0.6-1-1.4-1.8-1.8-2.8c-2.4-5-4.7-10.1-7.1-15.2
	c-0.6-1.2-0.8-2.7-2.5-4c-0.2,7.4,0.2,14.2,0.9,21.1c-4.1,1.2-7.8,0.5-11.8,0.3c-0.2-1.2-0.6-2.2-0.6-3.3c-0.1-3.7-0.3-7.4-0.2-11
	c0.1-6-0.9-11.8-2.7-17.5c-0.9-3-1.5-6.2-2.4-9.3c-1-3.8-0.2-7.3,1.5-10.7c1.3-2.6,2.4-5.2,3.8-7.8c3.7-6.9,5-14.5,5.4-22.2
	c0.5-8.1,1-16.3,0.3-24.4c-0.5-5.9-0.4-11.8,0.8-17.7c0.6-2.6,0.8-5.3,1.2-8.3c5.6,0,10.9,1,16.2,1.7c1.1,2.7,1.4,5.4,1.7,8.1
	c0.7,6.3,3,12.1,6.1,17.5c0.1,0.2,0.5,0.3,1.1,0.6c2.1-3.7,3.1-7.9,5-11.7c1.9-3.9,3.9-7.7,5.9-11.4c3.9-0.6,10.6,0,16.4,1.6
	c0,1,0.2,2.1,0,3.1c-1.3,5-1,10.2-1,15.3c0.1,7.4,0.2,14.7,0,22.1c-0.1,3.8-0.6,7.7-1.1,11.5c-0.5,4-1.6,7.8-3.4,11.5
	c-1.8,3.6-3.3,7.3-5,10.9c-1.5,3.3-2.3,6.6-1.4,10.2c0.8,3.2,1.4,6.6,2.3,9.8c1.4,4.8,2.3,9.6,2.4,14.6c0.1,5,0.3,9.9,0.4,14.9
	c0,0.8-0.1,1.6-0.2,2.6c-3.7,0.8-7.3,0.4-10.8,0.2c-1.3-1.1-1.2-2.4-1.2-3.7c-0.1-4.3-0.1-8.6-0.1-13c0-1.9-0.1-3.7-0.5-5.6
	c-1.7,2.2-1.9,5-3.1,7.4c-1.1,2.3-2.1,4.7-3.1,7C262.5,150.1,261.4,152.6,260.3,155.2z M259.8,84.3c-2.2,2.8-4.1,5.2-5.9,7.5
	c-3.4,4.3-6.7,8.5-10.1,12.8c-2.1,2.7-3,5.7-2.2,9c0.7,2.8,1.4,5.7,2.7,8.1c3.6,6.4,6.9,12.9,9.7,19.7c0.3,0.8,0.4,1.9,1.9,2
	c2.9-4.6,4.5-9.7,4.9-15.2c0.4-5.2-0.8-10.2-1.7-15.2c-0.7-3.8-0.7-7.6,0.1-11.4c0.4-1.9,0.8-3.8,1.1-5.6
	C260.9,91.6,260.8,88.2,259.8,84.3z M247.1,39.4c-0.3,0-0.6,0-0.9,0.1c0.2,3.3,0.4,6.7,0.6,10c0.8,10.2,0.3,20.4-1,30.6
	c-0.6,4.3-1.5,8.5-3.6,12.3c-0.3,0.6-0.4,1.4-0.8,2.5c0.7-0.4,1-0.5,1.2-0.7c5.9-6.3,9.6-13.8,12.4-21.9c2.1-6.1,1.7-11.9-1.1-17.6
	c-0.8-1.6-1.6-3.1-2.3-4.7c-1.3-2.9-2.4-5.9-3.7-8.8C247.7,40.5,247.4,40,247.1,39.4z M269.3,96.2c0.2,0.1,0.5,0.1,0.7,0.2
	c0.4-0.7,0.8-1.3,1.1-2c2.9-5.8,4.2-12,4.6-18.5c0.8-11.2,1.2-22.3,0.3-33.5c0-0.2-0.3-0.4-0.5-0.6c-0.3,0.3-0.6,0.4-0.7,0.7
	c-2.1,5-4.2,10-6.2,15.1c-1.7,4.4-2.3,8.9-1.4,13.6c0.4,2.4,0.9,4.7,1.3,7.1c1,5.5,2.1,11,0.8,16.6
	C269.2,95.2,269.3,95.7,269.3,96.2z M315.9,97.9c0.7,0.3,1.2-0.1,1.5-0.6c2.4-3.4,4.9-6.7,7.2-10.1c3.6-5.3,6.6-10.9,8.4-17.1
	c0.2-0.6,0.5-1.1,0.8-1.9c1.3,0.1,2.5,0.2,3.8,0.4c1.2,0.2,2.5,0.4,3.9,0.7c1.3,5.1,2.4,10.2,3.4,15.3c0.6,2.9,0.5,5.7,0,8.5
	c-0.4,2-1.1,4-1.6,6c-0.5,1.8-0.9,3.7-1.3,5.6c-0.2,0.5-0.4,0.9-0.5,1.4c0.1,0,0.3,0.1,0.4,0.1c0-0.5,0-1.1,0-1.6
	c0.3-0.1,0.7-0.2,0.8-0.4c3.6-7.8,7.5-15.6,8.7-24.3c0.3-2.4,0.4-4.8,0.7-7.2c0.1-0.6,0.3-1.2,0.5-2c3.7-0.6,7.2,0.3,10.8,0.7
	c0.2,0.6,0.5,1,0.5,1.4c-0.3,6.2-1.1,12.4-3.7,18.2c-1.8,3.9-3.3,8-5.1,11.9c-1.4,3.2-2,6.4-1.5,9.8c0.5,3,0.9,6,1.7,8.9
	c1.1,4.2,1.8,8.4,1.7,12.8c-0.1,3.2,0.4,6.4,0.8,9.5c0.5,4.1,0.7,8.2,0.6,12.5c-2.1,0.8-4,0.4-5.9,0.4c-1.7,0-3.5-0.1-5.5-0.2
	c-0.8-2.5-0.6-5.1-0.8-7.6c-0.2-2.5-0.3-5.1-0.5-7.7c-0.2-2.5-0.5-5-1-7.5c-1.7,3.6-2.5,7.5-3.8,11.2c-1.4,3.7-2.5,7.6-4.6,11.2
	c-2.7,0.6-5.3,0.2-8.3,0.1c-2.6-3.4-4.2-7.4-6-11.3c-1.8-3.7-3.3-7.6-5.1-11.8c-1,1.4-0.6,2.6-0.6,3.7c0,1.3,0,2.6,0.1,3.8
	c0,1.3,0.1,2.6,0.2,3.8c0.1,1.1,0.2,2.2,0.3,3.3c0.1,1.3,0.2,2.6,0.2,3.8c0,1.2,0,2.5,0,3.7c-3.6,0.9-7.6,0.8-11.7-0.2
	c-0.2-1.1-0.4-2.4-0.5-3.6c-0.1-3.7-0.4-7.4-0.3-11c0.2-6.1-0.8-12.1-2.6-18c-0.9-2.9-1.5-5.9-2-8.9c-0.7-3.9-0.4-7.6,1.4-11.2
	c1.6-3.1,2.8-6.5,4.3-9.6c2.8-5.5,3.9-11.5,4.4-17.6c0.7-8.6,1.3-17.2,0.5-25.9c-0.5-5.4-0.5-10.9,0.8-16.2c0.1-0.6,0.4-1.2,0.6-1.9
	c2.8-0.9,5.4,0.3,8.1,0.4c2.7,0.1,5.4,0.5,7.9,0.8c1.4,3.6,2.6,6.9,4.1,10.1c1.4,3,3.1,5.8,5.4,8.9c4-5.8,6.3-11.9,10.3-17
	c4.8-0.4,13.2,0.2,16.3,1.2c0.1,0.6,0.2,1.2,0.2,1.8c0.1,8,0.1,16,0.1,24c0,0.3-0.3,0.6-0.5,1c-3.4,0.8-6.9,0.8-10.7,0.7
	c-0.2-0.9-0.6-1.7-0.6-2.6c-0.2-4.8-0.2-9.6-0.4-14.4c0-0.6-0.1-1.2-0.2-1.8c-0.4-0.1-0.5-0.2-0.7-0.2c-0.1,0-0.3,0.1-0.4,0.2
	c-2,3.8-4.1,7.6-6,11.5c-1.3,2.6-2.2,5.3-3.4,8.1c-2.5,0.2-5,0.4-7.8,0.6c-1.8-8.2-6.8-14.4-11-22.1c-0.2,1.5-0.4,2.1-0.4,2.7
	c0.9,8.6,0.9,17.3,0.4,25.9c-0.4,7.5-1.5,14.9-4.9,21.8c-0.8,1.6-1.2,3.3-1.8,4.9c-0.1,0.3-0.2,0.7-0.4,1c0.1,0,0.2,0,0.4,0
	C316,98.6,315.9,98.3,315.9,97.9z M331.3,144.8c2.1-3.9,2.9-7.7,4.1-11.3c1.2-3.8,1-7.6,0-11.3c-0.2-0.8-0.5-1.5-0.7-2.3
	c-3.1-12.8-3.1-11.5,0-22c0.5-1.8,1-3.7,1.3-5.6c0.2-1.6,0.2-3.2,0.2-4.8c0-0.5-0.5-1-0.7-1.5c-0.5,0.4-0.8,0.5-1,0.7
	c-4.9,5.5-8.5,12-12.4,18.2c-1.5,2.3-2.1,5-1.9,7.8c0.3,4,0.8,7.9,2.4,11.7c1.6,3.8,2.9,7.8,4.4,11.6
	C328.1,138.9,329.1,141.8,331.3,144.8z M177.6,106c-2.8,0-7.6-1-12.2-2.9c-2.6-1.1-4.7-2.7-6.1-5.2c-1.2-2.1-1.9-4.5-1.3-6.9
	c1.6-6.8,3.2-13.7,6.9-19.8c0.9-1.5,1.8-3,2.9-4.4c1.5-1.9,1.6-3.7,0.5-5.8c-1.1-2.1-2-4.4-3.4-6.3c-9.6-13.5-1.8-34.9,15.7-38.6
	c9.9-2.1,18.7,0.9,26,7.8c2.4,2.2,4.1,4.9,4.9,8.1c0.9,3.7,1.8,7.5,2.4,11.2c0.7,4.5-0.3,8.5-3.2,12.1c-1.5,1.9-2.8,3.9-4.2,5.8
	c-1.5,2-1.5,4.1-0.4,6.3c1.4,2.5,2.7,5.1,4,7.7c1.2,2.3,1.6,4.8,1.9,7.4c0.4,3.5-0.6,6.6-2.6,9.5c-3.3,4.5-7.4,7.9-12.5,10.2
	C191.6,104.6,185.9,106,177.6,106z M188.4,56.1c0.5,0,1.3,0,2.1-0.1c7.1-0.8,11.1-5.7,10.5-12.8c-0.3-3.4-1.6-6.5-3-9.5
	c-1.7-3.9-4.9-5.8-8.9-6.4c-5.8-0.8-10.8,2-13.5,7.7C171.7,43.2,174.4,55.6,188.4,56.1z M180.7,98.2c7,0.1,12.1-2.7,16.2-7.2
	c0.9-1,1.7-2.4,2-3.7c1.2-5.2-1.9-11.5-6.9-14c-4.6-2.4-10.6-1.1-14.4,3c-0.7,0.8-1.4,1.7-2,2.7c-2,3.1-3.3,6.6-4.1,10.1
	c-0.7,3.4,0.4,5.9,3.4,7.7C177,97.9,179.2,98.2,180.7,98.2z M129.6,90.9c-2.1-0.1-4,0.2-5.8,1.6c-3.2,2.3-7,3.3-10.8,3.3
	c-2.4,0-4.8-0.3-7.1-1c-3.1-1-4.2-2.9-3.9-6.3c0.5-4.5,1.7-8.8,3.4-12.9c0.5-1.3,1.4-2.5,2.2-3.7c3.9-6.2,15.2-6.8,19.2,1.3
	c0.8,1.6,1.5,3.2,2.3,4.9c4.3,0.5,8.5,1.1,13,0.6c0-0.8,0.1-1.4,0-2c-0.5-3.5-1.6-6.8-3.3-10c-1-1.8-1.2-3.6-0.3-5.5
	c1.1-2.3,2-4.7,3-7c0.8-1.7,1.9-3.4,1.4-5.6c-4.3-0.5-8.6-0.6-12.9-0.4c-0.8,1.3-1.5,2.5-2.4,3.6c-4.2,5.2-10.8,6.1-16.3,2.4
	c-3.2-2.2-5.2-5.2-6.2-8.8c-0.9-3.6-1.4-7.2-1.1-10.9c0.2-2.9,0.8-5.7,2.2-8.3c1.6-3.1,4-5.3,7.5-6.3c6.2-1.8,12.8,1.1,15.8,6.8
	c0.4,0.7,0.7,1.4,1.1,2.2c4.2,1,8.4,1.4,12.8,1.8c0.1-0.9,0.2-1.6,0.2-2.2c-0.3-3.3-1.6-6.2-3.8-8.6c-5.7-6.3-12.8-10.1-21.3-10.9
	C105.2,7.7,95.3,14.4,92.2,27c-2.3,9.1-1.7,18.1,2.6,26.6c1.2,2.3,1.8,4.7,2.1,7.3c0.3,2,0,3.8-1.2,5.4c-2.3,3-3.5,6.4-4.3,10
	c-0.9,4.1-1.8,8.1-2.5,12.2c-0.8,4.6,0.6,7.7,4.8,10c2,1,4.1,1.9,6.2,2.4c10.1,2.2,20.1,1.6,29.6-2.4c2.5-1,4.7-2.7,6.9-4.2
	c0.7-0.5,1.2-1.4,2.5-3C135,91.2,132.3,91.1,129.6,90.9z M443.6,148.8c0,3.6,0,6.4,0,9.4c-4.2,0.8-8.1,0.2-12,0.2
	c-0.8-3.2-0.7-6.1-1-8.9c-0.3-2.9-0.6-5.7-0.8-8.6c-0.2-2.1-0.3-4.2-0.2-6.2c0.2-4.1-0.4-8-1.5-11.8c-1.2-4-1.5-8.2-1.6-12.3
	c-0.1-2.4,0.3-4.8,1.2-7c1.4-3.4,2.6-6.9,4.1-10.2c2.2-4.7,3.4-9.6,4.3-14.7c0.2-0.9,0.3-1.9,0.5-3c4-0.6,7.9-0.3,11.7,0.4
	c1.2,3-0.6,5.5-0.3,8.6c0.9-0.3,1.6-0.4,2.1-0.8c3-2.1,6-4.2,9-6.5c1.2-0.9,2.4-1.4,4-1.3c3.5,0.2,7,0,10.3,0.5
	c0.7,1.4-0.3,1.8-0.9,2.2c-2.2,1.5-4.5,3-6.8,4.5c-1.3,0.9-2.6,1.8-4.2,2.9c1.4,0.7,2.4,1.1,3.4,1.6c3,1.6,3.7,3.1,2.6,6.2
	c-0.6,1.8-1.6,3.5-2.4,5.2c-0.7,1.4-1.6,2.7-2.5,4.1c-1.6,2.7-1.7,5.3-0.4,8.2c1.3,2.7,2.4,5.6,3.3,8.5c1.4,4.3,2.5,8.6,2.3,13.2
	c-0.1,1.9-0.4,3.8-0.7,5.7c-0.6,3.8-2.8,6.4-6.4,7.7c-1,0.4-2.1,0.7-3.3,1.2c0.6,2,2.4,2.7,3.6,3.8c1.2,1.1,2.5,2,3.7,3
	c1.4,1.1,2.8,2.1,4.1,3.1c-0.1,1.3-1,1.2-1.8,1.1c-3,0-6.1-0.1-9.1-0.1c-1.7,0-3.1-0.5-4.4-1.6C450.5,154.6,447.4,152,443.6,148.8z
	 M443.1,141.3c1.7,0,3.3,0.1,4.9,0c5.2-0.3,7.1-2.5,7-7.6c0-0.2,0-0.3,0-0.5c-0.7-4.4-1.2-8.8-2.2-13.2c-1.5-6.8-6-9.8-13.5-9.4
	c-0.1,4,0.4,7.9,1.5,11.7c1.1,4,1.7,8.1,1.5,12.3C442,136.7,441.8,138.8,443.1,141.3z M442.9,98.1c2.8-0.7,4.9-0.6,5.7-3.2
	c-1.2-1.4-2.6-1.5-4.4-0.8C443.8,95.1,443.5,96.2,442.9,98.1z M568.8,78.5c-0.8,0-1.6-0.1-2.4,0c-0.7,0.1-1.5,0.4-2.3,0.7
	c0,4.9-1.4,9.3-3.2,13.6c-0.8,1.8-1.2,3.6-2,5.4c-2.6,6-3.4,12.3-2.6,18.8c0.3,2.4,0.7,4.7,1.2,7.1c0.7,3.4,1.3,6.9,1.1,10.4
	c-0.1,2.2,0.2,4.5,0.3,6.7c0.4,4.9,0.7,9.9,1.1,14.8c0.1,1.4,0.2,2.8,0.4,4.6c4.2,0.1,8.1,0.6,12.1,0.5c4.2,0,8.3,0,12.5-0.2
	c3.9-0.1,7.9,0.4,11.9-0.6c0-2-0.1-3.7-1-5.4c-3.2,0-6.2,0-9.2,0c-3,0-6,0.3-9.2-0.3c0-1.4,0-2.6,0-4c1.5-0.1,2.7-0.3,3.9-0.3
	c3.5-0.1,7,0,10.6-0.1c1.1,0,2.1-0.3,3.4-0.5c-0.2-2.3,0-4.3-1.3-6.5c-1.7,0-3.5,0-5.2,0c-3.7,0-7.4,0-11-0.1
	c-0.4,0-0.8-0.4-1.3-0.6c0-1.3,0-2.5,0-4c1.4-0.2,2.6-0.4,3.9-0.4c3.8-0.1,7.7-0.1,11.5-0.2c1.1,0,2.1-0.3,3.5-0.6
	c-0.3-2.2,0.6-4.3-1-6.5c-2.4,0-5,0-7.5,0c-2.7,0-5.4,0.1-8.2,0c-2.5-0.1-5.1,0.4-7.7-0.4c-0.4-2.3-1.2-4.4-0.1-6.8
	c5.9-0.3,11.8,1,17.6,0.4c0.9-1.6,1.3-3,0.3-4.8c-3.5-0.3-7-0.5-10.5-0.8c-2.1-0.2-4.1-0.4-6.2-0.6c-0.2,0-0.5-0.4-0.9-0.8
	c0.3-1,0.7-2.1,1.1-3.4c6.2-0.2,12,1.4,18,1.1c0.5-0.9,1.1-1.7,1.3-2.5c1.2-5.8,2.2-11.6,3.4-17.7c-1.5-0.1-2.7-0.3-4-0.2
	c-4.3,0.1-8.6,0.2-12.9,0.2c-0.4,0-0.8-0.3-1.4-0.6c0.3-1.3,0.7-2.4,1-3.7c6.5-0.9,12.9,0.1,19.2-0.8c1.5-3.3,2.2-6.5,1.6-10.3
	C588.3,78.9,578.6,78.7,568.8,78.5z M38.6,29.5c0.9-3.5,1.7-6.7,0.6-10.2c-2.5-0.3-4.9-0.5-7.2-0.8c-2.4-0.2-4.8,0-7.1-1
	c-0.7-1.5-0.7-3-0.3-4.7c5-0.8,9.9,0.8,14.7,0.3c0.2-4.1,0-5.2-1.2-8.5c-7.2-1.2-23-1.8-26.9-1c0.1,1.7,0.2,3.4,0.4,5.1
	c0.6,7,0.9,14-0.2,21c-0.8,5.1-0.4,10.2,0,15.3c0.4,5.1,0.7,10.2,0.6,15.3c-0.1,6.2-0.6,12.5-1.1,18.7c-0.4,4.9-1.3,9.8-3.7,14.3
	c-0.7,1.4-1.2,2.9-1.7,4.4c3.8,1,21.7,1.5,26.5,0.9c0.4-0.6,0.8-1.3,1.1-2c0.3-0.7,0.8-1.4,0.1-2.5c-4.2-0.9-8.7,0-13.2-1
	c0.1-0.7,0.2-1.3,0.4-1.9c0.2-0.6,0.6-1.1,1-1.8c4.8,0,9.6,0,14.2,0c2.3-4.5,3-10.2,2.3-16.3c-4.4-1.8-9.5-0.1-14.2-2.3
	c0.3-3.8,0.6-7.6,1.1-11.4c3.6-0.4,6.9,0.4,10.2,0.8c0.1,0.8,0.1,1.4,0.2,2c2.2,0.8,2.2,0.8,4.6,0.4c-0.1-2.1,0.8-4.3-0.3-6.7
	C38.1,56.1,37,56,35.9,56c-2.7,0-5.4,0.1-8.2,0c-1.1,0-2.1-0.4-3.1-0.5c-1.2-11.1-2.5-21.3-0.3-27.5C29.2,28.5,33.8,29,38.6,29.5z
	 M406.6,87.4c-2.7-0.1-5.4-0.1-8.1-0.3c-0.4,0-0.7-0.6-1.2-1c0.3-1.3,0.7-2.7,1-4.1c5.3-0.6,10.4,0.5,15.3-0.3c1-4.4,1-4.4,0.3-7.5
	c-8.7-0.4-17.4-1.4-26.2-1.1c-0.3,0-0.5,0.3-1.1,0.6c-0.1,0.9-0.3,2-0.5,3c-0.7,5.2-1.7,10.4-4,15.2c-1.8,3.8-3.2,7.7-4.8,11.5
	c-1.3,3-1.8,6.1-1.2,9.4c0.6,3.4,1.2,6.9,2,10.3c0.8,3.4,1.5,6.9,1.2,10.4c-0.2,2.1-0.1,4.2,0.1,6.2c0.5,4.9,1,9.8,1.6,14.8
	c0.1,0.8,0.2,1.6,0.4,2.8c4.6,0.2,9.2,0.2,13.8,0.2c4.6,0,9.2,0.7,13.8-0.2c0.3-2.3,0.4-4.3-0.4-6.4c-5-0.5-9.9,0-14.6-0.5
	c-1-2.9-1-2.9-0.3-5.6c2.3,0,4.6,0,7,0c2.4-0.1,4.8,0.4,7.4-0.5c-0.4-2.8-0.7-5.6-1.1-8.5c-5-0.9-10,0.4-15.2-0.9
	c0.9-5.7-1-10.8-2.2-16.1c-0.5-2.3-0.9-4.7-0.4-7.3c5.1-0.4,9.7,2.1,14.9,1.7c-0.5-5.6,1.3-10.3,3.4-15c1.1-2.5,2.1-5,3.1-7.5
	c0.3-0.9,0.4-1.8,0.6-2.8C409.8,87.2,408.2,87.5,406.6,87.4z M539.8,84c-2.8-2.5-6.1-4-9.7-5c-6.9-1.9-13.9-2-20.9-0.7
	c-4.6,0.8-8.9,2.5-12.8,5.1c-3.4,2.3-6,5.2-7.7,9c-2.5,5.9-4.4,12-5.1,18.4c-0.4,4-0.1,8,1.9,11.7c2.1,3.9,2.6,7.9,1.5,12.5
	c-2.3,9.6,2.1,17.9,11.1,21.9c6.1,2.7,12.6,3.8,19.2,3.5c5-0.2,9.8-1.3,14.4-3.4c3.2-1.5,5.6-3.6,7-6.9c0.3-0.6,0.1-1.5,0.2-2.5
	c-4.4,0-8.6,0-12.9,0c-1.9,2.3-4,4.5-7.1,5.2c-3.3,0.8-6.7,0.8-10-0.3c-4.4-1.4-7.3-4.3-8.8-8.8c-1.1-3.4-0.8-6.7,0.8-9.8
	c1.7-3.3,1.3-6.1-0.5-9c-0.3-0.5-0.6-1.2-1-1.6c-2.9-3.6-3-7.6-1.9-11.8c0.6-2.5,1-5,1.4-7.5c0.6-3.7,1.3-7.2,2.7-10.7
	c1.6-3.7,4.2-6.5,8-7.8c7.2-2.5,14.1-2.6,20.2,3.4c3.3,0,6.8,0,10.3,0c0.5,0,0.9-0.2,1.5-0.4C542.2,86.2,541,85.1,539.8,84z
	 M184.1,154.7c-6.8-0.2-12.6-1-18.1-3.4c-2.8-1.2-5.4-2.8-7.5-5c-2-2-2.9-4.4-2.9-7.3c0.1-6.1,2.6-10.9,7.6-14.1
	c8-5.2,16.6-7.2,25.9-4c4.9,1.7,9.6,3.6,13.4,7.1c1.5,1.4,3,2.9,4.1,4.6c3.2,5,2.5,10.6-1.6,14.9c-2.5,2.6-5.6,4.2-9,5.2
	c-1.7,0.5-3.4,0.9-5.1,1.2C188.3,154.3,185.7,154.5,184.1,154.7z M181.7,128.7c-4.2,0-6.8,0.7-9,2.4c-5.9,4.4-5.4,11.9,1.2,15
	c4.8,2.3,9.8,2.6,14.9,0.8c1.3-0.4,2.6-1.2,3.7-2.1c3.7-3,4.1-7.2,1-10.9c-1-1.2-2.3-2.2-3.6-3.1
	C187.3,129.2,184.3,128.6,181.7,128.7z M132.3,128.7c-3.2-2.2-6.7-3.7-10.5-4.6c-6.5-1.6-13-1.6-19.5-0.7c-3.5,0.5-6.9,1.6-9.9,3.4
	c-2.1,1.3-3.9,2.8-5.1,5c-3,5-2,10.9,2.4,14.7c2.5,2.1,5.3,3.6,8.3,4.6c6.1,2.1,12.5,2.8,18.9,2.3c3.8-0.3,7.6-0.9,11.2-2.4
	c3.1-1.3,6-3,8-5.9c0.4-0.6,0.4-1.4,0.7-2.5c-4.1,0-7.7-0.1-11.4-0.1c-1.2,0-2,0.7-3,1.4c-5.9,4.3-12.2,4.1-18.6,1.5
	c-1-0.4-2-1.1-2.8-1.8c-2.2-2-2.9-4.5-2-7.4c0.8-2.4,2.3-4.2,4.6-5.2c6.2-2.7,12.2-2.1,17.8,1.5c1.1,0.7,1.9,1.6,2.7,2.3
	c4.3,0,8.2,0,12.8,0C136,131.5,134.2,130,132.3,128.7z M464.1,53.3c3.5,2.6,7.5,3.7,11.1,6.5c-1,0.4-1.5,0.7-2,0.7
	c-3,0.1-6.1,0.1-9.1,0.2c-1.7,0.1-3.1-0.4-4.5-1.3c-2.4-1.6-4.9-3-7.4-4.5c-0.6-0.4-1.4-0.5-2.4-0.9c-0.1,2.2-0.3,4.1-0.4,5.9
	c-2.9,1.1-5.6,1.3-11.7,0.7c-1.4-4.1-1.6-16.2-0.4-21.5c0.8-0.1,1.7-0.4,2.6-0.4c7,0.3,14.1,0.5,21.1,1c2.8,0.2,5.6,1,8.4,1.9
	c1.5,0.5,2.8,1.5,4,2.5c1.8,1.7,1.8,3.9-0.1,5.4c-1.5,1.1-3.3,1.8-5.1,2.5C467,52.6,465.7,52.8,464.1,53.3z M449.5,49.4
	c3.6,0.5,6.8,0.3,9.8-0.3c0.7-0.1,1.5-0.6,2-1.2c0.3-0.3,0.3-1.4,0.1-1.6c-0.6-0.6-1.5-1.1-2.4-1.4c-2.3-0.7-6.1-0.7-9.5,0.1
	C449.5,46.2,449.5,47.6,449.5,49.4z M31.6,125.5c-0.6-0.2-0.9-0.4-1.2-0.4c-8.1,0.1-16.3,0.1-24.4,0.2c-0.4,0-0.8,0.4-1.2,0.7
	c0.4,3.2,1,6.4,1.2,9.5c0.2,3.3,0,6.7,0,10.1c0,1,0,1.9,0.1,2.9c0.1,0.9,0.3,1.8,0.5,2.6c6.4,0.9,23.3,1,27.1,0.2
	c0.4-1.7,0.5-3.3-0.4-5.2c-4.8-1.1-9.8,0.1-14.5-0.9c-0.7-1.5-0.8-2.7,0.4-4c2,0,4.2,0.1,6.5,0c2.4-0.1,4.8,0.4,7.2-0.4
	c0.6-2.1,0.7-4.1-0.3-6.2c-1.7-0.1-3.3-0.2-4.8-0.2c-2.4,0-4.8,0-7.2-0.1c-2.3-0.1-2.5-0.4-2.3-3.6c2.3-0.8,4.7-0.3,7-0.5
	c2.4-0.2,4.8,0.3,7.6-0.5C32.3,127.9,31.9,126.6,31.6,125.5z M401.2,43c2.7,0,5.4,0.2,8.2,0.2c1.7,0,3.5-0.1,5.2-0.1
	c0.9-1.7,1-3.3,0.5-4.8c-4-1-23.9-1.8-27.6-1.2c-1.2,5.6-1.1,18.4,0.4,24.6c3.5,0.5,23.9-0.1,27.2-0.7c0.7-1.8,0.7-3.6-0.2-5.6
	c-4.9-0.8-9.9,0.2-14.9-0.6c0-1.1,0-1.9,0-2.9c4.9-1,9.7,0.3,14.4-0.6c0.6-1.8,0.7-3.3-0.7-4.7c-4.5-0.1-9.1-0.2-14-0.3
	C399.6,43.4,399.7,43,401.2,43z M543.5,52.7c-2.2-0.1-4.5-0.1-6.7-0.2c-2.6-0.1-5,0.4-7.4,1.3c-5.8,2.2-11.9,2.1-17.9,0.3
	c-1.5-0.4-2.9-1.4-4.1-2.3c-1.3-1-1.3-2.8,0-3.7c1.3-0.9,2.7-1.8,4.2-2.2c6-1.4,12.1-1.5,17.9,0.9c2.1,0.9,4.2,1.4,6.5,1.4
	c2.2-0.1,4.5,0,6.7,0c0.5,0,1.1-0.3,1.8-0.5c-2.7-2.5-3.6-3.2-7.2-4.2c-7.9-2.3-16-3.2-24.2-2.5c-4.3,0.4-8.6,0.8-12.7,2.5
	c-1.9,0.8-3.8,1.8-5.4,3.1c-2.4,1.9-2.4,4.5-0.1,6.6c1,1,2.2,1.9,3.5,2.5c1.9,0.9,3.8,1.7,5.8,2.3c8.4,2.6,17,2.7,25.6,1.4
	c4.1-0.6,8.1-1.7,11.9-3.6c1.1-0.5,2.4-0.9,2.6-2.4C544,53.1,543.8,52.7,543.5,52.7z M587.3,49c-1.6,0-3.2,0-4.8-0.1
	c-1.1-0.1-1.3-0.5-0.9-2.7c5.8-0.1,11.7-0.2,17.4-0.2c1.1-3.3,0.8-3.9-1.7-4c-0.3,0-0.6,0-1,0c-9.3,0.1-18.5,0.1-27.8,0.2
	c-0.9,0-1.8,0.3-2.6,0.4c-0.9,4.4-0.8,12.2,0.3,16.4c0.4,0.1,0.9,0.4,1.3,0.4c10.7-0.1,21.4-0.2,32.1-0.3c0.4,0,0.9-0.2,1.6-0.4
	c0-0.6,0.1-1.3-0.2-1.8c-0.3-0.5-1-0.9-1.5-0.9c-3.8-0.1-7.7,0-11.5-0.1c-1.6,0-3.2,0.1-4.8-0.2c-1.1-0.2-1.5-1-0.8-2.4
	c1.4,0,3-0.1,4.6-0.1c3.7,0,7.3-0.1,11-0.1c0.4,0,0.9-0.3,1.3-0.5c0.1-0.5,0.2-1,0.2-1.5c0-0.5-0.2-0.9-0.5-2
	C595,49,591.2,49,587.3,49z M75.3,51.7c0.3-2.5-0.2-5-0.2-7.5c-0.1-2.6-0.3-5.1-0.3-7.7c0-2.5,0.9-5,0.3-7.5
	c-3.7-1.1-13.9-2.4-18-2.3c-2.2,5.5-2,17.5,0,24.9C61.6,52.4,71.5,52.4,75.3,51.7z M74,82.2c0.4-3.5,0.7-7,1-10.5
	c0.1-0.9-0.1-1.8-0.2-2.7c-0.7-0.3-1.1-0.5-1.6-0.6c-4.8-0.3-9.6-0.6-14.4-0.8c-0.9,0-1.8,0.3-2.8,0.5c-0.4,4.5-0.7,8.8-1,13.1
	c0,0.6,0.1,1.2,0.1,1.8c3.2,0.9,14.5,1.4,18.2,0.8C73.6,83.3,74,82.8,74,82.2z M527.4,99.9c-2.1,0.1-3.6,0.9-4.7,2.7
	c-0.6,1-1.2,1.8-1.8,2.8c-0.9,1.6-1.1,3.3-0.3,5c0.5,1,1,1.9,1.5,2.7c5.6,1.5,10,1.8,13.2,0.9c-0.1-0.6-0.1-1.3-0.3-1.8
	c-1.5-3.3-0.6-6.2,1.1-9c0.6-1,1.1-2.2,2.1-4.1C534,99.4,530.7,99.8,527.4,99.9z M523.9,123.7c-1.7,4.2-0.9,8,1.1,11.8
	c4.3,0.2,8.5,0.5,12.9-0.2c0.3-3.7-0.2-7.2-1-11.1C532.6,123.9,528.3,123,523.9,123.7z M50.5,139.2c-0.2,1.6-0.6,3.3,0.4,5.2
	c3,0.1,6,0.2,9,0.2c3.1-0.1,6.3,0.7,9.4-0.5c0-1.7,0-3.3,0-5.1C63.2,138.1,53.7,138.2,50.5,139.2z M342,104.7
	c-0.2,0.5-0.4,0.9-0.5,1.4c0.1,0,0.3,0.1,0.4,0.1c0-0.5,0-1.1,0-1.6C341.9,104.5,342,104.7,342,104.7z M316,98
	c-0.1,0.3-0.2,0.7-0.4,1c0.1,0,0.2,0,0.4,0c-0.1-0.4-0.1-0.7-0.2-1.1C315.9,97.9,316,98,316,98z"/>
</svg>
