<?xml version="1.0" encoding="utf-8"?>
<!-- Generator: Adobe Illustrator 16.0.4, SVG Export Plug-In . SVG Version: 6.00 Build 0)  -->
<!DOCTYPE svg PUBLIC "-//W3C//DTD SVG 1.1//EN" "http://www.w3.org/Graphics/SVG/1.1/DTD/svg11.dtd">
<svg version="1.1" id="Layer_1" xmlns="http://www.w3.org/2000/svg" xmlns:xlink="http://www.w3.org/1999/xlink" x="0px" y="0px"
	 width="202.381px" height="212.693px" viewBox="0 0 202.381 212.693" enable-background="new 0 0 202.381 212.693"
	 xml:space="preserve">
<polyline points="164.878,188.753 172.591,172.443 175.315,187.062 179.56,187.062 174.199,158.88 164.908,179.166 155.972,158.843 
	150.421,187.062 154.599,187.062 157.498,172.323 164.878,188.753 "/>
<path d="M129.245,159.14l-12.826,27.974h4.882l2.273-4.986h9.403l1.082-1.903l3.133,6.892h4.877L129.245,159.14z M125.375,178.14
	l3.87-8.771l3.879,8.771H125.375z"/>
<path d="M77.962,159.14l-12.825,27.974h4.881l2.273-4.986h9.41l1.077-1.903l3.136,6.892h4.872L77.962,159.14z M74.092,178.14
	l3.871-8.771l3.877,8.771H74.092z"/>
<path d="M44.083,176.394h8.014c0,0-1.377,6.521-8.761,6.521c-5.393,0-9.644-4.472-9.676-9.812c-0.033-5.324,4.245-9.944,9.539-9.944
	c5.942,0,9.296,5.186,9.296,5.186l3.112-2.903c0,0-3.716-6.489-12.596-6.489c-7.642,0-13.85,6.584-13.85,14.088
	c0,7.578,6.231,14.053,14.197,14.053c6.577,0,13.194-4.709,13.194-12.086l0.053-2.678H44.139L44.083,176.394z"/>
<rect x="101.505" y="159.13" width="4.25" height="27.933"/>
<path d="M103.791,22.493c-33.804,0.002-61.207,27.4-61.209,61.21c0.002,33.805,27.405,61.2,61.209,61.205
	c33.806-0.005,61.205-27.399,61.207-61.205C164.996,49.895,137.595,22.495,103.791,22.493 M133.49,88.969
	c-4.407-2.511-9.123-4.199-13.47-5.344c4.441-1.157,9.211-2.839,13.461-5.28c10.082-5.888,17.742-16.179,20.463-20.117
	c3.893,7.646,6.084,16.3,6.084,25.477c0,9.085-2.15,17.656-5.973,25.25C151.39,105.01,144.019,95.045,133.49,88.969
	 M105.319,130.844c-0.508,1.395-1.016,2.653-1.486,3.756c-2.212-5.304-5.316-14.281-5.294-22.515V112l-0.001-0.018
	c0.005-6.253,1.845-13.1,3.719-18.32c0.541-1.509,1.082-2.886,1.578-4.074c2.191,5.146,5.214,13.85,5.188,22.501
	C109.028,118.882,107.188,125.738,105.319,130.844 M98.667,80.828c-5.557-0.656-14.613-2.37-22.104-6.688
	c-5.897-3.372-10.927-8.379-14.429-12.54c-0.956-1.134-1.798-2.202-2.517-3.157c5.698,0.72,15.03,2.492,22.161,6.603
	c5.453,3.106,10.509,8.132,14.125,12.379C96.946,78.646,97.874,79.802,98.667,80.828 M102.26,36.562
	c0.511-1.394,1.019-2.655,1.488-3.755c2.206,5.291,5.299,14.237,5.294,22.457c-0.002,0.029-0.002,0.057-0.002,0.086
	c0.009,6.271-1.837,13.15-3.721,18.391c-0.541,1.51-1.082,2.882-1.575,4.073c-2.193-5.146-5.214-13.851-5.188-22.497
	C98.55,48.521,100.391,41.669,102.26,36.562 M108.865,80.719c3.358-4.473,9.385-11.444,16.884-15.749
	c5.878-3.405,12.732-5.239,18.091-6.18c1.46-0.256,2.808-0.447,3.994-0.591c-3.483,4.568-9.705,11.746-16.842,15.849
	c-5.429,3.154-12.31,5-17.798,5.997C111.612,80.331,110.147,80.55,108.865,80.719 M98.739,86.687
	c-3.36,4.477-9.382,11.444-16.882,15.75c-5.881,3.406-12.735,5.239-18.094,6.181c-1.459,0.254-2.805,0.446-3.993,0.592
	c3.483-4.568,9.704-11.747,16.842-15.849c5.426-3.154,12.309-5.001,17.797-5.994C95.99,87.075,97.456,86.854,98.739,86.687
	 M108.918,86.592c5.556,0.655,14.61,2.367,22.103,6.688c5.896,3.372,10.93,8.38,14.43,12.539c0.957,1.135,1.798,2.203,2.519,3.156
	c-5.696-0.719-15.028-2.49-22.161-6.602c-5.453-3.106-10.511-8.132-14.123-12.377C110.636,88.773,109.708,87.616,108.918,86.592
	 M150.867,52.924c-4.748,0.325-17.063,1.695-27.606,7.744c-4.412,2.566-8.259,5.819-11.439,9.021
	c1.229-4.419,2.178-9.381,2.188-14.304v-0.003v-0.069c-0.054-11.664-5.117-23.432-7.171-27.771
	c14.324,0.766,27.206,6.879,36.726,16.392C146.291,46.667,148.742,49.68,150.867,52.924 M64.021,43.934
	c9.505-9.502,22.37-15.609,36.674-16.387c-2.097,4.277-7.071,15.619-7.105,27.769c0.015,5.147,0.919,10.148,2.115,14.537
	c-3.262-3.308-7.157-6.636-11.461-9.118c-10.157-5.763-22.905-7.216-27.678-7.587C58.725,49.82,61.227,46.729,64.021,43.934
	 M53.521,58.46c2.658,3.931,10.033,13.908,20.572,19.99c4.406,2.507,9.116,4.195,13.461,5.338c-4.437,1.157-9.19,2.837-13.432,5.273
	c-10.097,5.896-17.766,16.211-20.474,20.134c-3.899-7.647-6.1-16.311-6.1-25.493C47.548,74.618,49.702,66.048,53.521,58.46
	 M56.718,114.484c4.731-0.323,17.067-1.688,27.625-7.746c4.394-2.559,8.23-5.795,11.406-8.983
	c-1.228,4.418-2.172,9.376-2.178,14.298c0,0.008-0.001,0.049,0.001,0.106c0.074,11.641,5.119,23.366,7.173,27.698
	c-14.324-0.767-27.208-6.879-36.724-16.39C61.292,120.738,58.842,117.725,56.718,114.484 M143.56,123.468
	c-9.508,9.501-22.369,15.607-36.674,16.386c2.098-4.278,7.069-15.621,7.105-27.764c-0.018-5.146-0.92-10.14-2.112-14.523
	c3.263,3.307,7.155,6.637,11.459,9.121c10.146,5.754,22.882,7.209,27.664,7.582C148.845,117.593,146.349,120.676,143.56,123.468"/>
<path d="M182.414,158.562c-1.622,0-2.994,1.248-2.994,2.938c0,1.709,1.372,2.953,2.994,2.953c1.608,0,2.979-1.244,2.979-2.953
	C185.392,159.81,184.022,158.562,182.414,158.562 M182.414,163.966c-1.351,0-2.399-1.045-2.399-2.465
	c0-1.396,1.051-2.446,2.399-2.446c1.33,0,2.387,1.051,2.387,2.446C184.8,162.921,183.744,163.966,182.414,163.966 M183.769,160.775
	c0-0.67-0.396-0.965-1.199-0.965h-1.295v3.399h0.516v-1.478h0.592l0.896,1.478h0.576l-0.967-1.496
	C183.388,161.65,183.769,161.385,183.769,160.775 M181.789,161.3v-1.053h0.704c0.355,0,0.736,0.076,0.736,0.498
	c0,0.521-0.39,0.555-0.823,0.555H181.789z"/>
</svg>
