<?xml version="1.0" encoding="utf-8"?>
<!-- Generator: Adobe Illustrator 22.0.0, SVG Export Plug-In . SVG Version: 6.00 Build 0)  -->
<svg version="1.1" id="Layer_1" xmlns="http://www.w3.org/2000/svg" xmlns:xlink="http://www.w3.org/1999/xlink" x="0px" y="0px"
	 viewBox="0 0 284.9 34.6" style="enable-background:new 0 0 284.9 34.6;" xml:space="preserve">
<g>
	<path d="M70.2,19.8c0.1-4,1.6-6.1,4.5-6.1c1.3,0,2.4,0.6,3.2,1.7c0.8,1.1,1.2,2.6,1.2,4.4H70.2z M148.2,28.1
		c-1,1.7-2.5,2.6-4.4,2.6c-2.2,0-3.3-1.2-3.3-3.5c0-1.3,0.4-2.3,1.1-3c0.9-0.9,2.8-1.4,5.6-1.4h0.6c0.2,0,0.4,0,0.5,0L148.2,28.1z
		 M255.1,19.8c0.1-4,1.6-6.1,4.4-6.1c1.3,0,2.3,0.5,3.1,1.6c0.8,1.1,1.1,2.6,1.1,4.4H255.1z M61.1,2.3h-4.9V15H44.9V2.3H40v31.2h4.8
		V19h11.3v14.5h4.9V2.3z M84.1,22.4c0-4.6-1-7.9-2.9-9.8c-1.6-1.6-3.7-2.4-6.4-2.4c-2.9,0-5.2,1.1-7.1,3.2c-1.8,2.1-2.8,5-2.8,8.8
		c0,3.7,0.9,6.6,2.8,8.8c1.9,2.1,4.4,3.2,7.6,3.2c3.1,0,5.8-1,8.2-3l-1.9-2.9c-1.8,1.5-3.7,2.2-5.7,2.2c-2.2,0-3.8-0.8-4.9-2.4
		c-0.6-0.9-1-2.4-1-4.3v-0.4h13.9V22.4z M98.2,10.1c-2.2,0-4.1,1.2-5.7,3.6v-0.4c0-0.9-0.3-2-0.8-3.1l-4.5,1.2
		c0.5,1.3,0.8,3.2,0.8,5.8v16.4h4.9V18.3c0.2-1,0.6-1.8,1.3-2.5c0.7-0.7,1.7-1,3-1c0.4,0,0.9,0.1,1.4,0.3l1.5-4.6
		C99.4,10.2,98.8,10.1,98.2,10.1 M131.2,16.8c0-2.3-0.6-4.1-1.8-5.2c-1-0.9-2.4-1.4-4.2-1.4c-2.7,0-5,1.1-7,3.4
		c-1-2.3-2.8-3.4-5.4-3.4c-2.3,0-4.3,1-6.1,2.9c-0.2-1.1-0.4-2.1-0.9-2.9l-4.4,1.1c0.5,1.2,0.8,3.1,0.8,5.7v16.6h4.6V16.7
		c1.8-1.6,3.4-2.4,4.8-2.4c1,0,1.6,0.3,2,0.8c0.4,0.5,0.5,1.5,0.5,2.8v15.6h4.7V17.1c1.9-1.9,3.6-2.8,5-2.8c1.6,0,2.4,1.1,2.4,3.3
		v16h4.7V16.8z M153.1,29.5c-0.2-0.5-0.3-1.4-0.3-2.7v-0.4c0-0.2,0-0.3,0-0.3v-6.8v-1.5c0-1.8-0.1-3.2-0.4-4
		c-0.9-2.5-3.1-3.8-6.8-3.8c-2.2,0-4.2,0.4-6,1.2c-1.8,0.8-3.1,1.5-3.7,1.9l2.2,3.3c0.8-0.6,1.7-1.1,2.7-1.6
		c1.5-0.7,2.9-1.1,4.2-1.1c1.2,0,2.1,0.3,2.6,1c0.4,0.5,0.6,1.6,0.6,3.1v1.3h-1.5c-7.7,0-11.5,2.7-11.5,8c0,2.2,0.6,3.8,1.8,4.9
		c1.4,1.2,3.3,1.9,5.7,1.9c1.9,0,3.5-0.4,4.9-1.3c0.3-0.3,0.8-0.7,1.5-1.3c0.5,1.5,1.6,2.5,3.2,3.1l2.5-3.1
		C154,30.9,153.4,30.3,153.1,29.5 M176.3,16.5c0-2.1-0.6-3.6-1.7-4.7c-1.1-1.1-2.6-1.6-4.4-1.6c-2.2,0-4.6,1-6.9,3.1
		c0-1-0.3-2.1-0.8-3.1l-4.4,1.2c0.5,1.2,0.8,3,0.8,5.3v16.8h4.8V17c1.7-1.8,3.5-2.7,5.3-2.7c1,0,1.7,0.3,2,0.9
		c0.4,0.6,0.6,1.6,0.6,3.2v15.2h4.8V16.5z M210.7,2.3h-6.7L198,25.5l-6.3-23.1h-6.9l-2.9,31.2h4.6l2.1-26.3l7.1,26.3h3.7l7.2-25.8
		l2,25.8h4.7L210.7,2.3z M223.4,10.2l-4.9,0.8v22.6h4.9V10.2z M236.1,30.7h-0.3h-0.3c-1,0-1.5-0.7-1.5-2.2V6.8
		c0-3.3-0.1-5.5-0.4-6.6l-4.9,1.1c0.3,1.5,0.5,3.7,0.5,6.7v20.7c0,1.7,0.4,3,1.3,3.9c0.8,1,2,1.4,3.4,1.4c1.2,0,2.2-0.2,3-0.5
		L236.1,30.7z M223.3,1.7c-0.6-0.7-1.4-1-2.3-1c-0.9,0-1.6,0.3-2.3,1c-0.7,0.7-1,1.4-1,2.3c0,0.9,0.3,1.7,1,2.3c0.6,0.6,1.4,1,2.3,1
		c0.9,0,1.7-0.3,2.3-1c0.7-0.6,1-1.4,1-2.3C224.2,3.1,223.9,2.3,223.3,1.7 M247.2,30.6c-0.7,0.2-1.3,0-1.6-0.4
		c-0.3-0.4-0.5-1.6-0.5-3.6V6.8c0-3.3-0.1-5.5-0.4-6.6l-5,1.1c0.3,1.5,0.5,3.7,0.5,6.7v19.8c0,2.1,0.4,3.7,1.1,4.7
		c0.7,1,2,1.6,3.7,1.6c1.1,0,2.1-0.2,3-0.5L247.2,30.6z M268.8,22.4c0-4.6-1-7.9-2.9-9.8c-1.6-1.6-3.8-2.4-6.4-2.4
		c-2.8,0-5.1,1.1-7,3.2c-1.9,2.1-2.8,5-2.8,8.8c0,3.7,0.9,6.6,2.8,8.8c1.9,2.1,4.4,3.2,7.7,3.2c3.1,0,5.8-1,8.2-3l-1.9-2.9
		c-1.8,1.5-3.7,2.2-5.7,2.2c-2.2,0-3.9-0.8-4.9-2.4c-0.7-1-1-2.5-1-4.3v-0.4h13.9V22.4z M283,10.1c-2.2,0-4.2,1.2-5.8,3.6v-0.4
		c0-1.1-0.3-2.1-0.9-3.1l-4.4,1.2c0.5,1.2,0.8,3.1,0.8,5.8v16.4h4.9V18.3c0.2-1,0.6-1.8,1.3-2.5c0.7-0.7,1.7-1,3.1-1
		c0.4,0,0.9,0.1,1.4,0.3l1.5-4.6C284.2,10.2,283.5,10.1,283,10.1 M17.2,25c-3.5,0-6.7,0.4-9.6,1.3v-18H8c0.4,3.1,1,5.7,1.7,7.9
		c1.8,5.3,4.3,8,7.5,8c3.2,0,5.7-2.7,7.5-8c0.8-2.2,1.3-4.8,1.7-7.9h0.4v18C23.9,25.4,20.7,25,17.2,25 M29.4,5.1C26,1.7,22,0,17.2,0
		C12.5,0,8.4,1.7,5.1,5.1C1.7,8.4,0,12.5,0,17.2C0,22,1.7,26,5.1,29.4c3.4,3.4,7.4,5,12.2,5c4.7,0,8.8-1.7,12.1-5
		c3.4-3.4,5-7.4,5-12.1C34.4,12.5,32.7,8.4,29.4,5.1"/>
</g>
</svg>
