<?xml version="1.0" encoding="utf-8"?>
<!-- Generator: Adobe Illustrator 16.0.4, SVG Export Plug-In . SVG Version: 6.00 Build 0)  -->
<!DOCTYPE svg PUBLIC "-//W3C//DTD SVG 1.1//EN" "http://www.w3.org/Graphics/SVG/1.1/DTD/svg11.dtd">
<svg version="1.1" id="Layer_1" xmlns="http://www.w3.org/2000/svg" xmlns:xlink="http://www.w3.org/1999/xlink" x="0px" y="0px"
	 width="392px" height="107px" viewBox="0 0 392 107" enable-background="new 0 0 392 107" xml:space="preserve">
<polygon fill="#231F20" points="58.706,34.47 58.706,72.612 49.143,72.612 49.143,56.35 34.453,56.35 34.453,72.612 24.836,72.612 
	24.836,34.47 34.453,34.47 34.453,48.247 49.143,48.247 49.143,34.47 "/>
<g>
	<path fill="#231F20" d="M80.234,44.41h8.32v28.203h-8.32v-2.702c-0.811,0.918-1.297,1.459-2.809,2.215
		c-1.675,0.865-3.512,1.297-5.349,1.297s-5.241-0.271-7.186-2.972c-1.458-2.053-1.728-3.729-1.728-8.319V44.41h8.374v17.504
		c0,1.243,0,2.486,0.648,3.351c0.486,0.647,1.621,1.404,3.296,1.404c0.486,0,1.621,0,2.863-0.702
		c1.783-1.081,1.837-2.485,1.891-3.998V44.41z"/>
	<path fill="#231F20" d="M96.327,63.104c2.269,2.215,5.078,3.889,8.212,3.889c1.999,0,5.025-0.648,5.025-2.755
		c0-0.972-0.595-1.35-1.081-1.621c-1.243-0.648-3.188-0.809-4.808-1.081c-1.243-0.216-2.54-0.485-3.782-0.864
		c-1.73-0.485-3.458-1.187-4.701-2.431c-1.242-1.242-2.107-3.188-2.107-5.294c0-4.647,3.998-9.455,11.886-9.455
		c6.646,0,10.643,2.863,12.588,4.214l-5.132,4.754c-2.647-2.053-5.133-2.809-7.078-2.809c-3.241,0-3.998,1.297-3.998,2.107
		c0,1.62,1.783,1.945,4.485,2.432c5.672,1.026,12.264,2.539,12.264,9.238c0,6.645-6.699,9.887-13.345,9.887
		c-7.834,0-11.886-3.783-13.669-5.457L96.327,63.104z"/>
	<path fill="#231F20" d="M129.716,34.416v12.966c1.188-1.188,3.62-3.727,8.104-3.727c2.053,0,4.322,0.594,5.997,1.999
		c2.485,2.106,2.917,4.754,2.917,8.427v18.533h-8.266v-14.75c0-2.27-0.054-3.35-0.378-4.323c-0.81-2.539-3.026-2.809-3.89-2.809
		c-1.459,0-2.702,0.703-3.404,1.621c-1.08,1.458-1.08,3.782-1.08,6.213v14.048h-8.32V34.416H129.716z"/>
	<path fill="#231F20" d="M163.697,72.613h9.563V60.132h6.321c5.187-0.108,12.21-0.269,15.506-7.077
		c0.864-1.783,1.296-3.836,1.296-5.943c0-2.594-0.702-5.673-2.161-7.834c-3.349-4.808-8.914-4.808-15.182-4.808h-15.343V72.613z
		 M179.312,41.493c2.755,0,7.564,0,7.564,5.565c0,5.889-4.322,5.997-7.888,5.997h-5.727V41.493H179.312z"/>
	<path fill="#231F20" d="M215.955,44.41h8.32v28.203h-8.32v-2.702c-0.81,0.918-1.297,1.459-2.809,2.215
		c-1.676,0.865-3.513,1.297-5.35,1.297s-5.241-0.271-7.185-2.972c-1.459-2.053-1.729-3.729-1.729-8.319V44.41h8.373v17.504
		c0,1.243,0,2.486,0.649,3.351c0.485,0.647,1.621,1.404,3.297,1.404c0.485,0,1.62,0,2.863-0.702c1.781-1.081,1.837-2.485,1.89-3.998
		V44.41z"/>
	<path fill="#231F20" d="M236.146,44.518h-7.4v37.874h8.374V70.774c2.214,1.353,3.835,2.377,6.969,2.377
		c9.671,0,12.21-8.967,12.21-14.748c0-9.401-5.349-14.642-12.265-14.642c-3.133,0-5.672,1.135-7.076,2.485
		c-0.271,0.27-0.541,0.595-0.812,0.919V44.518z M243.872,49.813c3.403,0.865,4.431,4.808,4.431,8.536
		c0,4.43-1.783,8.808-5.836,8.808c-1.352,0-2.755-0.596-3.728-1.622c-1.081-1.189-2-3.403-2-6.969c0-2.647,0.541-5.079,1.729-6.646
		c1.188-1.621,2.756-2.269,4.268-2.269C243.114,49.651,243.494,49.706,243.872,49.813"/>
	<path fill="#231F20" d="M266.888,44.518h-7.402v37.874h8.374V70.774c2.215,1.353,3.836,2.377,6.969,2.377
		c9.671,0,12.21-8.967,12.21-14.748c0-9.401-5.349-14.642-12.264-14.642c-3.133,0-5.673,1.135-7.078,2.485
		c-0.269,0.27-0.54,0.595-0.809,0.919V44.518z M274.612,49.813c3.403,0.865,4.43,4.808,4.43,8.536c0,4.43-1.781,8.808-5.835,8.808
		c-1.351,0-2.755-0.596-3.727-1.622c-1.081-1.189-1.999-3.403-1.999-6.969c0-2.647,0.54-5.079,1.729-6.646
		c1.189-1.621,2.755-2.269,4.268-2.269C273.855,49.651,274.233,49.706,274.612,49.813"/>
</g>
<rect x="290.495" y="44.356" fill="#231F20" width="8.212" height="28.257"/>
<g>
	<path fill="#231F20" d="M324.508,62.239c-1.026,1.999-2.595,4.97-7.133,4.97c-4.483,0-6.482-3.511-6.429-7.021h20.151
		c-0.107-3.189-0.323-8.7-3.997-12.643c-3.619-3.891-8.482-4.052-10.158-4.052c-11.129,0-14.478,8.752-14.478,15.559
		c0,9.238,5.89,14.587,14.263,14.587c4.538,0,8.212-1.728,10.643-3.998c1.459-1.351,2.432-2.755,3.404-4.214L324.508,62.239z
		 M311,55c0.271-1.189,0.541-2.485,1.676-3.728c0.811-0.865,2.216-1.837,4.215-1.837c1.458,0,3.023,0.541,4.051,1.566
		c1.189,1.244,1.405,2.81,1.567,3.999H311z"/>
	<path fill="#231F20" d="M337.637,63.104c2.27,2.215,5.078,3.889,8.213,3.889c1.999,0,5.023-0.648,5.023-2.755
		c0-0.972-0.594-1.35-1.08-1.621c-1.243-0.648-3.188-0.809-4.809-1.081c-1.242-0.216-2.538-0.485-3.781-0.864
		c-1.729-0.485-3.458-1.187-4.701-2.431c-1.242-1.242-2.107-3.188-2.107-5.294c0-4.647,4-9.455,11.887-9.455
		c6.646,0,10.643,2.863,12.588,4.214l-5.133,4.754c-2.647-2.053-5.131-2.809-7.076-2.809c-3.243,0-3.999,1.297-3.999,2.107
		c0,1.62,1.783,1.945,4.484,2.432c5.674,1.026,12.265,2.539,12.265,9.238c0,6.645-6.699,9.887-13.345,9.887
		c-7.833,0-11.887-3.783-13.669-5.457L337.637,63.104z"/>
	<path fill="#231F20" d="M299.148,37.859c0,2.278-2.017,4.126-4.503,4.126c-2.485,0-4.502-1.848-4.502-4.126
		c0-2.28,2.017-4.127,4.502-4.127C297.132,33.732,299.148,35.58,299.148,37.859"/>
	<path fill="#231F20" d="M371.443,42.935c-0.014,2.431-1.904,4.362-4.377,4.362c-2.417,0-4.376-1.918-4.376-4.376
		c0-2.404,1.919-4.377,4.391-4.377C369.581,38.544,371.457,40.544,371.443,42.935 M371.876,42.948
		c0.014-2.633-2.026-4.836-4.822-4.836c-2.592,0-4.796,2.04-4.796,4.809c0,2.85,2.297,4.808,4.796,4.808
		C369.769,47.729,371.862,45.608,371.876,42.948 M364.92,39.813v6.133h1.283v-2.661c1.337,0,1.404,0.068,1.594,1.325
		c0.068,0.485,0.135,0.944,0.325,1.336h1.471c-0.298-0.553-0.377-1.107-0.5-1.864c-0.134-0.878-0.405-1.026-0.77-1.216
		c0.217-0.081,1.161-0.377,1.161-1.445c0-0.553-0.296-1.215-1.04-1.459c-0.392-0.135-0.81-0.135-1.432-0.149H364.92z M366.203,40.8
		h0.959c0.363,0,1.04,0,1.04,0.703c0,0.769-0.758,0.757-1.229,0.757h-0.77V40.8z"/>
</g>
</svg>
