<?xml version="1.0" encoding="utf-8"?>
<!-- Generator: Adobe Illustrator 16.0.4, SVG Export Plug-In . SVG Version: 6.00 Build 0)  -->
<!DOCTYPE svg PUBLIC "-//W3C//DTD SVG 1.1//EN" "http://www.w3.org/Graphics/SVG/1.1/DTD/svg11.dtd">
<svg version="1.1" id="Layer_1" xmlns="http://www.w3.org/2000/svg" xmlns:xlink="http://www.w3.org/1999/xlink" x="0px" y="0px"
	 width="392px" height="107px" viewBox="0 0 392 107" enable-background="new 0 0 392 107" xml:space="preserve">
<polygon points="58.706,34.47 58.706,72.611 49.143,72.611 49.143,56.35 34.453,56.35 34.453,72.611 24.836,72.611 24.836,34.47 
	34.453,34.47 34.453,48.247 49.143,48.247 49.143,34.47 "/>
<g>
	<path d="M80.234,44.41h8.32v28.203h-8.32v-2.702c-0.811,0.918-1.297,1.459-2.809,2.215c-1.675,0.865-3.512,1.297-5.349,1.297
		s-5.241-0.271-7.186-2.972c-1.458-2.053-1.728-3.729-1.728-8.319V44.41h8.374v17.504c0,1.243,0,2.486,0.648,3.352
		c0.486,0.646,1.621,1.403,3.296,1.403c0.486,0,1.621,0,2.863-0.702c1.783-1.081,1.837-2.484,1.891-3.998V44.41z"/>
	<path d="M96.327,63.104c2.269,2.215,5.078,3.89,8.212,3.89c1.999,0,5.025-0.648,5.025-2.755c0-0.973-0.595-1.35-1.081-1.621
		c-1.243-0.648-3.188-0.809-4.808-1.081c-1.243-0.216-2.54-0.485-3.782-0.864c-1.73-0.484-3.458-1.188-4.701-2.431
		c-1.242-1.242-2.107-3.188-2.107-5.294c0-4.647,3.998-9.455,11.886-9.455c6.646,0,10.643,2.863,12.588,4.214l-5.132,4.754
		c-2.647-2.053-5.133-2.809-7.078-2.809c-3.241,0-3.998,1.297-3.998,2.107c0,1.62,1.783,1.945,4.485,2.432
		c5.672,1.026,12.264,2.539,12.264,9.238c0,6.646-6.699,9.887-13.345,9.887c-7.834,0-11.886-3.782-13.669-5.457L96.327,63.104z"/>
	<path d="M129.716,34.416v12.966c1.188-1.188,3.62-3.727,8.104-3.727c2.053,0,4.322,0.594,5.997,1.999
		c2.485,2.106,2.917,4.754,2.917,8.427v18.533h-8.266v-14.75c0-2.271-0.054-3.351-0.378-4.323c-0.81-2.539-3.026-2.809-3.89-2.809
		c-1.459,0-2.702,0.703-3.404,1.621c-1.08,1.458-1.08,3.782-1.08,6.213v14.048h-8.32V34.416H129.716z"/>
	<path d="M163.697,72.613h9.562V60.132h6.321c5.187-0.108,12.21-0.269,15.506-7.077c0.864-1.783,1.296-3.836,1.296-5.943
		c0-2.594-0.702-5.673-2.161-7.834c-3.349-4.808-8.914-4.808-15.182-4.808h-15.343V72.613z M179.312,41.493
		c2.755,0,7.564,0,7.564,5.565c0,5.889-4.322,5.997-7.888,5.997h-5.727V41.493H179.312z"/>
	<path d="M215.955,44.41h8.32v28.203h-8.32v-2.702c-0.811,0.918-1.297,1.459-2.809,2.215c-1.677,0.865-3.514,1.297-5.351,1.297
		s-5.241-0.271-7.185-2.972c-1.459-2.053-1.729-3.729-1.729-8.319V44.41h8.373v17.504c0,1.243,0,2.486,0.649,3.352
		c0.484,0.646,1.621,1.403,3.297,1.403c0.484,0,1.619,0,2.863-0.702c1.78-1.081,1.836-2.484,1.89-3.998L215.955,44.41L215.955,44.41
		z"/>
	<path d="M236.146,44.518h-7.4v37.875h8.374V70.773c2.214,1.354,3.835,2.377,6.969,2.377c9.671,0,12.21-8.967,12.21-14.748
		c0-9.4-5.349-14.642-12.265-14.642c-3.134,0-5.673,1.135-7.076,2.485c-0.271,0.27-0.541,0.595-0.812,0.919V44.518z M243.872,49.813
		c3.403,0.865,4.431,4.808,4.431,8.537c0,4.43-1.783,8.808-5.836,8.808c-1.352,0-2.755-0.597-3.728-1.622
		c-1.081-1.189-2-3.403-2-6.969c0-2.647,0.54-5.08,1.729-6.646c1.188-1.621,2.757-2.269,4.269-2.269
		C243.114,49.651,243.494,49.706,243.872,49.813"/>
	<path d="M266.889,44.518h-7.402v37.875h8.373V70.773c2.216,1.354,3.836,2.377,6.97,2.377c9.671,0,12.21-8.967,12.21-14.748
		c0-9.4-5.35-14.642-12.264-14.642c-3.133,0-5.674,1.135-7.078,2.485c-0.27,0.27-0.541,0.595-0.809,0.919V44.518L266.889,44.518z
		 M274.611,49.813c3.404,0.865,4.431,4.808,4.431,8.537c0,4.43-1.781,8.808-5.835,8.808c-1.352,0-2.755-0.597-3.727-1.622
		c-1.082-1.189-2-3.403-2-6.969c0-2.647,0.541-5.08,1.729-6.646c1.188-1.621,2.755-2.269,4.269-2.269
		C273.855,49.651,274.232,49.706,274.611,49.813"/>
</g>
<rect x="290.495" y="44.356" width="8.212" height="28.257"/>
<g>
	<path d="M324.508,62.239c-1.025,1.999-2.595,4.97-7.133,4.97c-4.482,0-6.482-3.511-6.429-7.021h20.151
		c-0.107-3.188-0.324-8.7-3.998-12.643c-3.619-3.891-8.481-4.052-10.158-4.052c-11.129,0-14.478,8.752-14.478,15.559
		c0,9.238,5.89,14.587,14.263,14.587c4.539,0,8.213-1.728,10.644-3.998c1.459-1.351,2.432-2.755,3.403-4.214L324.508,62.239z
		 M311,55c0.271-1.189,0.541-2.485,1.676-3.728c0.811-0.865,2.217-1.837,4.215-1.837c1.459,0,3.023,0.541,4.051,1.566
		c1.189,1.244,1.406,2.81,1.567,3.999H311z"/>
	<path d="M337.637,63.104c2.271,2.215,5.078,3.89,8.213,3.89c2,0,5.023-0.648,5.023-2.755c0-0.973-0.594-1.35-1.08-1.621
		c-1.243-0.648-3.188-0.809-4.809-1.081c-1.242-0.216-2.538-0.485-3.781-0.864c-1.729-0.484-3.458-1.188-4.701-2.431
		c-1.242-1.242-2.107-3.188-2.107-5.294c0-4.647,4-9.455,11.888-9.455c6.646,0,10.643,2.863,12.588,4.214l-5.133,4.754
		c-2.647-2.053-5.132-2.809-7.076-2.809c-3.243,0-3.999,1.297-3.999,2.107c0,1.62,1.783,1.945,4.484,2.432
		c5.674,1.026,12.265,2.539,12.265,9.238c0,6.646-6.699,9.887-13.345,9.887c-7.834,0-11.887-3.782-13.67-5.457L337.637,63.104z"/>
	<path d="M299.148,37.859c0,2.278-2.018,4.126-4.504,4.126c-2.484,0-4.502-1.848-4.502-4.126c0-2.28,2.018-4.127,4.502-4.127
		C297.132,33.732,299.148,35.58,299.148,37.859"/>
	<path d="M371.443,42.935c-0.015,2.431-1.904,4.362-4.377,4.362c-2.418,0-4.377-1.918-4.377-4.376c0-2.404,1.92-4.377,4.392-4.377
		C369.581,38.544,371.457,40.544,371.443,42.935 M371.876,42.948c0.015-2.633-2.026-4.836-4.821-4.836
		c-2.593,0-4.797,2.04-4.797,4.809c0,2.85,2.297,4.808,4.797,4.808C369.77,47.729,371.861,45.608,371.876,42.948 M364.92,39.813
		v6.133h1.283v-2.661c1.337,0,1.404,0.068,1.594,1.325c0.068,0.485,0.135,0.944,0.325,1.336h1.471
		c-0.298-0.553-0.377-1.107-0.5-1.864c-0.134-0.878-0.405-1.026-0.77-1.216c0.217-0.081,1.161-0.377,1.161-1.445
		c0-0.553-0.297-1.215-1.041-1.459c-0.392-0.135-0.81-0.135-1.432-0.149H364.92z M366.203,40.8h0.959c0.363,0,1.04,0,1.04,0.703
		c0,0.769-0.759,0.757-1.229,0.757h-0.77V40.8z"/>
</g>
</svg>
