<?xml version="1.0" encoding="utf-8"?>
<!-- Generator: Adobe Illustrator 16.0.4, SVG Export Plug-In . SVG Version: 6.00 Build 0)  -->
<!DOCTYPE svg PUBLIC "-//W3C//DTD SVG 1.1//EN" "http://www.w3.org/Graphics/SVG/1.1/DTD/svg11.dtd">
<svg version="1.1" id="Layer_1" xmlns="http://www.w3.org/2000/svg" xmlns:xlink="http://www.w3.org/1999/xlink" x="0px" y="0px"
	 width="451px" height="120px" viewBox="0 0 451 120" enable-background="new 0 0 451 120" xml:space="preserve">
<g>
	<path fill="#231F20" d="M274.945,35.824h22.381v54.102h8.699V35.824h21.783v-7.58h-52.863V35.824z M356.784,28.244v7.58h22.563
		v54.102h8.691V35.824h22.789v-7.58H356.784z M142.988,59.655l-20.236-31.42h-9.668l25.292,40.311v21.387h8.694V68.305
		l24.794-40.071h-9.298L142.988,59.655z M191.005,89.926h8.449l6.906-13.804h31.223l6.749,13.804h9.068l-31.257-63.889
		L191.005,89.926z M210.756,67.297l11.377-22.752l11.149,22.752H210.756z"/>
</g>
<g>
	<polygon fill="#231F20" points="72.978,56.702 40.339,56.702 40.339,28.233 31.655,28.233 31.655,89.933 40.339,89.933 
		40.339,64.291 72.978,64.291 72.978,89.933 81.684,89.933 81.684,28.233 72.978,28.233 	"/>
	<path fill="#231F20" d="M425.438,28.287c-3.361-0.018-5.923,2.489-5.933,5.831c-0.022,3.32,2.514,5.839,5.882,5.856
		c3.361,0.01,6.008-2.537,6.022-5.804C431.42,30.885,428.804,28.296,425.438,28.287 M425.39,38.967
		c-2.808-0.012-4.765-1.997-4.75-4.819c0.009-2.904,1.942-4.845,4.791-4.831c2.912,0.01,4.854,1.972,4.845,4.876
		C430.259,37.017,428.25,38.984,425.39,38.967"/>
</g>
<g>
	<path fill="#231F20" d="M428.333,37.275c-0.54-0.631-1.865-2.186-2.123-2.501c1.11-0.207,1.646-0.828,1.646-1.888
		c-0.005-1.339-0.857-1.961-2.691-1.961h-1.974v6.426h0.979v-5.563h0.964c1.329,0,1.732,0.259,1.739,1.105
		c-0.007,0.845-0.411,1.099-1.739,1.099h-0.702l2.712,3.336l0.015,0.023h1.234L428.333,37.275z"/>
</g>
</svg>
