<svg xmlns="http://www.w3.org/2000/svg" viewBox="0 0 500 112">
  <defs/>
  <path d="M9 42.1h4.9V70H9V42.1zm20.4 0V70h4.8V50.2l15.4 19.9h4.1v-28h-4.8v19.3l-15-19.3h-4.5zm37.3 0v4.5h8.9V70h4.9V46.7h8.9v-4.5H66.7zm35.8 0V70h20.9v-4.4h-16v-7.5h14v-4.4h-14v-7.3h15.8V42h-20.7zm34.7 0V70h4.9v-9.7h6.1l6.9 9.7h5.8l-7.5-10.6c3.9-1.1 6.7-3.9 6.7-8.5 0-5.5-4-8.9-10.4-8.9l-12.5.1zm17.9 9.2c0 2.9-2.2 4.7-5.7 4.7h-7.2v-9.4h7.1c3.6 0 5.8 1.6 5.8 4.7m19.2-9.2h4.9V70h-4.9V42.1zm19.1 14c0 7.9 6 14.4 14.6 14.4s14.7-6.6 14.7-14.5-6-14.4-14.6-14.4c-8.6.1-14.7 6.6-14.7 14.5m24.1 0c0 5.5-3.9 9.9-9.4 9.9s-9.5-4.5-9.5-10 3.9-9.9 9.4-9.9c5.6.1 9.5 4.6 9.5 10m18.4-14V70h4.9v-9.7h6.1l6.9 9.7h5.8L252 59.5c3.9-1.1 6.7-3.9 6.7-8.5 0-5.5-4-8.9-10.4-8.9h-12.4zm17.8 9.2c0 2.9-2.2 4.7-5.7 4.7h-7.2v-9.4h7.1c3.6 0 5.8 1.6 5.8 4.7m47.9-9.2V70H312c8.8 0 14.8-6.1 14.8-14s-6.1-13.9-14.8-13.9h-10.4zm20.1 14c0 5.5-3.8 9.5-9.7 9.5h-5.5v-19h5.5c5.9 0 9.7 4 9.7 9.5m18.4-14V70H361v-4.4h-16v-7.5h14v-4.4h-14v-7.3h15.8V42h-20.7zm34.7 0V70h4.9V58.7h14.1v-4.5h-14.1v-7.6h15.9v-4.5h-20.8zm34.4 0h4.9V70h-4.9V42.1zm20.4 0V70h4.8V50.2l15.4 19.9h4.1v-28h-4.8v19.3l-15-19.3h-4.5zm39.5 0V70H490v-4.4h-16v-7.5h14v-4.4h-14v-7.3h15.8V42h-20.7z"/>
</svg>
