<svg id="Layer_1" data-name="Layer 1" xmlns="http://www.w3.org/2000/svg" viewBox="0 0 600 600"><title>ID_logo_stacked</title><rect x="104.21" y="228.49" width="7.67" height="43.67"/><polygon points="136.01 228.49 136.01 272.16 143.56 272.16 143.56 241.1 167.63 272.16 174.06 272.16 174.06 228.49 166.51 228.49 166.51 258.69 143.12 228.49 136.01 228.49"/><polygon points="194.33 228.49 194.33 235.6 208.17 235.6 208.17 272.16 215.91 272.16 215.91 235.6 229.75 235.6 229.75 228.49 194.33 228.49"/><polygon points="250.32 228.49 250.32 272.16 283 272.16 283 265.29 257.99 265.29 257.99 253.56 279.88 253.56 279.88 246.71 257.99 246.71 257.99 235.36 282.69 235.36 282.69 228.49 250.32 228.49"/><path d="M304.57,228.49v43.67h7.67V256.93h9.6l10.73,15.23h9.05l-11.79-16.54c6.11-1.68,10.42-6.05,10.42-13.28,0-8.56-6.18-13.85-16.23-13.85Zm27.88,14.29c0,4.49-3.49,7.35-9,7.35H312.24V235.48h11.17c5.67,0,9,2.49,9,7.3"/><rect x="362.56" y="228.49" width="7.66" height="43.67"/><path d="M392.42,250.39c0,12.35,9.36,22.51,22.77,22.51a22.38,22.38,0,0,0,22.89-22.63c0-12.36-9.35-22.53-22.77-22.53a22.39,22.39,0,0,0-22.89,22.65m37.61,0c0,8.55-6,15.46-14.72,15.46s-14.84-7-14.84-15.58,6-15.48,14.72-15.48S430,241.84,430,250.39"/><path d="M458.74,228.49v43.67h7.67V256.93H476l10.73,15.23h9L484,255.62c6.12-1.68,10.42-6.05,10.42-13.28,0-8.56-6.18-13.85-16.22-13.85Zm27.88,14.29c0,4.49-3.49,7.35-9,7.35H466.41V235.48h11.17c5.67,0,9,2.49,9,7.3"/><path d="M152.77,301.33V345h16.28c13.72,0,23.2-9.55,23.2-21.89s-9.48-21.78-23.2-21.78Zm31.43,21.9c0,8.61-6,14.78-15.15,14.78h-8.61V308.33h8.61c9.17,0,15.15,6.29,15.15,14.9"/><polygon points="212.96 301.33 212.96 345 245.65 345 245.65 338.14 220.63 338.14 220.63 326.41 242.53 326.41 242.53 319.55 220.63 319.55 220.63 308.2 245.33 308.2 245.33 301.33 212.96 301.33"/><polygon points="267.2 301.33 267.2 345 274.88 345 274.88 327.22 296.91 327.22 296.91 320.23 274.88 320.23 274.88 308.33 299.71 308.33 299.71 301.33 267.2 301.33"/><rect x="321.02" y="301.33" width="7.67" height="43.67"/><polygon points="352.82 301.33 352.82 345 360.37 345 360.37 313.94 384.44 345 390.87 345 390.87 301.33 383.32 301.33 383.32 331.53 359.93 301.33 352.82 301.33"/><polygon points="414.55 301.33 414.55 345 447.23 345 447.23 338.14 422.22 338.14 422.22 326.41 444.12 326.41 444.12 319.55 422.22 319.55 422.22 308.2 446.92 308.2 446.92 301.33 414.55 301.33"/></svg>