<svg xmlns="http://www.w3.org/2000/svg" viewBox="0 0 500 112">
  <defs/>
  <path d="M5 46.5h4.1v23.6H5V46.5zm17.2 0v23.6h4.1V53.4l13 16.8h3.5V46.5h-4.1v16.3L26 46.5h-3.8zm31.5 0v3.8h7.5v19.8h4.1V50.4h7.5v-3.8l-19.1-.1zm30.2 0v23.6h17.6v-3.7H88.1V60h11.8v-3.7H88.1v-6.2h13.3v-3.7l-17.5.1zm29.3 0v23.6h4.1v-8.2h5.2l5.8 8.2h4.9l-6.3-8.9c3.3-.9 5.7-3.3 5.7-7.2 0-4.6-3.4-7.5-8.8-7.5h-10.6zm15.2 7.8c0 2.4-1.9 4-4.8 4h-6.1v-7.9h6c3-.1 4.9 1.3 4.9 3.9m16.2-7.8h4.1v23.6h-4.1V46.5zm16.1 11.8c0 6.7 5.1 12.2 12.3 12.2s12.4-5.6 12.4-12.2-5.1-12.2-12.3-12.2c-7.3.1-12.4 5.6-12.4 12.2m20.3 0c0 4.6-3.3 8.4-7.9 8.4-4.6 0-8-3.8-8-8.4s3.3-8.4 7.9-8.4c4.7.1 8 3.9 8 8.4m15.6-11.8v23.6h4.1v-8.2h5.2l5.8 8.2h4.9l-6.4-8.9c3.3-.9 5.7-3.3 5.7-7.2 0-4.6-3.4-7.5-8.8-7.5h-10.5zm15 7.8c0 2.4-1.9 4-4.8 4h-6.1v-7.9h6c3-.1 4.9 1.3 4.9 3.9m40.4-7.8v23.6h8.8c7.4 0 12.5-5.2 12.5-11.8s-5.2-11.7-12.5-11.7H252v-.1zm17 11.8c0 4.6-3.2 8-8.2 8h-4.6v-16h4.6c5 0 8.2 3.4 8.2 8m15.5-11.8v23.6h17.6v-3.7h-13.5V60h11.8v-3.7h-11.8v-6.2H302v-3.7l-17.5.1zm29.3 0v23.6h4.1v-9.5h11.9v-3.8H318v-6.4h13.4v-3.8c0-.1-17.6-.1-17.6-.1zm29.1 0h4.1v23.6h-4.1V46.5zm17.2 0v23.6h4.1V53.4l13 16.8h3.5V46.5h-4.1v16.3l-12.7-16.3h-3.8zm33.4 0v23.6h17.6v-3.7h-13.5V60h11.8v-3.7h-11.8v-6.2h13.3v-3.7l-17.4.1z"/>
</svg>
