<?xml version="1.0" encoding="utf-8"?>
<!-- Generator: Adobe Illustrator 16.0.4, SVG Export Plug-In . SVG Version: 6.00 Build 0)  -->
<!DOCTYPE svg PUBLIC "-//W3C//DTD SVG 1.1//EN" "http://www.w3.org/Graphics/SVG/1.1/DTD/svg11.dtd">
<svg version="1.1" id="Layer_1" xmlns="http://www.w3.org/2000/svg" xmlns:xlink="http://www.w3.org/1999/xlink" x="0px" y="0px"
	 width="1187.885px" height="511.943px" viewBox="-631.385 -136.443 1187.885 511.943"
	 enable-background="new -631.385 -136.443 1187.885 511.943" xml:space="preserve">
<g>
	<path d="M-125.826,121.142c-15.368,0-23.89,2.521-34.268,13.736c-4.831,5.183-8.465,11.504-10.205,18.106
		c13.263-0.281,67.756,0.602,81.256-1.919C-92.805,138.781-106.772,121.142-125.826,121.142z"/>
	<path d="M380.289,108.684c-0.179,2.266,0.18,4.006,0.384,5.842C388.927,115.485,387.493,107.814,380.289,108.684z"/>
	<path d="M422.594-88.902h-920.084c-12.969,0-23.583,10.615-23.583,23.583v369.707c0,12.963,10.614,23.571,23.583,23.571h920.084
		c12.975,0,23.596-10.608,23.596-23.571V-65.318C446.189-78.287,435.568-88.902,422.594-88.902z M-208.732,259.986
		c-3.717,1.305-7.416-0.358-11.715-0.461c-4.268-0.09-8.426,0.23-12.905,0.205c-9.028-0.025-18.478-0.896-26.354-0.614
		c-5.566,0.179-13.743,2.034-19.098-0.23c-2.399-0.998-5.362-5.938-8.427-9.674c-2.988-3.608-7.287-8.65-9.45-11.479
		c-13.481-17.671-26.418-32.783-40.385-50.353c-1.286-1.625-17.595-21.549-22.643-27.025c-4.952-5.375-8.925-11.785-13.468-16.865
		c-0.25-0.282-0.736,0.076-0.736,0.512c0.147,26.155-0.39,57.864,0,86.003c0.051,3.659,0.051,20.576-0.115,25.707
		c-0.096,4.479-10.199,4.799-14.639,4.121c-10.602,1.216-28.472,0-31.581-0.205c-2.905-0.025-9.066-0.358-8.215-3.608
		c-0.576-15.406,0.326-38.338-0.141-67.986c-0.301-19.22-0.262-69.867-0.039-76.182c0.192-5.566-0.396-93.611-0.224-113.618
		c0.025-4.166-0.147-8.331-0.173-12.418c-0.167-4.338-0.902-9.713,1.536-10.403c1.401-0.186,52.566-2.349,53.59,1.228
		c0,0,0.448,1.011,0.173,3.75c0.038,0.103-1.261,66.406,0.013,93.086c14.415-14.767,27.633-28.907,44.927-46.06
		c3.884-3.839,7.915-7.979,12.214-12.067c8.388-8.01,15.029-15.566,23.891-24.665c3.551-3.653,10.627-13.692,14.082-14.754
		c4.287-1.305,16.117-0.179,20.794-0.013c5.624,0.186,20.09-0.301,21.689-0.339c4.978-0.128,26.143-1.254,29.061,1.427
		c2.009,1.849-5.842,7.416-8.631,10.128c-10.985,10.672-22.092,22.675-33.571,33.603c-6.711,6.379-15.24,13.391-21.401,20.948
		c-5.304,6.526-13.033,12.438-19.329,18.899c-1.356,1.389-2.354,3.026-3.544,4.191c-13.174,12.905-27.205,27.07-40.372,40.8
		c7.703,8.964,41.651,50.354,45.478,55.012c3.852,4.683,8.062,9.674,12.08,14.344c7.787,9.086,14.773,17.646,22.316,27.525
		c3.25,4.273,13.916,16.199,15.791,18.861c0.685,0.973,9.315,12.156,13.18,16.021c4.626,4.632,9.7,11.171,14.351,16.354
		C-209.519,255.034-205.783,257.875-208.732,259.986z M-32.823,174.508c-0.103,3.659-0.229,8.215-1.894,11.517
		c-1.484,1.817-4.734,1.126-6.68,1.151c-29.239,0.563-97.392,0.666-102.459,0.563c-9.936-0.243-24.939-1.638-25.081,0.946
		c0.141,8.445,7.14,24.799,21.242,31.734c11.855,5.861,26.981,5.183,39.399-0.332c1.574-0.717,12.739-5.195,17.077-15.663
		c9.143,0,52.164-0.946,53.955-0.243c3.34,1.306-8.266,25.798-14.165,32.644c-11.567,13.41-31.798,20.704-35.298,22.176
		c-3.142,1.344-6.354,1.933-11.542,2.981c-12.502,2.47-30.992,3.225-46.687,0.896c-9.2-1.356-22.444-3.378-40.532-11.772
		c-9.604-4.479-16.52-13.436-22.886-22.572c-7.773-11.158-13.551-26.386-16.091-43.148c-2.073-13.718-0.583-32.362,3.314-44.851
		c2.764-8.855,4.69-15.695,9.239-22.982c1.177-1.862,27.947-35.721,59.381-40.187c6.264-0.889,13.129-1.612,19.104-1.74
		c25.759-0.512,36.636,3.314,49.048,10.02c6.801,3.686,9.764,5.739,15.081,11.012c2.348,2.328,4.779,4.439,7.23,6.73
		c9.162,8.573,14.479,14.05,19.84,26.181c2.738,6.271,4.939,10.646,6.551,18.247C-34.358,154.072-32.618,166.855-32.823,174.508z
		 M179.133,258.284c-0.793,6.065-45.938,3.929-47.218,2.405c-5.271-6.27-10.007-17.006-10.007-17.006
		c-4.85,2.994-9.366,6.68-14.843,9.866c-2.304,1.317-17.966,14.127-61.038,9.994c-6.68-0.641-27.87-12.157-32.81-16.06
		c-8.586-6.82-27.64-34.984-30.046-61.102c-2.06-22.483,0.32-41.357,0.896-45.068c0.921-6.117,16.341-51.019,47.896-59.976
		c8.65-2.47,14.601-5.745,26.232-6.539c11.12-0.774,24.838,0.953,33.487,3.263c11.517,3.064,24.748,13.584,29.752,16.635
		c-0.142-18.797,0.319-78.945-0.192-102.017c-0.141-5.912-0.896-14.824,1.331-15.816c2.917-1.324,54.793-3.174,55.113,0.915
		C178.327-5.932,179.696,254.074,179.133,258.284z M341.068,236.62c-9.047,12.554-27.498,25.58-46.04,27.563
		c-25.247,2.738-44.633-5.042-47.5-6.193c-13.218-5.298-22.61-10.672-33.563-19.604c-3.225-2.637-10.417-6.719-10.852-10.34
		c-0.384-3.25,3.174-9.238,5.17-12.399c2.213-3.519,5.399-6.616,7.754-9.802c2.073-2.828,4.274-6.526,7.243-10.326
		c1.906-2.483,6.603-7.537,9.29-7.755c3.839-0.308,10.173,6.181,13.935,8.791c2.444,1.688,10.301,8.292,12.374,9.789
		c5.4,3.902,22.201,12.949,27.384,12.412c7.191-0.768,11.875-8.932,10.313-14.997c-1.023-4.095-3.992-4.76-8.24-7.217
		c-3.033-1.766-18.184-8.6-22.727-10.852c-3.826-1.894-27.384-13.819-32.835-18.785c-1.843-1.688-28.688-27.383-13.129-64.883
		c3.276-7.914,20.525-32.784,62.087-29.258c4.159,0.352,12.221,0.301,18.286,1.26c6.718,1.05,24.607,6.04,27.256,7.364
		c7.588,3.774,17.096,6.903,22.419,13.455c-4.03,6.725-9.994,12.644-14.882,18.567c-4.85,5.842-10.058,12.291-14.357,18.728
		c-3.275-1.907-6.271-3.724-9.93-5.298c-6.692-2.866-13.154-5.656-21.28-8.381c-3.749-1.273-8.33-3.008-11.76-2.471
		c-3.403,0.525-7.191,5.272-7.242,8.261c-0.052,3.704,3.557,7.453,8.266,9.821c2.125,1.049,4.671,1.535,6.731,2.571
		c2.124,1.088,9.213,3.66,10.825,4.134c3.008,0.87,31.39,15.56,39.771,24.273c2.521,2.624,5.989,6.514,8.778,10.327
		C347.352,179.14,360.941,209.096,341.068,236.62z M404.896,125.479c-0.807,2.066-3.008,4.549-4.671,6.647
		c-1.74,2.149-3.916,3.839-5.707,4.619c-6.501,2.854-15.074,3.442-21.255,0.064c-2.342-1.28-5.63-3.123-7.012-4.671
		c-0.602-0.652-3.826-5.95-4.312-7.025c-1.369-3.187-2.329-8.189-2.329-10.563c-0.038-7.467,5.221-14.619,10.16-17.965
		c2.419-1.651,5.516-2.093,8.573-3.514c-0.23,0.02-0.051-0.352,0,0C394.94,91.844,411.742,107.859,404.896,125.479z"/>
	<path d="M109.164,135.812c-6.757-7.551-16.738-11.511-26.898-10.832c-13.308,0.896-28.497,8.707-33.961,18.714
		c-2.252,4.095-5.118,13.59-5.86,18.299c-2.482,15.79,1.535,26.526,7.806,34.934c5.554,7.447,9.597,11.606,19.412,14.306
		c23.864,6.616,44.096-10.391,49.482-23.903c3.34-8.343,3.52-25.003,0.23-34.907C118.479,149.684,111.02,137.885,109.164,135.812z"
		/>
	<path d="M388.095,100.098c-7.063-2.438-12.246,0.973-16.788,3.487c-5.503,5.304-7.307,15.163-2.342,21.882
		c2.124,2.859,9.725,7.44,12.898,7.824c7.46,0.832,16.136-5.464,17.953-12.502c1.164-4.517,0.486-10.115-1.101-12.803
		C397.359,105.734,390.564,100.924,388.095,100.098z M392.407,126.663c-5.694,3.569-6.616-5.336-12.451-7.159
		c1.971,0.62-0.921,5.201,0.333,7.914c0.691,1.472-3.774,0.818-5.464,0.409c-1.101-7.8-0.704-15.95-0.384-23.442
		c3.852-2.048,10.236-1.152,14.856,0c1.126,2.041,3.762,3.538,3.89,6.629c0.115,3.064-1.945,5.963-4.684,7.037
		C389.912,120.789,395.926,124.442,392.407,126.663z"/>
</g>
</svg>
