<?xml version="1.0" encoding="utf-8"?>
<!-- Generator: Adobe Illustrator 16.0.4, SVG Export Plug-In . SVG Version: 6.00 Build 0)  -->
<!DOCTYPE svg PUBLIC "-//W3C//DTD SVG 1.1//EN" "http://www.w3.org/Graphics/SVG/1.1/DTD/svg11.dtd">
<svg version="1.1" id="Layer_1" xmlns="http://www.w3.org/2000/svg" xmlns:xlink="http://www.w3.org/1999/xlink" x="0px" y="0px"
	 width="144px" height="144px" viewBox="0 0 144 144" enable-background="new 0 0 144 144" xml:space="preserve">
<g>
	<path d="M109.777,86.095c0,0.99-0.81,1.8-1.8,1.8H37.759c-0.99,0-1.8-0.81-1.8-1.8V57.881c0-0.99,0.81-1.8,1.8-1.8h70.218
		c0.99,0,1.8,0.81,1.8,1.8V86.095z"/>
	<g>
		<path fill="#FFFFFF" d="M103.884,72.441c0.162,0.218,0.742,0.568,0.984,0.597c0.569,0.064,1.232-0.417,1.371-0.954
			c0.088-0.345,0.037-0.772-0.084-0.977c-0.104-0.172-0.623-0.539-0.811-0.602c-0.539-0.186-0.935,0.074-1.282,0.266
			C103.643,71.176,103.505,71.928,103.884,72.441 M104.6,69.969C104.595,69.942,104.582,69.97,104.6,69.969
			c1.266-0.094,2.549,1.128,2.026,2.473c-0.061,0.157-0.229,0.347-0.357,0.507c-0.132,0.164-0.298,0.293-0.435,0.353
			c-0.496,0.218-1.151,0.263-1.622,0.004c-0.179-0.097-0.43-0.237-0.535-0.356c-0.046-0.05-0.292-0.454-0.329-0.536
			c-0.105-0.243-0.178-0.625-0.178-0.806c-0.003-0.57,0.399-1.116,0.775-1.371C104.13,70.111,104.366,70.077,104.6,69.969"/>
		<path fill="#FFFFFF" d="M104.778,71.606c0.629,0.073,0.52-0.512-0.03-0.446C104.735,71.333,104.762,71.466,104.778,71.606
			 M105.375,71.875c0.108,0.209,0.567,0.488,0.298,0.657c-0.435,0.272-0.505-0.407-0.95-0.546c0.15,0.047-0.07,0.397,0.025,0.604
			c0.053,0.112-0.288,0.063-0.417,0.031c-0.084-0.595-0.053-1.217-0.029-1.789c0.293-0.156,0.781-0.088,1.133,0
			c0.086,0.156,0.288,0.27,0.298,0.506C105.741,71.572,105.584,71.793,105.375,71.875"/>
	</g>
	<path fill="#FFFFFF" d="M66.123,72.111c-1.173,0-1.823,0.192-2.615,1.048c-0.369,0.396-0.646,0.878-0.779,1.382
		c1.012-0.021,5.171,0.046,6.201-0.146C68.643,73.457,67.577,72.111,66.123,72.111 M62.833,77.266
		c0.011,0.644,0.545,1.892,1.621,2.422c0.905,0.447,2.059,0.395,3.007-0.026c0.12-0.054,0.972-0.396,1.303-1.195
		c0.698,0,3.981-0.073,4.118-0.019c0.254,0.1-0.631,1.969-1.081,2.491c-0.883,1.024-2.427,1.581-2.694,1.693
		c-0.24,0.102-0.485,0.147-0.881,0.227c-0.954,0.189-2.365,0.246-3.563,0.069c-0.702-0.104-1.713-0.258-3.093-0.899
		c-0.733-0.341-1.261-1.025-1.747-1.723c-0.593-0.851-1.034-2.013-1.228-3.293c-0.158-1.046-0.044-2.469,0.253-3.422
		c0.211-0.676,0.358-1.198,0.705-1.754c0.09-0.142,2.133-2.726,4.532-3.067c0.478-0.068,1.002-0.123,1.458-0.133
		c1.966-0.039,2.796,0.253,3.743,0.765c0.519,0.281,0.745,0.438,1.151,0.84c0.179,0.178,0.365,0.339,0.552,0.514
		c0.699,0.654,1.105,1.072,1.514,1.998c0.209,0.479,0.377,0.813,0.5,1.392c0.101,0.478,0.233,1.453,0.218,2.037
		c-0.008,0.28-0.018,0.628-0.145,0.879c-0.113,0.139-0.361,0.086-0.509,0.089c-2.232,0.043-7.433,0.05-7.82,0.042
		C63.989,77.175,62.844,77.069,62.833,77.266"/>
	<path fill="#FFFFFF" d="M84.819,77.162c0.254-0.637,0.268-1.908,0.017-2.664c-0.068-0.209-0.638-1.109-0.779-1.268
		c-0.516-0.575-1.278-0.878-2.053-0.826c-1.016,0.068-2.175,0.664-2.592,1.428c-0.172,0.313-0.391,1.037-0.447,1.396
		c-0.19,1.205,0.117,2.025,0.596,2.667c0.424,0.568,0.732,0.885,1.481,1.092C82.863,79.491,84.407,78.194,84.819,77.162
		 M89.286,61.17c0.049,1.243,0.153,21.086,0.111,21.407c-0.061,0.463-3.506,0.3-3.604,0.184c-0.403-0.479-0.763-1.298-0.763-1.298
		c-0.371,0.229-0.716,0.51-1.134,0.753c-0.176,0.101-1.37,1.078-4.658,0.762c-0.51-0.049-2.126-0.927-2.503-1.225
		c-0.656-0.52-2.11-2.67-2.294-4.663c-0.157-1.716,0.025-3.157,0.069-3.439c0.07-0.468,1.247-3.894,3.655-4.578
		c0.66-0.188,1.115-0.438,2.002-0.499c0.848-0.059,1.895,0.073,2.555,0.249c0.879,0.234,1.89,1.037,2.271,1.27
		c-0.011-1.435,0.024-6.025-0.015-7.786c-0.01-0.451-0.068-1.131,0.102-1.207C85.303,60.999,89.261,60.858,89.286,61.17"/>
	<path fill-rule="evenodd" clip-rule="evenodd" fill="#FFFFFF" d="M102.413,70.104c-0.307,0.513-0.762,0.965-1.136,1.417
		c-0.37,0.446-0.767,0.938-1.095,1.429c-0.251-0.146-0.479-0.284-0.758-0.404c-0.511-0.219-1.004-0.432-1.624-0.64
		c-0.287-0.097-0.636-0.229-0.898-0.188c-0.26,0.04-0.548,0.402-0.552,0.63c-0.004,0.283,0.271,0.569,0.631,0.749
		c0.161,0.081,0.356,0.118,0.513,0.197c0.162,0.083,0.704,0.279,0.827,0.315c0.229,0.067,2.395,1.188,3.034,1.853
		c0.193,0.2,0.458,0.497,0.671,0.788c0.209,0.287,1.245,2.573-0.271,4.674c-0.691,0.958-2.099,1.952-3.514,2.104
		c-1.927,0.208-3.406-0.385-3.625-0.473c-1.008-0.404-1.725-0.815-2.562-1.497c-0.245-0.2-0.794-0.512-0.827-0.789
		c-0.03-0.248,0.242-0.705,0.394-0.946c0.169-0.268,0.412-0.505,0.592-0.748c0.158-0.215,0.326-0.498,0.552-0.788
		c0.146-0.19,0.504-0.575,0.709-0.592c0.294-0.023,0.777,0.472,1.064,0.671c0.187,0.129,0.786,0.633,0.945,0.748
		c0.411,0.297,1.694,0.987,2.089,0.946c0.549-0.058,0.906-0.681,0.788-1.144c-0.079-0.312-0.306-0.363-0.63-0.551
		c-0.231-0.135-1.387-0.656-1.734-0.828c-0.292-0.145-2.09-1.055-2.506-1.434c-0.141-0.129-2.189-2.089-1.002-4.951
		c0.251-0.604,1.567-2.502,4.738-2.233c0.318,0.027,0.933,0.023,1.396,0.096c0.513,0.08,1.878,0.461,2.08,0.562
		C101.281,69.365,102.007,69.604,102.413,70.104z"/>
	<path fill="#FFFFFF" d="M58.549,80.979c-0.295-0.296-0.954-1.149-1.006-1.223c-0.143-0.203-0.957-1.114-1.205-1.439
		c-0.576-0.754-1.109-1.408-1.703-2.101c-0.307-0.357-0.628-0.737-0.922-1.095c-0.292-0.355-2.883-3.514-3.471-4.198
		c1.005-1.048,2.076-2.129,3.081-3.114c0.091-0.089,0.167-0.214,0.271-0.32c0.48-0.493,1.07-0.944,1.475-1.442
		c0.47-0.577,1.121-1.112,1.633-1.599c0.876-0.834,1.724-1.75,2.562-2.564c0.213-0.207,0.812-0.632,0.659-0.773
		c-0.223-0.205-1.838-0.119-2.218-0.109c-0.122,0.003-1.226,0.04-1.655,0.026c-0.357-0.013-1.26-0.099-1.587,0.001
		c-0.264,0.081-0.804,0.847-1.075,1.126c-0.676,0.694-1.183,1.271-1.823,1.882c-0.328,0.312-0.636,0.628-0.932,0.921
		c-1.32,1.309-2.329,2.388-3.429,3.515c-0.097-2.036,0.002-7.096-0.001-7.104c0.021-0.209-0.013-0.286-0.013-0.286
		c-0.078-0.273-3.983-0.108-4.09-0.094c-0.186,0.053-0.13,0.463-0.117,0.794c0.002,0.312,0.015,0.63,0.013,0.948
		c-0.013,1.527,0.032,8.246,0.017,8.671c-0.017,0.482-0.02,4.347,0.003,5.814c0.036,2.262-0.033,4.013,0.011,5.188
		c-0.065,0.249,0.405,0.274,0.627,0.276c0.237,0.016,1.601,0.108,2.41,0.016c0.339,0.051,1.11,0.026,1.117-0.315
		c0.013-0.392,0.013-1.683,0.009-1.962c-0.03-2.148,0.011-4.568,0-6.564c0-0.033,0.037-0.06,0.056-0.039
		c0.347,0.388,0.65,0.877,1.028,1.288c0.385,0.418,1.63,1.938,1.728,2.062c1.066,1.341,2.053,2.494,3.082,3.843
		c0.165,0.216,0.493,0.6,0.721,0.876c0.234,0.285,0.46,0.662,0.643,0.738c0.409,0.173,1.033,0.032,1.458,0.017
		c0.601-0.021,1.322,0.045,2.011,0.047c0.342,0.002,0.659-0.022,0.985-0.015c0.328,0.007,0.61,0.134,0.894,0.035
		c0.225-0.161-0.06-0.378-0.152-0.48C59.289,81.831,58.902,81.332,58.549,80.979z"/>
</g>
</svg>
