<svg xmlns="http://www.w3.org/2000/svg" viewBox="0 0 500 112">
  <defs/>
  <path d="M58.4 30.8c0 2.5-2.2 4.5-4.8 4.5-2.7 0-4.8-2-4.8-4.5s2.2-4.6 4.8-4.6c2.6 0 4.8 2 4.8 4.6M425 78.3c0 2.5-2.2 4.5-4.8 4.5s-4.8-2-4.8-4.5 2.2-4.5 4.8-4.5 4.8 2 4.8 4.5M63.5 82.1v-3c-2.9 0-6-.3-6-5.1V44.1h-2.8c-2.9.9-7.5 2.1-10.6 2.2v3c2.9.9 3.5.9 6.7 1.6v23c0 4.7-2.8 5.1-6 5.1v3c1.9 0 5.4-.2 9.3-.2 4.1.1 7 .3 9.4.3m58.7-51.3c0 2.5-2.2 4.5-4.8 4.5s-4.8-2-4.8-4.5 2.2-4.6 4.8-4.6 4.8 2 4.8 4.6m5.1 51.3v-3c-2.9 0-6-.3-6-5.1V44.1h-2.8c-2.9.9-7.5 2.1-10.7 2.2v3c2.9.9 3.6.9 6.8 1.6v23c0 4.7-2.8 5.1-6 5.1v3c1.9 0 5.4-.2 9.3-.2 4.1.1 7 .3 9.4.3m295.2-57.7c-2.6-2.2-5.7-3.5-9.9-3.5-7.5 0-16.1 5.8-16.1 19.4v5.9h-6v4.1h6v23.6c0 4.7-2.7 5.1-6 5.1v3c2.3 0 5.6-.2 9.6-.2s7.2.2 9.6.2v-3c-3.2 0-6.6-.3-6.6-5.1V50.4h10.2v-4.1h-10.2v-7.2c0-8.2 1.4-12.7 7.4-12.7 3.9 0 6.3 1.6 8 2.8l4-4.8zM214.7 50v-3.6h-11.1c-2.1-.9-4.1-2.2-8.6-2.2-8.5 0-15.8 5.5-15.8 13.5 0 7.8 6.2 11.1 7.5 11.8-1.6.9-7 4.1-7 7.2 0 2.9 2.6 4.5 5 5.4-2.5 1.4-7.4 4.6-7.4 9.8 0 5.4 6.5 9.8 16.3 9.8 12.1 0 19.8-8.4 19.8-15.5 0-7.3-7.6-7.4-14.8-8-6.6-.5-12.5-.8-12.5-3.5 0-2.1 2.3-3.5 3.5-4.1 0 0 .9.5 5.4.5 7.3 0 15.5-4.5 15.5-13.4 0-4.2-1.5-5.8-2.4-7.5h6.6V50zm-11.1 7.5c0 4.7-2.5 9.6-9.1 9.6-5 0-8.7-3.6-8.7-9.8 0-4.7 2.8-9.5 8.7-9.5 5.1 0 9.1 3.5 9.1 9.7m4.3 31.2c0 4.4-4.7 8-12.2 8-7.1 0-12.9-2.7-12.9-7.7 0-2.8 3-5.4 4.9-6.2 3.5.4 5.6.7 8.8.9 6.3.5 11.4.7 11.4 5M40.2 82.1S40 78.4 40 76c0-2.3.2-6.1.2-6.1h-3c0 6.6-2.1 8.2-9.8 8.2-8.3 0-10.6.1-10.6-5.6V35.1c0-4.5 3.5-4.4 6-4.4v-3c-2.4 0-5.5.2-9.5.2s-7.1-.2-9.5-.2v3c2.4 0 6-.2 6 4.4v39.5c0 4.6-3.5 4.4-6 4.4v3c2.4 0 5.7-.2 9.8-.2 3.8.1 16.6.2 26.6.3m64.3-33.5v-3c-2.4 0-3.8.2-7.8.2s-5.4-.2-7.9-.2v3c3.3 0 4.7 1.5 4.7 3.6 0 .7-.3 1.6-.5 2.4l-7.8 20-9-21.7c-1.2-2.8.2-4.4 5.3-4.4v-3c-2.4 0-5.4.3-9.3.2-4 0-6.9 0-9.3-.2v3c2.6 0 4.3.3 5.4 2.8L81 82.1h5.5l10.7-27.5c2-4.9 4.5-6.1 7.3-6m70.7 33.5v-3c-2.9 0-6-.3-6-5.1V56.1c0-10.3-8.4-12.1-11.9-12.1-7.9 0-11.9 4.7-12.8 5.8V44H142c-2.9.9-7.4 2.1-10.7 2.2v3c2.9.9 3.6.9 6.7 1.6v23c0 4.7-2.7 5.1-6 5.1v3c1.9 0 5.4-.2 9.3-.2s6.9.2 9.3.2v-3c-2.9 0-6-.3-6-5.1V53.1c1-1.6 4.7-3.6 8.8-3.6 5.4 0 9 3.1 9 8.1V74c0 4.7-2.7 5.1-6 5.1v3c1.9 0 5.4-.2 9.3-.2 4.2 0 7.1.2 9.5.2m97.8-20c0-9.1-5-18-15.8-18-7.6 0-11 4-11.7 4.9v-4.9h-2.7c-2.9.9-7.5 2.1-10.7 2.2v3c2.9.9 3.6.9 6.8 1.6v41.5c0 4.7-2.8 5.1-6 5.1v3c2.4 0 5.7-.2 9.7-.2s7.2.2 9.6.2v-3c-3.2 0-6.5-.3-6.5-5.1V81.2s2.3 1.5 8.4 1.5c9.3 0 18.9-7.2 18.9-20.6m-7.3 1.9c0 10.6-5 14.8-11.6 14.8-5.6 0-8.5-2.8-8.5-2.8V52.4c.5-.7 3.2-3.3 8.5-3.3 6.7 0 11.6 5.4 11.6 14.9m38.8-12.5v-6.9c-.9-.3-2-.5-3-.5-5.3 0-9.7 4.5-10.6 7v-7h-2.7c-2.9.9-7.4 2.1-10.7 2.2v3c2.9.9 3.6.9 6.7 1.6v23c0 4.7-2.7 5.1-6 5.1v3c2.3 0 5.6-.2 9.6-.2s7.2.2 9.6.2v-3c-3.2 0-6.5-.3-6.5-5.1V54.4c2-2.4 4.8-3.5 8.8-3.5 2.1.1 3.3.4 4.8.6m39.2 11.7c0-11.3-6.6-19.1-18.5-19.1-9.7 0-19.1 7.9-19.1 19.7 0 12.2 7.6 19 18.5 19 10.2-.1 19.1-7.3 19.1-19.6m-7.5.1c0 7.2-2.2 15.7-11 15.7-8.6 0-11.4-8.1-11.4-15.6 0-6.7 2.3-15.5 11.3-15.5 8.7 0 11.1 8.7 11.1 15.4m50.1-.1c0-11.3-6.6-19.1-18.5-19.1-9.7 0-19 7.9-19 19.7 0 12.2 7.6 19 18.5 19 10.1-.1 19-7.3 19-19.6m-7.4.1c0 7.2-2.2 15.6-11 15.6-8.7 0-11.4-8.1-11.4-15.6 0-6.7 2.4-15.5 11.3-15.5 8.6.1 11.1 8.8 11.1 15.5"/>
</svg>
