<svg xmlns="http://www.w3.org/2000/svg" viewBox="0 0 500 112">
  <defs/>
  <path d="M67.7 24.3c0 2.9-2.5 5.2-5.6 5.2-3.1 0-5.6-2.3-5.6-5.2S59 19 62.1 19c3 0 5.6 2.4 5.6 5.3m424.6 55.1c0 2.9-2.5 5.2-5.6 5.2-3.1 0-5.6-2.3-5.6-5.2 0-2.9 2.5-5.2 5.6-5.2 3.1 0 5.6 2.3 5.6 5.2M73.6 83.8v-3.5c-3.4 0-6.9-.3-6.9-5.9V39.8h-3.2c-3.4 1.1-8.7 2.4-12.3 2.6v3.5c3.4 1 4.1 1.1 7.8 1.9v26.6c0 5.5-3.2 5.9-6.9 5.9v3.5c2.2 0 6.2-.2 10.8-.2 4.5 0 7.9.2 10.7.2m68-59.5c0 2.9-2.5 5.2-5.6 5.2-3.1 0-5.6-2.3-5.6-5.2s2.5-5.3 5.6-5.3c3.1 0 5.6 2.4 5.6 5.3m5.9 59.5v-3.5c-3.4 0-6.9-.3-6.9-5.9V39.8h-3.2c-3.4 1.1-8.7 2.4-12.4 2.6v3.5c3.4 1 4.2 1.1 7.9 1.9v26.6c0 5.5-3.2 5.9-6.9 5.9v3.5c2.2 0 6.2-.2 10.8-.2 4.5 0 7.9.2 10.7.2M489.4 17c-3-2.5-6.6-4-11.5-4-8.7 0-18.6 6.7-18.6 22.5v6.8h-7V47h7v27.3c0 5.5-3.1 5.9-6.9 5.9v3.5c2.7 0 6.5-.2 11.1-.2s8.3.2 11.1.2v-3.5c-3.7 0-7.6-.3-7.6-5.9V47.1h11.8v-4.7H467v-8.3c0-9.5 1.6-14.7 8.6-14.7 4.5 0 7.3 1.8 9.3 3.2-.1-.1 4.5-5.6 4.5-5.6zM248.7 46.6v-4.2h-12.9c-2.4-1.1-4.7-2.6-10-2.6-9.9 0-18.3 6.4-18.3 15.6 0 9 7.2 12.9 8.7 13.7-1.9 1-8.1 4.7-8.1 8.3 0 3.4 3 5.2 5.8 6.2-2.9 1.6-8.6 5.3-8.6 11.3 0 6.2 7.5 11.3 18.9 11.3 14 0 22.9-9.7 22.9-17.9 0-8.4-8.8-8.6-17.2-9.3-7.6-.6-14.5-.9-14.5-4.1 0-2.4 2.7-4.1 4.1-4.7 0 0 1.1.6 6.2.6 8.5 0 17.9-5.2 17.9-15.5 0-4.9-1.7-6.7-2.8-8.7h7.9zm-12.8 8.7c0 5.5-2.9 11.1-10.5 11.1-5.8 0-10.1-4.2-10.1-11.3 0-5.4 3.2-11 10.1-11 5.8 0 10.5 4 10.5 11.2m4.9 36.1c0 5.1-5.4 9.3-14.1 9.3-8.2 0-15-3.1-15-8.9 0-3.2 3.5-6.3 5.7-7.2 4.1.5 6.5.8 10.2 1 7.4.6 13.2.9 13.2 5.8M46.6 83.8s-.2-4.3-.2-7.1c0-2.7.2-7.1.2-7.1h-3.5c0 7.6-2.4 9.5-11.4 9.5-9.6 0-12.3.1-12.3-6.5V29.3c0-5.2 4.1-5.1 6.9-5.1v-3.5c-2.8 0-6.4.2-11 .2s-8.2-.2-11-.2v3.5c2.8 0 6.9-.2 6.9 5.1v45.8c0 5.3-4.1 5.1-6.9 5.1v3.5c2.8 0 6.6-.2 11.3-.2 4.6.1 19.4.2 31 .3M121.1 45v-3.5c-2.8 0-4.4.2-9 .2s-6.3-.2-9.1-.2V45c3.8 0 5.5 1.7 5.5 4.2 0 .8-.3 1.8-.6 2.8l-9 23.2-10.4-25.1c-1.4-3.2.2-5.1 6.1-5.1v-3.5c-2.8 0-6.2.3-10.8.2-4.6 0-8 0-10.8-.2V45c3 0 5 .3 6.2 3.2l14.7 35.6h6.4L112.7 52c2.2-5.7 5.1-7.1 8.4-7M203 83.8v-3.5c-3.4 0-6.9-.3-6.9-5.9V53.7c0-11.9-9.7-14-13.8-14-9.2 0-13.8 5.5-14.8 6.7v-6.7h-3c-3.4 1.1-8.6 2.4-12.4 2.6v3.5c3.4 1 4.2 1.1 7.8 1.9v26.6c0 5.5-3.1 5.9-6.9 5.9v3.5c2.2 0 6.2-.2 10.8-.2 4.6 0 8 .2 10.8.2v-3.5c-3.4 0-6.9-.3-6.9-5.9V50.2c1.2-1.8 5.4-4.2 10.2-4.2 6.2 0 10.4 3.6 10.4 9.4v19c0 5.5-3.1 5.9-6.9 5.9v3.5c2.2 0 6.2-.2 10.8-.2 4.6 0 8 .2 10.8.2m113.3-23.2c0-10.5-5.8-20.8-18.3-20.8-8.8 0-12.7 4.6-13.6 5.7v-5.7h-3.1c-3.4 1.1-8.7 2.4-12.4 2.6v3.5c3.4 1 4.2 1.1 7.9 1.9v48.1c0 5.5-3.2 5.9-6.9 5.9v3.5c2.8 0 6.6-.2 11.2-.2s8.3.2 11.1.2v-3.5c-3.7 0-7.5-.4-7.5-5.9V82.7s2.7 1.7 9.7 1.7c10.8.1 21.9-8.3 21.9-23.8m-8.5 2.2c0 12.3-5.8 17.2-13.4 17.2-6.5 0-9.9-3.3-9.9-3.3V49.4c.6-.8 3.7-3.8 9.9-3.8 7.7 0 13.4 6.2 13.4 17.2m44.9-14.5v-8c-1.1-.3-2.3-.6-3.5-.6-6.1 0-11.2 5.2-12.3 8.1v-8.1h-3.1c-3.4 1.1-8.6 2.4-12.4 2.6v3.5c3.4 1 4.2 1.1 7.8 1.9v26.6c0 5.4-3.1 5.9-6.9 5.9v3.5c2.7 0 6.5-.2 11.1-.2s8.3.2 11.1.2v-3.5c-3.7 0-7.5-.3-7.5-5.9V51.7c2.3-2.8 5.6-4 10.2-4 2.4 0 3.8.4 5.5.6m45.5 13.6c0-13.1-7.6-22.1-21.4-22.1-11.2 0-22.1 9.1-22.1 22.8 0 14.1 8.8 22 21.4 22 11.7-.1 22.1-8.5 22.1-22.7m-8.7.1c0 8.3-2.5 18.2-12.8 18.2-10 0-13.2-9.4-13.2-18.1 0-7.8 2.7-17.9 13.1-17.9 10.1 0 12.9 10.1 12.9 17.8m58-.1c0-13.1-7.6-22.1-21.4-22.1-11.2 0-22 9.1-22 22.8 0 14.1 8.8 22 21.4 22 11.7-.1 22-8.5 22-22.7m-8.6.1c0 8.3-2.5 18.1-12.8 18.1-10.1 0-13.2-9.4-13.2-18.1 0-7.8 2.8-17.9 13.1-17.9 10.1.1 12.9 10.2 12.9 17.9"/>
</svg>
