<?xml version="1.0" encoding="utf-8"?>
<!-- Generator: Adobe Illustrator 16.0.4, SVG Export Plug-In . SVG Version: 6.00 Build 0)  -->
<!DOCTYPE svg PUBLIC "-//W3C//DTD SVG 1.1//EN" "http://www.w3.org/Graphics/SVG/1.1/DTD/svg11.dtd">
<svg version="1.1" id="Layer_1" xmlns="http://www.w3.org/2000/svg" xmlns:xlink="http://www.w3.org/1999/xlink" x="0px" y="0px"
	 width="1224px" height="792px" viewBox="0 0 1224 792" enable-background="new 0 0 1224 792" xml:space="preserve">
<path d="M253.382,412.81c-49.444,0-89.13,39.686-89.13,89.13s39.686,89.13,89.13,89.13s89.13-39.686,89.13-89.13
	S302.176,412.81,253.382,412.81z M257.285,451.193c11.711,1.952,13.663,13.012,13.663,16.265c0,5.855-2.603,13.662-9.108,18.217
	l-3.253-4.554c3.904-3.253,6.506-9.108,6.506-13.662c0-1.953-1.3-8.458-8.458-11.061L257.285,451.193L257.285,451.193z
	 M215.647,535.77c-10.409-15.614-0.65-30.577,13.663-36.433l2.602,4.554c0,0-5.205,5.205-1.952,9.759l11.71,18.217
	c2.603,4.554,8.458,1.301,8.458,1.301l2.603,4.554C241.02,545.528,225.406,551.384,215.647,535.77z M298.271,544.878h-27.324
	c0,0-5.206,0-8.458-5.204l-33.18-52.048c-5.856-9.108-6.506-36.433,22.771-36.433v5.205c-7.156,2.603-8.458,9.759-5.855,14.312
	l40.987,63.758c0.65,0.65,2.602,4.555,5.856,4.555h5.204L298.271,544.878L298.271,544.878z M301.525,504.542
	c-3.904,3.903-10.41,3.903-14.964,0c-3.253-3.253-3.904-7.156-2.602-11.06c-3.253,3.903-3.253,16.915-3.253,16.915l-1.952,1.301
	l-2.602-3.903c0-3.903,0-13.012,5.205-18.217c5.205-5.855,14.312-5.205,20.168,0l0,0
	C306.079,494.133,306.079,500.639,301.525,504.542z"/>
<g>
	<polygon points="156.444,380.93 88.132,380.93 88.132,226.74 109.601,226.74 109.601,216.981 53,216.981 53,226.74 75.121,226.74 
		75.121,380.93 53,380.93 53,390.689 167.503,390.689 167.503,334.087 156.444,334.087 	"/>
	<path d="M255.983,213.078c-16.265,0-31.229,4.554-42.288,13.012c-21.47,16.915-29.277,50.746-29.277,77.42
		c0,33.83,10.41,61.806,27.976,76.77c11.059,9.108,26.674,14.313,43.589,14.313c27.975,0,48.144-11.061,59.853-33.83
		c7.807-14.964,12.362-35.133,12.362-56.601C328.85,276.836,321.693,213.078,255.983,213.078z M315.187,301.558
		c0,11.711-0.65,22.121-3.252,31.229c-4.554,21.47-13.663,35.783-27.325,43.59c-11.06,5.855-23.42,6.505-28.626,6.505
		c-12.362,0-24.723-3.903-33.18-11.06c-7.156-5.855-25.373-24.723-25.373-69.613c0-16.915,3.253-56.601,30.578-72.866
		c7.807-4.553,16.915-6.505,28.625-6.505C311.283,222.837,315.187,283.342,315.187,301.558z"/>
	<polygon points="490.846,216.981 435.546,216.981 435.546,226.74 457.016,226.74 457.016,377.678 370.487,216.981 332.102,216.981 
		332.102,226.74 352.921,226.74 352.921,380.93 332.102,380.93 332.102,390.689 386.752,390.689 386.752,380.93 364.632,380.93 
		364.632,231.945 450.509,390.039 451.16,390.689 468.726,390.689 468.726,226.74 490.846,226.74 	"/>
	<path d="M553.303,317.172h53.999c0,14.313-0.65,28.626-7.807,42.939c-11.711,22.12-34.481,24.071-41.638,24.071
		c-33.83,0-55.95-31.229-55.95-78.721c0-49.444,19.518-67.661,31.229-74.167c9.108-5.206,16.915-5.856,22.771-5.856
		c26.674,0,44.24,16.915,49.444,46.192v0.65h11.711v-54.65h-11.06v24.723c-3.904-7.807-13.013-19.517-27.977-24.723
		c-9.108-3.252-19.517-3.252-22.77-3.252c-49.444,0-67.662,46.191-67.662,89.781c0,9.108,0.65,33.18,9.76,51.396
		c11.059,24.723,33.18,39.036,59.203,39.036c30.577,0,44.89-16.915,50.746-26.674l0.65,23.42h11.711v-84.576h-65.71L553.303,317.172
		L553.303,317.172z"/>
	<polygon points="728.311,372.472 673.661,216.981 632.674,216.981 632.674,226.74 654.794,226.74 654.794,380.93 632.674,380.93 
		632.674,390.689 685.372,390.689 685.372,380.93 666.505,380.93 666.505,231.945 722.455,390.689 734.166,390.689 790.117,231.945 
		790.117,380.93 769.947,380.93 769.947,390.689 824.598,390.689 824.598,380.93 803.128,380.93 803.128,226.74 824.598,226.74 
		824.598,216.981 783.611,216.981 	"/>
	<path d="M922.836,226.74h17.565v-9.759h-57.252v9.759h17.565l-52.697,154.189h-16.915v9.759h48.144v-9.759h-19.518l14.964-44.24
		h71.564l14.965,44.24h-18.217v9.759h48.794v-9.759h-16.916L922.836,226.74z M911.127,228.692l32.529,97.588h-65.06L911.127,228.692
		z"/>
	<polygon points="1103.699,216.981 1103.699,226.74 1125.17,226.74 1125.17,377.678 1038.641,216.981 1000.257,216.981 
		1000.257,226.74 1021.726,226.74 1021.726,380.93 1000.257,380.93 1000.257,390.689 1054.906,390.689 1054.906,380.93 
		1032.786,380.93 1032.786,231.945 1119.314,390.039 1119.314,390.689 1136.88,390.689 1136.88,226.74 1159,226.74 1159,216.981 	
		"/>
	<polygon points="353.571,425.17 375.692,425.17 375.692,578.709 353.571,578.709 353.571,588.469 476.533,588.469 476.533,532.517 
		464.823,532.517 464.823,578.709 388.053,578.709 388.053,502.59 459.618,502.59 459.618,492.181 388.053,492.181 388.053,425.17 
		464.823,425.17 464.823,468.109 476.533,468.109 476.533,414.76 353.571,414.76 	"/>
	<path d="M581.929,425.17h17.565v-9.76h-57.903v9.76h18.867l-52.697,154.189h-16.915v9.759h48.144v-9.759h-19.519l14.964-44.892
		h71.565l14.964,44.892h-18.217v9.759h48.794v-9.759h-16.915L581.929,425.17z M570.868,427.122l31.879,97.588h-65.059
		L570.868,427.122z"/>
	<path d="M708.143,514.951h53.998c0,14.312-0.65,28.626-7.807,42.288c-11.71,22.12-34.481,24.072-41.638,24.072
		c-33.83,0-55.95-31.229-55.95-78.722c0-49.444,19.519-67.661,31.229-74.167c9.108-5.205,16.915-5.855,22.771-5.855
		c26.674,0,44.24,16.915,49.445,46.191v0.65h11.71V414.76h-11.06v24.723c-3.903-7.807-13.012-19.518-27.975-24.723
		c-9.109-3.253-19.519-3.253-22.771-3.253c-49.444,0-67.661,46.191-67.661,89.781c0,9.108,0.65,33.18,9.759,51.396
		c11.711,24.723,33.18,39.035,59.203,39.035c30.578,0,44.891-16.915,50.746-26.673l0.65,23.421h11.712v-83.927h-65.709
		L708.143,514.951L708.143,514.951z"/>
	<polygon points="890.307,578.709 821.995,578.709 821.995,425.17 843.465,425.17 843.465,414.76 786.863,414.76 786.863,425.17 
		808.983,425.17 808.983,578.709 786.863,578.709 786.863,588.469 902.018,588.469 902.018,532.517 890.307,532.517 	"/>
	<polygon points="1039.291,468.109 1039.291,414.76 915.68,414.76 915.68,425.17 938.45,425.17 938.45,578.709 915.68,578.709 
		915.68,588.469 1039.291,588.469 1039.291,532.517 1027.582,532.517 1027.582,578.709 950.161,578.709 950.161,502.59 
		1022.376,502.59 1022.376,492.181 950.161,492.181 950.161,425.17 1027.582,425.17 1027.582,468.109 	"/>
</g>
</svg>
