<?xml version="1.0" encoding="utf-8"?>
<!-- Generator: Adobe Illustrator 16.0.4, SVG Export Plug-In . SVG Version: 6.00 Build 0)  -->
<!DOCTYPE svg PUBLIC "-//W3C//DTD SVG 1.1//EN" "http://www.w3.org/Graphics/SVG/1.1/DTD/svg11.dtd">
<svg version="1.1" id="Layer_1" xmlns="http://www.w3.org/2000/svg" xmlns:xlink="http://www.w3.org/1999/xlink" x="0px" y="0px"
	 width="170px" height="57.6px" viewBox="0 121.5 170 57.6" style="enable-background:new 0 121.5 170 57.6;" xml:space="preserve">
<style type="text/css">
<![CDATA[
	.st0{fill:#7A7A7A;}
]]>
</style>
<path class="st0" d="M30.8,151.6c-7.6,0-13.7,6.1-13.7,13.7c0,7.6,6.1,13.7,13.7,13.7c7.6,0,13.7-6.1,13.7-13.7
	C44.5,157.7,38.3,151.6,30.8,151.6z M31.4,157.5c1.8,0.3,2.1,2,2.1,2.5c0,0.9-0.4,2.1-1.4,2.8l-0.5-0.7c0.6-0.5,1-1.4,1-2.1
	c0-0.3-0.2-1.3-1.3-1.7V157.5z M25,170.5c-1.6-2.4-0.1-4.7,2.1-5.6l0.4,0.7c0,0-0.8,0.8-0.3,1.5l1.8,2.8c0.4,0.7,1.3,0.2,1.3,0.2
	l0.4,0.7C28.9,172,26.5,172.9,25,170.5z M37.7,171.9h-4.2c0,0-0.8,0-1.3-0.8l-5.1-8c-0.9-1.4-1-5.6,3.5-5.6v0.8
	c-1.1,0.4-1.3,1.5-0.9,2.2l6.3,9.8c0.1,0.1,0.4,0.7,0.9,0.7h0.8L37.7,171.9L37.7,171.9z M38.2,165.7c-0.6,0.6-1.6,0.6-2.3,0
	c-0.5-0.5-0.6-1.1-0.4-1.7c-0.5,0.6-0.5,2.6-0.5,2.6l-0.3,0.2l-0.4-0.6c0-0.6,0-2,0.8-2.8c0.8-0.9,2.2-0.8,3.1,0l0,0
	C38.9,164.1,38.9,165.1,38.2,165.7z"/>
<g>
	<polygon points="15.9,146.7 5.4,146.7 5.4,123 8.7,123 8.7,121.5 0,121.5 0,123 3.4,123 3.4,146.7 0,146.7 0,148.2 17.6,148.2 
		17.6,139.5 15.9,139.5 	"/>
	<path d="M31.2,120.9c-2.5,0-4.8,0.7-6.5,2c-3.3,2.6-4.5,7.8-4.5,11.9c0,5.2,1.6,9.5,4.3,11.8c1.7,1.4,4.1,2.2,6.7,2.2
		c4.3,0,7.4-1.7,9.2-5.2c1.2-2.3,1.9-5.4,1.9-8.7C42.4,130.7,41.3,120.9,31.2,120.9z M40.3,134.5c0,1.8-0.1,3.4-0.5,4.8
		c-0.7,3.3-2.1,5.5-4.2,6.7c-1.7,0.9-3.6,1-4.4,1c-1.9,0-3.8-0.6-5.1-1.7c-1.1-0.9-3.9-3.8-3.9-10.7c0-2.6,0.5-8.7,4.7-11.2
		c1.2-0.7,2.6-1,4.4-1C39.7,122.4,40.3,131.7,40.3,134.5z"/>
	<polygon points="67.3,121.5 58.8,121.5 58.8,123 62.1,123 62.1,146.2 48.8,121.5 42.9,121.5 42.9,123 46.1,123 46.1,146.7 
		42.9,146.7 42.9,148.2 51.3,148.2 51.3,146.7 47.9,146.7 47.9,123.8 61.1,148.1 61.2,148.2 63.9,148.2 63.9,123 67.3,123 	"/>
	<path d="M76.9,136.9h8.3c0,2.2-0.1,4.4-1.2,6.6c-1.8,3.4-5.3,3.7-6.4,3.7c-5.2,0-8.6-4.8-8.6-12.1c0-7.6,3-10.4,4.8-11.4
		c1.4-0.8,2.6-0.9,3.5-0.9c4.1,0,6.8,2.6,7.6,7.1l0,0.1h1.8v-8.4H85v3.8c-0.6-1.2-2-3-4.3-3.8c-1.4-0.5-3-0.5-3.5-0.5
		c-7.6,0-10.4,7.1-10.4,13.8c0,1.4,0.1,5.1,1.5,7.9c1.7,3.8,5.1,6,9.1,6c4.7,0,6.9-2.6,7.8-4.1l0.1,3.6h1.8v-13H77L76.9,136.9
		L76.9,136.9z"/>
	<polygon points="103.8,145.4 95.4,121.5 89.1,121.5 89.1,123 92.5,123 92.5,146.7 89.1,146.7 89.1,148.2 97.2,148.2 97.2,146.7 
		94.3,146.7 94.3,123.8 102.9,148.2 104.7,148.2 113.3,123.8 113.3,146.7 110.2,146.7 110.2,148.2 118.6,148.2 118.6,146.7 
		115.3,146.7 115.3,123 118.6,123 118.6,121.5 112.3,121.5 	"/>
	<path d="M133.7,123h2.7v-1.5h-8.8v1.5h2.7l-8.1,23.7h-2.6v1.5h7.4v-1.5h-3l2.3-6.8h11l2.3,6.8h-2.8v1.5h7.5v-1.5h-2.6L133.7,123z
		 M131.9,123.3l5,15h-10L131.9,123.3z"/>
	<polygon points="161.5,121.5 161.5,123 164.8,123 164.8,146.2 151.5,121.5 145.6,121.5 145.6,123 148.9,123 148.9,146.7 
		145.6,146.7 145.6,148.2 154,148.2 154,146.7 150.6,146.7 150.6,123.8 163.9,148.1 163.9,148.2 166.6,148.2 166.6,123 170,123 
		170,121.5 	"/>
	<polygon points="46.2,153.5 49.6,153.5 49.6,177.1 46.2,177.1 46.2,178.6 65.1,178.6 65.1,170 63.3,170 63.3,177.1 51.5,177.1 
		51.5,165.4 62.5,165.4 62.5,163.8 51.5,163.8 51.5,153.5 63.3,153.5 63.3,160.1 65.1,160.1 65.1,151.9 46.2,151.9 	"/>
	<path d="M81.3,153.5h2.7v-1.5h-8.9v1.5H78l-8.1,23.7h-2.6v1.5h7.4v-1.5h-3l2.3-6.9h11l2.3,6.9h-2.8v1.5h7.5v-1.5h-2.6L81.3,153.5z
		 M79.6,153.8l4.9,15h-10L79.6,153.8z"/>
	<path d="M100.7,167.3h8.3c0,2.2-0.1,4.4-1.2,6.5c-1.8,3.4-5.3,3.7-6.4,3.7c-5.2,0-8.6-4.8-8.6-12.1c0-7.6,3-10.4,4.8-11.4
		c1.4-0.8,2.6-0.9,3.5-0.9c4.1,0,6.8,2.6,7.6,7.1l0,0.1h1.8v-8.4h-1.7v3.8c-0.6-1.2-2-3-4.3-3.8c-1.4-0.5-3-0.5-3.5-0.5
		c-7.6,0-10.4,7.1-10.4,13.8c0,1.4,0.1,5.1,1.5,7.9c1.8,3.8,5.1,6,9.1,6c4.7,0,6.9-2.6,7.8-4.1l0.1,3.6h1.8v-12.9h-10.1L100.7,167.3
		L100.7,167.3z"/>
	<polygon points="128.7,177.1 118.2,177.1 118.2,153.5 121.5,153.5 121.5,151.9 112.8,151.9 112.8,153.5 116.2,153.5 116.2,177.1 
		112.8,177.1 112.8,178.6 130.5,178.6 130.5,170 128.7,170 	"/>
	<polygon points="151.6,160.1 151.6,151.9 132.6,151.9 132.6,153.5 136.1,153.5 136.1,177.1 132.6,177.1 132.6,178.6 151.6,178.6 
		151.6,170 149.8,170 149.8,177.1 137.9,177.1 137.9,165.4 149,165.4 149,163.8 137.9,163.8 137.9,153.5 149.8,153.5 149.8,160.1 	
		"/>
</g>
</svg>
