<?xml version="1.0" encoding="utf-8"?>
<!-- Generator: Adobe Illustrator 18.1.1, SVG Export Plug-In . SVG Version: 6.00 Build 0)  -->
<svg version="1.1" id="Layer_1" xmlns="http://www.w3.org/2000/svg" xmlns:xlink="http://www.w3.org/1999/xlink" x="0px" y="0px"
	 viewBox="-1414 1472.4 170 57.6" enable-background="new -1414 1472.4 170 57.6" xml:space="preserve">
<path fill="#7A7A7A" d="M-1383.2,1502.8c-7.6,0-13.7,6.1-13.7,13.7s6.1,13.7,13.7,13.7c7.6,0,13.7-6.1,13.7-13.7
	S-1375.7,1502.8-1383.2,1502.8z M-1382.6,1508.7c1.8,0.3,2.1,2,2.1,2.5c0,0.9-0.4,2.1-1.4,2.8l-0.5-0.7c0.6-0.5,1-1.4,1-2.1
	c0-0.3-0.2-1.3-1.3-1.7L-1382.6,1508.7L-1382.6,1508.7z M-1389,1521.7c-1.6-2.4-0.1-4.7,2.1-5.6l0.4,0.7c0,0-0.8,0.8-0.3,1.5
	l1.8,2.8c0.4,0.7,1.3,0.2,1.3,0.2l0.4,0.7C-1385.1,1523.2-1387.5,1524.1-1389,1521.7z M-1376.3,1523.1h-4.2c0,0-0.8,0-1.3-0.8
	l-5.1-8c-0.9-1.4-1-5.6,3.5-5.6v0.8c-1.1,0.4-1.3,1.5-0.9,2.2l6.3,9.8c0.1,0.1,0.4,0.7,0.9,0.7h0.8V1523.1L-1376.3,1523.1z
	 M-1375.8,1516.9c-0.6,0.6-1.6,0.6-2.3,0c-0.5-0.5-0.6-1.1-0.4-1.7c-0.5,0.6-0.5,2.6-0.5,2.6l-0.3,0.2l-0.4-0.6c0-0.6,0-2,0.8-2.8
	c0.8-0.9,2.2-0.8,3.1,0l0,0C-1375.1,1515.3-1375.1,1516.3-1375.8,1516.9z"/>
<g>
	<polygon points="-1398.1,1497.9 -1408.6,1497.9 -1408.6,1474.2 -1405.3,1474.2 -1405.3,1472.7 -1414,1472.7 -1414,1474.2 
		-1410.6,1474.2 -1410.6,1497.9 -1414,1497.9 -1414,1499.4 -1396.4,1499.4 -1396.4,1490.7 -1398.1,1490.7 	"/>
	<path d="M-1382.8,1472.1c-2.5,0-4.8,0.7-6.5,2c-3.3,2.6-4.5,7.8-4.5,11.9c0,5.2,1.6,9.5,4.3,11.8c1.7,1.4,4.1,2.2,6.7,2.2
		c4.3,0,7.4-1.7,9.2-5.2c1.2-2.3,1.9-5.4,1.9-8.7C-1371.6,1481.9-1372.7,1472.1-1382.8,1472.1z M-1373.7,1485.7
		c0,1.8-0.1,3.4-0.5,4.8c-0.7,3.3-2.1,5.5-4.2,6.7c-1.7,0.9-3.6,1-4.4,1c-1.9,0-3.8-0.6-5.1-1.7c-1.1-0.9-3.9-3.8-3.9-10.7
		c0-2.6,0.5-8.7,4.7-11.2c1.2-0.7,2.6-1,4.4-1C-1374.3,1473.6-1373.7,1482.9-1373.7,1485.7z"/>
	<polygon points="-1346.7,1472.7 -1355.2,1472.7 -1355.2,1474.2 -1351.9,1474.2 -1351.9,1497.4 -1365.2,1472.7 -1371.1,1472.7 
		-1371.1,1474.2 -1367.9,1474.2 -1367.9,1497.9 -1371.1,1497.9 -1371.1,1499.4 -1362.7,1499.4 -1362.7,1497.9 -1366.1,1497.9 
		-1366.1,1475 -1352.9,1499.3 -1352.8,1499.4 -1350.1,1499.4 -1350.1,1474.2 -1346.7,1474.2 	"/>
	<path d="M-1337.1,1488.1h8.3c0,2.2-0.1,4.4-1.2,6.6c-1.8,3.4-5.3,3.7-6.4,3.7c-5.2,0-8.6-4.8-8.6-12.1c0-7.6,3-10.4,4.8-11.4
		c1.4-0.8,2.6-0.9,3.5-0.9c4.1,0,6.8,2.6,7.6,7.1v0.1h1.8v-8.4h-1.7v3.8c-0.6-1.2-2-3-4.3-3.8c-1.4-0.5-3-0.5-3.5-0.5
		c-7.6,0-10.4,7.1-10.4,13.8c0,1.4,0.1,5.1,1.5,7.9c1.7,3.8,5.1,6,9.1,6c4.7,0,6.9-2.6,7.8-4.1l0.1,3.6h1.8v-13h-10.1
		L-1337.1,1488.1L-1337.1,1488.1z"/>
	<polygon points="-1310.2,1496.6 -1318.6,1472.7 -1324.9,1472.7 -1324.9,1474.2 -1321.5,1474.2 -1321.5,1497.9 -1324.9,1497.9 
		-1324.9,1499.4 -1316.8,1499.4 -1316.8,1497.9 -1319.7,1497.9 -1319.7,1475 -1311.1,1499.4 -1309.3,1499.4 -1300.7,1475 
		-1300.7,1497.9 -1303.8,1497.9 -1303.8,1499.4 -1295.4,1499.4 -1295.4,1497.9 -1298.7,1497.9 -1298.7,1474.2 -1295.4,1474.2 
		-1295.4,1472.7 -1301.7,1472.7 	"/>
	<path d="M-1280.3,1474.2h2.7v-1.5h-8.8v1.5h2.7l-8.1,23.7h-2.6v1.5h7.4v-1.5h-3l2.3-6.8h11l2.3,6.8h-2.8v1.5h7.5v-1.5h-2.6
		L-1280.3,1474.2z M-1282.1,1474.5l5,15h-10L-1282.1,1474.5z"/>
	<polygon points="-1252.5,1472.7 -1252.5,1474.2 -1249.2,1474.2 -1249.2,1497.4 -1262.5,1472.7 -1268.4,1472.7 -1268.4,1474.2 
		-1265.1,1474.2 -1265.1,1497.9 -1268.4,1497.9 -1268.4,1499.4 -1260,1499.4 -1260,1497.9 -1263.4,1497.9 -1263.4,1475 
		-1250.1,1499.3 -1250.1,1499.4 -1247.4,1499.4 -1247.4,1474.2 -1244,1474.2 -1244,1472.7 	"/>
	<polygon points="-1367.8,1504.7 -1364.4,1504.7 -1364.4,1528.3 -1367.8,1528.3 -1367.8,1529.8 -1348.9,1529.8 -1348.9,1521.2 
		-1350.7,1521.2 -1350.7,1528.3 -1362.5,1528.3 -1362.5,1516.6 -1351.5,1516.6 -1351.5,1515 -1362.5,1515 -1362.5,1504.7 
		-1350.7,1504.7 -1350.7,1511.3 -1348.9,1511.3 -1348.9,1503.1 -1367.8,1503.1 	"/>
	<path d="M-1332.7,1504.7h2.7v-1.5h-8.9v1.5h2.9l-8.1,23.7h-2.6v1.5h7.4v-1.5h-3l2.3-6.9h11l2.3,6.9h-2.8v1.5h7.5v-1.5h-2.6
		L-1332.7,1504.7z M-1334.4,1505l4.9,15h-10L-1334.4,1505z"/>
	<path d="M-1313.3,1518.5h8.3c0,2.2-0.1,4.4-1.2,6.5c-1.8,3.4-5.3,3.7-6.4,3.7c-5.2,0-8.6-4.8-8.6-12.1c0-7.6,3-10.4,4.8-11.4
		c1.4-0.8,2.6-0.9,3.5-0.9c4.1,0,6.8,2.6,7.6,7.1v0.1h1.8v-8.4h-1.7v3.8c-0.6-1.2-2-3-4.3-3.8c-1.4-0.5-3-0.5-3.5-0.5
		c-7.6,0-10.4,7.1-10.4,13.8c0,1.4,0.1,5.1,1.5,7.9c1.8,3.8,5.1,6,9.1,6c4.7,0,6.9-2.6,7.8-4.1l0.1,3.6h1.8v-12.9h-10.1
		L-1313.3,1518.5L-1313.3,1518.5z"/>
	<polygon points="-1285.3,1528.3 -1295.8,1528.3 -1295.8,1504.7 -1292.5,1504.7 -1292.5,1503.1 -1301.2,1503.1 -1301.2,1504.7 
		-1297.8,1504.7 -1297.8,1528.3 -1301.2,1528.3 -1301.2,1529.8 -1283.5,1529.8 -1283.5,1521.2 -1285.3,1521.2 	"/>
	<polygon points="-1262.4,1511.3 -1262.4,1503.1 -1281.4,1503.1 -1281.4,1504.7 -1277.9,1504.7 -1277.9,1528.3 -1281.4,1528.3 
		-1281.4,1529.8 -1262.4,1529.8 -1262.4,1521.2 -1264.2,1521.2 -1264.2,1528.3 -1276.1,1528.3 -1276.1,1516.6 -1265,1516.6 
		-1265,1515 -1276.1,1515 -1276.1,1504.7 -1264.2,1504.7 -1264.2,1511.3 	"/>
</g>
</svg>
