<?xml version="1.0" encoding="utf-8"?>
<!-- Generator: Adobe Illustrator 16.0.4, SVG Export Plug-In . SVG Version: 6.00 Build 0)  -->
<!DOCTYPE svg PUBLIC "-//W3C//DTD SVG 1.1//EN" "http://www.w3.org/Graphics/SVG/1.1/DTD/svg11.dtd">
<svg version="1.1" id="Layer_1" xmlns="http://www.w3.org/2000/svg" xmlns:xlink="http://www.w3.org/1999/xlink" x="0px" y="0px"
	 width="170px" height="126.9px" viewBox="0 86.4 170 126.9" style="enable-background:new 0 86.4 170 126.9;" xml:space="preserve"
	>
<style type="text/css">
<![CDATA[
	.st0{fill:none;}
]]>
</style>
<g>
	<polygon points="82.6,172.5 83.9,173.8 86,176.3 86,172.4 	"/>
	<rect x="112.1" y="183.7" width="0" height="19.4"/>
	<polygon points="112.1,171.9 112.1,173.7 112.1,173.7 	"/>
	<polygon points="33.9,174.4 36,176.5 36,174.3 	"/>
	<rect x="45.4" y="193" width="10.5" height="0.1"/>
	<polygon points="62.9,173.3 62,173.4 62.5,173.8 	"/>
	<polygon points="43.1,136.4 54.6,136 54.6,133.9 43,134.3 	"/>
	<polygon points="43.7,152.8 55.3,152.4 55.2,151.1 43.7,151.6 	"/>
	<polygon points="22.4,137.2 37.7,136.6 38.1,134.5 21.8,135.1 	"/>
	<polygon points="43.5,147.4 55.1,146.9 55,145.3 43.4,145.8 	"/>
	<polygon points="40.3,120 40.7,117.2 17.9,118.1 18.6,120.9 	"/>
	<polygon points="43.3,141.8 54.9,141.4 54.8,139.7 43.2,140.1 	"/>
	<polygon points="21.1,131.8 38.6,131.1 39,128.8 20.6,129.5 	"/>
	<polygon points="19.9,126.4 39.4,125.7 39.9,123 19.3,123.7 	"/>
	<polygon points="41.5,111.4 31.4,111.8 30.9,114.9 41.1,114.6 	"/>
	<polygon points="53,93.8 33.8,94.5 33.3,98.4 53.2,97.6 	"/>
	<polygon points="53.3,99.5 33,100.3 32.6,104 53.4,103.2 	"/>
	<polygon points="53.4,105.3 32.2,106.1 31.7,109.5 53.6,108.7 	"/>
	<polygon points="42.8,130.9 54.4,130.5 54.3,128.2 42.8,128.6 	"/>
	<polygon points="25.1,94.9 3.8,95.7 3.9,99.5 25.8,98.7 	"/>
	<polygon points="42.3,114.5 53.8,114 53.7,110.9 42.1,111.4 	"/>
	<polygon points="42.4,120 54,119.5 53.9,116.7 42.3,117.2 	"/>
	<polygon points="42.7,125.5 54.2,125.1 54.1,122.4 42.5,122.8 	"/>
	<polygon points="17.3,146.7 5.7,147.2 5.7,148.9 17.3,148.4 	"/>
	<polygon points="17.1,141.1 5.5,141.5 5.6,143.3 17.1,142.8 	"/>
	
		<rect x="5.1" y="129.9" transform="matrix(-0.9993 3.867225e-02 -3.867225e-02 -0.9993 26.8614 261.5688)" width="11.6" height="2.3"/>
	<polygon points="16.8,135.3 5.3,135.7 5.3,137.8 16.9,137.4 	"/>
	<polygon points="26.3,100.5 3.9,101.4 4.1,105.1 27.1,104.2 	"/>
	<polygon points="27.5,106.3 4.2,107.2 4.3,110.5 28.2,109.6 	"/>
	<polygon points="5.9,153 6,154.2 17.5,153.8 17.5,152.5 	"/>
	<polygon points="16.2,118.2 4.6,118.6 4.7,121.4 16.3,121 	"/>
	<polygon points="16.4,123.8 4.8,124.3 4.9,126.9 16.5,126.5 	"/>
	<polygon points="17.3,115.5 29.4,115 28.7,111.9 16.6,112.3 	"/>
	<polygon points="24.8,148.1 36.1,147.7 36.4,146 24.4,146.5 	"/>
	<polygon points="26.1,153.5 35.3,153.1 35.5,151.8 25.8,152.3 	"/>
	<polygon points="15.9,112.4 4.4,112.8 4.5,116 16.1,115.5 	"/>
	<polygon points="23.6,142.6 36.9,142.1 37.2,140.3 23.2,140.9 	"/>
	<polygon points="81.6,135.6 88.8,135.3 84.4,116.1 	"/>
	<polygon points="83.2,115.6 70.7,116.1 70.2,118.9 82.7,118.4 	"/>
	<polygon points="84.1,109.8 71.5,110.2 71,113.4 83.6,112.9 	"/>
	<polygon points="80.5,132.9 68.1,133.3 67.7,135.4 80,135 	"/>
	<polygon points="103.5,137.8 67.2,139.2 66.9,140.9 103.9,139.5 	"/>
	<polygon points="82.3,121.3 69.9,121.8 69.3,124.5 81.9,124 	"/>
	<polygon points="81.4,127.1 68.9,127.6 68.5,129.9 81,129.5 	"/>
	<polygon points="94,150.8 106.4,150.4 106.1,149.2 93.8,149.6 	"/>
	<polygon points="77.8,150.2 65.4,150.7 65.2,152 77.6,151.5 	"/>
	<polygon points="104.8,143.4 66.3,144.9 66,146.5 105.1,145 	"/>
	<polygon points="89,129.2 101.4,128.7 100.9,126.4 88.4,126.9 	"/>
	<polygon points="87.7,123.8 100.1,123.3 99.6,120.6 87.1,121.1 	"/>
	<polygon points="90.2,134.6 102.6,134.1 102.2,132 89.8,132.5 	"/>
	<polygon points="86.4,118.3 98.9,117.8 98.3,115 85.8,115.5 	"/>
	<polygon points="93.1,92.2 74.2,93 73.5,96.8 93.9,96.1 	"/>
	<polygon points="85.1,112.9 97.6,112.3 96.9,109.2 84.4,109.8 	"/>
	<polygon points="94.3,97.9 73.3,98.7 72.7,102.4 95.1,101.6 	"/>
	<polygon points="95.7,103.6 72.4,104.6 71.8,107.9 96.4,107 	"/>
	<path d="M127.9,103.4l1.8,47.3l15.9-0.6l-1.8-47.3L127.9,103.4z M138.5,148.4l-1.4-36.4l5.2-0.2l1.4,36.4L138.5,148.4z"/>
	<polygon points="146.7,132.3 158.7,131.9 158.6,129.8 146.6,130.2 	"/>
	<polygon points="146.9,137.8 158.9,137.3 158.9,135.6 146.8,136 	"/>
	<rect x="147" y="141.4" transform="matrix(0.9993 -3.850457e-02 3.850457e-02 0.9993 -5.3639 5.9994)" width="12.1" height="1.6"/>
	<polygon points="146.4,126.9 158.5,126.4 158.4,124.1 146.4,124.5 	"/>
	<polygon points="145.8,110.5 157.9,110 157.8,106.8 145.7,107.3 	"/>
	<polygon points="147.3,148.7 158.2,148.3 159.3,147.3 159.3,147 147.3,147.5 	"/>
	<polygon points="145.6,105 157.6,104.6 157.5,101.2 145.5,101.7 	"/>
	<polygon points="146,115.9 158,115.5 157.9,112.6 145.9,113.1 	"/>
	<polygon points="153.7,95.5 114,97.1 114.2,100.7 157.5,99.1 	"/>
	<polygon points="146.3,121.4 158.3,121 158.2,118.3 146.1,118.8 	"/>
	<polygon points="127.8,142.4 115.8,142.9 115.9,144.5 127.9,144.1 	"/>
	<polygon points="148,90.1 113.8,91.4 113.9,95.2 151.8,93.8 	"/>
	<polygon points="127.6,136.8 115.6,137.3 115.6,139 127.6,138.5 	"/>
	<polygon points="127.3,131 115.3,131.5 115.4,133.5 127.5,133 	"/>
	<polygon points="116,148.7 116,150 128.1,149.5 128,148.2 	"/>
	<polygon points="126.7,113.9 114.7,114.3 114.8,117.1 126.8,116.6 	"/>
	<polygon points="126.3,102.4 114.2,102.9 114.4,106.2 126.4,105.7 	"/>
	<polygon points="126.5,108.1 114.4,108.5 114.6,111.6 126.6,111.2 	"/>
	<polygon points="127,122.2 126.9,119.5 114.9,120 115,122.7 	"/>
	<polygon points="127.2,125.3 115.1,125.8 115.2,128.1 127.2,127.6 	"/>
	<path d="M17.9,177.8L17.9,177.8v24.3h8.2v-0.2v-24.1 M22.4,182.4h2.7V201h-2.7V182.4z"/>
	<rect x="27" y="194.9" width="6.2" height="0.9"/>
	<rect x="11" y="186.1" width="6.2" height="1.3"/>
	<rect x="27" y="191.9" width="6.2" height="1.1"/>
	<rect x="27" y="189" width="6.2" height="1.2"/>
	<rect x="11" y="183.1" width="6.2" height="1.4"/>
	<polygon points="27,201.4 32.5,201.4 33.1,200.9 33.1,200.8 27,200.8 	"/>
	<rect x="11" y="180.2" width="6.2" height="1.6"/>
	<rect x="27" y="197.8" width="6.2" height="0.8"/>
	<rect x="11" y="177.3" width="6.2" height="1.7"/>
	<rect x="27" y="186.1" width="6.2" height="1.3"/>
	<rect x="11" y="194.9" width="6.2" height="0.9"/>
	<rect x="11" y="191.9" width="6.2" height="1.1"/>
	<rect x="11" y="197.8" width="6.2" height="0.8"/>
	<rect x="11" y="189" width="6.2" height="1.2"/>
	<rect x="11" y="200.8" width="6.2" height="0.6"/>
	<polygon points="28.4,171.4 11,171.4 11,173.4 30.3,173.4 	"/>
	<rect x="27" y="180.2" width="6.2" height="1.6"/>
	<rect x="27" y="177.3" width="6.2" height="1.7"/>
	<rect x="27" y="183.1" width="6.2" height="1.4"/>
	<polygon points="11,174.3 11,176.2 33.1,176.2 31.3,174.3 	"/>
	<rect x="37.7" y="172.1" width="19.4" height="2"/>
	<rect x="37.7" y="175" width="19.4" height="1.9"/>
	<rect x="37.7" y="180.9" width="6.8" height="1.6"/>
	<rect x="37.7" y="189.7" width="17.3" height="1.2"/>
	<rect x="37.7" y="186.7" width="17.3" height="1.3"/>
	<rect x="37.7" y="183.8" width="6.8" height="1.4"/>
	<rect x="37.7" y="192.6" width="6.8" height="1.1"/>
	<polygon points="44.5,177.9 37.7,177.9 37.7,179.7 44.5,179.7 	"/>
	<rect x="37.7" y="195.6" width="6.8" height="0.9"/>
	<rect x="37.7" y="201.4" width="6.8" height="0.6"/>
	<rect x="37.7" y="198.4" width="6.8" height="0.8"/>
	<rect x="62.1" y="177.9" width="6.2" height="1.7"/>
	<polygon points="83.2,176.5 82,175 63.8,175 62.2,176.9 83.2,176.9 	"/>
	<rect x="76.9" y="177.9" width="6.3" height="1.7"/>
	<polygon points="81.2,174.1 79.5,172.1 66.3,172.1 64.6,174.1 	"/>
	<rect x="62.1" y="180.9" width="6.2" height="1.6"/>
	<rect x="78.4" y="198.4" width="6.7" height="0.8"/>
	<rect x="78.4" y="195.6" width="6.7" height="0.9"/>
	<polygon points="62.6,202.1 68.2,202.1 68.2,201.4 62.2,201.4 	"/>
	<rect x="62.1" y="198.4" width="6.2" height="0.8"/>
	<rect x="62.1" y="195.6" width="6.2" height="0.9"/>
	<rect x="76.9" y="183.8" width="6.3" height="1.1"/>
	<rect x="76.9" y="180.9" width="6.3" height="1.6"/>
	<rect x="62.1" y="192.6" width="6.2" height="1.1"/>
	<polygon points="78.4,202.1 84.9,202.1 85.2,201.7 85.2,201.4 78.4,201.4 	"/>
	<rect x="62.1" y="183.8" width="6.2" height="1.4"/>
	<rect x="62.1" y="189.7" width="6.2" height="1.2"/>
	<rect x="62.1" y="186.7" width="6.2" height="1.3"/>
	<rect x="87.8" y="175.4" width="19.4" height="1.9"/>
	<rect x="87.8" y="172.5" width="19.4" height="1.9"/>
	<rect x="87.8" y="190.1" width="17.3" height="1.2"/>
	<rect x="87.8" y="193" width="6.8" height="1.1"/>
	<rect x="87.8" y="181.3" width="6.8" height="1.6"/>
	<rect x="87.8" y="187.1" width="17.3" height="1.3"/>
	<rect x="87.8" y="184.2" width="6.8" height="1.4"/>
	<rect x="87.8" y="198.8" width="6.8" height="0.8"/>
	<polygon points="94.6,178.3 87.8,178.3 87.8,180.1 94.6,180.1 	"/>
	<rect x="87.8" y="196" width="6.8" height="0.9"/>
	<rect x="87.8" y="201.8" width="6.8" height="0.6"/>
	<polygon points="125.6,202.7 135.2,202.7 135.2,202.1 125.3,202.1 	"/>
	<rect x="129.3" y="184.5" width="5.9" height="1.4"/>
	<rect x="129.3" y="181.5" width="5.9" height="1.6"/>
	<rect x="129.3" y="187.4" width="5.9" height="1.3"/>
	<polygon points="121.4,191.5 135.2,191.5 135.2,190.3 120.9,190.3 	"/>
	<polygon points="127.7,187.4 119.8,187.4 120.3,188.8 128.3,188.8 	"/>
	<polygon points="124.6,200 135.2,200 135.2,199.1 124.3,199.1 	"/>
	<rect x="129.3" y="175.6" width="5.9" height="1.9"/>
	<polygon points="123.5,197.1 135.2,197.1 135.2,196.2 123.2,196.2 	"/>
	<polygon points="122.5,194.3 135.2,194.3 135.2,193.3 122,193.3 	"/>
	<rect x="129.3" y="172.8" width="5.9" height="1.9"/>
	<rect x="129.3" y="178.6" width="5.9" height="1.7"/>
	<rect x="112.9" y="193.3" width="5.9" height="1.1"/>
	<rect x="112.9" y="196.2" width="5.9" height="0.9"/>
	<rect x="112.9" y="199.1" width="5.9" height="0.8"/>
	<polygon points="126.3,184.5 112.9,184.5 112.9,185.9 127,185.9 	"/>
	<rect x="112.9" y="190.3" width="5.9" height="1.2"/>
	<polygon points="125.1,181.5 112.9,181.5 112.9,183.1 125.8,183.1 	"/>
	<polygon points="123.7,178.6 112.9,178.6 112.9,180.3 124.5,180.3 	"/>
	<polygon points="122.4,175.6 112.9,175.6 112.9,177.6 123.2,177.6 	"/>
	<polygon points="121,172.8 112.9,172.8 112.9,174.7 121.9,174.7 	"/>
	<rect x="112.9" y="202.1" width="5.9" height="0.6"/>
	<rect x="112.9" y="187.4" width="5.9" height="1.3"/>
	<path d="M138,170.9v1l-1-1h-9.6v7.2l-1.6-3.6l-3.6-3.5l34.6-1.3l13.2-14.4l-1.9-51l-18.9-17.6L110.1,88l1.8,45.5L103,95.3l-7.2-6.7
		L71,89.5l-6,40.4l-1.3-33.2l-7.2-6.6l-25.7,1l-0.5,2.3l-2.4-2.2L0,92.2l2.9,76.4l6.2,5.7v34.3l3.6,3.6h18.8l4.6-4.6v1.8l3.6,3.6
		h24.3v-5.5l1.2,2l3.6,3.6H85l1.9-2.3l2.8,2.8H114v-0.5l0.8,0.8h9.5v-9.5l2.2,5.9l3.6,3.6h10.6v-28.8l1,1h5.8v24.3l3.6,3.6h10.4
		v-27.8h8.5v-11.3l-3.6-3.6H138V170.9z M114.9,162.3l-2.8-72.5l36.3-1.4l10.6,10l1.9,49.5L148.7,161 M72.7,91.3l21.5-0.8l16.7,72
		l-15.8,0.6l-2.6-11.8l-13.3,0.5l-1.9,12l-15.6,0.6L72.7,91.3z M27.3,165.7L18,124.2l1.6,41.4v0.4l-14.8,0.6v-0.4L2.1,94l24.3-0.9
		l3.5,16.5l2.6-16.8L54.6,92l2.8,72.2v0.4l-14.8,0.6v-0.4l-1.6-41.7L35,165.5 M33.9,201.1v0.1l-6.5,6.4H10.1v-0.1v-37h18.6l5.2,5.3
		V201.1z M59.2,208.2v0.1H37v-0.1v-37h21v7.4v0.1H45.4l0,0v6.6h10.5v7.6v0.1H45.4l0,0v8.8h13.9V208.2z M60.3,201L60.3,201H50v-3.3
		h10.3V201z M60.3,187.8l-3.4-3.4h-7v-1.1h10.3L60.3,187.8L60.3,187.8z M65.6,208.3l-4.3-7v-0.1v-17.9v-6.7l4.7-5.5h13.9l4.2,5v9.4
		v0.1h-7.9v-0.1v-7.1h-7v24.3h8.6v-0.1v-8.7h8.4v8.2l-5.3,6.2 M86,192.8h-9.4v8.9h-2.9v-18.6h1.5v3.7l3.6,3.6h7.4L86,192.8L86,192.8
		z M86.6,170.7l1.6-10.4l4.4-0.2l1.2,5l6,5.5H86.6z M87,208.7v-37.1h21v7.4v0.1H95.5v6.5v0.1H106v7.6v0.1H95.5v8.6v0.1h13.9v6.4
		 M111,202.1l-0.8-0.8H100v-3.3h10.5v-9.7l-3.6-3.6H100v-1.1H111V202.1L111,202.1z M136,209h-8.9l-7.4-19.6v19.5h-7.6v-25.1l0,0v-10
		l0,0v-1.9l0,0h9.5l6.9,14.9v-14.9h7.6V209z M156.8,181.1v27.7v0.1h-8.4v-0.1v-27.7H139v-9.3h26.2v9.3"/>
	<line class="st0" x1="119.7" y1="189.3" x2="119.7" y2="189.3"/>
	<rect x="149.2" y="187.4" width="6.7" height="1.3"/>
	<rect x="149.2" y="184.5" width="6.7" height="1.4"/>
	<rect x="149.2" y="181.5" width="6.7" height="1.6"/>
	<rect x="149.2" y="199.1" width="6.7" height="0.8"/>
	<rect x="149.2" y="202.1" width="6.7" height="0.6"/>
	<rect x="149.2" y="190.3" width="6.7" height="1.2"/>
	<rect x="149.2" y="196.2" width="6.7" height="0.9"/>
	<rect x="149.2" y="193.3" width="6.7" height="1.1"/>
	<rect x="139.8" y="175.6" width="24.6" height="1.9"/>
	<rect x="139.8" y="178.6" width="24.6" height="1.7"/>
	<rect x="139.8" y="172.8" width="24.6" height="1.9"/>
</g>
</svg>
