<?xml version="1.0" encoding="utf-8"?>
<!-- Generator: Adobe Illustrator 16.0.4, SVG Export Plug-In . SVG Version: 6.00 Build 0)  -->
<!DOCTYPE svg PUBLIC "-//W3C//DTD SVG 1.1//EN" "http://www.w3.org/Graphics/SVG/1.1/DTD/svg11.dtd">
<svg version="1.1" id="Layer_1" xmlns="http://www.w3.org/2000/svg" xmlns:xlink="http://www.w3.org/1999/xlink" x="0px" y="0px"
	 width="1224px" height="792px" viewBox="0 0 1224 792" enable-background="new 0 0 1224 792" xml:space="preserve">
<path d="M569.062,704.346c0-20.912-18.688-35.595-40.935-35.595h-93.883v116.575h35.596v-44.05h24.917l33.37,44.05h40.49
	l-35.596-45.83C552.6,739.496,569.062,723.924,569.062,704.346 M513.445,722.589h-43.16v-35.596h44.05
	c10.679,0,19.133,8.454,18.688,18.688C532.577,715.47,523.679,723.479,513.445,722.589z"/>
<path d="M724.793,704.346c0-20.912-18.688-35.595-40.935-35.595h-93.883v116.575h35.595v-44.05h24.917l33.371,44.05h40.49
	l-35.596-45.83C708.33,739.496,724.793,723.924,724.793,704.346 M669.176,722.589h-43.16v-35.596h44.05
	c10.233,0,19.132,8.454,18.688,18.688C688.308,715.47,679.409,723.479,669.176,722.589z"/>
<polyline points="334.578,733.268 403.099,733.268 403.099,716.359 334.578,716.359 334.578,686.549 414.223,686.549 
	414.223,668.751 298.982,668.751 298.982,785.326 414.668,784.881 414.668,767.083 334.578,767.083 334.578,733.268 "/>
<polyline points="781.301,733.268 849.822,733.268 849.822,716.359 781.746,716.359 781.746,686.549 860.946,686.549 
	860.946,668.751 745.706,668.751 745.706,785.326 861.836,784.881 861.836,767.083 781.301,767.083 781.301,733.268 "/>
<polyline points="188.636,756.85 152.15,668.751 105.876,668.751 105.876,785.326 127.234,785.326 127.234,689.663 162.829,784.881 
	201.094,785.326 236.69,689.663 236.69,785.326 273.175,785.326 273.175,668.751 221.562,668.751 188.636,756.85 "/>
<polyline points="916.564,668.751 881.413,668.751 881.413,785.326 993.095,784.881 993.095,767.528 916.564,767.528 
	916.564,668.751 "/>
<polyline points="1044.708,668.751 1009.558,668.751 1009.558,784.881 1121.238,784.881 1121.238,767.528 1044.708,767.528 
	1044.708,668.751 "/>
<path d="M595.76,8.009c-161.96,0-293.663,131.704-293.663,293.663c0,162.404,131.259,293.663,293.663,293.663
	c161.959,0,293.663-131.259,293.663-293.663C888.978,139.712,757.719,8.009,595.76,8.009z M774.182,400.449V223.807l-59.177,193.995
	l-79.2,24.027l-88.1-230.926v257.178l-125.028,37.375V92.548l193.105,30.256l65.852,185.986l48.943-167.744l94.328,14.684v229.146
	L774.182,400.449z"/>
<path d="M920.568,174.863c12.459,0,23.137,9.789,23.137,23.137s-10.678,23.137-23.137,23.137c-12.458,0-23.582-9.789-23.582-23.137
	C896.986,184.207,907.665,174.863,920.568,174.863 M920.568,178.422c-10.679,0-19.133,8.454-19.133,19.133
	c0,11.124,8.454,19.132,19.133,19.132s18.688-8.009,18.688-19.132S931.247,178.422,920.568,178.422z M915.674,210.903h-4.004
	v-26.697h10.233c6.229,0,9.344,2.225,9.344,7.564c0,4.894-3.114,6.674-7.119,7.119l7.564,11.569h-4.45l-7.119-11.569h-4.449V210.903
	z M915.674,196.22h4.895c4.895,0,6.674-1.335,6.674-4.449c0-2.67-1.334-4.005-5.783-4.005h-5.34v8.454H915.674z"/>
</svg>
