<?xml version="1.0" encoding="utf-8"?>
<!-- Generator: Adobe Illustrator 18.1.1, SVG Export Plug-In . SVG Version: 6.00 Build 0)  -->
<svg version="1.1" id="Layer_1" xmlns="http://www.w3.org/2000/svg" xmlns:xlink="http://www.w3.org/1999/xlink" x="0px" y="0px"
	 viewBox="0 0 231.3 178" style="enable-background:new 0 0 231.3 178;" xml:space="preserve">
<style type="text/css">
	.st0{fill:#F27024;}
</style>
<path class="st0" d="M106,158.3c0-4.7-4.2-8-9.2-8l-21.1,0l0,26.2l8,0v-9.9l5.6,0l7.5,9.9l9.1,0l-8-10.3
	C102.3,166.2,106,162.7,106,158.3 M93.5,162.4l-9.7,0v-8l9.9,0c2.4,0,4.3,1.9,4.2,4.2C97.8,160.8,95.8,162.6,93.5,162.4z"/>
<path class="st0" d="M141,158.3c0-4.7-4.2-8-9.2-8h-21.1l0,26.2l8,0v-9.9l5.6,0l7.5,9.9l9.1,0l-8-10.3
	C137.3,166.2,141,162.7,141,158.3 M128.5,162.4l-9.7,0v-8l9.9,0c2.3,0,4.3,1.9,4.2,4.2C132.8,160.8,130.8,162.6,128.5,162.4z"/>
<polyline class="st0" points="53.3,164.8 68.7,164.8 68.7,161 53.3,161 53.3,154.3 71.2,154.3 71.2,150.3 45.3,150.3 45.3,176.5 
	71.3,176.4 71.3,172.4 53.3,172.4 53.3,164.8 "/>
<polyline class="st0" points="153.7,164.8 169.1,164.8 169.1,161 153.8,161 153.8,154.3 171.6,154.3 171.6,150.3 145.7,150.3 
	145.7,176.5 171.8,176.4 171.8,172.4 153.7,172.4 153.7,164.8 "/>
<polyline class="st0" points="20.5,170.1 12.3,150.3 1.9,150.3 1.9,176.5 6.7,176.5 6.7,155 14.7,176.4 23.3,176.5 31.3,155 
	31.3,176.5 39.5,176.5 39.5,150.3 27.9,150.3 20.5,170.1 "/>
<polyline class="st0" points="184.1,150.3 176.2,150.3 176.2,176.5 201.3,176.4 201.3,172.5 184.1,172.5 184.1,150.3 "/>
<polyline class="st0" points="212.9,150.3 205,150.3 205,176.4 230.1,176.4 230.1,172.5 212.9,172.5 212.9,150.3 "/>
<path class="st0" d="M112,1.8c-36.4,0-66,29.6-66,66c0,36.5,29.5,66,66,66c36.4,0,66-29.5,66-66C177.9,31.4,148.4,1.8,112,1.8
	 M152.1,90V50.3l-13.3,43.6L121,99.3l-19.8-51.9v57.8l-28.1,8.4V20.8l43.4,6.8l14.8,41.8l11-37.7l21.2,3.3v51.5L152.1,90z"/>
<path class="st0" d="M185,39.3c2.8,0,5.2,2.2,5.2,5.2c0,3-2.4,5.2-5.2,5.2c-2.8,0-5.3-2.2-5.3-5.2C179.7,41.4,182.1,39.3,185,39.3
	 M185,40.1c-2.4,0-4.3,1.9-4.3,4.3c0,2.5,1.9,4.3,4.3,4.3c2.4,0,4.2-1.8,4.2-4.3C189.2,41.9,187.4,40.1,185,40.1z M183.9,47.4H183
	v-6h2.3c1.4,0,2.1,0.5,2.1,1.7c0,1.1-0.7,1.5-1.6,1.6l1.7,2.6h-1l-1.6-2.6h-1V47.4z M183.9,44.1h1.1c1.1,0,1.5-0.3,1.5-1
	c0-0.6-0.3-0.9-1.3-0.9h-1.2V44.1z"/>
</svg>
