<?xml version="1.0" encoding="utf-8"?>
<!-- Generator: Adobe Illustrator 18.1.1, SVG Export Plug-In . SVG Version: 6.00 Build 0)  -->
<svg version="1.1" id="Layer_1" xmlns="http://www.w3.org/2000/svg" xmlns:xlink="http://www.w3.org/1999/xlink" x="0px" y="0px"
	 viewBox="0 0 963.8 604.1" style="enable-background:new 0 0 963.8 604.1;" xml:space="preserve">
<style type="text/css">
	.st0{fill-rule:evenodd;clip-rule:evenodd;}
</style>
<path class="st0" d="M206.7,259.5c2.6-10.9,7.3-21.2,11.5-31.5c3.6-8.9,6.4-18.2,7.5-27.6c1.3-11.6,1.1-23.4,0.2-35.1
	c-0.6-8.2-0.6-16.5-0.9-24.7c0.8-1.4,4.5-0.7,3-3.9c-0.2-0.2-0.3-0.6-0.5-0.7c0.4,0.5,0.8,1,0.9,1.6c-0.7,2.1-2,1.9-3.6,1l0,0.1
	c-0.8-5.8-1.3-11.8,0.2-17.2c0.9-3.3-1.8-5.8,0-8.9c1.8,0.4,3.1,1.5,4.9,3.1c-1.1-1.5-0.7-3.4-2.9-3.6c-3.4-0.3-2.9-2.4-2.1-4.6
	c0.3-0.3,1.2,0.1,1.1-0.4c0-0.8-1.1-0.2-1.4-0.8c-0.3-1.3-0.4-2.7,0.2-4c-0.4-3.9-0.3-7.8,0.2-11.7c0.6-0.6,0.2-2,1.5-2
	c0.9,0,1.1,0.9,1.3,1.7c0,1.8-0.2,3.6,0.8,5.2c1.6-1.1,1-2.7,0.8-4.1c0.2-1.5,0.3-2.8-1.5-3.7c-1.5-0.7-2.5-1.9-1.8-4
	c0.6-1.6,0.8-3.2,3.2-2.6c0.8,0.2,1.2-0.4,0.6-1.1c-2-2.5-1.5-5.6-2-8.4c-0.3-1.8-0.3-3.5,1-5c0.4-0.5,0.8-1.2,1.5-1.2
	c5.6,0,2.3-1.9,0.8-3.5c-1.5-1.7,0-3.7-0.4-5.5c-0.2-0.3-0.2-0.6,0.1-0.8c0.6-0.9,0.6-2.2,1.9-2.7c0.8-0.3,3.1-0.1,0.7-2
	c-1-0.7,0-2.2,0.4-3.2c0.9-2.6,3.7-3.5,5.4-5.5c1.7-2,2.8-2.6,0.7-4.6c-1.4-1.3-0.6-2.7-0.2-4.1l0,0c3.1,0.4,1.6-2,1.9-3.3
	c0.2-0.3,0.5-0.5,0.7-0.8c3-1,4.7-3.1,5.3-6.2c0.4-1,1-1.6,2.1-1.7c4.5-1.3,8.8-3.2,13.1-5c10.8-3.8,21.2-4.6,32.7-1.5
	c10.5,2.8,20.4,6.4,29,12.6c7.4,5.4,13.8,12.1,16.3,21.6c4.5,17.2,9.3,34.4,10.9,52.3c-0.7,0.7-0.7,1.3,0,2
	c0.3,11,0.8,22.1,0.8,33.1c0,13.2,2,26,6.6,38.3c3.3,8.6,4.4,17.5,5.5,26.5c-1.2,2.7-1,5.5-1,8.3c-4.3,6.4-2,14-3.5,20.9
	c-1.6,7.4-3.4,14.6-6.3,21.5c-0.6,1.5-1.4,2.9-1.5,4.5c-0.6,9.3-6.7,16.4-10.1,24.5c-6,14.8-8.1,30.1-8.7,45.8
	c-0.7,17.3,3.6,34.2,5.2,51.3c-0.5,0.7-1.1,1.2-1.6,1.9c-0.3,0.7-1,1.4-0.4,2.3c0.4,11.9,2,23.8-2.6,35.4
	c-2.9,7.2-4.6,14.8-7.8,21.8c-2.9,6.2-6.9,11.8-10.8,17.6c-2.3,3.4-5.3,6.4-7.7,9.8c-6.3,9.1-15.7,15-23,23.1
	c-7.5,8.5-11.3,18.2-14,28.8c-2.8,10.7-0.9,21.1,1.2,31.5c1.3,6.5-1.2,12.1-5.9,15.9c-4.4,3.6-9.5,6.9-15.5,7.8
	c-10.3,1.6-17.1-4.5-23.4-11c-9-9.3-9-21.5-9.6-33.3c-0.7-14.3,4-27.1,11.8-38.7c5.1-7.6,11.8-13.9,18.4-20.2
	c14.2-13.5,24.9-29.2,32.1-47.8c6.3-16.1,7.8-31.9,5.5-48.6c-0.4-1.7,0.8-3.7-0.5-5.3c-0.2-4.1-0.7-8.3-0.6-12.4
	c0-2.4,0.2-4.2-0.8-6.8c-2.7-7.6-4-16.1-2-24.4c-1-2.2-0.8-4.7-1.9-6.8c-0.6-1.1,0-2.4-0.7-3.4c-0.1-4,1.6-7.8,1-11.8
	c1.5-2.2-0.5-4.9,0.9-7.1l0.1,0.1c1.7-3.2,2.7-6.5,2.1-10.2c4-12.1,5.9-25.1,15.3-34.9c0.2-0.2,0.7-0.4,0.6-0.6
	c-1-6.9,5.5-10.6,6.9-16.5c2-1.8-0.4-4.1,0.8-6c1.4-7.6,2.5-15.2,3.1-22.9c0.7-1.1,2.2,3,2.7-0.5c0.1-0.7,1.7-0.6,2.7-0.1
	c0.3,0.2,0.5,0.4,0.7,0.6c0.7,0.5-1.1,1.5,0.3,1.9c-0.1-0.8,0-1.6-0.6-2.2c-1.3-1-2.8-0.6-4.2-0.5c-1.9,0.1-2.3-0.8-1.6-2.4
	c0.1-0.6,0.1-1.2,0.2-1.8c1.6-3.3-0.5-6.9,0.8-10.3c-1.2-2.4-0.2-5.4-1.9-7.7c-1.2-1.1-1.3-2.7-1.8-4.2c0.5-3.9-3.9-6.7-2.2-10.9
	c-0.7-3.1-1.3-6.2-2.9-9c-1.9-1.3-1.2-3.5-1.9-5.3c-0.1-0.6-0.2-1.1-0.3-1.7c-0.8-0.9-0.9-2.1-1.6-3.1c-0.6-2.6-1.6-5.2-1.9-7.9
	c-0.3-0.6-0.6-1.2-0.8-1.8c-0.1-0.5,0-0.9,0.2-1.3c0.2-1.3,0.3-2.7,0.5-4c-0.1-2,1.7-4.1-0.2-6c-1-1.6,0.2-4.1-2.1-5.2
	c-1.5-3.1,0.4-5.4,1.8-7.8c-1.7-4-1.1-8.1-1-12.3c0.1-5.5-1.2-11-2-16.4c-0.4-2.4-1.6-5.1,1.8-6.5c0.8-0.7,3.4,0.6,2.2-2.1
	c-2.2-1.6-3,2.2-5,1.4c-1.3-2.5,0.7-5.5-1-8c1.8-2.4-0.8-4.8-0.1-7.1c0.2-1.6,0.2-3-1.4-3.9c-0.5,0.2-0.9,0.4-1.4,0.1
	c-0.3-0.1-0.3-0.3-0.2-0.6c-3.8-2.1-5,0.9-5.9,3.4c-0.7,1.8-1,3.8-1.8,5.5c-0.7,2.6-1.5,5.1-2.2,7.7c-1.2,1.5-0.7,3.3-0.9,5
	c-0.7,7.7-1.3,15.3-2,23c-2.6,2.5-4.3,4.5-1.1,8.5c1.9,2.5,2.4,7.1,1.2,10.9c0.9,3.8,0.4,7.7,0,11.4c-0.5,6,1.5,11.7,2.1,17.5
	c0.9,9.6,1.3,19.1,1.4,28.7c0.2,14.2-1.9,28.1-7.4,41.4c-4.5,10.8-8.7,21.7-12.6,32.7c-1.7,4.8-2.4,9.9-3.5,14.8
	c-1.2,5.2-0.6,10.6-0.7,15.8c0,2.5,0.4,5-0.3,7.4c1.5,6.3,0.8,12.8,1.6,19.2c0.5,4,0.5,8.1,1.1,12.1c0.9,6.1-0.6,12.2-0.1,18.3
	c1.2,13.6-1.7,26.9-3.8,40.1c-1.3,8.1-4.8,16-8,23.6c-9.3,22.3-25.2,39.9-41.4,57.3c-5.1,5.5-7.5,12.2-8.5,19.5
	c-1,7.3-4.8,13.7-7.8,20.3c-0.8,1.8-1.7,3.6-2.5,5.4c-5.4,13.2-15.1,20.8-28.7,25.3c-9.3,3.1-18.6,3.5-27.6,2.6
	c-6.4-0.7-13.2-2.1-19.6-4.1c-4.6-1.5-8.6-4.5-10.6-8.7c-7.6-16.1-14.1-32.5-14-50.8c0-13.8,5-26.3,9.2-39
	c5.4-16.3,12.2-31.9,19.3-47.4c5.7-12.5,7.4-25.9,6.9-39.7c-0.2-6.1,0.2-12.3,0.3-18.4c1.4-1.2,0.2-2.8,0.5-4.1
	c0.1-1.3-0.3-2.4-1.5-3.1c-0.1-0.3-0.2-0.5-0.3-0.8c-1.2-2.7,1.3-5.6-0.7-8.2c-2.3-15.2-4.9-30.4-6.7-45.6
	c-1.8-14.9,0.1-29.2,6.1-43.4c4.5-10.6,8.4-21.7,10.2-33.3c1.2-7.3-0.9-14.5-1.9-21.7c-1-7.4-4.9-14.2-4-21.9
	c0.4-3.8-2.5-7.1-2.8-10.9c-2-1.6-0.9-4.2-1.9-6.1c-0.7-6.6-1.4-13.3-2-19.9c-1-5.8-0.1-11.7-0.6-17.6c-0.1-1,1.5-3.2-1.3-3.3
	c-1.1,3.6-2.2,7.2-3.3,10.8c-0.4,1.6-2.5,1.4-2.9,2.9c2.6-0.9,2.6-0.9,2.1,3.3c-3.5,23.4-2.4,46.9-3.5,70.4
	c-0.2,3.8,0.3,7.6,0.7,11.4c0.9,8.9-0.5,17.5-2.2,26.1c-1.2,5.7-0.7,11.6-3,17.2c-4.6,11.5-7.6,23.6-11.9,35.3
	c-5.6,15.1-12.3,30.1-9.6,47c0.8,5.2,2.1,10.3,4.2,15.2c3.6,8.4,3.5,17.5,5,26.3c3.2,17.9,0,35.4-4.7,52.5
	c-2.5,8.8-6.4,17.2-10.8,25.4c-5.2,9.5-10.1,19.2-14.8,29c-1.2,2.6-1.3,5.7-1.7,8.7c-1.4,9.9-1.7,19.8-1.4,29.9
	c0.4,13.1,6.5,23.6,11.1,34.9c3.9,9.5,9.5,18.5,10.2,29.3c0.1,1.8-0.3,2.9-1.1,4.5c-7.7,16.2-26.5,14.1-37.1,5.5
	c-12.7-10.3-18-25.1-24.6-39.2c-6.3-13.5-9.8-27.8-12.5-42.4c-0.9-4.8-0.8-9.9-1.2-14.8c1-4.6-0.3-9.4,0.9-14
	c0.3-1.1,0.3-2.3,1.1-3.1c5.8-19.9,14.7-38.6,21.1-58.2c5-15.2,5.1-31.2,0.3-47c-6.1-20.4-9.7-41.4-6.5-62.8
	c1.3-9.1,5.5-17.2,9.9-25.3c4.6-8.5,8.7-17.4,11.8-26.6c6.4-18.9,8.6-38.6,11.4-58.2c2.3-16.7,1.5-33.4,2.2-50.2
	c0.5-12,2.5-24,5.1-35.8c1.3-6,2.6-12,3.4-18.1c1.6-12,4.9-23.7,8.1-35.3c2.3-7.9,7.5-14.7,13.6-20.5c1.5-1.4,3.1-2.6,5.3-2.1
	c3-2.1,7.4,0.3,10-3.2c6.5-2.6,13.3-2.9,20.1-1.7c2.8,0.6,5.5,0.7,8.3,0.8c11.2,0.5,19.7,7,27.6,13.7c6.5,5.5,10.6,13.3,13.2,21.7
	c1.8,6,4.3,11.8,5.6,17.9c1.3,6.2,2.1,12.7,1.3,19c-1.3,10.4-1.5,20.6,0.4,30.9c1.1,6.1,1.1,12.5,2.4,18.5
	c1.4,6.6,3.6,13.1,5.5,19.6c4.1,14.1,3.8,28.7,3.9,43.2c0.1,9.7-1.7,19.1-4.3,28.4c-0.9,3.1-2.4,5.9-4,8.5c-5.4,8.7-6,18.3-5.8,28
	c0.1,6.4,0.2,12.8-0.4,19.2c-0.2,2.4,0.9,4.8,1.4,7.2c0.9,1-0.5,2.4,0.7,3.3c2.9,13.7,5.2,27.3,3.6,41.5c-0.7,5.7-0.6,11.4-1.8,17.3
	c-1,4.8-0.6,10.2-1.2,15.3c-1.2,11.1-4.6,21.7-9.9,31.4c-4.5,8.2-7,17.1-10.7,25.5c-3.2,7.4-4.9,15.2-8.4,22.4
	c-4.9,10.2-5.1,21.3-5.4,32.3c-0.1,2.5,0.5,4.7,3.5,5.1c2.7,0.4,3.8-1.3,4.5-3.7c2.8-10.2,9.5-18,16.1-25.9
	c4.7-5.6,7.8-12.3,12.8-17.5c4.5-4.7,6.7-10.7,10.6-15.7c3.3-4.2,4.2-10.3,5.8-15.7c2.2-7.5,6.6-14.2,7.6-22.3
	c2.5-20.6,4.6-41.3,2.2-62c-2.3-20,0.4-39.6,2-59.4c0.1-1,0.7-1.9,1-2.8C207.2,261.3,207.1,260.5,206.7,259.5z"/>
<path class="st0" d="M553.1,321.5c-0.5-5.1-4-9.1-5.3-13.9c-1.8-2.1-1-4.7-1.5-7c-0.4-1.1-0.4-2.5-1.5-3.3c-0.3-0.2-0.6-0.5-0.7-0.9
	c-2.2-16.4,2.6-31.4,9.9-45.8c1.8-0.8,2.2-2.6,2.9-4.3c0.8-2.5,1.1-5.2,1.7-7.7c1.8-3.1,1-6.5,1.1-9.8c0.1-0.8,0.3-1.5,0.4-2.3
	c0.7-3.6,1.3-7.1-0.4-10.6c-0.6-1.2-0.5-2.9,0.2-4.3c0.8-14.2-2.2-27.8-7-41c-1.2-2.4,0.8-4.7,0.2-7.1c-0.4-1.3-0.8-2.6-1.1-3.9
	c-2.3-1.4-2.3-3.9-2.7-6.1c-0.4-1.2,0-2.6-0.6-3.9c-1.5-0.6,1-3.3-1.7-3.3c-2.2-6.6-2.7-13.5-3.3-20.3c-0.7-6.7-1.2-13.5-1.7-20.3
	c0.2-2,1.2-3.9,1.1-6c1.5-3.3-0.4-7.1,1.9-10.2l0.1,0.1c1-2.5,0.5-5-0.2-7.5c-0.2-2.4,0.7-4.5,1.1-6.8c0.1-0.5,0.2-1,0.4-1.5
	c0.5-2.7,0.9-5.5,0.3-8.3c0-1.8,0-3.6,0.3-5.3c0.4-1.4,0.7-2.8,1.2-4.2c0.3-0.7,0.6-1.3,1-1.9c1.1-1.5,1.6-3.2,2.1-5
	c0.7-1.9,0.3-4.4,2.8-5.5l-0.2-0.3c1-1.6,1.9-3.3,2.8-5c0.2-0.2,0.3-0.5,0.4-0.8c0.2-0.5,0.6-0.6,1-0.2c2.4,0.4,3.1-1.6,4.1-3
	c2.8-3.7,6.4-5.4,11-6.2c4.3-0.8,8.3-3,12.5-4.4c6.2-2,13-2.3,19.1-4c6.1-1.7,11.7-1.7,17.5-1.1c12.2,1.2,24.2,3.5,35.9,7.1
	c8.1,2.5,14,8.5,20.3,13.8c8,6.6,13.9,14.7,18.6,23.8c2.6,5,3.2,10.7,3.6,16.2c0.3,3.1,0.8,6.3,0.8,9.3c0,11.5,3.1,22.8,2.4,34.2
	c-0.6,8.9-3.6,17.8-3.5,26.7c0,8.2-1,16.5,1,24.7c2.6,10.5,4.6,21.3,8.9,31.3c3.6,8.4,6.9,16.8,9.3,25.6c3.1,11.7,1.6,22.1-5.7,32.2
	c-6,8.3-12.7,16-19.1,24c-7.4,9.2-10.9,19.4-12.9,30.7c-1,5.5-1.2,11.5-6,15.8c-6.5,5.8-14.3,5.8-21.4,3c-8.2-3.3-16.1-7.7-21-15.9
	c-2.6-4.4-1.6-8.5-0.8-12.8c2-9.6,8.1-16.8,14.1-24.2c9.8-12.2,16-25.4,15.6-41.9c-0.4-15.5-3.7-30.4-5.7-45.6
	c-2.9-21.9-4.8-43.9-1.7-66.3c1.9-13.5,1-27.5-1.6-41.1c-1.1-6-0.8-12.3-2.9-18.2c-3.4-9.5-10.6-14.5-20.2-17.2
	c-9.8-2.8-19.7,1.6-24.3,10.9c-5.7,11.5-5.7,23.9-7,36.2c-1.3,11.3,1.5,22.3,1.7,33.4c0.2,10.4,2.9,20.1,5.3,29.7
	c2.8,11,7.9,21.3,10,32.5c1.9,10,1.6,20-0.1,30.1c-1.1,6.4-1.5,13-2.1,19.5c-0.3,4.3-2.2,8.1-4.2,11.5c-4.7,8.1-7,17-9.1,25.9
	c-2.3,9.7-1.3,19.5,2.8,28.6c3.3,7.2,5.9,14.8,11,21.1c3.8,4.7,8.5,8.1,13.2,11.6c14.2,10.4,31.2,16.1,45,27.2
	c4.7,3.8,8.8,8,12.6,13c5.6,7.2,10.8,14.6,14.1,23c2.6,6.7,5.7,13.5,6.4,20.7c0.6,6.1,3,11.8,3.5,17.8c0.7,1.2,0.3,2.6,0.4,3.9
	c-0.2,2.5-1.7,5-0.6,7.6c-0.3,4-0.7,8.1-0.7,12.1c0,10.3-4.8,19.4-6.7,29.3c-2.6,13.8-9.7,25.4-18.7,36.1c-5.1,6-8.5,13.4-13.3,19.8
	c-8,10.6-17.1,20.2-25.9,29.9c-9,9.9-21.6,15.5-34.8,18.6c-4.1,1-8.6,0.4-12.7-0.7c-15.6-4-29.8-10.6-42.2-21.4
	c-8.8-7.7-13-17.4-16.2-28.2c-2.3-7.9-0.6-14.9,1.2-22.6c4.7-19.9,5.4-40.2-0.5-60.1c-2.5-8.7-6.4-17-10.5-25.1
	c-4.7-9.4-2-18.9-1.3-28.3c0.5-7.6,3.2-14.7,2.9-22.7c-0.4-14.2,10.1-25.8,24.9-28.2c3.9-0.6,7.9-1.2,11.9-0.4
	c10.4,2.1,14,8.5,12.2,20.7c-1,6.7-4.6,12.8-4.8,19.7c-0.2,10.8,2.2,20.6,7.3,30.5c11.4,22.5,14.5,46.3,7,70.9
	c-1.4,4.6-2.5,9.3-3.4,14c-1.5,7.7,2.7,16.6,9.5,20.3c7.4,4.1,15.3,7.1,24,7c5-0.1,8.6-2.5,11.3-6.9c3.6-5.6,7.6-10.9,11.5-16.2
	c7.5-10.3,11.2-22,13.5-34.4c1-5.7,4.1-10.9,3.6-16.9c-0.6-1.9,1.7-1.2,2.1-2.2c-1.3-1.4-0.8-3.2-1-4.8c-1.6-2.6-1.3-5.7-2.2-8.4
	c-0.1-1.5,0-3-0.5-4.5c-0.2-1-0.4-1.9-0.3-2.9c0.3-2.1-0.1-4.1-1.4-5.8c-0.6-1.1-0.4-2.6-1.4-3.6c-0.5-5.4-3.6-10.3-3-15.9
	c-0.7-2.5-1.4-4.9-3.1-6.9c-2.3-5.4-5-10.5-6.8-16.1c-2.3-7.1-8.4-11.7-13.1-17.1c-9.6-10.9-22.7-16.8-35.1-23.5
	c-14.5-7.8-27.1-17.5-34.9-32.4c-1.4-1.2-2.5-2.6-2.8-4.5C553.1,324.7,552.6,323.2,553.1,321.5z"/>
<path class="st0" d="M458.8,397.5c0-6,0-12-0.1-18c-1.4-1.2,0.3-2.9-0.8-4.1c0.2-8.6-3.3-16.6-3.4-25.1c-0.2-13,1.9-25.4,6.8-37.4
	c2.8-6.9,6.5-13.4,9.7-20.2c8.3-17.4,15.5-35.3,17.6-54.5c1.3-11.6,1.2-23.5-1.1-35.2c-2.8-14.1-4.9-28.4-9.8-42
	c-2.1-5.9-5.3-11.4-7.6-17.2c-1.1-2.8-1.6-5.5-2.3-8.3c-3.3-13.1-5-26.4-6.8-39.7c-1.3-9.7-1.6-19.4,0.1-29.1
	c0.4-1.1-0.4-2.4,0.7-3.3c1.9-9.7,6.3-18.6,9-28.1c2.9-9.8,17.3-18.2,26.5-18.1c21.5,0.2,26,22.4,20.1,36.8
	c-1.2,2.9-2.5,5.8-3.6,8.7c-2.2,5.7-2.7,11.5-2.7,17.8c0.1,9.6,2.5,18.7,3.6,28c1.2,1.9,0.1,4.1,1,6c1,12,5.6,22.8,10.6,33.6
	c2.2,4.7,4,9.8,5.6,14.9c2.6,8.6,2.5,17.6,5.9,26.1c3.1,7.8,5.2,16.6,4.4,25.6c-0.5,5.5,0.3,11.2-0.1,16.7
	c-0.3,3.6-2.9,6.7-3.3,10.4c-1.1,11-6.8,20.6-9.9,30.9c-3.7,12.1-9.2,23.8-16.5,34.4c-0.9,1.3-1.3,3-1.6,4.5
	c-1.8,9.1-5.3,18-4.8,27.4c0.4,6.2,1.4,12.4,2.3,18.6c1.4,10.2,0.8,20.4,1.4,30.6c1,16-2.5,31.4-3.3,47.2
	c-0.9,17.6-7.1,33.8-13,50.2c-2.9,7.9-7,15.3-10.4,22.9c-7,16-16.1,31-27.3,43.9c-13.5,15.6-30.4,26.7-53,25.3
	c-11.5-0.7-22.9-0.5-33.4-5.8c-13.2-6.6-23.7-15.7-30.3-29.3c-3.9-8.2-6.9-16.2-5-25.6c0.7-3.3,1.7-6.7,2.9-9.6
	c5.7-14.3,8.9-29.5,16.6-43.1c3.6-6.3,4.8-13.6,8-20.2c11.5-24.2,13-49.7,8.4-75.7c-0.9-1,0.6-2.5-0.7-3.3
	c-1.5-9.6-3.2-19.2-4.3-28.9c-1.3-10.4,1.1-20.6,3.1-30.8c0-0.1,0.3-0.3,0.4-0.3c0.2,0.1,0.5,0.3,0.7,0.4c0.9-1,0.5-1.1,1.4-3.5
	c1.2-3.2,1.9-6.4,1.5-9.8c3.9-11.2,5.5-23,10.6-33.9c7.4-15.8,11-32.6,10.8-50.4c-0.4-26.4-3.5-52.3-11.2-77.6
	c-2.5-8.4-6.5-16.3-9.2-24.7c-5.2-16.2-6.9-33-8.1-50c-0.9-12.3-0.3-24.4,2.2-36.4c1.1-5.5,3.8-10.4,9.7-12.9
	c16.6-7,20.9-5.2,30.6,8.9c6.3,9.1,8.5,21.4,5.8,33.4c-1,1-0.2,2.6-1.2,3.6c-1.5,1.7,0.5,2.8,0.6,4.2c0.2,2.4-0.5,4.8,0.4,7.2
	c1.7,14.1,6,27.7,9.1,41.5c2.6,11.5,10.3,20.2,14,30.9c1.4,3.9,2.9,7.6,2.6,12.3c-0.3,4.4,2.3,9.1,3,13.9
	c2.8,18.5,6.2,37.1,4.8,55.9c-1.2,16.1-3.1,32.2-9.5,47.5c-5.3,12.7-8.5,26.2-13.9,39c-3.1,7.4-2.7,16.3-4.2,24.4
	c-1.5,8.2,0.4,16.2,2,24.1c1.2,6.1,2.5,12.4,3.1,18.3c1.1,10.3,3.5,20.9,1.2,31.3c-0.7,3.3-1,7-2.7,10.4c-1.1,2.4,0.3,6.8-0.3,10.3
	c-2.5,14.3-6.1,28.3-11.1,42.1c-5.5,15.3-9,31.4-9.7,47.7c-0.3,6.5,4.8,12.5,12.8,11.7c9.7-1.1,16.2-5.4,20.7-14.4
	c6.4-12.6,12.5-25.4,14.9-39.2c2.1-12.3,5.4-24.4,7-36.9c1.3-10.1,0.7-20.3,2.6-30.3c0.3-1.4-0.3-2.9-0.5-4.4
	C458.3,398.9,458.2,398.2,458.8,397.5z"/>
<path class="st0" d="M881.8,349.6c4.2-7.9,6.3-16.5,9.2-24.8c0.2-1.3,0.6-2.5,1.7-3.3c8.1-12.9,20.5-15.5,34.4-14.1
	c11.2,1.1,12.2,8.4,11.2,16.2c-0.8,6.6-3,13.2-5.4,19.5c-5.7,15.1-4.5,29.7,2,44.2c4.4,9.9,8.9,19.9,10.8,30.4
	c2.2,11.8,3.7,23.9,1.8,36.1c-1.8,11.5-4.6,22.9-6.1,34.4c-3.1,24.2-14.5,45-24.8,66.4c-6.7,14-17.9,23.1-29.9,31.7
	c-4.9,3.5-10.8,5-16.8,5.1c-10.2,0.3-20.6-0.6-29.7-5c-12-5.8-23.2-13.4-30.2-25.5c-5.8-10-6.8-21-6.2-32.3
	c1.3-21.9,7.2-43.2,8.9-65c2-24.4,1-48.2-10.2-71c-6.4-13-10.9-27.1-11-42c-1.1-3.7,1-7.4,0-11.1c1.5-5.4,2.6-10.9,3.9-16.4
	c2.6-10.9,5.3-21.8,11.4-31.4c6.3-9.8,8.6-21,11.4-32c2.9-11.1,2.9-22.6,3.6-34c0.7-0.5,0.7-0.9,0-1.4c-0.9-18.7-0.8-37.5-5.8-55.8
	c-0.4-1.3-0.3-2.6-0.5-4c-0.3-2.1,0-4.2-0.5-6.3c-1.6-1.1-2-2.9-2.4-4.7c-4.7-21.4-5.9-43.2-5.4-64.9c0.4-16.6,1.3-33.3,5.8-49.8
	c2.3-8.3,5.1-15.8,10.7-21.8c6-6.5,13.3-11.8,22.4-13.5c3.1-0.6,6-1.7,9.1-2.3c13.4-2.6,26.5-1.5,39.7,1.8
	c16.1,4.1,26.2,14.2,31.4,29.7c0.3,0.8,0.4,1.7,1,2.3c8.3,9.6,8.6,21.7,10.4,33.4c1.3,8.1-0.6,16.1,0.5,24.1
	c1.5,11.6,7.4,21.5,11.3,32.2c3.6,9.9,9.1,19.1,12.6,29.1c1.3,3.7,1.6,7.5,1.5,11c-0.2,12.1-1.3,24-4.8,36
	c-3.6,12.2-9.3,23.7-11.5,36.2c-2.2,12.2-5.4,24.3-4.9,37.1c0.3,7.5-4.9,13.5-12,15.9c-13.2,4.5-27.4,0.1-32.3-13.9
	c-2.8-8-4.1-17.2-1.4-26c1,1,0.1,2.6,0.9,3.8c-0.4-2.6-0.6-5-0.8-7.4c-0.2-3.4,1.6-6.7,1-10.2c1.4-4.5,2.5-9,4.2-13.4
	c3.8-9.8,9.3-18.9,12.2-29.2c3.5-12.2,7.1-24.3,1.8-36.9c-3.2-7.4-6.4-14.8-9.6-22.2c-2.2-5.1-4-10.6-8.4-14.5
	c-1.3-4.1-3.4-7.9-4.1-12.1c-0.6-1.7-1.2-3.4-1.9-5c-3.4-9.3-2.3-19.1-2.6-28.7c-0.2-5.3-0.3-10.6-1-15.8
	c-0.8-5.9-3.4-10.5-9.2-12.3c-5.1-1.7-11.6,1.9-15.5,6.6c-5.7,6.7-5.6,14.9-5.6,22.6c-0.1,20.6,0.6,41.2,4.2,61.6
	c1.3,7.4,2.4,14.9,3.5,22.4c0.1,1,0.3,1.8,0.8,2.6c4.8,8.5,5.3,18.2,8.1,27.2c1.1,3.5-1.5,6.2-1.3,9.5c0.4,6.6,3.4,12.7,3.4,19.3
	c-1.7,4.2-0.3,8.9-1.9,13.1c0,0.3-0.1,0.6-0.1,1c0.4,1,1.2,2,0.2,3c-0.5,2-1.8,3.8-0.9,6c0.9,2,0.5,4-0.1,6c-0.4,0.7-0.5,1.4,0.2,2
	c0.4,0.7,0.5,1.4-0.1,2.1c-0.3,1.1-0.8,2.3-0.7,3.4c0.6,4.6-0.1,8.7-2,13.1c-2.3,5.3-3.6,11-5.5,16.5c-2.2,6.3-4,12.5-9.1,17.2
	c-0.7,0.7-0.7,2.1-1,3.2c-2.6,9.3-7.7,17.9-9.6,27.3c-1,5-3.3,10.7-1.1,16.3c0.6,1,0.8,2-0.1,3c-2.1,8.4,0.1,16.4,3.1,24.1
	c3.7,9.7,7.9,19.2,12.1,28.7c3.1,7.1,5.3,14.3,5.9,22c0.5,0.7,1.5,0.4,1.9,1.1c2,3.2-0.6,6-0.8,9c-0.6,8.3,0.3,16.7-1.1,25
	c0.3,0.3,0.4,0.5,0.2,0.7c-0.1,0.2-0.3,0.3-0.4,0.3c-2.3,3.5,0.3,7.5-0.9,11.1c-1.5,1.8,0.8,4.2-0.9,6c-4.9,17.4-7.7,35-5.4,53.1
	c0.6,4.9,5.4,10.5,9.8,11.2c5,0.8,10.1-2.6,12.4-8.5c5.7-11.3,8.9-23.4,12-35.5c0.7-2.8-0.2-5.9,1.4-8.7c2-5.1,1.6-10.5,2.7-15.7
	c0-0.8,0.1-1.7,0.4-2.5c0.7-5,1.3-9.9-0.1-14.9c-0.4-1.6-0.5-3.2,0.5-4.7c-1.7-2.2-0.3-4.7-0.8-7c-0.4-0.2-0.5-0.4-0.4-0.6
	c0.1-0.2,0.2-0.3,0.4-0.3c0-0.7-0.1-1.3-0.1-2c-2.4-2.6,0.5-5.6-0.8-8.3c0.1-0.3,0-0.5-0.2-0.7c-1.5-1.9,0.2-4.2-0.9-6.1
	c-2.8-10.5-8.9-19.6-12.7-29.7c-2.3-6-3.4-12-4.3-18.2c-0.6-0.6-0.9-1.3-1-2.2c-0.1-1.4-0.1-2.7,0.9-3.8c0.7-2.3,1.4-4.6,1.1-7
	C879.2,361.4,881,355.6,881.8,349.6z"/>
<path class="st0" d="M731.9,453.8c-1.1-18.2-4.2-36-7.2-53.8c-2.8-16.7-6-33.3-8.6-50c-1.3-8.5,0.2-17.2,1-25.8
	c1.3-14.8,8.7-27.4,12.9-41.1c5.4-17.4,11.5-34.7,11.1-53.4c0-1.9,0.1-3.7,1.3-5.6c0.6-1-1.4-3.2-1.5-5.3
	c-0.6-13.1,0.1-26.4-3.3-39.1c-5.4-20.1-8.4-40.6-10.9-61.2c-2-15.5-1.5-31,1.9-46.3c2-9.1,6.4-17.7,8.3-26.9
	c1.1-5,2.2-10.1,1.9-15.2c-0.5-10.9,6.2-17.8,17.5-17.6c6.6,0.1,13.3-0.3,19.7,2c5.5,1.9,8.7,5.4,11,10.9
	c5.8,13.6,6.6,27.6,1.6,40.9c-4.8,12.7-6.5,26.3-12.3,38.7c-3.4,7.3-2.3,15.5-0.8,23.4c1.6,8.6,2.5,17.2,4.3,25.8
	c0.8,3.9,2.3,7.8,3.3,11.7c3,11.9,7.7,23.6,8.6,35.9c0.6,9,1.4,18.2,0.4,27.1c-1.7,14.5-4,29-7.3,43.4c-1.8,8.2-3.7,16.5-7.2,23.9
	c-4,8.4-6.8,17.1-9.6,25.8c-4.4,13.9-4,27.9-0.5,42c1.4,5.6,2.8,11.2,5.1,16.5c2,4.8,1.5,10.1,1.5,15.2c0,7,3.3,13.2,4.2,20
	c0.7,5.4,1.4,10.7,1.3,16.2c-0.1,5.4,1,10.9,1,16.4c-0.2,14.2-0.6,28.1-5.8,41.8c-4.2,11.1-8.5,22.3-13.2,33.2
	c-4.9,11.3-7,22.6-5.5,34.8c1.2,10.2,0.3,20.3-7.7,28c-8.4,8-19.3,6.8-29.3,2.9c-8.7-3.4-14.6-20.2-13.5-29.8
	c1.3-11.9,2.9-23.8,7.7-34.8c3.1-7.2,5-14.8,8.3-21.8C728.9,487,731,470.5,731.9,453.8z"/>
</svg>
