<?xml version="1.0" encoding="utf-8"?>
<!-- Generator: Adobe Illustrator 22.0.0, SVG Export Plug-In . SVG Version: 6.00 Build 0)  -->
<svg version="1.1" id="Layer_1" xmlns="http://www.w3.org/2000/svg" xmlns:xlink="http://www.w3.org/1999/xlink" x="0px" y="0px"
	 viewBox="0 0 255.5 61.6" style="enable-background:new 0 0 255.5 61.6;" xml:space="preserve">
<style type="text/css">
	.st0{fill-rule:evenodd;clip-rule:evenodd;}
</style>
<g>
	<g>
		<g>
			<polygon points="76.3,6.4 76.3,7.2 78.3,9.5 78.3,25.4 75.5,26.1 75.5,27.1 83,27.1 83,26.1 80.7,25.5 80.1,24.7 80.1,11.6 
				93.2,27.2 94.4,27.2 94.4,8.4 97.2,7.6 97.2,6.6 89.6,6.6 89.6,7.7 92,8.3 92.6,9 92.6,21.5 92.6,21.5 92.4,21.5 79.6,6.4 			"/>
			<path d="M104.4,27.4c-3.7,0-7.3-2.4-7.3-7.5c0-5,3.8-7.6,7.3-7.6c3.7,0,7.3,2.3,7.3,7.3C111.8,24.6,107.9,27.4,104.4,27.4z
				 M108.9,20.1c0-3.5-1.9-6.4-4.9-6.4c-2.7,0-4,2.3-4,5.8s1.7,6.5,4.8,6.5C107.5,26,108.9,23.6,108.9,20.1z"/>
			<path d="M149.1,18.7c0-3.5-1.9-4.2-4.2-4.2c-1.9,0-3.2,1.4-3.2,1.4v2.3v6.6l0.6,0.7l2,0.7v0.8h-7.2v-0.8l2-0.8V10.5
				c0-2.7-0.7-3.4-2.2-3.4V6.4l4.6-1.6h0.3c0,0-0.2,3.2-0.2,5.6v4.3c0,0,3-2.4,5-2.4c2.5,0,4.9,1.1,4.9,4.8v7.7l0.6,0.7l2,0.7v0.8
				H147v-0.8l2-0.7L149.1,18.7z"/>
			<path d="M178.3,19.1c0,4.3,2.4,6.1,5.2,6.1c1.7,0,3.8-0.7,3.8-0.7l0.3,0.6c-0.7,0.7-2.8,2.3-5.4,2.3c-3.5,0-6.7-2.6-6.7-7.5
				c0-4.4,3-7.6,6.8-7.6c2.9,0,5.2,1.7,5.2,5.1c0,0.9-0.2,1.7-0.2,1.7L178.3,19.1L178.3,19.1z M182.9,17.9c1.5-0.1,2-0.3,2-1.8
				c0-1.3-0.9-2.3-2.9-2.3c-2.1,0-3.7,1.8-3.7,4.3L182.9,17.9z"/>
			<path d="M191,26.8c-0.2-0.1-0.8-0.4-0.8-1.1l-0.2-2.9h1.4c0.4,2,1.7,3.3,3.5,3.3s2.5-0.9,2.5-2.2c0-1.2-1-1.8-2.1-2.4l-1.6-0.8
				c-2.2-1.2-3.4-2.1-3.4-4.3c0-2.8,2-4.1,5.1-4.1c2.2,0,3.9,0.8,3.9,0.8l-0.4,3.6h-1.3c0-2.2-0.9-3.1-2.8-3.1
				c-1.3,0-2.4,0.5-2.4,1.7c0,1,0.4,1.4,2.8,2.7l1.4,0.7c2.5,1.3,3.2,2.4,3.2,4.5c0,2.5-2.5,4.1-5,4.1
				C193.3,27.4,191.9,27.2,191,26.8z"/>
			<path d="M215.3,19.1c0,4.3,2.4,6.1,5.2,6.1c1.7,0,3.8-0.7,3.8-0.7l0.3,0.6c-0.7,0.7-2.8,2.3-5.4,2.3c-3.5,0-6.7-2.6-6.7-7.5
				c0-4.4,3-7.6,6.8-7.6c2.9,0,5.2,1.7,5.2,5.1c0,0.9-0.2,1.7-0.2,1.7L215.3,19.1L215.3,19.1z M219.9,17.9c1.5-0.1,2-0.3,2-1.8
				c0-1.3-0.9-2.3-2.9-2.3c-2.1,0-3.7,1.8-3.7,4.3L219.9,17.9z"/>
			<path d="M253.4,25.6l-0.6-0.7l0-7.8c0-3.6-2.3-4.7-4.8-4.7c-2,0-4.9,2.4-4.9,2.4c0-1.3,0.1-2.5,0.1-2.5H243l-4.5,1.7v0.7
				c1.7,0,2.2,1.6,2.2,4.3v6.5l-2,0.8v0.8h7.1l0.1-0.8l-2-0.7l-0.6-0.8V16c0,0,1.1-1.5,3-1.5c2,0,4.1,0.7,4.1,4.2l-0.1,6.9l-2,0.7
				v0.8h7.1l0.1-0.8L253.4,25.6z"/>
			<path d="M167.5,27.2l-3.3-9.2l-3.8,9.2h-1.3l-3.7-11.4c-0.5-1.4-0.8-2.2-1.8-2.2v-0.9h6.1v0.9l-1.9,0.6l2.8,9.4l2.4-5.9l0.6-1.5
				l-0.8-2.4l-1.1-0.2v-0.9h5.9v0.9l-1.9,0.6l3.1,9.4l3.2-9.3l-2.1-0.7v-0.8h5.5v0.9c-1.3,0.2-1.9,0.5-2.9,3L169,27.2
				C169,27.2,167.5,27.2,167.5,27.2z"/>
			<path d="M135.4,24.9c0,0-0.9,0.6-2.2,0.6c-1.4,0-2.7-0.8-2.6-2.7l0.1-8.1h4.6l0,0h0l0.1-0.5l0,0l0.3-2.5l-0.6-0.1l-0.4,1
				l-0.2,0.2l-3.7,0.2l0,0h0V9.2L129,9.5l-0.8,3.5l-2.5,0.2v1.2c1.4,0,2.5,0.1,2.5,1.5s-0.1,5.5-0.1,7.2c0,3.2,1.2,4.3,3.2,4.3
				c1.7,0,3.2-0.7,4.5-1.7L135.4,24.9z"/>
			<path d="M211.2,24.9c0,0-0.9,0.6-2.2,0.6c-1.4,0-2.7-0.8-2.6-2.7l0.1-8.1h4.6l0,0l0,0l0.1-0.5l0,0l0.3-2.5l-0.6-0.1l-0.4,1
				l-0.2,0.2l-3.7,0.2l0,0l0,0V9.2l-1.8,0.3L204,13l-2.5,0.2v1.2c1.4,0,2.5,0.1,2.5,1.5s-0.1,5.5-0.1,7.2c0,3.2,1.2,4.3,3.2,4.3
				c1.7,0,3.2-0.7,4.5-1.7L211.2,24.9z"/>
			<path d="M123.9,12.5L123.9,12.5L123.9,12.5c0,0-0.5-0.2-1.6-0.2c-2.2,0-4.4,3.4-4.4,3.4c0-1.9,0.1-3.5,0.1-3.5h-0.2l-4.4,1.7v0.7
				c1.7,0,2.2,1.5,2.2,4.1v6.7l-2,0.8v0.8h7.1v-0.8l-2-0.7l-0.6-0.8v-6.6c0-2,1.6-3.2,3.3-3.2c0.3,0,0.7,0.1,1,0.2l0.5,0.7l0.6,0.1
				L123.9,12.5L123.9,12.5L123.9,12.5z"/>
			<path d="M237.1,12.5L237.1,12.5L237.1,12.5c0,0-0.5-0.2-1.6-0.2c-2.2,0-4.4,3.4-4.4,3.4c0-1.9,0.1-3.5,0.1-3.5h-0.2l-4.4,1.7v0.7
				c1.7,0,2.2,1.5,2.2,4.1v6.7l-2,0.8v0.8h7.1v-0.8l-2-0.7l-0.6-0.7v-6.7c0-2,1.6-3.2,3.3-3.2c0.3,0,0.7,0.1,1,0.2l0.5,0.7l0.6,0.1
				L237.1,12.5L237.1,12.5L237.1,12.5z"/>
		</g>
		<g>
			<path d="M140.6,46.4c0,4.3,2.4,6.1,5.2,6.1c1.7,0,3.8-0.7,3.8-0.7l0.3,0.6c-0.7,0.7-2.8,2.3-5.4,2.3c-3.5,0-6.7-2.6-6.7-7.5
				c0-4.4,3-7.6,6.8-7.6c2.9,0,5.2,1.7,5.2,5.1c0,0.9-0.2,1.7-0.2,1.7L140.6,46.4L140.6,46.4z M145.2,45.2c1.5-0.1,2-0.3,2-1.8
				c0-1.3-0.9-2.3-2.9-2.3c-2.1,0-3.7,1.8-3.7,4.3L145.2,45.2z"/>
			<path d="M119.6,52.1l0.6,0.7l2,0.7l-0.1,0.8h-7v-0.8l2-0.8v-7c0-2.8-0.6-3.8-2.2-3.8v-0.7l4.5-1.7h0.2c0,0-0.1,2.1-0.1,4.4V52.1z
				"/>
			<path d="M129.3,40v0.8l-2.1,0.7l3.4,9.4l3.6-9.3l-2.2-0.7V40h5.5v0.9c-0.8,0-1.8,0.4-2.9,3l-3.9,10.6h-1.5l-4.3-11.4
				c-0.7-1.7-1.5-2.2-2.4-2.2V40H129.3z"/>
			<path d="M165.6,54.1c-0.2-0.1-0.8-0.4-0.8-1.1l-0.2-2.9h1.4c0.4,2,1.7,3.3,3.5,3.3s2.5-0.9,2.5-2.2c0-1.2-1-1.8-2.1-2.4l-1.6-0.8
				c-2.2-1.2-3.4-2.1-3.4-4.3c0-2.8,2-4.1,5.2-4.1c2.2,0,3.9,0.8,3.9,0.8l-0.4,3.6h-1.3c0-2.2-0.9-3.1-2.8-3.1
				c-1.3,0-2.4,0.5-2.4,1.7c0,1,0.4,1.4,2.8,2.7l1.4,0.7c2.5,1.3,3.2,2.4,3.2,4.5c0,2.5-2.5,4.1-5,4.1
				C167.9,54.7,166.5,54.5,165.6,54.1z"/>
			<path d="M197.7,43.1c-0.7-1.7-1.5-2.2-2.4-2.2V40h6.7v0.8l-2.1,0.7l3.6,9.4l3.2-9.3l-2.2-0.7V40h5.7v0.9c-0.8,0-1.9,0.4-2.9,3
				l-3.6,9.8c-2,5.3-4.4,8.1-8.2,7.8l-0.4-3c0,0,0.8,0.2,2.4,0.1c1.8-0.1,3.5-1.9,4.3-4.3L197.7,43.1z"/>
			<path d="M111.6,52.8l-0.6-0.7l0-7.8c0-3.6-2.3-4.7-4.8-4.7c-2,0-4.9,2.4-4.9,2.4c0-1.3,0.1-2.5,0.1-2.5h-0.2l-4.5,1.7v0.7
				c1.7,0,2.2,1.6,2.2,4.3v6.5l-2,0.8v0.8h7.1l0.1-0.8l-2-0.7l-0.6-0.7v-8.9c0,0,1.1-1.5,3-1.5c2,0,4.1,0.7,4.1,4.2l-0.1,6.9l-2,0.7
				v0.8h7.1l0.1-0.8L111.6,52.8z"/>
			<path d="M194.2,52.2c0,0-0.9,0.6-2.2,0.6c-1.4,0-2.7-0.8-2.6-2.7l0.1-8.1h3.9l0,0l0,0l0.1-0.5l0,0l0.3-2.5l-0.6-0.1l-0.4,1
				l-0.2,0.2l-3,0.2l0,0l0,0v-3.7l-1.8,0.3l-0.8,3.5l-2.5,0.2v1.2c1.4,0,2.5,0.1,2.5,1.5c0,1.3-0.1,5.5-0.1,7.2
				c0,3.2,1.2,4.3,3.2,4.3c1.7,0,3.2-0.7,4.5-1.7L194.2,52.2z"/>
			<path d="M162.8,39.8L162.8,39.8L162.8,39.8c0,0-0.5-0.2-1.6-0.2c-2.2,0-4.4,3.4-4.4,3.4c0-1.9,0.1-3.5,0.1-3.5h-0.2l-4.4,1.7v0.7
				c1.7,0,2.2,1.5,2.2,4.1v6.7l-2,0.8v0.8h7.2v-0.8l-2-0.7l-0.6-0.7v-6.6c0-2,1.6-3.2,3.3-3.2c0.3,0,0.7,0.1,1,0.2l0.5,0.7l0.6,0.1
				L162.8,39.8L162.8,39.8L162.8,39.8z"/>
			<path d="M118.3,37.2c-0.3,0-1.9-1.7-1.9-2.1c0-0.3,1.6-2.1,1.9-2.1c0.4,0,1.9,1.8,1.9,2.1S118.7,37.2,118.3,37.2z"/>
			<path d="M181.5,52.1l0.6,0.7l2,0.7l-0.1,0.8h-7v-0.8l2-0.8v-7c0-2.8-0.6-3.8-2.2-3.8v-0.7l4.5-1.7h0.2c0,0-0.1,2.1-0.1,4.4V52.1z
				"/>
			<path d="M93.5,47.4c0,5.3-3.8,7.1-7.5,7.1c-5.5,0-7.7-2.6-7.7-7.3v-9c0-2.6-0.7-3.2-2.8-3.3v-1H84v0.9l-2.9,0.9v10.1
				c0,6.1,2.5,7,5.3,7c2.9,0,5.2-1.4,5.2-6.3v-3.8v-7.1l-2.8-0.8v-1h7.4V35l-2.1,0.3l-0.6,0.7v4L93.5,47.4z"/>
			<path d="M180.2,37.2c-0.3,0-1.9-1.7-1.9-2.1c0-0.3,1.6-2.1,1.9-2.1c0.4,0,1.9,1.8,1.9,2.1S180.6,37.2,180.2,37.2z"/>
		</g>
	</g>
	<g>
		<g>
			<path d="M9.1,30.2c0-11.7,9.5-21.1,21.1-21.1l0,0c11.7,0,21.1,9.5,21.1,21.1l0,0c0,11.7-9.5,21.1-21.1,21.1l0,0
				C18.6,51.3,9.1,41.8,9.1,30.2L9.1,30.2z M15.7,15.6c-3.7,3.7-6,8.9-6,14.6l0,0c0,5.7,2.3,10.8,6,14.6l0,0c3.7,3.7,8.9,6,14.6,6
				l0,0c5.7,0,10.8-2.3,14.6-6l0,0c3.7-3.7,6-8.9,6-14.6l0,0c0-5.7-2.3-10.8-6-14.6l0,0c-3.7-3.7-8.9-6-14.6-6l0,0
				C24.5,9.6,19.4,11.9,15.7,15.6L15.7,15.6z"/>
			<path d="M0,30.3C0,13.6,13.6,0,30.3,0l0,0C47,0,60.6,13.6,60.6,30.3l0,0C60.6,47,47,60.6,30.3,60.6l0,0C13.6,60.6,0,47,0,30.3
				L0,30.3z M9.6,9.6C4.3,14.9,1,22.2,1,30.3l0,0C1,38.4,4.3,45.7,9.6,51l0,0c5.3,5.3,12.6,8.6,20.7,8.6l0,0
				c8.1,0,15.4-3.3,20.7-8.6l0,0c5.3-5.3,8.6-12.6,8.6-20.7l0,0c0-8.1-3.3-15.4-8.6-20.7l0,0C45.7,4.3,38.4,1,30.3,1l0,0
				C22.2,1,14.9,4.3,9.6,9.6L9.6,9.6z"/>
			<path d="M15.5,30.3c0-8.1,6.6-14.7,14.7-14.7l0,0c8.1,0,14.7,6.6,14.7,14.7l0,0c0,8.1-6.6,14.7-14.7,14.7l0,0
				C22.1,45,15.5,38.4,15.5,30.3L15.5,30.3z M20.1,20.3c-2.6,2.6-4.2,6.1-4.2,10l0,0c0,3.9,1.6,7.5,4.2,10l0,0
				c2.6,2.6,6.1,4.2,10,4.2l0,0c3.9,0,7.5-1.6,10-4.2l0,0c2.6-2.6,4.2-6.1,4.2-10l0,0c0-3.9-1.6-7.5-4.2-10l0,0
				c-2.6-2.6-6.1-4.2-10-4.2l0,0C26.3,16.1,22.7,17.7,20.1,20.3L20.1,20.3z"/>
		</g>
		<path d="M35.4,37.3c-0.1,0-0.2,0-0.3,0c-0.5,0-0.9-0.1-1.4-0.2c0,0,0,0,0,0c-0.1,0-0.2-0.1-0.3-0.1c-0.3-0.1-0.7-0.1-1-0.1
			c-0.1,0-0.2,0-0.3,0c0,0,0,0,0,0c-0.4,0-0.9,0.1-1.2,0.2c0,0,0,0,0,0c-0.1,0-0.2,0.1-0.3,0.2c-0.5-0.3-1.2-0.4-1.9-0.4
			c-0.1,0-0.2,0-0.3,0c0,0,0,0-0.1,0c-0.4,0-0.7,0.1-1,0.2c-0.1,0-0.3,0.1-0.4,0.1c-0.2,0-0.3,0.1-0.5,0.1c-0.2,0-0.4,0-0.7,0
			c-0.2,0-0.4,0-0.5,0c-0.2,0-0.4,0-0.6-0.1c-0.3,0-0.6-0.1-0.8-0.1c-0.1,0-0.2,0-0.3-0.1c-0.4-0.1-0.6-0.1-0.6-0.1l-0.1,0.2
			c0,0,0.2,0,0.5,0.1c0.3,0.1,0.6,0.1,1,0.2c0.2,0,0.5,0.1,0.7,0.1c0.2,0,0.4,0,0.7,0c0.1,0,0.3,0,0.4,0c0.2,0,0.4,0,0.7-0.1
			c0.2,0,0.4-0.1,0.6-0.1c0.2-0.1,0.5-0.1,0.8-0.1c0.1,0,0.1,0,0.2,0c0.1,0,0.2,0,0.3,0c0.3,0,0.6,0,0.9,0.1c0,0,0,0,0.1,0
			c0.4,0.1,0.7,0.2,0.9,0.3l0.1,0.1l0.1-0.1c0.1,0,0.1-0.1,0.2-0.1c0,0,0.1,0,0.1-0.1c0.3-0.1,0.8-0.2,1.2-0.2c0,0,0.1,0,0.1,0
			c0.1,0,0.1,0,0.2,0c0.4,0,0.8,0,1.1,0.1c0.1,0,0.1,0,0.2,0c0.1,0,0.3,0.1,0.4,0.1c0.4,0.1,0.8,0.1,1.2,0.1c0.1,0,0.1,0,0.2,0
			c0.3,0,0.6,0,0.9-0.1c0.5,0,0.8-0.1,1.1-0.2c0.2,0,0.4-0.1,0.4-0.1L37.7,37h0c0,0-0.2,0-0.4,0.1c-0.3,0.1-0.7,0.1-1.2,0.2
			C35.9,37.3,35.6,37.3,35.4,37.3z"/>
		<g>
			<g>
				<g>
					<path d="M34.5,38l2.9,3.8l-1.8-3.7c0.5,0,1-0.1,1.4-0.1l2.5,2.3l-1.6-2.4c0.1,0,0.1,0,0.1,0l-0.1-0.2h0c0,0-0.1,0-0.2,0.1
						c-0.2,0-0.6,0.1-1,0.2c-0.4,0-0.8,0.1-1.2,0.1c0,0,0,0,0,0c-0.4,0-0.8,0-1.1-0.1c-0.2,0-0.4-0.1-0.5-0.1c-0.1,0-0.1,0-0.2,0
						c-0.3-0.1-0.8-0.1-1.2-0.1c0,0,0,0-0.1,0c-0.1,0-0.2,0-0.2,0c-0.4,0-0.8,0.1-1.2,0.2c-0.1,0-0.2,0.1-0.2,0.1
						c-0.1,0-0.2,0.1-0.3,0.1c-0.2-0.2-0.6-0.3-0.9-0.3c-0.1,0-0.1,0-0.2,0c-0.3,0-0.6-0.1-0.8-0.1c-0.1,0-0.2,0-0.4,0
						c-0.1,0-0.2,0-0.3,0c-0.3,0-0.5,0.1-0.7,0.1c-0.2,0.1-0.4,0.1-0.6,0.1c-0.3,0-0.5,0.1-0.8,0.1c-0.1,0-0.1,0-0.2,0
						c-0.3,0-0.6,0-0.8,0c-0.3,0-0.6-0.1-0.9-0.1c-0.4-0.1-0.7-0.1-0.9-0.2c-0.1,0-0.2,0-0.2,0l-0.1,0.2c0,0,0,0,0.1,0l-2,2.2
						l2.8-2.1c0.3,0.1,0.7,0.1,1.1,0.2l-1.9,3.5l2.8-3.5h0c0.3,0,0.6,0,0.9-0.1L25,42.8l2.7-5c0.1,0,0.3,0,0.4,0l-0.7,5.9l1.8-5.8
						c0.1,0,0.2,0,0.3,0l0.5,6.1l0.7-5.8c0.1,0,0.2-0.1,0.3-0.1l1.6,5.8l-0.5-6c0.1,0,0.2,0,0.3,0c0,0,0,0,0.1,0L35,43l-1.4-5.1
						c0,0,0,0,0,0C33.9,37.9,34.2,38,34.5,38z"/>
				</g>
			</g>
		</g>
		<g>
			<path d="M27,47.5c0,0,0-0.4-0.6-0.8c-0.6-0.3-0.7-0.3-0.7-0.3s0.1,0.4,0.3,0.6C26.4,47.4,27,47.5,27,47.5z"/>
			<path d="M25.3,47.2c0,0,0.1-0.4-0.6-0.8C24.2,46,24.1,46,24.1,46s0,0.4,0.3,0.6C24.8,47.1,25.3,47.2,25.3,47.2z"/>
			<path d="M23.7,46.6c0,0,0.1-0.4-0.5-0.9c-0.5-0.4-0.7-0.3-0.7-0.3s0,0.4,0.2,0.6C23.1,46.5,23.7,46.6,23.7,46.6z"/>
			<path d="M21.9,45.8c0,0,0.1-0.4-0.4-0.9c-0.5-0.4-0.7-0.4-0.7-0.4s0,0.4,0.2,0.6C21.3,45.7,21.9,45.8,21.9,45.8z"/>
			<path d="M27.5,47.4c0.5,0.4,1.1,0.4,1.1,0.4s0-0.4-0.8-0.7c-0.6-0.3-0.8-0.2-0.8-0.2S27.2,47.2,27.5,47.4z"/>
			<path d="M24.1,47.4c-0.8,0-1.2,0.3-1.2,0.3s0.5,0.2,1.2,0.2c0.4,0,0.8-0.3,0.8-0.3S24.9,47.4,24.1,47.4z"/>
			<path d="M25.9,47.8c-0.8,0-1.2,0.3-1.2,0.3s0.5,0.2,1.2,0.2c0.4,0,0.8-0.3,0.8-0.3S26.6,47.9,25.9,47.8z"/>
			<path d="M27.8,48.2c-0.8,0-1.2,0.3-1.2,0.3s0.5,0.2,1.2,0.1c0.4,0,0.8-0.3,0.8-0.3S28.5,48.2,27.8,48.2z"/>
			<path d="M41,44.5c-0.4,0.2-0.6,0.4-0.7,0.6c-3.3,1.8-6.5,2.7-9.4,2.8l-0.4,0c0.1-0.2,0.4-0.7,0.1-0.8c-0.3-0.1-0.6,0.7-0.4,0.8
				l0,0c0,0,0,0,0,0c-0.1-0.3-0.2-1.1-0.3-0.7c0,0.1-0.6,0.1,0,0.7c-4.3-0.2-7.2-1.5-9.7-2.8c-0.1-0.1-0.2-0.4-0.7-0.6
				c-0.6-0.2-0.7-0.2-0.7-0.2s0.1,0.4,0.4,0.6c0.4,0.2,0.8,0.3,1,0.3c2.5,1.4,5.5,2.7,9.8,2.8c-0.1,0.2-0.6,0.5-0.2,0.6
				c0.5,0.1,0.5-0.5,0.7-0.3c0.2,0.3,0.2,0.3,0.4,0.3c0.2-0.1-0.1-0.4-0.3-0.6l0.4-0.1c2.9-0.1,6.1-1,9.4-2.9c0.2,0,0.6-0.1,1-0.3
				c0.3-0.2,0.4-0.6,0.4-0.6S41.6,44.3,41,44.5z"/>
			<path d="M22.2,46.8c-0.6,0.1-0.7,0.2-0.7,0.2s0.3,0.3,0.6,0.3c0.6,0,1.1-0.2,1.1-0.2S23,46.7,22.2,46.8z"/>
			<path d="M20.7,46C20,45.9,19.9,46,19.9,46s0.2,0.3,0.5,0.4c0.6,0.2,1.1,0,1.1,0S21.4,46,20.7,46z"/>
			<path d="M35.1,46.3c0,0-0.2,0-0.7,0.3c-0.7,0.4-0.7,0.8-0.7,0.8s0.6-0.1,1.1-0.5C35,46.7,35.1,46.3,35.1,46.3z"/>
			<path d="M36.3,46.5c0.3-0.2,0.3-0.6,0.3-0.6s-0.2,0-0.7,0.3c-0.6,0.4-0.6,0.8-0.6,0.8S35.8,46.9,36.3,46.5z"/>
			<path d="M38,45.9c0.2-0.2,0.3-0.6,0.3-0.6s-0.2,0-0.7,0.3c-0.6,0.4-0.6,0.8-0.6,0.8S37.5,46.4,38,45.9z"/>
			<path d="M39.7,45.1c0.2-0.2,0.2-0.6,0.2-0.6s-0.2,0-0.7,0.4c-0.6,0.5-0.5,0.9-0.5,0.9S39.3,45.6,39.7,45.1z"/>
			<path d="M33.5,46.8c0,0-0.2-0.1-0.8,0.2c-0.7,0.3-0.8,0.7-0.8,0.7s0.6,0,1.1-0.4C33.4,47.2,33.5,46.8,33.5,46.8z"/>
			<path d="M35.7,47.4c0,0,0.4,0.3,0.8,0.3c0.7,0.1,1.2-0.1,1.2-0.1s-0.4-0.3-1.2-0.3C35.7,47.3,35.7,47.4,35.7,47.4z"/>
			<path d="M33.8,47.9c0,0,0.4,0.3,0.7,0.3c0.7,0.1,1.2-0.1,1.2-0.1s-0.3-0.3-1.2-0.3C33.9,47.8,33.8,47.9,33.8,47.9z"/>
			<path d="M31.9,48.2c0,0,0.4,0.3,0.8,0.4c0.7,0.1,1.2-0.1,1.2-0.1s-0.3-0.3-1.2-0.4C32,48.1,31.9,48.2,31.9,48.2z"/>
			<path d="M38.3,46.6c-0.7,0.1-0.9,0.4-0.9,0.4s0.5,0.2,1.1,0c0.3-0.1,0.5-0.4,0.5-0.4S39,46.5,38.3,46.6z"/>
			<path d="M39.9,45.8c-0.7,0-0.9,0.4-0.9,0.4s0.5,0.2,1.1,0.1c0.3-0.1,0.5-0.4,0.5-0.4S40.5,45.8,39.9,45.8z"/>
		</g>
		<g>
			<path d="M12.8,44.8c-0.2-0.3-0.3-0.4-0.4-0.6c0,0-0.1-0.1-0.1-0.1c0,0-0.1,0-0.1,0c0,0-0.1,0.1-0.1,0.1c0,0.1,0.1,0.3,0.1,0.4
				c0,0.1,0,0.2-0.2,0.3L10,46.6c0,0,0,0-0.1,0c0,0,0-0.1,0-0.1l0.9-4.2c0-0.1,0-0.2,0-0.2c0-0.1,0-0.1,0-0.1c0,0-0.1,0-0.1,0
				c-0.1,0-0.1,0.1-0.3,0.1l-3.1,2.2c-0.1,0.1-0.2,0.1-0.2,0.1c-0.1,0-0.2-0.1-0.3-0.1c0,0-0.1,0-0.1,0c0,0-0.1,0.1-0.1,0.1
				c0,0,0,0.1,0,0.1C6.8,44.6,7,44.8,7.1,45c0.1,0.2,0.2,0.3,0.3,0.5c0,0,0.1,0.1,0.1,0.1c0,0,0.1,0,0.1,0c0,0,0.1-0.1,0.1-0.1
				c0-0.1-0.1-0.3-0.1-0.5c0-0.1,0.1-0.3,0.3-0.5l2.2-1.6l-1,4.6c0,0,0,0.1,0,0.2c0,0,0,0.1,0,0.1c0.1,0.1,0.1,0.2,0.2,0.2
				c0.1,0.1,0.1,0.2,0.2,0.3c0,0,0.1,0.1,0.1,0.1c0,0,0,0,0.1,0c0,0,0.1-0.1,0.1-0.1c0-0.1-0.1-0.3-0.1-0.4c0-0.2,0.1-0.4,0.6-0.8
				l2-1.4c0.2-0.2,0.4-0.2,0.5-0.2c0.2,0,0.3,0.2,0.5,0.2c0,0,0.1,0,0.1,0c0,0,0.1,0,0.1-0.1c0,0,0-0.1,0-0.1
				C13.2,45.2,13,45,12.8,44.8z"/>
			<path d="M7.9,41.8c1-0.4,1.6-1.2,1.6-2.2c0-0.3-0.1-0.6-0.2-1c-0.4-1-1.3-1.7-2.2-1.7c-0.3,0-0.7,0.1-1,0.2
				c-1,0.4-1.5,1.2-1.5,2.2c0,0.3,0.1,0.7,0.2,1C5.1,41.4,6,42,7,42C7.3,42,7.6,42,7.9,41.8z M5.1,40.5C5,40.3,5,40,5,39.8
				c0-0.9,0.7-1.7,1.5-2c0.3-0.1,0.6-0.2,0.9-0.2c0.7,0,1.3,0.4,1.5,1C9,38.8,9,39.1,9,39.3c0,0.9-0.7,1.7-1.6,2.1
				c-0.3,0.1-0.6,0.2-0.8,0.2C6,41.5,5.4,41.2,5.1,40.5z"/>
			<path d="M7.5,35.4c0.2,0,0.2,0.1,0.3,0.2c0.1,0.1,0.1,0.2,0.2,0.2c0,0,0,0,0,0c0.1,0,0.1-0.1,0.1-0.1c0,0,0,0,0,0
				c0-0.3-0.1-0.5-0.1-0.7C8,34.4,8,34.3,8,34.2c0,0,0-0.1-0.1-0.2c0,0,0,0,0,0c-0.2,0.1-0.1,0.3-0.2,0.4c0,0.2-0.1,0.3-0.3,0.3
				L6,35c0,0-0.1,0-0.1,0c0,0,0,0-0.1-0.1c0-0.3-0.1-0.4-0.1-0.5c0-0.1,0-0.1,0.3-0.3l1-0.9c0.3-0.3,0.6-0.6,0.6-1
				c0-0.1,0-0.1,0-0.2c0,0,0-0.1,0-0.2c0-0.1,0-0.2-0.2-0.2c0,0,0,0,0,0c0,0,0,0,0,0c-0.1,0-0.1,0.1-0.1,0.1c0,0.1,0,0.3-0.4,0.8
				l-1.4,1.3c-0.2-0.4-0.7-0.6-1.1-0.6c-0.1,0-0.1,0-0.2,0c-0.8,0.1-1,0.8-1,1.3c0,0.3,0.1,0.5,0.1,0.5c0.1,0.3,0.1,0.7,0.2,1.1
				c0,0.2,0,0.3,0,0.3c0,0,0,0,0,0c0,0,0,0.1,0,0.1c0,0.1,0.1,0.2,0.2,0.2h0c0.2-0.1,0.1-0.2,0.2-0.4c0-0.1,0.1-0.2,0.3-0.3
				L7.5,35.4C7.5,35.4,7.5,35.4,7.5,35.4z M5.5,35.1l-1.7,0.3c0,0,0,0-0.1,0c-0.1,0-0.1-0.1-0.2-0.3c0-0.1,0-0.2,0-0.3
				c0-0.5,0.2-0.9,0.8-1c0.1,0,0.1,0,0.2,0c0.6,0,0.8,0.5,0.8,0.7C5.4,34.6,5.5,34.9,5.5,35.1C5.5,35,5.5,35.1,5.5,35.1L5.5,35.1z"
				/>
			<path d="M3.7,31.2c0,0,0.1,0,0.1-0.1l0,0h0c0-0.1-0.1-0.2-0.2-0.2c-0.3-0.1-0.4-0.1-0.4-0.4c0,0,0-0.1,0-0.1l0-1.1
				c0,0,0.1,0,0.1,0c0.1,0,0.1,0,0.1,0L7,29.5c0.2,0,0.2,0.1,0.3,0.2c0.1,0.1,0,0.3,0.2,0.3c0,0,0,0,0,0c0,0,0.1,0,0.1,0
				c0,0,0-0.1,0-0.1l0,0h0c0,0,0-0.1,0-0.2c0-0.1,0-0.3,0-0.7c0-0.2,0-0.4,0-0.5l0,0h0v0h0c0-0.1-0.1-0.1-0.1-0.1c0,0,0,0,0,0
				c-0.2,0-0.2,0.2-0.2,0.3c0,0.1-0.1,0.2-0.3,0.2c0,0,0,0,0,0l-3.4-0.1c-0.1,0-0.2,0-0.2,0l0,0c0,0,0,0,0,0c0,0,0-0.1,0-0.1l0-0.9
				c0-0.3,0.1-0.3,0.2-0.4c0.1,0,0.1,0,0.2,0c0.1,0,0.1-0.1,0.1-0.2l0,0v0h0c0-0.1-0.1-0.1-0.2-0.1c0,0,0,0,0,0l-0.5,0
				c-0.1,0-0.1,0-0.2,0.1c-0.1,0-0.1,0.1-0.1,0.2c0,0.1,0,0.7-0.1,1.9c0,0.8-0.1,1.4-0.1,1.9c0,0,0,0,0,0c0,0.2,0.2,0.2,0.3,0.2
				L3.7,31.2L3.7,31.2z"/>
			<path d="M3.3,25.3C3.3,25.3,3.3,25.3,3.3,25.3c0.2,0,0.2-0.1,0.2-0.2c0.1-0.1,0.1-0.2,0.3-0.2c0,0,0.1,0,0.1,0l0,0l3.3,0.9
				c0.4,0.1,0.3,0.3,0.4,0.4c0,0,0,0,0,0.1c0,0.1,0,0.2,0.1,0.2c0,0,0,0,0.1,0c0,0,0,0,0,0c0.1,0,0.1,0,0.1-0.1c0,0,0-0.1,0.1-0.6
				C8,25.5,8.2,25,8.2,24.9c0,0,0,0,0-0.1c0,0,0-0.1-0.1-0.1c0,0,0,0,0,0c-0.2,0-0.2,0.2-0.3,0.3c-0.1,0.1-0.1,0.2-0.3,0.2
				c0,0-0.1,0-0.1,0l-1.6-0.4c0,0,0,0,0,0c0,0,0,0,0,0l0.6-2.3c0,0,0.1,0,0.1,0l1.5,0.4c0.2,0.1,0.2,0.1,0.2,0.3
				c0,0.1,0,0.3,0.1,0.3c0,0,0,0,0,0c0.1,0,0.1-0.2,0.2-0.2c0-0.1,0.1-0.3,0.2-0.7C8.9,22.3,9,22.1,9,21.9c0,0,0,0,0,0
				c0-0.1-0.1-0.1-0.1-0.1c0,0,0,0,0,0c-0.1,0-0.2,0.2-0.2,0.3c-0.1,0.1-0.2,0.2-0.3,0.2c0,0-0.1,0-0.1,0l-3.4-0.9
				c-0.2-0.1-0.2-0.2-0.2-0.3c0,0,0,0,0,0c0-0.1,0-0.1-0.1-0.2c0,0,0,0,0,0c-0.1,0-0.1,0.1-0.2,0.2c0,0.1,0,0.2-0.1,0.5
				c0,0.1-0.1,0.4-0.2,0.7c0,0,0,0.1,0,0.1c0,0.1,0.1,0.1,0.1,0.1c0,0,0,0,0,0c0.1,0,0.1-0.1,0.2-0.2c0.1-0.1,0.1-0.2,0.3-0.2
				c0,0,0.1,0,0.1,0L6,22.3c0,0,0.1,0,0.1,0c0,0,0,0,0,0l-0.6,2.3c0,0,0,0,0,0c0,0,0,0-0.1,0l-1.4-0.4c-0.3-0.1-0.3-0.2-0.3-0.4
				c0,0,0,0,0,0c0-0.1,0-0.2-0.1-0.2c0,0,0,0,0,0c-0.1,0-0.1,0.1-0.1,0.2c-0.1,0.2-0.1,0.4-0.1,0.6c-0.1,0.2-0.2,0.5-0.2,0.7
				c0,0,0,0,0,0.1C3.2,25.2,3.2,25.3,3.3,25.3z"/>
			<path d="M5.2,19c0.2,0,0.2-0.2,0.5-0.2c0,0,0.1,0,0.1,0v0l3.8,0.6c0.3,0,0.5,0.1,0.6,0.1c0,0,0,0,0,0c0.1,0,0.1,0,0.2-0.1
				c0,0,0-0.1,0-0.1c0-0.1,0-0.1-0.1-0.2l-1.2-1.6l1.9,0.3c0.1,0,0.2,0,0.2,0c0.1,0,0.1,0,0.2-0.1c0,0,0-0.1,0-0.1
				c0-0.1-0.1-0.2-0.1-0.3l-2.6-3.5c-0.2-0.2-0.2-0.3-0.2-0.4c0,0,0-0.1,0-0.1c0,0,0-0.1-0.1-0.1c0,0-0.1,0-0.1,0
				c-0.1,0-0.1,0.1-0.1,0.1c-0.1,0.1-0.2,0.3-0.3,0.5C8,14,7.9,14.1,7.8,14.2c0,0,0,0,0,0.1c0,0.1,0,0.1,0.1,0.1c0,0,0,0,0.1,0
				c0.2,0,0.3-0.2,0.4-0.2c0,0,0,0,0.1,0c0.1,0,0.1,0.1,0.1,0.1l1.9,2.6c0.1,0.1,0.1,0.1,0.1,0.2c0,0,0,0,0,0c0,0-0.1,0-0.1,0
				L9,16.9c-0.1,0-0.3-0.1-0.3-0.1c0,0-0.1-0.1-0.2-0.2l-0.7-1c-0.2-0.3-0.2-0.4-0.2-0.5c0,0,0-0.1,0-0.1c0,0,0-0.1-0.1-0.1
				c0,0,0,0,0,0c0,0-0.1,0-0.1,0.1c-0.1,0.1-0.1,0.2-0.2,0.4c-0.1,0.1-0.2,0.2-0.2,0.4c0,0,0,0.1,0,0.1c0,0,0,0.1,0.1,0.1
				c0,0,0,0,0.1,0c0.2,0,0.3-0.2,0.4-0.2c0,0,0.1,0,0.1,0c0,0,0.1,0.1,0.2,0.2l0.5,0.7c0,0,0,0,0,0.1c0,0,0,0-0.1,0l-0.9-0.2
				c-0.1,0-0.1,0-0.2-0.1c-0.1,0-0.1-0.1-0.1-0.1c0,0,0-0.1,0-0.1c0,0,0-0.1-0.1-0.1c0,0-0.1,0-0.1,0c0,0-0.1,0-0.1,0
				c-0.1,0.1-0.1,0.3-0.3,0.6c0,0.1-0.2,0.4-0.4,0.6c0,0,0,0.1,0,0.1c0,0,0,0.1,0.1,0.1c0,0,0.1,0,0.1,0c0.2,0,0.2-0.4,0.6-0.4
				c0,0,0,0,0.1,0l1.7,0.3c0.1,0,0.2,0,0.2,0c0,0,0.1,0.1,0.2,0.2l0.7,1c0,0,0,0,0,0.1c0,0,0,0,0,0c0,0-0.1,0-0.1,0l-3.3-0.5
				c-0.1,0-0.1,0-0.1,0c-0.1,0-0.1-0.1-0.1-0.2c0,0,0-0.1,0-0.1c0,0,0-0.1-0.1-0.1c0,0-0.1,0-0.1,0c0,0-0.1,0-0.1,0.1
				c-0.1,0.1-0.1,0.3-0.2,0.4c-0.1,0.2-0.2,0.3-0.3,0.5c0,0,0,0.1,0,0.1C5.1,18.9,5.1,18.9,5.2,19C5.2,19,5.2,19,5.2,19z"/>
			<path d="M9.7,12.3c0.1,0,0.2-0.1,0.2-0.1c0.1-0.1,0.1-0.1,0.2-0.1c0.1,0,0.3,0.1,0.4,0.3l2.1,2.1c0.2,0.2,0.3,0.3,0.3,0.4
				c0,0,0,0,0,0.1c-0.1,0.2-0.1,0.2-0.1,0.3c0,0,0,0.1,0,0.1c0,0,0.1,0,0.1,0c0.1,0,0.1,0,0.1-0.1c0.2-0.2,0.4-0.4,0.5-0.6
				c0.3-0.4,0.7-0.7,1.1-1c0.2-0.2,0.3-0.3,0.3-0.6c0,0,0,0,0-0.1c0-0.2-0.1-0.5-0.2-0.7c0,0,0,0-0.1,0c0,0-0.1,0-0.1,0
				c0,0,0,0.1,0,0.1c0,0.1,0,0.1,0,0.2c0,0.3-0.1,0.8-0.8,1.5c-0.2,0.2-0.3,0.2-0.3,0.2c-0.1,0-0.2-0.1-0.3-0.3l-0.9-0.9
				c-0.1-0.1-0.1-0.1-0.1-0.1c0,0,0,0,0,0l0.7-0.7c0.1-0.1,0.2-0.1,0.2-0.1c0.2,0,0.3,0.2,0.4,0.2c0,0,0.1,0,0.1,0c0,0,0-0.1,0-0.1
				c0,0,0-0.1-0.1-0.1c-0.1-0.1-0.3-0.2-0.4-0.4c-0.1-0.1-0.3-0.3-0.5-0.5c0,0-0.1-0.1-0.1-0.1c0,0-0.1,0-0.1,0c0,0,0,0.1,0,0.1
				c0,0.1,0.1,0.2,0.1,0.4c0,0.1,0,0.2-0.2,0.4L12,12.6c-0.1,0.1-0.1,0.1-0.1,0.1c0,0,0,0-0.1-0.1l-0.9-0.9
				c-0.1-0.1-0.2-0.2-0.2-0.2c0,0,0.1-0.2,0.3-0.4c0.2-0.2,0.6-0.7,0.8-0.7c0,0,0,0,0,0c0.1,0,0.2,0.2,0.4,0.2c0,0,0.1,0,0.1,0
				c0,0,0,0,0-0.1c0-0.1-0.1-0.3-0.5-0.7c0,0-0.1-0.1-0.2-0.1c0,0-0.1,0-0.1,0c-0.1,0.1-0.6,0.6-0.6,0.7c-0.2,0.2-0.5,0.4-1.3,1.3
				c-0.1,0.1-0.1,0.1-0.1,0.2C9.6,12.2,9.6,12.2,9.7,12.3C9.6,12.2,9.7,12.3,9.7,12.3z"/>
			<path d="M15.2,9.9c0.7,0,1.4-0.5,2-0.4c0.2,0,0.4,0.1,0.5,0.3c0.1,0.2,0.2,0.3,0.2,0.5c0,0.4-0.2,0.7-0.6,1
				c-0.3,0.2-0.6,0.3-0.8,0.3c-0.4,0-0.7-0.2-0.8-0.3c-0.1-0.1-0.1-0.1-0.2-0.1c0,0-0.1,0-0.1,0c0,0-0.1,0.1-0.1,0.1
				c0,0.1,0,0.1,0.1,0.2L16,12c0,0,0.1,0,0.2,0c0.2,0,0.7-0.1,1.1-0.4c0.8-0.5,1-1.1,1-1.6c0-0.3-0.1-0.6-0.2-0.7
				C17.7,9,17.4,8.8,17,8.8c-0.7,0-1.4,0.4-1.9,0.4c-0.2,0-0.4-0.1-0.5-0.3c-0.1-0.1-0.1-0.3-0.1-0.4c0-0.3,0.2-0.6,0.5-0.8
				c0.2-0.2,0.5-0.2,0.7-0.2c0.2,0,0.5,0.1,0.7,0.2c0,0,0.1,0.1,0.2,0.1c0,0,0,0,0.1,0c0,0,0.1-0.1,0.1-0.1c0,0,0-0.1,0-0.1
				l-0.6-0.7c0,0-0.1-0.1-0.1-0.1c0,0-0.1,0-0.1,0C15.8,7,15.8,7,15.8,7c0,0-0.4,0-1.1,0.4C14.3,7.8,14,8.2,14,8.7
				c0,0.2,0.1,0.5,0.2,0.7C14.5,9.8,14.9,9.9,15.2,9.9z"/>
			<path d="M17.8,6.7c0,0.1,0.1,0.1,0.1,0.1c0,0,0,0,0,0c0.1,0,0.1-0.1,0.1-0.1c0,0,0-0.1,0-0.1c0-0.1,0-0.2,0-0.2
				c0-0.2,0-0.2,0.3-0.3l1-0.4c0,0,0,0,0,0c0,0,0.1,0.2,0.1,0.2l1.3,3.2c0,0,0,0.1,0,0.1c0,0.2-0.3,0.3-0.3,0.5c0,0,0,0,0,0.1
				c0,0,0.1,0.1,0.1,0.1c0,0,0,0,0,0c0,0,0,0,0.1,0c0,0,0.1-0.1,0.8-0.4c0.2-0.1,0.4-0.1,0.5-0.2c0,0,0.1-0.1,0.1-0.1
				c0,0,0-0.1,0-0.1c0-0.1-0.1-0.1-0.2-0.1c-0.1,0-0.2,0-0.3,0c-0.1,0-0.2,0-0.3-0.2l-1.3-3.1C20,5.4,20,5.3,20,5.3c0,0,0,0,0,0
				c0,0,0.1,0,0.2-0.1L21,4.8c0.1,0,0.2-0.1,0.2-0.1c0.1,0,0.2,0.1,0.2,0.1c0,0.1,0.1,0.2,0.2,0.2c0,0,0,0,0.1,0
				c0.1,0,0.1-0.1,0.1-0.1c0-0.1,0-0.1,0-0.1l-0.2-0.5c0-0.1-0.1-0.2-0.2-0.2c0,0-0.1,0-0.1,0c-0.1,0.1-0.7,0.3-1.8,0.8
				c-0.8,0.3-1.3,0.5-1.7,0.7c-0.1,0-0.1,0.1-0.1,0.2c0,0.1,0,0.2,0.1,0.2L17.8,6.7z"/>
			<path d="M23.1,3.9C23.1,3.9,23.2,3.9,23.1,3.9L23.1,3.9C23.2,3.9,23.2,3.9,23.1,3.9c0.4,0,0.4,0.2,0.5,0.5l0.6,2.9
				c0,0.1,0,0.2,0,0.3c0,0.1,0,0.2-0.1,0.2c-0.2,0.1-0.3,0.1-0.3,0.3c0,0,0,0,0,0c0,0.1,0.1,0.1,0.1,0.1c0,0,0,0,0,0c0,0,0,0,0.1,0
				c0.3-0.1,0.5-0.1,0.8-0.2c0.5-0.1,1-0.2,1.5-0.3c0.3-0.1,0.5-0.1,0.6-0.4c0.1-0.2,0.2-0.4,0.2-0.6c0,0,0-0.1,0-0.1
				c0,0,0-0.1-0.1-0.1c0,0,0,0,0,0c-0.1,0-0.1,0.1-0.1,0.2c-0.1,0.2-0.4,0.7-1.5,0.9c-0.1,0-0.2,0-0.3,0c-0.2,0-0.2-0.1-0.3-0.4
				l-0.3-1.2c0,0,0-0.1,0-0.1c0,0,0,0,0,0l1-0.2c0,0,0.1,0,0.1,0c0.2,0,0.2,0.1,0.3,0.2C26,6,26,6.2,26.2,6.2c0,0,0,0,0,0
				c0.1,0,0.1-0.1,0.1-0.1c0,0,0,0,0,0c0-0.2-0.1-0.3-0.1-0.5c0-0.2-0.1-0.4-0.1-0.7c0-0.1,0-0.1-0.1-0.2c0,0,0,0,0,0
				c-0.2,0.1-0.1,0.2-0.1,0.3c0,0.1-0.1,0.2-0.4,0.3l-0.7,0.1c-0.1,0-0.1,0-0.2,0c0,0,0,0-0.1-0.1l-0.3-1.2c0-0.1,0-0.2,0-0.3
				c0-0.1,0.1-0.1,0.5-0.2c0.2,0,0.5-0.1,0.8-0.1c0.1,0,0.2,0,0.3,0.1c0,0,0.1,0.1,0.1,0.2c0,0.1,0,0.2,0.2,0.2c0,0,0,0,0,0
				c0.1,0,0.1-0.1,0.1-0.2c0-0.1,0-0.3-0.1-0.6c0-0.1,0-0.2-0.1-0.2c0,0,0,0,0,0c-0.2,0-0.8,0.2-0.9,0.2c-0.3,0.1-0.6,0.1-1.8,0.4
				c-0.2,0-0.3,0.1-0.3,0.2c0,0,0,0,0,0C22.9,3.9,23.1,3.9,23.1,3.9z"/>
			<path d="M27.8,2.9C27.8,2.9,27.8,2.9,27.8,2.9C27.8,2.9,27.8,2.9,27.8,2.9C27.8,2.9,27.8,2.9,27.8,2.9z"/>
			<path d="M31.7,7.5c0,0,0.1,0,0.2,0c0.1,0,0.2,0,0.2-0.1l0,0l0-0.1c0,0,0,0,0,0c0,0,0,0,0,0c0,0,0,0,0,0v0c0-0.1-0.1-0.1-0.1-0.1
				c-0.1,0-0.3,0-0.7-0.5l-1.1-1.6c0.4-0.2,0.8-0.7,0.8-1.2h0c0-1.1-1-1.2-1.4-1.2c-0.1,0-0.2,0-0.2,0c-0.3,0-0.7,0-1.1,0
				c0,0,0,0-0.1,0c-0.3,0-0.2,0-0.3,0c0,0,0,0,0,0c-0.1,0-0.2,0-0.2,0.1c0,0,0,0,0,0c0,0.2,0.2,0.1,0.3,0.2c0.1,0,0.2,0.1,0.2,0.4
				l0,3.4c0,0,0,0,0,0c0,0.2-0.1,0.3-0.2,0.4c-0.1,0.1-0.3,0.1-0.3,0.2c0,0,0,0,0,0c0,0.1,0,0.1,0.1,0.1l0,0h0c0.3,0,0.5,0,0.8,0
				c0.1,0,0.1,0,0.2,0c0.4,0,0.5,0,0.6,0l0,0l0,0c0,0,0,0,0,0c0,0,0.1,0,0.1-0.1h0l0-0.1c0-0.2-0.2-0.2-0.4-0.2
				c-0.2,0-0.3-0.1-0.3-0.4l0-1.4c0,0,0,0,0-0.1c0,0,0,0,0.1-0.1c0.1,0,0.2,0,0.3,0c0.4,0,0.3,0,0.5,0.3l0.7,1.1
				C30.9,7.1,31.2,7.5,31.7,7.5L31.7,7.5z M29.7,5c-0.1,0-0.3,0-0.4,0c-0.1,0-0.2,0-0.2,0c0,0,0,0,0,0h0l0-1.7l0,0
				c0-0.2,0.1-0.2,0.3-0.2c0,0,0,0,0,0c0.6,0,1.2,0.2,1.2,1c0,0,0,0,0,0C30.5,4.9,29.9,5,29.7,5z"/>
			<path d="M36.8,8.4C36.8,8.4,36.8,8.4,36.8,8.4c0.2,0,0.1-0.1,0.2-0.3l0.8-3.7c0.1-0.2,0.1-0.3,0.2-0.3c0.1,0,0.2,0,0.3-0.2
				c0,0,0,0,0,0c0-0.1-0.1-0.1-0.1-0.1c-0.2,0-0.4-0.1-0.7-0.1c-0.2,0-0.4-0.1-0.6-0.2c0,0,0,0,0,0c-0.1,0-0.1,0-0.1,0.1
				c0,0,0,0,0,0c0,0.2,0.2,0.2,0.3,0.3c0.1,0.1,0.3,0.2,0.3,0.5c0,0.1,0,0.1,0,0.2l-0.6,2.6l-2.3-4.1c0,0,0-0.2-0.2-0.2
				c-0.1,0-0.2,0-0.3,0c-0.1,0-0.2-0.1-0.3-0.1c0,0,0,0,0,0c0,0-0.1,0-0.2,0.1c0,0,0,0,0,0c0,0.2,0.2,0.2,0.3,0.3
				C33.9,3.3,34,3.4,34,3.8c0,0.1,0,0.3-0.1,0.5l-0.5,2.4c-0.1,0.4-0.3,0.5-0.4,0.6c-0.1,0-0.3,0-0.4,0.2c0,0,0,0,0,0
				c0,0.1,0,0.1,0.1,0.1c0.1,0,0.4,0.1,0.6,0.1c0.3,0.1,0.5,0.1,0.6,0.2c0,0,0,0,0,0c0.1,0,0.1-0.1,0.1-0.1c0,0,0,0,0,0
				c0-0.2-0.2-0.1-0.3-0.2c-0.1-0.1-0.2-0.1-0.2-0.3c0,0,0-0.1,0-0.1l0.6-2.6c0,0,0-0.1,0-0.1c0,0,0,0.1,0.1,0.1l2.1,3.7
				C36.6,8.3,36.7,8.4,36.8,8.4z"/>
			<path d="M42.2,11c0.4,0.3,0.8,0.4,1.1,0.4c1,0,1.4-0.9,1.6-1.1L46,8.5c0.2-0.3,0.3-0.3,0.4-0.3c0,0,0.1,0,0.1,0
				c0,0,0.1,0,0.2-0.1c0,0,0,0,0-0.1c0-0.1,0-0.1-0.1-0.1c-0.1-0.1-0.2-0.1-0.3-0.2c-0.2-0.1-0.4-0.3-0.6-0.4c0,0,0,0-0.1,0
				c0,0-0.1,0-0.1,0.1c0,0,0,0.1,0,0.1c0,0.2,0.3,0.3,0.3,0.5c0,0.1,0,0.2-0.1,0.3l-1.1,1.8c-0.3,0.4-0.7,0.8-1.2,0.8
				c-0.2,0-0.5-0.1-0.9-0.3c-0.5-0.3-0.8-0.7-0.8-1.2c0-0.3,0.1-0.5,0.3-0.8l1.2-2c0.1-0.1,0.2-0.2,0.2-0.2c0.1,0,0.2,0.1,0.3,0.1
				c0,0,0.1,0,0.1-0.1c0,0,0,0,0-0.1c0-0.1-0.2-0.2-0.2-0.2c-0.2-0.1-0.4-0.2-0.5-0.3c-0.1-0.1-0.3-0.2-0.4-0.3c0,0-0.1,0-0.2,0
				c0,0-0.1,0-0.1,0c0,0,0,0.1,0,0.1c0,0.2,0.3,0.3,0.3,0.5c0,0,0,0.1,0,0.1l-1.2,1.9c-0.2,0.4-0.4,0.8-0.4,1.2
				C41.1,9.9,41.4,10.4,42.2,11z"/>
			<path d="M45.8,12.2c-0.2,0.2-0.4,0.3-0.5,0.3c-0.2,0-0.3-0.1-0.4-0.1c0,0-0.1,0-0.1,0c0,0,0,0,0,0.1c0,0,0,0.1,0.1,0.1
				c0,0,0.3,0.3,0.5,0.4c0.2,0.2,0.3,0.4,0.4,0.5c0,0,0.1,0,0.1,0c0.1,0,0.1,0,0.1-0.1c0,0,0-0.1,0-0.1c0-0.2-0.2-0.3-0.2-0.4
				c0-0.1,0-0.2,0.1-0.3l1.9-1.9c0,0,0,0,0,0c0,0,0,0,0,0c0,0,0,0.1,0,0.1l-0.3,4.3c0,0,0,0.1,0,0.1c0,0.1,0,0.2,0.1,0.3
				c0,0,0,0,0.1,0c0,0,0,0,0,0c0.1,0,0.1-0.1,0.3-0.2l2.7-2.7c0.1-0.1,0.2-0.1,0.3-0.1c0.1,0,0.2,0.1,0.3,0.1c0,0,0.1,0,0.1,0
				c0,0,0-0.1,0-0.1c0,0,0-0.1,0-0.1c-0.1-0.1-0.3-0.3-0.5-0.5c-0.1-0.1-0.3-0.3-0.4-0.4c0,0-0.1,0-0.1,0c0,0-0.1,0-0.1,0
				c0,0,0,0.1,0,0.1c0,0.2,0.2,0.3,0.2,0.5c0,0.1-0.1,0.3-0.2,0.5l-1.9,1.9l0.3-4.7c0,0,0-0.1,0-0.1c0,0,0-0.1,0-0.1
				c-0.1-0.1-0.2-0.1-0.2-0.2c-0.1-0.1-0.1-0.2-0.2-0.2c0,0-0.1-0.1-0.1-0.1c0,0-0.1,0-0.1,0c0,0,0,0.1,0,0.1c0,0.2,0.2,0.3,0.2,0.5
				c0,0.2-0.1,0.4-0.5,0.8L45.8,12.2z"/>
			<path d="M49.5,16.7c-0.1,0.1-0.2,0.1-0.3,0.1c-0.2,0-0.2-0.2-0.4-0.2c0,0-0.1,0-0.1,0c0,0-0.1,0.1-0.1,0.1c0,0,0,0.1,0.1,0.1
				c0.1,0.1,0.2,0.2,0.4,0.5c0.2,0.2,0.3,0.5,0.4,0.6c0,0.1,0.1,0.1,0.1,0.1c0,0,0.1,0,0.1,0c0,0,0.1-0.1,0.1-0.1
				c0-0.1-0.1-0.3-0.1-0.4c0-0.1,0-0.1,0.1-0.2l2.9-2c0.1-0.1,0.2-0.1,0.2-0.1c0.2,0,0.2,0.2,0.4,0.2c0,0,0,0,0.1,0
				c0,0,0.1,0,0.1-0.1c0-0.1,0-0.1-0.1-0.1c-0.1-0.2-0.3-0.3-0.4-0.5c-0.1-0.2-0.2-0.4-0.4-0.6c0,0,0-0.1-0.1-0.1c0,0-0.1,0-0.1,0
				c0,0-0.1,0.1-0.1,0.1c0,0.1,0.1,0.2,0.1,0.4c0,0.1,0,0.2-0.1,0.2v0L49.5,16.7z"/>
			<path d="M51.1,20.4c-0.1,0.1-0.3,0.2-0.3,0.4c0,0,0,0,0,0.1c0,0.1,0.1,0.1,0.2,0.1c0.1,0,0.2,0,0.3,0l4.2-0.1c0,0,0,0,0,0
				c0.4,0,0.3,0.1,0.5,0.2c0,0,0,0,0.1,0c0,0,0.1-0.1,0.1-0.1c0,0,0-0.1,0-0.1c0-0.1-0.1-0.2-0.2-0.5c-0.1-0.1-0.1-0.3-0.2-0.4
				c0,0-0.1-0.1-0.1-0.1c0,0,0,0-0.1,0c-0.1,0-0.1,0.1-0.1,0.1c0,0.1,0,0.2,0,0.3c0,0.1,0,0.1-0.1,0.1c-0.1,0.1-0.3,0.1-0.4,0.1
				L52,20.6c0,0-0.1,0-0.1,0c0,0,0,0,0,0c0,0,0.1-0.2,0.3-0.4l2-2.2c0,0,0.1-0.1,0.2-0.1c0,0,0.1,0,0.1,0c0.1,0,0.2,0.1,0.3,0.1
				c0,0,0,0,0.1,0c0.1,0,0.1-0.1,0.1-0.1c0,0,0,0,0-0.1c0-0.1-0.2-0.3-0.2-0.5c-0.1-0.2-0.1-0.4-0.2-0.6c0-0.1-0.1-0.1-0.1-0.1
				c0,0-0.1,0-0.1,0c-0.1,0-0.1,0.1-0.1,0.1c0,0.1,0,0.1,0,0.2c0,0.1,0,0.2-0.1,0.3L51.1,20.4z"/>
			<path d="M55.9,23.1L53,23.8c-0.1,0-0.3,0.1-0.3,0.1c-0.1,0-0.1,0-0.2-0.1c-0.1-0.2-0.1-0.3-0.3-0.3c0,0,0,0,0,0
				c-0.1,0-0.1,0.1-0.1,0.1c0,0,0,0,0,0.1c0.1,0.3,0.1,0.5,0.2,0.8c0.1,0.5,0.2,1,0.3,1.5c0.1,0.3,0.1,0.5,0.4,0.6
				c0.2,0.1,0.4,0.2,0.6,0.2c0,0,0.1,0,0.1,0c0,0,0.1,0,0.1-0.1c0,0,0,0,0,0c0-0.1-0.1-0.1-0.2-0.1c-0.2-0.1-0.7-0.4-0.9-1.5
				c0-0.1,0-0.2,0-0.3c0-0.2,0.1-0.2,0.4-0.3l1.2-0.3c0,0,0.1,0,0.1,0c0,0,0,0,0,0l0.2,1c0,0,0,0.1,0,0.1c0,0.2-0.1,0.2-0.2,0.3
				c-0.1,0.1-0.2,0.1-0.3,0.2c0,0,0,0,0,0c0,0.1,0.1,0.1,0.1,0.1c0,0,0,0,0,0c0.2,0,0.3-0.1,0.5-0.1c0.2,0,0.4-0.1,0.7-0.1
				c0.1,0,0.1,0,0.2-0.1c0,0,0,0,0,0c-0.1-0.2-0.2-0.1-0.3-0.1c-0.1,0-0.2-0.1-0.3-0.4l-0.2-0.7c0-0.1,0-0.1,0-0.2c0,0,0,0,0.1-0.1
				l1.2-0.3c0.1,0,0.2,0,0.3,0c0.1,0,0.1,0.1,0.2,0.5c0,0.2,0.1,0.6,0.1,0.8c0,0.1,0,0.2-0.1,0.3c0,0-0.1,0.1-0.2,0.1
				c-0.1,0-0.2,0-0.2,0.2c0,0,0,0,0,0c0,0.1,0.1,0.1,0.2,0.1c0.1,0,0.3,0,0.7-0.1c0.1,0,0.2,0,0.2-0.1c0,0,0,0,0,0
				c0-0.2-0.2-0.8-0.2-0.9c-0.1-0.3-0.1-0.6-0.4-1.8c0-0.2-0.1-0.2-0.2-0.3c0,0,0,0,0,0c-0.1,0-0.1,0.1-0.1,0.2c0,0,0,0.1,0,0.1v0
				c0,0,0,0,0,0C56.4,23,56.2,23,55.9,23.1z"/>
			<path d="M57,27.8l-3.4,0.1c0,0,0,0,0,0c-0.2,0-0.3-0.1-0.3-0.2c-0.1-0.1-0.1-0.2-0.2-0.3c0,0,0,0,0,0c-0.1,0-0.1,0.1-0.1,0.1v0
				c0,0,0,0,0,0c0,0.3,0,0.5,0,0.7c0,0.1,0,0.3,0,0.4c0,0.3,0,0.3,0,0.4c0,0,0,0,0,0c0,0,0,0,0,0c0,0,0,0,0,0c0,0,0,0.1,0.1,0.1v0h0
				v0c0.2,0,0.2-0.2,0.2-0.4c0-0.2,0.1-0.3,0.4-0.3l1.4,0c0,0,0,0,0.1,0c0,0,0,0,0.1,0.1c0,0.2,0,0.3,0,0.4c0,0.3,0,0.2-0.3,0.4
				l-1.1,0.8c-0.4,0.3-0.7,0.5-0.7,1c0,0,0,0,0,0c0,0,0,0.1,0,0.2c0,0.1,0,0.2,0.1,0.2l0,0l0,0c0,0,0,0,0,0l0,0h0c0,0,0,0,0,0
				c0.1,0,0.1-0.1,0.1-0.1c0-0.1,0-0.3,0.5-0.7l1.6-1.1c0.2,0.4,0.7,0.8,1.2,0.8c0,0,0,0,0,0c1,0,1.2-1,1.2-1.4c0-0.1,0-0.2,0-0.2
				c0-0.3,0-0.7-0.1-1.1c0,0,0-0.1,0-0.1c0-0.2,0-0.2,0-0.3v0c0-0.1,0-0.2-0.1-0.2l0,0c0,0,0,0,0,0c-0.2,0-0.1,0.2-0.2,0.3
				C57.3,27.7,57.3,27.8,57,27.8z M57.4,28.8c0,0.6-0.2,1.1-1,1.2c0,0,0,0,0,0c-0.7,0-0.8-0.6-0.9-0.8c0-0.1,0-0.3,0-0.4
				c0-0.1,0-0.2,0-0.2c0,0,0,0,0,0l1.7,0h0c0,0,0,0,0,0C57.4,28.5,57.4,28.5,57.4,28.8C57.4,28.8,57.4,28.8,57.4,28.8z"/>
			<path d="M56.4,33c-0.1,0-0.2,0-0.2,0c-0.7,0-1.1,0.6-1.3,1.2c-0.3,0.6-0.5,1.1-1,1.1c0,0-0.1,0-0.1,0c-0.5-0.1-0.8-0.6-0.8-1.1
				c0-0.1,0-0.2,0-0.3c0.1-0.9,0.9-1.1,1.1-1.2c0.1,0,0.3,0,0.3-0.1c0,0,0,0,0,0c0-0.1-0.1-0.2-0.2-0.2c0,0,0,0,0,0l-0.9,0
				c-0.2,0-0.5,0.6-0.6,1.1c0,0.2,0,0.4,0,0.6c0,1.1,0.7,1.5,1.2,1.6c0.1,0,0.2,0,0.3,0c0.8,0,1.1-0.6,1.4-1.2
				c0.3-0.6,0.5-1.1,1-1.1c0,0,0.1,0,0.1,0c0.5,0.1,0.6,0.5,0.6,0.9c0,0.1,0,0.2,0,0.2c-0.1,0.6-0.4,1-1,1.1c-0.1,0-0.2,0-0.3,0.2
				c0,0,0,0,0,0C55.9,36,56,36,56,36l0.9,0.1c0,0,0,0,0,0c0,0,0,0,0,0c0.1,0,0.1-0.1,0.1-0.1c0,0,0,0,0,0c0-0.1-0.1-0.1-0.1-0.1l0,0
				c0,0,0.3-0.3,0.4-1.1c0-0.1,0-0.2,0-0.3C57.5,33.8,57.1,33.2,56.4,33z"/>
			<path d="M56.6,37.9C56.5,37.9,56.5,37.9,56.6,37.9c-0.2,0-0.2,0.1-0.3,0.2c-0.1,0.1-0.1,0.2-0.3,0.2c0,0-0.1,0-0.1,0l0,0
				l-3.2-1.1c-0.3-0.1-0.3-0.2-0.3-0.4c0,0,0-0.1,0-0.1c0-0.1,0-0.1-0.1-0.2c0,0,0,0-0.1,0c-0.1,0-0.1,0.1-0.2,0.2
				c0,0.1,0,0.2-0.2,0.6c-0.1,0.3-0.2,0.5-0.2,0.7c0,0,0,0.1,0,0.1c0,0.1,0,0.1,0.1,0.1c0,0,0,0,0,0c0.1,0,0.2-0.1,0.2-0.2
				c0.1-0.1,0.1-0.2,0.3-0.2c0,0,0.1,0,0.1,0l3.4,1.1c0.2,0.1,0.2,0.2,0.2,0.3c0,0,0,0.1,0,0.1c0,0.1,0,0.1,0.1,0.2c0,0,0,0,0,0
				c0.1,0,0.1-0.1,0.1-0.1c0.1-0.2,0.1-0.4,0.2-0.6c0.1-0.2,0.2-0.4,0.3-0.7c0,0,0,0,0-0.1C56.7,37.9,56.6,37.9,56.6,37.9z"/>
			<path d="M55.3,40.9l-0.5-0.4c0,0-0.1,0-0.1,0c0,0-0.1,0-0.1,0.1c0,0,0,0,0,0.1c0,0.1,0.1,0.1,0.1,0.2c0.2,0.2,0.2,0.3,0.2,0.3
				c0,0.1,0,0.1-0.1,0.3l-0.5,0.9v0c0,0-0.2-0.1-0.2-0.1l0,0l-3-1.6C51,40.6,51,40.6,51,40.4c0-0.1,0-0.2,0-0.3c0,0,0-0.1-0.1-0.1
				c0,0-0.1,0-0.1,0c-0.1,0-0.1,0-0.1,0.1c0,0-0.1,0.2-0.4,0.8c-0.1,0.2-0.2,0.3-0.3,0.5c0,0,0,0,0,0.1c0,0.1,0.1,0.1,0.1,0.1
				c0,0,0,0,0.1,0c0.2,0,0.2-0.3,0.5-0.3c0.1,0,0.1,0,0.2,0.1l3,1.6c0.1,0,0.2,0.1,0.2,0.1c0,0,0,0,0,0c0,0,0,0.1-0.1,0.2L53.5,44
				c-0.1,0.2-0.2,0.3-0.3,0.3c-0.1,0-0.2-0.1-0.3-0.1c-0.1,0-0.1,0-0.1,0.1c0,0,0,0,0,0.1c0,0.1,0.1,0.1,0.1,0.2l0.5,0.2
				c0.1,0,0.1,0,0.2,0c0.1,0,0.1-0.1,0.2-0.2c0.1-0.1,0.3-0.7,0.9-1.7c0.4-0.8,0.7-1.2,0.9-1.6c0,0,0,0,0-0.1
				C55.5,41,55.4,40.9,55.3,40.9z"/>
			<path d="M52.7,45.9c-0.2,0-0.2,0.2-0.5,0.2c0,0,0,0-0.1,0l-2.1-0.3c-0.1,0-0.3,0-0.3-0.1l-1.2-1c-0.1-0.1-0.1-0.1-0.1-0.2
				c0-0.1,0.1-0.2,0.1-0.4c0,0,0-0.1-0.1-0.1c0,0-0.1,0-0.1,0c-0.1,0-0.1,0-0.1,0.1c0,0.1-0.2,0.2-0.4,0.5c-0.2,0.2-0.4,0.5-0.5,0.5
				c0,0-0.1,0.1-0.1,0.2c0,0,0,0.1,0,0.1c0,0,0.1,0,0.1,0c0.2,0,0.3-0.2,0.4-0.2c0.1,0,0.2,0,0.3,0.1l1.3,1c0.1,0,0,0.1,0.1,0.3
				l0.5,1.6c0.1,0.2,0.1,0.3,0.1,0.5c0,0,0,0.1,0,0.1c0,0,0,0.1,0,0.1c0,0,0,0.1,0,0.1c0,0,0.1,0,0.1,0c0,0,0.1,0,0.1,0
				c0.1-0.2,0.2-0.3,0.3-0.5c0.1-0.1,0.2-0.2,0.3-0.4c0,0,0.1-0.1,0.1-0.1c0,0,0-0.1-0.1-0.1c0,0-0.1,0-0.1,0
				c-0.2,0-0.3,0.2-0.4,0.2c0,0-0.1,0-0.1,0c-0.1-0.1-0.1-0.2-0.2-0.3l-0.4-1.2c0-0.1,0-0.1,0-0.1h0c0,0,0,0,0.1,0c0,0,0,0,0.1,0
				l1.5,0.2c0.1,0,0.2,0,0.3,0.1c0,0,0,0,0,0.1c0,0.1,0,0.2,0,0.2c0,0,0,0.1,0,0.1c0,0,0,0,0.1,0c0.1,0,0.1-0.1,0.1-0.1
				c0-0.1,0.1-0.2,0.3-0.4c0.3-0.3,0.4-0.4,0.5-0.6c0,0,0-0.1,0-0.1C52.8,46,52.8,45.9,52.7,45.9C52.7,45.9,52.7,45.9,52.7,45.9z"/>
			<polygon points="17.3,50.7 16.5,51.2 15.8,50.7 16.1,51.5 15.4,52 16.2,52.1 16.5,52.9 16.8,52.1 17.7,52.2 17,51.6 			"/>
			<path d="M25.2,52.5C25.2,52.5,25.2,52.5,25.2,52.5C25.2,52.5,25.2,52.5,25.2,52.5C25.2,52.5,25.2,52.5,25.2,52.5
				c-0.1,0-0.4,0.2-0.8,0.2c-0.4,0-0.5,0-0.6,0.2c0,0,0,0,0,0c0,0.1,0,0.1,0.1,0.1c0,0,0,0,0.1,0c0.1,0,0.2,0,0.2,0c0,0,0.1,0,0.1,0
				c0.1,0,0.1,0.1,0.1,0.1c0,0.1,0,0.1-0.1,0.3l0,0l-0.8,2.9c-0.1,0.2-0.2,0.3-0.3,0.3c-0.1,0-0.2,0-0.3,0c-0.1,0-0.1,0-0.1,0.1
				c0,0,0,0,0,0c0,0.1,0.1,0.1,0.2,0.1c0.2,0.1,0.5,0.1,0.8,0.2c0.2,0.1,0.4,0.2,0.6,0.2c0.1,0,0.1,0,0.2,0c0,0,0,0,0,0
				c0,0,0.1,0,0.1-0.1c0,0,0,0,0,0c0-0.2-0.2-0.2-0.3-0.2c-0.1-0.1-0.2-0.1-0.2-0.3c0-0.1,0-0.1,0-0.2l0.9-3.3
				c0.1-0.2,0.1-0.3,0.2-0.4c0,0,0,0,0-0.1C25.3,52.6,25.3,52.5,25.2,52.5z"/>
			<path d="M29.8,54.3c0,0,0-0.1,0-0.1c0-0.7-0.5-1.1-1.1-1.1c0,0-0.1,0-0.1,0c-0.6,0-1.2,0.5-1.3,1.1c0,0,0,0.1,0,0.1
				c0,0.4,0.2,0.7,0.5,0.9c-0.5,0.2-0.8,0.6-0.9,1.2c0,0,0,0.1,0,0.1c0,0.8,0.6,1.3,1.3,1.4c0,0,0.1,0,0.1,0c0,0,0,0,0,0
				c0.8,0,1.4-0.5,1.4-1.3c0,0,0-0.1,0-0.1c0-0.5-0.3-0.9-0.7-1.2C29.4,55.1,29.8,54.7,29.8,54.3z M29.3,56.7
				C29.3,56.7,29.3,56.7,29.3,56.7c0,0.6-0.4,0.9-0.9,0.9c0,0-0.1,0-0.1,0c-0.5,0-0.9-0.6-0.9-1.2c0,0,0-0.1,0-0.1
				c0-0.5,0.5-0.9,0.7-0.9c0,0,0,0,0,0c0,0,0,0,0,0C28.3,55.5,29.3,56,29.3,56.7z M29.3,54.3c0,0.4-0.3,0.7-0.6,0.7c0,0,0,0-0.1,0
				c-0.4,0-0.9-0.4-0.9-0.9c0,0,0,0,0-0.1c0-0.4,0.3-0.7,0.7-0.7c0,0,0,0,0.1,0C29,53.4,29.3,53.8,29.3,54.3
				C29.3,54.2,29.3,54.3,29.3,54.3z"/>
			<path d="M32.4,54.6c-0.1,0-0.1,0-0.2,0c-0.2,0-0.3,0.1-0.5,0.1l0.1-0.9c0-0.1,0.1-0.1,0.3-0.2l0.7-0.1c0.2,0,0.4,0,0.5-0.2
				c0-0.1,0.2-0.5,0.2-0.6v0c0-0.1-0.1-0.1-0.1-0.1c0,0,0,0,0,0c-0.2,0.1-0.1,0.2-0.4,0.3l-1.1,0.1c-0.3,0-0.3,0.2-0.3,0.4l-0.1,1.7
				c0,0,0,0,0,0c0,0.1,0.1,0.1,0.1,0.1c0,0,0,0,0,0c0.1,0,0.3-0.1,0.5-0.1c0.1,0,0.2,0,0.2,0c0.7,0,0.9,0.6,0.9,0.9
				c0,0.1,0,0.1,0,0.2c0,0.7-0.5,1.2-1.1,1.3c-0.1,0-0.1,0-0.2,0c-0.3,0-0.4-0.1-0.4-0.1c0,0,0,0,0,0c-0.1,0-0.1,0.1-0.1,0.1
				c0,0,0,0,0,0c0.1,0.1,0.3,0.2,0.7,0.2c0.1,0,0.2,0,0.3,0c1.2-0.2,1.6-1.2,1.5-1.8c0-0.1,0-0.2,0-0.2C33.7,55,33.2,54.6,32.4,54.6
				z"/>
			<path d="M38.1,56.2c-0.1,0-0.2,0.1-0.4,0.1c-0.1,0-0.3,0-0.4-0.3l-1.1-3.2c-0.1-0.2-0.1-0.3-0.1-0.4c0,0,0-0.1-0.1-0.1
				c0,0,0,0,0,0c-0.1,0-0.1,0.1-0.2,0.2c-0.1,0.1-0.2,0.3-0.4,0.4c-0.2,0.2-0.4,0.2-0.4,0.4c0,0,0,0,0,0.1c0,0.1,0.1,0.1,0.1,0.1
				c0,0,0,0,0,0c0.1,0,0.3-0.2,0.3-0.2c0,0,0.1,0,0.1,0c0.1,0,0.1,0.1,0.2,0.3l1,2.8c0,0.1,0,0.1,0,0.1c0,0.1-0.1,0.2-0.2,0.3
				c-0.1,0.1-0.2,0.1-0.3,0.2c0,0,0,0,0,0c0,0.1,0.1,0.1,0.1,0.1c0,0,0,0,0,0c0,0,0.1,0,0.1,0c0.2-0.1,0.5-0.2,0.7-0.3
				c0.2-0.1,0.4-0.1,0.6-0.2c0.1,0,0.2,0,0.2-0.2c0,0,0,0,0,0C38.2,56.2,38.1,56.2,38.1,56.2z"/>
			<polygon points="45,50.5 44.4,51.1 43.6,50.6 43.9,51.5 43.3,52 44.1,52 44.5,52.7 44.7,51.9 45.6,51.8 44.8,51.3 			"/>
			<path d="M16.6,39.5c0.1,0,0.2,0.1,0.3,0.1c0.1,0,0.2,0,0.3-0.1c0,0,0.1-0.1,0.1-0.1c0,0,0-0.1,0-0.1c0,0-0.1-0.1-0.1-0.1
				c-0.1,0-0.2,0.1-0.3,0c-0.1,0-0.2,0-0.2-0.1c-0.1-0.1-0.1-0.4-0.1-0.6c0-0.2,0-0.5,0-0.7c0-0.3,0-0.5-0.1-0.7
				c-0.2-0.3-0.4-0.5-0.6-0.5c0,0,0,0-0.1,0c0,0-0.1,0-0.1,0.1c0,0,0,0,0,0.1c0.1,0.1,0.2,0.1,0.2,0.2c0,0.1,0.1,0.2,0.1,0.3
				c0,0,0,0,0,0.1c0,0.3,0,0.5,0,0.6c0,0,0,0.1,0,0.1c-0.3-0.3-0.7-0.5-1.2-0.5c-0.3,0-0.6,0.1-0.9,0.3c-0.5,0.3-0.8,0.9-0.8,1.4
				c0,0.3,0.1,0.6,0.3,0.9c0.3,0.6,0.9,0.9,1.5,0.9c0.3,0,0.6-0.1,0.9-0.2C16.2,40.4,16.5,40,16.6,39.5z M15.3,40.4
				c-0.2,0.1-0.5,0.2-0.7,0.2c-0.4,0-0.7-0.2-0.9-0.5c-0.1-0.2-0.2-0.4-0.2-0.6c0-0.5,0.3-1.1,0.8-1.3c0.3-0.2,0.5-0.2,0.8-0.2
				c0.4,0,0.7,0.2,1,0.5c0.1,0.2,0.2,0.4,0.2,0.7C16.2,39.6,15.8,40.1,15.3,40.4z"/>
			<path d="M12.3,37.1l1.5-0.4c0.5-0.2,1.1-0.5,1.1-1.2c0-0.2,0-0.4-0.1-0.6c-0.2-0.8-0.7-1-1.2-1c-0.3,0-0.5,0.1-0.6,0.1l-1.4,0.4
				c-0.1,0-0.1,0-0.2,0c-0.2,0-0.1-0.1-0.3-0.2c0,0,0,0,0,0c-0.1,0-0.1,0.1-0.1,0.1c0,0,0,0,0,0c0,0.1,0.1,0.2,0.1,0.2
				c0.1,0.2,0.1,0.3,0.1,0.5c0,0.1,0,0.1,0.1,0.1c0,0,0,0,0,0c0.1,0,0.1-0.1,0.1-0.2c0,0,0-0.1,0-0.1c0-0.1,0-0.2,0.2-0.2l1.4-0.4
				c0.1,0,0.3-0.1,0.4-0.1c0.4,0,0.7,0.2,0.8,0.7c0,0.1,0.1,0.3,0.1,0.4c0,0.4-0.2,0.7-0.7,0.9l-1.6,0.5c0,0-0.1,0-0.1,0
				c-0.1,0-0.1,0-0.1-0.1c0,0,0-0.1-0.2-0.1c0,0,0,0,0,0c-0.1,0-0.1,0.1-0.1,0.1c0,0.1,0,0.1,0,0.1c0,0.1,0.1,0.3,0.1,0.4
				c0,0.1,0,0.2,0.1,0.3c0,0,0,0.1,0.1,0.1c0,0,0,0,0,0c0.1,0,0.1-0.1,0.1-0.2c0,0,0-0.1,0-0.1C12.3,37.2,12.3,37.2,12.3,37.1z"/>
			<path d="M10.7,31.4C10.7,31.4,10.7,31.4,10.7,31.4L10.7,31.4c0.1,0.1,0.2,0.1,0.7,0.4l2.4,1c0.1,0,0.2,0.1,0.2,0.2
				c0,0,0,0.1,0.1,0.2v0c0,0,0,0,0,0c0,0,0,0,0,0v0c0,0,0.1,0,0.1-0.1l0,0l0,0l0,0c0-0.1,0-0.2,0-0.4c0,0,0-0.1,0-0.1
				c0-0.1,0-0.1,0-0.2c0,0,0-0.1,0-0.1c0,0,0-0.1,0-0.1c0,0-0.1-0.1-0.1-0.1c0,0,0,0,0,0c0,0,0,0,0,0c-0.1,0-0.1,0.2-0.1,0.2
				c0,0.1,0,0.1-0.2,0.1c0,0,0,0,0,0c0,0-0.1,0-0.1,0L12.9,32c-0.1,0-0.1-0.1-0.1-0.2l-0.1-1c0,0,0,0,0,0c0-0.1,0-0.1,0.1-0.1
				l0.4-0.2v0c0.1-0.1,0.3-0.2,0.4-0.2c0,0,0,0,0,0c0,0,0.1,0,0.1,0.1c0,0.1,0,0.1,0.1,0.2c0,0,0,0,0,0l0,0l0,0
				c0.1,0,0.1-0.1,0.1-0.1c0,0,0,0,0,0c0-0.1,0-0.3,0-0.4c0-0.2,0-0.4,0-0.6c0,0,0-0.1-0.1-0.1c0,0,0,0,0,0c0,0,0,0,0,0
				c-0.1,0-0.1,0.1-0.1,0.2c0,0.1,0,0.2-0.1,0.2c-0.1,0.1-0.3,0.2-0.5,0.3l-2.3,1.1C10.8,31.2,10.7,31.2,10.7,31.4z M12.5,31
				C12.5,31,12.5,31,12.5,31C12.5,31,12.5,31,12.5,31l0.1,0.9l-1.1-0.4L12.5,31z"/>
			<path d="M11.8,26.6L11.8,26.6c0-0.1-0.1-0.1-0.6-0.2c0,0,0,0-0.1,0c0,0-0.1,0-0.1,0.1c0,0.1-0.1,0.6-0.1,0.6
				c0,0.2-0.1,0.4-0.2,1.3c0,0,0,0.1,0,0.1c0,0.1,0,0.1,0.1,0.1l0,0v0c0.1,0,0.1-0.1,0.1-0.2c0-0.1,0.1-0.2,0.2-0.2
				c0.1,0,0.1,0,0.2,0l2.1,0.3c0.2,0,0.3,0.1,0.3,0.1c0.1,0.1,0,0.2,0.1,0.3c0,0,0,0,0,0c0.1,0,0.1-0.1,0.1-0.1c0-0.2,0-0.4,0.1-0.6
				c0-0.3,0.1-0.7,0.2-1c0-0.1,0-0.1,0-0.2c0-0.1,0-0.2-0.1-0.3c-0.1-0.1-0.3-0.3-0.4-0.3c0,0,0,0,0,0c0,0-0.1,0-0.1,0.1
				c0,0,0,0,0,0c0,0.1,0.1,0.1,0.2,0.2c0.1,0.1,0.1,0.3,0.1,0.7c0,0.1,0,0.2,0,0.4c0,0.3-0.1,0.3-0.1,0.3c0,0-0.1,0-0.2,0l-0.8-0.1
				c-0.1,0-0.1,0-0.1,0c0,0,0,0,0,0l0.1-0.7c0-0.2,0.1-0.2,0.2-0.2c0.1,0,0.2,0,0.3-0.1c0,0,0,0,0,0c0-0.1-0.1-0.1-0.1-0.1
				c-0.1,0-0.2,0-0.4,0c-0.1,0-0.3-0.1-0.5-0.1c0,0,0,0,0,0c0,0-0.1,0-0.1,0.1c0,0,0,0,0,0c0,0.1,0.1,0.1,0.2,0.2
				c0.1,0,0.1,0.1,0.1,0.2c0,0,0,0.1,0,0.1l-0.1,0.5c0,0.1,0,0.1,0,0.1c0,0,0,0-0.1,0l-0.8-0.1c-0.2,0-0.2,0-0.2-0.1
				c0-0.1,0-0.2,0-0.3c0-0.2,0.1-0.7,0.2-0.7c0,0,0,0,0.1,0c0,0,0.1,0,0.2,0C11.7,26.8,11.8,26.8,11.8,26.6L11.8,26.6L11.8,26.6z"/>
			<path d="M15.3,23.8c0-0.3-0.1-0.4-0.1-0.5L14.8,23c0,0,0,0-0.1,0c0,0-0.1,0-0.1,0.1c0,0,0,0,0,0c0,0,0,0.1,0.1,0.1
				c0.1,0.1,0.3,0.4,0.3,0.8c0,0.2,0,0.3-0.1,0.5c-0.2,0.6-0.7,0.8-1.2,0.8c-0.2,0-0.4,0-0.7-0.1c-0.6-0.2-1-0.6-1-1.1
				c0-0.2,0-0.3,0.1-0.5c0.2-0.5,0.5-0.7,1.1-0.8c0,0,0,0,0,0c0.1,0,0.1,0,0.2-0.1c0,0,0,0,0,0c0-0.2-0.2-0.1-0.4-0.2
				c-0.2-0.1-0.3-0.1-0.3-0.1c0,0-0.1,0-0.1,0.1c0,0,0,0,0,0c0,0,0,0.1,0,0.1v0h0c0,0.1-0.5,0.2-0.7,1c-0.1,0.2-0.1,0.4-0.1,0.6
				c0,0.7,0.5,1.4,1.2,1.6c0.2,0.1,0.4,0.1,0.6,0.1c0,0,0,0,0,0c0.7,0,1.3-0.4,1.5-1.1C15.2,24.3,15.3,24,15.3,23.8z"/>
			<path d="M15.6,22.3c0.4,0,0.8-0.2,1.1-0.8c0.2-0.3,0.3-0.6,0.3-0.8c0-0.7-0.6-1-0.7-1.1L15,18.8c-0.2-0.1-0.2-0.2-0.2-0.2
				c0,0,0-0.1,0-0.1c0,0,0-0.1-0.1-0.1c0,0,0,0-0.1,0c0,0-0.1,0-0.1,0.1c0,0.1-0.1,0.2-0.1,0.2c-0.1,0.1-0.2,0.3-0.3,0.4
				c0,0,0,0,0,0.1c0,0,0,0.1,0,0.1c0,0,0,0,0.1,0c0.2,0,0.2-0.2,0.4-0.2c0,0,0.1,0,0.2,0.1l1.2,0.8c0.3,0.2,0.5,0.5,0.5,0.8
				c0,0.2-0.1,0.4-0.2,0.6c-0.2,0.3-0.5,0.5-0.8,0.5c-0.2,0-0.4-0.1-0.6-0.2l-1.4-0.9c-0.1-0.1-0.1-0.1-0.1-0.1c0-0.1,0-0.1,0-0.2
				c0,0,0-0.1-0.1-0.1c0,0,0,0-0.1,0c-0.1,0-0.1,0.1-0.2,0.1c-0.1,0.1-0.1,0.3-0.2,0.4c-0.1,0.1-0.1,0.2-0.2,0.3c0,0,0,0.1,0,0.1
				c0,0,0,0.1,0,0.1c0,0,0,0,0.1,0c0.2,0,0.2-0.2,0.3-0.2c0,0,0,0,0.1,0l1.3,0.8C14.9,22.2,15.2,22.3,15.6,22.3
				C15.6,22.3,15.6,22.3,15.6,22.3z"/>
			<path d="M20.5,17c-0.1,0-0.2,0.1-0.3,0.1c0,0-0.1,0-0.2-0.1l-1.6-1.6c-0.1-0.1-0.2-0.2-0.2-0.3c0-0.1,0.1-0.1,0.1-0.3
				c0,0,0-0.1,0-0.1c0,0-0.1,0-0.1,0c0,0-0.1,0-0.1,0c-0.1,0.1-0.1,0.1-0.1,0.2c0,0-0.1,0.1-0.2,0.1c0,0,0,0.1,0,0.1
				c0,0.1,0,0.1,0,0.2l0.7,2.3c0,0.1,0,0.2,0.1,0.2c0,0,0,0-0.1,0l-2.4-1c0,0-0.1,0-0.1-0.1c0,0-0.1,0-0.1,0
				c-0.1,0.1-0.1,0.1-0.2,0.2c-0.1,0.1-0.1,0.1-0.2,0.2c0,0-0.1,0.1-0.1,0.1c0,0,0,0.1,0,0.1c0,0,0.1,0,0.1,0c0.1,0,0.1-0.1,0.2-0.1
				c0.1,0,0.3,0.1,0.7,0.4c0.3,0.4,0.6,0.7,1.1,1.3c0.1,0.1,0.1,0.2,0.1,0.2c0,0.1-0.1,0.1-0.1,0.2c0,0,0,0.1,0,0.1c0,0,0,0,0.1,0
				c0,0,0.1,0,0.1,0c0.1-0.1,0.1-0.1,0.3-0.3c0.1-0.1,0.3-0.2,0.3-0.3c0,0,0.1-0.1,0.1-0.1c0,0,0-0.1,0-0.1c0,0-0.1,0-0.1,0
				c-0.1,0-0.2,0.1-0.3,0.1c-0.1,0-0.2,0-0.3-0.2l-1-1.2l2,0.8c0,0,0.1,0,0.2,0c0,0,0,0,0.1,0c0,0,0-0.1,0-0.1
				c0-0.1-0.1-0.2-0.1-0.2l-0.6-2.1c0,0,0-0.1,0-0.1c0,0,0,0,0.1,0.1l1.2,1.3c0.1,0.1,0.1,0.1,0.1,0.2c0,0.1-0.1,0.1-0.1,0.2
				c0,0,0,0.1,0,0.1c0,0,0,0,0.1,0c0,0,0.1,0,0.1,0c0.1-0.1,0.2-0.2,0.3-0.3c0.1-0.1,0.3-0.2,0.3-0.3c0,0,0.1-0.1,0.1-0.1
				C20.6,17.1,20.6,17.1,20.5,17C20.5,17.1,20.5,17,20.5,17z"/>
			<path d="M23.8,16.4c0.4-0.2,0.5-0.4,0.5-0.6c0,0,0,0,0-0.1c0,0,0-0.1-0.1-0.1c0,0,0,0-0.1,0c-0.1,0.1-0.1,0.2-0.2,0.2
				c-0.1,0-0.2,0.1-0.3,0.1c0,0-0.1,0-0.1,0c-0.4,0-0.6,0-0.7,0c0,0,0,0,0,0c0.4-0.3,0.6-0.8,0.6-1.2c0-0.3-0.1-0.6-0.2-0.9
				c-0.3-0.6-0.9-0.9-1.4-0.9c-0.3,0-0.6,0.1-0.9,0.2c-0.6,0.3-0.9,0.9-0.9,1.5c0,0.3,0.1,0.6,0.2,0.8c0.3,0.5,0.7,0.9,1.2,0.9
				c0,0.1-0.1,0.2-0.1,0.3c0,0.1,0,0.2,0.1,0.3c0,0,0.1,0.1,0.1,0.1c0,0,0.1,0,0.1,0c0,0,0.1-0.1,0.1-0.1c0-0.1,0-0.2,0-0.3
				c0-0.1,0-0.2,0.2-0.2c0.1-0.1,0.3-0.1,0.5-0.1c0.3,0,0.7,0,1,0C23.4,16.4,23.6,16.4,23.8,16.4z M22.5,15.9
				C22.3,16,22.1,16,21.9,16c-0.6,0-1.1-0.4-1.4-0.9c-0.1-0.2-0.2-0.5-0.2-0.7c0-0.4,0.2-0.7,0.6-1h0c0.2-0.1,0.4-0.2,0.6-0.2
				c0.6,0,1.1,0.4,1.4,0.9c0.1,0.3,0.2,0.5,0.2,0.7C23,15.3,22.8,15.7,22.5,15.9z"/>
			<path d="M27,13l-0.4-1.4c0-0.1,0-0.1,0-0.1c0-0.2,0.1-0.1,0.2-0.3c0,0,0,0,0,0c0-0.1-0.1-0.1-0.1-0.1c0,0,0,0,0,0
				c-0.1,0-0.2,0.1-0.2,0.1c-0.2,0-0.3,0.1-0.5,0.1c-0.1,0-0.1,0-0.1,0.1c0,0,0,0,0,0c0,0.1,0.1,0.1,0.2,0.1c0,0,0.1,0,0.1,0
				c0.1,0,0.2,0,0.2,0.2l0.4,1.4c0,0.1,0.1,0.3,0.1,0.4c0,0.4-0.2,0.7-0.7,0.9c-0.1,0-0.2,0-0.4,0c-0.4,0-0.8-0.2-0.9-0.8l-0.4-1.6
				c0,0,0-0.1,0-0.1c0-0.1,0-0.1,0.1-0.1c0,0,0.1,0,0.1-0.2c0,0,0,0,0,0c0-0.1-0.1-0.1-0.1-0.1c-0.1,0-0.1,0-0.1,0
				c-0.1,0-0.3,0.1-0.4,0.1c-0.1,0-0.2,0-0.3,0.1c0,0-0.1,0-0.1,0.1c0,0,0,0,0,0c0,0.1,0.1,0.1,0.2,0.1c0,0,0.1,0,0.1,0
				c0.1,0,0.1,0,0.2,0.1l0.4,1.5c0.1,0.6,0.5,1.1,1.2,1.1c0,0,0,0,0,0c0.2,0,0.4,0,0.6-0.1c0.8-0.2,1-0.8,1-1.2
				C27,13.3,27,13.1,27,13z"/>
			<path d="M30.4,13.4C30.3,13.4,30.3,13.4,30.4,13.4L30.4,13.4c-0.1,0.1-0.1,0.1-0.3,0.3c-0.2,0.1-0.4,0.2-1,0.3c0,0-0.1,0-0.1,0
				c-0.3,0-0.2,0-0.2-0.3l0-0.8c0,0,0,0,0-0.1c0,0,0,0,0,0c0,0,0,0,0,0l0.7,0c0,0,0,0,0,0c0.1,0,0.2,0.1,0.2,0.1
				c0,0.1,0,0.2,0.2,0.2h0c0.1,0,0.1-0.1,0.1-0.1v0c0-0.1,0-0.2,0-0.4c0-0.1,0-0.3,0-0.5c0,0,0-0.1-0.1-0.1c0,0,0,0,0,0l0,0
				c-0.1,0-0.1,0.2-0.1,0.2c0,0.1-0.1,0.1-0.3,0.2l-0.5,0c0,0-0.1,0-0.1,0c0,0,0,0,0,0c0,0,0,0,0,0c0,0,0,0,0-0.1l0-0.8
				c0-0.1,0-0.1,0-0.1c0-0.1,0-0.1,0.4-0.1c0.1,0,0.2,0,0.4,0c0.2,0,0.3,0,0.4,0.1c0,0,0,0.1,0,0.2c0,0.1,0,0.2,0.1,0.2h0
				c0.1,0,0.1-0.1,0.1-0.4c0-0.1,0-0.1,0-0.2c0-0.1,0-0.1-0.1-0.2c0,0,0,0,0,0c-0.1,0-0.6,0-0.6,0.1c-0.2,0-0.4,0-1.3,0.1
				c-0.1,0-0.2,0-0.2,0.1c0,0,0,0,0,0c0,0.1,0.2,0.1,0.2,0.1c0.2,0,0.2,0.2,0.2,0.4l0.1,2.1c0,0,0,0.1,0,0.1c0,0.1,0,0.2-0.1,0.2
				c-0.1,0.1-0.2,0.1-0.2,0.2c0,0.1,0.1,0.1,0.1,0.1c0,0,0,0,0,0c0,0,0,0,0,0c0.2,0,0.4,0,0.6,0c0.3,0,0.7,0,1,0
				c0.2,0,0.3,0,0.5-0.2c0.1-0.1,0.2-0.3,0.2-0.5c0,0,0,0,0,0C30.5,13.5,30.5,13.4,30.4,13.4z"/>
			<path d="M38.6,12.8C38.6,12.8,38.6,12.8,38.6,12.8c-0.1,0-0.1,0-0.1,0c0,0-0.2-0.3-0.6-0.5c-0.2-0.1-0.4-0.1-0.5-0.1
				c-0.3,0-0.7,0.2-0.8,0.5c-0.1,0.1-0.1,0.2-0.1,0.4c0,0.8,1.2,1.1,1.2,1.7c0,0.1,0,0.1,0,0.2c-0.1,0.3-0.3,0.4-0.6,0.4
				c-0.1,0-0.3,0-0.4-0.1c-0.5-0.2-0.6-0.6-0.6-0.9c0,0,0-0.1,0-0.1c0,0,0-0.1,0-0.1c0,0,0-0.1-0.1-0.1c0,0,0,0,0,0
				c-0.1,0-0.1,0.1-0.1,0.2l-0.1,0.6c0,0,0,0,0,0c0,0.2,0.3,0.4,0.6,0.6c0.3,0.1,0.5,0.2,0.7,0.2c0,0,0,0,0,0c0.5,0,0.8-0.3,0.9-0.6
				c0.1-0.1,0.1-0.3,0.1-0.4c0-0.8-1.2-1.2-1.2-1.7c0,0,0-0.1,0-0.2c0.1-0.2,0.3-0.3,0.5-0.3c0.1,0,0.2,0,0.4,0.1
				c0.3,0.1,0.5,0.4,0.5,0.8c0,0,0,0,0,0.1c0,0,0,0,0,0.1c0,0,0,0.1,0.1,0.2c0,0,0,0,0.1,0c0.1,0,0.1-0.1,0.1-0.1l0.2-0.6
				c0,0,0,0,0-0.1C38.7,12.9,38.6,12.8,38.6,12.8z"/>
			<path d="M41.3,16.8l0.8-1.2c0.1-0.2,0.2-0.2,0.2-0.2c0,0,0.1,0,0.1,0c0,0,0.1,0,0.1-0.1c0,0,0,0,0-0.1c0,0,0-0.1-0.1-0.1
				c-0.1-0.1-0.2-0.1-0.2-0.1c-0.1-0.1-0.3-0.2-0.4-0.3c0,0,0,0-0.1,0c0,0-0.1,0-0.1,0c0,0,0,0,0,0.1c0,0.2,0.2,0.2,0.2,0.3
				c0,0,0,0.1-0.1,0.2L41,16.7c-0.2,0.3-0.5,0.5-0.8,0.5c-0.2,0-0.4-0.1-0.6-0.2c-0.3-0.2-0.5-0.5-0.5-0.8c0-0.2,0.1-0.4,0.2-0.6
				l0.9-1.3c0.1-0.1,0.1-0.1,0.1-0.1c0.1,0,0.1,0,0.2,0.1c0,0,0.1,0,0.1-0.1c0,0,0,0,0-0.1c0-0.1-0.1-0.1-0.1-0.2
				c-0.1-0.1-0.2-0.2-0.4-0.2c-0.1-0.1-0.2-0.1-0.3-0.2c0,0-0.1,0-0.1,0c0,0-0.1,0-0.1,0c0,0,0,0,0,0.1c0,0.2,0.2,0.2,0.2,0.3
				c0,0,0,0,0,0.1L39,15.2c-0.2,0.3-0.3,0.6-0.3,0.9c0,0.4,0.2,0.8,0.7,1.1c0.3,0.2,0.6,0.3,0.8,0.3C40.9,17.5,41.2,16.9,41.3,16.8z
				"/>
			<path d="M41.9,18.6l1.4-1.2c0,0,0,0,0,0l-0.4,2.9c0,0,0,0.1,0,0.1c0,0.1,0,0.1,0,0.2c0,0,0,0,0.1,0c0,0,0,0,0,0
				c0.1,0,0.1-0.1,0.2-0.1l2-1.7c0.1-0.1,0.1-0.1,0.2-0.1c0.1,0,0.1,0.1,0.2,0.1c0,0,0.1,0,0.1,0c0,0,0,0,0-0.1c0,0,0-0.1,0-0.1
				c-0.1-0.1-0.2-0.2-0.3-0.3c-0.1-0.1-0.2-0.2-0.3-0.3c0,0,0,0-0.1,0c0,0-0.1,0-0.1,0c0,0,0,0.1,0,0.1c0,0.1,0.1,0.2,0.1,0.4
				c0,0.1,0,0.2-0.2,0.3l-1.4,1.2l0.4-3.2c0,0,0-0.1,0-0.1c0,0,0-0.1,0-0.1c-0.1-0.1-0.1-0.1-0.2-0.1c0,0-0.1-0.1-0.1-0.2
				c0,0-0.1,0-0.1,0c0,0,0,0-0.1,0c0,0,0,0.1,0,0.1c0,0.1,0.1,0.2,0.1,0.3c0,0.1-0.1,0.3-0.3,0.5l-1.3,1.1c-0.2,0.1-0.3,0.2-0.3,0.2
				c-0.1,0-0.2-0.1-0.3-0.1c0,0-0.1,0-0.1,0c0,0,0,0,0,0.1c0,0,0,0.1,0,0.1c0,0,0.2,0.2,0.3,0.3c0.1,0.2,0.2,0.3,0.3,0.4
				c0,0,0.1,0,0.1,0c0,0,0.1,0,0.1,0c0,0,0-0.1,0-0.1c0-0.1-0.1-0.2-0.1-0.3C41.8,18.7,41.8,18.7,41.9,18.6z"/>
			<path d="M44.8,22.5l2-1.1c0.1,0,0.1-0.1,0.1-0.1c0,0,0,0,0.1,0.1l0.3,0.6c0,0.1,0.1,0.1,0.1,0.2c0,0.1-0.1,0.1-0.2,0.3
				c0,0,0,0,0,0.1c0,0,0.1,0.1,0.1,0.1c0.1,0,0.1,0,0.1,0l0.3-0.2c0.1,0,0.1-0.1,0.1-0.1c0,0,0-0.1,0-0.1c0-0.1-0.3-0.4-0.7-1.2
				c-0.3-0.5-0.4-0.8-0.6-1.1c0,0-0.1-0.1-0.1-0.1c-0.1,0-0.1,0-0.2,0.1l-0.4,0.2c0,0-0.1,0.1-0.1,0.1c0,0,0,0,0,0
				c0,0,0.1,0.1,0.1,0.1c0,0,0.1,0,0.1,0c0.1,0,0.2,0,0.2,0c0.1,0,0.1,0,0.2,0.2l0.3,0.6c0,0-0.1,0.1-0.1,0.1l0,0l-2.1,1.1
				c0,0-0.1,0-0.1,0c-0.1,0-0.2-0.2-0.3-0.2c0,0,0,0-0.1,0c0,0-0.1,0-0.1,0.1c0,0,0,0,0,0.1c0,0,0.1,0.1,0.3,0.5
				c0.1,0.1,0.1,0.2,0.2,0.3c0,0,0.1,0.1,0.1,0.1c0,0,0,0,0,0c0,0,0.1,0,0.1,0c0,0,0.1-0.1,0.1-0.1c0-0.1,0-0.2,0-0.2
				C44.6,22.6,44.6,22.6,44.8,22.5z"/>
			<path d="M49.6,30.9L49.6,30.9c0-0.1,0-0.1,0-0.4c0,0,0,0,0,0c0-0.1,0-0.1,0-0.2c0,0,0,0,0,0c0-0.1,0-0.1-0.1-0.1c0,0,0,0,0,0
				c-0.1,0-0.1,0.1-0.1,0.2c0,0.1,0,0.1-0.1,0.1c0,0,0,0-0.1,0c-0.1,0-0.2,0-0.2-0.1l-2-0.7c0,0-0.1,0-0.1,0c0,0,0.1-0.1,0.3-0.1
				l1.8-0.9c0,0,0.1,0,0.2,0h0c0,0,0.1,0,0.1,0.1c0,0,0,0.1,0.1,0.1h0c0.1,0,0.1-0.1,0.1-0.1v0c0-0.1,0-0.2,0-0.4c0,0,0-0.1,0-0.1
				c0-0.1,0-0.2,0-0.2c0,0,0-0.1,0-0.1c0-0.1-0.1-0.1-0.1-0.1c0,0,0,0,0,0c-0.1,0-0.1,0.1-0.1,0.2c0,0.1,0,0.1-0.2,0.2h0l-2.6,1.2
				c-0.1,0.1-0.3,0.1-0.3,0.2c0,0,0,0,0,0l0,0c0.1,0.1,0.2,0.1,0.3,0.2l2.7,1c0.1,0.1,0.2,0.1,0.2,0.1c0,0,0,0.1,0.1,0.1h0
				C49.6,31.1,49.6,31,49.6,30.9z"/>
			<path d="M48.8,33.9C48.8,33.9,48.8,33.9,48.8,33.9c-0.1,0-0.2,0-0.2,0c0,0-0.1,0-0.1,0.1c0,0,0,0,0,0c0,0.1,0.1,0.1,0.6,0.2
				c0,0,0,0,0.1,0c0,0,0,0,0,0c0,0,0.1,0,0.1-0.1c0-0.1,0.1-0.6,0.1-0.6c0-0.2,0.1-0.4,0.2-1.3c0,0,0-0.1,0-0.1c0-0.1,0-0.1-0.1-0.1
				c0,0,0,0,0,0c0,0,0,0,0,0c-0.1,0-0.1,0.1-0.1,0.2c0,0.1-0.1,0.2-0.2,0.2c-0.1,0-0.1,0-0.2,0L46.8,32c-0.2,0-0.3-0.1-0.3-0.1
				c-0.1-0.1,0-0.2-0.1-0.3c0,0,0,0,0,0c-0.1,0-0.1,0.1-0.1,0.1c0,0.2,0,0.4-0.1,0.6c0,0.3-0.1,0.7-0.2,1c0,0.1,0,0.1,0,0.2
				c0,0.1,0,0.2,0.1,0.3c0.1,0.1,0.2,0.3,0.4,0.3c0,0,0,0,0,0c0,0,0.1,0,0.1-0.1l0,0l0,0c0-0.1-0.1-0.1-0.1-0.2
				c-0.1-0.1-0.1-0.3-0.1-0.6c0-0.1,0-0.3,0-0.4c0-0.3,0.1-0.3,0.1-0.3c0,0,0.1,0,0.2,0l0.8,0.1c0.1,0,0.1,0,0.1,0c0,0,0,0,0,0
				l-0.1,0.7c0,0.2-0.1,0.2-0.2,0.2c0,0,0,0-0.1,0c-0.1,0-0.2,0-0.2,0.1c0,0,0,0,0,0c0,0.1,0.1,0.1,0.1,0.1c0.1,0,0.2,0,0.4,0
				c0.1,0,0.3,0.1,0.5,0.1c0,0,0,0,0,0c0,0,0.1,0,0.1-0.1l0,0l0,0l0,0c0-0.1-0.1-0.1-0.2-0.1c-0.1,0-0.1-0.1-0.1-0.2
				c0,0,0-0.1,0-0.1l0.1-0.5c0-0.1,0-0.1,0-0.1c0,0,0,0,0.1,0l0.8,0.1c0.2,0,0.2,0,0.2,0.1c0,0.1,0,0.2,0,0.3
				C49,33.4,48.9,33.9,48.8,33.9z"/>
			<path d="M48.5,36.6c0.1-0.2,0.2-0.5,0.2-0.7c0.1-0.2,0.1-0.2,0.1-0.3c0,0,0,0,0-0.1c0,0,0-0.1-0.1-0.1c0,0,0,0,0,0
				c-0.1,0-0.1,0.1-0.2,0.2c0,0.1-0.1,0.1-0.2,0.1c0,0-0.1,0-0.1,0l-2.2-0.8c-0.1-0.1-0.2-0.1-0.2-0.2c0-0.1,0-0.2-0.1-0.2
				c0,0,0,0,0,0c0,0-0.1,0-0.1,0.1c-0.1,0.2-0.1,0.3-0.2,0.5c-0.1,0.4-0.2,0.4-0.2,0.5c0,0,0,0,0,0.1c0,0,0,0.1,0.1,0.1c0,0,0,0,0,0
				c0.1,0,0.1-0.1,0.2-0.2c0.1-0.1,0.1-0.1,0.2-0.1c0,0,0.1,0,0.1,0l0.9,0.3c0.1,0,0.1,0,0.1,0c0,0,0,0,0,0.1
				c-0.2,0.5-0.1,0.4-0.4,0.4l-0.9,0.2c-0.3,0.1-0.6,0.2-0.7,0.5c0,0-0.1,0.2-0.1,0.3c0,0,0,0.1,0.1,0.1c0,0,0,0,0,0
				c0.2-0.1,0-0.2,0.6-0.4l1.3-0.3c0,0.3,0.2,0.7,0.6,0.8c0.1,0,0.2,0.1,0.3,0.1C48.3,37.4,48.5,36.6,48.5,36.6z M47,36.4
				c0-0.1,0-0.2,0-0.2c0-0.1,0.1-0.2,0.1-0.3c0,0,0-0.1,0-0.1c0,0,0,0,0,0l1.1,0.4c0.1,0,0.1,0,0.1,0.1c0,0,0,0.1,0,0.2
				c-0.1,0.3-0.3,0.6-0.7,0.6c-0.1,0-0.2,0-0.3,0C47.1,36.8,47,36.6,47,36.4z"/>
			<path d="M44.8,37.9c0-0.1-0.1-0.1-0.1-0.2c0-0.1,0-0.1,0-0.2c0,0,0-0.1,0-0.1c0,0,0,0-0.1,0c0,0-0.1,0-0.1,0.1
				c-0.1,0.1-0.1,0.2-0.2,0.3c-0.1,0.1-0.2,0.2-0.2,0.3c0,0-0.1,0.1-0.1,0.1c0,0,0,0.1,0.1,0.1c0,0,0,0,0.1,0c0.2,0,0.2-0.2,0.3-0.2
				c0,0,0.1,0,0.1,0c0,0,0.1,0.1,0.1,0.1l0.4,0.6c0,0,0,0,0,0c0,0,0,0.1-0.1,0.1l-0.5,0.8c0,0.1-0.1,0.1-0.1,0.1c0,0-0.1,0-0.1,0
				l-0.4-0.1v0c-0.1,0-0.4-0.1-0.4-0.1c0,0,0,0,0-0.1c0,0,0-0.1,0-0.2c0,0,0-0.1-0.1-0.1c0,0,0,0-0.1,0c-0.1,0-0.1,0.1-0.1,0.1
				c-0.1,0.1-0.1,0.2-0.2,0.3c-0.1,0.2-0.2,0.3-0.3,0.5c0,0,0,0,0,0.1c0,0,0,0.1,0.1,0.1c0,0,0,0,0.1,0c0.2,0,0.2-0.2,0.4-0.2
				c0,0,0,0,0,0c0.2,0,0.4,0.1,0.5,0.1l2.5,0.5c0,0,0.1,0,0.2,0c0,0,0.1,0,0.1,0c0,0,0,0,0-0.1c0-0.1-0.1-0.2-0.4-0.6L44.8,37.9z
				 M44.8,40C44.8,40,44.8,40,44.8,40C44.8,40,44.8,40,44.8,40l0.5-0.8l0.6,1L44.8,40z"/>
		</g>
		<path class="st0" d="M20.2,21.3l2.5,1.8v-1.5l0.2,0c0,0,0.3,0.1,0.6,0.1l-1.4-2.3l2.2,2.4c0.4,0.1,0.9,0.1,1.3,0.1
			c0,0,0.1,0,0.1,0l-1.5-3.8l2.3,3.8c0.2,0,0.4-0.1,0.6-0.1c0.1,0,0.2,0,0.2-0.1l-0.8-4.5l1.6,4.4c0.1,0,0.2,0,0.2,0
			c0.2,0,0.4,0,0.6,0l0.1-4.8l0.9,5c0.2,0.1,0.3,0.1,0.4,0.2c0.1,0,0.1-0.1,0.2-0.1l1.1-5l-0.1,4.8c0.2,0,0.5,0,0.8,0
			c0,0,0.1,0,0.1,0l1.8-4.2l-0.9,4.3c0.1,0,0.3,0.1,0.4,0.1c0.2,0.1,0.3,0.1,0.5,0.1l2.4-3.5l-1.5,3.6c0.1,0,0.1,0,0.2,0
			c0.5,0,1,0,1.4-0.1l2.1-2.1l-1.3,2c0.1,0,0.1,0,0.2,0l0.2,0v1.8l2.8-1.9l-2.8,2.8v1.2l4.2-1.8l-4.2,2.9v0.6l5.2-1.2l-5.2,2.3v0.4
			l5.8-0.2l-5.8,1.3v0.3l5.9,0.9l-5.9,0.2v0.4l5.5,2l-5.5-0.9v0.5l4.6,2.8l-4.6-1.7v1l3.3,2.9l-3.3-2v0.3l-0.1,0
			c-0.2,0-0.4,0.1-0.7,0.1c-0.4,0.1-0.9,0.1-1.4,0.2c-0.1,0-0.3,0-0.4,0c-0.1,0-0.2,0-0.4,0c-0.4,0-0.9-0.1-1.2-0.2
			c-0.1,0-0.2,0-0.2-0.1c0,0-0.1,0-0.2,0c-0.3-0.1-0.6-0.1-1-0.1c-0.7,0-1.5,0.1-1.8,0.4L30.4,37L30.4,37c-0.4-0.3-1.1-0.4-1.7-0.4
			c-0.5,0-1,0.1-1.3,0.2c-0.1,0-0.3,0.1-0.4,0.1c-0.1,0-0.2,0-0.3,0.1c-0.2,0-0.5,0-0.8,0c-0.2,0-0.4,0-0.5,0c-0.1,0-0.2,0-0.3,0
			c-0.4,0-0.9-0.1-1.2-0.2c-0.5-0.1-0.9-0.2-0.9-0.2l-0.1,0v-0.2L19.1,38l3.6-3v-0.8l-4.8,1.6l4.8-2.7v-0.5l-5.6,0.7l5.6-1.8v-0.3
			l-5.9-0.4l5.9-0.7v-0.3l-5.8-1.5l5.8,0.4v-0.4l-5.1-2.4l5.1,1.3v-0.7l-4-3l4,1.9V24L20.2,21.3z M28.6,21.9c-0.5,0-1,0.1-1.3,0.2
			c-0.5,0.2-1.1,0.2-1.7,0.2c-1.2,0-2.3-0.3-2.7-0.4v14.3c0.1,0,0.4,0.1,0.8,0.2c0.5,0.1,1.3,0.2,2,0.2c0.5,0,1-0.1,1.5-0.2
			c0.4-0.1,0.9-0.2,1.4-0.2c0.6,0,1.3,0.1,1.7,0.3V22.3C29.9,22,29.2,21.9,28.6,21.9z M35.4,22.3c-0.6,0-1.1-0.1-1.6-0.2
			c-0.3-0.1-0.8-0.2-1.3-0.2c-0.7,0-1.5,0.1-1.8,0.4v14.3c0.5-0.2,1.1-0.3,1.7-0.3c0.6,0,1.1,0.1,1.5,0.2c0.5,0.2,1,0.2,1.5,0.2
			c0.9,0,1.7-0.1,2.3-0.3V22.1C37,22.2,36.2,22.3,35.4,22.3z M28.7,24.6c0,0-0.1,0-0.1,0c-0.4,0-0.5,0.3-0.6,0.6c0,0.1,0,0.2,0,0.2
			c0,0.3,0.2,0.5,0.4,0.5c0,0,0.1,0,0.1,0c0,0,0,0,0,0c0.3,0,0.5-0.2,0.6-0.6c0-0.1,0-0.1,0-0.2C29.1,24.9,29,24.7,28.7,24.6z
			 M28.3,25.2c0,0.2-0.1,0.4,0.1,0.5c0.1,0,0.3-0.1,0.3-0.4c0-0.2,0.1-0.4-0.1-0.5C28.6,24.8,28.4,25,28.3,25.2L28.3,25.2z
			 M26.2,32.6C26.2,32.6,26.2,32.6,26.2,32.6C26.2,32.6,26.2,32.6,26.2,32.6c-0.4,0-0.5,0.4-0.5,0.7c0,0.1-0.1,1-0.1,1.1
			c0,0,0,0,0,0c0,0,0,0,0,0l0,0c0,0,0,0,0,0l0,0c0,0,0,0.1,0.1,0.1c0,0,0,0,0,0c0.1,0,0.1-0.1,0.1-0.1l0.1-0.6c0,0,0.1,0,0.1,0.1
			l0,0h0c0.3,0,0.5-0.2,0.5-0.6c0,0,0-0.1,0-0.1C26.6,33,26.5,32.6,26.2,32.6z M26,33.3c0,0.2,0,0.4,0.1,0.4c0.1,0,0.2-0.1,0.2-0.4
			c0-0.2,0-0.5-0.1-0.5C26.1,32.9,26,33.1,26,33.3L26,33.3z M24.6,24.3c0-0.1,0-0.1-0.1-0.1c0,0-0.1-0.1-0.2-0.1
			c-0.1,0-0.3,0.1-0.3,0.3h0c0,0,0,0,0,0.1c0,0.1,0,0.3,0.2,0.4l0.1,0l-0.1-0.1l0,0c0,0,0-0.1,0-0.1c0,0,0,0,0,0v0l0,0
			c0,0,0.1,0,0.2-0.1C24.6,24.4,24.6,24.4,24.6,24.3z M24.2,24.4L24.2,24.4L24.2,24.4L24.2,24.4z M24.3,24.9c0,0-0.1,0-0.1,0
			c-0.4,0-0.5,0.3-0.6,0.6l0,0c0,0.1,0,0.2,0,0.2c0,0.3,0.2,0.5,0.4,0.5c0,0,0.1,0,0.1,0c0,0,0,0,0,0c0.3,0,0.5-0.2,0.6-0.6
			c0-0.1,0-0.1,0-0.2C24.6,25.3,24.5,25,24.3,24.9z M23.9,25.5c0,0.2-0.1,0.4,0.1,0.4c0.1,0,0.3-0.1,0.3-0.3c0-0.2,0.1-0.4-0.1-0.5
			C24.1,25.2,23.9,25.3,23.9,25.5L23.9,25.5z M26.9,24.2c0,0-0.1-0.1-0.1-0.1c-0.2,0-0.4,0.3-0.4,0.5l0,0.1l0.1,0
			c0.3,0,0.5-0.1,0.6-0.3C27,24.4,27,24.3,26.9,24.2z M26.6,24.9c0,0-0.1,0-0.1,0c-0.4,0-0.5,0.3-0.6,0.6l0,0c0,0.1,0,0.2,0,0.2
			c0,0.3,0.2,0.5,0.4,0.5c0,0,0.1,0,0.1,0c0,0,0,0,0,0c0.3,0,0.5-0.2,0.6-0.6c0-0.1,0-0.1,0-0.2C27,25.2,26.9,24.9,26.6,24.9z
			 M26.2,25.5c0,0.2-0.1,0.4,0.1,0.5c0.1,0,0.3-0.1,0.3-0.4c0-0.2,0.1-0.4-0.1-0.5C26.4,25.1,26.3,25.3,26.2,25.5L26.2,25.5z
			 M27.9,29c0-0.2-0.1-0.6-0.5-0.6c0,0-0.1,0-0.1,0c-0.4,0.1-0.5,0.4-0.5,0.7c0,0,0,0.1,0,0.1h0c0,0,0,0.3,0,0.6c0,0.1,0,0.3,0,0.4
			c0,0,0,0.1,0,0.1c0,0,0,0,0,0c0,0,0,0,0,0c0,0,0,0,0,0c0,0,0,0,0,0l0,0c0,0,0.1,0,0.1,0c0,0,0,0,0,0c0.1,0,0.2-0.1,0.2-0.1l0,0
			l0-0.6c0,0,0.1,0,0.2,0c0,0,0,0,0,0C27.7,29.6,27.9,29.4,27.9,29C27.9,29,27.9,29,27.9,29z M26.9,29.2L26.9,29.2L26.9,29.2
			L26.9,29.2z M27.2,29.1c0,0.2,0,0.4,0.2,0.4c0.1,0,0.2-0.2,0.2-0.4c0-0.2-0.1-0.5-0.2-0.5C27.2,28.6,27.1,28.9,27.2,29.1
			L27.2,29.1z M25.7,31.9L25.7,31.9c0,0-0.1-0.1-0.1-0.1c-0.2,0-0.3,0.3-0.4,0.5l0,0.1l0.1,0c0.2,0,0.5-0.1,0.5-0.3
			C25.7,32,25.7,32,25.7,31.9z M25.5,33.7L25.5,33.7c-0.1,0-0.1,0-0.1,0l0,0c0,0,0-0.1,0-0.1l0.2-0.8l0,0c0,0-0.1,0-0.1,0
			c-0.1,0-0.1,0-0.2,0.1c0,0,0,0-0.1,0c-0.1,0-0.1,0-0.2,0.1c-0.2,0.1-0.3,0.4-0.4,0.6c0,0,0,0.1,0,0.1c0,0.2,0,0.3,0.2,0.4
			c0,0,0.1,0,0.1,0c0.1,0,0.2-0.1,0.2-0.1c0,0.1,0,0.1,0.1,0.1c0.1,0,0.2,0,0.3-0.1l0,0v0L25.5,33.7L25.5,33.7z M24.9,33.4
			c0,0.1-0.1,0.4,0.1,0.3c0.2,0,0.3-0.2,0.3-0.7C25,33,24.9,33.2,24.9,33.4L24.9,33.4z M28.8,32.3c0,0-0.1,0-0.1,0
			c-0.4,0-0.5,0.3-0.5,0.5c0,0.1,0,0.2,0,0.2c0,0.3,0.1,0.5,0.3,0.5c0,0,0.1,0,0.1,0c0,0,0,0,0,0c0.3,0,0.5-0.2,0.5-0.6
			c0-0.1,0-0.1,0-0.2C29.1,32.6,29,32.4,28.8,32.3z M28.4,32.9c0,0.2-0.1,0.4,0.1,0.4c0.1,0,0.3-0.1,0.3-0.3c0-0.2,0.1-0.4-0.1-0.5
			C28.6,32.6,28.4,32.7,28.4,32.9L28.4,32.9z M25.7,24.6L25.7,24.6c0,0-0.1-0.1-0.2-0.1c-0.1,0-0.1,0.1-0.1,0.1l0.1,0.4
			c0,0.1-0.3,0.8-0.6,1l0,0l0,0c0.1,0.1,0.1,0.1,0.2,0.1c0.1,0,0.2-0.1,0.2-0.1c0,0,0.1-0.3,0.3-0.6c0,0.1,0,0.3,0,0.4
			c0,0.1,0,0.1,0,0.1c0,0.1,0.1,0.1,0.1,0.1c0.1,0,0.2-0.1,0.2-0.1l0,0L25.7,24.6z M28,24.9L28,24.9L28,24.9c0-0.1-0.1-0.1-0.2-0.1
			c0,0-0.1,0-0.1,0l0,0l0,0c0,0-0.1,0.3-0.2,0.6c-0.1-0.3-0.1-0.5-0.1-0.5c0,0-0.1-0.2-0.2-0.2c-0.1,0-0.1,0-0.2,0.1l0,0l0,0
			c0.2,0.3,0.3,0.9,0.3,1c0,0,0,0.1,0,0.1c0,0.1-0.2,0.2-0.2,0.3l0,0l0,0c0,0,0.1,0.1,0.2,0.1c0,0,0,0,0,0c0,0,0.1,0,0.2-0.1l0,0
			c0.1-0.1,0.2-0.2,0.2-0.2c0,0,0,0,0,0c0,0,0,0,0,0l0,0c0,0,0,0,0,0c0,0,0,0,0,0l0,0c-0.1,0,0,0-0.1,0c0,0,0,0,0,0
			C27.7,25.6,28,24.9,28,24.9z M24.8,28.7l-1.1,0l0,0c0,0-0.1,0.2-0.1,0.3c0,0,0,0.1,0.1,0.1c0,0,0.1,0,0.1,0l0.1,0
			c0,0.2,0,0.3-0.2,0.5c0,0-0.2,0.1-0.3,0.3c0,0,0,0.1,0,0.1c0.1,0.1,0.1,0.1,0.2,0.1c0.3,0,0.4-0.6,0.5-0.9l0.1,0
			c0,0.2-0.1,0.5-0.1,0.7c0,0.1,0.1,0.3,0.2,0.3v0c0.1,0,0.2-0.1,0.2-0.2c0-0.1-0.1-0.3-0.1-0.5c0,0,0,0,0-0.1c0-0.1,0-0.2,0-0.3
			c0,0,0.1,0,0.1,0c0.1,0,0.2,0,0.2-0.1c0,0,0,0,0,0c0,0,0-0.1,0-0.1C24.9,28.7,24.8,28.7,24.8,28.7z M23.8,29.6
			C23.8,29.6,23.8,29.6,23.8,29.6L23.8,29.6L23.8,29.6z M25.5,28.4L25.5,28.4c0,0-0.1-0.1-0.2-0.1c-0.1,0-0.1,0.1-0.1,0.1
			c0,0,0.1,0.4,0.1,0.4c0,0,0,0,0,0c0,0.1-0.3,0.8-0.6,1l0,0l0,0c0.1,0.1,0.1,0.1,0.2,0.1C25,30,25,30,25,30c0,0,0.1-0.3,0.3-0.6
			c0,0.1,0,0.3,0,0.4c0,0.1,0,0.1,0,0.1c0,0.1,0.1,0.1,0.1,0.1c0.1,0,0.2-0.1,0.2-0.1l0,0L25.5,28.4z M26.5,28.5
			C26.5,28.5,26.5,28.5,26.5,28.5c-0.2,0-0.4,0.1-0.4,0.2l0-0.1c0,0-0.1-0.1-0.1-0.1c0,0-0.1,0-0.1,0.1l0,0v0c0,0,0,0.2,0,0.4
			c0,0.3,0,0.6,0,0.7c0.1,0.1,0.1,0.1,0.2,0.1c0.1,0,0.1-0.1,0.1-0.1c0-0.1,0-0.1,0-0.2c0-0.1,0-0.1,0-0.2c0-0.2,0-0.4,0.1-0.5
			c0,0,0,0,0,0c0,0,0,0,0,0.1c0,0.1,0,0.2,0,0.3c0,0.3,0,0.6-0.1,0.9c0,0,0,0.2,0.1,0.2c0.1,0,0.1-0.1,0.2-0.2
			c0.1-0.2,0.1-0.6,0.1-0.9C26.7,28.9,26.7,28.6,26.5,28.5z M26.6,27.8c0-0.1,0-0.1-0.1-0.2c0,0-0.1,0-0.1,0c-0.2,0-0.3,0.4-0.3,0.6
			l0,0.1l0.1,0C26.3,28.1,26.6,28,26.6,27.8z M28.7,28.2C28.7,28.2,28.6,28.2,28.7,28.2c-0.2,0-0.4,0.1-0.4,0.2l0-0.1
			c0,0-0.1-0.1-0.1-0.1c0,0-0.1,0-0.1,0.1l0,0v0c0,0,0,0.5,0,0.8c0,0.1,0,0.2,0,0.3c0.1,0.1,0.1,0.1,0.2,0.2c0.1,0,0.1-0.1,0.1-0.1
			c0-0.3,0-0.8,0.2-0.9c0,0,0,0,0,0c0,0,0,0,0,0.1c0,0.1,0,0.1,0,0.2c0,0.3-0.1,0.7-0.1,0.9c0,0,0,0.2,0.1,0.2
			c0.1,0,0.1-0.1,0.2-0.2c0.1-0.2,0.1-0.6,0.2-1C28.8,28.6,28.8,28.3,28.7,28.2z M29.4,28.9L29.4,28.9c0-0.1,0-0.1,0.1-0.1
			c0,0,0.1,0,0.2,0c0,0,0,0,0,0l0,0l0,0c0.1,0,0.1-0.1,0.1-0.1c0-0.1-0.1-0.2-0.1-0.2l0,0l0,0c-0.1,0-0.6,0-0.6,0.4
			c0,0.3,0.4,0.4,0.4,0.5c0,0,0,0-0.1,0.1c-0.1,0-0.2,0-0.2,0l0,0l0,0c0,0,0,0.1-0.1,0.2c0,0.1,0,0.1,0.1,0.2
			c0.5-0.1,0.6-0.3,0.6-0.4l0,0l0,0C29.7,29.1,29.4,29,29.4,28.9z M24.4,33.7c-0.1,0-0.1,0-0.1,0.1c0-0.1-0.1-0.3-0.1-0.5
			c0,0,0,0,0,0c0.1-0.2,0.4-0.5,0.4-0.7c0,0,0-0.1-0.1-0.1c0,0,0,0-0.1,0c-0.1,0-0.2,0.2-0.3,0.3c0-0.1,0-0.3-0.2-0.4
			c0,0-0.1,0-0.1,0c-0.1,0-0.2,0-0.2,0.1l0.1,0c0,0,0,0,0,0c0,0,0,0,0,0c0.1,0,0.1,0.3,0.1,0.6c-0.1,0.2-0.5,0.6-0.6,0.8
			c0,0,0,0.1,0,0.1c0,0,0,0,0.1,0c0.2,0,0.2-0.2,0.4-0.4c0,0.2,0,0.5,0.2,0.5c0,0,0,0,0,0C24.3,34,24.5,33.9,24.4,33.7
			C24.5,33.8,24.5,33.7,24.4,33.7C24.4,33.7,24.4,33.7,24.4,33.7z M27.2,33.5C27.2,33.6,27.1,33.6,27.2,33.5c-0.1,0.1-0.1,0-0.1-0.1
			c0,0,0,0,0-0.1c0-0.2,0.1-0.8,0.1-0.8l0-0.1l-0.3,0l-0.1,0l0,0.1c0,0,0,0.1,0,0.1c0,0.2,0,0.5,0,0.7c0,0.1,0,0.2,0,0.2
			c0,0.1,0.1,0.2,0.2,0.2c0,0,0,0,0,0C27.1,33.8,27.3,33.7,27.2,33.5l0.1-0.1L27.2,33.5z M28.1,32.3L28.1,32.3L28.1,32.3
			c-0.2,0-0.7,0.1-0.7,0.1l0,0l0,0c0,0-0.1,0.1-0.1,0.1c0,0.1,0,0.1,0,0.1l0,0l0.2,0c0,0.3-0.1,0.9-0.1,0.9l0,0l0,0c0,0,0,0,0.1,0
			c0,0,0,0,0,0c0.1,0,0.2,0,0.2-0.2c0-0.1,0.1-0.7,0.1-0.8l0.2,0l0,0l0,0c0,0,0,0,0-0.1C28.2,32.4,28.1,32.4,28.1,32.3z M29.6,32.9
			L29.6,32.9c0-0.1,0-0.1,0.1-0.1c0,0,0.1,0,0.2,0l0,0l0,0l0,0c0.1,0,0.1-0.1,0.1-0.1c0-0.1-0.1-0.2-0.1-0.2l0,0l0,0
			c-0.1,0-0.6,0-0.6,0.4c0,0,0,0,0,0c0,0.3,0.4,0.4,0.4,0.5c0,0,0,0,0,0c0,0,0,0-0.1,0.1c-0.1,0-0.2,0-0.2,0l0,0l0,0
			c0,0,0,0.1-0.1,0.2c0,0.1,0,0.1,0.1,0.2c0.5-0.1,0.6-0.3,0.6-0.4l0,0v0C29.9,33.1,29.6,32.9,29.6,32.9z M29.5,25.2L29.5,25.2
			c0-0.1,0-0.1,0.1-0.1c0,0,0.1,0,0.2,0h0l0,0l0,0c0.1,0,0.1-0.1,0.1-0.1c0-0.1-0.1-0.2-0.1-0.2l0,0l0,0c-0.1,0-0.6,0-0.6,0.4
			c0,0,0,0,0,0c0,0.3,0.4,0.4,0.4,0.5c0,0,0,0,0,0c0,0,0,0-0.1,0.1c-0.1,0-0.2,0-0.2,0l0,0l0,0c0,0,0,0.1-0.1,0.2
			c0,0.1,0,0.1,0.1,0.2c0.5-0.1,0.6-0.3,0.6-0.4l0,0l0,0C29.9,25.4,29.5,25.2,29.5,25.2z M32.7,24.8C32.7,24.8,32.7,24.8,32.7,24.8
			c0-0.1,0-0.1-0.1-0.1c-0.1,0-0.4,0.2-0.6,0.4c0-0.1,0.1-0.2,0.1-0.2c0-0.1,0-0.1-0.1-0.2c0,0,0,0,0,0c-0.3,0-0.5,1.2-0.5,1.3l0,0
			l0,0c0,0,0.1,0,0.1,0c0,0,0,0,0,0c0.1,0,0.1-0.1,0.1-0.1c0,0,0.1-0.1,0.1-0.3c0-0.1,0-0.1,0.1-0.2c0,0,0,0,0,0
			c0.1,0.1,0.2,0.3,0.2,0.4l0,0l0,0c0,0,0.1,0,0.1,0c0.1,0,0.2-0.1,0.2-0.1l0,0l0,0c-0.1-0.3-0.2-0.5-0.2-0.5l0,0
			C32.2,25.3,32.7,25.1,32.7,24.8z M33.3,28.4L33.3,28.4c0,0-0.1-0.1-0.2-0.1c-0.1,0-0.1,0.1-0.1,0.1c0,0,0.1,0.4,0.1,0.4
			c0,0.1-0.3,0.7-0.6,1l0,0l0,0c0.1,0.1,0.1,0.1,0.2,0.1c0,0,0,0,0,0c0.1,0,0.2-0.1,0.2-0.1c0,0,0.1-0.3,0.3-0.6c0,0.1,0,0.3,0,0.4
			c0,0.1,0,0.1,0,0.1c0,0.1,0.1,0.1,0.1,0.1c0.1,0,0.2-0.1,0.2-0.1l0,0L33.3,28.4z M34.6,28.7c0,0-0.1,0-0.1,0
			c-0.1,0-0.3,0.1-0.4,0.2l0-0.1l0,0l0,0c0,0-0.1-0.1-0.1-0.1c0,0-0.1,0-0.1,0.1l0,0l0,0c0,0-0.2,0.8-0.2,1l0,0l0,0
			c0,0.1,0.1,0.1,0.2,0.1c0.1,0,0.1-0.1,0.2-0.1c0.1-0.3,0.1-0.8,0.3-0.8h0c0,0,0.1,0,0.1,0.1c0,0.2-0.2,0.7-0.3,1.1c0,0,0,0,0,0.1
			c0,0,0,0.1,0.1,0.1c0.1,0,0.1,0,0.2-0.1c0.2-0.3,0.4-1,0.4-1.4C34.7,28.9,34.7,28.8,34.6,28.7z M35.4,29.5L35.4,29.5L35.4,29.5
			c-0.2,0-0.2,0-0.2,0c0,0-0.1,0-0.3-0.1l-0.1,0l0,0.2l0,0l0,0c0.1,0,0.2,0.1,0.3,0.1c0.1,0,0.1,0,0.3,0l0,0L35.4,29.5z M34.5,24.8
			L34.5,24.8L34.5,24.8c0-0.2-0.1-0.6-0.3-0.6c0,0-0.1,0-0.1,0.1l0,0C34,24.3,34,24.4,34,24.4C34,24.6,34.2,24.7,34.5,24.8z
			 M34.1,24.3L34.1,24.3L34.1,24.3L34.1,24.3z M34.1,25L34.1,25C34.1,25.1,34.1,25.1,34.1,25c0,0.3-0.2,0.8-0.2,1c0,0,0,0.1,0,0.1
			c0,0.1,0.1,0.2,0.3,0.2c0,0,0,0,0,0c0.1,0,0.3-0.1,0.3-0.3l0-0.1L34.4,26C34.3,26,34.3,26,34.3,26c0,0,0,0,0,0c0,0,0,0,0,0
			c0-0.2,0.2-0.9,0.2-0.9l0-0.1L34.1,25L34.1,25z M33.6,32.5c-0.1,0-0.1,0-0.2,0c-0.3,0-0.6,0.2-0.7,0.6c0,0.1,0,0.2,0,0.2
			c0,0.3,0.3,0.5,0.6,0.5c0,0,0,0,0,0h0l0.1-0.2l0-0.1h-0.1c0,0,0,0,0,0c-0.1,0-0.3,0-0.3-0.2c0,0,0,0,0,0c0,0,0.1,0,0.1,0
			c0.1,0,0.3,0,0.3-0.2l0-0.1l-0.4,0c0.1-0.2,0.4-0.3,0.4-0.3l0,0l0,0l0,0c0,0,0-0.1,0-0.1C33.6,32.6,33.6,32.5,33.6,32.5z
			 M33.8,32.7L33.8,32.7C33.9,32.8,33.9,32.8,33.8,32.7c0,0.3-0.2,0.7-0.2,1c0,0,0,0.1,0,0.1c0,0.1,0.1,0.2,0.3,0.2c0,0,0,0,0,0
			c0.1,0,0.3-0.1,0.3-0.3l0-0.1l-0.1,0.1c-0.1,0.1-0.1,0.1-0.1,0.1c0,0,0,0,0,0c0,0,0,0,0,0c0-0.2,0.2-0.8,0.2-0.8l0-0.1L33.8,32.7
			L33.8,32.7z M34.4,32c0-0.1-0.1-0.1-0.1-0.1c-0.2,0-0.4,0.3-0.5,0.4l0,0.1l0.1,0c0,0,0.1,0,0.1,0c0.2,0,0.5-0.1,0.5-0.2
			C34.5,32.1,34.4,32.1,34.4,32z M36.3,33.5L36.3,33.5c0-0.2-0.3-0.4-0.4-0.5l0,0c0-0.1,0-0.1,0.1-0.1c0,0,0.1,0,0.2,0l0,0l0,0l0,0
			c0.1,0,0.1-0.1,0.1-0.1c0-0.1-0.1-0.2-0.1-0.2l0,0l0,0c-0.1,0-0.6,0-0.6,0.4v0c0,0,0,0,0,0c0,0.3,0.4,0.4,0.4,0.5c0,0,0,0,0,0
			c0,0,0,0-0.1,0.1c-0.1,0-0.2,0-0.2,0l0,0l0,0c0,0-0.1,0.1-0.1,0.2c0,0.1,0,0.1,0.1,0.2C36.2,33.9,36.3,33.7,36.3,33.5L36.3,33.5
			L36.3,33.5C36.3,33.5,36.3,33.5,36.3,33.5z M35.3,33.7L35.3,33.7c0,0,0-0.1,0-0.1l0.2-0.8l0,0c0,0-0.1,0-0.1,0
			c-0.1,0-0.1,0-0.2,0.1c0,0,0,0-0.1,0c-0.1,0-0.1,0-0.2,0.1c-0.2,0.1-0.4,0.4-0.4,0.6c0,0,0,0.1,0,0.1c0,0.2,0,0.3,0.2,0.4
			c0,0,0.1,0,0.1,0c0.1,0,0.2-0.1,0.2-0.1c0,0.1,0,0.1,0.1,0.1c0.1,0,0.2,0,0.3-0.1l0,0v0v-0.1v-0.1L35.3,33.7
			C35.3,33.7,35.3,33.7,35.3,33.7z M34.7,33.4c0,0.1-0.1,0.4,0.1,0.3c0.2,0,0.3-0.2,0.4-0.7C34.9,33,34.7,33.2,34.7,33.4L34.7,33.4z
			 M33.5,25.9L33.5,25.9c0,0,0-0.1,0-0.1l0.2-0.8l0,0c0,0-0.1,0-0.1,0c-0.1,0-0.1,0-0.2,0.1c0,0,0,0-0.1,0c-0.1,0-0.1,0-0.2,0.1
			c-0.2,0.1-0.4,0.4-0.4,0.6c0,0,0,0.1,0,0.1c0,0.2,0,0.3,0.2,0.4c0,0,0.1,0,0.1,0c0.1,0,0.2-0.1,0.2-0.1c0,0.1,0,0.1,0.1,0.1
			c0.1,0,0.2,0,0.3-0.1l0,0v0v-0.1v-0.1L33.5,25.9C33.6,25.9,33.5,25.9,33.5,25.9z M33,25.5c0,0.1-0.1,0.4,0.1,0.3
			c0.2,0,0.3-0.2,0.4-0.7C33.2,25.2,33,25.3,33,25.5L33,25.5z M32.5,28.1C32.5,28,32.5,28,32.5,28.1c0-0.2-0.1-0.3-0.2-0.3
			c0,0-0.1,0-0.1,0c-0.1,0-0.1,0.1-0.1,0.2c0,0,0,0.1,0,0.1c0,0.1,0.1,0.1,0.1,0.1c0,0-0.1,0.1-0.1,0.2l0,0.1l0.1,0c0,0,0,0,0,0
			C32.4,28.4,32.5,28.1,32.5,28.1L32.5,28.1z M32.2,29.6L32.2,29.6c0,0,0-0.1,0-0.1l0.2-0.8l0,0c0,0-0.1,0-0.1,0
			c-0.1,0-0.1,0-0.2,0.1c0,0,0,0-0.1,0c-0.1,0-0.1,0-0.2,0.1c-0.2,0.1-0.4,0.4-0.4,0.6c0,0,0,0.1,0,0.1c0,0.2,0,0.3,0.2,0.4
			c0,0,0.1,0,0.1,0c0.1,0,0.2-0.1,0.2-0.1c0,0.1,0,0.1,0.1,0.1c0.1,0,0.2,0,0.3-0.1l0,0v0v-0.1v-0.1L32.2,29.6
			C32.3,29.6,32.2,29.6,32.2,29.6z M31.7,29.2c0,0.1-0.1,0.4,0.1,0.3c0.2,0,0.3-0.2,0.4-0.7C31.9,28.9,31.7,29.1,31.7,29.2
			L31.7,29.2z M32.2,31.6C32.2,31.6,32.2,31.6,32.2,31.6c-0.6,0-0.8,0.6-0.9,1.2c0,0.1,0,0.2,0,0.2c0,0.4,0.2,0.7,0.5,0.7
			c0,0,0,0,0,0c0.5,0,0.7-0.3,0.8-1c0-0.2,0.1-0.3,0.1-0.5C32.7,32,32.5,31.6,32.2,31.6z M31.8,32.6c0.1,0,0.6,0,0.6,0
			s0.2-0.7-0.2-0.7C32,31.9,31.8,32.1,31.8,32.6L31.8,32.6z M32.2,32.8c-0.1,0-0.6,0-0.6,0s-0.2,0.7,0.2,0.7
			C32,33.5,32.1,33.3,32.2,32.8L32.2,32.8z"/>
	</g>
</g>
</svg>
