<?xml version="1.0" encoding="utf-8"?>
<!-- Generator: Adobe Illustrator 19.0.0, SVG Export Plug-In . SVG Version: 6.00 Build 0)  -->
<svg version="1.1" id="Layer_1" xmlns="http://www.w3.org/2000/svg" xmlns:xlink="http://www.w3.org/1999/xlink" x="0px" y="0px"
	 viewBox="61 153.7 1346.1 414.3" style="enable-background:new 61 153.7 1346.1 414.3;" xml:space="preserve">
<g>
	<g>
		<path d="M551.8,456.3c0,31.6,18,44.8,38.4,44.8c12.7,0,27.9-5.2,27.9-5.2l2.3,4.3c-5.5,5.4-20.7,17-39.8,17
			c-25.9,0-49.1-19.3-49.1-54.8c0-32.3,22.3-55.7,50-55.7c21.6,0,38.4,12.9,38.4,37.5c0,6.4-1.1,12-1.1,12h-67V456.3z M585.2,447.7
			c10.9-0.5,14.8-2.5,14.8-13.6c0-9.5-6.8-16.8-21.4-16.8c-15.2,0-26.8,13.4-26.8,31.6L585.2,447.7z"/>
		<path d="M390.7,498.4l4.4,5.5l14.7,5.1l-0.4,5.8h-51.6v-5.9l15-5.7v-51.6c0-20.9-4.1-28-16.4-28v-5.5l33.2-12h1.8
			c0,0-0.7,15.7-0.7,32V498.4z"/>
		<path d="M464.6,409.5v5.9l-15.2,5l25.2,68.9l26.1-68.4l-15.9-5.5v-5.9h40.4v6.4c-5.9,0-13.2,3-21.1,22.3L475.3,516h-10.9
			l-31.7-83.4c-5-12-10.7-16.6-18-16.6v-6.4h49.9V409.5z"/>
		<path d="M740.2,513.1c-1.6-0.7-5.7-2.9-5.9-7.7l-1.4-21.6h10c2.7,14.8,12.7,24.3,25.7,24.3c13.2,0,18.4-6.8,18.4-15.9
			c0-8.6-7-13.2-15.7-17.7l-11.6-5.9c-16.6-8.4-24.8-15.2-24.8-31.6c0-20.5,14.8-30.2,37.7-30.2c16.1,0,28.6,6.1,28.6,6.1l-3,26.6
			H789c0-16.6-6.8-22.7-20.7-22.7c-9.3,0-18,3.6-18,12.7c0,7.3,3,10.5,20.9,19.8l10.2,5.2c18.6,9.5,23.9,17.5,23.9,33
			c0,18.6-18.6,29.8-36.8,29.8C757,517.2,746.8,515.9,740.2,513.1z"/>
		<path d="M328.6,503.9l-4.3-5.5l0.2-57.5c0-26.6-17.3-34.1-35-34.1c-15,0-36.1,17.5-36.1,17.5c0-9.5,0.4-18.2,0.4-18.2H252
			l-33.2,12v5.5c12.7,0,16.1,11.4,16.1,31.8v47.7l-15,5.7v5.9h52.2l0.4-5.8l-14.7-5.1l-4.3-5.5v-65.2c0,0,8-10.7,22.3-10.7
			c14.8,0,30,5.2,30,30.5l-0.7,50.4l-14.5,5.5v5.9h52.2l0.4-5.8L328.6,503.9z"/>
		<path d="M716,408.2L716,408.2L716,408.2c-0.1,0-4-1.4-11.4-1.4c-15.9,0-32.5,25-32.5,25c0-13.9,0.5-25.7,0.5-25.7h-1.8l-32.5,12
			v5.5c12.3,0,16.1,11.1,16.1,30v49.5l-15,5.7v5.9h52.2v-5.8l-14.7-5.1l-4.3-5.5v-48.6c0-15,11.8-23.4,24.5-23.4
			c2.6,0,5.3,0.6,7.6,1.4l3.6,5.3l4.4,0.4L716,408.2L716,408.2L716,408.2z"/>
		<path d="M860.3,498.4l4.3,5.5l14.7,5.1l-0.4,5.8h-51.6v-5.9l15-5.7v-51.6c0-20.9-4.1-28-16.4-28v-5.5l33.2-12h1.8
			c0,0-0.7,15.7-0.7,32L860.3,498.4z"/>
		<path d="M193.1,464.2c0,39.3-28,52.3-54.8,52.3c-40.3,0-56.8-18.9-56.8-53.9v-66.2c0-19.3-5.2-23.6-20.5-24.3v-7.5h62.1v6.8
			L102,378v74.6c0,45,18.2,51.6,38.9,51.6c21.6,0,38-10,38-46.6V430v-52l-20.5-6.2v-7.2H213v8.1l-15.5,2.5l-4.3,5.4v29.2
			L193.1,464.2z"/>
		<path d="M920,410.4v-27l-13.2,2.3l-5.7,25.7l-18.6,1.8v8.9c10.2,0,18.6,0.9,18.6,10.7c0,9.8-0.9,40.5-0.9,52.7
			c0,23.2,8.9,31.8,23.6,31.8c12.7,0,23.2-5.2,32.7-12.9l-2.5-5.2c0,0-6.4,4.1-15.9,4.1c-10.2,0-19.5-5.7-19.3-19.8l0.9-59.5h51
			c1.6,2.3,3.1,5.1,4.6,8.6l30.4,82.3c-5.4,17.4-18.2,30.7-31.4,31.6c-11.4,0.8-17.5-0.7-17.5-0.7l2.7,22.3
			c27.3,1.6,45.1-18.9,59.9-57.5l26.5-72.3c7.3-19.3,15.7-22.3,21.6-22.3v-6.4h-42.3v5.9l15.9,5.5l-23.9,68.4l-26.1-68.9l15.2-5v-5
			L920,410.4z"/>
		<path d="M381.3,388.7c-2.6,0-14.2-12.8-14.2-15.3c0-2.4,11.4-15.5,14.2-15.5c3,0,14.2,13.1,14.2,15.5
			C395.5,375.7,383.9,388.7,381.3,388.7z"/>
		<path d="M850.9,388.7c-2.6,0-14.2-12.8-14.2-15.3c0-2.4,11.4-15.5,14.2-15.5c3,0,14.2,13.1,14.2,15.5
			C865.1,375.7,853.5,388.7,850.9,388.7z"/>
	</g>
	<g>
		<polygon points="66.2,164.9 66.2,170.9 81.2,187.7 81.2,303.2 61,308.9 61,315.6 115.8,315.6 115.8,308.8 98.5,304.2 94.1,298.8 
			94.1,202.5 190.1,316.8 198.6,316.8 198.6,179.4 218.9,173.3 218.9,166.1 163.3,166.1 163.3,174.2 181,178.6 185.3,184 
			185.3,275.3 185.2,275.2 184.1,275.2 90.9,164.9 		"/>
		<path d="M274.8,318.1c-27.1,0-53.1-17.4-53.1-54.4c0-36.8,27.5-55.3,53.1-55.3c26.6,0,53.5,16.7,53.5,53.5
			C328.3,297.3,299.9,318.1,274.8,318.1z M307.3,265c0-25.3-13.8-46.8-35.5-46.8c-19.4,0-29.1,16.9-29.1,42.2
			c0,25.3,12.2,47.4,35,47.4C297.2,308,307.3,290.3,307.3,265z"/>
		<path d="M609.9,254.2c0-25.3-14.2-30.3-30.7-30.3c-14,0-23,10.4-23,10.4V251v48.3l4.3,5.4l14.6,5.1v5.7h-52.6v-5.9l14.9-5.6V195.1
			c0-19.7-5-25.1-15.8-25.1v-5.2l33.5-11.1h2.3c0,0-1.1,23.3-1.1,40.7v31.4c0,0,21.7-17.4,36.6-17.4c18.5,0,35.7,7.7,35.7,35v56
			l4.3,5.4l14.6,5.1v5.7h-52.6v-5.9l14.5-5.5L609.9,254.2z"/>
		<path d="M829.3,257.6c0,31.4,17.8,44.5,38.2,44.5c12.6,0,27.8-5.2,27.8-5.2l2.3,4.3c-5.4,5.4-20.5,16.9-39.5,16.9
			c-25.7,0-48.8-19.2-48.8-54.4c0-32.1,22.1-55.3,49.7-55.3c21.5,0,38.2,12.9,38.2,37.3c0,6.3-1.1,12-1.1,12h-66.8V257.6z
			 M862.5,249c10.8-0.5,14.7-2.5,14.7-13.6c0-9.5-6.8-16.7-21.2-16.7c-15.1,0-26.6,13.3-26.6,31.4L862.5,249z"/>
		<path d="M924.8,314c-1.6-0.7-5.6-2.9-5.9-7.7l-1.4-21.5h9.9c2.7,14.7,12.6,24.2,25.5,24.2c13.1,0,18.3-6.8,18.3-15.8
			c0-8.6-7-13.1-15.6-17.6l-11.5-5.9c-16.5-8.3-24.6-15.1-24.6-31.4c0-20.3,14.7-30,37.5-30c16,0,28.5,6.1,28.5,6.1l-2.9,26.4h-9.3
			c0-16.5-6.8-22.6-20.6-22.6c-9.3,0-17.8,3.6-17.8,12.6c0,7.2,2.9,10.4,20.8,19.7l10.2,5.2c18.5,9.5,23.7,17.4,23.7,32.7
			c0,18.5-18.5,29.6-36.6,29.6C941.6,318.1,931.4,316.8,924.8,314z"/>
		<path d="M1108.4,257.6c0,31.4,17.8,44.5,38.2,44.5c12.6,0,27.8-5.2,27.8-5.2l2.3,4.3c-5.4,5.4-20.5,16.9-39.5,16.9
			c-25.7,0-48.8-19.2-48.8-54.4c0-32.1,22.1-55.3,49.7-55.3c21.5,0,38.2,12.9,38.2,37.3c0,6.3-1.1,12-1.1,12h-66.8V257.6z
			 M1141.6,249c10.8-0.5,14.7-2.5,14.7-13.6c0-9.5-6.8-16.7-21.2-16.7c-15.1,0-26.6,13.3-26.6,31.4L1141.6,249z"/>
		<path d="M1392.5,304.8l-4.3-5.4l0.2-57.2c0-26.4-17.2-33.9-34.8-33.9c-14.9,0-35.9,17.4-35.9,17.4c0-9.5,0.5-18.1,0.5-18.1h-1.8
			l-33,12v5.4c12.6,0,16,11.3,16,31.6V304l-14.9,5.6v5.9h51.9l0.4-5.7l-14.6-5.1l-4.3-5.4v-64.8c0,0,7.9-10.6,22.1-10.6
			c14.7,0,29.8,5.2,29.8,30.3l-0.7,50.1l-14.4,5.4v5.9h51.9l0.4-5.7L1392.5,304.8z"/>
		<path d="M747.6,316.8l-24.2-67.1l-27.7,67.1h-9.5L659,233.9c-3.8-10.4-6-16.5-13.3-16.5v-6.3h44.6v6.4l-13.6,4.5l20.3,68.7
			l17.9-43l4.1-10.9l-6.1-17.5l-7.7-1.9v-6.3h43.1v6.8l-13.6,4.1l22.9,68.7l23.8-68.2l-15.4-5.6V211h40.4v6.3
			c-9.3,1.1-13.8,3.6-21,22.1l-27.2,77.2h-10.6V316.8z"/>
		<path d="M507,300.1c0,0-6.3,4.1-15.8,4.1c-10.2,0-19.4-5.6-19.2-19.7l0.9-59.2h33.4l0,0h0.3l0.5-3.7l0,0l2.3-18.6l-4.3-0.8
			l-3.2,7.1l-1.8,1.6l-26.6,1l0,0h-0.3v-26.8l-13.1,2.3l-5.6,25.5l-18.6,1.8v8.8c10.2,0,18.5,0.9,18.5,10.6c0,9.7-0.9,40.2-0.9,52.4
			c0,23,8.8,31.6,23.5,31.6c12.6,0,23-5.2,32.5-12.9L507,300.1z"/>
		<path d="M1075,300.1c0,0-6.3,4.1-15.8,4.1c-10.2,0-19.4-5.6-19.2-19.7l0.9-59.2h33.4l0,0h0.1l0.5-3.7l0,0l2.3-18.6l-4.3-0.8
			l-3.2,7.1l-1.8,1.6l-26.6,1l0,0l0,0v-26.8l-13.3,2.2l-5.6,25.5l-18.6,1.9v8.8c10.2,0,18.5,0.9,18.5,10.6c0,9.7-0.9,40.2-0.9,52.4
			c0,23,8.8,31.6,23.5,31.6c12.6,0,23-5.2,32.5-12.9L1075,300.1z"/>
		<path d="M420,209.7L420,209.7L420,209.7c-0.1,0-3.9-1.4-11.3-1.4c-15.8,0-32.3,24.8-32.3,24.8c0-13.8,0.5-25.5,0.5-25.5H375
			l-32.3,12v5.4c12.2,0,16,11.1,16,29.8V304l-14.9,5.6v5.9h51.9v-5.7l-14.6-5.1l-4.3-5.4V251c0-14.9,11.7-23.3,24.4-23.3
			c2.6,0,5.2,0.6,7.5,1.4l3.5,5.2l4.3,0.4L420,209.7L420,209.7L420,209.7z"/>
		<path d="M1270,209.7L1270,209.7L1270,209.7c-0.1,0-3.9-1.4-11.3-1.4c-15.8,0-32.3,24.8-32.3,24.8c0-13.8,0.5-25.5,0.5-25.5h-1.8
			l-32.3,12v5.4c12.2,0,16,11.1,16,29.8V304l-14.9,5.6v5.9h51.9v-5.7l-14.6-5.1l-4.3-5.4V251c0-14.9,11.7-23.3,24.4-23.3
			c2.6,0,5.2,0.6,7.5,1.4l3.5,5.2l4.4,0.4L1270,209.7L1270,209.7L1270,209.7z"/>
	</g>
</g>
</svg>
