<svg id="Layer_1" data-name="Layer 1" xmlns="http://www.w3.org/2000/svg" viewBox="0 0 600 600"><title>Ocochi Logo</title><path d="M488.08,266v30.22c-4.47,6.82-13.2,10.76-21.94,10.76s-16.91-3.93-21.38-10.75V266h-7.7V336h7.7v-30.5c5.55,4.18,13.6,6.65,21.38,6.65s16.38-2.46,21.94-6.64V336h7.69V266Z"/><path d="M101,263.74c20,0,34.55,16.11,34.55,36.26S121,336.26,101,336.26,66.4,320.14,66.4,300,80.9,263.74,101,263.74m0,67.38c15.51,0,25.78-12.29,25.78-31.12S116.46,268.88,101,268.88,75.16,281.16,75.16,300,85.43,331.12,101,331.12"/><path d="M196.64,263.74c11.59,0,21.46,4.83,28.11,16.82l-4.64,4.33c-4.63-9.27-11.48-15.31-23.36-15.31-15,0-26.5,11.28-26.5,30.62,0,20,12.9,30.12,26.39,30.12,11.49,0,18.64-5.34,23.58-15.62l4.63,2.93c-6.65,13.29-16.42,18.63-28.41,18.63-19.34,0-35.15-14.61-35.15-35.86s15.61-36.66,35.35-36.66"/><path d="M283.38,263.74c20,0,34.55,16.11,34.55,36.26s-14.51,36.26-34.55,36.26S248.83,320.14,248.83,300s14.51-36.26,34.55-36.26m0,67.38c15.51,0,25.78-12.29,25.78-31.12s-10.27-31.12-25.78-31.12S257.59,281.16,257.59,300s10.28,31.12,25.79,31.12"/><path d="M379.08,263.74c11.58,0,21.45,4.83,28.1,16.82l-4.63,4.33c-4.63-9.27-11.49-15.31-23.37-15.31-15,0-26.49,11.28-26.49,30.62,0,20,12.89,30.12,26.39,30.12,11.48,0,18.63-5.34,23.57-15.62l4.63,2.93c-6.65,13.29-16.42,18.63-28.4,18.63-19.34,0-35.16-14.61-35.16-35.86s15.62-36.66,35.36-36.66"/><rect x="525.85" y="265.75" width="7.76" height="70.51"/></svg>