<?xml version="1.0" encoding="utf-8"?>
<!-- Generator: Adobe Illustrator 24.2.0, SVG Export Plug-In . SVG Version: 6.00 Build 0)  -->
<svg version="1.1" xmlns="http://www.w3.org/2000/svg" xmlns:xlink="http://www.w3.org/1999/xlink" x="0px" y="0px"
	 viewBox="0 0 258 115" style="enable-background:new 0 0 258 115;" xml:space="preserve">
<style type="text/css">
	.st0{display:none;}
	.st1{display:inline;}
	.st2{fill:#010101;}
</style>
<g id="ID" class="st0">
	<g class="st1">
		<g>
			<rect x="0.04" y="16.26" class="st2" width="5.05" height="28.76"/>
			<polygon class="st2" points="20.98,16.26 20.98,45.02 25.95,45.02 25.95,24.57 41.81,45.02 46.05,45.02 46.05,16.26 41.07,16.26 
				41.07,36.15 25.67,16.26 			"/>
			<polygon class="st2" points="59.39,16.26 59.39,20.94 68.51,20.94 68.51,45.02 73.61,45.02 73.61,20.94 82.73,20.94 82.73,16.26 
							"/>
			<polygon class="st2" points="96.28,16.26 96.28,45.02 117.8,45.02 117.8,40.5 101.33,40.5 101.33,32.78 115.75,32.78 
				115.75,28.26 101.33,28.26 101.33,20.79 117.6,20.79 117.6,16.26 			"/>
			<path class="st2" d="M132.01,16.26v28.76h5.05V35h6.33l7.07,10.03h5.96l-7.76-10.89c4.02-1.11,6.86-3.99,6.86-8.75
				c0-5.63-4.07-9.12-10.69-9.12H132.01z M150.37,25.67c0,2.96-2.3,4.84-5.92,4.84h-7.39v-9.65h7.36
				C148.16,20.87,150.37,22.51,150.37,25.67"/>
			<rect x="170.21" y="16.26" class="st2" width="5.05" height="28.76"/>
			<path class="st2" d="M189.88,30.69c0,8.13,6.16,14.83,14.99,14.83c8.83,0,15.08-6.78,15.08-14.91c0-8.14-6.16-14.84-15-14.84
				C196.12,15.77,189.88,22.55,189.88,30.69 M214.65,30.69c0,5.63-3.99,10.19-9.7,10.19c-5.71,0-9.77-4.64-9.77-10.27
				c0-5.63,3.98-10.19,9.69-10.19C210.59,20.41,214.65,25.06,214.65,30.69"/>
			<path class="st2" d="M233.56,16.26v28.76h5.05V35h6.33l7.07,10.03h5.95l-7.77-10.89c4.03-1.11,6.86-3.99,6.86-8.75
				c0-5.63-4.07-9.12-10.68-9.12H233.56z M251.93,25.67c0,2.96-2.3,4.84-5.92,4.84h-7.39v-9.65h7.35
				C249.71,20.87,251.93,22.51,251.93,25.67"/>
		</g>
		<g>
			<path class="st2" d="M32.02,70.46v28.76h10.72c9.04,0,15.28-6.29,15.28-14.42c0-8.14-6.24-14.35-15.28-14.35H32.02z M52.73,84.89
				c0,5.67-3.94,9.74-9.98,9.74h-5.67V75.07h5.67C48.78,75.07,52.73,79.22,52.73,84.89"/>
			<polygon class="st2" points="71.67,70.46 71.67,99.23 93.2,99.23 93.2,94.71 76.72,94.71 76.72,86.98 91.14,86.98 91.14,82.47 
				76.72,82.47 76.72,74.99 92.99,74.99 92.99,70.46 			"/>
			<polygon class="st2" points="107.4,70.46 107.4,99.23 112.45,99.23 112.45,87.52 126.96,87.52 126.96,82.92 112.45,82.92 
				112.45,75.07 128.81,75.07 128.81,70.46 			"/>
			<rect x="142.84" y="70.46" class="st2" width="5.05" height="28.76"/>
			<polygon class="st2" points="163.79,70.46 163.79,99.23 168.76,99.23 168.76,78.77 184.62,99.23 188.85,99.23 188.85,70.46 
				183.88,70.46 183.88,90.36 168.48,70.46 			"/>
			<polygon class="st2" points="204.45,70.46 204.45,99.23 225.98,99.23 225.98,94.71 209.5,94.71 209.5,86.98 223.93,86.98 
				223.93,82.47 209.5,82.47 209.5,74.99 225.78,74.99 225.78,70.46 			"/>
		</g>
	</g>
</g>
<g id="saucony" class="st0">
	<g class="st1">
		<polygon class="st2" points="28.85,41.21 28.85,41.21 28.85,41.21 		"/>
		<path class="st2" d="M175.14,57.75c-0.89,0-1.83-0.27-2.8-0.8l-0.46-0.25l-2.16,4.76l0.41,0.21c1.85,1,3.52,1.43,5.58,1.43
			c3.83,0,6.04-1.87,7.9-6.65c0,0,9.25-23.92,9.25-23.92h-0.71h-5.75c0,0-4.78,13.69-5.54,15.85c-0.82-2.14-6.07-15.85-6.07-15.85
			h-6.6c0,0,9.46,22.69,9.62,23.09C177.01,57.38,176.22,57.75,175.14,57.75z"/>
		<path class="st2" d="M115.22,51.73l0.31-0.35l-3.81-3.76l-0.35,0.35c-1.8,1.85-3.51,2.67-5.51,2.67c-3.58,0-6.28-2.91-6.28-6.79
			v-0.08c0-3.76,2.64-6.7,6.02-6.7c2.61,0,4.2,1.28,5.51,2.67l0.35,0.38l3.88-4.18l-0.3-0.33c-2.55-2.81-5.44-4.06-9.4-4.06
			c-6.85,0-12.22,5.4-12.22,12.31v0.09c0,6.83,5.35,12.18,12.18,12.18C110.6,56.14,113.26,53.91,115.22,51.73z"/>
		<path class="st2" d="M129.3,56.05c7.07,0,12.61-5.38,12.61-12.26V43.7c0-6.86-5.5-12.22-12.52-12.22
			c-7.05,0-12.57,5.41-12.57,12.31v0.09C116.82,50.7,122.3,56.05,129.3,56.05z M122.98,43.7c0-3.89,2.65-6.71,6.32-6.71
			c3.67,0,6.45,2.92,6.45,6.79v0.09c0,3.32-2.19,6.7-6.36,6.7c-3.6,0-6.41-2.98-6.41-6.79V43.7z"/>
		<path class="st2" d="M83.25,32.29l0.02,0.48V45.7c0,2.63-1.7,4.46-4.16,4.46c-2.43,0-4.26-1.94-4.26-4.53V32.29h-6.48V45.7
			c0,5.86,4.69,9.71,10.68,9.71c1.83,0,3.54-0.68,5.04-1.44c0.14-0.07,0.28-0.15,0.42-0.23l0.07,1.19v0.46h5.19v-9.75v-2.12V32.29
			h-6.49H83.25z"/>
		<path class="st2" d="M151.91,55.41l-0.03-0.48V42c0-2.63,1.7-4.47,4.16-4.47c2.43,0,4.27,1.95,4.27,4.53v13.35h6.48V42
			c0-5.86-4.69-9.71-10.69-9.71c-1.83,0-3.54,0.68-5.03,1.44c-0.15,0.07-0.28,0.15-0.43,0.23l-0.07-1.2v-0.47h-5.19v9.77v2.12v11.23
			h6.49H151.91z"/>
		<path class="st2" d="M57.84,32.67v1c-1.87-1.06-4.08-2.15-6.52-2.15c-7.18,0-12.82,5.01-12.82,12.05v0.09
			c0,6.97,5.6,11.92,12.73,11.92c2.43,0,4.69-1.12,6.61-2.22v1v0.62h5.79V32.12h-5.79V32.67z M51.54,50.49
			c-3.89,0-7.04-3.1-7.04-6.93c0-3.82,3.16-6.92,7.04-6.92c3.89,0,7.05,3.1,7.05,6.92C58.59,47.39,55.43,50.49,51.54,50.49z"/>
		<path class="st2" d="M27.24,35.52c1.58,0,3.76,0.76,6.47,2.26l0.22,0.12l2.43-4.39l-0.2-0.13c-2.64-1.63-5.96-2.61-8.88-2.61
			c-4.49,0-9.02,2.4-9.02,7.77v0.09c0,4.39,4.04,6.14,7.56,7.17c2.33,0.69,4.61,1.51,4.61,3.24v0.09c0,0.75-0.33,2.7-3.43,2.7
			c-2.18,0-4.93-1.27-7.78-3.19l-0.21-0.14l-2.71,4.18l0.19,0.14c3.03,2.24,6.69,3.76,10.32,3.76c6.09,0,9.45-2.96,9.45-7.81v-0.49
			c0-3.07-2.46-5.38-7.51-7.06h0h0l0,0L28.12,41c-2.35-0.78-4.04-1.35-4.04-3.13v-0.1C24.08,36.69,25.07,35.52,27.24,35.52z"/>
		<path class="st2" d="M241.39,59.02v-0.01c-1.9-1.29-1.9-1.29-3.19-2.08c-12.42-7.53-18.84-8.41-24.86-6.4
			c-4.68,1.57-12.73,7.94-12.73,7.94c-7.35,4.9-14.79,13.01-32.21,12.06c-16.23-0.88-49.63-9.56-50.04-9.67
			c-0.4-0.11-0.83,0.18-0.7,0.66c0.1,0.36,0.91,2.13,0.91,2.13c0.1,0.24,0.32,0.3,0.42,0.34c13.31,5.34,53.89,20.22,68.23,20.22
			c17.09,0,31.23-23.73,46.44-23.73c4.72,0,5.92,0.17,6.6,0.18c0.66,0.06,1.24-0.15,1.4-0.74
			C241.65,59.94,241.88,59.44,241.39,59.02z M195.94,77.03L195.94,77.03L195.94,77.03z M197.28,74.23
			c-0.19,0.96-0.74,1.78-1.56,2.33l0,0c-0.82,0.54-1.79,0.73-2.74,0.54c-0.96-0.19-1.79-0.75-2.33-1.56
			c-1.12-1.69-0.66-3.96,1.02-5.08c1.68-1.11,3.96-0.65,5.07,1.02C197.28,72.3,197.48,73.28,197.28,74.23z M206.49,69.4
			c-1.69,1.12-3.95,0.65-5.08-1.02c-1.11-1.69-0.66-3.96,1.02-5.08c1.69-1.11,3.96-0.66,5.07,1.02c0.41,0.62,0.61,1.32,0.62,2.01
			C208.12,67.52,207.55,68.69,206.49,69.4z M218.82,59.9c-0.19,0.96-0.75,1.79-1.56,2.32c-0.82,0.54-1.79,0.74-2.75,0.54
			c-0.95-0.19-1.78-0.74-2.33-1.56c-0.54-0.82-0.73-1.79-0.54-2.75c0.19-0.96,0.75-1.78,1.56-2.33c0.81-0.54,1.79-0.73,2.74-0.54
			c0.96,0.19,1.79,0.75,2.33,1.56C218.82,57.97,219.01,58.94,218.82,59.9z"/>
	</g>
</g>
<g id="patagonia">
	<path class="st2" d="M58.44,56.24h-1.42c-2.53,0-4.59,1.9-4.59,4.43c0,2.06,0.63,4.43,3.32,4.43c2.37,0,2.85-1.9,2.85-3.8v-4.75
		C58.6,56.55,58.76,56.24,58.44,56.24L58.44,56.24z M130.53,79.33h-4.98c-3.58-0.43-6.67-1.79-6.67-5.06c0-2.37,2.69-4.11,4.9-4.43
		c0,0,0.63-0.16,0-0.16c-0.79-0.16-5.06-0.47-6.49-0.16c0,0-0.32,0-0.48-0.31c-0.16-0.32-0.95-2.53-1.11-2.69
		c-0.16-0.32,0.16-0.47,0.16-0.47c3.16-0.48,6.01-2.06,7.28-2.53c0.79-0.16,0-0.32,0-0.32c-4.43-0.79-8.86-3.8-8.86-9.02
		c0-7.44,6.17-10.76,12.02-10.76c2.69,0,4.27,0.48,5.69,0.63c0,0,0.16,0.16,0.32-0.16c0-0.48,0.47-1.74,0.47-1.74
		c0.64-1.9,1.58-2.69,4.43-2.69c0.63,0,1.27,0,1.74,0.16c0,0,0.32-0.16,0.32,0.32c-0.16,0.16-1.11,3.95-1.11,4.11
		c-0.16,0.48-0.31,0.16-0.31,0.16c-0.48-0.32-0.63-0.48-1.74-0.32c-0.64,0-0.95,0.47-0.95,1.11c0,1.11,5.06,2.69,5.06,8.7
		c0,8.07-7.44,9.81-13.92,11.39c0,0-0.63,0.16,0,0.16c4.27,0.48,13.13,1.58,13.13,7.12C139.44,77.04,134.24,78.83,130.53,79.33
		L130.53,79.33z M68.57,66.52h1.27c0.32,0,0.32,0.31,0.32,0.31v2.53c0,0.47-0.47,0.32-0.47,0.32H59.55c0,0-0.16,0-0.16-0.32
		c-0.16-0.63-0.47-1.27-0.47-1.74c-0.16-0.63-0.48,0-0.48,0c-2.06,1.58-4.43,2.85-7.28,2.85c-4.75,0-8.38-3.01-8.38-7.91
		c0-6.01,3.8-9.33,8.54-9.33l7.28-0.32V52.6v-0.79c0-2.06-1.11-3.01-3.48-3.01c-3.01,0-4.43,1.11-5.85,2.85c0,0,0,0.16-0.32,0.16
		c-0.32-0.16-2.85-1.11-2.85-1.11s-0.32,0-0.16-0.32c0.16-0.32,3.32-7.91,3.32-7.91s0-0.32,0.16-0.16c0.47,0.16,2.37,0.79,2.85,0.79
		c0.32,0.16,0.16,0.47,0.16,0.47l-0.32,0.63c-0.16,0.63,0.16,0.32,0.16,0.32c2.06-0.79,4.11-1.11,6.17-1.11
		c6.01,0,9.97,2.53,9.97,8.7v13.92C68.41,66.04,68.41,66.52,68.57,66.52L68.57,66.52z M69.2,45.32c4.11-1.11,7.59-3.8,9.33-7.59
		c0,0,0-0.16,0.32-0.16c0.32,0,2.37,0.48,2.69,0.48c0.32,0.16,0.16,0.32,0.16,0.32c-0.16,1.27-0.32,2.69-0.32,3.8v1.9
		c0,0.32,0.32,0.16,0.32,0.16h4.27c0.32,0,0.16,0.32,0.16,0.32s-0.63,3.16-0.63,3.48c-0.16,0.32-0.32,0.32-0.32,0.32H81.7
		c-0.32,0-0.32,0.16-0.32,0.16V63.2c0,1.74,1.42,2.05,2.21,2.05c0.79,0,0.95,0,1.58-0.31c0,0,0.32-0.32,0.32,0
		c0.16,0.31,0.95,2.37,1.11,2.69c0.16,0.16-0.16,0.31-0.16,0.31c-3.32,2.38-3.64,2.53-8.07,2.53c-4.9,0-6.64-2.37-6.64-6.8V48.48
		c0,0,0-0.16-0.32-0.16H69.2c0,0-0.16,0-0.16-0.32v-2.37C69.04,45.48,69.2,45.32,69.2,45.32L69.2,45.32z M141.34,56.87
		c0-8.23,6.49-13.45,15.03-13.45c8.54,0,15.19,5.22,15.19,13.45c0,8.54-6.65,13.6-15.19,13.6
		C147.83,70.47,141.34,65.41,141.34,56.87z M151.15,53.23c0,3.8,1.58,13.29,6.96,13.29c2.85,0,3.64-3.01,3.64-5.85
		c0-3.8-1.58-13.29-7.12-13.29C151.15,47.37,151.15,51.33,151.15,53.23z M201.62,69.68h-13.29c0,0-0.16,0-0.16-0.16v-2.69
		c0-0.31,0.31-0.31,0.31-0.31h1.58c0.16,0,0.16-0.16,0.16-0.16v-14.4c0-1.58-1.42-2.22-2.85-2.22c-1.74,0-3,0.79-4.27,1.9
		c0,0-0.16,0.16-0.16,0.32v14.4c0,0,0,0.16,0.16,0.16h1.74c0,0,0.16,0,0.16,0.31v2.69c0,0.16-0.16,0.16-0.16,0.16h-13.29
		c0,0-0.16,0.16-0.16-0.32v-2.53c0-0.31,0.16-0.31,0.16-0.31h1.42c0.32,0,0.16-0.16,0.16-0.16V49.43c0,0,0.16-0.32-0.16-0.32
		l-1.42,0.47c0,0-0.16,0.16-0.16-0.16v-2.69c0-0.32,0.16-0.16,0.16-0.16l11.23-3.01c0,0,0.31-0.16,0.31,0.16v3.64
		c0,0.47,0.16,0.16,0.16,0.16c2.69-2.06,5.38-4.11,9.02-4.11c6.8,0,7.75,4.59,7.75,7.44v15.51c0,0-0.16,0.16,0.16,0.16h1.42
		c0,0,0.16,0,0.16,0.32v2.53C201.77,69.84,201.62,69.68,201.62,69.68L201.62,69.68z M215.06,43.58l-11.23,3.01c0,0-0.16,0-0.16,0.32
		v2.53c0,0.32,0.31,0.16,0.31,0.16s0.79-0.16,1.42-0.32c0.32,0,0.16,0.32,0.16,0.47v16.61c0,0,0.16,0.16-0.16,0.16h-1.58
		c0,0-0.32,0-0.32,0.31v2.69c0,0.32,0.32,0.16,0.32,0.16h13.13c0.31,0,0.16-0.32,0.16-0.32v-2.53c0-0.31-0.32-0.31-0.32-0.31h-1.27
		c-0.32,0-0.16-0.16-0.16-0.16V43.73C215.38,43.42,215.06,43.58,215.06,43.58L215.06,43.58z M211.11,35.67
		c2.21,0,4.74,0.63,4.74,3.32c0,3.16-4.27,4.43-6.96,4.43c-2.22,0-3.64-1.11-3.64-3.32C205.25,37.57,208.73,35.67,211.11,35.67z
		 M102.42,56.24h-1.27c-2.69,0-4.59,1.9-4.59,4.43c0,2.06,0.63,4.43,3.16,4.43c2.53,0,3.01-1.9,3.01-3.8v-4.75
		C102.74,56.55,102.74,56.24,102.42,56.24L102.42,56.24z M112.71,66.52h1.11c0.47,0,0.47,0.31,0.47,0.31v2.53
		c0,0.47-0.47,0.32-0.47,0.32h-10.13c0,0-0.16,0-0.32-0.32c-0.16-0.63-0.32-1.26-0.32-1.74c-0.16-0.63-0.47,0-0.47,0
		c-2.22,1.58-4.43,2.85-7.28,2.85c-4.9,0-8.54-3.01-8.54-7.91c0-6.01,3.96-9.49,8.7-9.49l7.12-0.16c0,0,0.16,0,0.16-0.32v-0.79
		c0-2.06-1.11-3.01-3.48-3.01c-3.01,0-4.43,1.11-5.85,2.85c0,0-0.16,0.16-0.32,0c-0.32,0-3.01-0.95-3.01-0.95s-0.16,0,0-0.32
		c0.16-0.32,3.16-7.91,3.16-7.91s0-0.32,0.32-0.16c0.32,0.16,2.37,0.79,2.69,0.79c0.32,0.16,0.16,0.47,0.16,0.47s0,0.32-0.16,0.63
		c-0.32,0.63,0.16,0.32,0.16,0.32c2.06-0.79,4.11-1.11,6.17-1.11c6.01,0,9.97,2.53,9.97,8.7v13.92
		C112.55,66.04,112.39,66.52,112.71,66.52L112.71,66.52L112.71,66.52z M123.15,50.22c0,2.85,1.58,10.6,5.54,10.6
		c2.06,0,2.85-0.95,2.85-3.48c0-2.85-1.74-10.6-5.7-10.6C123.94,46.74,123.15,47.69,123.15,50.22L123.15,50.22z M127.26,70.95
		c-0.47,0.47-0.79,2.21-0.79,3.32c0,1.27,0.63,2.69,2.21,2.69c1.27,0,2.06-0.63,2.06-1.9c0-2.38-1.43-3.16-3.16-4.27
		C127.58,70.79,127.42,70.79,127.26,70.95z M232.78,56.24h-1.27c-2.69,0-4.59,1.9-4.59,4.43c0,2.06,0.63,4.43,3.16,4.43
		c2.53,0,3.01-1.9,3.01-3.8v-4.75C233.1,56.55,233.1,56.24,232.78,56.24L232.78,56.24z M243.06,66.52h1.27
		c0.32,0,0.32,0.31,0.32,0.31v2.53c0,0.47-0.48,0.32-0.48,0.32h-10.13c0,0-0.16,0-0.31-0.32c-0.16-0.63-0.32-1.26-0.32-1.74
		c-0.16-0.63-0.48,0-0.48,0c-2.21,1.58-4.43,2.85-7.28,2.85c-4.9,0-8.54-3.01-8.54-7.91c0-6.01,3.95-9.49,8.7-9.49l7.12-0.16
		c0,0,0.16,0,0.16-0.32v-0.79c0-2.06-1.11-3.01-3.48-3.01c-3,0-4.43,1.11-5.85,2.85c0,0-0.16,0.16-0.31,0
		c-0.32,0-2.85-0.95-2.85-0.95s-0.32,0-0.16-0.32c0.16-0.32,3.16-7.91,3.16-7.91s0-0.32,0.32-0.16c0.32,0.16,2.37,0.79,2.69,0.79
		c0.32,0.16,0.32,0.47,0.32,0.47l-0.32,0.63c-0.32,0.63,0.16,0.32,0.16,0.32c2.06-0.79,4.11-1.11,6.17-1.11
		c6.01,0,9.97,2.53,9.97,8.7v13.92C242.91,66.04,242.91,66.52,243.06,66.52L243.06,66.52z M25.06,49.59V62.4
		c0,2.21,0.79,4.11,3.32,4.11c3.16,0,4.59-1.9,4.59-7.75c0-9.33-4.75-9.81-6.33-9.81l-1.27,0.16
		C25.38,49.12,25.06,49.27,25.06,49.59L25.06,49.59z M25.22,45.79c2.37-1.42,4.11-2.37,6.49-2.37c6.17,0,11.07,5.06,11.07,12.5
		c0,7.28-4.59,14.55-12.5,14.55c-1.58,0-3.64-0.16-5.06-0.95c0,0-0.16,0-0.16,0.16v4.59c0,0,0,0.32,0.32,0.32h2.85
		c0,0,0.32,0,0.32,0.32v2.53c0,0.16-0.32,0.32-0.32,0.32h-14.4c0,0-0.48,0-0.48-0.32v-0.03v-0.02v-0.03v-0.03V77.3v-0.03v-0.03
		v-0.03v-0.03v-0.04V77.1v-0.04v-0.04v-0.04v-0.04v-0.04v-0.04v-0.04v-0.04v-0.04v-0.05v-0.04V76.6v-0.04V76.5v-0.05v-0.05v-0.05
		v-0.05v-0.05v-0.05v-0.05v-0.05v-0.05v-0.05v-0.05v-0.05v-0.05v-0.05v-0.05v-0.05V75.7v-0.05v-0.05v-0.04v-0.04v-0.04v-0.04V75.4
		v-0.04v-0.04v-0.04v-0.04v-0.04v-0.04v-0.03V75.1v-0.03v-0.03v-0.03v-0.03v-0.02v-0.02v-0.02c0-0.32,0.32-0.32,0.32-0.32h1.27
		c0.32,0,0.32-0.32,0.32-0.32V49.44c0-0.32-0.32-0.16-0.32-0.16l-1.27,0.32c0,0-0.32,0-0.32-0.32v-0.02v-0.02v-0.02v-0.02v-0.02
		v-0.03v-0.03V49.1v-0.03v-0.03V49v-0.04v-0.04v-0.04v-0.04V48.8v-0.04v-0.04v-0.05v-0.05v-0.05v-0.05v-0.05v-0.05v-0.05v-0.05
		v-0.05v-0.05v-0.05v-0.05v-0.05v-0.05v-0.05v-0.05v-0.05v-0.05v-0.05v-0.05v-0.05v-0.05v-0.05v-0.05v-0.05v-0.05v-0.05v-0.04v-0.04
		v-0.04v-0.04v-0.04v-0.04v-0.04v-0.04V47v-0.03v-0.03v-0.03v-0.03v-0.03v-0.03v-0.02v-0.02v-0.02v-0.02c0-0.32,0.32-0.32,0.32-0.32
		l11.07-2.85c0,0,0.32-0.16,0.32,0.16v1.9C25.06,45.95,25.22,45.79,25.22,45.79L25.22,45.79z"/>
</g>
<g id="chaco" class="st0">
	<g class="st1">
		<path d="M130.46,30.61c-0.13,0.18-0.1,0.53,0.26,0.53c2.27,0.02,4.52,0.09,6.74,0.2c41.31,2.03,73.51,18.59,73.51,38.7
			c0,21.49-36.76,38.91-82.1,38.91c-45.34,0-82.1-17.42-82.1-38.91c0-4.56,1.11-9.5,4.15-13.56c0,0,0.13-0.2-0.1-0.35
			c-0.22-0.15-0.41,0.07-0.41,0.07c-4.45,5.06-6.91,10.64-6.91,16.49c0,23.31,39.06,42.2,87.25,42.2s87.25-18.89,87.25-42.2
			c0-22.21-35.48-40.42-80.52-42.08c-2.22-0.08-4.46-0.12-6.73-0.12C130.77,30.49,130.55,30.47,130.46,30.61"/>
		<path d="M199.94,61.42c0,0.89-0.63,1.48-1.38,1.48v0c-0.77,0-1.38-0.59-1.38-1.48c0-0.89,0.62-1.48,1.38-1.48
			C199.3,59.94,199.94,60.53,199.94,61.42 M200.49,61.42c0-1.22-0.91-1.93-1.93-1.93c-1.03,0-1.94,0.71-1.94,1.93
			c0,1.22,0.91,1.93,1.94,1.93C199.58,63.35,200.49,62.64,200.49,61.42 M198.24,61.59h0.21l0.48,0.87h0.53l-0.53-0.91
			c0.28-0.02,0.5-0.16,0.5-0.54c0-0.47-0.32-0.63-0.85-0.63h-0.78v2.08h0.44V61.59z M198.24,61.24v-0.5h0.31
			c0.17,0,0.39,0.01,0.39,0.23c0,0.23-0.12,0.27-0.31,0.27H198.24z"/>
		<path d="M187.04,64.27c-5.24,0-8.6,5.49-8.6,10.35c0,4.86,3.36,10.35,8.6,10.35c5.23,0,8.6-5.49,8.6-10.35
			C195.64,69.75,192.28,64.27,187.04,64.27 M200.55,74.56c0,7.26-5.19,13.14-13.48,13.14c-8.29,0-13.47-5.88-13.47-13.14
			c0-7.26,6.03-13.14,13.47-13.14C194.51,61.42,200.55,67.3,200.55,74.56"/>
		<path d="M99.38,55.02c0,0-9.22-7.31-15.71-8.2c-6.28-0.89-12.09,0.68-17.83,5.87c-6.15,5.46-10.59,17.89-2.4,29.1
			c6.76,9.29,20.15,9.64,27.8,5.81c7.58-3.89,9.5-7.75,9.5-7.75l0.07-4.66c0,0-3.83,7.84-13.94,9.75
			c-8.06,1.5-16.69-2.51-20.08-9.98c-2.75-6.06-0.91-16.35,4.17-20.76c5.16-4.48,10.73-5.87,16.73-3.34
			c6.08,2.46,7.24,7.17,6.62,9.43c-0.96,3.42-1.43,3.48-1.43,3.48l0.89,0.55L99.38,55.02z"/>
		<path d="M173.76,66.52c0,0-0.76,1.4-1.3,2.53c-0.58,1.22-1.3,3.21-1.3,3.21h-0.68c0,0,0.34-2.73-0.82-4.71
			c-1.23-1.84-3.34-3.34-5.46-3.35c-2.99-0.01-5.67,1.36-7.59,4.5c-2.12,3.62-1.77,6.95-1.03,9.49c1.24,4.23,5.39,6.7,9.63,6.22
			c5.74-0.54,8.2-3.96,8.2-3.96l1.02,1.78c0,0-1.16,1.5-3.28,3c-1.71,1.23-4.24,2.66-8.81,2.46c-5.46-0.21-8.94-2.87-10.72-6.83
			c-1.64-3.49-2.12-9.14,1.09-13.99c3.01-4.3,6.99-5.44,10.81-5.42c3.84,0.02,7.14,2.38,8.03,3.04
			C172.78,65.4,173.76,66.52,173.76,66.52"/>
		<path d="M135.09,84.4c-2.39-1.03-3.72-3.18-3.41-5.94c0.13-1.11,0.54-2.32,1.49-3.55c3.28-4.3,10.74-1.76,10.74-1.76l-0.01,9.74
			C143.9,82.89,138.51,85.77,135.09,84.4 M152.3,84.47c0,0-1.09,1.16-1.98,0.89c-0.96-0.28-1.14-0.93-1.23-1.42
			c-0.05-0.28-0.61-11.67-0.65-12.46c0-5.96-4.6-10.25-10.26-10.25c-1.36,0-2.66,0.27-3.85,0.75c-0.31,0.13-0.64,0.28-0.98,0.44
			c-2.42,1.13-5.12,2.46-5.12,2.46l2.29,3.38c0,0,0.5-0.57,1.3-1.3c0.54-0.49,1.69-1.79,3.6-2.5c0.67-0.26,1.46-0.36,2.23-0.36
			c4.26,0,6.23,2.77,6.23,6.18l0.02,0.6c0,0-4.75-0.85-8.05-0.4c-2.87,0.39-6.63,1.29-8.4,5.12c-0.41,0.89-0.69,1.84-0.82,2.87
			c-0.41,3.14,0.75,6.56,4.3,8.4c3.48,1.78,6.15,1.3,8.61,0.62c1.98-0.61,4.78-2.39,4.78-2.39s0.96,2.53,2.93,2.66
			c1.78,0.12,2.87-0.34,3.83-0.95c1.02-0.68,1.78-1.78,1.78-1.78L152.3,84.47z"/>
		<path d="M126.58,87.32c0,0,0,0-0.01,0v-0.01h-0.02c-0.18-0.07-1.18-0.49-1.43-1.42c-0.14-0.34-0.12-2.67-0.12-2.67
			s-0.06-7.8,0-10.3c0.14-3.55-0.55-5.53-1.09-6.83c-0.48-0.95-2.59-4.44-7.85-4.58c-4.92-0.14-8.68,5.39-8.68,5.39l0.01-18.51
			c0,0,0.14-1.78-0.48-2.6c-0.27-0.41-0.68-0.55-0.68-0.55l-5.33,8.67c0,0,0.75,0,1.23,0.41c0.48,0.55,0.41,1.98,0.41,1.98
			l-0.01,26.89c0,0,0.01,2.33-0.12,2.67c-0.27,1.02-1.45,1.43-1.46,1.43h-0.01V88h8.02v-0.68h0.01c0,0-1.19-0.41-1.46-1.43
			c-0.14-0.34-0.12-2.67-0.12-2.67l0-10.29c0,0-0.04-0.78,1.98-3.49c1.36-1.82,1.67-2.19,3.28-3.62c1.05-0.93,3.7-2.12,5.74-0.27
			c1.98,1.84,1.77,5.74,1.77,5.74v11.94c0,0-0.01,2.33-0.15,2.67c-0.25,0.93-1.25,1.35-1.43,1.42h-0.03v0.01l0,0h0V88h8.04v-0.67
			H126.58z"/>
		<path d="M101.6,41.57c-2.71,0.85-6.03,0.31-6.03,0.31c1.78-0.39,5.8-3.48,6.11-3.79c0.31-0.31,0.7-0.93,0.47-1.16
			c-0.23-0.23-0.5,0.04-0.5,0.04c-1.85,1.65-5.98,3.16-5.98,3.16c0.58-0.44,1.36-1.12,3.55-4.23c2.19-3.11,0.19-3.84,0.19-3.84
			c-8.17-1.83-14.85,3-15.87,3.79c-0.09,0.07-0.12,0.14-0.12,0.14c-0.28,1.09,1.09,0.86,1.09,0.86c3.94-0.85,6.96-0.39,8.27-0.31
			c1.31,0.08,0.93,1.32,0.23,2.71c-0.7,1.39-3.26,3.22-4.25,3.63c-0.88,0.37-0.42,0.83-0.42,0.83c0.09,0.09,0.27,0.05,0.38,0.05
			c0.06,0,0.17,0,0.25,0c3.25,0.36,7.83,4,7.83,4s0.87,0.91,1,0.08c0.19-1.17-3.25-3.94-3.25-3.94c4.56,0.15,7.04-1.32,7.04-1.32
			s0.69-0.31,0.62-0.69C102.14,41.49,101.6,41.57,101.6,41.57"/>
		<path d="M136.76,42.03c-1.86-3.4-4.64-4.1-4.64-4.1c1.2,0.04,2.55-1.66,2.71-1.9c0.16-0.23,0.27-0.62,0.11-0.73
			c-0.15-0.11-0.42,0.16-0.42,0.16c-2.05,2.13-5.53,1.51-7.93,0.42c-2.4-1.08-5.22-1.01-5.22-1.01s3.91-2.59,4.37-5.84
			c0.46-3.25-0.93-2.32-0.93-2.32c-2.13,2.94-4.45,3.06-4.91,3.17c-0.46,0.12-2.2,0.19-2.47,1.24c-0.27,1.04-1.51,2.47-2.86,3.48
			c-0.96,0.71-0.37,1.42-0.37,1.42c0.65,0.83,1.84,1.4,2.34,1.51c0.5,0.12,1.63-0.73,6.85,0.04c5.22,0.77,8.51,6.97,8.62,7.89
			c0.04,0.36,0.13,0.56,0.22,0.67c0.06,0.04,0.22,0.15,0.32,0.01c0.99-2.84-1.23-6.16-1.23-6.16c3.4,0.62,4.56,2.13,4.68,2.2
			c0.12,0.08,0.47,0.39,0.66,0.27C136.84,42.34,136.76,42.03,136.76,42.03"/>
		<path d="M141.03,2.92c-0.15-2.06-1.52-2.63-2.25-2.78c-0.27-0.04-0.57-0.03-0.76-0.01c-7.14,1.12-10.82,6.95-10.85,7.01
			c-0.99,1.36-2.23,5.19-2.82,7.14l0-0.01c-0.42,1.58-1.03,2.45-1.03,2.45c-1.83,2.87-7.65,9.63-20.65,6.76
			c-19.45-4.29-30.58,10.9-30.69,11.06c-7.82,9.78-15.42,15.03-22.56,15.6c-5.8,0.46-9.13-2.5-9.17-2.53
			c-0.06-0.06-0.16-0.06-0.22,0c-0.06,0.06-0.06,0.16-0.01,0.22c2.76,3.01,6.15,4.59,10.07,4.67c10.95,0.25,22.65-11.27,22.77-11.39
			c18.36-16.94,33.7-12.88,33.86-12.84c16.19,3.11,21.35-5.76,22.53-8.5h0c0,0,0-0.01,0.01-0.03c0.05-0.11,0.09-0.21,0.12-0.3
			c0.1-0.25,0.26-0.5,0.47-0.69c0.9-0.76,1.91-1.46,2.9-2.13c1.78-1.21,3.62-2.47,4.85-4.13c2.05-2.76,3.44-7.03,3.44-9.27
			C141.04,3.13,141.04,3.02,141.03,2.92"/>
		<path d="M87.92,12.88c-1.85-1.29-8.84,3.74-8.84,3.74s-0.36,0.22-0.36,0.13c0-0.09,0.18-0.45,0.18-0.45
			c1.17-2.02,2.95-4.62,2.26-5.16c-0.7-0.54-3.39,3.45-3.74,4.1c-0.35,0.64-0.52,0.43-0.52,0.43c0-2.01-0.45-3.92-0.7-4.49
			c-0.22-0.5-0.41-0.5-0.61-0.5c-0.2,0-0.23,0.29-0.23,0.29c0.63,4.19-1.57,8.39-1.83,8.66c-0.34,0.36-0.05,0.56-0.05,0.56
			c2.34,0.85,7.38-1.96,9.08-1.32c1.7,0.64-2.23,5.35-2.23,5.35c-0.05,0.05-0.07,0.1-0.08,0.15c-0.01,0.04-0.02,0.08-0.02,0.12
			c0,0.22,0.17,0.4,0.38,0.38c0.06,0,0.11-0.01,0.16-0.04c1.83-0.49,5.25-2.75,5.75-3.34C87.04,20.91,89.77,14.17,87.92,12.88"/>
		<path d="M122.12,7.36c-0.29-0.15-0.45,0.23-0.45,0.23c-1.2,2.47-3.14,2.6-3.14,2.6c2.75-2.67,1.68-5.98,1.56-6.18
			c-0.08-0.13-0.2-0.09-0.28-0.05c-0.08,0.03-0.08,0.23-0.08,0.23c0,3.09-2.75,5.12-2.75,5.12c0.48-3.19-0.5-4.31-0.72-4.59
			c-0.27-0.34-0.36,0-0.36,0c0.24,5.86-1.48,7.54-4.19,8.89c-2.71,1.35-5.5,1.83-5.78,2.87c-0.28,1.03,0.52,1.23,3.74,2.11
			c2.03,0.55,2.8,1.37,3.1,1.91c0,0,0,0,0,0c0.07,0.12,0.13,0.31,0.16,0.49c0.01,0.08,0.07,0.16,0.21,0.18c0,0,0.01,0,0.01,0
			c0.32,0.05,1.07-0.14,2.45-1.38c1.99-1.79,1.29-2.87,1.29-2.87c-1.12-1.76-3.35-1.72-3.35-1.72c6.58-2.35,8.21-6.63,8.39-6.98
			C122.1,7.9,122.28,7.45,122.12,7.36"/>
	</g>
</g>
</svg>