<?xml version="1.0" encoding="UTF-8"?>
<svg width="150px" height="107px" viewBox="0 0 150 107" version="1.1" xmlns="http://www.w3.org/2000/svg" xmlns:xlink="http://www.w3.org/1999/xlink">
    <!-- Generator: Sketch 46.1 (44463) - http://www.bohemiancoding.com/sketch -->
    <title>PAW-Wordmark-Stack</title>
    <desc>Created with Sketch.</desc>
    <defs>
        <polygon id="path-1" points="0 94 138 94 138 0.05 0 0.05"></polygon>
    </defs>
    <g id="Page-1" stroke="none" stroke-width="1" fill="none" fill-rule="evenodd">
        <g id="PAW-Wordmark-Stack">
            <g id="Page-1" transform="translate(5.353516, 5.343750)">
                <polygon id="Fill-1" fill="#333333" points="59.8068 27.9503 59.8178 27.9503 59.8068 27.9423"></polygon>
                <polygon id="Fill-2" fill="#FFFFFF" points="59.7915 27.9503 59.8065 27.9503 59.8065 27.9423 59.6375 27.8163"></polygon>
                <g id="Group-37" transform="translate(0.000000, 0.949900)">
                    <path d="M138,23.5003 L79.444,23.5003 C78.971,24.8583 78.257,26.0333 77.327,27.0003 L138,27.0003 L138,23.5003 Z" id="Fill-3" fill="#6B8CE9"></path>
                    <polygon id="Fill-5" fill="#6B8CE9" points="58.0645 25.4891 57.7915 25.2501 58.9305 24.2531 59.7915 23.5001 59.4585 23.5001 2.0005 23.5001 0.0005 25.2501 2.0005 27.0001 59.7915 27.0001 59.6375 26.8661"></polygon>
                    <path d="M8.3731,4.8958 L6.3201,4.8958 L6.3201,9.4668 L8.2911,9.4668 C10.0431,9.4668 11.6581,8.9478 11.6581,7.1128 C11.6581,5.2508 10.0431,4.8958 8.3731,4.8958 M8.6461,13.1898 L6.3201,13.1898 L6.3201,20.4998 L1.6391,20.4998 L1.6391,1.1188 L8.7561,1.1188 C12.9991,1.1188 16.3391,2.6508 16.3391,7.0848 C16.3391,11.5758 12.6981,13.1898 8.6461,13.1898" id="Fill-7" fill="#333333"></path>
                    <path d="M27.3389,14.5589 L26.7649,14.5589 C24.7929,14.5589 22.5759,14.8049 22.5759,16.4199 C22.5759,17.4599 23.6159,17.8169 24.5199,17.8169 C26.3259,17.8169 27.3389,16.7209 27.3389,15.0239 L27.3389,14.5589 Z M19.0999,8.7279 C20.6879,7.2229 22.9589,6.4289 25.1769,6.4289 C29.7479,6.4289 31.4449,8.6729 31.4449,13.6279 L31.4449,20.4989 L27.3389,20.4989 L27.3389,19.0479 L27.2569,19.0479 C26.5719,20.1699 25.0129,20.8279 23.3979,20.8279 C21.2349,20.8279 18.4429,19.7599 18.4429,16.5569 C18.4429,12.6159 23.2329,11.9579 27.2019,11.9579 L27.2019,11.7399 C27.2019,10.3979 26.1349,9.7679 24.7379,9.7679 C23.4519,9.7679 22.1929,10.3979 21.3709,11.1639 L19.0999,8.7279 Z" id="Fill-9" fill="#333333"></path>
                    <path d="M40.3194,10.2337 L40.3194,15.4347 C40.3194,16.6937 40.7294,17.3507 42.0154,17.3507 C42.4544,17.3507 43.0024,17.2687 43.3304,17.1317 L43.3844,20.4177 C42.7824,20.6357 41.7424,20.8277 40.7844,20.8277 C37.1434,20.8277 35.9394,18.8837 35.9394,15.9827 L35.9394,10.2337 L33.7494,10.2337 L33.7494,6.8667 L35.9124,6.8667 L35.9124,3.2807 L40.3194,3.2807 L40.3194,6.8667 L43.5214,6.8667 L43.5214,10.2337 L40.3194,10.2337 Z" id="Fill-11" fill="#333333"></path>
                    <path d="M54.5918,14.5589 L54.0178,14.5589 C52.0458,14.5589 49.8288,14.8049 49.8288,16.4199 C49.8288,17.4599 50.8688,17.8169 51.7728,17.8169 C53.5788,17.8169 54.5918,16.7209 54.5918,15.0239 L54.5918,14.5589 Z M46.3528,8.7279 C47.9408,7.2229 50.2118,6.4289 52.4298,6.4289 C57.0008,6.4289 58.6978,8.6729 58.6978,13.6279 L58.6978,20.4989 L54.5918,20.4989 L54.5918,19.0479 L54.5098,19.0479 C53.8248,20.1699 52.2658,20.8279 50.6508,20.8279 C48.4878,20.8279 45.6958,19.7599 45.6958,16.5569 C45.6958,12.6159 50.4868,11.9579 54.4548,11.9579 L54.4548,11.7399 C54.4548,10.3979 53.3878,9.7679 51.9908,9.7679 C50.7048,9.7679 49.4458,10.3979 48.6238,11.1639 L46.3528,8.7279 Z" id="Fill-13" fill="#333333"></path>
                    <path d="M69.545,10.1517 C67.52,10.1517 66.342,11.7127 66.342,13.6007 C66.342,15.4077 67.52,17.0777 69.545,17.0777 C71.598,17.0777 72.858,15.4627 72.858,13.6007 C72.858,11.7397 71.57,10.1517 69.545,10.1517 M69.107,27.0687 C66.726,27.0687 63.933,26.3017 62.099,24.9337 L65.138,22.3557 C66.453,23.0927 67.327,23.4557 68.86,23.4557 C71.488,23.4557 72.72,21.9227 72.72,19.6507 L72.72,18.8297 L72.638,18.8297 C71.789,19.9237 70.312,20.6357 68.505,20.6357 C64.371,20.6357 61.989,17.4057 61.989,13.6287 C61.989,9.8507 64.371,6.4837 68.478,6.4837 C70.175,6.4837 71.871,7.1687 72.83,8.6187 L72.885,8.6187 L72.885,6.8667 L77.127,6.8667 L77.127,19.2127 C77.127,24.5497 73.952,27.0687 69.107,27.0687" id="Fill-15" fill="#333333"></path>
                    <path d="M88.1436,10.1517 C86.0356,10.1517 84.9406,11.8767 84.9406,13.6287 C84.9406,15.3807 86.0626,17.1597 88.1706,17.1597 C90.2786,17.1597 91.4016,15.3807 91.4016,13.6287 C91.4016,11.8767 90.2506,10.1517 88.1436,10.1517 M88.1436,20.9367 C84.0376,20.9367 80.5876,18.0897 80.5876,13.6287 C80.5876,9.1667 84.0376,6.4287 88.1436,6.4287 C92.2776,6.4287 95.7266,9.1667 95.7266,13.6287 C95.7266,18.0897 92.2776,20.9367 88.1436,20.9367" id="Fill-17" fill="#333333"></path>
                    <path d="M108.1251,20.4993 L108.1251,13.0533 C108.1251,11.5483 107.7151,10.1793 106.1001,10.1793 C104.5121,10.1793 103.6901,11.5483 103.6901,13.1073 L103.6901,20.4993 L99.1741,20.4993 L99.1741,6.8663 L103.5261,6.8663 L103.5261,8.7553 L103.5811,8.7553 C104.2111,7.5513 105.7711,6.4833 107.6601,6.4833 C111.3281,6.4833 112.6421,9.3303 112.6421,12.0673 L112.6421,20.4993 L108.1251,20.4993 Z" id="Fill-19" fill="#333333"></path>
                    <mask id="mask-2" fill="white">
                        <use xlink:href="#path-1"></use>
                    </mask>
                    <g id="Clip-22"></g>
                    <path d="M116.708,20.5 L121.197,20.5 L121.197,6.867 L116.708,6.867 L116.708,20.5 Z M118.953,4.978 C117.502,4.978 116.38,3.856 116.38,2.514 C116.38,1.2 117.502,0.05 118.953,0.05 C120.376,0.05 121.526,1.146 121.526,2.514 C121.526,3.91 120.376,4.978 118.953,4.978 L118.953,4.978 Z" id="Fill-21" fill="#333333" mask="url(#mask-2)"></path>
                    <path d="M133.3301,14.5589 L132.7561,14.5589 C130.7841,14.5589 128.5671,14.8049 128.5671,16.4199 C128.5671,17.4599 129.6071,17.8169 130.5111,17.8169 C132.3171,17.8169 133.3301,16.7209 133.3301,15.0239 L133.3301,14.5589 Z M125.0911,8.7279 C126.6791,7.2229 128.9501,6.4289 131.1681,6.4289 C135.7391,6.4289 137.4361,8.6729 137.4361,13.6279 L137.4361,20.4989 L133.3301,20.4989 L133.3301,19.0479 L133.2481,19.0479 C132.5631,20.1699 131.0041,20.8279 129.3891,20.8279 C127.2261,20.8279 124.4341,19.7599 124.4341,16.5569 C124.4341,12.6159 129.2251,11.9579 133.1931,11.9579 L133.1931,11.7399 C133.1931,10.3979 132.1261,9.7679 130.7291,9.7679 C129.4431,9.7679 128.1841,10.3979 127.3621,11.1639 L125.0911,8.7279 Z" id="Fill-23" fill="#333333" mask="url(#mask-2)"></path>
                    <polygon id="Fill-24" fill="#75B671" mask="url(#mask-2)" points="23.769 60 113 60 113 56.5 23.769 56.5"></polygon>
                    <path d="M34.1065,39.264 L31.6435,45.916 L36.5155,45.916 L34.1065,39.264 Z M39.3075,53.471 L37.8025,49.666 L30.3015,49.666 L28.8775,53.471 L23.7875,53.471 L31.9175,34.09 L36.4605,34.09 L44.5085,53.471 L39.3075,53.471 Z" id="Fill-25" fill="#333333" mask="url(#mask-2)"></path>
                    <path d="M55.7217,44.2464 C55.2287,43.5894 54.2427,43.1504 53.3397,43.1504 C51.4507,43.1504 50.1917,44.7664 50.1917,46.6544 C50.1917,48.5444 51.4237,50.1314 53.3947,50.1314 C54.2977,50.1314 55.2837,49.7754 55.8307,49.1184 L58.3227,52.1574 C57.1997,53.2524 55.2837,53.9094 53.2847,53.9094 C48.9877,53.9094 45.6477,51.1724 45.6477,46.6544 C45.6477,42.2204 49.0147,39.4004 53.2577,39.4004 C55.2007,39.4004 57.2537,40.1404 58.3227,41.2344 L55.7217,44.2464 Z" id="Fill-26" fill="#333333" mask="url(#mask-2)"></path>
                    <path d="M66.5772,43.2063 L66.5772,48.4063 C66.5772,49.6663 66.9872,50.3233 68.2732,50.3233 C68.7122,50.3233 69.2602,50.2413 69.5882,50.1033 L69.6422,53.3893 C69.0402,53.6073 68.0002,53.8003 67.0422,53.8003 C63.4012,53.8003 62.1972,51.8553 62.1972,48.9543 L62.1972,43.2063 L60.0072,43.2063 L60.0072,39.8393 L62.1702,39.8393 L62.1702,36.2533 L66.5772,36.2533 L66.5772,39.8393 L69.7792,39.8393 L69.7792,43.2063 L66.5772,43.2063 Z" id="Fill-27" fill="#333333" mask="url(#mask-2)"></path>
                    <path d="M72.934,53.471 L77.423,53.471 L77.423,39.839 L72.934,39.839 L72.934,53.471 Z M75.179,37.95 C73.728,37.95 72.606,36.827 72.606,35.487 C72.606,34.172 73.728,33.023 75.179,33.023 C76.602,33.023 77.752,34.117 77.752,35.487 C77.752,36.882 76.602,37.95 75.179,37.95 L75.179,37.95 Z" id="Fill-28" fill="#333333" mask="url(#mask-2)"></path>
                    <path d="M88.3536,43.1233 C86.2456,43.1233 85.1506,44.8483 85.1506,46.6003 C85.1506,48.3523 86.2726,50.1313 88.3806,50.1313 C90.4886,50.1313 91.6116,48.3523 91.6116,46.6003 C91.6116,44.8483 90.4606,43.1233 88.3536,43.1233 M88.3536,53.9093 C84.2476,53.9093 80.7976,51.0613 80.7976,46.6003 C80.7976,42.1383 84.2476,39.4003 88.3536,39.4003 C92.4876,39.4003 95.9356,42.1383 95.9356,46.6003 C95.9356,51.0613 92.4876,53.9093 88.3536,53.9093" id="Fill-29" fill="#333333" mask="url(#mask-2)"></path>
                    <path d="M108.335,53.471 L108.335,46.026 C108.335,44.52 107.925,43.151 106.31,43.151 C104.722,43.151 103.9,44.52 103.9,46.08 L103.9,53.471 L99.384,53.471 L99.384,39.839 L103.736,39.839 L103.736,41.728 L103.791,41.728 C104.421,40.523 105.981,39.455 107.87,39.455 C111.538,39.455 112.852,42.302 112.852,45.04 L112.852,53.471 L108.335,53.471 Z" id="Fill-30" fill="#333333" mask="url(#mask-2)"></path>
                    <polygon id="Fill-31" fill="#F3C500" mask="url(#mask-2)" points="112.0001 93.9998 25.6131 93.9998 25.6131 90.4998 112.0001 90.4998 114.0001 92.2498"></polygon>
                    <polygon id="Fill-32" fill="#333333" mask="url(#mask-2)" points="48.0782 87.4427 43.4512 87.4427 39.6192 74.3307 39.5372 74.3307 35.7052 87.4427 31.0512 87.4427 25.5492 68.0617 30.5862 68.0617 33.6512 80.9557 33.7332 80.9557 37.1822 68.0617 42.0562 68.0617 45.5322 80.9557 45.6142 80.9557 48.7342 68.0617 53.6072 68.0617"></polygon>
                    <path d="M61.9747,77.095 C59.8667,77.095 58.7717,78.82 58.7717,80.572 C58.7717,82.324 59.8937,84.103 62.0017,84.103 C64.1097,84.103 65.2327,82.324 65.2327,80.572 C65.2327,78.82 64.0817,77.095 61.9747,77.095 M61.9747,87.881 C57.8687,87.881 54.4187,85.033 54.4187,80.572 C54.4187,76.11 57.8687,73.372 61.9747,73.372 C66.1087,73.372 69.5567,76.11 69.5567,80.572 C69.5567,85.033 66.1087,87.881 61.9747,87.881" id="Fill-33" fill="#333333" mask="url(#mask-2)"></path>
                    <path d="M81.8458,77.4788 C81.4358,77.3698 81.0518,77.3408 80.6968,77.3408 C78.2868,77.3408 77.4928,79.3128 77.4928,80.4348 L77.4928,87.4428 L73.0038,87.4428 L73.0038,73.8108 L77.3288,73.8108 L77.3288,75.7818 L77.3838,75.7818 C78.0688,74.4128 79.4088,73.4268 81.0788,73.4268 C81.4358,73.4268 81.8188,73.4548 82.0368,73.5368 L81.8458,77.4788 Z" id="Fill-34" fill="#333333" mask="url(#mask-2)"></path>
                    <polygon id="Fill-35" fill="#333333" mask="url(#mask-2)" points="99.1797 87.4427 93.6217 87.4427 89.1597 80.9007 89.0777 80.9007 89.0777 87.4427 84.5617 87.4427 84.5617 66.7487 89.0777 66.7487 89.0777 79.3397 89.1597 79.3397 93.5127 73.8107 98.9597 73.8107 93.7037 79.9687"></polygon>
                    <path d="M109.9659,77.8343 C109.2539,77.1493 108.2139,76.6033 107.1189,76.6033 C106.2709,76.6033 105.4219,76.9033 105.4219,77.6973 C105.4219,78.4643 106.1609,78.6833 107.9129,79.0653 C109.9929,79.5313 112.2659,80.5713 112.2659,83.2273 C112.2659,86.6763 109.2269,87.8813 106.4349,87.8813 C104.2179,87.8813 101.9179,87.1423 100.4939,85.7723 L103.0129,83.1173 C103.8069,83.9933 105.0389,84.6503 106.3529,84.6503 C107.0919,84.6503 107.9679,84.3493 107.9679,83.4733 C107.9679,82.6253 107.1189,82.3513 105.2579,81.9133 C103.3689,81.4753 101.2879,80.5173 101.2879,77.9433 C101.2879,74.6873 104.3549,73.3723 106.9549,73.3723 C108.9809,73.3723 111.0879,74.0293 112.4299,75.2883 L109.9659,77.8343 Z" id="Fill-36" fill="#333333" mask="url(#mask-2)"></path>
                </g>
            </g>
        </g>
    </g>
</svg>