<svg xmlns="http://www.w3.org/2000/svg" viewBox="0 0 500 112">
  <defs/>
  <path d="M23.3 35c4-2.5 7.3-4.1 11.5-4.1 10.9 0 19.3 8.8 19.3 21.9 0 12.9-8.1 25.8-22.1 25.8-2.7 0-6.2-.4-8.8-1.7 0 0-.4-.2-.4.3v7.9s0 .8.5.8h5.1s.5 0 .5.6v4.3c0 .4-.4.6-.4.6H3s-.7 0-.7-.6v-4.3c0-.7.5-.6.5-.6h2.1c.6 0 .6-.6.6-.6V41.4c0-.6-.5-.4-.5-.4l-2.3.6s-.4.2-.4-.4v-4.6c0-.6.4-.6.4-.6l19.7-5s.4-.2.4.4v3.4c0 .5.5.2.5.2m-.5 6.7v22.5c0 4 1.3 7.4 5.9 7.4 5.7 0 8.1-3.5 8.1-13.7 0-16.5-8.3-17.3-11.2-17.3l-2.3.4c0-.1-.5.1-.5.7m384.9 30h2.1c.7 0 .6.5.6.5v4.5c0 .7-.7.5-.7.5h-17.9s-.4.1-.5-.5c-.3-1.1-.6-2.3-.8-3.2-.2-1-.8 0-.8 0-3.7 3-7.7 5.2-12.8 5.2-8.6 0-15-5.4-15-13.9 0-10.6 6.8-16.6 15.2-16.6l12.8-.4s.2 0 .2-.5v-1.4c0-3.8-2.1-5.3-6.2-5.3-5.3 0-7.8 1.9-10.2 5 0 0-.2.4-.7.2-.5-.3-5.1-1.8-5.1-1.8s-.4 0-.2-.6c.3-.5 5.7-14 5.7-14s0-.4.5-.3c.7.3 4.2 1.3 4.8 1.6.5.3.4.7.4.7s-.2.6-.4 1.1c-.4 1.1.4.6.4.6 3.5-1.4 7.1-1.9 10.9-1.9 10.6 0 17.5 4.4 17.5 15.2V71c-.2-.2-.3.7.2.7m-18.1-18.2h-2.3c-4.7 0-8.1 3.2-8.1 7.9 0 3.6 1.1 7.6 5.7 7.6 4.4 0 5.2-3.2 5.2-6.7v-8.4c0-.1.1-.4-.5-.4M222 32.2c-1-.6-1.1-.7-3.1-.6-1.1.1-1.7 1.1-1.7 2 0 1.8 8.8 4.6 8.8 15.4 0 14.2-13.2 17.2-24.5 20 0 0-1.3.3 0 .4 7.6.7 23 2.6 23 12.7 0 10-13.7 12.3-19.3 12.3-8.3 0-16.8-1.8-16.8-9.2 0-4.3 4.6-7.1 8.5-7.8 0 0 1.1-.2 0-.4-1.3-.2-8.8-.8-11.5-.3 0 0-.6.1-.8-.4-.3-.6-1.8-4.6-1.9-4.9-.3-.7.3-.7.3-.7 5.6-.9 10.4-3.9 12.8-4.6 1.2-.4 0-.5 0-.5-7.9-1.4-15.6-6.7-15.6-16.1 0-13.1 10.8-18.8 21-18.8 4.7 0 7.4.8 10 1.1 0 0 .4.2.5-.4.3-.8 1-3.1 1-3.1 1.1-3.4 2.8-4.7 8-4.7 1 0 2 .2 3 .3 0 0 .5-.2.4.4-.1.5-1.8 7.1-1.8 7.5 0 .9-.3.4-.3.4m-18.8 47.3c-.7.7-1.4 3.8-1.4 5.8 0 2.3 1.2 4.7 3.9 4.7 2.4 0 3.6-1.1 3.6-3.4 0-4-2.3-5.4-5.3-7.4-.1 0-.4-.2-.8.3m-7.4-36.7c0 4.9 2.9 18.7 10 18.7 3.5 0 4.9-1.8 4.9-6.1 0-4.9-2.9-18.7-10-18.7-3.5 0-4.9 1.6-4.9 6.1m-18.3 28.9h2.1c.7 0 .6.5.6.5v4.5c0 .7-.7.5-.7.5h-17.9s-.4.1-.5-.5c-.3-1.1-.6-2.3-.8-3.2-.2-1-.8 0-.8 0-3.7 3-7.7 5.2-12.8 5.2-8.6 0-15-5.4-15-13.9 0-10.6 6.8-16.6 15.2-16.6l12.8-.4s.2 0 .2-.5v-1.4c0-3.8-2.1-5.3-6.2-5.3-5.3 0-7.8 1.9-10.2 5 0 0-.2.4-.7.2-.5-.3-5.1-1.8-5.1-1.8s-.4 0-.2-.6c.3-.5 5.7-14 5.7-14s0-.4.5-.3c.7.3 4.2 1.3 4.8 1.6.5.3.4.7.4.7s-.2.6-.4 1.1c-.4 1.1.4.6.4.6 3.5-1.4 7.1-1.9 10.9-1.9 10.6 0 17.5 4.4 17.5 15.2V71c-.1-.2-.2.7.2.7m-18-18.2h-2.3c-4.7 0-8.1 3.2-8.1 7.9 0 3.6 1.1 7.6 5.7 7.6 4.4 0 5.2-3.2 5.2-6.7v-8.4c-.1-.1 0-.4-.5-.4m191.6-36.4c4 0 8.4 1.1 8.4 5.8 0 5.8-7.4 7.8-12.2 7.8-3.8 0-6.4-1.9-6.4-5.7 0-4.5 6.1-7.9 10.2-7.9m7.2 13.9l-19.9 5.4s-.4 0-.4.4v4.5c0 .6.6.4.6.4s1.3-.3 2.5-.4c.5-.1.4.4.4.8v29.2s.2.4-.4.4h-2.8s-.4-.2-.4.4v4.6c0 .5.4.4.4.4h23.2c.5 0 .4-.4.4-.4V72c0-.6-.4-.4-.4-.4h-2.4c-.5 0-.4-.4-.4-.4V31.3c0-.6-.4-.3-.4-.3m-24 46.2h-23.2s-.4.1-.4-.4v-4.7c0-.4.5-.4.5-.4h2.7c.4 0 .4-.4.4-.4V45.8c0-2.6-2.5-4-5-4-3.1 0-5.3 1.7-7.4 3.5 0 0-.4.3-.4.7v25.4s-.1.4.4.4h2.9s.4-.2.4.4v4.7c0 .4-.4.4-.4.4h-23.6s-.3.2-.3-.4v-4.6c0-.5.3-.4.3-.4h2.7c.4 0 .4-.4.4-.4V41.3s.3-.5-.4-.4c-.7.3-2.4.7-2.4.7s-.4.3-.4-.3v-4.6c0-.5.4-.5.4-.5l19.9-5.3s.4-.3.4.3v6.6c0 .7.4.1.4.1 4.6-3.6 9.4-7.1 15.7-7.1 12 0 13.7 8 13.7 13v27.4s0 .4.4.4h2.5s.4-.1.4.4v4.7c-.2.7-.6.5-.6.5m-89-29.1c0 6.6 2.8 23.5 12.3 23.5 5.1 0 6.4-5.4 6.4-10.3 0-6.6-2.8-23.5-12.3-23.5-6.4 0-6.4 7-6.4 10.3m-17.4 6.5c0-14.7 11.6-23.8 26.6-23.8 15.1 0 26.7 9.1 26.7 23.8 0 14.8-11.6 23.9-26.7 23.9-14.9 0-26.6-9-26.6-23.9M100.8 34.2c7.1-2 13.4-6.7 16.4-13.4 0 0 .1-.5.5-.4.5.1 4.1.7 4.9.9.5.1.4.4.4.4-.4 2.2-.5 4.8-.5 6.7v3.3c0 .5.4.4.4.4h7.7c.4 0 .3.4.3.4s-1.1 5.7-1.3 6.3c-.1.5-.5.4-.5.4H123c-.5 0-.4.4-.4.4v26.1c0 2.8 2.5 3.4 3.9 3.4s1.7 0 2.8-.5c0 0 .4-.4.5.2.2.4 1.7 4.2 1.8 4.6.2.4-.2.6-.2.6-6 4.4-6.7 4.6-14.3 4.6-8.6 0-11.9-4.1-11.9-12.1V39.7s.1-.4-.4-.4h-3.9s-.4.2-.4-.4v-4.2c0-.4.3-.5.3-.5m-1.1 37.5h2.1c.7 0 .6.5.6.5v4.5c0 .7-.7.5-.7.5H83.9s-.4.1-.5-.5c-.3-1.1-.6-2.3-.8-3.2-.2-1-.8 0-.8 0-3.7 2.9-7.7 5.1-12.8 5.1-8.6 0-15-5.4-15-13.9 0-10.6 6.8-16.6 15.2-16.6l12.8-.5s.2 0 .2-.5v-1.4c0-3.8-2.1-5.3-6.2-5.3-5.3 0-7.8 1.9-10.2 5 0 0-.2.4-.7.2-.5-.3-5.1-1.8-5.1-1.8s-.4 0-.2-.6c.3-.5 5.7-14 5.7-14s0-.4.5-.3c.7.3 4.2 1.3 4.8 1.6.5.3.4.7.4.7s-.2.6-.4 1.1c-.4 1.1.4.6.4.6 3.5-1.4 7.1-1.9 10.9-1.9 10.6 0 17.5 4.4 17.5 15.2V71c-.2-.2-.3.7.1.7m-18-18.2h-2.3c-4.7 0-8.1 3.2-8.1 7.9 0 3.6 1.1 7.6 5.7 7.6 4.4 0 5.2-3.2 5.2-6.7v-8.4c-.1-.1 0-.4-.5-.4"/>
</svg>
