<?xml version="1.0" encoding="utf-8"?>
<!-- Generator: Adobe Illustrator 22.0.0, SVG Export Plug-In . SVG Version: 6.00 Build 0)  -->
<svg version="1.1" id="Layer_1" xmlns="http://www.w3.org/2000/svg" xmlns:xlink="http://www.w3.org/1999/xlink" x="0px" y="0px"
	 viewBox="0 0 1024 1024" style="enable-background:new 0 0 1024 1024;" xml:space="preserve">
<style type="text/css">
	.st0{fill-rule:evenodd;clip-rule:evenodd;}
	.st1{fill:#333333;}
	.st2{fill-rule:evenodd;clip-rule:evenodd;fill:#6B8CE9;}
	.st3{fill:#6B8CE9;}
	.st4{fill-rule:evenodd;clip-rule:evenodd;fill:#75B671;}
	.st5{fill:#F3C500;}
</style>
<g>
	<g>
		<path class="st1" d="M181.7,261.4c0,7.3-1.3,13.4-4,18.4c-2.7,5-6.3,9-10.9,12c-4.6,3-9.8,5.3-15.8,6.7c-6,1.4-12.2,2.1-18.6,2.1
			h-14.9v46.9H87.3V223.1H133c6.8,0,13.2,0.7,19.1,2c5.9,1.3,11.1,3.5,15.5,6.5c4.4,3,7.9,6.9,10.4,11.8
			C180.4,248.3,181.7,254.3,181.7,261.4z M151.6,261.6c0-2.9-0.6-5.3-1.8-7.2c-1.2-1.9-2.8-3.3-4.7-4.4c-2-1.1-4.2-1.8-6.8-2.1
			c-2.5-0.4-5.1-0.5-7.8-0.5h-13.2v29.4H130c2.8,0,5.5-0.2,8.1-0.7c2.6-0.5,4.9-1.3,6.9-2.5c2-1.2,3.7-2.7,4.8-4.7
			C151,267,151.6,264.5,151.6,261.6z"/>
		<path class="st1" d="M191.6,272c5.2-4.9,11.2-8.6,18-11.1c6.9-2.5,13.9-3.7,21-3.7c7.4,0,13.6,0.9,18.7,2.7
			c5.1,1.8,9.2,4.6,12.4,8.4c3.2,3.8,5.5,8.6,6.9,14.4c1.5,5.8,2.2,12.7,2.2,20.7v44.1h-26.4v-9.3H244c-2.2,3.6-5.6,6.4-10.1,8.4
			c-4.5,2-9.4,3-14.7,3c-3.5,0-7.2-0.5-10.9-1.4c-3.8-0.9-7.2-2.5-10.3-4.6c-3.1-2.1-5.7-4.9-7.6-8.4c-2-3.5-3-7.9-3-13
			c0-6.3,1.7-11.4,5.2-15.3c3.5-3.9,7.9-6.9,13.4-9s11.5-3.5,18.2-4.2c6.7-0.7,13.2-1.1,19.5-1.1v-1.4c0-4.3-1.5-7.5-4.6-9.6
			c-3-2-6.8-3.1-11.3-3.1c-4.1,0-8.1,0.9-11.9,2.6c-3.8,1.8-7.1,3.9-9.8,6.3L191.6,272z M244.5,309.4h-3.7c-3.2,0-6.4,0.1-9.6,0.4
			c-3.2,0.3-6.1,0.9-8.6,1.7c-2.5,0.8-4.6,2-6.2,3.6c-1.6,1.6-2.5,3.7-2.5,6.2c0,1.6,0.4,3,1.1,4.2c0.8,1.2,1.7,2.1,2.9,2.8
			c1.2,0.7,2.5,1.2,4,1.5c1.5,0.3,3,0.4,4.4,0.4c5.9,0,10.3-1.6,13.4-4.8c3.1-3.2,4.7-7.6,4.7-13.1V309.4z"/>
		<path class="st1" d="M326.3,281.5V315c0,4.1,0.8,7.2,2.4,9.3c1.6,2.1,4.4,3.1,8.5,3.1c1.4,0,2.9-0.1,4.5-0.4
			c1.6-0.2,2.9-0.6,4-1.1l0.4,21.1c-2,0.7-4.5,1.3-7.6,1.8c-3,0.5-6.1,0.8-9.1,0.8c-5.9,0-10.8-0.7-14.8-2.2c-4-1.5-7.2-3.6-9.6-6.3
			c-2.4-2.8-4.1-6.1-5.2-9.9c-1.1-3.8-1.6-8.1-1.6-12.8v-37h-14.1V260H298v-23h28.3v23h20.6v21.4H326.3z"/>
		<path class="st1" d="M367.1,272c5.2-4.9,11.2-8.6,18-11.1c6.9-2.5,13.9-3.7,21-3.7c7.4,0,13.6,0.9,18.7,2.7
			c5.1,1.8,9.2,4.6,12.4,8.4c3.2,3.8,5.5,8.6,6.9,14.4c1.5,5.8,2.2,12.7,2.2,20.7v44.1H420v-9.3h-0.5c-2.2,3.6-5.6,6.4-10.1,8.4
			c-4.5,2-9.4,3-14.7,3c-3.5,0-7.2-0.5-10.9-1.4c-3.8-0.9-7.2-2.5-10.3-4.6c-3.1-2.1-5.7-4.9-7.6-8.4c-2-3.5-3-7.9-3-13
			c0-6.3,1.7-11.4,5.2-15.3c3.5-3.9,7.9-6.9,13.4-9s11.5-3.5,18.2-4.2c6.7-0.7,13.2-1.1,19.5-1.1v-1.4c0-4.3-1.5-7.5-4.6-9.6
			c-3-2-6.8-3.1-11.3-3.1c-4.1,0-8.1,0.9-11.9,2.6c-3.8,1.8-7.1,3.9-9.8,6.3L367.1,272z M420,309.4h-3.7c-3.2,0-6.4,0.1-9.6,0.4
			c-3.2,0.3-6.1,0.9-8.6,1.7c-2.5,0.8-4.6,2-6.2,3.6c-1.6,1.6-2.5,3.7-2.5,6.2c0,1.6,0.4,3,1.1,4.2c0.8,1.2,1.7,2.1,2.9,2.8
			c1.2,0.7,2.5,1.2,4,1.5c1.5,0.3,3,0.4,4.4,0.4c5.9,0,10.3-1.6,13.4-4.8c3.1-3.2,4.7-7.6,4.7-13.1V309.4z"/>
		<path class="st1" d="M680.6,303.5c0,7.2-1.3,13.6-3.9,19.4c-2.6,5.8-6.1,10.7-10.5,14.8c-4.5,4-9.6,7.2-15.5,9.4
			c-5.9,2.2-12.1,3.3-18.8,3.3c-6.6,0-12.8-1.1-18.7-3.3c-5.9-2.2-11.1-5.4-15.5-9.4c-4.4-4-7.9-9-10.5-14.8
			c-2.6-5.8-3.9-12.3-3.9-19.4c0-7.1,1.3-13.6,3.9-19.3c2.6-5.7,6.1-10.6,10.5-14.6c4.4-4,9.6-7,15.5-9.1c5.9-2.1,12.2-3.2,18.7-3.2
			c6.7,0,12.9,1.1,18.8,3.2c5.9,2.1,11,5.2,15.5,9.1c4.5,4,8,8.9,10.5,14.6C679.3,289.9,680.6,296.3,680.6,303.5z M652.9,303.5
			c0-2.8-0.5-5.6-1.4-8.3c-0.9-2.7-2.3-5.1-4-7.1c-1.8-2-3.9-3.7-6.5-5c-2.6-1.3-5.6-1.9-9-1.9c-3.4,0-6.4,0.6-9,1.9
			c-2.6,1.3-4.7,3-6.4,5c-1.7,2.1-3,4.4-3.9,7.1c-0.9,2.7-1.3,5.5-1.3,8.3c0,2.8,0.4,5.6,1.3,8.3c0.9,2.7,2.2,5.1,4,7.3
			c1.8,2.2,3.9,3.9,6.5,5.2c2.6,1.3,5.6,1.9,9,1.9c3.4,0,6.4-0.6,9-1.9c2.6-1.3,4.7-3,6.5-5.2c1.8-2.2,3.1-4.6,4-7.3
			C652.4,309,652.9,306.3,652.9,303.5z"/>
		<path class="st1" d="M757.9,347.6v-47.8c0-2.5-0.2-4.8-0.6-7c-0.4-2.2-1.1-4.2-2-5.9c-0.9-1.7-2.3-3-4-4c-1.7-1-3.8-1.5-6.4-1.5
			c-2.6,0-4.8,0.5-6.8,1.5c-1.9,1-3.5,2.4-4.8,4.1c-1.3,1.8-2.3,3.8-2.9,6.1c-0.6,2.3-1,4.7-1,7.1v47.5h-29V260h28v12.1h0.4
			c1.1-1.9,2.4-3.7,4.1-5.5c1.7-1.8,3.7-3.4,6-4.7c2.3-1.3,4.8-2.3,7.5-3.2c2.7-0.8,5.6-1.2,8.6-1.2c5.9,0,10.8,1.1,14.9,3.2
			c4.1,2.1,7.4,4.8,9.9,8.2c2.5,3.3,4.3,7.2,5.5,11.5c1.1,4.3,1.7,8.7,1.7,13v54.1H757.9z"/>
		<path class="st1" d="M842.5,232.1c0,2.2-0.4,4.3-1.3,6.2c-0.9,1.9-2.1,3.6-3.5,5c-1.5,1.4-3.2,2.5-5.3,3.3
			c-2.1,0.8-4.2,1.2-6.4,1.2c-4.7,0-8.6-1.6-11.8-4.7c-3.2-3.1-4.7-6.8-4.7-11.2c0-2.1,0.4-4.1,1.2-6.1c0.8-1.9,2-3.6,3.5-5
			c1.5-1.4,3.3-2.5,5.3-3.4c2-0.9,4.2-1.3,6.5-1.3c2.2,0,4.4,0.4,6.4,1.2c2,0.8,3.8,1.9,5.3,3.3c1.5,1.4,2.6,3.1,3.5,5
			C842,227.8,842.5,229.9,842.5,232.1z M811.5,347.6V260h28.8v87.6H811.5z"/>
		<path class="st1" d="M864.5,272c5.2-4.9,11.2-8.6,18-11.1c6.9-2.5,13.9-3.7,21-3.7c7.4,0,13.6,0.9,18.7,2.7
			c5.1,1.8,9.2,4.6,12.4,8.4c3.2,3.8,5.5,8.6,6.9,14.4c1.5,5.8,2.2,12.7,2.2,20.7v44.1h-26.4v-9.3h-0.5c-2.2,3.6-5.6,6.4-10.1,8.4
			c-4.5,2-9.4,3-14.7,3c-3.5,0-7.2-0.5-10.9-1.4c-3.8-0.9-7.2-2.5-10.3-4.6c-3.1-2.1-5.7-4.9-7.6-8.4c-2-3.5-3-7.9-3-13
			c0-6.3,1.7-11.4,5.2-15.3c3.5-3.9,7.9-6.9,13.4-9c5.5-2.1,11.5-3.5,18.2-4.2c6.7-0.7,13.2-1.1,19.5-1.1v-1.4
			c0-4.3-1.5-7.5-4.6-9.6c-3-2-6.8-3.1-11.3-3.1c-4.1,0-8.1,0.9-11.9,2.6c-3.8,1.8-7.1,3.9-9.8,6.3L864.5,272z M917.4,309.4h-3.7
			c-3.2,0-6.4,0.1-9.6,0.4c-3.2,0.3-6.1,0.9-8.6,1.7c-2.5,0.8-4.6,2-6.2,3.6c-1.6,1.6-2.5,3.7-2.5,6.2c0,1.6,0.4,3,1.1,4.2
			c0.8,1.2,1.7,2.1,2.9,2.8c1.2,0.7,2.5,1.2,4,1.5c1.5,0.3,3,0.4,4.4,0.4c5.9,0,10.3-1.6,13.4-4.8c3.1-3.2,4.7-7.6,4.7-13.1V309.4z"
			/>
		<path class="st1" d="M508.4,348.4c11.6,0,21.1-4.6,26.5-11.6h0.5v5.3c0,14.6-7.9,24.4-24.8,24.4c-9.8,0-15.8-2.5-24.2-7.2
			L467.3,376c11.8,8.8,29.7,13.7,45,13.7c31.1,0,51.5-16.2,51.5-50.4V260h-27.2v11.2h-0.4c-6.2-9.3-17-13.7-27.9-13.7
			c-26.4,0-41.7,21.6-41.7,45.9C466.6,327.7,481.9,348.4,508.4,348.4z M515.1,281.1c13,0,21.3,10.2,21.3,22.1
			c0,12-8.1,22.3-21.3,22.3c-13,0-20.6-10.7-20.6-22.3C494.5,291.1,502.1,281.1,515.1,281.1z"/>
		<path class="st2" d="M947,364.9H578.2c-3,8.7-8,17-14,22.4H947V364.9z"/>
		<g>
			<path class="st3" d="M87.2,364.9h371.7l-12.5,11.2l12.5,11.2H87.2l-11.6-11.2L87.2,364.9z"/>
		</g>
	</g>
	<g>
		<path class="st1" d="M329.3,558.3l-9.7-24.4h-48.2l-9.1,24.4h-32.7l52.2-124.5H311l51.7,124.5H329.3z M295.9,467l-15.8,42.7h31.3
			L295.9,467z"/>
		<path class="st1" d="M434.1,499c-1.6-2.1-3.9-3.8-6.7-5.1c-2.8-1.3-5.7-1.9-8.6-1.9c-3,0-5.8,0.6-8.3,1.8
			c-2.5,1.2-4.6,2.9-6.3,4.9c-1.8,2.1-3.1,4.4-4.1,7.1c-1,2.7-1.5,5.6-1.5,8.6c0,3,0.5,5.9,1.4,8.6c0.9,2.7,2.3,5.1,4.1,7.1
			c1.8,2.1,4,3.7,6.5,4.8c2.5,1.2,5.4,1.8,8.5,1.8c2.9,0,5.8-0.6,8.7-1.7c2.9-1.1,5.2-2.7,6.9-4.8l16,19.5
			c-3.6,3.5-8.3,6.3-14.1,8.3c-5.7,2-11.8,3-18.3,3c-6.9,0-13.4-1.1-19.4-3.2c-6-2.1-11.2-5.2-15.6-9.2c-4.4-4-7.9-8.9-10.4-14.7
			c-2.5-5.7-3.8-12.2-3.8-19.5c0-7.1,1.3-13.6,3.8-19.3c2.5-5.7,6-10.6,10.4-14.7c4.4-4,9.6-7.1,15.6-9.3c6-2.2,12.4-3.3,19.2-3.3
			c3.2,0,6.3,0.3,9.4,0.9c3.1,0.6,6.1,1.4,9,2.4c2.9,1,5.5,2.2,7.9,3.7c2.4,1.5,4.5,3.1,6.2,4.8L434.1,499z"/>
		<path class="st1" d="M504.8,492.2v33.5c0,4.1,0.8,7.2,2.4,9.3c1.6,2.1,4.4,3.1,8.5,3.1c1.4,0,2.9-0.1,4.5-0.4
			c1.6-0.2,2.9-0.6,4-1.1l0.4,21.1c-2,0.7-4.5,1.3-7.6,1.8c-3,0.5-6.1,0.8-9.1,0.8c-5.9,0-10.8-0.7-14.8-2.2c-4-1.5-7.2-3.6-9.6-6.3
			c-2.4-2.8-4.1-6.1-5.2-9.9c-1.1-3.8-1.6-8.1-1.6-12.8v-37h-14.1v-21.4h13.9v-23h28.3v23h20.6v21.4H504.8z"/>
		<path class="st1" d="M578.4,442.8c0,2.2-0.4,4.3-1.3,6.2s-2.1,3.6-3.5,5c-1.5,1.4-3.2,2.5-5.3,3.3c-2.1,0.8-4.2,1.2-6.4,1.2
			c-4.7,0-8.6-1.6-11.8-4.7c-3.2-3.1-4.7-6.8-4.7-11.2c0-2.1,0.4-4.1,1.2-6.1c0.8-1.9,2-3.6,3.5-5c1.5-1.4,3.3-2.5,5.3-3.4
			c2-0.9,4.2-1.3,6.5-1.3c2.2,0,4.4,0.4,6.4,1.2c2,0.8,3.8,1.9,5.3,3.3c1.5,1.4,2.6,3.1,3.5,5C577.9,438.5,578.4,440.5,578.4,442.8z
			 M547.4,558.3v-87.6h28.8v87.6H547.4z"/>
		<path class="st1" d="M692.6,514.1c0,7.2-1.3,13.6-3.9,19.4c-2.6,5.8-6.1,10.7-10.5,14.8c-4.5,4-9.6,7.2-15.5,9.4
			c-5.9,2.2-12.1,3.3-18.8,3.3c-6.6,0-12.8-1.1-18.7-3.3c-5.9-2.2-11.1-5.4-15.5-9.4c-4.4-4-7.9-9-10.5-14.8
			c-2.6-5.8-3.9-12.3-3.9-19.4c0-7.1,1.3-13.6,3.9-19.3c2.6-5.7,6.1-10.6,10.5-14.6c4.4-4,9.6-7,15.5-9.1c5.9-2.1,12.2-3.2,18.7-3.2
			c6.7,0,12.9,1.1,18.8,3.2c5.9,2.1,11,5.2,15.5,9.1c4.5,4,8,8.9,10.5,14.6C691.3,500.5,692.6,507,692.6,514.1z M664.8,514.1
			c0-2.8-0.5-5.6-1.4-8.3c-0.9-2.7-2.3-5.1-4-7.1c-1.8-2-3.9-3.7-6.5-5c-2.6-1.3-5.6-1.9-9-1.9c-3.4,0-6.4,0.6-9,1.9
			c-2.6,1.3-4.7,3-6.4,5c-1.7,2.1-3,4.4-3.9,7.1c-0.9,2.7-1.3,5.5-1.3,8.3s0.4,5.6,1.3,8.3c0.9,2.7,2.2,5.1,4,7.3
			c1.8,2.2,3.9,3.9,6.5,5.2c2.6,1.3,5.6,1.9,9,1.9c3.4,0,6.4-0.6,9-1.9c2.6-1.3,4.7-3,6.5-5.2c1.8-2.2,3.1-4.6,4-7.3
			C664.4,519.7,664.8,517,664.8,514.1z"/>
		<path class="st1" d="M769.2,558.3v-47.8c0-2.5-0.2-4.8-0.6-7c-0.4-2.2-1.1-4.2-2-5.9c-0.9-1.7-2.3-3-4-4c-1.7-1-3.8-1.5-6.4-1.5
			c-2.6,0-4.8,0.5-6.8,1.5c-1.9,1-3.5,2.4-4.8,4.1c-1.3,1.8-2.3,3.8-2.9,6.1c-0.6,2.3-1,4.7-1,7.1v47.5h-29v-87.6h28v12.1h0.4
			c1.1-1.9,2.4-3.7,4.1-5.5c1.7-1.8,3.7-3.4,6-4.7c2.3-1.3,4.8-2.3,7.5-3.2c2.7-0.8,5.6-1.2,8.6-1.2c5.9,0,10.8,1.1,14.9,3.2
			c4.1,2.1,7.4,4.8,9.9,8.2c2.5,3.3,4.3,7.2,5.5,11.5c1.1,4.3,1.7,8.7,1.7,13v54.1H769.2z"/>
		<rect x="226.4" y="575.6" class="st4" width="575" height="22.4"/>
	</g>
	<g>
		<path class="st1" d="M383.5,768.9h-29.7l-24.6-84.2h-0.5l-24.6,84.2h-29.9l-35.3-124.5h32.3l19.7,82.8h0.5l22.2-82.8h31.3
			l22.3,82.8h0.5l20-82.8h31.3L383.5,768.9z"/>
		<path class="st1" d="M515,724.8c0,7.2-1.3,13.6-3.9,19.4c-2.6,5.8-6.1,10.7-10.5,14.8c-4.5,4-9.6,7.2-15.5,9.4
			c-5.9,2.2-12.1,3.3-18.8,3.3c-6.6,0-12.8-1.1-18.7-3.3c-5.9-2.2-11.1-5.4-15.5-9.4c-4.4-4-7.9-9-10.5-14.8
			c-2.6-5.8-3.9-12.3-3.9-19.4c0-7.1,1.3-13.6,3.9-19.3c2.6-5.7,6.1-10.6,10.5-14.6c4.4-4,9.6-7,15.5-9.1c5.9-2.1,12.2-3.2,18.7-3.2
			c6.7,0,12.9,1.1,18.8,3.2c5.9,2.1,11,5.2,15.5,9.1c4.5,4,8,8.9,10.5,14.6C513.8,711.2,515,717.7,515,724.8z M487.3,724.8
			c0-2.8-0.5-5.6-1.4-8.3c-0.9-2.7-2.3-5.1-4-7.1c-1.8-2-3.9-3.7-6.5-5c-2.6-1.3-5.6-1.9-9-1.9c-3.4,0-6.4,0.6-9,1.9
			c-2.6,1.3-4.7,3-6.4,5c-1.7,2.1-3,4.4-3.9,7.1c-0.9,2.7-1.3,5.5-1.3,8.3s0.4,5.6,1.3,8.3c0.9,2.7,2.2,5.1,4,7.3
			c1.8,2.2,3.9,3.9,6.5,5.2c2.6,1.3,5.6,1.9,9,1.9c3.4,0,6.4-0.6,9-1.9c2.6-1.3,4.7-3,6.5-5.2c1.8-2.2,3.1-4.6,4-7.3
			C486.8,730.4,487.3,727.6,487.3,724.8z"/>
		<path class="st1" d="M590.5,705.1c-1.3-0.4-2.5-0.6-3.8-0.7c-1.2-0.1-2.4-0.2-3.6-0.2c-3.9,0-7.1,0.7-9.8,2.1
			c-2.6,1.4-4.7,3.1-6.3,5.1c-1.6,2-2.7,4.2-3.4,6.5s-1.1,4.4-1.1,6.1v44.9h-28.8v-87.4h27.8v12.7h0.4c2.2-4.5,5.4-8.1,9.5-11
			c4.1-2.8,8.8-4.2,14.2-4.2c1.2,0,2.3,0.1,3.4,0.2c1.1,0.1,2,0.3,2.7,0.5L590.5,705.1z"/>
		<path class="st1" d="M701.3,768.9h-35.7l-28.7-42h-0.5v42h-29V636h29v80.9h0.5l28-35.5h35l-33.8,39.6L701.3,768.9z"/>
		<path class="st1" d="M769.9,707.2c-2.3-2.2-5.1-4.1-8.3-5.6c-3.2-1.5-6.5-2.3-10-2.3c-2.7,0-5.2,0.5-7.5,1.6
			c-2.3,1.1-3.4,2.9-3.4,5.5c0,2.5,1.3,4.2,3.8,5.3c2.5,1.1,6.6,2.2,12.2,3.5c3.3,0.7,6.6,1.7,9.9,3c3.3,1.3,6.4,3,9.1,5.1
			c2.7,2.1,4.9,4.7,6.5,7.7c1.6,3,2.5,6.7,2.5,10.9c0,5.5-1.1,10.2-3.3,14c-2.2,3.8-5.1,6.9-8.7,9.2c-3.6,2.3-7.6,4-12,5.1
			c-4.5,1.1-8.9,1.6-13.4,1.6c-7.2,0-14.2-1.1-21-3.4c-6.9-2.3-12.6-5.7-17.1-10.1l16.2-17.1c2.6,2.8,5.7,5.2,9.5,7
			c3.7,1.9,7.7,2.8,12,2.8c2.3,0,4.7-0.6,6.9-1.7c2.3-1.1,3.4-3.1,3.4-5.9c0-2.7-1.4-4.7-4.2-6c-2.8-1.3-7.2-2.6-13.2-4
			c-3-0.7-6.1-1.6-9.1-2.8c-3-1.2-5.8-2.8-8.2-4.7c-2.4-2-4.4-4.5-5.9-7.4c-1.5-2.9-2.3-6.4-2.3-10.5c0-5.3,1.1-9.8,3.3-13.4
			c2.2-3.7,5.1-6.7,8.6-9.1c3.5-2.3,7.4-4.1,11.7-5.2c4.3-1.1,8.5-1.7,12.7-1.7c6.6,0,13,1,19.3,3.1c6.3,2.1,11.6,5.1,15.9,9.2
			L769.9,707.2z"/>
		<polygon class="st5" points="238.8,786.2 777.6,786.2 789,797.4 777.6,808.6 238.8,808.6 		"/>
	</g>
</g>
</svg>
