<svg xmlns="http://www.w3.org/2000/svg" viewBox="0 0 500 112">
  <defs/>
  <path d="M41.4 32.3c4.6-2.8 8.3-4.7 13.1-4.7 12.4 0 22.1 10 22.1 25 0 14.7-9.3 29.5-25.2 29.5-3.1 0-7.1-.4-10-1.9 0 0-.5-.2-.5.3v9s0 .9.6.9h5.8s.6 0 .6.7V96c0 .5-.5.7-.5.7H18.2s-.8 0-.8-.7v-4.9c0-.8.6-.7.6-.7h2.4c.7 0 .7-.7.7-.7V39.6c0-.7-.6-.5-.6-.5l-2.6.7s-.5.2-.5-.5V34c0-.6.5-.5.5-.5l22.5-5.8s.5-.2.5.4V32c-.1.6.5.3.5.3m-.6 7.7v25.7c0 4.6 1.5 8.5 6.7 8.5 6.5 0 9.3-4 9.3-15.7 0-18.8-9.5-19.8-12.8-19.8l-2.6.4s-.6.2-.6.9m439.7 34.2h2.4c.8 0 .7.6.7.6v5.1c0 .8-.8.6-.8.6h-20.4s-.4.1-.6-.6c-.3-1.2-.7-2.6-.9-3.7-.2-1.1-.9 0-.9 0-4.2 3.4-8.8 5.9-14.6 5.9-9.8 0-17.1-6.2-17.1-15.9 0-12.1 7.8-19 17.4-19l14.6-.4s.2 0 .2-.6v-1.6c0-4.3-2.4-6.1-7.1-6.1-6.1 0-8.9 2.2-11.7 5.7 0 0-.2.4-.8.2-.6-.3-5.8-2.1-5.8-2.1s-.5 0-.2-.7c.3-.6 6.5-16 6.5-16s0-.5.6-.3c.8.3 4.8 1.5 5.5 1.8.6.3.4.8.4.8s-.2.7-.4 1.3c-.5 1.2.4.7.4.7 4-1.6 8.1-2.2 12.4-2.2 12.1 0 20 5 20 17.4v28.3c-.2-.2-.3.8.2.8m-20.6-20.8h-2.6c-5.4 0-9.3 3.7-9.3 9 0 4.1 1.2 8.7 6.5 8.7 5 0 5.9-3.7 5.9-7.6v-9.6c0-.1.1-.5-.5-.5M268.4 29.1c-1.1-.7-1.2-.8-3.5-.7-1.3.1-1.9 1.2-1.9 2.3 0 2.1 10.1 5.3 10.1 17.6 0 16.2-15.1 19.6-28 22.8 0 0-1.5.3 0 .4 8.7.8 26.3 3 26.3 14.5 0 11.4-15.6 14.1-22.1 14.1-9.5 0-19.2-2-19.2-10.5 0-4.9 5.2-8.1 9.7-8.9 0 0 1.3-.2 0-.4-1.5-.2-10.1-.9-13.1-.3 0 0-.7.1-.9-.4-.3-.7-2-5.2-2.2-5.6-.3-.8.3-.8.3-.8 6.4-1 11.9-4.4 14.6-5.2 1.4-.4 0-.6 0-.6-9-1.6-17.8-7.7-17.8-18.4 0-15 12.3-21.5 24-21.5 5.4 0 8.5.9 11.4 1.3 0 0 .4.2.6-.4.3-.9 1.1-3.5 1.1-3.5 1.3-3.9 3.2-5.4 9.1-5.4 1.1 0 2.3.2 3.4.3 0 0 .6-.2.5.5-.1.6-2 8.1-2.1 8.6 0 .8-.3.2-.3.2m-21.5 54c-.8.8-1.6 4.3-1.6 6.6 0 2.6 1.4 5.4 4.4 5.4 2.7 0 4.1-1.2 4.1-3.9 0-4.6-2.6-6.2-6.1-8.4 0 0-.3-.2-.8.3m-8.4-41.9c0 5.6 3.3 21.4 11.4 21.4 4 0 5.6-2 5.6-7 0-5.6-3.3-21.4-11.4-21.4-4 0-5.6 1.9-5.6 7m-20.9 33h2.4c.8 0 .7.6.7.6v5.1c0 .8-.8.6-.8.6h-20.4s-.4.1-.6-.6c-.3-1.2-.7-2.6-.9-3.7-.2-1.1-.9 0-.9 0-4.2 3.4-8.8 5.9-14.6 5.9-9.8 0-17.1-6.2-17.1-15.9 0-12.1 7.8-19 17.4-19l14.6-.4s.2 0 .2-.6v-1.6c0-4.3-2.4-6.1-7.1-6.1-6.1 0-8.9 2.2-11.7 5.7 0 0-.2.4-.8.2-.6-.3-5.8-2.1-5.8-2.1s-.5 0-.2-.7c.3-.6 6.5-16 6.5-16s0-.5.6-.3c.8.3 4.8 1.5 5.5 1.8.6.3.4.8.4.8s-.2.7-.4 1.3c-.5 1.2.4.7.4.7 4-1.6 8.1-2.2 12.4-2.2 12.1 0 20 5 20 17.4v28.3c-.2-.2-.3.8.2.8M197 53.4h-2.6c-5.4 0-9.3 3.7-9.3 9 0 4.1 1.2 8.7 6.5 8.7 5 0 5.9-3.7 5.9-7.6v-9.6c0-.1.1-.5-.5-.5m218.9-41.5c4.6 0 9.6 1.2 9.6 6.6 0 6.6-8.5 8.9-13.9 8.9-4.3 0-7.3-2.2-7.3-6.5-.1-5.1 6.9-9 11.6-9m8.2 15.8l-22.7 6.2s-.4 0-.4.5v5.1c0 .7.7.4.7.4s1.5-.3 2.8-.5c.6-.1.5.5.5.9v33.4s.2.5-.5.5h-3.2s-.4-.2-.4.5V80c0 .6.4.4.4.4h26.5c.6 0 .4-.5.4-.5v-5.3c0-.7-.5-.5-.5-.5H425c-.6 0-.4-.4-.4-.4V28.1c0-.7-.5-.4-.5-.4m-27.4 52.8h-26.5s-.5.1-.5-.4v-5.4c0-.5.6-.5.6-.5h3.1c.5 0 .4-.4.4-.4V44.7c0-3-2.8-4.6-5.7-4.6-3.5 0-6 1.9-8.4 4 0 0-.4.3-.4.8v29s-.1.4.4.4h3.3s.5-.2.5.5v5.4c0 .5-.4.4-.4.4h-27s-.3.2-.3-.5v-5.3c0-.6.3-.5.3-.5h3.1c.5 0 .4-.4.4-.4V39.5s.3-.6-.5-.4c-.8.3-2.7.8-2.7.8s-.5.3-.5-.3v-5.3c0-.6.5-.6.5-.6l22.7-6s.5-.3.5.3v7.5c0 .8.5.1.5.1 5.3-4.1 10.7-8.1 17.9-8.1 13.7 0 15.6 9.1 15.6 14.8v31.3s0 .5.4.5h2.8s.4-.1.4.5V80c0 .7-.5.5-.5.5M295 47.3c0 7.5 3.2 26.8 14.1 26.8 5.8 0 7.3-6.2 7.3-11.8 0-7.5-3.2-26.8-14.1-26.8-7.3 0-7.3 8-7.3 11.8m-19.8 7.4c0-16.8 13.3-27.2 30.4-27.2 17.2 0 30.5 10.4 30.5 27.2 0 16.9-13.3 27.3-30.5 27.3-17.1 0-30.4-10.3-30.4-27.3M129.9 31.4c8.1-2.3 15.3-7.7 18.7-15.3 0 0 .1-.6.6-.4.6.1 4.7.8 5.6 1 .6.1.4.5.4.5-.5 2.5-.6 5.5-.6 7.7v3.8c0 .6.4.4.4.4h8.8c.5 0 .3.5.3.5s-1.3 6.5-1.5 7.2c-.1.6-.6.4-.6.4h-7c-.6 0-.5.4-.5.4v29.8c0 3.2 2.8 3.9 4.4 3.9 1.6 0 1.9 0 3.2-.6 0 0 .5-.4.6.2.2.5 1.9 4.8 2.1 5.2.2.5-.2.7-.2.7-6.9 5-7.6 5.2-16.3 5.2-9.8 0-13.6-4.7-13.6-13.8V37.7s.1-.4-.4-.4h-4.5s-.4.2-.4-.5V32c.2-.5.5-.6.5-.6m-1.2 42.8h2.4c.8 0 .7.6.7.6v5.1c0 .8-.8.6-.8.6h-20.4s-.4.1-.6-.6c-.3-1.2-.7-2.6-.9-3.7-.2-1.1-.9 0-.9 0-4.2 3.3-8.8 5.8-14.6 5.8-9.8 0-17.1-6.2-17.1-15.9 0-12.1 7.8-19 17.4-19l14.6-.4s.2 0 .2-.6v-1.6c0-4.3-2.4-6.1-7.1-6.1-6.1 0-8.9 2.2-11.7 5.7 0 0-.2.4-.8.2-.6-.3-5.8-2.1-5.8-2.1s-.5 0-.2-.7c.3-.6 6.5-16 6.5-16s0-.5.6-.3c.8.3 4.8 1.5 5.5 1.8.6.3.4.8.4.8s-.2.7-.4 1.3c-.5 1.2.4.7.4.7 4-1.6 8.1-2.2 12.4-2.2 12.1 0 20 5 20 17.4v28.3c-.2-.1-.3.9.2.9m-20.6-20.8h-2.6c-5.4 0-9.3 3.7-9.3 9 0 4.1 1.2 8.7 6.5 8.7 5 0 5.9-3.7 5.9-7.6v-9.6c0-.1.1-.5-.5-.5"/>
</svg>
