<?xml version="1.0" encoding="utf-8"?>
<!-- Generator: Adobe Illustrator 22.0.0, SVG Export Plug-In . SVG Version: 6.00 Build 0)  -->
<svg version="1.1" id="Layer_1" xmlns="http://www.w3.org/2000/svg" xmlns:xlink="http://www.w3.org/1999/xlink" x="0px" y="0px"
	 viewBox="0 0 116.2 37.4" style="enable-background:new 0 0 116.2 37.4;" xml:space="preserve">
<g>
	<path d="M23.4,17.3c0,6-3.3,12.4-10.6,12.4c-3.6,0-4.8-1-6.3-2.4v5.8c0,4.8-6.5,4.3-6.5,4.3v-32h6v2.7C7.6,5.9,10.2,5,13.7,5
		C19.8,5,23.4,11.2,23.4,17.3 M16.9,17.6L16.9,17.6c0-4-2.1-6.9-5.3-6.9c-3.2,0-5.3,2.8-5.3,6.8v0.1c0,3.9,2.4,6.6,5.3,6.6
		C14.5,24.2,16.9,21.6,16.9,17.6 M26,17.5L26,17.5C26,10.6,30.8,5,37.7,5c7.9,0,10.4,6.3,10.4,10.1c0,3.5-4.3,3.7-5.7,3.7h-9.7
		c0.7,3.1,2.8,5.3,5.8,5.3c2.3,0,5-1.2,6.9-2.9l2.9,4.6c-2.5,2.5-5.9,3.9-9.8,3.9C31.2,29.7,26,24.7,26,17.5 M41.8,14
		c-0.3-2.1-1.6-3.9-4-3.9c-2.2,0-4.5,1.7-4.8,3.9H41.8z M52.7,20.5v-9.3h-2.8V5.4h2.8V0h6.7v5.4h5.1v5.8h-5.1v9c0,1.6,1.1,3.3,3,3.3
		c1.2,0,1.6,0,2.5-0.1v5.8c-1.2,0.3-1.7,0.3-3,0.3C57.4,29.4,52.7,27,52.7,20.5 M66.9,17.5L66.9,17.5C66.9,10.6,72,5,79.3,5
		c2.3,0,4.2,0.4,5.7,1.1c2.9,1.3,4.7,4.2,2.2,6.4c-1.1,1-2.1,1-2.1,1c-0.9-1.3-2-3-5.8-3c-3.4,0-5.8,3.2-5.8,6.7v0.1
		c0,3.6,2.3,6.6,6,6.6c2.3,0,5-1,6.8-3l3.3,4.2c-2.3,2.5-5.6,4.6-10.4,4.6C72.1,29.7,66.9,24.2,66.9,17.5 M90.4,17.5L90.4,17.5
		c0-6.9,5.5-12.5,12.9-12.5c7.4,0,12.8,5.5,12.8,12.3v0.1c0,6.8-5.5,12.4-12.9,12.4C95.9,29.7,90.4,24.3,90.4,17.5 M109.5,17.5
		L109.5,17.5c0-3.6-2.5-6.7-6.3-6.7c-3.9,0-6.2,3-6.2,6.5v0.1c0,3.5,2.5,6.6,6.3,6.6C107.2,23.9,109.5,21,109.5,17.5"/>
</g>
</svg>
