<?xml version="1.0" encoding="utf-8"?>
<!-- Generator: Adobe Illustrator 18.1.1, SVG Export Plug-In . SVG Version: 6.00 Build 0)  -->
<svg version="1.1" id="case-study-marks_xA0_Image_1_"
	 xmlns="http://www.w3.org/2000/svg" xmlns:xlink="http://www.w3.org/1999/xlink" x="0px" y="0px" viewBox="0 0 370 140"
	 enable-background="new 0 0 370 140" xml:space="preserve">
<path fill-rule="evenodd" clip-rule="evenodd" d="M135.5,131c-4.9,0.7-9.8,0.4-14.7,0.6c-1.9-2.4-1.4-5.5-3.1-7.7
	c-4.1-0.7-15.4-0.4-19.1,0.7c0.4,2.3,0.8,4.6,1.2,6.8c-3.6,1-10.9,1.2-15.2,0.5c-2.1-5-4.3-12.8-4.9-17.4c-0.1-0.8-0.2-1.6-0.4-2.4
	c-1.6-6.3-1.9-12.6-1.7-19c0.1-4.2,0.3-8.3,1.4-12.4c0.5-2,1-4,1.4-6.1c0.9-4.4,1.2-8.8,0.7-13.4c-0.9-9.2-1.9-18.4-2.5-27.7
	c-0.5-7.8-0.4-15.7-0.5-23.5c0-0.8,0.1-1.5,0.2-2.2c3.5-1,11.1-1.2,15.5-0.3c0.6,2.4,0.3,5,0.4,7.5c0.1,2.4,0,4.8,0.1,7.2
	c0.1,2.5-0.2,5.1,0.3,7.5c3.8,0.9,14.5,0.9,19.5,0.1c0.7-2.4,0.3-4.9,0.3-7.4c0.1-2.4,0-4.8,0-7.2c0-2.5,0-5.1,0-7.5
	c3.3-1.1,10.8-1.3,15.5-0.5c0.1,1,0.3,2.1,0.4,3.2c0.1,4.6,0.2,9.3,0.2,13.9c0.1,8,0.5,16,1.9,23.9c1,5.8,1.6,11.7,2,17.6
	c0.4,5.3-1,10.5-2.3,15.6c-1.2,4.8-2.1,9.7-2.3,14.6c-0.1,4.2,0,8.3,1.2,12.3c0.3,1.1,0.5,2.2,0.7,3.3c0.6,4.8,1.5,9.5,3.1,14
	C135.3,127.3,135.9,129,135.5,131z M113.2,98.7c0.1-0.9,0.3-1.5,0.3-2.1c0.1-5.9,1-11.8,2.6-17.5c2.2-7.5,2-15.1,0.6-22.8
	c-0.4-2.1-1.4-3.4-3.4-4.2c-4.9-2.2-10-3.2-15.3-3.6c-0.5,0-1.1,0.4-1.8,0.6c0.3,4.5,0.5,8.8,1,13.1c0.5,4.4,0.1,8.6-0.7,12.9
	c-0.4,2.2-0.9,4.4-1.5,6.5c-1.2,4.9-1.6,9.8-1.5,14.8c0,0.9,0.3,1.8,0.4,2.7C98.7,99.6,109,99.5,113.2,98.7z M114.1,107.9
	c-4.9-0.9-16.1-1.3-19-0.7c-0.3,2.7,0.1,5.2,1.2,7.6c6.7,0.2,15.5-1,19-2.6c-0.1-0.9-0.1-1.8-0.4-2.8
	C114.7,108.9,114.4,108.4,114.1,107.9z M191.3,130.7c-7.7-0.3-15.4-1-22.7-3.4c-2.3-0.7-4.5-1.8-6.5-3c-2.8-1.6-4.4-4.2-4.5-7.5
	c-0.2-4-0.8-7.9-2.2-11.7c-0.8-2.3-0.8-4.7,0.1-7.1c0.4-1.1,0.7-2.1,1-3.2c1.4-3.9,2.4-8,2.5-12.2c0.2-6.9,1.4-13.7,0.4-20.6
	c-1.1-7.1-1.7-14.3-3.1-21.3C153.7,27.9,162.1,11.9,177,7c12.2-4,27-1.4,36.2,9.7c4.3,5.2,6.6,11.2,7.7,17.8
	c0.6,3.8,1.3,7.6,1.7,11.4c0.5,3.8,0.8,7.6,1.1,11.4c0.4,5.9,0.7,11.8,1,17.7c0.2,3.6-0.4,7-1.5,10.3c-1.1,3.2-2,6.4-2.8,9.7
	c-0.8,3.8-0.7,7.6,0.7,11.3c1.4,3.6,1.8,7.4,1.7,11.3c-0.1,4.4-2.1,7.3-6.1,8.8c-3.2,1.1-6.4,2.2-9.7,2.7
	C201.8,129.9,196.5,130.2,191.3,130.7z M208.5,73.7c-0.4-6.2-1-11.6-1-17c-0.1-7.6-1.8-14.9-3-22.3c-0.6-3.5-2.2-6.7-4.5-9.4
	c-6.4-7.5-18.3-7.1-24.3,0.8c-3.3,4.3-4.2,9.2-3.5,14.5c0.4,2.4,0.9,4.7,1.3,7.1c0.9,5.8,1.8,11.7,2.6,17.5c0.2,1.9,0.2,3.8,0.1,5.7
	c-0.3,4.5-0.9,8.9-1,13.4c-0.1,4.2-1,8.2-2.5,12.1c-0.3,0.7-0.6,1.5-0.9,2.2c-0.9,2.5-0.9,4.9-0.2,7.5c0.8,3.2,1.6,6.5,1.9,9.8
	c0.4,4,2.4,6.5,6,7.9c7.1,2.6,14.4,2.7,21.6,0.7c3.5-1,5.2-3.4,5.4-7c0.3-3.9-0.5-7.6-1.7-11.3c-2.2-6.5-2-12.9,1-19.1
	C208.2,82.4,209.3,77.9,208.5,73.7z M254,64.9c-1,0.5-2,1-2.9,1.6c-2,1.4-2.1,3.2-0.2,4.7c1.4,1.1,3,1.8,4.5,2.8
	c0.8,0.5,1.6,1,2.2,1.4c0.2,2.6-0.6,4.7-1.4,6.8c-1,2.7-2.1,5.3-3,8.1c-1.8,5.7-2.6,11.4-0.4,17.4c1,2.6,1.3,5.6,1.7,8.4
	c0.6,4.4,1.8,8.8,3.7,12.3c4.3,0,8.6,0,12.9,0c0.6,0,1.2-0.2,1.8-0.3c0.4-1.8-0.3-3.3-0.6-4.8c-0.5-2.2-1.1-4.3-1.4-6.5
	c-0.5-3.7-1-7.3-2.3-10.7c-0.8-2.1-1.1-4.3-0.9-6.6c0.6-7.2,3.6-13.5,6.5-20c3.8,0.7,7.4,1.3,10.8,2c3.4-6.8,3.1-16.1-0.8-22.9
	c-3.5,0.1-7.1,1.3-10.7,1.1c-3.7-8.9-6.7-31.6-4.6-38.4c3.6-0.9,7.5,0.2,11-0.7c0.7-4.7,0.6-9.9-0.2-13.8c-0.7-0.1-1.4-0.3-2.2-0.3
	c-11.7,0-23.3,0-35,0.1c-0.7,0-1.5,0.3-2.4,0.5c0,3.8,0,7.5,0,11.2c0,0.8,0.2,1.5,0.3,2.5c2.9,0.6,5.6,0.2,8.2,0.3
	c1.1,0.1,2.1,0.3,3.3,0.5c0.1,3.8,0.2,7.3,0.4,10.8c0.2,3.5,0.5,7,1,10.5c0.5,3.5,1.3,6.9,1.9,10.4c0.7,3.4,1.3,6.8,2,10.4
	C256,63.9,255,64.4,254,64.9z M299.7,37.1c0.3-11.3,4.3-19.4,11.9-25.6c13.7-11.1,34.9-8.7,46.1,4.9c3.7,4.6,6,9.8,7,15.6
	c0.6,3.8,0.9,7.6,1.4,11.4c0.5,4.1-0.9,7.5-4,10.3c-1.1,1-2.2,1.9-3.3,2.7c-6.1,4.2-12.7,7.2-20,8.8c-5,1.1-9.8,0.7-14.6-0.8
	c-5.2-1.7-10-4.2-14.4-7.4c-4.2-3-7.1-6.9-8.3-11.9C300.6,42,300.1,38.8,299.7,37.1z M333.9,54.6c3.6-0.1,7.1-0.8,10.3-2.4
	c3.8-1.8,6-4.8,5.5-9.2c-0.3-2.9-0.7-5.7-1.1-8.6c-0.4-3.3-1.8-6.1-3.7-8.8c-4.6-6.6-13.6-8.6-20.5-4.5c-6.8,4.1-9.1,10.4-8.3,18.1
	c0.9,8.1,4.4,12.2,12.1,14.2C330.1,54,332,54.2,333.9,54.6z M9,7.5c9.5,0,18.5-0.2,27.4,0.1c7.2,0.2,12.9,3.4,16.4,9.9
	c1.6,3,2.5,6.2,2.7,9.6c0.3,4.2-0.3,8.3-1.9,12.2c-2.4,6.2-7,9.8-13.7,10.2c-3.2,0.2-6.4-0.1-9.6-0.1c-1.2,0-2.5,0.1-3.9,0.1
	c-1.1,7.6,1.2,15.2-1.2,22.7c-4.9-0.4-9.5-1.9-14.2-2.9c-0.2-0.7-0.4-1.3-0.4-1.9c0-1.6,0-3.2,0-4.8c0-7.7,0.1-15.3-1.1-23
	C9,35.5,8.9,31,8.8,26.5c-0.1-5-0.1-9.9-0.1-14.9C8.7,10.4,8.9,9.2,9,7.5z M24.8,21.9c-1,5.1-0.8,10.3,0.5,14.1
	c1.6,0,3.4,0.1,5.1,0.1c1.3,0,2.6,0,3.8-0.2c3.4-0.6,5.3-2.3,5.9-5.3c0.8-4.1-1.4-7.7-5.5-8.5C31.3,21.4,28,21.5,24.8,21.9z
	 M334.4,127.2c-4.9-0.6-9.8-1.1-14.7-1.8c-2-0.3-4-1-6-1.7c-5.6-1.8-9.2-5.5-10.7-11.3c-0.7-2.5-1.6-4.9-2.7-7.1
	c-2.9-5.8-1.4-10.9,2.2-15.6c1.1-1.5,2.7-2.8,4.2-3.8c5.3-3.7,11.1-6.4,17.2-8.3c6.3-1.9,12.7-1.3,18.9,0.7
	c5.5,1.8,10.7,4.3,15.4,7.7c1.3,0.9,2.5,2,3.5,3.2c2.3,2.8,3.5,6.1,2.7,9.8c-0.8,3.6-1.1,7.3-0.9,11c0.4,6.2-3.5,12.9-11.1,14.8
	C346.5,126.3,340.5,126.8,334.4,127.2z M334,119.2c2.1-0.5,4.4-0.9,6.4-1.6c2.9-1.1,4.7-3.2,5-6.4c0.4-3.8,1.3-7.5,2.6-11.2
	c1.1-3.2,0.1-5.9-2-8.4c-1.5-1.8-3.5-2.8-5.7-3.4c-5.3-1.5-10.7-1.6-16,0.3c-1.9,0.7-3.8,1.6-5.5,2.9c-4.5,3.4-5.1,8.4-2,13.1
	c1.7,2.7,3.4,5.4,4.9,8.2c1.2,2.2,2.9,3.8,5.1,4.8C329.1,118.6,331.5,119,334,119.2z M29.5,127.5c0.2,2.4,0.3,4.1,0.4,5.7
	c-3.7,0.9-10,1-14.5,0.4c-5-13.3-7.9-27.1-7.4-41.4c3.3-1.3,7.5-1.6,14.6-1.3c0.5,2.2,0.9,4.4,1.5,6.9c1.6,0.1,3,0.1,4.4,0.1
	c4.6,0.2,9.2,0.3,13.9,0.6c2.9,0.1,5.7,1,8.2,2.3c3,1.6,4.9,3.9,5.1,7.5c0.1,2.5,0.8,5,1.4,7.5c1.3,5.9,0.6,8.5-6.7,10
	c-3.7,0.8-7.6,1-11.4,1.3C35.9,127.4,32.9,127.4,29.5,127.5z M27.6,122.7c3.5-0.1,6.8-0.2,10.1-0.4c0.9-0.1,1.9-0.4,2.8-0.8
	c1.1-0.4,1.6-1.5,1.5-2.7c-0.5-4-3.3-6.7-7.4-6.9c-3-0.2-6,0.4-9.2,1.3C25.7,116.4,25.8,119.4,27.6,122.7z M24.5,108.1
	c3.1,0.3,5.9,0.7,8.7,0.8c1.9,0.1,3.8-0.4,5.4-1.5c1.1-0.8,1-2.5-0.2-3.2c-0.5-0.3-1.1-0.7-1.7-0.7c-3.9-0.2-7.9-0.3-11.8-0.4
	c-0.2,0-0.5,0.4-0.9,0.8C24.1,105.2,24.3,106.5,24.5,108.1z"/>
</svg>
