<svg xmlns="http://www.w3.org/2000/svg" enable-background="new 0 0 500 112" viewBox="0 0 500 112">
  <defs/>
  <defs>
    <filter id="a" width="487" height="80.2" x="2" y="15.7" filterUnits="userSpaceOnUse">
      <feColorMatrix values="1 0 0 0 0 0 1 0 0 0 0 0 1 0 0 0 0 0 1 0"/>
    </filter>
  </defs>
  <mask id="b" width="487" height="80.2" x="2" y="15.7" maskUnits="userSpaceOnUse">
    <g filter="url(#a)">
      <path fill="#fff" fill-rule="evenodd" d="M2.1 15.7H489v80.1H2.1V15.7z" clip-rule="evenodd"/>
    </g>
  </mask>
  <path fill-rule="evenodd" d="M64.6 57v13.6l-4-4-16.9 16.8h-1.6c-2.8 0-5.6-.4-8.4-1.2L55 61l-4-4h13.6zm-8.8-9.2L25.3 78.2c-2-1.6-4-3.6-5.6-5.6l30.8-30.8-4-4h13.6v13.6c.1 0-4.3-3.6-4.3-3.6zm-18.9-4.4L15.7 64.6c-.8-2.8-1.6-5.6-1.6-8.8v-1.6l16.8-16.8-4-4h13.6V47l-3.6-3.6zm5.2 42.8c-16.8 0-30.5-13.6-30.5-30.4s13.6-30.5 30.5-30.5S72.6 39 72.6 55.8 59 86.2 42.1 86.2zm0-70.5c-22 0-40.1 18-40.1 40.1 0 22 18 40.1 40.1 40.1s40.1-18 40.1-40.1-18-40.1-40.1-40.1zm387.8 68.1c4.9 0 6.6-2.1 6.6-7.3V35.9c0-2.8-2.1-4.2-4.9-4.2h-2.1v-6.3l20.3-4.9h3.5v42.6h.7l8.1-3.8c3.8-1.7 4.6-3.5 4.6-6 0-3.2-2.4-4.9-6.3-4.9v-5.6h24.5v4.9c-5.2 6.3-10.1 8.7-15.7 11.6L479.9 74c3.5 4.6 5.6 9.5 9.1 9.5v5.6h-20.6L454 65.9h-.7v11.6c0 3.8.3 5.6 4.2 5.6v5.6h-27.6v-4.9zm-38.5 0c4.9 0 6.6-2.1 6.6-7.3V58.3c0-2.8-2.1-4.6-4.9-4.6H391v-6l17.5-5.2h4.9v7.3c0 3.8-.3 9.5-.3 11.6h.3c1.4-14 7.7-19.9 15-19.9 1.4 0 1.7 0 2.8.3v16.1c-6-1.1-16.5-.7-16.5 10.1v8.1c0 5.2 1.7 7.3 6.6 7.3V89h-30.1l.2-5.2zm-30.7-17.9c0 15.4 1.4 19.9 5.6 19.9s5.6-4.6 5.6-19.9-1.5-19.9-5.7-19.9c-4.2.4-5.5 4.9-5.5 19.9zm-18.6 0c0-15.7 11.2-24.5 24.1-24.5 13 0 24.1 8.7 24.1 24.5s-11.2 24.5-24.1 24.5c-12.9.1-24.1-8.7-24.1-24.5zm-32.6 17.9c4.9 0 6.6-2.1 6.6-7.3V51h-6.6v-3.8c5.2 0 7-1.4 7-5.2 0-9.1 8.1-21.4 24.5-21.4 5.2 0 10.8 1.7 15.7 3.8l-7 17.5-3.5-.7c.3-9.5-2.8-15.4-8.4-15.4-4.6 0-7 3.8-7 8.7 0 4.2 1.1 7.7 1.7 10.5h9.8v6H333v25.2c0 5.2 1.7 7.3 6.6 7.3v5.6h-30.1v-5.3zm-61.1 0c4.9 0 6.6-2.1 6.6-7.3V35.9c0-2.8-2.1-4.2-4.9-4.2H248v-6.3l19.9-4.9h3.5v31.2c2.4-6.6 7.3-9.8 14-9.8 8.7 0 14.7 4.9 14.7 15v19.2c0 5.2 1.7 7.3 6.6 7.3V89h-27.6v-5.6c4.2 0 4.2-2.4 4.2-7V57.2c0-4.2-2.1-6.3-6-6.3-3.2 0-5.6 2.1-6.3 5.2v20.3c0 4.6.3 7 4.2 7V89h-27.6v-5.2h.8zm-15.8-42c6.3 0 11.9 1.7 17.1 4.6l-6 16.1h-3.8c-1.1-9.8-5.6-13.6-10.5-13.6-6 0-9.5 5.2-9.5 12.2 0 10.5 7.3 15.7 15 15.7 6 0 9.1-2.4 11.2-7l3.5 1.4c-2.1 10.8-7 19.2-20.3 19.2-12.2 0-21-8.7-21-22.4.5-16 10-26.2 24.3-26.2zm-54.2 9.1h-6.3v-3.8c7.3-2.1 16.5-8.1 19.2-16.8h3.5V45h11.6v6h-11.6v22.8c0 5.6 3.2 7.3 6.3 7.3 2.1 0 4.6-.7 6-1.7l1.7 3.2c-2.8 4.6-9.5 8.1-16.1 8.1-9.8 0-14.4-6-14.4-15.7l.1-24.1zm-19.2-28.7c4.9 0 9.1 4.2 9.1 9.1s-4.2 9.1-9.1 9.1c-4.9 0-9.1-4.2-9.1-9.1-.1-4.8 3.8-9.1 9.1-9.1zm-15.1 61.6c4.9 0 6.6-2.1 6.6-7.3V57.6c0-2.8-2.1-4.6-4.9-4.2h-1.7v-6l18.5-5.6h4.6v34.3c0 5.2 1.7 7.3 6.6 7.3V89h-30.1v-5.2h.4zm-33.2-57v30.4h2.8c8.4 0 13-6.3 13-15.4 0-9.5-4.6-15-13.3-15h-2.5zM86 83.8c5.2 0 7.3-2.4 7.3-8.1V35.2c0-5.6-1.7-8.1-7.3-8.1v-5.6h30.1c16.5 0 27.3 7.3 27.3 20.3 0 11.9-9.8 20.3-27.6 20.3h-4.9v13.3c0 6.3 3.2 8.1 11.9 8.1v5.6H86v-5.3z" clip-rule="evenodd" mask="url(#b)"/>
</svg>
