<?xml version="1.0" encoding="utf-8"?>
<!-- Generator: Adobe Illustrator 16.0.4, SVG Export Plug-In . SVG Version: 6.00 Build 0)  -->
<!DOCTYPE svg PUBLIC "-//W3C//DTD SVG 1.1//EN" "http://www.w3.org/Graphics/SVG/1.1/DTD/svg11.dtd">
<svg version="1.1" id="Layer_1" xmlns="http://www.w3.org/2000/svg" xmlns:xlink="http://www.w3.org/1999/xlink" x="0px" y="0px"
	 width="1224px" height="792px" viewBox="0 0 1224 792" enable-background="new 0 0 1224 792" xml:space="preserve">
<path d="M619.957,304.069V177.741H493.629l36.479,36.479L325.191,418.156c-0.49,6.121-0.979,12.241-0.979,18.362
	c0,26.686,10.527,47.495,18.362,71.487l240.66-240.66L619.957,304.069z"/>
<path d="M744.082,433.335L509.297,668.609c22.034,6.61,43.334,13.466,67.816,16.403c9.548,1.225,16.158,0.734,25.461-0.245
	l194.879-198.306l36.479,36.479V396.612H707.604L744.082,433.335z"/>
<path d="M797.697,342.751V216.423H671.369l36.479,36.479l-324.145,324.39c15.179,20.075,33.296,37.947,53.861,52.637
	l323.654-323.655L797.697,342.751z"/>
<path d="M612.122,0C393.741,0,216,177.741,216,396.122c0,218.382,177.741,396.123,396.122,396.123
	c218.382,0,395.878-177.741,395.878-396.123C1008,177.741,830.259,0,612.122,0z M612.122,713.167
	c-174.803,0-317.044-142.241-317.044-317.045c0-174.803,142.242-317.044,317.044-317.044c174.804,0,317.045,142.242,317.045,317.044
	C929.167,570.926,786.926,713.167,612.122,713.167z"/>
<g id="guides">
</g>
</svg>
