<?xml version="1.0" encoding="utf-8"?>
<!-- Generator: Adobe Illustrator 22.0.0, SVG Export Plug-In . SVG Version: 6.00 Build 0)  -->
<svg version="1.1" id="Layer_1" xmlns="http://www.w3.org/2000/svg" xmlns:xlink="http://www.w3.org/1999/xlink" x="0px" y="0px"
	 viewBox="0 0 139.4 139.2" style="enable-background:new 0 0 139.4 139.2;" xml:space="preserve">
<g>
	<g>
		<path d="M69.7,0C43.1,0,21.5,21.6,21.5,48.3c0,26.6,21.6,48.3,48.3,48.3c26.6,0,48.3-21.6,48.3-48.3C118,21.6,96.3,0,69.7,0z
			 M69.7,86.8c-21.2,0-38.5-17.3-38.5-38.5C31.2,27,48.5,9.8,69.7,9.8c21.2,0,38.5,17.3,38.5,38.5C108.2,69.5,90.9,86.8,69.7,86.8z"
			/>
		<path d="M70.7,36.8V21.4H55.2l4.5,4.5L34.6,51c0.3,3.7,1.1,7.2,2.5,10.5l29.1-29.1L70.7,36.8z"/>
		<path d="M92.4,59.2l4.5,4.5l0-15.5H81.4l4.5,4.5L57.4,81.1c3.3,1.2,6.8,2,10.5,2.1c0.1,0,0.3,0,0.4,0L92.4,59.2z"/>
		<path d="M92.4,41.6V26.1H77l4.5,4.5L42,70c1.9,2.4,4.1,4.6,6.6,6.4L88,37.1L92.4,41.6z"/>
	</g>
	<g>
		<path d="M0,136.9c1.8,0,2.5-0.8,2.5-2.8v-14c0-1.9-0.6-2.8-2.5-2.8v-1.9h10.4c5.7,0,9.4,2.5,9.4,7c0,4.1-3.4,7-9.6,7H8.6v4.6
			c0,2.2,1.1,2.8,4.1,2.8v1.9H0V136.9z M8.6,117.2v10.5h1c2.9,0,4.5-2.2,4.5-5.3c0-3.3-1.6-5.2-4.6-5.2
			C9.4,117.2,8.6,117.2,8.6,117.2z"/>
		<path d="M20.1,136.9c1.7,0,2.3-0.7,2.3-2.5v-6.5c0-1-0.7-1.6-1.7-1.5h-0.6v-2.1l6.4-1.9h1.6v11.9c0,1.8,0.6,2.5,2.3,2.5v1.9H20
			v-1.8H20.1z M25.3,115.6c1.7,0,3.1,1.5,3.1,3.1s-1.5,3.1-3.1,3.1s-3.1-1.5-3.1-3.1S23.5,115.6,25.3,115.6"/>
		<path d="M32,125.5h-2.2v-1.3c2.5-0.7,5.7-2.8,6.7-5.8h1.2v5.1h4v2.1h-4v7.9c0,1.9,1.1,2.5,2.2,2.5c0.7,0,1.6-0.2,2.1-0.6l0.6,1.1
			c-1,1.6-3.3,2.8-5.6,2.8c-3.4,0-5-2.1-5-5.4V125.5z"/>
		<path d="M50.7,122.4c2.2,0,4.1,0.6,5.9,1.6l-2.1,5.6h-1.3c-0.4-3.4-1.9-4.7-3.6-4.7c-2.1,0-3.3,1.8-3.3,4.2c0,3.6,2.5,5.4,5.2,5.4
			c2.1,0,3.1-0.8,3.9-2.4l1.2,0.5c-0.7,3.8-2.4,6.7-7,6.7c-4.2,0-7.3-3-7.3-7.7C42.5,125.9,45.8,122.4,50.7,122.4"/>
		<path d="M56.2,136.9c1.7,0,2.3-0.7,2.3-2.5v-14c0-1-0.7-1.5-1.7-1.5H56v-2.2l6.9-1.7h1.2v10.8c0.8-2.3,2.5-3.4,4.8-3.4
			c3,0,5.1,1.7,5.1,5.2v6.7c0,1.8,0.6,2.5,2.3,2.5v1.9h-9.6v-1.9c1.5,0,1.5-0.8,1.5-2.4v-6.7c0-1.5-0.7-2.2-2.1-2.2
			c-1.1,0-1.9,0.7-2.2,1.8v7c0,1.6,0.1,2.4,1.5,2.4v1.9h-9.6v-1.8H56.2z"/>
		<path d="M77.3,136.9c1.7,0,2.3-0.7,2.3-2.5v-8.8h-2.3v-1.3c1.8,0,2.4-0.5,2.4-1.8c0-3.1,2.8-7.4,8.5-7.4c1.8,0,3.8,0.6,5.4,1.3
			l-2.4,6.1l-1.2-0.2c0.1-3.3-1-5.3-2.9-5.3c-1.6,0-2.4,1.3-2.4,3c0,1.5,0.4,2.7,0.6,3.6h3.4v2.1h-3.3v8.7c0,1.8,0.6,2.5,2.3,2.5
			v1.9H77.3C77.3,138.7,77.3,136.9,77.3,136.9z"/>
		<path d="M88.6,130.7c0-5.4,3.9-8.5,8.4-8.5c4.5,0,8.4,3,8.4,8.5c0,5.4-3.9,8.5-8.4,8.5C92.5,139.2,88.6,136.2,88.6,130.7
			 M95,130.7c0,5.3,0.5,6.9,1.9,6.9c1.5,0,1.9-1.6,1.9-6.9c0-5.3-0.5-6.9-1.9-6.9C95.5,123.9,95,125.5,95,130.7"/>
		<path d="M105.7,136.9c1.7,0,2.3-0.7,2.3-2.5v-6.3c0-1-0.7-1.6-1.7-1.6h-0.7v-2.1l6.1-1.8h1.7v2.5c0,1.3-0.1,3.3-0.1,4h0.1
			c0.5-4.8,2.7-6.9,5.2-6.9c0.5,0,0.6,0,1,0.1v5.6c-2.1-0.4-5.7-0.2-5.7,3.5v2.8c0,1.8,0.6,2.5,2.3,2.5v1.9h-10.4V136.9z"/>
		<path d="M119,136.9c1.7,0,2.3-0.7,2.3-2.5v-14c0-1-0.7-1.5-1.7-1.5h-0.7v-2.2l7-1.7h1.2v14.8h0.2l2.8-1.3c1.3-0.6,1.6-1.2,1.6-2.1
			c0-1.1-0.8-1.7-2.2-1.7v-1.9h8.5v1.7c-1.8,2.2-3.5,3-5.4,4l3.8,5.1c1.2,1.6,1.9,3.3,3.1,3.3v1.9h-7.1l-5-8h-0.2v4
			c0,1.3,0.1,1.9,1.5,1.9v1.9H119C119,138.6,119,136.9,119,136.9z"/>
	</g>
</g>
</svg>
