<svg xmlns="http://www.w3.org/2000/svg" viewBox="0 0 500 112">
  <defs/>
  <path d="M128.7 21.8c1.7-1.7 3.8-2.5 6.2-2.5s4.5.8 6.2 2.5 2.5 3.8 2.5 6.2v55.6c0 2.4-.9 4.5-2.5 6.2-1.7 1.7-3.8 2.5-6.2 2.5s-4.5-.8-6.2-2.5-2.6-3.8-2.6-6.2V28c0-2.4.9-4.5 2.6-6.2zm31 6.5c0-6.7-2.4-12.4-7.1-17.2-4.8-4.7-10.5-7.1-17.2-7.1-6.6 0-12.3 2.4-17.1 7.1s-7.1 10.5-7.1 17.2v55.4c0 6.7 2.4 12.4 7.1 17.2 4.7 4.7 10.4 7.1 17.2 7.1 6.7 0 12.4-2.4 17.2-7.1s7.1-10.5 7.1-17.2l-.1-55.4zm233.7 15.8l-.1-1.3-.2-1.3-.3-1.3-.4-1.2-.5-1.2-.5-1.2-.6-1.2-.7-1.1-.8-1.1-.8-1.1-.9-1-.9-.9-.9-.8-1-.8-1-.7-1-.6-1.1-.6-1.1-.5-1.1-.4-1.1-.3-1.2-.3-1.2-.2-1.2-.1h-2.6l-1.3.1-1.3.2-1.2.2-1.2.3-1.2.4-1.1.4-1.1.5-1 .6-1 .6-1 .7-.9.8-.9.8-.9.9-.8 1-.8 1-.7 1.1-.6 1.2-.5 1.2-.5 1.3-.4 1.3-.3 1.1 11.8 10.8h.8v-4.8l.1-.9.1-.9.2-.8.3-.8.3-.8.3-.7.4-.7.4-.6.4-.5.5-.5.5-.4.5-.3.6-.3.6-.2.6-.2.7-.1h1.4l.7.1.6.1.6.2.6.3.5.3.5.4.5.5.5.5.4.6.4.6v.1l.3.6.3.7.2.7.2.8.1.8v1.9l-.4.9-.2 1.1-.2 1.2-.3 1.2-.4 1.2-.5 1.2-.5 1.3-.6 1.4-.7 1.5-.8 1.5-.9 1.5-.9 1.6-1 1.6-1.1 1.6-1.1 1.7-1.2 1.7-1 1.4-.9 1.3-.9 1.2-.8 1.2-.8 1.1-.7 1-.7 1-.7.9-.6.9-.5.7-.5.7-.5.7-3.2 4.6-2.8 4.1-.5.7-.4.6-.4.6-.3.5-.3.5-.3.4-.2.4-.2.3-.1.3-.1.2v12.3h40.1v-7.5s-.7-6-5.5-5.9-17.9 0-17.9 0l.3-.5.4-.6.4-.7.5-.7.5-.8.5-.8.6-.9 2.2-3.3.8-1.2.7-1.1.7-1 .7-1 .6-.9.6-.8.5-.8.5-.7.5-.7.4-.6 1-1.5 1-1.4.9-1.3.9-1.3.8-1.2.7-1.1.7-1.1.6-1 .6-1 .5-.9.5-.8.5-.8.4-.7.3-.7.7-1.6.6-1.6.6-1.6.5-1.6.4-1.6.3-1.6.3-1.6.2-1.7.1-1.7v-2.9z"/>
  <path d="M353.4 40.4H366v10.8h-12.6V40.4zM269 5.3h15.3v101.5H269V5.3zm-243 0c7.5 0 13.4 2.4 17.8 7.1 4.1 4.5 6.2 10.2 6.2 17.2v14.7c0 6.7-2.3 12.4-7 17.2-4.7 4.7-10.3 7.1-17 7.1h-8.8V94c0 13-5.5 12.8-5.5 12.8H1.9V5.3H26zm9.1 24.5c0-2.6-.8-4.8-2.4-6.4-1.6-1.6-3.7-2.4-6.4-2.4h-9.2v32.5h9.2c2.4 0 4.5-.9 6.2-2.6 1.7-1.7 2.5-3.8 2.5-6.2V29.8h.1zM79.5 5.3c8.5 0 14.8 2.4 18.8 7.1 3.5 4.1 5.3 9.8 5.3 17.2v14.7c0 7.2-2.7 13.3-8.2 18.2l11.3 44.3h-7.4s-8.2 1-12.6-14.2c-2.5-8.4-5.8-24-5.8-24H70.7v38.2H55.4V5.3h24.1zm9.2 24.5c0-5.9-2.9-8.8-8.7-8.8h-9.2v32.5H80c2.4 0 4.5-.9 6.2-2.6 1.7-1.7 2.5-3.8 2.5-6.2V29.8zm89.3-9.1s-16.7 1-16.3-8.8c-.1-2.7 0-6.6 0-6.6h47.8v15.4h-16.2v86.1H178V20.7zm38.1 86.1V5.2h43.6s.5 5.7 0 10.7-6 4.7-6 4.7h-22.3v27.7h20.7v15.4h-20.7v27.7s14.5-.2 18.3 0c10.6.8 9.9 8.4 9.9 8.4v7h-43.5zm95-101.6l20.3 68.3V13.2s.3-8 6.8-8h8.5v101.6h-16.4l-21.1-65v65h-15.3V5.2h17.2zM417 76.7c0 4.6 1.6 8.5 4.8 11.7 3.2 3.2 7.1 4.9 11.7 4.9s8.5-1.6 11.7-4.8c3.2-3.2 4.9-7.2 4.9-11.8V41.3c-2.7 5.8-8.2 9.3-13.4 12.8-1.6 1-3.2 2.1-4.8 3.2h-.1c-.5.4-1.1.8-1.6 1.2-6.4 4.7-13.2 9.5-13.2 18.2z"/>
  <path d="M433.6 96.2c-5.4 0-10-1.9-13.8-5.7-3.7-3.8-5.7-8.4-5.7-13.8v-48c0-2.4.9-4.5 2.6-6.2s3.8-2.5 6.2-2.5c2.4 0 4.5.8 6.2 2.5s2.5 3.8 2.5 6.2V54c1.2-.8 2.3-1.6 3.5-2.4 5.2-3.4 10.1-6.7 12.5-11.9V29c0-6.7-2.4-12.4-7.1-17.2-4.7-4.7-10.5-7.1-17.2-7.1-6.6 0-12.3 2.4-17.1 7.1-4.8 4.7-7.1 10.5-7.1 17.2v55.4c0 6.7 2.4 12.4 7.1 17.2 4.7 4.7 10.4 7.1 17.2 7.1 6.7 0 12.4-2.4 17.2-7.1 3.1-3.1 5.2-6.6 6.3-10.6-3.8 3.4-8.2 5.2-13.3 5.2z"/>
</svg>
