<svg id="Layer_1" data-name="Layer 1" xmlns="http://www.w3.org/2000/svg" viewBox="0 0 228.71 148.66"><defs><style>.cls-1{fill:#231f20;}.cls-2{fill:#fff;}</style></defs><title>Vector Smart Object1</title><rect class="cls-1" width="228.71" height="148.66"/><path class="cls-2" d="M85.16,30.37a.54.54,0,0,0-.65-.42l-2.65.56a.55.55,0,0,0-.42.65l3.59,17a4.87,4.87,0,0,1,.11,1.05c0,2.11-1.33,4-4.36,4.64a7.36,7.36,0,0,1-1.54.17,4.46,4.46,0,0,1-4.65-3.65L71,33.37a.54.54,0,0,0-.65-.42l-2.66.56a.54.54,0,0,0-.42.65l3.55,16.75a7.82,7.82,0,0,0,8,6.5h.07a12.19,12.19,0,0,0,2.56-.28c4.44-.92,7.45-3.91,7.44-8a9.57,9.57,0,0,0-.22-2Z"/><path class="cls-2" d="M157.88,55.49,146,52.92l1.75-8.1,7.81,1.69a.52.52,0,0,0,.41-.07.56.56,0,0,0,.24-.34l.49-2.26a.55.55,0,0,0-.07-.41.57.57,0,0,0-.35-.24l-7.8-1.69,1.5-7,11.2,2.43a.55.55,0,0,0,.41-.08.52.52,0,0,0,.24-.34l.49-2.26a.58.58,0,0,0-.08-.41.56.56,0,0,0-.34-.24l-14.39-3.11a.54.54,0,0,0-.64.42l-5.19,24a.54.54,0,0,0,.42.64l15.05,3.26h.11a.58.58,0,0,0,.29-.08.54.54,0,0,0,.24-.34l.49-2.26a.52.52,0,0,0-.07-.41A.55.55,0,0,0,157.88,55.49Z"/><path class="cls-2" d="M202,48.55a.52.52,0,0,0-.29-.3l-16-6.92a.55.55,0,0,0-.72.28l-.91,2.12a.54.54,0,0,0,.28.71l6.23,2.71L182,67a.54.54,0,0,0,.28.71l2.5,1.08a.5.5,0,0,0,.22,0,.53.53,0,0,0,.2,0,.55.55,0,0,0,.3-.29l8.63-19.89,6.23,2.7a.55.55,0,0,0,.42,0,.57.57,0,0,0,.3-.29L202,49A.55.55,0,0,0,202,48.55Z"/><path class="cls-2" d="M73.71,103.64H62.64V82a.55.55,0,0,0-.16-.38.56.56,0,0,0-.39-.16H59.37a.56.56,0,0,0-.39.16.55.55,0,0,0-.15.38V106.5a.56.56,0,0,0,.15.39.57.57,0,0,0,.39.16H73.71a.55.55,0,0,0,.39-.16.57.57,0,0,0,.16-.39v-2.31a.57.57,0,0,0-.16-.38A.55.55,0,0,0,73.71,103.64Z"/><path class="cls-2" d="M98.59,81.43H95.87a.54.54,0,0,0-.39.16.53.53,0,0,0-.16.38V106.5a.55.55,0,0,0,.55.54h2.72a.54.54,0,0,0,.54-.54V82a.53.53,0,0,0-.54-.54Z"/><path class="cls-2" d="M137.84,81.43H123.3a.55.55,0,0,0-.55.54V106.5a.54.54,0,0,0,.16.39.53.53,0,0,0,.39.15H126a.56.56,0,0,0,.39-.15.55.55,0,0,0,.16-.39V95.36h8.22a.56.56,0,0,0,.39-.16.55.55,0,0,0,.16-.38V92.51a.54.54,0,0,0-.54-.55h-8.23V84.82h11.28a.55.55,0,0,0,.55-.55V82a.55.55,0,0,0-.16-.38A.57.57,0,0,0,137.84,81.43Z"/><path class="cls-2" d="M174.84,103.64H162.71V95.36h8a.53.53,0,0,0,.37-.16.54.54,0,0,0,.16-.39V92.5a.54.54,0,0,0-.54-.54h-8V84.83h11.45a.54.54,0,0,0,.39-.16.56.56,0,0,0,.16-.38V82a.56.56,0,0,0-.16-.38.55.55,0,0,0-.39-.16H159.45a.55.55,0,0,0-.54.54V106.5a.54.54,0,0,0,.16.39.53.53,0,0,0,.38.16h15.39a.52.52,0,0,0,.38-.16.55.55,0,0,0,.17-.39v-2.31a.55.55,0,0,0-.17-.38A.52.52,0,0,0,174.84,103.64Z"/><path class="cls-2" d="M116.08,28.07h-2.72a.53.53,0,0,0-.39.16.53.53,0,0,0-.16.38V53.15a.52.52,0,0,0,.16.38.54.54,0,0,0,.39.16h2.72a.55.55,0,0,0,.39-.16.56.56,0,0,0,.16-.38V28.61a.56.56,0,0,0-.16-.38A.55.55,0,0,0,116.08,28.07Z"/><path class="cls-2" d="M52.1,71.95a.54.54,0,0,0-.74-.2,5.72,5.72,0,0,1-2.54.93h0c-.63,0-1.19-.4-2.27-2.22l-1.12-1.94a8.89,8.89,0,0,0,3.5-7.36A18.54,18.54,0,0,0,47,53.69c-2.57-5.73-6.24-8.8-10.46-8.8a10.09,10.09,0,0,0-4.17,1,9,9,0,0,0-5.69,8.67A18.36,18.36,0,0,0,28.57,62c2.56,5.72,6.23,8.79,10.45,8.8a9.76,9.76,0,0,0,3.29-.61l1.18,2h0c1.08,1.92,2.61,3.94,5.31,4a8.63,8.63,0,0,0,4.29-1.4.53.53,0,0,0,.26-.33.57.57,0,0,0-.06-.41ZM41.79,66.73a6,6,0,0,1-2.46.57c-2.59,0-5.13-2.05-7.3-6.87a15.61,15.61,0,0,1-1.61-6.19,5.35,5.35,0,0,1,3.37-5.3,6,6,0,0,1,2.46-.57h0c2.58,0,5.12,2.07,7.29,6.87a15.59,15.59,0,0,1,1.61,6.19A5.35,5.35,0,0,1,41.79,66.73Z"/><path class="cls-2" d="M77.17,125.8v-6.43h.72v5.82h3v.61Z"/><path class="cls-2" d="M85.91,119.29c1.57,0,2.5,1.16,2.5,3.3s-.93,3.3-2.5,3.3-2.52-1.16-2.52-3.3S84.33,119.29,85.91,119.29Zm0,6c1.12,0,1.79-.87,1.79-2.7s-.67-2.69-1.79-2.69-1.8.87-1.8,2.69S84.77,125.28,85.91,125.28Z"/><path class="cls-2" d="M94.64,121a1.46,1.46,0,0,0-1.5-1.12c-.74,0-1.19.36-1.2,1,0,1.4,3.61,1.05,3.61,3.12,0,.94-.53,1.88-2.16,1.88a2.36,2.36,0,0,1-2.29-1.67l.65-.23a1.75,1.75,0,0,0,1.69,1.3c.94,0,1.41-.5,1.41-1.16,0-1.63-3.61-1.15-3.61-3.18a1.75,1.75,0,0,1,1.93-1.65,2.11,2.11,0,0,1,2.12,1.58Z"/><path class="cls-2" d="M102.57,125.8l2-6.43h1.06l2,6.43h-.75l-.61-2h-2.31l-.61,2Zm1.52-2.62h2l-.93-3.31H105Z"/><path class="cls-2" d="M110.53,125.8v-6.43h1l2.8,4.95h0v-4.95H115v6.43h-.59l-3.25-5.73h0v5.73Z"/><path class="cls-2" d="M123,122.71v3.09h-.59v-.59h0a2,2,0,0,1-1.68.67c-1.46,0-2.52-1.05-2.52-3.3s1.06-3.3,2.52-3.3a2.25,2.25,0,0,1,2.31,1.89l-.68.13c-.32-1-.85-1.41-1.6-1.41-.93,0-1.83.64-1.83,2.69s.9,2.7,1.83,2.7a1.38,1.38,0,0,0,1.54-1.43v-.54h-1.45v-.6Z"/><path class="cls-2" d="M130.29,119.38V120h-3.14v2.15h2.23v.61h-2.23v2.46h3.31v.61h-4v-6.43Z"/><path class="cls-2" d="M133.65,125.8v-6.43h.71v5.82h3v.61Z"/><path class="cls-2" d="M144.23,119.38V120h-3.14v2.15h2.23v.61h-2.23v2.46h3.32v.61h-4v-6.43Z"/><path class="cls-2" d="M150.62,121a1.47,1.47,0,0,0-1.5-1.12c-.74,0-1.19.36-1.2,1,0,1.4,3.61,1.05,3.61,3.12,0,.94-.52,1.88-2.16,1.88a2.35,2.35,0,0,1-2.29-1.67l.65-.23a1.74,1.74,0,0,0,1.67,1.3c.95,0,1.42-.5,1.42-1.16,0-1.63-3.61-1.15-3.61-3.18a1.75,1.75,0,0,1,1.93-1.65,2.11,2.11,0,0,1,2.12,1.58Z"/><path class="cls-2" d="M9.51,139.68a.53.53,0,0,1-.38-.16h0a.51.51,0,0,1-.16-.38H9V9.5a.51.51,0,0,1,.16-.38h0A.51.51,0,0,1,9.51,9H219.2a.55.55,0,0,1,.38.16h0a.56.56,0,0,1,.15.38h0V139.15a.57.57,0,0,1-.15.38h0a.57.57,0,0,1-.38.16H9.51ZM228.34,145v0ZM10,138.62H218.67V10H10V138.62Z"/></svg>