<?xml version="1.0" encoding="utf-8"?>
<!-- Generator: Adobe Illustrator 21.0.0, SVG Export Plug-In . SVG Version: 6.00 Build 0)  -->
<svg version="1.1" id="Layer_1" xmlns="http://www.w3.org/2000/svg" xmlns:xlink="http://www.w3.org/1999/xlink" x="0px" y="0px"
	 viewBox="0 0 228.7 148.7" style="enable-background:new 0 0 228.7 148.7;" xml:space="preserve">
<style type="text/css">
	.st0{fill:#231F20;}
	.st1{fill:#FFFFFF;}
</style>
<title>Vector Smart Object1</title>
<rect class="st0" width="228.7" height="148.7"/>
<path class="st1" d="M85.2,30.4c-0.1-0.3-0.3-0.5-0.6-0.4c0,0,0,0,0,0l-2.7,0.6c-0.3,0.1-0.5,0.4-0.4,0.6l3.6,17
	c0.1,0.3,0.1,0.7,0.1,1c0,2.1-1.3,4-4.4,4.6c-0.5,0.1-1,0.2-1.5,0.2c-2.2,0.1-4.2-1.4-4.7-3.7l-3.6-17c-0.1-0.3-0.3-0.5-0.6-0.4
	c0,0,0,0,0,0l-2.7,0.6c-0.3,0.1-0.5,0.3-0.4,0.6c0,0,0,0,0,0l3.6,16.8c0.7,3.9,4.1,6.6,8,6.5h0.1c0.9,0,1.7-0.1,2.6-0.3
	c4.4-0.9,7.4-3.9,7.4-8c0-0.7-0.1-1.3-0.2-2L85.2,30.4z M157.9,55.5L146,52.9l1.8-8.1l7.8,1.7c0.1,0,0.3,0,0.4-0.1
	c0.1-0.1,0.2-0.2,0.2-0.3l0.5-2.3c0-0.1,0-0.3-0.1-0.4c-0.1-0.1-0.2-0.2-0.4-0.2l-7.8-1.7l1.5-7l11.2,2.4c0.1,0,0.3,0,0.4-0.1
	c0.1-0.1,0.2-0.2,0.2-0.3l0.5-2.3c0-0.1,0-0.3-0.1-0.4c-0.1-0.1-0.2-0.2-0.3-0.2l-14.4-3.1c-0.3-0.1-0.6,0.1-0.6,0.4c0,0,0,0,0,0
	l-5.2,24c-0.1,0.3,0.1,0.6,0.4,0.6c0,0,0,0,0,0l15.1,3.3h0.1c0.1,0,0.2,0,0.3-0.1c0.1-0.1,0.2-0.2,0.2-0.3l0.5-2.3
	c0-0.1,0-0.3-0.1-0.4C158.1,55.6,158,55.5,157.9,55.5z M202,48.5c-0.1-0.1-0.2-0.2-0.3-0.3l-16-6.9c-0.3-0.1-0.6,0-0.7,0.3l-0.9,2.1
	c-0.1,0.3,0,0.6,0.3,0.7l6.2,2.7L182,67c-0.1,0.3,0,0.6,0.3,0.7l2.5,1.1c0.1,0,0.1,0,0.2,0c0.1,0,0.1,0,0.2,0
	c0.1-0.1,0.2-0.2,0.3-0.3l8.6-19.9l6.2,2.7c0.1,0.1,0.3,0.1,0.4,0c0.1-0.1,0.2-0.2,0.3-0.3l0.9-2C202.1,48.9,202.1,48.7,202,48.5z
	 M73.7,103.6H62.6V82c0-0.1-0.1-0.3-0.2-0.4c-0.1-0.1-0.2-0.2-0.4-0.2h-2.7c-0.1,0-0.3,0.1-0.4,0.2c-0.1,0.1-0.2,0.2-0.2,0.4v24.5
	c0,0.1,0.1,0.3,0.2,0.4c0.1,0.1,0.2,0.2,0.4,0.2h14.3c0.1,0,0.3-0.1,0.4-0.2c0.1-0.1,0.2-0.2,0.2-0.4v-2.3c0-0.1-0.1-0.3-0.2-0.4
	C74,103.7,73.9,103.6,73.7,103.6z M98.6,81.4h-2.7c-0.1,0-0.3,0.1-0.4,0.2c-0.1,0.1-0.2,0.2-0.2,0.4v24.5c0,0.3,0.3,0.5,0.6,0.5h2.7
	c0.3,0,0.5-0.2,0.5-0.5l0,0V82C99.1,81.7,98.9,81.5,98.6,81.4C98.6,81.5,98.6,81.5,98.6,81.4L98.6,81.4z M137.8,81.4h-14.5
	c-0.3,0-0.5,0.2-0.6,0.5v24.5c0,0.1,0.1,0.3,0.2,0.4c0.1,0.1,0.2,0.2,0.4,0.2h2.7c0.1,0,0.3-0.1,0.4-0.2c0.1-0.1,0.2-0.2,0.2-0.4
	V95.4h8.2c0.1,0,0.3-0.1,0.4-0.2c0.1-0.1,0.2-0.2,0.2-0.4v-2.3c0-0.3-0.2-0.5-0.5-0.5c0,0,0,0,0,0h-8.2v-7.1h11.3
	c0.3,0,0.6-0.2,0.6-0.5v0V82c0-0.1-0.1-0.3-0.2-0.4C138.1,81.5,138,81.4,137.8,81.4z M174.8,103.6h-12.1v-8.3h8
	c0.1,0,0.3-0.1,0.4-0.2c0.1-0.1,0.2-0.2,0.2-0.4v-2.3c0-0.3-0.2-0.5-0.5-0.5h-8v-7.1h11.4c0.1,0,0.3-0.1,0.4-0.2
	c0.1-0.1,0.2-0.2,0.2-0.4V82c0-0.1-0.1-0.3-0.2-0.4c-0.1-0.1-0.2-0.2-0.4-0.2h-14.7c-0.3,0-0.5,0.2-0.5,0.5v24.5
	c0,0.1,0.1,0.3,0.2,0.4c0.1,0.1,0.2,0.2,0.4,0.2h15.4c0.1,0,0.3-0.1,0.4-0.2c0.1-0.1,0.2-0.2,0.2-0.4v-2.3c0-0.1-0.1-0.3-0.2-0.4
	C175.1,103.7,175,103.6,174.8,103.6z M116.1,28.1h-2.7c-0.1,0-0.3,0.1-0.4,0.2c-0.1,0.1-0.2,0.2-0.2,0.4v24.5c0,0.1,0.1,0.3,0.2,0.4
	c0.1,0.1,0.2,0.2,0.4,0.2h2.7c0.1,0,0.3-0.1,0.4-0.2c0.1-0.1,0.2-0.2,0.2-0.4V28.6c0-0.1-0.1-0.3-0.2-0.4
	C116.4,28.1,116.2,28.1,116.1,28.1z M52.1,71.9c-0.1-0.3-0.5-0.3-0.7-0.2c0,0,0,0,0,0c-0.8,0.5-1.6,0.8-2.5,0.9l0,0
	c-0.6,0-1.2-0.4-2.3-2.2l-1.1-1.9c2.3-1.7,3.6-4.5,3.5-7.4c-0.1-2.6-0.8-5.1-1.9-7.5c-2.6-5.7-6.2-8.8-10.5-8.8
	c-1.4,0-2.9,0.4-4.2,1c-3.5,1.4-5.8,4.9-5.7,8.7c0.1,2.6,0.7,5.1,1.9,7.4c2.6,5.7,6.2,8.8,10.5,8.8c1.1,0,2.2-0.2,3.3-0.6l1.2,2l0,0
	c1.1,1.9,2.6,3.9,5.3,4c1.5-0.1,3-0.6,4.3-1.4c0.1-0.1,0.2-0.2,0.3-0.3c0-0.1,0-0.3-0.1-0.4L52.1,71.9z M41.8,66.7
	c-0.8,0.4-1.6,0.6-2.5,0.6c-2.6,0-5.1-2.1-7.3-6.9c-1-1.9-1.5-4-1.6-6.2c-0.1-2.3,1.2-4.4,3.4-5.3c0.8-0.4,1.6-0.6,2.5-0.6l0,0
	c2.6,0,5.1,2.1,7.3,6.9c1,1.9,1.5,4,1.6,6.2C45.3,63.7,43.9,65.9,41.8,66.7z M77.2,125.8v-6.4h0.7v5.8h3v0.6H77.2z M85.9,119.3
	c1.6,0,2.5,1.2,2.5,3.3s-0.9,3.3-2.5,3.3s-2.5-1.2-2.5-3.3S84.3,119.3,85.9,119.3z M85.9,125.3c1.1,0,1.8-0.9,1.8-2.7
	s-0.7-2.7-1.8-2.7s-1.8,0.9-1.8,2.7S84.8,125.3,85.9,125.3L85.9,125.3z M94.6,121c-0.2-0.7-0.8-1.2-1.5-1.1c-0.7,0-1.2,0.4-1.2,1
	c0,1.4,3.6,1.1,3.6,3.1c0,0.9-0.5,1.9-2.2,1.9c-1,0-2-0.7-2.3-1.7l0.7-0.2c0.2,0.8,0.9,1.3,1.7,1.3c0.9,0,1.4-0.5,1.4-1.2
	c0-1.6-3.6-1.2-3.6-3.2c0-1,0.9-1.7,1.8-1.7c0,0,0.1,0,0.1,0c1,0,1.9,0.6,2.1,1.6L94.6,121z M102.6,125.8l2-6.4h1.1l2,6.4h-0.8
	l-0.6-2H104l-0.6,2H102.6z M104.1,123.2h2l-0.9-3.3H105L104.1,123.2z M110.5,125.8v-6.4h1l2.8,4.9l0,0v-4.9h0.7v6.4h-0.6l-3.2-5.7
	l0,0v5.7H110.5z M123,122.7v3.1h-0.6v-0.6l0,0c-0.4,0.5-1,0.7-1.7,0.7c-1.5,0-2.5-1.1-2.5-3.3s1.1-3.3,2.5-3.3
	c1.1,0,2.1,0.8,2.3,1.9l-0.7,0.1c-0.3-1-0.8-1.4-1.6-1.4c-0.9,0-1.8,0.6-1.8,2.7s0.9,2.7,1.8,2.7c0.8,0.1,1.4-0.5,1.5-1.2
	c0-0.1,0-0.1,0-0.2v-0.5h-1.4v-0.6L123,122.7z M130.3,119.4v0.6h-3.1v2.2h2.2v0.6h-2.2v2.5h3.3v0.6h-4v-6.4L130.3,119.4z
	 M133.6,125.8v-6.4h0.7v5.8h3v0.6H133.6z M144.2,119.4v0.6h-3.1v2.2h2.2v0.6h-2.2v2.5h3.3v0.6h-4v-6.4L144.2,119.4z M150.6,121
	c-0.2-0.7-0.8-1.2-1.5-1.1c-0.7,0-1.2,0.4-1.2,1c0,1.4,3.6,1.1,3.6,3.1c0,0.9-0.5,1.9-2.2,1.9c-1.1,0-2-0.7-2.3-1.7l0.6-0.2
	c0.2,0.8,0.9,1.3,1.7,1.3c0.9,0,1.4-0.5,1.4-1.2c0-1.6-3.6-1.2-3.6-3.2c0-1,0.9-1.7,1.8-1.7c0,0,0.1,0,0.1,0c1,0,1.9,0.6,2.1,1.6
	L150.6,121z"/>
<path class="st1" d="M9.5,139.7c-0.1,0-0.3-0.1-0.4-0.2l0,0C9,139.4,9,139.3,9,139.1h0V9.5c0-0.1,0.1-0.3,0.2-0.4l0,0
	C9.3,9,9.4,9,9.5,9h209.7c0.1,0,0.3,0.1,0.4,0.2l0,0c0.1,0.1,0.1,0.2,0.1,0.4l0,0v129.6c0,0.1-0.1,0.3-0.1,0.4l0,0
	c-0.1,0.1-0.2,0.2-0.4,0.2L9.5,139.7L9.5,139.7z M228.3,145L228.3,145z M10,138.6h208.7V10H10V138.6z"/>
</svg>
