<?xml version="1.0" encoding="utf-8"?>
<!-- Generator: Adobe Illustrator 21.0.2, SVG Export Plug-In . SVG Version: 6.00 Build 0)  -->
<svg version="1.1" id="Layer_1" xmlns="http://www.w3.org/2000/svg" xmlns:xlink="http://www.w3.org/1999/xlink" x="0px" y="0px"
	 viewBox="0 0 228.7 148.7" style="enable-background:new 0 0 228.7 148.7;" xml:space="preserve">
<path d="M87.7,122.6c0,1.8-0.7,2.7-1.8,2.7c-1.1,0-1.8-0.9-1.8-2.7c0-1.8,0.7-2.7,1.8-2.7S87.7,120.8,87.7,122.6z M105.1,119.9
	L105.1,119.9l-1,3.3h2L105.1,119.9z M39.3,67.3c0.8,0,1.6-0.2,2.5-0.6c2.2-1,3.3-2.7,3.4-5.3c0-1.7-0.5-3.8-1.6-6.2
	c-2.2-4.8-4.7-6.9-7.3-6.9l0,0c-0.8,0-1.6,0.2-2.5,0.6c-2.2,1-3.3,2.7-3.4,5.3c0,1.7,0.5,3.7,1.6,6.2C34.2,65.2,36.7,67.3,39.3,67.3
	z M228.7,0v148.7H0V0H228.7z M219.7,9.5c0-0.1-0.1-0.3-0.1-0.4C219.5,9,219.3,9,219.2,9H9.5C9.4,9,9.2,9,9.1,9.1C9,9.2,9,9.4,9,9.5
	v129.6c0,0.1,0.1,0.3,0.2,0.4c0.1,0.1,0.2,0.2,0.4,0.2h209.7c0.1,0,0.3-0.1,0.4-0.2c0.1-0.1,0.1-0.2,0.1-0.4V9.5H219.7z M10,10
	h208.6v128.6H10V10z M80.9,125.2h-3v-5.8h-0.7v6.4H81v-0.6H80.9z M88.4,122.6c0-2.1-0.9-3.3-2.5-3.3s-2.5,1.2-2.5,3.3
	c0,2.1,0.9,3.3,2.5,3.3S88.4,124.7,88.4,122.6z M130.5,125.2h-3.3v-2.5h2.2v-0.6h-2.2V120h3.1v-0.6h-3.9v6.4h4L130.5,125.2
	L130.5,125.2z M137.4,125.2h-3v-5.8h-0.7v6.4h3.8v-0.6H137.4z M151.5,124c0-2.1-3.6-1.7-3.6-3.1c0-0.6,0.5-1,1.2-1
	c0.8,0,1.3,0.5,1.5,1.1l0.6-0.1c-0.3-1.1-1.1-1.6-2.1-1.6c-1.2,0-1.9,0.7-1.9,1.7c0,2,3.6,1.5,3.6,3.2c0,0.7-0.5,1.2-1.4,1.2
	s-1.4-0.6-1.7-1.3l-0.6,0.2c0.3,0.8,0.9,1.7,2.3,1.7C151,125.9,151.5,124.9,151.5,124z M182.3,67.8l2.5,1.1c0.1,0,0.1,0,0.2,0
	c0.1,0,0.1,0,0.2,0c0.1-0.1,0.2-0.2,0.3-0.3l8.6-19.9l6.2,2.7c0.1,0.1,0.3,0.1,0.4,0c0.1-0.1,0.2-0.2,0.3-0.3l1-2.1
	c0.1-0.1,0.1-0.3,0-0.4c-0.1-0.1-0.1-0.2-0.3-0.3l-16-6.9c-0.3-0.1-0.6,0-0.7,0.3l-0.9,2.1c-0.1,0.3,0,0.6,0.3,0.7l6.2,2.7L182,67
	C181.8,67.3,182,67.6,182.3,67.8z M174.2,81.4h-14.7c-0.1,0-0.3,0.1-0.4,0.2c-0.1,0.1-0.2,0.2-0.2,0.4v24.5c0,0.1,0.1,0.3,0.2,0.4
	c0.1,0.1,0.2,0.2,0.4,0.2h15.4c0.1,0,0.3-0.1,0.4-0.2c0.1-0.1,0.2-0.2,0.2-0.4v-2.3c0-0.1-0.1-0.3-0.2-0.4c-0.1-0.1-0.2-0.2-0.4-0.2
	h-12.1v-8.3h8c0.1,0,0.3-0.1,0.4-0.2c0.1-0.1,0.2-0.2,0.2-0.4v-2.3c0-0.1-0.1-0.3-0.2-0.4c-0.1-0.1-0.2-0.2-0.4-0.2h-8v-7.1h11.4
	c0.1,0,0.3-0.1,0.4-0.2c0.1-0.1,0.2-0.2,0.2-0.4V82c0-0.1-0.1-0.3-0.2-0.4C174.4,81.5,174.3,81.4,174.2,81.4z M142.1,55.6l15.1,3.3
	h0.1c0.1,0,0.2,0,0.3-0.1s0.2-0.2,0.2-0.3l0.5-2.3c0-0.1,0-0.3-0.1-0.4c-0.1-0.1-0.2-0.2-0.3-0.2L146,52.9l1.8-8.1l7.8,1.7
	c0.1,0,0.3,0,0.4-0.1c0.1-0.1,0.2-0.2,0.2-0.3l0.5-2.3c0-0.1,0-0.3-0.1-0.4c-0.1-0.1-0.2-0.2-0.4-0.2l-7.8-1.7l1.5-7l11.2,2.4
	c0.1,0,0.3,0,0.4-0.1c0.1-0.1,0.2-0.2,0.2-0.3l0.5-2.3c0-0.1,0-0.3-0.1-0.4c-0.1-0.1-0.2-0.2-0.3-0.2l-14.4-3.1
	c-0.3-0.1-0.6,0.1-0.6,0.4l-5.2,24C141.6,55.2,141.8,55.5,142.1,55.6z M140.4,125.8h4v-0.6h-3.3v-2.5h2.2v-0.6h-2.2V120h3.1v-0.6
	h-3.9L140.4,125.8L140.4,125.8z M122.8,106.5c0,0.1,0.1,0.3,0.2,0.4s0.2,0.2,0.4,0.2h2.7c0.1,0,0.3-0.1,0.4-0.2s0.2-0.2,0.2-0.4
	V95.4h8.2c0.1,0,0.3-0.1,0.4-0.2c0.1-0.1,0.2-0.2,0.2-0.4v-2.3c0-0.1-0.1-0.3-0.2-0.4c-0.1-0.1-0.2-0.2-0.4-0.2h-8.2v-7.1H138
	c0.1,0,0.3-0.1,0.4-0.2c0.1-0.1,0.2-0.2,0.2-0.4V82c0-0.1-0.1-0.3-0.2-0.4c-0.1-0.1-0.2-0.2-0.4-0.2h-14.5c-0.1,0-0.3,0.1-0.4,0.2
	s-0.2,0.2-0.2,0.4L122.8,106.5L122.8,106.5z M118.2,122.6c0,2.3,1.1,3.3,2.5,3.3c0.7,0,1.4-0.2,1.7-0.7l0,0v0.6h0.6v-3.1h-2.2v0.6
	h1.5v0.5c0,0.8-0.5,1.4-1.5,1.4c-0.9,0-1.8-0.6-1.8-2.7c0-2,0.9-2.7,1.8-2.7c0.8,0,1.3,0.4,1.6,1.4l0.7-0.1
	c-0.4-1.4-1.2-1.9-2.3-1.9C119.3,119.3,118.2,120.3,118.2,122.6z M112.8,53.1c0,0.1,0.1,0.3,0.2,0.4c0.1,0.1,0.2,0.2,0.4,0.2h2.7
	c0.1,0,0.3-0.1,0.4-0.2c0.1-0.1,0.2-0.2,0.2-0.4V28.6c0-0.1-0.1-0.3-0.2-0.4s-0.2-0.2-0.4-0.2h-2.7c-0.1,0-0.3,0.1-0.4,0.2
	s-0.2,0.2-0.2,0.4V53.1z M110.5,125.8h0.6v-5.7l0,0l3.3,5.7h0.6v-6.4h-0.6v4.9l0,0l-2.8-4.9h-1L110.5,125.8L110.5,125.8z
	 M102.6,125.8h0.7l0.6-2h2.3l0.6,2h0.7l-2-6.4h-1.1L102.6,125.8z M95.3,106.5c0,0.1,0.1,0.3,0.2,0.4s0.2,0.2,0.4,0.2h2.7
	c0.1,0,0.3-0.1,0.4-0.2s0.2-0.2,0.2-0.4V82c0-0.1-0.1-0.3-0.2-0.4s-0.2-0.2-0.4-0.2h-2.7c-0.2,0-0.3,0.1-0.4,0.2s-0.2,0.2-0.2,0.4
	V106.5z M94.8,124.1c0,0.7-0.5,1.2-1.4,1.2s-1.4-0.6-1.7-1.3l-0.6,0.2c0.3,0.8,0.9,1.7,2.3,1.7c1.6,0,2.2-0.9,2.2-1.9
	c0-2.1-3.6-1.7-3.6-3.1c0-0.6,0.5-1,1.2-1c0.8,0,1.3,0.5,1.5,1.1l0.6-0.1c-0.3-1.1-1.1-1.6-2.1-1.6c-1.2,0-1.9,0.7-1.9,1.7
	C91.2,123,94.8,122.5,94.8,124.1z M67.3,34.2L70.8,51c0.9,4.2,4.1,6.5,8,6.5c0,0,0,0,0.1,0c0.8,0,1.7-0.1,2.6-0.3
	c4.4-0.9,7.4-3.9,7.4-8c0-0.6-0.1-1.3-0.2-2l-3.5-16.8c-0.1-0.3-0.4-0.5-0.6-0.4l-2.7,0.6c-0.3,0.1-0.5,0.3-0.4,0.6l3.6,17
	c0.1,0.4,0.1,0.7,0.1,1.1c0,2.1-1.3,4-4.4,4.6c-0.5,0.1-1.1,0.2-1.5,0.2c-2.6,0-4.2-1.5-4.6-3.7l-3.6-17c-0.1-0.3-0.4-0.5-0.6-0.4
	l-2.7,0.6C67.4,33.6,67.2,33.9,67.3,34.2z M58.8,106.5c0,0.1,0.1,0.3,0.2,0.4c0.1,0.1,0.2,0.2,0.4,0.2h14.3c0.2,0,0.3-0.1,0.4-0.2
	s0.2-0.2,0.2-0.4v-2.3c0-0.1-0.1-0.3-0.2-0.4s-0.2-0.2-0.4-0.2H62.6V82c0-0.1-0.1-0.3-0.2-0.4c-0.1-0.1-0.2-0.2-0.4-0.2h-2.7
	c-0.1,0-0.3,0.1-0.4,0.2c-0.1,0.1-0.2,0.2-0.2,0.4v24.5H58.8z M26.7,54.5c0,2.2,0.6,4.7,1.9,7.5c2.6,5.7,6.2,8.8,10.4,8.8
	c1.1,0,2.2-0.2,3.3-0.6c1,1.8,0.5,0.9,1.2,2c1.1,1.9,2.6,3.9,5.3,4c1.4,0,2.8-0.5,4.3-1.4c0.1-0.1,0.2-0.2,0.3-0.3
	c0-0.1,0-0.3-0.1-0.4L52.1,72c-0.2-0.3-0.5-0.4-0.7-0.2c-1.2,0.7-2.1,0.9-2.5,0.9l0,0l0,0c-0.6,0-1.2-0.4-2.3-2.2
	c-0.6-1.1-0.2-0.3-1.1-1.9c2.3-1.7,3.5-4.3,3.5-7.4c0-2.2-0.6-4.7-1.8-7.5c-2.6-5.7-6.2-8.8-10.5-8.8c-1.4,0-2.8,0.3-4.2,1
	C28.7,47.5,26.7,50.6,26.7,54.5z"/>
</svg>
