<?xml version="1.0" encoding="utf-8"?>
<!-- Generator: Adobe Illustrator 18.1.1, SVG Export Plug-In . SVG Version: 6.00 Build 0)  -->
<svg version="1.1" xmlns="http://www.w3.org/2000/svg" xmlns:xlink="http://www.w3.org/1999/xlink" x="0px" y="0px"
	 viewBox="0 5.3 30 19.5" enable-background="new 0 5.3 30 19.5" xml:space="preserve">
<g id="Layer_2">
</g>
<g id="Layer_1">
	<g>
		<path d="M5.2,14.1c0.1,0,0.2,0,0.3-0.1c0.3-0.1,0.4-0.3,0.4-0.7c0-0.2-0.1-0.5-0.2-0.8c-0.3-0.6-0.6-0.9-1-0.9
			c-0.1,0-0.2,0-0.3,0.1C4.1,11.8,4,12,4,12.4c0,0.2,0.1,0.5,0.2,0.8C4.5,13.8,4.8,14.1,5.2,14.1z"/>
		<polygon points="13.8,21 13.8,21 13.7,21.4 13.9,21.4 		"/>
		<path d="M0,5.3v19.5h30V5.3H0z M28.8,23.5C28.8,23.5,28.8,23.5,28.8,23.5C28.8,23.6,28.8,23.6,28.8,23.5L1.2,23.6c0,0,0,0-0.1,0
			c0,0,0,0,0,0v-17c0,0,0,0,0-0.1c0,0,0,0,0.1,0h27.5c0,0,0,0,0.1,0c0,0,0,0,0,0V23.5z"/>
		<path d="M11.3,21c-0.2,0-0.2,0.1-0.2,0.3c0,0.2,0.1,0.4,0.2,0.4c0.1,0,0.2-0.1,0.2-0.4C11.5,21.1,11.4,21,11.3,21z"/>
		<path d="M1.3,23.4h27.4V6.6H1.3V23.4z M10.6,21.7l-0.5,0v-0.8h0.1v0.8L10.6,21.7L10.6,21.7z M11.3,21.8c-0.2,0-0.3-0.2-0.3-0.4
			c0-0.3,0.1-0.4,0.3-0.4c0.2,0,0.3,0.2,0.3,0.4C11.6,21.6,11.5,21.8,11.3,21.8z M17.1,21.7h-0.5v-0.8h0.5V21h-0.4v0.3H17v0.1h-0.3
			v0.3L17.1,21.7L17.1,21.7z M18,21.7l-0.5,0v-0.8h0.1v0.8L18,21.7L18,21.7z M19.6,21.8c-0.2,0-0.3-0.1-0.3-0.2l0.1,0
			C19.4,21.6,19.5,21.7,19.6,21.8c0.1-0.1,0.2-0.2,0.2-0.2c0-0.2-0.5-0.2-0.5-0.4c0-0.1,0.1-0.2,0.3-0.2c0.1,0,0.2,0.1,0.3,0.2
			l-0.1,0c0-0.1-0.1-0.1-0.2-0.1c-0.1,0-0.2,0-0.2,0.1c0,0.2,0.5,0.1,0.5,0.4C19.9,21.6,19.8,21.8,19.6,21.8z M24.2,11.1
			C24.1,11.1,24.1,11,24.2,11.1l0.1-0.4c0,0,0.1-0.1,0.1,0l2.1,0.9c0,0,0,0,0,0c0,0,0,0,0,0.1L26.4,12c0,0,0,0,0,0c0,0,0,0-0.1,0
			l-0.8-0.4l-1.1,2.6c0,0,0,0,0,0c0,0,0,0,0,0c0,0,0,0,0,0l-0.3-0.1c0,0-0.1-0.1,0-0.1l1.1-2.6L24.2,11.1z M22.9,15.9
			C22.9,16,22.9,16,22.9,15.9l0,0.4c0,0,0,0,0,0.1s0,0-0.1,0h-1.5v0.9h1c0,0,0,0,0.1,0c0,0,0,0,0,0.1v0.3c0,0,0,0,0,0.1c0,0,0,0,0,0
			h-1v1.1h1.6c0,0,0,0,0.1,0c0,0,0,0,0,0.1v0.3c0,0,0,0,0,0.1s0,0-0.1,0h-2c0,0,0,0-0.1,0s0,0,0-0.1V16c0,0,0,0,0-0.1s0,0,0.1,0
			L22.9,15.9C22.9,15.9,22.9,15.9,22.9,15.9z M19.3,9.3C19.3,9.3,19.3,9.3,19.3,9.3l2,0.4c0,0,0,0,0,0c0,0,0,0,0,0.1l-0.1,0.3
			c0,0,0,0,0,0c0,0,0,0-0.1,0l-1.5-0.3l-0.2,0.9l1,0.2c0,0,0,0,0,0c0,0,0,0,0,0.1l-0.1,0.3c0,0,0,0,0,0c0,0,0,0-0.1,0l-1-0.2
			l-0.2,1.1l1.6,0.3c0,0,0,0,0,0c0,0,0,0,0,0.1l-0.1,0.3c0,0,0,0,0,0c0,0,0,0,0,0c0,0,0,0,0,0l-2-0.4c0,0-0.1,0-0.1-0.1L19.3,9.3z
			 M18.4,20.9h0.5V21L18.4,20.9l0.1,0.4h0.3v0.1h-0.3v0.3h0.4v0.1h-0.5V20.9z M16.1,16C16.1,16,16.1,16,16.1,16
			C16.1,15.9,16.2,15.9,16.1,16l2-0.1c0,0,0,0,0.1,0c0,0,0,0,0,0.1v0.3c0,0,0,0,0,0.1s0,0-0.1,0h-1.5v0.9h1.1c0,0,0,0,0.1,0
			c0,0,0,0,0,0.1v0.3c0,0,0,0,0,0.1c0,0,0,0-0.1,0h-1.1v1.5c0,0,0,0,0,0.1c0,0,0,0-0.1,0h-0.4c0,0,0,0-0.1,0s0,0,0-0.1V16z
			 M15.8,20.9c0.1,0,0.3,0.1,0.3,0.3l-0.1,0C16,21,15.9,21,15.8,20.9c-0.1,0.1-0.2,0.2-0.2,0.4c0,0.3,0.1,0.4,0.2,0.4
			c0.1,0,0.2-0.1,0.2-0.2v-0.1h-0.2v-0.1h0.3v0.4h-0.1v-0.1c0,0.1-0.1,0.1-0.2,0.1c-0.2,0-0.3-0.1-0.3-0.4
			C15.5,21,15.6,20.9,15.8,20.9z M14.8,9C14.8,9,14.8,9,14.8,9C14.8,8.9,14.9,8.9,14.8,9l0.4-0.1c0,0,0,0,0.1,0s0,0,0,0.1v3.2
			c0,0,0,0,0,0.1c0,0,0,0-0.1,0h-0.4c0,0,0,0-0.1,0c0,0,0,0,0-0.1V9z M14.5,20.9h0.1l0.4,0.6h0v-0.6h0.1v0.8H15L14.5,20.9l0.1,0.8
			h-0.1V20.9z M13.7,20.9h0.1l0.3,0.8H14l-0.1-0.3h-0.3l-0.1,0.3h-0.1L13.7,20.9z M12.5,16C12.5,16,12.5,16,12.5,16
			C12.5,15.9,12.5,15.9,12.5,16l0.4-0.1c0,0,0,0,0.1,0c0,0,0,0,0,0.1v3.2c0,0,0,0,0,0.1s0,0-0.1,0h-0.4c0,0,0,0-0.1,0s0,0,0-0.1V16z
			 M12,21.1c0-0.1,0.1-0.2,0.3-0.2c0.1,0,0.2,0.1,0.3,0.2l-0.1,0c0-0.1-0.1-0.1-0.2-0.1C12.1,21,12.1,21,12,21.1
			c0.1,0.2,0.6,0.1,0.6,0.4c0,0.1-0.1,0.2-0.3,0.2c-0.2,0-0.3-0.1-0.3-0.2l0.1,0c0,0.1,0.1,0.2,0.2,0.2c0.1,0,0.2-0.1,0.2-0.2
			C12.4,21.3,12,21.4,12,21.1z M8.9,9.7l0.3-0.1c0,0,0.1,0,0.1,0.1l0.5,2.2c0.1,0.3,0.3,0.5,0.6,0.5c0.1,0,0.1,0,0.2,0
			c0.4-0.1,0.6-0.3,0.6-0.6c0,0,0-0.1,0-0.1l-0.5-2.2c0,0,0-0.1,0.1-0.1l0.3-0.1c0,0,0.1,0,0.1,0.1l0.5,2.2c0,0.1,0,0.2,0,0.3
			c0,0.5-0.4,0.9-1,1c-0.1,0-0.2,0-0.3,0h0c-0.5,0-0.9-0.3-1.1-0.9L8.9,9.7C8.8,9.7,8.8,9.7,8.9,9.7z M7.7,16C7.7,16,7.7,16,7.7,16
			C7.7,15.9,7.8,15.9,7.7,16l0.4-0.1c0,0,0,0,0.1,0c0,0,0,0,0,0.1v2.8h1.5c0,0,0,0,0,0c0,0,0,0,0,0.1v0.3c0,0,0,0,0,0.1s0,0-0.1,0
			H7.8c0,0,0,0-0.1,0s0,0,0-0.1V16z M4.2,11.3c0.2-0.1,0.4-0.1,0.5-0.1c0.6,0,1,0.4,1.4,1.2c0.2,0.4,0.2,0.7,0.2,1
			c0,0.4-0.2,0.7-0.5,1c0.1,0.2,0.1,0.1,0.1,0.3c0.1,0.2,0.2,0.3,0.3,0.3c0,0,0,0,0,0c0.1,0,0.2,0,0.3-0.1c0,0,0.1,0,0.1,0L7,15
			c0,0,0,0,0,0.1c0,0,0,0,0,0c-0.2,0.1-0.4,0.2-0.6,0.2c-0.4,0-0.6-0.3-0.7-0.5c-0.1-0.1,0,0-0.2-0.3c-0.1,0-0.3,0.1-0.4,0.1
			c-0.5,0-1-0.4-1.4-1.2c-0.2-0.4-0.2-0.7-0.2-1C3.5,11.9,3.8,11.5,4.2,11.3z"/>
	</g>
</g>
</svg>
