<?xml version="1.0" encoding="utf-8"?>
<!-- Generator: Adobe Illustrator 22.0.0, SVG Export Plug-In . SVG Version: 6.00 Build 0)  -->
<svg version="1.1" id="Layer_1" xmlns="http://www.w3.org/2000/svg" xmlns:xlink="http://www.w3.org/1999/xlink" x="0px" y="0px"
	 viewBox="0 0 209.3 46.5" style="enable-background:new 0 0 209.3 46.5;" xml:space="preserve">
<g>
	<rect x="25.9" y="26" width="20.7" height="20.4"/>
	<path d="M46.6,0L0,0l0,46.5h22.2V22.3c1.1,0,24.4,0,24.4,0"/>
	<path d="M65,8.3c3,0,4.5-0.4,4.5-2.6C69.5,3.5,68,3,65,3h-7v5.3H65z M54.3,0h11.2c4.4,0,7.6,1,7.6,5.6c0,3.4-2.5,5.3-5.2,5.5
		l5.7,7.6h-4.5l-5.4-7.3H58v7.3h-3.7V0z"/>
	<polygon points="79.1,0 95.9,0 95.9,3.1 82.8,3.1 82.8,7.5 94,7.5 94,10.6 82.8,10.6 82.8,15.6 96.2,15.6 96.2,18.7 79.1,18.7 	"/>
	<polygon points="101,0 104.7,0 104.7,15.5 118.2,15.5 118.2,18.7 101,18.7 	"/>
	<path d="M136.1,11.3l-3.9-8.3l-3.9,8.3H136.1z M130.2,0h4.2l9.1,18.7h-3.9l-2-4.3h-10.8l-2,4.3H121L130.2,0z"/>
	<polygon points="151.1,3.1 142.7,3.1 142.7,0 163.1,0 163.1,3.1 154.7,3.1 154.7,18.7 151.1,18.7 	"/>
	<polygon points="167.7,0 184.5,0 184.5,3.1 171.4,3.1 171.4,7.5 182.7,7.5 182.7,10.6 171.4,10.6 171.4,15.6 184.8,15.6 
		184.8,18.7 167.7,18.7 	"/>
	<path d="M197,15.6c6.2,0,8.6-1.9,8.6-6.3c0-4.6-2.5-6.1-8.6-6.1h-3.7v12.4H197z M189.7,0h9c5.9,0,10.6,2.5,10.6,9.2
		c0,6.4-4.3,9.5-10.5,9.5h-9.2V0z"/>
	<path d="M56.6,36.2h8.1c3.3,0,5.7-0.5,5.7-3.2c0-2.7-2.5-3.2-5.7-3.2h-8.1V36.2z M54.3,27.7h10.9c3,0,7.4,0.6,7.4,5.3
		c0,3.9-3.6,5.1-5.9,5.2l6.2,8.4H70L64,38.2h-7.4v8.3h-2.3V27.7z"/>
	<polygon points="83.6,27.7 100.4,27.7 100.4,29.7 85.9,29.7 85.9,35.7 98,35.7 98,37.7 85.9,37.7 85.9,44.5 100.7,44.5 100.7,46.5 
		83.6,46.5 	"/>
	<path d="M124.2,39.6l-5-10.1l-5,10.1H124.2z M117.7,27.7h2.8l9.7,18.8h-2.6l-2.4-4.9H113l-2.5,4.9H108L117.7,27.7z"/>
	<polygon points="139.4,27.7 141.7,27.7 141.7,44.5 156.5,44.5 156.5,46.5 139.4,46.5 	"/>
	<polygon points="167.8,29.7 158.7,29.7 158.7,27.7 179.2,27.7 179.2,29.7 170.1,29.7 170.1,46.5 167.8,46.5 	"/>
	<polygon points="196.4,38.9 186.7,27.7 189.6,27.7 197.5,36.9 205.4,27.7 208.3,27.7 198.6,38.9 198.6,46.5 196.4,46.5 	"/>
</g>
</svg>
