<?xml version="1.0" encoding="utf-8"?>
<!-- Generator: Adobe Illustrator 16.0.4, SVG Export Plug-In . SVG Version: 6.00 Build 0)  -->
<!DOCTYPE svg PUBLIC "-//W3C//DTD SVG 1.1//EN" "http://www.w3.org/Graphics/SVG/1.1/DTD/svg11.dtd">
<svg version="1.1" id="Layer_1" xmlns="http://www.w3.org/2000/svg" xmlns:xlink="http://www.w3.org/1999/xlink" x="0px" y="0px"
	 width="493px" height="318px" viewBox="0 0 493 318" enable-background="new 0 0 493 318" xml:space="preserve">
<g>
	<path d="M110.382,108.633v25.611h0.632c9.479-21.598,27.728-31.475,49.829-32.884c1.877-0.118,3.019-0.492,4.497,0.997
		c1.48,1.478,1.203,3.507,1.203,3.507v14.454c0,0,0.405,3.776-1.472,4.854c-2.539,1.456-2.943,1.28-5.103,1.409
		c-26.2,1.772-48.017,12.435-48.017,53.894v45.892c0,0-0.062,1.993,0.988,3.05c1.05,1.044,3.5,1.079,3.5,1.079h13.069
		c0,0,2.294,0.13,3.572,1.067c1.286,0.949,1.365,3.58,1.365,3.58v10.979c0,0,0.325,3.506-0.82,4.646
		c-1.144,1.148-4.927,0.938-4.927,0.938h-58.63c0,0-2.729,0.166-3.7-0.797c-0.969-0.976-0.969-3.308-0.969-3.308v-13.41
		c0,0,0.257-1.854,1.102-2.687c0.837-0.845,3.162-1.01,3.162-1.01H80.79c0,0,2.632-0.21,3.5-1.079
		c0.887-0.878,0.817-3.307,0.817-3.307v-96.373c0,0,0.03-1.512-0.681-2.218c-1.019-1.03-2.492-0.891-2.492-0.891H69.229
		c0,0-2.182,0.188-2.974-0.598c-1.144-1.15-0.855-3.321-0.855-3.321v-13.7c0,0-0.236-1.902,0.833-2.969
		c0.833-0.832,3.607-0.597,3.607-0.597h37.181c0,0,1.737-0.306,2.622,0.583C110.535,106.922,110.382,108.633,110.382,108.633"/>
	<path d="M352.823,101.113h16.896c0,0,2.19-0.435,3.855,1.233c1.473,1.476,1.126,3.601,1.126,3.601v15.729
		c0,0,0.27,2.734-0.863,3.85c-1.309,1.313-4.224,1.103-4.224,1.103h-16.888c0,0-3.05-0.259-4.397,1.054
		c-1.349,1.313-1.086,3.87-1.086,3.87v77.733c0,20.271,2.812,21.523,13.725,21.523c2.487,0,5.087-0.197,7.668-0.435
		c1.94-0.188,2.679-0.328,4.171,0.989c1.623,1.406,1.584,3.423,1.584,3.423v11.331c0,0,0.104,2.724-1.238,4.25
		c-1.01,1.148-2.271,2.322-4.036,2.697c-5.853,1.268-11.836,1.807-17.82,1.807c-24.946,0-30.875-6.945-30.875-38.3v-85.288
		c0,0,0.144-2.171-0.95-3.33c-1.373-1.49-3.676-1.325-3.676-1.325h-14.283c0,0-2.669,0.445-4.488-1.362
		c-1.396-1.409-1.25-4.587-1.25-4.587v-14.642c0,0-0.025-1.794,1.604-3.423c1.622-1.631,4.228-1.503,4.228-1.503h14.102
		c0,0,2.584,0.318,3.793-0.903c1.161-1.138,0.921-3.789,0.921-3.789V58.876c0,0-0.389-1.947,1.226-3.554
		c1.607-1.607,3.942-1.161,3.942-1.161h15.461c0,0,3.257-0.398,5.192,1.033c1.443,1.103,1.002,4.598,1.002,4.598v36.546
		c0,0-0.35,2.63,1.041,4.015C349.668,101.735,352.823,101.113,352.823,101.113"/>
	<path d="M447.475,251.706h-56.146c0,0-2.638,0.21-4.218-1.349c-1.664-1.688-1.651-3.836-1.651-3.836v-11.309
		c0,0-0.372-1.529,1.365-3.264c1.737-1.711,4.325-1.454,4.325-1.454h10.146c0,0,2.92,0.058,4.205-1.22
		c1.455-1.455,1.229-4.719,1.229-4.719v-93.411c0,0,0.236-1.75-1.45-3.427c-1.685-1.688-4.089-1.091-4.089-1.091h-8.711
		c0,0-2.58-0.119-4.477-1.911c-1.852-1.747-1.605-4.494-1.605-4.494v-13.891c0,0-0.188-2.11,1.605-3.893
		c1.805-1.819,5.339-1.313,5.339-1.313h34.109c0,0,3.061-0.049,4.723,1.592c1.652,1.668,1.396,3.708,1.396,3.708v117.969
		c0,0-0.143,3.084,1.64,4.879c1.803,1.783,5.269,1.22,5.269,1.22h6.234c0,0,3.46-0.15,5.163,1.548
		c1.711,1.714,1.403,3.543,1.403,3.543v9.689c0,0,0.34,2.957-1.486,4.789C449.943,251.895,447.475,251.706,447.475,251.706"/>
	<path d="M287.491,75.623v12.551c0,0,0.397,4.529-1.073,5.995c-1.473,1.468-5.359,0.985-5.359,0.985H178.605
		c0,0-3.08,0.399-5.011-1.538c-1.923-1.923-1.472-4.632-1.472-4.632V75.058c0,0-0.358-2.11,1.624-4.082
		c1.958-1.969,5.321-1.606,5.321-1.606h100.717c0,0,3.829-0.646,5.959,1.478C287.861,72.97,287.491,75.623,287.491,75.623"/>
	<path d="M403.443,63.848c0-9.75,7.015-15.871,16.022-15.871c9.035,0,16.042,6.122,16.042,15.871
		c0,10.147-6.37,15.873-16.042,15.873C409.812,79.721,403.443,73.995,403.443,63.848"/>
	<path d="M154.854,181.979c0-46.174,33.212-75.198,75.948-75.198c42.737,0,75.94,29.024,75.94,75.198
		c0,48.062-30.137,75.194-75.94,75.194C184.98,257.173,154.854,230.039,154.854,181.979 M181.296,181.979
		c0,32.141,19.678,53.983,49.505,53.983c29.821,0,49.493-21.843,49.493-53.983c0-32.146-19.671-53.987-49.493-53.987
		C200.974,127.99,181.296,149.831,181.296,181.979"/>
	<path d="M444.404,106.979c0,0.461-0.359,0.797-0.869,0.797h-0.856v-1.606h0.856C444.045,106.17,444.404,106.516,444.404,106.979
		 M445.167,110.194l-1.099-1.957c0.565-0.173,0.981-0.587,0.981-1.258c0-0.776-0.646-1.376-1.444-1.376h-1.561v4.592h0.634v-1.875
		h0.695l1.052,1.875L445.167,110.194L445.167,110.194z M446.938,107.905c0,1.963-1.584,3.574-3.528,3.574
		c-1.942,0-3.518-1.611-3.518-3.574c0-1.967,1.575-3.574,3.518-3.574C445.354,104.331,446.938,105.938,446.938,107.905
		 M447.594,107.905c0-2.314-1.873-4.188-4.186-4.188c-2.312,0-4.187,1.874-4.187,4.188c0,2.312,1.875,4.186,4.187,4.186
		C445.722,112.091,447.594,110.217,447.594,107.905"/>
</g>
</svg>
