<svg xmlns="http://www.w3.org/2000/svg" viewBox="0 0 500 112">
  <defs/>
  <path d="M23.6 43.1zM192.7 62.3c-1 0-2.1-.3-3.2-.9l-.5-.3-2.5 5.5.5.3c2.1 1.2 4.1 1.6 6.5 1.6 4.4 0 7-2.2 9.1-7.7l10.7-27.6H205.9s-5.5 15.8-6.4 18.3c-1-2.5-7-18.3-7-18.3h-7.6s10.9 26.2 11.1 26.7c-1.2 1.9-2.1 2.4-3.3 2.4zM123.4 55.3l.4-.4-4.4-4.3-.4.4c-2.1 2.1-4.1 3.1-6.4 3.1-4.1 0-7.3-3.4-7.3-7.8v-.1c0-4.3 3.1-7.7 7-7.7 3 0 4.8 1.5 6.4 3.1l.4.4 4.5-4.8-.3-.4c-3-3.3-6.3-4.7-10.9-4.7-7.9 0-14.1 6.2-14.1 14.2v.1c0 7.9 6.2 14.1 14.1 14.1 5.7-.1 8.8-2.7 11-5.2zM139.7 60.3c8.2 0 14.6-6.2 14.6-14.2V46c0-7.9-6.3-14.1-14.5-14.1s-14.5 6.2-14.5 14.2v.1c0 7.9 6.3 14.1 14.4 14.1zM132.4 46c0-4.5 3.1-7.8 7.3-7.8 4.2 0 7.5 3.4 7.5 7.8v.1c0 3.9-2.5 7.7-7.3 7.7-4.2.1-7.5-3.3-7.5-7.8zM86.5 32.8v15.6c0 3-2 5.2-4.8 5.2s-4.9-2.2-4.9-5.2V32.8h-7.5v15.5c0 6.8 5.4 11.2 12.4 11.2 2.1 0 4.1-.8 5.8-1.7.2-.1.3-.2.5-.3v2h6V32.7l-7.5.1zM165.8 59.6V44.1c0-3 2-5.2 4.8-5.2s4.9 2.2 4.9 5.2v15.4h7.5V44.1c0-6.8-5.4-11.2-12.4-11.2-2.1 0-4.1.8-5.8 1.7-.2.1-.3.2-.5.3l-.1-1.4V33h-6v26.8l7.6-.2zM57.1 33.3v1.2c-2.2-1.2-4.7-2.5-7.5-2.5-8.3 0-14.8 5.8-14.8 13.9v.1c0 8 6.5 13.8 14.7 13.8 2.8 0 5.4-1.3 7.6-2.6V59h6.7V32.6h-6.7v.7zm-7.3 20.6c-4.5 0-8.1-3.6-8.1-8s3.7-8 8.1-8c4.5 0 8.2 3.6 8.2 8-.1 4.4-3.7 8-8.2 8zM21.7 36.6c1.8 0 4.3.9 7.5 2.6l.3.1 2.8-5.1-.3-.1c-3-1.9-6.9-3-10.3-3-5.2 0-10.4 2.8-10.4 9v.1c0 5.1 4.7 7.1 8.7 8.3 2.7.8 5.3 1.7 5.3 3.7v.1c0 .9-.4 3.1-4 3.1-2.5 0-5.7-1.5-9-3.7l-.2-.2L9 56.3l.2.1c3.5 2.6 7.7 4.3 11.9 4.3 7.1 0 10.9-3.4 10.9-9v-.6c0-3.5-2.8-6.2-8.7-8.2l-.7-.2c-2.7-.9-4.7-1.6-4.7-3.6V39c.2-1.1 1.3-2.4 3.8-2.4z"/>
  <path d="M269.2 63.7c-2.2-1.5-2.2-1.5-3.7-2.4-14.4-8.7-21.8-9.7-28.7-7.4-5.4 1.8-14.7 9.2-14.7 9.2-8.5 5.7-17.1 15-37.2 13.9-18.8-1-57.4-11-57.8-11.2-.5-.1-1 .2-.8.8.1.4 1 2.5 1 2.5.1.3.4.3.5.4 15.4 6.2 62.3 23.4 78.9 23.4 19.8 0 36.1-27.4 53.7-27.4 5.5 0 6.8.2 7.6.2.8.1 1.4-.2 1.6-.8 0-.1.2-.7-.4-1.2zm-52.5 20.8zm1.6-3.2c-.2 1.1-.8 2.1-1.8 2.7-.9.6-2.1.8-3.2.6-1.1-.2-2.1-.9-2.7-1.8-1.3-2-.8-4.6 1.2-5.9 1.9-1.3 4.6-.8 5.9 1.2.6 1 .8 2.1.6 3.2zm10.6-5.6c-2 1.3-4.6.8-5.9-1.2-1.3-2-.8-4.6 1.2-5.9 2-1.3 4.6-.8 5.9 1.2.5.7.7 1.5.7 2.3 0 1.5-.7 2.8-1.9 3.6zm14.3-11c-.2 1.1-.9 2.1-1.8 2.7-.9.6-2.1.8-3.2.6-1.1-.2-2.1-.8-2.7-1.8-.6-.9-.8-2.1-.6-3.2.2-1.1.9-2.1 1.8-2.7.9-.6 2.1-.8 3.2-.6 1.1.2 2.1.9 2.7 1.8.6 1 .8 2.1.6 3.2z"/>
  <g>
    <path d="M413.8 33.1c-.1.1-.1.4.2.4 1.7 0 3.4.1 5 .1 30.7 1.5 54.7 13.8 54.7 28.8 0 16-27.3 29-61.1 29s-61.1-13-61.1-29c0-3.4.8-7.1 3.1-10.1 0 0 .1-.1-.1-.3-.2-.1-.3.1-.3.1-3.3 3.8-5.1 7.9-5.1 12.3 0 17.3 29.1 31.4 64.9 31.4s65-14.1 65-31.4c0-16.5-26.4-30.1-59.9-31.3-1.6-.1-3.3-.1-5-.1 0 0-.2 0-.3.1"/>
    <path d="M465.5 56c0 .7-.5 1.1-1 1.1-.6 0-1-.4-1-1.1s.5-1.1 1-1.1c.6 0 1 .4 1 1.1m.5 0c0-.9-.7-1.4-1.4-1.4-.8 0-1.4.5-1.4 1.4s.7 1.4 1.4 1.4 1.4-.5 1.4-1.4m-1.7.1h.2l.4.7h.4l-.4-.7c.2 0 .4-.1.4-.4 0-.4-.2-.5-.6-.5h-.7v1.5h.3v-.6zm0-.2v-.4h.2c.1 0 .3 0 .3.2s-.1.2-.2.2h-.3zM455.9 58.1c-3.9 0-6.4 4.1-6.4 7.7s2.5 7.7 6.4 7.7c3.9 0 6.4-4.1 6.4-7.7 0-3.6-2.4-7.7-6.4-7.7m10.1 7.7c0 5.4-3.9 9.8-10 9.8-6.2 0-10-4.4-10-9.8s4.5-9.8 10-9.8 10 4.4 10 9.8M390.7 51.2s-6.9-5.4-11.7-6.1c-4.7-.7-9 .5-13.3 4.4-4.6 4.1-7.9 13.3-1.8 21.6 5 6.9 15 7.2 20.7 4.3 5.6-2.9 7.1-5.8 7.1-5.8l.1-3.5s-2.9 5.8-10.4 7.3c-6 1.1-12.4-1.9-14.9-7.4-2-4.5-.7-12.2 3.1-15.4 3.8-3.3 8-4.4 12.4-2.5 4.5 1.8 5.4 5.3 4.9 7-.7 2.5-1.1 2.6-1.1 2.6l.7.4 4.2-6.9z"/>
    <path d="M446.1 59.8s-.6 1-1 1.9c-.4.9-1 2.4-1 2.4h-.5s.3-2-.6-3.5c-.9-1.4-2.5-2.5-4.1-2.5-2.2 0-4.2 1-5.6 3.3-1.6 2.7-1.3 5.2-.8 7.1.9 3.1 4 5 7.2 4.6 4.3-.4 6.1-2.9 6.1-2.9l.8 1.3s-.9 1.1-2.4 2.2c-1.3.9-3.1 2-6.6 1.8-4.1-.1-6.7-2.1-8-5.1-1.2-2.6-1.6-6.8.8-10.4 2.2-3.2 5.2-4.1 8-4 2.9 0 5.3 1.8 6 2.3.9.6 1.7 1.5 1.7 1.5"/>
    <path d="M417.3 73.1c-1.8-.8-2.8-2.4-2.5-4.4.1-.8.4-1.7 1.1-2.6 2.4-3.2 8-1.3 8-1.3V72c-.1 0-4.1 2.1-6.6 1.1m12.8 0s-.8.9-1.5.7c-.7-.2-.8-.7-.9-1.1 0-.2-.5-8.7-.5-9.3 0-4.4-3.4-7.6-7.6-7.6-1 0-2 .2-2.9.6-.2.1-.5.2-.7.3-1.8.8-3.8 1.8-3.8 1.8l1.7 2.5 1-1c.4-.4 1.3-1.3 2.7-1.9.5-.2 1.1-.3 1.7-.3 3.2 0 4.6 2.1 4.6 4.6v.5s-3.5-.6-6-.3c-2.1.3-4.9 1-6.3 3.8-.3.7-.5 1.4-.6 2.1-.3 2.3.6 4.9 3.2 6.3 2.6 1.3 4.6 1 6.4.5 1.5-.5 3.6-1.8 3.6-1.8s.7 1.9 2.2 2c1.3.1 2.1-.3 2.8-.7.8-.5 1.3-1.3 1.3-1.3l-.4-.4zM411 75.3c-.1-.1-.9-.4-1.1-1-.1-.3-.1-2-.1-2v-7.7c.1-2.6-.4-4.1-.8-5.1-.4-.7-1.9-3.3-5.8-3.4-3.7-.1-6.5 4-6.5 4V46.3s.1-1.3-.4-1.9c-.2-.3-.5-.4-.5-.4l-4 6.5s.6 0 .9.3c.4.4.3 1.5.3 1.5v20s0 1.7-.1 2c-.2.8-1.1 1.1-1.1 1.1v.5h6v-.5s-.9-.3-1.1-1.1c-.1-.3-.1-2-.1-2v-7.7s0-.6 1.5-2.6c1-1.4 1.2-1.6 2.4-2.7.8-.7 2.7-1.6 4.3-.2 1.5 1.4 1.3 4.3 1.3 4.3v8.9s0 1.7-.1 2c-.2.7-.9 1-1.1 1.1v.5h6l.1-.6zM392.4 41.2c-2 .6-4.5.2-4.5.2 1.3-.3 4.3-2.6 4.5-2.8.2-.2.5-.7.3-.9-.2-.2-.4 0-.4 0-1.4 1.2-4.4 2.4-4.4 2.4.4-.3 1-.8 2.6-3.1s.1-2.9.1-2.9c-6.1-1.4-11 2.2-11.8 2.8l-.1.1c-.2.8.8.6.8.6 2.9-.6 5.2-.3 6.1-.2s.7 1 .2 2c-.5 1-2.4 2.4-3.2 2.7-.7.3-.3.6-.3.6.1.1.2 0 .3 0h.2c2.4.3 5.8 3 5.8 3s.7.7.7.1c.1-.9-2.4-2.9-2.4-2.9 3.4.1 5.2-1 5.2-1s.5-.2.5-.5c.2-.2-.2-.2-.2-.2M418.5 41.6c-1.4-2.5-3.5-3.1-3.5-3.1.9 0 1.9-1.2 2-1.4.1-.2.2-.5.1-.5s-.3.1-.3.1c-1.5 1.6-4.1 1.1-5.9.3-1.8-.8-3.9-.7-3.9-.7s2.9-1.9 3.3-4.3c.3-2.4-.7-1.7-.7-1.7-1.6 2.2-3.3 2.3-3.7 2.4-.3.1-1.6.1-1.8.9-.2.8-1.1 1.8-2.1 2.6-.7.5-.3 1.1-.3 1.1.5.6 1.4 1 1.7 1.1.4.1 1.2-.5 5.1 0 3.9.6 6.3 5.2 6.4 5.9 0 .3.1.4.2.5.1 0 .2.1.2 0 .7-2.1-.9-4.6-.9-4.6 2.5.5 3.4 1.6 3.5 1.6.1.1.3.3.5.2.2-.2.1-.4.1-.4"/>
    <path d="M421.7 12.5c-.1-1.5-1.1-2-1.7-2.1h-.6c-5.3.8-8 5.2-8.1 5.2-.7 1-1.7 3.9-2.1 5.3-.3 1.2-.8 1.8-.8 1.8-1.4 2.1-5.7 7.2-15.4 5-14.5-3.2-22.7 8.1-22.8 8.2-5.8 7.3-11.5 11.2-16.8 11.6-4.3.3-6.8-1.9-6.8-1.9h-.2c0 .1-.1.1 0 .2 2.1 2.2 4.6 3.4 7.5 3.5 8.1.2 16.9-8.4 16.9-8.5 13.7-12.6 25.1-9.6 25.2-9.5 12 2.3 15.9-4.3 16.8-6.3 0-.1.1-.1.1-.2.1-.2.2-.4.3-.5.7-.6 1.4-1.1 2.2-1.6 1.3-.9 2.7-1.8 3.6-3.1 1.5-2.1 2.6-5.2 2.6-6.9.1-.1.1-.2.1-.2M382.2 19.9c-1.4-1-6.6 2.8-6.6 2.8s-.3.2-.3.1.1-.3.1-.3c.9-1.5 2.2-3.4 1.7-3.8-.5-.4-2.5 2.6-2.8 3.1-.3.5-.4.3-.4.3 0-1.5-.3-2.9-.5-3.3-.2-.4-.3-.4-.5-.4-.1 0-.2.2-.2.2.5 3.1-1.2 6.2-1.4 6.4-.3.3 0 .4 0 .4 1.7.6 5.5-1.5 6.8-1 1.3.5-1.7 4-1.7 4l-.1.1v.1c0 .2.1.3.3.3h.1c1.4-.4 3.9-2 4.3-2.5.6-.5 2.6-5.6 1.2-6.5"/>
    <path d="M407.6 15.8c-.2-.1-.3.2-.3.2-.9 1.8-2.3 1.9-2.3 1.9 2-2 1.2-4.4 1.2-4.6-.1-.1-.1-.1-.2 0-.1 0-.1.2-.1.2 0 2.3-2 3.8-2 3.8.4-2.4-.4-3.2-.5-3.4-.2-.3-.3 0-.3 0 .2 4.4-1.1 5.6-3.1 6.6s-4.1 1.4-4.3 2.1c-.2.8.4.9 2.8 1.6 1.5.4 2.1 1 2.3 1.4.1.1.1.2.1.4 0 .1.1.1.2.1.2 0 .8-.1 1.8-1 1.5-1.3 1-2.1 1-2.1-.8-1.3-2.5-1.3-2.5-1.3 4.9-1.8 6.1-4.9 6.2-5.2 0-.3.2-.7 0-.7"/>
  </g>
  <path d="M293.38227 72.32747l27.94625-27.91465 1.62541 1.62725-27.94625 27.91465z"/>
  <path d="M293.31164 46.10336l1.62633-1.62633 27.93045 27.93045-1.62633 1.62633z"/>
</svg>
