<svg xmlns="http://www.w3.org/2000/svg" viewBox="0 0 483 278">
  <defs/>
  <path d="M128.9 16.8zM305.9 36.8c-1.1 0-2.2-.3-3.4-1l-.6-.3-2.6 5.8.5.3c2.2 1.2 4.3 1.7 6.8 1.7 4.6 0 7.3-2.3 9.6-8l11.2-28.9h-7.9s-5.8 16.6-6.7 19.2c-1-2.6-7.3-19.2-7.3-19.2h-8s11.4 27.5 11.6 27.9c-.9 2-1.9 2.5-3.2 2.5zM233.4 29.5l.4-.4-4.6-4.5-.4.4c-2.2 2.2-4.2 3.2-6.7 3.2-4.3 0-7.6-3.5-7.6-8.2v-.1c0-4.5 3.2-8.1 7.3-8.1 3.2 0 5.1 1.5 6.7 3.2l.4.5 4.7-5.1-.4-.4c-3.1-3.4-6.6-4.9-11.4-4.9-8.3 0-14.8 6.5-14.8 14.9v.1c0 8.3 6.5 14.7 14.7 14.7 6.1 0 9.4-2.7 11.7-5.3zM250.5 34.7c8.5 0 15.2-6.5 15.2-14.8v-.1c0-8.3-6.6-14.8-15.1-14.8s-15.2 6.5-15.2 14.9v.1c0 8.3 6.6 14.7 15.1 14.7zm-7.7-14.9c0-4.7 3.2-8.1 7.6-8.1 4.5 0 7.8 3.5 7.8 8.2v.1c0 4-2.6 8.1-7.7 8.1-4.4 0-7.8-3.6-7.8-8.2l.1-.1zM194.8 6v16.2c0 3.2-2.1 5.4-5 5.4s-5.2-2.4-5.2-5.5V6h-7.8v16.2c0 7.1 5.7 11.7 12.9 11.7 2.2 0 4.3-.8 6.1-1.7.2-.1.3-.2.5-.3l.1 1.4v.5h6.3V6h-7.9zM277.8 34V17.7c0-3.2 2.1-5.4 5-5.4s5.2 2.4 5.2 5.5V34h7.8V17.7c0-7.1-5.7-11.8-12.9-11.8-2.2 0-4.3.8-6.1 1.7-.2.1-.3.2-.5.3l-.1-1.4V6h-6.3v28h7.9zM164 6.4v1.2c-2.3-1.3-4.9-2.6-7.9-2.6-8.7 0-15.5 6-15.5 14.6v.1c0 8.4 6.8 14.4 15.4 14.4 3 0 5.7-1.4 8-2.7v2h7V5.8h-7v.6zM156.4 28c-4.7 0-8.5-3.8-8.5-8.4s3.8-8.4 8.5-8.4 8.5 3.8 8.5 8.4c0 4.6-3.8 8.4-8.5 8.4zM127 9.9c1.9 0 4.5.9 7.8 2.7l.3.1 2.9-5.3-.2-.1c-3.2-2-7.2-3.1-10.7-3.1-5.4 0-10.9 2.9-10.9 9.4v.1c0 5.3 4.9 7.4 9.1 8.7 2.8.8 5.6 1.8 5.6 3.9v.1c0 .9-.4 3.3-4.1 3.3-2.6 0-6-1.5-9.4-3.9l-.2-.2-3.3 5.1.2.2c3.7 2.7 8.1 4.5 12.5 4.5 7.4 0 11.4-3.6 11.4-9.5v-.6c0-3.7-3-6.5-9.1-8.5l-.8-.2c-2.8-.9-4.9-1.6-4.9-3.8v-.1c-.1-1.4 1.2-2.8 3.8-2.8z"/>
  <path d="M386.1 38.3c-2.3-1.6-2.3-1.6-3.9-2.5-15-9.1-22.8-10.2-30.1-7.7-5.7 1.9-15.4 9.6-15.4 9.6-8.9 5.9-17.9 15.7-39 14.6-19.6-1.1-60-11.6-60.5-11.7-.5-.1-1 .2-.9.8.1.4 1.1 2.6 1.1 2.6.1.3.4.4.5.4 16.1 6.5 65.2 24.5 82.6 24.5 20.7 0 37.8-28.7 56.2-28.7 5.7 0 7.2.2 8 .2.8.1 1.5-.2 1.7-.9 0-.1.3-.7-.3-1.2zm-55 21.8zm1.6-3.4c-.2 1.2-.9 2.2-1.9 2.8-1 .6-2.2.9-3.3.6-1.2-.2-2.2-.9-2.8-1.9-1.4-2-.8-4.8 1.2-6.1 2-1.3 4.8-.8 6.1 1.2.7 1.1 1 2.3.7 3.4zm11.2-5.8c-2 1.4-4.8.8-6.1-1.2-1.4-2-.8-4.8 1.2-6.1 2-1.4 4.8-.8 6.1 1.2.5.8.8 1.6.8 2.4-.1 1.4-.8 2.8-2 3.7zm14.9-11.5c-.2 1.2-.9 2.2-1.9 2.8-1 .6-2.2.9-3.3.6-1.2-.2-2.2-.9-2.8-1.9-.6-1-.9-2.2-.6-3.3.2-1.2.9-2.2 1.9-2.8 1-.6 2.2-.9 3.3-.6 1.2.2 2.2.9 2.8 1.9.6.9.8 2.1.6 3.3z"/>
  <g>
    <path d="M8 112.5h53v17.1H28.5v6.3h30.4v15H28.5v6.8h33.1v17.1H8v-62.3zM66.6 126.2h20.2v6.8c3.1-4 8-7.9 14.8-7.9 10.2 0 16.6 6.8 16.6 17.7v32H98v-25.5c0-4.2-2.5-6.6-5.5-6.6s-5.8 2.4-5.8 6.6v25.5H66.6v-48.6zM122.5 150.8v-.2c0-15.4 9.2-25.6 20.7-25.6 7.4 0 11.5 3.2 14.6 6.7v-21.9H178v64.9h-20.2v-6c-3.3 3.5-7 7.1-14.4 7.1-11.8.1-20.9-10.2-20.9-25zm35.7-.3v-.2c0-4.8-3.5-8.7-8.1-8.7s-8.1 3.8-8.1 8.7v.2c0 4.9 3.5 8.7 8.1 8.7s8.1-3.8 8.1-8.7zM182.5 150.6v-.2c0-13.7 11.4-25.4 27.4-25.4 15.9 0 27.2 11.5 27.2 25.2v.2c0 13.7-11.4 25.4-27.4 25.4-16 .1-27.2-11.5-27.2-25.2zm35.1 0v-.2c0-4.8-3.5-8.6-8-8.6s-7.8 3.8-7.8 8.4v.2c0 4.8 3.5 8.6 8 8.6 4.6.1 7.8-3.8 7.8-8.4zM241.5 126.2h20.2v9.8c2.8-6.6 7.2-10.8 15.2-10.5v21.4h-2.1c-8.5 0-13.1 4.7-13.1 15.5v12.4h-20.2v-48.6zM280.4 126.2h20.2v6c3.3-3.5 7-7.1 14.4-7.1 11.7 0 20.9 10.2 20.9 25.1v.2c0 15.4-9.2 25.6-20.7 25.6-7.4 0-11.5-3.2-14.6-6.7V189h-20.2v-62.8zm35.9 24.3v-.2c0-4.9-3.5-8.7-8.1-8.7s-8.1 3.8-8.1 8.7v.2c0 4.8 3.5 8.7 8.1 8.7s8.1-3.8 8.1-8.7zM340.5 109.9h20.2v22.8c3.1-4 8-7.6 14.8-7.6 10.2 0 16.6 6.8 16.6 17.7v32h-20.2v-25.5c0-4.2-2.5-6.6-5.5-6.6s-5.8 2.4-5.8 6.6v25.5h-20.2l.1-64.9zM397.6 109.9h20.9v12.9h-20.9v-12.9zm.3 16.3h20.2v48.5h-20.2v-48.5zM424.3 126.2h20.2v6.8c3.1-4 8-7.9 14.8-7.9 10.2 0 16.6 6.8 16.6 17.7v32h-20.2v-25.5c0-4.2-2.5-6.6-5.5-6.6s-5.8 2.4-5.8 6.6v25.5h-20.2v-48.6zM14.4 238.8v-.2c0-18.6 14.5-32.4 33.1-32.4 13.7 0 22.9 6.7 28.2 16.2l-17.1 10c-2.3-4.4-5.6-7.5-11.3-7.5-7 0-11.6 6.1-11.6 13.6v.2c0 8.1 4.8 13.8 11.6 13.8 5.9 0 9.1-3.2 11.7-7.8l17.1 9.7c-5.2 9.2-13.9 16.8-29.4 16.8-17.3-.2-32.3-13.1-32.3-32.4zM77.1 245.6v-.2c0-13.7 11.4-25.4 27.4-25.4 15.9 0 27.2 11.5 27.2 25.2v.2c0 13.7-11.4 25.4-27.4 25.4-15.9.1-27.2-11.5-27.2-25.2zm35.2 0v-.2c0-4.8-3.5-8.6-8-8.6s-7.8 3.8-7.8 8.4v.2c0 4.8 3.5 8.6 8 8.6 4.5.1 7.8-3.8 7.8-8.4zM136.3 204.8h20.2v64.9h-20.2v-64.9zM162.9 204.8h20.2v64.9h-20.2v-64.9zM187.8 245.7v-.2c0-14.5 10.4-25.5 25-25.5 17.2 0 25.2 12 25.2 26.7 0 1.1 0 2.3-.1 3.4h-31.2c1.4 4.3 4.8 6.5 9.1 6.5 3.6 0 6.7-1.7 9.9-5l10.8 8.6c-4.8 6.2-11.6 10.6-22.1 10.6-15.9.1-26.6-10-26.6-25.1zm31.8-4.4c-.4-4.6-3.2-7.3-6.8-7.3-3.4 0-5.8 2.8-6.4 7.3h13.2zM240.9 245.7v-.2c0-13.6 10.7-25.4 26.5-25.4 10.7 0 18.2 5.5 22 13.4l-14.5 8.2c-1.7-3.1-3.8-4.9-7.1-4.9-4.3 0-7.5 3.7-7.5 8.5v.2c0 5.1 3.2 8.7 7.2 8.7 3.5 0 5.6-1.8 7.5-4.9l14.7 8.4c-4.4 8.1-11.7 13.2-23.3 13.2-14.7.1-25.5-11.6-25.5-25.2zM296.5 253.5v-16.7h-5.7v-15.5h5.7V209h20.2v12.2h11.2v15.5h-11.2V249c0 3.6 1.7 5 4.9 5 1.9 0 4-.5 6.1-1.5V268c-3.2 1.7-8 2.8-12.9 2.8-11.8 0-18.3-5.5-18.3-17.3zM332.3 204.8h20.9v12.9h-20.9v-12.9zm.3 16.4h20.2v48.5h-20.2v-48.5zM357.5 245.6v-.2c0-13.7 11.4-25.4 27.4-25.4 15.9 0 27.2 11.5 27.2 25.2v.2c0 13.7-11.4 25.4-27.4 25.4-15.9.1-27.2-11.5-27.2-25.2zm35.2 0v-.2c0-4.8-3.5-8.6-8-8.6s-7.8 3.8-7.8 8.4v.2c0 4.8 3.5 8.6 8 8.6 4.5.1 7.8-3.8 7.8-8.4zM416.6 221.2h20.2v6.8c3.1-4 8-7.9 14.8-7.9 10.2 0 16.6 6.8 16.6 17.7v32H448v-25.5c0-4.2-2.5-6.6-5.5-6.6s-5.8 2.4-5.8 6.6v25.5h-20.2v-48.6z"/>
  </g>
</svg>
