<?xml version="1.0" encoding="utf-8"?>
<!-- Generator: Adobe Illustrator 24.2.0, SVG Export Plug-In . SVG Version: 6.00 Build 0)  -->
<svg version="1.1" xmlns="http://www.w3.org/2000/svg" xmlns:xlink="http://www.w3.org/1999/xlink" x="0px" y="0px"
	 viewBox="0 0 258 115" style="enable-background:new 0 0 258 115;" xml:space="preserve">
<style type="text/css">
	.st0{display:none;}
	.st1{display:inline;}
	.st2{fill:#010101;}
	.st3{display:inline;fill:#010101;}
</style>
<g id="ID" class="st0">
	<g class="st1">
		<g>
			<rect x="0.04" y="16.26" class="st2" width="5.05" height="28.76"/>
			<polygon class="st2" points="20.98,16.26 20.98,45.02 25.95,45.02 25.95,24.57 41.81,45.02 46.05,45.02 46.05,16.26 41.07,16.26 
				41.07,36.15 25.67,16.26 			"/>
			<polygon class="st2" points="59.39,16.26 59.39,20.94 68.51,20.94 68.51,45.02 73.61,45.02 73.61,20.94 82.73,20.94 82.73,16.26 
							"/>
			<polygon class="st2" points="96.28,16.26 96.28,45.02 117.8,45.02 117.8,40.5 101.33,40.5 101.33,32.78 115.75,32.78 
				115.75,28.26 101.33,28.26 101.33,20.79 117.6,20.79 117.6,16.26 			"/>
			<path class="st2" d="M132.01,16.26v28.76h5.05V35h6.33l7.07,10.03h5.96l-7.76-10.89c4.02-1.11,6.86-3.99,6.86-8.75
				c0-5.63-4.07-9.12-10.69-9.12H132.01z M150.37,25.67c0,2.96-2.3,4.84-5.92,4.84h-7.39v-9.65h7.36
				C148.16,20.87,150.37,22.51,150.37,25.67"/>
			<rect x="170.21" y="16.26" class="st2" width="5.05" height="28.76"/>
			<path class="st2" d="M189.88,30.69c0,8.13,6.16,14.83,14.99,14.83c8.83,0,15.08-6.78,15.08-14.91c0-8.14-6.16-14.84-15-14.84
				C196.12,15.77,189.88,22.55,189.88,30.69 M214.65,30.69c0,5.63-3.99,10.19-9.7,10.19c-5.71,0-9.77-4.64-9.77-10.27
				c0-5.63,3.98-10.19,9.69-10.19C210.59,20.41,214.65,25.06,214.65,30.69"/>
			<path class="st2" d="M233.56,16.26v28.76h5.05V35h6.33l7.07,10.03h5.95l-7.77-10.89c4.03-1.11,6.86-3.99,6.86-8.75
				c0-5.63-4.07-9.12-10.68-9.12H233.56z M251.93,25.67c0,2.96-2.3,4.84-5.92,4.84h-7.39v-9.65h7.35
				C249.71,20.87,251.93,22.51,251.93,25.67"/>
		</g>
		<g>
			<path class="st2" d="M32.02,70.46v28.76h10.72c9.04,0,15.28-6.29,15.28-14.42c0-8.14-6.24-14.35-15.28-14.35H32.02z M52.73,84.89
				c0,5.67-3.94,9.74-9.98,9.74h-5.67V75.07h5.67C48.78,75.07,52.73,79.22,52.73,84.89"/>
			<polygon class="st2" points="71.67,70.46 71.67,99.23 93.2,99.23 93.2,94.71 76.72,94.71 76.72,86.98 91.14,86.98 91.14,82.47 
				76.72,82.47 76.72,74.99 92.99,74.99 92.99,70.46 			"/>
			<polygon class="st2" points="107.4,70.46 107.4,99.23 112.45,99.23 112.45,87.52 126.96,87.52 126.96,82.92 112.45,82.92 
				112.45,75.07 128.81,75.07 128.81,70.46 			"/>
			<rect x="142.84" y="70.46" class="st2" width="5.05" height="28.76"/>
			<polygon class="st2" points="163.79,70.46 163.79,99.23 168.76,99.23 168.76,78.77 184.62,99.23 188.85,99.23 188.85,70.46 
				183.88,70.46 183.88,90.36 168.48,70.46 			"/>
			<polygon class="st2" points="204.45,70.46 204.45,99.23 225.98,99.23 225.98,94.71 209.5,94.71 209.5,86.98 223.93,86.98 
				223.93,82.47 209.5,82.47 209.5,74.99 225.78,74.99 225.78,70.46 			"/>
		</g>
	</g>
</g>
<g id="saucony">
	<g>
		<polygon class="st2" points="14.75,59.24 14.74,59.24 14.74,59.24 		"/>
		<path class="st2" d="M178.72,77.78c-1,0-2.05-0.31-3.14-0.9l-0.52-0.28l-2.42,5.33l0.46,0.24c2.07,1.12,3.95,1.6,6.26,1.6
			c4.29,0,6.77-2.09,8.86-7.45c0-0.01,10.37-26.82,10.37-26.82h-0.8h-6.44c0,0-5.36,15.35-6.2,17.77c-0.92-2.4-6.8-17.77-6.8-17.77
			h-7.4c0,0,10.6,25.43,10.79,25.88C180.82,77.36,179.93,77.78,178.72,77.78z"/>
		<path class="st2" d="M111.55,71.03l0.35-0.39l-4.27-4.21l-0.39,0.4c-2.02,2.08-3.93,3-6.18,3c-4.01,0-7.03-3.26-7.03-7.61v-0.09
			c0-4.21,2.96-7.51,6.75-7.51c2.93,0,4.7,1.44,6.18,2.99l0.4,0.43l4.35-4.68l-0.34-0.37c-2.85-3.15-6.1-4.55-10.54-4.55
			c-7.68,0-13.7,6.06-13.7,13.79v0.1c0,7.65,5.99,13.65,13.65,13.65C106.37,75.97,109.36,73.48,111.55,71.03z"/>
		<path class="st2" d="M127.33,75.88c7.93,0,14.13-6.04,14.13-13.75v-0.1c0-7.68-6.16-13.7-14.03-13.7c-7.9,0-14.09,6.06-14.09,13.8
			v0.1C113.34,69.88,119.49,75.88,127.33,75.88z M120.25,62.03c0-4.36,2.98-7.52,7.08-7.52c4.12,0,7.23,3.27,7.23,7.62v0.1
			c0,3.73-2.45,7.51-7.13,7.51c-4.03,0-7.18-3.34-7.18-7.61V62.03z"/>
		<path class="st2" d="M75.72,49.24l0.03,0.54v14.5c0,2.95-1.91,5-4.67,5c-2.72,0-4.78-2.18-4.78-5.08V49.24h-7.27v15.04
			c0,6.56,5.26,10.88,11.97,10.88c2.05,0,3.97-0.76,5.65-1.62c0.16-0.08,0.31-0.17,0.47-0.25l0.08,1.34v0.51h5.81V64.2v-2.38V49.24
			h-7.27H75.72z"/>
		<path class="st2" d="M152.68,75.16l-0.03-0.54v-14.5c0-2.95,1.91-5.01,4.67-5.01c2.72,0,4.78,2.18,4.78,5.08v14.96h7.26V60.12
			c0-6.57-5.26-10.88-11.98-10.88c-2.05,0-3.97,0.76-5.64,1.62c-0.16,0.08-0.32,0.17-0.48,0.25l-0.08-1.34v-0.53h-5.82v10.96v2.38
			v12.58h7.28H152.68z"/>
		<path class="st2" d="M47.23,49.67v1.12c-2.09-1.19-4.57-2.41-7.3-2.41c-8.05,0-14.37,5.61-14.37,13.5v0.1
			c0,7.81,6.27,13.36,14.27,13.36c2.73,0,5.25-1.26,7.4-2.48v1.12v0.69h6.49V49.05h-6.49V49.67z M40.17,69.65
			c-4.36,0-7.9-3.48-7.9-7.77c0-4.29,3.54-7.76,7.9-7.76c4.36,0,7.9,3.47,7.9,7.76C48.07,66.17,44.54,69.65,40.17,69.65z"/>
		<path class="st2" d="M12.94,52.87c1.77,0,4.21,0.85,7.25,2.53l0.24,0.13l2.72-4.92l-0.22-0.14c-2.95-1.83-6.68-2.92-9.95-2.92
			c-5.03,0-10.11,2.69-10.11,8.71v0.1c0,4.92,4.53,6.88,8.47,8.04c2.61,0.77,5.16,1.69,5.16,3.63v0.1c0,0.84-0.37,3.02-3.85,3.02
			c-2.44,0-5.53-1.43-8.72-3.58l-0.23-0.16l-3.04,4.68l0.21,0.15c3.4,2.51,7.5,4.21,11.57,4.21c6.83,0,10.59-3.31,10.59-8.75v-0.55
			c0-3.44-2.75-6.03-8.42-7.92h0.01h-0.01l0,0L13.92,59c-2.63-0.87-4.53-1.51-4.53-3.51v-0.11C9.39,54.17,10.5,52.87,12.94,52.87z"
			/>
		<path class="st2" d="M252.98,79.2v-0.01c-2.13-1.44-2.13-1.45-3.57-2.33c-13.92-8.44-21.12-9.43-27.87-7.17
			c-5.25,1.76-14.27,8.89-14.27,8.89c-8.24,5.5-16.58,14.58-36.11,13.52c-18.19-0.98-55.64-10.71-56.09-10.84
			c-0.45-0.13-0.93,0.21-0.79,0.74c0.11,0.4,1.02,2.39,1.02,2.39c0.12,0.27,0.36,0.34,0.47,0.39c14.92,5.99,60.41,22.67,76.48,22.67
			c19.16,0,35.01-26.6,52.05-26.6c5.29,0,6.63,0.19,7.4,0.2c0.74,0.06,1.39-0.17,1.57-0.83C253.27,80.23,253.53,79.68,252.98,79.2z
			 M202.03,99.39L202.03,99.39L202.03,99.39z M203.54,96.26c-0.21,1.08-0.83,2-1.75,2.61l0,0c-0.92,0.61-2.01,0.82-3.08,0.61
			c-1.07-0.21-2-0.84-2.61-1.75c-1.26-1.89-0.74-4.44,1.14-5.69c1.88-1.25,4.44-0.73,5.69,1.15
			C203.54,94.09,203.76,95.18,203.54,96.26z M213.86,90.83c-1.89,1.25-4.43,0.73-5.69-1.14c-1.25-1.89-0.74-4.44,1.15-5.69
			c1.89-1.25,4.44-0.74,5.68,1.14c0.46,0.69,0.69,1.48,0.69,2.25C215.69,88.73,215.05,90.04,213.86,90.83z M227.68,80.19
			c-0.22,1.07-0.84,2-1.75,2.6c-0.92,0.61-2,0.83-3.08,0.61c-1.07-0.21-2-0.83-2.61-1.75c-0.61-0.92-0.82-2-0.61-3.08
			c0.22-1.07,0.84-2,1.75-2.61c0.91-0.61,2-0.82,3.07-0.61c1.08,0.21,2,0.84,2.61,1.75C227.68,78.02,227.89,79.12,227.68,80.19z"/>
	</g>
</g>
<g id="patagonia" class="st0">
	<path class="st3" d="M49.94,83.15h-1.51c-2.69,0-4.88,2.02-4.88,4.71c0,2.19,0.67,4.71,3.54,4.71c2.53,0,3.03-2.02,3.03-4.04v-5.05
		C50.11,83.49,50.27,83.15,49.94,83.15L49.94,83.15z M126.63,107.73h-5.3c-3.8-0.45-7.1-1.91-7.1-5.39c0-2.52,2.86-4.37,5.22-4.71
		c0,0,0.67-0.17,0-0.17c-0.84-0.17-5.39-0.51-6.9-0.17c0,0-0.34,0-0.51-0.34c-0.17-0.34-1.01-2.69-1.18-2.86
		c-0.17-0.34,0.17-0.51,0.17-0.51c3.37-0.51,6.4-2.19,7.74-2.69c0.84-0.17,0-0.34,0-0.34c-4.71-0.84-9.42-4.04-9.42-9.59
		c0-7.91,6.56-11.44,12.79-11.44c2.86,0,4.54,0.51,6.06,0.67c0,0,0.17,0.17,0.34-0.17c0-0.51,0.5-1.85,0.5-1.85
		c0.68-2.02,1.68-2.86,4.71-2.86c0.67,0,1.35,0,1.85,0.17c0,0,0.34-0.17,0.34,0.34c-0.17,0.17-1.18,4.21-1.18,4.37
		c-0.17,0.51-0.34,0.17-0.34,0.17c-0.51-0.34-0.67-0.51-1.85-0.34c-0.68,0-1.01,0.5-1.01,1.18c0,1.18,5.38,2.86,5.38,9.26
		c0,8.58-7.91,10.43-14.81,12.12c0,0-0.67,0.17,0,0.17c4.54,0.51,13.97,1.68,13.97,7.58C136.11,105.28,130.57,107.19,126.63,107.73
		L126.63,107.73z M60.71,94.09h1.35c0.34,0,0.34,0.34,0.34,0.34v2.69c0,0.51-0.5,0.34-0.5,0.34H51.12c0,0-0.17,0-0.17-0.34
		c-0.17-0.67-0.5-1.35-0.5-1.85c-0.17-0.67-0.51,0-0.51,0c-2.19,1.68-4.71,3.03-7.74,3.03c-5.05,0-8.92-3.2-8.92-8.42
		c0-6.4,4.04-9.93,9.09-9.93l7.74-0.34v-0.34v-0.84c0-2.19-1.18-3.2-3.7-3.2c-3.2,0-4.71,1.18-6.23,3.03c0,0,0,0.17-0.34,0.17
		c-0.34-0.17-3.03-1.18-3.03-1.18s-0.34,0-0.17-0.34c0.17-0.34,3.53-8.41,3.53-8.41s0-0.34,0.17-0.17c0.5,0.17,2.53,0.84,3.03,0.84
		c0.34,0.17,0.17,0.5,0.17,0.5l-0.34,0.67c-0.17,0.67,0.17,0.34,0.17,0.34c2.19-0.84,4.38-1.18,6.56-1.18c6.4,0,10.6,2.69,10.6,9.26
		v14.81C60.54,93.59,60.54,94.09,60.71,94.09L60.71,94.09z M61.38,71.54c4.38-1.18,8.08-4.04,9.93-8.08c0,0,0-0.17,0.34-0.17
		c0.34,0,2.52,0.51,2.86,0.51c0.34,0.17,0.17,0.34,0.17,0.34c-0.17,1.35-0.34,2.86-0.34,4.04v2.02c0,0.34,0.34,0.17,0.34,0.17h4.54
		c0.34,0,0.17,0.34,0.17,0.34s-0.67,3.37-0.67,3.7c-0.17,0.34-0.34,0.34-0.34,0.34h-3.7c-0.34,0-0.34,0.17-0.34,0.17v15.65
		c0,1.85,1.51,2.18,2.36,2.18c0.84,0,1.01,0,1.68-0.34c0,0,0.34-0.34,0.34,0c0.17,0.34,1.01,2.52,1.18,2.86
		c0.17,0.17-0.17,0.34-0.17,0.34c-3.53,2.53-3.87,2.69-8.58,2.69c-5.22,0-7.07-2.52-7.07-7.24V74.91c0,0,0-0.17-0.34-0.17h-2.36
		c0,0-0.17,0-0.17-0.34v-2.52C61.21,71.71,61.38,71.54,61.38,71.54L61.38,71.54z M138.13,83.83c0-8.75,6.9-14.31,15.99-14.31
		c9.09,0,16.16,5.55,16.16,14.31c0,9.09-7.07,14.47-16.16,14.47C145.03,98.3,138.13,92.92,138.13,83.83z M148.56,79.96
		c0,4.04,1.68,14.14,7.4,14.14c3.03,0,3.87-3.2,3.87-6.23c0-4.04-1.68-14.14-7.57-14.14C148.56,73.73,148.56,77.94,148.56,79.96z
		 M202.25,97.46h-14.14c0,0-0.17,0-0.17-0.17v-2.86c0-0.34,0.34-0.34,0.34-0.34h1.68c0.17,0,0.17-0.17,0.17-0.17V78.61
		c0-1.68-1.52-2.36-3.03-2.36c-1.85,0-3.2,0.84-4.54,2.02c0,0-0.17,0.17-0.17,0.34v15.32c0,0,0,0.17,0.17,0.17h1.85
		c0,0,0.17,0,0.17,0.34v2.86c0,0.17-0.17,0.17-0.17,0.17h-14.14c0,0-0.17,0.17-0.17-0.34v-2.69c0-0.34,0.17-0.34,0.17-0.34h1.51
		c0.34,0,0.17-0.17,0.17-0.17V75.92c0,0,0.17-0.34-0.17-0.34l-1.51,0.51c0,0-0.17,0.17-0.17-0.17v-2.86c0-0.34,0.17-0.17,0.17-0.17
		l11.95-3.2c0,0,0.34-0.17,0.34,0.17v3.87c0,0.5,0.17,0.17,0.17,0.17c2.86-2.19,5.72-4.38,9.59-4.38c7.24,0,8.25,4.88,8.25,7.91
		v16.5c0,0-0.17,0.17,0.17,0.17h1.51c0,0,0.17,0,0.17,0.34v2.69C202.42,97.63,202.25,97.46,202.25,97.46L202.25,97.46z
		 M216.56,69.69l-11.95,3.2c0,0-0.17,0-0.17,0.34v2.69c0,0.34,0.34,0.17,0.34,0.17s0.84-0.17,1.52-0.34c0.34,0,0.17,0.34,0.17,0.5
		v17.67c0,0,0.17,0.17-0.17,0.17h-1.68c0,0-0.34,0-0.34,0.34v2.86c0,0.34,0.34,0.17,0.34,0.17h13.97c0.34,0,0.17-0.34,0.17-0.34
		v-2.69c0-0.34-0.34-0.34-0.34-0.34h-1.35c-0.34,0-0.17-0.17-0.17-0.17V69.86C216.89,69.52,216.56,69.69,216.56,69.69L216.56,69.69z
		 M212.35,61.27c2.36,0,5.05,0.67,5.05,3.53c0,3.37-4.54,4.71-7.4,4.71c-2.36,0-3.87-1.18-3.87-3.53
		C206.12,63.29,209.82,61.27,212.35,61.27z M96.73,83.15h-1.35c-2.86,0-4.88,2.02-4.88,4.71c0,2.19,0.67,4.71,3.37,4.71
		c2.69,0,3.2-2.02,3.2-4.04v-5.05C97.06,83.49,97.06,83.15,96.73,83.15L96.73,83.15z M107.67,94.09h1.18c0.5,0,0.5,0.34,0.5,0.34
		v2.69c0,0.51-0.5,0.34-0.5,0.34H98.07c0,0-0.17,0-0.34-0.34c-0.17-0.67-0.34-1.35-0.34-1.85c-0.17-0.67-0.5,0-0.5,0
		c-2.36,1.68-4.71,3.03-7.74,3.03c-5.22,0-9.09-3.2-9.09-8.42c0-6.4,4.21-10.1,9.26-10.1l7.57-0.17c0,0,0.17,0,0.17-0.34v-0.84
		c0-2.19-1.18-3.2-3.7-3.2c-3.2,0-4.71,1.18-6.23,3.03c0,0-0.17,0.17-0.34,0c-0.34,0-3.2-1.01-3.2-1.01s-0.17,0,0-0.34
		c0.17-0.34,3.37-8.41,3.37-8.41s0-0.34,0.34-0.17c0.34,0.17,2.52,0.84,2.86,0.84c0.34,0.17,0.17,0.5,0.17,0.5s0,0.34-0.17,0.67
		c-0.34,0.67,0.17,0.34,0.17,0.34c2.19-0.84,4.38-1.18,6.56-1.18c6.4,0,10.6,2.69,10.6,9.26v14.81
		C107.5,93.59,107.33,94.09,107.67,94.09L107.67,94.09L107.67,94.09z M118.77,76.76c0,3.03,1.68,11.28,5.89,11.28
		c2.19,0,3.03-1.01,3.03-3.7c0-3.03-1.85-11.28-6.06-11.28C119.62,73.05,118.77,74.06,118.77,76.76L118.77,76.76z M123.15,98.81
		c-0.5,0.5-0.84,2.36-0.84,3.53c0,1.35,0.67,2.86,2.36,2.86c1.35,0,2.19-0.67,2.19-2.02c0-2.53-1.52-3.37-3.37-4.54
		C123.49,98.64,123.32,98.64,123.15,98.81z M235.41,83.15h-1.35c-2.86,0-4.88,2.02-4.88,4.71c0,2.19,0.67,4.71,3.37,4.71
		c2.69,0,3.2-2.02,3.2-4.04v-5.05C235.75,83.49,235.75,83.15,235.41,83.15L235.41,83.15z M246.35,94.09h1.35
		c0.34,0,0.34,0.34,0.34,0.34v2.69c0,0.51-0.51,0.34-0.51,0.34h-10.77c0,0-0.17,0-0.33-0.34c-0.17-0.67-0.34-1.35-0.34-1.85
		c-0.17-0.67-0.51,0-0.51,0c-2.36,1.68-4.71,3.03-7.74,3.03c-5.22,0-9.09-3.2-9.09-8.42c0-6.4,4.21-10.1,9.26-10.1l7.57-0.17
		c0,0,0.17,0,0.17-0.34v-0.84c0-2.19-1.18-3.2-3.7-3.2c-3.2,0-4.71,1.18-6.23,3.03c0,0-0.17,0.17-0.34,0
		c-0.34,0-3.03-1.01-3.03-1.01s-0.34,0-0.17-0.34c0.17-0.34,3.37-8.41,3.37-8.41s0-0.34,0.34-0.17c0.34,0.17,2.52,0.84,2.86,0.84
		c0.34,0.17,0.34,0.5,0.34,0.5l-0.34,0.67c-0.34,0.67,0.17,0.34,0.17,0.34c2.19-0.84,4.38-1.18,6.56-1.18c6.4,0,10.6,2.69,10.6,9.26
		v14.81C246.18,93.59,246.18,94.09,246.35,94.09L246.35,94.09z M14.43,76.08v13.63c0,2.36,0.84,4.38,3.53,4.38
		c3.37,0,4.88-2.02,4.88-8.25c0-9.93-5.05-10.43-6.73-10.43l-1.35,0.17C14.76,75.58,14.43,75.75,14.43,76.08L14.43,76.08z
		 M14.59,72.05c2.52-1.51,4.38-2.52,6.9-2.52c6.56,0,11.78,5.39,11.78,13.3c0,7.74-4.88,15.48-13.3,15.48
		c-1.68,0-3.87-0.17-5.39-1.01c0,0-0.17,0-0.17,0.17v4.88c0,0,0,0.34,0.34,0.34h3.03c0,0,0.34,0,0.34,0.34v2.69
		c0,0.17-0.34,0.34-0.34,0.34H2.48c0,0-0.51,0-0.51-0.34v-0.03v-0.03v-0.03v-0.03v-0.03v-0.03v-0.03v-0.03v-0.04v-0.04v-0.04v-0.04
		v-0.04v-0.04v-0.04v-0.04v-0.05v-0.05v-0.05v-0.05v-0.05v-0.05v-0.05v-0.05v-0.05v-0.05v-0.05v-0.05v-0.05v-0.05v-0.05v-0.05v-0.05
		v-0.05v-0.05v-0.05v-0.05v-0.05v-0.05v-0.05v-0.05v-0.05v-0.05v-0.05v-0.05v-0.05v-0.05v-0.04v-0.05v-0.04v-0.04v-0.04v-0.04v-0.04
		v-0.04v-0.04v-0.04v-0.03v-0.03v-0.03v-0.03v-0.03v-0.03v-0.02c0-0.34,0.34-0.34,0.34-0.34h1.35c0.34,0,0.34-0.34,0.34-0.34V75.93
		c0-0.34-0.34-0.17-0.34-0.17L2.31,76.1c0,0-0.34,0-0.34-0.34v-0.02v-0.02V75.7v-0.02v-0.03v-0.03v-0.03v-0.03v-0.04v-0.03v-0.04
		v-0.04v-0.04v-0.04v-0.04v-0.04V75.2v-0.05V75.1v-0.05V75v-0.05V74.9v-0.05V74.8v-0.05v-0.05v-0.05v-0.06v-0.05v-0.05v-0.05v-0.06
		V74.3v-0.06v-0.05v-0.06v-0.05v-0.05v-0.05v-0.05v-0.05v-0.05v-0.05v-0.05v-0.05v-0.05v-0.04v-0.05v-0.04v-0.04v-0.04v-0.04v-0.04
		V73.3v-0.03v-0.03V73.2v-0.03v-0.03v-0.02V73.1v-0.02v-0.02c0-0.34,0.34-0.34,0.34-0.34l11.78-3.03c0,0,0.34-0.17,0.34,0.17v2.02
		C14.43,72.21,14.59,72.05,14.59,72.05L14.59,72.05z"/>
</g>
<g id="chaco" class="st0">
	<g class="st1">
		<path d="M130.46,30.61c-0.13,0.18-0.1,0.53,0.26,0.53c2.27,0.02,4.52,0.09,6.74,0.2c41.31,2.03,73.51,18.59,73.51,38.7
			c0,21.49-36.76,38.91-82.1,38.91c-45.34,0-82.1-17.42-82.1-38.91c0-4.56,1.11-9.5,4.15-13.56c0,0,0.13-0.2-0.1-0.35
			c-0.22-0.15-0.41,0.07-0.41,0.07c-4.45,5.06-6.91,10.64-6.91,16.49c0,23.31,39.06,42.2,87.25,42.2s87.25-18.89,87.25-42.2
			c0-22.21-35.48-40.42-80.52-42.08c-2.22-0.08-4.46-0.12-6.73-0.12C130.77,30.49,130.55,30.47,130.46,30.61"/>
		<path d="M199.94,61.42c0,0.89-0.63,1.48-1.38,1.48v0c-0.77,0-1.38-0.59-1.38-1.48c0-0.89,0.62-1.48,1.38-1.48
			C199.3,59.94,199.94,60.53,199.94,61.42 M200.49,61.42c0-1.22-0.91-1.93-1.93-1.93c-1.03,0-1.94,0.71-1.94,1.93
			c0,1.22,0.91,1.93,1.94,1.93C199.58,63.35,200.49,62.64,200.49,61.42 M198.24,61.59h0.21l0.48,0.87h0.53l-0.53-0.91
			c0.28-0.02,0.5-0.16,0.5-0.54c0-0.47-0.32-0.63-0.85-0.63h-0.78v2.08h0.44V61.59z M198.24,61.24v-0.5h0.31
			c0.17,0,0.39,0.01,0.39,0.23c0,0.23-0.12,0.27-0.31,0.27H198.24z"/>
		<path d="M187.04,64.27c-5.24,0-8.6,5.49-8.6,10.35c0,4.86,3.36,10.35,8.6,10.35c5.23,0,8.6-5.49,8.6-10.35
			C195.64,69.75,192.28,64.27,187.04,64.27 M200.55,74.56c0,7.26-5.19,13.14-13.48,13.14c-8.29,0-13.47-5.88-13.47-13.14
			c0-7.26,6.03-13.14,13.47-13.14C194.51,61.42,200.55,67.3,200.55,74.56"/>
		<path d="M99.38,55.02c0,0-9.22-7.31-15.71-8.2c-6.28-0.89-12.09,0.68-17.83,5.87c-6.15,5.46-10.59,17.89-2.4,29.1
			c6.76,9.29,20.15,9.64,27.8,5.81c7.58-3.89,9.5-7.75,9.5-7.75l0.07-4.66c0,0-3.83,7.84-13.94,9.75
			c-8.06,1.5-16.69-2.51-20.08-9.98c-2.75-6.06-0.91-16.35,4.17-20.76c5.16-4.48,10.73-5.87,16.73-3.34
			c6.08,2.46,7.24,7.17,6.62,9.43c-0.96,3.42-1.43,3.48-1.43,3.48l0.89,0.55L99.38,55.02z"/>
		<path d="M173.76,66.52c0,0-0.76,1.4-1.3,2.53c-0.58,1.22-1.3,3.21-1.3,3.21h-0.68c0,0,0.34-2.73-0.82-4.71
			c-1.23-1.84-3.34-3.34-5.46-3.35c-2.99-0.01-5.67,1.36-7.59,4.5c-2.12,3.62-1.77,6.95-1.03,9.49c1.24,4.23,5.39,6.7,9.63,6.22
			c5.74-0.54,8.2-3.96,8.2-3.96l1.02,1.78c0,0-1.16,1.5-3.28,3c-1.71,1.23-4.24,2.66-8.81,2.46c-5.46-0.21-8.94-2.87-10.72-6.83
			c-1.64-3.49-2.12-9.14,1.09-13.99c3.01-4.3,6.99-5.44,10.81-5.42c3.84,0.02,7.14,2.38,8.03,3.04
			C172.78,65.4,173.76,66.52,173.76,66.52"/>
		<path d="M135.09,84.4c-2.39-1.03-3.72-3.18-3.41-5.94c0.13-1.11,0.54-2.32,1.49-3.55c3.28-4.3,10.74-1.76,10.74-1.76l-0.01,9.74
			C143.9,82.89,138.51,85.77,135.09,84.4 M152.3,84.47c0,0-1.09,1.16-1.98,0.89c-0.96-0.28-1.14-0.93-1.23-1.42
			c-0.05-0.28-0.61-11.67-0.65-12.46c0-5.96-4.6-10.25-10.26-10.25c-1.36,0-2.66,0.27-3.85,0.75c-0.31,0.13-0.64,0.28-0.98,0.44
			c-2.42,1.13-5.12,2.46-5.12,2.46l2.29,3.38c0,0,0.5-0.57,1.3-1.3c0.54-0.49,1.69-1.79,3.6-2.5c0.67-0.26,1.46-0.36,2.23-0.36
			c4.26,0,6.23,2.77,6.23,6.18l0.02,0.6c0,0-4.75-0.85-8.05-0.4c-2.87,0.39-6.63,1.29-8.4,5.12c-0.41,0.89-0.69,1.84-0.82,2.87
			c-0.41,3.14,0.75,6.56,4.3,8.4c3.48,1.78,6.15,1.3,8.61,0.62c1.98-0.61,4.78-2.39,4.78-2.39s0.96,2.53,2.93,2.66
			c1.78,0.12,2.87-0.34,3.83-0.95c1.02-0.68,1.78-1.78,1.78-1.78L152.3,84.47z"/>
		<path d="M126.58,87.32c0,0,0,0-0.01,0v-0.01h-0.02c-0.18-0.07-1.18-0.49-1.43-1.42c-0.14-0.34-0.12-2.67-0.12-2.67
			s-0.06-7.8,0-10.3c0.14-3.55-0.55-5.53-1.09-6.83c-0.48-0.95-2.59-4.44-7.85-4.58c-4.92-0.14-8.68,5.39-8.68,5.39l0.01-18.51
			c0,0,0.14-1.78-0.48-2.6c-0.27-0.41-0.68-0.55-0.68-0.55l-5.33,8.67c0,0,0.75,0,1.23,0.41c0.48,0.55,0.41,1.98,0.41,1.98
			l-0.01,26.89c0,0,0.01,2.33-0.12,2.67c-0.27,1.02-1.45,1.43-1.46,1.43h-0.01V88h8.02v-0.68h0.01c0,0-1.19-0.41-1.46-1.43
			c-0.14-0.34-0.12-2.67-0.12-2.67l0-10.29c0,0-0.04-0.78,1.98-3.49c1.36-1.82,1.67-2.19,3.28-3.62c1.05-0.93,3.7-2.12,5.74-0.27
			c1.98,1.84,1.77,5.74,1.77,5.74v11.94c0,0-0.01,2.33-0.15,2.67c-0.25,0.93-1.25,1.35-1.43,1.42h-0.03v0.01l0,0h0V88h8.04v-0.67
			H126.58z"/>
		<path d="M101.6,41.57c-2.71,0.85-6.03,0.31-6.03,0.31c1.78-0.39,5.8-3.48,6.11-3.79c0.31-0.31,0.7-0.93,0.47-1.16
			c-0.23-0.23-0.5,0.04-0.5,0.04c-1.85,1.65-5.98,3.16-5.98,3.16c0.58-0.44,1.36-1.12,3.55-4.23c2.19-3.11,0.19-3.84,0.19-3.84
			c-8.17-1.83-14.85,3-15.87,3.79c-0.09,0.07-0.12,0.14-0.12,0.14c-0.28,1.09,1.09,0.86,1.09,0.86c3.94-0.85,6.96-0.39,8.27-0.31
			c1.31,0.08,0.93,1.32,0.23,2.71c-0.7,1.39-3.26,3.22-4.25,3.63c-0.88,0.37-0.42,0.83-0.42,0.83c0.09,0.09,0.27,0.05,0.38,0.05
			c0.06,0,0.17,0,0.25,0c3.25,0.36,7.83,4,7.83,4s0.87,0.91,1,0.08c0.19-1.17-3.25-3.94-3.25-3.94c4.56,0.15,7.04-1.32,7.04-1.32
			s0.69-0.31,0.62-0.69C102.14,41.49,101.6,41.57,101.6,41.57"/>
		<path d="M136.76,42.03c-1.86-3.4-4.64-4.1-4.64-4.1c1.2,0.04,2.55-1.66,2.71-1.9c0.16-0.23,0.27-0.62,0.11-0.73
			c-0.15-0.11-0.42,0.16-0.42,0.16c-2.05,2.13-5.53,1.51-7.93,0.42c-2.4-1.08-5.22-1.01-5.22-1.01s3.91-2.59,4.37-5.84
			c0.46-3.25-0.93-2.32-0.93-2.32c-2.13,2.94-4.45,3.06-4.91,3.17c-0.46,0.12-2.2,0.19-2.47,1.24c-0.27,1.04-1.51,2.47-2.86,3.48
			c-0.96,0.71-0.37,1.42-0.37,1.42c0.65,0.83,1.84,1.4,2.34,1.51c0.5,0.12,1.63-0.73,6.85,0.04c5.22,0.77,8.51,6.97,8.62,7.89
			c0.04,0.36,0.13,0.56,0.22,0.67c0.06,0.04,0.22,0.15,0.32,0.01c0.99-2.84-1.23-6.16-1.23-6.16c3.4,0.62,4.56,2.13,4.68,2.2
			c0.12,0.08,0.47,0.39,0.66,0.27C136.84,42.34,136.76,42.03,136.76,42.03"/>
		<path d="M141.03,2.92c-0.15-2.06-1.52-2.63-2.25-2.78c-0.27-0.04-0.57-0.03-0.76-0.01c-7.14,1.12-10.82,6.95-10.85,7.01
			c-0.99,1.36-2.23,5.19-2.82,7.14l0-0.01c-0.42,1.58-1.03,2.45-1.03,2.45c-1.83,2.87-7.65,9.63-20.65,6.76
			c-19.45-4.29-30.58,10.9-30.69,11.06c-7.82,9.78-15.42,15.03-22.56,15.6c-5.8,0.46-9.13-2.5-9.17-2.53
			c-0.06-0.06-0.16-0.06-0.22,0c-0.06,0.06-0.06,0.16-0.01,0.22c2.76,3.01,6.15,4.59,10.07,4.67c10.95,0.25,22.65-11.27,22.77-11.39
			c18.36-16.94,33.7-12.88,33.86-12.84c16.19,3.11,21.35-5.76,22.53-8.5h0c0,0,0-0.01,0.01-0.03c0.05-0.11,0.09-0.21,0.12-0.3
			c0.1-0.25,0.26-0.5,0.47-0.69c0.9-0.76,1.91-1.46,2.9-2.13c1.78-1.21,3.62-2.47,4.85-4.13c2.05-2.76,3.44-7.03,3.44-9.27
			C141.04,3.13,141.04,3.02,141.03,2.92"/>
		<path d="M87.92,12.88c-1.85-1.29-8.84,3.74-8.84,3.74s-0.36,0.22-0.36,0.13c0-0.09,0.18-0.45,0.18-0.45
			c1.17-2.02,2.95-4.62,2.26-5.16c-0.7-0.54-3.39,3.45-3.74,4.1c-0.35,0.64-0.52,0.43-0.52,0.43c0-2.01-0.45-3.92-0.7-4.49
			c-0.22-0.5-0.41-0.5-0.61-0.5c-0.2,0-0.23,0.29-0.23,0.29c0.63,4.19-1.57,8.39-1.83,8.66c-0.34,0.36-0.05,0.56-0.05,0.56
			c2.34,0.85,7.38-1.96,9.08-1.32c1.7,0.64-2.23,5.35-2.23,5.35c-0.05,0.05-0.07,0.1-0.08,0.15c-0.01,0.04-0.02,0.08-0.02,0.12
			c0,0.22,0.17,0.4,0.38,0.38c0.06,0,0.11-0.01,0.16-0.04c1.83-0.49,5.25-2.75,5.75-3.34C87.04,20.91,89.77,14.17,87.92,12.88"/>
		<path d="M122.12,7.36c-0.29-0.15-0.45,0.23-0.45,0.23c-1.2,2.47-3.14,2.6-3.14,2.6c2.75-2.67,1.68-5.98,1.56-6.18
			c-0.08-0.13-0.2-0.09-0.28-0.05c-0.08,0.03-0.08,0.23-0.08,0.23c0,3.09-2.75,5.12-2.75,5.12c0.48-3.19-0.5-4.31-0.72-4.59
			c-0.27-0.34-0.36,0-0.36,0c0.24,5.86-1.48,7.54-4.19,8.89c-2.71,1.35-5.5,1.83-5.78,2.87c-0.28,1.03,0.52,1.23,3.74,2.11
			c2.03,0.55,2.8,1.37,3.1,1.91c0,0,0,0,0,0c0.07,0.12,0.13,0.31,0.16,0.49c0.01,0.08,0.07,0.16,0.21,0.18c0,0,0.01,0,0.01,0
			c0.32,0.05,1.07-0.14,2.45-1.38c1.99-1.79,1.29-2.87,1.29-2.87c-1.12-1.76-3.35-1.72-3.35-1.72c6.58-2.35,8.21-6.63,8.39-6.98
			C122.1,7.9,122.28,7.45,122.12,7.36"/>
	</g>
</g>
</svg>