<?xml version="1.0" encoding="utf-8"?>
<!-- Generator: Adobe Illustrator 16.0.4, SVG Export Plug-In . SVG Version: 6.00 Build 0)  -->
<!DOCTYPE svg PUBLIC "-//W3C//DTD SVG 1.1//EN" "http://www.w3.org/Graphics/SVG/1.1/DTD/svg11.dtd">
<svg version="1.1" id="Layer_1" xmlns="http://www.w3.org/2000/svg" xmlns:xlink="http://www.w3.org/1999/xlink" x="0px" y="0px"
	 width="1224px" height="792px" viewBox="0 0 1224 792" enable-background="new 0 0 1224 792" xml:space="preserve">
<g>
	<g>
		<path fill="#E31937" d="M96.428,313.254L96.428,313.254L96.428,313.254z"/>
	</g>
</g>
<g>
	<g>
		<g>
			<g>
				<g>
					<path d="M827.947,397.143c-4.693,0-9.386-1.173-14.079-4.107l-2.346-1.173l-10.56,23.466l1.76,1.172
						c9.386,4.693,17.599,7.039,28.158,7.039c19.358,0,30.504-9.385,39.304-32.851l46.343-118.498h-3.52h-28.744
						c0,0-24.052,67.462-27.571,78.608c-4.107-10.56-30.505-78.608-30.505-78.608h-32.851c0,0,47.517,112.045,48.103,114.392
						C837.333,395.382,833.227,397.143,827.947,397.143"/>
					<path d="M528.183,367.224l1.76-1.761l-18.772-18.771l-1.76,1.76c-8.799,9.386-17.599,13.492-27.571,13.492
						c-17.599,0-31.091-14.666-31.091-33.437v-0.586c0-18.772,13.492-33.438,29.918-33.438c12.906,0,21.118,6.453,27.571,13.493
						l1.76,1.76l19.359-20.531l-1.76-1.761c-12.906-14.079-26.985-19.945-46.93-19.945c-34.024,0-61.009,26.984-61.009,61.01v0.586
						c0,34.024,26.985,60.422,61.009,60.422C504.718,388.929,518.21,378.369,528.183,367.224"/>
					<path d="M598.577,388.929c35.197,0,62.77-26.399,62.77-60.423v-0.586c0-34.024-27.572-60.423-62.77-60.423
						s-62.769,26.985-62.769,61.009v0.586C535.809,362.53,563.38,388.929,598.577,388.929 M566.9,327.92
						c0-19.359,13.492-33.437,31.677-33.437c18.186,0,32.264,14.666,32.264,33.437v0.586c0,16.426-11.146,32.851-31.677,32.851
						C580.979,361.944,566.9,346.692,566.9,327.92L566.9,327.92z"/>
					<path d="M368.034,271.018v2.346v63.943c0,12.905-8.799,22.292-20.532,22.292c-12.319,0-21.118-9.386-21.118-22.292v-66.289
						H294.12v66.289c0,28.745,23.465,48.103,53.383,48.103c9.386,0,17.599-3.519,25.225-7.039c0.586-0.586,1.173-0.586,2.346-1.173
						l0.587,5.866v2.347h25.812v-48.104v-10.559v-55.729H368.034L368.034,271.018z"/>
					<path d="M711.796,385.409v-2.346V319.12c0-12.905,8.799-22.292,20.532-22.292c12.318,0,21.118,9.386,21.118,22.292v66.289
						h32.264V319.12c0-28.745-23.464-48.102-53.382-48.102c-9.386,0-17.599,3.519-25.226,7.039
						c-0.586,0.586-1.173,0.586-2.346,1.173l-0.587-5.866v-2.347h-25.812v48.102v10.56v55.729L711.796,385.409L711.796,385.409
						L711.796,385.409z"/>
					<path d="M241.324,273.364v4.693c-9.386-5.28-20.532-10.56-32.851-10.56c-35.784,0-63.942,24.638-63.942,59.835v0.586
						c0,34.611,28.158,59.249,63.942,59.249c12.319,0,23.465-5.279,32.851-11.146v4.693v2.933h28.744V270.43h-28.744V273.364
						L241.324,273.364z M209.646,361.357c-19.358,0-35.198-15.252-35.198-34.025c0-18.771,15.839-34.024,35.198-34.024
						c19.359,0,35.197,15.252,35.197,34.024C244.843,346.105,229.005,361.357,209.646,361.357"/>
					<path d="M88.215,287.443c7.626,0,18.772,3.519,32.264,11.146l1.173,0.587l12.319-21.705l-1.173-0.586
						c-12.906-8.213-29.918-12.905-44.583-12.905c-22.292,0-45.17,11.732-45.17,38.716v0.586c0,21.705,19.945,30.504,37.544,35.198
						c11.732,3.519,22.878,7.625,22.878,15.838v0.585c0,3.52-1.759,13.494-17.012,13.494c-11.146,0-24.638-6.454-38.717-15.839
						l-1.173-0.586l-13.492,20.532l1.173,0.586c15.252,11.146,33.438,18.771,51.623,18.771c30.504,0,47.516-14.666,47.516-38.716
						v-2.347c0-15.252-12.319-26.397-37.544-35.197l0,0l0,0l-2.933-1.173c-11.732-4.106-19.945-6.453-19.945-15.252v-0.587
						C72.376,292.723,77.069,287.443,88.215,287.443"/>
					<path d="M1158.803,403.594L1158.803,403.594c-9.386-6.451-9.386-6.451-15.839-10.559
						c-62.182-36.958-94.446-41.65-124.364-31.677c-23.464,7.626-63.941,39.303-63.941,39.303
						c-36.957,24.051-73.915,64.529-161.321,59.836c-80.955-4.105-248.142-47.516-250.489-48.104c-1.76-0.586-4.106,1.174-3.52,3.52
						c0.586,1.76,4.693,10.561,4.693,10.561c0.586,1.172,1.759,1.76,2.346,1.76c66.289,26.398,269.261,100.312,341.416,100.312
						c85.646,0,156.042-117.324,232.303-117.324c23.465,0,29.331,0.586,32.851,0.586c3.521,0,6.453-0.586,7.04-3.52
						C1160.563,408.287,1161.736,405.354,1158.803,403.594 M938.232,478.682c-1.173,4.693-3.52,8.801-7.626,11.732
						c-4.105,2.934-8.8,3.52-13.492,2.934c-4.693-1.174-8.799-3.52-11.732-7.627c-5.866-8.213-3.521-19.357,5.279-25.225
						c8.213-5.279,19.945-3.52,25.225,5.279C938.232,469.297,939.406,473.988,938.232,478.682 M984.575,454.631
						c-8.212,5.279-19.944,3.52-25.225-5.279c-5.279-8.213-3.52-19.359,5.28-25.227c8.213-5.279,19.944-3.52,25.225,5.279
						c2.347,2.934,2.934,6.453,2.934,9.973C992.789,445.244,989.855,451.111,984.575,454.631 M1046.171,407.701
						c-1.173,4.693-3.52,8.799-7.626,11.732c-4.105,2.932-8.799,3.52-13.491,2.932c-4.693-1.172-8.8-3.518-11.733-7.625
						c-2.933-4.107-3.521-8.799-2.933-13.494c1.173-4.692,3.52-8.798,7.626-11.731s8.799-3.52,13.492-2.934
						c4.693,1.173,8.8,3.52,11.732,7.626C1046.171,398.314,1047.345,403.008,1046.171,407.701"/>
				</g>
			</g>
		</g>
	</g>
</g>
</svg>
