<svg xmlns="http://www.w3.org/2000/svg" viewBox="0 0 500 112">
  <defs/>
  <path d="M287.9 60.4c-1.6 0-3.2-.5-5-1.4l-.8-.4-3.8 8.4.7.4c3.3 1.8 6.2 2.5 9.9 2.5 6.8 0 10.7-3.3 14-11.8l16.4-42.4h-11.4s-8.5 24.3-9.8 28.1c-1.5-3.8-10.8-28.1-10.8-28.1h-11.7s16.8 40.2 17.1 40.9c-1.5 3.1-2.9 3.8-4.8 3.8M181.7 49.7l.6-.6-6.7-6.7-.6.6c-3.2 3.3-6.2 4.7-9.8 4.7-6.3 0-11.1-5.2-11.1-12v-.2c0-6.7 4.7-11.9 10.7-11.9 4.6 0 7.4 2.3 9.8 4.7l.6.7 6.9-7.4-.5-.6c-4.5-5-9.6-7.2-16.7-7.2-12.1 0-21.6 9.6-21.6 21.8v.2c0 12.1 9.5 21.6 21.6 21.6 8.6.1 13.4-3.8 16.8-7.7m25 7.7c12.5 0 22.3-9.5 22.3-21.7v-.2c0-12.1-9.7-21.7-22.2-21.7s-22.3 9.6-22.3 21.8v.2c.1 12.1 9.8 21.6 22.2 21.6m-11.2-21.9c0-6.9 4.7-11.9 11.2-11.9 6.5 0 11.4 5.2 11.4 12v.2c0 5.9-3.9 11.9-11.3 11.9-6.4 0-11.3-5.3-11.3-12v-.2zm-70.4-20.2V39c0 4.7-3 7.9-7.4 7.9-4.3 0-7.5-3.4-7.5-8V15.3H98.7V39c0 10.4 8.3 17.2 18.9 17.2 3.2 0 6.3-1.2 8.9-2.6.3-.1.5-.3.7-.4l.1 2.1v.8h9.2V15.3h-11.4zm121.6 40.9l-.1-.8V32.5c0-4.7 3-7.9 7.4-7.9 4.3 0 7.6 3.4 7.6 8v23.6h11.5V32.5c0-10.4-8.3-17.2-18.9-17.2-3.2 0-6.3 1.2-8.9 2.6-.3.1-.5.3-.8.4l-.1-2.1v-.8h-9.2v41l11.5-.2zM80 15.9v1.8c-3.3-1.9-7.2-3.8-11.5-3.8-12.7 0-22.7 8.9-22.7 21.3v.2c0 12.3 9.9 21.1 22.5 21.1 4.3 0 8.3-2 11.7-3.9v2.9h10.3V15H80v.9zM68.9 47.5c-6.9 0-12.5-5.5-12.5-12.3C56.4 28.5 62 23 68.9 23s12.5 5.5 12.5 12.3-5.6 12.2-12.5 12.2M25.8 21c2.8 0 6.7 1.4 11.5 4l.4.2 4.3-7.8-.4-.2c-4.7-2.9-10.6-4.6-15.7-4.6-7.9 0-16 4.3-16 13.8v.2c0 7.8 7.2 10.9 13.4 12.7 4.1 1.2 8.2 2.7 8.2 5.7v.2c0 1.3-.6 4.8-6.1 4.8-3.9 0-8.7-2.3-13.8-5.6l-.3-.4-4.8 7.4.3.2c5.4 4 11.9 6.7 18.3 6.7 10.8 0 16.7-5.2 16.7-13.8v-.9c0-5.4-4.4-9.5-13.3-12.5l-1.1-.4c-4.2-1.4-7.2-2.4-7.2-5.5V25c0-1.9 1.8-4 5.6-4"/>
  <path d="M405.3 62.6c-3.4-2.3-3.4-2.3-5.7-3.7-22-13.3-33.4-14.9-44-11.3-8.3 2.8-22.6 14.1-22.6 14.1-13 8.7-26.2 23.1-57.1 21.4-28.8-1.6-87.9-16.9-88.7-17.1s-1.5.3-1.2 1.2c.2.6 1.6 3.8 1.6 3.8.2.4.6.5.7.6 23.6 9.5 95.5 35.8 120.9 35.8 30.3 0 55.3-42 82.3-42 8.4 0 10.5.3 11.7.3 1.2.1 2.2-.3 2.5-1.3 0-.2.4-1-.4-1.8m-78.2 27c-.3 1.7-1.3 3.2-2.8 4.1-1.4 1-3.2 1.3-4.9 1-1.7-.3-3.2-1.3-4.1-2.8-2-3-1.2-7 1.8-9s7-1.2 9 1.8c1 1.4 1.4 3.2 1 4.9m16.3-8.6c-3 2-7 1.2-9-1.8s-1.2-7 1.8-9 7-1.2 9 1.8c.7 1.1 1.1 2.3 1.1 3.6 0 2.1-1 4.1-2.9 5.4m21.9-16.8c-.3 1.7-1.3 3.2-2.8 4.1-1.4 1-3.2 1.3-4.9 1-1.7-.3-3.2-1.3-4.1-2.8-1-1.4-1.3-3.2-1-4.9.3-1.7 1.3-3.2 2.8-4.1 1.4-1 3.2-1.3 4.9-1 1.7.3 3.2 1.3 4.1 2.8 1 1.5 1.3 3.2 1 4.9"/>
</svg>
