<?xml version="1.0" encoding="utf-8"?>
<!-- Generator: Adobe Illustrator 24.2.0, SVG Export Plug-In . SVG Version: 6.00 Build 0)  -->
<svg version="1.1" xmlns="http://www.w3.org/2000/svg" xmlns:xlink="http://www.w3.org/1999/xlink" x="0px" y="0px"
	 viewBox="0 0 258 82.32" style="enable-background:new 0 0 258 82.32;" xml:space="preserve">
<style type="text/css">
	.st0{display:none;}
	.st1{display:inline;}
	.st2{fill:#010101;}
	.st3{display:inline;fill:#010101;}
</style>
<g id="ID" class="st0">
	<g class="st1">
		<g>
			<rect x="1" y="-11.83" class="st2" width="4.49" height="25.56"/>
			<polygon class="st2" points="19.62,-11.83 19.62,13.73 24.03,13.73 24.03,-4.45 38.13,13.73 41.89,13.73 41.89,-11.83 
				37.47,-11.83 37.47,5.85 23.78,-11.83 			"/>
			<polygon class="st2" points="53.75,-11.83 53.75,-7.67 61.86,-7.67 61.86,13.73 66.38,13.73 66.38,-7.67 74.49,-7.67 
				74.49,-11.83 			"/>
			<polygon class="st2" points="86.53,-11.83 86.53,13.73 105.66,13.73 105.66,9.71 91.02,9.71 91.02,2.85 103.84,2.85 
				103.84,-1.17 91.02,-1.17 91.02,-7.81 105.48,-7.81 105.48,-11.83 			"/>
			<path class="st2" d="M118.29-11.83v25.56h4.49V4.82h5.62l6.28,8.91h5.29l-6.9-9.68c3.58-0.98,6.1-3.54,6.1-7.78
				c0-5.01-3.61-8.11-9.5-8.11H118.29z M134.61-3.47c0,2.63-2.04,4.31-5.26,4.31h-6.57v-8.57h6.54
				C132.64-7.74,134.61-6.28,134.61-3.47"/>
			<rect x="152.24" y="-11.83" class="st2" width="4.49" height="25.56"/>
			<path class="st2" d="M169.72,0.99c0,7.23,5.48,13.18,13.33,13.18c7.85,0,13.4-6.03,13.4-13.25c0-7.23-5.48-13.18-13.33-13.18
				C175.26-12.27,169.72-6.24,169.72,0.99 M191.73,0.99c0,5.01-3.54,9.05-8.62,9.05c-5.07,0-8.69-4.12-8.69-9.12
				c0-5.01,3.54-9.06,8.61-9.06C188.12-8.14,191.73-4.01,191.73,0.99"/>
			<path class="st2" d="M208.54-11.83v25.56h4.49V4.82h5.62l6.28,8.91h5.29l-6.9-9.68c3.58-0.98,6.1-3.54,6.1-7.78
				c0-5.01-3.62-8.11-9.49-8.11H208.54z M224.86-3.47c0,2.63-2.04,4.31-5.26,4.31h-6.57v-8.57h6.53
				C222.89-7.74,224.86-6.28,224.86-3.47"/>
		</g>
		<g>
			<path class="st2" d="M29.42,36.34V61.9h9.53c8.03,0,13.58-5.59,13.58-12.81c0-7.23-5.55-12.75-13.58-12.75H29.42z M47.83,49.16
				c0,5.04-3.5,8.65-8.87,8.65h-5.04V40.44h5.04C44.32,40.44,47.83,44.12,47.83,49.16"/>
			<polygon class="st2" points="64.66,36.34 64.66,61.9 83.79,61.9 83.79,57.89 69.15,57.89 69.15,51.02 81.97,51.02 81.97,47.01 
				69.15,47.01 69.15,40.36 83.61,40.36 83.61,36.34 			"/>
			<polygon class="st2" points="96.41,36.34 96.41,61.9 100.91,61.9 100.91,51.5 113.8,51.5 113.8,47.41 100.91,47.41 100.91,40.44 
				115.44,40.44 115.44,36.34 			"/>
			<rect x="127.92" y="36.34" class="st2" width="4.49" height="25.56"/>
			<polygon class="st2" points="146.53,36.34 146.53,61.9 150.95,61.9 150.95,43.72 165.05,61.9 168.81,61.9 168.81,36.34 
				164.39,36.34 164.39,54.02 150.7,36.34 			"/>
			<polygon class="st2" points="182.67,36.34 182.67,61.9 201.8,61.9 201.8,57.89 187.16,57.89 187.16,51.02 199.98,51.02 
				199.98,47.01 187.16,47.01 187.16,40.36 201.62,40.36 201.62,36.34 			"/>
		</g>
	</g>
</g>
<g id="saucony">
	<g>
		<polygon class="st2" points="14.75,26.56 14.74,26.56 14.74,26.56 		"/>
		<path class="st2" d="M178.72,45.1c-1,0-2.05-0.31-3.14-0.9l-0.52-0.28l-2.42,5.33l0.46,0.24c2.07,1.12,3.95,1.6,6.26,1.6
			c4.29,0,6.77-2.09,8.86-7.45c0-0.01,10.37-26.82,10.37-26.82h-0.8h-6.44c0,0-5.36,15.35-6.2,17.77c-0.92-2.4-6.8-17.77-6.8-17.77
			h-7.4c0,0,10.6,25.43,10.79,25.88C180.82,44.68,179.93,45.1,178.72,45.1z"/>
		<path class="st2" d="M111.55,38.35l0.35-0.39l-4.27-4.21l-0.39,0.4c-2.02,2.08-3.93,3-6.18,3c-4.01,0-7.03-3.26-7.03-7.61v-0.09
			c0-4.21,2.96-7.51,6.75-7.51c2.93,0,4.7,1.44,6.18,2.99l0.4,0.43l4.35-4.68l-0.34-0.37c-2.85-3.15-6.1-4.55-10.54-4.55
			c-7.68,0-13.7,6.06-13.7,13.79v0.1c0,7.65,5.99,13.65,13.65,13.65C106.37,43.29,109.36,40.8,111.55,38.35z"/>
		<path class="st2" d="M127.33,43.2c7.93,0,14.13-6.04,14.13-13.75v-0.1c0-7.68-6.16-13.7-14.03-13.7c-7.9,0-14.09,6.06-14.09,13.8
			v0.1C113.34,37.2,119.49,43.2,127.33,43.2z M120.25,29.35c0-4.36,2.98-7.52,7.08-7.52c4.12,0,7.23,3.27,7.23,7.62v0.1
			c0,3.73-2.45,7.51-7.13,7.51c-4.03,0-7.18-3.34-7.18-7.61V29.35z"/>
		<path class="st2" d="M75.72,16.56l0.03,0.54v14.5c0,2.95-1.91,5-4.67,5c-2.72,0-4.78-2.18-4.78-5.08V16.56h-7.27V31.6
			c0,6.56,5.26,10.88,11.97,10.88c2.05,0,3.97-0.76,5.65-1.62c0.16-0.08,0.31-0.17,0.47-0.25l0.08,1.34v0.51h5.81V31.52v-2.38V16.56
			h-7.27H75.72z"/>
		<path class="st2" d="M152.68,42.48l-0.03-0.54v-14.5c0-2.95,1.91-5.01,4.67-5.01c2.72,0,4.78,2.18,4.78,5.08v14.96h7.26V27.44
			c0-6.57-5.26-10.88-11.98-10.88c-2.05,0-3.97,0.76-5.64,1.62c-0.16,0.08-0.32,0.17-0.48,0.25l-0.08-1.34v-0.53h-5.82v10.96v2.38
			v12.58h7.28H152.68z"/>
		<path class="st2" d="M47.23,16.99v1.12c-2.09-1.19-4.57-2.41-7.3-2.41c-8.05,0-14.37,5.61-14.37,13.5v0.1
			c0,7.81,6.27,13.36,14.27,13.36c2.73,0,5.25-1.26,7.4-2.48v1.12v0.69h6.49V16.37h-6.49V16.99z M40.17,36.97
			c-4.36,0-7.9-3.48-7.9-7.77c0-4.29,3.54-7.76,7.9-7.76c4.36,0,7.9,3.47,7.9,7.76C48.07,33.49,44.54,36.97,40.17,36.97z"/>
		<path class="st2" d="M12.94,20.18c1.77,0,4.21,0.85,7.25,2.53l0.24,0.13l2.72-4.92l-0.22-0.14c-2.95-1.83-6.68-2.92-9.95-2.92
			c-5.03,0-10.11,2.69-10.11,8.71v0.1c0,4.92,4.53,6.88,8.47,8.04c2.61,0.77,5.16,1.69,5.16,3.63v0.1c0,0.84-0.37,3.02-3.85,3.02
			c-2.44,0-5.53-1.43-8.72-3.58l-0.23-0.16l-3.04,4.68l0.21,0.15c3.4,2.51,7.5,4.21,11.57,4.21c6.83,0,10.59-3.31,10.59-8.75v-0.55
			c0-3.44-2.75-6.03-8.42-7.92h0.01h-0.01l0,0l-0.69-0.23c-2.63-0.87-4.53-1.51-4.53-3.51v-0.11C9.39,21.49,10.5,20.18,12.94,20.18z
			"/>
		<path class="st2" d="M252.98,46.52v-0.01c-2.13-1.44-2.13-1.45-3.57-2.33c-13.92-8.44-21.12-9.43-27.87-7.17
			c-5.25,1.76-14.27,8.89-14.27,8.89c-8.24,5.5-16.58,14.58-36.11,13.52c-18.19-0.98-55.64-10.71-56.09-10.84
			c-0.45-0.13-0.93,0.21-0.79,0.74c0.11,0.4,1.02,2.39,1.02,2.39c0.12,0.27,0.36,0.34,0.47,0.39c14.92,5.99,60.41,22.67,76.48,22.67
			c19.16,0,35.01-26.6,52.05-26.6c5.29,0,6.63,0.19,7.4,0.2c0.74,0.06,1.39-0.17,1.57-0.83C253.27,47.55,253.53,46.99,252.98,46.52z
			 M202.03,66.71L202.03,66.71L202.03,66.71z M203.54,63.58c-0.21,1.08-0.83,2-1.75,2.61l0,0c-0.92,0.61-2.01,0.82-3.08,0.61
			c-1.07-0.21-2-0.84-2.61-1.75c-1.26-1.89-0.74-4.44,1.14-5.69c1.88-1.25,4.44-0.73,5.69,1.15
			C203.54,61.41,203.76,62.5,203.54,63.58z M213.86,58.15c-1.89,1.25-4.43,0.73-5.69-1.14c-1.25-1.89-0.74-4.44,1.15-5.69
			c1.89-1.25,4.44-0.74,5.68,1.14c0.46,0.69,0.69,1.48,0.69,2.25C215.69,56.05,215.05,57.36,213.86,58.15z M227.68,47.51
			c-0.22,1.07-0.84,2-1.75,2.6c-0.92,0.61-2,0.83-3.08,0.61c-1.07-0.21-2-0.83-2.61-1.75c-0.61-0.92-0.82-2-0.61-3.08
			c0.22-1.07,0.84-2,1.75-2.61c0.91-0.61,2-0.82,3.07-0.61c1.08,0.21,2,0.84,2.61,1.75C227.68,45.34,227.89,46.43,227.68,47.51z"/>
	</g>
</g>
<g id="patagonia" class="st0">
	<path class="st3" d="M49,39.78h-1.55c-2.75,0-4.99,2.06-4.99,4.81c0,2.24,0.69,4.81,3.61,4.81c2.58,0,3.09-2.06,3.09-4.13v-5.16
		C49.17,40.13,49.35,39.78,49,39.78L49,39.78z M127.35,64.89h-5.42c-3.89-0.46-7.25-1.95-7.25-5.5c0-2.58,2.92-4.47,5.33-4.81
		c0,0,0.69-0.17,0-0.17c-0.86-0.17-5.5-0.52-7.05-0.17c0,0-0.34,0-0.52-0.34c-0.17-0.35-1.03-2.75-1.2-2.92
		c-0.17-0.34,0.17-0.52,0.17-0.52c3.44-0.52,6.53-2.24,7.91-2.75c0.86-0.17,0-0.34,0-0.34c-4.81-0.86-9.63-4.13-9.63-9.8
		c0-8.08,6.71-11.69,13.07-11.69c2.92,0,4.64,0.52,6.19,0.69c0,0,0.17,0.17,0.34-0.17c0-0.52,0.51-1.89,0.51-1.89
		c0.69-2.06,1.72-2.92,4.82-2.92c0.69,0,1.38,0,1.89,0.17c0,0,0.35-0.17,0.35,0.34c-0.18,0.17-1.21,4.3-1.21,4.47
		c-0.17,0.52-0.34,0.17-0.34,0.17c-0.52-0.34-0.69-0.52-1.89-0.34c-0.69,0-1.03,0.52-1.03,1.2c0,1.2,5.5,2.92,5.5,9.46
		c0,8.77-8.08,10.66-15.13,12.38c0,0-0.69,0.17,0,0.17c4.64,0.52,14.27,1.72,14.27,7.74C137.03,62.39,131.38,64.34,127.35,64.89
		L127.35,64.89z M60.01,50.96h1.38c0.34,0,0.34,0.34,0.34,0.34v2.75c0,0.52-0.52,0.35-0.52,0.35h-11c0,0-0.17,0-0.17-0.35
		c-0.17-0.69-0.51-1.38-0.51-1.89c-0.17-0.69-0.52,0-0.52,0c-2.23,1.72-4.81,3.1-7.91,3.1c-5.16,0-9.11-3.27-9.11-8.6
		c0-6.53,4.13-10.14,9.29-10.14l7.91-0.34v-0.34v-0.86c0-2.24-1.2-3.27-3.78-3.27c-3.27,0-4.81,1.2-6.36,3.09c0,0,0,0.17-0.34,0.17
		c-0.34-0.17-3.09-1.2-3.09-1.2s-0.34,0-0.17-0.34c0.17-0.34,3.61-8.6,3.61-8.6s0-0.34,0.17-0.17c0.52,0.17,2.58,0.86,3.09,0.86
		c0.34,0.17,0.17,0.52,0.17,0.52l-0.34,0.69c-0.17,0.69,0.17,0.34,0.17,0.34c2.24-0.86,4.47-1.2,6.71-1.2
		c6.53,0,10.83,2.75,10.83,9.46v15.13C59.83,50.44,59.83,50.96,60.01,50.96L60.01,50.96z M60.69,27.92
		c4.47-1.2,8.25-4.13,10.14-8.25c0,0,0-0.17,0.34-0.17c0.34,0,2.58,0.52,2.92,0.52c0.34,0.17,0.17,0.34,0.17,0.34
		c-0.17,1.38-0.34,2.92-0.34,4.13v2.06c0,0.34,0.34,0.17,0.34,0.17h4.64c0.34,0,0.17,0.34,0.17,0.34s-0.69,3.44-0.69,3.78
		c-0.17,0.34-0.34,0.34-0.34,0.34h-3.78c-0.35,0-0.34,0.17-0.34,0.17v15.99c0,1.89,1.55,2.23,2.41,2.23c0.86,0,1.03,0,1.72-0.34
		c0,0,0.34-0.34,0.34,0c0.17,0.34,1.03,2.58,1.2,2.92c0.17,0.17-0.17,0.34-0.17,0.34c-3.61,2.58-3.95,2.75-8.77,2.75
		c-5.33,0-7.22-2.58-7.22-7.39V31.36c0,0,0-0.17-0.34-0.17h-2.41c0,0-0.17,0-0.17-0.34v-2.58C60.52,28.09,60.69,27.92,60.69,27.92
		L60.69,27.92z M139.09,40.47c0-8.94,7.05-14.61,16.33-14.61c9.28,0,16.5,5.67,16.5,14.61c0,9.28-7.22,14.78-16.5,14.78
		C146.14,55.26,139.09,49.76,139.09,40.47z M149.75,36.52c0,4.13,1.72,14.44,7.56,14.44c3.09,0,3.95-3.27,3.95-6.36
		c0-4.13-1.72-14.44-7.74-14.44C149.75,30.16,149.75,34.45,149.75,36.52z M204.6,54.4h-14.44c0,0-0.17,0-0.17-0.17V51.3
		c0-0.34,0.34-0.34,0.34-0.34h1.72c0.17,0,0.17-0.17,0.17-0.17V35.14c0-1.72-1.55-2.41-3.1-2.41c-1.89,0-3.26,0.86-4.64,2.06
		c0,0-0.17,0.17-0.17,0.34v15.65c0,0,0,0.17,0.17,0.17h1.89c0,0,0.17,0,0.17,0.34v2.92c0,0.17-0.17,0.17-0.17,0.17h-14.44
		c0,0-0.17,0.17-0.17-0.35V51.3c0-0.34,0.17-0.34,0.17-0.34h1.54c0.35,0,0.18-0.17,0.18-0.17v-18.4c0,0,0.17-0.34-0.18-0.34
		l-1.54,0.52c0,0-0.17,0.17-0.17-0.17v-2.92c0-0.34,0.17-0.17,0.17-0.17l12.21-3.27c0,0,0.34-0.17,0.34,0.17v3.96
		c0,0.51,0.17,0.17,0.17,0.17c2.92-2.24,5.85-4.47,9.8-4.47c7.39,0,8.43,4.99,8.43,8.08v16.85c0,0-0.17,0.17,0.17,0.17h1.55
		c0,0,0.17,0,0.17,0.34v2.75C204.77,54.57,204.6,54.4,204.6,54.4L204.6,54.4z M219.21,26.03L207,29.29c0,0-0.17,0-0.17,0.34v2.75
		c0,0.34,0.34,0.17,0.34,0.17s0.86-0.17,1.55-0.34c0.35,0,0.17,0.34,0.17,0.52v18.05c0,0,0.17,0.17-0.17,0.17H207
		c0,0-0.35,0-0.35,0.34v2.92c0,0.35,0.35,0.17,0.35,0.17h14.27c0.34,0,0.17-0.35,0.17-0.35V51.3c0-0.34-0.34-0.34-0.34-0.34h-1.38
		c-0.35,0-0.17-0.17-0.17-0.17V26.2C219.56,25.86,219.21,26.03,219.21,26.03L219.21,26.03z M214.91,17.43
		c2.41,0,5.16,0.69,5.16,3.61c0,3.44-4.64,4.81-7.56,4.81c-2.41,0-3.96-1.2-3.96-3.61C208.55,19.5,212.33,17.43,214.91,17.43z
		 M96.8,39.78h-1.38c-2.92,0-4.99,2.06-4.99,4.81c0,2.24,0.69,4.81,3.44,4.81c2.75,0,3.27-2.06,3.27-4.13v-5.16
		C97.14,40.13,97.14,39.78,96.8,39.78L96.8,39.78z M107.97,50.96h1.2c0.51,0,0.51,0.34,0.51,0.34v2.75c0,0.52-0.51,0.35-0.51,0.35
		h-11c0,0-0.17,0-0.34-0.35c-0.17-0.69-0.34-1.37-0.34-1.89c-0.17-0.69-0.52,0-0.52,0c-2.41,1.72-4.81,3.1-7.91,3.1
		c-5.33,0-9.28-3.27-9.28-8.6c0-6.53,4.3-10.31,9.46-10.31l7.74-0.17c0,0,0.17,0,0.17-0.34v-0.86c0-2.24-1.2-3.27-3.78-3.27
		c-3.27,0-4.81,1.2-6.36,3.09c0,0-0.17,0.17-0.34,0c-0.34,0-3.27-1.03-3.27-1.03s-0.17,0,0-0.34c0.17-0.34,3.44-8.6,3.44-8.6
		s0-0.34,0.34-0.17c0.34,0.17,2.58,0.86,2.92,0.86c0.34,0.17,0.17,0.52,0.17,0.52s0,0.34-0.17,0.69c-0.34,0.69,0.17,0.34,0.17,0.34
		c2.24-0.86,4.47-1.2,6.71-1.2c6.53,0,10.83,2.75,10.83,9.46v15.13C107.8,50.44,107.63,50.96,107.97,50.96L107.97,50.96
		L107.97,50.96z M119.32,33.25c0,3.09,1.72,11.52,6.02,11.52c2.24,0,3.09-1.03,3.09-3.78c0-3.1-1.89-11.52-6.19-11.52
		C120.18,29.47,119.32,30.5,119.32,33.25L119.32,33.25z M123.79,55.77c-0.52,0.52-0.86,2.41-0.86,3.61c0,1.38,0.69,2.92,2.41,2.92
		c1.38,0,2.24-0.69,2.24-2.06c0-2.58-1.55-3.44-3.44-4.64C124.14,55.6,123.96,55.6,123.79,55.77z M238.47,39.78h-1.38
		c-2.92,0-4.99,2.06-4.99,4.81c0,2.24,0.69,4.81,3.44,4.81c2.75,0,3.27-2.06,3.27-4.13v-5.16
		C238.81,40.13,238.81,39.78,238.47,39.78L238.47,39.78z M249.64,50.96h1.38c0.34,0,0.34,0.34,0.34,0.34v2.75
		c0,0.52-0.52,0.35-0.52,0.35h-11c0,0-0.17,0-0.34-0.35c-0.17-0.69-0.35-1.37-0.35-1.89c-0.17-0.69-0.52,0-0.52,0
		c-2.41,1.72-4.81,3.1-7.91,3.1c-5.33,0-9.28-3.27-9.28-8.6c0-6.53,4.3-10.31,9.46-10.31l7.74-0.17c0,0,0.17,0,0.17-0.34v-0.86
		c0-2.24-1.2-3.27-3.78-3.27c-3.27,0-4.81,1.2-6.36,3.09c0,0-0.17,0.17-0.34,0c-0.35,0-3.1-1.03-3.1-1.03s-0.34,0-0.17-0.34
		c0.17-0.34,3.44-8.6,3.44-8.6s0-0.34,0.34-0.17c0.34,0.17,2.58,0.86,2.92,0.86c0.34,0.17,0.34,0.51,0.34,0.51l-0.34,0.69
		c-0.34,0.69,0.17,0.34,0.17,0.34c2.24-0.86,4.47-1.2,6.7-1.2c6.54,0,10.83,2.75,10.83,9.46v15.13
		C249.47,50.44,249.47,50.96,249.64,50.96L249.64,50.96z M12.72,32.56v13.93c0,2.41,0.86,4.47,3.61,4.47c3.44,0,4.99-2.06,4.99-8.43
		c0-10.14-5.16-10.66-6.88-10.66l-1.38,0.17C13.07,32.05,12.72,32.22,12.72,32.56L12.72,32.56z M12.9,28.44
		c2.58-1.55,4.47-2.58,7.05-2.58c6.71,0,12.03,5.5,12.03,13.58c0,7.91-4.99,15.82-13.58,15.82c-1.72,0-3.95-0.17-5.5-1.03
		c0,0-0.17,0-0.17,0.17v4.98c0,0,0,0.35,0.34,0.35h3.09c0,0,0.34,0,0.34,0.34v2.75c0,0.17-0.34,0.35-0.34,0.35H0.52
		c0,0-0.52,0-0.52-0.35v-0.03v-0.03v-0.03v-0.03v-0.03v-0.03v-0.03v-0.03v-0.04V62.5v-0.04v-0.04v-0.04v-0.04v-0.05v-0.04V62.2
		v-0.05v-0.05v-0.05v-0.05v-0.05v-0.05v-0.05v-0.05v-0.05v-0.05v-0.05v-0.05v-0.05V61.5v-0.05V61.4v-0.05v-0.06v-0.05v-0.05v-0.05
		v-0.05v-0.05v-0.05v-0.05v-0.05v-0.05v-0.05v-0.05V60.7v-0.04v-0.05v-0.04v-0.05v-0.04v-0.04V60.4v-0.04v-0.04v-0.04v-0.03v-0.03
		v-0.03v-0.03v-0.03v-0.03v-0.02c0-0.35,0.34-0.35,0.34-0.35h1.38c0.34,0,0.34-0.34,0.34-0.34V32.4c0-0.34-0.34-0.17-0.34-0.17
		l-1.38,0.34c0,0-0.34,0-0.34-0.34v-0.02v-0.02v-0.02v-0.02v-0.03v-0.03v-0.03v-0.03v-0.04v-0.03v-0.04v-0.04v-0.04v-0.04v-0.04
		V31.7v-0.05v-0.05v-0.05v-0.05v-0.05v-0.05v-0.05V31.3v-0.05v-0.06v-0.06v-0.06v-0.06v-0.06v-0.06v-0.06V30.8v-0.06v-0.06v-0.06
		v-0.06v-0.06v-0.06v-0.05v-0.05V30.3v-0.05V30.2v-0.05V30.1v-0.05v-0.05v-0.05v-0.04v-0.04v-0.04v-0.04v-0.04v-0.04v-0.03v-0.03
		v-0.03v-0.03v-0.03v-0.03v-0.02V29.5v-0.02c0-0.34,0.34-0.34,0.34-0.34l12.03-3.09c0,0,0.34-0.17,0.34,0.17v2.06
		C12.72,28.61,12.9,28.44,12.9,28.44L12.9,28.44z"/>
</g>
<g id="chaco" class="st0">
	<g class="st1">
		<path d="M83.31,0.71c-0.11,0.17-0.09,0.48,0.23,0.48c2.04,0.02,4.05,0.08,6.04,0.18c37.03,1.82,65.9,16.66,65.9,34.7
			c0,19.27-32.95,34.88-73.6,34.88c-40.64,0-73.59-15.62-73.59-34.88c0-4.09,0.99-8.51,3.72-12.16c0,0,0.11-0.18-0.09-0.31
			c-0.2-0.13-0.36,0.06-0.36,0.06c-3.99,4.54-6.19,9.54-6.19,14.78c0,20.89,35.02,37.83,78.22,37.83s78.22-16.94,78.22-37.83
			c0-19.91-31.8-36.23-72.18-37.72c-1.99-0.07-4-0.11-6.03-0.11C83.59,0.6,83.39,0.59,83.31,0.71"/>
		<path d="M145.59,28.34c0,0.79-0.57,1.33-1.23,1.33v0c-0.69,0-1.24-0.53-1.24-1.33c0-0.8,0.55-1.33,1.24-1.33
			C145.02,27.01,145.59,27.54,145.59,28.34 M146.09,28.34c0-1.09-0.82-1.73-1.73-1.73c-0.92,0-1.74,0.64-1.74,1.73
			c0,1.09,0.82,1.73,1.74,1.73C145.27,30.07,146.09,29.43,146.09,28.34 M144.07,28.48h0.19l0.43,0.78h0.47l-0.48-0.81
			c0.25-0.02,0.45-0.14,0.45-0.49c0-0.43-0.29-0.56-0.76-0.56h-0.7v1.86h0.4V28.48z M144.07,28.17v-0.45h0.28
			c0.15,0,0.35,0.01,0.35,0.21c0,0.21-0.1,0.24-0.28,0.24H144.07z"/>
		<path d="M134.03,30.89c-4.7,0-7.71,4.92-7.71,9.27c0,4.36,3.01,9.28,7.71,9.28c4.69,0,7.71-4.92,7.71-9.28
			C141.74,35.8,138.72,30.89,134.03,30.89 M146.14,40.11c0,6.51-4.65,11.78-12.08,11.78c-7.43,0-12.08-5.27-12.08-11.78
			c0-6.5,5.41-11.78,12.08-11.78C140.73,28.33,146.14,33.61,146.14,40.11"/>
		<path d="M55.45,22.6c0,0-8.26-6.56-14.08-7.35c-5.63-0.8-10.84,0.61-15.98,5.26c-5.51,4.9-9.5,16.04-2.15,26.08
			c6.06,8.33,18.06,8.64,24.92,5.21c6.8-3.49,8.51-6.95,8.51-6.95l0.06-4.18c0,0-3.43,7.03-12.49,8.74
			c-7.23,1.34-14.97-2.25-18-8.95c-2.46-5.43-0.82-14.65,3.74-18.61c4.62-4.01,9.62-5.26,15-2.99c5.45,2.21,6.49,6.43,5.94,8.45
			c-0.86,3.06-1.29,3.12-1.29,3.12l0.79,0.49L55.45,22.6z"/>
		<path d="M122.12,32.91c0,0-0.68,1.25-1.17,2.27c-0.52,1.09-1.16,2.87-1.16,2.87h-0.61c0,0,0.31-2.45-0.73-4.22
			c-1.1-1.65-2.99-2.99-4.89-3c-2.68-0.01-5.08,1.22-6.8,4.04c-1.9,3.25-1.59,6.23-0.92,8.51c1.11,3.79,4.83,6,8.63,5.58
			c5.14-0.49,7.35-3.55,7.35-3.55l0.91,1.59c0,0-1.04,1.35-2.94,2.69c-1.53,1.1-3.8,2.39-7.9,2.2c-4.9-0.19-8.02-2.58-9.61-6.13
			c-1.47-3.13-1.9-8.19,0.98-12.54c2.7-3.86,6.27-4.87,9.69-4.86c3.44,0.01,6.4,2.13,7.2,2.73
			C121.25,31.9,122.12,32.91,122.12,32.91"/>
		<path d="M87.46,48.93c-2.14-0.92-3.34-2.85-3.06-5.33c0.11-0.99,0.48-2.08,1.34-3.18c2.94-3.86,9.63-1.57,9.63-1.57l-0.01,8.73
			C95.36,47.58,90.52,50.16,87.46,48.93 M102.89,49c0,0-0.98,1.04-1.77,0.8c-0.86-0.25-1.02-0.84-1.1-1.27
			c-0.05-0.25-0.54-10.46-0.59-11.17c0-5.34-4.12-9.19-9.2-9.19c-1.22,0-2.39,0.24-3.45,0.67c-0.28,0.11-0.57,0.25-0.87,0.4
			c-2.17,1.02-4.59,2.2-4.59,2.2l2.06,3.03c0,0,0.45-0.51,1.16-1.17c0.48-0.44,1.52-1.6,3.22-2.24c0.61-0.23,1.31-0.32,2-0.32
			c3.82,0,5.59,2.48,5.59,5.54l0.01,0.54c0,0-4.26-0.76-7.22-0.36c-2.57,0.35-5.94,1.16-7.53,4.59c-0.37,0.8-0.61,1.65-0.74,2.57
			c-0.37,2.82,0.67,5.88,3.85,7.53c3.12,1.59,5.51,1.17,7.72,0.56c1.78-0.55,4.29-2.14,4.29-2.14s0.86,2.27,2.63,2.39
			c1.59,0.11,2.57-0.31,3.43-0.86c0.92-0.61,1.59-1.59,1.59-1.59L102.89,49z"/>
		<path d="M79.83,51.55C79.83,51.55,79.83,51.55,79.83,51.55L79.83,51.55l-0.03-0.01c-0.16-0.06-1.06-0.44-1.28-1.27
			c-0.12-0.31-0.11-2.39-0.11-2.39s-0.05-7,0-9.23c0.12-3.18-0.49-4.96-0.98-6.13c-0.43-0.86-2.33-3.98-7.04-4.1
			c-4.41-0.12-7.78,4.83-7.78,4.83l0.01-16.59c0,0,0.12-1.59-0.43-2.33c-0.25-0.37-0.61-0.49-0.61-0.49l-4.78,7.77
			c0,0,0.67,0,1.1,0.37c0.43,0.49,0.36,1.78,0.36,1.78l-0.01,24.1c0,0,0.01,2.09-0.11,2.4c-0.24,0.91-1.3,1.28-1.31,1.29h-0.01v0.61
			h7.19v-0.61h0.01c0,0-1.07-0.36-1.31-1.28c-0.12-0.31-0.11-2.4-0.11-2.4l0-9.23c0,0-0.03-0.7,1.78-3.13
			c1.22-1.64,1.5-1.97,2.94-3.24c0.94-0.83,3.32-1.9,5.15-0.24c1.78,1.65,1.59,5.15,1.59,5.15v10.7c0,0-0.01,2.09-0.13,2.39
			c-0.22,0.84-1.12,1.21-1.28,1.28h-0.02v0.01l0,0h0v0.6h7.2L79.83,51.55L79.83,51.55z"/>
		<path d="M57.44,10.54c-2.43,0.76-5.41,0.28-5.41,0.28c1.59-0.35,5.2-3.12,5.47-3.4c0.28-0.28,0.63-0.83,0.42-1.04
			c-0.21-0.21-0.45,0.03-0.45,0.03c-1.66,1.48-5.36,2.83-5.36,2.83c0.52-0.39,1.22-1,3.18-3.79c1.96-2.79,0.17-3.44,0.17-3.44
			c-7.33-1.64-13.31,2.69-14.22,3.4c-0.08,0.06-0.11,0.13-0.11,0.13c-0.25,0.98,0.98,0.77,0.98,0.77c3.53-0.76,6.24-0.35,7.42-0.28
			c1.18,0.07,0.83,1.18,0.21,2.43c-0.62,1.25-2.92,2.89-3.81,3.26c-0.79,0.33-0.37,0.74-0.37,0.74c0.08,0.08,0.24,0.04,0.34,0.04
			c0.05,0,0.15,0,0.22,0c2.91,0.32,7.02,3.58,7.02,3.58s0.78,0.82,0.9,0.07c0.17-1.05-2.91-3.53-2.91-3.53
			c4.09,0.14,6.31-1.18,6.31-1.18s0.62-0.28,0.55-0.62C57.92,10.47,57.44,10.54,57.44,10.54"/>
		<path d="M88.96,10.95c-1.66-3.05-4.16-3.68-4.16-3.68c1.07,0.04,2.29-1.49,2.43-1.7c0.14-0.21,0.24-0.55,0.1-0.66
			c-0.14-0.1-0.38,0.14-0.38,0.14c-1.84,1.91-4.96,1.35-7.11,0.38c-2.15-0.97-4.68-0.9-4.68-0.9s3.5-2.32,3.92-5.23
			c0.41-2.91-0.83-2.08-0.83-2.08c-1.91,2.63-3.99,2.74-4.4,2.84c-0.41,0.1-1.98,0.17-2.22,1.11c-0.24,0.93-1.35,2.22-2.56,3.12
			c-0.86,0.64-0.33,1.28-0.33,1.28c0.58,0.75,1.65,1.25,2.09,1.36c0.45,0.1,1.46-0.66,6.14,0.03c4.68,0.69,7.63,6.24,7.73,7.07
			c0.04,0.33,0.12,0.5,0.2,0.6c0.05,0.04,0.2,0.14,0.28,0.01c0.89-2.55-1.1-5.52-1.1-5.52c3.05,0.55,4.09,1.91,4.19,1.98
			c0.1,0.07,0.42,0.35,0.59,0.24C89.02,11.23,88.96,10.95,88.96,10.95"/>
		<path d="M92.78-24.11c-0.13-1.85-1.37-2.35-2.02-2.49c-0.24-0.03-0.51-0.02-0.68-0.01c-6.4,1-9.7,6.23-9.73,6.29
			c-0.89,1.22-2,4.65-2.53,6.4l0-0.01c-0.38,1.42-0.92,2.2-0.92,2.2c-1.64,2.57-6.86,8.63-18.51,6.06
			C40.95-9.52,30.98,4.1,30.88,4.23C23.87,13,17.06,17.71,10.65,18.22c-5.2,0.41-8.19-2.24-8.22-2.27c-0.06-0.05-0.14-0.05-0.2,0
			c-0.06,0.05-0.06,0.14-0.01,0.2c2.48,2.7,5.51,4.11,9.02,4.19c9.82,0.22,20.3-10.1,20.41-10.21C48.13-5.05,61.88-1.41,62.02-1.37
			c14.51,2.78,19.13-5.16,20.2-7.62h0c0,0,0-0.01,0.01-0.03c0.04-0.1,0.08-0.18,0.11-0.26c0.09-0.22,0.23-0.45,0.42-0.62
			c0.81-0.68,1.71-1.3,2.6-1.91c1.6-1.09,3.25-2.21,4.35-3.7c1.83-2.48,3.09-6.3,3.09-8.31C92.79-23.92,92.79-24.02,92.78-24.11"/>
		<path d="M45.18-15.18c-1.66-1.15-7.92,3.36-7.92,3.36s-0.32,0.2-0.32,0.12c0-0.08,0.16-0.4,0.16-0.4
			c1.05-1.81,2.65-4.14,2.02-4.63c-0.63-0.49-3.04,3.09-3.36,3.68c-0.31,0.57-0.46,0.39-0.46,0.39c0-1.8-0.41-3.52-0.63-4.02
			c-0.2-0.45-0.36-0.45-0.55-0.45c-0.18,0-0.2,0.26-0.2,0.26c0.57,3.76-1.41,7.52-1.64,7.76c-0.31,0.32-0.04,0.5-0.04,0.5
			c2.09,0.76,6.62-1.75,8.14-1.18c1.53,0.57-2,4.8-2,4.8c-0.04,0.05-0.06,0.09-0.07,0.14c-0.01,0.04-0.02,0.07-0.02,0.11
			c0,0.19,0.15,0.36,0.34,0.34c0.06,0,0.1-0.01,0.14-0.03c1.64-0.44,4.7-2.47,5.16-3C44.39-7.98,46.84-14.03,45.18-15.18"/>
		<path d="M75.83-20.13c-0.26-0.14-0.4,0.21-0.4,0.21c-1.07,2.22-2.82,2.33-2.82,2.33c2.47-2.39,1.5-5.36,1.39-5.54
			c-0.07-0.11-0.18-0.08-0.25-0.05c-0.07,0.03-0.07,0.2-0.07,0.21c0,2.77-2.47,4.59-2.47,4.59c0.43-2.86-0.45-3.87-0.64-4.11
			c-0.24-0.31-0.32,0-0.32,0c0.21,5.25-1.32,6.75-3.75,7.97c-2.43,1.21-4.93,1.64-5.18,2.57c-0.25,0.93,0.46,1.11,3.36,1.89
			c1.82,0.49,2.51,1.23,2.78,1.71c0,0,0,0,0,0c0.06,0.11,0.12,0.28,0.15,0.44c0.01,0.07,0.07,0.14,0.19,0.16c0,0,0.01,0,0.01,0
			c0.29,0.05,0.96-0.12,2.2-1.24c1.79-1.61,1.16-2.58,1.16-2.58c-1-1.58-3-1.54-3-1.54c5.9-2.11,7.36-5.94,7.52-6.25
			C75.82-19.64,75.97-20.05,75.83-20.13"/>
	</g>
</g>
</svg>