<?xml version="1.0" encoding="utf-8"?>
<!-- Generator: Adobe Illustrator 16.0.4, SVG Export Plug-In . SVG Version: 6.00 Build 0)  -->
<!DOCTYPE svg PUBLIC "-//W3C//DTD SVG 1.1//EN" "http://www.w3.org/Graphics/SVG/1.1/DTD/svg11.dtd">
<svg version="1.1" id="Layer_1" xmlns="http://www.w3.org/2000/svg" xmlns:xlink="http://www.w3.org/1999/xlink" x="0px" y="0px"
	 width="764.962px" height="792px" viewBox="230.609 0 764.962 792" enable-background="new 230.609 0 764.962 792"
	 xml:space="preserve">
<g>
	<path stroke="#FFFFFF" stroke-miterlimit="10" d="M390.405,173.029c-84.941,12.977-145.108,59.773-145.108,82.975
		c0,27.134,42.864,50.336,71.571,80.616c15.336,16.123,19.662,30.279,19.662,44.043c0,7.079-0.787,15.337-3.539,18.876
		c-4.719,6.686-23.202,16.123-37.752,13.764c-29.1-5.111-34.212-46.01-27.134-66.064c1.18-3.146,0-9.045-4.326-11.798
		c-4.719-2.753-11.797-2.359-14.943,6.292c-7.865,19.662-12.977,68.031,16.517,88.48c9.045,6.292,20.449,9.044,37.358,9.044
		c49.549,0,79.043-37.751,92.807-73.144c14.943-38.933,21.235-75.11-18.876-108.93c-10.225-8.651-18.089-25.954-15.73-34.605
		c3.539-10.618,11.797-13.371,11.797-5.899c0,11.797,28.707,20.842,36.965-18.089C410.461,193.871,402.596,171.062,390.405,173.029"
		/>
	<path stroke="#FFFFFF" stroke-miterlimit="10" d="M658.207,327.575c0,6.292-8.259,25.561-14.551,30.28
		c-3.934,3.146-9.831,3.146-13.765-1.182c-3.933-3.932-8.65-11.402-5.897-27.134c1.18-7.472,6.686-18.089,13.764-19.662
		c1.573-0.394,10.617,0,14.55-0.786C657.42,308.306,658.207,312.238,658.207,327.575 M450.179,322.069
		c-1.18-3.539-2.358-8.259-1.966-12.978c0.393-3.146,3.146-6.686,5.111-7.865c3.54-2.359,6.686-5.112,9.045-4.719
		c2.359,0.394,4.719,2.36,5.506,4.326c0.786,1.966,0,9.831-1.967,12.19C462.369,316.564,456.864,322.463,450.179,322.069
		 M582.703,346.451c-3.146,3.539-1.573,1.572-4.326,5.505c-2.359,3.539-15.336,16.123-27.527,17.303
		c-17.303,1.967-19.661-21.234-19.661-29.493c0-11.403,9.045-32.246,21.629-32.64c3.933,0,4.325,1.18,5.897,2.753
		c1.181,1.573,2.359,2.753,1.181,5.506c-7.865,15.729-5.112,24.774,0.394,24.774c2.359,0,2.753-1.181,4.719-2.359
		s16.123-11.798,15.729-21.235c0-9.438-7.078-31.459-18.089-34.605c-4.325-1.18-16.909,2.752-27.135,8.651
		c-16.517,9.831-27.135,33.819-27.135,33.819c-7.472,9.438-10.617,12.19-15.336,17.304c-5.112,5.111-13.764,16.517-23.988,16.909
		c-7.864,0.395-11.011-9.045-12.978-14.55c-0.786-2.359-2.359-8.259-1.966-8.259c1.18,0,3.146-0.786,5.506-1.18
		c4.719-1.573,35.392-20.057,35.392-43.65c0-8.651-7.864-14.55-12.978-14.55c-5.111,0-18.089,2.753-26.348,8.258
		c-13.764,9.045-24.774,20.056-29.493,27.134c-12.978,18.876-19.27,52.695-3.539,71.179c7.472,8.65,16.517,15.729,27.134,17.304
		c23.202,3.932,37.752-27.527,48.763-37.752c1.968,20.842,4.72,28.312,13.371,34.212c8.651,5.898,19.27,7.079,33.819-1.572
		c14.55-8.65,32.246-23.988,37.751-31.46c0,18.089,12.978,32.246,30.674,34.212c32.64,3.934,53.088-44.043,57.414-66.458
		c3.539-18.482-1.18-25.955,0.786-27.134c2.753-1.18,14.942-4.719,17.695-3.146c2.754,1.18,7.078,21.629,5.112,33.819
		c-2.753,19.662-10.225,53.875,3.146,55.056c12.978,1.18,33.032-33.819,41.685-33.819c11.011,0,15.337,28.312,28.313,28.312
		c12.978,0,26.348-14.942,34.605-14.942c-1.18,19.662,8.651,32.246,24.774,31.854c27.921-0.394,66.852-52.303,79.043-66.065
		c-4.721,23.596-5.112,56.233-5.506,63.312c-0.395,7.078,4.324,16.909,8.259,16.909c12.583,0,32.639-13.37,38.931-29.1
		c-0.394-9.046,4.72-30.28,13.764-49.156c12.19-25.562,20.057-53.482,20.057-63.313c0-12.584-11.012-57.021-23.988-58.594
		c-8.65-1.18-27.527,12.584-29.493,15.73c-3.933,5.898-4.325,12.977-6.292,23.988c-2.753,14.943-5.897,31.067-11.797,45.224
		c-4.72,11.011-9.438,21.628-15.337,29.887c-14.157,19.269-30.28,28.707-32.64,27.134c-3.539-2.358-2.753-14.157,1.18-24.382
		c2.753-6.292,5.898-9.831,11.404-11.011c5.505-1.181,11.797-1.181,12.977-0.786c4.72,0.786,6.292-6.687,5.899-11.011
		c-0.395-3.934-11.011-4.719-22.022-4.326c-33.426,1.966-41.291,16.517-50.336,30.673c-14.55,22.416-33.032,18.09-40.504,4.326
		c-7.078-13.37-12.979-27.921-23.201-23.201c-4.72,2.359-14.942,9.044-18.482,11.797c-3.539,3.146-8.651,7.472-9.831,5.898
		c-1.572-1.967,1.572-12.19,2.358-16.517c2.753-22.416,4.326-42.864-5.111-47.977c-4.72-2.359-22.021,0-33.032,6.292
		c-4.719,2.753-33.426,13.764-45.224,13.764c-4.72,0-5.506-5.505-9.831-5.505C605.512,284.711,583.097,327.182,582.703,346.451"/>
	<path stroke="#FFFFFF" stroke-miterlimit="10" d="M771.855,149.827c-2.36-2.753-3.54-11.404-3.934-17.303
		c1.18-3.539,9.438-7.865,14.156-4.326c4.72,3.539,7.079,9.831-0.394,18.089C778.54,149.434,775.787,150.614,771.855,149.827
		 M843.426,154.546c-0.786-7.078-11.011-3.146-16.123-0.393c-4.719,2.753-10.617,7.865-10.617,12.584
		c0,4.719,0.786,10.225,0.394,14.157c-0.394,3.933-1.572,7.079-7.864,8.651c-4.72,1.18-14.157-1.966-18.482-7.472
		c-9.831-11.797-10.617-14.157-12.978-18.875c8.651-6.292,23.595-16.517,25.168-32.247c1.966-18.876-23.987-16.516-40.505-7.865
		c-32.246,17.303-36.179,33.426-33.032,46.403c-10.225,11.011-23.987,11.404-36.18,5.505
		c-25.954-12.584-22.808-31.066-38.538-34.212c-16.123-3.146-27.527,10.224-34.212,10.224
		c7.078-36.572,24.774-85.334,57.414-145.108c0-0.786,1.18-3.932-2.753-5.112c-4.326-1.18-16.518-1.966-23.595,2.752
		c-7.078,4.719-11.404,14.157-14.943,20.056c-14.943,5.899-21.235,8.258-41.291,9.438c-9.831,0.787-22.021,1.18-25.168,1.18
		c0.394-6.685-1.18-23.202-1.966-26.741c-0.787-3.539-3.934-7.472-11.012-6.685c-12.978,1.966-39.324,10.224-42.077,27.92
		c-14.157-0.393-40.505-8.258-57.809-7.079c-35.392,2.36-40.504,3.933-41.684,13.764c-0.395,5.112,0.786,9.438,1.18,11.404
		c0,1.966,0.786,10.225,8.258,8.651c31.066-5.898,76.29-5.112,86.516-5.898c-3.146,33.033-12.584,107.75-20.449,137.636
		c-5.898,23.202-10.226,38.932,7.865,31.067c19.27-8.258,26.348-12.978,33.032-17.303c6.686-3.932,19.27-16.91,22.021-35.785
		c3.539-23.988,9.438-52.302,10.225-62.133c0.786-9.831,4.72-42.471,5.898-53.481c21.234,0,49.549-9.045,58.2-12.191
		c-36.18,67.639-58.2,141.962-57.021,156.119c0.786,6.686,5.112,9.831,13.765,8.651c8.651-1.18,21.234-9.831,28.707-17.696
		c7.472-7.865,14.55-10.618,23.987-9.045c9.438,1.18,13.765,4.719,16.518,10.618c6.292,12.977,16.908,17.696,34.604,14.943
		c23.201-3.539,32.246-12.584,43.65-20.842c11.011,22.021,23.987,31.459,53.875,31.459c16.909,0,39.718-12.977,49.154-24.774
		C841.46,180.107,844.605,161.625,843.426,154.546"/>
	<path stroke="#FFFFFF" stroke-miterlimit="10" d="M570.119,466.784c-23.201,0-105.783,49.941-110.896,106.569
		c-3.933,42.472,21.628,86.907,42.472,93.986c4.719,1.573,15.337,2.359,25.168-0.787c36.57-11.797,77.861-59.38,103.424-93.593
		c0.786-0.786,2.359-0.393,1.573,1.967c-4.721,22.81-6.292,40.111-5.506,50.336c1.18,14.156,11.798,18.875,16.123,19.662
		c11.798,1.966,32.245-32.246,40.11-47.188c0.395-0.787,1.573-0.787,1.573,0.393c-1.573,30.28,3.933,42.078,9.438,47.189
		c3.539,3.146,11.799,5.898,13.37,5.898c16.124-1.573,34.213-29.494,46.403-49.941c1.18-1.573,2.753,0.785,2.753,3.146
		c0,32.246,4.719,39.325,10.618,42.077c1.18,0.787,8.258,3.54,11.403,2.753c11.798-2.753,26.74-14.55,38.932-33.426
		c-2.752,36.965-31.066,116.795-37.358,147.86c-2.358,11.404-2.358,20.057-0.785,22.021c7.077,6.686,31.065,9.045,49.549,1.18
		c18.481-7.472,24.773-19.269,25.562-22.415c2.753-13.37-14.551-84.153,10.617-173.027c0.394-1.181,0.786-1.968,1.967-5.112
		c1.966-4.719,1.181-11.404-4.72-20.057c-3.539-5.111-9.438-6.686-17.303-5.111c-8.651,1.573-9.831,4.325-13.765,12.584
		c-3.932,8.258-19.269,31.46-29.887,31.065c-7.078-0.394-8.258-5.506-8.651-13.37c-0.785-9.438-2.753-28.313-2.753-31.46
		c0-3.146-1.18-8.65-9.438-8.259c-11.798,0.787-24.774,26.741-42.471,43.65c-7.473,7.472-11.799,5.506-13.765,4.326
		c-2.358-1.181-2.753-17.696-0.786-33.033c1.181-9.438,11.403-53.874,12.583-64.1c20.844,2.754,49.943,5.112,78.258,5.898
		c26.74,0.786,51.516-1.18,68.425-0.394c9.831-7.078,29.101-33.427,31.46-43.258c1.572-6.292,0-10.617-8.259-11.403
		c-29.493-1.966-57.808,3.146-88.873,12.189c-22.81,6.687-28.707,7.079-36.966,9.438c-8.651,1.966-35,5.505-41.685,6.685
		c0.394-3.932,1.572-8.258-0.787-9.438c-3.933-2.359-11.797-2.359-18.481,2.358c-2.359,1.967-3.934,6.687-4.72,9.045
		c-16.517,2.359-34.999,0.786-44.438-1.967c-3.146-1.18-5.112-3.146-5.505-5.505c-0.395-2.359-1.573-12.978-3.934-15.337
		c-2.359-2.359-1.572-13.764-4.719-15.337c-3.146-1.18-14.943-7.864-29.101,17.696c-8.651,15.729-7.473,20.843-1.966,26.348
		c2.358,2.359,5.897,4.719,9.83,4.719c11.404,0,18.482-2.753,23.988-5.505c5.111-3.146,6.686-0.787,11.797,1.18
		c5.506,1.967,27.527,7.864,39.325,9.045c-6.292,16.517-19.27,50.336-22.415,63.706c-7.079,13.765-18.876,32.246-25.562,32.246
		c-3.934,0-6.687-4.325-7.078-7.472c-1.181-5.506,1.571-23.988,3.933-37.358c2.359-13.764,7.078-26.348-5.506-26.348
		c-11.404,0-11.798,0.786-16.123,6.292c-23.595,30.279-61.74,68.818-88.088,74.323c-14.943,3.146-29.887-25.168-29.887-38.538
		c0-18.876,5.897-40.505,26.348-55.055c2.359-1.573,2.359-1.573,3.539-1.573s4.326-0.786,5.112,1.573
		c0.786,2.358,4.325,12.978,9.831,12.978c7.472,0,20.056-18.482,20.056-42.864C583.489,467.964,571.692,466.784,570.119,466.784"/>
	<path stroke="#FFFFFF" stroke-miterlimit="10" d="M961.007,464.032c-0.394-0.395-1.573-0.395-2.753-0.395h-1.966v4.325h1.966
		c0.787,0,1.573,0,1.967-0.393c0.786-0.395,1.181-0.787,1.181-1.968C961.793,465.212,961.4,464.425,961.007,464.032
		 M958.646,462.065c1.573,0,2.754,0,3.539,0.394c1.181,0.393,1.968,1.573,1.968,3.146c0,1.18-0.395,1.967-1.182,2.358
		c-0.393,0.395-1.18,0.395-1.966,0.787c1.18,0,1.573,0.393,1.966,1.18c0.395,0.786,0.787,1.181,0.787,1.967v0.786
		c0,0.394,0,0.394,0,0.786c0,0.394,0,0.395,0,0.786l0,0h-1.967l0,0l0,0v-0.393v-1.181c0-1.572-0.394-2.359-1.18-2.753
		c-0.394-0.394-1.181-0.394-2.359-0.394h-1.572v4.719h-2.358v-12.584h4.324V462.065z M951.569,461.672
		c-1.968,1.967-2.753,4.326-2.753,7.079s0.785,5.112,2.753,7.078c1.966,1.967,4.325,2.753,7.077,2.753
		c2.754,0,5.112-1.18,7.078-2.753c1.967-1.966,2.754-4.325,2.754-7.078s-0.787-5.112-2.754-7.079
		c-1.966-1.966-4.324-2.752-7.078-2.752C955.895,458.526,953.535,459.706,951.569,461.672 M966.905,476.615
		c-2.359,2.359-4.72,3.54-8.259,3.54c-3.146,0-5.897-1.181-8.259-3.54c-2.358-2.359-3.146-4.719-3.146-8.258
		c0-3.146,1.18-5.898,3.146-8.259c2.36-2.358,4.721-3.146,8.259-3.146c3.146,0,5.898,1.18,8.259,3.146
		c2.359,2.359,3.54,5.112,3.54,8.259C970.052,471.504,968.872,474.256,966.905,476.615"/>
</g>
</svg>
