<?xml version="1.0" encoding="utf-8"?>
<!-- Generator: Adobe Illustrator 22.0.0, SVG Export Plug-In . SVG Version: 6.00 Build 0)  -->
<svg version="1.1" id="Layer_1" xmlns="http://www.w3.org/2000/svg" xmlns:xlink="http://www.w3.org/1999/xlink" x="0px" y="0px"
	 viewBox="0 0 296.5 65.2" style="enable-background:new 0 0 296.5 65.2;" xml:space="preserve">
<g>
	<path d="M105.3,0c-15,2.3-25.7,10.6-25.7,14.7c0,4.8,7.6,8.9,12.7,14.3c2.7,2.9,3.5,5.3,3.5,7.8c0,1.3-0.2,2.7-0.6,3.4
		c-0.8,1.2-4.1,2.9-6.7,2.4c-5.1-0.9-6.1-8.1-4.8-11.7c0.2-0.6,0-1.6-0.8-2.1c-0.8-0.5-2.1-0.4-2.7,1.1c-1.4,3.5-2.3,12.1,2.9,15.7
		c1.6,1.1,3.6,1.6,6.6,1.6c8.8,0,14-6.7,16.4-13c2.6-6.9,3.8-13.3-3.3-19.3c-1.8-1.6-3.3-4.6-2.8-6.1c0.6-1.9,2.1-2.3,2.1-1.1
		c0,2.1,5,3.7,6.6-3.2C108.8,3.7,107.4-0.3,105.3,0"/>
	<path d="M152.7,27.4c0,1.1-1.5,4.5-2.6,5.4c-0.7,0.6-1.7,0.5-2.4-0.2c-0.7-0.7-1.5-2-1-4.8c0.2-1.4,1.2-3.2,2.4-3.5
		c0.3-0.1,1.8,0,2.6-0.1C152.6,24,152.7,24.7,152.7,27.4 M115.8,26.4c-0.2-0.6-0.4-1.4-0.4-2.3c0-0.5,0.6-1.2,0.9-1.4
		c0.6-0.4,1.2-0.9,1.6-0.8c0.4,0.1,0.8,0.4,0.9,0.8c0.1,0.3,0,1.7-0.3,2.2C118,25.4,117,26.5,115.8,26.4 M139.3,30.7
		c-0.6,0.7-0.3,0.2-0.8,0.9c-0.4,0.6-2.7,2.8-4.9,3.1c-3.1,0.4-3.5-3.7-3.5-5.2c0-2,1.6-5.7,3.9-5.8c0.7,0,0.8,0.2,1,0.5
		c0.2,0.3,0.4,0.5,0.2,0.9c-1.4,2.8-0.9,4.4,0.1,4.4c0.4,0,0.5-0.2,0.8-0.4c0.3-0.2,2.8-2.1,2.8-3.8c0-1.7-1.2-5.5-3.2-6.1
		c-0.8-0.2-3,0.5-4.8,1.5c-2.9,1.8-4.8,6-4.8,6c-1.3,1.7-1.9,2.2-2.7,3c-0.9,0.9-2.4,2.9-4.2,3c-1.4,0.1-1.9-1.6-2.3-2.6
		c-0.2-0.4-0.4-1.4-0.3-1.4c0.2,0,0.6-0.1,1-0.2c0.9-0.3,6.3-3.6,6.3-7.7c0-1.5-1.4-2.6-2.3-2.6c-0.9,0-3.2,0.5-4.7,1.5
		c-2.5,1.6-4.4,3.6-5.3,4.8c-2.3,3.3-3.4,9.3-0.6,12.6c1.3,1.5,2.9,2.8,4.8,3.1c4.1,0.7,6.7-4.9,8.6-6.6c0.4,3.7,0.9,5,2.4,6
		c1.5,1,3.4,1.3,6-0.3c2.6-1.5,5.7-4.2,6.7-5.6c0,3.2,2.3,5.7,5.4,6.1c5.8,0.7,9.4-7.8,10.2-11.8c0.6-3.3-0.2-4.6,0.1-4.8
		c0.5-0.2,2.6-0.8,3.1-0.6c0.5,0.2,1.2,3.9,0.9,6c-0.5,3.5-1.8,9.5,0.5,9.7c2.3,0.2,5.8-6,7.4-6c1.9,0,2.7,5,5,5
		c2.3,0,4.7-2.6,6.1-2.6c-0.2,3.5,1.6,5.7,4.4,5.7c4.9,0,11.8-9.3,14-11.7c-0.8,4.2-0.9,10-1,11.2c-0.1,1.3,0.7,3,1.4,3
		c2.2,0,5.8-2.3,6.9-5.1c-0.1-1.6,0.8-5.4,2.4-8.7c2.2-4.6,3.6-9.5,3.5-11.2c0-2.2-1.9-10.1-4.3-10.4c-1.6-0.2-4.8,2.2-5.2,2.8
		c-0.7,1-0.7,2.3-1.1,4.2c-0.5,2.7-1,5.5-2.1,8c-0.9,2-1.6,3.8-2.7,5.3c-2.5,3.4-5.4,5-5.8,4.8c-0.6-0.4-0.5-2.5,0.2-4.3
		c0.5-1.1,1-1.7,2-2c1-0.2,2.1-0.2,2.3-0.1c0.8,0.2,1.1-1.2,1.1-2c-0.1-0.7-2-0.9-3.9-0.7c-6,0.3-7.3,2.9-8.9,5.4
		c-2.6,4-5.9,3.2-7.2,0.8c-1.3-2.3-2.3-4.9-4.1-4.1c-0.9,0.4-2.7,1.6-3.3,2.1c-0.6,0.6-1.6,1.3-1.7,1.1c-0.3-0.4,0.3-2.1,0.4-2.9
		c0.5-4,0.8-7.6-0.9-8.5c-0.8-0.4-3.9,0-5.8,1.1c-0.9,0.5-5.9,2.4-8,2.4c-0.8,0-1-1-1.8-1C143.4,19.8,139.4,27.3,139.3,30.7"/>
	<path d="M235.5,7.6c-4.1,0-18.8,8.9-19.7,18.9c-0.7,7.5,3.8,15.4,7.5,16.7c0.8,0.3,2.7,0.4,4.5-0.2c6.5-2.1,13.8-10.5,18.3-16.6
		c0.2-0.2,0.4-0.1,0.3,0.4c-0.8,4-1.1,7.1-1,8.9c0.2,2.5,2.1,3.4,2.9,3.5c2.1,0.3,5.7-5.7,7.1-8.4c0.1-0.2,0.3-0.1,0.3,0.1
		c-0.3,5.4,0.7,7.5,1.7,8.4c0.6,0.6,2.1,1.1,2.4,1c2.9-0.3,6-5.2,8.2-8.9c0.2-0.3,0.5,0.1,0.5,0.5c0,5.7,0.8,7,1.9,7.4
		c0.2,0.1,1.5,0.6,2,0.5c2.1-0.5,4.7-2.6,6.9-5.9c-0.5,6.5-5.5,20.7-6.6,26.2c-0.4,2-0.4,3.6-0.1,3.9c1.2,1.2,5.5,1.6,8.8,0.2
		c3.3-1.3,4.4-3.4,4.5-4c0.5-2.4-2.6-14.9,1.9-30.7c0.1-0.2,0.1-0.4,0.4-0.9c0.3-0.8,0.2-2-0.9-3.5c-0.6-0.9-1.7-1.2-3.1-0.9
		c-1.5,0.3-1.8,0.8-2.5,2.2c-0.7,1.5-3.4,5.6-5.3,5.5c-1.3-0.1-1.4-1-1.5-2.3c-0.1-1.7-0.5-5-0.5-5.6c0-0.6-0.2-1.5-1.7-1.5
		c-2.1,0.1-4.4,4.8-7.5,7.7c-1.3,1.3-2.1,0.9-2.5,0.8c-0.4-0.2-0.5-3.2-0.1-5.9c0.2-1.7,2-9.5,2.2-11.3c3.7,0.5,8.8,0.9,13.9,1.1
		c4.7,0.1,9.1-0.2,12.1-0.1c1.8-1.2,5.2-5.9,5.6-7.6c0.3-1.1,0-1.9-1.5-2C289.7,5,284.7,6,279.2,7.5c-4,1.2-5.1,1.3-6.6,1.6
		c-1.5,0.4-6.2,1-7.4,1.2c0.1-0.7,0.3-1.4-0.1-1.7c-0.7-0.4-2.1-0.4-3.3,0.4c-0.4,0.3-0.7,1.2-0.8,1.6c-2.9,0.4-6.2,0.1-7.9-0.3
		c-0.6-0.2-0.9-0.6-0.9-1c-0.1-0.4-0.3-2.3-0.7-2.7c-0.4-0.4-0.3-2.5-0.8-2.7c-0.5-0.2-2.6-1.4-5.2,3.1c-1.5,2.8-1.3,3.7-0.3,4.7
		c0.4,0.4,1.1,0.8,1.8,0.8c2.1,0,3.3-0.5,4.2-1c0.9-0.5,1.2-0.1,2.1,0.2c0.9,0.3,4.9,1.4,6.9,1.6c-1.1,2.9-3.4,8.9-4,11.3
		c-1.3,2.4-3.4,5.7-4.5,5.7c-0.7,0-1.2-0.8-1.3-1.3c-0.2-0.9,0.3-4.2,0.7-6.6c0.4-2.4,1.2-4.6-1-4.6c-2,0-2.1,0.2-2.8,1.1
		c-4.2,5.3-10.9,12.2-15.6,13.2c-2.7,0.6-5.3-4.4-5.3-6.8c0-3.4,1.1-7.2,4.6-9.7c0.4-0.3,0.4-0.3,0.6-0.3c0.2,0,0.8-0.1,0.9,0.3
		c0.1,0.4,0.8,2.3,1.8,2.3c1.3,0,3.5-3.3,3.5-7.6C237.8,7.8,235.7,7.6,235.5,7.6"/>
	<path d="M63.2,30.3c-0.4-0.5-0.6-2-0.7-3.1c0.2-0.6,1.6-1.4,2.5-0.7c0.9,0.6,1.2,1.8-0.1,3.2C64.4,30.3,63.8,30.5,63.2,30.3
		 M75.8,31.2c-0.1-1.3-2-0.6-2.8-0.1c-0.9,0.5-1.9,1.4-1.9,2.3c0,0.9,0.2,1.8,0.1,2.5c-0.1,0.7-0.3,1.3-1.4,1.5
		c-0.9,0.2-2.5-0.4-3.3-1.3c-1.7-2.1-1.9-2.5-2.3-3.4c1.6-1.1,4.2-2.9,4.4-5.7c0.3-3.4-4.3-2.9-7.2-1.4c-5.7,3.1-6.4,5.9-5.8,8.2
		c-1.8,2-4.2,2-6.4,1c-4.6-2.2-4.1-5.5-6.8-6c-2.8-0.6-4.9,1.8-6.1,1.8c1.3-6.4,4.4-15.1,10.2-25.7c0-0.1,0.2-0.7-0.5-0.9
		c-0.8-0.2-2.9-0.4-4.2,0.5c-1.3,0.9-2,2.5-2.6,3.5c-2.6,1-3.8,1.5-7.3,1.7c-1.8,0.1-3.9,0.2-4.5,0.2c0.1-1.2-0.2-4.1-0.3-4.8
		C27,4.5,26.5,3.8,25.2,4c-2.3,0.3-7,1.8-7.5,5c-2.6-0.1-7.2-1.5-10.4-1.3C1.2,8.1,0.2,8.3,0,10.1c-0.1,0.9,0.2,1.7,0.2,2.1
		c0,0.4,0.2,1.8,1.5,1.5c5.5-1.1,13.5-0.9,15.3-1c-0.6,5.9-2.2,19.1-3.6,24.4c-1.1,4.1-1.8,6.9,1.4,5.5c3.4-1.5,4.7-2.3,5.9-3
		c1.2-0.7,3.4-3,3.9-6.3c0.6-4.2,1.7-9.3,1.8-11c0.1-1.8,0.8-7.5,1.1-9.5c3.8,0,8.8-1.6,10.3-2.1c-6.4,12-10.3,25.2-10.1,27.6
		c0.1,1.2,0.9,1.8,2.4,1.5c1.5-0.2,3.8-1.7,5.1-3.2c1.3-1.4,2.6-1.9,4.2-1.6c1.6,0.2,2.4,0.8,2.9,1.9c1.1,2.3,3,3.2,6.2,2.7
		c4.1-0.7,5.7-2.2,7.7-3.7c2,3.9,4.3,5.6,9.6,5.6c3,0,7.1-2.3,8.7-4.4C75.4,35.7,76,32.4,75.8,31.2"/>
</g>
</svg>
