<?xml version="1.0" encoding="utf-8"?>
<!-- Generator: Adobe Illustrator 23.0.2, SVG Export Plug-In . SVG Version: 6.00 Build 0)  -->
<svg version="1.1" id="Layer_1" xmlns="http://www.w3.org/2000/svg" xmlns:xlink="http://www.w3.org/1999/xlink" x="0px" y="0px"
	 viewBox="0 0 210.7 16.6" style="enable-background:new 0 0 210.7 16.6;" xml:space="preserve">
<path d="M13.4,12.2c0.4-0.2,0.7-0.5,0.9-0.9c0.3-0.4,0.4-0.8,0.6-1.2c0.1-0.5,0.2-1,0.2-1.5c0-0.6-0.1-1.2-0.2-1.7
	c-0.2-0.5-0.4-0.9-0.7-1.3c-0.3-0.3-0.6-0.6-1.1-0.8c-0.4-0.2-0.9-0.3-1.4-0.3c-0.6,0-1,0.1-1.4,0.3c-0.4,0.2-0.7,0.4-1,0.7
	C9.1,5.7,8.9,6,8.7,6.4C8.5,6.8,8.4,7.2,8.3,7.5C8.2,7.9,8.1,8.2,8,8.4C7.9,8.7,7.8,9,7.8,9.2C7.7,9.4,7.5,9.6,7.4,9.7
	C7.2,9.9,7,10,6.8,10c-0.2,0-0.5-0.1-0.7-0.4C5.9,9.3,5.8,9,5.8,8.5C5.8,8,6,7.6,6.2,7.3c0.2-0.3,0.5-0.5,0.9-0.6L6.2,4.4
	C5.7,4.5,5.4,4.7,5.1,4.9C4.7,5.1,4.4,5.4,4.1,5.8C3.9,6.1,3.7,6.6,3.6,7C3.4,7.5,3.4,8,3.4,8.5c0,0.6,0.1,1.2,0.2,1.7
	c0.2,0.5,0.4,0.9,0.7,1.3c0.3,0.3,0.6,0.6,1.1,0.8l0,0c0.4,0.2,0.9,0.3,1.4,0.3c0.6,0,1-0.1,1.4-0.3c0.4-0.2,0.7-0.4,1-0.7
	c0.3-0.3,0.5-0.6,0.7-1c0.2-0.4,0.3-0.8,0.4-1.1c0.1-0.3,0.2-0.6,0.3-0.9c0.1-0.3,0.2-0.5,0.3-0.7c0.1-0.2,0.2-0.4,0.4-0.5
	c0.2-0.2,0.4-0.2,0.6-0.2c0.2,0,0.5,0.1,0.7,0.4c0.2,0.2,0.2,0.6,0.2,1c0,0.5-0.1,0.9-0.3,1.2c-0.2,0.3-0.5,0.5-0.9,0.6l0.9,2.3
	C12.8,12.6,13.1,12.4,13.4,12.2z"/>
<path d="M23.5,10.9h4.3v2.4h-6.7V3.4h2.4V10.9z"/>
<path d="M40.4,5.9h-4.2v1.3h4.2v2.4h-4.2v1.3h4.2v2.4h-6.6V3.4h6.6V5.9z"/>
<path d="M53.7,5.9h-4.2v1.3h4.2v2.4h-4.2v1.3h4.2v2.4h-6.6V3.4h6.6V5.9z"/>
<path d="M65.9,3.7c0.4,0.2,0.8,0.4,1.1,0.7c0.3,0.3,0.6,0.7,0.7,1.1C68,6,68,6.5,68,7c0,0.5-0.1,1-0.3,1.4c-0.2,0.4-0.4,0.8-0.7,1.1
	c-0.3,0.3-0.7,0.6-1.1,0.7c-0.4,0.2-0.9,0.3-1.4,0.3h-1.7v2.8h-2.4V3.4h4.1C65,3.4,65.5,3.5,65.9,3.7z M65.4,6.2
	c-0.2-0.2-0.5-0.3-0.9-0.3h-1.7v2.3h1.7c0.4,0,0.7-0.1,0.9-0.3c0.2-0.2,0.3-0.5,0.3-0.8S65.5,6.4,65.4,6.2z"/>
<path d="M76.2,13.3h-2.4V3.4h2.4V13.3z"/>
<path d="M91.8,13.3h-2L85,7.6v5.7h-2.4V3.4h2l4.8,5.7V3.4h2.4V13.3z"/>
<g>
	<path d="M120.7,13.2v-2.3l6.2-2.7l-6.2-2.7V3l9.2,4.1v1.9L120.7,13.2z"/>
	<path d="M120.6,13.4v-2.6l6-2.7l-6-2.7V2.8l9.5,4.2v2.1l-0.1,0L120.6,13.4z M120.9,10.9V13l9-4V7.2l-9-4v2.1l6.3,2.8L120.9,10.9z"
		/>
</g>
<path d="M138.3,13.3h-2.4V3.4h2.4V13.3z"/>
<path d="M147.1,10.9h4.3v2.4h-6.7V3.4h2.4V10.9z"/>
<path d="M159.8,10.9h4.3v2.4h-6.7V3.4h2.4V10.9z"/>
<path d="M172.5,11.9l-0.7,1.4h-2.6l4.6-9.9h2.1l4.6,9.9h-2.6l-0.7-1.4H172.5z M176,9.5l-1.2-2.6l-1.2,2.6H176z"/>
<path d="M206.7,5.9h-4.2v1.3h4.2v2.4h-4.2v1.3h4.2v2.4h-6.6V3.4h6.6V5.9z"/>
<path d="M102.2,9.9h2.2c-0.1,0.2-0.2,0.4-0.3,0.5c-0.1,0.1-0.3,0.2-0.5,0.3c-0.2,0.1-0.4,0.1-0.6,0.2c-0.2,0-0.4,0-0.5,0
	c-0.4,0-0.8-0.1-1.1-0.2c-0.3-0.1-0.6-0.3-0.8-0.5s-0.4-0.5-0.5-0.8c-0.1-0.3-0.2-0.7-0.2-1c0-0.4,0.1-0.7,0.2-1
	c0.1-0.3,0.3-0.6,0.5-0.8c0.2-0.2,0.5-0.4,0.8-0.5c0.3-0.1,0.7-0.2,1-0.2c0.5,0,0.9,0.1,1.4,0.3c0.3,0.1,0.7,0.4,1,0.7l1.4-2
	c-0.2-0.2-0.5-0.4-0.8-0.6c-0.3-0.2-0.6-0.3-0.9-0.4c-0.3-0.1-0.7-0.2-1-0.2s-0.7-0.1-1-0.1c-0.8,0-1.5,0.1-2.1,0.4s-1.2,0.6-1.6,1
	c-0.4,0.4-0.8,1-1,1.6c-0.2,0.6-0.4,1.3-0.4,2c0,0.7,0.1,1.4,0.4,2c0.2,0.6,0.6,1.1,1,1.6c0.4,0.4,1,0.8,1.6,1
	c0.6,0.2,1.3,0.4,2.1,0.4c0.6,0,1.2-0.1,1.7-0.3c0.6-0.2,1.1-0.5,1.5-0.9c0.4-0.4,0.8-0.9,1.1-1.5c0.3-0.6,0.4-1.3,0.4-2.2v-1h-5
	V9.9z"/>
<path d="M189.6,10h2.2c-0.1,0.2-0.2,0.4-0.3,0.5c-0.1,0.1-0.3,0.2-0.5,0.3c-0.2,0.1-0.4,0.1-0.6,0.2c-0.2,0-0.4,0-0.5,0
	c-0.4,0-0.8-0.1-1.1-0.2c-0.3-0.1-0.6-0.3-0.8-0.5c-0.2-0.2-0.4-0.5-0.5-0.8c-0.1-0.3-0.2-0.7-0.2-1c0-0.4,0.1-0.7,0.2-1
	c0.1-0.3,0.3-0.6,0.5-0.8c0.2-0.2,0.5-0.4,0.8-0.5c0.3-0.1,0.7-0.2,1-0.2c0.5,0,0.9,0.1,1.4,0.3c0.3,0.1,0.7,0.4,1,0.7l1.4-2
	c-0.2-0.2-0.5-0.4-0.8-0.6c-0.3-0.2-0.6-0.3-0.9-0.4c-0.3-0.1-0.7-0.2-1-0.2s-0.7-0.1-1-0.1c-0.8,0-1.5,0.1-2.1,0.4
	c-0.6,0.2-1.2,0.6-1.6,1c-0.4,0.4-0.8,1-1,1.6c-0.2,0.6-0.4,1.3-0.4,2c0,0.7,0.1,1.4,0.4,2c0.2,0.6,0.6,1.1,1,1.6
	c0.4,0.4,1,0.8,1.6,1c0.6,0.2,1.3,0.4,2.1,0.4c0.6,0,1.2-0.1,1.7-0.3c0.6-0.2,1.1-0.5,1.5-0.9c0.4-0.4,0.8-0.9,1.1-1.5
	c0.3-0.6,0.4-1.3,0.4-2.2v-1h-5V10z"/>
</svg>
