<?xml version="1.0" encoding="utf-8"?>
<!-- Generator: Adobe Illustrator 21.0.2, SVG Export Plug-In . SVG Version: 6.00 Build 0)  -->
<svg version="1.1" id="Layer_4" xmlns="http://www.w3.org/2000/svg" xmlns:xlink="http://www.w3.org/1999/xlink" x="0px" y="0px"
	 viewBox="0 0 771.4 192.6" style="enable-background:new 0 0 771.4 192.6;" xml:space="preserve">
<style type="text/css">
	.st0{display:none;clip-path:url(#SVGID_2_);}
	.st1{display:inline;fill:#DD0E18;}
	.st2{display:inline;fill:#EC1339;}
	.st3{display:inline;opacity:0.6;fill:url(#SVGID_3_);enable-background:new    ;}
	.st4{display:inline;fill:#ED1120;}
	.st5{display:inline;opacity:0.6;fill:url(#SVGID_4_);enable-background:new    ;}
	.st6{display:inline;fill:url(#SVGID_5_);}
	.st7{display:inline;opacity:0.6;fill:url(#SVGID_6_);enable-background:new    ;}
	.st8{display:inline;}
	.st9{opacity:0.2;fill:url(#SVGID_7_);enable-background:new    ;}
	.st10{opacity:0.2;fill:url(#SVGID_8_);enable-background:new    ;}
	.st11{opacity:0.15;fill:url(#SVGID_9_);enable-background:new    ;}
	.st12{opacity:0.15;fill:url(#SVGID_10_);enable-background:new    ;}
	.st13{opacity:0.1;fill:url(#SVGID_11_);enable-background:new    ;}
	.st14{opacity:0.1;fill:url(#SVGID_12_);enable-background:new    ;}
	.st15{fill:url(#SVGID_13_);}
	.st16{fill:url(#SVGID_14_);}
	.st17{display:inline;fill:url(#SVGID_15_);}
	.st18{display:inline;fill:url(#SVGID_16_);}
	.st19{display:inline;opacity:0.7;fill:url(#SVGID_17_);enable-background:new    ;}
	.st20{fill:#CD0814;}
	.st21{fill:url(#SVGID_18_);}
	.st22{fill:url(#SVGID_19_);}
	.st23{display:inline;opacity:0.7;fill:#E90F18;enable-background:new    ;}
	.st24{display:inline;opacity:0.7;fill:url(#SVGID_20_);enable-background:new    ;}
	.st25{display:inline;opacity:0.5;fill:url(#SVGID_21_);enable-background:new    ;}
	.st26{opacity:0.7;fill:url(#SVGID_22_);enable-background:new    ;}
	.st27{opacity:0.7;fill:url(#SVGID_23_);enable-background:new    ;}
	.st28{opacity:0.3;fill:url(#SVGID_24_);enable-background:new    ;}
	.st29{opacity:0.3;fill:url(#SVGID_25_);enable-background:new    ;}
	.st30{display:inline;opacity:0.4;fill:#E62B19;enable-background:new    ;}
	.st31{fill:#E71118;}
	.st32{opacity:0.7;fill:url(#SVGID_26_);enable-background:new    ;}
	.st33{opacity:0.7;fill:url(#SVGID_27_);enable-background:new    ;}
	.st34{opacity:0.2;fill:url(#SVGID_28_);enable-background:new    ;}
	.st35{opacity:0.2;fill:url(#SVGID_29_);enable-background:new    ;}
	.st36{opacity:0.8;fill:url(#SVGID_30_);enable-background:new    ;}
	.st37{opacity:0.8;fill:url(#SVGID_31_);enable-background:new    ;}
	.st38{opacity:0.8;fill:url(#SVGID_32_);enable-background:new    ;}
	.st39{fill:url(#SVGID_33_);}
	.st40{fill:url(#SVGID_34_);}
	.st41{fill:url(#SVGID_35_);}
	.st42{fill:#E60E23;}
	.st43{opacity:0.8;fill:url(#SVGID_36_);enable-background:new    ;}
	.st44{opacity:0.8;fill:url(#SVGID_37_);enable-background:new    ;}
	.st45{fill:url(#SVGID_38_);}
	.st46{fill:url(#SVGID_39_);}
	.st47{fill:url(#SVGID_40_);}
	.st48{fill:url(#SVGID_41_);}
	.st49{opacity:0.2;fill:#BD081E;enable-background:new    ;}
	.st50{fill:url(#SVGID_42_);}
	.st51{fill:url(#SVGID_43_);}
	.st52{display:none;opacity:0.9;fill:url(#SVGID_44_);enable-background:new    ;}
	.st53{opacity:0.6;fill:url(#SVGID_45_);enable-background:new    ;}
	.st54{fill:#B1072C;}
	.st55{opacity:0.2;fill:url(#SVGID_46_);enable-background:new    ;}
	.st56{fill:url(#SVGID_47_);}
	.st57{fill:url(#SVGID_48_);}
	.st58{fill:url(#SVGID_49_);}
	.st59{opacity:0.4;fill:url(#SVGID_50_);enable-background:new    ;}
	.st60{opacity:0.8;fill:url(#SVGID_51_);enable-background:new    ;}
	.st61{opacity:0.5;fill:url(#SVGID_52_);enable-background:new    ;}
	.st62{opacity:0.5;fill:url(#SVGID_53_);enable-background:new    ;}
	.st63{display:inline;opacity:0.4;fill:url(#SVGID_54_);enable-background:new    ;}
	.st64{opacity:0.3;fill:url(#SVGID_55_);enable-background:new    ;}
	.st65{opacity:0.3;fill:url(#SVGID_56_);enable-background:new    ;}
	.st66{display:inline;fill:#980411;}
	.st67{display:inline;fill:url(#SVGID_57_);}
	.st68{display:inline;fill:url(#SVGID_58_);}
	.st69{display:inline;opacity:0.4;fill:url(#SVGID_59_);enable-background:new    ;}
	.st70{display:inline;fill:url(#SVGID_60_);}
	.st71{display:inline;opacity:0.8;fill:url(#SVGID_61_);enable-background:new    ;}
	.st72{display:inline;fill:#C4081F;}
	.st73{display:inline;opacity:0.2;fill:url(#SVGID_62_);enable-background:new    ;}
	.st74{display:inline;fill:url(#SVGID_63_);}
	.st75{display:inline;fill:url(#SVGID_64_);}
	.st76{display:inline;opacity:0.3;fill:url(#SVGID_65_);enable-background:new    ;}
	.st77{display:inline;opacity:0.4;}
	.st78{opacity:0.8;fill:#DD0E18;enable-background:new    ;}
	.st79{display:inline;fill:#BD081E;}
	.st80{display:inline;opacity:0.6;fill:url(#SVGID_66_);enable-background:new    ;}
	.st81{display:inline;opacity:0.5;fill:#E01030;enable-background:new    ;}
	.st82{display:inline;opacity:0.3;fill:url(#SVGID_67_);enable-background:new    ;}
	.st83{display:inline;fill:url(#SVGID_68_);}
	.st84{display:inline;opacity:0.5;fill:url(#SVGID_69_);enable-background:new    ;}
</style>
<g>
	<g>
		<defs>
			<path id="SVGID_1_" d="M83.3,57.8c-1-6.3-2.5-18.1-17-18.1C58,39.7,50,45.5,50,54.2c0,11,5,13.3,38.4,28.3
				c34.6,15.5,43.4,31.6,43.4,53.2c0,27.1-15.5,56.9-64.7,56.9c-53.7,0-66.9-35.1-66.9-58.9v-6h47.1c0,21.6,13.3,25.3,19.3,25.3
				c11.3,0,18.1-9.3,18.1-17.8c0-12.3-7.8-15.3-36.4-27.3c-13-5.3-45.4-18.3-45.4-53.2S36.8,0,67.8,0c18.3,0,38.1,6.8,50.2,21.1
				c11,13.5,11.8,26.1,12.3,36.6h-47V57.8z M200.9,45.2h-36.6V3.6h120.3v41.6h-36.4v143.9h-47.4L200.9,45.2L200.9,45.2z M525.9,45.2
				h-36.6V3.6h120.3v41.6h-36.4v143.9h-47.4V45.2H525.9z M723,57.8c-1-6.3-2.5-18.1-17.1-18.1c-8.3,0-16.3,5.8-16.3,14.5
				c0,11,5,13.3,38.4,28.3c34.6,15.5,43.4,31.6,43.4,53.2c0,27.1-15.5,56.9-64.7,56.9c-53.7,0-66.9-35.1-66.9-58.9v-6h47.1
				c0,21.6,13.3,25.3,19.3,25.3c11.3,0,18.1-9.3,18.1-17.8c0-12.3-7.8-15.3-36.4-27.3c-13-5.3-45.4-18.3-45.4-53.2S676.3,0,707.4,0
				c18.3,0,38.1,6.8,50.1,21.1c11,13.5,11.8,26.1,12.3,36.6H723V57.8z M428.9,189.1h50.7L408.9,3.5h-44.3l-70.7,185.6h50.7
				l42.2-122.8l20,58.4h-27.9L366,162.3h53.7L428.9,189.1z"/>
		</defs>
		<use xlink:href="#SVGID_1_"  style="overflow:visible;"/>
		<clipPath id="SVGID_2_">
			<use xlink:href="#SVGID_1_"  style="overflow:visible;"/>
		</clipPath>
		<g class="st0">
			<path class="st1" d="M83.3,57.8c-1-6.3-2.5-18.1-17-18.1C58,39.7,50,45.5,50,54.2c0,11,5,13.3,38.4,28.3
				c34.6,15.5,43.4,31.6,43.4,53.2c0,27.1-15.5,56.9-64.7,56.9c-53.7,0-66.9-35.1-66.9-58.9v-6h47.1c0,21.6,13.3,25.3,19.3,25.3
				c11.3,0,18.1-9.3,18.1-17.8c0-12.3-7.8-15.3-36.4-27.3c-13-5.3-45.4-18.3-45.4-53.2S36.8,0,67.8,0c18.3,0,38.1,6.8,50.2,21.1
				c11,13.5,11.8,26.1,12.3,36.6h-47V57.8z M200.9,45.2h-36.6V3.6h120.3v41.6h-36.4v143.9h-47.4L200.9,45.2L200.9,45.2z M525.9,45.2
				h-36.6V3.6h120.3v41.6h-36.4v143.9h-47.4V45.2H525.9z M723,57.8c-1-6.3-2.5-18.1-17.1-18.1c-8.3,0-16.3,5.8-16.3,14.5
				c0,11,5,13.3,38.4,28.3c34.6,15.5,43.4,31.6,43.4,53.2c0,27.1-15.5,56.9-64.7,56.9c-53.7,0-66.9-35.1-66.9-58.9v-6h47.1
				c0,21.6,13.3,25.3,19.3,25.3c11.3,0,18.1-9.3,18.1-17.8c0-12.3-7.8-15.3-36.4-27.3c-13-5.3-45.4-18.3-45.4-53.2S676.3,0,707.4,0
				c18.3,0,38.1,6.8,50.1,21.1c11,13.5,11.8,26.1,12.3,36.6H723V57.8z M428.9,189.1h50.7L408.9,3.5h-44.3l-70.7,185.6h50.7
				l42.2-122.8l20,58.4h-27.9L366,162.3h53.7L428.9,189.1z"/>
			<polygon class="st2" points="164.3,3.6 164.3,45.2 184.7,45.2 224.8,3.6 			"/>
			
				<linearGradient id="SVGID_3_" gradientUnits="userSpaceOnUse" x1="154.9943" y1="246.3381" x2="204.9939" y2="149.3389" gradientTransform="matrix(1 0 0 -1 0 194.0001)">
				<stop  offset="0" style="stop-color:#FFCD00"/>
				<stop  offset="1.239491e-02" style="stop-color:#FEC502"/>
				<stop  offset="8.688248e-02" style="stop-color:#FA9C0F"/>
				<stop  offset="0.1678" style="stop-color:#F6771A"/>
				<stop  offset="0.2545" style="stop-color:#F35824"/>
				<stop  offset="0.3486" style="stop-color:#F03E2C"/>
				<stop  offset="0.453" style="stop-color:#EE2B32"/>
				<stop  offset="0.5734" style="stop-color:#ED1D36"/>
				<stop  offset="0.7241" style="stop-color:#EC1538"/>
				<stop  offset="1" style="stop-color:#EC1339"/>
			</linearGradient>
			<polygon class="st3" points="164.3,3.6 164.3,45.2 184.7,45.2 224.8,3.6 			"/>
			<polygon class="st4" points="248.3,45.2 284.6,45.2 284.6,3.6 224.8,3.6 184.7,45.2 200.9,45.2 200.9,142.5 248.3,93.3 			"/>
			
				<linearGradient id="SVGID_4_" gradientUnits="userSpaceOnUse" x1="177.2529" y1="225.993" x2="249.5863" y2="116.3256" gradientTransform="matrix(1 0 0 -1 0 194.0001)">
				<stop  offset="0" style="stop-color:#FFCD00"/>
				<stop  offset="7.375073e-02" style="stop-color:#FDA50F"/>
				<stop  offset="0.1543" style="stop-color:#FB811D"/>
				<stop  offset="0.2424" style="stop-color:#FA6229"/>
				<stop  offset="0.3379" style="stop-color:#F84832"/>
				<stop  offset="0.4441" style="stop-color:#F7353A"/>
				<stop  offset="0.5664" style="stop-color:#F7273F"/>
				<stop  offset="0.7195" style="stop-color:#F61F42"/>
				<stop  offset="1" style="stop-color:#F61D43"/>
			</linearGradient>
			<polygon class="st5" points="270,45.2 283.4,31.3 254.6,3.6 164.3,3.6 164.3,45.2 200.9,45.2 200.9,101.5 208.6,109 248.3,67.8 
				248.3,45.2 			"/>
			
				<linearGradient id="SVGID_5_" gradientUnits="userSpaceOnUse" x1="199.7" y1="152.0417" x2="307.7005" y2="74.0412" gradientTransform="matrix(1 0 0 -1 0 194.0001)">
				<stop  offset="0" style="stop-color:#ED1120;stop-opacity:0"/>
				<stop  offset="1" style="stop-color:#ED1120"/>
			</linearGradient>
			<polygon class="st6" points="248.3,45.2 284.6,45.2 284.6,3.6 224.8,3.6 184.7,45.2 200.9,45.2 200.9,142.5 248.3,93.3 			"/>
			
				<linearGradient id="SVGID_6_" gradientUnits="userSpaceOnUse" x1="220.1176" y1="191.1565" x2="244.6178" y2="115.1562" gradientTransform="matrix(1 0 0 -1 0 194.0001)">
				<stop  offset="0" style="stop-color:#FFCD00"/>
				<stop  offset="4.278058e-02" style="stop-color:#FABB02"/>
				<stop  offset="0.1665" style="stop-color:#EE8C07"/>
				<stop  offset="0.2943" style="stop-color:#E4630B"/>
				<stop  offset="0.4244" style="stop-color:#DC420E"/>
				<stop  offset="0.5574" style="stop-color:#D52911"/>
				<stop  offset="0.6946" style="stop-color:#D11613"/>
				<stop  offset="0.8385" style="stop-color:#CE0C14"/>
				<stop  offset="1" style="stop-color:#CD0814"/>
			</linearGradient>
			<polygon class="st7" points="248.3,45.2 284.6,45.2 284.6,3.6 224.8,3.6 184.7,45.2 200.9,45.2 200.9,142.5 248.3,93.3 			"/>
			<g class="st8">
				
					<linearGradient id="SVGID_7_" gradientUnits="userSpaceOnUse" x1="315.5299" y1="199.9526" x2="204.1967" y2="85.2859" gradientTransform="matrix(1 0 0 -1 0 194.0001)">
					<stop  offset="0" style="stop-color:#980411"/>
					<stop  offset="5.590320e-02" style="stop-color:#980411;stop-opacity:0.9441"/>
					<stop  offset="1" style="stop-color:#980411;stop-opacity:0"/>
				</linearGradient>
				<polygon class="st9" points="200.9,97.8 200.9,126.8 248.3,77.6 248.3,48.6 				"/>
				
					<linearGradient id="SVGID_8_" gradientUnits="userSpaceOnUse" x1="315.2899" y1="200.1852" x2="203.9569" y2="85.5186" gradientTransform="matrix(1 0 0 -1 0 194.0001)">
					<stop  offset="0" style="stop-color:#980411"/>
					<stop  offset="5.590320e-02" style="stop-color:#980411;stop-opacity:0.9441"/>
					<stop  offset="1" style="stop-color:#980411;stop-opacity:0"/>
				</linearGradient>
				<polygon class="st10" points="279.5,45.2 284.6,39.9 284.6,10.9 251.6,45.2 				"/>
			</g>
			<g class="st8">
				
					<linearGradient id="SVGID_9_" gradientUnits="userSpaceOnUse" x1="225.3756" y1="104.9114" x2="300.0428" y2="186.2446" gradientTransform="matrix(1 0 0 -1 0 194.0001)">
					<stop  offset="0" style="stop-color:#980411"/>
					<stop  offset="5.590320e-02" style="stop-color:#980411;stop-opacity:0.9441"/>
					<stop  offset="1" style="stop-color:#980411;stop-opacity:0"/>
				</linearGradient>
				<polygon class="st11" points="279.5,45.2 284.6,39.9 284.6,10.9 251.6,45.2 				"/>
				
					<linearGradient id="SVGID_10_" gradientUnits="userSpaceOnUse" x1="224.2633" y1="105.9332" x2="298.9305" y2="187.2663" gradientTransform="matrix(1 0 0 -1 0 194.0001)">
					<stop  offset="0" style="stop-color:#980411"/>
					<stop  offset="5.590320e-02" style="stop-color:#980411;stop-opacity:0.9441"/>
					<stop  offset="1" style="stop-color:#980411;stop-opacity:0"/>
				</linearGradient>
				<polygon class="st12" points="200.9,97.8 200.9,126.8 248.3,77.6 248.3,48.6 				"/>
			</g>
			<g class="st8">
				
					<linearGradient id="SVGID_11_" gradientUnits="userSpaceOnUse" x1="202.0429" y1="64.9831" x2="254.546" y2="119.9863" gradientTransform="matrix(1 0 0 -1 0 194.0001)">
					<stop  offset="0" style="stop-color:#980411"/>
					<stop  offset="5.590320e-02" style="stop-color:#980411;stop-opacity:0.9441"/>
					<stop  offset="1" style="stop-color:#980411;stop-opacity:0"/>
				</linearGradient>
				<polygon class="st13" points="284.6,45.2 284.6,39.9 279.5,45.2 				"/>
				
					<linearGradient id="SVGID_12_" gradientUnits="userSpaceOnUse" x1="204.3771" y1="62.7641" x2="256.8773" y2="117.7643" gradientTransform="matrix(1 0 0 -1 0 194.0001)">
					<stop  offset="0" style="stop-color:#980411"/>
					<stop  offset="5.590320e-02" style="stop-color:#980411;stop-opacity:0.9441"/>
					<stop  offset="1" style="stop-color:#980411;stop-opacity:0"/>
				</linearGradient>
				<polygon class="st14" points="248.3,77.6 200.9,126.8 200.9,142.5 248.3,93.3 				"/>
			</g>
			<g class="st8">
				
					<linearGradient id="SVGID_13_" gradientUnits="userSpaceOnUse" x1="177.1752" y1="52.8" x2="410.9278" y2="52.8" gradientTransform="matrix(1 0 0 -1 0 194.0001)">
					<stop  offset="0" style="stop-color:#CD0814"/>
					<stop  offset="5.590320e-02" style="stop-color:#CD0814"/>
					<stop  offset="1" style="stop-color:#CD0814"/>
				</linearGradient>
				<polygon class="st15" points="200.9,142.5 200.9,189.1 232.3,189.1 248.3,172.6 248.3,93.3 				"/>
				
					<linearGradient id="SVGID_14_" gradientUnits="userSpaceOnUse" x1="177.1752" y1="150.5" x2="410.9282" y2="150.5" gradientTransform="matrix(1 0 0 -1 0 194.0001)">
					<stop  offset="0" style="stop-color:#CD0814"/>
					<stop  offset="5.590320e-02" style="stop-color:#CD0814"/>
					<stop  offset="1" style="stop-color:#CD0814"/>
				</linearGradient>
				<polygon class="st16" points="408.9,3.5 364.6,3.5 334.1,83.5 409.5,5.2 				"/>
			</g>
			
				<linearGradient id="SVGID_15_" gradientUnits="userSpaceOnUse" x1="362.6321" y1="160.2231" x2="388.6321" y2="191.5566" gradientTransform="matrix(1 0 0 -1 0 194.0001)">
				<stop  offset="0" style="stop-color:#DD0E18"/>
				<stop  offset="1" style="stop-color:#E62B19"/>
			</linearGradient>
			<polygon class="st17" points="408.9,3.5 364.6,3.5 334.1,83.5 409.5,5.2 			"/>
			
				<linearGradient id="SVGID_16_" gradientUnits="userSpaceOnUse" x1="212.6477" y1="18.2524" x2="286.6474" y2="130.9187" gradientTransform="matrix(1 0 0 -1 0 194.0001)">
				<stop  offset="0" style="stop-color:#980411"/>
				<stop  offset="5.590320e-02" style="stop-color:#980411;stop-opacity:0.9441"/>
				<stop  offset="1" style="stop-color:#980411;stop-opacity:0"/>
			</linearGradient>
			<polygon class="st18" points="248.3,93.3 200.9,142.5 200.9,189.1 232.3,189.1 248.3,172.6 			"/>
			
				<linearGradient id="SVGID_17_" gradientUnits="userSpaceOnUse" x1="289.0163" y1="124.6503" x2="202.3493" y2="5.9838" gradientTransform="matrix(1 0 0 -1 0 194.0001)">
				<stop  offset="0" style="stop-color:#ED1120"/>
				<stop  offset="1" style="stop-color:#ED1120;stop-opacity:0"/>
			</linearGradient>
			<polygon class="st19" points="248.3,93.3 200.9,142.5 200.9,189.1 232.3,189.1 248.3,172.6 			"/>
			<g class="st8">
				<polygon class="st20" points="248.3,172.6 232.3,189.1 248.3,189.1 				"/>
				<polygon class="st20" points="409.5,5.2 334.1,83.5 293.9,189.1 298.7,189.1 369.9,115.2 386.7,66.3 394.7,89.5 428.3,54.6 				
					"/>
			</g>
			<g class="st8">
				
					<linearGradient id="SVGID_18_" gradientUnits="userSpaceOnUse" x1="249.0882" y1="23.1678" x2="308.42" y2="146.4984" gradientTransform="matrix(1 0 0 -1 0 194.0001)">
					<stop  offset="0" style="stop-color:#900419"/>
					<stop  offset="0.2953" style="stop-color:#A60517"/>
					<stop  offset="0.7418" style="stop-color:#C20715"/>
					<stop  offset="1" style="stop-color:#CD0814"/>
				</linearGradient>
				<polygon class="st21" points="248.3,172.6 232.3,189.1 248.3,189.1 				"/>
				
					<linearGradient id="SVGID_19_" gradientUnits="userSpaceOnUse" x1="316.6082" y1="-9.3144" x2="375.9411" y2="114.0185" gradientTransform="matrix(1 0 0 -1 0 194.0001)">
					<stop  offset="0" style="stop-color:#900419"/>
					<stop  offset="0.2953" style="stop-color:#A60517"/>
					<stop  offset="0.7418" style="stop-color:#C20715"/>
					<stop  offset="1" style="stop-color:#CD0814"/>
				</linearGradient>
				<polygon class="st22" points="409.5,5.2 334.1,83.5 293.9,189.1 298.7,189.1 369.9,115.2 386.7,66.3 394.7,89.5 428.3,54.6 				
					"/>
			</g>
			<polygon class="st23" points="409.5,5.2 334.1,83.5 293.9,189.1 298.7,189.1 369.9,115.2 386.7,66.3 394.7,89.5 428.3,54.6 			
				"/>
			
				<linearGradient id="SVGID_20_" gradientUnits="userSpaceOnUse" x1="290.1132" y1="10.7708" x2="337.4462" y2="70.1037" gradientTransform="matrix(1 0 0 -1 0 194.0001)">
				<stop  offset="0" style="stop-color:#900419"/>
				<stop  offset="1" style="stop-color:#900419;stop-opacity:0"/>
			</linearGradient>
			<polygon class="st24" points="409.5,5.2 334.1,83.5 293.9,189.1 298.7,189.1 369.9,115.2 386.7,66.3 394.7,89.5 428.3,54.6 			
				"/>
			
				<linearGradient id="SVGID_21_" gradientUnits="userSpaceOnUse" x1="82.0915" y1="-166.6165" x2="108.7586" y2="-193.2831" gradientTransform="matrix(0.9231 7.990000e-02 -7.990000e-02 -0.9171 255.0008 -69.7753)">
				<stop  offset="5.102040e-03" style="stop-color:#900419;stop-opacity:0"/>
				<stop  offset="1" style="stop-color:#900419"/>
			</linearGradient>
			<polygon class="st25" points="409.5,5.2 334.1,83.5 293.9,189.1 298.7,189.1 369.9,115.2 386.7,66.3 394.7,89.5 428.3,54.6 			
				"/>
			<g class="st8">
				
					<linearGradient id="SVGID_22_" gradientUnits="userSpaceOnUse" x1="220.4837" y1="89.7672" x2="200.5793" y2="166.725" gradientTransform="matrix(1 0 0 -1 0 194.0001)">
					<stop  offset="0" style="stop-color:#FFCD00;stop-opacity:0"/>
					<stop  offset="1" style="stop-color:#FFCD00"/>
				</linearGradient>
				<polygon class="st26" points="248.3,172.6 232.3,189.1 248.3,189.1 				"/>
				
					<linearGradient id="SVGID_23_" gradientUnits="userSpaceOnUse" x1="348.0117" y1="122.7543" x2="328.1066" y2="199.715" gradientTransform="matrix(1 0 0 -1 0 194.0001)">
					<stop  offset="0" style="stop-color:#FFCD00;stop-opacity:0"/>
					<stop  offset="1" style="stop-color:#FFCD00"/>
				</linearGradient>
				<polygon class="st27" points="409.5,5.2 334.1,83.5 293.9,189.1 298.7,189.1 369.9,115.2 386.7,66.3 394.7,89.5 428.3,54.6 				
					"/>
			</g>
			<g class="st8">
				
					<linearGradient id="SVGID_24_" gradientUnits="userSpaceOnUse" x1="209.8561" y1="69.0556" x2="275.1897" y2="135.0562" gradientTransform="matrix(1 0 0 -1 0 194.0001)">
					<stop  offset="0" style="stop-color:#ED1120"/>
					<stop  offset="1" style="stop-color:#ED1120;stop-opacity:0"/>
				</linearGradient>
				<polygon class="st28" points="248.3,77.6 200.9,126.8 200.9,142.5 248.3,93.3 				"/>
				
					<linearGradient id="SVGID_25_" gradientUnits="userSpaceOnUse" x1="206.4095" y1="72.4613" x2="271.7453" y2="138.4641" gradientTransform="matrix(1 0 0 -1 0 194.0001)">
					<stop  offset="0" style="stop-color:#ED1120"/>
					<stop  offset="1" style="stop-color:#ED1120;stop-opacity:0"/>
				</linearGradient>
				<polygon class="st29" points="284.6,45.2 284.6,39.9 279.5,45.2 				"/>
			</g>
			<polygon class="st30" points="232.3,189.1 248.3,189.1 248.3,175.2 248.3,172.6 			"/>
			<g class="st8">
				<polygon class="st31" points="489.3,3.6 489.3,41.6 525.9,3.6 				"/>
				<polygon class="st31" points="394.7,89.5 406.8,124.7 378.9,124.7 366,162.3 373,162.3 442,90.6 428.3,54.6 				"/>
				<polygon class="st31" points="369.9,115.2 298.7,189.1 344.6,189.1 				"/>
			</g>
			<g class="st8">
				
					<radialGradient id="SVGID_26_" cx="249.5662" cy="139.349" r="107.9997" gradientTransform="matrix(1 0 0 -1 0 194.0001)" gradientUnits="userSpaceOnUse">
					<stop  offset="0" style="stop-color:#EA2D1D"/>
					<stop  offset="1" style="stop-color:#EA2D1D;stop-opacity:0"/>
				</radialGradient>
				<path class="st32" d="M284.6,45.2V3.6H164.3v41.6h36.6v105.9c14.3,7.2,30.4,11.4,47.4,11.6V45.2H284.6z"/>
				
					<radialGradient id="SVGID_27_" cx="249.5674" cy="139.349" r="107.9994" gradientTransform="matrix(1 0 0 -1 0 194.0001)" gradientUnits="userSpaceOnUse">
					<stop  offset="0" style="stop-color:#EA2D1D"/>
					<stop  offset="1" style="stop-color:#EA2D1D;stop-opacity:0"/>
				</radialGradient>
				<path class="st33" d="M357.6,54.7c0-8.6-1-17-2.9-25l-43.3,113.6C339.3,123.7,357.6,91.3,357.6,54.7z"/>
			</g>
			<g class="st8">
				
					<radialGradient id="SVGID_28_" cx="392.8998" cy="124.6821" r="108.0003" gradientTransform="matrix(1 0 0 -1 0 194.0001)" gradientUnits="userSpaceOnUse">
					<stop  offset="0" style="stop-color:#EA2D1D"/>
					<stop  offset="1" style="stop-color:#EA2D1D;stop-opacity:0"/>
				</radialGradient>
				<path class="st34" d="M489.3,45.2h8.9c-2-8.7-5-16.9-8.9-24.7V45.2z"/>
				
					<radialGradient id="SVGID_29_" cx="392.8997" cy="124.6823" r="108.0003" gradientTransform="matrix(1 0 0 -1 0 194.0001)" gradientUnits="userSpaceOnUse">
					<stop  offset="0" style="stop-color:#EA2D1D"/>
					<stop  offset="1" style="stop-color:#EA2D1D;stop-opacity:0"/>
				</radialGradient>
				<path class="st35" d="M364.6,3.5L312.2,141c10.7,12.1,24.1,21.7,39.3,28l35.3-102.8l20,58.4h-27.9L366,162.2h53.7l3.7,10.6
					c15.5-4.5,29.6-12.5,41.4-23L409,3.3h-44.4V3.5z"/>
			</g>
			<g class="st8">
				
					<linearGradient id="SVGID_30_" gradientUnits="userSpaceOnUse" x1="515.9019" y1="163.2676" x2="461.2784" y2="216.7759" gradientTransform="matrix(1 0 0 -1 0 194.0001)">
					<stop  offset="0" style="stop-color:#900419"/>
					<stop  offset="5.590320e-02" style="stop-color:#900419;stop-opacity:0.9441"/>
					<stop  offset="1" style="stop-color:#900419;stop-opacity:0"/>
				</linearGradient>
				<polygon class="st36" points="489.3,3.6 489.3,41.6 525.9,3.6 				"/>
				
					<linearGradient id="SVGID_31_" gradientUnits="userSpaceOnUse" x1="366.277" y1="10.5258" x2="311.655" y2="64.0327" gradientTransform="matrix(1 0 0 -1 0 194.0001)">
					<stop  offset="0" style="stop-color:#900419"/>
					<stop  offset="5.590320e-02" style="stop-color:#900419;stop-opacity:0.9441"/>
					<stop  offset="1" style="stop-color:#900419;stop-opacity:0"/>
				</linearGradient>
				<polygon class="st37" points="369.9,115.2 298.7,189.1 344.6,189.1 				"/>
				
					<linearGradient id="SVGID_32_" gradientUnits="userSpaceOnUse" x1="418.9003" y1="64.2438" x2="364.2758" y2="117.7531" gradientTransform="matrix(1 0 0 -1 0 194.0001)">
					<stop  offset="0" style="stop-color:#900419"/>
					<stop  offset="5.590320e-02" style="stop-color:#900419;stop-opacity:0.9441"/>
					<stop  offset="1" style="stop-color:#900419;stop-opacity:0"/>
				</linearGradient>
				<polygon class="st38" points="394.7,89.5 406.8,124.7 378.9,124.7 366,162.3 373,162.3 442,90.6 428.3,54.6 				"/>
			</g>
			<g class="st8">
				
					<linearGradient id="SVGID_33_" gradientUnits="userSpaceOnUse" x1="316.7203" y1="-43.1479" x2="430.0528" y2="95.5183" gradientTransform="matrix(1 0 0 -1 0 194.0001)">
					<stop  offset="0" style="stop-color:#900419"/>
					<stop  offset="5.590320e-02" style="stop-color:#900419;stop-opacity:0.9441"/>
					<stop  offset="1" style="stop-color:#900419;stop-opacity:0"/>
				</linearGradient>
				<polygon class="st39" points="489.3,3.6 489.3,41.6 525.9,3.6 				"/>
				
					<linearGradient id="SVGID_34_" gradientUnits="userSpaceOnUse" x1="305.5713" y1="-34.0386" x2="418.9048" y2="104.6289" gradientTransform="matrix(1 0 0 -1 0 194.0001)">
					<stop  offset="0" style="stop-color:#900419"/>
					<stop  offset="5.590320e-02" style="stop-color:#900419;stop-opacity:0.9441"/>
					<stop  offset="1" style="stop-color:#900419;stop-opacity:0"/>
				</linearGradient>
				<polygon class="st40" points="394.7,89.5 406.8,124.7 378.9,124.7 366,162.3 373,162.3 442,90.6 428.3,54.6 				"/>
				
					<linearGradient id="SVGID_35_" gradientUnits="userSpaceOnUse" x1="296.132" y1="-26.3222" x2="409.4648" y2="112.3445" gradientTransform="matrix(1 0 0 -1 0 194.0001)">
					<stop  offset="0" style="stop-color:#900419"/>
					<stop  offset="5.590320e-02" style="stop-color:#900419;stop-opacity:0.9441"/>
					<stop  offset="1" style="stop-color:#900419;stop-opacity:0"/>
				</linearGradient>
				<polygon class="st41" points="369.9,115.2 298.7,189.1 344.6,189.1 				"/>
			</g>
			<g class="st8">
				<polygon class="st42" points="525.9,3.6 489.3,41.6 489.3,45.2 525.9,45.2 525.9,49.4 570.1,3.6 				"/>
				<polygon class="st42" points="373,162.3 417.2,162.3 454.6,123.5 442,90.6 				"/>
			</g>
			<g class="st8">
				
					<linearGradient id="SVGID_36_" gradientUnits="userSpaceOnUse" x1="551.9251" y1="146.3492" x2="509.2104" y2="191.0353" gradientTransform="matrix(1 0 0 -1 0 194.0001)">
					<stop  offset="0" style="stop-color:#900419"/>
					<stop  offset="1" style="stop-color:#900419;stop-opacity:0"/>
				</linearGradient>
				<polygon class="st43" points="525.9,3.6 489.3,41.6 489.3,45.2 525.9,45.2 525.9,49.4 570.1,3.6 				"/>
				
					<linearGradient id="SVGID_37_" gradientUnits="userSpaceOnUse" x1="437.0969" y1="36.587" x2="394.3818" y2="81.2738" gradientTransform="matrix(1 0 0 -1 0 194.0001)">
					<stop  offset="0" style="stop-color:#900419"/>
					<stop  offset="1" style="stop-color:#900419;stop-opacity:0"/>
				</linearGradient>
				<polygon class="st44" points="373,162.3 417.2,162.3 454.6,123.5 442,90.6 				"/>
			</g>
			<g class="st8">
				
					<linearGradient id="SVGID_38_" gradientUnits="userSpaceOnUse" x1="477.239" y1="82.0299" x2="633.7401" y2="239.5312" gradientTransform="matrix(1 0 0 -1 0 194.0001)">
					<stop  offset="0" style="stop-color:#C4081F"/>
					<stop  offset="1" style="stop-color:#FC201C"/>
				</linearGradient>
				<polygon class="st45" points="417.2,162.3 419.7,162.3 424.5,176.3 460.5,139 454.6,123.5 				"/>
				
					<linearGradient id="SVGID_39_" gradientUnits="userSpaceOnUse" x1="475.5356" y1="83.7224" x2="632.0353" y2="241.2224" gradientTransform="matrix(1 0 0 -1 0 194.0001)">
					<stop  offset="0" style="stop-color:#C4081F"/>
					<stop  offset="1" style="stop-color:#FC201C"/>
				</linearGradient>
				<polygon class="st46" points="570.1,3.6 525.9,49.4 525.9,71.1 590.9,3.6 				"/>
			</g>
			<g class="st8">
				
					<linearGradient id="SVGID_40_" gradientUnits="userSpaceOnUse" x1="524.9358" y1="213.7895" x2="592.936" y2="53.7889" gradientTransform="matrix(1 0 0 -1 0 194.0001)">
					<stop  offset="0" style="stop-color:#FFCD00"/>
					<stop  offset="1.239491e-02" style="stop-color:#FEC502"/>
					<stop  offset="8.688248e-02" style="stop-color:#FA9C0F"/>
					<stop  offset="0.1678" style="stop-color:#F6771A"/>
					<stop  offset="0.2545" style="stop-color:#F35824"/>
					<stop  offset="0.3486" style="stop-color:#F03E2C"/>
					<stop  offset="0.453" style="stop-color:#EE2B32"/>
					<stop  offset="0.5734" style="stop-color:#ED1D36"/>
					<stop  offset="0.7241" style="stop-color:#EC1538"/>
					<stop  offset="1" style="stop-color:#EC1339"/>
				</linearGradient>
				<polygon class="st47" points="573.3,45.2 609.6,45.2 609.6,3.6 590.9,3.6 525.9,71.1 525.9,158.3 573.3,109.1 				"/>
				
					<linearGradient id="SVGID_41_" gradientUnits="userSpaceOnUse" x1="390.7982" y1="156.7777" x2="458.7965" y2="-3.2182" gradientTransform="matrix(1 0 0 -1 0 194.0001)">
					<stop  offset="0" style="stop-color:#FFCD00"/>
					<stop  offset="1.239491e-02" style="stop-color:#FEC502"/>
					<stop  offset="8.688248e-02" style="stop-color:#FA9C0F"/>
					<stop  offset="0.1678" style="stop-color:#F6771A"/>
					<stop  offset="0.2545" style="stop-color:#F35824"/>
					<stop  offset="0.3486" style="stop-color:#F03E2C"/>
					<stop  offset="0.453" style="stop-color:#EE2B32"/>
					<stop  offset="0.5734" style="stop-color:#ED1D36"/>
					<stop  offset="0.7241" style="stop-color:#EC1538"/>
					<stop  offset="1" style="stop-color:#EC1339"/>
				</linearGradient>
				<polygon class="st48" points="479.6,189.1 460.5,139 424.5,176.3 428.9,189.1 				"/>
				<polygon class="st49" points="479.6,189.1 460.5,139 424.5,176.3 428.9,189.1 				"/>
			</g>
			<g class="st8">
				
					<linearGradient id="SVGID_42_" gradientUnits="userSpaceOnUse" x1="459.4338" y1="15.2163" x2="481.9334" y2="-7.2833" gradientTransform="matrix(1 0 0 -1 0 194.0001)">
					<stop  offset="0" style="stop-color:#C4081F;stop-opacity:0"/>
					<stop  offset="1" style="stop-color:#C4081F"/>
				</linearGradient>
				<polygon class="st50" points="479.6,189.1 460.5,139 424.5,176.3 428.9,189.1 				"/>
				
					<linearGradient id="SVGID_43_" gradientUnits="userSpaceOnUse" x1="562.5091" y1="118.2909" x2="585.0091" y2="95.7909" gradientTransform="matrix(1 0 0 -1 0 194.0001)">
					<stop  offset="0" style="stop-color:#C4081F;stop-opacity:0"/>
					<stop  offset="1" style="stop-color:#C4081F"/>
				</linearGradient>
				<polygon class="st51" points="573.3,45.2 609.6,45.2 609.6,3.6 590.9,3.6 525.9,71.1 525.9,158.3 573.3,109.1 				"/>
			</g>
			<g class="st8">
				
					<linearGradient id="SVGID_44_" gradientUnits="userSpaceOnUse" x1="464.0465" y1="10.6036" x2="416.7343" y2="57.9158" gradientTransform="matrix(1 0 0 -1 0 194.0001)">
					<stop  offset="0" style="stop-color:#FFCD00;stop-opacity:0"/>
					<stop  offset="0.8422" style="stop-color:#FFCD00;stop-opacity:0.9961"/>
					<stop  offset="0.8455" style="stop-color:#FFCD00"/>
				</linearGradient>
				<polygon class="st52" points="479.6,189.1 460.5,139 424.5,176.3 428.9,189.1 				"/>
				
					<linearGradient id="SVGID_45_" gradientUnits="userSpaceOnUse" x1="575.8528" y1="98.7921" x2="506.5197" y2="220.7922" gradientTransform="matrix(1 0 0 -1 0 194.0001)">
					<stop  offset="0" style="stop-color:#FFCD00;stop-opacity:0"/>
					<stop  offset="0.8422" style="stop-color:#FFCD00;stop-opacity:0.9961"/>
					<stop  offset="0.8455" style="stop-color:#FFCD00"/>
				</linearGradient>
				<polygon class="st53" points="573.3,45.2 609.6,45.2 609.6,3.6 590.9,3.6 525.9,71.1 525.9,158.3 573.3,109.1 				"/>
			</g>
			<g class="st8">
				<polygon class="st54" points="573.3,150.5 536.1,189.1 573.3,189.1 				"/>
			</g>
			<g class="st8">
				
					<linearGradient id="SVGID_46_" gradientUnits="userSpaceOnUse" x1="552.5014" y1="26.2155" x2="558.5012" y2="20.7156" gradientTransform="matrix(1 0 0 -1 0 194.0001)">
					<stop  offset="0" style="stop-color:#FC201C"/>
					<stop  offset="1" style="stop-color:#FC201C;stop-opacity:0"/>
				</linearGradient>
				<polygon class="st55" points="573.3,150.5 536.1,189.1 573.3,189.1 				"/>
			</g>
			<g class="st8">
				
					<linearGradient id="SVGID_47_" gradientUnits="userSpaceOnUse" x1="521.0629" y1="101.1913" x2="551.0624" y2="32.5261" gradientTransform="matrix(1 0 0 -1 0 194.0001)">
					<stop  offset="0" style="stop-color:#FFCD00"/>
					<stop  offset="1" style="stop-color:#FFCD00;stop-opacity:0"/>
				</linearGradient>
				<polygon class="st56" points="573.3,150.5 536.1,189.1 573.3,189.1 				"/>
			</g>
			<g class="st8">
				
					<linearGradient id="SVGID_48_" gradientUnits="userSpaceOnUse" x1="592.6115" y1="-12.5627" x2="569.2404" y2="10.1002" gradientTransform="matrix(1 0 0 -1 0 194.0001)">
					<stop  offset="0" style="stop-color:#C70A35"/>
					<stop  offset="1" style="stop-color:#C70A35;stop-opacity:0"/>
				</linearGradient>
				<polygon class="st57" points="573.3,150.5 536.1,189.1 573.3,189.1 				"/>
			</g>
			<g class="st8">
				
					<linearGradient id="SVGID_49_" gradientUnits="userSpaceOnUse" x1="544.4638" y1="34.1976" x2="708.4633" y2="206.6972" gradientTransform="matrix(1 0 0 -1 0 194.0001)">
					<stop  offset="0" style="stop-color:#9F0623"/>
					<stop  offset="5.572546e-02" style="stop-color:#A70722"/>
					<stop  offset="0.2831" style="stop-color:#C20A1D"/>
					<stop  offset="0.5149" style="stop-color:#D50C1A"/>
					<stop  offset="0.7514" style="stop-color:#E00E19"/>
					<stop  offset="1" style="stop-color:#E40E18"/>
				</linearGradient>
				<polygon class="st58" points="525.9,158.3 525.9,189.1 536.1,189.1 573.3,150.5 573.3,109.1 				"/>
			</g>
			<g class="st8">
				
					<linearGradient id="SVGID_50_" gradientUnits="userSpaceOnUse" x1="567.0253" y1="28.8151" x2="548.4554" y2="45.9566" gradientTransform="matrix(1 0 0 -1 0 194.0001)">
					<stop  offset="0" style="stop-color:#900419"/>
					<stop  offset="0.9441" style="stop-color:#900419;stop-opacity:5.585188e-02"/>
					<stop  offset="1" style="stop-color:#900419;stop-opacity:0"/>
				</linearGradient>
				<polygon class="st59" points="525.9,158.3 525.9,189.1 536.1,189.1 573.3,150.5 573.3,109.1 				"/>
			</g>
			<g class="st8">
				
					<radialGradient id="SVGID_51_" cx="555.8999" cy="161.6821" r="108.0002" gradientTransform="matrix(1 0 0 -1 0 194.0001)" gradientUnits="userSpaceOnUse">
					<stop  offset="0" style="stop-color:#EA2D1D"/>
					<stop  offset="1" style="stop-color:#EA2D1D;stop-opacity:0"/>
				</radialGradient>
				<path class="st60" d="M609.6,45.2V3.6H489.3v41.6h36.6v90.9c9.5,2.8,19.6,4.2,30,4.2c5.9,0,11.7-0.5,17.4-1.4V45.2H609.6z"/>
			</g>
			<g class="st8">
				
					<radialGradient id="SVGID_52_" cx="475.8997" cy="111.6824" r="107.9996" gradientTransform="matrix(1 0 0 -1 0 194.0001)" gradientUnits="userSpaceOnUse">
					<stop  offset="0" style="stop-color:#EA2D1D"/>
					<stop  offset="1" style="stop-color:#EA2D1D;stop-opacity:0"/>
				</radialGradient>
				<path class="st61" d="M408.9,3.5h-6.8c-21,19.7-34.1,47.7-34.1,78.8c0,9.7,1.3,19.1,3.7,28.1l15.1-44.1l20,58.4h-27.9l-1,3
					c6.1,13.2,14.8,25,25.5,34.6h16.3l5.2,15.2c10.7,5.8,22.5,9.8,35.1,11.6h19.6L408.9,3.5z"/>
				
					<radialGradient id="SVGID_53_" cx="475.8998" cy="111.6817" r="108" gradientTransform="matrix(1 0 0 -1 0 194.0001)" gradientUnits="userSpaceOnUse">
					<stop  offset="0" style="stop-color:#EA2D1D"/>
					<stop  offset="1" style="stop-color:#EA2D1D;stop-opacity:0"/>
				</radialGradient>
				<path class="st62" d="M549.8,3.6h-60.5v41.6h36.6v132.9c20.6-10.8,37.3-28,47.4-49V45.2h4.1C571.5,29.2,562,15,549.8,3.6z"/>
			</g>
			
				<radialGradient id="SVGID_54_" cx="441.2323" cy="72.0157" r="52.6269" gradientTransform="matrix(1 0 0 -1 0 194.0001)" gradientUnits="userSpaceOnUse">
				<stop  offset="0" style="stop-color:#C4081F"/>
				<stop  offset="1" style="stop-color:#C4081F;stop-opacity:0"/>
			</radialGradient>
			<path class="st63" d="M470.6,165.6l-36.5-95.8c-16,2.2-29.7,11.5-37.8,24.6l10.4,30.2h-18.1c0.8,15.1,7.9,28.5,18.8,37.6h12.2
				l3.1,8.9c5.8,2.2,12,3.3,18.5,3.3C452.1,174.6,462.2,171.3,470.6,165.6z"/>
			<g class="st8">
				
					<radialGradient id="SVGID_55_" cx="558.8997" cy="51.6825" r="107.9996" gradientTransform="matrix(1 0 0 -1 0 194.0001)" gradientUnits="userSpaceOnUse">
					<stop  offset="0" style="stop-color:#9E0623"/>
					<stop  offset="1" style="stop-color:#9E0623;stop-opacity:0"/>
				</radialGradient>
				<path class="st64" d="M453.2,119.9c-1.5,7.2-2.3,14.7-2.3,22.4c0,16.8,3.8,32.7,10.7,46.8h18L453.2,119.9z"/>
				
					<radialGradient id="SVGID_56_" cx="558.9" cy="51.6822" r="107.9994" gradientTransform="matrix(1 0 0 -1 0 194.0001)" gradientUnits="userSpaceOnUse">
					<stop  offset="0" style="stop-color:#9E0623"/>
					<stop  offset="1" style="stop-color:#9E0623;stop-opacity:0"/>
				</radialGradient>
				<path class="st65" d="M525.9,189.1h47.4V45.2h32.9c-14.3-7-30.3-10.9-47.3-10.9s-33,3.9-47.3,10.9h14.3V189.1L525.9,189.1z"/>
			</g>
			<path class="st66" d="M771.4,135.7c0-5.1-0.5-9.8-1.7-14.4l-68.6,71.2c1.8,0.1,3.7,0.1,5.6,0.1
				C755.9,192.7,771.4,162.8,771.4,135.7z"/>
			
				<linearGradient id="SVGID_57_" gradientUnits="userSpaceOnUse" x1="779.7372" y1="-4.4635" x2="717.4144" y2="53.9604" gradientTransform="matrix(1 0 0 -1 0 194.0001)">
				<stop  offset="0" style="stop-color:#FF232C"/>
				<stop  offset="1" style="stop-color:#FF232C;stop-opacity:0"/>
			</linearGradient>
			<path class="st67" d="M771.4,135.7c0-5.1-0.5-9.8-1.7-14.4l-68.6,71.2c1.8,0.1,3.7,0.1,5.6,0.1
				C755.9,192.7,771.4,162.8,771.4,135.7z"/>
			
				<linearGradient id="SVGID_58_" gradientUnits="userSpaceOnUse" x1="543.3922" y1="33.313" x2="707.394" y2="205.815" gradientTransform="matrix(1 0 0 -1 0 194.0001)">
				<stop  offset="0" style="stop-color:#9C0B27"/>
				<stop  offset="4.910338e-02" style="stop-color:#A30C27"/>
				<stop  offset="0.2782" style="stop-color:#BE1026"/>
				<stop  offset="0.5115" style="stop-color:#D11325"/>
				<stop  offset="0.7497" style="stop-color:#DC1424"/>
				<stop  offset="1" style="stop-color:#E01524"/>
			</linearGradient>
			<path class="st68" d="M707.5,0.1c-17.3,0-35.5,6.1-48.2,17.6l-5.4,5.6c-7,8.4-11.4,19-11.4,31.5c0,6.9,1.3,12.9,3.4,18.2
				l69.8-72.4C713,0.3,710.2,0.1,707.5,0.1z"/>
			
				<linearGradient id="SVGID_59_" gradientUnits="userSpaceOnUse" x1="682.2781" y1="155.8356" x2="663.7089" y2="172.9764" gradientTransform="matrix(1 0 0 -1 0 194.0001)">
				<stop  offset="0" style="stop-color:#8D081D"/>
				<stop  offset="0.9441" style="stop-color:#8D081D;stop-opacity:5.585188e-02"/>
				<stop  offset="1" style="stop-color:#8D081D;stop-opacity:0"/>
			</linearGradient>
			<path class="st69" d="M707.5,0.1c-17.3,0-35.5,6.1-48.2,17.6l-5.4,5.6c-7,8.4-11.4,19-11.4,31.5c0,6.9,1.3,12.9,3.4,18.2
				l69.8-72.4C713,0.3,710.2,0.1,707.5,0.1z"/>
			
				<linearGradient id="SVGID_60_" gradientUnits="userSpaceOnUse" x1="591.3867" y1="158.9294" x2="821.0446" y2="154.9583" gradientTransform="matrix(1 0 0 -1 0 194.0001)">
				<stop  offset="0" style="stop-color:#FFCD00"/>
				<stop  offset="1.239491e-02" style="stop-color:#FEC502"/>
				<stop  offset="8.688248e-02" style="stop-color:#FA9C0F"/>
				<stop  offset="0.1678" style="stop-color:#F6771A"/>
				<stop  offset="0.2545" style="stop-color:#F35824"/>
				<stop  offset="0.3486" style="stop-color:#F03E2C"/>
				<stop  offset="0.453" style="stop-color:#EE2B32"/>
				<stop  offset="0.5734" style="stop-color:#ED1D36"/>
				<stop  offset="0.7241" style="stop-color:#EC1538"/>
				<stop  offset="1" style="stop-color:#EC1339"/>
			</linearGradient>
			<path class="st70" d="M707.5,0.1c-17.3,0-35.5,6.1-48.2,17.6l-5.4,5.6c-7,8.4-11.4,19-11.4,31.5c0,6.9,1.3,12.9,3.4,18.2
				l69.8-72.4C713,0.3,710.2,0.1,707.5,0.1z"/>
			
				<radialGradient id="SVGID_61_" cx="553.9008" cy="161.6816" r="108.0004" gradientTransform="matrix(1 0 0 -1 0 194.0001)" gradientUnits="userSpaceOnUse">
				<stop  offset="0" style="stop-color:#E63029"/>
				<stop  offset="1" style="stop-color:#E63029;stop-opacity:0"/>
			</radialGradient>
			<path class="st71" d="M660.7,16.4c-10.9,9.2-18.2,22.1-18.2,38.3c0,10.7,3.1,19.4,7.7,26.4c7.4-14.7,11.7-31.3,11.7-48.8
				C661.9,26.9,661.5,21.6,660.7,16.4z"/>
			<path class="st72" d="M728,82.6c-33.4-15-38.4-17.3-38.4-28.3c0-8.8,8-14.5,16.3-14.5c14.5,0,16,11.8,17.1,18.1h46.9
				c-0.5-10.5-1.3-23.1-12.3-36.6C747.4,9.1,731.5,2.4,715.7,0.7L646,73c8.7,21.5,31.5,30.7,42,34.9c28.6,12,36.4,15,36.4,27.3
				c0,8.5-6.8,17.8-18.1,17.8c-6,0-19.3-3.8-19.3-25.3h-47.1v6c0,23.3,12.7,57.3,63.2,58.9l67.1-69.7
				C766.6,107.5,755.4,94.9,728,82.6z"/>
			
				<linearGradient id="SVGID_62_" gradientUnits="userSpaceOnUse" x1="1024.8102" y1="-211.4136" x2="1030.8101" y2="-216.9134" gradientTransform="matrix(1.7432 0.7159 -0.7159 -1.6897 -1287.6711 -1046.403)">
				<stop  offset="0" style="stop-color:#F82529"/>
				<stop  offset="1" style="stop-color:#F82529;stop-opacity:0"/>
			</linearGradient>
			<path class="st73" d="M728,82.6c-33.4-15-38.4-17.3-38.4-28.3c0-8.8,8-14.5,16.3-14.5c14.5,0,16,11.8,17.1,18.1h46.9
				c-0.5-10.5-1.3-23.1-12.3-36.6C747.4,9.1,731.5,2.4,715.7,0.7L646,73c8.7,21.5,31.5,30.7,42,34.9c28.6,12,36.4,15,36.4,27.3
				c0,8.5-6.8,17.8-18.1,17.8c-6,0-19.3-3.8-19.3-25.3h-47.1v6c0,23.3,12.7,57.3,63.2,58.9l67.1-69.7
				C766.6,107.5,755.4,94.9,728,82.6z"/>
			
				<linearGradient id="SVGID_63_" gradientUnits="userSpaceOnUse" x1="1068.6555" y1="-252.7099" x2="1045.283" y2="-230.0456" gradientTransform="matrix(1.7432 0.7159 -0.7159 -1.6897 -1287.6711 -1046.403)">
				<stop  offset="0" style="stop-color:#C70A35"/>
				<stop  offset="1" style="stop-color:#C70A35;stop-opacity:0"/>
			</linearGradient>
			<path class="st74" d="M728,82.6c-33.4-15-38.4-17.3-38.4-28.3c0-8.8,8-14.5,16.3-14.5c14.5,0,16,11.8,17.1,18.1h46.9
				c-0.5-10.5-1.3-23.1-12.3-36.6C747.4,9.1,731.5,2.4,715.7,0.7L646,73c8.7,21.5,31.5,30.7,42,34.9c28.6,12,36.4,15,36.4,27.3
				c0,8.5-6.8,17.8-18.1,17.8c-6,0-19.3-3.8-19.3-25.3h-47.1v6c0,23.3,12.7,57.3,63.2,58.9l67.1-69.7
				C766.6,107.5,755.4,94.9,728,82.6z"/>
			
				<linearGradient id="SVGID_64_" gradientUnits="userSpaceOnUse" x1="1029.4391" y1="-190.4911" x2="1059.4381" y2="-259.1554" gradientTransform="matrix(1.7432 0.7159 -0.7159 -1.6897 -1287.6711 -1046.403)">
				<stop  offset="0" style="stop-color:#FF232C"/>
				<stop  offset="1" style="stop-color:#FF232C;stop-opacity:0"/>
			</linearGradient>
			<path class="st75" d="M728,82.6c-33.4-15-38.4-17.3-38.4-28.3c0-8.8,8-14.5,16.3-14.5c14.5,0,16,11.8,17.1,18.1h46.9
				c-0.5-10.5-1.3-23.1-12.3-36.6C747.4,9.1,731.5,2.4,715.7,0.7L646,73c8.7,21.5,31.5,30.7,42,34.9c28.6,12,36.4,15,36.4,27.3
				c0,8.5-6.8,17.8-18.1,17.8c-6,0-19.3-3.8-19.3-25.3h-47.1v6c0,23.3,12.7,57.3,63.2,58.9l67.1-69.7
				C766.6,107.5,755.4,94.9,728,82.6z"/>
			
				<radialGradient id="SVGID_65_" cx="556.9005" cy="51.6811" r="108.0005" gradientTransform="matrix(1 0 0 -1 0 194.0001)" gradientUnits="userSpaceOnUse">
				<stop  offset="0" style="stop-color:#9B0B27"/>
				<stop  offset="1" style="stop-color:#9B0B27;stop-opacity:0"/>
			</radialGradient>
			<path class="st76" d="M663.9,127.7h-24.1v6c0,14,4.6,31.8,19.1,44.1c3.9-11.1,6-23.1,6-35.6C664.9,137.4,664.6,132.5,663.9,127.7
				z"/>
			<g class="st77">
				<path class="st78" d="M715.7,0.6c-2.8-0.3-5.5-0.5-8.3-0.5c-2,0-4.1,0.1-6.1,0.3L642.9,61c0.5,4.4,1.6,8.3,3,11.9L715.7,0.6z"/>
			</g>
			<path class="st79" d="M131.7,135.7c0-7.6-1.1-14.5-4-20.9l-74.2,77c4.2,0.5,8.7,0.8,13.5,0.8
				C116.1,192.7,131.7,162.8,131.7,135.7z"/>
			<path class="st4" d="M67.7,0.1C36.6,0.1,2.8,19.9,2.8,54.8c0,4.3,0.5,8.3,1.4,11.9L68.3,0.1C68.1,0.1,67.9,0.1,67.7,0.1z"/>
			<path class="st2" d="M88.3,82.6c-33.4-15-38.4-17.3-38.4-28.3c0-8.8,8-14.5,16.3-14.5c14.5,0,16,11.8,17,18.1h46.9
				c-0.5-10.5-1.3-23.1-12.3-36.6C105.9,7.2,86.4,0.4,68.2,0.3L4.1,66.9c6.3,26,32.6,36.6,44,41.2c28.6,12,36.4,15,36.4,27.3
				c0,8.5-6.8,17.8-18.1,17.8c-6,0-19.3-3.8-19.3-25.3H0v6c0,22,11.4,53.7,55.5,58.3l72.8-75.6C123.3,103.9,111.8,93.1,88.3,82.6z"
				/>
			
				<linearGradient id="SVGID_66_" gradientUnits="userSpaceOnUse" x1="-24.6158" y1="222.7408" x2="25.3843" y2="125.7408" gradientTransform="matrix(1.0398 3.830000e-02 -3.830000e-02 -1.0369 55.1372 246.8259)">
				<stop  offset="0" style="stop-color:#FFCD00"/>
				<stop  offset="1.239491e-02" style="stop-color:#FEC502"/>
				<stop  offset="8.688248e-02" style="stop-color:#FA9C0F"/>
				<stop  offset="0.1678" style="stop-color:#F6771A"/>
				<stop  offset="0.2545" style="stop-color:#F35824"/>
				<stop  offset="0.3486" style="stop-color:#F03E2C"/>
				<stop  offset="0.453" style="stop-color:#EE2B32"/>
				<stop  offset="0.5734" style="stop-color:#ED1D36"/>
				<stop  offset="0.7241" style="stop-color:#EC1538"/>
				<stop  offset="1" style="stop-color:#EC1339"/>
			</linearGradient>
			<path class="st80" d="M88.3,82.6c-33.4-15-38.4-17.3-38.4-28.3c0-8.8,8-14.5,16.3-14.5c14.5,0,16,11.8,17,18.1h46.9
				c-0.5-10.5-1.3-23.1-12.3-36.6C105.9,7.2,86.4,0.4,68.2,0.3L4.1,66.9c6.3,26,32.6,36.6,44,41.2c28.6,12,36.4,15,36.4,27.3
				c0,8.5-6.8,17.8-18.1,17.8c-6,0-19.3-3.8-19.3-25.3H0v6c0,22,11.4,53.7,55.5,58.3l72.8-75.6C123.3,103.9,111.8,93.1,88.3,82.6z"
				/>
			<path class="st81" d="M127.7,114.8l-74.2,77c3.5,0.4,7.1,0.7,11,0.8l66.1-68.6C130,120.9,129,117.8,127.7,114.8z"/>
			
				<linearGradient id="SVGID_67_" gradientUnits="userSpaceOnUse" x1="144.9837" y1="92.222" x2="229.7389" y2="178.7137" gradientTransform="matrix(1.0143 -1.480000e-02 1.480000e-02 -1.0154 -82.2956 280.0907)">
				<stop  offset="5.102040e-03" style="stop-color:#CA101F"/>
				<stop  offset="0.1873" style="stop-color:#CB131F"/>
				<stop  offset="0.3348" style="stop-color:#CE1D20"/>
				<stop  offset="0.4702" style="stop-color:#D22E22"/>
				<stop  offset="0.5983" style="stop-color:#D94624"/>
				<stop  offset="0.7214" style="stop-color:#E16526"/>
				<stop  offset="0.8405" style="stop-color:#EC8B2A"/>
				<stop  offset="0.9545" style="stop-color:#F8B72D"/>
				<stop  offset="1" style="stop-color:#FDCB2F"/>
			</linearGradient>
			<path class="st82" d="M127.7,114.8l-74.2,77c3.5,0.4,7.1,0.7,11,0.8l66.1-68.6C130,120.9,129,117.8,127.7,114.8z"/>
			
				<linearGradient id="SVGID_68_" gradientUnits="userSpaceOnUse" x1="125.2732" y1="71.9057" x2="210.0369" y2="158.4062" gradientTransform="matrix(1.0044 -4.500000e-03 4.500000e-03 -1.0047 -60.5137 257.601)">
				<stop  offset="5.102040e-03" style="stop-color:#CA101F"/>
				<stop  offset="0.4008" style="stop-color:#D21922"/>
				<stop  offset="1" style="stop-color:#E63029"/>
			</linearGradient>
			<path class="st83" d="M127.7,114.8l-74.2,77c3.5,0.4,7.1,0.7,11,0.8l66.1-68.6C130,120.9,129,117.8,127.7,114.8z"/>
			
				<linearGradient id="SVGID_69_" gradientUnits="userSpaceOnUse" x1="220.229" y1="175.4144" x2="227.1105" y2="168.5329" gradientTransform="matrix(1.024 -2.500000e-02 2.500000e-02 -1.0259 -139.9309 338.1313)">
				<stop  offset="5.102040e-03" style="stop-color:#EC1339"/>
				<stop  offset="1" style="stop-color:#EC1339;stop-opacity:0"/>
			</linearGradient>
			<path class="st84" d="M127.7,114.8l-74.2,77c3.5,0.4,7.1,0.7,11,0.8l66.1-68.6C130,120.9,129,117.8,127.7,114.8z"/>
		</g>
	</g>
</g>
</svg>
