<?xml version="1.0" encoding="utf-8"?>
<!-- Generator: Adobe Illustrator 19.0.0, SVG Export Plug-In . SVG Version: 6.00 Build 0)  -->
<svg version="1.1" id="Layer_1" xmlns="http://www.w3.org/2000/svg" xmlns:xlink="http://www.w3.org/1999/xlink" x="0px" y="0px"
	 viewBox="-433 327.6 355.5 67.4" style="enable-background:new -433 327.6 355.5 67.4;" xml:space="preserve">
<g>
	<path d="M-178.4,375.5v-4.8c-2.2,1.9-6.7,2-10.6,2.7c-4,0.8-7.6,2.2-7.6,6.9c0,4.8,3.7,5.9,7.8,5.9
		C-178.8,386.2-178.4,378.2-178.4,375.5L-178.4,375.5z M-344,365.2h20.8c-1.2-6.5-4-9.9-10.2-9.9
		C-341.5,355.3-343.8,361.6-344,365.2L-344,365.2z M-298.1,365.2h20.8c-1.2-6.5-4-9.9-10.2-9.9
		C-295.6,355.3-297.9,361.6-298.1,365.2L-298.1,365.2z M-207.4,363.3h-12.5c-0.8-5.2-4.1-8-9.5-8c-8.2,0-10.9,8.3-10.9,15.1
		c0,6.7,2.6,14.7,10.6,14.7c6,0,9.4-3.8,10.2-9.5h10.9c2.2-6.3,8.6-8.1,15.1-9c7.8-1.2,15.1-0.9,15.1-6.1c0-5.5-3.8-6.3-8.3-6.3
		c-4.9,0-8,4.1-8.5,9.1L-207.4,363.3L-207.4,363.3z M-77.6,373.3h-33.6c0.4,8.1,4.3,11.8,11.4,11.8c5.1,0,9.3-3.2,10.1-6h11.3
		c-3.6,11-11.3,15.7-21.8,15.7c-11.4,0-19.4-6-22.4-15.5c-0.4,11.7-10.8,15.5-21.2,15.5c-10.2,0-20.2-3.6-21.7-14.4v2.8
		c0,4.2,0.5,8.5,1.6,10.4h-13c-0.4-1.4-0.8-3-0.9-4.5c-4,4.2-10,5.8-15.7,5.8c-8.1,0-14.6-3.7-15.7-11.6
		c-3.5,7.6-10.8,11.6-20.3,11.6c-12,0-20.6-7.2-22.9-17.9v16.7h-12.8v-20.2h-32.8c0.4,8.1,4.3,11.8,11.4,11.8c5.1,0,9.3-3.2,10.1-6
		h11.3c-3.6,11-11.3,15.7-21.8,15.7c-13.6,0-22.4-8.7-23.6-21.5H-344c0.4,8.1,4.3,11.8,11.4,11.8c5.1,0,9.3-3.2,10.1-6h11.3
		c-3.6,11-11.3,15.7-21.8,15.7c-14.7,0-23.8-10.1-23.8-24.5c0-14,9.6-24.6,23.8-24.6c13.2,0,20.8,9.3,22.4,20.7
		c1.6-12,10.7-20.7,23.5-20.7c12.2,0,19.5,7.8,21.9,17.9v-34.4h12.8v35.3c2.2-11.1,10.4-18.8,23.2-18.8c10.2,0,19.5,4.9,21.5,15
		c1.6-12.3,11.9-15,21.7-15c9.3,0,20.4,2.1,20.4,13.3v19.5h12c0.1,5.6,4.8,7.8,9.8,7.8c3.7,0,8.4-1.4,8.4-5.9
		c0-3.9-5.3-5.2-14.5-7.2c-7.4-1.6-14.8-4.2-14.8-12.4c0-11.9,10.3-15,20.3-15c10.2,0,19.6,3.4,20.6,14.9H-136
		c-0.4-4.9-4.2-6.3-8.7-6.3c-2.9,0-7.1,0.6-7.1,4.3c0,4.6,7.2,5.2,14.5,6.9c5.6,1.3,11.1,3.1,13.5,7.6c-0.1-0.9-0.1-1.9-0.1-2.9
		c0-14,9.6-24.6,23.8-24.6C-84.3,345.6-76.7,359-77.6,373.3L-77.6,373.3z M-111.2,365.2h20.8c-1.2-6.5-4-9.9-10.2-9.9
		C-108.7,355.3-111,361.6-111.2,365.2L-111.2,365.2z M-364.1,332.9v14h9.4v7.4h-9.4v24.2c0,4.3,1.1,5.4,5.4,5.4c1.4,0,2.6-0.1,4-0.4
		v10c-2.2,0.4-5,0.4-7.5,0.4c-7.8,0-14.7-1.8-14.7-11.1v-28.6h-17.8l0-6c-0.5-7.7-6-9.7-12.7-9.7c-4.5,0-9.7,1.9-9.7,7.3
		c0,4.9,3.1,5.6,19.2,9.7c4.7,1.2,19.1,4.1,19.1,18.7c0,11.8-9.3,20.6-26.8,20.6c-14.2,0-27.6-7-27.4-22.9h13.7
		c0,8.6,6.7,11.9,14.2,11.9c5,0,12.5-1.4,12.5-8c0-6.9-9.6-8.1-19.1-10.6c-9.6-2.5-19.2-6.2-19.2-18.3c0-13.2,12.4-19.5,24.1-19.5
		c13,0,25,5.5,25.7,19.3h4.2v-14H-364.1L-364.1,332.9z"/>
</g>
</svg>
