<?xml version="1.0" encoding="utf-8"?>
<!-- Generator: Adobe Illustrator 16.0.4, SVG Export Plug-In . SVG Version: 6.00 Build 0)  -->
<!DOCTYPE svg PUBLIC "-//W3C//DTD SVG 1.1//EN" "http://www.w3.org/Graphics/SVG/1.1/DTD/svg11.dtd">
<svg version="1.1" id="Layer_1" xmlns="http://www.w3.org/2000/svg" xmlns:xlink="http://www.w3.org/1999/xlink" x="0px" y="0px"
	 width="321px" height="178px" viewBox="0 0 321 178" enable-background="new 0 0 321 178" xml:space="preserve">
<g>
	<path d="M41.771,101.549c0.793,2.424,3.161,3.672,6.324,3.672c3.312,0,5.472-1.183,5.472-3.476c0-1.563-1.081-2.42-3.742-3.004
		l-6.614-1.437c-4.528-0.986-7.912-3.201-7.912-7.978c0-5.22,5.105-9.088,12.079-9.088c7.479,0,11.724,3.267,12.803,8.563h-7.047
		c-0.646-1.897-2.517-3.202-5.824-3.202c-2.512,0-5.101,1.041-5.101,3.336c0,1.304,1.002,2.154,3.3,2.679l6.764,1.441
		c5.46,1.178,8.188,3.979,8.188,8.229c0,5.751-5.243,9.282-12.43,9.282c-7.476,0-12.656-3.396-13.592-9.022h7.332V101.549z"/>
	<path d="M66.294,86.326h-5.038v-5.429h5.038v-7.782h7.191v7.782h7.185v5.429h-7.185v15.036c0,2.353,1.431,3.394,3.8,3.394
		c1.446,0,3.104-0.521,4.104-1.181v5.954c-1.218,0.652-3.158,1.041-5.387,1.041c-5.686,0-9.708-2.738-9.708-8.491V86.326z"/>
	<path d="M103.685,87.499c-1.003-0.653-2.736-0.986-4.242-0.986c-2.948,0-5.687,1.505-6.398,4.648v18.759h-7.19V80.896h7.19v3.007
		c1.22-2.161,4.024-3.663,7.123-3.663c1.577,0,3.011,0.265,3.519,0.525L103.685,87.499L103.685,87.499z"/>
	<path d="M111.013,76.122c-2.365,0-4.452-1.767-4.452-3.99c0-2.226,2.087-3.987,4.452-3.987c2.377,0,4.465,1.761,4.465,3.987
		C115.478,74.355,113.39,76.122,111.013,76.122 M114.61,109.922h-7.188V80.896h7.188V109.922z"/>
	<path d="M141.362,107.436c-1.435,1.635-4.598,3.135-8.125,3.135c-9.347,0-14.812-6.792-14.812-15.16
		c0-8.306,5.466-15.169,14.812-15.169c3.527,0,6.69,1.502,8.125,3.145V67.429h7.191v42.493h-7.191V107.436z M141.362,89.911
		c-1.22-2.287-3.955-3.855-6.9-3.855c-5.542,0-8.846,3.995-8.846,9.354c0,5.361,3.304,9.345,8.846,9.345
		c2.945,0,5.682-1.567,6.9-3.858V89.911z"/>
	<path d="M180.909,100.895c-1.081,5.76-5.752,9.676-13.444,9.676c-8.906,0-15.103-6.143-15.103-15.1
		c0-8.697,6.257-15.229,14.959-15.229c8.992,0,13.876,5.815,13.876,14.317v2.353h-21.784c0.214,5.103,3.454,8.168,8.052,8.168
		c3.458,0,6.038-1.364,6.832-4.185H180.909z M159.627,92.143h14.459c-0.07-3.532-2.303-6.407-6.693-6.407
		C163.441,85.736,160.493,87.952,159.627,92.143"/>
	<path d="M215.786,87.499c-1.005-0.653-2.731-0.986-4.239-0.986c-2.947,0-5.681,1.505-6.403,4.648v18.759h-7.186V80.896h7.186v3.007
		c1.229-2.161,4.026-3.663,7.12-3.663c1.587,0,3.024,0.265,3.522,0.525V87.499z"/>
	<path d="M223.124,76.122c-2.372,0-4.454-1.767-4.454-3.99c0-2.226,2.082-3.987,4.454-3.987c2.375,0,4.457,1.761,4.457,3.987
		C227.581,74.355,225.499,76.122,223.124,76.122 M226.717,109.922h-7.187V80.896h7.187V109.922z"/>
	<path d="M234.421,86.326h-5.039v-5.429h5.039v-7.782h7.185v7.782h7.185v5.429h-7.185v15.036c0,2.353,1.44,3.394,3.808,3.394
		c1.44,0,3.099-0.521,4.104-1.181v5.954c-1.224,0.652-3.167,1.041-5.394,1.041c-5.682,0-9.703-2.738-9.703-8.491L234.421,86.326
		L234.421,86.326z"/>
	<path d="M280.291,100.895c-1.081,5.76-5.754,9.676-13.443,9.676c-8.919,0-15.104-6.143-15.104-15.1
		c0-8.697,6.257-15.229,14.962-15.229c8.981,0,13.873,5.815,13.873,14.317v2.353h-21.791c0.221,5.103,3.459,8.168,8.06,8.168
		c3.451,0,6.031-1.364,6.822-4.185H280.291z M259.009,92.143h14.451c-0.07-3.532-2.297-6.407-6.683-6.407
		C262.818,85.736,259.867,87.952,259.009,92.143"/>
	<path d="M282.902,83.346v-0.019h0.496c0.267-0.006,0.57,0.009,0.737,0.165c0.085,0.09,0.125,0.207,0.125,0.359
		c0,0.522-0.521,0.522-0.862,0.522h-0.477L282.902,83.346z M282.29,82.814v3.576l0.634-0.028l-0.021-1.452l0.496-0.018
		c0.021,0.014,0.909,1.484,0.909,1.484s0.56-0.011,0.628-0.014c-0.031-0.059-0.927-1.518-0.927-1.518h0.028
		c0.311-0.039,0.842-0.217,0.842-0.968c0-0.705-0.414-1.062-1.237-1.062H282.29z M280.884,84.612c0-1.438,1.161-2.615,2.583-2.615
		c1.428,0,2.581,1.177,2.581,2.615c0,1.437-1.153,2.608-2.581,2.608C282.045,87.22,280.884,86.049,280.884,84.612 M280.377,84.612
		c0,1.722,1.387,3.122,3.09,3.122c1.706,0,3.094-1.4,3.094-3.122c0-1.726-1.388-3.122-3.094-3.122
		C281.764,81.49,280.377,82.886,280.377,84.612"/>
</g>
</svg>
