<?xml version="1.0" encoding="utf-8"?>
<!-- Generator: Adobe Illustrator 16.0.4, SVG Export Plug-In . SVG Version: 6.00 Build 0)  -->
<!DOCTYPE svg PUBLIC "-//W3C//DTD SVG 1.1//EN" "http://www.w3.org/Graphics/SVG/1.1/DTD/svg11.dtd">
<svg version="1.1" id="Layer_1" xmlns="http://www.w3.org/2000/svg" xmlns:xlink="http://www.w3.org/1999/xlink" x="0px" y="0px"
	 width="321px" height="178px" viewBox="0 0 321 178" enable-background="new 0 0 321 178" xml:space="preserve">
<g>
	<path d="M-45.818,84.698c0.793,2.424,3.161,3.672,6.324,3.672c3.312,0,5.472-1.182,5.472-3.475c0-1.563-1.081-2.42-3.742-3.004
		l-6.615-1.437c-4.528-0.985-7.912-3.2-7.912-7.977c0-5.22,5.106-9.088,12.079-9.088c7.48,0,11.724,3.267,12.803,8.563h-7.047
		c-0.646-1.897-2.516-3.202-5.824-3.202c-2.512,0-5.101,1.041-5.101,3.336c0,1.304,1.002,2.154,3.3,2.679l6.764,1.442
		c5.46,1.178,8.188,3.979,8.188,8.229c0,5.751-5.243,9.282-12.429,9.282c-7.476,0-12.657-3.396-13.592-9.022h7.332V84.698z"/>
	<path d="M-21.296,69.476h-5.038v-5.429h5.038v-7.782h7.192v7.782h7.184v5.429h-7.184v15.036c0,2.352,1.43,3.394,3.8,3.394
		c1.446,0,3.104-0.521,4.103-1.181v5.955c-1.218,0.652-3.158,1.041-5.387,1.041c-5.685,0-9.708-2.738-9.708-8.492V69.476z"/>
	<path d="M16.095,70.649c-1.003-0.653-2.736-0.986-4.242-0.986c-2.948,0-5.687,1.505-6.399,4.648V93.07h-7.19V64.046h7.19v3.007
		c1.22-2.161,4.025-3.663,7.123-3.663c1.578,0,3.011,0.265,3.519,0.525L16.095,70.649L16.095,70.649z"/>
	<path d="M23.423,59.272c-2.365,0-4.452-1.767-4.452-3.99c0-2.226,2.087-3.987,4.452-3.987c2.377,0,4.465,1.761,4.465,3.987
		C27.888,57.505,25.8,59.272,23.423,59.272 M27.021,93.072h-7.189V64.046h7.189V93.072z"/>
	<path d="M53.773,90.586c-1.435,1.635-4.598,3.135-8.125,3.135c-9.347,0-14.812-6.793-14.812-15.161
		c0-8.306,5.466-15.169,14.812-15.169c3.527,0,6.69,1.502,8.125,3.145V50.579h7.191v42.493h-7.191V90.586z M53.773,73.061
		c-1.22-2.287-3.955-3.855-6.901-3.855c-5.542,0-8.845,3.994-8.845,9.354c0,5.362,3.303,9.345,8.845,9.345
		c2.946,0,5.682-1.568,6.901-3.859V73.061z"/>
	<path d="M93.32,84.044c-1.081,5.761-5.752,9.677-13.445,9.677c-8.906,0-15.102-6.143-15.102-15.1c0-8.697,6.257-15.23,14.959-15.23
		c8.992,0,13.876,5.815,13.876,14.318v2.352H71.823c0.214,5.103,3.455,8.168,8.052,8.168c3.458,0,6.038-1.364,6.832-4.185H93.32z
		 M72.037,75.293h14.459c-0.07-3.532-2.302-6.407-6.693-6.407C75.852,68.886,72.904,71.102,72.037,75.293"/>
	<path d="M128.197,70.649c-1.005-0.653-2.732-0.986-4.24-0.986c-2.947,0-5.68,1.505-6.403,4.648V93.07h-7.186V64.046h7.186v3.007
		c1.228-2.161,4.026-3.663,7.12-3.663c1.587,0,3.024,0.265,3.523,0.525V70.649z"/>
	<path d="M135.534,59.272c-2.372,0-4.454-1.767-4.454-3.99c0-2.226,2.082-3.987,4.454-3.987c2.375,0,4.457,1.761,4.457,3.987
		C139.991,57.505,137.909,59.272,135.534,59.272 M139.127,93.072h-7.186V64.046h7.186V93.072z"/>
	<path d="M146.831,69.476h-5.039v-5.429h5.039v-7.782h7.185v7.782h7.184v5.429h-7.184v15.036c0,2.352,1.44,3.394,3.807,3.394
		c1.441,0,3.099-0.521,4.104-1.181v5.955c-1.224,0.652-3.167,1.041-5.394,1.041c-5.681,0-9.703-2.738-9.703-8.492V69.476z"/>
	<path d="M192.701,84.044c-1.081,5.761-5.754,9.677-13.443,9.677c-8.919,0-15.104-6.143-15.104-15.1
		c0-8.697,6.257-15.23,14.962-15.23c8.981,0,13.873,5.815,13.873,14.318v2.352h-21.791c0.221,5.103,3.459,8.168,8.06,8.168
		c3.451,0,6.031-1.364,6.822-4.185H192.701z M171.419,75.293h14.451c-0.07-3.532-2.297-6.407-6.683-6.407
		C175.229,68.886,172.277,71.102,171.419,75.293"/>
	<path d="M195.312,66.496v-0.019h0.496c0.267-0.006,0.571,0.009,0.738,0.165c0.085,0.09,0.125,0.207,0.125,0.359
		c0,0.522-0.521,0.522-0.863,0.522h-0.476L195.312,66.496z M194.7,65.964v3.576l0.634-0.028l-0.021-1.452l0.496-0.018
		c0.021,0.014,0.909,1.484,0.909,1.484s0.56-0.011,0.628-0.014c-0.031-0.059-0.927-1.518-0.927-1.518h0.028
		c0.311-0.039,0.842-0.217,0.842-0.968c0-0.705-0.414-1.062-1.237-1.062H194.7z M193.294,67.762c0-1.438,1.161-2.615,2.583-2.615
		c1.428,0,2.581,1.177,2.581,2.615c0,1.437-1.153,2.608-2.581,2.608C194.455,70.37,193.294,69.199,193.294,67.762 M192.787,67.762
		c0,1.722,1.387,3.122,3.09,3.122c1.706,0,3.094-1.4,3.094-3.122c0-1.726-1.388-3.122-3.094-3.122
		C194.174,64.64,192.787,66.036,192.787,67.762"/>
</g>
</svg>
