<?xml version="1.0" encoding="utf-8"?>
<!-- Generator: Adobe Illustrator 21.1.0, SVG Export Plug-In . SVG Version: 6.00 Build 0)  -->
<svg version="1.1" id="Layer_1" xmlns="http://www.w3.org/2000/svg" xmlns:xlink="http://www.w3.org/1999/xlink" x="0px" y="0px"
	 viewBox="0 0 319.2 24.7" style="enable-background:new 0 0 319.2 24.7;" xml:space="preserve">
<style type="text/css">
	.st0{fill:#464B59;}
	.st1{clip-path:url(#SVGID_2_);fill:#464B59;}
</style>
<polygon class="st0" points="143.6,15.3 134.7,4.2 134.7,24.3 136.7,24.3 136.7,9.7 143.6,18.6 150.6,9.7 150.6,24.3 152.7,24.3 
	152.7,4.1 "/>
<polygon class="st0" points="83.8,15.3 74.8,4.2 74.8,24.3 76.8,24.3 76.8,9.7 83.8,18.6 90.7,9.7 90.7,24.3 92.8,24.3 92.8,4.1 "/>
<polygon class="st0" points="90.7,0.7 83.8,9.9 76.8,0.7 71.6,0.7 71.6,24.3 73.4,24.3 73.4,2.4 75.3,2.4 83.8,13.3 92.4,2.4 
	94.2,2.4 94.2,24.3 96,24.3 96,0.7 "/>
<polygon class="st0" points="150.6,0.7 143.6,9.9 136.7,0.7 131.4,0.7 131.4,24.3 133.3,24.3 133.3,2.4 135.1,2.4 143.6,13.3 
	152.2,2.4 154.1,2.4 154.1,24.3 155.8,24.3 155.8,0.7 "/>
<g>
	<defs>
		<rect id="SVGID_1_" y="0" width="319.2" height="24.7"/>
	</defs>
	<clipPath id="SVGID_2_">
		<use xlink:href="#SVGID_1_"  style="overflow:visible;"/>
	</clipPath>
	<path class="st1" d="M113.7,19.7c-4,0-7.3-3.3-7.3-7.3c0-4,3.3-7.3,7.3-7.3c4,0,7.3,3.3,7.3,7.3C121,16.4,117.7,19.7,113.7,19.7
		 M113.7,3.3c-5,0-9.1,4.1-9.1,9.1c0,5,4.1,9.1,9.1,9.1c5,0,9.1-4.1,9.1-9.1C122.8,7.4,118.7,3.3,113.7,3.3"/>
	<path class="st1" d="M113.7,22.8c-5.8,0-10.4-4.7-10.4-10.4c0-5.8,4.7-10.4,10.4-10.4c5.7,0,10.4,4.7,10.4,10.4
		C124.1,18.1,119.4,22.8,113.7,22.8 M113.7,0.2c-6.7,0-12.2,5.5-12.2,12.1c0,6.7,5.5,12.1,12.2,12.1c6.7,0,12.1-5.4,12.1-12.1
		C125.8,5.7,120.4,0.2,113.7,0.2"/>
	<polygon class="st1" points="12.1,4.9 12.1,24.2 7.5,24.2 7.5,4.9 0,4.9 0,0.5 19.6,0.5 19.6,4.9 	"/>
	<polygon class="st1" points="38.9,24.2 38.9,14.4 28.6,14.4 28.6,24.2 24,24.2 24,0.5 28.6,0.5 28.6,10 38.9,10 38.9,0.5 43.6,0.5 
		43.6,24.2 	"/>
	<polygon class="st1" points="50.1,24.2 50.1,0.5 65,0.5 65,4.8 54.7,4.8 54.7,10.3 64,10.3 64,14.4 54.7,14.4 54.7,19.8 65,19.8 
		65,24.2 	"/>
	<path class="st1" d="M172.1,11.3c2.3,0,3.7-1.3,3.7-3.4c0-2.1-1.4-3.4-3.7-3.4h-3.6v6.8H172.1z M168.5,15.3v8.9h-4.6V0.5h8.9
		c4.7,0,7.8,3.1,7.8,7.4c0,4.3-3.1,7.4-7.8,7.4H168.5z"/>
	<path class="st1" d="M193.5,11.1c2.3,0,3.7-1.3,3.7-3.3c0-2-1.4-3.3-3.7-3.3h-3.7v6.6H193.5z M192.2,15.1h-2.4v9.1h-4.6V0.5h9.3
		c4.6,0,7.6,3.2,7.6,7.3c0,3.3-1.9,5.8-5,6.7l5.1,9.7h-5.1L192.2,15.1z"/>
	<path class="st1" d="M217.8,20.2c3.7,0,7.4-2.5,7.4-7.9c0-5.3-3.7-7.9-7.4-7.9c-3.6,0-7.4,2.5-7.4,7.9
		C210.4,17.7,214.1,20.2,217.8,20.2 M217.8,0c6.4,0,12.2,4.7,12.2,12.4c0,7.6-5.7,12.3-12.2,12.3c-6.4,0-12.2-4.7-12.2-12.3
		C205.6,4.7,211.3,0,217.8,0"/>
	<path class="st1" d="M233.1,15.4h4.4v1.4c0,2.4,1.4,3.5,3.3,3.5c1.9,0,3.1-1.4,3.1-3.4V0.5h4.6v16.4c0,4.3-3.1,7.8-7.7,7.8
		c-4.7,0-7.8-3.1-7.8-7.7V15.4z"/>
	<polygon class="st1" points="254.9,24.2 254.9,0.5 269.7,0.5 269.7,4.8 259.5,4.8 259.5,10.3 268.7,10.3 268.7,14.4 259.5,14.4 
		259.5,19.8 269.7,19.8 269.7,24.2 	"/>
	<path class="st1" d="M274,12.4C274,4.8,279.7,0,286,0c6.5,0,9.9,4,10.9,7.9l-4.3,1.4c-0.6-2.3-2.4-4.8-6.5-4.8
		c-3.5,0-7.3,2.5-7.3,7.9c0,5,3.5,7.8,7.4,7.8c4,0,6-2.6,6.6-4.8l4.3,1.3c-0.9,3.6-4.3,8.1-11,8.1C279.5,24.7,274,19.9,274,12.4"/>
	<polygon class="st1" points="311.7,4.9 311.7,24.2 307.1,24.2 307.1,4.9 299.6,4.9 299.6,0.5 319.2,0.5 319.2,4.9 	"/>
</g>
</svg>
