<?xml version="1.0" encoding="utf-8"?>
<!-- Generator: Adobe Illustrator 18.1.1, SVG Export Plug-In . SVG Version: 6.00 Build 0)  -->
<svg version="1.1" id="case-study-marks_xA0_Image_1_"
	 xmlns="http://www.w3.org/2000/svg" xmlns:xlink="http://www.w3.org/1999/xlink" x="0px" y="0px" viewBox="0 0 339.9 148"
	 enable-background="new 0 0 339.9 148" xml:space="preserve">
<path fill-rule="evenodd" clip-rule="evenodd" d="M131.5,3.9c0.9-0.1,1.7-0.4,2.4-0.4c7,0.1,14.1,0.1,21.1,0.3
	c2.9,0.1,5.7,0.3,8.5,1.5c5.8,2.5,9.2,6.7,10,13c0.2,1.3,0.1,2.6,0.2,3.8c0.1,2.7-0.6,5.1-2.1,7.2c-0.7,0.9-1.3,1.8-2,2.7
	c-1.1,1.7-1.3,3.6-0.3,5.4c2.5,4.6,4.6,9.4,7.6,13.8c6.5,9.8,8,20.3,3.2,31.4c-0.6,1.3-1.2,2.6-1.5,4c-0.6,2.5-0.6,5.1,0.6,7.5
	c4.1,8.5,3.4,17.3,1.9,26.3c-1.6,9.7-7.6,15.1-16.3,18.2c-2.4,0.8-4.9,1.4-7.4,1.7c-8.7,1.1-17.5,0.9-26.3,0.9
	c-0.4,0-0.9-0.3-1.6-0.5c-0.4-3.9-0.5-7.9-0.4-11.9c0.1-3,0.2-6.1,0.2-9.1c0.1-4.8-0.2-9.6-0.9-14.3c-0.6-4.6-1.1-9.2-1.3-13.8
	c-0.1-3,0.2-6.1,0.8-9c1.4-6.3,2.4-12.5,3.1-18.9c0.8-7.5,1.8-14.9,3.1-22.3c1-5.6,1-11.1,0-16.7c-0.6-3.5-1.4-6.9-2-10.4
	c-0.4-2.5-0.6-5.1-0.7-7.6C131.2,5.9,131.4,4.9,131.5,3.9z M143.6,94.6c0,0.9-0.1,1.8,0,2.7c0.9,8.9,1.6,17.8,1.4,26.8
	c0,0.3,0,0.6,0,1c0.1,0.9,0.3,1.8,0.5,2.8c3.1,0.2,5.9,0.1,8.8-0.4c4.9-0.8,8.1-3.5,10-8c1.5-3.6,1.9-7.4,1.8-11.2
	c-0.1-4.2-1.7-7.7-4.3-10.9c-1.7-2-3.9-3.3-6.4-4C152.4,92.6,147.3,93.2,143.6,94.6z M147.8,58.5c-0.4,1.6-0.8,2.6-0.9,3.7
	c-0.2,6.9-1.6,13.6-3,20.3c-0.2,0.9,0,1.8,0,3c2.1,0.4,4.1,0.8,6.1,1.2c2.8,0.6,5.3-0.1,7.7-1.7c6.5-4.2,8.9-9.7,7.2-18.1
	c-0.9-4.6-4.3-7.5-9-8C153.4,58.7,150.8,58.7,147.8,58.5z M10.2,106.9c2.9,2.9,4.8,6.3,6,10.2c0.6,2,1.3,3.9,1.9,5.9
	c2.2,6.9,5.4,13.3,8,20.2c5.5-0.2,10.7,0.1,16-0.5c0.6-1.3,1.1-2.5,1.6-3.6c2.4-6.1,4.6-12.3,7.3-18.3c3.8-8.5,5.9-17.5,7.7-26.6
	c0.3-1.6,0.4-3.2,0.3-4.8c-0.2-2.9-0.5-5.8-1-8.6c-1-5.1-0.8-10.2,0.1-15.3c1.1-6,2.4-11.9,3.5-17.9c0.5-2.8,0.5-5.7,1.1-8.6
	c0.7-3.5,0.7-7,0.7-10.5c0-7.8-0.7-15.7,1-23.4c0.1-0.5-0.1-1.2-0.2-1.9c-5.3-0.1-10.4-0.5-15.5,0.2c-0.3,1-0.7,1.7-0.8,2.4
	c-0.4,3.5-0.9,7-1,10.5c-0.1,9.3,0,18.5-1.3,27.8c-0.6,4.6-1.1,9.2-2,13.8c-1.6,7.6-2.3,15.2-1.5,22.9c0.2,2.1,0.4,4.1,0.7,6.2
	c0.4,3.2,0.3,6.4-0.3,9.5c-0.8,3.8-1.5,7.5-2.2,11.3c-1.1,5.9-3.3,11.3-5.7,16.7c-0.1,0.2-0.5,0.4-0.9,0.7c-1-3.4-2-6.8-3-10.1
	c-0.7-2.5-1.7-4.8-3.5-6.8c-3.7-4.2-5.4-9.4-7.2-14.5c-1.1-3.1-0.5-6,0.9-8.8c0.8-1.6,1.8-3,2.8-4.4c3.8-5,5.6-10.6,5.8-17
	c0.2-7.7,0.7-15.3,2.2-22.9c1.1-5.6,0.9-11.2-0.9-16.6c-2.2-6.8-4.7-13.6-7.1-20.3c0-0.1-0.2-0.2-0.3-0.4C17.7,2.7,11,2.9,7.9,3.9
	c0.9,4.1,2.7,7.8,4.3,11.6c1.6,3.7,3,7.4,4.2,11.2c1.4,4.5,1.5,9.2,0.5,13.8c-1.8,7.8-2.3,15.8-2.6,23.8c-0.2,5.5-2,10.3-5.4,14.6
	c-1.1,1.4-2.3,2.7-3.3,4.1c-1,1.4-2.1,2.8-1.8,4.8c2.4,1.6,5.8,0.8,8,3.1c-2.4,2.3-5.8,1.1-8,2.9C4.5,98.2,7,103.6,10.2,106.9z
	 M266.1,91.4c0.4-4,0.9-7.9,1.3-11.9c0.5-4.4,2.2-8.3,3.9-12.3c1.6-3.8,4.2-6.8,7.6-9c4.8-3.1,10-5.1,15.6-5.8
	c7.7-1,15.3-0.5,22.7,2.3c2.4,0.9,4.7,2.1,6.8,3.4c5.5,3.5,8.4,8.7,8.9,15.1c0.2,2.4,0.1,4.8-0.3,7.2c-0.7,4-0.9,7.9-0.7,11.9
	c0.1,1.9,0.1,3.8,0.1,5.8c0,3.4-0.9,6.6-2.3,9.7c-1.1,2.2-2.1,4.3-3,6.5c-1.1,2.7-1.9,5.5-1.6,8.4c0.3,3-1,5.3-2.9,7.3
	c-5,5.1-11,8.2-18,9.2c-10.4,1.4-19.6-1.3-27.4-8.6c-1.9-1.8-3.3-3.8-3.7-6.5c-0.3-2-0.8-4.1-1.7-6
	C267.3,109.6,265.8,100.7,266.1,91.4z M282.5,90.8c-0.3,3.8-0.4,7.3,0.6,10.8c1.5,5.6,4.4,10.2,9.3,13.5c4,2.7,8.2,2.6,12.1,0
	c3.8-2.5,6.8-5.8,9.2-9.6c1.3-2.1,2-4.4,2.1-6.8c0.1-2.1,0-4.2-0.2-6.2c-0.4-3.7-0.2-7.3,0.5-11c0.2-0.8,0.4-1.6,0.4-2.4
	c0.3-5.4-1-10.2-5.4-13.7c-5.6-4.3-15.3-3.9-20.4,1c-3.1,3-5.5,6.6-6.6,10.9C282.8,81.9,282.3,86.5,282.5,90.8z M227,109.8
	c4.1-0.4,8.3-0.7,12.4-1.1c0.9-0.1,1.8-0.4,2.6-0.6c1-2.4,0.5-4.7,0.2-6.9c-0.3-2.3,0.2-4.8-1.2-7c-6-0.4-11.8,1.7-17.8,1.1
	c-1-4.1-1-8.1-0.1-12c1.3-5.5,2-11,2.6-16.5c0.2-1.6,0.1-3.2,1.1-4.8c1.1,0,2.4-0.2,3.7-0.1c3.8,0.1,7.7,0.3,11.5,0.4
	c1.1,0,2.2-0.2,3.3-0.3c0.7-4.1,1.9-7.9,1.7-12.1c-0.9-0.2-1.7-0.4-2.4-0.5c-9.7-1-19.4-1.9-29.1-2.9c-0.7-0.1-1.5,0.2-2.5,0.3
	c-0.9,6.2-1.8,12.1-2.6,18.1c-0.7,5.2-1.2,10.5-2.3,15.6c-0.8,4-1.2,7.9-0.9,11.9c0.4,6.8,0.9,13.7,0.8,20.6
	c-0.2,7.8,0.5,15.6,0.8,23.5c0,1.1,0.3,2.1,0.5,3.3c1.1,0.1,2.1,0.3,3,0.3c9.6-0.2,19.2-0.4,28.8-0.6c0.7,0,1.5-0.3,2.5-0.5
	c0-2.7,0.1-5.3,0-7.8c-0.2-2.6,0.8-5.4-0.7-8.1c-6.1-0.3-12,1.9-18.3,0.9c-1-4.5-1-8.9-1-13.5C224.9,110.2,225.9,109.9,227,109.8z
	 M102.2,136.4c0.1-4.5,0.2-8.9,0.3-13.4c0.1-3.4,0.2-6.7,0.3-10.1c0-1.1,0.1-2.3-0.3-3.3c-1.5-4.5-1.5-9.1-2.1-13.7
	c-0.7-5.2-0.3-10.1,1-15.2c1.1-4.2,1.7-8.5,2.3-12.7c1.2-8.9,2-17.8,3.3-26.6c0.9-5.8,0.9-11.4,0-17.2c-1-6.3-2.7-12.5-2.7-19
	c0-0.6-0.4-1.1-0.8-1.9c-4.9,0-9.8-0.4-14.9,0.3c-0.6,2.8-0.3,5.3,0.1,7.8c0.6,3.6,1.3,7.2,1.9,10.9c1,6.2,1.3,12.3,0.4,18.6
	c-1.3,8.9-2.1,17.8-3.4,26.6c-0.7,4.7-1.7,9.4-2.5,14.1c-0.4,2.5-1.2,5.1-1.1,7.5c0.2,5.7,0.5,11.5,1.6,17.2c0.8,4,1.1,7.9,1,11.9
	c-0.2,7-0.2,14.1-0.3,21.1c0,0.9,0.4,1.8,0.6,2.9c5-0.1,9.8-0.3,15.2-0.4C102.1,139.6,102.1,138,102.2,136.4z M230.3,20.8
	c5.4-1,11-1.5,16.7-2.8c-0.4-2.3-0.8-4.4-1-6.4c-0.3-2.2-0.4-4.4-0.6-6.6c-4.1-1-7.9-0.5-11.7-0.6c-3.7-0.1-7.3-0.2-11-0.1
	c-3.8,0.1-7.6-0.6-11.3,0.4c-0.7,5.4,0.8,14.3,3.3,19.4C219.8,23,225,21.8,230.3,20.8z M309.7,14.2c2-1.2,3.5-2.7,3.5-5.3
	c0-2.5-1.7-3.7-3.7-4.5c-5.4-2.4-10.8-2.2-16.2,0.3c-1.8,0.8-3.3,2.1-3.4,4.3c-0.1,2.3,1.3,3.8,3.1,5c0.7,0.4,1.4,0.8,2.2,1
	c2.2,0.5,4.3,0.8,6.5,1.2C305.4,15.7,307.8,15.2,309.7,14.2z M229.3,76.6c-0.3,0.1-0.6,0.3-0.8,0.4c-0.5,0.3-0.5,1.4,0,1.6
	c0.8,0.4,1.7,0.8,2.6,1.1c3.5,0.9,6.8,2.3,10.5,2.2c1.4-2,1.3-4.1,1.2-6.7C237.9,75,233.6,75.9,229.3,76.6z"/>
</svg>
