<?xml version="1.0" encoding="utf-8"?>
<!-- Generator: Adobe Illustrator 16.0.4, SVG Export Plug-In . SVG Version: 6.00 Build 0)  -->
<!DOCTYPE svg PUBLIC "-//W3C//DTD SVG 1.1//EN" "http://www.w3.org/Graphics/SVG/1.1/DTD/svg11.dtd">
<svg version="1.1" id="Layer_1" xmlns="http://www.w3.org/2000/svg" xmlns:xlink="http://www.w3.org/1999/xlink" x="0px" y="0px"
	 width="362px" height="226px" viewBox="0 0 362 226" enable-background="new 0 0 362 226" xml:space="preserve">
<g>
	<path d="M124.297,33.896l-48.385-0.001c-5.273,0-9.565,4.292-9.565,9.567c0,5.273,4.292,9.565,9.565,9.565l48.385,0.001
		c5.274,0,9.566-4.291,9.566-9.566S129.571,33.896,124.297,33.896z"/>
	<path d="M151.676,72.616l-43.286,88.708c-1.704,2.949-4.879,4.783-8.286,4.783c-3.406,0-6.58-1.834-8.283-4.783L48.535,72.616
		c-2.638-4.567-1.066-10.431,3.501-13.067c1.454-0.839,3.106-1.283,4.776-1.283c3.412,0,6.589,1.833,8.29,4.785l35.001,74.357
		l35.004-74.357c1.703-2.952,4.878-4.785,8.29-4.785c1.672,0,3.322,0.444,4.778,1.283c2.213,1.279,3.797,3.342,4.458,5.809
		C153.293,67.825,152.954,70.404,151.676,72.616z M312.54,65.357c-0.66-2.467-2.243-4.529-4.455-5.809
		c-1.455-0.839-3.106-1.283-4.778-1.283c-3.41,0-6.589,1.833-8.291,4.785l-35.002,74.357L225.012,63.05
		c-1.703-2.952-4.879-4.785-8.289-4.785c-1.673,0-3.322,0.444-4.777,1.283c-4.566,2.637-6.141,8.5-3.502,13.067l43.285,88.708
		c1.703,2.948,4.877,4.782,8.285,4.782c3.406,0,6.58-1.834,8.284-4.782l43.287-88.708C312.861,70.404,313.201,67.825,312.54,65.357z
		 M180.423,58.398c-5.256,0-9.531,4.275-9.531,9.529v88.603c0,5.254,4.275,9.529,9.531,9.529c5.257,0,9.531-4.275,9.531-9.529
		V67.928C189.954,62.674,185.68,58.398,180.423,58.398z"/>
</g>
</svg>
