<?xml version="1.0" encoding="utf-8"?>
<!-- Generator: Adobe Illustrator 16.0.4, SVG Export Plug-In . SVG Version: 6.00 Build 0)  -->
<!DOCTYPE svg PUBLIC "-//W3C//DTD SVG 1.1//EN" "http://www.w3.org/Graphics/SVG/1.1/DTD/svg11.dtd">
<svg version="1.1" id="Layer_1" xmlns="http://www.w3.org/2000/svg" xmlns:xlink="http://www.w3.org/1999/xlink" x="0px" y="0px"
	 width="197px" height="62px" viewBox="-12.833 -10.65 197 62" enable-background="new -12.833 -10.65 197 62" xml:space="preserve"
	>
<g>
	<g>
		<path d="M111.7,28.5v2c0,2.6,0.899,3.801,2.899,3.801s3.2-1.201,3.2-3.801v-9.3C116,23,115,23.8,112.2,23.8
			c-4,0-7.2-2.301-7.2-8.101V11c0-8.3,2.8-12.1,9.6-12.1c6.801,0,9.601,3.4,9.601,10.8v19c0,7.5-2.8,10.8-9.601,10.8
			c-5.399,0.1-8.8-3.699-8.8-8.8V28.3L111.7,28.5L111.7,28.5z M117.8,8.099c0-2.6-1.1-3.799-3.2-3.799c-2,0-3.199,1.199-3.199,3.799
			V14.7c0,2.601,1.1,3.8,2.8,3.8c1.2,0,2.7-1.1,3.5-1.8L117.8,8.099L117.8,8.099z"/>
		<path d="M132.3,7.7H127V4c3-1.5,5.8-3.199,8.1-5.1h3.4v40.199h-6.1V7.7H132.3z"/>
		<path d="M141.6,39.099v-6.5h6.5v6.5H141.6z"/>
		<path d="M156.8,27.599V30.8c0,2.199,1.2,3.399,3,3.399c2.2,0,3.4-1.3,3.4-4.8v-9c0-2.6-1.3-3.6-2.8-3.6
			c-2.101,0-3.101,1.399-3.7,3h-5.2C151.7,13.7,152,8.8,152-0.5h16.5l-0.2,5.6h-10.7L157.2,13.7l0.1,0.101
			c1.7-2,3.101-2.301,5.2-2.301c5.2,0,7.2,3.801,7.2,10.4v5.5c0,8.3-2.601,12.3-9.2,12.3c-5.5,0-9.8-2.399-9.8-9v-3.101H156.8z"/>
	</g>
	<g>
		<path d="M15.5-0.1h5.6L25.7,25h0.1l3.8-25.1h6.3l-7,39.4h-5.7l-4.9-26h-0.1l-4.6,26H8L0.5,0h6.3l4.1,25H11L15.5-0.1z"/>
		<path d="M37.7-0.1h10c7.2,0,10.5,3.699,10.5,10.4c0,3.399-1.4,6.899-4.7,8.199c3.4,1.5,5.4,4.2,5.4,9.301
			C58.9,34.3,56,39.2,48.3,39.2H37.7V-0.1z M44.5,16.099H47c2.6,0,4.5-1.699,4.5-5c0-3.6-1.4-5.6-4.4-5.6h-2.6V16.099z M44.5,33.7
			h2.8c3.6,0,4.9-2.101,4.9-6c0-4-1.5-6-5.6-6h-2.2v12H44.5z"/>
		<path d="M61.6,39.3V0h18.1v5.9H68.3V16H77v5.9h-8.7v11.5h12.1v5.9H61.6L61.6,39.3z"/>
		<path d="M83.7,5.8v-5.9H101.6v6.4L89.2,33.3H101.6V39.2H82.1V32.8l12.6-27H83.7z"/>
	</g>
</g>
</svg>
