<?xml version="1.0" encoding="utf-8"?>
<!-- Generator: Adobe Illustrator 16.0.4, SVG Export Plug-In . SVG Version: 6.00 Build 0)  -->
<!DOCTYPE svg PUBLIC "-//W3C//DTD SVG 1.1//EN" "http://www.w3.org/Graphics/SVG/1.1/DTD/svg11.dtd">
<svg version="1.1" id="Layer_1" xmlns="http://www.w3.org/2000/svg" xmlns:xlink="http://www.w3.org/1999/xlink" x="0px" y="0px"
	 width="612px" height="612px" viewBox="0 0 612 612" enable-background="new 0 0 612 612" xml:space="preserve">
<g>
	<path d="M546.99,254.041c7.305-0.154,13.862,2.733,19.564,7.849c8.061,7.234,8.624,13.054,15.582,16.492
		c5.483,2.708,14.348,5.748,18.804,10.989c6.171,7.218,7.909,16.398,3.461,26.707c-4.435,10.306-9.007,14.528-10.535,15.947
		c-1.399,1.309-1.956,1.435-2.709,0.753c-0.745-0.673-0.58-1.311,0.158-2.257c0.489-0.636,4.903-6.419,4.123-13.407
		c-1-8.853-3.882-9.279-2.998-12.028c0.771-2.404,2.846-1.792,2.708-4.527c-0.205-3.685-1.835-6.713-7.629-8.596
		c-5.794-1.881-8.848-2.108-18.629-9.227c-10.354-7.509-18.41-13.806-30.901-9.811c-12.491,3.985-17.71,11.246-19.587,15.989
		c-1.885,4.736-1.786,7.266-0.674,10.226c0.846,2.276,1.502,4.536-0.609,6.325c-3.263,2.771-6.894,5.509-7.239,16.23
		c-0.097,3.038,0.521,6.197,0.838,7.549c0.305,1.267,0.606,2.035-0.067,2.407c-0.678,0.374-1.282,0.521-2.858-1.729
		c-1.584-2.262-8.447-13.318-7.085-23.779c1.217-9.413,4.478-12.515,9.938-18.034c3.023-3.077,6.928-6.562,11.067-16.057
		C526.646,260.749,535.562,254.276,546.99,254.041"/>
	<path d="M532.891,303.099c3.283,0.988,5.689,4.364,6.32,6.499c0.496,1.635,1.072,4.667-0.905,6.892
		c-1.705,1.919-3.466,3.87-4.628,7.524c-0.845,2.664-1.151,5.42-1.219,11.129c-0.057,4.544,0.113,9.291,1.658,13.401
		c0.701,1.856,0.519,2.22,0.092,2.492c-0.563,0.374-1.102,0.489-2.525-1.156c-1.361-1.576-7.578-9.342-9.513-17.203
		c-1.491-6.061-1.672-10.324-1.339-15.809c0.326-5.483,1.097-8.55,3.817-11.026C527.229,303.508,530.241,302.3,532.891,303.099"/>
	<path d="M555.167,304.618c3.419-0.406,5.522,2.527,6.169,3.659c1.377,2.439,3.534,8.018,3.345,13.979
		c-0.158,5.1-1.643,14.08-3.931,19.075c-2.285,4.995-3.297,6.803-5.261,9.568c-1.97,2.76-4.628,5.315-5.629,6.162
		c-1.014,0.852-1.967,1.277-2.548,0.479c-0.591-0.794,0.149-1.693,0.581-2.287c0.426-0.579,2.152-3.387,3.188-8.077
		c0.797-3.611,2.098-8.228,0.217-15.488c-1.436-5.494-2.642-7.938-3.891-11.083c-0.919-2.35-1.847-5.572-0.549-8.964
		C547.795,309.187,551.299,305.075,555.167,304.618"/>
	<path d="M576.451,302.489c3.142-0.779,5.392,0.861,6.431,2.34c1.027,1.478,3.463,7.648,3.424,12.002
		c-0.038,4.344-0.042,8.66-2.109,14.853c-1.927,5.799-4.104,8.717-6.319,11.168c-1.88,2.06-3.297,3.163-4.023,3.644
		c-0.736,0.479-1.502,0.646-2.072-0.101c-0.496-0.646-0.458-1.262,0.599-2.335c0.751-0.767,2.831-2.717,3.509-5.677
		c0.725-3.155,0.679-7.909-0.157-12.277c-0.521-2.749-1.867-6.151-4.171-9.715c-1.352-2.121-1.897-4.565-1.292-7.335
		C570.903,306.096,573.028,303.325,576.451,302.489"/>
	<path d="M490.646,265.891v-2.551h1.676c0.857,0,1.768,0.195,1.768,1.21c0,1.261-0.935,1.341-1.97,1.341H490.646z M493.268,266.884
		c1.195-0.147,2.111-0.788,2.111-2.265c0-1.621-0.949-2.33-2.873-2.33h-3.088v8.223h1.228v-3.564h1.414l2.144,3.564h1.374
		L493.268,266.884z M492.138,272.342c-3.221,0-5.735-2.529-5.735-5.962c0-3.382,2.515-5.92,5.735-5.92
		c3.179,0,5.696,2.538,5.696,5.92C497.834,269.812,495.316,272.342,492.138,272.342 M492.138,259.271
		c-3.88,0-7.156,3.018-7.156,7.108c0,4.132,3.276,7.145,7.156,7.145c3.833,0,7.109-3.013,7.109-7.145
		C499.247,262.29,495.971,259.271,492.138,259.271 M322.538,290.79c-0.318,3.975-3.73,7.319-6.678,7.319h-5.235v-23.243h5.398
		c5.565,0,6.637,5.121,6.674,6.74C322.779,285.343,322.821,287.194,322.538,290.79 M341.778,346.036v-23.08
		c-0.324-14.779-6.999-16.246-9.696-17.707c0.947-1.136,9.696-2.765,9.854-17.219v-7.797c-0.481-21.939-18.858-20.715-22.897-20.961
		h-28.459v95.051h20.046v-40.624h5.717c4.377,0,5.807,4.311,5.718,10.479l0.009,21.461c0,2.84,0.312,6.493,1.503,8.685h19.797
		C341.778,350.668,341.854,349.129,341.778,346.036 M122.729,334.061c0,3.363-2.668,6.094-5.959,6.094
		c-3.289,0-5.965-2.73-5.965-6.094v-54.926c0-3.371,2.676-6.093,5.965-6.093c3.291,0,5.959,2.722,5.959,6.093V334.061z
		 M117.082,257.805c-14.251,0-26.127,10.021-26.127,23.563v50.868c0,13.538,11.241,23.553,25.502,23.553
		c14.253,0,26.112-10.13,26.112-23.684v-50.737C142.568,267.825,131.333,257.805,117.082,257.805 M241.087,259.271v95.051h45.47
		v-17.713h-25.121V313.86h20.034v-16.893h-19.715V276.49h21.944v-17.219H241.087z M373.392,259.271v95.051h20.035v-48.259
		l12.715,48.259h22.896v-95.051H409v48.742l-13.345-48.742H373.392z M434.938,259.271v95.051h45.455v-17.713h-25.104V313.86h20.018
		v-16.893h-19.704V276.49h21.929v-17.219H434.938z M182.694,259.271l14.471,95.051h25.433l14.621-95.051h-21.303l-5.723,63.364
		l-6.669-63.364H182.694z M147.98,259.271v95.051h43.085V336.94h-22.891v-77.669H147.98z M5.112,259.271l14.148,95.051h24.485
		l4.29-48.584l4.771,48.584h24.802l13.197-95.051h-20.67l-6.356,64.994l-6.041-64.994H38.345l-6.046,64.994l-6.041-64.994H5.112z
		 M347.125,354.322h20.356v-95.051h-20.356V354.322z"/>
</g>
</svg>
