<svg xmlns="http://www.w3.org/2000/svg" id="Layer_2_1_" x="0" y="0" version="1.1" viewBox="0 0 169 169" xml:space="preserve">
  <defs/>
  <style>
    .st0{fill:none;stroke:#000;stroke-width:5;stroke-linecap:round;stroke-miterlimit:10}.st0,.st1{display:none}.st2,.st3{fill:none;stroke-width:5;stroke-linecap:round;stroke-miterlimit:10}.st2{display:inline;stroke:#000}.st3{stroke:#fff;stroke-linejoin:round}.st4{fill:#fff}
  </style>
  <path d="M-165.3 108.7h64.9m-64.9 13.2h64.9m-57.3-57l15.4-19.7 16.3 19.7" class="st0"/>
  <path d="M-129.8 60.4l7.8-9.9 11.9 14.4s3 3.3 5.3 6.5c1.9 2.7.1 5.9-2.4 5.9h-46.5c-1.3 0-2.5 0-4 .1-2.3.2-4.2 2.4-4.2 5.2 0 2.6 2.6 3.7 4.8 3.8 1 .1 1.7 0 2.6 0h37.4" class="st0"/>
  <circle cx="-109.6" cy="86.4" r="2.8" class="st1"/>
  <path d="M-186.5 27.8h107.3v126.1h-107.3V27.8z" class="st0"/>
  <path d="M-174.7 14.7H-66v125.8" class="st0"/>
  <g class="st1">
    <path d="M-393.7 34.2s20.2-24.6 54.3-23.5S-288.9 36-288.9 36" class="st2"/>
    <path d="M-394.6 58.3s17.3-33.4 53.3-32.5c36.1.9 49.8 30.8 49.8 30.8" class="st2"/>
    <path d="M-396.2 82.2s9.1-9.4 21.5-25.7 40.9-21.5 58.1-9.7c17.2 11.9 19.8 26.8 19.8 26.8s3.1 11.4-1.8 29 5.3 23.3 5.3 23.3" class="st2"/>
    <path d="M-398.1 104.7s18.5-16 28.8-31.8 29.8-20.6 44.5-12c14.7 8.7 15.8 23.7 11 41.4-4.8 17.6 4.4 37.8 10.3 38.2" class="st2"/>
    <path d="M-392.5 123.1c10.9-8.3 24.5-24.2 31.3-35.8 4.9-8.4 13.3-17.1 24-14.9 5.9 1.2 11.8 6 12 12 .1 2.5-.1 4.1-1.6 6.1s-3.3 3.8-5.3 5.3c-2.9 2.2-6.2 4-9.2 6.1-5.7 4.2-11.1 8.9-16 14.1-3.9 4.1-19 22.9-23.1 27.9m13.8 11.4c4.9-8 10.5-15.5 16.5-22.6 5.9-7 12-14.1 19.4-19.5m-17.9 45.1s6-20.4 24.4-27.1m39.4-60.6s6.2 20.6-2 39" class="st2"/>
  </g>
  <path d="M2.6 81.2h43.8V150H2.6V81.2z" class="st3"/>
  <path d="M20.1 68.7V19h146.3v105.6H60.9m-.1-22.6h92.6m-89.5 48h60.7M19.5 89.6h9.9" class="st3"/>
  <circle cx="12.4" cy="89.6" r="2.5" class="st4"/>
  <path d="M78.1 124.6s.8 25.3-3.1 25.3m34.7-25.3s-.8 25.3 3.1 25.3" class="st3"/>
  <circle cx="24.4" cy="138.7" r="3.9" class="st4"/>
  <circle cx="93.3" cy="113.3" r="3.9" class="st4"/>
</svg>