<svg xmlns="http://www.w3.org/2000/svg" id="Layer_2_1_" x="0" y="0" version="1.1" viewBox="0 0 169 169" xml:space="preserve">
  <defs/>
  <style>
    .st0{fill:none;stroke:#fff;stroke-width:5;stroke-linecap:round;stroke-miterlimit:10}.st2{display:none}.st3,.st4{fill:none;stroke:#000;stroke-width:5;stroke-linecap:round;stroke-miterlimit:10}.st3{display:inline}.st4{stroke-linejoin:round}.st4,.st5{display:inline}
  </style>
  <path d="M43.9 108.7h64.9m-64.9 13.2h64.9m-57.3-57l15.3-19.7 16.3 19.7" class="st0"/>
  <path d="M79.4 60.4l7.8-9.9 11.9 14.4s3 3.3 5.3 6.5c1.9 2.7.1 5.9-2.4 5.9H55.5c-1.3 0-2.5 0-4 .1-2.3.2-4.2 2.4-4.2 5.2 0 2.6 2.6 3.7 4.8 3.8 1 .1 1.7 0 2.6 0h37.4" class="st0"/>
  <circle cx="99.6" cy="86.4" r="2.8" fill="#fff" stroke="#fff" stroke-miterlimit="10"/>
  <path d="M22.7 27.8H130v126.1H22.7V27.8z" class="st0"/>
  <path d="M34.5 14.7h108.7v125.8" class="st0"/>
  <g class="st2">
    <path d="M-184.5 34.2s20.2-24.6 54.3-23.5S-79.7 36-79.7 36" class="st3"/>
    <path d="M-185.5 58.3s17.3-33.4 53.3-32.5c36.1.9 49.8 30.8 49.8 30.8" class="st3"/>
    <path d="M-187 82.2s9.1-9.4 21.5-25.7 40.9-21.5 58.1-9.7 19.8 26.8 19.8 26.8 3.1 11.4-1.8 29 5.3 23.3 5.3 23.3" class="st3"/>
    <path d="M-188.9 104.7s18.5-16 28.8-31.8 29.8-20.6 44.5-12 15.8 23.7 11 41.4 4.4 37.8 10.3 38.2" class="st3"/>
    <path d="M-183.3 123.1c10.9-8.3 24.5-24.2 31.3-35.8 4.9-8.4 13.3-17.1 24-14.9 5.9 1.2 11.8 6 12 12 .1 2.5-.1 4.1-1.6 6.1s-3.3 3.8-5.3 5.3c-2.9 2.2-6.2 4-9.2 6.1-5.7 4.2-11.1 8.9-16 14.1-3.9 4.1-19 22.9-23.1 27.9m13.8 11.4c4.9-8 10.5-15.5 16.5-22.6 5.9-7 12-14.1 19.4-19.5m-17.9 45.1s6-20.4 24.4-27.1m39.3-60.6s6.2 20.6-2 39" class="st3"/>
  </g>
  <g class="st2">
    <path d="M211.7 81.2h43.8V150h-43.8V81.2z" class="st4"/>
    <path d="M229.3 68.7V19h146.3v105.6H270.1m-.2-22.6h92.7M273 150h60.7m-105-60.4h9.9" class="st4"/>
    <circle cx="221.6" cy="89.6" r="2.5" class="st5"/>
    <path d="M287.2 124.6s.8 25.3-3.1 25.3m34.8-25.3s-.8 25.3 3.1 25.3" class="st4"/>
    <circle cx="233.6" cy="138.7" r="3.9" class="st5"/>
    <circle cx="302.4" cy="113.3" r="3.9" class="st5"/>
  </g>
</svg>