<?xml version="1.0" encoding="utf-8"?>
<!-- Generator: Adobe Illustrator 19.1.0, SVG Export Plug-In . SVG Version: 6.00 Build 0)  -->
<svg version="1.1" id="Layer_1" xmlns="http://www.w3.org/2000/svg" xmlns:xlink="http://www.w3.org/1999/xlink" x="0px" y="0px"
	 viewBox="0 0 369.8 179.8" style="enable-background:new 0 0 369.8 179.8;" xml:space="preserve">
<g>
	<polygon points="238.4,179.8 151.8,107.3 62.1,179.8 	"/>
	<g>
		<path d="M82.1,151.2c6.6-5.5,7.7-12.2,7.7-18.3v-25.5H54.2V142c0,4.9-4,9-9,9c-4.9,0-8.6-4-8.6-9V44c0-4.9,3.7-9,8.6-9
			c4.9,0,9,4,9,9v34.8h35.6V42.7l0,0c0-20-13-36.4-44.8-36.4l0,0C12.3,6.3,0,22.8,0,42.7l0,102.3c0,19.8,15.7,34.8,35.8,34.7h11
			L82.1,151.2z"/>
		<polygon points="222.5,155.2 222.5,42.8 197.9,42.8 197.9,9.6 286.8,9.6 286.8,42.8 262.1,42.8 262.1,179.6 251.6,179.6 		"/>
		<path d="M176.5,9.8h-49.6L98,139.5L151.8,96l56.1,47L176.5,9.8z M142.2,87.7l9.6-49l9.5,49H142.2z"/>
	</g>
</g>
<path d="M355.4,7.9c0-3.8,2.8-6.6,6.5-6.6c3.6,0,6.4,2.8,6.4,6.6c0,3.8-2.8,6.6-6.4,6.6C358.2,14.6,355.4,11.7,355.4,7.9z
	 M361.8,15.9c4.3,0,8-3.4,8-8c0-4.6-3.7-7.9-8-7.9c-4.4,0-8.1,3.4-8.1,7.9C353.8,12.5,357.5,15.9,361.8,15.9z M360.1,8.5h1.6l2.4,4
	h1.6l-2.6-4c1.3-0.2,2.4-0.9,2.4-2.5c0-1.8-1.1-2.6-3.2-2.6h-3.5v9.2h1.4V8.5z M360.1,7.4V4.5h1.9c1,0,2,0.2,2,1.3
	c0,1.4-1.1,1.5-2.2,1.5H360.1z"/>
</svg>
