<?xml version="1.0" encoding="utf-8"?>
<!-- Generator: Adobe Illustrator 16.0.4, SVG Export Plug-In . SVG Version: 6.00 Build 0)  -->
<!DOCTYPE svg PUBLIC "-//W3C//DTD SVG 1.1//EN" "http://www.w3.org/Graphics/SVG/1.1/DTD/svg11.dtd">
<svg version="1.1" id="Layer_1" xmlns="http://www.w3.org/2000/svg" xmlns:xlink="http://www.w3.org/1999/xlink" x="0px" y="0px"
	 width="148px" height="79.7px" viewBox="0 111.6 148 79.7" style="enable-background:new 0 111.6 148 79.7;" xml:space="preserve">
<g>
	<polygon points="109.6,191.3 69.8,158 28.5,191.3 	"/>
	<g>
		<path d="M37.7,178.2c3-2.5,3.5-5.6,3.5-8.4V158H24.9V174c0,2.3-1.8,4.1-4.1,4.1c-2.3,0-4-1.8-4-4.1v-45.1c0-2.3,1.7-4.1,4-4.1
			s4.1,1.8,4.1,4.1v16h16.4v-16.6l0,0c0-9.2-6-16.7-20.6-16.7l0,0c-15,0-20.7,7.6-20.7,16.7v47c0,9.1,7.2,16,16.5,16h5.1L37.7,178.2
			z"/>
		<polygon points="102.3,180 102.3,128.3 91,128.3 91,113.1 131.8,113.1 131.8,128.3 120.5,128.3 120.5,191.2 115.7,191.2 		"/>
		<path d="M81.1,113.2H58.3l-13.3,59.6l24.7-20l25.8,21.6L81.1,113.2z M65.4,149l4.4-22.5l4.4,22.5H65.4z"/>
	</g>
</g>
<path d="M141.4,116.8c0-1.7,1.3-3,3-3c1.7,0,2.9,1.3,2.9,3c0,1.7-1.3,3-2.9,3C142.6,119.9,141.4,118.6,141.4,116.8z M144.3,120.5
	c2,0,3.7-1.6,3.7-3.7c0-2.1-1.7-3.6-3.7-3.6c-2,0-3.7,1.6-3.7,3.6C140.6,118.9,142.3,120.5,144.3,120.5z M143.5,117.1h0.7l1.1,1.8
	h0.7l-1.2-1.8c0.6-0.1,1.1-0.4,1.1-1.1c0-0.8-0.5-1.2-1.5-1.2h-1.6v4.2h0.6L143.5,117.1L143.5,117.1z M143.5,116.6v-1.3h0.9
	c0.5,0,0.9,0.1,0.9,0.6c0,0.6-0.5,0.7-1,0.7L143.5,116.6L143.5,116.6z"/>
</svg>
