<?xml version="1.0" encoding="utf-8"?>
<!-- Generator: Adobe Illustrator 16.0.4, SVG Export Plug-In . SVG Version: 6.00 Build 0)  -->
<!DOCTYPE svg PUBLIC "-//W3C//DTD SVG 1.1//EN" "http://www.w3.org/Graphics/SVG/1.1/DTD/svg11.dtd">
<svg version="1.1" id="Layer_1" xmlns="http://www.w3.org/2000/svg" xmlns:xlink="http://www.w3.org/1999/xlink" x="0px" y="0px"
	 width="170px" height="77.4px" viewBox="0 111.3 170 77.4" style="enable-background:new 0 111.3 170 77.4;" xml:space="preserve">
<g>
	<path d="M80.9,161.7C80.9,161.7,80.9,161.7,80.9,161.7L80.9,161.7L80.9,161.7c-0.2-0.1-1.2-0.5-1.4-1.4c-0.1-0.3-0.1-2.6-0.1-2.6
		s0-7.6,0-10.1c0.1-3.5-0.5-5.4-1-6.7c-0.5-0.9-2.5-4.4-7.6-4.5c-4.8-0.1-8.5,5.3-8.5,5.3l0.1-18.1c0,0,0.1-1.7-0.5-2.5
		c-0.3-0.4-0.7-0.5-0.7-0.5L56,129c0,0,0.7,0,1.2,0.4c0.5,0.5,0.4,1.9,0.4,1.9l-0.1,26.3c0,0,0,2.3-0.1,2.6c-0.3,1-1.4,1.4-1.4,1.4
		l0,0v0.7l7.8,0v-0.7l0,0c0,0-1.2-0.4-1.4-1.4c-0.1-0.3-0.1-2.6-0.1-2.6l0-10.1c0,0,0-0.8,1.9-3.4c1.3-1.8,1.6-2.1,3.2-3.5
		c1-0.9,3.6-2.1,5.6-0.2c1.9,1.8,1.7,5.6,1.7,5.6l0,11.7c0,0,0,2.3-0.2,2.6c-0.2,0.9-1.2,1.3-1.4,1.4h0v0l0,0l0,0v0.7l7.8,0V161.7
		L80.9,161.7z M97.8,157.4l0-9.5c0,0-7.3-2.5-10.5,1.7c-0.9,1.2-1.3,2.4-1.5,3.5c-0.3,2.7,1,4.8,3.3,5.8
		C92.5,160.2,97.8,157.4,97.8,157.4 M106.5,159.5c0,0-0.7,1.1-1.7,1.7c-0.9,0.6-2,1-3.7,0.9c-1.9-0.1-2.8-2.6-2.8-2.6
		s-2.7,1.7-4.7,2.3c-2.4,0.7-5,1.1-8.4-0.6c-3.5-1.8-4.6-5.2-4.2-8.2c0.1-1,0.4-1.9,0.8-2.8c1.7-3.7,5.4-4.6,8.2-5
		c3.2-0.4,7.8,0.4,7.8,0.4l0-0.6c0-3.3-1.9-6.1-6.1-6.1c-0.7,0-1.5,0.1-2.2,0.3c-1.8,0.7-3,2-3.5,2.4c-0.8,0.7-1.3,1.3-1.3,1.3
		l-2.2-3.3c0,0,2.6-1.3,5-2.4c0.3-0.2,0.7-0.3,1-0.4c1.2-0.5,2.4-0.7,3.8-0.7c5.5,0,10,4.2,10,10.1c0,0.8,0.5,11.9,0.6,12.2
		c0.1,0.5,0.3,1.1,1.2,1.4c0.9,0.3,1.9-0.9,1.9-0.9L106.5,159.5z M124.8,139.5c-0.9-0.7-4.1-3-7.8-3s-7.6,1.1-10.6,5.3
		c-3.1,4.7-2.7,10.3-1.1,13.7c1.7,3.9,5.1,6.5,10.4,6.7c4.5,0.2,6.9-1.2,8.6-2.4c2.1-1.5,3.2-2.9,3.2-2.9l-1-1.7c0,0-2.4,3.3-8,3.8
		c-4.1,0.5-8.2-2-9.4-6.1c-0.7-2.5-1-5.7,1-9.3c1.9-3.1,4.5-4.4,7.4-4.4c2.1,0,4.1,1.5,5.3,3.3c1.1,1.9,0.8,4.6,0.8,4.6h0.7
		c0,0,0.7-1.9,1.3-3.1c0.5-1.1,1.3-2.5,1.3-2.5S126,140.4,124.8,139.5 M54.5,130c0,0-9-7.2-15.3-8.1c-6.1-0.9-11.8,0.6-17.4,5.7
		c-6,5.3-10.4,17.5-2.4,28.5c6.5,9.1,19.6,9.5,27.1,5.8c7.4-3.8,9.3-7.6,9.3-7.6l0.1-4.6c0,0-3.7,7.6-13.6,9.5
		c-7.9,1.4-16.3-2.5-19.5-9.8c-2.7-5.9-0.8-16,4.1-20.3c5-4.4,10.5-5.7,16.3-3.2c5.9,2.4,7,7,6.4,9.2c-0.9,3.3-1.4,3.4-1.4,3.4
		l0.9,0.5L54.5,130z M148.2,149.5c0,4.8-3.3,10.1-8.4,10.1c-5.1,0-8.4-5.4-8.3-10.2c0-4.7,3.3-10.1,8.4-10.1
		C145,139.4,148.2,144.7,148.2,149.5 M139.9,136.6c-7.3,0-13.2,5.7-13.2,12.8c0,7.1,5,12.9,13.1,12.9c8.1,0,13.1-5.7,13.2-12.8
		C153,142.3,147.1,136.6,139.9,136.6 M151.1,135.1c-0.7,0-1.3,0.6-1.4,1.5c0,0.9,0.6,1.5,1.3,1.5l0,0c0.7,0,1.3-0.6,1.3-1.5
		C152.4,135.7,151.8,135.1,151.1,135.1 M151.1,138.5c-1,0-1.9-0.7-1.9-1.9c0-1.2,0.9-1.9,1.9-1.9c1,0,1.9,0.7,1.9,1.9
		C153,137.8,152.1,138.5,151.1,138.5 M150.8,137.6h-0.4v-2h0.8c0.5,0,0.8,0.1,0.8,0.6c0,0.4-0.2,0.5-0.5,0.5l0.5,0.9h-0.5l-0.5-0.9
		l-0.2,0L150.8,137.6z M151.2,136.4c0.2,0,0.3,0,0.3-0.3c0-0.2-0.2-0.2-0.4-0.2h-0.3v0.5L151.2,136.4z M84.9,111.3
		c2.2,0,4.7,0,6.8,0c43.9,1.8,78.4,14.6,78.3,36.3c-0.1,22.8-38.2,41.2-85.1,41C37.9,188.5-0.1,169.9,0,147.1
		c0-5.7,2.4-11.2,6.8-16.1c0,0,0.2-0.2,0.4-0.1c0.2,0.1,0.1,0.3,0.1,0.3c-3,4-4.1,8.8-4.1,13.3c-0.1,21,35.7,38.2,79.8,38.3
		c44.2,0.1,80-16.8,80.1-37.8c0.1-19.7-31.3-30.8-71.5-33c-2.2-0.1-4.4-0.2-6.6-0.2C84.8,111.8,84.7,111.5,84.9,111.3L84.9,111.3z"
		/>
</g>
</svg>
