<?xml version="1.0" encoding="utf-8"?>
<!-- Generator: Adobe Illustrator 19.1.0, SVG Export Plug-In . SVG Version: 6.00 Build 0)  -->
<svg version="1.1" id="Layer_1" xmlns="http://www.w3.org/2000/svg" xmlns:xlink="http://www.w3.org/1999/xlink" x="0px" y="0px"
	 viewBox="0 0 1038.4 472.7" style="enable-background:new 0 0 1038.4 472.7;" xml:space="preserve">
<style type="text/css">
	.Arched_x0020_Green{fill:url(#SVGID_1_);stroke:#FFFFFF;stroke-width:0.25;stroke-miterlimit:1;}
</style>
<linearGradient id="SVGID_1_" gradientUnits="userSpaceOnUse" x1="-618.6652" y1="1651.6973" x2="-617.9581" y2="1650.9901">
	<stop  offset="0" style="stop-color:#20AC4B"/>
	<stop  offset="0.9831" style="stop-color:#19361A"/>
</linearGradient>
<g>
	<path d="M494,307.9c0,0,0-0.1-0.1-0.1l0,0l-0.1,0c-1.1-0.4-7.1-2.9-8.5-8.5c-0.8-2-0.6-16-0.6-16s-0.2-46.6,0.2-61.6
		c0.9-21.2-3.1-33-6.3-40.8c-2.9-5.7-15.4-26.6-46.6-27.5c-29.3-0.9-51.8,32.1-51.8,32.1l0.4-110.6c0,0,0.9-10.6-2.8-15.5
		c-1.6-2.4-4-3.3-4-3.3l-31.9,51.8c0,0,4.5,0,7.3,2.5c2.8,3.3,2.4,11.9,2.4,11.9l-0.6,160.7c0,0,0,14-0.8,16c-1.6,6-8.6,8.5-8.7,8.5
		l0,0l0,4l47.7,0.2l0-4.1l0,0c0,0-7.1-2.5-8.7-8.6c-0.8-2.1-0.7-16-0.7-16l0.3-61.5c0,0-0.2-4.7,11.9-20.8
		c8.1-10.9,10-13.1,19.5-21.6c6.3-5.5,22.1-12.6,34.2-1.5c11.7,11.1,10.4,34.3,10.4,34.3l-0.2,71.4c0,0-0.1,13.9-1,16
		c-1.5,5.5-7.4,8-8.5,8.4l-0.2,0l0,0.1l0,0l0,0l0,4l47.8,0.2l0-4L494,307.9z M597.2,281.6l0.2-58.2c0,0-44.3-15.3-64,10.3
		c-5.7,7.3-8.1,14.6-8.9,21.2c-1.9,16.6,6,29.4,20.2,35.6C565,298.8,597.2,281.6,597.2,281.6 M650.3,294.6c0,0-4.5,6.5-10.6,10.6
		c-5.7,3.6-12.2,6.4-22.8,5.6c-11.8-0.8-17.4-16-17.4-16S582.8,305.4,571,309c-14.7,4-30.5,6.8-51.2-3.9
		c-21.1-11.1-27.9-31.5-25.5-50.3c0.9-6.1,2.5-11.8,5-17.1c10.6-22.8,33-28.1,50.1-30.4c19.7-2.7,47.9,2.5,47.9,2.5l-0.1-3.6
		c0-20.4-11.6-37-37-37.1c-4.5,0-9.2,0.6-13.2,2.1c-11.3,4.3-18.2,12-21.4,14.9c-4.7,4.3-7.7,7.7-7.7,7.7l-13.6-20.2
		c0,0,16-7.9,30.5-14.6c2-1,4-1.9,5.9-2.6c7.1-2.8,14.8-4.4,22.9-4.4c33.7,0.1,61,25.9,60.8,61.5c0.3,4.7,3.3,72.8,3.7,74.5
		c0.5,3,1.6,6.9,7.3,8.6c5.3,1.6,11.7-5.3,11.7-5.3L650.3,294.6z M762.1,172.2c-5.4-4-24.9-18.2-47.7-18.4
		c-22.8-0.2-46.5,6.6-64.5,32.2c-19.2,29-16.5,62.8-6.8,83.6c10.5,23.7,31.2,39.7,63.6,41.1c27.2,1.3,42.3-7.2,52.5-14.5
		c12.6-8.9,19.6-17.9,19.6-17.9l-6.1-10.6c0,0-14.7,20.4-48.9,23.5c-25.2,2.8-49.9-12-57.2-37.4c-4.4-15.2-6.4-35.1,6.3-56.7
		c11.5-18.8,27.4-26.9,45.2-26.8c12.6,0.1,25.2,9,32.4,20.1c6.9,11.9,4.8,28.2,4.8,28.2l4.1,0c0,0,4.3-11.9,7.8-19.1
		c3.2-6.7,7.8-15.1,7.8-15.1S769.4,177.6,762.1,172.2 M332.8,114.2c0,0-54.7-43.9-93.3-49.3c-37.4-5.5-72,3.8-106.2,34.7
		c-36.7,32.6-63.4,106.8-14.9,173.9c40,55.7,119.6,58,165.3,35.3c45.2-23.1,56.7-46.2,56.7-46.2l0.5-27.8c0,0-22.9,46.7-83.1,58
		c-48,8.8-99.3-15.4-119.2-60.1c-16.3-36.3-5.1-97.7,25.3-124c30.8-26.7,64-34.9,99.6-19.6c36.1,14.8,42.9,43,39.2,56.5
		c-5.8,20.4-8.6,20.8-8.6,20.8l5.3,3.3L332.8,114.2z M905.2,233.2c-0.1,29.1-20.3,61.8-51.4,61.7c-31.2-0.1-51.1-33-51-62.1
		c0.1-29,20.2-61.7,51.4-61.6C885.4,171.3,905.3,204.1,905.2,233.2 M854.5,154.2c-44.3-0.1-80.4,34.9-80.5,78.3
		c-0.1,43.4,30.6,78.6,79.9,78.8c49.4,0.1,80.3-35,80.5-78.3C934.6,189.6,898.7,154.3,854.5,154.2 M922.9,145.5
		c-4.5,0-8.2,3.5-8.3,8.9c0,5.3,3.7,8.9,8.2,8.9l0,0c4.5,0,8.2-3.6,8.2-8.9C931.1,149.1,927.4,145.5,922.9,145.5 M922.8,165.9
		c-6.1,0-11.5-4.3-11.5-11.6c0-7.3,5.5-11.6,11.6-11.5c6.1,0,11.5,4.3,11.5,11.6C934.3,161.7,928.9,165.9,922.8,165.9 M920.9,160.6
		l-2.6,0l0-12.4l4.6,0c3.2,0,5.1,0.9,5.1,3.7c0,2.3-1.4,3.1-3,3.3l3.2,5.4l-3.1,0l-2.8-5.2l-1.3-0.1L920.9,160.6z M923.3,153.3
		c1.2,0,1.9-0.2,1.9-1.6c0-1.3-1.4-1.4-2.3-1.4l-1.9,0l0,3.1L923.3,153.3z M518.4,0c13.5,0,28.5-0.2,41.7,0.3
		c268,10.8,478.8,89,478.3,221.8C1038,361.4,805,473.6,518.3,472.7C231.6,471.8-0.5,358.1,0,218.8c0.1-35,14.9-68.2,41.5-98.4
		c0,0,1.1-1.3,2.4-0.4c1.3,0.9,0.6,2,0.6,2c-18.2,24.3-24.9,53.7-25,81C19,331.5,237.4,436.3,507.2,437.2
		c269.8,0.9,488.9-102.6,489.4-231.1C997,85.9,805.6,17.7,559.9,4.7c-13.2-0.7-26.6-1.2-40.1-1.4c-2.1,0-2.3-2.1-1.5-3.2L518.4,0z"
		/>
</g>
</svg>
