<?xml version="1.0" encoding="utf-8"?>
<!-- Generator: Adobe Illustrator 19.1.0, SVG Export Plug-In . SVG Version: 6.00 Build 0)  -->
<svg version="1.1" id="Layer_1" xmlns="http://www.w3.org/2000/svg" xmlns:xlink="http://www.w3.org/1999/xlink" x="0px" y="0px"
	 viewBox="0 0 328.8 124.3" style="enable-background:new 0 0 328.8 124.3;" xml:space="preserve">
<style type="text/css">
	.st0{fill-rule:evenodd;clip-rule:evenodd;}
</style>
<g>
	<path class="st0" d="M62.3,0H45.9v30.6c-5.6,0-11.5,0-15,0c-17.1,0-31,13.9-31,31C0,79,13.9,92.9,31,92.9
		c17.4,0,31.3-13.9,31.3-31.3c0-8.4,0.3-31,0.3-31L62.3,0L62.3,0z M45.9,61.6c0,8.4-6.6,15-15,15c-8,0-14.6-6.6-14.6-15
		C16.4,53.6,23,47,31,47h15V61.6L45.9,61.6z"/>
	<path class="st0" d="M197.3,61.6c0-17,13.9-31,31.3-31c17,0,31,13.9,31,31c0,17.4-13.9,31.3-31,31.3
		C211.2,92.9,197.3,79,197.3,61.6L197.3,61.6z M228.3,76.5c8.4,0,15-6.6,15-15c0-8-6.6-14.6-15-14.6c-8,0-14.6,6.6-14.6,14.6
		C213.6,69.9,220.3,76.5,228.3,76.5L228.3,76.5z"/>
	<path class="st0" d="M312.1,61.6c0-8-6.6-14.6-14.6-14.6c-8.4,0-15,6.6-15,14.6c0,4.2,0,29.9,0,29.9c-8.4,0.3-16.4,0.3-16.4,0.3
		s0-21.6,0-30.3c0-17,13.9-31,31.3-31c17,0,31.3,13.9,31.3,31c0,9,0,29.9,0,29.9s-8.4,0-16.7,0C312.1,91.5,312.1,65.8,312.1,61.6
		L312.1,61.6z"/>
	<path class="st0" d="M158.7,50.8c-2.1-1.4-1.4-4.5,2.4-5.6c5.2-1.4,13.6,0,20.9,3.1l8-10.4c-3.5-2.8-10.8-6.6-21.6-7.3
		c0,0-17.7-2.1-25.1,11.5c0,0-6.6,12.9,6.3,20.5c7.7,4.9,20.9,6.6,25.1,9c3.5,1.7,2.4,5.6-2.8,6.6c-8.3,2.1-19.8-2.8-23.7-5.6
		l-8,10.8c5.2,3.8,12.2,7.3,23,9.4c0,0,16.7,2.8,26.1-8.7c1.7-2.4,9.4-16.7-5.9-24.7C175.7,55.3,162.8,53.6,158.7,50.8L158.7,50.8z"
		/>
	<path class="st0" d="M82.1,103.7c0.7,0.7,8.4,5.9,15.7,5.9c18.1,0.4,19.1-18.1,19.1-22.6c-3.5,3.8-10.4,5.9-14.6,5.9
		C84.9,92.9,71,79.3,71,62.3c0-8.7,0-30.6,0-30.6s8,0,16.4,0c0,0,0.3,26.8,0.3,30.6c0,8,6.6,14.6,14.6,14.6c8,0,14.6-6.6,14.6-14.6
		c0-3.5,0-30.6,0-30.6c8.4,0,16.7,0,16.7,0v30.6c0,26.8,1,54.6-25.1,60.9c-19.8,4.9-33.8-7.7-34.4-8.4L82.1,103.7L82.1,103.7z"/>
</g>
</svg>
