<?xml version="1.0" encoding="utf-8"?>
<!-- Generator: Adobe Illustrator 19.1.0, SVG Export Plug-In . SVG Version: 6.00 Build 0)  -->
<svg version="1.1" id="Layer_1" xmlns="http://www.w3.org/2000/svg" xmlns:xlink="http://www.w3.org/1999/xlink" x="0px" y="0px"
	 viewBox="0 0 359.6 123.2" style="enable-background:new 0 0 359.6 123.2;" xml:space="preserve">
<style type="text/css">
	.st0{fill:#7A7A7A;}
</style>
<path class="st0" d="M65.1,65c-16,0-28.9,13-28.9,28.9c0,16,13,28.9,28.9,28.9c16,0,28.9-13,28.9-28.9C94.1,77.9,81.1,65,65.1,65z
	 M66.5,77.5c3.8,0.7,4.5,4.2,4.5,5.2c0,2-0.9,4.4-2.9,5.9l-1-1.5c1.3-1,2.1-2.9,2.1-4.4c0-0.7-0.4-2.8-2.7-3.5V77.5z M52.9,105
	c-3.3-5.1-0.3-9.9,4.4-11.8l0.9,1.4c0,0-1.6,1.6-0.6,3.1l3.8,5.9c0.9,1.5,2.8,0.5,2.8,0.5l0.9,1.4C61.1,108.1,56.1,110.1,52.9,105z
	 M79.7,107.9h-8.8c0,0-1.7,0.1-2.8-1.7L57.3,89.3c-1.9-3-2.2-11.8,7.5-11.8v1.7c-2.3,0.8-2.8,3.2-1.8,4.7l13.3,20.8
	c0.2,0.3,0.9,1.5,1.9,1.5h1.6V107.9z M80.9,94.9c-1.3,1.3-3.4,1.3-4.8,0c-1-1-1.2-2.3-0.8-3.5c-1,1.3-1,5.4-1,5.4l-0.7,0.5l-0.8-1.2
	c0-1.3,0.1-4.2,1.6-6c1.6-1.9,4.7-1.8,6.5,0v0C82.2,91.4,82.2,93.6,80.9,94.9z"/>
<g>
	<polygon points="33.6,54.6 11.4,54.6 11.4,4.4 18.3,4.4 18.3,1.3 0,1.3 0,4.4 7.2,4.4 7.2,54.6 0,54.6 0,57.8 37.3,57.8 37.3,39.4 
		33.6,39.4 	"/>
	<path d="M66.1,0c-5.3,0-10.2,1.5-13.7,4.2c-7,5.4-9.5,16.5-9.5,25.1c0,10.9,3.4,20.2,9.1,24.9c3.6,3,8.6,4.6,14.2,4.6
		c9.1,0,15.6-3.7,19.4-11c2.6-4.8,4-11.5,4-18.3C89.6,20.7,87.3,0,66.1,0z M85.3,28.9c0,3.8-0.3,7.1-1,10.1
		c-1.5,6.9-4.5,11.7-8.9,14.2c-3.6,2-7.7,2.2-9.3,2.2c-4,0-8-1.3-10.8-3.6c-2.4-2-8.2-8.1-8.2-22.7c0-5.4,1-18.5,10-23.7
		c2.5-1.5,5.6-2.2,9.3-2.2C83.9,3.3,85.3,22.9,85.3,28.9z"/>
	<polygon points="142.3,1.3 124.4,1.3 124.4,4.4 131.4,4.4 131.4,53.5 103.2,1.3 90.7,1.3 90.7,4.4 97.6,4.4 97.6,54.6 90.7,54.6 
		90.7,57.8 108.5,57.8 108.5,54.6 101.4,54.6 101.4,6.1 129.3,57.6 129.5,57.8 135.2,57.8 135.2,4.4 142.3,4.4 	"/>
	<path d="M162.7,33.8h17.5c0,4.6-0.3,9.4-2.6,13.9c-3.9,7.2-11.3,7.8-13.5,7.8c-11.1,0-18.2-10.1-18.2-25.7c0-16.1,6.3-22,10.1-24.2
		c2.9-1.7,5.6-1.9,7.4-1.9c8.6,0,14.4,5.4,16.1,15.1l0.1,0.3h3.8V1.3h-3.7v8.1c-1.2-2.5-4.2-6.4-9-8.1c-3-1-6.3-1.1-7.3-1.1
		c-16.1,0-21.9,15-21.9,29.1c0,3,0.3,10.7,3.1,16.8c3.7,8.1,10.7,12.7,19.3,12.7c9.9,0,14.5-5.6,16.4-8.6l0.2,7.7h3.8V30.5h-21.5
		V33.8z"/>
	<polygon points="219.5,51.8 201.7,1.3 188.5,1.3 188.5,4.4 195.6,4.4 195.6,54.6 188.5,54.6 188.5,57.8 205.7,57.8 205.7,54.6 
		199.4,54.6 199.4,6.2 217.6,57.8 221.4,57.8 239.7,6.2 239.7,54.6 233,54.6 233,57.8 250.9,57.8 250.9,54.6 243.8,54.6 243.8,4.4 
		250.9,4.4 250.9,1.3 237.6,1.3 	"/>
	<path d="M282.8,4.4h5.8V1.3h-18.7v3.2h5.8l-17.2,50.2h-5.4v3.2h15.7v-3.2h-6.3l4.9-14.4h23.2l4.8,14.4h-5.9v3.2h15.8v-3.2h-5.5
		L282.8,4.4z M279.1,5.2L289.6,37h-21.1L279.1,5.2z"/>
	<polygon points="341.6,1.3 341.6,4.4 348.7,4.4 348.7,53.5 320.4,1.3 307.9,1.3 307.9,4.4 314.9,4.4 314.9,54.6 307.9,54.6 
		307.9,57.8 325.8,57.8 325.8,54.6 318.6,54.6 318.6,6.1 346.6,57.6 346.7,57.8 352.5,57.8 352.5,4.4 359.6,4.4 359.6,1.3 	"/>
	<polygon points="97.7,68.9 104.9,68.9 104.9,119 97.7,119 97.7,122.2 137.7,122.2 137.7,103.8 133.9,103.8 133.9,119 109,119 
		109,94.1 132.3,94.1 132.3,90.7 109,90.7 109,68.9 133.9,68.9 133.9,82.9 137.7,82.9 137.7,65.7 97.7,65.7 	"/>
	<path d="M172,68.9h5.8v-3.2H159v3.2h5.9L147.7,119h-5.4v3.2H158V119h-6.3l4.9-14.5h23.2l4.8,14.5h-5.9v3.2h15.8V119H189L172,68.9z
		 M168.3,69.6l10.4,31.8h-21.1L168.3,69.6z"/>
	<path d="M213.1,98.2h17.5c0,4.6-0.3,9.4-2.6,13.8c-3.9,7.2-11.3,7.8-13.5,7.8c-11.1,0-18.2-10.1-18.2-25.7c0-16.1,6.3-22,10.1-24.2
		c2.9-1.7,5.6-1.9,7.4-1.9c8.6,0,14.4,5.4,16.1,15.1l0.1,0.3h3.8V65.7h-3.7v8.1c-1.2-2.5-4.2-6.4-9-8.1c-3-1.1-6.3-1.1-7.3-1.1
		c-16.1,0-21.9,15-21.9,29.1c0,3,0.3,10.7,3.1,16.8c3.7,8.1,10.7,12.7,19.3,12.7c9.9,0,14.5-5.6,16.4-8.6l0.2,7.6h3.8V94.9h-21.4
		V98.2z"/>
	<polygon points="272.3,119 250.1,119 250.1,68.9 257,68.9 257,65.7 238.7,65.7 238.7,68.9 245.9,68.9 245.9,119 238.7,119 
		238.7,122.2 276,122.2 276,103.8 272.3,103.8 	"/>
	<polygon points="320.6,82.9 320.6,65.7 280.5,65.7 280.5,68.9 287.8,68.9 287.8,119 280.5,119 280.5,122.2 320.6,122.2 
		320.6,103.8 316.8,103.8 316.8,119 291.8,119 291.8,94.1 315.2,94.1 315.2,90.7 291.8,90.7 291.8,68.9 316.8,68.9 316.8,82.9 	"/>
</g>
</svg>
