<?xml version="1.0" encoding="utf-8"?>
<!-- Generator: Adobe Illustrator 19.1.0, SVG Export Plug-In . SVG Version: 6.00 Build 0)  -->
<svg version="1.1" id="Layer_1" xmlns="http://www.w3.org/2000/svg" xmlns:xlink="http://www.w3.org/1999/xlink" x="0px" y="0px"
	 viewBox="0 0 290.1 216.9" style="enable-background:new 0 0 290.1 216.9;" xml:space="preserve">
<g>
	<polygon points="140.9,146.9 143.1,149.1 146.8,153.4 146.8,146.7 	"/>
	<rect x="191.3" y="166" width="0" height="33.1"/>
	<polygon points="191.3,145.8 191.3,148.9 191.3,148.9 191.3,145.8 	"/>
	<polygon points="57.8,150.1 61.4,153.7 61.4,150 	"/>
	<rect x="77.4" y="181.9" width="18" height="0.2"/>
	<polygon points="107.3,148.2 105.8,148.3 106.6,149 	"/>
	<polygon points="73.5,85.2 93.2,84.5 93.1,80.9 73.4,81.7 	"/>
	<polygon points="74.6,113.3 94.3,112.5 94.2,110.3 74.5,111.1 	"/>
	<polygon points="38.2,86.6 64.4,85.6 65.1,82 37.2,83 	"/>
	<polygon points="74.2,104 94,103.2 93.9,100.5 74.1,101.2 	"/>
	<polygon points="68.7,57.3 69.5,52.5 30.6,54 31.7,58.8 	"/>
	<polygon points="73.9,94.5 93.6,93.7 93.5,90.8 73.7,91.5 	"/>
	<polygon points="36,77.4 65.8,76.2 66.5,72.2 35.1,73.5 	"/>
	<polygon points="33.9,68.2 67.3,66.9 68.1,62.3 32.9,63.6 	"/>
	<polygon points="70.9,42.6 53.5,43.3 52.7,48.6 70.1,48 	"/>
	<polygon points="90.5,12.6 57.7,13.8 56.8,20.4 90.7,19.1 	"/>
	<polygon points="90.9,22.3 56.3,23.6 55.6,29.9 91.1,28.6 	"/>
	<polygon points="91.2,32.1 54.9,33.5 54.1,39.3 91.5,37.9 	"/>
	<polygon points="73.1,75.9 92.9,75.2 92.7,71.2 73,72 	"/>
	<polygon points="42.9,14.4 6.4,15.8 6.6,22.3 44.1,20.9 	"/>
	<polygon points="72.1,47.9 91.8,47.1 91.6,41.8 71.9,42.6 	"/>
	<polygon points="72.4,57.2 92.2,56.4 92,51.7 72.2,52.4 	"/>
	<polygon points="72.8,66.7 92.5,65.9 92.4,61.4 72.6,62.1 	"/>
	<polygon points="29.5,102.9 9.7,103.7 9.8,106.5 29.6,105.7 	"/>
	<polygon points="29.1,93.3 9.4,94 9.5,97 29.2,96.2 	"/>
	<rect x="8.7" y="74.1" transform="matrix(0.9993 -3.864514e-02 3.864514e-02 0.9993 -2.9259 0.7742)" width="19.8" height="4"/>
	<polygon points="28.7,83.4 9,84.1 9.1,87.7 28.9,86.9 	"/>
	<polygon points="44.8,24 6.7,25.5 7,31.8 46.3,30.3 	"/>
	<polygon points="47,33.8 7.1,35.4 7.3,41.1 48.2,39.5 	"/>
	<polygon points="10.1,113.6 10.2,115.7 29.9,115 29.9,112.8 	"/>
	<polygon points="27.6,54.2 7.9,54.9 8,59.7 27.8,58.9 	"/>
	<polygon points="28,63.8 8.2,64.6 8.4,69.1 28.2,68.4 	"/>
	<polygon points="29.6,49.5 50.1,48.7 48.9,43.4 28.4,44.2 	"/>
	<polygon points="42.4,105.2 61.6,104.5 62.1,101.7 41.7,102.5 	"/>
	<polygon points="44.6,114.4 60.2,113.8 60.5,111.6 44.1,112.3 	"/>
	<polygon points="27.2,44.3 7.5,45 7.7,50.4 27.4,49.6 	"/>
	<polygon points="40.3,95.8 63,94.9 63.5,91.9 39.6,92.9 	"/>
	<polygon points="139.3,83.9 151.5,83.4 144.1,50.6 	"/>
	<polygon points="141.9,49.7 120.6,50.6 119.8,55.3 141.1,54.5 	"/>
	<polygon points="143.5,39.8 122,40.6 121.2,46 142.7,45.2 	"/>
	<polygon points="137.3,79.2 116.2,80 115.5,83.6 136.6,82.8 	"/>
	<polygon points="176.6,87.6 114.6,90 114.1,92.9 177.3,90.5 	"/>
	<polygon points="140.5,59.5 119.2,60.3 118.3,64.9 139.7,64.1 	"/>
	<polygon points="138.9,69.4 117.6,70.3 116.9,74.2 138.3,73.4 	"/>
	<polygon points="160.4,109.9 181.6,109.1 181.1,107 160,107.8 	"/>
	<polygon points="132.7,108.8 111.6,109.7 111.2,111.8 132.4,111 	"/>
	<polygon points="178.9,97.2 113.2,99.7 112.7,102.5 179.4,99.9 	"/>
	<polygon points="151.9,72.9 173,72.1 172.1,68.2 150.9,69 	"/>
	<polygon points="149.7,63.7 170.9,62.9 169.9,58.3 148.6,59.2 	"/>
	<polygon points="154,82.1 175.1,81.3 174.4,77.8 153.3,78.6 	"/>
	<polygon points="147.4,54.3 168.7,53.5 167.8,48.7 146.4,49.6 	"/>
	<polygon points="158.8,9.9 126.6,11.2 125.4,17.7 160.2,16.4 	"/>
	<polygon points="145.3,45.1 166.6,44.2 165.4,38.9 144.1,39.8 	"/>
	<polygon points="160.9,19.6 125,20.9 124,27.3 162.3,25.8 	"/>
	<polygon points="163.3,29.3 123.6,30.9 122.6,36.6 164.5,35 	"/>
	<path d="M218.3,28.9l3.1,80.8l27.2-1.1l-3.1-80.8L218.3,28.9z M236.3,105.7l-2.4-62.2l8.9-0.3l2.4,62.2L236.3,105.7z"/>
	<polygon points="250.3,78.3 270.8,77.5 270.7,73.9 250.1,74.7 	"/>
	<polygon points="250.6,87.6 271.2,86.8 271.1,83.8 250.5,84.6 	"/>
	
		<rect x="250.9" y="93.9" transform="matrix(-0.9993 3.850038e-02 -3.850038e-02 -0.9993 525.8951 180.4093)" width="20.6" height="2.8"/>
	<polygon points="249.9,69 270.5,68.2 270.3,64.3 249.8,65 	"/>
	<polygon points="248.8,41 269.4,40.2 269.2,34.8 248.6,35.6 	"/>
	<polygon points="251.4,106.3 269.9,105.6 271.8,103.8 271.8,103.4 251.3,104.2 	"/>
	<polygon points="248.5,31.7 269,30.9 268.8,25.2 248.3,26 	"/>
	<polygon points="249.2,50.2 269.7,49.5 269.5,44.7 249,45.5 	"/>
	<polygon points="262.3,15.5 194.6,18.1 194.8,24.4 268.7,21.6 	"/>
	<polygon points="249.6,59.7 270.1,58.9 269.9,54.4 249.4,55.2 	"/>
	<polygon points="218.1,95.5 197.6,96.3 197.7,99.1 218.2,98.3 	"/>
	<polygon points="252.5,6.2 194.2,8.5 194.4,15 259,12.5 	"/>
	<polygon points="217.7,85.9 197.2,86.7 197.3,89.6 217.8,88.8 	"/>
	<polygon points="217.3,76 196.8,76.8 196.9,80.3 217.5,79.5 	"/>
	<polygon points="198,106.2 198,108.4 218.6,107.6 218.5,105.4 	"/>
	<polygon points="216.2,46.8 195.7,47.5 195.9,52.3 216.4,51.5 	"/>
	<polygon points="215.5,27.2 194.9,28 195.2,33.7 215.7,32.9 	"/>
	<polygon points="215.9,36.9 195.3,37.7 195.5,43 216.1,42.2 	"/>
	<polygon points="216.8,61 216.6,56.4 196.1,57.2 196.2,61.8 	"/>
	<polygon points="217,66.3 196.4,67.1 196.6,71 217.1,70.3 	"/>
	<path d="M30.6,155.9L30.6,155.9v41.4h14V197v-41.1 M38.3,163.7h4.6v31.8h-4.6V163.7z"/>
	<rect x="46" y="185" width="10.5" height="1.5"/>
	<rect x="18.7" y="170" width="10.5" height="2.3"/>
	<rect x="46" y="180" width="10.5" height="1.8"/>
	<rect x="46" y="175" width="10.5" height="2"/>
	<rect x="18.7" y="165" width="10.5" height="2.4"/>
	<polygon points="46,196.2 55.5,196.2 56.5,195.3 56.5,195.1 46,195.1 	"/>
	<rect x="18.7" y="160" width="10.5" height="2.7"/>
	<rect x="46" y="190" width="10.5" height="1.4"/>
	<rect x="18.7" y="155" width="10.5" height="2.9"/>
	<rect x="46" y="170" width="10.5" height="2.3"/>
	<rect x="18.7" y="185" width="10.5" height="1.5"/>
	<rect x="18.7" y="180" width="10.5" height="1.8"/>
	<rect x="18.7" y="190" width="10.5" height="1.4"/>
	<rect x="18.7" y="175" width="10.5" height="2"/>
	<rect x="18.7" y="195.1" width="10.5" height="1.1"/>
	<polygon points="48.5,145 18.7,145 18.7,148.3 51.7,148.3 	"/>
	<rect x="46" y="160" width="10.5" height="2.7"/>
	<rect x="46" y="155" width="10.5" height="2.9"/>
	<rect x="46" y="165" width="10.5" height="2.4"/>
	<polygon points="18.7,150 18.7,153.2 56.5,153.2 53.4,150 	"/>
	<rect x="64.4" y="146.1" width="33.1" height="3.4"/>
	<rect x="64.4" y="151.1" width="33.1" height="3.2"/>
	<rect x="64.4" y="161.1" width="11.6" height="2.7"/>
	<rect x="64.4" y="176.2" width="29.6" height="2"/>
	<rect x="64.4" y="171.1" width="29.6" height="2.3"/>
	<rect x="64.4" y="166.2" width="11.6" height="2.4"/>
	<rect x="64.4" y="181.1" width="11.6" height="1.8"/>
	<polygon points="76,156.1 64.4,156.1 64.4,159.1 76,159.1 	"/>
	<rect x="64.4" y="186.2" width="11.6" height="1.5"/>
	<rect x="64.4" y="196.2" width="11.6" height="1.1"/>
	<rect x="64.4" y="191.1" width="11.6" height="1.4"/>
	<rect x="105.9" y="156.1" width="10.5" height="2.9"/>
	<polygon points="142,153.6 139.9,151.1 108.8,151.1 106.1,154.3 142,154.3 	"/>
	<rect x="131.3" y="156.1" width="10.7" height="2.9"/>
	<polygon points="138.5,149.5 135.6,146.1 113.1,146.1 110.3,149.5 	"/>
	<rect x="105.9" y="161.1" width="10.5" height="2.7"/>
	<rect x="133.8" y="191.1" width="11.5" height="1.4"/>
	<rect x="133.8" y="186.2" width="11.5" height="1.5"/>
	<polygon points="106.9,197.3 116.4,197.3 116.4,196.2 106.2,196.2 	"/>
	<rect x="105.9" y="191.1" width="10.5" height="1.4"/>
	<rect x="105.9" y="186.2" width="10.5" height="1.5"/>
	<rect x="131.3" y="166.2" width="10.7" height="1.8"/>
	<rect x="131.3" y="161.1" width="10.7" height="2.7"/>
	<rect x="105.9" y="181.1" width="10.5" height="1.8"/>
	<polygon points="133.8,197.3 144.9,197.3 145.4,196.7 145.4,196.2 133.8,196.2 	"/>
	<rect x="105.9" y="166.2" width="10.5" height="2.4"/>
	<rect x="105.9" y="176.2" width="10.5" height="2"/>
	<rect x="105.9" y="171.1" width="10.5" height="2.3"/>
	<rect x="149.8" y="151.8" width="33.1" height="3.2"/>
	<rect x="149.8" y="146.8" width="33.1" height="3.3"/>
	<rect x="149.8" y="176.8" width="29.6" height="2"/>
	<rect x="149.8" y="181.8" width="11.6" height="1.8"/>
	<rect x="149.8" y="161.8" width="11.6" height="2.7"/>
	<rect x="149.8" y="171.8" width="29.6" height="2.3"/>
	<rect x="149.8" y="166.8" width="11.6" height="2.4"/>
	<rect x="149.8" y="191.8" width="11.6" height="1.4"/>
	<polygon points="161.4,156.8 149.8,156.7 149.8,159.8 161.4,159.8 	"/>
	<rect x="149.8" y="186.9" width="11.6" height="1.5"/>
	<rect x="149.8" y="196.9" width="11.6" height="1.1"/>
	<polygon points="214.4,198.4 230.7,198.4 230.7,197.3 213.9,197.3 	"/>
	<rect x="220.6" y="167.3" width="10.1" height="2.4"/>
	<rect x="220.6" y="162.2" width="10.1" height="2.7"/>
	<rect x="220.6" y="172.2" width="10.1" height="2.3"/>
	<polygon points="207.1,179.3 230.7,179.3 230.7,177.3 206.3,177.3 	"/>
	<polygon points="218,172.2 204.5,172.2 205.3,174.6 219,174.6 	"/>
	<polygon points="212.6,193.7 230.7,193.7 230.7,192.3 212.1,192.3 	"/>
	<rect x="220.6" y="152.2" width="10.1" height="3.2"/>
	<polygon points="210.8,188.8 230.7,188.8 230.7,187.3 210.2,187.3 	"/>
	<polygon points="209,184.1 230.7,184.1 230.7,182.3 208.2,182.3 	"/>
	<rect x="220.6" y="147.3" width="10.1" height="3.3"/>
	<rect x="220.6" y="157.3" width="10.1" height="2.9"/>
	<rect x="192.7" y="182.3" width="10.1" height="1.8"/>
	<rect x="192.7" y="187.3" width="10.1" height="1.5"/>
	<rect x="192.7" y="192.3" width="10.1" height="1.4"/>
	<polygon points="215.6,167.3 192.7,167.3 192.7,169.7 216.7,169.7 	"/>
	<rect x="192.7" y="177.3" width="10.1" height="2"/>
	<polygon points="213.4,162.2 192.7,162.2 192.7,165 214.6,165 	"/>
	<polygon points="211.1,157.3 192.7,157.3 192.7,160.2 212.4,160.2 	"/>
	<polygon points="208.9,152.2 192.7,152.2 192.7,155.5 210.3,155.5 	"/>
	<polygon points="206.5,147.3 192.7,147.3 192.7,150.6 208,150.6 	"/>
	<rect x="192.7" y="197.3" width="10.1" height="1.1"/>
	<rect x="192.7" y="172.2" width="10.1" height="2.3"/>
	<path d="M235.5,144.1v1.7l-1.7-1.7h-16.4v12.2l-2.8-6.2l-6.1-6l59-2.3l22.6-24.6l-3.3-87.1L254.6,0l-66.8,2.6l3,77.6l-15-65.1
		L163.5,3.6l-42.3,1.6l-10.3,69l-2.2-56.7L96.4,6.2L52.5,7.9l-0.8,4l-4.1-3.8L0,9.9l5,130.3l10.5,9.7v58.6l6.1,6.1h32l7.8-7.9v3
		l6.1,6.1h41.5v-9.4l2.1,3.4l6.1,6.1h27.8l3.3-4l4.7,4.7h41.5v-0.9l1.3,1.3H212v-16.2l3.7,10.1l6.1,6.1h18.1v-49.2l1.7,1.7h9.9v41.5
		l6.1,6.1h17.7v-47.5h14.5v-19.2l-6.1-6.1H235.5z M196.1,129.4L191.3,5.6l62-2.4l18.1,17.1l3.2,84.5l-20.9,22.4 M124.1,8.3l36.7-1.4
		l28.5,122.9l-26.9,1l-4.5-20.2l-22.7,0.9L132,132l-26.7,1L124.1,8.3z M46.6,135.3L30.8,64.5l2.7,70.6l0,0.7l-25.3,1l0-0.7L3.5,12.9
		L45,11.4l6,28.2l4.4-28.7l37.7-1.4l4.7,123.2l0,0.7l-25.3,1l0-0.7l-2.7-71.2l-10.1,72.4 M57.9,195.6v0.2l-11.1,11H17.3v-0.2v-63.2
		H49l8.9,9.1V195.6z M101.1,207.8v0.2h-38v-0.2v-63.2h35.8v12.7v0.2H77.4l0,0v11.3h18v13v0.2h-18l0,0V197h23.7V207.8z M102.9,195.4
		L102.9,195.4l-17.6,0v-5.6h17.6V195.4z M102.9,173l-5.8-5.8H85.2v-1.8h17.6V173z M111.9,208l-7.4-11.9v-0.2v-30.5V154l8-9.4h23.8
		l7.2,8.5v16.1v0.2h-13.5v-0.2v-12.1h-12v41.4h14.6v-0.2v-14.9h14.4l0,14L138,208 M146.8,181.5h-16.1v15.2h-5v-31.8h2.5v6.3l6.1,6.1
		h12.6V181.5z M147.7,143.7l2.7-17.7l7.5-0.3l2.1,8.6l10.2,9.4H147.7z M148.5,208.6l0-63.3h35.8V158v0.2h-21.4v11.1v0.2h18v13v0.2
		h-18v14.6v0.2h23.7v11 M189.5,197.4l-1.3-1.3h-17.6v-5.6h17.9v-16.6l-6.1-6.1h-11.8V166h18.9V197.4z M232.1,209.1h-15.2l-12.7-33.5
		v33.3h-12.9V166l0,0v-17.1v0v-3.2l0,0h16.2l11.7,25.4v-25.4h12.9V209.1z M267.5,161.6v47.3v0.2h-14.3v-0.2v-47.3l-16,0l0-15.8h44.7
		v15.9"/>
	<line x1="204.2" y1="175.6" x2="204.2" y2="175.6"/>
	<rect x="254.6" y="172.2" width="11.4" height="2.3"/>
	<rect x="254.6" y="167.3" width="11.4" height="2.4"/>
	<rect x="254.6" y="162.2" width="11.4" height="2.7"/>
	<rect x="254.6" y="192.3" width="11.4" height="1.4"/>
	<rect x="254.6" y="197.3" width="11.4" height="1.1"/>
	<rect x="254.6" y="177.3" width="11.4" height="2"/>
	<rect x="254.6" y="187.3" width="11.4" height="1.5"/>
	<rect x="254.6" y="182.3" width="11.4" height="1.8"/>
	<rect x="238.6" y="152.2" width="41.9" height="3.2"/>
	<rect x="238.6" y="157.3" width="41.9" height="2.9"/>
	<rect x="238.6" y="147.3" width="41.9" height="3.3"/>
</g>
</svg>
