<?xml version="1.0" encoding="utf-8"?>
<!-- Generator: Adobe Illustrator 16.0.4, SVG Export Plug-In . SVG Version: 6.00 Build 0)  -->
<!DOCTYPE svg PUBLIC "-//W3C//DTD SVG 1.1//EN" "http://www.w3.org/Graphics/SVG/1.1/DTD/svg11.dtd">
<svg version="1.1" id="Layer_1" xmlns="http://www.w3.org/2000/svg" xmlns:xlink="http://www.w3.org/1999/xlink" x="0px" y="0px"
	 width="170px" height="300px" viewBox="0 0 170 300" enable-background="new 0 0 170 300" xml:space="preserve">
<g>
	<g>
		<g>
			<g>
				<g>
					<path d="M73.72,198.941c0-3.328-2.959-5.671-6.534-5.671H52.27v18.491h5.671v-7.026h3.945l5.301,7.026h6.41l-5.67-7.273
						C71.008,204.488,73.597,202.023,73.72,198.941z M64.844,201.9H57.94v-5.672h7.027c1.603,0,3.082,1.356,2.959,2.959
						C67.926,200.667,66.447,201.9,64.844,201.9z"/>
				</g>
			</g>
			<g>
				<g>
					<path d="M98.499,198.941c0-3.328-2.959-5.671-6.534-5.671H77.049v18.491h5.67v-7.026h3.945l5.301,7.026h6.41l-5.67-7.273
						C95.787,204.488,98.375,202.023,98.499,198.941z M89.623,201.9h-6.904v-5.672h7.027c1.603,0,3.082,1.356,2.959,2.959
						C92.705,200.667,91.226,201.9,89.623,201.9z"/>
				</g>
			</g>
			<polygon points="36.367,203.502 47.215,203.502 47.215,200.791 36.367,200.791 36.367,196.105 49.064,196.105 49.064,193.271 
				30.696,193.271 30.696,211.762 49.188,211.762 49.188,208.927 36.367,208.927 			"/>
			<polygon points="107.375,203.502 118.347,203.502 118.347,200.791 107.498,200.791 107.498,196.105 120.072,196.105 
				120.072,193.271 101.704,193.271 101.704,211.762 120.195,211.762 120.195,208.927 107.375,208.927 			"/>
			<polygon points="13.191,207.324 7.396,193.271 0,193.271 0,211.762 3.452,211.762 3.452,196.6 9.123,211.762 15.163,211.762 
				20.834,196.6 20.834,211.762 26.628,211.762 26.628,193.271 18.368,193.271 			"/>
			<polygon points="128.949,193.271 123.277,193.271 123.277,211.762 141.029,211.762 141.029,208.927 128.949,208.927 			"/>
			<polygon points="149.289,193.271 143.742,193.271 143.742,211.762 161.494,211.762 161.494,208.927 149.289,208.927 			"/>
		</g>
		<g>
			<polygon fill="none" points="99.361,109.318 91.596,136.07 81.117,106.483 50.42,101.675 50.42,167.259 70.269,161.342 
				70.269,120.413 84.322,157.15 96.896,153.328 106.266,122.509 106.266,150.616 114.525,148.151 114.525,111.661 			"/>
			<path d="M77.912,88.238c-25.765,0-46.722,20.958-46.722,46.722s20.957,46.723,46.722,46.723s46.722-20.834,46.722-46.723
				C124.511,109.195,103.677,88.238,77.912,88.238z M106.266,150.616v-28.107l-9.369,30.819l-12.575,3.822l-14.053-36.737v40.929
				l-19.848,5.917v-65.583l30.696,4.808l10.479,29.587l7.766-26.751l15.164,2.342v36.49L106.266,150.616z"/>
		</g>
	</g>
</g>
<g>
	<path d="M129.564,114.126c1.973,0,3.699,1.603,3.699,3.699s-1.727,3.698-3.699,3.698s-3.697-1.603-3.697-3.698
		S127.592,114.126,129.564,114.126z M129.564,114.743c-1.726,0-2.958,1.356-2.958,3.082c0,1.726,1.356,3.082,2.958,3.082
		c1.727,0,2.959-1.232,2.959-3.082C132.523,116.099,131.168,114.743,129.564,114.743z M128.825,119.92h-0.616v-4.191h1.603
		c0.986,0,1.479,0.37,1.479,1.232c0,0.74-0.493,1.11-1.109,1.11l1.232,1.849h-0.74l-1.109-1.849h-0.739V119.92z M128.825,117.578
		h0.739c0.74,0,0.986-0.247,0.986-0.74c0-0.37-0.246-0.617-0.986-0.617h-0.862v1.356H128.825z"/>
</g>
<path d="M166.302,204.488c1.972,0,3.698,1.604,3.698,3.699s-1.727,3.697-3.698,3.697c-1.973,0-3.698-1.602-3.698-3.697
	C162.604,205.969,164.329,204.488,166.302,204.488z M166.302,205.105c-1.726,0-2.959,1.355-2.959,3.082
	c0,1.726,1.356,3.082,2.959,3.082c1.726,0,2.958-1.233,2.958-3.082C169.384,206.338,168.027,205.105,166.302,205.105z
	 M165.562,210.283h-0.617v-4.191h1.604c0.986,0,1.479,0.369,1.479,1.232c0,0.74-0.492,1.109-1.109,1.109l1.232,1.85h-0.739
	l-1.109-1.85h-0.739V210.283z M165.562,207.817h0.739c0.739,0,0.986-0.247,0.986-0.739c0-0.37-0.247-0.617-0.986-0.617h-0.862v1.356
	H165.562z"/>
</svg>
