<?xml version="1.0" encoding="utf-8"?>
<!-- Generator: Adobe Illustrator 16.0.4, SVG Export Plug-In . SVG Version: 6.00 Build 0)  -->
<!DOCTYPE svg PUBLIC "-//W3C//DTD SVG 1.1//EN" "http://www.w3.org/Graphics/SVG/1.1/DTD/svg11.dtd">
<svg version="1.1" id="Layer_1" xmlns="http://www.w3.org/2000/svg" xmlns:xlink="http://www.w3.org/1999/xlink" x="0px" y="0px"
	 width="161.5px" height="123.5px" viewBox="0 88.2 161.5 123.5" style="enable-background:new 0 88.2 161.5 123.5;"
	 xml:space="preserve">
<style type="text/css">
<![CDATA[
	.st0{fill:none;}
]]>
</style>
<g>
	<g>
		<g>
			<g>
				<g>
					<path d="M73.7,198.9c0-3.3-3-5.7-6.5-5.7H52.3v18.5h5.7v-7h3.9l5.3,7h6.4l-5.7-7.3C71,204.5,73.6,202,73.7,198.9z M64.8,201.9
						h-6.9v-5.7h7c1.6,0,3.1,1.4,3,3C67.9,200.7,66.4,201.9,64.8,201.9z"/>
				</g>
			</g>
			<g>
				<g>
					<path d="M98.5,198.9c0-3.3-3-5.7-6.5-5.7H77v18.5h5.7v-7h3.9l5.3,7h6.4l-5.7-7.3C95.8,204.5,98.4,202,98.5,198.9z M89.6,201.9
						h-6.9v-5.7h7c1.6,0,3.1,1.4,3,3C92.7,200.7,91.2,201.9,89.6,201.9z"/>
				</g>
			</g>
			<polygon points="36.4,203.5 47.2,203.5 47.2,200.8 36.4,200.8 36.4,196.1 49.1,196.1 49.1,193.3 30.7,193.3 30.7,211.8 
				49.2,211.8 49.2,208.9 36.4,208.9 			"/>
			<polygon points="107.4,203.5 118.3,203.5 118.3,200.8 107.5,200.8 107.5,196.1 120.1,196.1 120.1,193.3 101.7,193.3 101.7,211.8 
				120.2,211.8 120.2,208.9 107.4,208.9 			"/>
			<polygon points="13.2,207.3 7.4,193.3 0,193.3 0,211.8 3.5,211.8 3.5,196.6 9.1,211.8 15.2,211.8 20.8,196.6 20.8,211.8 
				26.6,211.8 26.6,193.3 18.4,193.3 			"/>
			<polygon points="128.9,193.3 123.3,193.3 123.3,211.8 141,211.8 141,208.9 128.9,208.9 			"/>
			<polygon points="149.3,193.3 143.7,193.3 143.7,211.8 161.5,211.8 161.5,208.9 149.3,208.9 			"/>
		</g>
		<g>
			<polygon class="st0" points="99.4,109.3 91.6,136.1 81.1,106.5 50.4,101.7 50.4,167.3 70.3,161.3 70.3,120.4 84.3,157.2 
				96.9,153.3 106.3,122.5 106.3,150.6 114.5,148.2 114.5,111.7 			"/>
			<path d="M77.9,88.2c-25.8,0-46.7,21-46.7,46.7c0,25.8,21,46.7,46.7,46.7c25.8,0,46.7-20.8,46.7-46.7
				C124.5,109.2,103.7,88.2,77.9,88.2z M106.3,150.6v-28.1l-9.4,30.8l-12.6,3.8l-14.1-36.7v40.9l-19.8,5.9v-65.6l30.7,4.8l10.5,29.6
				l7.8-26.8l15.2,2.3v36.5L106.3,150.6z"/>
		</g>
	</g>
</g>
<g>
	<path d="M129.6,114.1c2,0,3.7,1.6,3.7,3.7c0,2.1-1.7,3.7-3.7,3.7c-2,0-3.7-1.6-3.7-3.7C125.9,115.7,127.6,114.1,129.6,114.1z
		 M129.6,114.7c-1.7,0-3,1.4-3,3.1c0,1.7,1.4,3.1,3,3.1c1.7,0,3-1.2,3-3.1C132.5,116.1,131.2,114.7,129.6,114.7z M128.8,119.9h-0.6
		v-4.2h1.6c1,0,1.5,0.4,1.5,1.2c0,0.7-0.5,1.1-1.1,1.1l1.2,1.8h-0.7l-1.1-1.8h-0.7L128.8,119.9L128.8,119.9z M128.8,117.6h0.7
		c0.7,0,1-0.2,1-0.7c0-0.4-0.2-0.6-1-0.6h-0.9v1.4L128.8,117.6L128.8,117.6z"/>
</g>
</svg>
