<?xml version="1.0" encoding="utf-8"?>
<!-- Generator: Adobe Illustrator 19.1.0, SVG Export Plug-In . SVG Version: 6.00 Build 0)  -->
<svg version="1.1" xmlns="http://www.w3.org/2000/svg" xmlns:xlink="http://www.w3.org/1999/xlink" x="0px" y="0px"
	 viewBox="0 0 172.2 81.3" style="enable-background:new 0 0 172.2 81.3;" xml:space="preserve">
<style type="text/css">
	.st0{fill:#595959;}
</style>
<g id="logos">
	<path d="M122.7,60.5c-0.7,0-1.3,0.3-1.7,0.8c-0.4,0.5-0.7,1.3-0.7,2.3c0,2.1,0.8,3.2,2.3,3.2c1.6,0,2.4-1.1,2.4-3.2
		c0-1-0.2-1.7-0.6-2.3C124,60.7,123.5,60.5,122.7,60.5z"/>
	<path d="M172.2,61.9c0,0,0-9.2,0-9.2s-7.6,0-10.4,0c0-1.6,0-5.8,0-5.8H157c3.2-4.8,5.1-10.6,5.1-16.8C162.1,13.5,148.6,0,132,0
		c-16.6,0-30.1,13.5-30.1,30.1c0,6.1,1.8,11.8,5,16.6c-1.2,0.2-2.3,0.4-3.1,0.8c-1.2,0.5-2.3,1.3-3.2,2.2c0-0.1-0.1,0.1-0.1,0.1
		c0,0,0,0,0,0c0,0-0.2,0.2-0.2,0.2c0.1-0.1-0.1,0.1-0.1,0.1c0.1-0.1-0.1,0.1-0.1,0.1c0,0-0.1,0.1-0.1,0.1l0.1-0.1l-0.2,0.2
		c0-0.1,0,0,0,0c0,0-0.2,0.2-0.2,0.2l0.1-0.1L99.2,51c0,0,0,0,0,0c0,0-0.2,0.2-0.2,0.2c-0.1,0.1-0.1,0.1-0.1,0.1
		c0.1-0.1-0.1,0.1-0.1,0.1l0.1-0.1c0,0-0.1,0.1-0.1,0.1c0,0-0.2,0.3-0.2,0.3l0.2-0.2l-0.2,0.2c0.1-0.1-0.1,0.1-0.1,0.1
		c0,0-0.1,0.1-0.1,0.1l-0.2,0.2l-0.2,0.2l0.1-0.1c0,0-0.2,0.2-0.2,0.2c-0.1,0-0.2,0.2-0.2,0.2c0.1-0.1-0.1,0.1-0.1,0.1
		c0.1-0.1-0.1,0.1-0.1,0.1l0.1-0.1L97.2,53l0.1-0.1l-0.2,0.2c0,0,0,0,0,0c0,0-0.1,0.1-0.1,0.1c0,0-0.2,0.2-0.2,0.2
		c0.1-0.1-0.1,0.1-0.1,0.1c0,0-0.1,0.1-0.1,0.1l-0.1,0.1l0,0l-0.1,0.1l0,0l-0.2,0.2l0,0c0,0,0,0,0,0c-1.4-0.9-3.1-1.3-5-1.3
		c-0.5,0-1,0.1-1.5,0.2c0-1.6,0-5.7,0-5.7H76l-5.8,5.8l-0.8,0c0,0-0.1,0.1-0.1,0.1c-0.9-0.2-1.9-0.3-2.9-0.3c-2.3,0-4.4,0.5-6.2,1.5
		c0-0.6,0-1.3,0-1.3s-2.7,0-2.8,0c0-1.8,0-7.6,0-7.6l-3.6,1.7c0,0-6.1,2.9-8.1,3.9c-0.4-1.1-1.2-2-2.2-2.7c-1.4-0.9-3-1.4-4.9-1.4
		c-1.8,0-3.4,0.4-4.7,1.2c0,0-1.3,1-1.3,1c0,0-0.3,0.3-0.3,0.3c-0.1,0.1,0,0,0,0s0,0,0,0c-0.6-0.4-1.3-0.8-2-1.1
		c-1.8-0.8-4.2-1.1-7.5-1.1H8.5L0,55.5v11c0,0,1.1,0,1.9,0c0,0.9,0,1.2,0,1.7C1.3,68.7,0,70,0,70v11h17.1c0,0,3.3-1.7,5.9-3
		c0,0.1,0,3,0,3h14.8c0,0,1.3-1.3,1.3-1.3c0.4,0.3,0.9,0.6,1.4,0.8c1.3,0.6,2.7,0.9,4.3,0.9c1.2,0,2.4-0.2,3.6-0.5
		c1.3-0.3,2.3-0.8,3.1-1.3l0.6-0.4c0,0,0,0,0,0c0,0,0-0.1,0.1-0.1c2.2,1.5,5,2.3,8.4,2.3c2.2,0,4.1-0.4,5.9-1.1c0,0.3,0,0.7,0,0.7
		h39.1c0,0,1.8-1.8,1.8-1.8c2.2,1.4,5,2.2,8.4,2.2c2.8,0,5.3-0.6,7.4-1.7c0,0.7,0,1.3,0,1.3h29.1l0.3-0.3l0.1-0.1l0.1-0.1
		c0,0,0.7-0.7,0.7-0.7c0.2,0.2,1.2,1.2,1.2,1.2h8.1l0,0h2.4l7.1-7.1h0.1L172.2,61.9C172.2,61.9,172.2,61.9,172.2,61.9z M31.2,60.5
		c-0.7,0.9-1.6,1.5-2.8,1.9c-1.1,0.4-2.9,0.6-5.2,0.6h-3v2.7h1.9v4.6H11v-4.6h1.9v-10H11v-4.6h11.7c2.7,0,4.7,0.3,5.9,0.8
		c1.2,0.5,2.2,1.3,2.8,2.2c0.6,0.9,0.9,1.9,0.9,3C32.3,58.5,31.9,59.6,31.2,60.5z M35.9,51.4c0.7-0.4,1.6-0.7,2.7-0.7
		c1.1,0,2,0.2,2.7,0.7c0.7,0.5,1,1,1,1.7c0,0.7-0.3,1.3-1,1.7c-0.7,0.4-1.6,0.6-2.7,0.6c-1.1,0-2-0.2-2.7-0.6
		c-0.7-0.4-1.1-1-1.1-1.8C34.8,52.5,35.2,51.9,35.9,51.4z M43.4,70.3H34v-4.2h1.4v-5H34V57h8.3v9.2h1.2V70.3z M56.4,61.2h-2.8v2.6
		c0,0.8,0.1,1.4,0.2,1.7c0.1,0.3,0.5,0.4,0.9,0.4c0.4,0,1-0.1,1.6-0.4v4.1c-0.5,0.3-1.1,0.6-2,0.8c-0.9,0.2-1.8,0.4-2.6,0.4
		c-1,0-1.9-0.2-2.7-0.5c-0.8-0.3-1.3-0.8-1.7-1.4c-0.2-0.3-0.4-0.7-0.5-0.9c-0.1-0.3-0.2-0.6-0.2-0.9c-0.1-0.6-0.1-1.8-0.1-3.5v-2.2
		h-1.7V57h1.7v-2.1l6.9-3.3V57h2.8V61.2z M73,69.5c-1.4,0.8-3.2,1.2-5.3,1.2c-2.8,0-5-0.6-6.6-1.9c-1.6-1.3-2.4-3-2.4-5.1
		c0-2,0.8-3.7,2.3-5c1.5-1.3,3.4-2,5.6-2c1.9,0,3.4,0.4,4.4,1.1V57h4.2v5.7h-4.2c-0.5-1.5-1.4-2.3-2.7-2.3c-0.8,0-1.5,0.3-2,1
		c-0.5,0.7-0.7,1.5-0.7,2.4c0,1,0.2,1.9,0.7,2.4c0.5,0.6,1.1,0.9,1.9,0.9c1.3,0,2.1-0.8,2.4-2.3l5.2,1.2
		C75.3,67.5,74.4,68.6,73,69.5z M98.2,70.3h-8.5v-5.5c0-1.7-0.1-2.7-0.3-3.1c-0.2-0.4-0.6-0.6-1.3-0.6c-0.7,0-1.4,0.2-2.1,0.7v4.3
		h1.9v4.2H77.4v-4.2h1.7V55.4h-1.7v-4.2h8.7v7.4c1.8-1.2,3.7-1.8,5.4-1.8c1.6,0,2.8,0.5,3.7,1.4c0.9,0.9,1.4,2.5,1.4,4.9v3.2h1.6
		V70.3z M132,9.9c11.2,0,20.3,9.1,20.3,20.3c0,11.2-9.1,20.3-20.3,20.3c-11.2,0-20.3-9.1-20.3-20.3C111.7,19,120.8,9.9,132,9.9z
		 M113,54.6c-0.7-0.1-1.2-0.1-1.7-0.1c-0.6,0-1.1,0.1-1.5,0.2c-0.4,0.2-0.6,0.4-0.7,0.7c-0.1,0.3-0.2,0.8-0.2,1.5h2.6v4.2h-2.6v5
		h2.3v4.2h-10.8v-4.2h1.7v-5h-1.7V57h1.7v-0.3c0-1.4,0.3-2.5,0.9-3.3c0.6-0.8,1.4-1.4,2.3-1.9c1-0.4,2.6-0.6,4.8-0.6
		c1,0,2,0,2.9,0.1V54.6z M129.5,68.7c-1.7,1.3-3.9,2-6.7,2c-3,0-5.3-0.7-7-2c-1.7-1.3-2.5-3-2.5-5.1c0-2,0.8-3.6,2.5-5
		c1.7-1.3,3.9-2,6.7-2c2.8,0,5.1,0.7,6.9,2c1.8,1.3,2.7,3,2.7,5.1C132,65.6,131.2,67.3,129.5,68.7z M148.4,62.6c-0.2,0-0.3,0-0.6,0
		c-1.4,0-2.5,0.1-3.2,0.4c-0.7,0.3-1.2,0.7-1.5,1.2c-0.3,0.5-0.4,1.1-0.4,2h2v4.2h-10.8v-4.2h1.8v-5h-1.8V57h8.3v3.3
		c0.3-0.8,0.8-1.6,1.4-2.2c0.6-0.6,1.3-1,1.9-1.2c0.6-0.2,1.5-0.3,2.7-0.3V62.6z M168.3,70.3h-5l-5.5-5.8v5.8h-8.6v-4.2h1.7V55.4
		h-1.7v-4.2h8.7v13.3l4.3-4.3h-2.4V57h8.5v3.6h-1.6l-2.5,2.5l3,3.1h1.1V70.3z"/>
	<path d="M23.3,55.5c-0.4-0.1-1-0.1-1.9-0.1h-1.2V59h1.4c1,0,1.7-0.1,2.2-0.4c0.4-0.2,0.7-0.7,0.7-1.4c0-0.4-0.1-0.8-0.4-1.1
		C24,55.8,23.7,55.6,23.3,55.5z"/>
	<path class="st0" d="M130.5,25.4v-9.1h-9.1l2.6,2.6l-9.9,9.9c0,0.4-0.1,0.9-0.1,1.3c0,1.9,0.3,3.8,0.9,5.5l12.9-12.9L130.5,25.4z"
		/>
	<path class="st0" d="M121.6,44.7l19.1-19.1l2.6,2.6v-9.1h-9.1l2.6,2.6l-19.2,19.2C118.8,42.3,120.1,43.6,121.6,44.7z"/>
	<path class="st0" d="M139.5,34.8l-12.5,12.5c1.6,0.5,3.3,0.7,5,0.7c0.7,0,1.4,0,2-0.1l9.3-9.3l2.6,2.6l0-9.1h-9.1L139.5,34.8z"/>
</g>
<g id="guides">
</g>
</svg>
