<?xml version="1.0" encoding="utf-8"?>
<!-- Generator: Adobe Illustrator 16.0.4, SVG Export Plug-In . SVG Version: 6.00 Build 0)  -->
<!DOCTYPE svg PUBLIC "-//W3C//DTD SVG 1.1//EN" "http://www.w3.org/Graphics/SVG/1.1/DTD/svg11.dtd">
<svg version="1.1" id="Layer_1" xmlns="http://www.w3.org/2000/svg" xmlns:xlink="http://www.w3.org/1999/xlink" x="0px" y="0px"
	 width="170px" height="93.1px" viewBox="0 109.9 170 93.1" style="enable-background:new 0 109.9 170 93.1;" xml:space="preserve">
<style type="text/css">
<![CDATA[
	.st0{fill:#595959;}
]]>
</style>
<g id="logos">
	<path d="M121.1,169.6c-0.7,0-1.3,0.3-1.7,0.8c-0.4,0.5-0.7,1.3-0.7,2.3c0,2.1,0.8,3.2,2.3,3.2c1.6,0,2.4-1.1,2.4-3.2
		c0-1-0.2-1.7-0.6-2.3C122.4,169.8,121.9,169.6,121.1,169.6z"/>
	<path d="M170,171v-9.1c0,0-7.5,0-10.3,0c0-1.6,0-5.7,0-5.7H155c3.2-4.7,5-10.5,5-16.6c0-16.4-13.3-29.7-29.7-29.7
		s-29.7,13.3-29.7,29.7c0,6,1.8,11.6,4.9,16.4c-1.2,0.2-2.3,0.4-3.1,0.8c-1.2,0.5-2.3,1.3-3.2,2.2c0-0.1-0.1,0.1-0.1,0.1l0,0
		l-0.2,0.2c0.1-0.1-0.1,0.1-0.1,0.1c0.1-0.1-0.1,0.1-0.1,0.1l-0.1,0.1l0.1-0.1l-0.2,0.2c0-0.1,0,0,0,0l-0.2,0.2l0.1-0.1l-0.6,0.5
		l0,0l-0.2,0.2c-0.1,0.1-0.1,0.1-0.1,0.1c0.1-0.1-0.1,0.1-0.1,0.1l0.1-0.1l-0.1,0.1l-0.2,0.3l0.2-0.2l-0.2,0.2
		c0.1-0.1-0.1,0.1-0.1,0.1l-0.1,0.1l-0.2,0.2l-0.2,0.2l0.1-0.1l-0.2,0.2c-0.1,0-0.2,0.2-0.2,0.2c0.1-0.1-0.1,0.1-0.1,0.1
		c0.1-0.1-0.1,0.1-0.1,0.1l0.1-0.1l-0.4,0.3l0.1-0.1l-0.2,0.2l0,0l-0.1,0.1l-0.2,0.2c0.1-0.1-0.1,0.1-0.1,0.1l-0.1,0.1l-0.1,0.1l0,0
		l-0.1,0.1l0,0l-0.2,0.2l0,0l0,0c-1.4-0.9-3.1-1.3-4.9-1.3c-0.5,0-1,0.1-1.5,0.2c0-1.6,0-5.6,0-5.6H75l-5.7,5.7h-0.8l-0.1,0.1
		c-0.9-0.2-1.9-0.3-2.9-0.3c-2.3,0-4.3,0.5-6.1,1.5c0-0.6,0-1.3,0-1.3s-2.7,0-2.8,0c0-1.8,0-7.5,0-7.5l-3.6,1.7c0,0-6,2.9-8,3.9
		c-0.4-1.1-1.2-2-2.2-2.7c-1.4-0.9-3-1.4-4.8-1.4c-1.8,0-3.4,0.4-4.6,1.2l-1.3,1l-0.3,0.3c-0.1,0.1,0,0,0,0l0,0
		c-0.6-0.4-1.3-0.8-2-1.1c-1.8-0.8-4.1-1.1-7.4-1.1H8.4L0,164.7v10.9c0,0,1.1,0,1.9,0c0,0.9,0,1.2,0,1.7C1.3,177.7,0,179,0,179v10.9
		h16.9c0,0,3.3-1.7,5.8-3c0,0.1,0,3,0,3h14.6l1.3-1.3c0.4,0.3,0.9,0.6,1.4,0.8c1.3,0.6,2.7,0.9,4.2,0.9c1.2,0,2.4-0.2,3.6-0.5
		c1.3-0.3,2.3-0.8,3.1-1.3l0.6-0.4l0,0c0,0,0-0.1,0.1-0.1c2.2,1.5,4.9,2.3,8.3,2.3c2.2,0,4-0.4,5.8-1.1c0,0.3,0,0.7,0,0.7h38.6
		l1.8-1.8c2.2,1.4,4.9,2.2,8.3,2.2c2.8,0,5.2-0.6,7.3-1.7c0,0.7,0,1.3,0,1.3h28.7l0.3-0.3l0.1-0.1l0.1-0.1l0.7-0.7
		c0.2,0.2,1.2,1.2,1.2,1.2h8l0,0h2.4l7-7h0.1L170,171L170,171z M30.8,169.6c-0.7,0.9-1.6,1.5-2.8,1.9c-1.1,0.4-2.9,0.6-5.1,0.6h-3
		v2.7h1.9v4.5h-11v-4.5h1.9v-9.9h-1.9v-4.5h11.6c2.7,0,4.6,0.3,5.8,0.8c1.2,0.5,2.2,1.3,2.8,2.2c0.6,0.9,0.9,1.9,0.9,3
		C31.9,167.6,31.5,168.7,30.8,169.6z M35.4,160.6c0.7-0.4,1.6-0.7,2.7-0.7s2,0.2,2.7,0.7c0.7,0.5,1,1,1,1.7s-0.3,1.3-1,1.7
		c-0.7,0.4-1.6,0.6-2.7,0.6s-2-0.2-2.7-0.6c-0.7-0.4-1.1-1-1.1-1.8C34.4,161.7,34.8,161.1,35.4,160.6z M42.8,179.3h-9.3v-4.1h1.4
		v-4.9h-1.4v-4h8.2v9.1h1.2L42.8,179.3L42.8,179.3z M55.7,170.3h-2.8v2.6c0,0.8,0.1,1.4,0.2,1.7c0.1,0.3,0.5,0.4,0.9,0.4
		c0.4,0,1-0.1,1.6-0.4v4c-0.5,0.3-1.1,0.6-2,0.8c-0.9,0.2-1.8,0.4-2.6,0.4c-1,0-1.9-0.2-2.7-0.5c-0.8-0.3-1.3-0.8-1.7-1.4
		c-0.2-0.3-0.4-0.7-0.5-0.9c-0.1-0.3-0.2-0.6-0.2-0.9c-0.1-0.6-0.1-1.8-0.1-3.5v-2.2h-1.7v-4.3h1.7v-2.1l6.8-3.3v5.3h2.8v4.1H55.7z
		 M72.1,178.5c-1.4,0.8-3.2,1.2-5.2,1.2c-2.8,0-4.9-0.6-6.5-1.9c-1.6-1.3-2.4-3-2.4-5c0-2,0.8-3.7,2.3-4.9s3.4-2,5.5-2
		c1.9,0,3.4,0.4,4.3,1.1v-0.8h4.1v5.6h-4.1c-0.5-1.5-1.4-2.3-2.7-2.3c-0.8,0-1.5,0.3-2,1c-0.5,0.7-0.7,1.5-0.7,2.4
		c0,1,0.2,1.9,0.7,2.4c0.5,0.6,1.1,0.9,1.9,0.9c1.3,0,2.1-0.8,2.4-2.3l5.1,1.2C74.3,176.5,73.4,177.6,72.1,178.5z M96.9,179.3h-8.4
		v-5.4c0-1.7-0.1-2.7-0.3-3.1s-0.6-0.6-1.3-0.6s-1.4,0.2-2.1,0.7v4.2h1.9v4.1H76.4v-4.1h1.7v-10.6h-1.7v-4.1H85v7.3
		c1.8-1.2,3.7-1.8,5.3-1.8c1.6,0,2.8,0.5,3.7,1.4c0.9,0.9,1.4,2.5,1.4,4.8v3.2h1.6V179.3z M130.3,119.6c11.1,0,20,9,20,20
		c0,11.1-9,20-20,20c-11.1,0-20-9-20-20C110.3,128.6,119.3,119.6,130.3,119.6z M111.6,163.8c-0.7-0.1-1.2-0.1-1.7-0.1
		c-0.6,0-1.1,0.1-1.5,0.2c-0.4,0.2-0.6,0.4-0.7,0.7s-0.2,0.8-0.2,1.5h2.6v4.1h-2.6v4.9h2.3v4.1H99.1v-4.1h1.7v-4.9h-1.7v-4h1.7v-0.3
		c0-1.4,0.3-2.5,0.9-3.3c0.6-0.8,1.4-1.4,2.3-1.9c1-0.4,2.6-0.6,4.7-0.6c1,0,2,0,2.9,0.1V163.8L111.6,163.8z M127.8,177.7
		c-1.7,1.3-3.9,2-6.6,2c-3,0-5.2-0.7-6.9-2c-1.7-1.3-2.5-3-2.5-5c0-2,0.8-3.6,2.5-4.9c1.7-1.3,3.9-2,6.6-2c2.8,0,5,0.7,6.8,2
		c1.8,1.3,2.7,3,2.7,5C130.3,174.6,129.5,176.3,127.8,177.7z M146.5,171.7c-0.2,0-0.3,0-0.6,0c-1.4,0-2.5,0.1-3.2,0.4
		c-0.7,0.3-1.2,0.7-1.5,1.2c-0.3,0.5-0.4,1.1-0.4,2h2v4.1h-10.7v-4.1h1.8v-4.9h-1.8v-4.1h8.2v3.3c0.3-0.8,0.8-1.6,1.4-2.2
		c0.6-0.6,1.3-1,1.9-1.2c0.6-0.2,1.5-0.3,2.7-0.3v5.9H146.5z M166.2,179.3h-4.9l-5.4-5.7v5.7h-8.5v-4.1h1.7v-10.6h-1.7v-4.1h8.6
		v13.1l4.2-4.2h-2.4v-3.2h8.4v3.6h-1.6l-2.5,2.5l3,3.1h1.1V179.3z"/>
	<path d="M23,164.7c-0.4-0.1-1-0.1-1.9-0.1h-1.2v3.6h1.4c1,0,1.7-0.1,2.2-0.4c0.4-0.2,0.7-0.7,0.7-1.4c0-0.4-0.1-0.8-0.4-1.1
		C23.7,165,23.4,164.8,23,164.7z"/>
	<path class="st0" d="M128.8,134.9v-9h-9l2.6,2.6l-9.8,9.8c0,0.4-0.1,0.9-0.1,1.3c0,1.9,0.3,3.8,0.9,5.4l12.7-12.7L128.8,134.9z"/>
	<path class="st0" d="M120,154l18.9-18.9l2.6,2.6v-9h-9l2.6,2.6l-19,19C117.3,151.6,118.6,152.9,120,154z"/>
	<path class="st0" d="M137.7,144.2l-12.3,12.3c1.6,0.5,3.3,0.7,4.9,0.7c0.7,0,1.4,0,2-0.1l9.2-9.2l2.6,2.6v-9h-9L137.7,144.2z"/>
</g>
<g id="guides">
</g>
</svg>
