<?xml version="1.0" encoding="utf-8"?>
<!-- Generator: Adobe Illustrator 18.1.1, SVG Export Plug-In . SVG Version: 6.00 Build 0)  -->
<svg version="1.1" xmlns="http://www.w3.org/2000/svg" xmlns:xlink="http://www.w3.org/1999/xlink" x="0px" y="0px"
	 viewBox="0 0 323.5 323.5" style="enable-background:new 0 0 323.5 323.5;" xml:space="preserve">
<style type="text/css">
	.st0{fill:#EF4123;}
	.st1{fill:#4D4D4F;}
</style>
<g id="logos">
	<g>
		<path class="st0" d="M165,124.2V72.6h-51.6l14.9,14.9l-83.7,83.3c-0.2,2.5-0.4,5-0.4,7.5c0,10.9,4.3,19.4,7.5,29.2l98.3-98.3
			L165,124.2z"/>
		<path class="st0" d="M215.7,177l-95.9,96.1c9,2.7,17.7,5.5,27.7,6.7c3.9,0.5,6.6,0.3,10.4-0.1l79.6-81l14.9,14.9l0-51.6h-51.6
			L215.7,177z"/>
		<path class="st0" d="M237.6,140V88.4H186l14.9,14.9L68.5,235.8c6.2,8.2,13.6,15.5,22,21.5l132.2-132.2L237.6,140z"/>
		<path class="st1" d="M161.8,0C72.6,0,0,72.6,0,161.8c0,89.2,72.6,161.8,161.8,161.8c89.2,0,161.7-72.6,161.7-161.8
			C323.5,72.6,250.9,0,161.8,0z M161.8,291.3c-71.4,0-129.5-58.1-129.5-129.5c0-71.4,58.1-129.5,129.5-129.5
			c71.4,0,129.5,58.1,129.5,129.5C291.3,233.2,233.2,291.3,161.8,291.3z"/>
	</g>
</g>
<g id="guides">
</g>
</svg>
