<?xml version="1.0" encoding="utf-8"?>
<!-- Generator: Adobe Illustrator 18.1.1, SVG Export Plug-In . SVG Version: 6.00 Build 0)  -->
<svg version="1.1" id="Layer_1" xmlns="http://www.w3.org/2000/svg" xmlns:xlink="http://www.w3.org/1999/xlink" x="0px" y="0px"
	 viewBox="-313.1 1566.2 192.2 45.8" style="enable-background:new -313.1 1566.2 192.2 45.8;" xml:space="preserve">
<style type="text/css">
	.st0{clip-path:url(#SVGID_2_);fill:#E31937;}
	.st1{clip-path:url(#SVGID_4_);}
	.st2{clip-path:url(#SVGID_13_);}
	.st3{clip-path:url(#SVGID_14_);}
	.st4{clip-path:url(#SVGID_15_);}
	.st5{clip-path:url(#SVGID_16_);}
	.st6{clip-path:url(#SVGID_17_);}
	.st7{clip-path:url(#SVGID_18_);}
	.st8{clip-path:url(#SVGID_19_);}
	.st9{clip-path:url(#SVGID_20_);fill:#E31937;}
</style>
<g>
	<g>
		<defs>
			<rect id="SVGID_1_" x="-313.1" y="1566.2" width="192.1" height="45.1"/>
		</defs>
		<clipPath id="SVGID_2_">
			<use xlink:href="#SVGID_1_"  style="overflow:visible;"/>
		</clipPath>
		<path class="st0" d="M-302.4,1575L-302.4,1575L-302.4,1575z"/>
	</g>
</g>
<g>
	<g>
		<defs>
			<rect id="SVGID_3_" x="-313.1" y="1566.6" width="192.1" height="45.1"/>
		</defs>
		<clipPath id="SVGID_4_">
			<use xlink:href="#SVGID_3_"  style="overflow:visible;"/>
		</clipPath>
		<g class="st1">
			<g>
				<defs>
					<rect id="SVGID_5_" x="-313.1" y="1566.6" width="192.1" height="45.1"/>
				</defs>
				<defs>
					<rect id="SVGID_6_" x="-313.1" y="1566.6" width="192.1" height="45.1"/>
				</defs>
				<defs>
					<rect id="SVGID_7_" x="-313.1" y="1566.6" width="192.1" height="45.1"/>
				</defs>
				<defs>
					<rect id="SVGID_8_" x="-313.1" y="1566.6" width="192.1" height="45.1"/>
				</defs>
				<defs>
					<rect id="SVGID_9_" x="-313.1" y="1566.6" width="192.1" height="45.1"/>
				</defs>
				<defs>
					<rect id="SVGID_10_" x="-313.1" y="1566.6" width="192.1" height="45.1"/>
				</defs>
				<defs>
					<rect id="SVGID_11_" x="-313.1" y="1566.6" width="192.1" height="45.1"/>
				</defs>
				<defs>
					<rect id="SVGID_12_" x="-313.1" y="1566.6" width="192.1" height="45.1"/>
				</defs>
				<clipPath id="SVGID_13_">
					<use xlink:href="#SVGID_5_"  style="overflow:visible;"/>
				</clipPath>
				<clipPath id="SVGID_14_" class="st2">
					<use xlink:href="#SVGID_6_"  style="overflow:visible;"/>
				</clipPath>
				<clipPath id="SVGID_15_" class="st3">
					<use xlink:href="#SVGID_7_"  style="overflow:visible;"/>
				</clipPath>
				<clipPath id="SVGID_16_" class="st4">
					<use xlink:href="#SVGID_8_"  style="overflow:visible;"/>
				</clipPath>
				<clipPath id="SVGID_17_" class="st5">
					<use xlink:href="#SVGID_9_"  style="overflow:visible;"/>
				</clipPath>
				<clipPath id="SVGID_18_" class="st6">
					<use xlink:href="#SVGID_10_"  style="overflow:visible;"/>
				</clipPath>
				<clipPath id="SVGID_19_" class="st7">
					<use xlink:href="#SVGID_11_"  style="overflow:visible;"/>
				</clipPath>
				<clipPath id="SVGID_20_" class="st8">
					<use xlink:href="#SVGID_12_"  style="overflow:visible;"/>
				</clipPath>
				<path class="st9" d="M-177.7,1589.3c-0.8,0-1.6-0.2-2.4-0.7l-0.4-0.2l-1.8,4l0.3,0.2c1.6,0.8,3,1.2,4.8,1.2
					c3.3,0,5.2-1.6,6.7-5.6c0,0,7.9-20.2,7.9-20.2h-0.6h-4.9c0,0-4.1,11.5-4.7,13.4c-0.7-1.8-5.2-13.4-5.2-13.4h-5.6
					c0,0,8.1,19.1,8.2,19.5C-176.1,1589-176.8,1589.3-177.7,1589.3"/>
				<path class="st9" d="M-228.8,1584.2l0.3-0.3l-3.2-3.2l-0.3,0.3c-1.5,1.6-3,2.3-4.7,2.3c-3,0-5.3-2.5-5.3-5.7v-0.1
					c0-3.2,2.3-5.7,5.1-5.7c2.2,0,3.6,1.1,4.7,2.3l0.3,0.3l3.3-3.5l-0.3-0.3c-2.2-2.4-4.6-3.4-8-3.4c-5.8,0-10.4,4.6-10.4,10.4v0.1
					c0,5.8,4.6,10.3,10.4,10.3C-232.8,1587.9-230.5,1586.1-228.8,1584.2"/>
				<path class="st9" d="M-216.8,1587.9c6,0,10.7-4.5,10.7-10.3v-0.1c0-5.8-4.7-10.3-10.7-10.3c-6,0-10.7,4.6-10.7,10.4v0.1
					C-227.5,1583.4-222.8,1587.9-216.8,1587.9 M-222.2,1577.5c0-3.3,2.3-5.7,5.4-5.7c3.1,0,5.5,2.5,5.5,5.7v0.1
					c0,2.8-1.9,5.6-5.4,5.6C-219.8,1583.3-222.2,1580.7-222.2,1577.5L-222.2,1577.5z"/>
				<path class="st9" d="M-256.1,1567.8l0,0.4v10.9c0,2.2-1.5,3.8-3.5,3.8c-2.1,0-3.6-1.6-3.6-3.8v-11.3h-5.5v11.3
					c0,4.9,4,8.2,9.1,8.2c1.6,0,3-0.6,4.3-1.2c0.1-0.1,0.2-0.1,0.4-0.2l0.1,1v0.4h4.4v-8.2v-1.8v-9.5H-256.1L-256.1,1567.8z"/>
				<path class="st9" d="M-197.5,1587.3l0-0.4V1576c0-2.2,1.5-3.8,3.5-3.8c2.1,0,3.6,1.6,3.6,3.8v11.3h5.5V1576c0-4.9-4-8.2-9.1-8.2
					c-1.6,0-3,0.6-4.3,1.2c-0.1,0.1-0.2,0.1-0.4,0.2l-0.1-1v-0.4h-4.4v8.2v1.8v9.5L-197.5,1587.3L-197.5,1587.3L-197.5,1587.3z"/>
				<path class="st9" d="M-277.7,1568.2v0.8c-1.6-0.9-3.5-1.8-5.6-1.8c-6.1,0-10.9,4.2-10.9,10.2v0.1c0,5.9,4.8,10.1,10.9,10.1
					c2.1,0,4-0.9,5.6-1.9v0.8v0.5h4.9v-19.3h-4.9L-277.7,1568.2L-277.7,1568.2z M-283.1,1583.2c-3.3,0-6-2.6-6-5.8
					c0-3.2,2.7-5.8,6-5.8c3.3,0,6,2.6,6,5.8C-277.1,1580.6-279.8,1583.2-283.1,1583.2"/>
				<path class="st9" d="M-303.8,1570.6c1.3,0,3.2,0.6,5.5,1.9l0.2,0.1l2.1-3.7l-0.2-0.1c-2.2-1.4-5.1-2.2-7.6-2.2
					c-3.8,0-7.7,2-7.7,6.6v0.1c0,3.7,3.4,5.2,6.4,6c2,0.6,3.9,1.3,3.9,2.7v0.1c0,0.6-0.3,2.3-2.9,2.3c-1.9,0-4.2-1.1-6.6-2.7
					l-0.2-0.1l-2.3,3.5l0.2,0.1c2.6,1.9,5.7,3.2,8.8,3.2c5.2,0,8.1-2.5,8.1-6.6v-0.4c0-2.6-2.1-4.5-6.4-6h0h0l-0.5-0.2
					c-2-0.7-3.4-1.1-3.4-2.6v-0.1C-306.5,1571.5-305.7,1570.6-303.8,1570.6"/>
				<path class="st9" d="M-121.3,1590.4L-121.3,1590.4c-1.6-1.1-1.6-1.1-2.7-1.8c-10.6-6.3-16.1-7.1-21.2-5.4
					c-4,1.3-10.9,6.7-10.9,6.7c-6.3,4.1-12.6,11-27.5,10.2c-13.8-0.7-42.3-8.1-42.7-8.2c-0.3-0.1-0.7,0.2-0.6,0.6
					c0.1,0.3,0.8,1.8,0.8,1.8c0.1,0.2,0.3,0.3,0.4,0.3c11.3,4.5,45.9,17.1,58.2,17.1c14.6,0,26.6-20,39.6-20c4,0,5,0.1,5.6,0.1
					c0.6,0,1.1-0.1,1.2-0.6C-121,1591.2-120.8,1590.7-121.3,1590.4 M-158.9,1603.2c-0.2,0.8-0.6,1.5-1.3,2c-0.7,0.5-1.5,0.6-2.3,0.5
					c-0.8-0.2-1.5-0.6-2-1.3c-1-1.4-0.6-3.3,0.9-4.3c1.4-0.9,3.4-0.6,4.3,0.9C-158.9,1601.6-158.7,1602.4-158.9,1603.2 M-151,1599.1
					c-1.4,0.9-3.4,0.6-4.3-0.9c-0.9-1.4-0.6-3.3,0.9-4.3c1.4-0.9,3.4-0.6,4.3,0.9c0.4,0.5,0.5,1.1,0.5,1.7
					C-149.6,1597.5-150.1,1598.5-151,1599.1 M-140.5,1591.1c-0.2,0.8-0.6,1.5-1.3,2c-0.7,0.5-1.5,0.6-2.3,0.5
					c-0.8-0.2-1.5-0.6-2-1.3c-0.5-0.7-0.6-1.5-0.5-2.3c0.2-0.8,0.6-1.5,1.3-2c0.7-0.5,1.5-0.6,2.3-0.5c0.8,0.2,1.5,0.6,2,1.3
					C-140.5,1589.5-140.3,1590.3-140.5,1591.1"/>
			</g>
		</g>
	</g>
</g>
</svg>
