<?xml version="1.0" encoding="utf-8"?>
<!-- Generator: Adobe Illustrator 19.1.0, SVG Export Plug-In . SVG Version: 6.00 Build 0)  -->
<svg version="1.1" xmlns="http://www.w3.org/2000/svg" xmlns:xlink="http://www.w3.org/1999/xlink" x="0px" y="0px"
	 viewBox="0 0 241.3 57.2" style="enable-background:new 0 0 241.3 57.2;" xml:space="preserve">
<g id="Layer_1">
</g>
<g id="Logos">
	<g>
		<g>
			<g>
				<polygon points="13.4,11.2 13.4,11.2 13.4,11.2 				"/>
				<path d="M170.1,28.9c-1,0-2-0.3-3-0.9l-0.5-0.3l-2.3,5.1l0.4,0.2c2,1.1,3.8,1.5,6,1.5c4.1,0,6.5-2,8.5-7.1
					c0,0,9.9-25.6,9.9-25.6h-0.8h-6.2c0,0-5.1,14.7-5.9,17c-0.9-2.3-6.5-17-6.5-17h-7.1c0,0,10.1,24.3,10.3,24.7
					C172.1,28.5,171.2,28.9,170.1,28.9z"/>
				<path d="M105.9,22.4l0.3-0.4l-4.1-4l-0.4,0.4c-1.9,2-3.8,2.9-5.9,2.9c-3.8,0-6.7-3.1-6.7-7.3v-0.1c0-4,2.8-7.2,6.4-7.2
					c2.8,0,4.5,1.4,5.9,2.9l0.4,0.4l4.2-4.5l-0.3-0.4c-2.7-3-5.8-4.3-10.1-4.3c-7.3,0-13.1,5.8-13.1,13.2v0.1c0,7.3,5.7,13,13,13
					C101,27.2,103.8,24.8,105.9,22.4z"/>
				<path d="M121,27.1c7.6,0,13.5-5.8,13.5-13.1v-0.1c0-7.3-5.9-13.1-13.4-13.1c-7.5,0-13.5,5.8-13.5,13.2V14
					C107.6,21.3,113.5,27.1,121,27.1z M114.2,13.8c0-4.2,2.8-7.2,6.8-7.2c3.9,0,6.9,3.1,6.9,7.3V14c0,3.6-2.3,7.2-6.8,7.2
					C117.2,21.2,114.2,18,114.2,13.8L114.2,13.8z"/>
				<path d="M71.7,1.6l0,0.5V16c0,2.8-1.8,4.8-4.5,4.8c-2.6,0-4.6-2.1-4.6-4.8V1.6h-6.9V16c0,6.3,5,10.4,11.4,10.4
					c2,0,3.8-0.7,5.4-1.5c0.2-0.1,0.3-0.2,0.5-0.2l0.1,1.3v0.5h5.6V15.9v-2.3v-12H71.7L71.7,1.6z"/>
				<path d="M145.2,26.4l0-0.5V12c0-2.8,1.8-4.8,4.5-4.8c2.6,0,4.6,2.1,4.6,4.8v14.3h6.9V12c0-6.3-5-10.4-11.4-10.4
					c-2,0-3.8,0.7-5.4,1.5c-0.2,0.1-0.3,0.2-0.5,0.2l-0.1-1.3V1.6h-5.6v10.5v2.3v12H145.2L145.2,26.4z"/>
				<path d="M44.5,2v1.1c-2-1.1-4.4-2.3-7-2.3c-7.7,0-13.7,5.4-13.7,12.9v0.1c0,7.5,6,12.8,13.6,12.8c2.6,0,5-1.2,7.1-2.4v1.1v0.7
					h6.2V1.4h-6.2V2z M37.7,21.1c-4.2,0-7.5-3.3-7.5-7.4c0-4.1,3.4-7.4,7.5-7.4c4.2,0,7.5,3.3,7.5,7.4
					C45.3,17.8,41.9,21.1,37.7,21.1z"/>
				<path d="M11.7,5.1c1.7,0,4,0.8,6.9,2.4l0.2,0.1l2.6-4.7l-0.2-0.1C18.4,1,14.9,0,11.8,0C7,0,2.1,2.6,2.1,8.3v0.1
					c0,4.7,4.3,6.6,8.1,7.7c2.5,0.7,4.9,1.6,4.9,3.5v0.1c0,0.8-0.4,2.9-3.7,2.9c-2.3,0-5.3-1.4-8.3-3.4L2.9,19L0,23.4l0.2,0.1
					c3.2,2.4,7.2,4,11,4c6.5,0,10.1-3.2,10.1-8.4v-0.5c0-3.3-2.6-5.8-8-7.6h0h0l0,0l-0.7-0.2c-2.5-0.8-4.3-1.4-4.3-3.3V7.5
					C8.3,6.3,9.4,5.1,11.7,5.1z"/>
			</g>
			<path d="M241,30.2L241,30.2c-2-1.4-2-1.4-3.4-2.2c-13.3-8.1-20.2-9-26.6-6.9c-5,1.7-13.6,8.5-13.6,8.5
				c-7.9,5.3-15.8,13.9-34.5,12.9c-17.4-0.9-53.1-10.2-53.6-10.3c-0.4-0.1-0.9,0.2-0.8,0.7c0.1,0.4,1,2.3,1,2.3
				c0.1,0.3,0.3,0.3,0.4,0.4c14.3,5.7,57.7,21.7,73,21.7c18.3,0,33.4-25.4,49.7-25.4c5.1,0,6.3,0.2,7.1,0.2c0.7,0.1,1.3-0.2,1.5-0.8
				C241.3,31.2,241.5,30.7,241,30.2z M192.3,49.5L192.3,49.5L192.3,49.5z M193.8,46.5c-0.2,1-0.8,1.9-1.7,2.5l0,0
				c-0.9,0.6-1.9,0.8-2.9,0.6c-1-0.2-1.9-0.8-2.5-1.7c-1.2-1.8-0.7-4.2,1.1-5.4c1.8-1.2,4.2-0.7,5.4,1.1
				C193.8,44.5,194,45.5,193.8,46.5z M203.6,41.3c-1.8,1.2-4.2,0.7-5.4-1.1c-1.2-1.8-0.7-4.2,1.1-5.4c1.8-1.2,4.2-0.7,5.4,1.1
				c0.4,0.7,0.7,1.4,0.7,2.2C205.4,39.3,204.8,40.6,203.6,41.3z M216.8,31.2c-0.2,1-0.8,1.9-1.7,2.5c-0.9,0.6-1.9,0.8-2.9,0.6
				c-1-0.2-1.9-0.8-2.5-1.7c-0.6-0.9-0.8-1.9-0.6-2.9c0.2-1,0.8-1.9,1.7-2.5c0.9-0.6,1.9-0.8,2.9-0.6c1,0.2,1.9,0.8,2.5,1.7
				C216.8,29.1,217,30.2,216.8,31.2z"/>
		</g>
		<g>
			<path d="M195.5,1.9c2.6,0,4.8,2.1,4.8,4.7c0,2.7-2.2,4.8-4.8,4.8c-2.6,0-4.8-2-4.8-4.7C190.7,3.9,192.9,1.9,195.5,1.9z
				 M195.5,10.7c2.3,0,4-1.8,4-4.1c0-2.3-1.8-4.1-4-4.1c-2.2,0-4,1.8-4,4.1C191.5,8.9,193.3,10.7,195.5,10.7z M193.7,3.9h2
				c1.3,0,1.9,0.5,1.9,1.6c0,1-0.6,1.4-1.5,1.5l1.6,2.4H197l-1.5-2.4h-1v2.4h-0.8V3.9z M194.5,6.4h1c0.8,0,1.5,0,1.5-0.9
				c0-0.8-0.7-0.9-1.2-0.9h-1.2V6.4z"/>
		</g>
	</g>
</g>
</svg>
