<?xml version="1.0" encoding="utf-8"?>
<!-- Generator: Adobe Illustrator 16.0.4, SVG Export Plug-In . SVG Version: 6.00 Build 0)  -->
<!DOCTYPE svg PUBLIC "-//W3C//DTD SVG 1.1//EN" "http://www.w3.org/Graphics/SVG/1.1/DTD/svg11.dtd">
<svg version="1.1" id="Layer_1" xmlns="http://www.w3.org/2000/svg" xmlns:xlink="http://www.w3.org/1999/xlink" x="0px" y="0px"
	 width="170px" height="52.7px" viewBox="0 117.5 170 52.7" style="enable-background:new 0 117.5 170 52.7;" xml:space="preserve">
<g id="Layer_1_1_">
</g>
<g id="Logos">
	<g>
		<g>
			<g>
				<path d="M9.4,137.7L9.4,137.7L9.4,137.7z"/>
				<path d="M119.8,150.2c-0.7,0-1.4-0.2-2.1-0.6l-0.4-0.2l-1.6,3.6l0.3,0.1c1.4,0.8,2.7,1.1,4.2,1.1c2.9,0,4.6-1.4,6-5l7-18h-0.6
					h-4.4c0,0-3.6,10.4-4.2,12c-0.6-1.6-4.6-12-4.6-12h-5c0,0,7.1,17.1,7.3,17.4C121.2,149.9,120.6,150.2,119.8,150.2z"/>
				<path d="M74.6,145.6l0.2-0.3l-2.9-2.8l-0.3,0.3c-1.3,1.4-2.7,2-4.2,2c-2.7,0-4.7-2.2-4.7-5.1v-0.1c0-2.8,2-5.1,4.5-5.1
					c2,0,3.2,1,4.2,2l0.3,0.3l3-3.2l-0.2-0.3c-1.9-2.1-4.1-3-7.1-3c-5.1,0-9.2,4.1-9.2,9.3v0.1c0,5.1,4,9.2,9.2,9.2
					C71.2,149,73.1,147.3,74.6,145.6z"/>
				<path d="M85.2,148.9c5.4,0,9.5-4.1,9.5-9.2v-0.1c0-5.1-4.2-9.2-9.4-9.2c-5.3,0-9.5,4.1-9.5,9.3l0,0
					C75.8,144.9,80,148.9,85.2,148.9z M80.5,139.6c0-3,2-5.1,4.8-5.1c2.7,0,4.9,2.2,4.9,5.1v0.1c0,2.5-1.6,5.1-4.8,5.1
					C82.6,144.8,80.5,142.5,80.5,139.6L80.5,139.6z"/>
				<path d="M50.5,131v0.4v9.8c0,2-1.3,3.4-3.2,3.4c-1.8,0-3.2-1.5-3.2-3.4V131h-4.9v10.1c0,4.4,3.5,7.3,8,7.3
					c1.4,0,2.7-0.5,3.8-1.1c0.1-0.1,0.2-0.1,0.4-0.1l0.1,0.9v0.4h3.9v-7.5v-1.6V131H50.5L50.5,131z"/>
				<path d="M102.3,148.5v-0.4v-9.8c0-2,1.3-3.4,3.2-3.4c1.8,0,3.2,1.5,3.2,3.4v10.1h4.9v-10.1c0-4.4-3.5-7.3-8-7.3
					c-1.4,0-2.7,0.5-3.8,1.1c-0.1,0.1-0.2,0.1-0.4,0.1l-0.1-0.9V131h-3.9v7.4v1.6v8.5H102.3L102.3,148.5z"/>
				<path d="M31.4,131.3v0.8c-1.4-0.8-3.1-1.6-4.9-1.6c-5.4,0-9.7,3.8-9.7,9.1v0.1c0,5.3,4.2,9,9.6,9c1.8,0,3.5-0.8,5-1.7v0.8v0.5
					h4.4v-17.3h-4.4V131.3z M26.6,144.7c-3,0-5.3-2.3-5.3-5.2c0-2.9,2.4-5.2,5.3-5.2c3,0,5.3,2.3,5.3,5.2
					C31.9,142.4,29.5,144.7,26.6,144.7z"/>
				<path d="M8.2,133.4c1.2,0,2.8,0.6,4.9,1.7l0.1,0.1l1.8-3.3l-0.1-0.1c-2-1.3-4.4-2-6.6-2c-3.4,0-6.8,1.8-6.8,5.8v0.1
					c0,3.3,3,4.6,5.7,5.4c1.8,0.5,3.5,1.1,3.5,2.5v0.1c0,0.6-0.3,2-2.6,2c-1.6,0-3.7-1-5.8-2.4L2,143.2l-2,3.1l0.1,0.1
					c2.3,1.7,5.1,2.8,7.7,2.8c4.6,0,7.1-2.3,7.1-5.9V143c0-2.3-1.8-4.1-5.6-5.4l0,0l0,0l0,0l-0.5-0.1c-1.8-0.6-3-1-3-2.3l0,0
					C5.8,134.3,6.6,133.4,8.2,133.4z"/>
			</g>
			<path d="M169.8,151.1L169.8,151.1c-1.4-1-1.4-1-2.4-1.5c-9.4-5.7-14.2-6.3-18.7-4.9c-3.5,1.2-9.6,6-9.6,6
				c-5.6,3.7-11.1,9.8-24.3,9.1c-12.3-0.6-37.4-7.2-37.8-7.3c-0.3-0.1-0.6,0.1-0.6,0.5c0.1,0.3,0.7,1.6,0.7,1.6
				c0.1,0.2,0.2,0.2,0.3,0.3c10.1,4,40.7,15.3,51.4,15.3c12.9,0,23.5-17.9,35-17.9c3.6,0,4.4,0.1,5,0.1c0.5,0.1,0.9-0.1,1.1-0.6
				C170,151.8,170.1,151.5,169.8,151.1z M135.5,164.7L135.5,164.7L135.5,164.7z M136.5,162.6c-0.1,0.7-0.6,1.3-1.2,1.8l0,0
				c-0.6,0.4-1.3,0.6-2,0.4c-0.7-0.1-1.3-0.6-1.8-1.2c-0.8-1.3-0.5-3,0.8-3.8c1.3-0.8,3-0.5,3.8,0.8
				C136.5,161.2,136.7,161.9,136.5,162.6z M143.4,158.9c-1.3,0.8-3,0.5-3.8-0.8c-0.8-1.3-0.5-3,0.8-3.8c1.3-0.8,3-0.5,3.8,0.8
				c0.3,0.5,0.5,1,0.5,1.6C144.7,157.5,144.3,158.5,143.4,158.9z M152.7,151.8c-0.1,0.7-0.6,1.3-1.2,1.8c-0.6,0.4-1.3,0.6-2,0.4
				c-0.7-0.1-1.3-0.6-1.8-1.2c-0.4-0.6-0.6-1.3-0.4-2c0.1-0.7,0.6-1.3,1.2-1.8c0.6-0.4,1.3-0.6,2-0.4c0.7,0.1,1.3,0.6,1.8,1.2
				C152.7,150.4,152.9,151.1,152.7,151.8z"/>
		</g>
		<g>
			<path d="M137.7,131.2c1.8,0,3.4,1.5,3.4,3.3c0,1.9-1.6,3.4-3.4,3.4c-1.8,0-3.4-1.4-3.4-3.3C134.4,132.6,135.9,131.2,137.7,131.2z
				 M137.7,137.4c1.6,0,2.8-1.3,2.8-2.9c0-1.6-1.3-2.9-2.8-2.9c-1.5,0-2.8,1.3-2.8,2.9C134.9,136.1,136.2,137.4,137.7,137.4z
				 M136.5,132.6h1.4c0.9,0,1.3,0.4,1.3,1.1c0,0.7-0.4,1-1.1,1.1l1.1,1.7h-0.5l-1.1-1.7H137v1.7h-0.6V132.6z M137,134.4h0.7
				c0.6,0,1.1,0,1.1-0.6c0-0.6-0.5-0.6-0.8-0.6h-0.8L137,134.4L137,134.4z"/>
		</g>
	</g>
</g>
</svg>
