<?xml version="1.0" encoding="utf-8"?>
<!-- Generator: Adobe Illustrator 16.0.4, SVG Export Plug-In . SVG Version: 6.00 Build 0)  -->
<!DOCTYPE svg PUBLIC "-//W3C//DTD SVG 1.1//EN" "http://www.w3.org/Graphics/SVG/1.1/DTD/svg11.dtd">
<svg version="1.1" id="Layer_1" xmlns="http://www.w3.org/2000/svg" xmlns:xlink="http://www.w3.org/1999/xlink" x="0px" y="0px"
	 width="170px" height="42.8px" viewBox="0 125.8 170 42.8" style="enable-background:new 0 125.8 170 42.8;" xml:space="preserve">
<style type="text/css">
<![CDATA[
	.st0{fill:#221F20;}
]]>
</style>
<g id="Layer_1_1_">
	<g>
		<g>
			<g>
				<path class="st0" d="M60.3,131.3c-8.6,1.3-14.7,6.1-14.7,8.4c0,2.8,4.4,5.1,7.3,8.2c1.6,1.6,2,3.1,2,4.5c0,0.7-0.1,1.6-0.3,1.9
					c-0.5,0.7-2.4,1.6-3.8,1.4c-2.9-0.5-3.5-4.7-2.7-6.7c0.1-0.3,0-0.9-0.5-1.2c-0.5-0.3-1.2-0.2-1.6,0.6c-0.8,2-1.3,6.9,1.6,9
					c1,0.6,2.1,0.9,3.8,0.9c5,0,8-3.8,9.4-7.4c1.5-4,2.1-7.6-1.9-11.1c-1-0.9-1.9-2.6-1.6-3.5c0.3-1,1.2-1.3,1.2-0.6
					c0,1.2,2.9,2.1,3.8-1.8C62.4,133.5,61.6,131.1,60.3,131.3"/>
			</g>
		</g>
		<g>
			<path class="st0" d="M79.9,148.9c-0.3,0.4-0.1,0.1-0.5,0.5c-0.2,0.4-1.6,1.6-2.8,1.8c-1.8,0.2-2-2.1-2-3c0-1.1,0.9-3.3,2.2-3.3
				c0.4,0,0.5,0.1,0.6,0.3s0.3,0.3,0.1,0.5c-0.8,1.6-0.5,2.5,0,2.5c0.2,0,0.3-0.1,0.5-0.3c0.2-0.1,1.6-1.2,1.6-2.2
				c0-1-0.7-3.2-1.9-3.5c-0.5-0.1-1.7,0.3-2.7,0.9c-1.6,1-2.7,3.4-2.7,3.4c-0.7,1-1,1.2-1.6,1.7c-0.5,0.5-1.4,1.7-2.4,1.7
				c-0.8,0-1.1-0.9-1.3-1.5c-0.1-0.2-0.3-0.8-0.2-0.8c0.1,0,0.3-0.1,0.6-0.1c0.5-0.1,3.6-2.1,3.6-4.4c0-0.9-0.8-1.5-1.3-1.5
				s-1.8,0.3-2.7,0.8c-1.4,0.9-2.5,2.1-3,2.7c-1.3,1.9-2,5.3-0.4,7.2c0.7,0.9,1.7,1.6,2.7,1.8c2.4,0.4,3.8-2.8,5-3.8
				c0.2,2.1,0.5,2.9,1.4,3.5c0.9,0.6,2,0.7,3.4-0.2c1.5-0.9,3.3-2.4,3.8-3.2c0,1.8,1.3,3.3,3.1,3.5c3.3,0.4,5.4-4.5,5.8-6.8
				c0.4-1.9-0.1-2.6,0.1-2.7c0.3-0.1,1.5-0.5,1.8-0.3c0.3,0.1,0.7,2.2,0.5,3.4c-0.3,2-1,5.5,0.3,5.6c1.3,0.1,3.3-3.4,4.2-3.4
				c1.1,0,1.6,2.9,2.9,2.9c1.3,0,2.7-1.5,3.5-1.5c-0.1,2,0.9,3.3,2.5,3.2c2.8,0,6.8-5.3,8-6.7c-0.5,2.4-0.5,5.7-0.6,6.4
				c0,0.7,0.4,1.7,0.8,1.7c1.3,0,3.3-1.3,4-3c0-1,0.5-3.1,1.4-5c1.2-2.6,2.1-5.4,2.1-6.4c0-1.3-1.1-5.8-2.4-5.9
				c-0.9-0.1-2.8,1.3-3,1.6c-0.4,0.6-0.4,1.3-0.6,2.4c-0.3,1.6-0.6,3.1-1.2,4.6c-0.5,1.1-0.9,2.2-1.6,3c-1.4,2-3.1,2.9-3.3,2.7
				c-0.4-0.2-0.3-1.4,0.1-2.5c0.3-0.6,0.6-1,1.1-1.1c0.5-0.1,1.2-0.1,1.3-0.1c0.5,0.1,0.6-0.7,0.6-1.1c0-0.4-1.1-0.5-2.2-0.4
				c-3.4,0.2-4.2,1.7-5.1,3.1c-1.5,2.3-3.4,1.8-4.1,0.5c-0.7-1.3-1.3-2.8-2.4-2.3c-0.5,0.2-1.5,0.9-1.9,1.2s-0.9,0.7-1,0.6
				c-0.1-0.2,0.2-1.2,0.2-1.7c0.3-2.3,0.5-4.4-0.5-4.9c-0.5-0.2-2.2,0-3.3,0.6c-0.5,0.3-3.4,1.4-4.6,1.4c-0.5,0-0.5-0.5-1-0.5
				C82.2,142.7,79.9,147,79.9,148.9 M66.4,146.5c-0.1-0.4-0.3-0.8-0.2-1.3c0-0.3,0.3-0.7,0.5-0.8c0.3-0.2,0.7-0.5,0.9-0.5
				c0.2,0,0.5,0.2,0.5,0.4s0,1-0.2,1.2C67.7,145.9,67.1,146.5,66.4,146.5z M87.6,147c0,0.6-0.9,2.6-1.5,3.1c-0.4,0.3-1,0.3-1.4-0.1
				c-0.4-0.4-0.9-1.1-0.6-2.7c0.1-0.8,0.6-1.9,1.4-2c0.2,0,1.1,0,1.5-0.1C87.5,145.1,87.5,145.5,87.6,147z"/>
		</g>
		<g>
			<g>
				<path class="st0" d="M135,135.6c-2.4,0-10.8,5.1-11.3,10.9c-0.4,4.3,2.2,8.8,4.3,9.6c0.5,0.2,1.6,0.2,2.6-0.1
					c3.7-1.2,7.9-6,10.5-9.5c0.1-0.1,0.2,0,0.2,0.2c-0.5,2.3-0.6,4.1-0.5,5.1c0.1,1.4,1.2,1.9,1.6,2c1.2,0.2,3.3-3.3,4.1-4.8
					c0-0.1,0.1-0.1,0.2,0c-0.1,3.1,0.4,4.3,1,4.8c0.4,0.3,1.2,0.6,1.4,0.6c1.6-0.1,3.5-3,4.7-5.1c0.1-0.2,0.3,0,0.3,0.3
					c0,3.3,0.5,4,1.1,4.2c0.1,0,0.8,0.4,1.1,0.3c1.2-0.3,2.7-1.5,4-3.4c-0.3,3.7-3.1,11.9-3.8,15c-0.2,1.1-0.2,2.1,0,2.2
					c0.7,0.7,3.2,0.9,5.1,0.1c1.9-0.8,2.5-2,2.6-2.3c0.3-1.4-1.5-8.5,1.1-17.6c0-0.1,0.1-0.2,0.2-0.5c0.2-0.5,0.1-1.1-0.5-2
					c-0.4-0.5-1-0.7-1.8-0.5c-0.9,0.2-1,0.5-1.4,1.3c-0.4,0.8-2,3.2-3,3.1c-0.7,0-0.8-0.5-0.9-1.4c0-1-0.3-2.9-0.3-3.2
					s-0.1-0.9-1-0.8c-1.2,0-2.5,2.7-4.3,4.4c-0.8,0.7-1.2,0.5-1.4,0.5s-0.3-1.8,0-3.4c0.1-1,1.1-5.5,1.3-6.5
					c2.1,0.3,5.1,0.5,7.9,0.6c2.7,0.1,5.2-0.1,6.9,0c1-0.7,3-3.4,3.2-4.4c0.1-0.6,0-1.1-0.8-1.1c-3-0.2-5.8,0.3-9,1.2
					c-2.3,0.6-2.9,0.7-3.8,1c-0.9,0.2-3.6,0.6-4.2,0.7c0-0.4,0.2-0.8-0.1-1c-0.4-0.2-1.2-0.3-1.9,0.2c-0.2,0.2-0.4,0.7-0.5,0.9
					c-1.6,0.2-3.6,0.1-4.5-0.2c-0.3-0.1-0.5-0.3-0.5-0.6c0-0.2-0.2-1.3-0.4-1.6c-0.2-0.2-0.2-1.4-0.5-1.6c-0.3-0.1-1.5-0.8-3,1.8
					c-0.9,1.6-0.8,2.1-0.2,2.7c0.2,0.2,0.6,0.5,1,0.5c1.2,0,1.9-0.3,2.4-0.6s0.7,0,1.2,0.1c0.5,0.2,2.8,0.8,4,0.9
					c-0.6,1.7-2,5.1-2.3,6.5c-0.7,1.4-1.9,3.3-2.6,3.3c-0.4,0-0.7-0.5-0.7-0.7c-0.1-0.5,0.2-2.4,0.4-3.8s0.7-2.6-0.5-2.6
					c-1.1,0-1.2,0.1-1.6,0.6c-2.4,3.1-6.3,7-8.9,7.6c-1.6,0.3-3-2.6-3-3.9c0-1.9,0.6-4.1,2.6-5.6c0.2-0.2,0.2-0.2,0.4-0.2
					s0.5-0.1,0.5,0.2c0,0.2,0.5,1.3,1,1.3c0.7,0,2-1.9,2-4.3C136.4,135.8,135.2,135.6,135,135.6"/>
			</g>
			<g>
				<path class="st0" d="M43.5,149.2c-0.1-0.7-1.1-0.3-1.6,0c-0.5,0.3-1.1,0.8-1.1,1.3c0,0.5,0.1,1.1,0,1.4c0,0.4-0.1,0.7-0.8,0.9
					c-0.5,0.1-1.4-0.2-1.9-0.7c-1-1.2-1-1.5-1.3-1.9c0.9-0.6,2.4-1.6,2.6-3.3c0.2-1.9-2.5-1.7-4.1-0.8c-3.3,1.8-3.7,3.4-3.3,4.7
					c-1,1.1-2.4,1.1-3.7,0.5c-2.6-1.3-2.3-3.1-3.9-3.5c-1.6-0.3-2.8,1-3.5,1c0.7-3.7,2.5-8.7,5.8-14.7c0,0,0.1-0.4-0.3-0.5
					c-0.5-0.1-1.7-0.2-2.4,0.3c-0.7,0.5-1.1,1.5-1.5,2.1c-1.5,0.6-2.1,0.9-4.2,1c-1,0-2.2,0.1-2.6,0.1c0-0.7-0.1-2.4-0.2-2.7
					c-0.1-0.4-0.5-0.8-1.2-0.7c-1.3,0.2-4,1-4.3,2.8c-1.5-0.1-4.2-0.9-5.9-0.8c-3.6,0.2-4.1,0.4-4.2,1.4c0,0.5,0.1,1,0.1,1.2
					c0,0.2,0.1,1,0.8,0.9c3.1-0.6,7.8-0.5,8.8-0.6c-0.3,3.4-1.3,11-2.1,14c-0.6,2.4-1,4,0.8,3.1c2-0.9,2.7-1.3,3.4-1.7
					c0.7-0.4,2-1.7,2.2-3.7c0.3-2.4,1-5.3,1-6.3c0-1,0.5-4.3,0.6-5.5c2.1,0,5-0.9,5.9-1.2c-3.7,6.8-5.9,14.4-5.8,15.8
					c0,0.7,0.5,1,1.4,0.9c0.9-0.1,2.1-1,2.9-1.8c0.7-0.8,1.5-1.1,2.4-1s1.4,0.5,1.7,1.1c0.6,1.3,1.7,1.8,3.5,1.5
					c2.4-0.4,3.3-1.3,4.4-2.1c1.1,2.2,2.5,3.2,5.5,3.2c1.7,0,4.1-1.3,5-2.5C43.3,151.8,43.6,149.9,43.5,149.2 M36.2,148.7
					c-0.2-0.3-0.4-1.2-0.4-1.7c0.1-0.4,1-0.8,1.4-0.4c0.5,0.4,0.7,1,0,1.8C36.9,148.7,36.6,148.8,36.2,148.7z"/>
			</g>
		</g>
		<g>
			<path class="st0" d="M168.1,147.4c-0.2,0.2-0.5,0.4-0.8,0.4s-0.6-0.1-0.8-0.4c-0.2-0.2-0.3-0.5-0.3-0.8c0-0.3,0.1-0.6,0.3-0.8
				c0.2-0.2,0.5-0.3,0.8-0.3s0.6,0.1,0.8,0.3c0.2,0.2,0.3,0.5,0.3,0.8C168.5,146.9,168.4,147.2,168.1,147.4 M166.6,145.9
				c-0.2,0.2-0.3,0.4-0.3,0.7s0.1,0.5,0.3,0.7c0.2,0.2,0.4,0.3,0.7,0.3c0.3,0,0.5-0.1,0.7-0.3c0.2-0.2,0.3-0.4,0.3-0.7
				c0-0.3-0.1-0.5-0.3-0.7c-0.2-0.2-0.4-0.3-0.7-0.3C167,145.6,166.8,145.7,166.6,145.9z M167.3,146c0.1,0,0.3,0,0.4,0
				c0.1,0,0.2,0.2,0.2,0.3c0,0.1,0,0.2-0.1,0.2c0,0-0.1,0-0.2,0c0.1,0,0.2,0,0.2,0.1c0,0,0.1,0.1,0.1,0.2v0.1c0,0,0,0,0,0.1
				c0,0,0,0,0,0l0,0h-0.2l0,0l0,0v0V147c0-0.1,0-0.2-0.1-0.3c0,0-0.1,0-0.3,0H167v0.5h-0.2v-1.3L167.3,146L167.3,146z M167.5,146.1
				c0,0-0.1,0-0.3,0h-0.2v0.5h0.2c0.1,0,0.2,0,0.2,0c0.1,0,0.1-0.1,0.1-0.2C167.6,146.3,167.6,146.2,167.5,146.1z"/>
		</g>
	</g>
</g>
<g id="Layer_3">
</g>
</svg>
