<?xml version="1.0" encoding="utf-8"?>
<!-- Generator: Adobe Illustrator 16.0.4, SVG Export Plug-In . SVG Version: 6.00 Build 0)  -->
<!DOCTYPE svg PUBLIC "-//W3C//DTD SVG 1.1//EN" "http://www.w3.org/Graphics/SVG/1.1/DTD/svg11.dtd">
<svg version="1.1" id="Layer_1" xmlns="http://www.w3.org/2000/svg" xmlns:xlink="http://www.w3.org/1999/xlink" x="0px" y="0px"
	 width="170px" height="24.1px" viewBox="0 137.9 170 24.1" style="enable-background:new 0 137.9 170 24.1;" xml:space="preserve">
<style type="text/css">
<![CDATA[
	.st0{fill:none;}
]]>
</style>
<g>
	<g>
		<path d="M0,155.7c0.1,0,0.1,0,0.1-0.1c0.4-0.5,0.9-0.9,1.4-1.4c0.3-0.3,0.3-0.3,0.7,0c0.4,0.3,0.8,0.7,1.2,1
			c0.3,0.2,0.7,0.4,1,0.6c0.4,0.2,0.8,0.4,1.2,0.6c0.3,0.1,0.6,0.2,0.9,0.3c0.1,0,0.2,0.1,0.4,0.1c1.2,0.3,2.4,0.4,3.6,0.4
			c0.8-0.1,1.6-0.2,2.3-0.5c0.3-0.1,0.6-0.2,0.9-0.3c0.5-0.2,1-0.5,1.5-0.7c0.1-0.1,0.2-0.2,0.3-0.3c0.3-0.3,0.5-0.6,0.7-1
			c0.1-0.3,0.1-0.7,0-1c-0.4-1.1-1.1-1.7-2.1-2c-0.2-0.1-0.4-0.2-0.6-0.2c-0.5-0.1-1-0.2-1.6-0.3c-1.4-0.2-2.7-0.1-4.1-0.1
			c-0.7,0-1.4-0.1-2.1-0.2c-0.5-0.1-1-0.2-1.5-0.4c-0.9-0.3-1.4-1-2-1.6c-0.1-0.1-0.2-0.2-0.3-0.4c-0.2-0.2-0.3-0.4-0.4-0.7
			c-0.2-0.7-0.4-1.4-0.2-2.2c0.1-0.4,0.2-0.9,0.4-1.2c0.2-0.5,0.4-0.9,0.7-1.3c0.3-0.6,0.8-1.1,1.3-1.5c0.6-0.6,1.4-1,2.2-1.3
			c0.6-0.2,1.2-0.3,1.9-0.4c1-0.2,2-0.1,3-0.1c0.3,0,0.5,0.1,0.8,0.1c0.8,0.1,1.5,0.4,2.3,0.7c0.4,0.2,0.8,0.4,1.2,0.6
			c0.6,0.3,1.1,0.7,1.6,1.1c0.1,0.1,0.2,0.1,0.3,0.2c0.3,0.2,0.4,0.4,0.5,0.7c0,0.1,0,0.2,0,0.3c-0.2,0.3-0.4,0.6-0.6,0.9
			c-0.1,0.2-0.2,0.3-0.4,0.5c-0.3,0.4-0.4,0.4-0.8,0.1c-0.3-0.2-0.6-0.4-0.9-0.6c-0.6-0.4-1.3-0.8-2-1c-0.6-0.2-1.1-0.3-1.7-0.5
			c-0.1,0-0.1,0-0.2,0c-0.4,0-0.7-0.1-1.1-0.1c-0.1,0-0.2,0-0.3,0c-0.3,0-0.6,0-0.9,0.1c-0.6,0.1-1.3,0.1-1.9,0.4
			c-0.5,0.2-0.9,0.5-1.2,0.8c-0.1,0.1-0.2,0.2-0.3,0.2c-0.5,0.4-0.8,0.9-0.8,1.6c0,0.2,0,0.3,0,0.5c0,0.6,0.3,0.9,0.8,1.2
			c0.5,0.3,1,0.3,1.5,0.4c0.9,0.1,1.7,0.1,2.6,0.2c0.4,0,0.8,0,1.1,0c0.8,0,1.7,0.1,2.5,0.1c0.5,0,1,0.2,1.5,0.3
			c0.5,0.2,1,0.4,1.5,0.6c0.4,0.2,0.8,0.5,1.2,0.8c0.6,0.4,1,1,1.4,1.5c0.1,0.1,0.1,0.3,0.2,0.4c0.4,0.8,0.5,1.6,0.4,2.5
			c0,0.5-0.1,1-0.2,1.6c-0.1,0.3-0.2,0.5-0.3,0.8c-0.2,0.3-0.4,0.7-0.6,1c-0.5,0.6-1.1,1.1-1.9,1.5c-0.6,0.2-1.1,0.5-1.7,0.7
			c-0.4,0.1-0.8,0.3-1.2,0.3c-0.2,0-0.5,0.1-0.7,0.1c-0.5,0.1-1.1,0.2-1.6,0.2c-0.8,0-1.6-0.1-2.5-0.1c-0.5,0-1-0.1-1.5-0.2
			c-0.2-0.1-0.5-0.1-0.7-0.2c-0.7-0.2-1.4-0.4-2.1-0.7c-0.6-0.3-1.1-0.6-1.6-0.9c-0.4-0.3-0.8-0.6-1.2-0.9c-0.4-0.3-0.8-0.7-1.1-1.2
			c0-0.1-0.1-0.1-0.2-0.1C0,155.9,0,155.8,0,155.7z"/>
		<path d="M131.3,140.3c-0.2,0.5-0.5,0.9-0.8,1.3c-0.4,0.4-0.6,1-1,1.4c-0.7,0.9-1.3,1.9-2,2.8c-0.5,0.7-1,1.4-1.6,2
			c-0.7,0.7-1.2,1.6-1.7,2.4c-0.1,0.1-0.2,0.3-0.3,0.4c-0.4,0.5-0.6,1-0.6,1.6c0,1.1,0,2.2,0,3.4c0,1.3-0.1,2.7-0.1,4
			c0,0.1,0,0.2,0,0.3c-0.9,0.3-1.7,0.1-2.5,0.2c-0.2-0.2-0.2-0.4-0.2-0.6c0-1.6,0-3.2,0-4.8c0-0.6,0-1.2,0-1.8
			c0-0.5-0.1-1.1-0.1-1.6c0-0.1-0.1-0.3-0.2-0.4c-0.4-0.7-0.9-1.3-1.4-2c-0.4-0.6-0.9-1.3-1.4-1.9c-0.3-0.4-0.6-0.8-0.9-1.2
			c-0.7-0.8-1.4-1.7-2-2.5c-0.2-0.2-0.3-0.6-0.5-0.8c-0.4-0.6-0.8-1.2-1.4-1.7c-0.1-0.1-0.2-0.2-0.2-0.3c-0.1-0.2,0-0.3,0.2-0.3
			c0.1,0,0.2,0,0.3,0c0.9,0.1,1.9,0.1,2.8,0.2c0.2,0,0.4,0.1,0.5,0.3c0.4,0.5,0.8,1,1.2,1.4c0.3,0.4,0.6,0.8,0.9,1.2
			c0.1,0.1,0.2,0.2,0.3,0.4c0.6,0.7,1.1,1.5,1.6,2.2c0.2,0.3,0.4,0.6,0.7,0.9c0.3,0.3,0.5,0.6,0.8,1c0.1,0.1,0.1,0.1,0.2,0.2
			c0.1,0.1,0.2,0.2,0.4,0c0.5-0.5,1-1.1,1.4-1.7c0.1-0.2,0.2-0.4,0.3-0.5c0.4-0.6,0.8-1.2,1.2-1.7c0.6-0.8,1.2-1.6,1.8-2.4
			c0.3-0.4,0.6-0.8,0.8-1.3c0.1-0.2,0.4-0.3,0.6-0.4c0.4,0,0.8,0,1.2,0c0.4,0,0.8,0,1.3,0c0.2,0,0.4,0,0.6,0.2
			C131.3,140,131.3,140.1,131.3,140.3z"/>
		<g>
			<path class="st0" d="M82,144.2c-0.6-0.5-1.3-0.9-2.1-0.9c-0.5-0.1-1-0.1-1.4-0.1c-0.6-0.1-1.2-0.1-1.9-0.2
				c-0.6,0-1.3-0.1-1.9-0.1c-0.2,0-0.5,0-0.7,0c-0.4,0-0.9,0-1.3,0.1c-0.5,0-0.9,0-1.4,0c-0.4,0-0.4,0-0.4,0.4c0,0,0,0.1,0,0.1
				c0,1.3,0,2.6,0,3.9c0,0.4,0,0.8,0,1.3c0.2,0,0.3,0.1,0.5,0.1c1.1,0.1,2.2,0,3.3,0.1c0.7,0.1,1.4,0,2-0.1c0.4-0.1,0.8,0,1.2,0
				c0.5,0.1,1,0,1.5,0c0.6-0.1,1.1-0.1,1.6-0.3c0.3-0.1,0.6-0.2,0.9-0.4c0.6-0.4,0.9-0.9,1-1.6c0-0.4,0-0.9-0.2-1.3
				C82.4,144.8,82.3,144.4,82,144.2z"/>
			<path d="M85.4,145.1c0-0.1,0-0.2,0-0.3c-0.1-0.3-0.1-0.7-0.2-1c-0.1-0.3-0.1-0.6-0.3-0.9c-0.6-1.1-1.6-1.8-2.7-2.2
				c-0.6-0.2-1.2-0.2-1.8-0.3c-1.1,0-2.2,0-3.2-0.1c-1.5-0.1-2.9-0.1-4.4-0.1c-0.7,0-1.3,0-2,0c-0.9,0.1-1.9,0.1-2.8,0.2
				c-0.2,0-0.3,0.1-0.3,0.3c0,0.6,0,1.2,0,1.8c0,0.5,0,1-0.1,1.4c-0.1,1.2-0.1,2.3,0,3.5c0,0.9,0.1,1.7,0.1,2.5c0,0.4,0,0.7,0,1.1
				c0,1,0.1,1.9,0.1,2.9c0,1.4,0,2.9,0,4.3c0,0.4,0,0.9,0,1.3c0.1,0,0.1,0,0.1,0c0.8,0,1.7,0,2.5,0c0.2,0,0.3-0.1,0.4-0.3
				c0-0.1,0.1-0.2,0.1-0.4c0-1.4,0-2.9,0.1-4.3c0-0.3,0-0.5,0-0.8c0.1-0.6,0.1-1.2,0-1.8c0-0.1,0-0.2,0-0.3c0.1-0.3,0.1-0.3,0.4-0.3
				c1.1,0,2.3,0,3.4,0c1,0.1,2.1,0,3.1,0.2c0.2,0,0.3,0.1,0.4,0.3c0.4,0.7,0.7,1.3,1.1,2c0.2,0.5,0.5,0.9,0.7,1.4
				c0.2,0.5,0.4,1,0.6,1.4c0.2,0.5,0.4,0.9,0.6,1.4c0.2,0.5,0.5,0.9,0.7,1.4c0.1,0.1,0.1,0.2,0.3,0.2c0.9,0,1.7,0,2.6,0
				c0.2,0,0.4-0.1,0.6-0.1c-0.2-0.5-0.4-1-0.7-1.4c-0.2-0.4-0.5-0.8-0.7-1.2c-0.3-0.7-0.7-1.4-1-2.1c-0.3-0.6-0.6-1.3-0.9-2
				c-0.2-0.4-0.3-0.8-0.5-1.1c0-0.1,0-0.1,0-0.2c0.1,0,0.1,0,0.2,0c0.4-0.1,0.8-0.1,1.2-0.2c0.3-0.2,0.6-0.4,0.9-0.5
				c0.7-0.4,1.1-1,1.4-1.6c0.1-0.3,0.2-0.7,0.3-1c0.1-0.4,0.2-0.9,0.2-1.3C85.5,146.3,85.4,145.7,85.4,145.1z M82.7,146.5
				c0,0.7-0.3,1.3-1,1.6c-0.3,0.2-0.6,0.3-0.9,0.4c-0.5,0.2-1.1,0.2-1.6,0.3c-0.5,0.1-1,0.1-1.5,0c-0.4-0.1-0.8-0.1-1.2,0
				c-0.7,0.1-1.4,0.1-2,0.1c-1.1-0.1-2.2,0-3.3-0.1c-0.2,0-0.3-0.1-0.5-0.1c0-0.5,0-0.9,0-1.3c0-1.3,0-2.6,0-3.9c0,0,0-0.1,0-0.1
				c0-0.4,0-0.4,0.4-0.4c0.5,0,0.9,0,1.4,0c0.4,0,0.9,0,1.3-0.1c0.2,0,0.5,0,0.7,0c0.6,0,1.3,0,1.9,0.1c0.6,0,1.2,0.1,1.9,0.2
				c0.5,0,1,0.1,1.4,0.1c0.8,0.1,1.5,0.4,2.1,0.9c0.3,0.2,0.4,0.6,0.6,1C82.7,145.6,82.7,146,82.7,146.5z"/>
		</g>
		<path d="M48.7,148.2c1.2,0.2,2.3,0.2,3.5,0.2c0.9,0,1.8,0,2.7,0c0.4,0,0.4,0.1,0.4,0.4c0,0.6,0,1.2-0.1,1.8c0,0.2-0.1,0.4-0.1,0.6
			c0,0.1-0.1,0.2-0.2,0.2c-0.6,0-1.1,0-1.7-0.1c-0.2,0-0.3,0-0.5,0c-1.1,0-2.3,0-3.4,0c-0.3,0-0.3,0-0.4,0.3c0,0.2-0.1,0.3-0.1,0.5
			c0,1.2-0.1,2.5-0.1,3.7c0,0.2,0,0.5,0,0.8c0,0.1,0,0.2,0,0.3c0,0.2,0.2,0.2,0.3,0.2c1.1,0.2,2.2,0.2,3.3,0.2c0.6,0,1.1,0,1.7,0
			c1.4,0.1,2.8,0.1,4.1,0.1c0.8,0,1.7,0,2.5,0c0.4,0,0.8,0,1.2,0.1c0.4,0.1,0.6,0.4,0.6,0.7c0,0.5,0,1,0,1.5c0,0.3-0.1,0.4-0.4,0.4
			c-0.2,0-0.5,0-0.8,0c-1.8,0.1-3.6,0.2-5.4,0.1c-1,0-2-0.1-3-0.2c-1.1-0.1-2.1-0.1-3.2-0.1c-0.4,0-0.8-0.1-1.1-0.1
			c-0.5,0.1-1,0.1-1.5,0.1c-0.3,0-0.5-0.1-0.8-0.1c-0.2,0-0.2-0.2-0.2-0.4c-0.1-0.8-0.1-1.7-0.1-2.5c0-2.3,0-4.5,0-6.8
			c-0.1-2.8,0-5.6-0.1-8.4c0-0.4,0-0.8,0-1.2c0-0.2,0.1-0.3,0.3-0.3c0.9-0.2,1.8-0.3,2.6-0.2c1.6,0,3.3,0.1,4.9,0.1
			c1.8,0,3.5,0,5.3,0c0.6,0,1.2,0,1.7,0c0.2,0,0.4,0,0.6,0c0.3,0,0.4,0.1,0.4,0.4c0,0.7,0.1,1.4,0.1,2.1c0,0.3-0.2,0.4-0.4,0.4
			c0,0,0,0-0.1,0c-0.7,0-1.5,0.1-2.3,0.1c-1,0-2,0-2.9-0.1c-1-0.1-2.1-0.1-3.1-0.1c-1.2,0-2.3,0.1-3.5,0.1c-0.3,0-0.3,0-0.4,0.4
			c0,0.1,0,0.2,0,0.3c0,1.1,0,2.2-0.1,3.4c0,0.2,0,0.5-0.1,0.7C48.7,148,48.6,148.1,48.7,148.2z"/>
		<path d="M169.9,149.8c-0.2-0.2-0.4-0.3-0.6-0.5c-0.4-0.3-0.8-0.6-1.1-0.9c-0.7-0.5-1.4-1-2.1-1.6c-0.6-0.4-1.2-0.9-1.7-1.3
			c-0.4-0.3-0.8-0.6-1.2-0.9c-0.4-0.3-0.8-0.6-1.2-0.9c-0.3-0.2-0.5-0.5-0.8-0.7c-0.4-0.3-0.8-0.6-1.2-0.9c-0.4-0.3-0.8-0.6-1.2-0.9
			c-0.7-0.5-1.4-1-2.2-1.6c-0.3-0.2-0.7-0.5-1.1-0.7c-0.6-0.3-1.2-0.6-1.7-1c0,0,0-0.1,0-0.1c-0.1,0-0.2,0-0.4,0c0,0,0,0.1-0.1,0.1
			c-0.2,0.1-0.4,0.2-0.6,0.3c-0.8,0.6-1.5,1.1-2.3,1.7c-0.2,0.1-0.4,0.3-0.6,0.5c-0.1,0.1-0.2,0.2-0.4,0.3c-0.1,0-0.1,0.1-0.2,0.1
			c-0.7,0.6-1.5,1.1-2.2,1.7c-0.5,0.4-1,0.7-1.5,1.1c-0.1,0.1-0.3,0.2-0.4,0.3c-0.4,0.3-0.8,0.7-1.3,0.9c-0.6,0.4-1.2,0.8-1.8,1.3
			c-0.3,0.2-0.6,0.5-1,0.7c-0.2,0.1-0.4,0.3-0.6,0.4c-0.4,0.3-0.8,0.7-1.2,1c-0.4,0.3-0.9,0.7-1.4,1c-0.2,0.2-0.4,0.3-0.6,0.5
			c-0.1,0.1-0.1,0.2,0,0.4c0.1,0,0.1,0.1,0.2,0.1c0.1,0.1,0.3,0.2,0.4,0.3c0.3,0.3,0.7,0.5,1,0.8c0.1,0.1,0.2,0.2,0.4,0.3
			c0.5,0.4,1,0.8,1.5,1.2c0.4,0.3,0.8,0.6,1.2,0.9c0.3,0.2,0.6,0.4,0.8,0.6c0.2,0.1,0.4,0.3,0.6,0.5c0.4,0.4,0.9,0.7,1.3,1
			c0.4,0.3,0.7,0.6,1.1,0.9c0.5,0.4,1,0.9,1.6,1.3c0.6,0.5,1.2,0.9,1.9,1.4c0.6,0.4,1.1,0.8,1.7,1.2c0.2,0.1,0.4,0.3,0.6,0.4
			c0.6,0.3,1.2,0.6,1.7,1c0.1,0.1,0.2,0.1,0.3,0.1c0.2-0.1,0.4-0.2,0.5-0.3c0.4-0.2,0.7-0.5,1-0.7c0.2-0.1,0.3-0.2,0.5-0.3
			c0.4-0.3,0.9-0.7,1.3-1c0.1-0.1,0.3-0.2,0.4-0.3c0.1-0.1,0.2-0.2,0.3-0.2c0.1,0,0.1-0.1,0.2-0.1c0.4-0.3,0.7-0.6,1.1-0.9
			c0.7-0.5,1.4-1.1,2-1.6c0.3-0.2,0.7-0.5,1-0.8c0.4-0.3,0.9-0.7,1.3-1c0.6-0.3,1.1-0.8,1.6-1.2c0.3-0.2,0.5-0.4,0.8-0.6
			c0.4-0.2,0.7-0.4,1-0.7c0.5-0.5,1-0.9,1.6-1.3c0.4-0.3,0.9-0.6,1.3-1c0.1-0.1,0.1-0.1,0.2-0.2C170,149.9,169.9,149.8,169.9,149.8z
			 M161.2,153c0,0.1-0.1,0.2-0.2,0.2c-0.1,0.1-0.2,0.1-0.2,0.1c-0.3,0.1-0.6,0.3-0.9,0.4c-0.1,0.1-0.2,0.1-0.4,0.1
			c-0.1,0-0.1,0-0.1,0.1c-0.3,0.2-0.7,0.3-1,0.5c-0.3,0.1-0.6,0.2-0.8,0.3c-0.2,0.1-0.4,0.1-0.5,0.2c-0.3,0.1-0.7,0.2-1,0.3
			c-0.2,0.1-0.4,0.1-0.7,0.2c-0.2,0.1-0.5,0.1-0.7,0.1c-0.7,0.1-1.3,0.1-2,0.1c-0.4,0-0.7-0.1-1.1-0.2c-0.2-0.1-0.3-0.1-0.5-0.1
			c-0.3,0-0.5-0.2-0.7-0.2c-0.1,0-0.2-0.1-0.3-0.1c-0.1,0-0.2,0-0.3,0.1c-0.1,0.2-0.3,0.4-0.4,0.6c-0.1,0.1-0.2,0.3-0.3,0.4
			c-0.1,0.1-0.2,0.2-0.2,0.3c-0.3,0.2-0.6,0.2-0.9,0c-0.1,0-0.1-0.1-0.2-0.1c-0.2-0.2-0.3-0.3-0.1-0.6c0.1-0.2,0.3-0.4,0.4-0.6
			c0.3-0.3,0.5-0.6,0.8-1c0.2-0.3,0.4-0.6,0.6-0.9c0-0.1,0.1-0.1,0.1-0.2c0.1-0.1,0.2-0.3,0.3-0.4c0-0.1,0.1-0.1,0.1-0.2
			c0.2-0.3,0.4-0.6,0.5-0.9c0.2-0.4,0.4-0.8,0.7-1.2c0.2-0.4,0.5-0.9,0.7-1.3c0.4-0.7,0.7-1.5,1.1-2.2c0.1-0.3,0.3-0.6,0.4-0.9
			c0-0.1,0.1-0.1,0.1-0.2c0.1-0.1,0.2-0.2,0.2-0.4c0.1-0.3,0.3-0.6,0.4-0.9c0.2-0.5,0.4-1,0.6-1.5c0.2-0.5,0.3-0.9,0.5-1.4
			c0-0.1,0-0.2,0.1-0.2c0,0,0,0,0,0c0,0,0,0,0,0c0-0.1,0.1-0.1,0.2-0.1c0.2,0,0.4,0.1,0.6,0.2c0.1,0.1,0.2,0.3,0.2,0.5
			c0.1,0.3,0.1,0.5,0.2,0.8c0,0.2,0.1,0.4,0.1,0.6c0,0.4,0.1,0.7,0.1,1.1c0,0.2,0.1,0.5,0.1,0.7c0,0.1,0,0.1,0,0.2
			c0,1,0.1,1.9,0.1,2.9c0,0.8,0,1.5-0.1,2.3c0,0.3-0.1,0.6-0.2,0.9c-0.1,0.4-0.2,0.8-0.4,1.2c-0.1,0.2-0.2,0.4-0.3,0.6
			c0,0.1-0.1,0.2-0.1,0.2c0,0,0,0.1,0,0.1c0,0,0.1,0,0.1,0c0,0,0,0,0.1,0c0.4-0.1,0.7-0.3,1.1-0.4c0.3-0.2,0.7-0.3,1-0.5
			c0.2-0.1,0.4-0.2,0.6-0.3c0.1,0,0.1-0.1,0.2-0.1c0.2-0.1,0.4-0.2,0.6-0.3c0,0,0.1,0,0.1,0c0,0,0.1,0,0.1,0c0.2,0,0.3,0,0.5,0
			c0.2,0.1,0.4,0.2,0.5,0.3c0.1,0.1,0.3,0.2,0.4,0.2c0.1,0.1,0.2,0.1,0.2,0.3C161.2,152.8,161.2,152.9,161.2,153z"/>
		<path d="M105.7,151.5c0.1-0.1,0.2-0.1,0.3-0.1c0.4-0.2,0.7-0.3,1.1-0.5c0.5-0.3,1-0.6,1.3-1c0.3-0.4,0.6-0.9,0.8-1.3
			c0.3-0.6,0.5-1.2,0.5-1.8c0-0.7,0-1.3-0.1-2c0-0.4-0.1-0.7-0.3-1c-0.2-0.4-0.4-0.8-0.6-1.1c-0.4-0.7-0.9-1.2-1.5-1.6
			c-0.6-0.3-1.2-0.5-1.8-0.7c-0.6-0.2-1.3-0.3-1.9-0.3c-0.2,0-0.3,0-0.5-0.1c-0.2,0-0.4-0.1-0.7-0.1c-0.7,0-1.5,0-2.2,0
			c-0.3,0-0.6,0-0.9,0c-0.9,0-1.8,0.1-2.7,0.1c-1.5,0-2.9,0-4.4,0c-0.3,0-0.4,0.1-0.4,0.4c0,0.5,0,1,0,1.5c0,0.4,0,0.8,0,1.2
			c0.1,0.5,0.1,0.9,0,1.4c0,0.4-0.1,0.7-0.1,1.1c0,0.8,0.1,1.6,0,2.3c0,0,0,0,0,0.1c0,0.4,0.1,0.8,0,1.2c0,0.6-0.1,1.1-0.1,1.7
			c0,0.9-0.2,1.9-0.1,2.8c0,0.6,0,1.2,0,1.8c0,1.4-0.1,2.7,0.1,4.1c0.1,0.2,0.1,0.3,0.3,0.3c0.7,0,1.3,0,2,0c0.2,0,0.4-0.1,0.6-0.1
			c0.1,0,0.1-0.1,0.2-0.2c0-0.1,0-0.2,0-0.3c0-0.6,0-1.2,0-1.9c0-0.5,0.1-1.1,0.1-1.6c0-0.7,0-1.5,0-2.2c0-0.3,0-0.6,0-1
			c0-0.2,0-0.4,0.1-0.6c0.1-0.2,0.2-0.3,0.5-0.2c0.2,0,0.4,0.1,0.6,0.1c0.5,0,1,0,1.5,0c0.6,0,1.1,0.1,1.7,0.1
			c0.5,0,0.9,0.1,1.4-0.1c0.1,0,0.2,0,0.2,0c0.1,0,0.3,0.1,0.4,0.1c0.3,0,0.5,0,0.8,0c0.1,0,0.2,0,0.3,0.1c0.2,0.4,0.5,0.8,0.7,1.2
			c0.4,0.8,0.7,1.6,1.1,2.3c0.2,0.5,0.4,1,0.7,1.4c0.5,0.9,0.9,1.8,1.4,2.7c0.1,0.1,0.1,0.2,0.3,0.2c0.8,0,1.6,0,2.5,0
			c0.3,0,0.4-0.2,0.2-0.4c-0.2-0.4-0.3-0.7-0.5-1.1c-0.2-0.4-0.3-0.8-0.4-1.2c-0.4-0.8-0.7-1.5-1.1-2.3c-0.4-0.8-0.8-1.7-1.2-2.5
			c-0.1-0.1-0.1-0.3-0.2-0.5C105.4,151.7,105.5,151.6,105.7,151.5z M105.3,148.1c-0.1,0-0.2,0.1-0.3,0.1c-0.4,0.2-0.8,0.2-1.3,0.2
			c-0.4,0.1-0.8,0.1-1.2,0.1c-2.1,0-4.1,0-6.2,0c-0.4,0-0.7-0.1-1.1-0.1c-0.1,0-0.2-0.1-0.2-0.2c0-0.1,0-0.2,0-0.3
			c0-1.4-0.1-2.9-0.1-4.3c0-0.1,0-0.3,0.1-0.4c0.1-0.3,0.1-0.3,0.4-0.3c1.1,0,2.2,0,3.2,0c1.4,0.1,2.5,0.1,3.6,0.2
			c0.8,0.1,1.6,0.2,2.4,0.4c0.4,0.1,0.7,0.3,1,0.5c0.5,0.3,0.7,0.8,1,1.3c0,0.1,0,0.1,0,0.2c0,0.3,0,0.5,0,0.8
			c0,0.3-0.1,0.5-0.2,0.8c0,0.1-0.1,0.2-0.1,0.3C106,147.7,105.7,148,105.3,148.1z"/>
		<path d="M41,144.4c-0.1-0.4-0.2-0.7-0.3-1.1c-0.1-0.2-0.2-0.4-0.3-0.6c-0.6-1.2-1.6-2-3-2.3c-0.3,0-0.6-0.1-0.9-0.1
			c-0.8-0.2-1.5-0.2-2.3-0.2c-1.4,0-2.9,0-4.3,0c-0.7,0-1.4,0-2.1,0c-1.2,0.1-2.3,0.2-3.5,0.3c-0.2,0-0.2,0-0.3,0.3
			c0,0.6-0.1,1.2-0.1,1.9c0,1.6,0,3.2,0,4.8c0,1.2-0.1,2.5-0.1,3.7c0,0.5,0,1,0,1.5c0,1,0,2,0,2.9c0,1.3,0,2.5-0.1,3.8
			c0,0.3,0.1,0.5,0.4,0.5c0.4,0,0.8,0,1.3,0c0.3,0,0.6,0.1,1,0.1c0.3,0,0.4-0.1,0.4-0.4c0-0.3,0-0.7,0-1c0-1.8,0-3.7,0-5.5
			c0-0.4,0.1-0.7,0.1-1.1c0.1,0,0.2,0,0.2,0c1.3,0,2.6,0,4,0c1.4,0,2.8,0,4.2,0c0.1,0,0.2,0,0.4-0.1c0.3-0.1,0.5-0.1,0.8-0.2
			c0.5-0.1,1-0.2,1.4-0.4c0.4-0.2,0.8-0.4,1.2-0.7c0.4-0.3,0.7-0.8,1-1.2c0.3-0.5,0.5-1,0.7-1.5c0.2-0.5,0.4-1,0.4-1.5
			C41.2,145.6,41,145,41,144.4z M38.5,146.4c0,0,0,0.1,0,0.1c0,0.3-0.1,0.6-0.2,0.8c-0.1,0.2-0.2,0.4-0.4,0.6
			c-0.2,0.2-0.4,0.5-0.7,0.6c-0.3,0.1-0.6,0.2-0.9,0.2c-1.6,0.2-3.3,0.1-4.7,0.1c-1.1,0-2.1,0-3.1,0c-0.3,0-0.7,0-1,0
			c-0.3,0-0.4,0-0.5-0.2c0-0.1,0-0.1,0-0.2c0,0,0,0,0,0c0-0.8,0-1.7,0-2.5c0,0,0,0,0,0c0,0,0,0,0,0c0-0.4,0-0.9,0-1.3
			c0-0.3,0.1-0.6,0.1-0.9c0-0.1,0.1-0.2,0.2-0.2c0.4,0,0.7-0.1,1.1-0.1c0.7,0,1.5-0.1,2.2-0.1c1.2-0.1,2.4-0.1,3.6,0.1
			c0.5,0,1,0,1.4,0.1c0.5,0,1,0.1,1.5,0.3c0.4,0.1,0.7,0.4,0.9,0.8c0.1,0.1,0.1,0.2,0.2,0.3c0,0,0,0.1,0,0.1c0,0.1,0.1,0.1,0.1,0.2
			c0,0,0,0.1,0,0.1c0.1,0.2,0.1,0.4,0.1,0.6C38.4,146,38.5,146.2,38.5,146.4C38.5,146.4,38.5,146.4,38.5,146.4
			C38.5,146.4,38.5,146.4,38.5,146.4z"/>
		<path d="M155.3,146.6c0,0.1,0.1,0.1,0.1,0.2c0,0.1,0,0.2,0,0.3c0,0.9,0.1,1.7,0.1,2.6c0,0.1,0,0.2,0,0.3c0,0.2,0,0.5-0.1,0.7
			c0,0.2-0.1,0.5-0.1,0.7c-0.1,0.2-0.1,0.4-0.2,0.7c-0.1,0.4-0.3,0.8-0.5,1.1c-0.1,0.1-0.2,0.3-0.3,0.3c-0.3,0.2-0.6,0.3-0.8,0.5
			c-0.1,0.1-0.3,0.1-0.5,0.1c-0.4,0.1-0.9,0.1-1.4,0.1c-0.3,0-0.6-0.1-0.9-0.2c-0.1,0-0.1-0.1-0.1-0.1c0.2-0.4,0.4-0.7,0.7-1
			c0.2-0.3,0.5-0.6,0.7-0.9c0.3-0.4,0.6-0.9,0.8-1.3c0.5-0.8,1-1.6,1.4-2.5c0.3-0.5,0.6-1,0.8-1.4
			C155.2,146.7,155.2,146.6,155.3,146.6C155.3,146.6,155.3,146.6,155.3,146.6z"/>
	</g>
</g>
</svg>
