<?xml version="1.0" encoding="utf-8"?>
<!-- Generator: Adobe Illustrator 16.0.4, SVG Export Plug-In . SVG Version: 6.00 Build 0)  -->
<!DOCTYPE svg PUBLIC "-//W3C//DTD SVG 1.1//EN" "http://www.w3.org/Graphics/SVG/1.1/DTD/svg11.dtd">
<svg version="1.1" id="Layer_1" xmlns="http://www.w3.org/2000/svg" xmlns:xlink="http://www.w3.org/1999/xlink" x="0px" y="0px"
	 width="170px" height="300px" viewBox="0 0 170 300" enable-background="new 0 0 170 300" xml:space="preserve">
<g>
	<g>
		<path d="M0,155.747c0.053-0.026,0.105-0.026,0.145-0.065c0.446-0.459,0.892-0.918,1.351-1.365
			c0.289-0.275,0.341-0.275,0.656-0.013c0.407,0.328,0.8,0.669,1.233,0.972c0.315,0.223,0.669,0.38,1.01,0.563
			c0.42,0.21,0.827,0.433,1.247,0.616c0.302,0.132,0.63,0.197,0.945,0.303c0.118,0.039,0.236,0.092,0.354,0.117
			c1.194,0.276,2.414,0.447,3.647,0.368c0.787-0.053,1.575-0.171,2.323-0.473c0.289-0.118,0.604-0.157,0.879-0.288
			c0.499-0.224,0.984-0.486,1.47-0.748c0.118-0.066,0.223-0.184,0.315-0.303c0.262-0.301,0.538-0.604,0.669-0.996
			c0.105-0.342,0.118-0.683,0-1.011c-0.354-1.063-1.102-1.692-2.139-2.047c-0.184-0.065-0.354-0.185-0.551-0.224
			c-0.525-0.117-1.037-0.236-1.574-0.301c-1.352-0.158-2.729-0.105-4.094-0.132c-0.695-0.013-1.404-0.065-2.112-0.157
			c-0.525-0.066-1.023-0.25-1.522-0.407c-0.866-0.275-1.391-0.958-1.981-1.561c-0.118-0.118-0.223-0.236-0.315-0.381
			c-0.157-0.223-0.289-0.446-0.367-0.708c-0.197-0.708-0.354-1.43-0.197-2.165c0.092-0.42,0.223-0.853,0.407-1.247
			c0.197-0.459,0.446-0.879,0.695-1.312c0.341-0.577,0.813-1.05,1.286-1.509c0.643-0.63,1.43-0.958,2.244-1.286
			c0.604-0.249,1.221-0.341,1.851-0.446c1.01-0.158,2.007-0.092,3.018-0.079c0.263,0,0.512,0.079,0.774,0.131
			c0.787,0.145,1.548,0.354,2.283,0.656c0.407,0.17,0.788,0.367,1.181,0.564c0.59,0.302,1.128,0.696,1.614,1.142
			c0.079,0.079,0.171,0.145,0.276,0.21c0.262,0.17,0.367,0.446,0.485,0.695c0.04,0.092,0.013,0.236-0.026,0.328
			c-0.184,0.328-0.38,0.643-0.59,0.945c-0.105,0.157-0.25,0.302-0.368,0.459c-0.275,0.354-0.394,0.38-0.787,0.144
			c-0.315-0.197-0.617-0.42-0.932-0.617c-0.643-0.42-1.312-0.787-2.047-1.01c-0.564-0.17-1.115-0.341-1.68-0.499
			c-0.065-0.026-0.144-0.013-0.223-0.026c-0.354-0.04-0.709-0.065-1.063-0.092c-0.092-0.013-0.184-0.013-0.289,0
			c-0.289,0.026-0.591,0.04-0.866,0.092c-0.63,0.118-1.286,0.105-1.902,0.368c-0.473,0.197-0.853,0.512-1.233,0.839
			c-0.092,0.079-0.171,0.171-0.276,0.25c-0.525,0.407-0.774,0.945-0.813,1.587c-0.013,0.171,0,0.341,0,0.499
			c0.013,0.564,0.328,0.918,0.788,1.181c0.459,0.263,0.971,0.315,1.482,0.368c0.853,0.079,1.719,0.118,2.572,0.157
			c0.38,0.013,0.761,0,1.128,0.013c0.827,0.04,1.653,0.079,2.48,0.131c0.499,0.026,0.984,0.17,1.457,0.341
			c0.499,0.184,0.984,0.354,1.457,0.578c0.446,0.21,0.84,0.499,1.22,0.8c0.551,0.433,0.958,0.997,1.378,1.548
			c0.092,0.119,0.131,0.263,0.197,0.395c0.354,0.787,0.459,1.627,0.407,2.479c-0.026,0.524-0.066,1.05-0.158,1.562
			c-0.052,0.275-0.184,0.538-0.328,0.773c-0.197,0.328-0.394,0.656-0.643,0.959c-0.512,0.616-1.116,1.128-1.863,1.456
			c-0.564,0.236-1.103,0.538-1.68,0.748c-0.38,0.144-0.774,0.275-1.207,0.302c-0.25,0.013-0.486,0.092-0.735,0.145
			c-0.538,0.131-1.076,0.17-1.627,0.157c-0.813-0.026-1.64-0.053-2.454-0.065c-0.512,0-0.998-0.092-1.483-0.224
			c-0.236-0.065-0.472-0.092-0.695-0.157c-0.696-0.197-1.404-0.367-2.06-0.682c-0.551-0.276-1.076-0.578-1.588-0.919
			c-0.42-0.276-0.8-0.616-1.207-0.919c-0.433-0.328-0.813-0.709-1.063-1.193c-0.039-0.092-0.092-0.132-0.197-0.119
			C0,155.879,0,155.812,0,155.747z"/>
		<path d="M131.253,140.251c-0.197,0.472-0.512,0.879-0.84,1.26c-0.394,0.446-0.63,0.971-0.972,1.443
			c-0.655,0.931-1.299,1.876-1.98,2.781c-0.512,0.696-1.023,1.378-1.614,2.008c-0.669,0.722-1.155,1.575-1.706,2.362
			c-0.104,0.145-0.184,0.302-0.301,0.433c-0.407,0.459-0.564,0.997-0.578,1.574c-0.014,1.129-0.014,2.244-0.039,3.372
			c-0.026,1.339-0.066,2.69-0.092,4.029c0,0.117-0.026,0.223-0.039,0.314c-0.854,0.289-1.719,0.065-2.533,0.184
			c-0.157-0.184-0.197-0.354-0.197-0.551c-0.013-1.614-0.013-3.229-0.025-4.842c0-0.604,0.013-1.221-0.014-1.824
			c-0.013-0.538-0.065-1.09-0.117-1.627c-0.014-0.145-0.079-0.289-0.158-0.394c-0.445-0.656-0.905-1.312-1.364-1.955
			c-0.446-0.63-0.905-1.26-1.364-1.89c-0.303-0.407-0.631-0.8-0.945-1.194c-0.669-0.839-1.352-1.679-1.994-2.545
			c-0.197-0.249-0.314-0.564-0.486-0.827c-0.406-0.63-0.826-1.233-1.377-1.745c-0.092-0.092-0.158-0.21-0.223-0.328
			c-0.079-0.17-0.014-0.275,0.184-0.302c0.104-0.013,0.209-0.013,0.314-0.013c0.932,0.053,1.863,0.118,2.795,0.171
			c0.223,0.013,0.394,0.092,0.538,0.275c0.38,0.485,0.787,0.958,1.167,1.443c0.315,0.394,0.604,0.813,0.919,1.22
			c0.104,0.131,0.224,0.25,0.328,0.368c0.591,0.695,1.076,1.469,1.562,2.244c0.197,0.302,0.434,0.577,0.656,0.866
			c0.262,0.328,0.524,0.643,0.787,0.958c0.053,0.065,0.105,0.131,0.157,0.197c0.132,0.145,0.224,0.171,0.381,0.013
			c0.538-0.525,1.036-1.063,1.443-1.693c0.104-0.17,0.196-0.367,0.302-0.538c0.381-0.578,0.761-1.155,1.168-1.719
			c0.577-0.813,1.181-1.614,1.771-2.44c0.288-0.42,0.564-0.84,0.84-1.272c0.145-0.236,0.354-0.341,0.616-0.354
			c0.394-0.013,0.774-0.026,1.168-0.026c0.42,0,0.84,0.013,1.259,0.026c0.211,0,0.42,0.04,0.592,0.17
			C131.253,140.001,131.253,140.133,131.253,140.251z"/>
		<g>
			<path fill="none" d="M81.995,144.2c-0.617-0.512-1.325-0.853-2.139-0.944c-0.485-0.053-0.958-0.079-1.443-0.118
				c-0.63-0.053-1.247-0.118-1.876-0.158c-0.643-0.039-1.272-0.052-1.916-0.079c-0.236-0.013-0.485,0-0.722,0
				c-0.446,0.013-0.879,0.04-1.312,0.053c-0.473,0.013-0.945,0-1.417,0c-0.367,0-0.394,0.026-0.407,0.394c0,0.026,0,0.065,0,0.092
				c0,1.312,0.013,2.624,0.013,3.937c0.013,0.38,0.013,0.787,0.013,1.259c0.17,0.04,0.328,0.105,0.485,0.118
				c1.103,0.053,2.218,0,3.32,0.092c0.669,0.066,1.352,0.04,2.034-0.052c0.381-0.053,0.761-0.013,1.155,0.039
				c0.485,0.066,0.971,0.04,1.47-0.026c0.551-0.079,1.089-0.145,1.627-0.302c0.315-0.092,0.604-0.21,0.879-0.381
				c0.617-0.38,0.932-0.932,0.958-1.64c0.013-0.446,0.013-0.905-0.157-1.325C82.415,144.817,82.297,144.437,81.995,144.2z"/>
			<path d="M85.433,145.08c0-0.092-0.013-0.184-0.026-0.276c-0.065-0.341-0.118-0.695-0.21-1.036
				c-0.079-0.315-0.145-0.63-0.289-0.919c-0.564-1.141-1.575-1.771-2.729-2.165c-0.577-0.197-1.207-0.249-1.824-0.275
				c-1.076-0.039-2.165,0-3.241-0.052c-1.457-0.066-2.913-0.079-4.37-0.066c-0.669,0-1.338,0-2.007,0.04
				c-0.932,0.052-1.863,0.131-2.795,0.197c-0.21,0.013-0.289,0.118-0.289,0.328c0,0.604,0,1.22-0.013,1.824
				c-0.013,0.485,0,0.971-0.053,1.443c-0.131,1.168-0.052,2.349-0.039,3.517c0.013,0.853,0.052,1.693,0.065,2.545
				c0,0.367-0.04,0.734-0.04,1.103c0.013,0.971,0.053,1.929,0.053,2.899c0,1.443-0.026,2.873-0.026,4.316
				c0,0.42,0.013,0.854,0.026,1.26c0.052,0.027,0.079,0.04,0.092,0.04c0.827-0.013,1.653-0.013,2.48-0.026
				c0.21,0,0.315-0.118,0.354-0.328c0.026-0.118,0.053-0.236,0.053-0.367c0.026-1.443,0.04-2.873,0.052-4.316
				c0-0.264-0.013-0.539,0.04-0.788c0.105-0.591,0.105-1.167,0.04-1.759c-0.013-0.117,0-0.223,0.026-0.34
				c0.053-0.328,0.079-0.342,0.407-0.342c1.128,0,2.257-0.039,3.373,0.014c1.023,0.052,2.06,0.013,3.07,0.223
				c0.184,0.039,0.302,0.105,0.38,0.262c0.354,0.67,0.722,1.339,1.063,2.008c0.236,0.459,0.459,0.919,0.669,1.391
				c0.223,0.473,0.42,0.959,0.63,1.431c0.197,0.473,0.368,0.944,0.59,1.404c0.223,0.472,0.486,0.932,0.735,1.403
				c0.066,0.132,0.145,0.236,0.328,0.236c0.866-0.013,1.745-0.013,2.611-0.025c0.184,0,0.367-0.079,0.564-0.119
				c-0.236-0.498-0.433-0.971-0.708-1.403c-0.223-0.407-0.485-0.788-0.669-1.22c-0.328-0.723-0.683-1.418-1.011-2.14
				c-0.302-0.643-0.577-1.299-0.866-1.955c-0.171-0.38-0.341-0.761-0.499-1.142c-0.026-0.065-0.026-0.145-0.04-0.236
				c0.079-0.013,0.131-0.013,0.184-0.025c0.381-0.092,0.801-0.066,1.155-0.25c0.302-0.157,0.564-0.354,0.853-0.524
				c0.656-0.381,1.062-0.971,1.364-1.641c0.145-0.328,0.223-0.669,0.276-1.023c0.065-0.446,0.184-0.879,0.21-1.325
				C85.459,146.273,85.433,145.683,85.433,145.08z M82.717,146.483c-0.026,0.708-0.341,1.26-0.958,1.64
				c-0.275,0.171-0.564,0.289-0.879,0.381c-0.538,0.157-1.076,0.223-1.627,0.302c-0.499,0.065-0.984,0.092-1.47,0.026
				c-0.394-0.052-0.774-0.092-1.155-0.039c-0.682,0.092-1.364,0.118-2.034,0.052c-1.102-0.092-2.217-0.039-3.32-0.092
				c-0.157-0.013-0.315-0.079-0.485-0.118c0-0.472,0-0.879-0.013-1.259c0-1.312-0.013-2.625-0.013-3.937c0-0.026,0-0.066,0-0.092
				c0.013-0.368,0.04-0.394,0.407-0.394c0.473,0,0.945,0.013,1.417,0c0.433-0.013,0.866-0.04,1.312-0.053
				c0.236,0,0.485-0.013,0.722,0c0.643,0.026,1.272,0.04,1.916,0.079c0.63,0.04,1.247,0.105,1.876,0.158
				c0.485,0.039,0.958,0.065,1.443,0.118c0.813,0.092,1.522,0.433,2.139,0.944c0.302,0.236,0.42,0.617,0.564,0.958
				C82.73,145.578,82.73,146.037,82.717,146.483z"/>
		</g>
		<path d="M48.732,148.202c1.168,0.223,2.31,0.197,3.451,0.197c0.892,0,1.785-0.013,2.677-0.013c0.38,0,0.407,0.052,0.42,0.446
			c0.013,0.604-0.04,1.194-0.131,1.785c-0.026,0.196-0.079,0.393-0.131,0.576c-0.026,0.119-0.118,0.197-0.249,0.197
			c-0.564-0.025-1.128-0.039-1.693-0.065c-0.157-0.013-0.315-0.026-0.472-0.026c-1.142-0.013-2.283-0.013-3.425-0.013
			c-0.275,0-0.328,0.039-0.367,0.314c-0.026,0.171-0.053,0.328-0.053,0.499c-0.026,1.246-0.065,2.492-0.092,3.739
			c0,0.249-0.026,0.499-0.026,0.761c0,0.105,0.013,0.211,0.04,0.303c0.04,0.156,0.157,0.223,0.315,0.249
			c1.076,0.21,2.178,0.157,3.267,0.171c0.564,0.013,1.142-0.027,1.693,0.025c1.377,0.131,2.769,0.092,4.146,0.145
			c0.84,0.039,1.68-0.026,2.52-0.039c0.394-0.014,0.787-0.039,1.181,0.078c0.354,0.119,0.551,0.367,0.551,0.683
			c0,0.499,0,1.011-0.026,1.509c-0.013,0.275-0.131,0.381-0.42,0.407c-0.249,0.013-0.499,0-0.761,0.026
			c-1.798,0.145-3.608,0.157-5.406,0.117c-1.01-0.025-2.034-0.052-3.044-0.156c-1.063-0.105-2.139-0.08-3.202-0.119
			c-0.38-0.013-0.761-0.104-1.128-0.053c-0.499,0.066-0.997,0.066-1.509,0.066c-0.263,0-0.538-0.053-0.801-0.118
			c-0.157-0.04-0.223-0.184-0.249-0.354c-0.145-0.84-0.105-1.692-0.105-2.545c-0.013-2.258,0.04-4.514-0.04-6.771
			c-0.105-2.795-0.039-5.577-0.105-8.372c-0.013-0.38-0.013-0.774,0-1.155c0-0.197,0.079-0.275,0.276-0.315
			c0.879-0.17,1.758-0.262,2.65-0.249c1.627,0.013,3.254,0.079,4.881,0.092c1.758,0.013,3.53-0.026,5.288-0.026
			c0.577,0,1.155,0,1.732,0c0.21,0,0.42-0.026,0.63-0.013c0.275,0.013,0.394,0.105,0.407,0.381c0.013,0.695,0.145,1.404,0.053,2.099
			c-0.026,0.263-0.184,0.394-0.407,0.433c-0.026,0-0.04,0.013-0.066,0.013c-0.748,0.04-1.509,0.092-2.257,0.092
			c-0.971-0.013-1.955-0.013-2.926-0.131c-1.037-0.131-2.073-0.092-3.11-0.052c-1.168,0.039-2.323,0.079-3.49,0.118
			c-0.328,0.013-0.341,0.026-0.407,0.354c-0.026,0.092-0.04,0.184-0.04,0.276c-0.026,1.128-0.04,2.244-0.052,3.372
			c0,0.236-0.026,0.459-0.053,0.682C48.654,147.979,48.641,148.124,48.732,148.202z"/>
		<path d="M169.922,149.79c-0.184-0.17-0.368-0.341-0.564-0.485c-0.395-0.289-0.762-0.578-1.143-0.879
			c-0.668-0.538-1.363-1.049-2.06-1.574c-0.577-0.433-1.167-0.866-1.745-1.312c-0.394-0.302-0.773-0.604-1.154-0.905
			c-0.395-0.315-0.801-0.604-1.194-0.918c-0.275-0.223-0.538-0.472-0.813-0.695c-0.381-0.315-0.787-0.604-1.181-0.905
			c-0.394-0.289-0.774-0.591-1.168-0.879c-0.708-0.525-1.431-1.05-2.151-1.562c-0.342-0.236-0.695-0.472-1.063-0.656
			c-0.604-0.289-1.155-0.63-1.692-1.01c-0.026-0.013-0.026-0.053-0.039-0.079c-0.105,0-0.224,0-0.367,0.013
			c-0.027,0.026-0.04,0.079-0.066,0.092c-0.184,0.105-0.381,0.197-0.551,0.328c-0.774,0.564-1.535,1.128-2.297,1.706
			c-0.196,0.144-0.393,0.289-0.564,0.472c-0.117,0.118-0.223,0.197-0.367,0.275c-0.064,0.026-0.117,0.053-0.17,0.092
			c-0.748,0.564-1.496,1.142-2.244,1.706c-0.485,0.354-0.971,0.722-1.456,1.089c-0.132,0.092-0.263,0.197-0.394,0.289
			c-0.42,0.315-0.814,0.656-1.26,0.919c-0.63,0.367-1.207,0.826-1.785,1.259c-0.314,0.236-0.616,0.473-0.957,0.656
			c-0.211,0.118-0.395,0.275-0.578,0.433c-0.393,0.328-0.773,0.669-1.168,0.984c-0.445,0.341-0.918,0.656-1.363,0.997
			c-0.224,0.158-0.42,0.328-0.617,0.512c-0.118,0.118-0.105,0.25,0.039,0.354c0.066,0.04,0.118,0.092,0.184,0.145
			c0.131,0.105,0.263,0.223,0.395,0.328c0.327,0.263,0.682,0.485,0.971,0.788c0.117,0.117,0.249,0.209,0.367,0.301
			c0.512,0.381,1.023,0.774,1.521,1.155c0.395,0.302,0.787,0.604,1.182,0.905c0.275,0.197,0.551,0.394,0.812,0.604
			c0.185,0.145,0.368,0.314,0.552,0.459c0.433,0.354,0.879,0.695,1.312,1.05c0.355,0.288,0.709,0.591,1.063,0.88
			c0.524,0.42,1.036,0.852,1.575,1.259c0.616,0.473,1.232,0.944,1.862,1.404c0.552,0.407,1.116,0.813,1.667,1.207
			c0.196,0.145,0.381,0.288,0.59,0.38c0.617,0.276,1.182,0.644,1.732,1.023c0.105,0.08,0.21,0.105,0.314,0.053
			c0.171-0.092,0.367-0.157,0.525-0.275c0.354-0.236,0.682-0.498,1.023-0.748c0.157-0.117,0.328-0.223,0.485-0.341
			c0.433-0.341,0.866-0.683,1.299-1.023c0.132-0.104,0.276-0.184,0.368-0.315c0.078-0.104,0.184-0.17,0.288-0.235
			c0.079-0.04,0.145-0.065,0.21-0.118c0.367-0.275,0.748-0.564,1.129-0.854c0.682-0.524,1.364-1.062,2.047-1.588
			c0.328-0.248,0.668-0.512,1.01-0.76c0.446-0.328,0.866-0.684,1.338-0.972c0.564-0.341,1.063-0.774,1.602-1.155
			c0.262-0.196,0.512-0.432,0.801-0.59c0.354-0.197,0.682-0.42,0.971-0.709c0.473-0.484,1.023-0.879,1.561-1.272
			c0.434-0.314,0.893-0.604,1.273-0.984c0.065-0.052,0.118-0.131,0.184-0.197C169.974,149.855,169.947,149.816,169.922,149.79z
			 M161.17,153.018c-0.034,0.096-0.089,0.162-0.156,0.214c-0.068,0.059-0.151,0.105-0.251,0.141
			c-0.302,0.104-0.591,0.276-0.893,0.407c-0.104,0.053-0.235,0.092-0.354,0.131c-0.053,0.026-0.092,0.039-0.131,0.065
			c-0.302,0.236-0.656,0.341-0.997,0.473c-0.275,0.118-0.552,0.236-0.827,0.341c-0.184,0.066-0.354,0.131-0.537,0.197
			c-0.342,0.117-0.683,0.236-1.023,0.341c-0.224,0.065-0.447,0.118-0.683,0.171c-0.236,0.053-0.473,0.105-0.708,0.145
			c-0.656,0.117-1.312,0.145-1.969,0.092c-0.367-0.039-0.722-0.079-1.076-0.184c-0.157-0.053-0.328-0.092-0.498-0.105
			c-0.263-0.026-0.486-0.157-0.723-0.236c-0.092-0.039-0.184-0.092-0.275-0.118c-0.124-0.025-0.235-0.019-0.324,0.094
			c-0.129,0.192-0.269,0.384-0.396,0.575c-0.092,0.145-0.185,0.289-0.276,0.434c-0.071,0.111-0.151,0.196-0.237,0.259
			c-0.258,0.204-0.58,0.199-0.904,0.017c-0.053-0.026-0.117-0.078-0.17-0.118c-0.211-0.157-0.263-0.328-0.132-0.551
			c0.132-0.224,0.276-0.433,0.433-0.63c0.264-0.328,0.539-0.643,0.762-0.998c0.184-0.314,0.394-0.59,0.604-0.879
			c0.05-0.062,0.1-0.126,0.15-0.189c0.098-0.129,0.195-0.259,0.294-0.388c0.044-0.062,0.092-0.121,0.133-0.184
			c0.185-0.288,0.354-0.591,0.524-0.879c0.224-0.38,0.447-0.774,0.67-1.155c0.236-0.433,0.498-0.853,0.722-1.299
			c0.38-0.722,0.735-1.457,1.089-2.191c0.145-0.302,0.328-0.577,0.406-0.905c0.014-0.066,0.066-0.118,0.105-0.184
			c0.066-0.131,0.158-0.25,0.197-0.394c0.078-0.328,0.288-0.604,0.42-0.905c0.209-0.485,0.406-0.971,0.604-1.457
			c0.196-0.459,0.328-0.918,0.459-1.377c0.026-0.079,0.039-0.171,0.092-0.236c0.006-0.007,0.017-0.014,0.024-0.022
			c0.001-0.001,0.001-0.003,0.002-0.004c0.039-0.052,0.118-0.131,0.184-0.118c0.21,0.013,0.407,0.053,0.577,0.184
			c0.145,0.118,0.184,0.302,0.223,0.472c0.053,0.263,0.105,0.512,0.158,0.774c0.039,0.197,0.078,0.394,0.092,0.59
			c0.039,0.367,0.053,0.722,0.092,1.089c0.025,0.223,0.053,0.459,0.078,0.683c0.014,0.052,0.014,0.118,0.014,0.17
			c0.039,0.958,0.092,1.916,0.105,2.887c0.013,0.761,0,1.535-0.092,2.296c-0.04,0.303-0.119,0.604-0.158,0.906
			c-0.065,0.42-0.21,0.812-0.367,1.193c-0.092,0.21-0.21,0.42-0.314,0.63c-0.04,0.079-0.079,0.157-0.119,0.249
			c0,0.039,0,0.053,0.014,0.079c0.032-0.008,0.065-0.005,0.092,0.001c0.022-0.002,0.044-0.003,0.065-0.014
			c0.354-0.145,0.709-0.289,1.063-0.447c0.328-0.156,0.656-0.327,0.984-0.484c0.208-0.104,0.416-0.207,0.622-0.311
			c0.075-0.038,0.149-0.078,0.226-0.116c0.21-0.108,0.419-0.217,0.621-0.335c0.033-0.018,0.064-0.014,0.098-0.024
			c0.031-0.011,0.062-0.019,0.093-0.024c0.153-0.031,0.304-0.027,0.452,0.01c0.197,0.053,0.367,0.17,0.525,0.302
			c0.118,0.104,0.262,0.184,0.394,0.249c0.104,0.066,0.184,0.145,0.171,0.275C161.195,152.809,161.209,152.926,161.17,153.018z"/>
		<path d="M105.705,151.482c0.105-0.053,0.224-0.065,0.328-0.117c0.354-0.172,0.709-0.342,1.062-0.525
			c0.512-0.263,0.984-0.564,1.3-1.037c0.288-0.433,0.551-0.866,0.8-1.325c0.303-0.551,0.512-1.155,0.499-1.811
			c-0.013-0.656-0.013-1.312-0.079-1.955c-0.025-0.354-0.145-0.722-0.288-1.049c-0.171-0.394-0.394-0.761-0.604-1.128
			c-0.393-0.656-0.865-1.247-1.548-1.588c-0.577-0.289-1.207-0.499-1.823-0.695c-0.617-0.21-1.26-0.289-1.916-0.302
			c-0.171,0-0.328-0.04-0.498-0.053c-0.224-0.013-0.434-0.052-0.656-0.052c-0.735,0-1.483,0.026-2.23,0.039
			c-0.315,0-0.617,0-0.919,0.013c-0.893,0.026-1.784,0.092-2.677,0.079c-1.47-0.026-2.939-0.026-4.408,0.04
			c-0.328,0.013-0.368,0.053-0.368,0.367c0,0.499,0,0.984,0,1.483c0,0.407-0.026,0.813,0.026,1.22
			c0.053,0.459,0.053,0.918,0.026,1.378c-0.026,0.367-0.053,0.735-0.065,1.102c-0.026,0.774,0.131,1.562,0.039,2.349
			c-0.014,0.026,0,0.04,0,0.066c0.014,0.394,0.053,0.8,0.039,1.194c-0.013,0.564-0.065,1.115-0.092,1.667
			c-0.025,0.932-0.157,1.863-0.118,2.795c0.026,0.604,0,1.221,0,1.824c0.04,1.364-0.144,2.742,0.093,4.119
			c0.052,0.25,0.078,0.315,0.327,0.315c0.656,0,1.3,0,1.955-0.013c0.196-0.014,0.394-0.053,0.577-0.119
			c0.079-0.025,0.145-0.144,0.171-0.236c0.04-0.104,0.013-0.209,0.013-0.314c0.014-0.629,0.014-1.246,0.04-1.863
			c0.013-0.537,0.065-1.062,0.079-1.601c0.025-0.735,0.025-1.482,0.039-2.23c0-0.328-0.014-0.644-0.014-0.972
			c0-0.209,0-0.42,0.053-0.616c0.053-0.224,0.25-0.302,0.459-0.249c0.184,0.039,0.367,0.092,0.551,0.092
			c0.499,0.026,1.011,0.014,1.51,0.026c0.551,0.013,1.115,0.052,1.666,0.065c0.459,0,0.918,0.065,1.378-0.053
			c0.079-0.013,0.171,0,0.249,0.014c0.145,0.013,0.275,0.053,0.407,0.053c0.263,0.013,0.524,0.013,0.787,0.013
			c0.118,0,0.21,0.039,0.263,0.144c0.223,0.407,0.459,0.801,0.656,1.208c0.38,0.774,0.734,1.562,1.102,2.335
			c0.223,0.486,0.42,0.971,0.656,1.443c0.459,0.919,0.945,1.811,1.404,2.717c0.065,0.131,0.131,0.184,0.262,0.184
			c0.814,0,1.641,0,2.454-0.014c0.288,0,0.367-0.184,0.249-0.445c-0.17-0.367-0.328-0.735-0.473-1.115
			c-0.156-0.381-0.275-0.787-0.445-1.168c-0.354-0.774-0.748-1.522-1.103-2.297c-0.38-0.84-0.8-1.666-1.247-2.467
			c-0.078-0.145-0.131-0.314-0.17-0.473C105.43,151.705,105.482,151.588,105.705,151.482z M105.325,148.084
			c-0.118,0.039-0.236,0.092-0.341,0.144c-0.395,0.184-0.84,0.158-1.26,0.223c-0.407,0.079-0.827,0.131-1.247,0.131
			c-2.073,0.026-4.134,0.026-6.206,0.013c-0.367,0-0.748-0.066-1.115-0.131c-0.092-0.013-0.184-0.131-0.224-0.223
			c-0.039-0.105-0.039-0.223-0.039-0.341c-0.026-1.43-0.053-2.874-0.079-4.304c0-0.144,0.026-0.289,0.066-0.433
			c0.078-0.315,0.092-0.328,0.42-0.328c1.128,0,2.243,0,3.162,0c1.352,0.052,2.492,0.065,3.635,0.157
			c0.8,0.065,1.6,0.25,2.388,0.407c0.367,0.079,0.669,0.328,0.971,0.538c0.473,0.341,0.748,0.813,0.972,1.338
			c0.013,0.052,0.025,0.118,0.025,0.184c0.026,0.27,0.033,0.542,0.012,0.812c-0.021,0.274-0.07,0.542-0.156,0.801
			c-0.039,0.122-0.089,0.235-0.148,0.341C105.981,147.73,105.709,147.966,105.325,148.084z"/>
		<path d="M40.965,144.397c-0.053-0.367-0.158-0.734-0.341-1.062c-0.105-0.184-0.197-0.38-0.302-0.578
			c-0.643-1.246-1.614-2.047-3.031-2.257c-0.289-0.039-0.578-0.092-0.866-0.144c-0.761-0.158-1.535-0.236-2.31-0.236
			c-1.443,0-2.899,0.013-4.343,0.013c-0.696,0-1.378-0.026-2.073,0.026c-1.168,0.079-2.335,0.223-3.503,0.341
			c-0.223,0.026-0.25,0.04-0.263,0.263c-0.039,0.617-0.092,1.247-0.105,1.876c-0.026,1.614-0.026,3.228-0.039,4.841
			c-0.013,1.233-0.066,2.48-0.079,3.713c-0.013,0.5,0.039,1.012,0.039,1.51c0.013,0.971,0,1.955-0.013,2.926
			c-0.013,1.273-0.039,2.533-0.052,3.805c0,0.303,0.144,0.46,0.446,0.473c0.42,0.014,0.84,0.014,1.26,0.026
			c0.328,0.013,0.643,0.065,0.971,0.079c0.315,0.014,0.446-0.118,0.446-0.434c0-0.341,0-0.695,0-1.036
			c0.013-1.837,0.013-3.674,0.04-5.511c0-0.367,0.065-0.734,0.092-1.115c0.118,0,0.184-0.014,0.223,0
			c1.312,0.013,2.637,0.013,3.963,0.013c1.391,0,2.769-0.013,4.159-0.013c0.118-0.014,0.25-0.026,0.368-0.053
			c0.275-0.065,0.538-0.145,0.813-0.21c0.472-0.118,0.971-0.184,1.404-0.42c0.42-0.21,0.827-0.446,1.207-0.708
			c0.446-0.315,0.722-0.788,0.971-1.247c0.262-0.485,0.459-0.997,0.708-1.496c0.25-0.486,0.354-0.984,0.38-1.509
			C41.162,145.644,41.03,145.014,40.965,144.397z M38.472,146.365c-0.003,0.034-0.009,0.067-0.013,0.101
			c-0.025,0.286-0.079,0.562-0.183,0.818c-0.089,0.229-0.212,0.444-0.408,0.629c-0.236,0.223-0.446,0.459-0.748,0.604
			c-0.289,0.131-0.604,0.197-0.918,0.25c-1.627,0.236-3.254,0.079-4.671,0.131c-1.122,0-2.133,0-3.122,0
			c-0.33,0.002-0.657,0.006-0.985,0.013c-0.309,0-0.413-0.018-0.451-0.214c-0.012-0.051-0.016-0.123-0.018-0.203
			c-0.001-0.017-0.003-0.024-0.004-0.043c-0.013-0.84-0.013-1.68-0.013-2.519c0-0.001,0-0.002,0-0.003c0-0.003,0-0.007,0-0.01
			c0-0.446,0-0.879,0.026-1.325c0.013-0.289,0.065-0.578,0.092-0.879c0.013-0.118,0.065-0.197,0.197-0.21
			c0.354-0.039,0.708-0.105,1.063-0.118c0.735-0.039,1.47-0.052,2.204-0.105c1.181-0.079,2.362-0.052,3.556,0.053
			c0.485,0.039,0.958,0.039,1.443,0.052c0.525,0.013,1.037,0.092,1.535,0.263c0.394,0.131,0.708,0.38,0.879,0.774
			c0.051,0.112,0.102,0.223,0.151,0.336c0.015,0.032,0.026,0.065,0.04,0.098c0.032,0.075,0.064,0.15,0.092,0.227
			c0.013,0.034,0.021,0.068,0.032,0.103c0.063,0.19,0.114,0.384,0.131,0.588c0.013,0.197,0.105,0.394,0.092,0.577
			c0,0.002,0,0.004-0.001,0.007C38.471,146.361,38.472,146.363,38.472,146.365z"/>
		<path d="M155.305,146.562c0.025,0.066,0.052,0.131,0.064,0.21c0.014,0.105,0.014,0.197,0.014,0.302
			c-0.014,0.866,0.092,1.719,0.145,2.572c0.013,0.105,0.013,0.197,0,0.302c-0.014,0.25-0.026,0.486-0.066,0.722
			c-0.039,0.236-0.092,0.473-0.144,0.709c-0.053,0.223-0.118,0.446-0.196,0.655c-0.145,0.381-0.289,0.762-0.46,1.115
			c-0.065,0.145-0.21,0.264-0.341,0.342c-0.263,0.17-0.551,0.328-0.827,0.473c-0.144,0.065-0.315,0.078-0.472,0.117
			c-0.447,0.132-0.906,0.08-1.365,0.066c-0.289-0.014-0.577-0.105-0.879-0.171c-0.053-0.013-0.078-0.065-0.131-0.118
			c0.209-0.354,0.42-0.722,0.682-1.049c0.236-0.289,0.499-0.564,0.709-0.88c0.302-0.433,0.564-0.879,0.826-1.325
			c0.486-0.813,0.971-1.627,1.443-2.454c0.275-0.472,0.551-0.958,0.826-1.43c0.027-0.053,0.066-0.105,0.105-0.158
			C155.265,146.562,155.277,146.562,155.305,146.562z"/>
	</g>
</g>
</svg>
