<svg enable-background="new 0 0 319.2 24.7" viewBox="0 0 319.2 24.7" xmlns="http://www.w3.org/2000/svg" xmlns:xlink="http://www.w3.org/1999/xlink"><clipPath id="a"><path d="m0 0h319.2v24.7h-319.2z"/></clipPath><g fill="#464b59"><path d="m143.6 15.3-8.9-11.1v20.1h2v-14.6l6.9 8.9 7-8.9v14.6h2.1v-20.2z"/><path d="m83.8 15.3-9-11.1v20.1h2v-14.6l7 8.9 6.9-8.9v14.6h2.1v-20.2z"/><path d="m90.7.7-6.9 9.2-7-9.2h-5.2v23.6h1.8v-21.9h1.9l8.5 10.9 8.6-10.9h1.8v21.9h1.8v-23.6z"/><path d="m150.6.7-7 9.2-6.9-9.2h-5.3v23.6h1.9v-21.9h1.8l8.5 10.9 8.6-10.9h1.9v21.9h1.7v-23.6z"/><path clip-path="url(#a)" d="m113.7 19.7c-4 0-7.3-3.3-7.3-7.3s3.3-7.3 7.3-7.3 7.3 3.3 7.3 7.3-3.3 7.3-7.3 7.3m0-16.4c-5 0-9.1 4.1-9.1 9.1s4.1 9.1 9.1 9.1 9.1-4.1 9.1-9.1-4.1-9.1-9.1-9.1"/><path clip-path="url(#a)" d="m113.7 22.8c-5.8 0-10.4-4.7-10.4-10.4 0-5.8 4.7-10.4 10.4-10.4s10.4 4.7 10.4 10.4-4.7 10.4-10.4 10.4m0-22.6c-6.7 0-12.2 5.5-12.2 12.1 0 6.7 5.5 12.1 12.2 12.1s12.1-5.4 12.1-12.1c0-6.6-5.4-12.1-12.1-12.1"/><path clip-path="url(#a)" d="m12.1 4.9v19.3h-4.6v-19.3h-7.5v-4.4h19.6v4.4z"/><path clip-path="url(#a)" d="m38.9 24.2v-9.8h-10.3v9.8h-4.6v-23.7h4.6v9.5h10.3v-9.5h4.7v23.7z"/><path clip-path="url(#a)" d="m50.1 24.2v-23.7h14.9v4.3h-10.3v5.5h9.3v4.1h-9.3v5.4h10.3v4.4z"/><path clip-path="url(#a)" d="m172.1 11.3c2.3 0 3.7-1.3 3.7-3.4s-1.4-3.4-3.7-3.4h-3.6v6.8zm-3.6 4v8.9h-4.6v-23.7h8.9c4.7 0 7.8 3.1 7.8 7.4s-3.1 7.4-7.8 7.4z"/><path clip-path="url(#a)" d="m193.5 11.1c2.3 0 3.7-1.3 3.7-3.3s-1.4-3.3-3.7-3.3h-3.7v6.6zm-1.3 4h-2.4v9.1h-4.6v-23.7h9.3c4.6 0 7.6 3.2 7.6 7.3 0 3.3-1.9 5.8-5 6.7l5.1 9.7h-5.1z"/><path clip-path="url(#a)" d="m217.8 20.2c3.7 0 7.4-2.5 7.4-7.9 0-5.3-3.7-7.9-7.4-7.9-3.6 0-7.4 2.5-7.4 7.9s3.7 7.9 7.4 7.9m0-20.2c6.4 0 12.2 4.7 12.2 12.4 0 7.6-5.7 12.3-12.2 12.3-6.4 0-12.2-4.7-12.2-12.3 0-7.7 5.7-12.4 12.2-12.4"/><path clip-path="url(#a)" d="m233.1 15.4h4.4v1.4c0 2.4 1.4 3.5 3.3 3.5s3.1-1.4 3.1-3.4v-16.4h4.6v16.4c0 4.3-3.1 7.8-7.7 7.8-4.7 0-7.8-3.1-7.8-7.7v-1.6z"/><path clip-path="url(#a)" d="m254.9 24.2v-23.7h14.8v4.3h-10.2v5.5h9.2v4.1h-9.2v5.4h10.2v4.4z"/><path clip-path="url(#a)" d="m274 12.4c0-7.6 5.7-12.4 12-12.4 6.5 0 9.9 4 10.9 7.9l-4.3 1.4c-.6-2.3-2.4-4.8-6.5-4.8-3.5 0-7.3 2.5-7.3 7.9 0 5 3.5 7.8 7.4 7.8 4 0 6-2.6 6.6-4.8l4.3 1.3c-.9 3.6-4.3 8.1-11 8.1-6.6-.1-12.1-4.9-12.1-12.4"/><path clip-path="url(#a)" d="m311.7 4.9v19.3h-4.6v-19.3h-7.5v-4.4h19.6v4.4z"/></g></svg>