<?xml version="1.0" encoding="utf-8"?>
<!-- Generator: Adobe Illustrator 18.1.1, SVG Export Plug-In . SVG Version: 6.00 Build 0)  -->
<svg version="1.1" id="Layer_1" xmlns="http://www.w3.org/2000/svg" xmlns:xlink="http://www.w3.org/1999/xlink" x="0px" y="0px"
	 viewBox="2.2 0 611.3 170.7" style="enable-background:new 2.2 0 611.3 170.7;" xml:space="preserve">
<style type="text/css">
	.st0{enable-background:new    ;}
</style>
<g class="st0">
	<path d="M18.4,20.3H9.7l-1.4,4.6H2.2l8.7-24.3h6.1l8.7,24.3h-6.1L18.4,20.3z M11.1,15.3h5.8L14,5.8L11.1,15.3z"/>
	<path d="M40.7,24.9H28.8V0.6h11.6c4.6,0,6.9,2.9,6.9,6.1c0,2.6-1.2,4.3-3.2,5.5c2.6,0.9,4.6,2.3,4.6,5.8
		C49,22.3,45.6,24.9,40.7,24.9z M39.2,10.1c1.4,0,2.3-0.9,2.3-2.6c0-1.4-0.9-2.3-2.6-2.3h-4.3v4.9L39.2,10.1L39.2,10.1z M40.4,14.8
		h-5.5V20h5.8c1.7,0,2.6-1.2,2.6-2.6C43.3,15.9,42.1,14.8,40.4,14.8z"/>
	<path d="M62.9,20.3c3.2,0,4.6-2,4.9-4.6h5.5c0,5.2-3.8,9.5-10.4,9.5c-7.5,0-11-4.6-11-11V11c0-6.4,3.5-11,11-11
		c6.4,0,10.1,4.3,10.4,9.5h-5.5c0-2.3-1.7-4.6-4.9-4.6c-3.5,0-5.2,2.3-5.2,5.8v3.8C58,17.9,59.5,20.3,62.9,20.3z"/>
	<path d="M88.1,0.6c6.7,0,10.1,4.1,10.1,9.5V15c0,5.5-3.5,9.5-10.1,9.5H77.4V0.3h10.7V0.6z M92.2,10.1c0-3.2-1.7-4.6-5.2-4.6h-3.5
		V20H87c3.5,0,5.2-1.7,5.2-4.6V10.1z"/>
	<path d="M102.3,0.6h17.7v4.9h-11.6v4.6h10.7V15h-10.7V20h11.6v4.9h-17.7V0.6z"/>
	<path d="M124,24.9V0.6h17.1v4.9h-11v5.2h10.1v4.9h-10.1v9.3L124,24.9L124,24.9z"/>
	<path d="M159.6,9c0-2-1.7-4.1-4.6-4.1c-3.5,0-4.9,1.7-4.9,5.8v3.8c0,3.5,1.4,6.1,4.9,6.1c2.9,0,4.6-1.7,4.6-3.8H155v-4.9h10.7v3.5
		c0,6.1-4.3,10.1-10.7,10.1c-7.2,0-11-4.9-11-11V11c0-6.7,4.3-11,10.7-11c6.4,0,10.4,3.8,10.4,9C165.1,9,159.6,9,159.6,9z"/>
	<path d="M183.9,24.9v-9.5h-8.4v9.5h-6.1V0.6h6.1v9.5h8.4V0.6h6.1v24.3H183.9z"/>
	<path d="M201,24.9h-6.1V0.6h6.1V24.9z"/>
	<path d="M222.7,0.6v16.8c0,4.6-3.8,7.8-9,7.8c-5.5,0-9-3.2-9-8.1v-0.3h5.8v0.3c0,1.7,0.9,3.2,3.2,3.2c2,0,3.2-1.2,3.2-2.9V0.6
		L222.7,0.6L222.7,0.6z"/>
	<path d="M227.6,24.9V0.6h6.1v11.6l7.2-11.6h6.9l-8.1,12.2l8.4,12.2h-7.2L233.7,13v11.9L227.6,24.9L227.6,24.9z"/>
	<path d="M256.8,0.6V20h10.7v4.9h-16.8V0.6L256.8,0.6L256.8,0.6z"/>
	<path d="M289.5,0.6h5.5v24.3h-5.8V12.2l-3.8,7.5h-4.6l-3.8-7.5v12.7h-5.8V0.6h5.5l6.4,13.3L289.5,0.6z"/>
	<path d="M315,24.9l-9-14.2v14.2h-5.8V0.6h5.8l9.3,14.2V0.6h5.8v24.3H315z"/>
	<path d="M335.8,25.2c-7.2,0-11-4.6-11-11V11c0-6.4,3.8-11,11-11s11,4.6,11,11v3.2C347.1,20.5,343,25.2,335.8,25.2z M335.8,4.9
		c-3.5,0-5.2,2.3-5.2,5.8v3.8c0,3.5,1.7,5.8,5.2,5.8c3.5,0,5.2-2.3,5.2-5.8v-3.8C341,7.2,339.3,4.9,335.8,4.9z"/>
	<path d="M356.9,17.4v7.2h-6.1V0.3h10.4c5.8,0,9.5,3.2,9.5,8.4s-3.8,8.7-9.5,8.7H356.9L356.9,17.4z M361,5.5h-4.1v6.9h4.1
		c2.6,0,3.8-1.4,3.8-3.5S363.9,5.5,361,5.5z"/>
	<path d="M392.2,22.9l1.7,2.6l-4.1,2.6l-2-3.2c-0.9,0.3-2,0.3-3.2,0.3c-7.2,0-11.3-4.6-11.3-11V11c0-6.4,3.8-11,11.3-11
		c7.2,0,11.3,4.6,11.3,11v3.2C396,17.7,394.5,20.8,392.2,22.9z M384.7,4.9c-3.5,0-5.2,2.3-5.2,5.8v3.8c0,3.5,1.7,5.8,5.2,5.8h0.3
		l-1.4-2.3l4.1-2.6l1.7,2.6c0.6-0.9,0.9-2,0.9-3.5v-3.8C389.9,7.2,388.2,4.9,384.7,4.9z"/>
	<path d="M409.9,17.7h-4.1v7.2H400V0.6h11.3c5.8,0,9,3.5,9,8.7c0,3.5-1.7,6.1-4.6,7.5l4.9,8.1h-6.9L409.9,17.7z M410.7,5.2h-4.9v7.5
		h4.6c2.6,0,3.8-1.4,3.8-3.8C414.5,6.9,413.1,5.2,410.7,5.2z"/>
	<path d="M433.6,25.2c-5.8,0-9.8-2.9-9.8-7.5v-0.6h5.8v0.6c0,2,1.4,3.2,4.1,3.2c2.6,0,4.1-0.9,4.1-2.9c0-1.2-0.6-1.7-1.7-2l-6.1-1.4
		c-3.8-0.9-5.8-2.6-5.8-6.7c0-4.9,3.5-7.5,9.3-7.5c5.5,0,9,2.9,9,7.5v0.6h-5.5V8.1c0-1.7-0.9-2.9-3.5-2.9c-2,0-3.5,0.9-3.5,2.6
		c0,1.2,0.6,1.7,1.4,2l6.4,1.7c3.8,1.2,5.5,3.2,5.5,6.7C443.4,22.3,439.1,25.2,433.6,25.2z"/>
	<path d="M464,0.6v4.9h-6.7v19.4h-6.1V5.5h-6.7V0.6C444.9,0.6,464,0.6,464,0.6z"/>
	<path d="M481.6,0.6h6.1v15.3c0,5.8-4.1,9.5-10.4,9.5s-10.4-3.8-10.4-9.5V0.6h6.1v15.3c0,2.9,1.7,4.3,4.3,4.3s4.3-1.4,4.3-4.3
		C481.6,15.9,481.6,0.6,481.6,0.6z"/>
	<path d="M504.8,24.9h-6.4l-8.1-24.3h6.1l5.2,17.7l5.2-17.7h6.1L504.8,24.9z"/>
	<path d="M537.8,16.5l2.9-15.9h5.8l-5.8,24.3h-5.5l-4.9-17.1l-4.9,17.1h-5.2l-5.8-24.3h5.8l2.9,15.9l4.6-15.9h5.5L537.8,16.5z"/>
	<path d="M562.7,12.4l8.1,12.4h-6.4l-4.9-7.5l-4.9,7.5h-6.4l8.1-12.4l-7.5-11.9h6.1l4.6,7.2l4.6-7.2h6.1L562.7,12.4z"/>
	<path d="M585.8,16.2v8.4h-6.1v-8.4l-8.1-15.9h6.4l4.6,10.1l4.6-10.1h6.7L585.8,16.2z"/>
	<path d="M596.5,0.6h17.7v4.9L602.9,20h11.6v4.9h-18.5v-5.2l11.3-14.5h-10.7L596.5,0.6L596.5,0.6z"/>
</g>
<g class="st0">
	<path d="M15.2,95.5V94c-1.2,1.2-2.9,2-5.5,2c-4.1,0-6.7-2.3-6.7-5.8c0-3.8,2.9-5.8,6.9-5.8c2.3,0,3.8,0.6,4.6,1.4v-2
		c0-1.4-0.9-2.3-2.6-2.3c-1.2,0-2,0.3-2.6,1.4H4.2c0.9-3.8,3.8-5.8,8.1-5.8c5.2,0,8.1,2.9,8.1,7.2v11.3L15.2,95.5L15.2,95.5z
		 M14.9,90c0-1.2-1.4-2-3.2-2c-2,0-3.2,0.6-3.2,2s1.4,2,3.2,2S14.9,91.1,14.9,90z"/>
	<path d="M30.5,78.7c0.9-0.9,2.6-2,4.6-2c5.2,0,7.8,3.8,7.8,7.8v3.2c0,4.3-2.6,7.8-7.8,7.8c-2.6,0-4.3-1.4-4.9-2.3v2h-5.5V69.7h5.8
		C30.5,70,30.5,78.7,30.5,78.7z M34,81.6c-1.7,0-3.2,1.2-3.2,3.5v2.6c0,2.3,1.4,3.5,3.2,3.5c2.3,0,3.5-1.4,3.5-3.5v-2.3
		C37.2,83,36,81.6,34,81.6z"/>
	<path d="M45.6,87.4v-2.3c0-4.9,3.2-8.4,9-8.4c4.9,0,8.4,3.2,8.7,7.5H58c0-1.4-1.2-2.9-3.2-2.9c-2,0-3.2,1.4-3.2,3.5V88
		c0,2,0.9,3.5,3.2,3.5c2,0,3.2-1.4,3.2-2.9h5.2c0,4.3-3.5,7.5-8.7,7.5C48.8,95.8,45.6,92.3,45.6,87.4z"/>
	<path d="M84.1,95.5h-5.5v-2c-0.6,0.9-2.6,2.3-4.9,2.3c-5.2,0-7.8-3.8-7.8-8.1v-2.9c0-4.1,2.6-8.1,7.8-8.1c2.3,0,4.1,0.9,4.6,2V70
		h5.8L84.1,95.5L84.1,95.5z M78.3,85.1c0-2.3-1.4-3.5-3.2-3.5c-2.3,0-3.5,1.4-3.5,3.5v2.3c0,2,1.2,3.5,3.5,3.5
		c1.7,0,3.2-1.2,3.2-3.5V85.1z"/>
	<path d="M93,88.3v0.3c0,1.7,1.2,3.2,3.2,3.2c1.7,0,2.6-0.9,2.9-1.7h5.2c-0.6,3.5-4.1,5.8-8.1,5.8c-5.2,0-8.7-2.9-8.7-8.1v-2.3
		c0-5.2,3.2-8.4,8.7-8.4c5.5,0,8.4,3.8,8.4,8.1v3.5L93,88.3L93,88.3z M93,84.8h6.1v-0.6c0-1.7-0.9-3.2-2.9-3.2c-2,0-2.9,1.4-2.9,3.5
		L93,84.8L93,84.8z"/>
	<path d="M108.9,95.5V81.9h-2v-4.6h2v-1.2c0-4.1,1.4-5.8,5.8-5.8h3.5v4.6h-2c-1.2,0-1.4,0.6-1.4,1.4v1.2h3.2v4.6h-3.2v13.6
		L108.9,95.5L108.9,95.5z"/>
	<path d="M137.6,94.9c0,4.1-3.8,6.9-9,6.9c-4.3,0-8.1-2.3-8.7-5.8h5.8c0.6,0.9,1.7,1.4,3.2,1.4c2,0,3.2-1.2,3.2-2.9v-2
		c-0.9,1.2-2.6,2-4.6,2c-4.9,0-7.5-3.8-7.5-7.5v-2.6c0-4.1,2.6-7.5,7.5-7.5c2.6,0,4.3,1.4,4.9,2.3v-2h5.5v17.7H137.6z M128.6,81.6
		c-2.3,0-3.2,1.4-3.2,3.2v1.7c0,2,1.2,3.2,3.2,3.2c2,0,3.2-1.2,3.2-3.2v-2C131.8,82.5,130.4,81.6,128.6,81.6z"/>
	<path d="M141.9,95.5V70h5.8v9c0.9-1.4,2.6-2.3,4.9-2.3c4.1,0,6.4,2.6,6.4,6.9v11.9h-5.8V84.8c0-1.7-0.9-2.6-2.6-2.6
		c-1.4,0-2.6,0.6-2.6,2.9v10.7L141.9,95.5L141.9,95.5z"/>
	<path d="M165.9,69.4c2,0,3.2,1.2,3.2,2.9c0,1.7-1.2,2.9-3.2,2.9c-2,0-3.2-1.2-3.2-2.9C162.8,70.6,164.2,69.4,165.9,69.4z
		 M163.1,95.5V77.3h5.8v18.2H163.1z"/>
	<path d="M179.3,77.3v19.7c0,3.2-1.7,4.6-4.9,4.6h-2.9v-4.3h1.2c0.6,0,0.9-0.3,0.9-0.9V77.5h5.8V77.3z M176.4,69.4
		c2,0,3.2,1.2,3.2,2.9c0,1.7-1.2,2.9-3.2,2.9s-3.2-1.2-3.2-2.9C173.2,70.6,174.3,69.4,176.4,69.4z"/>
	<path d="M183.6,95.5V70h5.8v15.6l4.6-8.4h6.4l-5.2,9l5.5,9.3h-6.4l-4.9-8.7v8.7C189.4,95.5,183.6,95.5,183.6,95.5z"/>
	<path d="M203.6,95.5V70h5.8v25.5H203.6z"/>
	<path d="M230.8,84.5v10.7H225V84.5c0-1.7-0.9-2.6-2.6-2.6c-1.4,0-2.6,0.9-2.6,2.9v10.7H214V77.3h5.5v2c0.6-1.4,2.6-2.6,4.9-2.6
		c2.6,0,4.3,0.9,5.2,2.6c1.4-1.7,3.2-2.6,5.8-2.6c4.1,0,6.4,2.6,6.4,6.9v11.9H236V84.8c0-1.7-0.9-2.6-2.6-2.6
		C231.9,81.9,230.8,82.8,230.8,84.5z"/>
	<path d="M245.8,95.5V77.3h5.5v2c0.9-1.7,2.6-2.6,5.2-2.6c4.1,0,6.4,2.6,6.4,6.9v11.9h-5.8V84.8c0-1.7-0.9-2.6-2.6-2.6
		c-1.4,0-2.6,0.6-2.6,2.9v10.7C251.6,95.5,245.8,95.5,245.8,95.5z"/>
	<path d="M283.7,87.4c0,4.9-3.2,8.4-9,8.4s-9-3.5-9-8.4v-2.3c0-4.9,3.2-8.4,9-8.4s9,3.5,9,8.4V87.4z M274.7,81.3
		c-2.3,0-3.2,1.4-3.2,3.5V88c0,1.7,0.9,3.5,3.2,3.5s3.2-1.4,3.2-3.5v-3.2C278.2,83,277.1,81.3,274.7,81.3z"/>
	<path d="M287.2,77.3h5.5v2c0.6-0.9,2.6-2.3,4.9-2.3c5.2,0,7.8,3.8,7.8,8.1V88c0,4.1-2.6,8.1-7.8,8.1c-2.3,0-4.1-0.9-4.6-2v7.5h-5.8
		V77.3z M293,87.7c0,2.3,1.4,3.5,3.2,3.5c2.3,0,3.5-1.4,3.5-3.5v-2.3c0-2-1.2-3.5-3.5-3.5c-1.7,0-3.2,1.2-3.2,3.5V87.7z"/>
	<path d="M326.3,101.3h-5.8v-7.5c-0.9,0.9-2.6,2-4.6,2c-5.2,0-7.8-3.8-7.8-8.1v-2.9c0-4.1,2.6-8.1,7.8-8.1c2.6,0,4.3,1.4,4.9,2.3v-2
		h5.5V101.3z M320.5,85.1c0-2.3-1.4-3.5-3.2-3.5c-2.3,0-3.5,1.4-3.5,3.5v2.3c0,2,1.2,3.5,3.5,3.5c1.7,0,3.2-1.2,3.2-3.5V85.1z"/>
	<path d="M341.3,82.8h-0.9c-2.6,0-4.1,1.2-4.1,4.3v8.4h-5.8V77.3h5.5v3.2c0.6-2.6,2.3-3.2,4.9-3.2h0.3
		C341.3,77,341.3,82.8,341.3,82.8z"/>
	<path d="M351.4,95.8c-4.9,0-8.1-2-8.1-5.8v-0.3h5.2V90c0,1.2,1.2,2,2.9,2c1.4,0,2.6-0.6,2.6-1.7c0-0.6-0.3-1.2-1.2-1.2L348,88
		c-2.9-0.6-4.3-2.3-4.3-4.9c0-4.1,3.2-6.1,7.5-6.1s7.5,2.3,7.5,5.8V83h-4.9v-0.3c0-1.2-0.6-1.7-2.3-1.7c-1.4,0-2.3,0.6-2.3,1.4
		c0,0.6,0.3,1.2,1.2,1.2l5.2,1.2c2.6,0.6,4.1,2,4.1,4.6C359.5,93.2,356.3,95.8,351.4,95.8z"/>
	<path d="M369.1,72.3v4.9h3.5v4.6h-3.5v7.8c0,0.9,0.3,1.2,1.4,1.2h2v4.6h-3.8c-3.5,0-5.2-2-5.2-5.5v-8.4h-2.3V77h2.3v-4.9
		L369.1,72.3L369.1,72.3z"/>
	<path d="M392.5,77.3v18.2H387v-2c-0.9,1.7-2.6,2.6-5.2,2.6c-4.1,0-6.1-2.6-6.1-6.9V77.3h5.8v11c0,1.7,0.9,2.6,2.6,2.6
		c1.4,0,2.6-0.6,2.6-2.9V77L392.5,77.3L392.5,77.3z"/>
	<path d="M400.9,95.5l-6.1-18.2h5.8l3.2,12.2l3.2-12.2h5.8l-6.1,18.2H400.9z"/>
	<path d="M433,88.3l2-11h5.8l-4.6,18.2H431l-3.5-11l-3.5,11h-5.2l-4.6-18.2h5.8l2,11l3.2-11h4.9L433,88.3z"/>
	<path d="M453.6,86.2l6.4,9.3h-6.1l-3.2-4.9l-3.2,4.9h-6.1l6.4-9.3l-6.1-9h5.8l3.2,4.6l3.2-4.6h5.8L453.6,86.2z"/>
	<path d="M465.1,101.3l1.7-6.1L460.2,77h5.8l3.5,12.2l2.9-12.2h5.8l-7.5,24.3H465.1z"/>
	<path d="M480.2,95.5v-4.1l8.1-9.8h-7.5v-4.3h14.5v4.1l-8.1,9.8h8.4v4.3H480.2z"/>
</g>
<g class="st0">
	<path d="M7.7,166.1v-18.2l-5.2,1.7v-5.5l6.4-2.3h4.9v24.3C13.7,166.1,7.7,166.1,7.7,166.1z"/>
	<path d="M18.4,149.6v-0.9c0-4.9,3.2-7.5,8.4-7.5c5.2,0,8.7,2.9,8.7,7.5c0,3.8-2.6,6.1-5.2,8.4l-4.9,4.3h9.8v4.9H17.8v-4.9l9.5-9.3
		c1.2-1.2,2-2.3,2-3.8c0-1.7-1.2-2.6-2.9-2.6c-2,0-2.9,1.2-2.9,3.2v0.6L18.4,149.6L18.4,149.6z"/>
	<path d="M40.1,141.8H56v4.6l-5.5,4.9c3.5,0.6,6.4,2.6,6.4,7.2s-4.1,7.8-9.3,7.8c-4.9,0-9-2.6-9-7.8h5.5c0,2,1.4,3.2,3.5,3.2
		c2,0,3.5-1.4,3.5-2.9c0-1.7-1.2-2.9-3.5-2.9h-3.8v-4.6l4.6-4.9h-8.7L40.1,141.8L40.1,141.8z"/>
	<path d="M72.8,141.8l-6.7,15H71v-4.9h5.5v4.9h2.9v4.3h-2.9v4.9H71v-4.9H60.3v-4.3l7.2-15.3L72.8,141.8L72.8,141.8z"/>
	<path d="M91,166.4c-4.3,0-8.4-2.3-9-7.2h5.5c0.3,1.4,1.4,2.3,3.5,2.3c2.3,0,3.8-1.7,3.8-3.8c0-2-1.4-3.8-3.8-3.8
		c-1.7,0-2.9,0.6-3.2,1.7h-5.5l2.3-14.5h13.6v4.6h-9l-0.9,4.3c0.9-0.9,2.3-1.2,4.1-1.2c4.3,0,7.8,2.9,7.8,8.1
		C100.6,162.6,96.5,166.4,91,166.4z"/>
	<path d="M117.9,141.8l-6.4,8.7c0.9-0.6,1.7-0.9,2.9-0.9c4.1,0,7.5,2.9,7.5,8.1c0,4.9-4.1,8.7-9.3,8.7c-5.8,0-9.5-3.5-9.5-8.7
		c0-2.9,0.9-5.2,2.3-7.5l6.1-8.7h6.4V141.8z M109.2,158c0,2.3,1.2,3.8,3.8,3.8c2.3,0,3.8-1.7,3.8-3.8c0-2.3-1.2-3.8-3.8-3.8
		C110.4,154.2,109.2,155.7,109.2,158z"/>
	<path d="M141.1,145.8l-9.8,20h-6.1l9.5-19.4H124v-4.9h16.8C141.1,141.8,141.1,145.8,141.1,145.8z"/>
	<path d="M143.1,159.1c0-3.5,2-4.9,3.8-5.8c-1.7-1.2-2.9-2.6-2.9-5.2c0-4.3,3.5-6.9,8.1-6.9c4.6,0,8.1,2.3,8.1,6.9
		c0,2.6-1.2,4.3-2.9,5.2c1.7,0.6,3.8,2.3,3.8,5.8c0,4.6-3.5,7.5-9.3,7.5C146.6,166.4,143.1,163.5,143.1,159.1z M155.8,158.9
		c0-2-1.4-3.2-3.5-3.2c-2,0-3.5,1.2-3.5,3.2c0,2,1.4,2.9,3.5,2.9C154.4,161.8,155.8,160.9,155.8,158.9z M155,148.4
		c0-1.7-0.9-2.9-2.6-2.9c-1.7,0-2.6,1.2-2.6,2.9c0,1.7,0.9,2.9,2.6,2.9C154.1,151.3,155,150.2,155,148.4z"/>
	<path d="M168.3,166.1l6.4-8.7c-0.9,0.6-1.4,0.9-2.9,0.9c-4.1,0-7.5-2.9-7.5-8.1c0-5.2,3.8-8.7,9.3-8.7c5.8,0,9.5,3.5,9.5,8.7
		c0,3.2-0.9,5.5-2,7.2l-6.4,9L168.3,166.1L168.3,166.1z M177.2,149.6c0-2.3-1.2-3.8-3.8-3.8c-2.3,0-3.8,1.4-3.8,3.8s1.2,3.8,3.8,3.8
		C176.1,153.7,177.2,151.9,177.2,149.6z"/>
	<path d="M190.3,159.7c2,0,3.2,1.4,3.2,3.2s-1.4,3.2-3.2,3.2s-3.2-1.4-3.2-3.2C186.8,161.2,188.2,159.7,190.3,159.7z M191.7,158.3
		h-3.5l-1.4-7.2v-9.3h6.1v9.3L191.7,158.3z"/>
	<path d="M209.1,165.5v4.1h-5.8v-4.1c-3.8-0.9-6.1-3.5-6.1-7.2v-0.6h5.5v0.6c0,2,1.2,2.9,3.2,2.9c1.7,0,3.2-0.9,3.2-2.6
		c0-1.2-0.6-1.7-1.7-2.3l-4.3-1.4c-3.8-1.2-5.8-2.6-5.8-6.4c0-3.8,2.3-6.1,5.8-6.7v-4.1h5.8v4.1c3.2,0.9,5.5,3.2,5.5,6.7v0.6h-5.5
		v-0.6c0-1.7-0.9-2.6-2.9-2.6c-1.7,0-2.6,0.6-2.6,2c0,1.2,0.9,1.4,1.7,1.7l4.1,1.4c3.2,1.2,6.1,2.6,6.1,6.9
		C214.9,162,212.5,164.6,209.1,165.5z"/>
	<path d="M229.6,149.6c0,3.2-2.3,5.5-6.1,5.5s-6.1-2.3-6.1-5.5V147c0-3.2,2.3-5.5,6.1-5.5s6.1,2.3,6.1,5.5V149.6z M225.6,146.4
		c0-1.2-0.6-1.7-1.7-1.7s-1.7,0.6-1.7,1.7v3.5c0,1.2,0.6,1.7,1.7,1.7s1.7-0.6,1.7-1.7V146.4z M236.3,141.8h4.1l-12.4,24.3h-4.1
		L236.3,141.8z M246.7,160.9c0,3.2-2.3,5.5-6.1,5.5s-6.1-2.3-6.1-5.5v-2.6c0-3.2,2.3-5.5,6.1-5.5c3.8,0,6.1,2.3,6.1,5.5V160.9z
		 M242.6,157.7c0-1.2-0.6-1.7-1.7-1.7c-1.2,0-1.7,0.6-1.7,1.7v3.5c0,1.2,0.6,1.7,1.7,1.7c1.2,0,1.7-0.6,1.7-1.7V157.7z"/>
	<path d="M268.4,166.4l-2.3-2.3c-1.7,1.4-4.1,2.3-6.9,2.3c-5.5,0-9.8-2.9-9.8-7.8c0-3.8,2-5.5,4.3-6.7c-1.2-1.4-2-2.6-2-4.6
		c0-3.8,3.2-6.1,7.5-6.1c4.3,0,7.2,2.6,7.2,6.1v1.2h-5.2v-1.2c0-1.4-0.6-2.3-2.3-2.3c-1.4,0-2.3,0.9-2.3,2c0,0.9,0.6,1.4,1.2,2.3
		l7.2,6.9v-2.9h4.3v2.9c0,1.4-0.3,2.6-0.6,3.8l2.9,2.9L268.4,166.4z M263.2,161.5l-6.9-6.7c-0.9,0.9-2,2-2,3.8c0,2.3,2,4.1,4.9,4.1
		C260.9,162.6,262.3,162,263.2,161.5z"/>
	<path d="M273.6,143.8l3.8,2v-4.1h2.3v4.1l3.5-2l1.2,2l-3.8,2l3.8,2l-1.2,2l-3.5-2v4.1h-2.3v-4.1l-3.8,2l-1.2-2l3.5-2l-3.5-2
		L273.6,143.8z"/>
	<path d="M297.6,138.9c-2.6,6.1-3.8,10.7-3.8,15.9c0,5.2,1.4,9.8,3.8,15.9h-5.5c-2.6-5.2-4.3-10.4-4.3-15.9c0-5.5,1.4-10.7,4.3-15.9
		H297.6z"/>
	<path d="M304,138.9c2.6,5.2,4.3,10.4,4.3,15.9c0,5.5-1.4,10.7-4.3,15.9h-5.5c2.6-6.1,3.8-10.7,3.8-15.9c0-5.2-1.4-9.8-3.8-15.9
		C298.2,138.9,304,138.9,304,138.9z"/>
</g>
</svg>
