<?xml version="1.0" encoding="utf-8"?>
<!-- Generator: Adobe Illustrator 16.0.4, SVG Export Plug-In . SVG Version: 6.00 Build 0)  -->
<!DOCTYPE svg PUBLIC "-//W3C//DTD SVG 1.1//EN" "http://www.w3.org/Graphics/SVG/1.1/DTD/svg11.dtd">
<svg version="1.1" id="Layer_1" xmlns="http://www.w3.org/2000/svg" xmlns:xlink="http://www.w3.org/1999/xlink" x="0px" y="0px"
	 width="422.5px" height="114.5px" viewBox="0 0 422.5 114.5" enable-background="new 0 0 422.5 114.5" xml:space="preserve">
<g>
	<path d="M14.242,17.689h-2.918l-0.986-3.086H4.627L3.64,17.689H0.721L5.991,2.992h2.981L14.242,17.689z M5.361,12.272h4.221
		l-2.1-6.635L5.361,12.272z"/>
	<path d="M18.502,2.992h6.592c2.583,0,4.199,1.512,4.199,3.716c0,1.68-0.818,2.792-1.848,3.38c1.512,0.315,2.73,1.47,2.73,3.464
		c0,2.457-2.037,4.136-4.977,4.136h-6.697V2.992z M24.443,9.081c1.238,0,1.91-0.819,1.91-1.953c0-1.113-0.713-1.827-1.932-1.827
		h-3.064v3.779H24.443z M25.053,15.38c1.406,0,2.184-0.777,2.184-2.016c0-1.218-0.819-1.995-2.205-1.995h-3.674v4.01H25.053z"/>
	<path d="M34.239,11.391v-2.1c0-3.758,1.995-6.593,6.425-6.593c3.717,0,6.005,2.52,6.152,5.522h-2.73
		c-0.188-1.659-1.238-3.107-3.422-3.107c-2.457,0-3.506,1.68-3.506,4.031v2.394c0,2.352,1.049,4.031,3.506,4.031
		c2.184,0,3.233-1.449,3.422-3.107h2.73c-0.147,3.002-2.436,5.522-6.152,5.522C36.234,17.983,34.239,15.149,34.239,11.391z"/>
	<path d="M57.412,2.992c3.947,0,6.026,2.436,6.026,5.774v3.149c0,3.338-2.079,5.774-6.026,5.774h-5.963V2.992H57.412z M60.52,8.745
		c0-2.142-1.238-3.359-3.611-3.359h-2.54v9.91h2.54c2.373,0,3.611-1.218,3.611-3.359V8.745z"/>
	<path d="M68.289,2.992h10.289v2.436h-7.35v3.59h6.719v2.457h-6.719v3.779h7.37v2.436h-10.31V2.992z"/>
	<path d="M83.396,2.992h10.058v2.436h-7.118v3.884h6.488v2.436h-6.488v5.942h-2.939V2.992z"/>
	<path d="M107.012,7.989c-0.062-1.533-1.176-2.876-3.275-2.876c-2.393,0-3.527,1.575-3.527,4.031v2.31
		c0,2.457,1.008,4.178,3.549,4.178c2.142,0,3.317-1.323,3.317-2.939v-0.21h-3.296v-2.394h6.172V12c0,3.527-2.456,5.984-6.235,5.984
		c-4.367,0-6.425-2.939-6.425-6.593V9.249c0-3.947,2.352-6.551,6.361-6.551c3.801,0,6.068,2.247,6.152,5.291H107.012z"/>
	<path d="M114.75,2.992h2.939v6.026h6.025V2.992h2.939v14.697h-2.939v-6.068h-6.025v6.068h-2.939V2.992z"/>
	<path d="M131.993,2.992h2.939v14.697h-2.939V2.992z"/>
	<path d="M139.345,13.385v-0.21h2.792v0.189c0,1.344,0.861,2.184,2.395,2.184c1.553,0,2.33-0.882,2.33-2.184V2.992h2.939v10.372
		c0,2.729-2.142,4.619-5.27,4.619C141.318,17.983,139.345,16.199,139.345,13.385z"/>
	<path d="M155.031,2.992h2.939v7.055l5.187-7.055h3.423l-5.522,7.286l5.69,7.412h-3.465l-5.312-7.202v7.202h-2.939V2.992z"/>
	<path d="M170.934,2.992h2.939v12.262h6.762v2.436h-9.701V2.992z"/>
	<path d="M198.801,17.689h-2.814V8.661l-2.75,5.459h-2.604l-2.75-5.459v9.028h-2.814V2.992h2.709l4.157,8.398l4.157-8.398h2.709
		V17.689z"/>
	<path d="M204.1,2.992h2.792l6.403,9.784V2.992h2.877v14.697h-2.793l-6.403-9.784v9.784H204.1V2.992z"/>
	<path d="M234.105,11.412c0,3.737-2.226,6.572-6.551,6.572c-4.305,0-6.551-2.834-6.551-6.572V9.27c0-3.737,2.246-6.572,6.551-6.572
		c4.325,0,6.551,2.834,6.551,6.572V11.412z M231.166,11.559V9.123c0-2.331-1.154-3.989-3.611-3.989s-3.611,1.659-3.611,3.989v2.436
		c0,2.331,1.154,3.989,3.611,3.989S231.166,13.889,231.166,11.559z"/>
	<path d="M238.938,2.992h6.11c3.38,0,5.459,1.995,5.459,4.934s-2.163,5.018-5.459,5.018h-3.171v4.745h-2.939V2.992z M244.859,10.53
		c1.868,0,2.708-1.155,2.708-2.604s-0.84-2.52-2.708-2.52h-2.982v5.123H244.859z"/>
	<path d="M267.65,11.412c0,2.121-0.714,3.947-2.1,5.123l1.092,1.637l-2.058,1.344l-1.196-1.826
		c-0.693,0.189-1.449,0.294-2.289,0.294c-4.305,0-6.551-2.834-6.551-6.572V9.27c0-3.737,2.246-6.572,6.551-6.572
		c4.325,0,6.551,2.834,6.551,6.572V11.412z M261.939,15.485l-1.154-1.785l2.036-1.26l1.176,1.764
		c0.483-0.672,0.714-1.596,0.714-2.646V9.123c0-2.331-1.154-3.989-3.611-3.989s-3.611,1.659-3.611,3.989v2.436
		c0,2.331,1.154,3.989,3.611,3.989C261.394,15.548,261.688,15.527,261.939,15.485z"/>
	<path d="M278.538,12.986h-3.087v4.703h-2.939V2.992h6.635c3.465,0,5.312,2.142,5.312,4.997c0,2.079-1.092,3.758-2.897,4.535
		l3.065,5.165h-3.401L278.538,12.986z M278.79,10.614c1.806,0,2.729-1.113,2.729-2.646c0-1.575-0.945-2.583-2.729-2.583h-3.339
		v5.228H278.79z"/>
	<path d="M288.676,13.427v-0.378h2.814v0.315c0,1.365,1.07,2.352,3.044,2.352c1.743,0,2.876-0.777,2.876-2.142
		c0-0.819-0.398-1.407-1.385-1.659l-3.843-0.987c-2.226-0.567-3.275-1.596-3.275-3.8c0-2.771,2.1-4.43,5.396-4.43
		c3.255,0,5.312,1.806,5.312,4.388v0.357h-2.709V7.149c0-1.239-0.797-2.184-2.604-2.184c-1.553,0-2.561,0.63-2.561,1.911
		c0,0.861,0.44,1.344,1.26,1.554l4.031,1.071c2.162,0.567,3.212,1.848,3.212,3.842c0,2.792-2.499,4.64-5.815,4.64
		C290.965,17.983,288.676,16.304,288.676,13.427z"/>
	<path d="M307.977,5.428h-4.157V2.992h11.254v2.436h-4.157v12.262h-2.939V5.428z"/>
	<path d="M319.302,12.398V2.992h2.919v9.532c0,1.911,1.238,3.023,3.128,3.023s3.107-1.113,3.107-3.023V2.992h2.939v9.406
		c0,3.317-2.247,5.585-6.047,5.585S319.302,15.716,319.302,12.398z"/>
	<path d="M343.782,17.689h-3.317l-4.871-14.697h3.002l3.527,11.485l3.527-11.485h3.003L343.782,17.689z"/>
	<path d="M366.422,13.616l2.12-10.624h2.897l-3.465,14.697h-2.834l-3.213-11.317l-3.212,11.317h-2.835l-3.464-14.697h2.897
		l2.121,10.624L360.5,2.992h2.855L366.422,13.616z"/>
	<path d="M387.967,17.689h-3.086l-3.297-5.144l-3.297,5.144h-3.086l4.871-7.496l-4.661-7.202h3.023l3.149,4.892l3.149-4.892h3.023
		l-4.661,7.202L387.967,17.689z"/>
	<path d="M399.457,17.689h-2.939v-5.291l-5.039-9.406h3.191l3.317,6.551l3.317-6.551h3.191l-5.039,9.406V17.689z"/>
	<path d="M408.213,15.254l7.37-9.826h-7.055V2.992h10.351v2.436l-7.369,9.826h7.559v2.436h-10.855V15.254z"/>
	<path d="M1.184,60.4c0-2.373,1.784-3.465,4.408-3.465c1.303,0,2.268,0.504,2.771,0.924v-1.49c0-1.008-0.713-1.764-1.889-1.764
		c-0.987,0-1.596,0.441-1.891,1.029H1.939c0.629-2.121,2.33-3.255,4.682-3.255c2.729,0,4.598,1.659,4.598,4.199v6.971h-2.75v-1.008
		c-0.504,0.735-1.89,1.26-3.149,1.26C2.863,63.802,1.184,62.521,1.184,60.4z M8.363,60.295c0-0.965-0.944-1.532-2.225-1.532
		c-1.344,0-2.184,0.546-2.184,1.554s0.902,1.596,2.1,1.596C7.314,61.912,8.363,61.219,8.363,60.295z"/>
	<path d="M18.621,62.248v1.302h-2.73V48.223h2.855v5.627c0.588-0.818,1.68-1.47,3.129-1.47c2.939,0,4.577,2.184,4.577,4.808v1.807
		c0,2.582-1.659,4.808-4.599,4.808C20.279,63.802,19.125,63.13,18.621,62.248z M23.597,58.867v-1.553
		c0-1.533-0.84-2.625-2.456-2.625c-1.303,0-2.395,0.924-2.395,2.582v1.596c0,1.533,0.967,2.625,2.415,2.625
		C22.82,61.492,23.597,60.316,23.597,58.867z"/>
	<path d="M30.352,58.867v-1.553c0-2.855,1.869-4.935,5.165-4.935c2.919,0,4.892,1.827,4.976,4.325h-2.604
		c-0.125-1.07-0.797-2.016-2.309-2.016c-1.617,0-2.373,1.05-2.373,2.52v1.764c0,1.47,0.756,2.52,2.373,2.52
		c1.512,0,2.184-0.945,2.309-2.016h2.604c-0.084,2.498-2.057,4.325-4.976,4.325C32.221,63.802,30.352,61.723,30.352,58.867z"/>
	<path d="M44.382,58.994v-1.807c0-2.624,1.638-4.808,4.577-4.808c1.449,0,2.52,0.608,3.129,1.428v-5.585h2.855V63.55h-2.73v-1.302
		c-0.545,0.84-1.658,1.554-3.232,1.554C46.041,63.802,44.382,61.576,44.382,58.994z M52.088,58.867v-1.596
		c0-1.658-1.092-2.582-2.395-2.582c-1.616,0-2.456,1.092-2.456,2.625v1.553c0,1.449,0.776,2.625,2.436,2.625
		C51.121,61.492,52.088,60.4,52.088,58.867z"/>
	<path d="M59.275,58.931v-1.491c0-2.96,1.764-5.06,5.039-5.06c3.233,0,4.871,2.163,4.871,4.787v1.911h-7.139v0.272
		c0,1.28,0.65,2.394,2.31,2.394c1.218,0,1.974-0.63,2.247-1.386h2.498c-0.378,1.995-2.33,3.443-4.745,3.443
		C61.27,63.802,59.275,61.996,59.275,58.931z M62.047,57.062h4.514v-0.273c0-1.365-0.713-2.394-2.246-2.394
		c-1.638,0-2.268,1.092-2.268,2.562V57.062z"/>
	<path d="M74.156,54.941H72.77v-2.31h1.387v-1.008c0-2.394,1.133-3.401,3.38-3.401h1.89v2.268h-1.238
		c-0.819,0-1.176,0.252-1.176,1.113v1.028h2.204v2.31h-2.204v8.608h-2.855V54.941z"/>
	<path d="M82.883,64.201h2.771c0.378,0.756,1.238,1.092,2.352,1.092c1.449,0,2.373-0.799,2.373-2.016v-1.723
		c-0.463,0.756-1.723,1.491-3.129,1.491c-2.939,0-4.493-2.142-4.493-4.535v-1.596c0-2.436,1.532-4.535,4.515-4.535
		c1.68,0,2.855,0.84,3.232,1.575v-1.323h2.73v10.687c0,2.331-2.184,4.137-5.229,4.137C85.444,67.455,83.324,66.258,82.883,64.201z
		 M90.379,58.363v-1.26c0-1.469-1.008-2.436-2.373-2.436c-1.596,0-2.414,0.945-2.414,2.436v1.26c0,1.387,0.776,2.395,2.33,2.395
		C89.266,60.758,90.379,59.896,90.379,58.363z"/>
	<path d="M97.984,48.223h2.855v5.711c0.566-0.945,1.68-1.554,3.086-1.554c2.373,0,3.863,1.596,3.863,4.179v6.991h-2.855v-6.53
		c0-1.26-0.609-2.162-1.994-2.162c-1.281,0-2.1,0.756-2.1,2.226v6.467h-2.855V48.223z"/>
	<path d="M113.883,48.117c0.966,0,1.658,0.715,1.658,1.659s-0.692,1.659-1.658,1.659s-1.658-0.715-1.658-1.659
		S112.917,48.117,113.883,48.117z M112.455,52.632h2.855V63.55h-2.855V52.632z"/>
	<path d="M118.652,64.998h0.65c0.588,0,0.84-0.188,0.84-0.713V52.632h2.855v11.905c0,1.7-0.902,2.666-2.834,2.666h-1.512V64.998z
		 M121.57,48.117c0.966,0,1.658,0.715,1.658,1.659s-0.692,1.659-1.658,1.659s-1.658-0.715-1.658-1.659S120.604,48.117,121.57,48.117
		z"/>
	<path d="M127.768,48.223h2.855v9.49l3.464-5.081h3.255l-3.759,5.333l3.884,5.585h-3.254l-3.59-5.333v5.333h-2.855V48.223z"/>
	<path d="M141.325,48.223h2.855V63.55h-2.855V48.223z"/>
	<path d="M148.938,52.632h2.729v1.302c0.547-1.008,1.596-1.554,3.15-1.554c1.406,0,2.498,0.567,3.148,1.554
		c0.799-1.029,2.016-1.554,3.611-1.554c2.289,0,3.906,1.554,3.906,4.179v6.991h-2.855v-6.53c0-1.26-0.567-2.162-1.953-2.162
		c-1.26,0-2.037,0.756-2.037,2.226v6.467h-2.855v-6.53c0-1.26-0.566-2.162-1.952-2.162c-1.28,0-2.036,0.756-2.036,2.226v6.467
		h-2.855V52.632z"/>
	<path d="M170.188,52.632h2.729v1.302c0.547-1.008,1.659-1.554,3.213-1.554c2.373,0,3.863,1.554,3.863,4.179v6.991h-2.855v-6.53
		c0-1.26-0.609-2.162-1.994-2.162c-1.281,0-2.1,0.756-2.1,2.226v6.467h-2.855V52.632z"/>
	<path d="M184.213,58.867v-1.553c0-2.793,1.869-4.935,5.145-4.935s5.144,2.142,5.144,4.935v1.553c0,2.793-1.868,4.935-5.144,4.935
		S184.213,61.66,184.213,58.867z M191.729,57.125c0-1.428-0.756-2.498-2.372-2.498c-1.617,0-2.373,1.07-2.373,2.498v1.932
		c0,1.428,0.756,2.498,2.373,2.498c1.616,0,2.372-1.07,2.372-2.498V57.125z"/>
	<path d="M209.394,57.188v1.807c0,2.624-1.638,4.808-4.577,4.808c-1.449,0-2.562-0.588-3.129-1.428v4.829h-2.855V52.632h2.73v1.302
		c0.545-0.84,1.658-1.554,3.232-1.554C207.798,52.38,209.394,54.605,209.394,57.188z M201.688,57.314v1.596
		c0,1.658,1.092,2.582,2.395,2.582c1.616,0,2.456-1.092,2.456-2.625v-1.553c0-1.449-0.776-2.625-2.436-2.625
		C202.654,54.689,201.688,55.781,201.688,57.314z"/>
	<path d="M221.164,53.934v-1.302h2.73v14.571h-2.855v-4.809c-0.483,0.756-1.68,1.407-3.129,1.407c-2.939,0-4.577-2.184-4.577-4.808
		v-1.807c0-2.604,1.659-4.808,4.599-4.808C219.506,52.38,220.66,53.052,221.164,53.934z M216.188,57.314v1.553
		c0,1.533,0.84,2.625,2.456,2.625c1.303,0,2.395-0.924,2.395-2.582v-1.596c0-1.533-0.967-2.625-2.415-2.625
		C216.965,54.689,216.188,55.865,216.188,57.314z"/>
	<path d="M228.645,52.632h2.708v2.12c0.356-1.637,1.638-2.204,3.275-2.204h0.336v2.835h-0.588c-1.868,0-2.876,0.924-2.876,3.128
		v5.039h-2.855V52.632z"/>
	<path d="M238.578,60.316v-0.189h2.52v0.147c0,0.944,0.861,1.512,2.205,1.512c1.197,0,2.078-0.483,2.078-1.323
		c0-0.524-0.272-0.84-0.902-0.986l-3.233-0.734c-1.638-0.379-2.499-1.219-2.499-2.877c0-2.246,1.827-3.485,4.41-3.485
		c2.624,0,4.324,1.323,4.324,3.485v0.168h-2.498v-0.189c0-0.84-0.525-1.428-1.785-1.428c-1.154,0-1.784,0.42-1.784,1.197
		c0,0.546,0.272,0.798,0.84,0.924l3.317,0.818c1.617,0.399,2.436,1.26,2.436,2.793c0,2.121-2.016,3.653-4.725,3.653
		C240.51,63.802,238.578,62.646,238.578,60.316z"/>
	<path d="M252.902,60.442v-5.501h-1.553v-2.31h1.553V49.65h2.877v2.981h2.33v2.31h-2.33v5.291c0,0.714,0.273,1.008,1.029,1.008
		h1.154v2.31h-1.974C253.89,63.55,252.902,62.374,252.902,60.442z"/>
	<path d="M271.803,63.55h-2.729v-1.302c-0.504,0.924-1.764,1.554-3.171,1.554c-2.456,0-3.821-1.7-3.821-4.179v-6.991h2.855v6.593
		c0,1.386,0.65,2.184,1.932,2.184c1.322,0,2.078-0.84,2.078-2.205v-6.571h2.855V63.55z"/>
	<path d="M282.287,63.55h-2.981l-3.716-10.918h2.855l2.352,7.999l2.352-7.999h2.855L282.287,63.55z"/>
	<path d="M302.238,63.55h-2.667l-2.394-7.517l-2.394,7.517h-2.667l-2.834-10.918h2.771l1.596,7.327l2.226-7.327h2.604l2.226,7.327
		l1.596-7.327h2.771L302.238,63.55z"/>
	<path d="M318.92,63.55h-3.002l-2.268-3.401l-2.268,3.401h-3.002l3.82-5.543l-3.674-5.375h2.961l2.162,3.233l2.162-3.233h2.961
		l-3.674,5.375L318.92,63.55z"/>
	<path d="M324.822,67.203l1.092-3.695l-3.779-10.876h2.855l2.352,7.831l2.227-7.831h2.834l-4.766,14.571H324.822z"/>
	<path d="M335.832,61.492l5.396-6.656h-5.145v-2.204h8.441v2.058l-5.396,6.656h5.521v2.204h-8.818V61.492z"/>
	<path d="M3.892,97.651l-3.128,1.155v-2.562l3.632-1.532h2.394v14.697H3.892V97.651z"/>
	<path d="M11.423,107.205l5.983-5.879c0.799-0.799,1.365-1.533,1.365-2.562c0-1.238-0.902-1.973-2.142-1.973
		c-1.428,0-2.184,0.84-2.184,2.246v0.294h-2.751v-0.42c0-2.919,1.911-4.493,4.914-4.493c3.002,0,5.06,1.701,5.06,4.325
		c0,2.142-1.491,3.527-2.876,4.787l-3.822,3.507h6.614v2.372H11.423V107.205z"/>
	<path d="M26.702,94.712h9.238v2.331l-3.759,3.758c2.395,0.105,4.347,1.512,4.347,4.262c0,2.709-2.456,4.641-5.438,4.641
		c-2.834,0-5.228-1.574-5.291-4.598h2.688c0.105,1.385,1.113,2.268,2.625,2.268c1.574,0,2.562-1.008,2.562-2.247
		c0-1.302-0.903-2.12-2.54-2.12H28.97v-2.331l3.443-3.653h-5.711V94.712z"/>
	<path d="M47.494,106.26h-6.719v-2.142l4.431-9.406h2.624l-4.24,9.322h3.904v-3.044h2.667v3.044h1.868v2.226h-1.868v3.149h-2.667
		V106.26z"/>
	<path d="M56.217,105.504h2.75c0.252,1.092,1.155,1.848,2.52,1.848c1.723,0,2.771-1.154,2.771-2.729
		c0-1.491-1.028-2.667-2.688-2.667c-1.176,0-1.994,0.525-2.436,1.281h-2.666l1.386-8.524h7.874v2.31h-5.586l-0.608,3.527
		c0.63-0.588,1.616-0.924,2.771-0.924c2.729,0,4.787,1.91,4.787,4.913c0,2.876-2.31,5.165-5.606,5.165
		C58.904,109.703,56.595,108.297,56.217,105.504z"/>
	<path d="M79.668,94.712l-4.094,5.627c0.504-0.483,1.238-0.672,2.162-0.672c2.52,0,4.619,1.868,4.619,4.913
		c0,2.834-2.414,5.123-5.521,5.123c-3.422,0-5.501-2.184-5.501-5.145c0-1.952,0.672-3.254,1.554-4.514l3.695-5.333H79.668z
		 M76.855,107.414c1.596,0,2.666-1.26,2.666-2.792c0-1.596-0.966-2.751-2.646-2.751c-1.616,0-2.688,1.155-2.688,2.771
		C74.188,106.218,75.112,107.414,76.855,107.414z"/>
	<path d="M92.038,97.084h-6.635v-2.372h9.616v2.058l-6.089,12.64h-2.96L92.038,97.084z"/>
	<path d="M98.832,105.294c0-1.827,1.008-2.939,2.436-3.548c-1.092-0.588-1.848-1.659-1.848-3.255c0-2.604,2.1-4.073,4.85-4.073
		c2.751,0,4.851,1.47,4.851,4.073c0,1.596-0.756,2.667-1.848,3.255c1.428,0.608,2.436,1.721,2.436,3.548
		c0,2.624-2.226,4.409-5.438,4.409C101.058,109.703,98.832,107.918,98.832,105.294z M106.895,105.294c0-1.47-1.05-2.268-2.625-2.268
		c-1.574,0-2.624,0.798-2.624,2.268c0,1.448,1.05,2.204,2.624,2.204C105.845,107.498,106.895,106.742,106.895,105.294z
		 M104.27,100.801c1.281,0,2.1-0.882,2.1-2.1c0-1.302-0.776-2.1-2.1-2.1c-1.322,0-2.1,0.798-2.1,2.1
		C102.17,99.919,102.989,100.801,104.27,100.801z"/>
	<path d="M116.4,109.409l3.801-5.543c-0.357,0.356-1.197,0.588-1.932,0.588c-2.52,0-4.619-1.89-4.619-4.913
		c0-2.981,2.204-5.123,5.479-5.123c3.317,0,5.543,2.037,5.543,5.102c0,1.617-0.524,3.045-1.218,4.074l-3.905,5.815H116.4z
		 M119.15,96.707c-1.616,0-2.666,1.154-2.666,2.792c0,1.616,0.966,2.751,2.646,2.751s2.688-1.26,2.688-2.771
		C121.817,97.903,120.852,96.707,119.15,96.707z"/>
	<path d="M130.68,106.302c0.986,0,1.638,0.672,1.638,1.638s-0.651,1.638-1.638,1.638s-1.638-0.672-1.638-1.638
		S129.693,106.302,130.68,106.302z M129.189,100.527v-5.815h2.98v5.815l-0.692,4.641h-1.596L129.189,100.527z"/>
	<path d="M140.516,109.283c-2.372-0.42-3.779-1.974-3.779-4.241v-0.336h2.73v0.336c0,1.428,0.924,2.142,2.456,2.142
		c1.428,0,2.352-0.734,2.352-1.932c0-0.882-0.44-1.365-1.364-1.701l-2.793-1.008c-2.037-0.713-3.275-1.596-3.275-3.758
		c0-2.246,1.512-3.549,3.59-3.947v-2.436h2.814v2.457c2.078,0.44,3.443,1.826,3.443,3.968v0.44h-2.709v-0.377
		c0-1.197-0.777-1.911-2.205-1.911c-1.301,0-2.141,0.567-2.141,1.659c0,0.86,0.566,1.217,1.364,1.512l2.688,0.965
		c1.932,0.715,3.38,1.68,3.38,3.927c0,2.184-1.553,3.779-3.736,4.241v2.436h-2.814V109.283z"/>
	<path d="M157.908,99.499c0,1.952-1.303,3.296-3.443,3.296c-2.143,0-3.443-1.344-3.443-3.296v-1.7c0-1.953,1.301-3.297,3.443-3.297
		c2.141,0,3.443,1.344,3.443,3.297V99.499z M155.893,97.631c0-0.861-0.504-1.428-1.428-1.428s-1.428,0.566-1.428,1.428v2.036
		c0,0.86,0.504,1.428,1.428,1.428s1.428-0.567,1.428-1.428V97.631z M162.128,94.712h2.12l-7.559,14.697h-2.12L162.128,94.712z
		 M167.797,106.322c0,1.953-1.302,3.297-3.443,3.297s-3.443-1.344-3.443-3.297v-1.7c0-1.952,1.302-3.296,3.443-3.296
		s3.443,1.344,3.443,3.296V106.322z M165.781,104.454c0-0.86-0.504-1.428-1.428-1.428s-1.428,0.567-1.428,1.428v2.036
		c0,0.861,0.504,1.428,1.428,1.428s1.428-0.566,1.428-1.428V104.454z"/>
	<path d="M183.365,109.703l-1.471-1.449c-0.986,0.903-2.414,1.449-4.22,1.449c-3.401,0-5.711-1.806-5.711-4.682
		c0-2.205,1.196-3.381,2.604-4.115c-0.672-0.735-1.28-1.575-1.28-2.898c0-2.12,1.658-3.59,4.156-3.59
		c2.583,0,4.137,1.49,4.137,3.549v0.86h-2.373v-0.84c0-0.882-0.566-1.616-1.742-1.616c-1.029,0-1.742,0.566-1.742,1.574
		c0,0.693,0.482,1.218,1.028,1.742l4.64,4.641c0.021-0.21,0.021-0.398,0.021-0.609v-1.68h2.268v1.785
		c0,0.861-0.146,1.658-0.42,2.394l1.785,1.764L183.365,109.703z M180.426,106.764l-4.431-4.43c-0.819,0.566-1.512,1.364-1.512,2.666
		c0,1.722,1.448,2.709,3.317,2.709C178.955,107.709,179.838,107.373,180.426,106.764z"/>
	<path d="M187.535,99.688l2.268-1.301l-2.268-1.323l0.608-1.05l2.288,1.322v-2.624h1.197v2.624l2.268-1.322l0.609,1.05l-2.268,1.323
		l2.268,1.301l-0.609,1.051l-2.268-1.303v2.604h-1.197v-2.624l-2.288,1.323L187.535,99.688z"/>
	<path d="M204.176,92.99c-1.574,3.674-2.394,6.529-2.394,9.616s0.819,5.942,2.394,9.616h-2.75c-1.68-3.149-2.562-6.236-2.562-9.616
		s0.883-6.467,2.562-9.616H204.176z"/>
	<path d="M210.441,92.99c1.68,3.149,2.562,6.236,2.562,9.616s-0.882,6.467-2.562,9.616h-2.75c1.574-3.674,2.393-6.529,2.393-9.616
		s-0.818-5.942-2.393-9.616H210.441z"/>
</g>
</svg>
