<?xml version="1.0" encoding="utf-8"?>
<!-- Generator: Adobe Illustrator 16.0.4, SVG Export Plug-In . SVG Version: 6.00 Build 0)  -->
<!DOCTYPE svg PUBLIC "-//W3C//DTD SVG 1.1//EN" "http://www.w3.org/Graphics/SVG/1.1/DTD/svg11.dtd">
<svg version="1.1" id="Layer_1" xmlns="http://www.w3.org/2000/svg" xmlns:xlink="http://www.w3.org/1999/xlink" x="0px" y="0px"
	 width="460.001px" height="272.669px" viewBox="0 0 460.001 272.669" enable-background="new 0 0 460.001 272.669"
	 xml:space="preserve">
<path fill="#0D1A0D" d="M106.574,219.44v-0.007c0-29.43-23.859-53.286-53.288-53.286S0,190.003,0,219.433v0.007H106.574z"/>
<path fill="#4FCC73" d="M0,219.378v0.005c0,29.429,23.857,53.286,53.286,53.286s53.288-23.857,53.288-53.286v-0.005H0z"/>
<path fill="#260A36" d="M283.287,219.44v-0.007c0-29.43-23.856-53.286-53.287-53.286c-29.43,0-53.286,23.856-53.286,53.286v0.007
	H283.287z"/>
<path fill="#38B8BA" d="M176.714,219.378v0.005c0,29.429,23.856,53.286,53.286,53.286c29.431,0,53.287-23.857,53.287-53.286v-0.005
	H176.714z"/>
<path fill="#1C0342" d="M460.001,53.293v-0.007C460.001,23.858,436.144,0,406.715,0s-53.287,23.858-53.287,53.286v0.007H460.001z"/>
<path fill="#854DF2" d="M353.428,53.231v0.005c0,29.429,23.858,53.286,53.287,53.286s53.286-23.856,53.286-53.286v-0.005H353.428z"
	/>
<path fill="#300F00" d="M283.287,53.293v-0.007C283.287,23.858,259.431,0,230,0c-29.43,0-53.286,23.858-53.286,53.286v0.007H283.287
	z"/>
<path fill="#F57314" d="M176.714,53.231v0.005c0,29.429,23.856,53.286,53.287,53.286c29.43,0,53.286-23.856,53.286-53.286v-0.005
	H176.714z"/>
<path fill="#001F30" d="M106.574,53.293v-0.007C106.574,23.858,82.715,0,53.286,0S0,23.858,0,53.286v0.007H106.574z"/>
<path fill="#007AFF" d="M0,53.231v0.005c0,29.429,23.857,53.286,53.286,53.286s53.288-23.856,53.288-53.286v-0.005H0z"/>
</svg>
