<?xml version="1.0" encoding="utf-8"?>
<!-- Generator: Adobe Illustrator 16.0.4, SVG Export Plug-In . SVG Version: 6.00 Build 0)  -->
<!DOCTYPE svg PUBLIC "-//W3C//DTD SVG 1.1//EN" "http://www.w3.org/Graphics/SVG/1.1/DTD/svg11.dtd">
<svg version="1.1" id="Layer_1" xmlns="http://www.w3.org/2000/svg" xmlns:xlink="http://www.w3.org/1999/xlink" x="0px" y="0px"
	 width="273.094px" height="273.036px" viewBox="0 0 273.094 273.036" enable-background="new 0 0 273.094 273.036"
	 xml:space="preserve">
<path fill="#CC0A45" d="M273.094,136.563v-0.017C273.094,61.134,211.96,0,136.547,0C61.135,0,0,61.134,0,136.547
	c0,0.006,0,0.011,0,0.017H273.094z"/>
<path fill="#EBAD4B" d="M273.094,136.482H136.552v136.564c75.41-0.002,136.542-61.136,136.542-136.547
	C273.094,136.494,273.094,136.489,273.094,136.482"/>
<path fill="#1A0731" d="M136.579,273.036V136.494H0.015c0.002,75.41,61.136,136.542,136.547,136.542
	C136.567,273.036,136.573,273.036,136.579,273.036"/>
<g>
	<path fill="#FFFFFF" d="M107.789,57.994h2.033c1.085,0,1.743,0.726,1.743,1.651c0,0.925-0.658,1.659-1.743,1.659h-1.659v2.041
		h-0.375V57.994z M109.784,60.99c0.963,0,1.407-0.635,1.407-1.346s-0.443-1.337-1.407-1.337h-1.621v2.683H109.784z"/>
	<path fill="#FFFFFF" d="M112.421,62.19c0-0.757,0.65-1.2,1.56-1.2c0.604,0,1.108,0.298,1.323,0.581v-0.772
		c0-0.642-0.421-1.131-1.109-1.131c-0.573,0-0.956,0.275-1.139,0.719h-0.344c0.184-0.642,0.757-1.017,1.483-1.017
		c0.879,0,1.476,0.611,1.476,1.414v2.561h-0.352v-0.543c-0.207,0.329-0.749,0.635-1.399,0.635
		C113.017,63.437,112.421,62.917,112.421,62.19z M115.303,62.198c0-0.581-0.711-0.917-1.323-0.917c-0.688,0-1.208,0.306-1.208,0.917
		c0,0.588,0.474,0.956,1.17,0.956C114.592,63.154,115.303,62.825,115.303,62.198z"/>
	<path fill="#FFFFFF" d="M117.038,59.461h0.344v0.787c0.176-0.512,0.649-0.879,1.391-0.879c0.864,0,1.422,0.573,1.422,1.537v2.438
		h-0.367v-2.393c0-0.788-0.375-1.269-1.139-1.269c-0.704,0-1.284,0.489-1.284,1.399v2.263h-0.367V59.461z"/>
	<path fill="#FFFFFF" d="M122.871,63.345c-0.711,0-1.024-0.367-1.024-1.009v-2.576h-0.711v-0.298h0.711v-1.124h0.367v1.124h1.07
		v0.298h-1.07v2.576c0,0.497,0.184,0.711,0.711,0.711h0.344v0.298H122.871z"/>
	<path fill="#FFFFFF" d="M124.101,61.747v-0.688c0-0.948,0.619-1.689,1.674-1.689c1.055,0,1.674,0.741,1.674,1.689v0.688
		c0,0.948-0.619,1.689-1.674,1.689C124.72,63.437,124.101,62.695,124.101,61.747z M125.775,59.667c-0.849,0-1.323,0.604-1.323,1.407
		v0.658c0,0.802,0.474,1.406,1.323,1.406s1.322-0.604,1.322-1.406v-0.658C127.098,60.271,126.624,59.667,125.775,59.667z"/>
	<path fill="#FFFFFF" d="M128.703,59.461h0.344v0.787c0.176-0.512,0.649-0.879,1.391-0.879c0.864,0,1.422,0.573,1.422,1.537v2.438
		h-0.367v-2.393c0-0.788-0.375-1.269-1.139-1.269c-0.704,0-1.284,0.489-1.284,1.399v2.263h-0.367V59.461z"/>
	<path fill="#FFFFFF" d="M133.083,61.77v-0.673c0-1.04,0.604-1.728,1.651-1.728c1.04,0,1.605,0.764,1.605,1.674v0.52h-2.897v0.229
		c0,0.757,0.458,1.353,1.315,1.353c0.634,0,1.047-0.359,1.208-0.879h0.321c-0.153,0.688-0.742,1.17-1.529,1.17
		C133.725,63.437,133.083,62.764,133.083,61.77z M133.442,61.266h2.545v-0.237c0-0.764-0.42-1.368-1.253-1.368
		c-0.872,0-1.292,0.573-1.292,1.422V61.266z"/>
</g>
<g>
	<path fill="#FFFFFF" d="M139.879,59.063l-1.139,0.421v-0.933l1.323-0.558h0.872v5.351h-1.055V59.063z"/>
	<path fill="#FFFFFF" d="M142.982,63.345l1.384-2.018c-0.13,0.13-0.436,0.214-0.704,0.214c-0.917,0-1.682-0.688-1.682-1.789
		c0-1.086,0.803-1.866,1.995-1.866c1.208,0,2.018,0.742,2.018,1.858c0,0.588-0.191,1.108-0.443,1.483l-1.422,2.118H142.982z
		 M143.984,58.72c-0.589,0-0.971,0.42-0.971,1.017c0,0.589,0.352,1.001,0.963,1.001c0.612,0,0.979-0.458,0.979-1.009
		C144.955,59.155,144.603,58.72,143.984,58.72z"/>
	<path fill="#FFFFFF" d="M146.911,62.542l2.179-2.141c0.291-0.291,0.497-0.558,0.497-0.933c0-0.451-0.329-0.718-0.78-0.718
		c-0.52,0-0.795,0.306-0.795,0.818v0.107h-1.001v-0.153c0-1.062,0.695-1.636,1.789-1.636s1.842,0.62,1.842,1.575
		c0,0.78-0.542,1.284-1.047,1.743l-1.391,1.277h2.408v0.864h-3.7V62.542z"/>
	<path fill="#FFFFFF" d="M151.605,61.923h1.001c0.092,0.397,0.42,0.673,0.917,0.673c0.627,0,1.009-0.42,1.009-0.994
		c0-0.542-0.375-0.971-0.979-0.971c-0.428,0-0.726,0.191-0.887,0.466h-0.971l0.504-3.104h2.867v0.841h-2.034l-0.222,1.284
		c0.229-0.214,0.589-0.336,1.009-0.336c0.994,0,1.743,0.696,1.743,1.789c0,1.047-0.841,1.88-2.042,1.88
		C152.583,63.452,151.743,62.939,151.605,61.923z"/>
	<path fill="#FFFFFF" d="M158.179,61.418v-3.425h1.062v3.471c0,0.695,0.451,1.101,1.139,1.101s1.131-0.405,1.131-1.101v-3.471h1.07
		v3.425c0,1.208-0.818,2.033-2.202,2.033S158.179,62.626,158.179,61.418z"/>
</g>
<g>
	<path fill="#FFFFFF" d="M107.587,74.334v-0.882c0-1.198,0.672-2.108,1.975-2.108c1.107,0,1.807,0.756,1.891,1.66h-0.329
		c-0.098-0.742-0.624-1.373-1.569-1.373c-1.079,0-1.625,0.77-1.625,1.814v0.896c0,1.043,0.546,1.814,1.625,1.814
		c0.945,0,1.471-0.63,1.569-1.373h0.329c-0.084,0.904-0.784,1.66-1.891,1.66C108.259,76.443,107.587,75.532,107.587,74.334z"/>
</g>
<g>
	<path fill="#FFFFFF" d="M112.962,74.734v-1.681c0-1.001,0.722-1.708,1.849-1.708s1.849,0.707,1.849,1.708v1.681
		c0,1.001-0.722,1.709-1.849,1.709S112.962,75.735,112.962,74.734z M115.693,73.039c0-0.595-0.336-0.904-0.882-0.904
		s-0.882,0.309-0.882,0.904v1.709c0,0.595,0.336,0.903,0.882,0.903s0.882-0.308,0.882-0.903V73.039z"/>
</g>
<g>
	<path fill="#FFFFFF" d="M124.899,76.345h-0.322v-4.286l-1.541,3.046h-0.364l-1.541-3.046v4.286h-0.322v-4.903h0.343l1.702,3.369
		l1.702-3.369h0.343V76.345z"/>
</g>
<g>
	<path fill="#FFFFFF" d="M127.353,76.345l1.268-1.849c-0.119,0.119-0.399,0.196-0.644,0.196c-0.841,0-1.541-0.63-1.541-1.639
		c0-0.994,0.735-1.708,1.828-1.708c1.106,0,1.849,0.679,1.849,1.702c0,0.54-0.175,1.016-0.406,1.359l-1.303,1.94H127.353z
		 M128.271,72.107c-0.539,0-0.89,0.385-0.89,0.932c0,0.539,0.322,0.917,0.883,0.917c0.56,0,0.896-0.42,0.896-0.925
		C129.16,72.507,128.838,72.107,128.271,72.107z"/>
	<path fill="#FFFFFF" d="M133.044,75.294h-2.241V74.58l1.478-3.138h0.875l-1.415,3.11h1.302v-1.016h0.89v1.016h0.624v0.742h-0.624
		v1.051h-0.89V75.294z"/>
</g>
<g>
	<path fill="#FFFFFF" d="M140.105,76.345h-0.336v-1.898l-1.758-3.005h0.357l1.569,2.689l1.569-2.689h0.357l-1.758,3.005V76.345z"/>
</g>
<g>
	<path fill="#FFFFFF" d="M142.739,75.042h0.917c0.084,0.364,0.385,0.616,0.841,0.616c0.574,0,0.924-0.385,0.924-0.91
		c0-0.498-0.343-0.89-0.896-0.89c-0.392,0-0.666,0.175-0.812,0.427h-0.89l0.462-2.844h2.626v0.771h-1.863l-0.203,1.177
		c0.21-0.196,0.539-0.308,0.924-0.308c0.911,0,1.597,0.637,1.597,1.639c0,0.959-0.771,1.723-1.87,1.723
		C143.636,76.443,142.865,75.974,142.739,75.042z"/>
	<path fill="#FFFFFF" d="M148.004,72.423l-1.043,0.385v-0.854l1.211-0.511h0.798v4.903h-0.966V72.423z"/>
</g>
<g>
	<path fill="#FFFFFF" d="M153.308,71.442h0.343v2.402l2.444-2.402h0.434l-2.472,2.423l2.563,2.479h-0.441l-2.528-2.451v2.451h-0.343
		V71.442z"/>
</g>
<g>
	<path fill="#FFFFFF" d="M157.828,74.734v-1.681c0-1.001,0.722-1.708,1.849-1.708s1.849,0.707,1.849,1.708v1.681
		c0,1.001-0.722,1.709-1.849,1.709S157.828,75.735,157.828,74.734z M160.559,73.039c0-0.595-0.336-0.904-0.882-0.904
		s-0.882,0.309-0.882,0.904v1.709c0,0.595,0.336,0.903,0.882,0.903s0.882-0.308,0.882-0.903V73.039z"/>
</g>
<g>
	<path fill="#FFFFFF" d="M109.814,85.447h-0.154h-1.59v1.898h-0.343v-4.903h1.947c1.008,0,1.583,0.701,1.583,1.506
		c0,0.687-0.414,1.261-1.114,1.443l1.1,1.954h-0.378L109.814,85.447z M109.611,85.167c0.875,0,1.303-0.553,1.303-1.219
		c0-0.665-0.435-1.226-1.296-1.226h-1.548v2.444H109.611z"/>
</g>
<g>
	<path fill="#FFFFFF" d="M112.752,86.609l1.996-1.961c0.266-0.266,0.455-0.511,0.455-0.854c0-0.414-0.301-0.659-0.714-0.659
		c-0.476,0-0.729,0.28-0.729,0.75v0.098h-0.917v-0.14c0-0.974,0.638-1.499,1.639-1.499s1.688,0.567,1.688,1.442
		c0,0.714-0.498,1.177-0.959,1.597l-1.275,1.169h2.206v0.792h-3.39V86.609z"/>
	<path fill="#FFFFFF" d="M117.141,85.734v-1.681c0-1.001,0.722-1.708,1.849-1.708s1.849,0.707,1.849,1.708v1.681
		c0,1.001-0.722,1.709-1.849,1.709S117.141,86.735,117.141,85.734z M119.872,84.039c0-0.595-0.336-0.904-0.882-0.904
		s-0.882,0.309-0.882,0.904v1.709c0,0.595,0.336,0.903,0.882,0.903s0.882-0.308,0.882-0.903V84.039z"/>
	<path fill="#FFFFFF" d="M121.782,86.042h0.917c0.084,0.364,0.385,0.616,0.841,0.616c0.574,0,0.924-0.385,0.924-0.91
		c0-0.498-0.343-0.89-0.896-0.89c-0.392,0-0.666,0.175-0.812,0.427h-0.89l0.462-2.844h2.626v0.771h-1.863l-0.203,1.177
		c0.21-0.196,0.539-0.308,0.924-0.308c0.911,0,1.597,0.637,1.597,1.639c0,0.959-0.77,1.723-1.87,1.723
		C122.678,87.443,121.908,86.974,121.782,86.042z"/>
</g>
<g>
	<path fill="#FFFFFF" d="M129.377,85.286V84.48c0-1.239,0.672-2.136,1.961-2.136c1.169,0,1.856,0.735,1.905,1.681h-0.329
		c-0.042-0.763-0.595-1.394-1.569-1.394c-1.106,0-1.625,0.777-1.625,1.835v0.826c0,1.037,0.511,1.863,1.667,1.863
		c0.974,0,1.576-0.638,1.576-1.59v-0.217h-1.499v-0.287h1.828v0.476c0,1.1-0.714,1.905-1.905,1.905
		C130.036,87.443,129.377,86.469,129.377,85.286z"/>
</g>
<g>
	<path fill="#FFFFFF" d="M135.658,83.423l-1.043,0.385v-0.854l1.211-0.511h0.798v4.903h-0.966V83.423z"/>
	<path fill="#FFFFFF" d="M137.764,85.734v-1.681c0-1.001,0.722-1.708,1.849-1.708s1.849,0.707,1.849,1.708v1.681
		c0,1.001-0.722,1.709-1.849,1.709S137.764,86.735,137.764,85.734z M140.496,84.039c0-0.595-0.336-0.904-0.882-0.904
		s-0.882,0.309-0.882,0.904v1.709c0,0.595,0.336,0.903,0.882,0.903s0.882-0.308,0.882-0.903V84.039z"/>
</g>
<g>
	<path fill="#FFFFFF" d="M145.618,82.442h1.933c0.819,0,1.31,0.546,1.31,1.219c0,0.519-0.28,0.932-0.771,1.142
		c0.644,0.161,1.058,0.546,1.058,1.226c0,0.778-0.575,1.317-1.555,1.317h-1.975V82.442z M147.474,84.697
		c0.693,0,1.051-0.497,1.051-1.008c0-0.54-0.364-0.974-1.051-0.974h-1.527v1.982H147.474z M147.559,87.072
		c0.819,0,1.253-0.406,1.253-1.058c0-0.609-0.497-1.044-1.247-1.044h-1.618v2.102H147.559z"/>
</g>
<g>
	<path fill="#FFFFFF" d="M153.363,82.442l-1.366,1.877c0.168-0.161,0.413-0.225,0.721-0.225c0.841,0,1.541,0.624,1.541,1.639
		c0,0.945-0.806,1.709-1.842,1.709c-1.142,0-1.835-0.729-1.835-1.716c0-0.651,0.224-1.086,0.518-1.506l1.232-1.779H153.363z
		 M152.425,86.679c0.532,0,0.89-0.42,0.89-0.931c0-0.532-0.322-0.917-0.883-0.917c-0.539,0-0.896,0.385-0.896,0.924
		C151.535,86.28,151.843,86.679,152.425,86.679z"/>
	<path fill="#FFFFFF" d="M155.161,85.972c0-0.609,0.336-0.981,0.812-1.184c-0.364-0.196-0.616-0.554-0.616-1.086
		c0-0.868,0.7-1.358,1.618-1.358s1.618,0.49,1.618,1.358c0,0.532-0.252,0.89-0.616,1.086c0.476,0.203,0.812,0.574,0.812,1.184
		c0,0.875-0.742,1.471-1.814,1.471S155.161,86.848,155.161,85.972z M157.85,85.972c0-0.49-0.35-0.756-0.875-0.756
		s-0.875,0.266-0.875,0.756c0,0.483,0.35,0.735,0.875,0.735S157.85,86.455,157.85,85.972z M156.975,84.473
		c0.427,0,0.7-0.294,0.7-0.7c0-0.435-0.259-0.701-0.7-0.701s-0.7,0.266-0.7,0.701C156.274,84.179,156.547,84.473,156.975,84.473z"/>
</g>
<g>
	<path fill="#FFFFFF" d="M107.727,93.442h0.343v2.276h2.872v-2.276h0.343v4.903h-0.343V96.02h-2.872v2.325h-0.343V93.442z"/>
	<path fill="#FFFFFF" d="M112.83,93.442h3.145v0.287h-2.802v1.982h2.599v0.294h-2.599v2.052h2.809v0.287h-3.152V93.442z"/>
	<path fill="#FFFFFF" d="M120.819,98.345h-0.371l-1.527-2.227l-1.527,2.227h-0.371l1.716-2.493l-1.653-2.41h0.357l1.478,2.144
		l1.478-2.144h0.357l-1.653,2.41L120.819,98.345z"/>
</g>
<g>
	<path fill="#FFFFFF" d="M123.583,96.244v-0.701c0-1.253,0.666-2.199,2.143-2.199c1.24,0,2.003,0.84,2.052,1.842h-0.911
		c-0.063-0.553-0.413-1.037-1.142-1.037c-0.819,0-1.169,0.561-1.169,1.345v0.798c0,0.785,0.35,1.345,1.169,1.345
		c0.729,0,1.079-0.483,1.142-1.037h0.911c-0.049,1.002-0.812,1.842-2.052,1.842C124.249,98.443,123.583,97.497,123.583,96.244z"/>
	<path fill="#FFFFFF" d="M130.802,93.442c1.317,0,2.01,0.812,2.01,1.926v1.05c0,1.114-0.693,1.926-2.01,1.926h-1.989v-4.903H130.802
		z M131.838,95.361c0-0.715-0.413-1.121-1.205-1.121h-0.848v3.306h0.848c0.792,0,1.205-0.406,1.205-1.121V95.361z"/>
	<path fill="#FFFFFF" d="M133.789,96.734v-1.681c0-1.001,0.722-1.708,1.849-1.708s1.849,0.707,1.849,1.708v1.681
		c0,1.001-0.722,1.709-1.849,1.709S133.789,97.735,133.789,96.734z M136.521,95.039c0-0.595-0.336-0.904-0.882-0.904
		s-0.882,0.309-0.882,0.904v1.709c0,0.595,0.336,0.903,0.882,0.903s0.882-0.308,0.882-0.903V95.039z"/>
	<path fill="#FFFFFF" d="M139.362,94.423l-1.043,0.385v-0.854l1.211-0.511h0.798v4.903h-0.966V94.423z"/>
	<path fill="#FFFFFF" d="M145.754,98.345h-0.973l-0.33-1.03h-1.905l-0.329,1.03h-0.974l1.758-4.903h0.995L145.754,98.345z
		 M142.792,96.538h1.408l-0.7-2.213L142.792,96.538z"/>
	<path fill="#FFFFFF" d="M148.616,97.294h-2.241V96.58l1.478-3.138h0.875l-1.415,3.11h1.302v-1.016h0.89v1.016h0.624v0.742h-0.624
		v1.051h-0.89V97.294z"/>
	<path fill="#FFFFFF" d="M153.208,97.294h-2.241V96.58l1.478-3.138h0.875l-1.415,3.11h1.302v-1.016h0.89v1.016h0.624v0.742h-0.624
		v1.051h-0.89V97.294z"/>
</g>
<g>
	<path fill="#FFFFFF" d="M51.642,168.03h2.033c1.085,0,1.743,0.727,1.743,1.651s-0.658,1.659-1.743,1.659h-1.659v2.041h-0.375
		V168.03z M53.637,171.027c0.963,0,1.407-0.635,1.407-1.346s-0.443-1.338-1.407-1.338h-1.621v2.684H53.637z"/>
	<path fill="#FFFFFF" d="M56.274,172.228c0-0.757,0.65-1.2,1.56-1.2c0.604,0,1.108,0.298,1.323,0.581v-0.772
		c0-0.642-0.421-1.131-1.109-1.131c-0.573,0-0.956,0.274-1.139,0.719h-0.344c0.184-0.643,0.757-1.018,1.483-1.018
		c0.879,0,1.476,0.612,1.476,1.415v2.561h-0.352v-0.543c-0.207,0.329-0.749,0.635-1.399,0.635
		C56.87,173.474,56.274,172.954,56.274,172.228z M59.156,172.235c0-0.581-0.711-0.918-1.323-0.918c-0.688,0-1.208,0.307-1.208,0.918
		c0,0.589,0.474,0.955,1.17,0.955C58.445,173.19,59.156,172.862,59.156,172.235z"/>
	<path fill="#FFFFFF" d="M60.891,169.498h0.344v0.788c0.176-0.513,0.649-0.88,1.391-0.88c0.864,0,1.422,0.573,1.422,1.537v2.438
		h-0.367v-2.393c0-0.788-0.375-1.27-1.139-1.27c-0.704,0-1.284,0.489-1.284,1.399v2.263h-0.367V169.498z"/>
	<path fill="#FFFFFF" d="M66.724,173.382c-0.711,0-1.024-0.367-1.024-1.009v-2.576h-0.711v-0.299h0.711v-1.123h0.367v1.123h1.07
		v0.299h-1.07v2.576c0,0.497,0.184,0.711,0.711,0.711h0.344v0.298H66.724z"/>
	<path fill="#FFFFFF" d="M67.954,171.784v-0.688c0-0.947,0.619-1.689,1.674-1.689c1.055,0,1.674,0.742,1.674,1.689v0.688
		c0,0.948-0.619,1.689-1.674,1.689C68.573,173.474,67.954,172.732,67.954,171.784z M69.628,169.705
		c-0.849,0-1.323,0.604-1.323,1.406v0.657c0,0.803,0.474,1.407,1.323,1.407s1.322-0.604,1.322-1.407v-0.657
		C70.951,170.309,70.477,169.705,69.628,169.705z"/>
	<path fill="#FFFFFF" d="M72.556,169.498H72.9v0.788c0.176-0.513,0.649-0.88,1.391-0.88c0.864,0,1.422,0.573,1.422,1.537v2.438
		h-0.367v-2.393c0-0.788-0.375-1.27-1.139-1.27c-0.704,0-1.284,0.489-1.284,1.399v2.263h-0.367V169.498z"/>
	<path fill="#FFFFFF" d="M76.936,171.807v-0.672c0-1.04,0.604-1.729,1.651-1.729c1.04,0,1.605,0.765,1.605,1.675v0.52h-2.897v0.229
		c0,0.757,0.458,1.353,1.315,1.353c0.634,0,1.047-0.358,1.208-0.879h0.321c-0.153,0.688-0.742,1.17-1.529,1.17
		C77.578,173.474,76.936,172.801,76.936,171.807z M77.295,171.303h2.545v-0.237c0-0.765-0.42-1.368-1.253-1.368
		c-0.872,0-1.292,0.573-1.292,1.422V171.303z"/>
</g>
<g>
	<path fill="#FFFFFF" d="M82.799,172.579l2.179-2.141c0.291-0.29,0.497-0.558,0.497-0.933c0-0.451-0.329-0.719-0.78-0.719
		c-0.52,0-0.795,0.306-0.795,0.818v0.107h-1.001v-0.153c0-1.062,0.695-1.636,1.789-1.636s1.842,0.619,1.842,1.574
		c0,0.78-0.542,1.284-1.047,1.743l-1.391,1.276h2.408v0.864h-3.7V172.579z"/>
	<path fill="#FFFFFF" d="M90.481,168.03l-1.491,2.049c0.184-0.176,0.451-0.244,0.788-0.244c0.917,0,1.682,0.68,1.682,1.789
		c0,1.031-0.879,1.865-2.011,1.865c-1.246,0-2.003-0.796-2.003-1.873c0-0.711,0.245-1.186,0.566-1.644l1.346-1.942H90.481z
		 M89.457,172.655c0.581,0,0.971-0.458,0.971-1.017c0-0.581-0.352-1.001-0.963-1.001c-0.589,0-0.979,0.42-0.979,1.009
		C88.486,172.22,88.823,172.655,89.457,172.655z"/>
	<path fill="#FFFFFF" d="M93.187,173.382l1.384-2.019c-0.13,0.13-0.436,0.215-0.704,0.215c-0.917,0-1.682-0.688-1.682-1.789
		c0-1.086,0.803-1.865,1.995-1.865c1.208,0,2.018,0.741,2.018,1.857c0,0.589-0.191,1.108-0.443,1.483l-1.422,2.117H93.187z
		 M94.188,168.757c-0.589,0-0.971,0.421-0.971,1.017c0,0.589,0.352,1.002,0.963,1.002c0.612,0,0.979-0.459,0.979-1.01
		C95.159,169.192,94.808,168.757,94.188,168.757z"/>
	<path fill="#FFFFFF" d="M97.062,171.96h1.001c0.092,0.397,0.42,0.673,0.917,0.673c0.627,0,1.009-0.421,1.009-0.994
		c0-0.543-0.375-0.971-0.979-0.971c-0.428,0-0.726,0.191-0.887,0.467h-0.971l0.504-3.104h2.867v0.841h-2.034l-0.222,1.285
		c0.229-0.215,0.589-0.337,1.009-0.337c0.994,0,1.743,0.695,1.743,1.789c0,1.047-0.841,1.881-2.042,1.881
		C98.041,173.489,97.2,172.977,97.062,171.96z"/>
	<path fill="#FFFFFF" d="M103.636,171.455v-3.425h1.062v3.471c0,0.696,0.451,1.102,1.139,1.102s1.131-0.405,1.131-1.102v-3.471h1.07
		v3.425c0,1.208-0.818,2.034-2.202,2.034S103.636,172.663,103.636,171.455z"/>
</g>
<g>
	<path fill="#FFFFFF" d="M51.439,184.372v-0.883c0-1.197,0.672-2.108,1.975-2.108c1.107,0,1.807,0.757,1.891,1.66h-0.329
		c-0.098-0.742-0.624-1.373-1.569-1.373c-1.079,0-1.625,0.771-1.625,1.814v0.896c0,1.043,0.546,1.813,1.625,1.813
		c0.945,0,1.471-0.63,1.569-1.372h0.329c-0.084,0.903-0.784,1.659-1.891,1.659C52.112,186.479,51.439,185.569,51.439,184.372z"/>
</g>
<g>
	<path fill="#FFFFFF" d="M57.501,182.46l-1.043,0.385v-0.854l1.211-0.511h0.798v4.902h-0.966V182.46z"/>
	<path fill="#FFFFFF" d="M59.615,184.771v-1.681c0-1.001,0.722-1.709,1.849-1.709s1.849,0.708,1.849,1.709v1.681
		c0,1.002-0.722,1.709-1.849,1.709S59.615,185.772,59.615,184.771z M62.346,183.076c0-0.596-0.336-0.903-0.882-0.903
		s-0.882,0.308-0.882,0.903v1.709c0,0.595,0.336,0.903,0.882,0.903s0.882-0.309,0.882-0.903V183.076z"/>
	<path fill="#FFFFFF" d="M64.326,184.771v-1.681c0-1.001,0.722-1.709,1.849-1.709s1.849,0.708,1.849,1.709v1.681
		c0,1.002-0.722,1.709-1.849,1.709S64.326,185.772,64.326,184.771z M67.057,183.076c0-0.596-0.336-0.903-0.882-0.903
		s-0.882,0.308-0.882,0.903v1.709c0,0.595,0.336,0.903,0.882,0.903s0.882-0.309,0.882-0.903V183.076z"/>
</g>
<g>
	<path fill="#FFFFFF" d="M76.27,186.382h-0.322v-4.286l-1.541,3.047h-0.364l-1.541-3.047v4.286h-0.322v-4.902h0.343l1.702,3.368
		l1.702-3.368h0.343V186.382z"/>
</g>
<g>
	<path fill="#FFFFFF" d="M78.863,186.382l1.268-1.849c-0.119,0.119-0.399,0.195-0.644,0.195c-0.841,0-1.541-0.63-1.541-1.639
		c0-0.994,0.735-1.709,1.828-1.709c1.106,0,1.849,0.68,1.849,1.702c0,0.539-0.175,1.016-0.406,1.358l-1.303,1.94H78.863z
		 M79.78,182.145c-0.539,0-0.89,0.385-0.89,0.932c0,0.539,0.322,0.917,0.883,0.917c0.56,0,0.896-0.42,0.896-0.924
		C80.67,182.544,80.348,182.145,79.78,182.145z"/>
	<path fill="#FFFFFF" d="M84.554,185.331h-2.241v-0.714l1.478-3.138h0.875l-1.415,3.109h1.302v-1.016h0.89v1.016h0.624v0.742h-0.624
		v1.051h-0.89V185.331z"/>
</g>
<g>
	<path fill="#FFFFFF" d="M91.615,186.382h-0.336v-1.898l-1.758-3.004h0.357l1.569,2.689l1.569-2.689h0.357l-1.758,3.004V186.382z"/>
</g>
<g>
	<path fill="#FFFFFF" d="M94.25,184.771v-1.681c0-1.001,0.722-1.709,1.849-1.709s1.849,0.708,1.849,1.709v1.681
		c0,1.002-0.722,1.709-1.849,1.709S94.25,185.772,94.25,184.771z M96.981,183.076c0-0.596-0.336-0.903-0.882-0.903
		s-0.882,0.308-0.882,0.903v1.709c0,0.595,0.336,0.903,0.882,0.903s0.882-0.309,0.882-0.903V183.076z"/>
</g>
<g>
	<path fill="#FFFFFF" d="M102.097,181.479h0.343v2.402l2.444-2.402h0.434l-2.472,2.423l2.563,2.479h-0.441l-2.528-2.451v2.451
		h-0.343V181.479z"/>
</g>
<g>
	<path fill="#FFFFFF" d="M106.84,181.479h3.082v0.777l-1.253,1.254c0.798,0.034,1.45,0.504,1.45,1.421
		c0,0.904-0.819,1.548-1.814,1.548c-0.945,0-1.744-0.524-1.765-1.533h0.896c0.035,0.462,0.372,0.756,0.875,0.756
		c0.525,0,0.854-0.336,0.854-0.749c0-0.435-0.301-0.707-0.847-0.707h-0.722v-0.777l1.149-1.219h-1.905V181.479z"/>
	<path fill="#FFFFFF" d="M111.061,185.009c0-0.609,0.336-0.98,0.812-1.184c-0.364-0.196-0.616-0.553-0.616-1.085
		c0-0.869,0.7-1.359,1.618-1.359s1.618,0.49,1.618,1.359c0,0.532-0.252,0.889-0.616,1.085c0.476,0.203,0.812,0.574,0.812,1.184
		c0,0.876-0.742,1.471-1.814,1.471S111.061,185.885,111.061,185.009z M113.75,185.009c0-0.49-0.35-0.756-0.875-0.756
		S112,184.519,112,185.009c0,0.483,0.35,0.735,0.875,0.735S113.75,185.492,113.75,185.009z M112.875,183.511
		c0.427,0,0.7-0.295,0.7-0.701c0-0.434-0.259-0.7-0.7-0.7s-0.7,0.267-0.7,0.7C112.175,183.216,112.448,183.511,112.875,183.511z"/>
</g>
<g>
	<path fill="#FFFFFF" d="M53.667,195.483h-0.154h-1.59v1.898H51.58v-4.902h1.947c1.008,0,1.583,0.7,1.583,1.506
		c0,0.686-0.414,1.261-1.114,1.442l1.1,1.954h-0.378L53.667,195.483z M53.464,195.204c0.875,0,1.303-0.554,1.303-1.219
		c0-0.666-0.435-1.226-1.296-1.226h-1.548v2.444H53.464z"/>
</g>
<g>
	<path fill="#FFFFFF" d="M56.745,196.646l1.996-1.961c0.266-0.267,0.455-0.512,0.455-0.854c0-0.413-0.301-0.658-0.714-0.658
		c-0.476,0-0.729,0.28-0.729,0.749v0.098h-0.917v-0.14c0-0.974,0.638-1.499,1.639-1.499s1.688,0.567,1.688,1.443
		c0,0.714-0.498,1.177-0.959,1.597l-1.275,1.17h2.206v0.791h-3.39V196.646z"/>
	<path fill="#FFFFFF" d="M63.669,192.479l-1.366,1.877c0.168-0.161,0.413-0.225,0.721-0.225c0.841,0,1.541,0.624,1.541,1.639
		c0,0.946-0.806,1.709-1.842,1.709c-1.142,0-1.835-0.728-1.835-1.716c0-0.651,0.225-1.085,0.519-1.506l1.232-1.778H63.669z
		 M62.731,196.717c0.532,0,0.89-0.421,0.89-0.932c0-0.532-0.322-0.918-0.883-0.918c-0.539,0-0.896,0.386-0.896,0.925
		C61.841,196.317,62.149,196.717,62.731,196.717z"/>
</g>
<g>
	<path fill="#FFFFFF" d="M68.466,195.322v-0.805c0-1.24,0.672-2.137,1.961-2.137c1.169,0,1.856,0.735,1.905,1.682h-0.329
		c-0.042-0.764-0.595-1.395-1.569-1.395c-1.106,0-1.625,0.777-1.625,1.835v0.827c0,1.036,0.511,1.862,1.667,1.862
		c0.974,0,1.576-0.637,1.576-1.59v-0.217h-1.499v-0.287h1.828v0.477c0,1.1-0.714,1.904-1.905,1.904
		C69.125,197.479,68.466,196.507,68.466,195.322z"/>
</g>
<g>
	<path fill="#FFFFFF" d="M76.092,193.271h-2.213v-0.791h3.208v0.687l-2.031,4.216h-0.988L76.092,193.271z"/>
</g>
<g>
	<path fill="#FFFFFF" d="M81.124,192.479h1.933c0.819,0,1.31,0.546,1.31,1.219c0,0.518-0.28,0.931-0.77,1.142
		c0.644,0.161,1.058,0.546,1.058,1.226c0,0.777-0.575,1.316-1.555,1.316h-1.975V192.479z M82.979,194.734
		c0.693,0,1.051-0.497,1.051-1.009c0-0.539-0.364-0.974-1.051-0.974h-1.526v1.982H82.979z M83.064,197.108
		c0.819,0,1.253-0.406,1.253-1.058c0-0.609-0.497-1.043-1.247-1.043h-1.618v2.101H83.064z"/>
</g>
<g>
	<path fill="#FFFFFF" d="M88.308,196.331h-2.241v-0.714l1.478-3.138h0.875l-1.415,3.109h1.302v-1.016h0.89v1.016h0.624v0.742h-0.624
		v1.051h-0.89V196.331z"/>
	<path fill="#FFFFFF" d="M90.849,197.382l1.268-1.849c-0.119,0.119-0.399,0.195-0.644,0.195c-0.841,0-1.541-0.63-1.541-1.639
		c0-0.994,0.735-1.709,1.828-1.709c1.106,0,1.849,0.68,1.849,1.702c0,0.539-0.175,1.016-0.406,1.358l-1.303,1.94H90.849z
		 M91.766,193.145c-0.539,0-0.889,0.385-0.889,0.932c0,0.539,0.322,0.917,0.882,0.917c0.56,0,0.896-0.42,0.896-0.924
		C92.656,193.544,92.333,193.145,91.766,193.145z"/>
</g>
<g>
	<path fill="#FFFFFF" d="M51.58,203.479h0.343v2.276h2.872v-2.276h0.343v4.902h-0.343v-2.325h-2.872v2.325H51.58V203.479z"/>
	<path fill="#FFFFFF" d="M56.683,203.479h3.145v0.287h-2.802v1.981h2.599v0.295h-2.599v2.052h2.809v0.287h-3.152V203.479z"/>
	<path fill="#FFFFFF" d="M64.671,208.382H64.3l-1.527-2.228l-1.527,2.228h-0.371l1.716-2.493l-1.653-2.409h0.357l1.478,2.143
		l1.478-2.143h0.357l-1.653,2.409L64.671,208.382z"/>
</g>
<g>
	<path fill="#FFFFFF" d="M68.263,204.46l-1.043,0.385v-0.854l1.211-0.511h0.798v4.902h-0.966V204.46z"/>
	<path fill="#FFFFFF" d="M74.656,208.382h-0.973l-0.33-1.029h-1.905l-0.329,1.029h-0.974l1.758-4.902h0.995L74.656,208.382z
		 M71.693,206.575h1.408l-0.7-2.214L71.693,206.575z"/>
	<path fill="#FFFFFF" d="M75.43,206.771v-1.681c0-1.001,0.722-1.709,1.849-1.709s1.849,0.708,1.849,1.709v1.681
		c0,1.002-0.722,1.709-1.849,1.709S75.43,207.772,75.43,206.771z M78.162,205.076c0-0.596-0.336-0.903-0.882-0.903
		s-0.882,0.308-0.882,0.903v1.709c0,0.595,0.336,0.903,0.882,0.903s0.882-0.309,0.882-0.903V205.076z"/>
	<path fill="#FFFFFF" d="M82.061,204.271h-2.213v-0.791h3.208v0.687l-2.031,4.216h-0.988L82.061,204.271z"/>
	<path fill="#FFFFFF" d="M83.928,203.479h3.082v0.777l-1.253,1.254c0.798,0.034,1.45,0.504,1.45,1.421
		c0,0.904-0.819,1.548-1.814,1.548c-0.945,0-1.744-0.524-1.765-1.533h0.896c0.035,0.462,0.372,0.756,0.875,0.756
		c0.525,0,0.854-0.336,0.854-0.749c0-0.435-0.301-0.707-0.847-0.707h-0.722v-0.777l1.149-1.219h-1.905V203.479z"/>
	<path fill="#FFFFFF" d="M88.983,204.46l-1.043,0.385v-0.854l1.211-0.511h0.798v4.902h-0.966V204.46z"/>
</g>
<g>
	<path fill="#FFFFFF" d="M168.642,168.03h2.033c1.085,0,1.743,0.727,1.743,1.651s-0.658,1.659-1.743,1.659h-1.659v2.041h-0.375
		V168.03z M170.637,171.027c0.963,0,1.407-0.635,1.407-1.346s-0.443-1.338-1.407-1.338h-1.621v2.684H170.637z"/>
	<path fill="#FFFFFF" d="M173.274,172.228c0-0.757,0.65-1.2,1.56-1.2c0.604,0,1.108,0.298,1.323,0.581v-0.772
		c0-0.642-0.421-1.131-1.109-1.131c-0.573,0-0.956,0.274-1.139,0.719h-0.344c0.184-0.643,0.757-1.018,1.483-1.018
		c0.879,0,1.476,0.612,1.476,1.415v2.561h-0.352v-0.543c-0.207,0.329-0.749,0.635-1.399,0.635
		C173.87,173.474,173.274,172.954,173.274,172.228z M176.156,172.235c0-0.581-0.711-0.918-1.323-0.918
		c-0.688,0-1.208,0.307-1.208,0.918c0,0.589,0.474,0.955,1.17,0.955C175.445,173.19,176.156,172.862,176.156,172.235z"/>
	<path fill="#FFFFFF" d="M177.891,169.498h0.344v0.788c0.176-0.513,0.649-0.88,1.391-0.88c0.864,0,1.422,0.573,1.422,1.537v2.438
		h-0.367v-2.393c0-0.788-0.375-1.27-1.139-1.27c-0.704,0-1.284,0.489-1.284,1.399v2.263h-0.367V169.498z"/>
	<path fill="#FFFFFF" d="M183.724,173.382c-0.711,0-1.024-0.367-1.024-1.009v-2.576h-0.711v-0.299h0.711v-1.123h0.367v1.123h1.07
		v0.299h-1.07v2.576c0,0.497,0.184,0.711,0.711,0.711h0.344v0.298H183.724z"/>
	<path fill="#FFFFFF" d="M184.954,171.784v-0.688c0-0.947,0.619-1.689,1.674-1.689c1.055,0,1.674,0.742,1.674,1.689v0.688
		c0,0.948-0.619,1.689-1.674,1.689C185.573,173.474,184.954,172.732,184.954,171.784z M186.628,169.705
		c-0.849,0-1.323,0.604-1.323,1.406v0.657c0,0.803,0.474,1.407,1.323,1.407s1.322-0.604,1.322-1.407v-0.657
		C187.951,170.309,187.477,169.705,186.628,169.705z"/>
	<path fill="#FFFFFF" d="M189.556,169.498h0.344v0.788c0.176-0.513,0.649-0.88,1.391-0.88c0.864,0,1.422,0.573,1.422,1.537v2.438
		h-0.367v-2.393c0-0.788-0.375-1.27-1.139-1.27c-0.704,0-1.284,0.489-1.284,1.399v2.263h-0.367V169.498z"/>
	<path fill="#FFFFFF" d="M193.936,171.807v-0.672c0-1.04,0.604-1.729,1.651-1.729c1.04,0,1.605,0.765,1.605,1.675v0.52h-2.897v0.229
		c0,0.757,0.458,1.353,1.315,1.353c0.634,0,1.047-0.358,1.208-0.879h0.321c-0.153,0.688-0.742,1.17-1.529,1.17
		C194.578,173.474,193.936,172.801,193.936,171.807z M194.295,171.303h2.545v-0.237c0-0.765-0.42-1.368-1.253-1.368
		c-0.872,0-1.292,0.573-1.292,1.422V171.303z"/>
</g>
<g>
	<path fill="#FFFFFF" d="M200.731,169.101l-1.139,0.421v-0.933l1.323-0.559h0.872v5.352h-1.055V169.101z"/>
	<path fill="#FFFFFF" d="M203.047,172.579l2.179-2.141c0.291-0.29,0.497-0.558,0.497-0.933c0-0.451-0.329-0.719-0.78-0.719
		c-0.52,0-0.795,0.306-0.795,0.818v0.107h-1.001v-0.153c0-1.062,0.695-1.636,1.789-1.636s1.842,0.619,1.842,1.574
		c0,0.78-0.542,1.284-1.047,1.743l-1.391,1.276h2.408v0.864h-3.7V172.579z"/>
	<path fill="#FFFFFF" d="M207.626,171.884c0-0.665,0.367-1.07,0.887-1.292c-0.397-0.214-0.673-0.604-0.673-1.186
		c0-0.947,0.765-1.482,1.766-1.482s1.766,0.535,1.766,1.482c0,0.581-0.275,0.972-0.673,1.186c0.52,0.222,0.887,0.627,0.887,1.292
		c0,0.955-0.811,1.605-1.98,1.605S207.626,172.839,207.626,171.884z M210.562,171.884c0-0.535-0.382-0.826-0.956-0.826
		s-0.956,0.291-0.956,0.826c0,0.527,0.382,0.803,0.956,0.803S210.562,172.411,210.562,171.884z M209.606,170.247
		c0.466,0,0.765-0.32,0.765-0.764c0-0.475-0.283-0.765-0.765-0.765s-0.765,0.29-0.765,0.765
		C208.841,169.927,209.14,170.247,209.606,170.247z"/>
	<path fill="#FFFFFF" d="M214.261,171.455v-3.425h1.062v3.471c0,0.696,0.451,1.102,1.139,1.102s1.131-0.405,1.131-1.102v-3.471h1.07
		v3.425c0,1.208-0.818,2.034-2.202,2.034S214.261,172.663,214.261,171.455z"/>
</g>
<g>
	<path fill="#FFFFFF" d="M168.439,184.372v-0.883c0-1.197,0.672-2.108,1.975-2.108c1.107,0,1.807,0.757,1.891,1.66h-0.329
		c-0.098-0.742-0.624-1.373-1.569-1.373c-1.079,0-1.625,0.771-1.625,1.814v0.896c0,1.043,0.546,1.813,1.625,1.813
		c0.945,0,1.471-0.63,1.569-1.372h0.329c-0.084,0.903-0.784,1.659-1.891,1.659C169.112,186.479,168.439,185.569,168.439,184.372z"/>
</g>
<g>
	<path fill="#FFFFFF" d="M173.955,184.771v-1.681c0-1.001,0.722-1.709,1.849-1.709s1.849,0.708,1.849,1.709v1.681
		c0,1.002-0.722,1.709-1.849,1.709S173.955,185.772,173.955,184.771z M176.686,183.076c0-0.596-0.336-0.903-0.882-0.903
		s-0.882,0.308-0.882,0.903v1.709c0,0.595,0.336,0.903,0.882,0.903s0.882-0.309,0.882-0.903V183.076z"/>
</g>
<g>
	<path fill="#FFFFFF" d="M185.892,186.382h-0.322v-4.286l-1.541,3.047h-0.364l-1.541-3.047v4.286h-0.322v-4.902h0.343l1.702,3.368
		l1.702-3.368h0.343V186.382z"/>
</g>
<g>
	<path fill="#FFFFFF" d="M188.206,186.382l1.268-1.849c-0.119,0.119-0.399,0.195-0.644,0.195c-0.841,0-1.541-0.63-1.541-1.639
		c0-0.994,0.735-1.709,1.828-1.709c1.106,0,1.849,0.68,1.849,1.702c0,0.539-0.175,1.016-0.406,1.358l-1.303,1.94H188.206z
		 M189.123,182.145c-0.539,0-0.89,0.385-0.89,0.932c0,0.539,0.322,0.917,0.883,0.917c0.56,0,0.896-0.42,0.896-0.924
		C190.013,182.544,189.69,182.145,189.123,182.145z"/>
</g>
<g>
	<path fill="#FFFFFF" d="M196.585,186.382h-0.336v-1.898l-1.758-3.004h0.357l1.569,2.689l1.569-2.689h0.357l-1.758,3.004V186.382z"
		/>
</g>
<g>
	<path fill="#FFFFFF" d="M201.804,181.479l-1.366,1.877c0.168-0.161,0.413-0.225,0.721-0.225c0.841,0,1.541,0.624,1.541,1.639
		c0,0.946-0.806,1.709-1.842,1.709c-1.142,0-1.835-0.728-1.835-1.716c0-0.651,0.225-1.085,0.519-1.506l1.232-1.778H201.804z
		 M200.866,185.717c0.532,0,0.89-0.421,0.89-0.932c0-0.532-0.322-0.918-0.883-0.918c-0.539,0-0.896,0.386-0.896,0.925
		C199.976,185.317,200.284,185.717,200.866,185.717z"/>
	<path fill="#FFFFFF" d="M203.44,185.079h0.917c0.084,0.364,0.385,0.616,0.841,0.616c0.574,0,0.924-0.385,0.924-0.91
		c0-0.497-0.343-0.89-0.896-0.89c-0.392,0-0.666,0.175-0.812,0.427h-0.89l0.462-2.843h2.626v0.771h-1.863l-0.203,1.176
		c0.21-0.195,0.539-0.308,0.924-0.308c0.911,0,1.597,0.638,1.597,1.639c0,0.96-0.771,1.723-1.87,1.723
		C204.337,186.479,203.566,186.011,203.44,185.079z"/>
</g>
<g>
	<path fill="#FFFFFF" d="M211.179,181.479h0.343v2.402l2.444-2.402h0.434l-2.472,2.423l2.563,2.479h-0.441l-2.528-2.451v2.451
		h-0.343V181.479z"/>
</g>
<g>
	<path fill="#FFFFFF" d="M215.559,184.771v-1.681c0-1.001,0.722-1.709,1.849-1.709s1.849,0.708,1.849,1.709v1.681
		c0,1.002-0.722,1.709-1.849,1.709S215.559,185.772,215.559,184.771z M218.29,183.076c0-0.596-0.336-0.903-0.882-0.903
		s-0.882,0.308-0.882,0.903v1.709c0,0.595,0.336,0.903,0.882,0.903s0.882-0.309,0.882-0.903V183.076z"/>
</g>
<g>
	<path fill="#FFFFFF" d="M170.667,195.483h-0.154h-1.59v1.898h-0.343v-4.902h1.947c1.008,0,1.583,0.7,1.583,1.506
		c0,0.686-0.414,1.261-1.114,1.442l1.1,1.954h-0.378L170.667,195.483z M170.464,195.204c0.875,0,1.303-0.554,1.303-1.219
		c0-0.666-0.435-1.226-1.296-1.226h-1.548v2.444H170.464z"/>
</g>
<g>
	<path fill="#FFFFFF" d="M173.745,196.646l1.996-1.961c0.266-0.267,0.455-0.512,0.455-0.854c0-0.413-0.301-0.658-0.714-0.658
		c-0.476,0-0.729,0.28-0.729,0.749v0.098h-0.917v-0.14c0-0.974,0.638-1.499,1.639-1.499s1.688,0.567,1.688,1.443
		c0,0.714-0.498,1.177-0.959,1.597l-1.275,1.17h2.206v0.791h-3.39V196.646z"/>
	<path fill="#FFFFFF" d="M178.204,192.479h3.082v0.777l-1.254,1.254c0.798,0.034,1.45,0.504,1.45,1.421
		c0,0.904-0.819,1.548-1.814,1.548c-0.945,0-1.744-0.524-1.765-1.533h0.896c0.035,0.462,0.372,0.756,0.875,0.756
		c0.525,0,0.854-0.336,0.854-0.749c0-0.435-0.301-0.707-0.847-0.707h-0.722v-0.777l1.149-1.219h-1.905V192.479z"/>
	<path fill="#FFFFFF" d="M182.285,196.079h0.917c0.084,0.364,0.385,0.616,0.841,0.616c0.574,0,0.924-0.385,0.924-0.91
		c0-0.497-0.343-0.89-0.896-0.89c-0.392,0-0.666,0.175-0.812,0.427h-0.89l0.462-2.843h2.626v0.771h-1.863l-0.203,1.176
		c0.21-0.195,0.539-0.308,0.924-0.308c0.911,0,1.597,0.638,1.597,1.639c0,0.96-0.77,1.723-1.87,1.723
		C183.181,197.479,182.411,197.011,182.285,196.079z"/>
</g>
<g>
	<path fill="#FFFFFF" d="M189.871,195.322v-0.805c0-1.24,0.672-2.137,1.961-2.137c1.169,0,1.856,0.735,1.905,1.682h-0.329
		c-0.042-0.764-0.595-1.395-1.569-1.395c-1.106,0-1.625,0.777-1.625,1.835v0.827c0,1.036,0.511,1.862,1.667,1.862
		c0.974,0,1.576-0.637,1.576-1.59v-0.217h-1.499v-0.287h1.828v0.477c0,1.1-0.714,1.904-1.905,1.904
		C190.53,197.479,189.871,196.507,189.871,195.322z"/>
</g>
<g>
	<path fill="#FFFFFF" d="M196.292,193.46l-1.043,0.385v-0.854l1.211-0.511h0.798v4.902h-0.966V193.46z"/>
	<path fill="#FFFFFF" d="M200.625,193.271h-2.213v-0.791h3.208v0.687l-2.031,4.216h-0.988L200.625,193.271z"/>
	<path fill="#FFFFFF" d="M202.353,192.479h3.082v0.777l-1.253,1.254c0.798,0.034,1.45,0.504,1.45,1.421
		c0,0.904-0.819,1.548-1.814,1.548c-0.945,0-1.744-0.524-1.765-1.533h0.896c0.035,0.462,0.372,0.756,0.875,0.756
		c0.525,0,0.854-0.336,0.854-0.749c0-0.435-0.301-0.707-0.847-0.707h-0.722v-0.777l1.149-1.219h-1.905V192.479z"/>
</g>
<g>
	<path fill="#FFFFFF" d="M209.775,192.479h1.933c0.819,0,1.31,0.546,1.31,1.219c0,0.518-0.28,0.931-0.771,1.142
		c0.644,0.161,1.058,0.546,1.058,1.226c0,0.777-0.575,1.316-1.555,1.316h-1.975V192.479z M211.631,194.734
		c0.693,0,1.051-0.497,1.051-1.009c0-0.539-0.364-0.974-1.051-0.974h-1.527v1.982H211.631z M211.716,197.108
		c0.819,0,1.253-0.406,1.253-1.058c0-0.609-0.497-1.043-1.247-1.043h-1.618v2.101H211.716z"/>
</g>
<g>
	<path fill="#FFFFFF" d="M217.107,193.271h-2.213v-0.791h3.208v0.687l-2.031,4.216h-0.988L217.107,193.271z"/>
	<path fill="#FFFFFF" d="M218.52,196.079h0.917c0.084,0.364,0.385,0.616,0.841,0.616c0.574,0,0.924-0.385,0.924-0.91
		c0-0.497-0.343-0.89-0.896-0.89c-0.392,0-0.666,0.175-0.812,0.427h-0.89l0.462-2.843h2.626v0.771h-1.863l-0.203,1.176
		c0.21-0.195,0.539-0.308,0.924-0.308c0.911,0,1.597,0.638,1.597,1.639c0,0.96-0.77,1.723-1.87,1.723
		C219.417,197.479,218.646,197.011,218.52,196.079z"/>
</g>
<g>
	<path fill="#FFFFFF" d="M168.58,203.479h0.343v2.276h2.872v-2.276h0.343v4.902h-0.343v-2.325h-2.872v2.325h-0.343V203.479z"/>
	<path fill="#FFFFFF" d="M173.683,203.479h3.145v0.287h-2.802v1.981h2.599v0.295h-2.599v2.052h2.809v0.287h-3.152V203.479z"/>
	<path fill="#FFFFFF" d="M181.671,208.382H181.3l-1.527-2.228l-1.527,2.228h-0.371l1.716-2.493l-1.653-2.409h0.357l1.478,2.143
		l1.478-2.143h0.357l-1.653,2.409L181.671,208.382z"/>
</g>
<g>
	<path fill="#FFFFFF" d="M184.443,203.479h3.432v0.812h-2.451v1.197h2.241v0.819h-2.241v1.261h2.458v0.812h-3.439V203.479z"/>
	<path fill="#FFFFFF" d="M188.826,203.479h2.199c0.862,0,1.401,0.504,1.401,1.239c0,0.561-0.273,0.932-0.616,1.128
		c0.504,0.104,0.911,0.49,0.911,1.155c0,0.819-0.68,1.38-1.66,1.38h-2.234V203.479z M190.808,205.511
		c0.413,0,0.637-0.273,0.637-0.651c0-0.372-0.238-0.609-0.645-0.609h-1.022v1.261H190.808z M191.011,207.611
		c0.469,0,0.728-0.259,0.728-0.672c0-0.406-0.273-0.666-0.735-0.666h-1.226v1.338H191.011z"/>
	<path fill="#FFFFFF" d="M197.788,208.382h-0.974l-0.329-1.029h-1.905l-0.329,1.029h-0.974l1.758-4.902h0.995L197.788,208.382z
		 M194.826,206.575h1.408l-0.7-2.214L194.826,206.575z"/>
	<path fill="#FFFFFF" d="M200.685,203.479c1.317,0,2.01,0.812,2.01,1.926v1.051c0,1.113-0.693,1.926-2.01,1.926h-1.989v-4.902
		H200.685z M201.722,205.398c0-0.715-0.413-1.121-1.205-1.121h-0.848v3.306h0.848c0.792,0,1.205-0.406,1.205-1.12V205.398z"/>
	<path fill="#FFFFFF" d="M205.844,207.331h-2.241v-0.714l1.478-3.138h0.875l-1.415,3.109h1.302v-1.016h0.89v1.016h0.624v0.742
		h-0.624v1.051h-0.89V207.331z"/>
	<path fill="#FFFFFF" d="M208.174,203.479h2.199c0.862,0,1.401,0.504,1.401,1.239c0,0.561-0.273,0.932-0.616,1.128
		c0.504,0.104,0.911,0.49,0.911,1.155c0,0.819-0.68,1.38-1.66,1.38h-2.234V203.479z M210.156,205.511
		c0.413,0,0.637-0.273,0.637-0.651c0-0.372-0.238-0.609-0.645-0.609h-1.022v1.261H210.156z M210.359,207.611
		c0.469,0,0.728-0.259,0.728-0.672c0-0.406-0.273-0.666-0.735-0.666h-1.226v1.338H210.359z"/>
</g>
</svg>
