<?xml version="1.0" encoding="utf-8"?>
<!-- Generator: Adobe Illustrator 18.1.1, SVG Export Plug-In . SVG Version: 6.00 Build 0)  -->
<svg version="1.1" id="Layer_1" xmlns="http://www.w3.org/2000/svg" xmlns:xlink="http://www.w3.org/1999/xlink" x="0px" y="0px"
	 viewBox="-1362 1365 273.1 273" enable-background="new -1362 1365 273.1 273" xml:space="preserve">
<path fill="#CC0A45" d="M-1088.9,1501.5L-1088.9,1501.5c0-75.4-61.1-136.6-136.5-136.6c-75.4,0-136.5,61.1-136.5,136.5c0,0,0,0,0,0
	L-1088.9,1501.5L-1088.9,1501.5z"/>
<path fill="#EBAD4B" d="M-1088.9,1501.4h-136.5V1638C-1150,1638-1088.9,1576.9-1088.9,1501.4
	C-1088.9,1501.5-1088.9,1501.5-1088.9,1501.4"/>
<path fill="#1A0731" d="M-1225.4,1638v-136.5H-1362C-1362,1576.9-1300.8,1638-1225.4,1638C-1225.4,1638-1225.4,1638-1225.4,1638"/>
</svg>
