<?xml version="1.0" encoding="utf-8"?>
<!-- Generator: Adobe Illustrator 16.0.0, SVG Export Plug-In . SVG Version: 6.00 Build 0)  -->
<!DOCTYPE svg PUBLIC "-//W3C//DTD SVG 1.1//EN" "http://www.w3.org/Graphics/SVG/1.1/DTD/svg11.dtd">
<svg version="1.1" id="Layer_1" xmlns="http://www.w3.org/2000/svg" xmlns:xlink="http://www.w3.org/1999/xlink" x="0px" y="0px"
	 width="54.75px" height="22.5px" viewBox="0 0 54.75 22.5" enable-background="new 0 0 54.75 22.5" xml:space="preserve">
<path fill-rule="evenodd" clip-rule="evenodd" fill="#D11E4B" d="M13.199,7.287v0.987c-1.438,0.193-2.284,0.241-3.344,1.818
	c-0.75,1.116-0.281,1.971-0.219,2.288c0.014,0.071,0.584,0.066,0.864,0.035c1.318-0.146,2.397,0.195,2.771,1.565
	c0.333,1.221,0.062,2.355-1.104,3.089c-1.04,0.654-2.574,0.452-3.533-0.432c-1.665-1.535-1.717-5.326-0.072-7.287
	C9.736,7.954,10.667,7.287,13.199,7.287z"/>
<path fill-rule="evenodd" clip-rule="evenodd" fill="#D11E4B" d="M20.98,7.287v0.987c-1.438,0.193-2.219,0.287-3.344,1.818
	c-0.523,0.712-0.281,1.971-0.219,2.288c0.014,0.071,0.584,0.066,0.864,0.035c1.318-0.146,2.397,0.195,2.771,1.565
	c0.333,1.221,0.062,2.355-1.104,3.089c-1.04,0.654-2.574,0.452-3.533-0.432c-1.665-1.535-1.717-5.326-0.072-7.287
	C17.518,7.954,18.448,7.287,20.98,7.287z"/>
<path fill-rule="evenodd" clip-rule="evenodd" fill="#D11E4B" d="M44.93,17.272v-0.987c1.438-0.193,2.283-0.241,3.344-1.818
	c0.75-1.116,0.281-1.971,0.219-2.288c-0.014-0.071-0.584-0.066-0.864-0.035c-1.317,0.146-2.397-0.195-2.771-1.565
	c-0.332-1.221-0.062-2.355,1.104-3.089c1.04-0.654,2.574-0.452,3.533,0.432c1.665,1.535,1.718,5.326,0.072,7.287
	C48.392,16.605,47.461,17.272,44.93,17.272z"/>
<path fill-rule="evenodd" clip-rule="evenodd" fill="#D11E4B" d="M37.148,17.272v-0.987c1.438-0.193,2.219-0.287,3.344-1.818
	c0.523-0.712,0.281-1.971,0.219-2.288c-0.014-0.071-0.584-0.066-0.864-0.035c-1.317,0.146-2.397-0.195-2.771-1.565
	c-0.332-1.221-0.062-2.355,1.104-3.089c1.04-0.654,2.574-0.452,3.533,0.432c1.665,1.535,1.718,5.326,0.072,7.287
	C40.61,16.605,39.68,17.272,37.148,17.272z"/>
</svg>
