<?xml version="1.0" encoding="utf-8"?>
<!-- Generator: Adobe Illustrator 16.0.4, SVG Export Plug-In . SVG Version: 6.00 Build 0)  -->
<!DOCTYPE svg PUBLIC "-//W3C//DTD SVG 1.1//EN" "http://www.w3.org/Graphics/SVG/1.1/DTD/svg11.dtd">
<svg version="1.1" id="Layer_1" xmlns="http://www.w3.org/2000/svg" xmlns:xlink="http://www.w3.org/1999/xlink" x="0px" y="0px"
	 width="407.5px" height="113.5px" viewBox="0 0 407.5 113.5" enable-background="new 0 0 407.5 113.5" xml:space="preserve">
<g>
	<path d="M12.113,17.189h-1.071l-1.49-4.031H2.435l-1.471,4.031h-1.07L5.479,2.492h1.05L12.113,17.189z M2.749,12.297h6.488
		L6.003,3.458L2.749,12.297z"/>
	<path d="M17.192,2.492h5.795c2.457,0,3.927,1.638,3.927,3.653c0,1.554-0.84,2.792-2.31,3.422c1.932,0.483,3.17,1.638,3.17,3.674
		c0,2.331-1.721,3.947-4.66,3.947h-5.922V2.492z M22.757,9.253c2.078,0,3.149-1.491,3.149-3.023c0-1.617-1.092-2.918-3.149-2.918
		H18.18v5.942H22.757z M23.009,16.371c2.457,0,3.758-1.218,3.758-3.17c0-1.827-1.49-3.128-3.736-3.128H18.18v6.299H23.009z"/>
	<path d="M32.749,11.164V8.518c0-3.59,2.016-6.32,5.922-6.32c3.316,0,5.416,2.268,5.668,4.976h-0.986
		c-0.294-2.226-1.869-4.115-4.703-4.115c-3.233,0-4.871,2.31-4.871,5.438v2.688c0,3.128,1.638,5.438,4.871,5.438
		c2.834,0,4.409-1.89,4.703-4.115h0.986c-0.252,2.708-2.352,4.976-5.668,4.976C34.765,17.483,32.749,14.754,32.749,11.164z"/>
	<path d="M54.956,17.189h-5.229V2.492h5.229c3.737,0,5.795,2.478,5.795,5.648v3.401C60.751,14.712,58.693,17.189,54.956,17.189z
		 M54.83,3.353h-4.073v12.976h4.073c3.149,0,4.892-1.953,4.892-4.808V8.161C59.722,5.306,57.979,3.353,54.83,3.353z"/>
	<path d="M66.409,2.492h9.428v0.861h-8.398v5.942h7.789v0.882h-7.789v6.152h8.42v0.861h-9.449V2.492z"/>
	<path d="M81.112,2.492h9.217v0.861h-8.188v6.131h7.579v0.882h-7.579v6.824h-1.028V2.492z"/>
	<path d="M94.913,11.017V8.602c0-3.716,2.016-6.404,5.879-6.404c3.507,0,5.564,2.205,5.711,5.039h-0.986
		c-0.126-2.289-1.785-4.178-4.703-4.178c-3.317,0-4.871,2.331-4.871,5.501v2.478c0,3.107,1.533,5.585,4.997,5.585
		c2.919,0,4.724-1.911,4.724-4.766v-0.651h-4.492v-0.861h5.479v1.428c0,3.296-2.142,5.711-5.711,5.711
		C96.888,17.483,94.913,14.565,94.913,11.017z"/>
	<path d="M112.212,2.492h1.029v6.824h8.608V2.492h1.028v14.697h-1.028v-6.971h-8.608v6.971h-1.029V2.492z"/>
	<path d="M129.025,2.492h1.028v14.697h-1.028V2.492z"/>
	<path d="M135.263,13.41v-0.105h1.008v0.105c0,1.89,1.344,3.212,3.611,3.212c2.205,0,3.611-1.302,3.611-3.275V2.492h1.029v10.855
		c0,2.436-1.932,4.136-4.641,4.136C137.089,17.483,135.263,15.783,135.263,13.41z"/>
	<path d="M150.558,2.492h1.029v7.202l7.328-7.202h1.301l-7.411,7.265l7.685,7.433h-1.322l-7.58-7.349v7.349h-1.029V2.492z"/>
	<path d="M165.372,2.492h1.028v13.836h7.874v0.861h-8.902V2.492z"/>
	<path d="M191.624,17.189h-0.967V4.34l-4.619,9.133h-1.092l-4.619-9.133v12.85h-0.965V2.492h1.028l5.103,10.099l5.102-10.099h1.029
		V17.189z"/>
	<path d="M197.718,2.492h0.965l8.798,13.039V2.492h0.987v14.697h-0.967l-8.797-13.018v13.018h-0.986V2.492z"/>
	<path d="M226.116,11.101c0,3.464-1.932,6.383-5.984,6.383s-5.984-2.918-5.984-6.383v-2.52c0-3.464,1.932-6.383,5.984-6.383
		s5.984,2.918,5.984,6.383V11.101z M225.108,8.539c0-2.939-1.533-5.501-4.977-5.501s-4.977,2.562-4.977,5.501v2.604
		c0,2.939,1.533,5.501,4.977,5.501s4.977-2.562,4.977-5.501V8.539z"/>
	<path d="M231.796,2.492h5.586c2.98,0,4.787,1.995,4.787,4.535s-1.807,4.556-4.787,4.556h-4.557v5.606h-1.029V2.492z
		 M237.276,10.723c2.646,0,3.863-1.743,3.863-3.695s-1.218-3.674-3.863-3.674h-4.451v7.37H237.276z"/>
	<path d="M258.976,11.101c0,2.289-0.84,4.346-2.582,5.48l1.197,1.995l-0.715,0.42l-1.217-2.037
		c-0.756,0.336-1.639,0.525-2.667,0.525c-4.052,0-5.983-2.918-5.983-6.383v-2.52c0-3.464,1.932-6.383,5.983-6.383
		s5.983,2.918,5.983,6.383V11.101z M257.968,8.539c0-2.939-1.532-5.501-4.976-5.501s-4.976,2.562-4.976,5.501v2.604
		c0,2.939,1.532,5.501,4.976,5.501c0.86,0,1.596-0.168,2.226-0.441l-1.134-1.932l0.714-0.399l1.134,1.911
		c1.386-0.987,2.036-2.729,2.036-4.64V8.539z"/>
	<path d="M270.913,11.5h-0.461h-4.767v5.69h-1.028V2.492h5.836c3.023,0,4.746,2.1,4.746,4.514c0,2.058-1.239,3.779-3.339,4.325
		l3.296,5.858h-1.133L270.913,11.5z M270.305,10.66c2.624,0,3.905-1.659,3.905-3.653s-1.302-3.674-3.885-3.674h-4.64v7.328H270.305z
		"/>
	<path d="M280.204,13.158v-0.336h0.987v0.315c0,2.142,1.806,3.506,4.367,3.506c2.52,0,4.367-1.197,4.367-3.296
		c0-1.365-0.819-2.31-2.352-2.708l-4.347-1.134c-1.764-0.462-2.771-1.617-2.771-3.38c0-2.436,1.953-3.926,4.871-3.926
		c2.939,0,4.998,1.701,4.998,4.136V6.67h-0.945V6.355c0-1.953-1.574-3.317-4.053-3.317c-2.372,0-3.884,1.134-3.884,3.023
		c0,1.428,0.672,2.205,2.079,2.583l4.388,1.155c1.827,0.483,3.003,1.659,3.003,3.485c0,2.667-2.395,4.199-5.354,4.199
		C282.493,17.483,280.204,15.762,280.204,13.158z"/>
	<path d="M299.378,3.353h-4.662V2.492h10.352v0.861h-4.661v13.836h-1.028V3.353z"/>
	<path d="M309.981,12.402v-9.91h1.028v10.015c0,2.436,1.7,4.115,4.431,4.115c2.729,0,4.43-1.68,4.43-4.115V2.492h1.029v9.91
		c0,2.939-2.121,5.081-5.459,5.081C312.102,17.483,309.981,15.342,309.981,12.402z"/>
	<path d="M332.237,17.189h-1.218l-5.207-14.697h1.008l4.808,13.731l4.809-13.731h1.008L332.237,17.189z"/>
	<path d="M355.646,17.189h-1.071L350.46,3.584l-4.115,13.605h-1.07l-3.485-14.697h1.008l3.044,13.354l4.053-13.354h1.134
		l4.052,13.354l3.045-13.354h1.008L355.646,17.189z"/>
	<path d="M374.885,17.189h-1.112l-4.578-6.677l-4.576,6.677h-1.113l5.145-7.475l-4.955-7.223h1.07l4.43,6.425l4.431-6.425h1.071
		l-4.955,7.223L374.885,17.189z"/>
	<path d="M385.286,17.189h-1.008V11.5l-5.27-9.007h1.07l4.703,8.062l4.703-8.062h1.071l-5.271,9.007V17.189z"/>
	<path d="M394.887,16.329l8.776-12.976h-8.377V2.492h9.469v0.861l-8.776,12.976h9.028v0.861h-10.12V16.329z"/>
	<path d="M0.146,59.879c0-2.078,1.785-3.296,4.283-3.296c1.658,0,3.045,0.819,3.633,1.596v-2.12c0-1.764-1.155-3.107-3.045-3.107
		c-1.574,0-2.625,0.756-3.129,1.973H0.943c0.504-1.764,2.079-2.792,4.073-2.792c2.414,0,4.053,1.68,4.053,3.884v7.034H8.103v-1.491
		c-0.566,0.903-2.057,1.743-3.842,1.743C1.783,63.302,0.146,61.874,0.146,59.879z M8.062,59.9c0-1.596-1.953-2.52-3.633-2.52
		c-1.89,0-3.317,0.84-3.317,2.52c0,1.617,1.302,2.625,3.212,2.625C6.108,62.525,8.062,61.622,8.062,59.9z"/>
	<path d="M15.403,47.723v6.635c0.567-1.238,1.911-2.226,3.822-2.226c2.729,0,4.388,1.995,4.388,4.64v1.891
		c0,2.645-1.659,4.64-4.388,4.64c-1.975,0-3.339-1.028-3.885-2.331v2.079h-0.945V47.723H15.403z M22.605,56.835
		c0-2.204-1.239-3.884-3.569-3.884c-2.078,0-3.633,1.7-3.633,3.926v1.68c0,2.226,1.575,3.926,3.654,3.926
		c2.352,0,3.548-1.68,3.548-3.884V56.835z"/>
	<path d="M28.204,58.662v-1.891c0-2.666,1.784-4.64,4.598-4.64c2.604,0,4.221,1.7,4.493,3.884h-0.924
		c-0.294-1.7-1.407-3.064-3.569-3.064c-2.289,0-3.59,1.658-3.59,3.842v1.848c0,2.184,1.301,3.842,3.59,3.842
		c2.162,0,3.275-1.364,3.569-3.064h0.924c-0.272,2.184-1.89,3.884-4.493,3.884C29.988,63.302,28.204,61.328,28.204,58.662z"/>
	<path d="M51.112,47.723V63.05h-0.945v-2.079c-0.545,1.303-1.91,2.331-3.884,2.331c-2.729,0-4.388-1.995-4.388-4.64v-1.891
		c0-2.645,1.658-4.64,4.388-4.64c1.911,0,3.255,0.987,3.821,2.226v-6.635H51.112z M42.903,58.599c0,2.204,1.196,3.884,3.548,3.884
		c2.079,0,3.653-1.7,3.653-3.926v-1.68c0-2.226-1.554-3.926-3.633-3.926c-2.33,0-3.568,1.68-3.568,3.884V58.599z"/>
	<path d="M56.126,58.725v-1.848c0-2.855,1.659-4.745,4.535-4.745c2.855,0,4.41,2.1,4.41,4.599v1.428h-7.958v0.629
		c0,2.079,1.26,3.717,3.611,3.717c1.743,0,2.876-0.986,3.317-2.414h0.882c-0.42,1.889-2.036,3.212-4.199,3.212
		C57.89,63.302,56.126,61.454,56.126,58.725z M57.113,57.339h6.991v-0.651c0-2.1-1.154-3.758-3.443-3.758
		c-2.393,0-3.548,1.574-3.548,3.905V57.339z"/>
	<path d="M70.61,53.203h-1.658v-0.819h1.658V50.83c0-2.142,0.986-3.107,3.023-3.107h1.281v0.818h-1.219
		c-1.532,0-2.078,0.715-2.078,2.205v1.638h2.918v0.819h-2.918v9.847H70.61V53.203z"/>
	<path d="M78.46,64.436h1.008c0.693,1.154,2.016,1.722,3.527,1.722c2.1,0,3.443-1.176,3.443-3.023v-2.771
		c-0.398,1.028-1.869,2.268-3.801,2.268c-2.708,0-4.367-1.89-4.367-4.304v-1.869c0-2.457,1.639-4.325,4.347-4.325
		c2.184,0,3.423,1.239,3.863,2.247v-1.995h0.966v10.771c0,2.205-1.953,3.801-4.451,3.801C81.001,66.955,79.174,66.053,78.46,64.436z
		 M86.438,58.179v-1.532c0-1.995-1.596-3.695-3.611-3.695c-2.289,0-3.569,1.406-3.569,3.59v1.68c0,2.205,1.239,3.59,3.507,3.59
		C84.737,61.811,86.438,60.362,86.438,58.179z"/>
	<path d="M92.882,47.723h1.008v6.719c0.588-1.406,1.807-2.31,3.759-2.31c2.372,0,3.905,1.575,3.905,4.22v6.698h-1.008v-6.571
		c0-2.163-1.029-3.486-3.129-3.486c-1.932,0-3.527,1.344-3.527,3.843v6.215h-1.008V47.723z"/>
	<path d="M107.433,48.457c0.504,0,0.798,0.357,0.798,0.777c0,0.378-0.294,0.777-0.798,0.777s-0.798-0.399-0.798-0.777
		C106.635,48.814,106.929,48.457,107.433,48.457z M106.929,52.384h1.008V63.05h-1.008V52.384z"/>
	<path d="M111.282,65.885h0.566c1.219,0,1.659-0.525,1.659-1.555V52.384h1.008v11.968c0,1.533-0.819,2.352-2.436,2.352h-0.798
		V65.885z M114.012,48.457c0.504,0,0.798,0.357,0.798,0.777c0,0.378-0.294,0.777-0.798,0.777s-0.798-0.399-0.798-0.777
		C113.214,48.814,113.508,48.457,114.012,48.457z"/>
	<path d="M119.976,47.723h1.008v9.7l5.271-5.039h1.344l-5.396,5.123l5.647,5.543h-1.344l-5.522-5.459v5.459h-1.008V47.723z"/>
	<path d="M132.469,47.723h1.008V63.05h-1.008V47.723z"/>
	<path d="M146.466,63.05v-6.571c0-2.163-1.008-3.486-3.107-3.486c-1.869,0-3.422,1.344-3.422,3.843v6.215h-1.008V52.384h0.944v2.163
		c0.462-1.407,1.743-2.415,3.716-2.415c1.723,0,3.023,0.86,3.57,2.372c0.734-1.532,2.162-2.372,3.968-2.372
		c2.352,0,3.884,1.575,3.884,4.22v6.698h-1.008v-6.571c0-2.163-1.008-3.486-3.107-3.486c-1.848,0-3.422,1.344-3.422,3.843v6.215
		H146.466z"/>
	<path d="M160.411,52.384h0.945v2.163c0.482-1.407,1.785-2.415,3.821-2.415c2.372,0,3.905,1.575,3.905,4.22v6.698h-1.008v-6.571
		c0-2.163-1.029-3.486-3.129-3.486c-1.932,0-3.527,1.344-3.527,3.843v6.215h-1.008V52.384z"/>
	<path d="M173.987,58.662v-1.891c0-2.604,1.701-4.64,4.599-4.64s4.599,2.036,4.599,4.64v1.891c0,2.604-1.701,4.64-4.599,4.64
		S173.987,61.266,173.987,58.662z M178.586,52.951c-2.331,0-3.632,1.658-3.632,3.863v1.805c0,2.205,1.301,3.863,3.632,3.863
		s3.632-1.658,3.632-3.863v-1.805C182.218,54.609,180.917,52.951,178.586,52.951z"/>
	<path d="M188.194,66.703V52.384h0.944v2.079c0.546-1.303,1.911-2.331,3.884-2.331c2.73,0,4.389,1.995,4.389,4.64v1.891
		c0,2.645-1.658,4.64-4.389,4.64c-1.91,0-3.254-0.987-3.82-2.226v5.627H188.194z M196.403,56.835c0-2.204-1.197-3.884-3.549-3.884
		c-2.078,0-3.652,1.7-3.652,3.926v1.68c0,2.226,1.553,3.926,3.632,3.926c2.331,0,3.569-1.68,3.569-3.884V56.835z"/>
	<path d="M210.211,66.703v-5.627c-0.567,1.238-1.911,2.226-3.821,2.226c-2.729,0-4.389-1.995-4.389-4.64v-1.891
		c0-2.645,1.659-4.64,4.389-4.64c1.974,0,3.338,1.028,3.885,2.331v-2.079h0.944v14.319H210.211z M203.009,58.599
		c0,2.204,1.239,3.884,3.57,3.884c2.078,0,3.632-1.7,3.632-3.926v-1.68c0-2.226-1.575-3.926-3.653-3.926
		c-2.352,0-3.549,1.68-3.549,3.884V58.599z"/>
	<path d="M216.655,52.384h0.944v2.646c0.336-1.574,1.743-2.709,3.8-2.709h0.105v0.924h-0.105c-2.184,0-3.736,1.533-3.736,4.451
		v5.354h-1.008V52.384z"/>
	<path d="M225.294,60.006v-0.063h0.986v0.042c0,1.574,1.512,2.498,3.359,2.498c1.807,0,3.234-0.86,3.234-2.268
		c0-0.881-0.483-1.49-1.533-1.742l-3.506-0.861c-1.428-0.356-2.247-1.196-2.247-2.54c0-1.806,1.554-2.939,3.843-2.939
		c2.288,0,3.884,1.344,3.884,3.296v0.063h-0.987v-0.063c0-1.469-1.07-2.477-2.896-2.477c-1.764,0-2.855,0.776-2.855,2.12
		c0,0.903,0.504,1.407,1.448,1.638l3.464,0.861c1.596,0.398,2.373,1.26,2.373,2.624c0,1.89-1.953,3.107-4.241,3.107
		C227.163,63.302,225.294,62.021,225.294,60.006z"/>
	<path d="M242.299,63.05c-1.952,0-2.813-1.008-2.813-2.771v-7.075h-1.953v-0.819h1.953v-3.087h1.008v3.087h2.939v0.819h-2.939v7.075
		c0,1.364,0.504,1.952,1.953,1.952h0.944v0.819H242.299z"/>
	<path d="M256.659,63.05h-0.944v-2.163c-0.42,1.365-1.743,2.415-3.779,2.415c-2.372,0-3.863-1.575-3.863-4.22v-6.698h1.008v6.571
		c0,2.163,0.987,3.486,3.087,3.486c1.932,0,3.484-1.344,3.484-3.843v-6.215h1.008V63.05z"/>
	<path d="M266.341,63.05h-1.176l-3.926-10.666h1.008l3.506,9.658l3.507-9.658h1.008L266.341,63.05z"/>
	<path d="M285.446,63.05h-1.008l-3.066-9.574l-3.064,9.574H277.3l-2.961-10.666h0.945l2.54,9.47l3.023-9.47h1.05l3.023,9.47
		l2.541-9.47h0.944L285.446,63.05z"/>
	<path d="M301.012,63.05h-1.071l-3.212-4.683l-3.212,4.683h-1.071l3.737-5.417l-3.59-5.249h1.049l3.087,4.493l3.087-4.493h1.049
		l-3.59,5.249L301.012,63.05z"/>
	<path d="M308.978,63.05l-3.989-10.666h1.028l3.465,9.448l3.401-9.448h1.028l-3.884,10.624l-1.323,3.695h-0.986L308.978,63.05z"/>
	<path d="M318.073,62.252l6.697-9.028h-6.424v-0.84h7.537v0.798l-6.697,9.028h6.781v0.84h-7.895V62.252z"/>
	<path d="M2.771,95.304l-3.023,1.532v-0.944l3.191-1.68h0.84v14.697H2.771V95.304z"/>
	<path d="M9.267,108.09l6.362-6.844c1.05-1.113,1.764-2.143,1.764-3.443c0-1.827-1.47-3.045-3.401-3.045
		c-2.058,0-3.506,1.197-3.506,3.297v0.336H9.54v-0.379c0-2.604,1.848-4.094,4.451-4.094c2.498,0,4.409,1.574,4.409,3.885
		c0,1.7-0.86,2.75-2.079,4.052l-5.879,6.215h8.042v0.84H9.267V108.09z"/>
	<path d="M23.103,105.046h0.924c0.189,2.079,1.806,3.317,3.905,3.317c2.331,0,3.927-1.428,3.927-3.401
		c0-2.1-1.575-3.339-3.801-3.339h-1.91v-0.84l5.08-5.752h-7.18v-0.819h8.377v0.84l-5.165,5.774h0.966
		c2.646,0,4.619,1.616,4.619,4.072c0,2.52-2.226,4.305-4.934,4.305C25.517,109.203,23.292,107.691,23.103,105.046z"/>
	<path d="M45.041,105.214h-7.118v-0.798l5.082-10.204h0.944l-5.019,10.204h6.11v-3.611h0.944v3.611h2.121v0.798h-2.121v3.695h-0.944
		V105.214z"/>
	<path d="M53.187,105.445h0.966c0.462,1.658,1.827,2.918,3.884,2.918c2.479,0,4.137-1.785,4.137-4.031
		c0-2.162-1.574-3.989-3.926-3.989c-1.639,0-3.045,0.944-3.695,1.932h-1.008l1.364-8.062h7.055v0.84h-6.235l-1.092,6.089
		c0.84-1.008,2.1-1.638,3.758-1.638c2.729,0,4.766,2.142,4.766,4.829c0,2.729-2.184,4.871-5.144,4.871
		C55.622,109.203,53.712,107.733,53.187,105.445z"/>
	<path d="M68.187,104.395c0-1.406,0.504-2.582,1.217-3.716l4.031-6.467h1.071l-4.409,6.845v0.021
		c0.734-0.987,1.806-1.555,3.359-1.555c2.729,0,4.619,2.184,4.619,4.809c0,2.604-2.037,4.871-4.977,4.871
		C70.265,109.203,68.187,107.125,68.187,104.395z M77.089,104.354c0-2.205-1.491-4.031-3.885-4.031
		c-2.246,0-4.031,1.742-4.031,4.094c0,2.33,1.638,3.969,3.926,3.969C75.514,108.385,77.089,106.578,77.089,104.354z"/>
	<path d="M89.59,95.052h-7.895v-0.84h8.923v0.714l-6.655,13.983h-1.028L89.59,95.052z"/>
	<path d="M95.034,105.109c0-1.995,1.26-3.381,3.234-3.843c-1.491-0.504-2.625-1.7-2.625-3.507c0-2.309,1.701-3.842,4.346-3.842
		c2.646,0,4.347,1.533,4.347,3.842c0,1.807-1.134,3.003-2.624,3.507c1.973,0.462,3.232,1.848,3.232,3.843
		c0,2.414-2.057,4.094-4.955,4.094C97.093,109.203,95.034,107.523,95.034,105.109z M103.979,105.109c0-2.121-1.659-3.381-3.99-3.381
		c-2.33,0-3.988,1.26-3.988,3.381c0,1.973,1.721,3.316,3.988,3.316S103.979,107.082,103.979,105.109z M99.989,100.889
		c1.995,0,3.402-1.406,3.402-3.086c0-1.911-1.365-3.107-3.402-3.107c-2.036,0-3.4,1.196-3.4,3.107
		C96.589,99.482,97.995,100.889,99.989,100.889z"/>
	<path d="M119.604,98.705c0,1.406-0.566,2.688-1.218,3.737l-4.031,6.467h-1.071l4.41-6.845v-0.021
		c-0.631,0.903-1.911,1.555-3.359,1.555c-2.751,0-4.619-2.184-4.619-4.809c0-2.771,2.036-4.871,4.976-4.871
		C117.526,93.918,119.604,95.976,119.604,98.705z M110.702,98.768c0,2.268,1.386,4.031,3.885,4.031c2.246,0,4.031-1.826,4.031-4.094
		s-1.639-3.969-3.927-3.969C112.276,94.736,110.702,96.543,110.702,98.768z"/>
	<path d="M125.456,107.397c0.463,0,0.819,0.336,0.819,0.819c0,0.482-0.356,0.818-0.819,0.818c-0.461,0-0.818-0.336-0.818-0.818
		C124.638,107.733,124.995,107.397,125.456,107.397z M124.932,100.931v-6.719h1.05v6.719l-0.252,4.787h-0.504L124.932,100.931z"/>
	<path d="M135.663,108.889c-2.456-0.168-4.283-1.617-4.283-3.927v-0.378h0.967v0.357c0,2.016,1.574,3.148,3.8,3.148
		c2.163,0,3.695-1.133,3.695-2.98c0-1.219-0.63-2.079-2.016-2.604l-3.527-1.344c-1.764-0.672-2.751-1.617-2.751-3.339
		c0-2.142,1.533-3.464,4.011-3.591v-2.33h0.966v2.33c2.268,0.189,3.885,1.596,3.885,3.738v0.588h-0.945v-0.567
		c0-1.806-1.365-2.981-3.485-2.981c-2.1,0-3.464,1.008-3.464,2.813c0,1.407,0.86,2.036,2.078,2.499l3.506,1.344
		c1.807,0.692,2.709,1.764,2.709,3.4c0,2.227-1.826,3.675-4.178,3.843v2.31h-0.967V108.889z"/>
	<path d="M151.814,99.062c0,1.805-1.134,3.086-3.044,3.086c-1.911,0-3.045-1.281-3.045-3.086v-1.932
		c0-1.807,1.134-3.087,3.045-3.087c1.91,0,3.044,1.28,3.044,3.087V99.062z M151.038,99.104v-2.016c0-1.448-0.819-2.393-2.268-2.393
		c-1.428,0-2.268,0.965-2.268,2.393v2.016c0,1.428,0.84,2.395,2.268,2.395C150.219,101.498,151.038,100.553,151.038,99.104z
		 M156.538,94.212h0.819l-7.663,14.697h-0.819L156.538,94.212z M160.485,105.99c0,1.807-1.133,3.087-3.044,3.087
		s-3.044-1.28-3.044-3.087v-1.932c0-1.805,1.133-3.086,3.044-3.086s3.044,1.281,3.044,3.086V105.99z M159.709,106.033v-2.016
		c0-1.449-0.819-2.395-2.268-2.395c-1.428,0-2.268,0.967-2.268,2.395v2.016c0,1.428,0.84,2.393,2.268,2.393
		C158.89,108.426,159.709,107.481,159.709,106.033z"/>
	<path d="M173.472,97.719v-0.609c0-1.386-1.092-2.436-2.667-2.436s-2.813,0.818-2.813,2.373c0,1.133,0.693,2.016,1.281,2.624
		l6.109,6.235c0.314-0.692,0.482-1.512,0.482-2.372v-1.491h0.883v1.555c0,1.049-0.231,2.078-0.735,2.96l2.036,2.058l-0.588,0.588
		l-1.91-1.932c-0.924,1.154-2.414,1.932-4.557,1.932c-3.296,0-5.438-1.826-5.438-4.557c0-2.288,1.449-3.632,3.129-4.346
		l-0.147-0.168c-0.798-0.798-1.47-1.742-1.47-3.065c0-1.848,1.512-3.149,3.717-3.149c2.1,0,3.568,1.406,3.568,3.17v0.631H173.472z
		 M174.962,106.662l-5.689-5.773c-1.512,0.693-2.771,1.742-2.771,3.737c0,2.372,1.91,3.8,4.492,3.8
		C172.884,108.426,174.185,107.733,174.962,106.662z"/>
	<path d="M181.205,95.619l2.478,1.469v-2.876h0.566v2.876l2.457-1.469L187,96.102l-2.499,1.47L187,99.02l-0.294,0.483l-2.457-1.448
		v2.876h-0.566v-2.876l-2.478,1.448l-0.294-0.483l2.478-1.448l-2.478-1.47L181.205,95.619z"/>
	<path d="M195.652,92.49c-1.764,3.717-2.52,6.404-2.52,9.616s0.756,5.899,2.52,9.616h-0.987c-1.721-3.465-2.54-6.215-2.54-9.616
		s0.819-6.151,2.54-9.616H195.652z"/>
	<path d="M201.199,92.49c1.722,3.465,2.54,6.215,2.54,9.616s-0.818,6.151-2.54,9.616h-0.987c1.764-3.717,2.52-6.404,2.52-9.616
		s-0.756-5.899-2.52-9.616H201.199z"/>
</g>
</svg>
