<?xml version="1.0" encoding="utf-8"?>
<!-- Generator: Adobe Illustrator 18.1.1, SVG Export Plug-In . SVG Version: 6.00 Build 0)  -->
<svg version="1.1" id="Layer_1" xmlns="http://www.w3.org/2000/svg" xmlns:xlink="http://www.w3.org/1999/xlink" x="0px" y="0px"
	 viewBox="2.2 0 611.3 170.7" style="enable-background:new 2.2 0 611.3 170.7;" xml:space="preserve">
<style type="text/css">
	.st0{enable-background:new    ;}
</style>
<g class="st0">
	<path d="M23.4,24.9h-1.7l-2.6-6.7H7.2l-2.3,6.7H3.2l9.3-24.3h1.7L23.4,24.9z M8.1,16.8h10.7L13.6,2.3L8.1,16.8z"/>
	<path d="M28.3,0.6h9.5c4.1,0,6.4,2.6,6.4,6.1c0,2.6-1.4,4.6-3.8,5.8c3.2,0.9,5.2,2.6,5.2,6.1c0,3.8-2.9,6.7-7.8,6.7h-9.8V0.6H28.3z
		 M37.6,11.6c3.5,0,5.2-2.6,5.2-4.9c0-2.6-1.7-4.9-5.2-4.9h-7.5v9.8L37.6,11.6L37.6,11.6z M37.9,23.4c4.1,0,6.1-2,6.1-5.2
		c0-2.9-2.6-5.2-6.1-5.2h-8.1v10.4C29.8,23.4,37.9,23.4,37.9,23.4z"/>
	<path d="M50.3,14.8v-4.3C50.3,4.3,53.8,0,60.2,0c5.5,0,9,3.8,9.3,8.1h-1.7c-0.6-3.8-3.2-6.9-7.8-6.9c-5.2,0-8.1,3.8-8.1,9v4.3
		c0,5.2,2.6,9,8.1,9c4.6,0,7.2-3.2,7.8-6.9h1.7c-0.3,4.3-3.8,8.1-9.3,8.1C53.8,25.2,50.3,20.8,50.3,14.8z"/>
	<path d="M83.9,24.9h-8.7V0.6h8.7c6.1,0,9.5,4.1,9.5,9.3v5.5C93.5,20.8,90.3,24.9,83.9,24.9z M83.9,2h-6.7v21.4h6.7
		c5.2,0,8.1-3.2,8.1-7.8v-5.5C92,5.2,89.1,2,83.9,2z"/>
	<path d="M99.5,0.6h15.6V2h-13.9v9.8h13v1.4h-13v10.1h13.9v1.4H99.5V0.6L99.5,0.6z"/>
	<path d="M120.7,0.6H136V2h-13.6v10.1h12.4v1.4h-12.4v11.3h-1.7V0.6L120.7,0.6z"/>
	<path d="M139.2,14.5v-4.1c0-6.1,3.5-10.7,9.8-10.7c5.8,0,9.3,3.8,9.5,8.4h-1.7c-0.3-3.8-2.9-6.9-7.8-6.9c-5.5,0-8.1,3.8-8.1,9v4.1
		c0,5.2,2.6,9.3,8.4,9.3c4.9,0,7.8-3.2,7.8-7.8v-1.2h-7.5V13h9v2.3c0,5.5-3.5,9.5-9.5,9.5C142.6,25.2,139.2,20.5,139.2,14.5z"/>
	<path d="M164.6,0.6h1.7v11.3h14.2V0.6h1.7v24.3h-1.7V13.3h-14.2v11.6h-1.7V0.6z"/>
	<path d="M189.2,0.6h1.7v24.3h-1.7V0.6z"/>
	<path d="M195.9,18.5L195.9,18.5l1.7-0.3v0.3c0,3.2,2.3,5.2,6.1,5.2c3.8,0,6.1-2,6.1-5.5V0.3h1.7v17.9c0,4.1-3.2,6.9-7.8,6.9
		C199.1,25.2,195.9,22.6,195.9,18.5z"/>
	<path d="M217.9,0.6h1.7v11.9l12.2-11.9h2l-12.2,11.9l12.7,12.2h-2.3l-12.4-12.2v12.2h-1.7L217.9,0.6L217.9,0.6z"/>
	<path d="M238.4,0.6h1.7v22.9h13v1.4h-14.8V0.6z"/>
	<path d="M278.4,24.9h-1.7V3.8l-7.5,15h-1.7l-7.5-15v21.1h-1.7V0.6h1.7l8.4,16.8l8.4-16.8h1.7L278.4,24.9L278.4,24.9z"/>
	<path d="M285,0.6h1.7L301.2,22V0.6h1.7v24.3h-1.7L286.7,3.5v21.4H285V0.6z"/>
	<path d="M328.7,14.8c0,5.8-3.2,10.4-9.8,10.4c-6.7,0-9.8-4.9-9.8-10.4v-4.1c0-5.8,3.2-10.4,9.8-10.4c6.7,0,9.8,4.9,9.8,10.4V14.8z
		 M327,10.4c0-4.9-2.6-9-8.1-9c-5.8,0-8.1,4.3-8.1,9v4.3c0,4.9,2.6,9,8.1,9c5.8,0,8.1-4.3,8.1-9V10.4L327,10.4z"/>
	<path d="M334.5,0.6h9.3c4.9,0,7.8,3.2,7.8,7.5s-2.9,7.5-7.8,7.5h-7.5v9.3h-1.7C334.5,24.9,334.5,0.6,334.5,0.6z M343.7,14.2
		c4.3,0,6.4-2.9,6.4-6.1s-2-6.1-6.4-6.1h-7.2v12.2H343.7z"/>
	<path d="M375.6,14.8c0,3.8-1.4,7.2-4.3,9l2,3.2l-1.2,0.6l-2-3.5c-1.2,0.6-2.6,0.9-4.3,0.9c-6.7,0-9.8-4.9-9.8-10.4v-4.1
		c0-5.8,3.2-10.4,9.8-10.4c6.7,0,9.8,4.9,9.8,10.4V14.8L375.6,14.8z M373.8,10.4c0-4.9-2.6-9-8.1-9c-5.8,0-8.1,4.3-8.1,9v4.3
		c0,4.9,2.6,9,8.1,9c1.4,0,2.6-0.3,3.8-0.9l-1.7-3.2l1.2-0.6l1.7,3.2c2.3-1.7,3.5-4.6,3.5-7.5v-4.3H373.8z"/>
	<path d="M392.1,15.3h-0.9h-7.8v9.3h-1.7V0.3h9.5c4.9,0,7.8,3.5,7.8,7.5c0,3.5-2,6.4-5.5,7.2l5.5,9.5h-1.7L392.1,15.3z M390.9,13.9
		c4.3,0,6.4-2.6,6.4-6.1c0-3.2-2-6.1-6.4-6.1h-7.5v12.2H390.9z"/>
	<path d="M403.9,18.2v-0.6h1.7v0.6c0,3.5,2.9,5.8,7.2,5.8c4.1,0,7.2-2,7.2-5.5c0-2.3-1.4-3.8-3.8-4.3l-7.2-1.7
		c-2.9-0.9-4.6-2.6-4.6-5.5c0-4.1,3.2-6.4,8.1-6.4s8.4,2.9,8.4,6.9v0.6h-1.4V7.5c0-3.2-2.6-5.5-6.7-5.5c-4.1,0-6.4,1.7-6.4,4.9
		c0,2.3,1.2,3.8,3.5,4.3l7.2,2c2.9,0.9,4.9,2.6,4.9,5.8c0,4.3-4.1,6.9-9,6.9C407.7,25.2,403.9,22.6,403.9,18.2z"/>
	<path d="M431.7,2h-7.8V0.6H441V2h-7.8v22.9h-1.7L431.7,2L431.7,2z"/>
	<path d="M445.3,16.8V0.3h1.7v16.5c0,4.1,2.9,6.9,7.2,6.9c4.6,0,7.2-2.9,7.2-6.9V0.3h1.7v16.5c0,4.9-3.5,8.4-9,8.4
		S445.3,21.7,445.3,16.8z"/>
	<path d="M478.3,24.9h-2l-8.7-24.3h1.7l7.8,22.6L485,0.6h1.7L478.3,24.9z"/>
	<path d="M512.2,24.9h-2l-6.9-22.6l-6.9,22.6h-1.7l-5.8-24.3h1.7l4.9,22l6.7-22h1.7l6.7,22l4.9-22h1.7L512.2,24.9z"/>
	<path d="M539.4,24.9h-1.7l-7.5-11l-7.8,11h-1.7l8.4-12.4l-8.1-11.9h1.7l7.2,10.7L537,0.6h1.7l-8.1,11.9L539.4,24.9z"/>
	<path d="M551.5,24.9h-1.7v-9.3l-8.7-14.8h1.7l7.8,13.3l7.8-13.3h1.7l-8.7,14.8V24.9z"/>
	<path d="M562.5,23.4L577,2h-13.9V0.6h15.6V2l-14.5,21.4h15v1.4h-16.8V23.4L562.5,23.4z"/>
</g>
<g class="st0">
	<path d="M3.7,90.3c0-3.5,2.9-5.5,6.9-5.5c2.6,0,4.9,1.4,6.1,2.6v-3.5c0-2.9-2-5.2-4.9-5.2c-2.6,0-4.3,1.2-5.2,3.2H5.2
		c0.9-2.9,3.5-4.6,6.7-4.6c4.1,0,6.7,2.9,6.7,6.4v11.6h-1.7v-2.3c-0.9,1.4-3.5,2.9-6.4,2.9C6.4,95.8,3.7,93.5,3.7,90.3z M16.8,90.3
		c0-2.6-3.2-4.1-6.1-4.1c-3.2,0-5.5,1.4-5.5,4.1c0,2.6,2,4.3,5.2,4.3C13.6,94.6,16.8,93.2,16.8,90.3z"/>
	<path d="M26,70v11c0.9-2,3.2-3.8,6.4-3.8c4.6,0,7.2,3.2,7.2,7.5V88c0,4.3-2.6,7.5-7.2,7.5c-3.2,0-5.5-1.7-6.4-3.8v3.5h-1.4V69.7H26
		V70z M37.9,85.1c0-3.8-2-6.4-5.8-6.4c-3.5,0-6.1,2.9-6.1,6.4V88c0,3.8,2.6,6.4,6.1,6.4c3.8,0,5.8-2.9,5.8-6.4V85.1z"/>
	<path d="M43.7,88.3v-3.2c0-4.3,2.9-7.5,7.5-7.5c4.3,0,6.9,2.9,7.5,6.4h-1.4c-0.6-2.9-2.3-5.2-5.8-5.2c-3.8,0-6.1,2.6-6.1,6.4v3.2
		c0,3.5,2,6.4,6.1,6.4c3.5,0,5.5-2.3,5.8-5.2h1.4c-0.6,3.5-3.2,6.4-7.5,6.4C46.6,95.8,43.7,92.6,43.7,88.3z"/>
	<path d="M78.4,70v25.5H77V92c-0.9,2-3.2,3.8-6.4,3.8c-4.6,0-7.2-3.2-7.2-7.5v-3.2c0-4.3,2.6-7.5,7.2-7.5c3.2,0,5.5,1.7,6.4,3.8v-11
		h1.4V70z M64.8,88c0,3.8,2,6.4,5.8,6.4c3.5,0,6.1-2.9,6.1-6.4v-2.9c0-3.8-2.6-6.4-6.1-6.4c-3.8,0-5.8,2.9-5.8,6.4V88z"/>
	<path d="M83.3,88.3v-3.2c0-4.6,2.6-7.8,7.5-7.8c4.6,0,7.2,3.5,7.2,7.5v2.3h-13v1.2c0,3.5,2,6.1,6.1,6.1c2.9,0,4.6-1.7,5.5-4.1h1.4
		c-0.6,3.2-3.5,5.2-6.9,5.2C86.2,95.8,83.3,92.9,83.3,88.3z M85.1,85.9h11.6v-1.2c0-3.5-2-6.1-5.8-6.1c-4.1,0-5.8,2.6-5.8,6.4V85.9z
		"/>
	<path d="M104.4,79.3h-2.6v-1.4h2.6v-2.6c0-3.5,1.7-5.2,4.9-5.2h2v1.4h-2c-2.6,0-3.5,1.2-3.5,3.8v2.6h4.9v1.4h-4.9v16.2h-1.7
		L104.4,79.3L104.4,79.3z"/>
	<path d="M114,97.8h1.7c1.2,2,3.5,2.9,5.8,2.9c3.5,0,5.8-2,5.8-4.9v-4.6c-0.6,1.7-3.2,3.8-6.4,3.8c-4.3,0-7.2-3.2-7.2-7.2v-3.2
		c0-4.1,2.6-7.2,7.2-7.2c3.5,0,5.8,2,6.4,3.8v-3.2h1.7v17.9c0,3.8-3.2,6.4-7.2,6.4C118,101.9,115.2,100.4,114,97.8z M127,87.4v-2.6
		c0-3.2-2.6-6.1-6.1-6.1c-3.8,0-5.8,2.3-5.8,6.1v2.9c0,3.8,2,6.1,5.8,6.1C124.4,93.5,127,90.9,127,87.4z"/>
	<path d="M134.8,70h1.7v11c0.9-2.3,2.9-3.8,6.1-3.8c4.1,0,6.4,2.6,6.4,6.9v11h-1.7v-11c0-3.5-1.7-5.8-5.2-5.8
		c-3.2,0-5.8,2.3-5.8,6.4v10.1h-1.7L134.8,70L134.8,70z"/>
	<path d="M156,71.2c0.9,0,1.4,0.6,1.4,1.2c0,0.6-0.6,1.2-1.4,1.2c-0.9,0-1.4-0.6-1.4-1.2C154.8,71.8,155.1,71.2,156,71.2z
		 M155.1,77.8h1.7v17.7h-1.7V77.8z"/>
	<path d="M159.4,100.1h0.9c2,0,2.6-0.9,2.6-2.6V77.8h1.7v19.7c0,2.6-1.4,3.8-4.1,3.8h-1.4C159.4,101.6,159.4,100.1,159.4,100.1z
		 M164.1,71.2c0.9,0,1.4,0.6,1.4,1.2c0,0.6-0.6,1.2-1.4,1.2c-0.9,0-1.4-0.6-1.4-1.2C162.6,71.8,163.2,71.2,164.1,71.2z"/>
	<path d="M171,70h1.7v15.9l8.7-8.4h2.3l-9,8.4l9.3,9.3h-2.3l-9.3-9v9h-1.7V70H171z"/>
	<path d="M188.4,70h1.7v25.5h-1.7V70z"/>
	<path d="M208.9,95.5v-11c0-3.5-1.7-5.8-5.2-5.8c-3.2,0-5.8,2.3-5.8,6.4v10.1h-1.7V77.5h1.4V81c0.9-2.3,2.9-4.1,6.1-4.1
		c2.9,0,4.9,1.4,5.8,4.1c1.2-2.6,3.5-4.1,6.7-4.1c3.8,0,6.4,2.6,6.4,6.9v11h-1.2v-11c0-3.5-1.7-5.8-5.2-5.8c-3.2,0-5.8,2.3-5.8,6.4
		v10.1L208.9,95.5L208.9,95.5z"/>
	<path d="M228.9,77.8h1.4v3.5c0.9-2.3,2.9-4.1,6.4-4.1c4.1,0,6.4,2.6,6.4,6.9v11h-1.4v-11c0-3.5-1.7-5.8-5.2-5.8
		c-3.2,0-5.8,2.3-5.8,6.4v10.1h-1.7V77.8L228.9,77.8z"/>
	<path d="M248.3,88.3v-3.2c0-4.3,2.9-7.5,7.5-7.5c4.9,0,7.5,3.5,7.5,7.5v3.2c0,4.3-2.9,7.5-7.5,7.5S248.3,92.6,248.3,88.3z
		 M255.8,78.7c-3.8,0-6.1,2.6-6.1,6.4V88c0,3.8,2,6.4,6.1,6.4c3.8,0,6.1-2.6,6.1-6.4v-2.9C261.9,81.6,259.5,78.7,255.8,78.7z"/>
	<path d="M268.5,101.6V77.8h1.4v3.5c0.9-2,3.2-3.8,6.4-3.8c4.6,0,7.2,3.2,7.2,7.8v3.2c0,4.3-2.6,7.5-7.2,7.5c-3.2,0-5.5-1.7-6.4-3.8
		v9.3L268.5,101.6L268.5,101.6z M282.1,85.1c0-3.8-2-6.4-5.8-6.4c-3.5,0-6.1,2.9-6.1,6.4V88c0,3.8,2.6,6.4,6.1,6.4
		c3.8,0,5.8-2.9,5.8-6.4V85.1z"/>
	<path d="M301.5,101.6v-9.3c-0.9,2-3.2,3.8-6.4,3.8c-4.6,0-7.2-3.2-7.2-7.5v-3.2c0-4.3,2.6-7.5,7.2-7.5c3.2,0,5.5,1.7,6.4,3.8v-3.5
		h1.4v23.7L301.5,101.6L301.5,101.6z M289.6,88c0,3.8,2,6.4,5.8,6.4c3.5,0,6.1-2.9,6.1-6.4v-2.9c0-3.8-2.6-6.4-6.1-6.4
		c-3.8,0-5.8,2.9-5.8,6.4V88z"/>
	<path d="M309.3,77.8h1.4v4.3c0.6-2.6,2.9-4.3,6.4-4.3h0.3v1.4h-0.3c-3.5,0-6.1,2.6-6.1,7.2v9h-1.7V77.8z"/>
	<path d="M320,90.3L320,90.3h1.7l0,0c0,2.6,2.6,4.1,5.5,4.1s5.2-1.4,5.2-3.8c0-1.4-0.9-2.6-2.6-2.9l-5.8-1.4c-2.3-0.6-3.8-2-3.8-4.3
		c0-2.9,2.6-4.9,6.4-4.9c3.8,0,6.4,2.3,6.4,5.5l0,0h-1.7l0,0c0-2.3-1.7-4.1-4.9-4.1c-2.9,0-4.6,1.2-4.6,3.5c0,1.4,0.9,2.3,2.3,2.6
		l5.8,1.4c2.6,0.6,4.1,2,4.1,4.3c0,3.2-3.2,5.2-6.9,5.2C323.2,95.8,320,93.8,320,90.3z"/>
	<path d="M344.9,95.5c-3.2,0-4.6-1.7-4.6-4.6V79.3h-3.2v-1.4h3.2v-5.2h1.7v5.2h4.9v1.4H342v11.6c0,2.3,0.9,3.2,3.2,3.2h1.4v1.4
		H344.9z"/>
	<path d="M365.5,95.5H364V92c-0.6,2.3-2.9,4.1-6.4,4.1c-4.1,0-6.4-2.6-6.4-6.9v-11h1.7v11c0,3.5,1.7,5.8,5.2,5.8
		c3.2,0,5.8-2.3,5.8-6.4V78.4h1.7L365.5,95.5L365.5,95.5z"/>
	<path d="M378.2,95.5h-2l-6.4-17.7h1.7l5.8,15.9l5.8-15.9h1.7L378.2,95.5z"/>
	<path d="M405.4,95.5h-1.7l-5.2-15.9l-5.2,15.9h-1.2l-4.9-17.7h1.4l4.3,15.6l4.9-15.6h1.7l4.9,15.6l4.3-15.6h1.4L405.4,95.5z"/>
	<path d="M427.1,95.5h-1.7l-5.2-7.8l-5.2,7.8h-1.7l6.1-9l-6.1-8.7h1.7l5.2,7.5l5.2-7.5h1.7l-6.1,8.7L427.1,95.5z"/>
	<path d="M436.3,95.5l-6.7-17.7h1.7l5.8,15.6l5.5-15.6h1.7l-6.4,17.7l-2.3,6.1H434L436.3,95.5z"/>
	<path d="M447.3,94l11-15h-10.7v-1.4h12.4V79l-11,15h11.3v1.4h-13V94L447.3,94z"/>
</g>
<g class="st0">
	<path d="M8.1,143.5l-4.9,2.6v-1.4l5.2-2.9h1.4v24.3H8.1V143.5z"/>
	<path d="M15.9,164.6l10.4-11.3c1.7-1.7,2.9-3.5,2.9-5.8c0-2.9-2.3-4.9-5.5-4.9c-3.5,0-5.8,2-5.8,5.5v0.6h-1.4v-0.9
		c0-4.3,3.2-6.7,7.2-6.7s7.2,2.6,7.2,6.4c0,2.9-1.4,4.6-3.5,6.7l-9.8,10.1h13.3v1.4H15.6L15.9,164.6L15.9,164.6z"/>
	<path d="M35.9,159.7h1.4c0.3,3.5,2.9,5.5,6.4,5.5c3.8,0,6.4-2.3,6.4-5.5c0-3.5-2.6-5.5-6.4-5.5h-3.2v-1.4l8.4-9.5H37v-1.4h13.9v1.4
		l-8.4,9.5h1.7c4.3,0,7.5,2.6,7.5,6.7s-3.8,7.2-8.1,7.2C39.9,166.4,36.2,164.1,35.9,159.7z"/>
	<path d="M68.6,160H56.7v-1.4l8.4-16.8h1.4l-8.4,16.8h10.1v-6.1h1.4v6.1h3.5v1.4h-3.5v6.1h-1.4L68.6,160L68.6,160z"/>
	<path d="M77.8,160.3h1.7c0.9,2.6,2.9,4.9,6.4,4.9c4.1,0,6.9-2.9,6.9-6.7c0-3.5-2.6-6.7-6.4-6.7c-2.6,0-4.9,1.4-6.1,3.2h-1.7
		l2.3-13.3h11.6v1.4H82.2l-1.7,10.1c1.4-1.7,3.5-2.6,6.1-2.6c4.6,0,7.8,3.5,7.8,8.1c0,4.6-3.5,8.1-8.4,8.1
		C81.9,166.4,78.7,164.1,77.8,160.3z"/>
	<path d="M98.7,158.6c0-2.3,0.9-4.3,2-6.1l6.7-10.7h1.7l-7.2,11.3l0,0c1.2-1.7,2.9-2.6,5.5-2.6c4.6,0,7.5,3.5,7.5,7.8
		c0,4.3-3.5,8.1-8.1,8.1S98.7,163.2,98.7,158.6z M113.4,158.6c0-3.8-2.6-6.7-6.4-6.7s-6.7,2.9-6.7,6.7c0,3.8,2.6,6.7,6.4,6.7
		C110.8,165.2,113.4,162,113.4,158.6z"/>
	<path d="M131.9,143.2h-13v-1.4h14.8v1.2l-11,23.1h-1.7L131.9,143.2z"/>
	<path d="M137.1,159.7c0-3.2,2-5.5,5.2-6.4c-2.6-0.9-4.3-2.9-4.3-5.8c0-3.8,2.9-6.4,7.2-6.4s7.2,2.6,7.2,6.4c0,2.9-1.7,4.9-4.3,5.8
		c3.2,0.9,5.2,3.2,5.2,6.4c0,4.1-3.5,6.7-8.1,6.7C140.3,166.4,137.1,163.8,137.1,159.7z M151.9,159.7c0-3.5-2.6-5.5-6.7-5.5
		c-3.8,0-6.7,2-6.7,5.5c0,3.2,2.9,5.5,6.7,5.5C149,165.2,151.9,162.9,151.9,159.7z M145.2,152.8c3.2,0,5.5-2.3,5.5-5.2
		c0-3.2-2.3-5.2-5.5-5.2c-3.5,0-5.5,2-5.5,5.2C139.7,150.5,142.1,152.8,145.2,152.8z"/>
	<path d="M174.2,149c0,2.3-0.9,4.3-2,6.1l-6.7,10.7h-1.7l7.2-11.3l0,0c-1.2,1.4-3.2,2.6-5.5,2.6c-4.6,0-7.5-3.5-7.5-7.8
		c0-4.6,3.5-8.1,8.1-8.1C170.7,141.2,174.2,144.7,174.2,149z M159.4,149.3c0,3.8,2.3,6.7,6.4,6.7c3.8,0,6.7-2.9,6.7-6.7
		c0-3.8-2.6-6.7-6.4-6.7C162,142.7,159.4,145.5,159.4,149.3z"/>
	<path d="M180.8,163.5c0.9,0,1.4,0.6,1.4,1.4c0,0.9-0.6,1.4-1.4,1.4c-0.9,0-1.4-0.6-1.4-1.4C179.4,164.1,180,163.5,180.8,163.5z
		 M180,152.8v-11h1.7v11l-0.3,7.8h-0.9L180,152.8z"/>
	<path d="M194.7,166.1c-4.1-0.3-6.9-2.6-6.9-6.4v-0.6h1.7v0.6c0,3.5,2.6,5.2,6.4,5.2c3.5,0,6.1-1.7,6.1-4.9c0-2-1.2-3.5-3.5-4.3
		l-5.8-2.3c-2.9-1.2-4.6-2.6-4.6-5.5c0-3.5,2.6-5.8,6.7-6.1V138h1.7v3.8c3.8,0.3,6.4,2.6,6.4,6.1v0.9h-1.4v-0.9
		c0-2.9-2.3-4.9-5.8-4.9s-5.8,1.7-5.8,4.6c0,2.3,1.4,3.5,3.5,4.1l5.8,2.3c2.9,1.2,4.3,2.9,4.3,5.5c0,3.8-2.9,6.1-6.9,6.4v3.8h-1.7
		L194.7,166.1L194.7,166.1z"/>
	<path d="M218.2,149.6c0,2.9-1.7,5.2-4.9,5.2c-3.2,0-4.9-2-4.9-5.2v-3.2c0-2.9,1.7-5.2,4.9-5.2c3.2,0,4.9,2,4.9,5.2V149.6z
		 M217,149.9v-3.5c0-2.3-1.4-4.1-3.8-4.1c-2.3,0-3.8,1.7-3.8,4.1v3.5c0,2.3,1.4,4.1,3.8,4.1C215.6,153.7,217,152.2,217,149.9z
		 M226,141.8h1.4l-12.7,24.3h-1.4L226,141.8z M232.6,161.2c0,2.9-1.7,5.2-4.9,5.2c-3.2,0-4.9-2-4.9-5.2V158c0-2.9,1.7-5.2,4.9-5.2
		c3.2,0,4.9,2,4.9,5.2V161.2z M231.2,161.2v-3.5c0-2.3-1.4-4.1-3.8-4.1s-3.8,1.7-3.8,4.1v3.5c0,2.3,1.4,4.1,3.8,4.1
		C230,165.2,231.2,163.8,231.2,161.2z"/>
	<path d="M250.3,147.6v-0.9c0-2.3-1.7-4.1-4.3-4.1s-4.6,1.4-4.6,4.1c0,1.7,1.2,3.5,2,4.3l10.1,10.4c0.6-1.2,0.9-2.6,0.9-4.1v-2.6
		h1.4v2.6c0,1.7-0.3,3.5-1.2,4.9l3.5,3.5l-0.9,0.9l-3.2-3.2c-1.4,2-4.1,3.2-7.5,3.2c-5.5,0-9-2.9-9-7.5c0-3.8,2.3-6.1,5.2-7.2
		l-0.3-0.3c-1.4-1.4-2.3-2.9-2.3-5.2c0-3.2,2.6-5.2,6.1-5.2c3.5,0,5.8,2.3,5.8,5.2v1.2L250.3,147.6L250.3,147.6z M252.9,162.3
		l-9.3-9.5c-2.6,1.2-4.6,2.9-4.6,6.1c0,4.1,3.2,6.4,7.5,6.4C249.4,165.2,251.4,164.1,252.9,162.3z"/>
	<path d="M261,144.1l4.1,2.3v-4.6h0.9v4.6l4.1-2.3l0.6,0.9l-4.1,2.3l4.1,2.3l-0.6,0.9l-4.1-2.3v4.6H265v-4.6l-4.1,2.3l-0.6-0.9
		l4.1-2.3l-4.1-2.3L261,144.1z"/>
	<path d="M281.2,138.9c-2.9,6.1-4.1,10.7-4.1,15.9s1.2,9.8,4.1,15.9h-1.7c-2.9-5.8-4.3-10.4-4.3-15.9s1.4-10.1,4.3-15.9
		C279.8,138.9,281.2,138.9,281.2,138.9z"/>
	<path d="M286.2,138.9c2.9,5.8,4.3,10.1,4.3,15.9c0,5.5-1.4,10.1-4.3,15.9h-1.7c2.9-6.1,4.1-10.7,4.1-15.9s-1.2-9.8-4.1-15.9H286.2z
		"/>
</g>
</svg>
