<?xml version="1.0" encoding="utf-8"?>
<!-- Generator: Adobe Illustrator 18.1.1, SVG Export Plug-In . SVG Version: 6.00 Build 0)  -->
<svg version="1.1" xmlns="http://www.w3.org/2000/svg" xmlns:xlink="http://www.w3.org/1999/xlink" x="0px" y="0px"
	 viewBox="0 0 156.6 48.4" style="enable-background:new 0 0 156.6 48.4;" xml:space="preserve">
<style type="text/css">
	.st0{fill:#F47414;}
	.st1{clip-path:url(#SVGID_2_);fill:#221F20;}
	.st2{fill:#221F20;}
	.st3{clip-path:url(#SVGID_4_);fill:#221F20;}
	.st4{fill:#CD0A44;}
	.st5{clip-path:url(#SVGID_6_);}
	.st6{clip-path:url(#SVGID_8_);}
	.st7{fill:#007BFF;}
	.st8{clip-path:url(#SVGID_10_);fill:#221F20;}
	.st9{clip-path:url(#SVGID_12_);fill:#221F20;}
	.st10{clip-path:url(#SVGID_14_);}
	.st11{clip-path:url(#SVGID_16_);}
	.st12{fill:#50CC73;}
	.st13{clip-path:url(#SVGID_18_);fill:#221F20;}
	.st14{clip-path:url(#SVGID_20_);fill:#221F20;}
	.st15{fill:#854CF2;}
	.st16{fill:#38B7BA;}
	.st17{fill:#CCCCCC;}
</style>
<g id="Layer_1">
	<path class="st0" d="M7,229.3c-3.2,0-5.4-2.2-5.4-5.1c0-2.9,2.2-5.1,5.4-5.1c1.1,0,2.2,0.3,3.1,0.9L9.4,222
		c-0.7-0.4-1.5-0.7-2.3-0.7c-1.8,0-3,1.1-3,2.9c0,1.8,1.1,2.9,3,2.9c0.8,0,1.7-0.3,2.5-0.7l0.7,1.9C9.3,229,8.1,229.3,7,229.3z"/>
	<path class="st0" d="M17.5,229.3c-3,0-5-2.2-5-5.1c0-2.9,2-5.1,5.1-5.1c3,0,5,2.2,5,5.1C22.6,227.1,20.5,229.3,17.5,229.3z
		 M17.5,221.2c-1.6,0-2.6,1.3-2.6,3c0,1.8,1,3,2.6,3c1.6,0,2.6-1.3,2.6-3C20.1,222.5,19.1,221.2,17.5,221.2z"/>
	<path class="st0" d="M33.7,229.2l-0.1-4.8l-2.7,3.4h-0.2l-2.7-3.4l-0.1,4.8h-2.2l0.5-9.9l0.3,0l4.5,5.6l4.3-5.6l0.3,0l0.5,9.9H33.7
		z"/>
	<path class="st0" d="M47.4,229.2l-0.1-4.8l-2.7,3.4h-0.2l-2.7-3.4l-0.1,4.8h-2.2l0.5-9.9l0.3,0l4.5,5.6l4.3-5.6l0.3,0l0.5,9.9H47.4
		z"/>
	<path class="st0" d="M57.1,229.3c-2.6,0-4.1-1.4-4.1-4.2v-5.8h2.3v5.7c0,1.4,0.6,2.2,1.9,2.2c1.3,0,1.9-0.8,1.9-2.2v-5.7h2.3v5.8
		C61.3,227.9,59.7,229.3,57.1,229.3z"/>
	<path class="st0" d="M73,229.4l-5.9-5.3v5.1h-2.3v-10l0.3-0.1l5.8,5.3v-5.1h2.3v10L73,229.4z"/>
	<path class="st0" d="M76.9,229.2v-9.8h2.3v9.8H76.9z"/>
	<path class="st0" d="M87.8,229.3c-3.2,0-5.4-2.2-5.4-5.1c0-2.9,2.2-5.1,5.4-5.1c1.1,0,2.2,0.3,3.1,0.9l-0.7,1.9
		c-0.7-0.4-1.5-0.7-2.3-0.7c-1.8,0-3,1.1-3,2.9c0,1.8,1.1,2.9,3,2.9c0.8,0,1.7-0.3,2.5-0.7l0.7,1.9C90.1,229,89,229.3,87.8,229.3z"
		/>
	<path class="st0" d="M100.3,229.2l-0.7-1.8h-3.4l-0.7,1.8h-2.3l4.6-9.9H98l4.6,9.9H100.3z M97.8,223.3l-1,2.4h1.9L97.8,223.3z"/>
	<path class="st0" d="M108.5,221.4v7.7h-2.3v-7.7h-2.9v-2.1h8.2v2.1H108.5z"/>
	<path class="st0" d="M114.3,229.2v-9.8h2.3v9.8H114.3z"/>
	<path class="st0" d="M124.8,229.3c-3,0-5-2.2-5-5.1c0-2.9,2-5.1,5.1-5.1c3,0,5,2.2,5,5.1C129.9,227.1,127.8,229.3,124.8,229.3z
		 M124.8,221.2c-1.6,0-2.6,1.3-2.6,3c0,1.8,1,3,2.6,3c1.6,0,2.6-1.3,2.6-3C127.4,222.5,126.4,221.2,124.8,221.2z"/>
	<path class="st0" d="M141.3,229.4l-5.9-5.3v5.1h-2.3v-10l0.3-0.1l5.8,5.3v-5.1h2.3v10L141.3,229.4z"/>
	<path class="st0" d="M147.8,229.3c-1.1,0-2.5-0.4-3.3-1l0.6-2.1c0.8,0.6,1.8,1,2.7,1c0.8,0,1.1-0.4,1.1-0.9c0-0.5-0.3-0.9-1.8-1.5
		c-1.7-0.7-2.3-1.7-2.3-2.9c0-1.4,1.2-2.8,3.5-2.8c1.1,0,2.2,0.4,2.7,0.8l-0.6,2c-0.6-0.4-1.5-0.8-2.2-0.8c-0.8,0-1.2,0.4-1.2,0.8
		c0,0.6,0.5,0.9,1.7,1.4c1.8,0.8,2.4,1.7,2.4,2.9C151.3,227.8,150.2,229.3,147.8,229.3z"/>
	<g>
		<defs>
			<rect id="SVGID_1_" x="0" y="181.1" width="156.6" height="34.4"/>
		</defs>
		<clipPath id="SVGID_2_">
			<use xlink:href="#SVGID_1_"  style="overflow:visible;"/>
		</clipPath>
		<path class="st1" d="M55.6,181.1c-7.9,1.2-13.6,5.6-13.6,7.8c0,2.6,4,4.7,6.7,7.6c1.4,1.5,1.8,2.8,1.8,4.1c0,0.7-0.1,1.4-0.3,1.8
			c-0.4,0.6-2.2,1.5-3.5,1.3c-2.7-0.5-3.2-4.3-2.5-6.2c0.1-0.3,0-0.9-0.4-1.1c-0.4-0.3-1.1-0.2-1.4,0.6c-0.7,1.8-1.2,6.4,1.5,8.3
			c0.9,0.6,1.9,0.8,3.5,0.8c4.6,0,7.4-3.5,8.7-6.9c1.4-3.7,2-7-1.8-10.2c-1-0.8-1.7-2.4-1.5-3.2c0.3-1,1.1-1.2,1.1-0.6
			c0,1.1,2.7,2,3.5-1.7C57.5,183.1,56.8,181,55.6,181.1"/>
	</g>
	<path class="st2" d="M73.6,197.4c-0.3,0.3-0.1,0.1-0.4,0.5c-0.2,0.3-1.4,1.5-2.6,1.6c-1.6,0.2-1.8-2-1.8-2.8c0-1.1,0.8-3,2-3
		c0.4,0,0.4,0.1,0.5,0.3c0.1,0.2,0.2,0.2,0.1,0.5c-0.7,1.5-0.5,2.3,0,2.3c0.2,0,0.3-0.1,0.4-0.2c0.2-0.1,1.5-1.1,1.5-2
		c0-0.9-0.6-2.9-1.7-3.2c-0.4-0.1-1.6,0.2-2.5,0.8c-1.5,0.9-2.5,3.2-2.5,3.2c-0.7,0.9-1,1.1-1.4,1.6c-0.5,0.5-1.3,1.5-2.2,1.6
		c-0.7,0-1-0.8-1.2-1.4c-0.1-0.2-0.2-0.8-0.2-0.8c0.1,0,0.3-0.1,0.5-0.1c0.4-0.1,3.3-1.9,3.3-4.1c0-0.8-0.7-1.4-1.2-1.4
		c-0.5,0-1.7,0.2-2.5,0.8c-1.3,0.9-2.3,1.9-2.8,2.5c-1.2,1.7-1.8,4.9-0.3,6.6c0.7,0.8,1.5,1.5,2.5,1.6c2.2,0.4,3.5-2.6,4.6-3.5
		c0.2,2,0.5,2.6,1.3,3.2c0.8,0.6,1.8,0.7,3.2-0.2c1.4-0.8,3-2.2,3.5-2.9c0,1.7,1.2,3,2.9,3.2c3.1,0.4,5-4.1,5.4-6.2
		c0.3-1.7-0.1-2.4,0.1-2.5c0.2-0.1,1.4-0.4,1.6-0.3c0.3,0.1,0.7,2,0.5,3.2c-0.3,1.8-1,5,0.3,5.1c1.2,0.1,3.1-3.2,3.9-3.2
		c1,0,1.4,2.6,2.7,2.7c1.2,0,2.5-1.4,3.2-1.4c-0.1,1.8,0.8,3,2.3,3c2.6,0,6.2-4.9,7.4-6.2c-0.4,2.2-0.5,5.3-0.5,5.9
		c0,0.7,0.4,1.6,0.8,1.6c1.2,0,3.1-1.2,3.7-2.7c0-0.9,0.4-2.8,1.3-4.6c1.1-2.4,1.9-5,1.9-5.9c0-1.2-1-5.3-2.2-5.5
		c-0.8-0.1-2.6,1.2-2.8,1.5c-0.4,0.5-0.4,1.2-0.6,2.2c-0.3,1.4-0.5,2.9-1.1,4.2c-0.5,1-0.9,2-1.4,2.8c-1.3,1.8-2.8,2.7-3.1,2.5
		c-0.3-0.2-0.3-1.3,0.1-2.3c0.2-0.6,0.5-0.9,1.1-1c0.5-0.1,1.1-0.1,1.2-0.1c0.4,0.1,0.6-0.6,0.6-1c0-0.4-1-0.5-2-0.4
		c-3.1,0.2-3.9,1.5-4.7,2.9c-1.4,2.1-3.1,1.7-3.8,0.4c-0.7-1.2-1.2-2.6-2.2-2.2c-0.5,0.2-1.4,0.8-1.7,1.1c-0.3,0.3-0.8,0.7-0.9,0.6
		c-0.1-0.2,0.2-1.1,0.2-1.6c0.3-2.1,0.4-4-0.5-4.5c-0.4-0.2-2,0-3.1,0.6c-0.5,0.2-3.1,1.3-4.3,1.3c-0.4,0-0.5-0.5-0.9-0.5
		C75.7,191.6,73.6,195.6,73.6,197.4 M61.2,195.1c-0.1-0.3-0.2-0.8-0.2-1.2c0-0.3,0.3-0.6,0.5-0.7c0.3-0.2,0.6-0.5,0.8-0.4
		c0.2,0,0.4,0.2,0.5,0.4c0.1,0.2,0,0.9-0.2,1.2C62.3,194.6,61.8,195.1,61.2,195.1z M80.7,195.6c0,0.6-0.8,2.4-1.4,2.9
		c-0.4,0.3-0.9,0.3-1.3-0.1c-0.4-0.4-0.8-1.1-0.5-2.5c0.1-0.7,0.6-1.7,1.3-1.8c0.1,0,1,0,1.3-0.1C80.6,193.8,80.7,194.2,80.7,195.6z
		"/>
	<g>
		<defs>
			<rect id="SVGID_3_" x="0" y="181.1" width="156.6" height="34.4"/>
		</defs>
		<clipPath id="SVGID_4_">
			<use xlink:href="#SVGID_3_"  style="overflow:visible;"/>
		</clipPath>
		<path class="st3" d="M124.4,185.1c-2.2,0-9.9,4.7-10.4,10c-0.3,4,2,8.1,4,8.8c0.4,0.2,1.4,0.2,2.4-0.1c3.4-1.1,7.3-5.6,9.7-8.8
			c0.1-0.1,0.2,0,0.2,0.2c-0.4,2.1-0.6,3.7-0.5,4.7c0.1,1.3,1.1,1.8,1.5,1.8c1.1,0.2,3-3,3.8-4.4c0-0.1,0.1-0.1,0.1,0.1
			c-0.1,2.8,0.4,4,0.9,4.4c0.3,0.3,1.1,0.6,1.3,0.5c1.5-0.1,3.2-2.8,4.3-4.7c0.1-0.2,0.2,0.1,0.2,0.3c0,3,0.4,3.7,1,3.9
			c0.1,0.1,0.8,0.3,1.1,0.3c1.1-0.3,2.5-1.4,3.7-3.1c-0.2,3.5-2.9,10.9-3.5,13.8c-0.2,1.1-0.2,1.9-0.1,2c0.6,0.6,2.9,0.8,4.7,0.1
			c1.7-0.7,2.3-1.8,2.4-2.1c0.2-1.2-1.4-7.9,1-16.2c0-0.1,0.1-0.2,0.2-0.5c0.2-0.4,0.1-1.1-0.5-1.9c-0.3-0.5-0.9-0.6-1.6-0.5
			c-0.8,0.2-0.9,0.4-1.3,1.2c-0.4,0.8-1.8,3-2.8,2.9c-0.7,0-0.8-0.5-0.8-1.2c-0.1-0.9-0.3-2.6-0.3-2.9c0-0.3-0.1-0.8-0.9-0.8
			c-1.1,0.1-2.3,2.5-4,4.1c-0.7,0.7-1.1,0.5-1.3,0.4c-0.2-0.1-0.2-1.7-0.1-3.1c0.1-0.9,1.1-5,1.2-6c2,0.2,4.7,0.5,7.3,0.6
			c2.5,0.1,4.8-0.1,6.4,0c0.9-0.6,2.7-3.1,2.9-4c0.1-0.6,0-1-0.8-1.1c-2.8-0.2-5.4,0.3-8.3,1.1c-2.1,0.6-2.7,0.7-3.5,0.9
			c-0.8,0.2-3.3,0.5-3.9,0.6c0-0.4,0.2-0.8-0.1-0.9c-0.4-0.2-1.1-0.2-1.7,0.2c-0.2,0.2-0.4,0.6-0.4,0.9c-1.5,0.2-3.3,0.1-4.2-0.2
			c-0.3-0.1-0.5-0.3-0.5-0.5c0-0.2-0.2-1.2-0.4-1.4c-0.2-0.2-0.2-1.3-0.4-1.4c-0.3-0.1-1.4-0.7-2.7,1.6c-0.8,1.5-0.7,2-0.2,2.5
			c0.2,0.2,0.6,0.4,0.9,0.4c1.1,0,1.7-0.2,2.2-0.5c0.5-0.3,0.6-0.1,1.1,0.1c0.5,0.2,2.6,0.7,3.7,0.8c-0.6,1.6-1.8,4.7-2.1,6
			c-0.7,1.3-1.8,3-2.4,3c-0.4,0-0.6-0.4-0.7-0.7c-0.1-0.5,0.2-2.2,0.4-3.5c0.2-1.3,0.7-2.5-0.5-2.5c-1.1,0-1.1,0.1-1.5,0.6
			c-2.2,2.8-5.8,6.4-8.2,7c-1.4,0.3-2.8-2.3-2.8-3.6c0-1.8,0.6-3.8,2.5-5.1c0.2-0.2,0.2-0.2,0.3-0.2c0.1,0,0.4-0.1,0.5,0.2
			c0.1,0.2,0.4,1.2,0.9,1.2c0.7,0,1.9-1.7,1.9-4C125.6,185.2,124.5,185.1,124.4,185.1"/>
		<path class="st3" d="M40.1,197.6c-0.1-0.7-1-0.3-1.5,0c-0.5,0.2-1,0.7-1,1.2c0,0.5,0.1,1,0,1.3c0,0.4-0.1,0.7-0.7,0.8
			c-0.5,0.1-1.3-0.2-1.7-0.7c-0.9-1.1-1-1.3-1.2-1.8c0.8-0.6,2.2-1.5,2.3-3c0.2-1.8-2.3-1.5-3.8-0.7c-3,1.6-3.4,3.1-3.1,4.3
			c-1,1-2.2,1.1-3.4,0.5c-2.4-1.2-2.1-2.9-3.6-3.2c-1.5-0.3-2.6,1-3.2,1c0.7-3.4,2.3-8,5.4-13.6c0-0.1,0.1-0.4-0.3-0.5
			c-0.4-0.1-1.6-0.2-2.2,0.3c-0.7,0.5-1.1,1.3-1.4,1.9c-1.4,0.6-2,0.8-3.9,0.9c-0.9,0.1-2,0.1-2.4,0.1c0-0.6-0.1-2.2-0.2-2.5
			c-0.1-0.3-0.4-0.7-1-0.6c-1.2,0.2-3.7,0.9-3.9,2.6c-1.4-0.1-3.8-0.8-5.5-0.7c-3.3,0.2-3.8,0.4-3.9,1.3c-0.1,0.5,0.1,0.9,0.1,1.1
			c0,0.2,0.1,0.9,0.8,0.8c2.9-0.6,7.1-0.5,8.1-0.5c-0.3,3.1-1.2,10.1-1.9,12.9c-0.6,2.2-1,3.6,0.7,2.9c1.8-0.8,2.5-1.2,3.1-1.6
			c0.6-0.4,1.8-1.6,2.1-3.3c0.3-2.2,0.9-4.9,0.9-5.8c0.1-0.9,0.4-4,0.6-5c2,0,4.6-0.8,5.4-1.1c-3.4,6.3-5.4,13.3-5.3,14.6
			c0.1,0.6,0.5,0.9,1.3,0.8c0.8-0.1,2-0.9,2.7-1.7c0.7-0.7,1.4-1,2.2-0.9c0.9,0.1,1.3,0.4,1.5,1c0.6,1.2,1.6,1.7,3.3,1.4
			c2.2-0.3,3-1.2,4.1-1.9c1,2,2.3,2.9,5.1,3c1.6,0,3.7-1.2,4.6-2.3C39.9,200,40.1,198.3,40.1,197.6 M33.4,197.2
			c-0.2-0.2-0.3-1.1-0.4-1.6c0.1-0.3,0.9-0.7,1.3-0.4c0.5,0.3,0.7,0.9,0,1.7C34,197.1,33.7,197.3,33.4,197.2z"/>
	</g>
	<path class="st2" d="M154.9,196c-0.2,0.2-0.5,0.3-0.8,0.3c-0.3,0-0.5-0.1-0.8-0.3c-0.2-0.2-0.3-0.5-0.3-0.8c0-0.3,0.1-0.5,0.3-0.8
		c0.2-0.2,0.5-0.3,0.8-0.3c0.3,0,0.5,0.1,0.8,0.3c0.2,0.2,0.3,0.5,0.3,0.8C155.2,195.5,155.1,195.8,154.9,196 M153.5,194.6
		c-0.2,0.2-0.3,0.4-0.3,0.6c0,0.3,0.1,0.5,0.3,0.7c0.2,0.2,0.4,0.3,0.7,0.3c0.3,0,0.5-0.1,0.6-0.3c0.2-0.2,0.3-0.4,0.3-0.7
		c0-0.3-0.1-0.5-0.3-0.6c-0.2-0.2-0.4-0.3-0.6-0.3C153.9,194.3,153.7,194.4,153.5,194.6z M154.1,194.6c0.1,0,0.3,0,0.3,0
		c0.1,0,0.2,0.1,0.2,0.3c0,0.1,0,0.2-0.1,0.2c0,0-0.1,0-0.2,0.1c0.1,0,0.2,0.1,0.2,0.1c0,0.1,0.1,0.1,0.1,0.2v0.1c0,0,0,0.1,0,0.1
		c0,0,0,0.1,0,0.1l0,0h-0.2c0,0,0,0,0,0c0,0,0,0,0,0l0,0v-0.1c0-0.1,0-0.2-0.1-0.3c0,0-0.1,0-0.2,0h-0.2v0.5h-0.2v-1.2H154.1z
		 M154.4,194.8c-0.1,0-0.1,0-0.3,0h-0.2v0.4h0.2c0.1,0,0.2,0,0.2,0c0.1,0,0.1-0.1,0.1-0.2C154.4,194.9,154.4,194.8,154.4,194.8z"/>
	<rect x="0" y="212.4" class="st0" width="139.3" height="1.3"/>
	<path class="st4" d="M47.4-132.2l-5.9-5.3v5.1h-2.3v-10l0.3-0.1l5.8,5.3v-5.1h2.3v10L47.4-132.2z"/>
	<path class="st4" d="M51.3-132.4v-9.8h6.2v2.1h-3.9v1.8h3.6v2h-3.6v1.9h3.9v2.1H51.3z"/>
	<path class="st4" d="M65.4-140.2v7.7h-2.3v-7.7h-2.9v-2.1h8.2v2.1H65.4z"/>
	<path class="st4" d="M80.8-132.3l-0.3,0l-3-5.9l-3,5.9l-0.3,0l-3.6-10h2.6l1.6,5.2l2.6-5.2h0.2l2.6,5.2l1.6-5.1h2.6L80.8-132.3z"/>
	<path class="st4" d="M90.5-132.3c-3,0-5-2.2-5-5.1c0-2.9,2-5.1,5.1-5.1c3,0,5,2.2,5,5.1C95.6-134.5,93.6-132.3,90.5-132.3z
		 M90.6-140.4c-1.6,0-2.6,1.3-2.6,3c0,1.8,1,3,2.6,3c1.6,0,2.6-1.3,2.6-3C93.2-139.1,92.1-140.4,90.6-140.4z"/>
	<path class="st4" d="M103.2-132.4l-1.7-3.2c-0.1,0-0.3,0-0.4,0c-0.3,0-0.5,0-0.8,0v3.2h-2.3v-9.7c0.8-0.1,1.7-0.2,2.9-0.2
		c3.1,0,4.3,1.5,4.3,3.3c0,1.2-0.6,2.2-1.7,2.8l2.3,3.8H103.2z M101.2-140.3c-0.3,0-0.6,0-0.9,0.1v2.7c0.3,0,0.5,0,0.7,0
		c1.1,0,1.8-0.5,1.8-1.5C102.8-139.8,102.2-140.3,101.2-140.3z"/>
	<path class="st4" d="M114.7-132.4l-3.6-4.6v4.6h-2.3v-9.8h2.3v4.3l3.4-4.3h2.7l-4,4.7l4.2,5.1H114.7z"/>
	<g>
		<defs>
			<rect id="SVGID_5_" x="0" y="-180.9" width="156.6" height="34.4"/>
		</defs>
		<clipPath id="SVGID_6_">
			<use xlink:href="#SVGID_5_"  style="overflow:visible;"/>
		</clipPath>
		<g class="st5">
			<path class="st2" d="M55.6-180.9c-7.9,1.2-13.6,5.6-13.6,7.8c0,2.6,4,4.7,6.7,7.6c1.4,1.5,1.8,2.8,1.8,4.1c0,0.7-0.1,1.4-0.3,1.8
				c-0.4,0.6-2.2,1.5-3.5,1.3c-2.7-0.5-3.2-4.3-2.5-6.2c0.1-0.3,0-0.9-0.4-1.1c-0.4-0.3-1.1-0.2-1.4,0.6c-0.7,1.8-1.2,6.4,1.5,8.3
				c0.9,0.6,1.9,0.8,3.5,0.8c4.6,0,7.4-3.5,8.7-6.9c1.4-3.7,2-7-1.8-10.2c-1-0.8-1.7-2.4-1.5-3.2c0.3-1,1.1-1.2,1.1-0.6
				c0,1.1,2.7,2,3.5-1.7C57.5-178.9,56.8-181.1,55.6-180.9"/>
		</g>
	</g>
	<g>
		<path class="st2" d="M73.6-164.7c-0.3,0.3-0.1,0.1-0.4,0.5c-0.2,0.3-1.4,1.5-2.6,1.6c-1.6,0.2-1.8-2-1.8-2.8c0-1.1,0.8-3,2-3
			c0.4,0,0.4,0.1,0.5,0.3c0.1,0.2,0.2,0.2,0.1,0.5c-0.7,1.5-0.5,2.3,0,2.3c0.2,0,0.3-0.1,0.4-0.2c0.2-0.1,1.5-1.1,1.5-2
			c0-0.9-0.6-2.9-1.7-3.2c-0.4-0.1-1.6,0.2-2.5,0.8c-1.5,0.9-2.5,3.2-2.5,3.2c-0.7,0.9-1,1.1-1.4,1.6c-0.5,0.5-1.3,1.5-2.2,1.6
			c-0.7,0-1-0.8-1.2-1.4c-0.1-0.2-0.2-0.8-0.2-0.8c0.1,0,0.3-0.1,0.5-0.1c0.4-0.1,3.3-1.9,3.3-4.1c0-0.8-0.7-1.4-1.2-1.4
			c-0.5,0-1.7,0.2-2.5,0.8c-1.3,0.9-2.3,1.9-2.8,2.5c-1.2,1.7-1.8,4.9-0.3,6.6c0.7,0.8,1.5,1.5,2.5,1.6c2.2,0.4,3.5-2.6,4.6-3.5
			c0.2,2,0.5,2.6,1.3,3.2c0.8,0.6,1.8,0.7,3.2-0.2c1.4-0.8,3-2.2,3.5-2.9c0,1.7,1.2,3,2.9,3.2c3.1,0.4,5-4.1,5.4-6.2
			c0.3-1.7-0.1-2.4,0.1-2.5c0.2-0.1,1.4-0.4,1.6-0.3c0.2,0.1,0.7,2,0.5,3.1c-0.3,1.8-1,5,0.3,5.1c1.2,0.1,3.1-3.2,3.9-3.2
			c1,0,1.5,2.6,2.7,2.7c1.2,0,2.5-1.4,3.2-1.4c-0.1,1.8,0.8,3,2.3,3c2.6,0,6.2-4.9,7.4-6.2c-0.4,2.2-0.5,5.3-0.5,5.9
			c0,0.7,0.4,1.6,0.8,1.6c1.2,0,3.1-1.2,3.7-2.7c0-0.9,0.4-2.8,1.3-4.6c1.1-2.4,1.9-5,1.9-5.9c0-1.2-1-5.3-2.2-5.5
			c-0.8-0.1-2.6,1.2-2.8,1.5c-0.4,0.5-0.4,1.2-0.6,2.2c-0.3,1.4-0.5,2.9-1.1,4.2c-0.5,1-0.9,2-1.4,2.8c-1.3,1.8-2.8,2.7-3.1,2.5
			c-0.3-0.2-0.3-1.3,0.1-2.3c0.2-0.6,0.5-0.9,1.1-1c0.5-0.1,1.1-0.1,1.2-0.1c0.4,0.1,0.6-0.6,0.6-1c0-0.4-1-0.5-2-0.4
			c-3.1,0.2-3.9,1.5-4.7,2.9c-1.4,2.1-3.1,1.7-3.8,0.4c-0.7-1.2-1.2-2.6-2.2-2.2c-0.5,0.2-1.4,0.8-1.7,1.1c-0.3,0.3-0.8,0.7-0.9,0.6
			c-0.1-0.2,0.2-1.1,0.2-1.6c0.3-2.1,0.4-4-0.5-4.5c-0.4-0.2-2,0-3.1,0.6c-0.5,0.2-3.1,1.3-4.3,1.3c-0.4,0-0.5-0.5-0.9-0.5
			C75.7-170.4,73.6-166.5,73.6-164.7 M61.2-167c-0.1-0.3-0.2-0.8-0.2-1.2c0-0.3,0.3-0.6,0.5-0.7c0.3-0.2,0.6-0.5,0.8-0.4
			c0.2,0,0.4,0.2,0.5,0.4c0.1,0.2,0,0.9-0.2,1.1C62.3-167.5,61.8-166.9,61.2-167z M80.7-166.4c0,0.6-0.8,2.4-1.4,2.9
			c-0.4,0.3-0.9,0.3-1.3-0.1c-0.4-0.4-0.8-1.1-0.5-2.5c0.1-0.7,0.6-1.7,1.3-1.8c0.1,0,1,0,1.4-0.1C80.6-168.2,80.7-167.9,80.7-166.4
			z"/>
	</g>
	<g>
		<defs>
			<rect id="SVGID_7_" x="0" y="-180.9" width="156.6" height="34.4"/>
		</defs>
		<clipPath id="SVGID_8_">
			<use xlink:href="#SVGID_7_"  style="overflow:visible;"/>
		</clipPath>
		<g class="st6">
			<path class="st2" d="M124.4-176.9c-2.2,0-9.9,4.7-10.4,10c-0.4,4,2,8.1,4,8.8c0.4,0.2,1.4,0.2,2.4-0.1c3.4-1.1,7.3-5.6,9.7-8.8
				c0.1-0.1,0.2,0,0.2,0.2c-0.4,2.1-0.6,3.7-0.5,4.7c0.1,1.3,1.1,1.8,1.5,1.8c1.1,0.2,3-3,3.8-4.4c0-0.1,0.1-0.1,0.1,0.1
				c-0.1,2.8,0.4,4,0.9,4.4c0.3,0.3,1.1,0.6,1.3,0.6c1.5-0.1,3.2-2.8,4.3-4.7c0.1-0.2,0.2,0.1,0.2,0.3c0,3,0.4,3.7,1,3.9
				c0.1,0.1,0.8,0.3,1.1,0.3c1.1-0.3,2.5-1.4,3.7-3.1c-0.2,3.5-2.9,10.9-3.5,13.8c-0.2,1.1-0.2,1.9-0.1,2c0.6,0.6,2.9,0.8,4.7,0.1
				c1.7-0.7,2.3-1.8,2.4-2.1c0.2-1.2-1.4-7.9,1-16.2c0-0.1,0.1-0.2,0.2-0.5c0.2-0.4,0.1-1.1-0.5-1.9c-0.3-0.5-0.9-0.6-1.6-0.5
				c-0.8,0.2-0.9,0.4-1.3,1.2c-0.4,0.8-1.8,3-2.8,2.9c-0.7,0-0.8-0.5-0.8-1.2c-0.1-0.9-0.3-2.6-0.3-2.9c0-0.3-0.1-0.8-0.9-0.8
				c-1.1,0.1-2.3,2.5-4,4.1c-0.7,0.7-1.1,0.5-1.3,0.4c-0.2-0.1-0.2-1.7-0.1-3.1c0.1-0.9,1.1-5,1.2-6c2,0.2,4.7,0.5,7.3,0.6
				c2.5,0.1,4.8-0.1,6.4,0c0.9-0.7,2.7-3.1,2.9-4c0.1-0.6,0-1-0.8-1.1c-2.8-0.2-5.4,0.3-8.3,1.2c-2.1,0.6-2.7,0.7-3.5,0.9
				c-0.8,0.2-3.3,0.5-3.9,0.6c0-0.4,0.1-0.8-0.1-0.9c-0.4-0.2-1.1-0.2-1.7,0.2c-0.2,0.2-0.4,0.6-0.4,0.9c-1.5,0.2-3.3,0.1-4.2-0.2
				c-0.3-0.1-0.5-0.3-0.5-0.5c0-0.2-0.2-1.2-0.4-1.4c-0.2-0.2-0.2-1.3-0.4-1.4c-0.3-0.1-1.4-0.7-2.7,1.6c-0.8,1.5-0.7,2-0.2,2.5
				c0.2,0.2,0.6,0.4,0.9,0.4c1.1,0,1.7-0.2,2.2-0.5c0.5-0.3,0.6-0.1,1.1,0.1c0.5,0.2,2.6,0.7,3.7,0.8c-0.6,1.6-1.8,4.7-2.1,6
				c-0.7,1.3-1.8,3-2.4,3c-0.4,0-0.6-0.4-0.7-0.7c-0.1-0.5,0.2-2.2,0.4-3.5c0.2-1.3,0.7-2.5-0.5-2.5c-1.1,0-1.1,0.1-1.5,0.6
				c-2.2,2.8-5.8,6.4-8.2,7c-1.4,0.3-2.8-2.3-2.8-3.6c0-1.8,0.6-3.8,2.4-5.1c0.2-0.2,0.2-0.2,0.3-0.2c0.1,0,0.4-0.1,0.5,0.2
				c0.1,0.2,0.4,1.2,0.9,1.2c0.7,0,1.9-1.7,1.9-4C125.6-176.8,124.5-176.9,124.4-176.9"/>
		</g>
		<g class="st6">
			<path class="st2" d="M40.1-164.4c-0.1-0.7-1-0.3-1.5,0c-0.5,0.2-1,0.7-1,1.2c0,0.5,0.1,1,0,1.3c0,0.4-0.1,0.7-0.8,0.8
				c-0.5,0.1-1.3-0.2-1.7-0.7c-0.9-1.1-1-1.3-1.2-1.8c0.8-0.6,2.2-1.5,2.3-3c0.2-1.8-2.3-1.5-3.8-0.7c-3,1.6-3.4,3.1-3.1,4.3
				c-1,1-2.2,1.1-3.4,0.5c-2.4-1.2-2.1-2.9-3.6-3.2c-1.5-0.3-2.6,1-3.2,1c0.7-3.4,2.3-8,5.4-13.6c0-0.1,0.1-0.4-0.3-0.5
				c-0.4-0.1-1.5-0.2-2.2,0.3c-0.7,0.5-1.1,1.3-1.4,1.9c-1.4,0.6-2,0.8-3.9,0.9c-0.9,0.1-2,0.1-2.4,0.1c0-0.6-0.1-2.2-0.2-2.5
				c-0.1-0.3-0.4-0.7-1-0.6c-1.2,0.2-3.7,0.9-3.9,2.6c-1.4-0.1-3.8-0.8-5.5-0.7c-3.3,0.2-3.8,0.4-3.9,1.3c-0.1,0.5,0.1,0.9,0.1,1.1
				c0,0.2,0.1,0.9,0.8,0.8c2.9-0.6,7.1-0.5,8.1-0.5c-0.3,3.1-1.2,10.1-1.9,12.9c-0.6,2.2-1,3.6,0.7,2.9c1.8-0.8,2.5-1.2,3.1-1.6
				c0.6-0.4,1.8-1.6,2.1-3.3c0.3-2.2,0.9-4.9,0.9-5.8c0.1-0.9,0.4-4,0.6-5c2,0,4.6-0.8,5.4-1.1c-3.4,6.3-5.4,13.3-5.3,14.6
				c0.1,0.6,0.5,0.9,1.3,0.8c0.8-0.1,2-0.9,2.7-1.7c0.7-0.7,1.4-1,2.2-0.9c0.9,0.1,1.3,0.4,1.5,1c0.6,1.2,1.6,1.7,3.3,1.4
				c2.2-0.3,3-1.2,4.1-1.9c1,2,2.3,2.9,5.1,3c1.6,0,3.7-1.2,4.6-2.3C39.9-162,40.1-163.8,40.1-164.4 M33.4-164.9
				c-0.2-0.2-0.3-1.1-0.4-1.6c0.1-0.3,0.9-0.7,1.3-0.4c0.5,0.3,0.7,0.9,0,1.7C34-164.9,33.7-164.8,33.4-164.9z"/>
		</g>
	</g>
	<g>
		<path class="st2" d="M154.9-166.1c-0.2,0.2-0.5,0.3-0.8,0.3c-0.3,0-0.5-0.1-0.8-0.3c-0.2-0.2-0.3-0.5-0.3-0.8
			c0-0.3,0.1-0.5,0.3-0.8c0.2-0.2,0.5-0.3,0.8-0.3c0.3,0,0.5,0.1,0.8,0.3c0.2,0.2,0.3,0.5,0.3,0.8
			C155.2-166.5,155.1-166.3,154.9-166.1 M153.5-167.5c-0.2,0.2-0.3,0.4-0.3,0.7c0,0.3,0.1,0.5,0.3,0.7c0.2,0.2,0.4,0.3,0.7,0.3
			c0.3,0,0.5-0.1,0.7-0.3c0.2-0.2,0.3-0.4,0.3-0.7c0-0.3-0.1-0.5-0.3-0.7c-0.2-0.2-0.4-0.3-0.7-0.3
			C153.9-167.7,153.7-167.7,153.5-167.5z M154.1-167.4c0.1,0,0.3,0,0.3,0c0.1,0.1,0.2,0.1,0.2,0.3c0,0.1,0,0.2-0.1,0.2
			c0,0-0.1,0-0.2,0.1c0.1,0,0.2,0.1,0.2,0.1c0,0.1,0.1,0.1,0.1,0.2v0.1c0,0,0,0.1,0,0.1c0,0,0,0,0,0.1l0,0h-0.2c0,0,0,0,0,0
			c0,0,0,0,0,0l0,0v-0.1c0-0.1,0-0.2-0.1-0.3c0,0-0.1,0-0.2,0h-0.2v0.5h-0.2v-1.2H154.1z M154.4-167.2c-0.1,0-0.1,0-0.3,0h-0.2v0.4
			h0.2c0.1,0,0.2,0,0.2,0c0.1,0,0.1-0.1,0.1-0.2C154.4-167.1,154.4-167.2,154.4-167.2z"/>
	</g>
	<rect x="0" y="-149.7" class="st4" width="138.5" height="1.3"/>
	<g>
		<path class="st7" d="M9,40.8v7.7H6.7v-7.7h-3v-2.1h8.2v2.1H9z"/>
		<path class="st7" d="M19.9,48.5l-1.7-3.2c-0.1,0-0.3,0-0.4,0c-0.3,0-0.5,0-0.8,0v3.2h-2.3v-9.7c0.8-0.1,1.7-0.2,2.9-0.2
			c3.1,0,4.3,1.5,4.3,3.3c0,1.2-0.6,2.2-1.7,2.8l2.3,3.8H19.9z M17.9,40.6c-0.3,0-0.6,0-0.9,0.1v2.7c0.3,0,0.5,0,0.7,0
			c1.1,0,1.8-0.5,1.8-1.5C19.5,41.1,18.8,40.6,17.9,40.6z"/>
		<path class="st7" d="M31.7,48.5L31,46.7h-3.4l-0.7,1.8h-2.3l4.6-9.9h0.3l4.6,9.9H31.7z M29.3,42.6l-1,2.4h1.9L29.3,42.6z"/>
		<path class="st7" d="M36.6,48.5v-9.8h2.3v9.8H36.6z"/>
		<path class="st7" d="M50.8,48.7l-5.9-5.3v5.1h-2.3v-10l0.3-0.1l5.8,5.3v-5.1H51v10L50.8,48.7z"/>
		<path class="st7" d="M54.7,48.5v-9.8H57v9.8H54.7z"/>
		<path class="st7" d="M68.9,48.7l-5.9-5.3v5.1h-2.3v-10l0.3-0.1l5.8,5.3v-5.1h2.3v10L68.9,48.7z"/>
		<path class="st7" d="M81.2,43v4.7c-1.1,0.6-2.2,1-3.7,1c-2.9,0-5.2-2.1-5.2-5.1c0-3,2.3-5.1,5.3-5.1c1.3,0,2.3,0.3,3.3,0.8l-1,1.8
			c-0.7-0.4-1.4-0.5-2.2-0.5c-2,0-3,1.2-3,2.9c0,1.9,1.3,3,2.9,3c0.7,0,1.1-0.1,1.4-0.3v-1.4h-2V43H81.2z"/>
		<path class="st7" d="M93.5,48.7c-3.2,0-5.4-2.2-5.4-5.1c0-2.9,2.2-5.1,5.4-5.1c1.1,0,2.2,0.3,3.1,0.9l-0.7,1.9
			c-0.7-0.4-1.5-0.7-2.3-0.7c-1.8,0-3,1.1-3,2.9c0,1.8,1.1,2.9,3,2.9c0.8,0,1.7-0.3,2.5-0.7l0.7,1.9C95.8,48.3,94.6,48.7,93.5,48.7z
			"/>
		<path class="st7" d="M99.6,48.5v-9.8h6.2v2.1h-3.9v1.8h3.6v2h-3.6v1.9h3.9v2.1H99.6z"/>
		<path class="st7" d="M117.5,48.7l-5.9-5.3v5.1h-2.3v-10l0.3-0.1l5.8,5.3v-5.1h2.3v10L117.5,48.7z"/>
		<path class="st7" d="M125.7,40.8v7.7h-2.3v-7.7h-2.9v-2.1h8.2v2.1H125.7z"/>
		<path class="st7" d="M142.5,48.5v-9.8h6.2v2.1h-3.9v1.8h3.6v2h-3.6v1.9h3.9v2.1H142.5z"/>
		<path class="st7" d="M137,48.5l-1.7-3.2c-0.1,0-0.3,0-0.4,0c-0.3,0-0.5,0-0.8,0v3.2h-2.3v-9.7c0.8-0.1,1.7-0.2,2.9-0.2
			c3.1,0,4.3,1.5,4.3,3.3c0,1.2-0.6,2.2-1.7,2.8l2.3,3.8H137z M135,40.6c-0.3,0-0.6,0-0.9,0.1v2.7c0.3,0,0.5,0,0.7,0
			c1.1,0,1.8-0.5,1.8-1.5C136.6,41.1,136,40.6,135,40.6z"/>
	</g>
	<path class="st2" d="M154.9,14.8c-0.2,0.2-0.5,0.3-0.8,0.3c-0.3,0-0.5-0.1-0.8-0.3c-0.2-0.2-0.3-0.5-0.3-0.8c0-0.3,0.1-0.5,0.3-0.8
		c0.2-0.2,0.5-0.3,0.8-0.3c0.3,0,0.5,0.1,0.8,0.3c0.2,0.2,0.3,0.5,0.3,0.8C155.2,14.4,155.1,14.6,154.9,14.8 M153.5,13.4
		c-0.2,0.2-0.3,0.4-0.3,0.7c0,0.3,0.1,0.5,0.3,0.7c0.2,0.2,0.4,0.3,0.7,0.3c0.3,0,0.5-0.1,0.7-0.3c0.2-0.2,0.3-0.4,0.3-0.7
		c0-0.3-0.1-0.5-0.3-0.7c-0.2-0.2-0.4-0.3-0.7-0.3C153.9,13.2,153.7,13.3,153.5,13.4z M154.1,13.5c0.1,0,0.3,0,0.3,0
		c0.1,0.1,0.2,0.1,0.2,0.3c0,0.1,0,0.2-0.1,0.2c0,0-0.1,0-0.2,0.1c0.1,0,0.2,0.1,0.2,0.1c0,0.1,0.1,0.1,0.1,0.2v0.1c0,0,0,0.1,0,0.1
		c0,0,0,0,0,0.1l0,0h-0.2c0,0,0,0,0,0c0,0,0,0,0,0l0,0v-0.1c0-0.1,0-0.2-0.1-0.3c0,0-0.1,0-0.2,0h-0.2v0.5h-0.2v-1.2H154.1z
		 M154.4,13.7c-0.1,0-0.1,0-0.3,0h-0.2v0.4h0.2c0.1,0,0.2,0,0.2,0c0.1,0,0.1-0.1,0.1-0.2C154.4,13.8,154.4,13.7,154.4,13.7z"/>
	<g>
		<defs>
			<rect id="SVGID_9_" x="0" y="0" width="156.6" height="34.4"/>
		</defs>
		<clipPath id="SVGID_10_">
			<use xlink:href="#SVGID_9_"  style="overflow:visible;"/>
		</clipPath>
		<path class="st8" d="M55.6,0C47.7,1.2,42,5.6,42,7.8c0,2.6,4,4.7,6.7,7.6c1.4,1.5,1.8,2.8,1.8,4.1c0,0.7-0.1,1.4-0.3,1.8
			c-0.4,0.6-2.2,1.5-3.5,1.3c-2.7-0.5-3.2-4.3-2.5-6.2c0.1-0.3,0-0.9-0.4-1.1c-0.4-0.3-1.1-0.2-1.4,0.6c-0.7,1.8-1.2,6.4,1.5,8.3
			c0.9,0.6,1.9,0.8,3.5,0.8c4.6,0,7.4-3.5,8.7-6.9c1.4-3.7,2-7-1.8-10.2c-1-0.8-1.7-2.4-1.5-3.2c0.3-1,1.1-1.2,1.1-0.6
			c0,1.1,2.7,2,3.5-1.7C57.5,2,56.8-0.2,55.6,0"/>
	</g>
	<path class="st2" d="M73.6,16.2c-0.3,0.3-0.1,0.1-0.4,0.5c-0.2,0.3-1.4,1.5-2.6,1.6c-1.6,0.2-1.8-2-1.8-2.8c0-1.1,0.8-3,2-3
		c0.4,0,0.4,0.1,0.5,0.3c0.1,0.2,0.2,0.2,0.1,0.5c-0.7,1.5-0.5,2.3,0,2.3c0.2,0,0.3-0.1,0.4-0.2c0.2-0.1,1.5-1.1,1.5-2
		c0-0.9-0.7-2.9-1.7-3.2c-0.4-0.1-1.6,0.2-2.5,0.8c-1.5,0.9-2.5,3.2-2.5,3.2c-0.7,0.9-1,1.1-1.4,1.6c-0.5,0.5-1.3,1.5-2.2,1.6
		c-0.7,0-1-0.8-1.2-1.4c-0.1-0.2-0.2-0.8-0.2-0.8c0.1,0,0.3-0.1,0.5-0.1c0.4-0.1,3.3-1.9,3.3-4.1c0-0.8-0.7-1.4-1.2-1.4
		c-0.5,0-1.7,0.2-2.5,0.8c-1.3,0.9-2.3,1.9-2.8,2.5c-1.2,1.7-1.8,4.9-0.3,6.6c0.7,0.8,1.5,1.5,2.5,1.6c2.2,0.4,3.5-2.6,4.6-3.5
		c0.2,2,0.5,2.6,1.3,3.2c0.8,0.6,1.8,0.7,3.2-0.1c1.4-0.8,3-2.2,3.5-2.9c0,1.7,1.2,3,2.9,3.2c3.1,0.4,5-4.1,5.4-6.2
		c0.3-1.7-0.1-2.4,0.1-2.5c0.2-0.1,1.4-0.4,1.6-0.3c0.3,0.1,0.7,2,0.5,3.1c-0.3,1.8-1,5,0.3,5.1c1.2,0.1,3.1-3.2,3.9-3.2
		c1,0,1.5,2.6,2.7,2.7c1.2,0,2.5-1.4,3.2-1.4c-0.1,1.8,0.8,3,2.3,3c2.6,0,6.3-4.9,7.4-6.2c-0.4,2.2-0.5,5.3-0.5,5.9
		c0,0.7,0.4,1.6,0.8,1.6c1.2,0,3.1-1.2,3.7-2.7c0-0.9,0.4-2.8,1.3-4.6c1.1-2.4,1.9-5,1.9-5.9c0-1.2-1-5.3-2.2-5.5
		c-0.8-0.1-2.6,1.2-2.8,1.5c-0.4,0.5-0.4,1.2-0.6,2.2c-0.3,1.4-0.5,2.9-1.1,4.2c-0.5,1-0.9,2-1.4,2.8c-1.3,1.8-2.8,2.7-3,2.5
		c-0.3-0.2-0.3-1.3,0.1-2.3c0.2-0.6,0.6-0.9,1.1-1c0.5-0.1,1.1-0.1,1.2-0.1c0.4,0.1,0.6-0.6,0.6-1c0-0.4-1-0.5-2-0.4
		c-3.1,0.2-3.9,1.5-4.7,2.9c-1.4,2.1-3.1,1.7-3.8,0.4c-0.7-1.2-1.2-2.6-2.2-2.2c-0.5,0.2-1.4,0.8-1.7,1.1c-0.3,0.3-0.8,0.7-0.9,0.6
		c-0.1-0.2,0.2-1.1,0.2-1.6c0.3-2.1,0.4-4-0.5-4.5c-0.4-0.2-2,0-3.1,0.6c-0.5,0.2-3.1,1.3-4.2,1.3c-0.4,0-0.5-0.5-0.9-0.5
		C75.7,10.5,73.6,14.4,73.6,16.2 M61.2,13.9c-0.1-0.3-0.2-0.8-0.2-1.2c0-0.3,0.3-0.6,0.5-0.7c0.3-0.2,0.6-0.5,0.8-0.4
		c0.2,0,0.4,0.2,0.5,0.4c0.1,0.2,0,0.9-0.2,1.1C62.3,13.4,61.8,14,61.2,13.9z M80.7,14.5c0,0.6-0.8,2.4-1.4,2.8
		c-0.4,0.3-0.9,0.3-1.3-0.1c-0.4-0.4-0.8-1.1-0.5-2.5c0.1-0.7,0.6-1.7,1.3-1.8c0.1,0,1,0,1.3-0.1C80.6,12.7,80.7,13,80.7,14.5z"/>
	<g>
		<defs>
			<rect id="SVGID_11_" x="0" y="0" width="156.6" height="34.4"/>
		</defs>
		<clipPath id="SVGID_12_">
			<use xlink:href="#SVGID_11_"  style="overflow:visible;"/>
		</clipPath>
		<path class="st9" d="M124.4,4c-2.2,0-9.9,4.7-10.4,10c-0.4,4,2,8.1,4,8.8c0.4,0.2,1.4,0.2,2.4-0.1c3.4-1.1,7.3-5.6,9.7-8.8
			c0.1-0.1,0.2,0,0.2,0.2c-0.4,2.1-0.6,3.7-0.5,4.7c0.1,1.3,1.1,1.8,1.5,1.8c1.1,0.2,3-3,3.8-4.4c0-0.1,0.1-0.1,0.2,0.1
			c-0.1,2.8,0.4,4,0.9,4.4c0.3,0.3,1.1,0.6,1.3,0.6c1.5-0.1,3.2-2.8,4.3-4.7c0.1-0.2,0.2,0.1,0.2,0.3c0,3,0.4,3.7,1,3.9
			c0.1,0.1,0.8,0.3,1.1,0.3c1.1-0.3,2.5-1.4,3.7-3.1c-0.2,3.5-2.9,10.9-3.5,13.8c-0.2,1.1-0.2,1.9-0.1,2c0.6,0.6,2.9,0.8,4.7,0.1
			c1.7-0.7,2.3-1.8,2.4-2.1c0.2-1.2-1.4-7.9,1-16.2c0-0.1,0.1-0.2,0.2-0.5c0.2-0.4,0.1-1.1-0.5-1.9c-0.3-0.5-0.9-0.6-1.6-0.5
			c-0.8,0.2-0.9,0.4-1.3,1.2c-0.4,0.8-1.8,3-2.8,2.9c-0.7,0-0.8-0.5-0.8-1.2c-0.1-0.9-0.2-2.6-0.2-2.9c0-0.3-0.1-0.8-0.9-0.8
			c-1.1,0.1-2.3,2.5-4,4.1c-0.7,0.7-1.1,0.5-1.3,0.4c-0.2-0.1-0.3-1.7-0.1-3.1c0.1-0.9,1.1-5,1.2-6c2,0.2,4.7,0.5,7.3,0.6
			c2.5,0.1,4.8-0.1,6.4,0c0.9-0.7,2.7-3.1,2.9-4c0.1-0.6,0-1-0.8-1.1c-2.8-0.2-5.4,0.3-8.3,1.1c-2.1,0.6-2.7,0.7-3.5,0.9
			c-0.8,0.2-3.3,0.5-3.9,0.6c0-0.4,0.2-0.8-0.1-0.9c-0.4-0.2-1.1-0.2-1.7,0.2c-0.2,0.2-0.4,0.6-0.4,0.9c-1.5,0.2-3.3,0.1-4.2-0.2
			c-0.3-0.1-0.5-0.3-0.5-0.5c0-0.2-0.2-1.2-0.4-1.4c-0.2-0.2-0.2-1.3-0.4-1.4c-0.3-0.1-1.4-0.7-2.7,1.6c-0.8,1.5-0.7,2-0.2,2.5
			c0.2,0.2,0.6,0.4,0.9,0.4c1.1,0,1.7-0.2,2.2-0.5c0.5-0.3,0.6-0.1,1.1,0.1c0.5,0.2,2.6,0.7,3.7,0.8c-0.6,1.6-1.8,4.7-2.1,6
			c-0.7,1.3-1.8,3-2.4,3c-0.4,0-0.6-0.4-0.7-0.7c-0.1-0.5,0.2-2.2,0.4-3.5c0.2-1.3,0.7-2.5-0.5-2.5c-1.1,0-1.1,0.1-1.5,0.6
			c-2.2,2.8-5.8,6.4-8.2,7c-1.4,0.3-2.8-2.3-2.8-3.6c0-1.8,0.6-3.8,2.5-5.2c0.2-0.2,0.2-0.2,0.3-0.2c0.1,0,0.4-0.1,0.5,0.2
			c0.1,0.2,0.4,1.2,0.9,1.2c0.7,0,1.9-1.7,1.9-4C125.6,4.1,124.5,4,124.4,4"/>
		<path class="st9" d="M40.1,16.5c-0.1-0.7-1-0.3-1.5,0c-0.5,0.2-1,0.7-1,1.2c0,0.5,0.1,1,0,1.3c0,0.4-0.1,0.7-0.7,0.8
			c-0.5,0.1-1.3-0.2-1.7-0.7c-0.9-1.1-1-1.3-1.2-1.8c0.8-0.6,2.2-1.5,2.3-3c0.2-1.8-2.3-1.5-3.8-0.7c-3,1.6-3.4,3.1-3.1,4.3
			c-1,1-2.2,1.1-3.4,0.5c-2.4-1.2-2.1-2.9-3.6-3.2c-1.5-0.3-2.6,1-3.2,0.9c0.7-3.4,2.3-8,5.4-13.6c0-0.1,0.1-0.4-0.3-0.5
			c-0.4-0.1-1.5-0.2-2.2,0.3c-0.7,0.5-1.1,1.3-1.4,1.9c-1.4,0.6-2,0.8-3.9,0.9c-0.9,0.1-2.1,0.1-2.4,0.1c0-0.6-0.1-2.2-0.2-2.5
			c-0.1-0.3-0.4-0.7-1-0.6c-1.2,0.2-3.7,1-3.9,2.6C8,4.7,5.5,3.9,3.9,4C0.6,4.3,0.1,4.4,0,5.3c-0.1,0.5,0.1,0.9,0.1,1.1
			c0,0.2,0.1,0.9,0.8,0.8C3.8,6.7,8,6.8,9,6.7C8.7,9.8,7.8,16.8,7.1,19.6c-0.6,2.2-1,3.6,0.7,2.9c1.8-0.8,2.5-1.2,3.1-1.6
			c0.6-0.4,1.8-1.6,2.1-3.3c0.3-2.2,0.9-4.9,0.9-5.8c0.1-0.9,0.4-4,0.6-5c2,0,4.6-0.8,5.4-1.1c-3.4,6.3-5.4,13.3-5.3,14.6
			c0.1,0.6,0.5,0.9,1.3,0.8c0.8-0.1,2-0.9,2.7-1.7c0.7-0.7,1.4-1,2.2-0.9c0.9,0.1,1.3,0.4,1.5,1c0.6,1.2,1.6,1.7,3.3,1.4
			c2.2-0.3,3-1.2,4.1-1.9c1,2,2.3,2.9,5.1,3c1.6,0,3.7-1.2,4.6-2.3C39.9,18.9,40.1,17.1,40.1,16.5 M33.4,16C33.2,15.8,33,15,33,14.4
			c0.1-0.3,0.9-0.7,1.3-0.4c0.5,0.3,0.7,0.9,0,1.7C34,16,33.7,16.1,33.4,16z"/>
	</g>
	<rect x="0" y="31.3" class="st7" width="139.4" height="1.3"/>
	<g>
		<defs>
			<rect id="SVGID_13_" x="350.8" y="-180.1" width="156.6" height="34.4"/>
		</defs>
		<clipPath id="SVGID_14_">
			<use xlink:href="#SVGID_13_"  style="overflow:visible;"/>
		</clipPath>
		<g class="st10">
			<path class="st2" d="M406.4-180.1c-7.9,1.2-13.6,5.6-13.6,7.8c0,2.6,4,4.7,6.7,7.6c1.4,1.5,1.8,2.8,1.8,4.1
				c0,0.7-0.1,1.4-0.3,1.8c-0.4,0.6-2.2,1.5-3.5,1.3c-2.7-0.5-3.2-4.3-2.5-6.2c0.1-0.3,0-0.9-0.4-1.1c-0.4-0.3-1.1-0.2-1.4,0.6
				c-0.7,1.8-1.2,6.4,1.5,8.3c0.9,0.6,1.9,0.8,3.5,0.8c4.6,0,7.4-3.5,8.7-6.9c1.4-3.7,2-7-1.8-10.2c-1-0.8-1.7-2.4-1.5-3.2
				c0.3-1,1.1-1.2,1.1-0.6c0,1.1,2.7,2,3.5-1.7C408.3-178.1,407.5-180.2,406.4-180.1"/>
		</g>
	</g>
	<g>
		<path class="st2" d="M424.4-163.8c-0.3,0.3-0.1,0.1-0.4,0.5c-0.2,0.3-1.4,1.5-2.6,1.6c-1.6,0.2-1.8-2-1.8-2.8c0-1.1,0.8-3,2-3
			c0.4,0,0.4,0.1,0.5,0.3c0.1,0.2,0.2,0.2,0.1,0.5c-0.7,1.5-0.5,2.3,0,2.3c0.2,0,0.3-0.1,0.4-0.2c0.2-0.1,1.5-1.1,1.5-2
			c0-0.9-0.6-2.9-1.7-3.2c-0.4-0.1-1.6,0.2-2.5,0.8c-1.5,0.9-2.5,3.2-2.5,3.2c-0.7,0.9-1,1.1-1.4,1.6c-0.5,0.5-1.3,1.5-2.2,1.6
			c-0.7,0-1-0.8-1.2-1.4c-0.1-0.2-0.2-0.8-0.2-0.8c0.1,0,0.3-0.1,0.5-0.1c0.4-0.1,3.3-1.9,3.3-4.1c0-0.8-0.7-1.4-1.2-1.4
			c-0.5,0-1.7,0.2-2.5,0.8c-1.3,0.9-2.3,1.9-2.8,2.5c-1.2,1.7-1.8,4.9-0.3,6.6c0.7,0.8,1.5,1.5,2.5,1.6c2.2,0.4,3.5-2.6,4.6-3.5
			c0.2,2,0.5,2.6,1.3,3.2c0.8,0.6,1.8,0.7,3.2-0.2c1.4-0.8,3-2.2,3.5-2.9c0,1.7,1.2,3,2.9,3.2c3.1,0.4,5-4.1,5.4-6.2
			c0.3-1.7-0.1-2.4,0.1-2.5c0.2-0.1,1.4-0.4,1.6-0.3c0.2,0.1,0.7,2,0.5,3.1c-0.3,1.8-1,5,0.3,5.1c1.2,0.1,3.1-3.2,3.9-3.2
			c1,0,1.4,2.6,2.7,2.7c1.2,0,2.5-1.4,3.2-1.4c-0.1,1.8,0.8,3,2.3,3c2.6,0,6.2-4.9,7.4-6.2c-0.4,2.2-0.5,5.3-0.5,5.9
			c0,0.7,0.4,1.6,0.8,1.6c1.2,0,3.1-1.2,3.7-2.7c0-0.9,0.4-2.8,1.3-4.6c1.1-2.4,1.9-5,1.9-5.9c0-1.2-1-5.3-2.2-5.5
			c-0.8-0.1-2.6,1.2-2.8,1.5c-0.4,0.5-0.4,1.2-0.6,2.2c-0.3,1.4-0.5,2.9-1.1,4.2c-0.5,1-0.9,2-1.4,2.8c-1.3,1.8-2.8,2.7-3,2.5
			c-0.3-0.2-0.3-1.3,0.1-2.3c0.2-0.6,0.5-0.9,1.1-1c0.5-0.1,1.1-0.1,1.2-0.1c0.4,0.1,0.6-0.6,0.6-1c0-0.4-1-0.5-2-0.4
			c-3.1,0.2-3.9,1.5-4.7,2.9c-1.4,2.1-3.1,1.7-3.8,0.4c-0.7-1.2-1.2-2.6-2.2-2.2c-0.5,0.2-1.4,0.8-1.7,1.1c-0.3,0.3-0.8,0.7-0.9,0.6
			c-0.1-0.2,0.2-1.1,0.2-1.6c0.3-2.1,0.4-4-0.5-4.5c-0.4-0.2-2,0-3.1,0.6c-0.5,0.2-3.1,1.3-4.3,1.3c-0.4,0-0.5-0.5-0.9-0.5
			C426.5-169.6,424.4-165.6,424.4-163.8 M412-166.1c-0.1-0.3-0.2-0.8-0.2-1.2c0-0.3,0.3-0.6,0.5-0.7c0.3-0.2,0.6-0.5,0.8-0.4
			c0.2,0,0.4,0.2,0.5,0.4c0.1,0.2,0,0.9-0.2,1.2C413.2-166.6,412.6-166.1,412-166.1z M431.5-165.6c0,0.6-0.8,2.4-1.4,2.9
			c-0.4,0.3-0.9,0.3-1.3-0.1c-0.4-0.4-0.8-1.1-0.5-2.5c0.1-0.7,0.6-1.7,1.3-1.8c0.1,0,1,0,1.4-0.1
			C431.4-167.4,431.5-167,431.5-165.6z"/>
	</g>
	<g>
		<defs>
			<rect id="SVGID_15_" x="350.8" y="-180.1" width="156.6" height="34.4"/>
		</defs>
		<clipPath id="SVGID_16_">
			<use xlink:href="#SVGID_15_"  style="overflow:visible;"/>
		</clipPath>
		<g class="st11">
			<path class="st2" d="M475.2-176.1c-2.2,0-9.9,4.7-10.4,10c-0.4,4,2,8.1,4,8.8c0.4,0.2,1.4,0.2,2.4-0.1c3.4-1.1,7.3-5.6,9.7-8.8
				c0.1-0.1,0.2,0,0.2,0.2c-0.4,2.1-0.6,3.7-0.5,4.7c0.1,1.3,1.1,1.8,1.5,1.8c1.1,0.2,3-3,3.8-4.4c0-0.1,0.1-0.1,0.1,0.1
				c-0.1,2.8,0.4,4,0.9,4.4c0.3,0.3,1.1,0.6,1.3,0.6c1.5-0.1,3.2-2.8,4.3-4.7c0.1-0.2,0.2,0.1,0.2,0.3c0,3,0.4,3.7,1,3.9
				c0.1,0.1,0.8,0.3,1.1,0.3c1.1-0.3,2.5-1.4,3.7-3.1c-0.2,3.5-2.9,10.9-3.5,13.8c-0.2,1.1-0.2,1.9-0.1,2c0.6,0.6,2.9,0.8,4.7,0.1
				c1.7-0.7,2.3-1.8,2.4-2.1c0.2-1.2-1.4-7.9,1-16.2c0-0.1,0.1-0.2,0.2-0.5c0.2-0.4,0.1-1.1-0.5-1.9c-0.3-0.5-0.9-0.6-1.6-0.5
				c-0.8,0.2-0.9,0.4-1.3,1.2c-0.4,0.8-1.8,3-2.8,2.9c-0.7,0-0.8-0.5-0.8-1.2c-0.1-0.9-0.3-2.6-0.3-2.9c0-0.3-0.1-0.8-0.9-0.8
				c-1.1,0.1-2.3,2.5-4,4.1c-0.7,0.7-1.1,0.5-1.3,0.4c-0.2-0.1-0.2-1.7-0.1-3.1c0.1-0.9,1.1-5,1.2-6c2,0.2,4.7,0.5,7.3,0.6
				c2.5,0.1,4.8-0.1,6.4,0c0.9-0.7,2.7-3.1,2.9-4c0.1-0.6,0-1-0.8-1.1c-2.8-0.2-5.4,0.3-8.3,1.2c-2.1,0.6-2.7,0.7-3.5,0.9
				c-0.8,0.2-3.3,0.5-3.9,0.6c0-0.4,0.1-0.8-0.1-0.9c-0.4-0.2-1.1-0.2-1.7,0.2c-0.2,0.2-0.4,0.6-0.4,0.9c-1.5,0.2-3.3,0.1-4.2-0.2
				c-0.3-0.1-0.5-0.3-0.5-0.5c0-0.2-0.2-1.2-0.4-1.4c-0.2-0.2-0.2-1.3-0.4-1.4c-0.3-0.1-1.4-0.7-2.7,1.6c-0.8,1.5-0.7,2-0.2,2.5
				c0.2,0.2,0.6,0.4,0.9,0.4c1.1,0,1.7-0.2,2.2-0.5c0.5-0.3,0.6-0.1,1.1,0.1c0.5,0.2,2.6,0.7,3.7,0.8c-0.6,1.6-1.8,4.7-2.1,6
				c-0.7,1.3-1.8,3-2.4,3c-0.4,0-0.6-0.4-0.7-0.7c-0.1-0.5,0.2-2.2,0.4-3.5c0.2-1.3,0.7-2.5-0.5-2.5c-1.1,0-1.1,0.1-1.5,0.6
				c-2.2,2.8-5.8,6.4-8.2,7c-1.4,0.3-2.8-2.3-2.8-3.6c0-1.8,0.6-3.8,2.5-5.1c0.2-0.2,0.2-0.2,0.3-0.2c0.1,0,0.4-0.1,0.5,0.2
				c0.1,0.2,0.4,1.2,0.9,1.2c0.7,0,1.9-1.7,1.9-4C476.4-176,475.3-176.1,475.2-176.1"/>
		</g>
		<g class="st11">
			<path class="st2" d="M390.9-163.6c-0.1-0.7-1-0.3-1.5,0c-0.5,0.2-1,0.7-1,1.2c0,0.5,0.1,1,0,1.3c0,0.4-0.1,0.7-0.8,0.8
				c-0.5,0.1-1.3-0.2-1.7-0.7c-0.9-1.1-1-1.3-1.2-1.8c0.8-0.6,2.2-1.5,2.3-3c0.2-1.8-2.3-1.5-3.8-0.7c-3,1.6-3.4,3.1-3.1,4.3
				c-1,1-2.2,1.1-3.4,0.5c-2.4-1.2-2.1-2.9-3.6-3.2c-1.5-0.3-2.6,1-3.2,1c0.7-3.4,2.3-8,5.4-13.6c0-0.1,0.1-0.4-0.3-0.5
				c-0.4-0.1-1.5-0.2-2.2,0.3c-0.7,0.5-1.1,1.3-1.4,1.9c-1.4,0.6-2,0.8-3.9,0.9c-0.9,0.1-2,0.1-2.4,0.1c0-0.6-0.1-2.2-0.2-2.5
				c-0.1-0.3-0.4-0.7-1-0.6c-1.2,0.2-3.7,0.9-4,2.6c-1.4-0.1-3.8-0.8-5.5-0.7c-3.3,0.2-3.8,0.4-3.9,1.3c-0.1,0.5,0.1,0.9,0.1,1.1
				c0,0.2,0.1,0.9,0.8,0.8c2.9-0.6,7.1-0.5,8.1-0.5c-0.3,3.1-1.2,10.1-1.9,12.9c-0.6,2.2-1,3.6,0.7,2.9c1.8-0.8,2.5-1.2,3.1-1.6
				c0.6-0.4,1.8-1.6,2.1-3.3c0.3-2.2,0.9-4.9,0.9-5.8c0.1-0.9,0.4-4,0.6-5c2,0,4.6-0.8,5.4-1.1c-3.4,6.3-5.4,13.3-5.3,14.6
				c0.1,0.6,0.5,0.9,1.3,0.8c0.8-0.1,2-0.9,2.7-1.7c0.7-0.7,1.4-1,2.2-0.9c0.9,0.1,1.3,0.4,1.5,1c0.6,1.2,1.6,1.7,3.3,1.4
				c2.2-0.3,3-1.2,4.1-1.9c1,2,2.3,2.9,5.1,3c1.6,0,3.7-1.2,4.6-2.3C390.7-161.2,390.9-162.9,390.9-163.6 M384.2-164
				c-0.2-0.2-0.3-1.1-0.4-1.6c0.1-0.3,0.9-0.7,1.3-0.4c0.5,0.3,0.7,0.9,0,1.7C384.8-164.1,384.5-164,384.2-164z"/>
		</g>
	</g>
	<g>
		<path class="st2" d="M505.7-165.2c-0.2,0.2-0.5,0.3-0.8,0.3c-0.3,0-0.5-0.1-0.8-0.3c-0.2-0.2-0.3-0.5-0.3-0.8
			c0-0.3,0.1-0.5,0.3-0.8c0.2-0.2,0.5-0.3,0.8-0.3c0.3,0,0.5,0.1,0.8,0.3c0.2,0.2,0.3,0.5,0.3,0.8
			C506-165.7,505.9-165.4,505.7-165.2 M504.3-166.6c-0.2,0.2-0.3,0.4-0.3,0.7c0,0.3,0.1,0.5,0.3,0.7c0.2,0.2,0.4,0.3,0.7,0.3
			c0.3,0,0.5-0.1,0.6-0.3c0.2-0.2,0.3-0.4,0.3-0.7c0-0.3-0.1-0.5-0.3-0.7c-0.2-0.2-0.4-0.3-0.6-0.3
			C504.7-166.9,504.5-166.8,504.3-166.6z M504.9-166.6c0.1,0,0.3,0,0.3,0c0.1,0.1,0.2,0.1,0.2,0.3c0,0.1,0,0.2-0.1,0.2
			c0,0-0.1,0-0.2,0.1c0.1,0,0.2,0.1,0.2,0.1c0,0.1,0.1,0.1,0.1,0.2v0.1c0,0,0,0.1,0,0.1c0,0,0,0,0,0.1l0,0h-0.2c0,0,0,0,0,0
			c0,0,0,0,0,0l0,0v-0.1c0-0.1,0-0.2-0.1-0.3c0,0-0.1,0-0.2,0h-0.2v0.5h-0.2v-1.2H504.9z M505.2-166.4c-0.1,0-0.1,0-0.3,0h-0.2v0.4
			h0.2c0.1,0,0.2,0,0.2,0c0.1,0,0.1-0.1,0.1-0.2C505.2-166.3,505.2-166.4,505.2-166.4z"/>
	</g>
	<rect x="350.8" y="-148.9" class="st12" width="138.5" height="1.3"/>
	<path class="st12" d="M382-139.4v7.8h-2.3v-7.8h-3v-2.1h8.2v2.1H382z"/>
	<path class="st12" d="M393.5-131.6v-4h-3.8v4h-2.3v-9.9h2.3v3.9h3.8v-3.9h2.3v9.9H393.5z"/>
	<path class="st12" d="M399.2-131.6v-9.9h6.3v2.1h-4v1.8h3.6v2h-3.6v1.9h4v2.1H399.2z"/>
	<path class="st12" d="M414.9-131.6l-0.7-1.8h-3.4l-0.7,1.8h-2.3l4.6-10h0.3l4.6,10H414.9z M412.5-137.5l-1,2.4h2L412.5-137.5z"/>
	<path class="st12" d="M422.9-139.4v7.8h-2.3v-7.8h-3v-2.1h8.2v2.1H422.9z"/>
	<path class="st12" d="M433.6-131.6l-1.7-3.2c-0.1,0-0.3,0-0.4,0c-0.3,0-0.5,0-0.8,0v3.2h-2.3v-9.8c0.8-0.1,1.8-0.2,2.9-0.2
		c3.1,0,4.3,1.5,4.3,3.3c0,1.2-0.6,2.2-1.7,2.9l2.3,3.8H433.6z M431.6-139.5c-0.4,0-0.6,0-0.9,0.1v2.7c0.3,0,0.5,0,0.7,0
		c1.1,0,1.8-0.5,1.8-1.5C433.2-139,432.6-139.5,431.6-139.5z"/>
	<path class="st12" d="M438.7-131.6v-9.9h2.3v9.9H438.7z"/>
	<path class="st12" d="M449.4-131.5c-3.2,0-5.4-2.2-5.4-5.1c0-2.9,2.2-5.1,5.4-5.1c1.1,0,2.2,0.3,3.1,0.9l-0.7,1.9
		c-0.7-0.4-1.5-0.7-2.4-0.7c-1.8,0-3,1.1-3,3c0,1.8,1.1,3,3,3c0.8,0,1.7-0.3,2.5-0.7l0.7,1.9C451.7-131.8,450.6-131.5,449.4-131.5z"
		/>
	<path class="st12" d="M461.6-131.6l-0.7-1.8h-3.4l-0.7,1.8h-2.3l4.6-10h0.3l4.6,10H461.6z M459.2-137.5l-1,2.4h2L459.2-137.5z"/>
	<path class="st12" d="M466.3-131.6v-9.9h2.3v7.8h4v2.1H466.3z"/>
	<path class="st12" d="M478-131.5c-1.1,0-2.5-0.4-3.3-1l0.6-2.1c0.8,0.6,1.8,1,2.8,1c0.8,0,1.1-0.4,1.1-0.9c0-0.5-0.3-0.9-1.8-1.5
		c-1.7-0.7-2.3-1.7-2.3-2.9c0-1.4,1.2-2.8,3.5-2.8c1.1,0,2.2,0.4,2.8,0.8l-0.6,2c-0.6-0.4-1.5-0.8-2.2-0.8c-0.8,0-1.2,0.4-1.2,0.8
		c0,0.6,0.5,0.9,1.7,1.4c1.8,0.8,2.4,1.7,2.4,2.9C481.5-133,480.3-131.5,478-131.5z"/>
	<g>
		<defs>
			<rect id="SVGID_17_" x="350.8" y="0" width="156.6" height="34.4"/>
		</defs>
		<clipPath id="SVGID_18_">
			<use xlink:href="#SVGID_17_"  style="overflow:visible;"/>
		</clipPath>
		<path class="st13" d="M406.4,0c-7.9,1.2-13.6,5.6-13.6,7.8c0,2.6,4,4.7,6.7,7.6c1.4,1.5,1.8,2.8,1.8,4.1c0,0.7-0.1,1.4-0.3,1.8
			c-0.4,0.6-2.2,1.5-3.5,1.3c-2.7-0.5-3.2-4.3-2.5-6.2c0.1-0.3,0-0.9-0.4-1.1c-0.4-0.3-1.1-0.2-1.4,0.6c-0.7,1.8-1.2,6.4,1.5,8.3
			c0.9,0.6,1.9,0.8,3.5,0.8c4.6,0,7.4-3.5,8.7-6.9c1.4-3.7,2-7-1.8-10.2c-1-0.8-1.7-2.4-1.5-3.2c0.3-1,1.1-1.2,1.1-0.6
			c0,1.1,2.7,2,3.5-1.7C408.3,2,407.5-0.2,406.4,0"/>
	</g>
	<path class="st2" d="M424.4,16.2c-0.3,0.3-0.1,0.1-0.4,0.5c-0.2,0.3-1.4,1.5-2.6,1.6c-1.6,0.2-1.8-2-1.8-2.8c0-1.1,0.8-3,2-3
		c0.4,0,0.4,0.1,0.5,0.3c0.1,0.2,0.2,0.2,0.1,0.5c-0.7,1.5-0.5,2.3,0,2.3c0.2,0,0.3-0.1,0.4-0.2c0.2-0.1,1.5-1.1,1.5-2
		c0-0.9-0.6-2.9-1.7-3.2c-0.4-0.1-1.6,0.2-2.5,0.8c-1.5,0.9-2.5,3.2-2.5,3.2c-0.7,0.9-1,1.1-1.4,1.6c-0.5,0.5-1.3,1.5-2.2,1.6
		c-0.7,0-1-0.8-1.2-1.4c-0.1-0.2-0.2-0.8-0.2-0.8c0.1,0,0.3-0.1,0.5-0.1c0.4-0.1,3.3-1.9,3.3-4.1c0-0.8-0.7-1.4-1.2-1.4
		c-0.5,0-1.7,0.2-2.5,0.8c-1.3,0.9-2.3,1.9-2.8,2.5c-1.2,1.7-1.8,4.9-0.3,6.6c0.7,0.8,1.5,1.5,2.5,1.6c2.2,0.4,3.5-2.6,4.6-3.5
		c0.2,2,0.5,2.6,1.3,3.2c0.8,0.6,1.8,0.7,3.2-0.2c1.4-0.8,3-2.2,3.5-2.9c0,1.7,1.2,3,2.9,3.2c3.1,0.4,5-4.1,5.4-6.2
		c0.3-1.7-0.1-2.4,0.1-2.5c0.2-0.1,1.4-0.4,1.6-0.3c0.2,0.1,0.7,2,0.5,3.1c-0.3,1.8-1,5,0.3,5.1c1.2,0.1,3.1-3.2,3.9-3.2
		c1,0,1.4,2.6,2.7,2.7c1.2,0,2.5-1.4,3.2-1.4c-0.1,1.8,0.8,3,2.3,3c2.6,0,6.2-4.9,7.4-6.2c-0.4,2.2-0.5,5.3-0.5,5.9
		c0,0.7,0.4,1.6,0.8,1.6c1.2,0,3.1-1.2,3.7-2.7c0-0.9,0.4-2.8,1.3-4.6c1.1-2.4,1.9-5,1.9-5.9c0-1.2-1-5.3-2.2-5.5
		c-0.8-0.1-2.6,1.2-2.8,1.5c-0.4,0.5-0.4,1.2-0.6,2.2c-0.3,1.4-0.5,2.9-1.1,4.2c-0.5,1-0.9,2-1.4,2.8c-1.3,1.8-2.8,2.7-3,2.5
		c-0.3-0.2-0.3-1.3,0.1-2.3c0.2-0.6,0.5-0.9,1.1-1c0.5-0.1,1.1-0.1,1.2-0.1c0.4,0.1,0.6-0.6,0.6-1c0-0.4-1-0.5-2-0.4
		c-3.1,0.2-3.9,1.5-4.7,2.9c-1.4,2.1-3.1,1.7-3.8,0.4c-0.7-1.2-1.2-2.6-2.2-2.2c-0.5,0.2-1.4,0.8-1.7,1.1c-0.3,0.3-0.8,0.7-0.9,0.6
		c-0.1-0.2,0.2-1.1,0.2-1.6c0.3-2.1,0.4-4-0.5-4.5c-0.4-0.2-2,0-3.1,0.6c-0.5,0.2-3.1,1.3-4.3,1.3c-0.4,0-0.5-0.5-0.9-0.5
		C426.5,10.5,424.4,14.4,424.4,16.2 M412,13.9c-0.1-0.3-0.2-0.8-0.2-1.2c0-0.3,0.3-0.6,0.5-0.7c0.3-0.2,0.6-0.5,0.8-0.4
		c0.2,0,0.4,0.2,0.5,0.4c0.1,0.2,0,0.9-0.2,1.2C413.2,13.4,412.6,14,412,13.9z M431.5,14.5c0,0.6-0.8,2.4-1.4,2.9
		c-0.4,0.3-0.9,0.3-1.3-0.1c-0.4-0.4-0.8-1.1-0.5-2.5c0.1-0.7,0.6-1.7,1.3-1.8c0.1,0,1,0,1.4-0.1C431.4,12.7,431.5,13,431.5,14.5z"
		/>
	<g>
		<defs>
			<rect id="SVGID_19_" x="350.8" y="0" width="156.6" height="34.4"/>
		</defs>
		<clipPath id="SVGID_20_">
			<use xlink:href="#SVGID_19_"  style="overflow:visible;"/>
		</clipPath>
		<path class="st14" d="M475.2,4c-2.2,0-9.9,4.7-10.4,10c-0.4,4,2,8.1,4,8.8c0.4,0.2,1.4,0.2,2.4-0.1c3.4-1.1,7.3-5.6,9.7-8.8
			c0.1-0.1,0.2,0,0.2,0.2c-0.4,2.1-0.6,3.7-0.5,4.7c0.1,1.3,1.1,1.8,1.5,1.8c1.1,0.2,3-3,3.8-4.4c0-0.1,0.1-0.1,0.1,0.1
			c-0.1,2.8,0.4,4,0.9,4.4c0.3,0.3,1.1,0.6,1.3,0.6c1.5-0.1,3.2-2.8,4.3-4.7c0.1-0.2,0.2,0.1,0.2,0.3c0,3,0.4,3.7,1,3.9
			c0.1,0.1,0.8,0.3,1.1,0.3c1.1-0.3,2.5-1.4,3.7-3.1c-0.2,3.5-2.9,10.9-3.5,13.8c-0.2,1.1-0.2,1.9-0.1,2c0.6,0.6,2.9,0.8,4.7,0.1
			c1.7-0.7,2.3-1.8,2.4-2.1c0.2-1.2-1.4-7.9,1-16.2c0-0.1,0.1-0.2,0.2-0.5c0.2-0.4,0.1-1.1-0.5-1.9c-0.3-0.5-0.9-0.6-1.6-0.5
			c-0.8,0.2-0.9,0.4-1.3,1.2c-0.4,0.8-1.8,3-2.8,2.9c-0.7,0-0.8-0.5-0.8-1.2c-0.1-0.9-0.3-2.6-0.3-2.9c0-0.3-0.1-0.8-0.9-0.8
			c-1.1,0.1-2.3,2.5-4,4.1c-0.7,0.7-1.1,0.5-1.3,0.4c-0.2-0.1-0.2-1.7-0.1-3.1c0.1-0.9,1.1-5,1.2-6c2,0.2,4.7,0.5,7.3,0.6
			c2.5,0.1,4.8-0.1,6.4,0c0.9-0.7,2.7-3.1,2.9-4c0.1-0.6,0-1-0.8-1.1c-2.8-0.2-5.4,0.3-8.3,1.2c-2.1,0.6-2.7,0.7-3.5,0.9
			c-0.8,0.2-3.3,0.5-3.9,0.6c0-0.4,0.1-0.8-0.1-0.9c-0.4-0.2-1.1-0.2-1.7,0.2c-0.2,0.2-0.4,0.6-0.4,0.9c-1.5,0.2-3.3,0.1-4.2-0.2
			c-0.3-0.1-0.5-0.3-0.5-0.5c0-0.2-0.2-1.2-0.4-1.4c-0.2-0.2-0.2-1.3-0.4-1.4c-0.3-0.1-1.4-0.7-2.7,1.6c-0.8,1.5-0.7,2-0.2,2.5
			c0.2,0.2,0.6,0.4,0.9,0.4c1.1,0,1.7-0.2,2.2-0.5c0.5-0.3,0.6-0.1,1.1,0.1c0.5,0.2,2.6,0.7,3.7,0.8c-0.6,1.6-1.8,4.7-2.1,6
			c-0.7,1.3-1.8,3-2.4,3c-0.4,0-0.6-0.4-0.7-0.7c-0.1-0.5,0.2-2.2,0.4-3.5c0.2-1.3,0.7-2.5-0.5-2.5c-1.1,0-1.1,0.1-1.5,0.6
			c-2.2,2.8-5.8,6.4-8.2,7c-1.4,0.3-2.8-2.3-2.8-3.6c0-1.8,0.6-3.8,2.5-5.1C473,8,473,8,473.2,8c0.1,0,0.4-0.1,0.5,0.2
			c0.1,0.2,0.4,1.2,0.9,1.2c0.7,0,1.9-1.7,1.9-4C476.4,4.1,475.3,4,475.2,4"/>
		<path class="st14" d="M390.9,16.5c-0.1-0.7-1-0.3-1.5,0c-0.5,0.2-1,0.7-1,1.2c0,0.5,0.1,1,0,1.3c0,0.4-0.1,0.7-0.8,0.8
			c-0.5,0.1-1.3-0.2-1.7-0.7c-0.9-1.1-1-1.3-1.2-1.8c0.8-0.6,2.2-1.5,2.3-3c0.2-1.8-2.3-1.5-3.8-0.7c-3,1.6-3.4,3.1-3.1,4.3
			c-1,1-2.2,1.1-3.4,0.5c-2.4-1.2-2.1-2.9-3.6-3.2c-1.5-0.3-2.6,1-3.2,1c0.7-3.4,2.3-8,5.4-13.6c0-0.1,0.1-0.4-0.3-0.5
			c-0.4-0.1-1.5-0.2-2.2,0.3c-0.7,0.5-1.1,1.3-1.4,1.9c-1.4,0.6-2,0.8-3.9,0.9c-0.9,0.1-2,0.1-2.4,0.1c0-0.6-0.1-2.2-0.2-2.5
			c-0.1-0.3-0.4-0.7-1-0.6c-1.2,0.2-3.7,0.9-4,2.6c-1.4-0.1-3.8-0.8-5.5-0.7c-3.3,0.2-3.8,0.4-3.9,1.3c-0.1,0.5,0.1,0.9,0.1,1.1
			c0,0.2,0.1,0.9,0.8,0.8c2.9-0.6,7.1-0.5,8.1-0.5c-0.3,3.1-1.2,10.1-1.9,12.9c-0.6,2.2-1,3.6,0.7,2.9c1.8-0.8,2.5-1.2,3.1-1.6
			c0.6-0.4,1.8-1.6,2.1-3.3c0.3-2.2,0.9-4.9,0.9-5.8c0.1-0.9,0.4-4,0.6-5c2,0,4.6-0.8,5.4-1.1c-3.4,6.3-5.4,13.3-5.3,14.6
			c0.1,0.6,0.5,0.9,1.3,0.8c0.8-0.1,2-0.9,2.7-1.7c0.7-0.7,1.4-1,2.2-0.9c0.9,0.1,1.3,0.4,1.5,1c0.6,1.2,1.6,1.7,3.3,1.4
			c2.2-0.3,3-1.2,4.1-1.9c1,2,2.3,2.9,5.1,3c1.6,0,3.7-1.2,4.6-2.3C390.7,18.9,390.9,17.1,390.9,16.5 M384.2,16
			c-0.2-0.2-0.3-1.1-0.4-1.6c0.1-0.3,0.9-0.7,1.3-0.4c0.5,0.3,0.7,0.9,0,1.7C384.8,16,384.5,16.1,384.2,16z"/>
	</g>
	<path class="st2" d="M505.7,14.8c-0.2,0.2-0.5,0.3-0.8,0.3c-0.3,0-0.5-0.1-0.8-0.3c-0.2-0.2-0.3-0.5-0.3-0.8c0-0.3,0.1-0.5,0.3-0.8
		c0.2-0.2,0.5-0.3,0.8-0.3c0.3,0,0.5,0.1,0.8,0.3c0.2,0.2,0.3,0.5,0.3,0.8C506,14.4,505.9,14.6,505.7,14.8 M504.3,13.4
		c-0.2,0.2-0.3,0.4-0.3,0.7c0,0.3,0.1,0.5,0.3,0.7c0.2,0.2,0.4,0.3,0.7,0.3c0.3,0,0.5-0.1,0.6-0.3c0.2-0.2,0.3-0.4,0.3-0.7
		c0-0.3-0.1-0.5-0.3-0.7c-0.2-0.2-0.4-0.3-0.6-0.3C504.7,13.2,504.5,13.3,504.3,13.4z M504.9,13.5c0.1,0,0.3,0,0.3,0
		c0.1,0.1,0.2,0.1,0.2,0.3c0,0.1,0,0.2-0.1,0.2c0,0-0.1,0-0.2,0.1c0.1,0,0.2,0.1,0.2,0.1c0,0.1,0.1,0.1,0.1,0.2v0.1c0,0,0,0.1,0,0.1
		c0,0,0,0,0,0.1l0,0h-0.2c0,0,0,0,0,0c0,0,0,0,0,0l0,0v-0.1c0-0.1,0-0.2-0.1-0.3c0,0-0.1,0-0.2,0h-0.2v0.5h-0.2v-1.2H504.9z
		 M505.2,13.7c-0.1,0-0.1,0-0.3,0h-0.2v0.4h0.2c0.1,0,0.2,0,0.2,0c0.1,0,0.1-0.1,0.1-0.2C505.2,13.8,505.2,13.7,505.2,13.7z"/>
	<rect x="350.8" y="31.2" class="st15" width="138.5" height="1.3"/>
	<path class="st15" d="M357,40.7v7.8h-2.3v-7.8h-3v-2.1h8.2v2.1H357z"/>
	<path class="st15" d="M367,48.6c-3.1,0-5-2.2-5-5.1c0-2.9,2-5.1,5.1-5.1c3,0,5,2.2,5,5.1C372.1,46.4,370,48.6,367,48.6z M367,40.4
		c-1.6,0-2.6,1.3-2.6,3.1c0,1.8,1,3.1,2.6,3.1c1.6,0,2.6-1.3,2.6-3.1C369.6,41.7,368.6,40.4,367,40.4z"/>
	<path class="st15" d="M379.1,48.6c-2.7,0-4.1-1.4-4.1-4.2v-5.9h2.3v5.7c0,1.4,0.6,2.3,1.9,2.3c1.3,0,1.9-0.8,1.9-2.3v-5.7h2.3v5.9
		C383.3,47.2,381.7,48.6,379.1,48.6z"/>
	<path class="st15" d="M391.8,48.4l-1.7-3.2c-0.1,0-0.3,0-0.4,0c-0.3,0-0.5,0-0.8,0v3.2h-2.3v-9.8c0.8-0.1,1.8-0.2,2.9-0.2
		c3.1,0,4.3,1.5,4.3,3.3c0,1.2-0.6,2.2-1.7,2.9l2.3,3.8H391.8z M389.8,40.5c-0.3,0-0.6,0-0.9,0.1v2.7c0.3,0,0.5,0,0.7,0
		c1.1,0,1.8-0.5,1.8-1.5C391.4,41,390.8,40.5,389.8,40.5z"/>
	<path class="st15" d="M396.9,48.4v-9.9h2.3v9.9H396.9z"/>
	<path class="st15" d="M410.9,48.6l-6-5.3v5.2h-2.3v-10l0.3-0.1l5.9,5.3v-5.1h2.3v10L410.9,48.6z"/>
	<path class="st15" d="M423,42.9v4.7c-1.1,0.6-2.2,1-3.7,1c-2.9,0-5.2-2.1-5.2-5.1c0-3,2.3-5.1,5.3-5.1c1.3,0,2.3,0.3,3.3,0.8
		l-1,1.8c-0.7-0.4-1.5-0.6-2.2-0.6c-2,0-3,1.2-3,3c0,1.9,1.3,3.1,2.9,3.1c0.7,0,1.1-0.1,1.5-0.3v-1.5h-2v-2H423z"/>
	<path class="st15" d="M434.8,48.6c-3.2,0-5.4-2.2-5.4-5.1c0-2.9,2.2-5.1,5.4-5.1c1.1,0,2.2,0.3,3.1,0.9l-0.7,1.9
		c-0.7-0.4-1.5-0.7-2.4-0.7c-1.8,0-3,1.1-3,3c0,1.8,1.1,3,3,3c0.8,0,1.7-0.3,2.5-0.7l0.7,1.9C437.1,48.3,435.9,48.6,434.8,48.6z"/>
	<path class="st15" d="M445.1,48.6c-3.1,0-5-2.2-5-5.1c0-2.9,2-5.1,5.1-5.1c3,0,5,2.2,5,5.1C450.2,46.4,448.1,48.6,445.1,48.6z
		 M445.1,40.4c-1.6,0-2.6,1.3-2.6,3.1c0,1.8,1.1,3.1,2.6,3.1c1.6,0,2.6-1.3,2.6-3.1C447.7,41.7,446.7,40.4,445.1,40.4z"/>
	<path class="st15" d="M461.1,48.4l-0.1-4.9l-2.7,3.5H458l-2.8-3.5l-0.1,4.9h-2.2l0.5-9.9l0.3,0l4.5,5.6l4.4-5.6l0.3,0l0.5,9.9
		H461.1z"/>
	<path class="st15" d="M469.7,45.5c-0.3,0-0.5,0-0.8,0v3h-2.3v-9.8c1-0.1,1.9-0.2,2.7-0.2c2.9,0,4.4,1.5,4.4,3.5
		C473.7,44,472.3,45.5,469.7,45.5z M469.7,40.6c-0.3,0-0.5,0-0.8,0.1v2.8c0.3,0,0.5,0,0.7,0c1.2,0,1.8-0.5,1.8-1.5
		C471.4,41.3,470.9,40.6,469.7,40.6z"/>
	<path class="st15" d="M481.7,48.4l-0.7-1.8h-3.4l-0.7,1.8h-2.3l4.6-10h0.3l4.6,10H481.7z M479.3,42.5l-1,2.4h2L479.3,42.5z"/>
	<path class="st15" d="M494.6,48.6l-6-5.3v5.2h-2.3v-10l0.3-0.1l5.9,5.3v-5.1h2.3v10L494.6,48.6z"/>
	<path class="st15" d="M503,44.5v3.9h-2.3v-3.9l-3.5-6h2.6l2,3.8l2-3.8h2.6L503,44.5z"/>
	<g>
		<path class="st16" d="M341.6,224.7c-3,0-5-2.2-5-5c0-2.9,2-5.1,5.1-5.1c3,0,5,2.2,5,5.1C346.6,222.6,344.6,224.7,341.6,224.7z
			 M341.6,216.7c-1.5,0-2.6,1.3-2.6,3c0,1.7,1,3,2.6,3c1.5,0,2.6-1.3,2.6-3C344.2,217.9,343.2,216.7,341.6,216.7z"/>
		<path class="st16" d="M353.8,224.7c-2.6,0-4.1-1.4-4.1-4.1v-5.8h2.3v5.6c0,1.4,0.6,2.2,1.9,2.2c1.3,0,1.9-0.8,1.9-2.2v-5.6h2.3
			v5.8C358,223.3,356.4,224.7,353.8,224.7z"/>
		<path class="st16" d="M365.8,216.9v7.7h-2.3v-7.7h-2.9v-2.1h8.1v2.1H365.8z"/>
		<path class="st16" d="M376.6,224.6l-1.7-3.2c-0.1,0-0.3,0-0.4,0c-0.3,0-0.5,0-0.8,0v3.2h-2.3v-9.7c0.8-0.1,1.7-0.2,2.9-0.2
			c3,0,4.2,1.5,4.2,3.2c0,1.2-0.6,2.2-1.7,2.8l2.3,3.8H376.6z M374.6,216.8c-0.3,0-0.6,0-0.9,0.1v2.7c0.3,0,0.5,0,0.7,0
			c1.1,0,1.8-0.5,1.8-1.5C376.2,217.2,375.6,216.8,374.6,216.8z"/>
		<path class="st16" d="M381.7,224.6v-9.8h6.2v2.1H384v1.7h3.6v2H384v1.9h3.9v2.1H381.7z"/>
		<path class="st16" d="M397.2,224.6l-0.7-1.8h-3.4l-0.7,1.8h-2.3l4.6-9.9h0.3l4.6,9.9H397.2z M394.8,218.7l-1,2.3h1.9L394.8,218.7z
			"/>
		<path class="st16" d="M406.4,224.7c-3.2,0-5.3-2.1-5.3-5c0-2.9,2.2-5.1,5.3-5.1c1.1,0,2.2,0.3,3.1,0.9l-0.7,1.9
			c-0.7-0.4-1.5-0.7-2.3-0.7c-1.8,0-3,1.1-3,2.9c0,1.8,1.1,2.9,3,2.9c0.8,0,1.7-0.3,2.4-0.7l0.7,1.9
			C408.7,224.4,407.6,224.7,406.4,224.7z"/>
		<path class="st16" d="M418.5,224.6v-3.9h-3.8v3.9h-2.3v-9.8h2.3v3.8h3.8v-3.8h2.3v9.8H418.5z"/>
		<path class="st16" d="M435.5,221.6c-0.4,0.4-0.8,0.9-1.2,1.3c0.3,0.3,0.6,0.5,0.9,0.8l-1.1,1.1c-0.3-0.3-0.7-0.6-1-0.8
			c-0.7,0.5-1.5,0.8-2.4,0.8c-1.4,0-2.8-0.8-2.8-2.3c0-0.9,0.7-1.8,1.8-2.3c-0.3-0.6-0.5-1.1-0.5-1.5c0-1.2,1-2.2,2.5-2.2
			c1.5,0,2.4,1,2.4,2.1c0,0.9-0.7,1.7-2,2.1c0.3,0.4,0.7,0.8,1.1,1.2c0.4-0.4,0.9-0.9,1.2-1.3L435.5,221.6z M430.5,221.3
			c-0.4,0.2-0.6,0.6-0.6,0.9c0,0.5,0.4,0.9,1,0.9c0.3,0,0.6-0.1,1-0.3C431.3,222.3,430.9,221.8,430.5,221.3z M431.6,217.9
			c-0.4,0-0.7,0.3-0.7,0.8c0,0.3,0.1,0.6,0.4,1c0.7-0.2,1-0.7,1-1.1C432.3,218.2,432,217.9,431.6,217.9z"/>
		<path class="st16" d="M445.4,224.7c-1.1,0-1.8-0.1-3-0.2v-9.6c1.1-0.1,1.9-0.2,2.9-0.2c4.1,0,5.9,2.1,5.9,4.9
			C451.3,222.5,449.5,224.7,445.4,224.7z M445.6,216.8c-0.4,0-0.6,0-0.9,0.1v5.8c0.4,0,0.6,0.1,1.1,0.1c2.1,0,3.1-1.2,3.1-3
			C448.9,217.8,447.7,216.8,445.6,216.8z"/>
		<path class="st16" d="M454.5,224.6v-9.8h2.3v9.8H454.5z"/>
		<path class="st16" d="M464,224.7h-0.3l-4.7-9.9h2.6l2.2,5.3l2.2-5.3h2.5L464,224.7z"/>
		<path class="st16" d="M471,224.6v-9.8h6.2v2.1h-3.9v1.7h3.6v2h-3.6v1.9h3.9v2.1H471z"/>
		<path class="st16" d="M485.7,224.6l-1.7-3.2c-0.1,0-0.3,0-0.4,0c-0.3,0-0.5,0-0.8,0v3.2h-2.3v-9.7c0.8-0.1,1.7-0.2,2.9-0.2
			c3,0,4.2,1.5,4.2,3.2c0,1.2-0.6,2.2-1.7,2.8l2.3,3.8H485.7z M483.6,216.8c-0.3,0-0.6,0-0.9,0.1v2.7c0.3,0,0.5,0,0.7,0
			c1.1,0,1.8-0.5,1.8-1.5C485.3,217.2,484.6,216.8,483.6,216.8z"/>
		<path class="st16" d="M493.3,224.7c-1.1,0-2.4-0.4-3.3-1l0.6-2.1c0.8,0.6,1.8,0.9,2.7,0.9c0.8,0,1.1-0.4,1.1-0.9
			c0-0.5-0.3-0.9-1.7-1.5c-1.7-0.7-2.3-1.7-2.3-2.9c0-1.4,1.2-2.8,3.4-2.8c1.1,0,2.2,0.4,2.7,0.8l-0.6,2c-0.6-0.4-1.5-0.8-2.2-0.8
			c-0.8,0-1.2,0.4-1.2,0.8c0,0.6,0.5,0.9,1.7,1.4c1.8,0.8,2.4,1.7,2.4,2.9C496.8,223.3,495.7,224.7,493.3,224.7z"/>
		<path class="st16" d="M499.8,224.6v-9.8h2.3v9.8H499.8z"/>
		<path class="st16" d="M510.1,216.9v7.7h-2.3v-7.7h-2.9v-2.1h8.1v2.1H510.1z"/>
		<path class="st16" d="M520.5,220.7v3.9h-2.3v-3.9l-3.4-5.9h2.6l2,3.7l2-3.7h2.5L520.5,220.7z"/>
	</g>
	<g>
		<path d="M408.7,176.2c-7.9,1.2-13.6,5.6-13.6,7.8c0,2.6,4,4.7,6.7,7.6c1.4,1.5,1.8,2.8,1.8,4.1c0,0.7-0.1,1.4-0.3,1.8
			c-0.4,0.6-2.2,1.5-3.5,1.3c-2.7-0.5-3.2-4.3-2.5-6.2c0.1-0.3,0-0.9-0.4-1.1c-0.4-0.3-1.1-0.2-1.4,0.6c-0.7,1.8-1.2,6.4,1.5,8.3
			c0.9,0.6,1.9,0.8,3.5,0.8c4.6,0,7.4-3.5,8.7-6.9c1.4-3.7,2-7-1.8-10.2c-1-0.8-1.7-2.4-1.5-3.2c0.3-1,1.1-1.2,1.1-0.6
			c0,1.1,2.7,2,3.5-1.7C410.6,178.2,409.9,176,408.7,176.2"/>
	</g>
	<path d="M426.7,192.4c-0.3,0.3-0.1,0.1-0.4,0.5c-0.2,0.3-1.4,1.5-2.6,1.6c-1.6,0.2-1.8-2-1.8-2.8c0-1.1,0.8-3,2-3
		c0.4,0,0.4,0.1,0.5,0.3c0.1,0.2,0.2,0.2,0.1,0.5c-0.7,1.5-0.5,2.3,0,2.3c0.2,0,0.3-0.1,0.4-0.2c0.2-0.1,1.5-1.1,1.5-2
		c0-0.9-0.6-2.9-1.7-3.2c-0.4-0.1-1.6,0.2-2.5,0.8c-1.5,0.9-2.5,3.2-2.5,3.2c-0.7,0.9-1,1.1-1.4,1.6c-0.5,0.5-1.3,1.5-2.2,1.6
		c-0.7,0-1-0.8-1.2-1.4c-0.1-0.2-0.2-0.8-0.2-0.8c0.1,0,0.3-0.1,0.5-0.1c0.4-0.1,3.3-1.9,3.3-4.1c0-0.8-0.7-1.4-1.2-1.4
		c-0.5,0-1.7,0.2-2.5,0.8c-1.3,0.9-2.3,1.9-2.8,2.5c-1.2,1.7-1.8,4.9-0.3,6.6c0.7,0.8,1.5,1.5,2.5,1.6c2.2,0.4,3.5-2.6,4.6-3.5
		c0.2,2,0.5,2.6,1.3,3.2c0.8,0.6,1.8,0.7,3.2-0.2c1.4-0.8,3-2.2,3.5-2.9c0,1.7,1.2,3,2.9,3.2c3.1,0.4,5-4.1,5.4-6.2
		c0.3-1.7-0.1-2.4,0.1-2.5c0.2-0.1,1.4-0.4,1.6-0.3c0.2,0.1,0.7,2,0.5,3.2c-0.3,1.8-1,5,0.3,5.1c1.2,0.1,3.1-3.2,3.9-3.2
		c1,0,1.4,2.6,2.7,2.7c1.2,0,2.5-1.4,3.2-1.4c-0.1,1.8,0.8,3,2.3,3c2.6,0,6.2-4.9,7.4-6.2c-0.4,2.2-0.5,5.3-0.5,5.9
		c0,0.7,0.4,1.6,0.8,1.6c1.2,0,3.1-1.2,3.7-2.7c0-0.9,0.4-2.8,1.3-4.6c1.1-2.4,1.9-5,1.9-5.9c0-1.2-1-5.3-2.2-5.5
		c-0.8-0.1-2.6,1.2-2.8,1.5c-0.4,0.5-0.4,1.2-0.6,2.2c-0.3,1.4-0.5,2.9-1.1,4.2c-0.5,1-0.9,2-1.4,2.8c-1.3,1.8-2.8,2.7-3,2.5
		c-0.3-0.2-0.3-1.3,0.1-2.3c0.2-0.6,0.5-0.9,1.1-1c0.5-0.1,1.1-0.1,1.2-0.1c0.4,0.1,0.6-0.6,0.6-1c0-0.4-1-0.5-2-0.4
		c-3.1,0.2-3.9,1.5-4.7,2.9c-1.4,2.1-3.1,1.7-3.8,0.4c-0.7-1.2-1.2-2.6-2.2-2.2c-0.5,0.2-1.4,0.8-1.7,1.1c-0.3,0.3-0.8,0.7-0.9,0.6
		c-0.1-0.2,0.2-1.1,0.2-1.6c0.3-2.1,0.4-4-0.5-4.5c-0.4-0.2-2,0-3.1,0.6c-0.5,0.2-3.1,1.3-4.3,1.3c-0.4,0-0.5-0.5-0.9-0.5
		C428.8,186.7,426.7,190.6,426.7,192.4 M414.3,190.1c-0.1-0.3-0.2-0.8-0.2-1.2c0-0.3,0.3-0.6,0.5-0.7c0.3-0.2,0.6-0.5,0.8-0.4
		c0.2,0,0.4,0.2,0.5,0.4c0.1,0.2,0,0.9-0.2,1.2C415.5,189.6,414.9,190.2,414.3,190.1z M433.8,190.7c0,0.6-0.8,2.4-1.4,2.9
		c-0.4,0.3-0.9,0.3-1.3-0.1c-0.4-0.4-0.8-1.1-0.5-2.5c0.1-0.7,0.6-1.7,1.3-1.8c0.1,0,1,0,1.4-0.1
		C433.7,188.9,433.8,189.2,433.8,190.7z"/>
	<g>
		<path d="M477.5,180.2c-2.2,0-9.9,4.7-10.4,10c-0.4,4,2,8.1,4,8.8c0.4,0.2,1.4,0.2,2.4-0.1c3.4-1.1,7.3-5.6,9.7-8.8
			c0.1-0.1,0.2,0,0.2,0.2c-0.4,2.1-0.6,3.7-0.5,4.7c0.1,1.3,1.1,1.8,1.5,1.8c1.1,0.2,3-3,3.8-4.4c0-0.1,0.1-0.1,0.1,0.1
			c-0.1,2.8,0.4,4,0.9,4.4c0.3,0.3,1.1,0.6,1.3,0.6c1.5-0.1,3.2-2.8,4.3-4.7c0.1-0.2,0.2,0.1,0.2,0.3c0,3,0.4,3.7,1,3.9
			c0.1,0.1,0.8,0.3,1.1,0.3c1.1-0.3,2.5-1.4,3.7-3.1c-0.2,3.5-2.9,10.9-3.5,13.8c-0.2,1.1-0.2,1.9-0.1,2c0.6,0.6,2.9,0.8,4.7,0.1
			c1.7-0.7,2.3-1.8,2.4-2.1c0.2-1.2-1.4-7.9,1-16.2c0-0.1,0.1-0.2,0.2-0.5c0.2-0.4,0.1-1.1-0.5-1.9c-0.3-0.5-0.9-0.6-1.6-0.5
			c-0.8,0.2-0.9,0.4-1.3,1.2c-0.4,0.8-1.8,3-2.8,2.9c-0.7,0-0.8-0.5-0.8-1.2c-0.1-0.9-0.3-2.6-0.3-2.9c0-0.3-0.1-0.8-0.9-0.8
			c-1.1,0.1-2.3,2.5-4,4.1c-0.7,0.7-1.1,0.5-1.3,0.4c-0.2-0.1-0.2-1.7-0.1-3.1c0.1-0.9,1.1-5,1.2-6c2,0.2,4.7,0.5,7.3,0.6
			c2.5,0.1,4.8-0.1,6.4,0c0.9-0.6,2.7-3.1,2.9-4c0.1-0.6,0-1-0.8-1.1c-2.8-0.2-5.4,0.3-8.3,1.2c-2.1,0.6-2.7,0.7-3.5,0.9
			c-0.8,0.2-3.3,0.5-3.9,0.6c0-0.4,0.1-0.8-0.1-0.9c-0.4-0.2-1.1-0.2-1.7,0.2c-0.2,0.2-0.4,0.6-0.4,0.9c-1.5,0.2-3.3,0.1-4.2-0.2
			c-0.3-0.1-0.5-0.3-0.5-0.5c0-0.2-0.2-1.2-0.4-1.4c-0.2-0.2-0.2-1.3-0.4-1.4c-0.3-0.1-1.4-0.7-2.7,1.6c-0.8,1.5-0.7,2-0.2,2.5
			c0.2,0.2,0.6,0.4,0.9,0.4c1.1,0,1.7-0.2,2.2-0.5c0.5-0.3,0.6-0.1,1.1,0.1c0.5,0.2,2.6,0.7,3.7,0.8c-0.6,1.6-1.8,4.7-2.1,6
			c-0.7,1.3-1.8,3-2.4,3c-0.4,0-0.6-0.4-0.7-0.7c-0.1-0.5,0.2-2.2,0.4-3.5c0.2-1.3,0.7-2.4-0.5-2.4c-1.1,0-1.1,0.1-1.5,0.6
			c-2.2,2.8-5.8,6.4-8.2,7c-1.4,0.3-2.8-2.3-2.8-3.6c0-1.8,0.6-3.8,2.5-5.1c0.2-0.2,0.2-0.2,0.3-0.2c0.1,0,0.4-0.1,0.5,0.2
			c0.1,0.2,0.4,1.2,0.9,1.2c0.7,0,1.9-1.7,1.9-4C478.7,180.3,477.6,180.2,477.5,180.2"/>
		<path d="M393.2,192.7c-0.1-0.7-1-0.3-1.5,0c-0.5,0.2-1,0.7-1,1.2c0,0.5,0.1,1,0,1.3c0,0.4-0.1,0.7-0.8,0.8
			c-0.5,0.1-1.3-0.2-1.7-0.7c-0.9-1.1-1-1.3-1.2-1.8c0.8-0.6,2.2-1.5,2.3-3c0.2-1.8-2.3-1.5-3.8-0.7c-3,1.6-3.4,3.1-3.1,4.3
			c-1,1-2.2,1.1-3.4,0.5c-2.4-1.2-2.1-2.9-3.6-3.2c-1.5-0.3-2.6,1-3.2,1c0.7-3.4,2.3-8,5.4-13.6c0-0.1,0.1-0.4-0.3-0.5
			c-0.4-0.1-1.5-0.2-2.2,0.3c-0.7,0.5-1.1,1.3-1.4,1.9c-1.4,0.6-2,0.8-3.9,0.9c-0.9,0.1-2,0.1-2.4,0.1c0-0.6-0.1-2.2-0.2-2.5
			c-0.1-0.3-0.4-0.7-1-0.6c-1.2,0.2-3.7,0.9-4,2.6c-1.4-0.1-3.8-0.8-5.5-0.7c-3.3,0.2-3.8,0.4-3.9,1.3c-0.1,0.5,0.1,0.9,0.1,1.1
			c0,0.2,0.1,0.9,0.8,0.8c2.9-0.6,7.1-0.5,8.1-0.5c-0.3,3.1-1.2,10.1-1.9,12.9c-0.6,2.2-1,3.6,0.7,2.9c1.8-0.8,2.5-1.2,3.1-1.6
			c0.6-0.4,1.8-1.6,2.1-3.3c0.3-2.2,0.9-4.9,0.9-5.8c0.1-0.9,0.4-4,0.6-5c2,0,4.6-0.8,5.4-1.1c-3.4,6.3-5.4,13.3-5.3,14.6
			c0.1,0.6,0.5,0.9,1.3,0.8c0.8-0.1,2-0.9,2.7-1.7c0.7-0.7,1.4-1,2.2-0.9c0.9,0.1,1.3,0.4,1.5,1c0.6,1.2,1.6,1.7,3.3,1.4
			c2.2-0.3,3-1.2,4.1-1.9c1,2,2.3,2.9,5.1,3c1.6,0,3.7-1.2,4.6-2.3C393,195.1,393.3,193.3,393.2,192.7 M386.5,192.2
			c-0.2-0.2-0.3-1.1-0.4-1.6c0.1-0.3,0.9-0.7,1.3-0.4c0.5,0.3,0.7,0.9,0,1.7C387.1,192.2,386.8,192.3,386.5,192.2z"/>
	</g>
	<path d="M508,191c-0.2,0.2-0.5,0.3-0.8,0.3c-0.3,0-0.5-0.1-0.8-0.3c-0.2-0.2-0.3-0.5-0.3-0.8c0-0.3,0.1-0.5,0.3-0.8
		c0.2-0.2,0.5-0.3,0.8-0.3c0.3,0,0.5,0.1,0.8,0.3c0.2,0.2,0.3,0.5,0.3,0.8C508.3,190.6,508.2,190.8,508,191 M506.6,189.6
		c-0.2,0.2-0.3,0.4-0.3,0.7c0,0.3,0.1,0.5,0.3,0.7c0.2,0.2,0.4,0.3,0.7,0.3c0.3,0,0.5-0.1,0.6-0.3c0.2-0.2,0.3-0.4,0.3-0.7
		c0-0.3-0.1-0.5-0.3-0.7c-0.2-0.2-0.4-0.3-0.6-0.3C507,189.4,506.8,189.5,506.6,189.6z M507.2,189.7c0.1,0,0.3,0,0.3,0
		c0.1,0.1,0.2,0.2,0.2,0.3c0,0.1,0,0.2-0.1,0.2c0,0-0.1,0-0.2,0.1c0.1,0,0.2,0.1,0.2,0.1c0,0.1,0.1,0.1,0.1,0.2v0.1c0,0,0,0.1,0,0.1
		c0,0,0,0.1,0,0.1l0,0h-0.2v0c0,0,0,0,0,0l0,0v-0.1c0-0.1,0-0.2-0.1-0.3c0,0-0.1,0-0.2,0H507v0.5h-0.2v-1.2H507.2z M507.5,189.9
		c-0.1,0-0.1,0-0.3,0H507v0.4h0.2c0.1,0,0.2,0,0.2,0c0.1,0,0.1-0.1,0.1-0.2C507.5,190,507.5,189.9,507.5,189.9z"/>
	<rect x="353.1" y="207.4" class="st16" width="138.5" height="1.3"/>
	
		<text transform="matrix(1 0 0 1 589.5361 336.7817)" class="st17" style="font-family:'AvantGarde-Medium'; font-size:9; letter-spacing:3;">7/2/14</text>
</g>
<g id="Layer_3">
</g>
<g id="Layer_2">
</g>
</svg>
