<?xml version="1.0" encoding="utf-8"?>
<!-- Generator: Adobe Illustrator 16.0.4, SVG Export Plug-In . SVG Version: 6.00 Build 0)  -->
<!DOCTYPE svg PUBLIC "-//W3C//DTD SVG 1.1//EN" "http://www.w3.org/Graphics/SVG/1.1/DTD/svg11.dtd">
<svg version="1.1" id="Layer_1" xmlns="http://www.w3.org/2000/svg" xmlns:xlink="http://www.w3.org/1999/xlink" x="0px" y="0px"
	 width="195px" height="60px" viewBox="-12.497 709.69 195 60" enable-background="new -12.497 709.69 195 60" xml:space="preserve"
	>
<g id="Layer_1_1_">
	<g>
		<g>
			<g>
				<path fill="#221F20" d="M60.333,723.806c-8.639,1.333-14.75,6.083-14.75,8.389c0,2.778,4.389,5.111,7.25,8.223
					c1.555,1.639,2,3.056,2,4.472c0,0.723-0.083,1.556-0.333,1.917c-0.444,0.694-2.361,1.639-3.833,1.361
					c-2.917-0.556-3.472-4.667-2.75-6.723c0.083-0.333,0-0.917-0.444-1.222c-0.444-0.278-1.194-0.223-1.556,0.639
					c-0.778,2-1.333,6.944,1.639,9c0.972,0.639,2.111,0.916,3.778,0.916c5.028,0,8.028-3.833,9.444-7.444
					c1.5-3.972,2.139-7.61-1.917-11.083c-1.056-0.861-1.861-2.611-1.611-3.527c0.333-1.056,1.222-1.334,1.222-0.584
					c0,1.194,2.889,2.111,3.778-1.833C62.389,725.944,61.611,723.611,60.333,723.806"/>
			</g>
		</g>
		<g>
			<path fill="#221F20" d="M79.861,741.389c-0.333,0.361-0.139,0.139-0.445,0.556c-0.222,0.361-1.555,1.639-2.833,1.778
				c-1.778,0.222-2-2.14-2-3c0-1.14,0.917-3.278,2.25-3.278c0.417,0,0.444,0.083,0.583,0.278c0.139,0.194,0.278,0.277,0.139,0.555
				c-0.778,1.611-0.5,2.5,0.056,2.5c0.222,0,0.277-0.139,0.444-0.277c0.194-0.139,1.639-1.194,1.611-2.194
				c0-0.973-0.694-3.194-1.861-3.528c-0.444-0.139-1.722,0.278-2.75,0.861c-1.639,1-2.75,3.417-2.75,3.417
				c-0.722,0.972-1.056,1.222-1.556,1.722s-1.417,1.695-2.417,1.723c-0.778,0.056-1.083-0.917-1.333-1.5
				c-0.083-0.223-0.278-0.833-0.194-0.833c0.139,0,0.333-0.084,0.583-0.14c0.5-0.139,3.611-2.055,3.611-4.416
				c0-0.861-0.833-1.473-1.333-1.473s-1.833,0.278-2.694,0.834c-1.417,0.916-2.5,2.055-3,2.75c-1.333,1.916-1.972,5.333-0.361,7.222
				c0.722,0.861,1.694,1.611,2.75,1.778c2.361,0.36,3.833-2.778,4.972-3.834c0.222,2.111,0.5,2.889,1.361,3.473
				c0.861,0.583,1.972,0.722,3.417-0.194c1.472-0.861,3.277-2.417,3.833-3.194c0,1.833,1.333,3.277,3.111,3.472
				c3.333,0.417,5.389-4.472,5.833-6.75c0.361-1.861-0.083-2.639,0.084-2.75c0.277-0.139,1.5-0.444,1.777-0.333
				s0.694,2.194,0.556,3.416c-0.278,2-1.056,5.473,0.333,5.556c1.334,0.14,3.334-3.416,4.25-3.416c1.084,0,1.556,2.889,2.889,2.889
				c1.334,0,2.695-1.5,3.528-1.5c-0.14,1.972,0.917,3.277,2.5,3.25c2.833-0.056,6.806-5.306,8.028-6.723
				c-0.445,2.361-0.557,5.694-0.584,6.444s0.416,1.695,0.834,1.695c1.277,0,3.332-1.334,3.972-2.973
				c-0.056-0.973,0.444-3.056,1.36-5.027c1.223-2.611,2.057-5.445,2.057-6.445c0-1.277-1.084-5.805-2.417-5.944
				c-0.861-0.083-2.778,1.278-3,1.611c-0.417,0.583-0.417,1.333-0.64,2.417c-0.332,1.556-0.582,3.139-1.222,4.611
				c-0.5,1.139-0.917,2.194-1.556,3c-1.416,1.972-3.111,2.889-3.333,2.75c-0.361-0.223-0.278-1.417,0.139-2.473
				c0.278-0.639,0.583-1,1.14-1.139c0.555-0.139,1.193-0.084,1.332-0.084c0.445,0.084,0.64-0.694,0.584-1.139
				c-0.056-0.416-1.139-0.5-2.25-0.416c-3.416,0.194-4.194,1.694-5.111,3.11c-1.473,2.278-3.389,1.834-4.111,0.444
				c-0.722-1.333-1.333-2.833-2.361-2.333c-0.5,0.223-1.5,0.917-1.86,1.223c-0.361,0.333-0.917,0.722-1,0.583
				c-0.14-0.223,0.194-1.223,0.222-1.694c0.278-2.278,0.445-4.389-0.5-4.889c-0.443-0.223-2.25,0-3.333,0.639
				c-0.5,0.277-3.417,1.361-4.61,1.361c-0.445,0-0.557-0.556-1-0.556C82.194,735.139,79.917,739.444,79.861,741.389 M66.389,738.944
				c-0.139-0.361-0.277-0.833-0.222-1.333c0.056-0.334,0.333-0.694,0.556-0.834c0.333-0.222,0.694-0.5,0.917-0.444
				c0.223,0.056,0.445,0.223,0.556,0.417c0.083,0.194,0,1-0.194,1.223C67.667,738.389,67.083,739,66.389,738.944z M87.584,739.5
				c0,0.639-0.861,2.611-1.473,3.111c-0.417,0.333-1,0.333-1.417-0.139c-0.417-0.417-0.861-1.14-0.583-2.75
				c0.139-0.778,0.639-1.861,1.361-2c0.194-0.056,1.055,0,1.472-0.084C87.5,737.556,87.527,737.973,87.584,739.5z"/>
		</g>
		<g>
			<g>
				<path fill="#221F20" d="M135,728.111c-2.361,0-10.777,5.111-11.277,10.861c-0.361,4.277,2.193,8.805,4.277,9.583
					c0.444,0.194,1.556,0.222,2.556-0.083c3.75-1.195,7.889-6.028,10.5-9.5c0.083-0.084,0.222-0.056,0.194,0.194
					c-0.444,2.333-0.639,4.056-0.556,5.11c0.14,1.417,1.222,1.917,1.64,2c1.193,0.195,3.277-3.277,4.055-4.805
					c0.056-0.084,0.139-0.084,0.195,0.055c-0.14,3.056,0.416,4.278,0.972,4.806c0.36,0.334,1.222,0.584,1.36,0.584
					c1.64-0.14,3.473-3,4.695-5.056c0.083-0.194,0.277,0.056,0.277,0.333c0,3.278,0.5,4.028,1.084,4.25
					c0.139,0.056,0.833,0.361,1.139,0.278c1.194-0.278,2.694-1.473,3.973-3.417c-0.278,3.75-3.14,11.861-3.778,15.027
					c-0.222,1.14-0.222,2.056-0.056,2.25c0.694,0.694,3.194,0.917,5.056,0.14c1.86-0.778,2.5-1.973,2.61-2.278
					c0.278-1.361-1.472-8.527,1.084-17.583c0.056-0.084,0.084-0.223,0.194-0.5c0.194-0.444,0.14-1.139-0.5-2
					c-0.36-0.5-0.972-0.694-1.778-0.556c-0.86,0.194-1,0.444-1.416,1.277c-0.416,0.834-1.973,3.194-3,3.14
					c-0.723-0.056-0.834-0.556-0.861-1.361c-0.055-0.973-0.277-2.889-0.277-3.194c0-0.334-0.139-0.917-0.973-0.834
					c-1.223,0.056-2.5,2.75-4.277,4.417c-0.777,0.723-1.195,0.556-1.417,0.444s-0.278-1.833-0.056-3.389
					c0.139-0.973,1.139-5.473,1.277-6.473c2.111,0.278,5.057,0.5,7.945,0.584c2.694,0.083,5.194-0.084,6.944-0.056
					c1-0.694,2.972-3.417,3.194-4.389c0.139-0.64,0-1.084-0.834-1.14c-3-0.194-5.832,0.334-9.027,1.223
					c-2.333,0.639-2.916,0.722-3.777,0.972c-0.861,0.195-3.556,0.584-4.25,0.695c0.055-0.417,0.194-0.834-0.084-0.973
					c-0.361-0.223-1.193-0.277-1.861,0.223c-0.222,0.194-0.36,0.694-0.443,0.916c-1.639,0.223-3.557,0.084-4.528-0.194
					c-0.333-0.083-0.5-0.333-0.556-0.583c-0.055-0.223-0.194-1.334-0.416-1.556c-0.223-0.223-0.195-1.417-0.445-1.556
					c-0.333-0.139-1.5-0.833-2.972,1.777c-0.861,1.611-0.778,2.111-0.194,2.695c0.223,0.222,0.583,0.444,1,0.444
					c1.194,0,1.861-0.278,2.416-0.584c0.557-0.333,0.695-0.056,1.223,0.14c0.556,0.222,2.777,0.833,3.973,0.916
					c-0.639,1.694-1.973,5.111-2.278,6.473c-0.722,1.416-1.917,3.277-2.61,3.277c-0.418,0-0.695-0.444-0.723-0.722
					c-0.139-0.556,0.194-2.417,0.416-3.778c0.223-1.361,0.723-2.639-0.555-2.639c-1.139,0-1.195,0.083-1.639,0.639
					c-2.361,3.056-6.25,6.973-8.945,7.584c-1.555,0.333-3-2.556-3-3.917c0-1.917,0.584-4.111,2.639-5.556
					c0.223-0.194,0.223-0.194,0.361-0.194s0.445-0.083,0.5,0.194c0.056,0.223,0.445,1.333,1,1.333c0.723,0,2-1.86,2-4.333
					C136.361,728.25,135.166,728.111,135,728.111"/>
			</g>
			<g>
				<path fill="#221F20" d="M43.5,741.667c-0.083-0.723-1.139-0.334-1.611-0.056c-0.5,0.277-1.083,0.833-1.083,1.333
					s0.083,1.056,0.056,1.417c-0.056,0.416-0.139,0.722-0.833,0.861c-0.5,0.083-1.417-0.223-1.861-0.723
					c-1-1.194-1.055-1.473-1.333-1.917c0.917-0.639,2.361-1.639,2.555-3.277c0.195-1.917-2.472-1.694-4.111-0.778
					c-3.278,1.778-3.639,3.417-3.333,4.695c-1.056,1.083-2.417,1.139-3.639,0.555c-2.639-1.277-2.333-3.139-3.889-3.472
					c-1.639-0.333-2.778,1.056-3.472,1.056c0.722-3.694,2.5-8.667,5.833-14.75c0-0.056,0.083-0.417-0.278-0.5
					c-0.444-0.139-1.694-0.223-2.417,0.277s-1.139,1.473-1.5,2.056c-1.5,0.583-2.139,0.861-4.195,0.973
					c-1,0.056-2.25,0.139-2.555,0.139c0.055-0.694-0.139-2.361-0.195-2.75c-0.139-0.417-0.5-0.833-1.194-0.723
					c-1.333,0.194-4.028,1.056-4.278,2.834c-1.472-0.084-4.167-0.861-5.944-0.778c-3.556,0.223-4.111,0.361-4.25,1.417
					c-0.056,0.556,0.083,0.972,0.083,1.194s0.083,1,0.833,0.861c3.139-0.639,7.75-0.5,8.75-0.584c-0.333,3.39-1.277,10.945-2.055,14
					C7,747.389,6.528,749,8.361,748.167c1.972-0.861,2.694-1.334,3.389-1.723c0.694-0.417,1.972-1.694,2.25-3.639
					c0.333-2.417,0.972-5.333,1.056-6.333c0.056-1,0.5-4.278,0.639-5.473c2.139,0,5.028-0.917,5.889-1.223
					c-3.639,6.834-5.889,14.417-5.75,15.834c0.055,0.694,0.5,1,1.361,0.861c0.861-0.14,2.139-1,2.917-1.834
					c0.722-0.833,1.472-1.083,2.417-0.972c0.972,0.139,1.361,0.5,1.694,1.083c0.639,1.333,1.722,1.833,3.528,1.5
					c2.361-0.361,3.278-1.277,4.417-2.111c1.139,2.25,2.472,3.194,5.472,3.194c1.695,0,4.056-1.333,4.973-2.5
					C43.278,744.277,43.583,742.361,43.5,741.667 M36.25,741.167c-0.222-0.278-0.361-1.194-0.417-1.723
					c0.139-0.361,0.972-0.777,1.417-0.417c0.5,0.361,0.722,1-0.056,1.834C36.917,741.167,36.611,741.25,36.25,741.167z"/>
			</g>
		</g>
		<g>
			<path fill="#221F20" d="M168.139,739.917c-0.223,0.222-0.5,0.36-0.833,0.36s-0.583-0.139-0.833-0.36
				c-0.25-0.223-0.334-0.5-0.334-0.834c0-0.333,0.084-0.583,0.334-0.833c0.222-0.223,0.5-0.333,0.833-0.333s0.583,0.083,0.833,0.333
				c0.223,0.223,0.334,0.5,0.334,0.833C168.5,739.417,168.361,739.694,168.139,739.917 M166.611,738.333
				c-0.195,0.194-0.277,0.417-0.277,0.694c0,0.278,0.082,0.5,0.277,0.723c0.194,0.194,0.416,0.277,0.723,0.277
				c0.277,0,0.5-0.083,0.693-0.277c0.195-0.194,0.278-0.417,0.278-0.723c0-0.277-0.083-0.5-0.278-0.694
				c-0.193-0.194-0.416-0.277-0.693-0.277C167.027,738.056,166.806,738.167,166.611,738.333z M167.306,738.444
				c0.139,0,0.278,0,0.36,0.056c0.14,0.056,0.195,0.194,0.195,0.333c0,0.084-0.056,0.194-0.139,0.223
				c-0.057,0.056-0.084,0.056-0.195,0.056c0.084,0,0.195,0.056,0.223,0.139c0.056,0.056,0.084,0.139,0.084,0.194v0.083
				c0,0.056,0,0.056,0,0.084c0,0.056,0,0.056,0,0.056l0,0h-0.223l0,0l0,0v-0.056v-0.084c0-0.139-0.056-0.222-0.139-0.277
				c-0.057,0-0.139-0.056-0.278-0.056H167v0.5h-0.223v-1.277h0.5v0.027H167.306z M167.527,738.611
				c-0.055-0.056-0.139-0.056-0.277-0.056h-0.194V739h0.194c0.084,0,0.194,0,0.223-0.056c0.083-0.056,0.139-0.083,0.139-0.194
				C167.639,738.75,167.584,738.667,167.527,738.611z"/>
		</g>
	</g>
</g>
<g id="Layer_3">
</g>
</svg>
