<?xml version="1.0" encoding="utf-8"?>
<!-- Generator: Adobe Illustrator 18.1.1, SVG Export Plug-In . SVG Version: 6.00 Build 0)  -->
<svg version="1.1" xmlns="http://www.w3.org/2000/svg" xmlns:xlink="http://www.w3.org/1999/xlink" x="0px" y="0px"
	 viewBox="0 0 156.6 49.1" style="enable-background:new 0 0 156.6 49.1;" xml:space="preserve">
<style type="text/css">
	.st0{fill:#F47414;}
	.st1{clip-path:url(#SVGID_2_);fill:#221F20;}
	.st2{fill:#221F20;}
	.st3{clip-path:url(#SVGID_4_);fill:#221F20;}
	.st4{fill:#CD0A44;}
	.st5{clip-path:url(#SVGID_6_);}
	.st6{clip-path:url(#SVGID_8_);}
	.st7{fill:#007BFF;}
	.st8{clip-path:url(#SVGID_10_);fill:#221F20;}
	.st9{clip-path:url(#SVGID_12_);fill:#221F20;}
	.st10{clip-path:url(#SVGID_14_);}
	.st11{clip-path:url(#SVGID_16_);}
	.st12{fill:#50CC73;}
	.st13{clip-path:url(#SVGID_18_);fill:#221F20;}
	.st14{clip-path:url(#SVGID_20_);fill:#221F20;}
	.st15{fill:#854CF2;}
	.st16{fill:#38B7BA;}
	.st17{fill:none;stroke:#CCCCCC;stroke-width:1.1232;stroke-miterlimit:10;}
	.st18{fill:#CCCCCC;}
</style>
<g id="Layer_1">
	<path class="st0" d="M-343.8,229.3c-3.2,0-5.4-2.2-5.4-5.1c0-2.9,2.2-5.1,5.4-5.1c1.1,0,2.2,0.3,3.1,0.9l-0.7,1.9
		c-0.7-0.4-1.5-0.7-2.3-0.7c-1.8,0-3,1.1-3,2.9s1.1,2.9,3,2.9c0.8,0,1.7-0.3,2.5-0.7l0.7,1.9C-341.5,229-342.7,229.3-343.8,229.3z"
		/>
	<path class="st0" d="M-333.3,229.3c-3,0-5-2.2-5-5.1c0-2.9,2-5.1,5.1-5.1c3,0,5,2.2,5,5.1C-328.2,227.1-330.3,229.3-333.3,229.3z
		 M-333.3,221.2c-1.6,0-2.6,1.3-2.6,3c0,1.8,1,3,2.6,3c1.6,0,2.6-1.3,2.6-3C-330.7,222.5-331.7,221.2-333.3,221.2z"/>
	<path class="st0" d="M-317.1,229.2l-0.1-4.8l-2.7,3.4h-0.2l-2.7-3.4l-0.1,4.8h-2.2l0.5-9.9l0.3,0l4.5,5.6l4.3-5.6l0.3,0l0.5,9.9
		H-317.1z"/>
	<path class="st0" d="M-303.4,229.2l-0.1-4.8l-2.7,3.4h-0.2l-2.7-3.4l-0.1,4.8h-2.2l0.5-9.9l0.3,0l4.5,5.6l4.3-5.6l0.3,0l0.5,9.9
		H-303.4z"/>
	<path class="st0" d="M-293.7,229.3c-2.6,0-4.1-1.4-4.1-4.2v-5.8h2.3v5.7c0,1.4,0.6,2.2,1.9,2.2c1.3,0,1.9-0.8,1.9-2.2v-5.7h2.3v5.8
		C-289.5,227.9-291.1,229.3-293.7,229.3z"/>
	<path class="st0" d="M-277.8,229.4l-5.9-5.3v5.1h-2.3v-10l0.3-0.1l5.8,5.3v-5.1h2.3v10L-277.8,229.4z"/>
	<path class="st0" d="M-273.9,229.2v-9.8h2.3v9.8H-273.9z"/>
	<path class="st0" d="M-263,229.3c-3.2,0-5.4-2.2-5.4-5.1c0-2.9,2.2-5.1,5.4-5.1c1.1,0,2.2,0.3,3.1,0.9l-0.7,1.9
		c-0.7-0.4-1.5-0.7-2.3-0.7c-1.8,0-3,1.1-3,2.9s1.1,2.9,3,2.9c0.8,0,1.7-0.3,2.5-0.7l0.7,1.9C-260.7,229-261.8,229.3-263,229.3z"/>
	<path class="st0" d="M-250.5,229.2l-0.7-1.8h-3.4l-0.7,1.8h-2.3l4.6-9.9h0.3l4.6,9.9H-250.5z M-253,223.3l-1,2.4h1.9L-253,223.3z"
		/>
	<path class="st0" d="M-242.3,221.4v7.7h-2.3v-7.7h-2.9v-2.1h8.2v2.1H-242.3z"/>
	<path class="st0" d="M-236.5,229.2v-9.8h2.3v9.8H-236.5z"/>
	<path class="st0" d="M-226,229.3c-3,0-5-2.2-5-5.1c0-2.9,2-5.1,5.1-5.1c3,0,5,2.2,5,5.1C-220.9,227.1-223,229.3-226,229.3z
		 M-226,221.2c-1.6,0-2.6,1.3-2.6,3c0,1.8,1,3,2.6,3c1.6,0,2.6-1.3,2.6-3C-223.4,222.5-224.4,221.2-226,221.2z"/>
	<path class="st0" d="M-209.5,229.4l-5.9-5.3v5.1h-2.3v-10l0.3-0.1l5.8,5.3v-5.1h2.3v10L-209.5,229.4z"/>
	<path class="st0" d="M-203,229.3c-1.1,0-2.5-0.4-3.3-1l0.6-2.1c0.8,0.6,1.8,1,2.7,1c0.8,0,1.1-0.4,1.1-0.9c0-0.5-0.3-0.9-1.8-1.5
		c-1.7-0.7-2.3-1.7-2.3-2.9c0-1.4,1.2-2.8,3.5-2.8c1.1,0,2.2,0.4,2.7,0.8l-0.6,2c-0.6-0.4-1.5-0.8-2.2-0.8c-0.8,0-1.2,0.4-1.2,0.8
		c0,0.6,0.5,0.9,1.7,1.4c1.8,0.8,2.4,1.7,2.4,2.9C-199.5,227.8-200.6,229.3-203,229.3z"/>
	<g>
		<defs>
			<rect id="SVGID_1_" x="-350.8" y="181.1" width="156.6" height="34.4"/>
		</defs>
		<clipPath id="SVGID_2_">
			<use xlink:href="#SVGID_1_"  style="overflow:visible;"/>
		</clipPath>
		<path class="st1" d="M-295.2,181.1c-7.9,1.2-13.6,5.6-13.6,7.8c0,2.6,4,4.7,6.7,7.6c1.4,1.5,1.8,2.8,1.8,4.1
			c0,0.7-0.1,1.4-0.3,1.8c-0.4,0.6-2.2,1.5-3.5,1.3c-2.7-0.5-3.2-4.3-2.5-6.2c0.1-0.3,0-0.9-0.4-1.1c-0.4-0.3-1.1-0.2-1.4,0.6
			c-0.7,1.8-1.2,6.4,1.5,8.3c0.9,0.6,1.9,0.8,3.5,0.8c4.6,0,7.4-3.5,8.7-6.9c1.4-3.7,2-7-1.8-10.2c-1-0.8-1.7-2.4-1.5-3.2
			c0.3-1,1.1-1.2,1.1-0.6c0,1.1,2.7,2,3.5-1.7C-293.3,183.1-294.1,181-295.2,181.1"/>
	</g>
	<path class="st2" d="M-277.2,197.4c-0.3,0.3-0.1,0.1-0.4,0.5c-0.2,0.3-1.4,1.5-2.6,1.6c-1.6,0.2-1.8-2-1.8-2.8c0-1.1,0.8-3,2-3
		c0.4,0,0.4,0.1,0.5,0.3c0.1,0.2,0.2,0.2,0.1,0.5c-0.7,1.5-0.5,2.3,0,2.3c0.2,0,0.3-0.1,0.4-0.2c0.2-0.1,1.5-1.1,1.5-2
		c0-0.9-0.6-2.9-1.7-3.2c-0.4-0.1-1.6,0.2-2.5,0.8c-1.5,0.9-2.5,3.2-2.5,3.2c-0.7,0.9-1,1.1-1.4,1.6c-0.5,0.5-1.3,1.5-2.2,1.6
		c-0.7,0-1-0.8-1.2-1.4c-0.1-0.2-0.2-0.8-0.2-0.8c0.1,0,0.3-0.1,0.5-0.1c0.4-0.1,3.3-1.9,3.3-4.1c0-0.8-0.7-1.4-1.2-1.4
		c-0.5,0-1.7,0.2-2.5,0.8c-1.3,0.9-2.3,1.9-2.8,2.5c-1.2,1.7-1.8,4.9-0.3,6.6c0.7,0.8,1.5,1.5,2.5,1.6c2.2,0.4,3.5-2.6,4.6-3.5
		c0.2,2,0.5,2.6,1.3,3.2c0.8,0.6,1.8,0.7,3.2-0.2c1.4-0.8,3-2.2,3.5-2.9c0,1.7,1.2,3,2.9,3.2c3.1,0.4,5-4.1,5.4-6.2
		c0.3-1.7-0.1-2.4,0.1-2.5c0.2-0.1,1.4-0.4,1.6-0.3c0.3,0.1,0.7,2,0.5,3.2c-0.3,1.8-1,5,0.3,5.1c1.2,0.1,3.1-3.2,3.9-3.2
		c1,0,1.4,2.6,2.7,2.7c1.2,0,2.5-1.4,3.2-1.4c-0.1,1.8,0.8,3,2.3,3c2.6,0,6.2-4.9,7.4-6.2c-0.4,2.2-0.5,5.3-0.5,5.9
		c0,0.7,0.4,1.6,0.8,1.6c1.2,0,3.1-1.2,3.7-2.7c0-0.9,0.4-2.8,1.3-4.6c1.1-2.4,1.9-5,1.9-5.9c0-1.2-1-5.3-2.2-5.5
		c-0.8-0.1-2.6,1.2-2.8,1.5c-0.4,0.5-0.4,1.2-0.6,2.2c-0.3,1.4-0.5,2.9-1.1,4.2c-0.5,1-0.9,2-1.4,2.8c-1.3,1.8-2.8,2.7-3.1,2.5
		c-0.3-0.2-0.3-1.3,0.1-2.3c0.2-0.6,0.5-0.9,1.1-1c0.5-0.1,1.1-0.1,1.2-0.1c0.4,0.1,0.6-0.6,0.6-1c0-0.4-1-0.5-2-0.4
		c-3.1,0.2-3.9,1.5-4.7,2.9c-1.4,2.1-3.1,1.7-3.8,0.4c-0.7-1.2-1.2-2.6-2.2-2.2c-0.5,0.2-1.4,0.8-1.7,1.1c-0.3,0.3-0.8,0.7-0.9,0.6
		c-0.1-0.2,0.2-1.1,0.2-1.6c0.3-2.1,0.4-4-0.5-4.5c-0.4-0.2-2,0-3.1,0.6c-0.5,0.2-3.1,1.3-4.3,1.3c-0.4,0-0.5-0.5-0.9-0.5
		C-275.1,191.6-277.2,195.6-277.2,197.4 M-289.6,195.1c-0.1-0.3-0.2-0.8-0.2-1.2c0-0.3,0.3-0.6,0.5-0.7c0.3-0.2,0.6-0.5,0.8-0.4
		c0.2,0,0.4,0.2,0.5,0.4c0.1,0.2,0,0.9-0.2,1.2C-288.5,194.6-289,195.1-289.6,195.1z M-270.1,195.6c0,0.6-0.8,2.4-1.4,2.9
		c-0.4,0.3-0.9,0.3-1.3-0.1c-0.4-0.4-0.8-1.1-0.5-2.5c0.1-0.7,0.6-1.7,1.3-1.8c0.1,0,1,0,1.3-0.1
		C-270.2,193.8-270.1,194.2-270.1,195.6z"/>
	<g>
		<defs>
			<rect id="SVGID_3_" x="-350.8" y="181.1" width="156.6" height="34.4"/>
		</defs>
		<clipPath id="SVGID_4_">
			<use xlink:href="#SVGID_3_"  style="overflow:visible;"/>
		</clipPath>
		<path class="st3" d="M-226.4,185.1c-2.2,0-9.9,4.7-10.4,10c-0.3,4,2,8.1,4,8.8c0.4,0.2,1.4,0.2,2.4-0.1c3.4-1.1,7.3-5.6,9.7-8.8
			c0.1-0.1,0.2,0,0.2,0.2c-0.4,2.1-0.6,3.7-0.5,4.7c0.1,1.3,1.1,1.8,1.5,1.8c1.1,0.2,3-3,3.8-4.4c0-0.1,0.1-0.1,0.1,0.1
			c-0.1,2.8,0.4,4,0.9,4.4c0.3,0.3,1.1,0.6,1.3,0.5c1.5-0.1,3.2-2.8,4.3-4.7c0.1-0.2,0.2,0.1,0.2,0.3c0,3,0.4,3.7,1,3.9
			c0.1,0.1,0.8,0.3,1.1,0.3c1.1-0.3,2.5-1.4,3.7-3.1c-0.2,3.5-2.9,10.9-3.5,13.8c-0.2,1.1-0.2,1.9-0.1,2c0.6,0.6,2.9,0.8,4.7,0.1
			c1.7-0.7,2.3-1.8,2.4-2.1c0.2-1.2-1.4-7.9,1-16.2c0-0.1,0.1-0.2,0.2-0.5c0.2-0.4,0.1-1.1-0.5-1.9c-0.3-0.5-0.9-0.6-1.6-0.5
			c-0.8,0.2-0.9,0.4-1.3,1.2c-0.4,0.8-1.8,3-2.8,2.9c-0.7,0-0.8-0.5-0.8-1.2c-0.1-0.9-0.3-2.6-0.3-2.9c0-0.3-0.1-0.8-0.9-0.8
			c-1.1,0.1-2.3,2.5-4,4.1c-0.7,0.7-1.1,0.5-1.3,0.4c-0.2-0.1-0.2-1.7-0.1-3.1c0.1-0.9,1.1-5,1.2-6c2,0.2,4.7,0.5,7.3,0.6
			c2.5,0.1,4.8-0.1,6.4,0c0.9-0.6,2.7-3.1,2.9-4c0.1-0.6,0-1-0.8-1.1c-2.8-0.2-5.4,0.3-8.3,1.1c-2.1,0.6-2.7,0.7-3.5,0.9
			c-0.8,0.2-3.3,0.5-3.9,0.6c0-0.4,0.2-0.8-0.1-0.9c-0.4-0.2-1.1-0.2-1.7,0.2c-0.2,0.2-0.4,0.6-0.4,0.9c-1.5,0.2-3.3,0.1-4.2-0.2
			c-0.3-0.1-0.5-0.3-0.5-0.5c0-0.2-0.2-1.2-0.4-1.4c-0.2-0.2-0.2-1.3-0.4-1.4c-0.3-0.1-1.4-0.7-2.7,1.6c-0.8,1.5-0.7,2-0.2,2.5
			c0.2,0.2,0.6,0.4,0.9,0.4c1.1,0,1.7-0.2,2.2-0.5c0.5-0.3,0.6-0.1,1.1,0.1c0.5,0.2,2.6,0.7,3.7,0.8c-0.6,1.6-1.8,4.7-2.1,6
			c-0.7,1.3-1.8,3-2.4,3c-0.4,0-0.6-0.4-0.7-0.7c-0.1-0.5,0.2-2.2,0.4-3.5c0.2-1.3,0.7-2.5-0.5-2.5c-1.1,0-1.1,0.1-1.5,0.6
			c-2.2,2.8-5.8,6.4-8.2,7c-1.4,0.3-2.8-2.3-2.8-3.6c0-1.8,0.6-3.8,2.5-5.1c0.2-0.2,0.2-0.2,0.3-0.2c0.1,0,0.4-0.1,0.5,0.2
			c0.1,0.2,0.4,1.2,0.9,1.2c0.7,0,1.9-1.7,1.9-4C-225.2,185.2-226.3,185.1-226.4,185.1"/>
		<path class="st3" d="M-310.7,197.6c-0.1-0.7-1-0.3-1.5,0c-0.5,0.2-1,0.7-1,1.2c0,0.5,0.1,1,0,1.3c0,0.4-0.1,0.7-0.7,0.8
			c-0.5,0.1-1.3-0.2-1.7-0.7c-0.9-1.1-1-1.3-1.2-1.8c0.8-0.6,2.2-1.5,2.3-3c0.2-1.8-2.3-1.5-3.8-0.7c-3,1.6-3.4,3.1-3.1,4.3
			c-1,1-2.2,1.1-3.4,0.5c-2.4-1.2-2.1-2.9-3.6-3.2c-1.5-0.3-2.6,1-3.2,1c0.7-3.4,2.3-8,5.4-13.6c0-0.1,0.1-0.4-0.3-0.5
			c-0.4-0.1-1.6-0.2-2.2,0.3c-0.7,0.5-1.1,1.3-1.4,1.9c-1.4,0.6-2,0.8-3.9,0.9c-0.9,0.1-2,0.1-2.4,0.1c0-0.6-0.1-2.2-0.2-2.5
			c-0.1-0.3-0.4-0.7-1-0.6c-1.2,0.2-3.7,0.9-3.9,2.6c-1.4-0.1-3.8-0.8-5.5-0.7c-3.3,0.2-3.8,0.4-3.9,1.3c-0.1,0.5,0.1,0.9,0.1,1.1
			c0,0.2,0.1,0.9,0.8,0.8c2.9-0.6,7.1-0.5,8.1-0.5c-0.3,3.1-1.2,10.1-1.9,12.9c-0.6,2.2-1,3.6,0.7,2.9c1.8-0.8,2.5-1.2,3.1-1.6
			c0.6-0.4,1.8-1.6,2.1-3.3c0.3-2.2,0.9-4.9,0.9-5.8c0.1-0.9,0.4-4,0.6-5c2,0,4.6-0.8,5.4-1.1c-3.4,6.3-5.4,13.3-5.3,14.6
			c0.1,0.6,0.5,0.9,1.3,0.8c0.8-0.1,2-0.9,2.7-1.7c0.7-0.7,1.4-1,2.2-0.9c0.9,0.1,1.3,0.4,1.5,1c0.6,1.2,1.6,1.7,3.3,1.4
			c2.2-0.3,3-1.2,4.1-1.9c1,2,2.3,2.9,5.1,3c1.6,0,3.7-1.2,4.6-2.3C-311,200-310.7,198.3-310.7,197.6 M-317.4,197.2
			c-0.2-0.2-0.3-1.1-0.4-1.6c0.1-0.3,0.9-0.7,1.3-0.4c0.5,0.3,0.7,0.9,0,1.7C-316.8,197.1-317.1,197.3-317.4,197.2z"/>
	</g>
	<path class="st2" d="M-195.9,196c-0.2,0.2-0.5,0.3-0.8,0.3c-0.3,0-0.5-0.1-0.8-0.3c-0.2-0.2-0.3-0.5-0.3-0.8s0.1-0.5,0.3-0.8
		c0.2-0.2,0.5-0.3,0.8-0.3c0.3,0,0.5,0.1,0.8,0.3c0.2,0.2,0.3,0.5,0.3,0.8S-195.7,195.8-195.9,196 M-197.3,194.6
		c-0.2,0.2-0.3,0.4-0.3,0.6c0,0.3,0.1,0.5,0.3,0.7c0.2,0.2,0.4,0.3,0.7,0.3c0.3,0,0.5-0.1,0.6-0.3c0.2-0.2,0.3-0.4,0.3-0.7
		c0-0.3-0.1-0.5-0.3-0.6c-0.2-0.2-0.4-0.3-0.6-0.3C-196.9,194.3-197.1,194.4-197.3,194.6z M-196.7,194.6c0.1,0,0.3,0,0.3,0
		c0.1,0,0.2,0.1,0.2,0.3c0,0.1,0,0.2-0.1,0.2c0,0-0.1,0-0.2,0.1c0.1,0,0.2,0.1,0.2,0.1c0,0.1,0.1,0.1,0.1,0.2v0.1c0,0,0,0.1,0,0.1
		c0,0,0,0.1,0,0.1l0,0h-0.2c0,0,0,0,0,0c0,0,0,0,0,0l0,0v-0.1c0-0.1,0-0.2-0.1-0.3c0,0-0.1,0-0.2,0h-0.2v0.5h-0.2v-1.2H-196.7z
		 M-196.4,194.8c-0.1,0-0.1,0-0.3,0h-0.2v0.4h0.2c0.1,0,0.2,0,0.2,0c0.1,0,0.1-0.1,0.1-0.2C-196.4,194.9-196.4,194.8-196.4,194.8z"
		/>
	<rect x="-350.8" y="212.4" class="st0" width="139.3" height="1.3"/>
	<path class="st4" d="M-303.4-132.2l-5.9-5.3v5.1h-2.3v-10l0.3-0.1l5.8,5.3v-5.1h2.3v10L-303.4-132.2z"/>
	<path class="st4" d="M-299.5-132.4v-9.8h6.2v2.1h-3.9v1.8h3.6v2h-3.6v1.9h3.9v2.1H-299.5z"/>
	<path class="st4" d="M-285.4-140.2v7.7h-2.3v-7.7h-2.9v-2.1h8.2v2.1H-285.4z"/>
	<path class="st4" d="M-270-132.3l-0.3,0l-3-5.9l-3,5.9l-0.3,0l-3.6-10h2.6l1.6,5.2l2.6-5.2h0.2l2.6,5.2l1.6-5.1h2.6L-270-132.3z"/>
	<path class="st4" d="M-260.3-132.3c-3,0-5-2.2-5-5.1c0-2.9,2-5.1,5.1-5.1c3,0,5,2.2,5,5.1C-255.2-134.5-257.2-132.3-260.3-132.3z
		 M-260.2-140.4c-1.6,0-2.6,1.3-2.6,3c0,1.8,1,3,2.6,3c1.6,0,2.6-1.3,2.6-3C-257.6-139.1-258.7-140.4-260.2-140.4z"/>
	<path class="st4" d="M-247.6-132.4l-1.7-3.2c-0.1,0-0.3,0-0.4,0c-0.3,0-0.5,0-0.8,0v3.2h-2.3v-9.7c0.8-0.1,1.7-0.2,2.9-0.2
		c3.1,0,4.3,1.5,4.3,3.3c0,1.2-0.6,2.2-1.7,2.8l2.3,3.8H-247.6z M-249.6-140.3c-0.3,0-0.6,0-0.9,0.1v2.7c0.3,0,0.5,0,0.7,0
		c1.1,0,1.8-0.5,1.8-1.5C-248-139.8-248.6-140.3-249.6-140.3z"/>
	<path class="st4" d="M-236.1-132.4l-3.6-4.6v4.6h-2.3v-9.8h2.3v4.3l3.4-4.3h2.7l-4,4.7l4.2,5.1H-236.1z"/>
	<g>
		<defs>
			<rect id="SVGID_5_" x="-350.8" y="-180.9" width="156.6" height="34.4"/>
		</defs>
		<clipPath id="SVGID_6_">
			<use xlink:href="#SVGID_5_"  style="overflow:visible;"/>
		</clipPath>
		<g class="st5">
			<path class="st2" d="M-295.2-180.9c-7.9,1.2-13.6,5.6-13.6,7.8c0,2.6,4,4.7,6.7,7.6c1.4,1.5,1.8,2.8,1.8,4.1
				c0,0.7-0.1,1.4-0.3,1.8c-0.4,0.6-2.2,1.5-3.5,1.3c-2.7-0.5-3.2-4.3-2.5-6.2c0.1-0.3,0-0.9-0.4-1.1c-0.4-0.3-1.1-0.2-1.4,0.6
				c-0.7,1.8-1.2,6.4,1.5,8.3c0.9,0.6,1.9,0.8,3.5,0.8c4.6,0,7.4-3.5,8.7-6.9c1.4-3.7,2-7-1.8-10.2c-1-0.8-1.7-2.4-1.5-3.2
				c0.3-1,1.1-1.2,1.1-0.6c0,1.1,2.7,2,3.5-1.7C-293.3-178.9-294.1-181.1-295.2-180.9"/>
		</g>
	</g>
	<g>
		<path class="st2" d="M-277.2-164.7c-0.3,0.3-0.1,0.1-0.4,0.5c-0.2,0.3-1.4,1.5-2.6,1.6c-1.6,0.2-1.8-2-1.8-2.8c0-1.1,0.8-3,2-3
			c0.4,0,0.4,0.1,0.5,0.3c0.1,0.2,0.2,0.2,0.1,0.5c-0.7,1.5-0.5,2.3,0,2.3c0.2,0,0.3-0.1,0.4-0.2c0.2-0.1,1.5-1.1,1.5-2
			c0-0.9-0.6-2.9-1.7-3.2c-0.4-0.1-1.6,0.2-2.5,0.8c-1.5,0.9-2.5,3.2-2.5,3.2c-0.7,0.9-1,1.1-1.4,1.6c-0.5,0.5-1.3,1.5-2.2,1.6
			c-0.7,0-1-0.8-1.2-1.4c-0.1-0.2-0.2-0.8-0.2-0.8c0.1,0,0.3-0.1,0.5-0.1c0.4-0.1,3.3-1.9,3.3-4.1c0-0.8-0.7-1.4-1.2-1.4
			c-0.5,0-1.7,0.2-2.5,0.8c-1.3,0.9-2.3,1.9-2.8,2.5c-1.2,1.7-1.8,4.9-0.3,6.6c0.7,0.8,1.5,1.5,2.5,1.6c2.2,0.4,3.5-2.6,4.6-3.5
			c0.2,2,0.5,2.6,1.3,3.2c0.8,0.6,1.8,0.7,3.2-0.2c1.4-0.8,3-2.2,3.5-2.9c0,1.7,1.2,3,2.9,3.2c3.1,0.4,5-4.1,5.4-6.2
			c0.3-1.7-0.1-2.4,0.1-2.5c0.2-0.1,1.4-0.4,1.6-0.3c0.2,0.1,0.7,2,0.5,3.1c-0.3,1.8-1,5,0.3,5.1c1.2,0.1,3.1-3.2,3.9-3.2
			c1,0,1.5,2.6,2.7,2.7c1.2,0,2.5-1.4,3.2-1.4c-0.1,1.8,0.8,3,2.3,3c2.6,0,6.2-4.9,7.4-6.2c-0.4,2.2-0.5,5.3-0.5,5.9
			c0,0.7,0.4,1.6,0.8,1.6c1.2,0,3.1-1.2,3.7-2.7c0-0.9,0.4-2.8,1.3-4.6c1.1-2.4,1.9-5,1.9-5.9c0-1.2-1-5.3-2.2-5.5
			c-0.8-0.1-2.6,1.2-2.8,1.5c-0.4,0.5-0.4,1.2-0.6,2.2c-0.3,1.4-0.5,2.9-1.1,4.2c-0.5,1-0.9,2-1.4,2.8c-1.3,1.8-2.8,2.7-3.1,2.5
			c-0.3-0.2-0.3-1.3,0.1-2.3c0.2-0.6,0.5-0.9,1.1-1c0.5-0.1,1.1-0.1,1.2-0.1c0.4,0.1,0.6-0.6,0.6-1c0-0.4-1-0.5-2-0.4
			c-3.1,0.2-3.9,1.5-4.7,2.9c-1.4,2.1-3.1,1.7-3.8,0.4c-0.7-1.2-1.2-2.6-2.2-2.2c-0.5,0.2-1.4,0.8-1.7,1.1c-0.3,0.3-0.8,0.7-0.9,0.6
			c-0.1-0.2,0.2-1.1,0.2-1.6c0.3-2.1,0.4-4-0.5-4.5c-0.4-0.2-2,0-3.1,0.6c-0.5,0.2-3.1,1.3-4.3,1.3c-0.4,0-0.5-0.5-0.9-0.5
			C-275.1-170.4-277.2-166.5-277.2-164.7 M-289.6-167c-0.1-0.3-0.2-0.8-0.2-1.2c0-0.3,0.3-0.6,0.5-0.7c0.3-0.2,0.6-0.5,0.8-0.4
			c0.2,0,0.4,0.2,0.5,0.4c0.1,0.2,0,0.9-0.2,1.1C-288.5-167.5-289-166.9-289.6-167z M-270.1-166.4c0,0.6-0.8,2.4-1.4,2.9
			c-0.4,0.3-0.9,0.3-1.3-0.1c-0.4-0.4-0.8-1.1-0.5-2.5c0.1-0.7,0.6-1.7,1.3-1.8c0.1,0,1,0,1.4-0.1
			C-270.2-168.2-270.1-167.9-270.1-166.4z"/>
	</g>
	<g>
		<defs>
			<rect id="SVGID_7_" x="-350.8" y="-180.9" width="156.6" height="34.4"/>
		</defs>
		<clipPath id="SVGID_8_">
			<use xlink:href="#SVGID_7_"  style="overflow:visible;"/>
		</clipPath>
		<g class="st6">
			<path class="st2" d="M-226.4-176.9c-2.2,0-9.9,4.7-10.4,10c-0.4,4,2,8.1,4,8.8c0.4,0.2,1.4,0.2,2.4-0.1c3.4-1.1,7.3-5.6,9.7-8.8
				c0.1-0.1,0.2,0,0.2,0.2c-0.4,2.1-0.6,3.7-0.5,4.7c0.1,1.3,1.1,1.8,1.5,1.8c1.1,0.2,3-3,3.8-4.4c0-0.1,0.1-0.1,0.1,0.1
				c-0.1,2.8,0.4,4,0.9,4.4c0.3,0.3,1.1,0.6,1.3,0.6c1.5-0.1,3.2-2.8,4.3-4.7c0.1-0.2,0.2,0.1,0.2,0.3c0,3,0.4,3.7,1,3.9
				c0.1,0.1,0.8,0.3,1.1,0.3c1.1-0.3,2.5-1.4,3.7-3.1c-0.2,3.5-2.9,10.9-3.5,13.8c-0.2,1.1-0.2,1.9-0.1,2c0.6,0.6,2.9,0.8,4.7,0.1
				c1.7-0.7,2.3-1.8,2.4-2.1c0.2-1.2-1.4-7.9,1-16.2c0-0.1,0.1-0.2,0.2-0.5c0.2-0.4,0.1-1.1-0.5-1.9c-0.3-0.5-0.9-0.6-1.6-0.5
				c-0.8,0.2-0.9,0.4-1.3,1.2c-0.4,0.8-1.8,3-2.8,2.9c-0.7,0-0.8-0.5-0.8-1.2c-0.1-0.9-0.3-2.6-0.3-2.9c0-0.3-0.1-0.8-0.9-0.8
				c-1.1,0.1-2.3,2.5-4,4.1c-0.7,0.7-1.1,0.5-1.3,0.4c-0.2-0.1-0.2-1.7-0.1-3.1c0.1-0.9,1.1-5,1.2-6c2,0.2,4.7,0.5,7.3,0.6
				c2.5,0.1,4.8-0.1,6.4,0c0.9-0.7,2.7-3.1,2.9-4c0.1-0.6,0-1-0.8-1.1c-2.8-0.2-5.4,0.3-8.3,1.2c-2.1,0.6-2.7,0.7-3.5,0.9
				c-0.8,0.2-3.3,0.5-3.9,0.6c0-0.4,0.1-0.8-0.1-0.9c-0.4-0.2-1.1-0.2-1.7,0.2c-0.2,0.2-0.4,0.6-0.4,0.9c-1.5,0.2-3.3,0.1-4.2-0.2
				c-0.3-0.1-0.5-0.3-0.5-0.5c0-0.2-0.2-1.2-0.4-1.4c-0.2-0.2-0.2-1.3-0.4-1.4c-0.3-0.1-1.4-0.7-2.7,1.6c-0.8,1.5-0.7,2-0.2,2.5
				c0.2,0.2,0.6,0.4,0.9,0.4c1.1,0,1.7-0.2,2.2-0.5c0.5-0.3,0.6-0.1,1.1,0.1c0.5,0.2,2.6,0.7,3.7,0.8c-0.6,1.6-1.8,4.7-2.1,6
				c-0.7,1.3-1.8,3-2.4,3c-0.4,0-0.6-0.4-0.7-0.7c-0.1-0.5,0.2-2.2,0.4-3.5c0.2-1.3,0.7-2.5-0.5-2.5c-1.1,0-1.1,0.1-1.5,0.6
				c-2.2,2.8-5.8,6.4-8.2,7c-1.4,0.3-2.8-2.3-2.8-3.6c0-1.8,0.6-3.8,2.4-5.1c0.2-0.2,0.2-0.2,0.3-0.2c0.1,0,0.4-0.1,0.5,0.2
				c0.1,0.2,0.4,1.2,0.9,1.2c0.7,0,1.9-1.7,1.9-4C-225.2-176.8-226.3-176.9-226.4-176.9"/>
		</g>
		<g class="st6">
			<path class="st2" d="M-310.7-164.4c-0.1-0.7-1-0.3-1.5,0c-0.5,0.2-1,0.7-1,1.2c0,0.5,0.1,1,0,1.3c0,0.4-0.1,0.7-0.8,0.8
				c-0.5,0.1-1.3-0.2-1.7-0.7c-0.9-1.1-1-1.3-1.2-1.8c0.8-0.6,2.2-1.5,2.3-3c0.2-1.8-2.3-1.5-3.8-0.7c-3,1.6-3.4,3.1-3.1,4.3
				c-1,1-2.2,1.1-3.4,0.5c-2.4-1.2-2.1-2.9-3.6-3.2c-1.5-0.3-2.6,1-3.2,1c0.7-3.4,2.3-8,5.4-13.6c0-0.1,0.1-0.4-0.3-0.5
				c-0.4-0.1-1.5-0.2-2.2,0.3c-0.7,0.5-1.1,1.3-1.4,1.9c-1.4,0.6-2,0.8-3.9,0.9c-0.9,0.1-2,0.1-2.4,0.1c0-0.6-0.1-2.2-0.2-2.5
				c-0.1-0.3-0.4-0.7-1-0.6c-1.2,0.2-3.7,0.9-3.9,2.6c-1.4-0.1-3.8-0.8-5.5-0.7c-3.3,0.2-3.8,0.4-3.9,1.3c-0.1,0.5,0.1,0.9,0.1,1.1
				c0,0.2,0.1,0.9,0.8,0.8c2.9-0.6,7.1-0.5,8.1-0.5c-0.3,3.1-1.2,10.1-1.9,12.9c-0.6,2.2-1,3.6,0.7,2.9c1.8-0.8,2.5-1.2,3.1-1.6
				c0.6-0.4,1.8-1.6,2.1-3.3c0.3-2.2,0.9-4.9,0.9-5.8c0.1-0.9,0.4-4,0.6-5c2,0,4.6-0.8,5.4-1.1c-3.4,6.3-5.4,13.3-5.3,14.6
				c0.1,0.6,0.5,0.9,1.3,0.8c0.8-0.1,2-0.9,2.7-1.7c0.7-0.7,1.4-1,2.2-0.9c0.9,0.1,1.3,0.4,1.5,1c0.6,1.2,1.6,1.7,3.3,1.4
				c2.2-0.3,3-1.2,4.1-1.9c1,2,2.3,2.9,5.1,3c1.6,0,3.7-1.2,4.6-2.3C-310.9-162-310.7-163.8-310.7-164.4 M-317.4-164.9
				c-0.2-0.2-0.3-1.1-0.4-1.6c0.1-0.3,0.9-0.7,1.3-0.4c0.5,0.3,0.7,0.9,0,1.7C-316.8-164.9-317.1-164.8-317.4-164.9z"/>
		</g>
	</g>
	<g>
		<path class="st2" d="M-195.9-166.1c-0.2,0.2-0.5,0.3-0.8,0.3c-0.3,0-0.5-0.1-0.8-0.3c-0.2-0.2-0.3-0.5-0.3-0.8
			c0-0.3,0.1-0.5,0.3-0.8c0.2-0.2,0.5-0.3,0.8-0.3c0.3,0,0.5,0.1,0.8,0.3c0.2,0.2,0.3,0.5,0.3,0.8
			C-195.6-166.5-195.7-166.3-195.9-166.1 M-197.3-167.5c-0.2,0.2-0.3,0.4-0.3,0.7c0,0.3,0.1,0.5,0.3,0.7c0.2,0.2,0.4,0.3,0.7,0.3
			c0.3,0,0.5-0.1,0.7-0.3c0.2-0.2,0.3-0.4,0.3-0.7c0-0.3-0.1-0.5-0.3-0.7c-0.2-0.2-0.4-0.3-0.7-0.3
			C-196.9-167.7-197.1-167.7-197.3-167.5z M-196.7-167.4c0.1,0,0.3,0,0.3,0c0.1,0.1,0.2,0.1,0.2,0.3c0,0.1,0,0.2-0.1,0.2
			c0,0-0.1,0-0.2,0.1c0.1,0,0.2,0.1,0.2,0.1c0,0.1,0.1,0.1,0.1,0.2v0.1c0,0,0,0.1,0,0.1c0,0,0,0,0,0.1l0,0h-0.2c0,0,0,0,0,0
			c0,0,0,0,0,0l0,0v-0.1c0-0.1,0-0.2-0.1-0.3c0,0-0.1,0-0.2,0h-0.2v0.5h-0.2v-1.2H-196.7z M-196.4-167.2c-0.1,0-0.1,0-0.3,0h-0.2
			v0.4h0.2c0.1,0,0.2,0,0.2,0c0.1,0,0.1-0.1,0.1-0.2C-196.4-167.1-196.4-167.2-196.4-167.2z"/>
	</g>
	<rect x="-350.8" y="-149.7" class="st4" width="138.5" height="1.3"/>
	<g>
		<path class="st7" d="M-341.8,40.8v7.7h-2.3v-7.7h-3v-2.1h8.2v2.1H-341.8z"/>
		<path class="st7" d="M-330.9,48.5l-1.7-3.2c-0.1,0-0.3,0-0.4,0c-0.3,0-0.5,0-0.8,0v3.2h-2.3v-9.7c0.8-0.1,1.7-0.2,2.9-0.2
			c3.1,0,4.3,1.5,4.3,3.3c0,1.2-0.6,2.2-1.7,2.8l2.3,3.8H-330.9z M-332.9,40.6c-0.3,0-0.6,0-0.9,0.1v2.7c0.3,0,0.5,0,0.7,0
			c1.1,0,1.8-0.5,1.8-1.5C-331.3,41.1-332,40.6-332.9,40.6z"/>
		<path class="st7" d="M-319.1,48.5l-0.7-1.8h-3.4l-0.7,1.8h-2.3l4.6-9.9h0.3l4.6,9.9H-319.1z M-321.5,42.6l-1,2.4h1.9L-321.5,42.6z
			"/>
		<path class="st7" d="M-314.2,48.5v-9.8h2.3v9.8H-314.2z"/>
		<path class="st7" d="M-300,48.7l-5.9-5.3v5.1h-2.3v-10l0.3-0.1l5.8,5.3v-5.1h2.3v10L-300,48.7z"/>
		<path class="st7" d="M-296.1,48.5v-9.8h2.3v9.8H-296.1z"/>
		<path class="st7" d="M-281.9,48.7l-5.9-5.3v5.1h-2.3v-10l0.3-0.1l5.8,5.3v-5.1h2.3v10L-281.9,48.7z"/>
		<path class="st7" d="M-269.6,43v4.7c-1.1,0.6-2.2,1-3.7,1c-2.9,0-5.2-2.1-5.2-5.1c0-3,2.3-5.1,5.3-5.1c1.3,0,2.3,0.3,3.3,0.8
			l-1,1.8c-0.7-0.4-1.4-0.5-2.2-0.5c-2,0-3,1.2-3,2.9c0,1.9,1.3,3,2.9,3c0.7,0,1.1-0.1,1.4-0.3v-1.4h-2V43H-269.6z"/>
		<path class="st7" d="M-257.3,48.7c-3.2,0-5.4-2.2-5.4-5.1c0-2.9,2.2-5.1,5.4-5.1c1.1,0,2.2,0.3,3.1,0.9l-0.7,1.9
			c-0.7-0.4-1.5-0.7-2.3-0.7c-1.8,0-3,1.1-3,2.9c0,1.8,1.1,2.9,3,2.9c0.8,0,1.7-0.3,2.5-0.7l0.7,1.9
			C-255,48.3-256.2,48.7-257.3,48.7z"/>
		<path class="st7" d="M-251.2,48.5v-9.8h6.2v2.1h-3.9v1.8h3.6v2h-3.6v1.9h3.9v2.1H-251.2z"/>
		<path class="st7" d="M-233.3,48.7l-5.9-5.3v5.1h-2.3v-10l0.3-0.1l5.8,5.3v-5.1h2.3v10L-233.3,48.7z"/>
		<path class="st7" d="M-225.1,40.8v7.7h-2.3v-7.7h-2.9v-2.1h8.2v2.1H-225.1z"/>
		<path class="st7" d="M-208.3,48.5v-9.8h6.2v2.1h-3.9v1.8h3.6v2h-3.6v1.9h3.9v2.1H-208.3z"/>
		<path class="st7" d="M-213.8,48.5l-1.7-3.2c-0.1,0-0.3,0-0.4,0c-0.3,0-0.5,0-0.8,0v3.2h-2.3v-9.7c0.8-0.1,1.7-0.2,2.9-0.2
			c3.1,0,4.3,1.5,4.3,3.3c0,1.2-0.6,2.2-1.7,2.8l2.3,3.8H-213.8z M-215.8,40.6c-0.3,0-0.6,0-0.9,0.1v2.7c0.3,0,0.5,0,0.7,0
			c1.1,0,1.8-0.5,1.8-1.5C-214.2,41.1-214.8,40.6-215.8,40.6z"/>
	</g>
	<path class="st2" d="M-195.9,14.8c-0.2,0.2-0.5,0.3-0.8,0.3c-0.3,0-0.5-0.1-0.8-0.3c-0.2-0.2-0.3-0.5-0.3-0.8
		c0-0.3,0.1-0.5,0.3-0.8c0.2-0.2,0.5-0.3,0.8-0.3c0.3,0,0.5,0.1,0.8,0.3c0.2,0.2,0.3,0.5,0.3,0.8C-195.6,14.4-195.7,14.6-195.9,14.8
		 M-197.3,13.4c-0.2,0.2-0.3,0.4-0.3,0.7c0,0.3,0.1,0.5,0.3,0.7c0.2,0.2,0.4,0.3,0.7,0.3c0.3,0,0.5-0.1,0.7-0.3
		c0.2-0.2,0.3-0.4,0.3-0.7c0-0.3-0.1-0.5-0.3-0.7c-0.2-0.2-0.4-0.3-0.7-0.3C-196.9,13.2-197.1,13.3-197.3,13.4z M-196.7,13.5
		c0.1,0,0.3,0,0.3,0c0.1,0.1,0.2,0.1,0.2,0.3c0,0.1,0,0.2-0.1,0.2c0,0-0.1,0-0.2,0.1c0.1,0,0.2,0.1,0.2,0.1c0,0.1,0.1,0.1,0.1,0.2
		v0.1c0,0,0,0.1,0,0.1c0,0,0,0,0,0.1l0,0h-0.2c0,0,0,0,0,0c0,0,0,0,0,0l0,0v-0.1c0-0.1,0-0.2-0.1-0.3c0,0-0.1,0-0.2,0h-0.2v0.5h-0.2
		v-1.2H-196.7z M-196.4,13.7c-0.1,0-0.1,0-0.3,0h-0.2v0.4h0.2c0.1,0,0.2,0,0.2,0c0.1,0,0.1-0.1,0.1-0.2
		C-196.4,13.8-196.4,13.7-196.4,13.7z"/>
	<g>
		<defs>
			<rect id="SVGID_9_" x="-350.8" y="0" width="156.6" height="34.4"/>
		</defs>
		<clipPath id="SVGID_10_">
			<use xlink:href="#SVGID_9_"  style="overflow:visible;"/>
		</clipPath>
		<path class="st8" d="M-295.2,0c-7.9,1.2-13.6,5.6-13.6,7.8c0,2.6,4,4.7,6.7,7.6c1.4,1.5,1.8,2.8,1.8,4.1c0,0.7-0.1,1.4-0.3,1.8
			c-0.4,0.6-2.2,1.5-3.5,1.3c-2.7-0.5-3.2-4.3-2.5-6.2c0.1-0.3,0-0.9-0.4-1.1c-0.4-0.3-1.1-0.2-1.4,0.6c-0.7,1.8-1.2,6.4,1.5,8.3
			c0.9,0.6,1.9,0.8,3.5,0.8c4.6,0,7.4-3.5,8.7-6.9c1.4-3.7,2-7-1.8-10.2c-1-0.8-1.7-2.4-1.5-3.2c0.3-1,1.1-1.2,1.1-0.6
			c0,1.1,2.7,2,3.5-1.7C-293.3,2-294.1-0.2-295.2,0"/>
	</g>
	<path class="st2" d="M-277.2,16.2c-0.3,0.3-0.1,0.1-0.4,0.5c-0.2,0.3-1.4,1.5-2.6,1.6c-1.6,0.2-1.8-2-1.8-2.8c0-1.1,0.8-3,2-3
		c0.4,0,0.4,0.1,0.5,0.3c0.1,0.2,0.2,0.2,0.1,0.5c-0.7,1.5-0.5,2.3,0,2.3c0.2,0,0.3-0.1,0.4-0.2c0.2-0.1,1.5-1.1,1.5-2
		c0-0.9-0.7-2.9-1.7-3.2c-0.4-0.1-1.6,0.2-2.5,0.8c-1.5,0.9-2.5,3.2-2.5,3.2c-0.7,0.9-1,1.1-1.4,1.6c-0.5,0.5-1.3,1.5-2.2,1.6
		c-0.7,0-1-0.8-1.2-1.4c-0.1-0.2-0.2-0.8-0.2-0.8c0.1,0,0.3-0.1,0.5-0.1c0.4-0.1,3.3-1.9,3.3-4.1c0-0.8-0.7-1.4-1.2-1.4
		c-0.5,0-1.7,0.2-2.5,0.8c-1.3,0.9-2.3,1.9-2.8,2.5c-1.2,1.7-1.8,4.9-0.3,6.6c0.7,0.8,1.5,1.5,2.5,1.6c2.2,0.4,3.5-2.6,4.6-3.5
		c0.2,2,0.5,2.6,1.3,3.2c0.8,0.6,1.8,0.7,3.2-0.1c1.4-0.8,3-2.2,3.5-2.9c0,1.7,1.2,3,2.9,3.2c3.1,0.4,5-4.1,5.4-6.2
		c0.3-1.7-0.1-2.4,0.1-2.5c0.2-0.1,1.4-0.4,1.6-0.3c0.3,0.1,0.7,2,0.5,3.1c-0.3,1.8-1,5,0.3,5.1c1.2,0.1,3.1-3.2,3.9-3.2
		c1,0,1.5,2.6,2.7,2.7c1.2,0,2.5-1.4,3.2-1.4c-0.1,1.8,0.8,3,2.3,3c2.6,0,6.3-4.9,7.4-6.2c-0.4,2.2-0.5,5.3-0.5,5.9
		c0,0.7,0.4,1.6,0.8,1.6c1.2,0,3.1-1.2,3.7-2.7c0-0.9,0.4-2.8,1.3-4.6c1.1-2.4,1.9-5,1.9-5.9c0-1.2-1-5.3-2.2-5.5
		c-0.8-0.1-2.6,1.2-2.8,1.5c-0.4,0.5-0.4,1.2-0.6,2.2c-0.3,1.4-0.5,2.9-1.1,4.2c-0.5,1-0.9,2-1.4,2.8c-1.3,1.8-2.8,2.7-3,2.5
		c-0.3-0.2-0.3-1.3,0.1-2.3c0.2-0.6,0.6-0.9,1.1-1c0.5-0.1,1.1-0.1,1.2-0.1c0.4,0.1,0.6-0.6,0.6-1c0-0.4-1-0.5-2-0.4
		c-3.1,0.2-3.9,1.5-4.7,2.9c-1.4,2.1-3.1,1.7-3.8,0.4c-0.7-1.2-1.2-2.6-2.2-2.2c-0.5,0.2-1.4,0.8-1.7,1.1c-0.3,0.3-0.8,0.7-0.9,0.6
		c-0.1-0.2,0.2-1.1,0.2-1.6c0.3-2.1,0.4-4-0.5-4.5c-0.4-0.2-2,0-3.1,0.6c-0.5,0.2-3.1,1.3-4.2,1.3c-0.4,0-0.5-0.5-0.9-0.5
		C-275.1,10.5-277.2,14.4-277.2,16.2 M-289.6,13.9c-0.1-0.3-0.2-0.8-0.2-1.2c0-0.3,0.3-0.6,0.5-0.7c0.3-0.2,0.6-0.5,0.8-0.4
		c0.2,0,0.4,0.2,0.5,0.4c0.1,0.2,0,0.9-0.2,1.1C-288.5,13.4-289,14-289.6,13.9z M-270.1,14.5c0,0.6-0.8,2.4-1.4,2.8
		c-0.4,0.3-0.9,0.3-1.3-0.1c-0.4-0.4-0.8-1.1-0.5-2.5c0.1-0.7,0.6-1.7,1.3-1.8c0.1,0,1,0,1.3-0.1C-270.2,12.7-270.1,13-270.1,14.5z"
		/>
	<g>
		<defs>
			<rect id="SVGID_11_" x="-350.8" y="0" width="156.6" height="34.4"/>
		</defs>
		<clipPath id="SVGID_12_">
			<use xlink:href="#SVGID_11_"  style="overflow:visible;"/>
		</clipPath>
		<path class="st9" d="M-226.4,4c-2.2,0-9.9,4.7-10.4,10c-0.4,4,2,8.1,4,8.8c0.4,0.2,1.4,0.2,2.4-0.1c3.4-1.1,7.3-5.6,9.7-8.8
			c0.1-0.1,0.2,0,0.2,0.2c-0.4,2.1-0.6,3.7-0.5,4.7c0.1,1.3,1.1,1.8,1.5,1.8c1.1,0.2,3-3,3.8-4.4c0-0.1,0.1-0.1,0.2,0.1
			c-0.1,2.8,0.4,4,0.9,4.4c0.3,0.3,1.1,0.6,1.3,0.6c1.5-0.1,3.2-2.8,4.3-4.7c0.1-0.2,0.2,0.1,0.2,0.3c0,3,0.4,3.7,1,3.9
			c0.1,0.1,0.8,0.3,1.1,0.3c1.1-0.3,2.5-1.4,3.7-3.1c-0.2,3.5-2.9,10.9-3.5,13.8c-0.2,1.1-0.2,1.9-0.1,2c0.6,0.6,2.9,0.8,4.7,0.1
			c1.7-0.7,2.3-1.8,2.4-2.1c0.2-1.2-1.4-7.9,1-16.2c0-0.1,0.1-0.2,0.2-0.5c0.2-0.4,0.1-1.1-0.5-1.9c-0.3-0.5-0.9-0.6-1.6-0.5
			c-0.8,0.2-0.9,0.4-1.3,1.2c-0.4,0.8-1.8,3-2.8,2.9c-0.7,0-0.8-0.5-0.8-1.2c-0.1-0.9-0.2-2.6-0.2-2.9c0-0.3-0.1-0.8-0.9-0.8
			c-1.1,0.1-2.3,2.5-4,4.1c-0.7,0.7-1.1,0.5-1.3,0.4c-0.2-0.1-0.3-1.7-0.1-3.1c0.1-0.9,1.1-5,1.2-6c2,0.2,4.7,0.5,7.3,0.6
			c2.5,0.1,4.8-0.1,6.4,0c0.9-0.7,2.7-3.1,2.9-4c0.1-0.6,0-1-0.8-1.1c-2.8-0.2-5.4,0.3-8.3,1.1c-2.1,0.6-2.7,0.7-3.5,0.9
			c-0.8,0.2-3.3,0.5-3.9,0.6c0-0.4,0.2-0.8-0.1-0.9c-0.4-0.2-1.1-0.2-1.7,0.2c-0.2,0.2-0.4,0.6-0.4,0.9c-1.5,0.2-3.3,0.1-4.2-0.2
			c-0.3-0.1-0.5-0.3-0.5-0.5c0-0.2-0.2-1.2-0.4-1.4c-0.2-0.2-0.2-1.3-0.4-1.4c-0.3-0.1-1.4-0.7-2.7,1.6c-0.8,1.5-0.7,2-0.2,2.5
			c0.2,0.2,0.6,0.4,0.9,0.4c1.1,0,1.7-0.2,2.2-0.5c0.5-0.3,0.6-0.1,1.1,0.1c0.5,0.2,2.6,0.7,3.7,0.8c-0.6,1.6-1.8,4.7-2.1,6
			c-0.7,1.3-1.8,3-2.4,3c-0.4,0-0.6-0.4-0.7-0.7c-0.1-0.5,0.2-2.2,0.4-3.5c0.2-1.3,0.7-2.5-0.5-2.5c-1.1,0-1.1,0.1-1.5,0.6
			c-2.2,2.8-5.8,6.4-8.2,7c-1.4,0.3-2.8-2.3-2.8-3.6c0-1.8,0.6-3.8,2.5-5.2c0.2-0.2,0.2-0.2,0.3-0.2c0.1,0,0.4-0.1,0.5,0.2
			c0.1,0.2,0.4,1.2,0.9,1.2c0.7,0,1.9-1.7,1.9-4C-225.2,4.1-226.3,4-226.4,4"/>
		<path class="st9" d="M-310.7,16.5c-0.1-0.7-1-0.3-1.5,0c-0.5,0.2-1,0.7-1,1.2c0,0.5,0.1,1,0,1.3c0,0.4-0.1,0.7-0.7,0.8
			c-0.5,0.1-1.3-0.2-1.7-0.7c-0.9-1.1-1-1.3-1.2-1.8c0.8-0.6,2.2-1.5,2.3-3c0.2-1.8-2.3-1.5-3.8-0.7c-3,1.6-3.4,3.1-3.1,4.3
			c-1,1-2.2,1.1-3.4,0.5c-2.4-1.2-2.1-2.9-3.6-3.2c-1.5-0.3-2.6,1-3.2,0.9c0.7-3.4,2.3-8,5.4-13.6c0-0.1,0.1-0.4-0.3-0.5
			c-0.4-0.1-1.5-0.2-2.2,0.3c-0.7,0.5-1.1,1.3-1.4,1.9c-1.4,0.6-2,0.8-3.9,0.9c-0.9,0.1-2.1,0.1-2.4,0.1c0-0.6-0.1-2.2-0.2-2.5
			c-0.1-0.3-0.4-0.7-1-0.6c-1.2,0.2-3.7,1-3.9,2.6c-1.4-0.1-3.8-0.8-5.5-0.7c-3.3,0.2-3.8,0.4-3.9,1.3c-0.1,0.5,0.1,0.9,0.1,1.1
			c0,0.2,0.1,0.9,0.8,0.8c2.9-0.6,7.1-0.5,8.1-0.5c-0.3,3.1-1.2,10.1-1.9,12.9c-0.6,2.2-1,3.6,0.7,2.9c1.8-0.8,2.5-1.2,3.1-1.6
			c0.6-0.4,1.8-1.6,2.1-3.3c0.3-2.2,0.9-4.9,0.9-5.8c0.1-0.9,0.4-4,0.6-5c2,0,4.6-0.8,5.4-1.1c-3.4,6.3-5.4,13.3-5.3,14.6
			c0.1,0.6,0.5,0.9,1.3,0.8c0.8-0.1,2-0.9,2.7-1.7c0.7-0.7,1.4-1,2.2-0.9c0.9,0.1,1.3,0.4,1.5,1c0.6,1.2,1.6,1.7,3.3,1.4
			c2.2-0.3,3-1.2,4.1-1.9c1,2,2.3,2.9,5.1,3c1.6,0,3.7-1.2,4.6-2.3C-311,18.9-310.7,17.1-310.7,16.5 M-317.4,16
			c-0.2-0.3-0.3-1.1-0.4-1.6c0.1-0.3,0.9-0.7,1.3-0.4c0.5,0.3,0.7,0.9,0,1.7C-316.8,16-317.1,16.1-317.4,16z"/>
	</g>
	<rect x="-350.8" y="31.3" class="st7" width="139.4" height="1.3"/>
	<g>
		<defs>
			<rect id="SVGID_13_" x="0" y="-180.1" width="156.6" height="34.4"/>
		</defs>
		<clipPath id="SVGID_14_">
			<use xlink:href="#SVGID_13_"  style="overflow:visible;"/>
		</clipPath>
		<g class="st10">
			<path class="st2" d="M55.6-180.1c-7.9,1.2-13.6,5.6-13.6,7.8c0,2.6,4,4.7,6.7,7.6c1.4,1.5,1.8,2.8,1.8,4.1c0,0.7-0.1,1.4-0.3,1.8
				c-0.4,0.6-2.2,1.5-3.5,1.3c-2.7-0.5-3.2-4.3-2.5-6.2c0.1-0.3,0-0.9-0.4-1.1c-0.4-0.3-1.1-0.2-1.4,0.6c-0.7,1.8-1.2,6.4,1.5,8.3
				c0.9,0.6,1.9,0.8,3.5,0.8c4.6,0,7.4-3.5,8.7-6.9c1.4-3.7,2-7-1.8-10.2c-1-0.8-1.7-2.4-1.5-3.2c0.3-1,1.1-1.2,1.1-0.6
				c0,1.1,2.7,2,3.5-1.7C57.5-178.1,56.7-180.2,55.6-180.1"/>
		</g>
	</g>
	<g>
		<path class="st2" d="M73.6-163.8c-0.3,0.3-0.1,0.1-0.4,0.5c-0.2,0.3-1.4,1.5-2.6,1.6c-1.6,0.2-1.8-2-1.8-2.8c0-1.1,0.8-3,2-3
			c0.4,0,0.4,0.1,0.5,0.3c0.1,0.2,0.2,0.2,0.1,0.5c-0.7,1.5-0.5,2.3,0,2.3c0.2,0,0.3-0.1,0.4-0.2c0.2-0.1,1.5-1.1,1.5-2
			c0-0.9-0.6-2.9-1.7-3.2c-0.4-0.1-1.6,0.2-2.5,0.8c-1.5,0.9-2.5,3.2-2.5,3.2c-0.7,0.9-1,1.1-1.4,1.6c-0.5,0.5-1.3,1.5-2.2,1.6
			c-0.7,0-1-0.8-1.2-1.4c-0.1-0.2-0.2-0.8-0.2-0.8c0.1,0,0.3-0.1,0.5-0.1c0.4-0.1,3.3-1.9,3.3-4.1c0-0.8-0.7-1.4-1.2-1.4
			c-0.5,0-1.7,0.2-2.5,0.8c-1.3,0.9-2.3,1.9-2.8,2.5c-1.2,1.7-1.8,4.9-0.3,6.6c0.7,0.8,1.5,1.5,2.5,1.6c2.2,0.4,3.5-2.6,4.6-3.5
			c0.2,2,0.5,2.6,1.3,3.2c0.8,0.6,1.8,0.7,3.2-0.2c1.4-0.8,3-2.2,3.5-2.9c0,1.7,1.2,3,2.9,3.2c3.1,0.4,5-4.1,5.4-6.2
			c0.3-1.7-0.1-2.4,0.1-2.5c0.2-0.1,1.4-0.4,1.6-0.3c0.2,0.1,0.7,2,0.5,3.1c-0.3,1.8-1,5,0.3,5.1c1.2,0.1,3.1-3.2,3.9-3.2
			c1,0,1.4,2.6,2.7,2.7c1.2,0,2.5-1.4,3.2-1.4c-0.1,1.8,0.8,3,2.3,3c2.6,0,6.2-4.9,7.4-6.2c-0.4,2.2-0.5,5.3-0.5,5.9
			c0,0.7,0.4,1.6,0.8,1.6c1.2,0,3.1-1.2,3.7-2.7c0-0.9,0.4-2.8,1.3-4.6c1.1-2.4,1.9-5,1.9-5.9c0-1.2-1-5.3-2.2-5.5
			c-0.8-0.1-2.6,1.2-2.8,1.5c-0.4,0.5-0.4,1.2-0.6,2.2c-0.3,1.4-0.5,2.9-1.1,4.2c-0.5,1-0.9,2-1.4,2.8c-1.3,1.8-2.8,2.7-3,2.5
			c-0.3-0.2-0.3-1.3,0.1-2.3c0.2-0.6,0.5-0.9,1.1-1c0.5-0.1,1.1-0.1,1.2-0.1c0.4,0.1,0.6-0.6,0.6-1c0-0.4-1-0.5-2-0.4
			c-3.1,0.2-3.9,1.5-4.7,2.9c-1.4,2.1-3.1,1.7-3.8,0.4c-0.7-1.2-1.2-2.6-2.2-2.2c-0.5,0.2-1.4,0.8-1.7,1.1c-0.3,0.3-0.8,0.7-0.9,0.6
			c-0.1-0.2,0.2-1.1,0.2-1.6c0.3-2.1,0.4-4-0.5-4.5c-0.4-0.2-2,0-3.1,0.6c-0.5,0.2-3.1,1.3-4.3,1.3c-0.4,0-0.5-0.5-0.9-0.5
			C75.7-169.6,73.6-165.6,73.6-163.8 M61.2-166.1c-0.1-0.3-0.2-0.8-0.2-1.2c0-0.3,0.3-0.6,0.5-0.7c0.3-0.2,0.6-0.5,0.8-0.4
			c0.2,0,0.4,0.2,0.5,0.4c0.1,0.2,0,0.9-0.2,1.2C62.3-166.6,61.8-166.1,61.2-166.1z M80.7-165.6c0,0.6-0.8,2.4-1.4,2.9
			c-0.4,0.3-0.9,0.3-1.3-0.1c-0.4-0.4-0.8-1.1-0.5-2.5c0.1-0.7,0.6-1.7,1.3-1.8c0.1,0,1,0,1.4-0.1C80.6-167.4,80.7-167,80.7-165.6z"
			/>
	</g>
	<g>
		<defs>
			<rect id="SVGID_15_" x="0" y="-180.1" width="156.6" height="34.4"/>
		</defs>
		<clipPath id="SVGID_16_">
			<use xlink:href="#SVGID_15_"  style="overflow:visible;"/>
		</clipPath>
		<g class="st11">
			<path class="st2" d="M124.4-176.1c-2.2,0-9.9,4.7-10.4,10c-0.4,4,2,8.1,4,8.8c0.4,0.2,1.4,0.2,2.4-0.1c3.4-1.1,7.3-5.6,9.7-8.8
				c0.1-0.1,0.2,0,0.2,0.2c-0.4,2.1-0.6,3.7-0.5,4.7c0.1,1.3,1.1,1.8,1.5,1.8c1.1,0.2,3-3,3.8-4.4c0-0.1,0.1-0.1,0.1,0.1
				c-0.1,2.8,0.4,4,0.9,4.4c0.3,0.3,1.1,0.6,1.3,0.6c1.5-0.1,3.2-2.8,4.3-4.7c0.1-0.2,0.2,0.1,0.2,0.3c0,3,0.4,3.7,1,3.9
				c0.1,0.1,0.8,0.3,1.1,0.3c1.1-0.3,2.5-1.4,3.7-3.1c-0.2,3.5-2.9,10.9-3.5,13.8c-0.2,1.1-0.2,1.9-0.1,2c0.6,0.6,2.9,0.8,4.7,0.1
				c1.7-0.7,2.3-1.8,2.4-2.1c0.2-1.2-1.4-7.9,1-16.2c0-0.1,0.1-0.2,0.2-0.5c0.2-0.4,0.1-1.1-0.5-1.9c-0.3-0.5-0.9-0.6-1.6-0.5
				c-0.8,0.2-0.9,0.4-1.3,1.2c-0.4,0.8-1.8,3-2.8,2.9c-0.7,0-0.8-0.5-0.8-1.2c-0.1-0.9-0.3-2.6-0.3-2.9c0-0.3-0.1-0.8-0.9-0.8
				c-1.1,0.1-2.3,2.5-4,4.1c-0.7,0.7-1.1,0.5-1.3,0.4c-0.2-0.1-0.2-1.7-0.1-3.1c0.1-0.9,1.1-5,1.2-6c2,0.2,4.7,0.5,7.3,0.6
				c2.5,0.1,4.8-0.1,6.4,0c0.9-0.7,2.7-3.1,2.9-4c0.1-0.6,0-1-0.8-1.1c-2.8-0.2-5.4,0.3-8.3,1.2c-2.1,0.6-2.7,0.7-3.5,0.9
				c-0.8,0.2-3.3,0.5-3.9,0.6c0-0.4,0.1-0.8-0.1-0.9c-0.4-0.2-1.1-0.2-1.7,0.2c-0.2,0.2-0.4,0.6-0.4,0.9c-1.5,0.2-3.3,0.1-4.2-0.2
				c-0.3-0.1-0.5-0.3-0.5-0.5c0-0.2-0.2-1.2-0.4-1.4c-0.2-0.2-0.2-1.3-0.4-1.4c-0.3-0.1-1.4-0.7-2.7,1.6c-0.8,1.5-0.7,2-0.2,2.5
				c0.2,0.2,0.6,0.4,0.9,0.4c1.1,0,1.7-0.2,2.2-0.5c0.5-0.3,0.6-0.1,1.1,0.1c0.5,0.2,2.6,0.7,3.7,0.8c-0.6,1.6-1.8,4.7-2.1,6
				c-0.7,1.3-1.8,3-2.4,3c-0.4,0-0.6-0.4-0.7-0.7c-0.1-0.5,0.2-2.2,0.4-3.5c0.2-1.3,0.7-2.5-0.5-2.5c-1.1,0-1.1,0.1-1.5,0.6
				c-2.2,2.8-5.8,6.4-8.2,7c-1.4,0.3-2.8-2.3-2.8-3.6c0-1.8,0.6-3.8,2.5-5.1c0.2-0.2,0.2-0.2,0.3-0.2c0.1,0,0.4-0.1,0.5,0.2
				c0.1,0.2,0.4,1.2,0.9,1.2c0.7,0,1.9-1.7,1.9-4C125.6-176,124.5-176.1,124.4-176.1"/>
		</g>
		<g class="st11">
			<path class="st2" d="M40.1-163.6c-0.1-0.7-1-0.3-1.5,0c-0.5,0.2-1,0.7-1,1.2c0,0.5,0.1,1,0,1.3c0,0.4-0.1,0.7-0.8,0.8
				c-0.5,0.1-1.3-0.2-1.7-0.7c-0.9-1.1-1-1.3-1.2-1.8c0.8-0.6,2.2-1.5,2.3-3c0.2-1.8-2.3-1.5-3.8-0.7c-3,1.6-3.4,3.1-3.1,4.3
				c-1,1-2.2,1.1-3.4,0.5c-2.4-1.2-2.1-2.9-3.6-3.2c-1.5-0.3-2.6,1-3.2,1c0.7-3.4,2.3-8,5.4-13.6c0-0.1,0.1-0.4-0.3-0.5
				c-0.4-0.1-1.5-0.2-2.2,0.3c-0.7,0.5-1.1,1.3-1.4,1.9c-1.4,0.6-2,0.8-3.9,0.9c-0.9,0.1-2,0.1-2.4,0.1c0-0.6-0.1-2.2-0.2-2.5
				c-0.1-0.3-0.4-0.7-1-0.6c-1.2,0.2-3.7,0.9-4,2.6c-1.4-0.1-3.8-0.8-5.5-0.7c-3.3,0.2-3.8,0.4-3.9,1.3c-0.1,0.5,0.1,0.9,0.1,1.1
				c0,0.2,0.1,0.9,0.8,0.8c2.9-0.6,7.1-0.5,8.1-0.5c-0.3,3.1-1.2,10.1-1.9,12.9c-0.6,2.2-1,3.6,0.7,2.9c1.8-0.8,2.5-1.2,3.1-1.6
				c0.6-0.4,1.8-1.6,2.1-3.3c0.3-2.2,0.9-4.9,0.9-5.8c0.1-0.9,0.4-4,0.6-5c2,0,4.6-0.8,5.4-1.1c-3.4,6.3-5.4,13.3-5.3,14.6
				c0.1,0.6,0.5,0.9,1.3,0.8c0.8-0.1,2-0.9,2.7-1.7c0.7-0.7,1.4-1,2.2-0.9c0.9,0.1,1.3,0.4,1.5,1c0.6,1.2,1.6,1.7,3.3,1.4
				c2.2-0.3,3-1.2,4.1-1.9c1,2,2.3,2.9,5.1,3c1.6,0,3.7-1.2,4.6-2.3C39.9-161.2,40.1-162.9,40.1-163.6 M33.4-164
				c-0.2-0.2-0.3-1.1-0.4-1.6c0.1-0.3,0.9-0.7,1.3-0.4c0.5,0.3,0.7,0.9,0,1.7C34-164.1,33.7-164,33.4-164z"/>
		</g>
	</g>
	<g>
		<path class="st2" d="M154.9-165.2c-0.2,0.2-0.5,0.3-0.8,0.3c-0.3,0-0.5-0.1-0.8-0.3c-0.2-0.2-0.3-0.5-0.3-0.8
			c0-0.3,0.1-0.5,0.3-0.8c0.2-0.2,0.5-0.3,0.8-0.3c0.3,0,0.5,0.1,0.8,0.3c0.2,0.2,0.3,0.5,0.3,0.8
			C155.2-165.7,155.1-165.4,154.9-165.2 M153.5-166.6c-0.2,0.2-0.3,0.4-0.3,0.7c0,0.3,0.1,0.5,0.3,0.7c0.2,0.2,0.4,0.3,0.7,0.3
			c0.3,0,0.5-0.1,0.6-0.3c0.2-0.2,0.3-0.4,0.3-0.7c0-0.3-0.1-0.5-0.3-0.7c-0.2-0.2-0.4-0.3-0.6-0.3
			C153.9-166.9,153.7-166.8,153.5-166.6z M154.1-166.6c0.1,0,0.3,0,0.3,0c0.1,0.1,0.2,0.1,0.2,0.3c0,0.1,0,0.2-0.1,0.2
			c0,0-0.1,0-0.2,0.1c0.1,0,0.2,0.1,0.2,0.1c0,0.1,0.1,0.1,0.1,0.2v0.1c0,0,0,0.1,0,0.1c0,0,0,0,0,0.1l0,0h-0.2c0,0,0,0,0,0
			c0,0,0,0,0,0l0,0v-0.1c0-0.1,0-0.2-0.1-0.3c0,0-0.1,0-0.2,0h-0.2v0.5h-0.2v-1.2H154.1z M154.4-166.4c-0.1,0-0.1,0-0.3,0h-0.2v0.4
			h0.2c0.1,0,0.2,0,0.2,0c0.1,0,0.1-0.1,0.1-0.2C154.4-166.3,154.4-166.4,154.4-166.4z"/>
	</g>
	<rect x="0" y="-148.9" class="st12" width="138.5" height="1.3"/>
	<path class="st12" d="M31.2-139.4v7.8h-2.3v-7.8h-3v-2.1h8.2v2.1H31.2z"/>
	<path class="st12" d="M42.7-131.6v-4h-3.8v4h-2.3v-9.9h2.3v3.9h3.8v-3.9H45v9.9H42.7z"/>
	<path class="st12" d="M48.4-131.6v-9.9h6.3v2.1h-4v1.8h3.6v2h-3.6v1.9h4v2.1H48.4z"/>
	<path class="st12" d="M64.1-131.6l-0.7-1.8H60l-0.7,1.8h-2.3l4.6-10h0.3l4.6,10H64.1z M61.7-137.5l-1,2.4h2L61.7-137.5z"/>
	<path class="st12" d="M72.1-139.4v7.8h-2.3v-7.8h-3v-2.1h8.2v2.1H72.1z"/>
	<path class="st12" d="M82.8-131.6l-1.7-3.2c-0.1,0-0.3,0-0.4,0c-0.3,0-0.5,0-0.8,0v3.2h-2.3v-9.8c0.8-0.1,1.8-0.2,2.9-0.2
		c3.1,0,4.3,1.5,4.3,3.3c0,1.2-0.6,2.2-1.7,2.9l2.3,3.8H82.8z M80.8-139.5c-0.4,0-0.6,0-0.9,0.1v2.7c0.3,0,0.5,0,0.7,0
		c1.1,0,1.8-0.5,1.8-1.5C82.4-139,81.8-139.5,80.8-139.5z"/>
	<path class="st12" d="M87.9-131.6v-9.9h2.3v9.9H87.9z"/>
	<path class="st12" d="M98.6-131.5c-3.2,0-5.4-2.2-5.4-5.1c0-2.9,2.2-5.1,5.4-5.1c1.1,0,2.2,0.3,3.1,0.9l-0.7,1.9
		c-0.7-0.4-1.5-0.7-2.4-0.7c-1.8,0-3,1.1-3,3c0,1.8,1.1,3,3,3c0.8,0,1.7-0.3,2.5-0.7l0.7,1.9C100.9-131.8,99.8-131.5,98.6-131.5z"/>
	<path class="st12" d="M110.8-131.6l-0.7-1.8h-3.4l-0.7,1.8h-2.3l4.6-10h0.3l4.6,10H110.8z M108.4-137.5l-1,2.4h2L108.4-137.5z"/>
	<path class="st12" d="M115.5-131.6v-9.9h2.3v7.8h4v2.1H115.5z"/>
	<path class="st12" d="M127.2-131.5c-1.1,0-2.5-0.4-3.3-1l0.6-2.1c0.8,0.6,1.8,1,2.8,1c0.8,0,1.1-0.4,1.1-0.9c0-0.5-0.3-0.9-1.8-1.5
		c-1.7-0.7-2.3-1.7-2.3-2.9c0-1.4,1.2-2.8,3.5-2.8c1.1,0,2.2,0.4,2.8,0.8l-0.6,2c-0.6-0.4-1.5-0.8-2.2-0.8c-0.8,0-1.2,0.4-1.2,0.8
		c0,0.6,0.5,0.9,1.7,1.4c1.8,0.8,2.4,1.7,2.4,2.9C130.7-133,129.5-131.5,127.2-131.5z"/>
	<g>
		<defs>
			<rect id="SVGID_17_" x="0" y="0" width="156.6" height="34.4"/>
		</defs>
		<clipPath id="SVGID_18_">
			<use xlink:href="#SVGID_17_"  style="overflow:visible;"/>
		</clipPath>
		<path class="st13" d="M55.6,0C47.7,1.2,42,5.6,42,7.8c0,2.6,4,4.7,6.7,7.6c1.4,1.5,1.8,2.8,1.8,4.1c0,0.7-0.1,1.4-0.3,1.8
			c-0.4,0.6-2.2,1.5-3.5,1.3c-2.7-0.5-3.2-4.3-2.5-6.2c0.1-0.3,0-0.9-0.4-1.1c-0.4-0.3-1.1-0.2-1.4,0.6c-0.7,1.8-1.2,6.4,1.5,8.3
			c0.9,0.6,1.9,0.8,3.5,0.8c4.6,0,7.4-3.5,8.7-6.9c1.4-3.7,2-7-1.8-10.2c-1-0.8-1.7-2.4-1.5-3.2c0.3-1,1.1-1.2,1.1-0.6
			c0,1.1,2.7,2,3.5-1.7C57.5,2,56.7-0.2,55.6,0"/>
	</g>
	<path class="st2" d="M73.6,16.2c-0.3,0.3-0.1,0.1-0.4,0.5c-0.2,0.3-1.4,1.5-2.6,1.6c-1.6,0.2-1.8-2-1.8-2.8c0-1.1,0.8-3,2-3
		c0.4,0,0.4,0.1,0.5,0.3c0.1,0.2,0.2,0.2,0.1,0.5c-0.7,1.5-0.5,2.3,0,2.3c0.2,0,0.3-0.1,0.4-0.2c0.2-0.1,1.5-1.1,1.5-2
		c0-0.9-0.6-2.9-1.7-3.2c-0.4-0.1-1.6,0.2-2.5,0.8c-1.5,0.9-2.5,3.2-2.5,3.2c-0.7,0.9-1,1.1-1.4,1.6c-0.5,0.5-1.3,1.5-2.2,1.6
		c-0.7,0-1-0.8-1.2-1.4c-0.1-0.2-0.2-0.8-0.2-0.8c0.1,0,0.3-0.1,0.5-0.1c0.4-0.1,3.3-1.9,3.3-4.1c0-0.8-0.7-1.4-1.2-1.4
		c-0.5,0-1.7,0.2-2.5,0.8c-1.3,0.9-2.3,1.9-2.8,2.5c-1.2,1.7-1.8,4.9-0.3,6.6c0.7,0.8,1.5,1.5,2.5,1.6c2.2,0.4,3.5-2.6,4.6-3.5
		c0.2,2,0.5,2.6,1.3,3.2c0.8,0.6,1.8,0.7,3.2-0.2c1.4-0.8,3-2.2,3.5-2.9c0,1.7,1.2,3,2.9,3.2c3.1,0.4,5-4.1,5.4-6.2
		c0.3-1.7-0.1-2.4,0.1-2.5c0.2-0.1,1.4-0.4,1.6-0.3c0.2,0.1,0.7,2,0.5,3.1c-0.3,1.8-1,5,0.3,5.1c1.2,0.1,3.1-3.2,3.9-3.2
		c1,0,1.4,2.6,2.7,2.7c1.2,0,2.5-1.4,3.2-1.4c-0.1,1.8,0.8,3,2.3,3c2.6,0,6.2-4.9,7.4-6.2c-0.4,2.2-0.5,5.3-0.5,5.9
		c0,0.7,0.4,1.6,0.8,1.6c1.2,0,3.1-1.2,3.7-2.7c0-0.9,0.4-2.8,1.3-4.6c1.1-2.4,1.9-5,1.9-5.9c0-1.2-1-5.3-2.2-5.5
		c-0.8-0.1-2.6,1.2-2.8,1.5c-0.4,0.5-0.4,1.2-0.6,2.2c-0.3,1.4-0.5,2.9-1.1,4.2c-0.5,1-0.9,2-1.4,2.8c-1.3,1.8-2.8,2.7-3,2.5
		c-0.3-0.2-0.3-1.3,0.1-2.3c0.2-0.6,0.5-0.9,1.1-1c0.5-0.1,1.1-0.1,1.2-0.1c0.4,0.1,0.6-0.6,0.6-1c0-0.4-1-0.5-2-0.4
		c-3.1,0.2-3.9,1.5-4.7,2.9c-1.4,2.1-3.1,1.7-3.8,0.4c-0.7-1.2-1.2-2.6-2.2-2.2c-0.5,0.2-1.4,0.8-1.7,1.1c-0.3,0.3-0.8,0.7-0.9,0.6
		c-0.1-0.2,0.2-1.1,0.2-1.6c0.3-2.1,0.4-4-0.5-4.5c-0.4-0.2-2,0-3.1,0.6c-0.5,0.2-3.1,1.3-4.3,1.3c-0.4,0-0.5-0.5-0.9-0.5
		C75.7,10.5,73.6,14.4,73.6,16.2 M61.2,13.9c-0.1-0.3-0.2-0.8-0.2-1.2c0-0.3,0.3-0.6,0.5-0.7c0.3-0.2,0.6-0.5,0.8-0.4
		c0.2,0,0.4,0.2,0.5,0.4c0.1,0.2,0,0.9-0.2,1.2C62.3,13.4,61.8,14,61.2,13.9z M80.7,14.5c0,0.6-0.8,2.4-1.4,2.9
		c-0.4,0.3-0.9,0.3-1.3-0.1c-0.4-0.4-0.8-1.1-0.5-2.5c0.1-0.7,0.6-1.7,1.3-1.8c0.1,0,1,0,1.4-0.1C80.6,12.7,80.7,13,80.7,14.5z"/>
	<g>
		<defs>
			<rect id="SVGID_19_" x="0" y="0" width="156.6" height="34.4"/>
		</defs>
		<clipPath id="SVGID_20_">
			<use xlink:href="#SVGID_19_"  style="overflow:visible;"/>
		</clipPath>
		<path class="st14" d="M124.4,4c-2.2,0-9.9,4.7-10.4,10c-0.4,4,2,8.1,4,8.8c0.4,0.2,1.4,0.2,2.4-0.1c3.4-1.1,7.3-5.6,9.7-8.8
			c0.1-0.1,0.2,0,0.2,0.2c-0.4,2.1-0.6,3.7-0.5,4.7c0.1,1.3,1.1,1.8,1.5,1.8c1.1,0.2,3-3,3.8-4.4c0-0.1,0.1-0.1,0.1,0.1
			c-0.1,2.8,0.4,4,0.9,4.4c0.3,0.3,1.1,0.6,1.3,0.6c1.5-0.1,3.2-2.8,4.3-4.7c0.1-0.2,0.2,0.1,0.2,0.3c0,3,0.4,3.7,1,3.9
			c0.1,0.1,0.8,0.3,1.1,0.3c1.1-0.3,2.5-1.4,3.7-3.1c-0.2,3.5-2.9,10.9-3.5,13.8c-0.2,1.1-0.2,1.9-0.1,2c0.6,0.6,2.9,0.8,4.7,0.1
			c1.7-0.7,2.3-1.8,2.4-2.1c0.2-1.2-1.4-7.9,1-16.2c0-0.1,0.1-0.2,0.2-0.5c0.2-0.4,0.1-1.1-0.5-1.9c-0.3-0.5-0.9-0.6-1.6-0.5
			c-0.8,0.2-0.9,0.4-1.3,1.2c-0.4,0.8-1.8,3-2.8,2.9c-0.7,0-0.8-0.5-0.8-1.2c-0.1-0.9-0.3-2.6-0.3-2.9c0-0.3-0.1-0.8-0.9-0.8
			c-1.1,0.1-2.3,2.5-4,4.1c-0.7,0.7-1.1,0.5-1.3,0.4c-0.2-0.1-0.2-1.7-0.1-3.1c0.1-0.9,1.1-5,1.2-6c2,0.2,4.7,0.5,7.3,0.6
			c2.5,0.1,4.8-0.1,6.4,0c0.9-0.7,2.7-3.1,2.9-4c0.1-0.6,0-1-0.8-1.1c-2.8-0.2-5.4,0.3-8.3,1.2c-2.1,0.6-2.7,0.7-3.5,0.9
			c-0.8,0.2-3.3,0.5-3.9,0.6c0-0.4,0.1-0.8-0.1-0.9c-0.4-0.2-1.1-0.2-1.7,0.2c-0.2,0.2-0.4,0.6-0.4,0.9c-1.5,0.2-3.3,0.1-4.2-0.2
			c-0.3-0.1-0.5-0.3-0.5-0.5c0-0.2-0.2-1.2-0.4-1.4c-0.2-0.2-0.2-1.3-0.4-1.4c-0.3-0.1-1.4-0.7-2.7,1.6c-0.8,1.5-0.7,2-0.2,2.5
			c0.2,0.2,0.6,0.4,0.9,0.4c1.1,0,1.7-0.2,2.2-0.5c0.5-0.3,0.6-0.1,1.1,0.1c0.5,0.2,2.6,0.7,3.7,0.8c-0.6,1.6-1.8,4.7-2.1,6
			c-0.7,1.3-1.8,3-2.4,3c-0.4,0-0.6-0.4-0.7-0.7c-0.1-0.5,0.2-2.2,0.4-3.5c0.2-1.3,0.7-2.5-0.5-2.5c-1.1,0-1.1,0.1-1.5,0.6
			c-2.2,2.8-5.8,6.4-8.2,7c-1.4,0.3-2.8-2.3-2.8-3.6c0-1.8,0.6-3.8,2.5-5.1c0.2-0.2,0.2-0.2,0.3-0.2c0.1,0,0.4-0.1,0.5,0.2
			c0.1,0.2,0.4,1.2,0.9,1.2c0.7,0,1.9-1.7,1.9-4C125.6,4.1,124.5,4,124.4,4"/>
		<path class="st14" d="M40.1,16.5c-0.1-0.7-1-0.3-1.5,0c-0.5,0.2-1,0.7-1,1.2c0,0.5,0.1,1,0,1.3c0,0.4-0.1,0.7-0.8,0.8
			c-0.5,0.1-1.3-0.2-1.7-0.7c-0.9-1.1-1-1.3-1.2-1.8c0.8-0.6,2.2-1.5,2.3-3c0.2-1.8-2.3-1.5-3.8-0.7c-3,1.6-3.4,3.1-3.1,4.3
			c-1,1-2.2,1.1-3.4,0.5c-2.4-1.2-2.1-2.9-3.6-3.2c-1.5-0.3-2.6,1-3.2,1c0.7-3.4,2.3-8,5.4-13.6c0-0.1,0.1-0.4-0.3-0.5
			c-0.4-0.1-1.5-0.2-2.2,0.3c-0.7,0.5-1.1,1.3-1.4,1.9c-1.4,0.6-2,0.8-3.9,0.9c-0.9,0.1-2,0.1-2.4,0.1c0-0.6-0.1-2.2-0.2-2.5
			c-0.1-0.3-0.4-0.7-1-0.6c-1.2,0.2-3.7,0.9-4,2.6C8,4.7,5.5,3.9,3.9,4C0.6,4.3,0.1,4.4,0,5.3c-0.1,0.5,0.1,0.9,0.1,1.1
			c0,0.2,0.1,0.9,0.8,0.8C3.8,6.7,8,6.7,9,6.7C8.7,9.8,7.8,16.8,7.1,19.6c-0.6,2.2-1,3.6,0.7,2.9c1.8-0.8,2.5-1.2,3.1-1.6
			c0.6-0.4,1.8-1.6,2.1-3.3c0.3-2.2,0.9-4.9,0.9-5.8c0.1-0.9,0.4-4,0.6-5c2,0,4.6-0.8,5.4-1.1c-3.4,6.3-5.4,13.3-5.3,14.6
			c0.1,0.6,0.5,0.9,1.3,0.8c0.8-0.1,2-0.9,2.7-1.7c0.7-0.7,1.4-1,2.2-0.9c0.9,0.1,1.3,0.4,1.5,1c0.6,1.2,1.6,1.7,3.3,1.4
			c2.2-0.3,3-1.2,4.1-1.9c1,2,2.3,2.9,5.1,3c1.6,0,3.7-1.2,4.6-2.3C39.9,18.9,40.1,17.1,40.1,16.5 M33.4,16C33.2,15.8,33,15,33,14.4
			c0.1-0.3,0.9-0.7,1.3-0.4c0.5,0.3,0.7,0.9,0,1.7C34,16,33.7,16.1,33.4,16z"/>
	</g>
	<path class="st2" d="M154.9,14.8c-0.2,0.2-0.5,0.3-0.8,0.3c-0.3,0-0.5-0.1-0.8-0.3c-0.2-0.2-0.3-0.5-0.3-0.8c0-0.3,0.1-0.5,0.3-0.8
		c0.2-0.2,0.5-0.3,0.8-0.3c0.3,0,0.5,0.1,0.8,0.3c0.2,0.2,0.3,0.5,0.3,0.8C155.2,14.4,155.1,14.6,154.9,14.8 M153.5,13.4
		c-0.2,0.2-0.3,0.4-0.3,0.7c0,0.3,0.1,0.5,0.3,0.7c0.2,0.2,0.4,0.3,0.7,0.3c0.3,0,0.5-0.1,0.6-0.3c0.2-0.2,0.3-0.4,0.3-0.7
		c0-0.3-0.1-0.5-0.3-0.7c-0.2-0.2-0.4-0.3-0.6-0.3C153.9,13.2,153.7,13.3,153.5,13.4z M154.1,13.5c0.1,0,0.3,0,0.3,0
		c0.1,0.1,0.2,0.1,0.2,0.3c0,0.1,0,0.2-0.1,0.2c0,0-0.1,0-0.2,0.1c0.1,0,0.2,0.1,0.2,0.1c0,0.1,0.1,0.1,0.1,0.2v0.1c0,0,0,0.1,0,0.1
		c0,0,0,0,0,0.1l0,0h-0.2c0,0,0,0,0,0c0,0,0,0,0,0l0,0v-0.1c0-0.1,0-0.2-0.1-0.3c0,0-0.1,0-0.2,0h-0.2v0.5h-0.2v-1.2H154.1z
		 M154.4,13.7c-0.1,0-0.1,0-0.3,0h-0.2v0.4h0.2c0.1,0,0.2,0,0.2,0c0.1,0,0.1-0.1,0.1-0.2C154.4,13.8,154.4,13.7,154.4,13.7z"/>
	<rect x="0" y="31.2" class="st15" width="138.5" height="1.3"/>
	<path class="st15" d="M6.2,40.7v7.8H3.9v-7.8h-3v-2.1h8.2v2.1H6.2z"/>
	<path class="st15" d="M16.2,48.6c-3.1,0-5-2.2-5-5.1c0-2.9,2-5.1,5.1-5.1c3,0,5,2.2,5,5.1C21.3,46.4,19.2,48.6,16.2,48.6z
		 M16.2,40.4c-1.6,0-2.6,1.3-2.6,3.1c0,1.8,1,3.1,2.6,3.1c1.6,0,2.6-1.3,2.6-3.1C18.8,41.7,17.8,40.4,16.2,40.4z"/>
	<path class="st15" d="M28.3,48.6c-2.7,0-4.1-1.4-4.1-4.2v-5.9h2.3v5.7c0,1.4,0.6,2.3,1.9,2.3c1.3,0,1.9-0.8,1.9-2.3v-5.7h2.3v5.9
		C32.5,47.2,30.9,48.6,28.3,48.6z"/>
	<path class="st15" d="M41,48.4l-1.7-3.2c-0.1,0-0.3,0-0.4,0c-0.3,0-0.5,0-0.8,0v3.2h-2.3v-9.8c0.8-0.1,1.8-0.2,2.9-0.2
		c3.1,0,4.3,1.5,4.3,3.3c0,1.2-0.6,2.2-1.7,2.9l2.3,3.8H41z M39,40.5c-0.3,0-0.6,0-0.9,0.1v2.7c0.3,0,0.5,0,0.7,0
		c1.1,0,1.8-0.5,1.8-1.5C40.6,41,40,40.5,39,40.5z"/>
	<path class="st15" d="M46.1,48.4v-9.9h2.3v9.9H46.1z"/>
	<path class="st15" d="M60.1,48.6l-6-5.3v5.2h-2.3v-10l0.3-0.1l5.9,5.3v-5.1h2.3v10L60.1,48.6z"/>
	<path class="st15" d="M72.2,42.9v4.7c-1.1,0.6-2.2,1-3.7,1c-2.9,0-5.2-2.1-5.2-5.1c0-3,2.3-5.1,5.3-5.1c1.3,0,2.3,0.3,3.3,0.8
		l-1,1.8c-0.7-0.4-1.5-0.6-2.2-0.6c-2,0-3,1.2-3,3c0,1.9,1.3,3.1,2.9,3.1c0.7,0,1.1-0.1,1.5-0.3v-1.5h-2v-2H72.2z"/>
	<path class="st15" d="M84,48.6c-3.2,0-5.4-2.2-5.4-5.1c0-2.9,2.2-5.1,5.4-5.1c1.1,0,2.2,0.3,3.1,0.9l-0.7,1.9
		c-0.7-0.4-1.5-0.7-2.4-0.7c-1.8,0-3,1.1-3,3c0,1.8,1.1,3,3,3c0.8,0,1.7-0.3,2.5-0.7l0.7,1.9C86.3,48.3,85.1,48.6,84,48.6z"/>
	<path class="st15" d="M94.3,48.6c-3.1,0-5-2.2-5-5.1c0-2.9,2-5.1,5.1-5.1c3,0,5,2.2,5,5.1C99.4,46.4,97.3,48.6,94.3,48.6z
		 M94.3,40.4c-1.6,0-2.6,1.3-2.6,3.1c0,1.8,1.1,3.1,2.6,3.1c1.6,0,2.6-1.3,2.6-3.1C96.9,41.7,95.9,40.4,94.3,40.4z"/>
	<path class="st15" d="M110.3,48.4l-0.1-4.9l-2.7,3.5h-0.2l-2.8-3.5l-0.1,4.9h-2.2l0.5-9.9l0.3,0l4.5,5.6l4.4-5.6l0.3,0l0.5,9.9
		H110.3z"/>
	<path class="st15" d="M118.9,45.5c-0.3,0-0.5,0-0.8,0v3h-2.3v-9.8c1-0.1,1.9-0.2,2.7-0.2c2.9,0,4.4,1.5,4.4,3.5
		C122.9,44,121.5,45.5,118.9,45.5z M118.9,40.6c-0.3,0-0.5,0-0.8,0.1v2.8c0.3,0,0.5,0,0.7,0c1.2,0,1.8-0.5,1.8-1.5
		C120.6,41.3,120.1,40.6,118.9,40.6z"/>
	<path class="st15" d="M130.9,48.4l-0.7-1.8h-3.4l-0.7,1.8h-2.3l4.6-10h0.3l4.6,10H130.9z M128.5,42.5l-1,2.4h2L128.5,42.5z"/>
	<path class="st15" d="M143.8,48.6l-6-5.3v5.2h-2.3v-10l0.3-0.1l5.9,5.3v-5.1h2.3v10L143.8,48.6z"/>
	<path class="st15" d="M152.2,44.5v3.9h-2.3v-3.9l-3.5-6h2.6l2,3.8l2-3.8h2.6L152.2,44.5z"/>
	<g>
		<path class="st16" d="M-9.2,224.7c-3,0-5-2.2-5-5c0-2.9,2-5.1,5.1-5.1c3,0,5,2.2,5,5.1C-4.2,222.6-6.2,224.7-9.2,224.7z
			 M-9.2,216.7c-1.5,0-2.6,1.3-2.6,3c0,1.7,1,3,2.6,3c1.5,0,2.6-1.3,2.6-3C-6.6,217.9-7.6,216.7-9.2,216.7z"/>
		<path class="st16" d="M3,224.7c-2.6,0-4.1-1.4-4.1-4.1v-5.8h2.3v5.6c0,1.4,0.6,2.2,1.9,2.2c1.3,0,1.9-0.8,1.9-2.2v-5.6h2.3v5.8
			C7.2,223.3,5.6,224.7,3,224.7z"/>
		<path class="st16" d="M15,216.9v7.7h-2.3v-7.7H9.8v-2.1h8.1v2.1H15z"/>
		<path class="st16" d="M25.8,224.6l-1.7-3.2c-0.1,0-0.3,0-0.4,0c-0.3,0-0.5,0-0.8,0v3.2h-2.3v-9.7c0.8-0.1,1.7-0.2,2.9-0.2
			c3,0,4.2,1.5,4.2,3.2c0,1.2-0.6,2.2-1.7,2.8l2.3,3.8H25.8z M23.8,216.8c-0.3,0-0.6,0-0.9,0.1v2.7c0.3,0,0.5,0,0.7,0
			c1.1,0,1.8-0.5,1.8-1.5C25.4,217.2,24.8,216.8,23.8,216.8z"/>
		<path class="st16" d="M30.9,224.6v-9.8h6.2v2.1h-3.9v1.7h3.6v2h-3.6v1.9h3.9v2.1H30.9z"/>
		<path class="st16" d="M46.4,224.6l-0.7-1.8h-3.4l-0.7,1.8h-2.3l4.6-9.9h0.3l4.6,9.9H46.4z M44,218.7l-1,2.3h1.9L44,218.7z"/>
		<path class="st16" d="M55.6,224.7c-3.2,0-5.3-2.1-5.3-5c0-2.9,2.2-5.1,5.3-5.1c1.1,0,2.2,0.3,3.1,0.9l-0.7,1.9
			c-0.7-0.4-1.5-0.7-2.3-0.7c-1.8,0-3,1.1-3,2.9c0,1.8,1.1,2.9,3,2.9c0.8,0,1.7-0.3,2.4-0.7l0.7,1.9
			C57.9,224.4,56.8,224.7,55.6,224.7z"/>
		<path class="st16" d="M67.7,224.6v-3.9h-3.8v3.9h-2.3v-9.8h2.3v3.8h3.8v-3.8h2.3v9.8H67.7z"/>
		<path class="st16" d="M84.7,221.6c-0.4,0.4-0.8,0.9-1.2,1.3c0.3,0.3,0.6,0.5,0.9,0.8l-1.1,1.1c-0.3-0.3-0.7-0.6-1-0.8
			c-0.7,0.5-1.5,0.8-2.4,0.8c-1.4,0-2.8-0.8-2.8-2.3c0-0.9,0.7-1.8,1.8-2.3c-0.3-0.6-0.5-1.1-0.5-1.5c0-1.2,1-2.2,2.5-2.2
			c1.5,0,2.4,1,2.4,2.1c0,0.9-0.7,1.7-2,2.1c0.3,0.4,0.7,0.8,1.1,1.2c0.4-0.4,0.9-0.9,1.2-1.3L84.7,221.6z M79.7,221.3
			c-0.4,0.2-0.6,0.6-0.6,0.9c0,0.5,0.4,0.9,1,0.9c0.3,0,0.6-0.1,1-0.3C80.5,222.3,80.1,221.8,79.7,221.3z M80.8,217.9
			c-0.4,0-0.7,0.3-0.7,0.8c0,0.3,0.1,0.6,0.4,1c0.7-0.2,1-0.7,1-1.1C81.5,218.2,81.2,217.9,80.8,217.9z"/>
		<path class="st16" d="M94.6,224.7c-1.1,0-1.8-0.1-3-0.2v-9.6c1.1-0.1,1.9-0.2,2.9-0.2c4.1,0,5.9,2.1,5.9,4.9
			C100.5,222.5,98.7,224.7,94.6,224.7z M94.8,216.8c-0.4,0-0.6,0-0.9,0.1v5.8c0.4,0,0.6,0.1,1.1,0.1c2.1,0,3.1-1.2,3.1-3
			C98.1,217.8,96.9,216.8,94.8,216.8z"/>
		<path class="st16" d="M103.7,224.6v-9.8h2.3v9.8H103.7z"/>
		<path class="st16" d="M113.2,224.7H113l-4.7-9.9h2.6l2.2,5.3l2.2-5.3h2.5L113.2,224.7z"/>
		<path class="st16" d="M120.2,224.6v-9.8h6.2v2.1h-3.9v1.7h3.6v2h-3.6v1.9h3.9v2.1H120.2z"/>
		<path class="st16" d="M134.9,224.6l-1.7-3.2c-0.1,0-0.3,0-0.4,0c-0.3,0-0.5,0-0.8,0v3.2h-2.3v-9.7c0.8-0.1,1.7-0.2,2.9-0.2
			c3,0,4.2,1.5,4.2,3.2c0,1.2-0.6,2.2-1.7,2.8l2.3,3.8H134.9z M132.8,216.8c-0.3,0-0.6,0-0.9,0.1v2.7c0.3,0,0.5,0,0.7,0
			c1.1,0,1.8-0.5,1.8-1.5C134.5,217.2,133.8,216.8,132.8,216.8z"/>
		<path class="st16" d="M142.5,224.7c-1.1,0-2.4-0.4-3.3-1l0.6-2.1c0.8,0.6,1.8,0.9,2.7,0.9c0.8,0,1.1-0.4,1.1-0.9
			c0-0.5-0.3-0.9-1.7-1.5c-1.7-0.7-2.3-1.7-2.3-2.9c0-1.4,1.2-2.8,3.4-2.8c1.1,0,2.2,0.4,2.7,0.8l-0.6,2c-0.6-0.4-1.5-0.8-2.2-0.8
			c-0.8,0-1.2,0.4-1.2,0.8c0,0.6,0.5,0.9,1.7,1.4c1.8,0.8,2.4,1.7,2.4,2.9C146,223.3,144.9,224.7,142.5,224.7z"/>
		<path class="st16" d="M149,224.6v-9.8h2.3v9.8H149z"/>
		<path class="st16" d="M159.3,216.9v7.7H157v-7.7h-2.9v-2.1h8.1v2.1H159.3z"/>
		<path class="st16" d="M169.7,220.7v3.9h-2.3v-3.9l-3.4-5.9h2.6l2,3.7l2-3.7h2.5L169.7,220.7z"/>
	</g>
	<g>
		<path d="M57.9,176.2c-7.9,1.2-13.6,5.6-13.6,7.8c0,2.6,4,4.7,6.7,7.6c1.4,1.5,1.8,2.8,1.8,4.1c0,0.7-0.1,1.4-0.3,1.8
			c-0.4,0.6-2.2,1.5-3.5,1.3c-2.7-0.5-3.2-4.3-2.5-6.2c0.1-0.3,0-0.9-0.4-1.1c-0.4-0.3-1.1-0.2-1.4,0.6c-0.7,1.8-1.2,6.4,1.5,8.3
			c0.9,0.6,1.9,0.8,3.5,0.8c4.6,0,7.4-3.5,8.7-6.9c1.4-3.7,2-7-1.8-10.2c-1-0.8-1.7-2.4-1.5-3.2c0.3-1,1.1-1.2,1.1-0.6
			c0,1.1,2.7,2,3.5-1.7C59.8,178.2,59.1,176,57.9,176.2"/>
	</g>
	<path d="M75.9,192.4c-0.3,0.3-0.1,0.1-0.4,0.5c-0.2,0.3-1.4,1.5-2.6,1.6c-1.6,0.2-1.8-2-1.8-2.8c0-1.1,0.8-3,2-3
		c0.4,0,0.4,0.1,0.5,0.3c0.1,0.2,0.2,0.2,0.1,0.5c-0.7,1.5-0.5,2.3,0,2.3c0.2,0,0.3-0.1,0.4-0.2c0.2-0.1,1.5-1.1,1.5-2
		c0-0.9-0.6-2.9-1.7-3.2c-0.4-0.1-1.6,0.2-2.5,0.8c-1.5,0.9-2.5,3.2-2.5,3.2c-0.7,0.9-1,1.1-1.4,1.6c-0.5,0.5-1.3,1.5-2.2,1.6
		c-0.7,0-1-0.8-1.2-1.4c-0.1-0.2-0.2-0.8-0.2-0.8c0.1,0,0.3-0.1,0.5-0.1c0.4-0.1,3.3-1.9,3.3-4.1c0-0.8-0.7-1.4-1.2-1.4
		c-0.5,0-1.7,0.2-2.5,0.8c-1.3,0.9-2.3,1.9-2.8,2.5c-1.2,1.7-1.8,4.9-0.3,6.6c0.7,0.8,1.5,1.5,2.5,1.6c2.2,0.4,3.5-2.6,4.6-3.5
		c0.2,2,0.5,2.6,1.3,3.2c0.8,0.6,1.8,0.7,3.2-0.2c1.4-0.8,3-2.2,3.5-2.9c0,1.7,1.2,3,2.9,3.2c3.1,0.4,5-4.1,5.4-6.2
		c0.3-1.7-0.1-2.4,0.1-2.5c0.2-0.1,1.4-0.4,1.6-0.3c0.2,0.1,0.7,2,0.5,3.2c-0.3,1.8-1,5,0.3,5.1c1.2,0.1,3.1-3.2,3.9-3.2
		c1,0,1.4,2.6,2.7,2.7c1.2,0,2.5-1.4,3.2-1.4c-0.1,1.8,0.8,3,2.3,3c2.6,0,6.2-4.9,7.4-6.2c-0.4,2.2-0.5,5.3-0.5,5.9
		c0,0.7,0.4,1.6,0.8,1.6c1.2,0,3.1-1.2,3.7-2.7c0-0.9,0.4-2.8,1.3-4.6c1.1-2.4,1.9-5,1.9-5.9c0-1.2-1-5.3-2.2-5.5
		c-0.8-0.1-2.6,1.2-2.8,1.5c-0.4,0.5-0.4,1.2-0.6,2.2c-0.3,1.4-0.5,2.9-1.1,4.2c-0.5,1-0.9,2-1.4,2.8c-1.3,1.8-2.8,2.7-3,2.5
		c-0.3-0.2-0.3-1.3,0.1-2.3c0.2-0.6,0.5-0.9,1.1-1c0.5-0.1,1.1-0.1,1.2-0.1c0.4,0.1,0.6-0.6,0.6-1c0-0.4-1-0.5-2-0.4
		c-3.1,0.2-3.9,1.5-4.7,2.9c-1.4,2.1-3.1,1.7-3.8,0.4c-0.7-1.2-1.2-2.6-2.2-2.2c-0.5,0.2-1.4,0.8-1.7,1.1c-0.3,0.3-0.8,0.7-0.9,0.6
		c-0.1-0.2,0.2-1.1,0.2-1.6c0.3-2.1,0.4-4-0.5-4.5c-0.4-0.2-2,0-3.1,0.6c-0.5,0.2-3.1,1.3-4.3,1.3c-0.4,0-0.5-0.5-0.9-0.5
		C78,186.7,75.9,190.6,75.9,192.4 M63.5,190.1c-0.1-0.3-0.2-0.8-0.2-1.2c0-0.3,0.3-0.6,0.5-0.7c0.3-0.2,0.6-0.5,0.8-0.4
		c0.2,0,0.4,0.2,0.5,0.4c0.1,0.2,0,0.9-0.2,1.2C64.7,189.6,64.1,190.2,63.5,190.1z M83,190.7c0,0.6-0.8,2.4-1.4,2.9
		c-0.4,0.3-0.9,0.3-1.3-0.1c-0.4-0.4-0.8-1.1-0.5-2.5c0.1-0.7,0.6-1.7,1.3-1.8c0.1,0,1,0,1.4-0.1C82.9,188.9,83,189.2,83,190.7z"/>
	<g>
		<path d="M126.7,180.2c-2.2,0-9.9,4.7-10.4,10c-0.4,4,2,8.1,4,8.8c0.4,0.2,1.4,0.2,2.4-0.1c3.4-1.1,7.3-5.6,9.7-8.8
			c0.1-0.1,0.2,0,0.2,0.2c-0.4,2.1-0.6,3.7-0.5,4.7c0.1,1.3,1.1,1.8,1.5,1.8c1.1,0.2,3-3,3.8-4.4c0-0.1,0.1-0.1,0.1,0.1
			c-0.1,2.8,0.4,4,0.9,4.4c0.3,0.3,1.1,0.6,1.3,0.6c1.5-0.1,3.2-2.8,4.3-4.7c0.1-0.2,0.2,0.1,0.2,0.3c0,3,0.4,3.7,1,3.9
			c0.1,0.1,0.8,0.3,1.1,0.3c1.1-0.3,2.5-1.4,3.7-3.1c-0.2,3.5-2.9,10.9-3.5,13.8c-0.2,1.1-0.2,1.9-0.1,2c0.6,0.6,2.9,0.8,4.7,0.1
			c1.7-0.7,2.3-1.8,2.4-2.1c0.2-1.2-1.4-7.9,1-16.2c0-0.1,0.1-0.2,0.2-0.5c0.2-0.4,0.1-1.1-0.5-1.9c-0.3-0.5-0.9-0.6-1.6-0.5
			c-0.8,0.2-0.9,0.4-1.3,1.2c-0.4,0.8-1.8,3-2.8,2.9c-0.7,0-0.8-0.5-0.8-1.2c-0.1-0.9-0.3-2.6-0.3-2.9c0-0.3-0.1-0.8-0.9-0.8
			c-1.1,0.1-2.3,2.5-4,4.1c-0.7,0.7-1.1,0.5-1.3,0.4c-0.2-0.1-0.2-1.7-0.1-3.1c0.1-0.9,1.1-5,1.2-6c2,0.2,4.7,0.5,7.3,0.6
			c2.5,0.1,4.8-0.1,6.4,0c0.9-0.6,2.7-3.1,2.9-4c0.1-0.6,0-1-0.8-1.1c-2.8-0.2-5.4,0.3-8.3,1.2c-2.1,0.6-2.7,0.7-3.5,0.9
			c-0.8,0.2-3.3,0.5-3.9,0.6c0-0.4,0.1-0.8-0.1-0.9c-0.4-0.2-1.1-0.2-1.7,0.2c-0.2,0.2-0.4,0.6-0.4,0.9c-1.5,0.2-3.3,0.1-4.2-0.2
			c-0.3-0.1-0.5-0.3-0.5-0.5c0-0.2-0.2-1.2-0.4-1.4c-0.2-0.2-0.2-1.3-0.4-1.4c-0.3-0.1-1.4-0.7-2.7,1.6c-0.8,1.5-0.7,2-0.2,2.5
			c0.2,0.2,0.6,0.4,0.9,0.4c1.1,0,1.7-0.2,2.2-0.5c0.5-0.3,0.6-0.1,1.1,0.1c0.5,0.2,2.6,0.7,3.7,0.8c-0.6,1.6-1.8,4.7-2.1,6
			c-0.7,1.3-1.8,3-2.4,3c-0.4,0-0.6-0.4-0.7-0.7c-0.1-0.5,0.2-2.2,0.4-3.5c0.2-1.3,0.7-2.4-0.5-2.4c-1.1,0-1.1,0.1-1.5,0.6
			c-2.2,2.8-5.8,6.4-8.2,7c-1.4,0.3-2.8-2.3-2.8-3.6c0-1.8,0.6-3.8,2.5-5.1c0.2-0.2,0.2-0.2,0.3-0.2c0.1,0,0.4-0.1,0.5,0.2
			c0.1,0.2,0.4,1.2,0.9,1.2c0.7,0,1.9-1.7,1.9-4C127.9,180.3,126.8,180.2,126.7,180.2"/>
		<path d="M42.4,192.7c-0.1-0.7-1-0.3-1.5,0c-0.5,0.2-1,0.7-1,1.2c0,0.5,0.1,1,0,1.3c0,0.4-0.1,0.7-0.8,0.8
			c-0.5,0.1-1.3-0.2-1.7-0.7c-0.9-1.1-1-1.3-1.2-1.8c0.8-0.6,2.2-1.5,2.3-3c0.2-1.8-2.3-1.5-3.8-0.7c-3,1.6-3.4,3.1-3.1,4.3
			c-1,1-2.2,1.1-3.4,0.5c-2.4-1.2-2.1-2.9-3.6-3.2c-1.5-0.3-2.6,1-3.2,1c0.7-3.4,2.3-8,5.4-13.6c0-0.1,0.1-0.4-0.3-0.5
			c-0.4-0.1-1.5-0.2-2.2,0.3c-0.7,0.5-1.1,1.3-1.4,1.9c-1.4,0.6-2,0.8-3.9,0.9c-0.9,0.1-2,0.1-2.4,0.1c0-0.6-0.1-2.2-0.2-2.5
			c-0.1-0.3-0.4-0.7-1-0.6c-1.2,0.2-3.7,0.9-4,2.6c-1.4-0.1-3.8-0.8-5.5-0.7c-3.3,0.2-3.8,0.4-3.9,1.3c-0.1,0.5,0.1,0.9,0.1,1.1
			c0,0.2,0.1,0.9,0.8,0.8c2.9-0.6,7.1-0.5,8.1-0.5C11,186,10.1,193,9.4,195.8c-0.6,2.2-1,3.6,0.7,2.9c1.8-0.8,2.5-1.2,3.1-1.6
			c0.6-0.4,1.8-1.6,2.1-3.3c0.3-2.2,0.9-4.9,0.9-5.8c0.1-0.9,0.4-4,0.6-5c2,0,4.6-0.8,5.4-1.1c-3.4,6.3-5.4,13.3-5.3,14.6
			c0.1,0.6,0.5,0.9,1.3,0.8c0.8-0.1,2-0.9,2.7-1.7c0.7-0.7,1.4-1,2.2-0.9c0.9,0.1,1.3,0.4,1.5,1c0.6,1.2,1.6,1.7,3.3,1.4
			c2.2-0.3,3-1.2,4.1-1.9c1,2,2.3,2.9,5.1,3c1.6,0,3.7-1.2,4.6-2.3C42.2,195.1,42.4,193.3,42.4,192.7 M35.7,192.2
			c-0.2-0.2-0.3-1.1-0.4-1.6c0.1-0.3,0.9-0.7,1.3-0.4c0.5,0.3,0.7,0.9,0,1.7C36.3,192.2,36,192.3,35.7,192.2z"/>
	</g>
	<path d="M157.2,191c-0.2,0.2-0.5,0.3-0.8,0.3c-0.3,0-0.5-0.1-0.8-0.3c-0.2-0.2-0.3-0.5-0.3-0.8c0-0.3,0.1-0.5,0.3-0.8
		c0.2-0.2,0.5-0.3,0.8-0.3c0.3,0,0.5,0.1,0.8,0.3c0.2,0.2,0.3,0.5,0.3,0.8C157.5,190.6,157.4,190.8,157.2,191 M155.8,189.6
		c-0.2,0.2-0.3,0.4-0.3,0.7c0,0.3,0.1,0.5,0.3,0.7c0.2,0.2,0.4,0.3,0.7,0.3c0.3,0,0.5-0.1,0.6-0.3c0.2-0.2,0.3-0.4,0.3-0.7
		c0-0.3-0.1-0.5-0.3-0.7c-0.2-0.2-0.4-0.3-0.6-0.3C156.2,189.4,156,189.5,155.8,189.6z M156.4,189.7c0.1,0,0.3,0,0.3,0
		c0.1,0.1,0.2,0.2,0.2,0.3c0,0.1,0,0.2-0.1,0.2c0,0-0.1,0-0.2,0.1c0.1,0,0.2,0.1,0.2,0.1c0,0.1,0.1,0.1,0.1,0.2v0.1c0,0,0,0.1,0,0.1
		c0,0,0,0.1,0,0.1l0,0h-0.2v0c0,0,0,0,0,0l0,0v-0.1c0-0.1,0-0.2-0.1-0.3c0,0-0.1,0-0.2,0h-0.2v0.5H156v-1.2H156.4z M156.7,189.9
		c-0.1,0-0.1,0-0.3,0h-0.2v0.4h0.2c0.1,0,0.2,0,0.2,0c0.1,0,0.1-0.1,0.1-0.2C156.7,190,156.7,189.9,156.7,189.9z"/>
	<rect x="2.3" y="207.4" class="st16" width="138.5" height="1.3"/>
	<g>
		<g>
			<path d="M-394.8,327L-394.8,327l0-0.2c0-0.2-0.1-0.5-0.4-0.6c0,0-0.1,0-0.1,0c-0.7-0.2-1.4,0-2.1,0.2c-0.6,0.2-1.3,0.3-2,0.2
				c0,0-0.5,0-0.5,0c-1.1,0-2.1-0.1-3.1-0.4c-0.4-0.2-0.9-0.1-1.4,0.3l0,0l0,0l0,0c-0.1,0.2-0.2,0.4-0.2,0.6c0,0,0,0.1,0,0.2
				c-0.1,0-0.3,0.1-0.3,0.1c0,0-0.2,0.1-0.2,0.1l-0.1,0c0,0-1.3,2-1.4,2.1c-0.1,0-1.7,0.6-1.7,0.6c0,0-0.4,0.2-0.4,0.3
				c0-0.2,0.1-0.4,0.1-0.4c0.1-0.6,0.3-1.2,0.3-1.9l0-0.2l0-0.1l0,0c-0.1-0.6-0.7-0.6-1-0.6c0,0-0.1,0-0.1,0
				c-0.1-0.5-0.3-0.9-0.4-1.2c0,0-0.1-0.1-0.1-0.1c-0.8-1.4-2.5-2.1-4.4-2.1c-1.9,0.1-3.3,1.9-3.8,3.4c-0.2,0.4-0.4,0.8-0.5,1.2
				c0,0,0,0,0-0.1v0v0c-0.3-0.5-2-2.3-3.9-1.7c-1.1,0.4-1.2,0.9-1.5,1.7l0,0c0,0,0,0,0,0c-0.4-0.5-0.8-0.7-1.4-1.1
				c-0.4-0.2-2.3-0.5-3.3,0.2c-0.7,0.5-0.8,1.6-1,3.1c0.1-0.9-0.6-1.6-1.3-2.2l0,0l0,0c-0.3-0.2-0.7-0.2-1.1-0.2l0,0l-0.1,0l0,0
				c-0.5,0.3-0.9,0.7-0.9,1.1c-0.1,0.1-0.1,0.3-0.1,0.4v0.3c0,0.2,0,0.3-0.1,0.3l0,0l0,0.1l-0.3,0.6c-0.5,1-1.1,2.3-1.1,3.6v0
				c-0.2,0-0.7,0-0.7,0l0,0c-1,0.2-1.2,1-1.4,1.7c0,0-0.1,0.3-0.2,0.5c-1-0.5-1.6-1.4-1.7-2.8c0.2,0.1,0.9,0.2,0.9,0.2
				c0.5,0.2,1.1,0.3,1.6,0.3h0l0,0c0.4-0.1,0.8-0.4,0.8-0.8l0,0c0,0,0-0.1,0-0.1c0,0-0.4-1.4-0.4-1.4l0-0.2l-0.7-2.5
				c0,0,0-0.1,0-0.1c-0.2-0.6-0.4-1.3-0.7-1.9c-0.2-0.4-0.7-0.7-1.2-0.8c-0.4,0-0.8,0.1-1.1,0.5c-0.7,1.3-1.2,2.8-1.4,4.3
				c-0.1,0-0.3,0.1-0.3,0.1c0-0.2-0.2-1.1-0.2-1.1c0,0,0-0.1,0-0.1c-0.1-0.5-0.1-1-0.3-1.5c0,0-0.1-0.2-0.1-0.2
				c-0.1-0.3-0.2-0.8-0.8-0.9c-0.5-0.2-1,0-1.3,0.5l0,0l0,0c-0.1,0.4-0.3,0.9-0.4,1.3c-0.1-0.5-0.1-1-0.3-1.5l0,0l0,0
				c-0.3-0.5-0.8-0.6-1.3-0.5l0,0c-0.5,0.2-0.7,0.6-0.8,0.9c0,0,0,0.1-0.1,0.2c-0.1,0-0.3-0.1-0.3-0.1c-0.4,0.1-0.6,0.1-0.9,0.4
				c-0.1,0.2-0.2,0.3-0.2,0.5c0,0.2,0.1,0.4,0.2,0.6c0,0,0,0.1,0,0.1c0,0.3,0.1,0.6,0.1,1c0,0.6-0.1,1.2-0.2,1.9
				c-0.1-0.9-0.4-1.8-0.8-2.7l0,0l-0.2-0.3c-0.5-0.6-1.1-1.3-2.1-1l0,0c-0.5,0.2-0.9,0.6-1.1,1.1c0-0.3,0-0.5,0-0.7
				c0-0.8-0.1-1.4-0.4-2c-0.4-0.9-1.5-1.4-2.6-1.3c-1.3,0.3-2.4,1.2-3,2.3l0,0l0,0l0,0c-0.1,0.3-0.1,0.7-0.1,1
				c0,1.8,1.2,3.4,2.2,4.7c0,0,0.3,0.4,0.3,0.4c0.4,0.6,0.9,1.3,1,2c-0.2-0.3-0.5-0.6-0.7-1c0,0,0-0.1,0-0.1l0-0.1l-0.2,0
				c-0.3,0-1.2-0.1-1.5,0.5l0,0l0,0l0,0c-0.2,0.7,0.3,1.2,0.7,1.6c0,0,0.4,0.5,0.4,0.5l0,0l0,0.1l0,0c0,0,0.4,0.4,0.4,0.4l0.1,0.1
				c0.2,0.3,0.4,0.5,0.8,0.7l0,0l0.1,0c0.3,0,0.6,0.1,0.9-0.1l0,0l0,0c0.4-0.3,0.6-0.8,0.7-1.2c0.4,0.4,1,0.7,1.6,0.6
				c0.9,0,1.6-0.5,2.1-1.1c0.5-0.5,0.8-1.1,1.1-1.7c0,0.2,0,0.3,0,0.5c0,0.4,0,0.8,0.1,1.2l0,0l0,0l0,0c0.2,0.4,0.6,0.5,0.9,0.6
				c0,0,0.3,0,0.3,0l0.1-0.1c0,0,0.1-0.1,0.1-0.1c0.2-0.1,0.4-0.2,0.6-0.5c0,0,0,0,0,0l0,0l0-0.1l0-1.1c0-1.3,0.1-2.4,0.3-3.4
				c0.1,1,0.4,3.6,0.4,3.6c0,0,0.4,0.7,0.4,0.7l0,0.1l0.2,0c0,0,0.3,0,0.3,0c0.2,0,0.5,0.1,0.8-0.1c0,0,0.1-0.1,0.1-0.1
				c0.1-0.1,0.4-0.2,0.4-0.5l0,0l0,0l0-0.3c0-1.1,0.2-2.2,0.4-3.3c0.2,1.2,0.5,2.5,1.1,3.6c0.2,0.5,0.8,0.4,1.1,0.4c0,0,0.2,0,0.2,0
				c0,0,0.1,0,0.1,0l0,0l0.1-0.1c0.2-0.1,0.3-0.3,0.4-0.6c0.1,0.2,0.5,0.8,0.5,0.8c0.6,0.7,2,2.2,3.8,1.7c0.7-0.1,0.7-0.7,0.7-1
				l0-0.1l0-0.2l0,0v0c0-0.3,0.2-0.6,0.4-0.9c0,0,0.1-0.1,0.1-0.1s0.1-0.2,0.2-0.4c0.1,0.3,0.3,0.5,0.5,0.8c0.7,0.7,1.8,0.7,2.5,0.4
				c0,0,0.1,0,0.1,0c0.9-0.6,1.5-1.4,1.8-2.4c0,0.1,0,0.1,0,0.2c0,0.4,0,0.8,0.4,1.1c0,0,0,0,0,0l0,0l0.1,0c0.2,0,0.3,0.1,0.4,0.5
				c0.1,0.3,0.2,0.8,0.7,0.9c0.2,0,0.8,0.1,1.2-0.1c0,0,0.1,0,0.1,0c0,0,0.5-0.5,0.5-0.5l0.1-0.1c0,0,0.6-0.6,0.7-0.8
				c0.2,0,0.4,0.1,0.6,0.3l0.5,0.3c1.6,0.6,2.7,0,3.8-1.1c0.5-0.4,0.6-0.6,0.7-0.8c0,1.6,0.3,2.7,0.7,4.3c0,0,0.7,2.5,0.7,2.5
				l0.1,0.2l0,0l0,0c0.2,0.4,0.6,0.3,0.8,0.3c0,0,0.3,0,0.3,0l0.2,0.1l0.2-0.2c0.2-0.2,0.6-0.4,0.6-0.8l0-0.1
				c-0.1-0.7-0.2-1.6-0.2-2.4l0-0.4v-1.5c0-1,0-2,0.2-3c0.1,0,0.3-0.1,0.3-0.1c0.6-0.2,1.2-0.4,1.8-0.7c0,0,0,0.1,0,0.1l0,0.5l0,0.3
				c0,0.3,0,0.5,0.1,0.8c0,0.7,0.1,1.6,1,1.9l0,0l0.1,0l0.2,0c0.2,0,0.6,0,0.9-0.3c0.1-0.2,0.2-0.4,0.2-0.6l0-0.3l0-0.1l0-0.2l0,0
				c-0.2-0.3-0.2-0.7-0.2-1.2l0.1-1.2c0,0,0-0.1,0-0.1l0,0l0-0.1l0-0.2c0-0.4,0.4-0.8,0.8-1.1c0,0,0,0,0.1,0
				c-0.2,0.8-0.4,1.5-0.4,2.3l0,0.4l0,0l0,0c0.2,0.5,0.6,0.7,1.2,0.7c0.3,0,0.6-0.2,0.8-0.4l0,0l0,0l0,0c0.5-1.1,1.4-1.9,2.3-2.2
				c0.1,0.5,0.2,1,0.4,1.4c0.4,0.7,1.1,1.2,1.8,1.3c1.2,0.1,2.3-0.4,3-1.2c0.6-0.6,0.8-1.4,0.8-2.3c0-0.7-0.2-1.6-0.5-2.6
				c0.2,0,1.2,0,1.2,0s1.3,0,1.7,0.1c-0.2,0.9-0.4,1.9-0.7,2.7c-0.4,1.6-0.8,3.1-1,4.6l0,0.1l0,0c0,0,0,0.1,0,0.1l0,0.2
				c0,0,0,0.1,0,0.1l0,0.2c0,0.4,0.2,0.6,0.5,0.8c0,0,0.2,0,0.2,0l0.1-0.1l0.3-0.2c0.3-0.1,0.6-0.3,0.7-0.8c0.5-2.9,1.4-5.7,2.1-8.1
				c0.1,0,0.4-0.1,0.4-0.1c0.4-0.1,1-0.2,1.2-0.9c0,0,0-0.1,0-0.1L-394.8,327C-394.8,327.1-394.8,327-394.8,327z M-453.4,333.8
				c0,0-0.2,0.6-0.3,0.9c-0.4-0.6-0.8-1.3-1.2-1.8l0,0c-0.9-1.1-1.7-2.3-1.9-3.7c0.1-0.6,0.7-1.1,1.2-1.5c0,0,0,0,0,0
				c0.4-0.1,0.7-0.1,0.9,0.1c0.2,0.4,0.3,1,0.3,1.6c0,0.7-0.1,1.3-0.3,1.7l0,0.1v0l0,0.3l0,0.1c0,0-0.1,0.6-0.1,0.6
				c0,0.3,0.2,0.6,0.5,0.8l0,0l0.1,0c0.4,0.1,0.9,0,1.2-0.2c0,0,0,0,0,0c0,0.1,0,0.2,0,0.2s0,0.1,0,0.2
				C-453.1,332.9-453.4,333.8-453.4,333.8z M-451.6,336.5c0,0-0.2,0.1-0.2,0.1c-0.1-0.2-0.2-0.4-0.2-0.6c0-0.3,0.1-0.6,0.2-1
				c0.3-0.7,0.7-1.7,1.4-2.1c0,0.2,0.1,0.5,0.1,0.7C-450.3,334.7-450.7,335.8-451.6,336.5z M-438.8,330c0,0.1,0.1,0.3,0.1,0.3
				c0.2,0.6,0.4,1.2,0.5,1.8c-0.3,0-0.6-0.1-0.9-0.2C-439.1,331.4-439,330.7-438.8,330z M-432,334.8c-0.1,0.3-0.3,0.5-0.5,0.7
				c0,0-0.1,0-0.1-0.1c0,0,0,0-0.1-0.1c-0.1-0.3-0.1-0.6-0.1-0.8c0-0.9,0.3-1.9,1-3c0.1,0.6,0.2,1.1,0.2,1.6
				C-431.7,333.8-431.8,334.3-432,334.8z M-425.4,331.7c0,0.5-0.1,0.9-0.3,1.3c-0.1,0.2-0.7,1.1-1.8,1.3c-0.3,0.1-0.4-0.2-0.4-0.7
				c0-0.4,0-2,0.1-2.8c0.1-0.8,0.1-1.8,0.4-1.8c0.4,0,1,0.1,1.7,0.8c0.2,0.2,0.3,0.5,0.4,0.9C-425.4,330.8-425.3,331.2-425.4,331.7z
				 M-420.4,331.6c-0.1,0.7-0.5,1.5-1.1,2.2c-0.6,0.6-1.4,0.7-1.6,0.8c0,0-0.2,0-0.2-0.1c0-0.1-0.1-0.4,0-1c0-0.6,0.1-1.6,0.3-2.5
				c0.1-0.7,0.1-0.8,0.1-0.8c0.1-0.8,0.2-1.7,0.4-1.8c0.3,0,1.1,0.1,1.7,0.8c0.2,0.2,0.3,0.5,0.4,0.8l0,0.1
				C-420.3,330.5-420.3,331-420.4,331.6z M-411.5,327.9c-0.1-0.1-0.2-0.1-0.3-0.2c-0.4-0.1-0.8,0.1-1.1,0.2l-0.1,0c0,0-0.1,0-0.1,0
				c-0.4,0.5-0.5,1.1-0.5,1.6c0,0.3-0.1,0.6-0.2,0.9c-0.7,0.4-1.4,0.8-2.3,1.1c0-0.1,0-0.3,0-0.3l0.1-0.7c0-0.7-0.3-1.1-0.9-1.2
				c0-0.1,0.1-0.2,0.1-0.2c0.4-1.3,0.9-2.7,2.2-3.5c1-0.3,2,0.1,2.7,0.9C-411.8,326.9-411.5,327.3-411.5,327.9
				C-411.5,327.8-411.5,327.9-411.5,327.9z M-403.1,331.8c0,0-0.2,0.2-0.2,0.2c-0.4,0.4-0.8,0.8-1.3,0.6c-0.3-0.3-0.5-0.7-0.5-1.2
				c0,0,0-0.2,0-0.2c0.1,0,0.2,0,0.4,0l0,0c0.3,0.1,0.7,0.1,1.1-0.2c0.2-0.2,0.4-0.5,0.4-0.9c0-0.2-0.1-0.4-0.3-0.6l0,0
				c-0.2-0.1-0.4-0.2-0.7-0.3c0,0,0,0,0,0c0.2-0.2,0.3-0.5,0.4-0.7c0.2,0.4,0.4,0.8,0.5,1.2c0,0,0.1,0.3,0.1,0.3
				c0.1,0.3,0.1,0.6,0.1,0.8C-402.9,331.3-403,331.6-403.1,331.8z"/>
		</g>
		<path d="M-410.4,321.8c0-0.3,0-0.7-0.1-1c0,0,0-0.1,0-0.1l0,0c-0.3-0.3-0.8-0.5-1.3-0.5h-0.1h-0.1l-0.1,0.1c0,0-0.2,0.1-0.2,0.1
			l-0.1,0c-0.2,0.1-0.4,0.3-0.5,0.6l0,0l0,0c0,0.6,0.4,0.9,0.7,1.2l0,0l0.3,0.3c0,0,0.1,0.1,0.1,0.1l0.3,0c0.3,0,0.6,0,0.9-0.2
			c0,0,0.1-0.1,0.1-0.1l0,0l0-0.2C-410.4,322.2-410.4,321.8-410.4,321.8z"/>
	</g>
	<line class="st17" x1="-460.8" y1="312.6" x2="284.6" y2="312.6"/>
	
		<text transform="matrix(1 0 0 1 -458.5987 301.4487)" class="st18" style="font-family:'AvantGarde-Medium'; font-size:9; letter-spacing:3;">DEPARTMENT LOGO COLOR</text>
	
		<text transform="matrix(1 0 0 1 238.7343 336.7822)" class="st18" style="font-family:'AvantGarde-Medium'; font-size:9; letter-spacing:3;">7/2/14</text>
</g>
<g id="Layer_3">
</g>
<g id="Layer_2">
</g>
</svg>
