<?xml version="1.0" encoding="utf-8"?>
<!-- Generator: Adobe Illustrator 18.1.1, SVG Export Plug-In . SVG Version: 6.00 Build 0)  -->
<svg version="1.1" xmlns="http://www.w3.org/2000/svg" xmlns:xlink="http://www.w3.org/1999/xlink" x="0px" y="0px"
	 viewBox="0 0 156.6 48.7" style="enable-background:new 0 0 156.6 48.7;" xml:space="preserve">
<style type="text/css">
	.st0{fill:#CD0A44;}
	.st1{clip-path:url(#SVGID_2_);}
	.st2{fill:#221F20;}
	.st3{clip-path:url(#SVGID_4_);}
	.st4{fill:#CCCCCC;}
</style>
<g id="Layer_1">
	<path class="st0" d="M47.4,48.7l-5.9-5.3v5.1h-2.3v-10l0.3-0.1l5.8,5.3v-5.1h2.3v10L47.4,48.7z"/>
	<path class="st0" d="M51.3,48.5v-9.8h6.2v2.1h-3.9v1.8h3.6v2h-3.6v1.9h3.9v2.1H51.3z"/>
	<path class="st0" d="M65.4,40.7v7.7h-2.3v-7.7h-2.9v-2.1h8.2v2.1H65.4z"/>
	<path class="st0" d="M80.8,48.6l-0.3,0l-3-5.9l-3,5.9l-0.3,0l-3.6-10h2.6l1.6,5.2l2.6-5.2h0.2l2.6,5.2l1.6-5.1h2.6L80.8,48.6z"/>
	<path class="st0" d="M90.5,48.6c-3,0-5-2.2-5-5.1c0-2.9,2-5.1,5.1-5.1c3,0,5,2.2,5,5.1C95.6,46.5,93.6,48.6,90.5,48.6z M90.6,40.5
		c-1.6,0-2.6,1.3-2.6,3c0,1.8,1,3,2.6,3c1.6,0,2.6-1.3,2.6-3C93.2,41.8,92.1,40.5,90.6,40.5z"/>
	<path class="st0" d="M103.2,48.5l-1.7-3.2c-0.1,0-0.3,0-0.4,0c-0.3,0-0.5,0-0.8,0v3.2h-2.3v-9.7c0.8-0.1,1.7-0.2,2.9-0.2
		c3.1,0,4.3,1.5,4.3,3.3c0,1.2-0.6,2.2-1.7,2.8l2.3,3.8H103.2z M101.2,40.6c-0.3,0-0.6,0-0.9,0.1v2.7c0.3,0,0.5,0,0.7,0
		c1.1,0,1.8-0.5,1.8-1.5C102.8,41.1,102.2,40.6,101.2,40.6z"/>
	<path class="st0" d="M114.7,48.5l-3.6-4.6v4.6h-2.3v-9.8h2.3v4.3l3.4-4.3h2.7l-4,4.7l4.2,5.1H114.7z"/>
	<g>
		<defs>
			<rect id="SVGID_1_" x="0" y="0" width="156.6" height="34.4"/>
		</defs>
		<clipPath id="SVGID_2_">
			<use xlink:href="#SVGID_1_"  style="overflow:visible;"/>
		</clipPath>
		<g class="st1">
			<path class="st2" d="M55.6,0C47.7,1.2,42,5.6,42,7.8c0,2.6,4,4.7,6.7,7.6c1.4,1.5,1.8,2.8,1.8,4.1c0,0.7-0.1,1.4-0.3,1.8
				c-0.4,0.6-2.2,1.5-3.5,1.3c-2.7-0.5-3.2-4.3-2.5-6.2c0.1-0.3,0-0.9-0.4-1.1c-0.4-0.3-1.1-0.2-1.4,0.6c-0.7,1.8-1.2,6.4,1.5,8.3
				c0.9,0.6,1.9,0.8,3.5,0.8c4.6,0,7.4-3.5,8.7-6.9c1.4-3.7,2-7-1.8-10.2c-1-0.8-1.7-2.4-1.5-3.2c0.3-1,1.1-1.2,1.1-0.6
				c0,1.1,2.7,2,3.5-1.7C57.5,2,56.7-0.2,55.6,0"/>
		</g>
	</g>
	<g>
		<path class="st2" d="M73.6,16.2c-0.3,0.3-0.1,0.1-0.4,0.5c-0.2,0.3-1.4,1.5-2.6,1.6c-1.6,0.2-1.8-2-1.8-2.8c0-1.1,0.8-3,2-3
			c0.4,0,0.4,0.1,0.5,0.3c0.1,0.2,0.2,0.2,0.1,0.5c-0.7,1.5-0.5,2.3,0,2.3c0.2,0,0.3-0.1,0.4-0.2c0.2-0.1,1.5-1.1,1.5-2
			c0-0.9-0.6-2.9-1.7-3.2c-0.4-0.1-1.6,0.2-2.5,0.8c-1.5,0.9-2.5,3.2-2.5,3.2c-0.7,0.9-1,1.1-1.4,1.6c-0.5,0.5-1.3,1.5-2.2,1.6
			c-0.7,0-1-0.8-1.2-1.4c-0.1-0.2-0.2-0.8-0.2-0.8c0.1,0,0.3-0.1,0.5-0.1c0.4-0.1,3.3-1.9,3.3-4.1c0-0.8-0.7-1.4-1.2-1.4
			c-0.5,0-1.7,0.2-2.5,0.8c-1.3,0.9-2.3,1.9-2.8,2.5c-1.2,1.7-1.8,4.9-0.3,6.6c0.7,0.8,1.5,1.5,2.5,1.6c2.2,0.4,3.5-2.6,4.6-3.5
			c0.2,2,0.5,2.6,1.3,3.2c0.8,0.6,1.8,0.7,3.2-0.2c1.4-0.8,3-2.2,3.5-2.9c0,1.7,1.2,3,2.9,3.2c3.1,0.4,5-4.1,5.4-6.2
			c0.3-1.7-0.1-2.4,0.1-2.5c0.2-0.1,1.4-0.4,1.6-0.3c0.2,0.1,0.7,2,0.5,3.1c-0.3,1.8-1,5,0.3,5.1c1.2,0.1,3.1-3.2,3.9-3.2
			c1,0,1.5,2.6,2.7,2.7c1.2,0,2.5-1.4,3.2-1.4c-0.1,1.8,0.8,3,2.3,3c2.6,0,6.2-4.9,7.4-6.2c-0.4,2.2-0.5,5.3-0.5,5.9
			c0,0.7,0.4,1.6,0.8,1.6c1.2,0,3.1-1.2,3.7-2.7c0-0.9,0.4-2.8,1.3-4.6c1.1-2.4,1.9-5,1.9-5.9c0-1.2-1-5.3-2.2-5.5
			c-0.8-0.1-2.6,1.2-2.8,1.5c-0.4,0.5-0.4,1.2-0.6,2.2c-0.3,1.4-0.5,2.9-1.1,4.2c-0.5,1-0.9,2-1.4,2.8c-1.3,1.8-2.8,2.7-3.1,2.5
			c-0.3-0.2-0.3-1.3,0.1-2.3c0.2-0.6,0.5-0.9,1.1-1c0.5-0.1,1.1-0.1,1.2-0.1c0.4,0.1,0.6-0.6,0.6-1c0-0.4-1-0.5-2-0.4
			c-3.1,0.2-3.9,1.5-4.7,2.9c-1.4,2.1-3.1,1.7-3.8,0.4c-0.7-1.2-1.2-2.6-2.2-2.2c-0.5,0.2-1.4,0.8-1.7,1.1c-0.3,0.3-0.8,0.7-0.9,0.6
			c-0.1-0.2,0.2-1.1,0.2-1.6c0.3-2.1,0.4-4-0.5-4.5c-0.4-0.2-2,0-3.1,0.6c-0.5,0.2-3.1,1.3-4.3,1.3c-0.4,0-0.5-0.5-0.9-0.5
			C75.7,10.5,73.6,14.4,73.6,16.2 M61.2,13.9c-0.1-0.3-0.2-0.8-0.2-1.2c0-0.3,0.3-0.6,0.5-0.7c0.3-0.2,0.6-0.5,0.8-0.4
			c0.2,0,0.4,0.2,0.5,0.4c0.1,0.2,0,0.9-0.2,1.1C62.3,13.4,61.8,14,61.2,13.9z M80.7,14.5c0,0.6-0.8,2.4-1.4,2.9
			c-0.4,0.3-0.9,0.3-1.3-0.1c-0.4-0.4-0.8-1.1-0.5-2.5c0.1-0.7,0.6-1.7,1.3-1.8c0.1,0,1,0,1.4-0.1C80.6,12.7,80.7,13,80.7,14.5z"/>
	</g>
	<g>
		<defs>
			<rect id="SVGID_3_" x="0" y="0" width="156.6" height="34.4"/>
		</defs>
		<clipPath id="SVGID_4_">
			<use xlink:href="#SVGID_3_"  style="overflow:visible;"/>
		</clipPath>
		<g class="st3">
			<path class="st2" d="M124.4,4c-2.2,0-9.9,4.7-10.4,10c-0.4,4,2,8.1,4,8.8c0.4,0.2,1.4,0.2,2.4-0.1c3.4-1.1,7.3-5.6,9.7-8.8
				c0.1-0.1,0.2,0,0.2,0.2c-0.4,2.1-0.6,3.7-0.5,4.7c0.1,1.3,1.1,1.8,1.5,1.8c1.1,0.2,3-3,3.8-4.4c0-0.1,0.1-0.1,0.1,0.1
				c-0.1,2.8,0.4,4,0.9,4.4c0.3,0.3,1.1,0.6,1.3,0.6c1.5-0.1,3.2-2.8,4.3-4.7c0.1-0.2,0.2,0.1,0.2,0.3c0,3,0.4,3.7,1,3.9
				c0.1,0.1,0.8,0.3,1.1,0.3c1.1-0.3,2.5-1.4,3.7-3.1c-0.2,3.5-2.9,10.9-3.5,13.8c-0.2,1.1-0.2,1.9-0.1,2c0.6,0.6,2.9,0.8,4.7,0.1
				c1.7-0.7,2.3-1.8,2.4-2.1c0.2-1.2-1.4-7.9,1-16.2c0-0.1,0.1-0.2,0.2-0.5c0.2-0.4,0.1-1.1-0.5-1.9c-0.3-0.5-0.9-0.6-1.6-0.5
				c-0.8,0.2-0.9,0.4-1.3,1.2c-0.4,0.8-1.8,3-2.8,2.9c-0.7,0-0.8-0.5-0.8-1.2c-0.1-0.9-0.3-2.6-0.3-2.9c0-0.3-0.1-0.8-0.9-0.8
				c-1.1,0.1-2.3,2.5-4,4.1c-0.7,0.7-1.1,0.5-1.3,0.4c-0.2-0.1-0.2-1.7-0.1-3.1c0.1-0.9,1.1-5,1.2-6c2,0.2,4.7,0.5,7.3,0.6
				c2.5,0.1,4.8-0.1,6.4,0c0.9-0.7,2.7-3.1,2.9-4c0.1-0.6,0-1-0.8-1.1c-2.8-0.2-5.4,0.3-8.3,1.2c-2.1,0.6-2.7,0.7-3.5,0.9
				c-0.8,0.2-3.3,0.5-3.9,0.6c0-0.4,0.1-0.8-0.1-0.9c-0.4-0.2-1.1-0.2-1.7,0.2c-0.2,0.2-0.4,0.6-0.4,0.9c-1.5,0.2-3.3,0.1-4.2-0.2
				c-0.3-0.1-0.5-0.3-0.5-0.5c0-0.2-0.2-1.2-0.4-1.4c-0.2-0.2-0.2-1.3-0.4-1.4c-0.3-0.1-1.4-0.7-2.7,1.6c-0.8,1.5-0.7,2-0.2,2.5
				c0.2,0.2,0.6,0.4,0.9,0.4c1.1,0,1.7-0.2,2.2-0.5c0.5-0.3,0.6-0.1,1.1,0.1c0.5,0.2,2.6,0.7,3.7,0.8c-0.6,1.6-1.8,4.7-2.1,6
				c-0.7,1.3-1.8,3-2.4,3c-0.4,0-0.6-0.4-0.7-0.7c-0.1-0.5,0.2-2.2,0.4-3.5c0.2-1.3,0.7-2.5-0.5-2.5c-1.1,0-1.1,0.1-1.5,0.6
				c-2.2,2.8-5.8,6.4-8.2,7c-1.4,0.3-2.8-2.3-2.8-3.6c0-1.8,0.6-3.8,2.4-5.1c0.2-0.2,0.2-0.2,0.3-0.2c0.1,0,0.4-0.1,0.5,0.2
				c0.1,0.2,0.4,1.2,0.9,1.2c0.7,0,1.9-1.7,1.9-4C125.6,4.1,124.5,4,124.4,4"/>
		</g>
		<g class="st3">
			<path class="st2" d="M40.1,16.5c-0.1-0.7-1-0.3-1.5,0c-0.5,0.2-1,0.7-1,1.2c0,0.5,0.1,1,0,1.3c0,0.4-0.1,0.7-0.8,0.8
				c-0.5,0.1-1.3-0.2-1.7-0.7c-0.9-1.1-1-1.3-1.2-1.8c0.8-0.6,2.2-1.5,2.3-3c0.2-1.8-2.3-1.5-3.8-0.7c-3,1.6-3.4,3.1-3.1,4.3
				c-1,1-2.2,1.1-3.4,0.5c-2.4-1.2-2.1-2.9-3.6-3.2c-1.5-0.3-2.6,1-3.2,1c0.7-3.4,2.3-8,5.4-13.6c0-0.1,0.1-0.4-0.3-0.5
				c-0.4-0.1-1.5-0.2-2.2,0.3c-0.7,0.5-1.1,1.3-1.4,1.9c-1.4,0.6-2,0.8-3.9,0.9c-0.9,0.1-2,0.1-2.4,0.1c0-0.6-0.1-2.2-0.2-2.5
				c-0.1-0.3-0.4-0.7-1-0.6c-1.2,0.2-3.7,0.9-3.9,2.6C8,4.7,5.5,3.9,3.9,4C0.6,4.3,0.1,4.4,0,5.3c-0.1,0.5,0.1,0.9,0.1,1.1
				c0,0.2,0.1,0.9,0.8,0.8C3.8,6.7,8,6.7,9,6.7C8.7,9.8,7.8,16.8,7.1,19.6c-0.6,2.2-1,3.6,0.7,2.9c1.8-0.8,2.5-1.2,3.1-1.6
				c0.6-0.4,1.8-1.6,2.1-3.3c0.3-2.2,0.9-4.9,0.9-5.8c0.1-0.9,0.4-4,0.6-5c2,0,4.6-0.8,5.4-1.1c-3.4,6.3-5.4,13.3-5.3,14.6
				c0.1,0.6,0.5,0.9,1.3,0.8c0.8-0.1,2-0.9,2.7-1.7c0.7-0.7,1.4-1,2.2-0.9c0.9,0.1,1.3,0.4,1.5,1c0.6,1.2,1.6,1.7,3.3,1.4
				c2.2-0.3,3-1.2,4.1-1.9c1,2,2.3,2.9,5.1,3c1.6,0,3.7-1.2,4.6-2.3C39.9,18.9,40.1,17.1,40.1,16.5 M33.4,16
				C33.2,15.8,33,15,33,14.4c0.1-0.3,0.9-0.7,1.3-0.4c0.5,0.3,0.7,0.9,0,1.7C34,16,33.7,16.1,33.4,16z"/>
		</g>
	</g>
	<g>
		<path class="st2" d="M154.9,14.8c-0.2,0.2-0.5,0.3-0.8,0.3c-0.3,0-0.5-0.1-0.8-0.3c-0.2-0.2-0.3-0.5-0.3-0.8
			c0-0.3,0.1-0.5,0.3-0.8c0.2-0.2,0.5-0.3,0.8-0.3c0.3,0,0.5,0.1,0.8,0.3c0.2,0.2,0.3,0.5,0.3,0.8C155.2,14.4,155.1,14.6,154.9,14.8
			 M153.5,13.4c-0.2,0.2-0.3,0.4-0.3,0.7c0,0.3,0.1,0.5,0.3,0.7c0.2,0.2,0.4,0.3,0.7,0.3c0.3,0,0.5-0.1,0.7-0.3
			c0.2-0.2,0.3-0.4,0.3-0.7c0-0.3-0.1-0.5-0.3-0.7c-0.2-0.2-0.4-0.3-0.7-0.3C153.9,13.2,153.7,13.3,153.5,13.4z M154.1,13.5
			c0.1,0,0.3,0,0.3,0c0.1,0.1,0.2,0.1,0.2,0.3c0,0.1,0,0.2-0.1,0.2c0,0-0.1,0-0.2,0.1c0.1,0,0.2,0.1,0.2,0.1c0,0.1,0.1,0.1,0.1,0.2
			v0.1c0,0,0,0.1,0,0.1c0,0,0,0,0,0.1l0,0h-0.2c0,0,0,0,0,0c0,0,0,0,0,0l0,0v-0.1c0-0.1,0-0.2-0.1-0.3c0,0-0.1,0-0.2,0h-0.2v0.5
			h-0.2v-1.2H154.1z M154.4,13.7c-0.1,0-0.1,0-0.3,0h-0.2v0.4h0.2c0.1,0,0.2,0,0.2,0c0.1,0,0.1-0.1,0.1-0.2
			C154.4,13.8,154.4,13.7,154.4,13.7z"/>
	</g>
	<rect x="0" y="31.2" class="st0" width="138.5" height="1.3"/>
	
		<text transform="matrix(1 0 0 1 589.5342 517.6885)" class="st4" style="font-family:'AvantGarde-Medium'; font-size:9; letter-spacing:3;">7/2/14</text>
</g>
<g id="Layer_3">
</g>
<g id="Layer_2">
</g>
</svg>
