<?xml version="1.0" encoding="utf-8"?>
<!-- Generator: Adobe Illustrator 18.1.1, SVG Export Plug-In . SVG Version: 6.00 Build 0)  -->
<svg version="1.1" id="Layer_1" xmlns="http://www.w3.org/2000/svg" xmlns:xlink="http://www.w3.org/1999/xlink" x="0px" y="0px"
	 viewBox="-1393.3 1481.7 173 40.3" enable-background="new -1393.3 1481.7 173 40.3" xml:space="preserve">
<g id="Layer_1_1_">
	<g>
		<g>
			<g>
				<path fill="#221F20" d="M-1331.4,1483.3c-8.6,1.3-14.8,6.1-14.8,8.4c0,2.8,4.4,5.1,7.2,8.2c1.6,1.6,2,3.1,2,4.5
					c0,0.7-0.1,1.6-0.3,1.9c-0.4,0.7-2.4,1.6-3.8,1.4c-2.9-0.6-3.5-4.7-2.8-6.7c0.1-0.3,0-0.9-0.4-1.2c-0.4-0.3-1.2-0.2-1.6,0.6
					c-0.8,2-1.3,6.9,1.6,9c1,0.6,2.1,0.9,3.8,0.9c5,0,8-3.8,9.4-7.4c1.5-4,2.1-7.6-1.9-11.1c-1.1-0.9-1.9-2.6-1.6-3.5
					c0.3-1.1,1.2-1.3,1.2-0.6c0,1.2,2.9,2.1,3.8-1.8C-1329.4,1485.4-1330.1,1483.1-1331.4,1483.3"/>
			</g>
		</g>
		<g>
			<path fill="#221F20" d="M-1311.9,1500.9c-0.3,0.4-0.1,0.1-0.4,0.6c-0.2,0.4-1.6,1.6-2.8,1.8c-1.8,0.2-2-2.1-2-3
				c0-1.1,0.9-3.3,2.2-3.3c0.4,0,0.4,0.1,0.6,0.3c0.1,0.2,0.3,0.3,0.1,0.6c-0.8,1.6-0.5,2.5,0.1,2.5c0.2,0,0.3-0.1,0.4-0.3
				c0.2-0.1,1.6-1.2,1.6-2.2c0-1-0.7-3.2-1.9-3.5c-0.4-0.1-1.7,0.3-2.8,0.9c-1.6,1-2.8,3.4-2.8,3.4c-0.7,1-1.1,1.2-1.6,1.7
				s-1.4,1.7-2.4,1.7c-0.8,0.1-1.1-0.9-1.3-1.5c-0.1-0.2-0.3-0.8-0.2-0.8c0.1,0,0.3-0.1,0.6-0.1c0.5-0.1,3.6-2.1,3.6-4.4
				c0-0.9-0.8-1.5-1.3-1.5s-1.8,0.3-2.7,0.8c-1.4,0.9-2.5,2.1-3,2.8c-1.3,1.9-2,5.3-0.4,7.2c0.7,0.9,1.7,1.6,2.8,1.8
				c2.4,0.4,3.8-2.8,5-3.8c0.2,2.1,0.5,2.9,1.4,3.5c0.9,0.6,2,0.7,3.4-0.2c1.5-0.9,3.3-2.4,3.8-3.2c0,1.8,1.3,3.3,3.1,3.5
				c3.3,0.4,5.4-4.5,5.8-6.8c0.4-1.9-0.1-2.6,0.1-2.8c0.3-0.1,1.5-0.4,1.8-0.3s0.7,2.2,0.6,3.4c-0.3,2-1.1,5.5,0.3,5.6
				c1.3,0.1,3.3-3.4,4.2-3.4c1.1,0,1.6,2.9,2.9,2.9c1.3,0,2.7-1.5,3.5-1.5c-0.1,2,0.9,3.3,2.5,3.2c2.8-0.1,6.8-5.3,8-6.7
				c-0.4,2.4-0.6,5.7-0.6,6.4s0.4,1.7,0.8,1.7c1.3,0,3.3-1.3,4-3c-0.1-1,0.4-3.1,1.4-5c1.2-2.6,2.1-5.4,2.1-6.4
				c0-1.3-1.1-5.8-2.4-5.9c-0.9-0.1-2.8,1.3-3,1.6c-0.4,0.6-0.4,1.3-0.6,2.4c-0.3,1.6-0.6,3.1-1.2,4.6c-0.5,1.1-0.9,2.2-1.6,3
				c-1.4,2-3.1,2.9-3.3,2.8c-0.4-0.2-0.3-1.4,0.1-2.5c0.3-0.6,0.6-1,1.1-1.1c0.6-0.1,1.2-0.1,1.3-0.1c0.4,0.1,0.6-0.7,0.6-1.1
				c-0.1-0.4-1.1-0.5-2.2-0.4c-3.4,0.2-4.2,1.7-5.1,3.1c-1.5,2.3-3.4,1.8-4.1,0.4c-0.7-1.3-1.3-2.8-2.4-2.3
				c-0.5,0.2-1.5,0.9-1.9,1.2c-0.4,0.3-0.9,0.7-1,0.6c-0.1-0.2,0.2-1.2,0.2-1.7c0.3-2.3,0.4-4.4-0.5-4.9c-0.4-0.2-2.2,0-3.3,0.6
				c-0.5,0.3-3.4,1.4-4.6,1.4c-0.4,0-0.6-0.6-1-0.6C-1309.6,1494.6-1311.8,1498.9-1311.9,1500.9 M-1325.4,1498.4
				c-0.1-0.4-0.3-0.8-0.2-1.3c0.1-0.3,0.3-0.7,0.6-0.8c0.3-0.2,0.7-0.5,0.9-0.4s0.4,0.2,0.6,0.4c0.1,0.2,0,1-0.2,1.2
				C-1324.1,1497.9-1324.7,1498.5-1325.4,1498.4z M-1304.2,1499c0,0.6-0.9,2.6-1.5,3.1c-0.4,0.3-1,0.3-1.4-0.1
				c-0.4-0.4-0.9-1.1-0.6-2.8c0.1-0.8,0.6-1.9,1.4-2c0.2-0.1,1.1,0,1.5-0.1C-1304.3,1497.1-1304.2,1497.5-1304.2,1499z"/>
		</g>
		<g>
			<g>
				<path fill="#221F20" d="M-1256.8,1487.6c-2.4,0-10.8,5.1-11.3,10.9c-0.4,4.3,2.2,8.8,4.3,9.6c0.4,0.2,1.6,0.2,2.6-0.1
					c3.8-1.2,7.9-6,10.5-9.5c0.1-0.1,0.2-0.1,0.2,0.2c-0.4,2.3-0.6,4.1-0.6,5.1c0.1,1.4,1.2,1.9,1.6,2c1.2,0.2,3.3-3.3,4.1-4.8
					c0.1-0.1,0.1-0.1,0.2,0.1c-0.1,3.1,0.4,4.3,1,4.8c0.4,0.3,1.2,0.6,1.4,0.6c1.6-0.1,3.5-3,4.7-5.1c0.1-0.2,0.3,0.1,0.3,0.3
					c0,3.3,0.5,4,1.1,4.2c0.1,0.1,0.8,0.4,1.1,0.3c1.2-0.3,2.7-1.5,4-3.4c-0.3,3.8-3.1,11.9-3.8,15c-0.2,1.1-0.2,2.1-0.1,2.2
					c0.7,0.7,3.2,0.9,5.1,0.1c1.9-0.8,2.5-2,2.6-2.3c0.3-1.4-1.5-8.5,1.1-17.6c0.1-0.1,0.1-0.2,0.2-0.5c0.2-0.4,0.1-1.1-0.5-2
					c-0.4-0.5-1-0.7-1.8-0.6c-0.9,0.2-1,0.4-1.4,1.3c-0.4,0.8-2,3.2-3,3.1c-0.7-0.1-0.8-0.6-0.9-1.4c-0.1-1-0.3-2.9-0.3-3.2
					c0-0.3-0.1-0.9-1-0.8c-1.2,0.1-2.5,2.8-4.3,4.4c-0.8,0.7-1.2,0.6-1.4,0.4c-0.2-0.1-0.3-1.8-0.1-3.4c0.1-1,1.1-5.5,1.3-6.5
					c2.1,0.3,5.1,0.5,7.9,0.6c2.7,0.1,5.2-0.1,6.9-0.1c1-0.7,3-3.4,3.2-4.4c0.1-0.6,0-1.1-0.8-1.1c-3-0.2-5.8,0.3-9,1.2
					c-2.3,0.6-2.9,0.7-3.8,1c-0.9,0.2-3.6,0.6-4.2,0.7c0.1-0.4,0.2-0.8-0.1-1c-0.4-0.2-1.2-0.3-1.9,0.2c-0.2,0.2-0.4,0.7-0.4,0.9
					c-1.6,0.2-3.6,0.1-4.5-0.2c-0.3-0.1-0.5-0.3-0.6-0.6c-0.1-0.2-0.2-1.3-0.4-1.6c-0.2-0.2-0.2-1.4-0.4-1.6c-0.3-0.1-1.5-0.8-3,1.8
					c-0.9,1.6-0.8,2.1-0.2,2.7c0.2,0.2,0.6,0.4,1,0.4c1.2,0,1.9-0.3,2.4-0.6c0.6-0.3,0.7-0.1,1.2,0.1c0.6,0.2,2.8,0.8,4,0.9
					c-0.6,1.7-2,5.1-2.3,6.5c-0.7,1.4-1.9,3.3-2.6,3.3c-0.4,0-0.7-0.4-0.7-0.7c-0.1-0.6,0.2-2.4,0.4-3.8c0.2-1.4,0.7-2.6-0.6-2.6
					c-1.1,0-1.2,0.1-1.6,0.6c-2.4,3.1-6.2,7-8.9,7.6c-1.6,0.3-3-2.6-3-3.9c0-1.9,0.6-4.1,2.6-5.6c0.2-0.2,0.2-0.2,0.4-0.2
					c0.1,0,0.4-0.1,0.5,0.2c0.1,0.2,0.4,1.3,1,1.3c0.7,0,2-1.9,2-4.3C-1255.4,1487.8-1256.6,1487.6-1256.8,1487.6"/>
			</g>
			<g>
				<path fill="#221F20" d="M-1348.3,1501.2c-0.1-0.7-1.1-0.3-1.6-0.1c-0.5,0.3-1.1,0.8-1.1,1.3s0.1,1.1,0.1,1.4
					c-0.1,0.4-0.1,0.7-0.8,0.9c-0.5,0.1-1.4-0.2-1.9-0.7c-1-1.2-1.1-1.5-1.3-1.9c0.9-0.6,2.4-1.6,2.6-3.3c0.2-1.9-2.5-1.7-4.1-0.8
					c-3.3,1.8-3.6,3.4-3.3,4.7c-1.1,1.1-2.4,1.1-3.6,0.6c-2.6-1.3-2.3-3.1-3.9-3.5c-1.6-0.3-2.8,1.1-3.5,1.1
					c0.7-3.7,2.5-8.7,5.8-14.8c0-0.1,0.1-0.4-0.3-0.5c-0.4-0.1-1.7-0.2-2.4,0.3s-1.1,1.5-1.5,2.1c-1.5,0.6-2.1,0.9-4.2,1
					c-1,0.1-2.2,0.1-2.6,0.1c0.1-0.7-0.1-2.4-0.2-2.8c-0.1-0.4-0.5-0.8-1.2-0.7c-1.3,0.2-4,1.1-4.3,2.8c-1.5-0.1-4.2-0.9-5.9-0.8
					c-3.6,0.2-4.1,0.4-4.2,1.4c-0.1,0.6,0.1,1,0.1,1.2c0,0.2,0.1,1,0.8,0.9c3.1-0.6,7.8-0.5,8.8-0.6c-0.3,3.4-1.3,10.9-2.1,14
					c-0.6,2.4-1.1,4,0.8,3.1c2-0.9,2.7-1.3,3.4-1.7c0.7-0.4,2-1.7,2.2-3.6c0.3-2.4,1-5.3,1.1-6.3c0.1-1,0.5-4.3,0.6-5.5
					c2.1,0,5-0.9,5.9-1.2c-3.6,6.8-5.9,14.4-5.8,15.8c0.1,0.7,0.5,1,1.4,0.9c0.9-0.1,2.1-1,2.9-1.8c0.7-0.8,1.5-1.1,2.4-1
					c1,0.1,1.4,0.5,1.7,1.1c0.6,1.3,1.7,1.8,3.5,1.5c2.4-0.4,3.3-1.3,4.4-2.1c1.1,2.2,2.5,3.2,5.5,3.2c1.7,0,4.1-1.3,5-2.5
					C-1348.5,1503.8-1348.2,1501.9-1348.3,1501.2 M-1355.5,1500.7c-0.2-0.3-0.4-1.2-0.4-1.7c0.1-0.4,1-0.8,1.4-0.4
					c0.5,0.4,0.7,1-0.1,1.8C-1354.8,1500.7-1355.1,1500.8-1355.5,1500.7z"/>
			</g>
		</g>
		<g>
			<path fill="#221F20" d="M-1223.6,1499.4c-0.2,0.2-0.5,0.4-0.8,0.4s-0.6-0.1-0.8-0.4c-0.2-0.2-0.3-0.5-0.3-0.8
				c0-0.3,0.1-0.6,0.3-0.8c0.2-0.2,0.5-0.3,0.8-0.3s0.6,0.1,0.8,0.3c0.2,0.2,0.3,0.5,0.3,0.8
				C-1223.3,1498.9-1223.4,1499.2-1223.6,1499.4 M-1225.1,1497.8c-0.2,0.2-0.3,0.4-0.3,0.7c0,0.3,0.1,0.5,0.3,0.7
				c0.2,0.2,0.4,0.3,0.7,0.3c0.3,0,0.5-0.1,0.7-0.3c0.2-0.2,0.3-0.4,0.3-0.7c0-0.3-0.1-0.5-0.3-0.7c-0.2-0.2-0.4-0.3-0.7-0.3
				C-1224.7,1497.6-1224.9,1497.7-1225.1,1497.8z M-1224.4,1497.9c0.1,0,0.3,0,0.4,0.1c0.1,0.1,0.2,0.2,0.2,0.3
				c0,0.1-0.1,0.2-0.1,0.2c-0.1,0.1-0.1,0.1-0.2,0.1c0.1,0,0.2,0.1,0.2,0.1c0.1,0.1,0.1,0.1,0.1,0.2v0.1c0,0.1,0,0.1,0,0.1
				c0,0.1,0,0.1,0,0.1l0,0h-0.2l0,0l0,0v-0.1v-0.1c0-0.1-0.1-0.2-0.1-0.3c-0.1,0-0.1-0.1-0.3-0.1h-0.2v0.5h-0.2v-1.3L-1224.4,1497.9
				L-1224.4,1497.9L-1224.4,1497.9L-1224.4,1497.9z M-1224.2,1498.1c-0.1-0.1-0.1-0.1-0.3-0.1h-0.2v0.4h0.2c0.1,0,0.2,0,0.2-0.1
				c0.1-0.1,0.1-0.1,0.1-0.2C-1224.1,1498.3-1224.2,1498.2-1224.2,1498.1z"/>
		</g>
	</g>
</g>
<g id="Layer_3">
</g>
</svg>
