<?xml version="1.0" encoding="utf-8"?>
<!-- Generator: Adobe Illustrator 18.1.1, SVG Export Plug-In . SVG Version: 6.00 Build 0)  -->
<svg version="1.1" xmlns="http://www.w3.org/2000/svg" xmlns:xlink="http://www.w3.org/1999/xlink" x="0px" y="0px"
	 viewBox="0 0 195 58.3" style="enable-background:new 0 0 195 58.3;" xml:space="preserve">
<style type="text/css">
	.st0{fill:#F47414;}
	.st1{clip-path:url(#SVGID_2_);fill:#221F20;}
	.st2{fill:#221F20;}
	.st3{clip-path:url(#SVGID_4_);fill:#221F20;}
	.st4{fill:#CD0A44;}
	.st5{clip-path:url(#SVGID_6_);}
	.st6{clip-path:url(#SVGID_8_);}
	.st7{fill:#007BFF;}
	.st8{clip-path:url(#SVGID_10_);fill:#221F20;}
	.st9{clip-path:url(#SVGID_12_);fill:#221F20;}
	.st10{clip-path:url(#SVGID_14_);}
	.st11{clip-path:url(#SVGID_16_);}
	.st12{fill:#50CC73;}
	.st13{clip-path:url(#SVGID_18_);fill:#221F20;}
	.st14{clip-path:url(#SVGID_20_);fill:#221F20;}
	.st15{fill:#854CF2;}
	.st16{fill:#38B7BA;}
	.st17{fill:none;stroke:#CCCCCC;stroke-width:1.1232;stroke-miterlimit:10;}
	.st18{fill:#CCCCCC;}
</style>
<g id="Layer_1">
	<path class="st0" d="M145.5,14.5c-1,0-1.6-0.6-1.6-1.5c0-0.9,0.6-1.5,1.6-1.5c0.3,0,0.7,0.1,0.9,0.3l-0.2,0.6
		c-0.2-0.1-0.5-0.2-0.7-0.2c-0.5,0-0.9,0.3-0.9,0.9s0.3,0.9,0.9,0.9c0.2,0,0.5-0.1,0.7-0.2l0.2,0.6
		C146.2,14.4,145.9,14.5,145.5,14.5z"/>
	<path class="st0" d="M148.7,14.5c-0.9,0-1.5-0.7-1.5-1.5c0-0.9,0.6-1.5,1.5-1.5c0.9,0,1.5,0.7,1.5,1.5
		C150.2,13.8,149.6,14.5,148.7,14.5z M148.7,12c-0.5,0-0.8,0.4-0.8,0.9c0,0.5,0.3,0.9,0.8,0.9c0.5,0,0.8-0.4,0.8-0.9
		C149.5,12.4,149.2,12,148.7,12z"/>
	<path class="st0" d="M153.5,14.4l0-1.4l-0.8,1h-0.1l-0.8-1l0,1.4h-0.7l0.1-3l0.1,0l1.3,1.7l1.3-1.7l0.1,0l0.1,3H153.5z"/>
	<path class="st0" d="M157.6,14.4l0-1.4l-0.8,1h-0.1l-0.8-1l0,1.4h-0.7l0.1-3l0.1,0l1.3,1.7l1.3-1.7l0.1,0l0.1,3H157.6z"/>
	<path class="st0" d="M160.5,14.5c-0.8,0-1.2-0.4-1.2-1.2v-1.7h0.7v1.7c0,0.4,0.2,0.7,0.6,0.7c0.4,0,0.6-0.3,0.6-0.7v-1.7h0.7v1.7
		C161.8,14,161.3,14.5,160.5,14.5z"/>
	<path class="st0" d="M165.3,14.5l-1.8-1.6v1.5h-0.7v-3l0.1,0l1.7,1.6v-1.5h0.7L165.3,14.5L165.3,14.5z"/>
	<path class="st0" d="M166.4,14.4v-2.9h0.7v2.9H166.4z"/>
	<path class="st0" d="M169.7,14.5c-1,0-1.6-0.6-1.6-1.5c0-0.9,0.6-1.5,1.6-1.5c0.3,0,0.7,0.1,0.9,0.3l-0.2,0.6
		c-0.2-0.1-0.5-0.2-0.7-0.2c-0.5,0-0.9,0.3-0.9,0.9s0.3,0.9,0.9,0.9c0.2,0,0.5-0.1,0.7-0.2l0.2,0.6C170.4,14.4,170,14.5,169.7,14.5z
		"/>
	<path class="st0" d="M173.4,14.4l-0.2-0.5h-1l-0.2,0.5h-0.7l1.4-3h0.1l1.4,3H173.4z M172.7,12.6l-0.3,0.7h0.6L172.7,12.6z"/>
	<path class="st0" d="M175.9,12.1v2.3h-0.7v-2.3h-0.9v-0.6h2.4v0.6H175.9z"/>
	<path class="st0" d="M177.6,14.4v-2.9h0.7v2.9H177.6z"/>
	<path class="st0" d="M180.8,14.5c-0.9,0-1.5-0.7-1.5-1.5c0-0.9,0.6-1.5,1.5-1.5c0.9,0,1.5,0.7,1.5,1.5
		C182.3,13.8,181.7,14.5,180.8,14.5z M180.8,12c-0.5,0-0.8,0.4-0.8,0.9c0,0.5,0.3,0.9,0.8,0.9c0.5,0,0.8-0.4,0.8-0.9
		C181.5,12.4,181.2,12,180.8,12z"/>
	<path class="st0" d="M185.1,14.5l-1.8-1.6v1.5h-0.7v-3l0.1,0l1.7,1.6v-1.5h0.7L185.1,14.5L185.1,14.5z"/>
	<path class="st0" d="M187,14.5c-0.3,0-0.7-0.1-1-0.3l0.2-0.6c0.2,0.2,0.5,0.3,0.8,0.3c0.2,0,0.3-0.1,0.3-0.3c0-0.2-0.1-0.3-0.5-0.4
		c-0.5-0.2-0.7-0.5-0.7-0.9c0-0.4,0.3-0.8,1-0.8c0.3,0,0.6,0.1,0.8,0.2l-0.2,0.6c-0.2-0.1-0.4-0.2-0.6-0.2c-0.2,0-0.3,0.1-0.3,0.2
		c0,0.2,0.1,0.3,0.5,0.4c0.5,0.2,0.7,0.5,0.7,0.9C188.1,14,187.8,14.5,187,14.5z"/>
	<g>
		<defs>
			<rect id="SVGID_1_" x="143.5" y="0" width="46.8" height="10.3"/>
		</defs>
		<clipPath id="SVGID_2_">
			<use xlink:href="#SVGID_1_"  style="overflow:visible;"/>
		</clipPath>
		<path class="st1" d="M160.1,0.1c-2.4,0.4-4.1,1.7-4.1,2.3c0,0.8,1.2,1.4,2,2.3c0.4,0.5,0.5,0.8,0.5,1.2c0,0.2,0,0.4-0.1,0.5
			c-0.1,0.2-0.6,0.5-1.1,0.4c-0.8-0.1-1-1.3-0.8-1.9c0-0.1,0-0.3-0.1-0.3c-0.1-0.1-0.3-0.1-0.4,0.2c-0.2,0.6-0.4,1.9,0.5,2.5
			c0.3,0.2,0.6,0.3,1,0.3c1.4,0,2.2-1.1,2.6-2.1c0.4-1.1,0.6-2.1-0.5-3.1c-0.3-0.2-0.5-0.7-0.4-1c0.1-0.3,0.3-0.4,0.3-0.2
			c0,0.3,0.8,0.6,1-0.5C160.6,0.6,160.4,0,160.1,0.1"/>
	</g>
	<path class="st2" d="M165.4,4.9c-0.1,0.1,0,0-0.1,0.2c-0.1,0.1-0.4,0.4-0.8,0.5C164.1,5.6,164,5,164,4.7c0-0.3,0.3-0.9,0.6-0.9
		c0.1,0,0.1,0,0.2,0.1c0,0.1,0.1,0.1,0,0.1c-0.2,0.4-0.1,0.7,0,0.7c0.1,0,0.1,0,0.1-0.1c0.1,0,0.4-0.3,0.4-0.6c0-0.3-0.2-0.9-0.5-1
		c-0.1,0-0.5,0.1-0.8,0.2c-0.5,0.3-0.8,0.9-0.8,0.9c-0.2,0.3-0.3,0.3-0.4,0.5c-0.1,0.1-0.4,0.5-0.7,0.5c-0.2,0-0.3-0.2-0.4-0.4
		c0-0.1-0.1-0.2-0.1-0.2c0,0,0.1,0,0.2,0c0.1,0,1-0.6,1-1.2c0-0.2-0.2-0.4-0.4-0.4c-0.1,0-0.5,0.1-0.7,0.2c-0.4,0.3-0.7,0.6-0.8,0.8
		c-0.4,0.5-0.5,1.5-0.1,2c0.2,0.2,0.5,0.4,0.8,0.5c0.6,0.1,1.1-0.8,1.4-1.1c0.1,0.6,0.1,0.8,0.4,1c0.2,0.2,0.5,0.2,0.9,0
		c0.4-0.2,0.9-0.7,1.1-0.9c0,0.5,0.4,0.9,0.9,1c0.9,0.1,1.5-1.2,1.6-1.9c0.1-0.5,0-0.7,0-0.8c0.1,0,0.4-0.1,0.5-0.1
		c0.1,0,0.2,0.6,0.1,0.9c-0.1,0.6-0.3,1.5,0.1,1.5c0.4,0,0.9-0.9,1.2-0.9c0.3,0,0.4,0.8,0.8,0.8c0.4,0,0.7-0.4,1-0.4
		c0,0.5,0.2,0.9,0.7,0.9c0.8,0,1.9-1.5,2.2-1.8c-0.1,0.7-0.1,1.6-0.2,1.8c0,0.2,0.1,0.5,0.2,0.5c0.3,0,0.9-0.4,1.1-0.8
		c0-0.3,0.1-0.8,0.4-1.4c0.3-0.7,0.6-1.5,0.6-1.8c0-0.3-0.3-1.6-0.7-1.6c-0.2,0-0.8,0.4-0.8,0.4C175,1.8,175,2,174.9,2.3
		c-0.1,0.4-0.2,0.9-0.3,1.3c-0.1,0.3-0.3,0.6-0.4,0.8c-0.4,0.5-0.9,0.8-0.9,0.8c-0.1-0.1-0.1-0.4,0-0.7c0.1-0.2,0.2-0.3,0.3-0.3
		c0.2,0,0.3,0,0.4,0c0.1,0,0.2-0.2,0.2-0.3c0-0.1-0.3-0.1-0.6-0.1c-0.9,0.1-1.2,0.5-1.4,0.9c-0.4,0.6-0.9,0.5-1.1,0.1
		c-0.2-0.4-0.4-0.8-0.6-0.6c-0.1,0.1-0.4,0.2-0.5,0.3c-0.1,0.1-0.2,0.2-0.3,0.2c0-0.1,0-0.3,0.1-0.5c0.1-0.6,0.1-1.2-0.1-1.3
		c-0.1-0.1-0.6,0-0.9,0.2c-0.1,0.1-0.9,0.4-1.3,0.4c-0.1,0-0.2-0.2-0.3-0.2C166.1,3.2,165.5,4.4,165.4,4.9 M161.7,4.2
		c0-0.1-0.1-0.2-0.1-0.4c0-0.1,0.1-0.2,0.1-0.2c0.1-0.1,0.2-0.1,0.2-0.1c0.1,0,0.1,0.1,0.1,0.1c0,0.1,0,0.3-0.1,0.3
		C162.1,4.1,161.9,4.2,161.7,4.2z M167.6,4.4c0,0.2-0.2,0.7-0.4,0.9c-0.1,0.1-0.3,0.1-0.4,0c-0.1-0.1-0.2-0.3-0.2-0.8
		c0-0.2,0.2-0.5,0.4-0.6c0,0,0.3,0,0.4,0C167.5,3.8,167.6,3.9,167.6,4.4z"/>
	<g>
		<defs>
			<rect id="SVGID_3_" x="143.5" y="0" width="46.8" height="10.3"/>
		</defs>
		<clipPath id="SVGID_4_">
			<use xlink:href="#SVGID_3_"  style="overflow:visible;"/>
		</clipPath>
		<path class="st3" d="M180.6,1.2c-0.7,0-3,1.4-3.1,3c-0.1,1.2,0.6,2.4,1.2,2.6c0.1,0,0.4,0.1,0.7,0c1-0.3,2.2-1.7,2.9-2.6
			c0,0,0.1,0,0,0.1c-0.1,0.6-0.2,1.1-0.2,1.4c0,0.4,0.3,0.5,0.5,0.6c0.3,0.1,0.9-0.9,1.1-1.3c0,0,0,0,0,0c0,0.8,0.1,1.2,0.3,1.3
			c0.1,0.1,0.3,0.2,0.4,0.2c0.5,0,1-0.8,1.3-1.4c0,0,0.1,0,0.1,0.1c0,0.9,0.1,1.1,0.3,1.2c0,0,0.2,0.1,0.3,0.1
			c0.3-0.1,0.7-0.4,1.1-0.9c-0.1,1-0.9,3.3-1,4.1c-0.1,0.3-0.1,0.6,0,0.6c0.2,0.2,0.9,0.2,1.4,0c0.5-0.2,0.7-0.5,0.7-0.6
			c0.1-0.4-0.4-2.4,0.3-4.8c0,0,0-0.1,0.1-0.1c0.1-0.1,0-0.3-0.1-0.6c-0.1-0.1-0.3-0.2-0.5-0.1c-0.2,0-0.3,0.1-0.4,0.4
			c-0.1,0.2-0.5,0.9-0.8,0.9c-0.2,0-0.2-0.2-0.2-0.4c0-0.3-0.1-0.8-0.1-0.9c0-0.1,0-0.2-0.3-0.2c-0.3,0-0.7,0.8-1.2,1.2
			C185.1,5.1,185,5,184.9,5c-0.1,0-0.1-0.5,0-0.9c0-0.3,0.3-1.5,0.4-1.8c0.6,0.1,1.4,0.1,2.2,0.2c0.7,0,1.4,0,1.9,0
			c0.3-0.2,0.8-0.9,0.9-1.2c0-0.2,0-0.3-0.2-0.3c-0.8-0.1-1.6,0.1-2.5,0.3c-0.6,0.2-0.8,0.2-1,0.3c-0.2,0.1-1,0.2-1.2,0.2
			c0-0.1,0-0.2,0-0.3c-0.1-0.1-0.3-0.1-0.5,0.1c-0.1,0.1-0.1,0.2-0.1,0.3c-0.5,0.1-1,0-1.2-0.1c-0.1,0-0.1-0.1-0.1-0.2
			c0-0.1,0-0.4-0.1-0.4c-0.1-0.1,0-0.4-0.1-0.4c-0.1,0-0.4-0.2-0.8,0.5c-0.2,0.4-0.2,0.6-0.1,0.7c0.1,0.1,0.2,0.1,0.3,0.1
			c0.3,0,0.5-0.1,0.7-0.2c0.1-0.1,0.2,0,0.3,0c0.1,0.1,0.8,0.2,1.1,0.3c-0.2,0.5-0.5,1.4-0.6,1.8c-0.2,0.4-0.5,0.9-0.7,0.9
			c-0.1,0-0.2-0.1-0.2-0.2c0-0.1,0-0.7,0.1-1c0.1-0.4,0.2-0.7-0.2-0.7c-0.3,0-0.3,0-0.4,0.2c-0.7,0.8-1.7,1.9-2.5,2.1
			c-0.4,0.1-0.8-0.7-0.8-1.1c0-0.5,0.2-1.1,0.7-1.5c0.1,0,0.1,0,0.1,0c0,0,0.1,0,0.1,0c0,0.1,0.1,0.4,0.3,0.4c0.2,0,0.6-0.5,0.6-1.2
			C181,1.3,180.7,1.2,180.6,1.2"/>
		<path class="st3" d="M155.4,5c0-0.2-0.3-0.1-0.4,0c-0.1,0.1-0.3,0.2-0.3,0.4c0,0.1,0,0.3,0,0.4c0,0.1,0,0.2-0.2,0.2
			c-0.1,0-0.4-0.1-0.5-0.2c-0.3-0.3-0.3-0.4-0.4-0.5c0.2-0.2,0.7-0.5,0.7-0.9c0.1-0.5-0.7-0.5-1.1-0.2c-0.9,0.5-1,0.9-0.9,1.3
			c-0.3,0.3-0.7,0.3-1,0.2c-0.7-0.3-0.6-0.9-1.1-1c-0.5-0.1-0.8,0.3-1,0.3c0.2-1,0.7-2.4,1.6-4.1c0,0,0-0.1-0.1-0.1
			c-0.1,0-0.5-0.1-0.7,0.1c-0.2,0.1-0.3,0.4-0.4,0.6c-0.4,0.2-0.6,0.2-1.2,0.3c-0.3,0-0.6,0-0.7,0c0-0.2,0-0.6-0.1-0.8
			c0-0.1-0.1-0.2-0.3-0.2c-0.4,0.1-1.1,0.3-1.2,0.8c-0.4,0-1.1-0.2-1.6-0.2c-1,0.1-1.1,0.1-1.2,0.4c0,0.1,0,0.3,0,0.3
			c0,0.1,0,0.3,0.2,0.2c0.9-0.2,2.1-0.1,2.4-0.2c-0.1,0.9-0.3,3-0.6,3.9c-0.2,0.6-0.3,1.1,0.2,0.9c0.5-0.2,0.7-0.4,0.9-0.5
			c0.2-0.1,0.5-0.5,0.6-1c0.1-0.7,0.3-1.5,0.3-1.7c0-0.3,0.1-1.2,0.2-1.5c0.6,0,1.4-0.2,1.6-0.3c-1,1.9-1.6,4-1.6,4.4
			c0,0.2,0.1,0.3,0.4,0.2c0.2,0,0.6-0.3,0.8-0.5c0.2-0.2,0.4-0.3,0.7-0.3c0.3,0,0.4,0.1,0.5,0.3c0.2,0.4,0.5,0.5,1,0.4
			c0.6-0.1,0.9-0.4,1.2-0.6c0.3,0.6,0.7,0.9,1.5,0.9c0.5,0,1.1-0.4,1.4-0.7C155.4,5.7,155.5,5.2,155.4,5 M153.4,4.8
			c-0.1-0.1-0.1-0.3-0.1-0.5c0-0.1,0.3-0.2,0.4-0.1c0.1,0.1,0.2,0.3,0,0.5C153.6,4.8,153.5,4.9,153.4,4.8z"/>
	</g>
	<path class="st2" d="M189.2,4.5c-0.1,0.1-0.1,0.1-0.2,0.1c-0.1,0-0.2,0-0.2-0.1c-0.1-0.1-0.1-0.1-0.1-0.2s0-0.2,0.1-0.2
		c0.1-0.1,0.1-0.1,0.2-0.1c0.1,0,0.2,0,0.2,0.1c0.1,0.1,0.1,0.1,0.1,0.2S189.2,4.4,189.2,4.5 M188.7,4.1c-0.1,0.1-0.1,0.1-0.1,0.2
		c0,0.1,0,0.1,0.1,0.2c0.1,0.1,0.1,0.1,0.2,0.1c0.1,0,0.1,0,0.2-0.1c0.1-0.1,0.1-0.1,0.1-0.2c0-0.1,0-0.1-0.1-0.2
		C189.1,4,189,4,188.9,4C188.9,4,188.8,4,188.7,4.1z M188.9,4.1C189,4.1,189,4.1,188.9,4.1c0.1,0,0.2,0.1,0.2,0.1c0,0,0,0.1,0,0.1
		c0,0,0,0-0.1,0c0,0,0,0,0.1,0c0,0,0,0,0,0.1v0c0,0,0,0,0,0c0,0,0,0,0,0l0,0H189c0,0,0,0,0,0c0,0,0,0,0,0l0,0v0c0,0,0-0.1,0-0.1
		c0,0,0,0-0.1,0h0v0.1h-0.1V4.1H188.9z M189,4.1C189,4.1,189,4.1,189,4.1l-0.1,0v0.1h0.1c0,0,0,0,0.1,0C189,4.2,189,4.2,189,4.1
		C189,4.2,189,4.1,189,4.1z"/>
	<rect x="143.5" y="9.4" class="st0" width="41.6" height="0.4"/>
	<path class="st4" d="M14.2,14.6L12.4,13v1.5h-0.7v-3l0.1,0l1.7,1.6v-1.5h0.7L14.2,14.6L14.2,14.6z"/>
	<path class="st4" d="M15.3,14.5v-2.9h1.9v0.6H16v0.5h1.1v0.6H16v0.6h1.2v0.6H15.3z"/>
	<path class="st4" d="M19.6,12.2v2.3h-0.7v-2.3H18v-0.6h2.4v0.6H19.6z"/>
	<path class="st4" d="M24.1,14.6L24.1,14.6l-1-1.8l-0.9,1.8l-0.1,0l-1.1-3h0.8l0.5,1.5l0.8-1.6h0.1l0.8,1.6l0.5-1.5h0.8L24.1,14.6z"
		/>
	<path class="st4" d="M27.1,14.6c-0.9,0-1.5-0.7-1.5-1.5c0-0.9,0.6-1.5,1.5-1.5c0.9,0,1.5,0.7,1.5,1.5C28.6,13.9,28,14.6,27.1,14.6z
		 M27.1,12.2c-0.5,0-0.8,0.4-0.8,0.9c0,0.5,0.3,0.9,0.8,0.9c0.5,0,0.8-0.4,0.8-0.9C27.9,12.5,27.5,12.2,27.1,12.2z"/>
	<path class="st4" d="M30.9,14.5l-0.5-1c0,0-0.1,0-0.1,0c-0.1,0-0.2,0-0.3,0v1h-0.7v-2.9c0.2,0,0.5,0,0.9,0c0.9,0,1.3,0.4,1.3,1
		c0,0.3-0.2,0.7-0.5,0.8l0.7,1.1H30.9z M30.3,12.2c-0.1,0-0.2,0-0.3,0V13c0.1,0,0.1,0,0.2,0c0.3,0,0.5-0.2,0.5-0.5
		C30.7,12.3,30.6,12.2,30.3,12.2z"/>
	<path class="st4" d="M34.3,14.5l-1.1-1.4v1.4h-0.7v-2.9h0.7v1.3l1-1.3H35L33.8,13l1.3,1.5H34.3z"/>
	<g>
		<defs>
			<rect id="SVGID_5_" x="0" y="0" width="46.8" height="10.3"/>
		</defs>
		<clipPath id="SVGID_6_">
			<use xlink:href="#SVGID_5_"  style="overflow:visible;"/>
		</clipPath>
		<g class="st5">
			<path class="st2" d="M16.6,0.1c-2.4,0.4-4.1,1.7-4.1,2.3c0,0.8,1.2,1.4,2,2.3c0.4,0.5,0.5,0.8,0.5,1.2c0,0.2,0,0.4-0.1,0.5
				c-0.1,0.2-0.6,0.5-1.1,0.4c-0.8-0.1-1-1.3-0.8-1.9c0-0.1,0-0.3-0.1-0.3c-0.1-0.1-0.3-0.1-0.4,0.2c-0.2,0.6-0.4,1.9,0.5,2.5
				c0.3,0.2,0.6,0.3,1,0.3c1.4,0,2.2-1.1,2.6-2c0.4-1.1,0.6-2.1-0.5-3.1c-0.3-0.2-0.5-0.7-0.4-1c0.1-0.3,0.3-0.4,0.3-0.2
				c0,0.3,0.8,0.6,1-0.5C17.2,0.6,17,0,16.6,0.1"/>
		</g>
	</g>
	<g>
		<path class="st2" d="M22,4.9c-0.1,0.1,0,0-0.1,0.1c-0.1,0.1-0.4,0.4-0.8,0.5c-0.5,0.1-0.5-0.6-0.6-0.8c0-0.3,0.3-0.9,0.6-0.9
			c0.1,0,0.1,0,0.2,0.1c0,0,0.1,0.1,0,0.1c-0.2,0.4-0.1,0.7,0,0.7c0.1,0,0.1,0,0.1-0.1c0.1,0,0.4-0.3,0.4-0.6c0-0.3-0.2-0.9-0.5-1
			c-0.1,0-0.5,0.1-0.8,0.2c-0.5,0.3-0.8,0.9-0.8,0.9c-0.2,0.3-0.3,0.3-0.4,0.5c-0.1,0.1-0.4,0.5-0.7,0.5c-0.2,0-0.3-0.2-0.4-0.4
			c0-0.1-0.1-0.2-0.1-0.2c0,0,0.1,0,0.2,0c0.1,0,1-0.6,1-1.2c0-0.2-0.2-0.4-0.4-0.4c-0.1,0-0.5,0.1-0.7,0.2
			c-0.4,0.3-0.7,0.6-0.8,0.8c-0.4,0.5-0.5,1.5-0.1,2c0.2,0.2,0.5,0.4,0.8,0.5c0.7,0.1,1.1-0.8,1.4-1.1c0.1,0.6,0.1,0.8,0.4,1
			c0.2,0.2,0.5,0.2,0.9,0C21.4,6,21.9,5.6,22,5.4c0,0.5,0.4,0.9,0.9,1c0.9,0.1,1.5-1.2,1.6-1.9c0.1-0.5,0-0.7,0-0.8
			c0.1,0,0.4-0.1,0.5-0.1c0.1,0,0.2,0.6,0.1,0.9c-0.1,0.6-0.3,1.5,0.1,1.5c0.4,0,0.9-0.9,1.2-0.9c0.3,0,0.4,0.8,0.8,0.8
			c0.4,0,0.7-0.4,1-0.4c0,0.5,0.2,0.9,0.7,0.9c0.8,0,1.9-1.5,2.2-1.8c-0.1,0.7-0.1,1.6-0.2,1.8c0,0.2,0.1,0.5,0.2,0.5
			c0.3,0,0.9-0.4,1.1-0.8c0-0.3,0.1-0.8,0.4-1.4c0.3-0.7,0.6-1.5,0.6-1.8c0-0.3-0.3-1.6-0.7-1.6c-0.2,0-0.8,0.4-0.8,0.4
			c-0.1,0.2-0.1,0.4-0.2,0.7c-0.1,0.4-0.2,0.9-0.3,1.3c-0.1,0.3-0.3,0.6-0.4,0.8c-0.4,0.5-0.9,0.8-0.9,0.8c-0.1-0.1-0.1-0.4,0-0.7
			c0.1-0.2,0.2-0.3,0.3-0.3c0.2,0,0.3,0,0.4,0c0.1,0,0.2-0.2,0.2-0.3c0-0.1-0.3-0.1-0.6-0.1c-0.9,0.1-1.2,0.5-1.4,0.9
			c-0.4,0.6-0.9,0.5-1.1,0.1c-0.2-0.4-0.4-0.8-0.6-0.6c-0.1,0.1-0.4,0.2-0.5,0.3c-0.1,0.1-0.2,0.2-0.3,0.2c0-0.1,0-0.3,0.1-0.5
			c0.1-0.6,0.1-1.2-0.1-1.3c-0.1-0.1-0.6,0-0.9,0.2C25,3,24.2,3.3,23.8,3.3c-0.1,0-0.2-0.2-0.3-0.2C22.6,3.2,22,4.4,22,4.9
			 M18.3,4.2c0-0.1-0.1-0.2-0.1-0.4c0-0.1,0.1-0.2,0.1-0.2c0.1-0.1,0.2-0.1,0.2-0.1c0.1,0,0.1,0.1,0.2,0.1c0,0.1,0,0.3-0.1,0.3
			C18.6,4.1,18.5,4.2,18.3,4.2z M24.1,4.4c0,0.2-0.2,0.7-0.4,0.9c-0.1,0.1-0.3,0.1-0.4,0c-0.1-0.1-0.2-0.3-0.2-0.8
			c0-0.2,0.2-0.5,0.4-0.6c0,0,0.3,0,0.4,0C24.1,3.8,24.1,3.9,24.1,4.4z"/>
	</g>
	<g>
		<defs>
			<rect id="SVGID_7_" x="0" y="0" width="46.8" height="10.3"/>
		</defs>
		<clipPath id="SVGID_8_">
			<use xlink:href="#SVGID_7_"  style="overflow:visible;"/>
		</clipPath>
		<g class="st6">
			<path class="st2" d="M37.2,1.2c-0.7,0-3,1.4-3.1,3c-0.1,1.2,0.6,2.4,1.2,2.6c0.1,0,0.4,0.1,0.7,0c1-0.3,2.2-1.7,2.9-2.6
				c0,0,0.1,0,0,0.1c-0.1,0.6-0.2,1.1-0.2,1.4c0,0.4,0.3,0.5,0.5,0.6c0.3,0.1,0.9-0.9,1.1-1.3c0,0,0,0,0,0c0,0.8,0.1,1.2,0.3,1.3
				C40.7,6.3,41,6.4,41,6.4c0.5,0,1-0.8,1.3-1.4c0,0,0.1,0,0.1,0.1c0,0.9,0.1,1.1,0.3,1.2c0,0,0.2,0.1,0.3,0.1
				c0.3-0.1,0.7-0.4,1.1-0.9c-0.1,1-0.9,3.3-1,4.1c-0.1,0.3-0.1,0.6,0,0.6c0.2,0.2,0.9,0.2,1.4,0c0.5-0.2,0.7-0.5,0.7-0.6
				c0.1-0.4-0.4-2.4,0.3-4.8c0,0,0-0.1,0.1-0.1c0.1-0.1,0-0.3-0.1-0.6c-0.1-0.1-0.3-0.2-0.5-0.1c-0.2,0-0.3,0.1-0.4,0.4
				c-0.1,0.2-0.5,0.9-0.8,0.9c-0.2,0-0.2-0.2-0.2-0.4c0-0.3-0.1-0.8-0.1-0.9c0-0.1,0-0.2-0.3-0.2c-0.3,0-0.7,0.8-1.2,1.2
				C41.7,5.1,41.6,5,41.5,5c-0.1,0-0.1-0.5,0-0.9c0-0.3,0.3-1.5,0.4-1.8c0.6,0.1,1.4,0.1,2.2,0.2c0.7,0,1.4,0,1.9,0
				c0.3-0.2,0.8-0.9,0.9-1.2c0-0.2,0-0.3-0.2-0.3C45.7,0.8,45,1,44.1,1.2c-0.6,0.2-0.8,0.2-1,0.3c-0.2,0.1-1,0.2-1.2,0.2
				c0-0.1,0-0.2,0-0.3c-0.1-0.1-0.3-0.1-0.5,0.1c-0.1,0.1-0.1,0.2-0.1,0.3c-0.5,0.1-1,0-1.2-0.1c-0.1,0-0.1-0.1-0.1-0.2
				c0-0.1,0-0.4-0.1-0.4c-0.1-0.1,0-0.4-0.1-0.4c-0.1,0-0.4-0.2-0.8,0.5c-0.2,0.4-0.2,0.6-0.1,0.7C38.8,2,38.9,2,39,2
				c0.3,0,0.5-0.1,0.7-0.2c0.1-0.1,0.2,0,0.3,0c0.1,0.1,0.8,0.2,1.1,0.3c-0.2,0.5-0.5,1.4-0.6,1.8c-0.2,0.4-0.5,0.9-0.7,0.9
				c-0.1,0-0.2-0.1-0.2-0.2c0-0.1,0-0.7,0.1-1c0.1-0.4,0.2-0.7-0.2-0.7c-0.3,0-0.3,0-0.4,0.2c-0.7,0.8-1.7,1.9-2.5,2.1
				c-0.4,0.1-0.8-0.7-0.8-1.1c0-0.5,0.2-1.1,0.7-1.5c0.1,0,0.1,0,0.1,0c0,0,0.1,0,0.1,0c0,0.1,0.1,0.4,0.3,0.4
				c0.2,0,0.6-0.5,0.6-1.2C37.6,1.3,37.2,1.2,37.2,1.2"/>
		</g>
		<g class="st6">
			<path class="st2" d="M12,5c0-0.2-0.3-0.1-0.4,0c-0.1,0.1-0.3,0.2-0.3,0.4c0,0.1,0,0.3,0,0.4c0,0.1,0,0.2-0.2,0.2
				c-0.1,0-0.4-0.1-0.5-0.2c-0.3-0.3-0.3-0.4-0.4-0.5c0.2-0.2,0.7-0.5,0.7-0.9c0.1-0.5-0.7-0.5-1.1-0.2C8.8,4.6,8.7,5,8.8,5.4
				c-0.3,0.3-0.7,0.3-1,0.2C7,5.2,7.1,4.7,6.7,4.6c-0.5-0.1-0.8,0.3-1,0.3c0.2-1,0.7-2.4,1.6-4.1c0,0,0-0.1-0.1-0.1
				c-0.1,0-0.5-0.1-0.7,0.1C6.4,0.9,6.3,1.2,6.2,1.3C5.8,1.5,5.6,1.5,5,1.6c-0.3,0-0.6,0-0.7,0c0-0.2,0-0.6-0.1-0.8
				c0-0.1-0.1-0.2-0.3-0.2C3.6,0.7,2.9,1,2.8,1.5c-0.4,0-1.1-0.2-1.6-0.2C0.2,1.3,0,1.4,0,1.6C0,1.8,0,1.9,0,2c0,0.1,0,0.3,0.2,0.2
				C1.1,2,2.4,2.1,2.7,2C2.6,3,2.3,5.1,2.1,5.9C1.9,6.6,1.8,7,2.3,6.8c0.5-0.2,0.7-0.4,0.9-0.5c0.2-0.1,0.5-0.5,0.6-1
				C4,4.6,4.1,3.8,4.2,3.6c0-0.3,0.1-1.2,0.2-1.5c0.6,0,1.4-0.2,1.6-0.3c-1,1.9-1.6,4-1.6,4.4c0,0.2,0.1,0.3,0.4,0.2
				C5,6.3,5.3,6,5.5,5.8C5.7,5.6,6,5.5,6.2,5.6c0.3,0,0.4,0.1,0.5,0.3c0.2,0.4,0.5,0.5,1,0.4c0.6-0.1,0.9-0.4,1.2-0.6
				c0.3,0.6,0.7,0.9,1.5,0.9c0.5,0,1.1-0.4,1.4-0.7C11.9,5.7,12,5.2,12,5 M10,4.8C9.9,4.8,9.9,4.5,9.9,4.4c0-0.1,0.3-0.2,0.4-0.1
				c0.1,0.1,0.2,0.3,0,0.5C10.2,4.8,10.1,4.9,10,4.8z"/>
		</g>
	</g>
	<g>
		<path class="st2" d="M46.3,4.5c-0.1,0.1-0.1,0.1-0.2,0.1c-0.1,0-0.2,0-0.2-0.1c-0.1-0.1-0.1-0.1-0.1-0.2c0-0.1,0-0.2,0.1-0.2
			C45.9,4,46,3.9,46.1,3.9c0.1,0,0.2,0,0.2,0.1c0.1,0.1,0.1,0.1,0.1,0.2C46.4,4.3,46.4,4.4,46.3,4.5 M45.9,4.1
			c-0.1,0.1-0.1,0.1-0.1,0.2c0,0.1,0,0.1,0.1,0.2c0.1,0.1,0.1,0.1,0.2,0.1c0.1,0,0.1,0,0.2-0.1c0.1-0.1,0.1-0.1,0.1-0.2
			c0-0.1,0-0.1-0.1-0.2C46.2,4,46.2,4,46.1,4C46,4,45.9,4,45.9,4.1z M46.1,4.1C46.1,4.1,46.2,4.1,46.1,4.1c0.1,0,0.2,0.1,0.2,0.1
			c0,0,0,0.1,0,0.1c0,0,0,0-0.1,0c0,0,0,0,0.1,0c0,0,0,0,0,0.1v0c0,0,0,0,0,0c0,0,0,0,0,0l0,0h-0.1c0,0,0,0,0,0c0,0,0,0,0,0l0,0v0
			c0,0,0-0.1,0-0.1c0,0,0,0-0.1,0h0v0.1H46V4.1H46.1z M46.1,4.1C46.1,4.1,46.1,4.1,46.1,4.1l-0.1,0v0.1h0.1c0,0,0,0,0.1,0
			C46.2,4.2,46.2,4.2,46.1,4.1C46.2,4.2,46.2,4.1,46.1,4.1z"/>
	</g>
	<rect x="0" y="9.4" class="st4" width="41.4" height="0.4"/>
	<g>
		<path class="st7" d="M74.2,55.9v2.3h-0.7v-2.3h-0.9v-0.6h2.4v0.6H74.2z"/>
		<path class="st7" d="M77.4,58.2l-0.5-1c0,0-0.1,0-0.1,0c-0.1,0-0.2,0-0.3,0v1h-0.7v-2.9c0.2,0,0.5,0,0.9,0c0.9,0,1.3,0.4,1.3,1
			c0,0.3-0.2,0.7-0.5,0.8l0.7,1.1H77.4z M76.8,55.8c-0.1,0-0.2,0-0.3,0v0.8c0.1,0,0.1,0,0.2,0c0.3,0,0.5-0.2,0.5-0.5
			C77.3,56,77.1,55.8,76.8,55.8z"/>
		<path class="st7" d="M81,58.2l-0.2-0.5h-1l-0.2,0.5h-0.7l1.4-3h0.1l1.4,3H81z M80.2,56.4L80,57.1h0.6L80.2,56.4z"/>
		<path class="st7" d="M82.4,58.2v-2.9h0.7v2.9H82.4z"/>
		<path class="st7" d="M86.7,58.2l-1.8-1.6v1.5h-0.7v-3l0.1,0l1.7,1.6v-1.5h0.7L86.7,58.2L86.7,58.2z"/>
		<path class="st7" d="M87.8,58.2v-2.9h0.7v2.9H87.8z"/>
		<path class="st7" d="M92.1,58.2l-1.8-1.6v1.5h-0.7v-3l0.1,0l1.7,1.6v-1.5h0.7L92.1,58.2L92.1,58.2z"/>
		<path class="st7" d="M95.8,56.5v1.4c-0.3,0.2-0.7,0.3-1.1,0.3c-0.9,0-1.5-0.6-1.5-1.5c0-0.9,0.7-1.5,1.6-1.5c0.4,0,0.7,0.1,1,0.3
			L95.4,56c-0.2-0.1-0.4-0.2-0.7-0.2c-0.6,0-0.9,0.4-0.9,0.9c0,0.6,0.4,0.9,0.9,0.9c0.2,0,0.3,0,0.4-0.1v-0.4h-0.6v-0.6H95.8z"/>
		<path class="st7" d="M99.4,58.2c-1,0-1.6-0.6-1.6-1.5c0-0.9,0.6-1.5,1.6-1.5c0.3,0,0.7,0.1,0.9,0.3l-0.2,0.6
			c-0.2-0.1-0.5-0.2-0.7-0.2c-0.5,0-0.9,0.3-0.9,0.9c0,0.5,0.3,0.9,0.9,0.9c0.2,0,0.5-0.1,0.7-0.2l0.2,0.6
			C100.1,58.1,99.8,58.2,99.4,58.2z"/>
		<path class="st7" d="M101.3,58.2v-2.9h1.9v0.6h-1.2v0.5h1.1V57h-1.1v0.6h1.2v0.6H101.3z"/>
		<path class="st7" d="M106.6,58.2l-1.8-1.6v1.5h-0.7v-3l0.1,0l1.7,1.6v-1.5h0.7L106.6,58.2L106.6,58.2z"/>
		<path class="st7" d="M109.1,55.9v2.3h-0.7v-2.3h-0.9v-0.6h2.4v0.6H109.1z"/>
		<path class="st7" d="M114.1,58.2v-2.9h1.9v0.6h-1.2v0.5h1.1V57h-1.1v0.6h1.2v0.6H114.1z"/>
		<path class="st7" d="M112.5,58.2l-0.5-1c0,0-0.1,0-0.1,0c-0.1,0-0.2,0-0.3,0v1h-0.7v-2.9c0.2,0,0.5,0,0.9,0c0.9,0,1.3,0.4,1.3,1
			c0,0.3-0.2,0.7-0.5,0.8l0.7,1.1H112.5z M111.9,55.8c-0.1,0-0.2,0-0.3,0v0.8c0.1,0,0.1,0,0.2,0c0.3,0,0.5-0.2,0.5-0.5
			C112.3,56,112.1,55.8,111.9,55.8z"/>
	</g>
	<path class="st2" d="M117.8,48.1c-0.1,0.1-0.1,0.1-0.2,0.1c-0.1,0-0.2,0-0.2-0.1c-0.1-0.1-0.1-0.1-0.1-0.2c0-0.1,0-0.2,0.1-0.2
		c0.1-0.1,0.1-0.1,0.2-0.1c0.1,0,0.2,0,0.2,0.1c0.1,0.1,0.1,0.1,0.1,0.2C117.9,48,117.9,48.1,117.8,48.1 M117.4,47.7
		c-0.1,0.1-0.1,0.1-0.1,0.2c0,0.1,0,0.1,0.1,0.2c0.1,0.1,0.1,0.1,0.2,0.1c0.1,0,0.1,0,0.2-0.1c0.1-0.1,0.1-0.1,0.1-0.2
		c0-0.1,0-0.1-0.1-0.2c-0.1-0.1-0.1-0.1-0.2-0.1S117.4,47.6,117.4,47.7z M117.6,47.7C117.6,47.7,117.6,47.7,117.6,47.7
		c0.1,0,0.2,0.1,0.2,0.1c0,0,0,0.1,0,0.1c0,0,0,0-0.1,0c0,0,0,0,0.1,0c0,0,0,0,0,0.1v0c0,0,0,0,0,0c0,0,0,0,0,0l0,0h-0.1
		c0,0,0,0,0,0c0,0,0,0,0,0l0,0v0c0,0,0-0.1,0-0.1c0,0,0,0-0.1,0h0v0.1h-0.1v-0.4H117.6z M117.6,47.8
		C117.6,47.8,117.6,47.8,117.6,47.8l-0.1,0v0.1h0.1c0,0,0,0,0.1,0C117.6,47.9,117.7,47.8,117.6,47.8
		C117.7,47.8,117.6,47.8,117.6,47.8z"/>
	<g>
		<defs>
			<rect id="SVGID_9_" x="71.5" y="43.7" width="46.8" height="10.3"/>
		</defs>
		<clipPath id="SVGID_10_">
			<use xlink:href="#SVGID_9_"  style="overflow:visible;"/>
		</clipPath>
		<path class="st8" d="M88.1,43.7C85.7,44,84,45.4,84,46c0,0.8,1.2,1.4,2,2.3c0.4,0.5,0.5,0.8,0.5,1.2c0,0.2,0,0.4-0.1,0.5
			c-0.1,0.2-0.6,0.5-1.1,0.4c-0.8-0.1-1-1.3-0.8-1.9c0-0.1,0-0.3-0.1-0.3c-0.1-0.1-0.3-0.1-0.4,0.2c-0.2,0.6-0.4,1.9,0.5,2.5
			c0.3,0.2,0.6,0.3,1,0.3c1.4,0,2.2-1.1,2.6-2.1c0.4-1.1,0.6-2.1-0.5-3.1c-0.3-0.2-0.5-0.7-0.4-1c0.1-0.3,0.3-0.4,0.3-0.2
			c0,0.3,0.8,0.6,1-0.5C88.7,44.3,88.5,43.6,88.1,43.7"/>
	</g>
	<path class="st2" d="M93.5,48.5c-0.1,0.1,0,0-0.1,0.1c-0.1,0.1-0.4,0.4-0.8,0.5c-0.5,0.1-0.5-0.6-0.6-0.8c0-0.3,0.3-0.9,0.6-0.9
		c0.1,0,0.1,0,0.2,0.1c0,0,0.1,0.1,0,0.1c-0.2,0.4-0.1,0.7,0,0.7c0.1,0,0.1,0,0.1-0.1c0.1,0,0.4-0.3,0.4-0.6c0-0.3-0.2-0.9-0.5-1
		c-0.1,0-0.5,0.1-0.8,0.2c-0.5,0.3-0.8,0.9-0.8,0.9c-0.2,0.3-0.3,0.3-0.4,0.5c-0.1,0.1-0.4,0.5-0.7,0.5c-0.2,0-0.3-0.2-0.4-0.4
		c0-0.1-0.1-0.2-0.1-0.2c0,0,0.1,0,0.2,0c0.1,0,1-0.6,1-1.2c0-0.2-0.2-0.4-0.4-0.4c-0.1,0-0.5,0.1-0.7,0.2c-0.4,0.3-0.7,0.6-0.8,0.8
		c-0.4,0.5-0.5,1.5-0.1,2c0.2,0.2,0.5,0.4,0.8,0.5c0.7,0.1,1.1-0.8,1.4-1.1c0.1,0.6,0.1,0.8,0.4,1c0.2,0.2,0.5,0.2,0.9,0
		c0.4-0.2,0.9-0.7,1.1-0.9c0,0.5,0.4,0.9,0.9,1c0.9,0.1,1.5-1.2,1.6-1.9c0.1-0.5,0-0.7,0-0.8c0.1,0,0.4-0.1,0.5-0.1
		c0.1,0,0.2,0.6,0.1,0.9c-0.1,0.6-0.3,1.5,0.1,1.5c0.4,0,0.9-0.9,1.2-0.9c0.3,0,0.4,0.8,0.8,0.8c0.4,0,0.7-0.4,1-0.4
		c0,0.5,0.2,0.9,0.7,0.9c0.8,0,1.9-1.5,2.2-1.8c-0.1,0.7-0.1,1.6-0.2,1.8c0,0.2,0.1,0.5,0.2,0.5c0.3,0,0.9-0.4,1.1-0.8
		c0-0.3,0.1-0.8,0.4-1.4c0.3-0.7,0.6-1.5,0.6-1.8c0-0.3-0.3-1.6-0.7-1.6c-0.2,0-0.8,0.4-0.8,0.4c-0.1,0.2-0.1,0.4-0.2,0.7
		c-0.1,0.4-0.2,0.9-0.3,1.3c-0.1,0.3-0.3,0.6-0.4,0.8c-0.4,0.5-0.9,0.8-0.9,0.8c-0.1-0.1-0.1-0.4,0-0.7c0.1-0.2,0.2-0.3,0.3-0.3
		c0.2,0,0.3,0,0.4,0c0.1,0,0.2-0.2,0.2-0.3c0-0.1-0.3-0.1-0.6-0.1c-0.9,0.1-1.2,0.5-1.4,0.9c-0.4,0.6-0.9,0.5-1.1,0.1
		c-0.2-0.4-0.4-0.8-0.6-0.6c-0.1,0.1-0.4,0.2-0.5,0.3c-0.1,0.1-0.2,0.2-0.3,0.2c0-0.1,0-0.3,0.1-0.5c0.1-0.6,0.1-1.2-0.1-1.3
		c-0.1-0.1-0.6,0-0.9,0.2c-0.1,0.1-0.9,0.4-1.3,0.4c-0.1,0-0.2-0.2-0.3-0.2C94.1,46.8,93.5,48,93.5,48.5 M89.8,47.8
		c0-0.1-0.1-0.2-0.1-0.4c0-0.1,0.1-0.2,0.1-0.2c0.1-0.1,0.2-0.1,0.2-0.1c0.1,0,0.1,0.1,0.1,0.1c0,0.1,0,0.3-0.1,0.3
		C90.1,47.7,90,47.9,89.8,47.8z M95.6,48c0,0.2-0.2,0.7-0.4,0.9c-0.1,0.1-0.3,0.1-0.4,0c-0.1-0.1-0.2-0.3-0.2-0.8
		c0-0.2,0.2-0.5,0.4-0.6c0,0,0.3,0,0.4,0C95.6,47.5,95.6,47.6,95.6,48z"/>
	<g>
		<defs>
			<rect id="SVGID_11_" x="71.5" y="43.7" width="46.8" height="10.3"/>
		</defs>
		<clipPath id="SVGID_12_">
			<use xlink:href="#SVGID_11_"  style="overflow:visible;"/>
		</clipPath>
		<path class="st9" d="M108.7,44.9c-0.7,0-3,1.4-3.1,3c-0.1,1.2,0.6,2.4,1.2,2.6c0.1,0,0.4,0.1,0.7,0c1-0.3,2.2-1.7,2.9-2.6
			c0,0,0.1,0,0,0.1c-0.1,0.6-0.2,1.1-0.2,1.4c0,0.4,0.3,0.5,0.5,0.6c0.3,0.1,0.9-0.9,1.1-1.3c0,0,0,0,0,0c0,0.8,0.1,1.2,0.3,1.3
			c0.1,0.1,0.3,0.2,0.4,0.2c0.5,0,1-0.8,1.3-1.4c0,0,0.1,0,0.1,0.1c0,0.9,0.1,1.1,0.3,1.2c0,0,0.2,0.1,0.3,0.1
			c0.3-0.1,0.7-0.4,1.1-0.9c-0.1,1-0.9,3.3-1,4.1c-0.1,0.3-0.1,0.6,0,0.6c0.2,0.2,0.9,0.2,1.4,0c0.5-0.2,0.7-0.5,0.7-0.6
			c0.1-0.4-0.4-2.4,0.3-4.8c0,0,0-0.1,0.1-0.1c0.1-0.1,0-0.3-0.1-0.6c-0.1-0.1-0.3-0.2-0.5-0.1c-0.2,0-0.3,0.1-0.4,0.4
			c-0.1,0.2-0.5,0.9-0.8,0.9c-0.2,0-0.2-0.2-0.2-0.4c0-0.3-0.1-0.8-0.1-0.9c0-0.1,0-0.2-0.3-0.2c-0.3,0-0.7,0.8-1.2,1.2
			c-0.2,0.2-0.3,0.1-0.4,0.1c-0.1,0-0.1-0.5,0-0.9c0-0.3,0.3-1.5,0.4-1.8c0.6,0.1,1.4,0.1,2.2,0.2c0.7,0,1.4,0,1.9,0
			c0.3-0.2,0.8-0.9,0.9-1.2c0-0.2,0-0.3-0.2-0.3c-0.8-0.1-1.6,0.1-2.5,0.3c-0.6,0.2-0.8,0.2-1,0.3c-0.2,0.1-1,0.2-1.2,0.2
			c0-0.1,0-0.2,0-0.3c-0.1-0.1-0.3-0.1-0.5,0.1c-0.1,0.1-0.1,0.2-0.1,0.3c-0.5,0.1-1,0-1.2-0.1c-0.1,0-0.1-0.1-0.1-0.2
			c0-0.1,0-0.4-0.1-0.4c-0.1-0.1,0-0.4-0.1-0.4c-0.1,0-0.4-0.2-0.8,0.5c-0.2,0.4-0.2,0.6-0.1,0.7c0.1,0.1,0.2,0.1,0.3,0.1
			c0.3,0,0.5-0.1,0.7-0.2c0.1-0.1,0.2,0,0.3,0c0.1,0.1,0.8,0.2,1.1,0.2c-0.2,0.5-0.5,1.4-0.6,1.8c-0.2,0.4-0.5,0.9-0.7,0.9
			c-0.1,0-0.2-0.1-0.2-0.2c0-0.1,0-0.7,0.1-1c0.1-0.4,0.2-0.7-0.2-0.7c-0.3,0-0.3,0-0.4,0.2c-0.7,0.8-1.7,1.9-2.5,2.1
			c-0.4,0.1-0.8-0.7-0.8-1.1c0-0.5,0.2-1.1,0.7-1.5c0.1,0,0.1,0,0.1,0c0,0,0.1,0,0.1,0c0,0.1,0.1,0.4,0.3,0.4c0.2,0,0.6-0.5,0.6-1.2
			C109,44.9,108.7,44.9,108.7,44.9"/>
		<path class="st9" d="M83.5,48.6c0-0.2-0.3-0.1-0.4,0c-0.1,0.1-0.3,0.2-0.3,0.4c0,0.1,0,0.3,0,0.4c0,0.1,0,0.2-0.2,0.2
			c-0.1,0-0.4-0.1-0.5-0.2c-0.3-0.3-0.3-0.4-0.4-0.5c0.2-0.2,0.7-0.5,0.7-0.9c0.1-0.5-0.7-0.5-1.1-0.2c-0.9,0.5-1,0.9-0.9,1.3
			c-0.3,0.3-0.7,0.3-1,0.2c-0.7-0.3-0.6-0.9-1.1-1c-0.5-0.1-0.8,0.3-1,0.3c0.2-1,0.7-2.4,1.6-4.1c0,0,0-0.1-0.1-0.1
			c-0.1,0-0.5-0.1-0.7,0.1c-0.2,0.1-0.3,0.4-0.4,0.6c-0.4,0.2-0.6,0.2-1.2,0.3c-0.3,0-0.6,0-0.7,0c0-0.2,0-0.6-0.1-0.8
			c0-0.1-0.1-0.2-0.3-0.2c-0.4,0.1-1.1,0.3-1.2,0.8c-0.4,0-1.1-0.2-1.6-0.2c-1,0.1-1.1,0.1-1.2,0.4c0,0.1,0,0.3,0,0.3
			c0,0.1,0,0.3,0.2,0.2c0.9-0.2,2.1-0.1,2.4-0.2c-0.1,0.9-0.3,3-0.6,3.9c-0.2,0.6-0.3,1.1,0.2,0.9c0.5-0.2,0.7-0.4,0.9-0.5
			c0.2-0.1,0.5-0.5,0.6-1c0.1-0.7,0.3-1.5,0.3-1.7c0-0.3,0.1-1.2,0.2-1.5c0.6,0,1.4-0.2,1.6-0.3c-1,1.9-1.6,4-1.6,4.4
			c0,0.2,0.1,0.3,0.4,0.2c0.2,0,0.6-0.3,0.8-0.5c0.2-0.2,0.4-0.3,0.7-0.3c0.3,0,0.4,0.1,0.5,0.3c0.2,0.4,0.5,0.5,1,0.4
			c0.6-0.1,0.9-0.4,1.2-0.6c0.3,0.6,0.7,0.9,1.5,0.9c0.5,0,1.1-0.4,1.4-0.7C83.4,49.3,83.5,48.8,83.5,48.6 M81.5,48.5
			c-0.1-0.1-0.1-0.3-0.1-0.5c0-0.1,0.3-0.2,0.4-0.1c0.1,0.1,0.2,0.3,0,0.5C81.7,48.5,81.6,48.5,81.5,48.5z"/>
	</g>
	<rect x="71.5" y="53" class="st7" width="41.7" height="0.4"/>
	<g>
		<defs>
			<rect id="SVGID_13_" x="71.6" y="0" width="46.8" height="10.3"/>
		</defs>
		<clipPath id="SVGID_14_">
			<use xlink:href="#SVGID_13_"  style="overflow:visible;"/>
		</clipPath>
		<g class="st10">
			<path class="st2" d="M88.2,0c-2.4,0.4-4.1,1.7-4.1,2.3c0,0.8,1.2,1.4,2,2.3c0.4,0.5,0.5,0.8,0.5,1.2c0,0.2,0,0.4-0.1,0.5
				c-0.1,0.2-0.6,0.5-1.1,0.4c-0.8-0.1-1-1.3-0.8-1.9c0-0.1,0-0.3-0.1-0.3c-0.1-0.1-0.3-0.1-0.4,0.2c-0.2,0.6-0.4,1.9,0.5,2.5
				c0.3,0.2,0.6,0.3,1,0.3c1.4,0,2.2-1.1,2.6-2c0.4-1.1,0.6-2.1-0.5-3.1c-0.3-0.2-0.5-0.7-0.4-1c0.1-0.3,0.3-0.4,0.3-0.2
				c0,0.3,0.8,0.6,1-0.5C88.8,0.6,88.6,0,88.2,0"/>
		</g>
	</g>
	<g>
		<path class="st2" d="M93.6,4.9c-0.1,0.1,0,0-0.1,0.1c-0.1,0.1-0.4,0.4-0.8,0.5c-0.5,0.1-0.5-0.6-0.6-0.8c0-0.3,0.3-0.9,0.6-0.9
			c0.1,0,0.1,0,0.2,0.1c0,0,0.1,0.1,0,0.1c-0.2,0.4-0.1,0.7,0,0.7c0.1,0,0.1,0,0.1-0.1c0.1,0,0.4-0.3,0.4-0.6c0-0.3-0.2-0.9-0.5-1
			c-0.1,0-0.5,0.1-0.8,0.2c-0.5,0.3-0.8,0.9-0.8,0.9c-0.2,0.3-0.3,0.3-0.4,0.5c-0.1,0.1-0.4,0.5-0.7,0.5c-0.2,0-0.3-0.2-0.4-0.4
			C90,4.7,90,4.6,90,4.6c0,0,0.1,0,0.2,0c0.1,0,1-0.6,1-1.2c0-0.2-0.2-0.4-0.4-0.4c-0.1,0-0.5,0.1-0.7,0.2c-0.4,0.3-0.7,0.6-0.8,0.8
			c-0.4,0.5-0.5,1.5-0.1,2c0.2,0.2,0.5,0.4,0.8,0.5c0.7,0.1,1.1-0.8,1.4-1.1c0.1,0.6,0.1,0.8,0.4,1c0.2,0.2,0.5,0.2,0.9,0
			C93,6,93.5,5.5,93.6,5.3c0,0.5,0.4,0.9,0.9,1c0.9,0.1,1.5-1.2,1.6-1.9c0.1-0.5,0-0.7,0-0.8c0.1,0,0.4-0.1,0.5-0.1
			c0.1,0,0.2,0.6,0.1,0.9c-0.1,0.6-0.3,1.5,0.1,1.5c0.4,0,0.9-0.9,1.2-0.9c0.3,0,0.4,0.8,0.8,0.8c0.4,0,0.7-0.4,1-0.4
			c0,0.5,0.2,0.9,0.7,0.9c0.8,0,1.9-1.5,2.2-1.8c-0.1,0.7-0.1,1.6-0.2,1.8c0,0.2,0.1,0.5,0.2,0.5c0.3,0,0.9-0.4,1.1-0.8
			c0-0.3,0.1-0.8,0.4-1.4c0.3-0.7,0.6-1.5,0.6-1.8c0-0.3-0.3-1.6-0.7-1.6c-0.2,0-0.8,0.4-0.8,0.4c-0.1,0.2-0.1,0.4-0.2,0.7
			c-0.1,0.4-0.2,0.9-0.3,1.3c-0.1,0.3-0.3,0.6-0.4,0.8c-0.4,0.5-0.9,0.8-0.9,0.8c-0.1-0.1-0.1-0.4,0-0.7c0.1-0.2,0.2-0.3,0.3-0.3
			c0.2,0,0.3,0,0.4,0c0.1,0,0.2-0.2,0.2-0.3c0-0.1-0.3-0.1-0.6-0.1c-0.9,0.1-1.2,0.5-1.4,0.9c-0.4,0.6-0.9,0.5-1.1,0.1
			c-0.2-0.4-0.4-0.8-0.6-0.6c-0.1,0.1-0.4,0.2-0.5,0.3c-0.1,0.1-0.2,0.2-0.3,0.2c0-0.1,0-0.3,0.1-0.5c0.1-0.6,0.1-1.2-0.1-1.3
			c-0.1-0.1-0.6,0-0.9,0.2c-0.1,0.1-0.9,0.4-1.3,0.4c-0.1,0-0.2-0.2-0.3-0.2C94.2,3.1,93.6,4.3,93.6,4.9 M89.9,4.2
			c0-0.1-0.1-0.2-0.1-0.4c0-0.1,0.1-0.2,0.1-0.2c0.1-0.1,0.2-0.1,0.2-0.1c0.1,0,0.1,0.1,0.1,0.1c0,0.1,0,0.3-0.1,0.3
			C90.2,4,90.1,4.2,89.9,4.2z M95.7,4.3c0,0.2-0.2,0.7-0.4,0.9c-0.1,0.1-0.3,0.1-0.4,0c-0.1-0.1-0.2-0.3-0.2-0.8
			c0-0.2,0.2-0.5,0.4-0.6c0,0,0.3,0,0.4,0C95.7,3.8,95.7,3.9,95.7,4.3z"/>
	</g>
	<g>
		<defs>
			<rect id="SVGID_15_" x="71.6" y="0" width="46.8" height="10.3"/>
		</defs>
		<clipPath id="SVGID_16_">
			<use xlink:href="#SVGID_15_"  style="overflow:visible;"/>
		</clipPath>
		<g class="st11">
			<path class="st2" d="M108.8,1.2c-0.7,0-3,1.4-3.1,3c-0.1,1.2,0.6,2.4,1.2,2.6c0.1,0,0.4,0.1,0.7,0c1-0.3,2.2-1.7,2.9-2.6
				c0,0,0.1,0,0,0.1c-0.1,0.6-0.2,1.1-0.2,1.4c0,0.4,0.3,0.5,0.5,0.6c0.3,0.1,0.9-0.9,1.1-1.3c0,0,0,0,0,0c0,0.8,0.1,1.2,0.3,1.3
				c0.1,0.1,0.3,0.2,0.4,0.2c0.5,0,1-0.8,1.3-1.4c0,0,0.1,0,0.1,0.1c0,0.9,0.1,1.1,0.3,1.2c0,0,0.2,0.1,0.3,0.1
				c0.3-0.1,0.7-0.4,1.1-0.9c-0.1,1-0.9,3.3-1,4.1c-0.1,0.3-0.1,0.6,0,0.6c0.2,0.2,0.9,0.2,1.4,0c0.5-0.2,0.7-0.5,0.7-0.6
				c0.1-0.4-0.4-2.4,0.3-4.8c0,0,0-0.1,0.1-0.1c0.1-0.1,0-0.3-0.1-0.6c-0.1-0.1-0.3-0.2-0.5-0.1c-0.2,0-0.3,0.1-0.4,0.4
				c-0.1,0.2-0.5,0.9-0.8,0.9c-0.2,0-0.2-0.2-0.2-0.4c0-0.3-0.1-0.8-0.1-0.9c0-0.1,0-0.2-0.3-0.2c-0.3,0-0.7,0.8-1.2,1.2
				c-0.2,0.2-0.3,0.1-0.4,0.1c-0.1,0-0.1-0.5,0-0.9c0-0.3,0.3-1.5,0.4-1.8c0.6,0.1,1.4,0.1,2.2,0.2c0.7,0,1.4,0,1.9,0
				c0.3-0.2,0.8-0.9,0.9-1.2c0-0.2,0-0.3-0.2-0.3c-0.8-0.1-1.6,0.1-2.5,0.3c-0.6,0.2-0.8,0.2-1,0.3c-0.2,0.1-1,0.2-1.2,0.2
				c0-0.1,0-0.2,0-0.3c-0.1-0.1-0.3-0.1-0.5,0.1c-0.1,0.1-0.1,0.2-0.1,0.3c-0.5,0.1-1,0-1.2-0.1c-0.1,0-0.1-0.1-0.1-0.2
				c0-0.1,0-0.4-0.1-0.4c-0.1-0.1,0-0.4-0.1-0.4c-0.1,0-0.4-0.2-0.8,0.5c-0.2,0.4-0.2,0.6-0.1,0.7c0.1,0.1,0.2,0.1,0.3,0.1
				c0.3,0,0.5-0.1,0.7-0.2c0.1-0.1,0.2,0,0.3,0c0.1,0.1,0.8,0.2,1.1,0.3c-0.2,0.5-0.5,1.4-0.6,1.8c-0.2,0.4-0.5,0.9-0.7,0.9
				c-0.1,0-0.2-0.1-0.2-0.2c0-0.1,0-0.7,0.1-1c0.1-0.4,0.2-0.7-0.2-0.7c-0.3,0-0.3,0-0.4,0.2c-0.7,0.8-1.7,1.9-2.5,2.1
				c-0.4,0.1-0.8-0.7-0.8-1.1c0-0.5,0.2-1.1,0.7-1.5c0.1,0,0.1,0,0.1,0c0,0,0.1,0,0.1,0c0,0.1,0.1,0.4,0.3,0.4
				c0.2,0,0.6-0.5,0.6-1.2C109.2,1.2,108.8,1.2,108.8,1.2"/>
		</g>
		<g class="st11">
			<path class="st2" d="M83.6,4.9c0-0.2-0.3-0.1-0.4,0C83,5,82.8,5.1,82.8,5.3c0,0.1,0,0.3,0,0.4c0,0.1,0,0.2-0.2,0.2
				c-0.1,0-0.4-0.1-0.5-0.2c-0.3-0.3-0.3-0.4-0.4-0.5C82,5,82.4,4.7,82.4,4.3c0.1-0.5-0.7-0.5-1.1-0.2c-0.9,0.5-1,0.9-0.9,1.3
				c-0.3,0.3-0.7,0.3-1,0.2c-0.7-0.3-0.6-0.9-1.1-1c-0.5-0.1-0.8,0.3-1,0.3c0.2-1,0.7-2.4,1.6-4.1c0,0,0-0.1-0.1-0.1
				c-0.1,0-0.5-0.1-0.7,0.1c-0.2,0.1-0.3,0.4-0.4,0.6c-0.4,0.2-0.6,0.2-1.2,0.3c-0.3,0-0.6,0-0.7,0c0-0.2,0-0.6-0.1-0.8
				c0-0.1-0.1-0.2-0.3-0.2c-0.4,0.1-1.1,0.3-1.2,0.8c-0.4,0-1.1-0.2-1.6-0.2c-1,0.1-1.1,0.1-1.2,0.4c0,0.1,0,0.3,0,0.3
				c0,0.1,0,0.3,0.2,0.2C72.7,2,74,2,74.3,2c-0.1,0.9-0.3,3-0.6,3.9c-0.2,0.6-0.3,1.1,0.2,0.9c0.5-0.2,0.7-0.4,0.9-0.5
				c0.2-0.1,0.5-0.5,0.6-1c0.1-0.7,0.3-1.5,0.3-1.7c0-0.3,0.1-1.2,0.2-1.5c0.6,0,1.4-0.2,1.6-0.3c-1,1.9-1.6,4-1.6,4.4
				c0,0.2,0.1,0.3,0.4,0.2c0.2,0,0.6-0.3,0.8-0.5c0.2-0.2,0.4-0.3,0.7-0.3c0.3,0,0.4,0.1,0.5,0.3c0.2,0.4,0.5,0.5,1,0.4
				c0.6-0.1,0.9-0.4,1.2-0.6c0.3,0.6,0.7,0.9,1.5,0.9c0.5,0,1.1-0.4,1.4-0.7C83.5,5.6,83.6,5.1,83.6,4.9 M81.6,4.8
				c-0.1-0.1-0.1-0.3-0.1-0.5c0-0.1,0.3-0.2,0.4-0.1c0.1,0.1,0.2,0.3,0,0.5C81.8,4.8,81.7,4.8,81.6,4.8z"/>
		</g>
	</g>
	<g>
		<path class="st2" d="M117.9,4.4c-0.1,0.1-0.1,0.1-0.2,0.1c-0.1,0-0.2,0-0.2-0.1c-0.1-0.1-0.1-0.1-0.1-0.2c0-0.1,0-0.2,0.1-0.2
			c0.1-0.1,0.1-0.1,0.2-0.1c0.1,0,0.2,0,0.2,0.1C118,4,118,4.1,118,4.2C118,4.3,118,4.4,117.9,4.4 M117.5,4
			c-0.1,0.1-0.1,0.1-0.1,0.2c0,0.1,0,0.1,0.1,0.2c0.1,0.1,0.1,0.1,0.2,0.1c0.1,0,0.1,0,0.2-0.1c0.1-0.1,0.1-0.1,0.1-0.2
			c0-0.1,0-0.1-0.1-0.2c-0.1-0.1-0.1-0.1-0.2-0.1C117.6,3.9,117.5,4,117.5,4z M117.7,4C117.7,4,117.8,4,117.7,4
			c0.1,0,0.2,0.1,0.2,0.1c0,0,0,0.1,0,0.1c0,0,0,0-0.1,0c0,0,0,0,0.1,0c0,0,0,0,0,0.1v0c0,0,0,0,0,0c0,0,0,0,0,0l0,0h-0.1
			c0,0,0,0,0,0c0,0,0,0,0,0l0,0v0c0,0,0-0.1,0-0.1c0,0,0,0-0.1,0h0v0.1h-0.1V4H117.7z M117.7,4.1C117.7,4.1,117.7,4.1,117.7,4.1
			l-0.1,0v0.1h0.1c0,0,0,0,0.1,0C117.8,4.2,117.8,4.2,117.7,4.1C117.8,4.1,117.8,4.1,117.7,4.1z"/>
	</g>
	<rect x="71.6" y="9.3" class="st12" width="41.4" height="0.4"/>
	<path class="st12" d="M80.9,12.2v2.3h-0.7v-2.3h-0.9v-0.6h2.5v0.6H80.9z"/>
	<path class="st12" d="M84.4,14.5v-1.2h-1.1v1.2h-0.7v-3h0.7v1.2h1.1v-1.2h0.7v3H84.4z"/>
	<path class="st12" d="M86.1,14.5v-3h1.9v0.6h-1.2v0.5h1.1v0.6h-1.1v0.6h1.2v0.6H86.1z"/>
	<path class="st12" d="M90.8,14.5l-0.2-0.5h-1l-0.2,0.5h-0.7l1.4-3h0.1l1.4,3H90.8z M90,12.7l-0.3,0.7h0.6L90,12.7z"/>
	<path class="st12" d="M93.2,12.2v2.3h-0.7v-2.3h-0.9v-0.6h2.5v0.6H93.2z"/>
	<path class="st12" d="M96.4,14.5l-0.5-1c0,0-0.1,0-0.1,0c-0.1,0-0.2,0-0.3,0v1h-0.7v-2.9c0.2,0,0.5,0,0.9,0c0.9,0,1.3,0.4,1.3,1
		c0,0.4-0.2,0.7-0.5,0.9l0.7,1.1H96.4z M95.8,12.1c-0.1,0-0.2,0-0.3,0V13c0.1,0,0.1,0,0.2,0c0.3,0,0.5-0.2,0.5-0.5
		C96.2,12.3,96.1,12.1,95.8,12.1z"/>
	<path class="st12" d="M97.9,14.5v-3h0.7v3H97.9z"/>
	<path class="st12" d="M101.1,14.5c-1,0-1.6-0.6-1.6-1.5c0-0.9,0.7-1.5,1.6-1.5c0.3,0,0.7,0.1,0.9,0.3l-0.2,0.6
		c-0.2-0.1-0.5-0.2-0.7-0.2c-0.6,0-0.9,0.3-0.9,0.9c0,0.5,0.3,0.9,0.9,0.9c0.2,0,0.5-0.1,0.7-0.2l0.2,0.6
		C101.8,14.4,101.4,14.5,101.1,14.5z"/>
	<path class="st12" d="M104.7,14.5l-0.2-0.5h-1l-0.2,0.5h-0.7l1.4-3h0.1l1.4,3H104.7z M104,12.7l-0.3,0.7h0.6L104,12.7z"/>
	<path class="st12" d="M106.1,14.5v-3h0.7v2.3h1.2v0.6H106.1z"/>
	<path class="st12" d="M109.6,14.5c-0.3,0-0.7-0.1-1-0.3l0.2-0.6c0.2,0.2,0.5,0.3,0.8,0.3c0.2,0,0.3-0.1,0.3-0.3
		c0-0.2-0.1-0.3-0.5-0.4c-0.5-0.2-0.7-0.5-0.7-0.9c0-0.4,0.4-0.8,1-0.8c0.3,0,0.7,0.1,0.8,0.2l-0.2,0.6c-0.2-0.1-0.4-0.2-0.7-0.2
		c-0.2,0-0.4,0.1-0.4,0.2c0,0.2,0.1,0.3,0.5,0.4c0.6,0.2,0.7,0.5,0.7,0.9C110.7,14.1,110.3,14.5,109.6,14.5z"/>
	<g>
		<defs>
			<rect id="SVGID_17_" x="0" y="43.7" width="46.8" height="10.3"/>
		</defs>
		<clipPath id="SVGID_18_">
			<use xlink:href="#SVGID_17_"  style="overflow:visible;"/>
		</clipPath>
		<path class="st13" d="M16.6,43.7c-2.4,0.4-4.1,1.7-4.1,2.3c0,0.8,1.2,1.4,2,2.3c0.4,0.5,0.5,0.8,0.5,1.2c0,0.2,0,0.4-0.1,0.5
			c-0.1,0.2-0.6,0.5-1.1,0.4c-0.8-0.1-1-1.3-0.8-1.9c0-0.1,0-0.3-0.1-0.3c-0.1-0.1-0.3-0.1-0.4,0.2c-0.2,0.6-0.4,1.9,0.5,2.5
			c0.3,0.2,0.6,0.3,1,0.3c1.4,0,2.2-1.1,2.6-2c0.4-1.1,0.6-2.1-0.5-3.1c-0.3-0.2-0.5-0.7-0.4-1c0.1-0.3,0.3-0.4,0.3-0.2
			c0,0.3,0.8,0.6,1-0.5C17.2,44.3,17,43.6,16.6,43.7"/>
	</g>
	<path class="st2" d="M22,48.5c-0.1,0.1,0,0-0.1,0.1c-0.1,0.1-0.4,0.4-0.8,0.5c-0.5,0.1-0.5-0.6-0.6-0.8c0-0.3,0.3-0.9,0.6-0.9
		c0.1,0,0.1,0,0.2,0.1c0,0,0.1,0.1,0,0.1c-0.2,0.4-0.1,0.7,0,0.7c0.1,0,0.1,0,0.1-0.1c0.1,0,0.4-0.3,0.4-0.6c0-0.3-0.2-0.9-0.5-1
		c-0.1,0-0.5,0.1-0.8,0.2c-0.5,0.3-0.8,0.9-0.8,0.9c-0.2,0.3-0.3,0.3-0.4,0.5c-0.1,0.1-0.4,0.5-0.7,0.5c-0.2,0-0.3-0.2-0.4-0.4
		c0-0.1-0.1-0.2-0.1-0.2c0,0,0.1,0,0.2,0c0.1,0,1-0.6,1-1.2c0-0.2-0.2-0.4-0.4-0.4c-0.1,0-0.5,0.1-0.7,0.2c-0.4,0.3-0.7,0.6-0.8,0.8
		c-0.4,0.5-0.5,1.5-0.1,2c0.2,0.2,0.5,0.4,0.8,0.5c0.7,0.1,1.1-0.8,1.4-1.1c0.1,0.6,0.1,0.8,0.4,1c0.2,0.2,0.5,0.2,0.9,0
		c0.4-0.2,0.9-0.7,1.1-0.9c0,0.5,0.4,0.9,0.9,1c0.9,0.1,1.5-1.2,1.6-1.9c0.1-0.5,0-0.7,0-0.8c0.1,0,0.4-0.1,0.5-0.1
		c0.1,0,0.2,0.6,0.1,0.9c-0.1,0.6-0.3,1.5,0.1,1.5c0.4,0,0.9-0.9,1.2-0.9c0.3,0,0.4,0.8,0.8,0.8c0.4,0,0.7-0.4,1-0.4
		c0,0.5,0.2,0.9,0.7,0.9c0.8,0,1.9-1.5,2.2-1.8c-0.1,0.7-0.1,1.6-0.2,1.8c0,0.2,0.1,0.5,0.2,0.5c0.3,0,0.9-0.4,1.1-0.8
		c0-0.3,0.1-0.8,0.4-1.4c0.3-0.7,0.6-1.5,0.6-1.8c0-0.3-0.3-1.6-0.7-1.6c-0.2,0-0.8,0.4-0.8,0.4c-0.1,0.2-0.1,0.4-0.2,0.7
		c-0.1,0.4-0.2,0.9-0.3,1.3c-0.1,0.3-0.3,0.6-0.4,0.8c-0.4,0.5-0.9,0.8-0.9,0.8c-0.1-0.1-0.1-0.4,0-0.7c0.1-0.2,0.2-0.3,0.3-0.3
		c0.2,0,0.3,0,0.4,0c0.1,0,0.2-0.2,0.2-0.3c0-0.1-0.3-0.1-0.6-0.1c-0.9,0.1-1.2,0.5-1.4,0.9c-0.4,0.6-0.9,0.5-1.1,0.1
		c-0.2-0.4-0.4-0.8-0.6-0.6c-0.1,0.1-0.4,0.2-0.5,0.3c-0.1,0.1-0.2,0.2-0.3,0.2c0-0.1,0-0.3,0.1-0.5c0.1-0.6,0.1-1.2-0.1-1.3
		c-0.1-0.1-0.6,0-0.9,0.2C25,46.6,24.2,47,23.8,47c-0.1,0-0.2-0.2-0.3-0.2C22.6,46.8,22,48,22,48.5 M18.3,47.8
		c0-0.1-0.1-0.2-0.1-0.4c0-0.1,0.1-0.2,0.1-0.2c0.1-0.1,0.2-0.1,0.2-0.1c0.1,0,0.1,0.1,0.1,0.1c0,0.1,0,0.3-0.1,0.3
		C18.6,47.7,18.5,47.9,18.3,47.8z M24.1,48c0,0.2-0.2,0.7-0.4,0.9c-0.1,0.1-0.3,0.1-0.4,0c-0.1-0.1-0.2-0.3-0.2-0.8
		c0-0.2,0.2-0.5,0.4-0.6c0,0,0.3,0,0.4,0C24.1,47.5,24.1,47.6,24.1,48z"/>
	<g>
		<defs>
			<rect id="SVGID_19_" x="0" y="43.7" width="46.8" height="10.3"/>
		</defs>
		<clipPath id="SVGID_20_">
			<use xlink:href="#SVGID_19_"  style="overflow:visible;"/>
		</clipPath>
		<path class="st14" d="M37.2,44.9c-0.7,0-3,1.4-3.1,3c-0.1,1.2,0.6,2.4,1.2,2.6c0.1,0,0.4,0.1,0.7,0c1-0.3,2.2-1.7,2.9-2.6
			c0,0,0.1,0,0,0.1c-0.1,0.6-0.2,1.1-0.2,1.4c0,0.4,0.3,0.5,0.5,0.6c0.3,0.1,0.9-0.9,1.1-1.3c0,0,0,0,0,0c0,0.8,0.1,1.2,0.3,1.3
			c0.1,0.1,0.3,0.2,0.4,0.2c0.5,0,1-0.8,1.3-1.4c0,0,0.1,0,0.1,0.1c0,0.9,0.1,1.1,0.3,1.2c0,0,0.2,0.1,0.3,0.1
			c0.3-0.1,0.7-0.4,1.1-0.9c-0.1,1-0.9,3.3-1,4.1c-0.1,0.3-0.1,0.6,0,0.6c0.2,0.2,0.9,0.2,1.4,0c0.5-0.2,0.7-0.5,0.7-0.6
			c0.1-0.4-0.4-2.4,0.3-4.8c0,0,0-0.1,0.1-0.1c0.1-0.1,0-0.3-0.1-0.6c-0.1-0.1-0.3-0.2-0.5-0.1c-0.2,0-0.3,0.1-0.4,0.4
			c-0.1,0.2-0.5,0.9-0.8,0.9c-0.2,0-0.2-0.2-0.2-0.4c0-0.3-0.1-0.8-0.1-0.9c0-0.1,0-0.2-0.3-0.2c-0.3,0-0.7,0.8-1.2,1.2
			c-0.2,0.2-0.3,0.1-0.4,0.1c-0.1,0-0.1-0.5,0-0.9c0-0.3,0.3-1.5,0.4-1.8c0.6,0.1,1.4,0.1,2.2,0.2c0.7,0,1.4,0,1.9,0
			c0.3-0.2,0.8-0.9,0.9-1.2c0-0.2,0-0.3-0.2-0.3c-0.8-0.1-1.6,0.1-2.5,0.3c-0.6,0.2-0.8,0.2-1,0.3c-0.2,0.1-1,0.2-1.2,0.2
			c0-0.1,0-0.2,0-0.3c-0.1-0.1-0.3-0.1-0.5,0.1c-0.1,0.1-0.1,0.2-0.1,0.3c-0.5,0.1-1,0-1.2-0.1c-0.1,0-0.1-0.1-0.1-0.2
			c0-0.1,0-0.4-0.1-0.4c-0.1-0.1,0-0.4-0.1-0.4c-0.1,0-0.4-0.2-0.8,0.5c-0.2,0.4-0.2,0.6-0.1,0.7c0.1,0.1,0.2,0.1,0.3,0.1
			c0.3,0,0.5-0.1,0.7-0.2c0.1-0.1,0.2,0,0.3,0c0.1,0.1,0.8,0.2,1.1,0.3c-0.2,0.5-0.5,1.4-0.6,1.8c-0.2,0.4-0.5,0.9-0.7,0.9
			c-0.1,0-0.2-0.1-0.2-0.2c0-0.1,0-0.7,0.1-1c0.1-0.4,0.2-0.7-0.2-0.7c-0.3,0-0.3,0-0.4,0.2c-0.7,0.8-1.7,1.9-2.5,2.1
			c-0.4,0.1-0.8-0.7-0.8-1.1c0-0.5,0.2-1.1,0.7-1.5c0.1,0,0.1,0,0.1,0c0,0,0.1,0,0.1,0c0,0.1,0.1,0.4,0.3,0.4c0.2,0,0.6-0.5,0.6-1.2
			C37.6,44.9,37.2,44.9,37.2,44.9"/>
		<path class="st14" d="M12,48.6c0-0.2-0.3-0.1-0.4,0c-0.1,0.1-0.3,0.2-0.3,0.4c0,0.1,0,0.3,0,0.4c0,0.1,0,0.2-0.2,0.2
			c-0.1,0-0.4-0.1-0.5-0.2c-0.3-0.3-0.3-0.4-0.4-0.5c0.2-0.2,0.7-0.5,0.7-0.9c0.1-0.5-0.7-0.5-1.1-0.2c-0.9,0.5-1,0.9-0.9,1.3
			c-0.3,0.3-0.7,0.3-1,0.2c-0.7-0.3-0.6-0.9-1.1-1c-0.5-0.1-0.8,0.3-1,0.3c0.2-1,0.7-2.4,1.6-4.1c0,0,0-0.1-0.1-0.1
			c-0.1,0-0.5-0.1-0.7,0.1c-0.2,0.1-0.3,0.4-0.4,0.6c-0.4,0.2-0.6,0.2-1.2,0.3c-0.3,0-0.6,0-0.7,0c0-0.2,0-0.6-0.1-0.8
			c0-0.1-0.1-0.2-0.3-0.2c-0.4,0.1-1.1,0.3-1.2,0.8c-0.4,0-1.1-0.2-1.6-0.2C0.2,45,0,45,0,45.3c0,0.1,0,0.3,0,0.3
			c0,0.1,0,0.3,0.2,0.2c0.9-0.2,2.1-0.1,2.4-0.2c-0.1,0.9-0.3,3-0.6,3.9c-0.2,0.6-0.3,1.1,0.2,0.9c0.5-0.2,0.7-0.4,0.9-0.5
			c0.2-0.1,0.5-0.5,0.6-1c0.1-0.7,0.3-1.5,0.3-1.7c0-0.3,0.1-1.2,0.2-1.5c0.6,0,1.4-0.2,1.6-0.3c-1,1.9-1.6,4-1.6,4.4
			c0,0.2,0.1,0.3,0.4,0.2c0.2,0,0.6-0.3,0.8-0.5c0.2-0.2,0.4-0.3,0.7-0.3c0.3,0,0.4,0.1,0.5,0.3c0.2,0.4,0.5,0.5,1,0.4
			c0.6-0.1,0.9-0.4,1.2-0.6c0.3,0.6,0.7,0.9,1.5,0.9c0.5,0,1.1-0.4,1.4-0.7C11.9,49.3,12,48.8,12,48.6 M10,48.5
			c-0.1-0.1-0.1-0.3-0.1-0.5c0-0.1,0.3-0.2,0.4-0.1c0.1,0.1,0.2,0.3,0,0.5C10.2,48.5,10.1,48.5,10,48.5z"/>
	</g>
	<path class="st2" d="M46.3,48.1c-0.1,0.1-0.1,0.1-0.2,0.1c-0.1,0-0.2,0-0.2-0.1c-0.1-0.1-0.1-0.1-0.1-0.2c0-0.1,0-0.2,0.1-0.2
		c0.1-0.1,0.1-0.1,0.2-0.1c0.1,0,0.2,0,0.2,0.1c0.1,0.1,0.1,0.1,0.1,0.2C46.4,48,46.4,48.1,46.3,48.1 M45.9,47.7
		c-0.1,0.1-0.1,0.1-0.1,0.2c0,0.1,0,0.1,0.1,0.2c0.1,0.1,0.1,0.1,0.2,0.1c0.1,0,0.1,0,0.2-0.1c0.1-0.1,0.1-0.1,0.1-0.2
		c0-0.1,0-0.1-0.1-0.2c-0.1-0.1-0.1-0.1-0.2-0.1C46,47.6,45.9,47.6,45.9,47.7z M46.1,47.7C46.1,47.7,46.2,47.7,46.1,47.7
		c0.1,0,0.2,0.1,0.2,0.1c0,0,0,0.1,0,0.1c0,0,0,0-0.1,0c0,0,0,0,0.1,0c0,0,0,0,0,0.1v0c0,0,0,0,0,0c0,0,0,0,0,0l0,0h-0.1
		c0,0,0,0,0,0c0,0,0,0,0,0l0,0v0c0,0,0-0.1,0-0.1c0,0,0,0-0.1,0h0v0.1H46v-0.4H46.1z M46.1,47.8C46.1,47.8,46.1,47.8,46.1,47.8
		l-0.1,0v0.1h0.1c0,0,0,0,0.1,0C46.2,47.9,46.2,47.8,46.1,47.8C46.2,47.8,46.2,47.8,46.1,47.8z"/>
	<rect x="0" y="53" class="st15" width="41.4" height="0.4"/>
	<path class="st15" d="M1.9,55.8v2.3H1.2v-2.3H0.3v-0.6h2.5v0.6H1.9z"/>
	<path class="st15" d="M4.8,58.2c-0.9,0-1.5-0.7-1.5-1.5c0-0.9,0.6-1.5,1.5-1.5c0.9,0,1.5,0.7,1.5,1.5C6.4,57.6,5.7,58.2,4.8,58.2z
		 M4.8,55.8c-0.5,0-0.8,0.4-0.8,0.9c0,0.5,0.3,0.9,0.8,0.9c0.5,0,0.8-0.4,0.8-0.9C5.6,56.2,5.3,55.8,4.8,55.8z"/>
	<path class="st15" d="M8.4,58.2c-0.8,0-1.2-0.4-1.2-1.2v-1.8h0.7v1.7c0,0.4,0.2,0.7,0.6,0.7c0.4,0,0.6-0.3,0.6-0.7v-1.7h0.7V57
		C9.7,57.8,9.2,58.2,8.4,58.2z"/>
	<path class="st15" d="M12.3,58.2l-0.5-1c0,0-0.1,0-0.1,0c-0.1,0-0.2,0-0.3,0v1h-0.7v-2.9c0.2,0,0.5,0,0.9,0c0.9,0,1.3,0.4,1.3,1
		c0,0.4-0.2,0.7-0.5,0.9l0.7,1.1H12.3z M11.7,55.8c-0.1,0-0.2,0-0.3,0v0.8c0.1,0,0.1,0,0.2,0c0.3,0,0.5-0.2,0.5-0.5
		C12.1,55.9,11.9,55.8,11.7,55.8z"/>
	<path class="st15" d="M13.8,58.2v-3h0.7v3H13.8z"/>
	<path class="st15" d="M18,58.2l-1.8-1.6v1.5h-0.7v-3l0.1,0l1.8,1.6v-1.5H18L18,58.2L18,58.2z"/>
	<path class="st15" d="M21.6,56.5v1.4c-0.3,0.2-0.7,0.3-1.1,0.3c-0.9,0-1.6-0.6-1.6-1.5c0-0.9,0.7-1.5,1.6-1.5c0.4,0,0.7,0.1,1,0.3
		L21.2,56c-0.2-0.1-0.4-0.2-0.7-0.2c-0.6,0-0.9,0.4-0.9,0.9c0,0.6,0.4,0.9,0.9,0.9c0.2,0,0.3,0,0.4-0.1v-0.4h-0.6v-0.6H21.6z"/>
	<path class="st15" d="M25.1,58.2c-1,0-1.6-0.6-1.6-1.5c0-0.9,0.7-1.5,1.6-1.5c0.3,0,0.7,0.1,0.9,0.3L25.8,56
		c-0.2-0.1-0.5-0.2-0.7-0.2c-0.6,0-0.9,0.3-0.9,0.9c0,0.5,0.3,0.9,0.9,0.9c0.2,0,0.5-0.1,0.7-0.2l0.2,0.6
		C25.8,58.1,25.5,58.2,25.1,58.2z"/>
	<path class="st15" d="M28.2,58.2c-0.9,0-1.5-0.7-1.5-1.5c0-0.9,0.6-1.5,1.5-1.5c0.9,0,1.5,0.7,1.5,1.5
		C29.7,57.6,29.1,58.2,28.2,58.2z M28.2,55.8c-0.5,0-0.8,0.4-0.8,0.9c0,0.5,0.3,0.9,0.8,0.9c0.5,0,0.8-0.4,0.8-0.9
		C29,56.2,28.7,55.8,28.2,55.8z"/>
	<path class="st15" d="M33,58.2l0-1.5l-0.8,1H32l-0.8-1l0,1.5h-0.7l0.1-3l0.1,0l1.3,1.7l1.3-1.7l0.1,0l0.1,3H33z"/>
	<path class="st15" d="M35.6,57.3c-0.1,0-0.2,0-0.3,0v0.9h-0.7v-2.9c0.3,0,0.6,0,0.8,0c0.9,0,1.3,0.5,1.3,1.1
		C36.7,56.8,36.3,57.3,35.6,57.3z M35.6,55.8c-0.1,0-0.1,0-0.3,0v0.8c0.1,0,0.1,0,0.2,0c0.4,0,0.5-0.2,0.5-0.4
		C36,56,35.9,55.8,35.6,55.8z"/>
	<path class="st15" d="M39.1,58.2l-0.2-0.5h-1l-0.2,0.5H37l1.4-3h0.1l1.4,3H39.1z M38.4,56.4l-0.3,0.7h0.6L38.4,56.4z"/>
	<path class="st15" d="M43,58.2l-1.8-1.6v1.5h-0.7v-3l0.1,0l1.8,1.6v-1.5h0.7L43,58.2L43,58.2z"/>
	<path class="st15" d="M45.5,57v1.2h-0.7V57l-1-1.8h0.8l0.6,1.1l0.6-1.1h0.8L45.5,57z"/>
	<g>
		<path class="st16" d="M140.3,58.3c-0.9,0-1.5-0.6-1.5-1.5c0-0.9,0.6-1.5,1.5-1.5c0.9,0,1.5,0.6,1.5,1.5
			C141.8,57.7,141.2,58.3,140.3,58.3z M140.3,55.9c-0.5,0-0.8,0.4-0.8,0.9c0,0.5,0.3,0.9,0.8,0.9c0.5,0,0.8-0.4,0.8-0.9
			C141.1,56.3,140.7,55.9,140.3,55.9z"/>
		<path class="st16" d="M143.9,58.3c-0.8,0-1.2-0.4-1.2-1.2v-1.7h0.7V57c0,0.4,0.2,0.7,0.6,0.7c0.4,0,0.6-0.3,0.6-0.7v-1.7h0.7v1.7
			C145.2,57.9,144.7,58.3,143.9,58.3z"/>
		<path class="st16" d="M147.5,56v2.3h-0.7V56h-0.9v-0.6h2.4V56H147.5z"/>
		<path class="st16" d="M150.7,58.3l-0.5-1c0,0-0.1,0-0.1,0c-0.1,0-0.2,0-0.3,0v1h-0.7v-2.9c0.2,0,0.5,0,0.9,0c0.9,0,1.3,0.4,1.3,1
			c0,0.3-0.2,0.7-0.5,0.8l0.7,1.1H150.7z M150.1,55.9c-0.1,0-0.2,0-0.3,0v0.8c0.1,0,0.1,0,0.2,0c0.3,0,0.5-0.2,0.5-0.5
			C150.6,56.1,150.4,55.9,150.1,55.9z"/>
		<path class="st16" d="M152.3,58.3v-2.9h1.9V56h-1.2v0.5h1.1v0.6h-1.1v0.6h1.2v0.6H152.3z"/>
		<path class="st16" d="M156.9,58.3l-0.2-0.5h-1l-0.2,0.5h-0.7l1.4-2.9h0.1l1.4,2.9H156.9z M156.2,56.5l-0.3,0.7h0.6L156.2,56.5z"/>
		<path class="st16" d="M159.7,58.3c-1,0-1.6-0.6-1.6-1.5c0-0.9,0.6-1.5,1.6-1.5c0.3,0,0.7,0.1,0.9,0.3l-0.2,0.6
			c-0.2-0.1-0.5-0.2-0.7-0.2c-0.5,0-0.9,0.3-0.9,0.9c0,0.5,0.3,0.9,0.9,0.9c0.2,0,0.5-0.1,0.7-0.2l0.2,0.6
			C160.3,58.2,160,58.3,159.7,58.3z"/>
		<path class="st16" d="M163.3,58.3v-1.2h-1.1v1.2h-0.7v-2.9h0.7v1.1h1.1v-1.1h0.7v2.9H163.3z"/>
		<path class="st16" d="M168.3,57.4c-0.1,0.1-0.2,0.3-0.4,0.4c0.1,0.1,0.2,0.2,0.3,0.2l-0.3,0.3c-0.1-0.1-0.2-0.2-0.3-0.2
			c-0.2,0.1-0.5,0.2-0.7,0.2c-0.4,0-0.8-0.2-0.8-0.7c0-0.3,0.2-0.5,0.5-0.7c-0.1-0.2-0.2-0.3-0.2-0.5c0-0.4,0.3-0.7,0.7-0.7
			c0.4,0,0.7,0.3,0.7,0.6c0,0.3-0.2,0.5-0.6,0.6c0.1,0.1,0.2,0.2,0.3,0.4c0.1-0.1,0.3-0.3,0.4-0.4L168.3,57.4z M166.8,57.3
			c-0.1,0.1-0.2,0.2-0.2,0.3c0,0.2,0.1,0.3,0.3,0.3c0.1,0,0.2,0,0.3-0.1C167.1,57.6,167,57.4,166.8,57.3z M167.2,56.3
			c-0.1,0-0.2,0.1-0.2,0.2c0,0.1,0,0.2,0.1,0.3c0.2-0.1,0.3-0.2,0.3-0.3C167.4,56.4,167.3,56.3,167.2,56.3z"/>
		<path class="st16" d="M171.3,58.3c-0.3,0-0.5,0-0.9,0v-2.9c0.3,0,0.6,0,0.9,0c1.2,0,1.8,0.6,1.8,1.5
			C173.1,57.6,172.5,58.3,171.3,58.3z M171.4,55.9c-0.1,0-0.2,0-0.3,0v1.7c0.1,0,0.2,0,0.3,0c0.6,0,0.9-0.4,0.9-0.9
			C172.3,56.2,172,55.9,171.4,55.9z"/>
		<path class="st16" d="M174,58.3v-2.9h0.7v2.9H174z"/>
		<path class="st16" d="M176.9,58.3L176.9,58.3l-1.5-2.9h0.8l0.7,1.6l0.7-1.6h0.8L176.9,58.3z"/>
		<path class="st16" d="M178.9,58.3v-2.9h1.9V56h-1.2v0.5h1.1v0.6h-1.1v0.6h1.2v0.6H178.9z"/>
		<path class="st16" d="M183.3,58.3l-0.5-1c0,0-0.1,0-0.1,0c-0.1,0-0.2,0-0.3,0v1h-0.7v-2.9c0.2,0,0.5,0,0.9,0c0.9,0,1.3,0.4,1.3,1
			c0,0.3-0.2,0.7-0.5,0.8l0.7,1.1H183.3z M182.7,55.9c-0.1,0-0.2,0-0.3,0v0.8c0.1,0,0.1,0,0.2,0c0.3,0,0.5-0.2,0.5-0.5
			C183.2,56.1,183,55.9,182.7,55.9z"/>
		<path class="st16" d="M185.6,58.3c-0.3,0-0.7-0.1-1-0.3l0.2-0.6c0.2,0.2,0.5,0.3,0.8,0.3c0.2,0,0.3-0.1,0.3-0.3
			c0-0.2-0.1-0.3-0.5-0.4c-0.5-0.2-0.7-0.5-0.7-0.9c0-0.4,0.3-0.8,1-0.8c0.3,0,0.6,0.1,0.8,0.2l-0.2,0.6c-0.2-0.1-0.4-0.2-0.6-0.2
			c-0.2,0-0.3,0.1-0.3,0.2c0,0.2,0.1,0.3,0.5,0.4c0.5,0.2,0.7,0.5,0.7,0.9C186.7,57.9,186.3,58.3,185.6,58.3z"/>
		<path class="st16" d="M187.6,58.3v-2.9h0.7v2.9H187.6z"/>
		<path class="st16" d="M190.6,56v2.3H190V56h-0.9v-0.6h2.4V56H190.6z"/>
		<path class="st16" d="M193.8,57.1v1.2h-0.7v-1.2l-1-1.8h0.8l0.6,1.1l0.6-1.1h0.8L193.8,57.1z"/>
	</g>
	<g>
		<path d="M160.3,43.8c-2.4,0.4-4.1,1.7-4.1,2.3c0,0.8,1.2,1.4,2,2.3c0.4,0.5,0.5,0.8,0.5,1.2c0,0.2,0,0.4-0.1,0.5
			c-0.1,0.2-0.6,0.5-1.1,0.4c-0.8-0.1-1-1.3-0.8-1.9c0-0.1,0-0.3-0.1-0.3c-0.1-0.1-0.3-0.1-0.4,0.2c-0.2,0.6-0.4,1.9,0.5,2.5
			c0.3,0.2,0.6,0.3,1,0.3c1.4,0,2.2-1.1,2.6-2c0.4-1.1,0.6-2.1-0.5-3.1c-0.3-0.2-0.5-0.7-0.4-1c0.1-0.3,0.3-0.4,0.3-0.2
			c0,0.3,0.8,0.6,1-0.5C160.9,44.4,160.7,43.7,160.3,43.8"/>
	</g>
	<path d="M165.7,48.6c-0.1,0.1,0,0-0.1,0.1c-0.1,0.1-0.4,0.4-0.8,0.5c-0.5,0.1-0.5-0.6-0.6-0.8c0-0.3,0.3-0.9,0.6-0.9
		c0.1,0,0.1,0,0.2,0.1c0,0,0.1,0.1,0,0.1c-0.2,0.4-0.1,0.7,0,0.7c0.1,0,0.1,0,0.1-0.1c0.1,0,0.4-0.3,0.4-0.6c0-0.3-0.2-0.9-0.5-1
		c-0.1,0-0.5,0.1-0.8,0.2c-0.5,0.3-0.8,0.9-0.8,0.9c-0.2,0.3-0.3,0.3-0.4,0.5c-0.1,0.1-0.4,0.5-0.7,0.5c-0.2,0-0.3-0.2-0.4-0.4
		c0-0.1-0.1-0.2-0.1-0.2c0,0,0.1,0,0.2,0c0.1,0,1-0.6,1-1.2c0-0.2-0.2-0.4-0.4-0.4c-0.1,0-0.5,0.1-0.7,0.2c-0.4,0.3-0.7,0.6-0.8,0.8
		c-0.4,0.5-0.5,1.5-0.1,2c0.2,0.2,0.5,0.4,0.8,0.5c0.7,0.1,1.1-0.8,1.4-1c0.1,0.6,0.1,0.8,0.4,1c0.2,0.2,0.5,0.2,0.9,0
		c0.4-0.2,0.9-0.7,1.1-0.9c0,0.5,0.4,0.9,0.9,1c0.9,0.1,1.5-1.2,1.6-1.9c0.1-0.5,0-0.7,0-0.8c0.1,0,0.4-0.1,0.5-0.1
		c0.1,0,0.2,0.6,0.1,0.9c-0.1,0.6-0.3,1.5,0.1,1.5c0.4,0,0.9-0.9,1.2-0.9c0.3,0,0.4,0.8,0.8,0.8c0.4,0,0.7-0.4,1-0.4
		c0,0.5,0.2,0.9,0.7,0.9c0.8,0,1.9-1.5,2.2-1.8c-0.1,0.7-0.1,1.6-0.2,1.8c0,0.2,0.1,0.5,0.2,0.5c0.3,0,0.9-0.4,1.1-0.8
		c0-0.3,0.1-0.8,0.4-1.4c0.3-0.7,0.6-1.5,0.6-1.8c0-0.3-0.3-1.6-0.7-1.6c-0.2,0-0.8,0.4-0.8,0.4c-0.1,0.2-0.1,0.4-0.2,0.7
		c-0.1,0.4-0.2,0.9-0.3,1.3c-0.1,0.3-0.3,0.6-0.4,0.8c-0.4,0.5-0.9,0.8-0.9,0.8c-0.1-0.1-0.1-0.4,0-0.7c0.1-0.2,0.2-0.3,0.3-0.3
		c0.2,0,0.3,0,0.4,0c0.1,0,0.2-0.2,0.2-0.3c0-0.1-0.3-0.1-0.6-0.1c-0.9,0.1-1.2,0.5-1.4,0.9c-0.4,0.6-0.9,0.5-1.1,0.1
		c-0.2-0.4-0.4-0.8-0.6-0.6c-0.1,0.1-0.4,0.2-0.5,0.3c-0.1,0.1-0.2,0.2-0.3,0.2c0-0.1,0-0.3,0.1-0.5c0.1-0.6,0.1-1.2-0.1-1.3
		c-0.1-0.1-0.6,0-0.9,0.2c-0.1,0.1-0.9,0.4-1.3,0.4c-0.1,0-0.2-0.2-0.3-0.2C166.4,46.9,165.7,48.1,165.7,48.6 M162,48
		c0-0.1-0.1-0.2-0.1-0.4c0-0.1,0.1-0.2,0.1-0.2c0.1-0.1,0.2-0.1,0.2-0.1c0.1,0,0.1,0.1,0.1,0.1c0,0.1,0,0.3-0.1,0.3
		C162.4,47.8,162.2,48,162,48z M167.8,48.1c0,0.2-0.2,0.7-0.4,0.9c-0.1,0.1-0.3,0.1-0.4,0c-0.1-0.1-0.2-0.3-0.2-0.8
		c0-0.2,0.2-0.5,0.4-0.6c0,0,0.3,0,0.4,0C167.8,47.6,167.8,47.7,167.8,48.1z"/>
	<g>
		<path d="M180.9,45c-0.7,0-3,1.4-3.1,3c-0.1,1.2,0.6,2.4,1.2,2.6c0.1,0,0.4,0.1,0.7,0c1-0.3,2.2-1.7,2.9-2.6c0,0,0.1,0,0,0.1
			c-0.1,0.6-0.2,1.1-0.2,1.4c0,0.4,0.3,0.5,0.5,0.6c0.3,0.1,0.9-0.9,1.1-1.3c0,0,0,0,0,0c0,0.8,0.1,1.2,0.3,1.3
			c0.1,0.1,0.3,0.2,0.4,0.2c0.5,0,1-0.8,1.3-1.4c0,0,0.1,0,0.1,0.1c0,0.9,0.1,1.1,0.3,1.2c0,0,0.2,0.1,0.3,0.1
			c0.3-0.1,0.7-0.4,1.1-0.9c-0.1,1-0.9,3.3-1,4.1c-0.1,0.3-0.1,0.6,0,0.6c0.2,0.2,0.9,0.2,1.4,0c0.5-0.2,0.7-0.5,0.7-0.6
			c0.1-0.4-0.4-2.4,0.3-4.8c0,0,0-0.1,0.1-0.1c0.1-0.1,0-0.3-0.1-0.6c-0.1-0.1-0.3-0.2-0.5-0.1c-0.2,0-0.3,0.1-0.4,0.4
			c-0.1,0.2-0.5,0.9-0.8,0.9c-0.2,0-0.2-0.2-0.2-0.4c0-0.3-0.1-0.8-0.1-0.9c0-0.1,0-0.2-0.3-0.2c-0.3,0-0.7,0.8-1.2,1.2
			c-0.2,0.2-0.3,0.1-0.4,0.1c-0.1,0-0.1-0.5,0-0.9c0-0.3,0.3-1.5,0.4-1.8c0.6,0.1,1.4,0.1,2.2,0.2c0.7,0,1.4,0,1.9,0
			c0.3-0.2,0.8-0.9,0.9-1.2c0-0.2,0-0.3-0.2-0.3c-0.8-0.1-1.6,0.1-2.5,0.3c-0.6,0.2-0.8,0.2-1,0.3c-0.2,0.1-1,0.2-1.2,0.2
			c0-0.1,0-0.2,0-0.3c-0.1-0.1-0.3-0.1-0.5,0.1c-0.1,0.1-0.1,0.2-0.1,0.3c-0.5,0.1-1,0-1.2-0.1c-0.1,0-0.1-0.1-0.1-0.2
			c0-0.1,0-0.4-0.1-0.4c-0.1-0.1,0-0.4-0.1-0.4c-0.1,0-0.4-0.2-0.8,0.5c-0.2,0.4-0.2,0.6-0.1,0.7c0.1,0.1,0.2,0.1,0.3,0.1
			c0.3,0,0.5-0.1,0.7-0.2c0.1-0.1,0.2,0,0.3,0c0.1,0.1,0.8,0.2,1.1,0.3c-0.2,0.5-0.5,1.4-0.6,1.8c-0.2,0.4-0.5,0.9-0.7,0.9
			c-0.1,0-0.2-0.1-0.2-0.2c0-0.1,0-0.7,0.1-1c0.1-0.4,0.2-0.7-0.2-0.7c-0.3,0-0.3,0-0.4,0.2c-0.7,0.8-1.7,1.9-2.5,2.1
			c-0.4,0.1-0.8-0.7-0.8-1.1c0-0.5,0.2-1.1,0.7-1.5c0.1,0,0.1,0,0.1,0c0,0,0.1,0,0.1,0c0,0.1,0.1,0.4,0.3,0.4c0.2,0,0.6-0.5,0.6-1.2
			C181.3,45,180.9,45,180.9,45"/>
		<path d="M155.7,48.7c0-0.2-0.3-0.1-0.4,0c-0.1,0.1-0.3,0.2-0.3,0.4c0,0.1,0,0.3,0,0.4c0,0.1,0,0.2-0.2,0.2c-0.1,0-0.4-0.1-0.5-0.2
			c-0.3-0.3-0.3-0.4-0.4-0.5c0.2-0.2,0.7-0.5,0.7-0.9c0.1-0.5-0.7-0.5-1.1-0.2c-0.9,0.5-1,0.9-0.9,1.3c-0.3,0.3-0.7,0.3-1,0.2
			c-0.7-0.3-0.6-0.9-1.1-1c-0.5-0.1-0.8,0.3-1,0.3c0.2-1,0.7-2.4,1.6-4.1c0,0,0-0.1-0.1-0.1c-0.1,0-0.5-0.1-0.7,0.1
			c-0.2,0.1-0.3,0.4-0.4,0.6c-0.4,0.2-0.6,0.2-1.2,0.3c-0.3,0-0.6,0-0.7,0c0-0.2,0-0.6-0.1-0.8c0-0.1-0.1-0.2-0.3-0.2
			c-0.4,0.1-1.1,0.3-1.2,0.8c-0.4,0-1.1-0.2-1.6-0.2c-1,0.1-1.1,0.1-1.2,0.4c0,0.1,0,0.3,0,0.3c0,0.1,0,0.3,0.2,0.2
			c0.9-0.2,2.1-0.1,2.4-0.2c-0.1,0.9-0.3,3-0.6,3.9c-0.2,0.6-0.3,1.1,0.2,0.9c0.5-0.2,0.7-0.4,0.9-0.5c0.2-0.1,0.5-0.5,0.6-1
			c0.1-0.7,0.3-1.5,0.3-1.7c0-0.3,0.1-1.2,0.2-1.5c0.6,0,1.4-0.2,1.6-0.3c-1,1.9-1.6,4-1.6,4.4c0,0.2,0.1,0.3,0.4,0.2
			c0.2,0,0.6-0.3,0.8-0.5c0.2-0.2,0.4-0.3,0.7-0.3c0.3,0,0.4,0.1,0.5,0.3c0.2,0.4,0.5,0.5,1,0.4c0.6-0.1,0.9-0.4,1.2-0.6
			c0.3,0.6,0.7,0.9,1.5,0.9c0.5,0,1.1-0.4,1.4-0.7C155.6,49.4,155.7,48.9,155.7,48.7 M153.7,48.6c-0.1-0.1-0.1-0.3-0.1-0.5
			c0-0.1,0.3-0.2,0.4-0.1c0.1,0.1,0.2,0.3,0,0.5C153.9,48.6,153.8,48.6,153.7,48.6z"/>
	</g>
	<path d="M189.4,48.2c-0.1,0.1-0.1,0.1-0.2,0.1c-0.1,0-0.2,0-0.2-0.1c-0.1-0.1-0.1-0.1-0.1-0.2c0-0.1,0-0.2,0.1-0.2
		c0.1-0.1,0.1-0.1,0.2-0.1c0.1,0,0.2,0,0.2,0.1c0.1,0.1,0.1,0.1,0.1,0.2C189.5,48.1,189.5,48.2,189.4,48.2 M189,47.8
		c-0.1,0.1-0.1,0.1-0.1,0.2c0,0.1,0,0.1,0.1,0.2c0.1,0.1,0.1,0.1,0.2,0.1c0.1,0,0.1,0,0.2-0.1c0.1-0.1,0.1-0.1,0.1-0.2
		c0-0.1,0-0.1-0.1-0.2c-0.1-0.1-0.1-0.1-0.2-0.1C189.1,47.7,189.1,47.8,189,47.8z M189.2,47.8C189.2,47.8,189.3,47.8,189.2,47.8
		c0.1,0,0.2,0.1,0.2,0.1c0,0,0,0.1,0,0.1c0,0,0,0-0.1,0c0,0,0,0,0.1,0c0,0,0,0,0,0.1v0c0,0,0,0,0,0c0,0,0,0,0,0l0,0h-0.1v0
		c0,0,0,0,0,0l0,0v0c0,0,0-0.1,0-0.1c0,0,0,0-0.1,0h0v0.1h-0.1v-0.4H189.2z M189.3,47.9C189.2,47.9,189.2,47.9,189.3,47.9l-0.1,0V48
		h0.1c0,0,0,0,0.1,0C189.3,48,189.3,48,189.3,47.9C189.3,47.9,189.3,47.9,189.3,47.9z"/>
	<rect x="143.7" y="53.1" class="st16" width="41.4" height="0.4"/>
	<g>
		<g>
			<path d="M-181.4,476.2L-181.4,476.2l0-0.2c0-0.2-0.1-0.5-0.4-0.6c0,0-0.1,0-0.1,0c-0.7-0.2-1.4,0-2.1,0.2c-0.6,0.2-1.3,0.3-2,0.2
				c0,0-0.5,0-0.5,0c-1.1,0-2.1-0.1-3.1-0.4c-0.4-0.2-0.9-0.1-1.4,0.3l0,0l0,0l0,0c-0.1,0.2-0.2,0.4-0.2,0.6c0,0,0,0.1,0,0.2
				c-0.1,0-0.3,0.1-0.3,0.1c0,0-0.2,0.1-0.2,0.1l-0.1,0c0,0-1.3,2-1.4,2.1c-0.1,0-1.7,0.6-1.7,0.6c0,0-0.4,0.2-0.4,0.3
				c0-0.2,0.1-0.4,0.1-0.4c0.1-0.6,0.3-1.2,0.3-1.9l0-0.2l0-0.1l0,0c-0.1-0.6-0.7-0.6-1-0.6c0,0-0.1,0-0.1,0
				c-0.1-0.5-0.3-0.9-0.4-1.2c0,0-0.1-0.1-0.1-0.1c-0.8-1.4-2.5-2.1-4.4-2.1c-1.9,0.1-3.3,1.9-3.8,3.4c-0.2,0.4-0.4,0.8-0.5,1.2
				c0,0,0,0,0-0.1v0v0c-0.3-0.5-2-2.3-3.9-1.7c-1.1,0.4-1.2,0.9-1.5,1.7l0,0c0,0,0,0,0,0c-0.4-0.5-0.8-0.7-1.4-1.1
				c-0.4-0.2-2.3-0.5-3.3,0.2c-0.7,0.5-0.8,1.6-1,3.1c0.1-0.9-0.6-1.6-1.3-2.2l0,0l0,0c-0.3-0.2-0.7-0.2-1.1-0.2l0,0l-0.1,0l0,0
				c-0.5,0.3-0.9,0.7-0.9,1.1c-0.1,0.1-0.1,0.3-0.1,0.4v0.3c0,0.2,0,0.3-0.1,0.3l0,0l0,0.1l-0.3,0.6c-0.5,1-1.1,2.3-1.1,3.6v0
				c-0.2,0-0.7,0-0.7,0l0,0c-1,0.2-1.2,1-1.4,1.7c0,0-0.1,0.3-0.2,0.5c-1-0.5-1.6-1.4-1.7-2.8c0.2,0.1,0.9,0.2,0.9,0.2
				c0.5,0.2,1.1,0.3,1.6,0.3h0l0,0c0.4-0.1,0.8-0.4,0.8-0.8l0,0c0,0,0-0.1,0-0.1c0,0-0.4-1.4-0.4-1.4l0-0.2l-0.7-2.5
				c0,0,0-0.1,0-0.1c-0.2-0.6-0.4-1.3-0.7-1.9c-0.2-0.4-0.7-0.7-1.2-0.8c-0.4,0-0.8,0.1-1.1,0.5c-0.7,1.3-1.2,2.8-1.4,4.3
				c-0.1,0-0.3,0.1-0.3,0.1c0-0.2-0.2-1.1-0.2-1.1c0,0,0-0.1,0-0.1c-0.1-0.5-0.1-1-0.3-1.5c0,0-0.1-0.2-0.1-0.2
				c-0.1-0.3-0.2-0.8-0.8-0.9c-0.5-0.2-1,0-1.3,0.5l0,0l0,0c-0.1,0.4-0.3,0.9-0.4,1.3c-0.1-0.5-0.1-1-0.3-1.5l0,0l0,0
				c-0.3-0.5-0.8-0.6-1.3-0.5l0,0c-0.5,0.2-0.7,0.6-0.8,0.9c0,0,0,0.1-0.1,0.2c-0.1,0-0.3-0.1-0.3-0.1c-0.4,0.1-0.6,0.1-0.9,0.4
				c-0.1,0.2-0.2,0.3-0.2,0.5c0,0.2,0.1,0.4,0.2,0.6c0,0,0,0.1,0,0.1c0,0.3,0.1,0.6,0.1,1c0,0.6-0.1,1.2-0.2,1.9
				c-0.1-0.9-0.4-1.8-0.8-2.7l0,0l-0.2-0.3c-0.5-0.6-1.1-1.3-2.1-1l0,0c-0.5,0.2-0.9,0.6-1.1,1.1c0-0.3,0-0.5,0-0.7
				c0-0.8-0.1-1.4-0.4-2c-0.4-0.9-1.5-1.4-2.6-1.3c-1.3,0.3-2.4,1.2-3,2.3l0,0l0,0l0,0c-0.1,0.3-0.1,0.7-0.1,1
				c0,1.8,1.2,3.4,2.2,4.7c0,0,0.3,0.4,0.3,0.4c0.4,0.6,0.9,1.3,1,2c-0.2-0.3-0.5-0.6-0.7-1c0,0,0-0.1,0-0.1l0-0.1l-0.2,0
				c-0.3,0-1.2-0.1-1.5,0.5l0,0l0,0l0,0c-0.2,0.7,0.3,1.2,0.7,1.6c0,0,0.4,0.5,0.4,0.5l0,0l0,0.1l0,0c0,0,0.4,0.4,0.4,0.4l0.1,0.1
				c0.2,0.3,0.4,0.5,0.8,0.7l0,0l0.1,0c0.3,0,0.6,0.1,0.9-0.1l0,0l0,0c0.4-0.3,0.6-0.8,0.7-1.2c0.4,0.4,1,0.7,1.6,0.6
				c0.9,0,1.6-0.5,2.1-1.1c0.5-0.5,0.8-1.1,1.1-1.7c0,0.2,0,0.3,0,0.5c0,0.4,0,0.8,0.1,1.2l0,0l0,0l0,0c0.2,0.4,0.6,0.5,0.9,0.6
				c0,0,0.3,0,0.3,0l0.1-0.1c0,0,0.1-0.1,0.1-0.1c0.2-0.1,0.4-0.2,0.6-0.5c0,0,0,0,0,0l0,0l0-0.1l0-1.1c0-1.3,0.1-2.4,0.3-3.4
				c0.1,1,0.4,3.6,0.4,3.6c0,0,0.4,0.7,0.4,0.7l0,0.1l0.2,0c0,0,0.3,0,0.3,0c0.2,0,0.5,0.1,0.8-0.1c0,0,0.1-0.1,0.1-0.1
				c0.1-0.1,0.4-0.2,0.4-0.5l0,0l0,0l0-0.3c0-1.1,0.2-2.2,0.4-3.3c0.2,1.2,0.5,2.5,1.1,3.6c0.2,0.5,0.8,0.4,1.1,0.4c0,0,0.2,0,0.2,0
				c0,0,0.1,0,0.1,0l0,0l0.1-0.1c0.2-0.1,0.3-0.3,0.4-0.6c0.1,0.2,0.5,0.8,0.5,0.8c0.6,0.7,2,2.2,3.8,1.7c0.7-0.1,0.7-0.7,0.7-1
				l0-0.1l0-0.2l0,0v0c0-0.3,0.2-0.6,0.4-0.9c0,0,0.1-0.1,0.1-0.1s0.1-0.2,0.2-0.4c0.1,0.3,0.3,0.5,0.5,0.8c0.7,0.7,1.8,0.7,2.5,0.4
				c0,0,0.1,0,0.1,0c0.9-0.6,1.5-1.4,1.8-2.4c0,0.1,0,0.1,0,0.2c0,0.4,0,0.8,0.4,1.1c0,0,0,0,0,0l0,0l0.1,0c0.2,0,0.3,0.1,0.4,0.5
				c0.1,0.3,0.2,0.8,0.7,0.9c0.2,0,0.8,0.1,1.2-0.1c0,0,0.1,0,0.1,0c0,0,0.5-0.5,0.5-0.5l0.1-0.1c0,0,0.6-0.6,0.7-0.8
				c0.2,0,0.4,0.1,0.6,0.3l0.5,0.3c1.6,0.6,2.7,0,3.8-1.1c0.5-0.4,0.6-0.6,0.7-0.8c0,1.6,0.3,2.7,0.7,4.3c0,0,0.7,2.5,0.7,2.5
				l0.1,0.2l0,0l0,0c0.2,0.4,0.6,0.3,0.8,0.3c0,0,0.3,0,0.3,0l0.2,0.1l0.2-0.2c0.2-0.2,0.6-0.4,0.6-0.8l0-0.1
				c-0.1-0.7-0.2-1.6-0.2-2.4l0-0.4v-1.5c0-1,0-2,0.2-3c0.1,0,0.3-0.1,0.3-0.1c0.6-0.2,1.2-0.4,1.8-0.7c0,0,0,0.1,0,0.1l0,0.5l0,0.3
				c0,0.3,0,0.5,0.1,0.8c0,0.7,0.1,1.6,1,1.9l0,0l0.1,0l0.2,0c0.2,0,0.6,0,0.9-0.3c0.1-0.2,0.2-0.4,0.2-0.6l0-0.3l0-0.1l0-0.2l0,0
				c-0.2-0.3-0.2-0.7-0.2-1.2l0.1-1.2c0,0,0-0.1,0-0.1l0,0l0-0.1l0-0.2c0-0.4,0.4-0.8,0.8-1.1c0,0,0,0,0.1,0
				c-0.2,0.8-0.4,1.5-0.4,2.3l0,0.4l0,0l0,0c0.2,0.5,0.6,0.7,1.2,0.7c0.3,0,0.6-0.2,0.8-0.4l0,0l0,0l0,0c0.5-1.1,1.4-1.9,2.3-2.2
				c0.1,0.5,0.2,1,0.4,1.4c0.4,0.7,1.1,1.2,1.8,1.3c1.2,0.1,2.3-0.4,3-1.2c0.6-0.6,0.8-1.4,0.8-2.3c0-0.7-0.2-1.6-0.5-2.6
				c0.2,0,1.2,0,1.2,0s1.3,0,1.7,0.1c-0.2,0.9-0.4,1.9-0.7,2.7c-0.4,1.6-0.8,3.1-1,4.6l0,0.1l0,0c0,0,0,0.1,0,0.1l0,0.2
				c0,0,0,0.1,0,0.1l0,0.2c0,0.4,0.2,0.6,0.5,0.8c0,0,0.2,0,0.2,0l0.1-0.1l0.3-0.2c0.3-0.1,0.6-0.3,0.7-0.8c0.5-2.9,1.4-5.7,2.1-8.1
				c0.1,0,0.4-0.1,0.4-0.1c0.4-0.1,1-0.2,1.2-0.9c0,0,0-0.1,0-0.1L-181.4,476.2C-181.4,476.3-181.4,476.2-181.4,476.2z M-240,483
				c0,0-0.2,0.6-0.3,0.9c-0.4-0.6-0.8-1.3-1.2-1.8l0,0c-0.9-1.1-1.7-2.3-1.9-3.7c0.1-0.6,0.7-1.1,1.2-1.5c0,0,0,0,0,0
				c0.4-0.1,0.7-0.1,0.9,0.1c0.2,0.4,0.3,1,0.3,1.6c0,0.7-0.1,1.3-0.3,1.7l0,0.1v0l0,0.3l0,0.1c0,0-0.1,0.6-0.1,0.6
				c0,0.3,0.2,0.6,0.5,0.8l0,0l0.1,0c0.4,0.1,0.9,0,1.2-0.2c0,0,0,0,0,0c0,0.1,0,0.2,0,0.2s0,0.1,0,0.2C-239.7,482-240,483-240,483z
				 M-238.2,485.7c0,0-0.2,0.1-0.2,0.1c-0.1-0.2-0.2-0.4-0.2-0.6c0-0.3,0.1-0.6,0.2-1c0.3-0.7,0.7-1.7,1.4-2.1
				c0,0.2,0.1,0.5,0.1,0.7C-236.9,483.9-237.3,484.9-238.2,485.7z M-225.4,479.2c0,0.1,0.1,0.3,0.1,0.3c0.2,0.6,0.4,1.2,0.5,1.8
				c-0.3,0-0.6-0.1-0.9-0.2C-225.7,480.5-225.6,479.8-225.4,479.2z M-218.6,483.9c-0.1,0.3-0.3,0.5-0.5,0.7c0,0-0.1,0-0.1-0.1
				c0,0,0,0-0.1-0.1c-0.1-0.3-0.1-0.6-0.1-0.8c0-0.9,0.3-1.9,1-3c0.1,0.6,0.2,1.1,0.2,1.6C-218.3,482.9-218.4,483.5-218.6,483.9z
				 M-212,480.8c0,0.5-0.1,0.9-0.3,1.3c-0.1,0.2-0.7,1.1-1.8,1.3c-0.3,0.1-0.4-0.2-0.4-0.7c0-0.4,0-2,0.1-2.8
				c0.1-0.8,0.1-1.8,0.4-1.8c0.4,0,1,0.1,1.7,0.8c0.2,0.2,0.3,0.5,0.4,0.9C-212,480-211.9,480.3-212,480.8z M-207,480.7
				c-0.1,0.7-0.5,1.5-1.1,2.2c-0.6,0.6-1.4,0.7-1.6,0.8c0,0-0.2,0-0.2-0.1c0-0.1-0.1-0.4,0-1c0-0.6,0.1-1.6,0.3-2.5
				c0.1-0.7,0.1-0.8,0.1-0.8c0.1-0.8,0.2-1.7,0.4-1.8c0.3,0,1.1,0.1,1.7,0.8c0.2,0.2,0.3,0.5,0.4,0.8l0,0.1
				C-206.9,479.7-206.9,480.2-207,480.7z M-198.1,477c-0.1-0.1-0.2-0.1-0.3-0.2c-0.4-0.1-0.8,0.1-1.1,0.2l-0.1,0c0,0-0.1,0-0.1,0
				c-0.4,0.5-0.5,1.1-0.5,1.6c0,0.3-0.1,0.6-0.2,0.9c-0.7,0.4-1.4,0.8-2.3,1.1c0-0.1,0-0.3,0-0.3l0.1-0.7c0-0.7-0.3-1.1-0.9-1.2
				c0-0.1,0.1-0.2,0.1-0.2c0.4-1.3,0.9-2.7,2.2-3.5c1-0.3,2,0.1,2.7,0.9C-198.4,476-198.1,476.5-198.1,477
				C-198.1,477-198.1,477-198.1,477z M-189.7,481c0,0-0.2,0.2-0.2,0.2c-0.4,0.4-0.8,0.8-1.3,0.6c-0.3-0.3-0.5-0.7-0.5-1.2
				c0,0,0-0.2,0-0.2c0.1,0,0.2,0,0.4,0l0,0c0.3,0.1,0.7,0.1,1.1-0.2c0.2-0.2,0.4-0.5,0.4-0.9c0-0.2-0.1-0.4-0.3-0.6l0,0
				c-0.2-0.1-0.4-0.2-0.7-0.3c0,0,0,0,0,0c0.2-0.2,0.3-0.5,0.4-0.7c0.2,0.4,0.4,0.8,0.5,1.2c0,0,0.1,0.3,0.1,0.3
				c0.1,0.3,0.1,0.6,0.1,0.8C-189.5,480.4-189.6,480.7-189.7,481z"/>
		</g>
		<path d="M-197,470.9c0-0.3,0-0.7-0.1-1c0,0,0-0.1,0-0.1l0,0c-0.3-0.3-0.8-0.5-1.3-0.5h-0.1h-0.1l-0.1,0.1c0,0-0.2,0.1-0.2,0.1
			l-0.1,0c-0.2,0.1-0.4,0.3-0.5,0.6l0,0l0,0c0,0.6,0.4,0.9,0.7,1.2l0,0l0.3,0.3c0,0,0.1,0.1,0.1,0.1l0.3,0c0.3,0,0.6,0,0.9-0.2
			c0,0,0.1-0.1,0.1-0.1l0,0l0-0.2C-197,471.3-197,470.9-197,470.9z"/>
	</g>
	<line class="st17" x1="-247.4" y1="461.8" x2="498" y2="461.8"/>
	
		<text transform="matrix(1 0 0 1 -245.2009 450.5851)" class="st18" style="font-family:'AvantGarde-Medium'; font-size:9; letter-spacing:3;">DEPARTMENT LOGO COLOR</text>
	
		<text transform="matrix(1 0 0 1 452.1321 485.9186)" class="st18" style="font-family:'AvantGarde-Medium'; font-size:9; letter-spacing:3;">7/2/14</text>
</g>
<g id="Layer_3">
</g>
<g id="Layer_2">
</g>
</svg>
