<?xml version="1.0" encoding="utf-8"?>
<!-- Generator: Adobe Illustrator 18.1.1, SVG Export Plug-In . SVG Version: 6.00 Build 0)  -->
<svg version="1.1" id="Layer_1" xmlns="http://www.w3.org/2000/svg" xmlns:xlink="http://www.w3.org/1999/xlink" x="0px" y="0px"
	 viewBox="0 0 263.9 90.7" enable-background="new 0 0 263.9 90.7" xml:space="preserve">
<g>
	<g>
		<path fill="#8E8E91" d="M12.6,45.5c0,18.3,15.2,33.7,33.8,34.3l0.1-2.2C29,77,14.8,62.6,14.8,45.5H12.6z"/>
	</g>
	<g>
		<path fill="#8E8E91" d="M29.3,46.4c0,9.6,7.8,17.4,17.4,17.4v-1c-9,0-16.4-7.4-16.4-16.4c0-8.7,6.8-15.9,15.5-16.4l-0.1-1
			C36.5,29.6,29.3,37.2,29.3,46.4z"/>
	</g>
	<polygon fill="#8E8E91" points="61.7,10.4 61.7,7.5 46.7,11.7 46.7,14.6 	"/>
	<polygon fill="#8E8E91" points="61.7,15.6 61.7,12.7 46.7,17 46.7,19.9 	"/>
	<polygon fill="#8E8E91" points="61.7,20.9 61.7,18 46.7,22.3 46.7,25.2 	"/>
	<path fill="#003976" d="M138.5,62.8v-33h-4.6l-0.1,9.8h-8.7V26.4h45.4v13.2h-9.2l0-9.8H157v33h3.7v3.4h-25.9v-3.4H138.5z"/>
	<path fill="#003976" d="M172.1,66.2v-3.4h4.1v-33h-4.1v-3.4h45.8v13.3h-9.4v-9.9h-13.8v13.4l12.4,0v3.7l-12.4,0v15.9h13.9V51.7h9
		v14.5H172.1z"/>
	<path fill="#003976" d="M221,52.5h8.9c0,7.7,5.3,11.2,11.3,11.2c6,0,8.5-0.4,8.5-3.8c0-8.3-29.3-5.3-29.3-20.9
		c0-9.2,5.9-13.5,23.1-13.5c6.1,0,11.2,1.4,17.1,3.1v11.2h-8.3c0-6.1-4.1-11-10-11c-6,0-9.1,1-9.1,3.4c0,8.3,30.8,6.4,30.8,21
		c0,11.2-4.6,14-23.5,14c-5.7,0-12.9-0.9-19.5-3.2V52.5z"/>
	<g>
		<rect x="62.8" y="44.6" fill="#8E8E91" width="30.9" height="1"/>
	</g>
	<path fill="#003976" d="M130.4,62.9l-17.3-36.5h-13L83.8,62.8h-3.2l0,3.4h10.9l0-3.4h-3.3l4.4-10.2h13.5l4.8,10.3h-5v3.4h27.1v-3.4
		H130.4z M93.9,49.6L98.9,37l5.7,12.6H93.9z"/>
	<g>
		<rect x="46" y="0" fill="#8E8E91" width="1" height="26.3"/>
	</g>
	<g>
		<rect x="0" y="44.6" fill="#8E8E91" width="37.4" height="1"/>
	</g>
	<g>
		<rect x="46" y="66.1" fill="#8E8E91" width="1" height="24.5"/>
	</g>
	<path fill="#003976" d="M64.2,26.4c11.2,0,17.2,0.9,17.2,9c0,9.3-7,9.4-15.1,9.5v0.1c8.8,0.4,16.8,0.8,16.8,10.6
		c0,10.5-11.8,10.5-20.4,10.5H33.9v-3.3h3.5V29.7h-3.5v-3.3H64.2z M54.9,62.9h1.7c5,0,6-1.1,6-7.6c0-7.2-1-8.5-6-8.5h-1.7V62.9z
		 M54.9,43.4h2.3c3.8,0,4.9-1.9,4.9-7.3c0-5-1.1-6.3-4.9-6.3h-2.3V43.4z"/>
	<circle fill="#8E8E91" cx="13.9" cy="42.2" r="1.1"/>
	<circle fill="#8E8E91" cx="14.5" cy="38.5" r="1.1"/>
	<circle fill="#8E8E91" cx="15.6" cy="35" r="1.1"/>
	<circle fill="#8E8E91" cx="17" cy="31.6" r="1.1"/>
	<circle fill="#8E8E91" cx="18.9" cy="28.3" r="1.1"/>
	<circle fill="#8E8E91" cx="21" cy="25.3" r="1.1"/>
	<circle fill="#8E8E91" cx="23.6" cy="22.6" r="1.1"/>
	<circle fill="#8E8E91" cx="26.4" cy="20.2" r="1.1"/>
	<circle fill="#8E8E91" cx="29.4" cy="18.1" r="1.1"/>
	<circle fill="#8E8E91" cx="32.7" cy="16.3" r="1.1"/>
	<circle fill="#8E8E91" cx="36.2" cy="15" r="1.1"/>
	<circle fill="#8E8E91" cx="39.8" cy="14.1" r="1.1"/>
	<circle fill="#8E8E91" cx="43.4" cy="13.5" r="1.1"/>
	<g>
		<path fill="#003976" d="M264.7,27.7c1.2,0,2.2,1,2.2,2.2c0,1.3-1,2.3-2.2,2.3c-1.2,0-2.2-1-2.2-2.3
			C262.5,28.7,263.5,27.7,264.7,27.7L264.7,27.7z M264.7,28c-1,0-1.8,0.9-1.8,1.9c0,1.1,0.8,1.9,1.8,1.9c1,0,1.8-0.8,1.8-1.9
			C266.5,28.9,265.7,28,264.7,28L264.7,28z M264.3,31.2h-0.4v-2.5c0.2,0,0.4-0.1,0.7-0.1c0.4,0,0.6,0.1,0.8,0.2
			c0.1,0.1,0.2,0.3,0.2,0.5c0,0.3-0.2,0.5-0.5,0.6v0c0.2,0,0.4,0.2,0.4,0.6c0.1,0.4,0.1,0.5,0.2,0.6h-0.4c-0.1-0.1-0.1-0.3-0.2-0.6
			c-0.1-0.3-0.2-0.4-0.5-0.4h-0.3V31.2z M264.3,29.8h0.3c0.3,0,0.6-0.1,0.6-0.4c0-0.2-0.2-0.4-0.6-0.4c-0.1,0-0.2,0-0.3,0V29.8z"/>
	</g>
</g>
</svg>
