<?xml version="1.0" encoding="utf-8"?>
<!-- Generator: Adobe Illustrator 16.0.4, SVG Export Plug-In . SVG Version: 6.00 Build 0)  -->
<!DOCTYPE svg PUBLIC "-//W3C//DTD SVG 1.1//EN" "http://www.w3.org/Graphics/SVG/1.1/DTD/svg11.dtd">
<svg version="1.1" id="Layer_1" xmlns="http://www.w3.org/2000/svg" xmlns:xlink="http://www.w3.org/1999/xlink" x="0px" y="0px"
	 width="424px" height="129px" viewBox="0 0 424 129" enable-background="new 0 0 424 129" xml:space="preserve">
<polygon fill="#717073" points="74.847,39.694 74.847,77.837 65.283,77.837 65.283,61.574 50.594,61.574 50.594,77.837 
	40.978,77.837 40.978,39.694 50.594,39.694 50.594,53.472 65.283,53.472 65.283,39.694 "/>
<g>
	<path fill="#717073" d="M96.375,49.635h8.32v28.203h-8.32v-2.702c-0.811,0.918-1.297,1.459-2.809,2.215
		c-1.675,0.865-3.512,1.297-5.349,1.297s-5.241-0.271-7.186-2.972c-1.458-2.053-1.728-3.728-1.728-8.319V49.635h8.374v17.504
		c0,1.243,0,2.486,0.648,3.351c0.486,0.647,1.621,1.404,3.296,1.404c0.486,0,1.621,0,2.863-0.702
		c1.783-1.081,1.837-2.485,1.891-3.998V49.635z"/>
	<path fill="#717073" d="M112.468,68.329c2.269,2.215,5.078,3.889,8.212,3.889c1.999,0,5.025-0.648,5.025-2.755
		c0-0.972-0.595-1.35-1.081-1.621c-1.243-0.648-3.188-0.809-4.808-1.081c-1.243-0.216-2.54-0.485-3.782-0.864
		c-1.729-0.485-3.458-1.187-4.701-2.431c-1.242-1.242-2.107-3.188-2.107-5.294c0-4.647,3.998-9.455,11.886-9.455
		c6.645,0,10.643,2.863,12.588,4.214l-5.132,4.754c-2.647-2.053-5.133-2.809-7.078-2.809c-3.241,0-3.998,1.297-3.998,2.107
		c0,1.62,1.783,1.945,4.485,2.432c5.672,1.026,12.264,2.539,12.264,9.238c0,6.645-6.699,9.887-13.345,9.887
		c-7.834,0-11.886-3.783-13.669-5.457L112.468,68.329z"/>
	<path fill="#717073" d="M145.857,39.64v12.966c1.188-1.188,3.62-3.727,8.104-3.727c2.053,0,4.322,0.594,5.997,1.999
		c2.485,2.106,2.917,4.754,2.917,8.427v18.533h-8.266v-14.75c0-2.27-0.054-3.35-0.378-4.323c-0.81-2.539-3.026-2.809-3.89-2.809
		c-1.459,0-2.702,0.703-3.404,1.621c-1.08,1.458-1.08,3.782-1.08,6.213v14.048h-8.32V39.64H145.857z"/>
	<path fill="#717073" d="M179.838,77.838h9.563V65.357h6.321c5.187-0.108,12.21-0.269,15.506-7.077
		c0.864-1.783,1.296-3.836,1.296-5.943c0-2.594-0.702-5.673-2.161-7.834c-3.349-4.808-8.914-4.808-15.182-4.808h-15.343V77.838z
		 M195.453,46.718c2.755,0,7.564,0,7.564,5.565c0,5.889-4.322,5.997-7.888,5.997h-5.727V46.718H195.453z"/>
	<path fill="#717073" d="M232.096,49.635h8.32v28.203h-8.32v-2.702c-0.81,0.918-1.297,1.459-2.809,2.215
		c-1.675,0.865-3.512,1.297-5.349,1.297s-5.241-0.271-7.186-2.972c-1.459-2.053-1.729-3.728-1.729-8.319V49.635h8.373v17.504
		c0,1.243,0,2.486,0.648,3.351c0.486,0.647,1.621,1.404,3.297,1.404c0.485,0,1.62,0,2.863-0.702c1.782-1.081,1.837-2.485,1.89-3.998
		V49.635z"/>
	<path fill="#717073" d="M252.287,49.743h-7.401v37.874h8.374V76c2.214,1.352,3.835,2.377,6.969,2.377
		c9.671,0,12.21-8.967,12.21-14.748c0-9.401-5.348-14.642-12.264-14.642c-3.133,0-5.672,1.135-7.077,2.485
		c-0.271,0.27-0.541,0.595-0.811,0.919V49.743z M260.013,55.038c3.404,0.865,4.431,4.808,4.431,8.536
		c0,4.43-1.782,8.807-5.836,8.807c-1.351,0-2.755-0.595-3.727-1.621c-1.081-1.189-2-3.403-2-6.969c0-2.647,0.541-5.079,1.729-6.646
		c1.189-1.621,2.757-2.269,4.269-2.269C259.256,54.876,259.635,54.931,260.013,55.038"/>
	<path fill="#717073" d="M283.028,49.743h-7.402v37.874H284V76c2.215,1.352,3.836,2.377,6.97,2.377
		c9.671,0,12.21-8.967,12.21-14.748c0-9.401-5.35-14.642-12.265-14.642c-3.133,0-5.673,1.135-7.078,2.485
		c-0.269,0.27-0.54,0.595-0.809,0.919V49.743z M290.753,55.038c3.403,0.865,4.431,4.808,4.431,8.536c0,4.43-1.782,8.807-5.835,8.807
		c-1.352,0-2.755-0.595-3.728-1.621c-1.081-1.189-1.999-3.403-1.999-6.969c0-2.647,0.54-5.079,1.729-6.646
		c1.188-1.621,2.755-2.269,4.267-2.269C289.996,54.876,290.374,54.931,290.753,55.038"/>
</g>
<rect x="306.637" y="49.581" fill="#717073" width="8.212" height="28.257"/>
<g>
	<path fill="#717073" d="M340.648,67.464c-1.026,1.999-2.594,4.97-7.132,4.97c-4.484,0-6.483-3.511-6.429-7.021h20.15
		c-0.106-3.189-0.322-8.7-3.997-12.643c-3.619-3.891-8.481-4.052-10.156-4.052c-11.13,0-14.479,8.752-14.479,15.559
		c0,9.238,5.89,14.587,14.263,14.587c4.538,0,8.212-1.728,10.644-3.998c1.459-1.351,2.431-2.755,3.404-4.214L340.648,67.464z
		 M327.142,60.225c0.271-1.189,0.541-2.485,1.675-3.728c0.812-0.865,2.216-1.837,4.215-1.837c1.458,0,3.024,0.541,4.051,1.566
		c1.189,1.244,1.405,2.81,1.567,3.999H327.142z"/>
	<path fill="#717073" d="M353.778,68.329c2.269,2.215,5.078,3.889,8.212,3.889c1.999,0,5.024-0.648,5.024-2.755
		c0-0.972-0.595-1.35-1.08-1.621c-1.243-0.648-3.188-0.809-4.81-1.081c-1.242-0.216-2.538-0.485-3.781-0.864
		c-1.728-0.485-3.457-1.187-4.7-2.431c-1.242-1.242-2.108-3.188-2.108-5.294c0-4.647,4-9.455,11.887-9.455
		c6.646,0,10.644,2.863,12.588,4.214l-5.133,4.754c-2.646-2.053-5.131-2.809-7.076-2.809c-3.242,0-3.998,1.297-3.998,2.107
		c0,1.62,1.782,1.945,4.483,2.432c5.674,1.026,12.265,2.539,12.265,9.238c0,6.645-6.698,9.887-13.345,9.887
		c-7.833,0-11.886-3.783-13.669-5.457L353.778,68.329z"/>
	<path fill="#717073" d="M315.289,43.084c0,2.278-2.016,4.126-4.503,4.126c-2.485,0-4.502-1.848-4.502-4.126
		c0-2.28,2.017-4.127,4.502-4.127C313.273,38.958,315.289,40.804,315.289,43.084"/>
	<path fill="#717073" d="M387.585,48.16c-0.014,2.431-1.905,4.362-4.377,4.362c-2.417,0-4.376-1.918-4.376-4.376
		c0-2.404,1.919-4.377,4.39-4.377C385.722,43.769,387.598,45.769,387.585,48.16 M388.017,48.173
		c0.015-2.633-2.025-4.836-4.821-4.836c-2.593,0-4.797,2.04-4.797,4.809c0,2.85,2.298,4.808,4.797,4.808
		C385.91,52.954,388.004,50.833,388.017,48.173 M381.061,45.038v6.133h1.283V48.51c1.337,0,1.405,0.068,1.594,1.325
		c0.068,0.485,0.136,0.944,0.325,1.336h1.471c-0.298-0.553-0.377-1.107-0.5-1.864c-0.134-0.878-0.404-1.026-0.77-1.216
		c0.217-0.081,1.162-0.377,1.162-1.445c0-0.553-0.296-1.215-1.04-1.459c-0.393-0.135-0.811-0.135-1.432-0.149H381.061z
		 M382.344,46.025h0.959c0.364,0,1.04,0,1.04,0.703c0,0.769-0.757,0.757-1.229,0.757h-0.771V46.025z"/>
</g>
</svg>
