<?xml version="1.0" encoding="utf-8"?>
<!-- Generator: Adobe Illustrator 18.1.1, SVG Export Plug-In . SVG Version: 6.00 Build 0)  -->
<svg version="1.1" id="Layer_1" xmlns="http://www.w3.org/2000/svg" xmlns:xlink="http://www.w3.org/1999/xlink" x="0px" y="0px"
	 viewBox="0 0 334.2 72.3" enable-background="new 0 0 334.2 72.3" xml:space="preserve">
<g>
	<g>
		<g>
			<g>
				<rect x="144.8" y="32.3" fill="#2F3349" width="16.3" height="7.8"/>
				<path fill="#2F3349" d="M41.8,0H26l0,0H14.8v72.3h13.6l0,0l0,0l0,0h1.3V47l11.9,0c10.7,0,10.7-9.1,10.7-9.1V10.1
					C52.4,0,41.8,0,41.8,0z M34.6,32.3h-4.7V15.6c0,0,3.8,0,4.6,0s2.6-0.1,2.6,2.4c0,0,0,11,0,11.7C37.2,30.8,37.1,32.3,34.6,32.3z"
					/>
				<path fill="#2F3349" d="M86.4,39.5c0,0,9.6,0.3,9.6-9c0,0,0-11.5,0-15.6S94.8,0,81.6,0H55.9v72.3h16.5V47.7l7.3,0v24.6H96v-2.7
					c0-5.6,0-18.3,0-20.3C96,46.9,94.8,39.5,86.4,39.5 M77.8,32.3h-5.6V15.6h5c0,0,2.4,0,2.4,2.3v11.8
					C79.6,29.7,79.8,32.3,77.8,32.3"/>
				<path fill="#2F3349" d="M122.3,0h-6.9C98.8,0,99.8,13.9,99.8,17.6c0,2.4,0,33.8,0,38.2c0,2.4,0,16.5,15.6,16.5h6.9
					c16.2,0,16.7-13.4,16.7-16.5c0-4.1,0-38.2,0-38.2C138.9,13.1,139.2,0,122.3,0 M120.6,56.8l-2.3,0c-3.1,0-3-3.2-3-3.2
					s0-33.9,0-34.5c0-0.5-0.2-3.5,3.3-3.5h1.5c3.5,0,3.5,3,3.5,3.5c0,0.5,0,34.5,0,34.5S123.6,56.8,120.6,56.8"/>
			</g>
			<g>
				<path fill="#2F3349" d="M246.1,47.7V26.7c0-2.3,0.2-14.7-15.4-14.5H224c-15.6,0.2-14.8,12.6-14.7,14.9c0,2.3,0,31.1,0,31.1
					s-0.1,14.3,13.6,14.2H233c13.8-0.1,13-14.5,13-14.5v-6.1h-14.7V57c0,2.4-2,2.4-2,2.4l-3,0.1c-2.1,0-2.5-2.2-2.5-2.2v-9.5H246.1z
					 M223.8,36.2c0,0,0-5.5,0-7.3s0.7-2.9,2.5-2.9c0.7,0,2.3,0,2.8,0c1.4,0,2.2,0.7,2.2,2.9v7.3H223.8z"/>
				<path fill="#2F3349" d="M311.9,34.1h13.4c0-2.6,0-6.5,0-7c0-2.3,0.9-14.7-14.7-14.9H304c-15.6-0.2-15.4,12.2-15.4,14.5
					c0,0.5,0,2.6,0,5.4c0,0-0.5,6.8,4.1,9.7c0,0,15.3,8.9,16.7,9.6c1.3,0.7,1.7,1.5,1.7,3.4v2.2c0,2.4-2,2.3-2,2.3h-5.1
					c-2.1-0.1-2.1-2.3-2.1-2.3v-6.9h-13.2c0,3.7,0,7.5,0,7.5s-0.8,14.4,12.9,14.6h10.1c12.5,0,13.6-8.8,13.6-14.1s-0.1-2.6,0-6.2
					c0.1-6.3-5.2-9.2-5.2-9.2l-14.9-8.5c-1.7-1.2-2.6-1.9-2.6-2.9c0,0,0-0.7,0-2c0-2.3,0.6-3.3,3.1-3.3c1,0,3.4,0,3.4,0
					c2.2,0,2.9,1,2.9,3.2C311.9,30.8,311.9,34.1,311.9,34.1z"/>
				<path fill="#2F3349" d="M270.3,12.3l-6,0c-15.6,0-15.2,12.4-15.1,14.6c0,2.3,0,31.1,0,31.1s-0.6,14.3,13.2,14.4h10.1h12.7V0
					h-14.8L270.3,12.3z M271.5,58.2l-4.1,0c-3.9-0.1-3.6-3.5-3.6-3.5l0.1-25.5c0-3.3,3.4-3.1,3.4-3.1l4.2,0V58.2z"/>
				<polygon fill="#2F3349" points="208.8,0 191.3,0 183.8,26.9 182.9,26.9 182.9,0 166.9,0 166.9,72.3 182.9,72.3 182.9,46.2 
					183.6,46.2 191.8,72.3 208.4,72.3 197.7,35.8 				"/>
				<g>
					<path fill="#2F3349" d="M330,20.6c-2.3,0-4.2-1.8-4.2-4.2c0-2.4,1.9-4.2,4.2-4.2c2.3,0,4.2,1.8,4.2,4.2
						C334.2,18.8,332.3,20.6,330,20.6z M330,13.1c-1.7,0-3.1,1.3-3.1,3.2c0,1.9,1.4,3.2,3.1,3.2c1.7,0,3.1-1.3,3.1-3.2
						C333.1,14.5,331.7,13.1,330,13.1z M329.1,17v1.7h-1v-4.5h2c1.1,0,1.7,0.6,1.7,1.5c0,0.7-0.4,1.1-0.9,1.3l1.1,1.8h-1.1l-1-1.6
						H329.1z M330.3,15.1h-1.2v1h1.2c0.4,0,0.6-0.2,0.6-0.5C330.9,15.3,330.7,15.1,330.3,15.1z"/>
				</g>
			</g>
		</g>
		<g>
			<rect x="0" y="0" fill="#B81B36" width="14.8" height="72.3"/>
		</g>
	</g>
</g>
</svg>
