<?xml version="1.0" encoding="utf-8"?>
<!-- Generator: Adobe Illustrator 16.0.4, SVG Export Plug-In . SVG Version: 6.00 Build 0)  -->
<!DOCTYPE svg PUBLIC "-//W3C//DTD SVG 1.1//EN" "http://www.w3.org/Graphics/SVG/1.1/DTD/svg11.dtd">
<svg version="1.1" id="Layer_1" xmlns="http://www.w3.org/2000/svg" xmlns:xlink="http://www.w3.org/1999/xlink" x="0px" y="0px"
	 width="792px" height="612px" viewBox="0 0 792 612" enable-background="new 0 0 792 612" xml:space="preserve">
<g>
	<path fill="#003168" d="M225.457,374.175c2.652,8.709,9.208,13.683,17.413,13.683c5.142,0,8.292-2.408,8.292-5.807
		c0-4.974-5.637-5.302-14.838-8.124c-6.968-2.071-11.615-3.733-13.766-5.39c-4.482-3.319-6.553-7.298-6.553-12.523
		c0-10.943,8.789-18.658,22.639-18.658c6.717,0,12.603,1.244,18.408,4.148l1.494-2.822h7.964v19.323h-9.375
		c-1.823-7.877-6.884-11.694-15.341-11.694c-5.225,0-8.541,2.738-8.541,5.887c0,4.4,4.727,4.562,12.771,6.387
		c15.593,3.564,23.219,8.291,23.219,19.322c0,11.029-8.869,18.41-23.547,18.41c-6.473,0-12.522-1.41-18.579-4.48l-2.071,3.07h-7.628
		v-20.731H225.457z"/>
	<path fill="#003168" d="M328.367,359.748h-8.788c-0.996-4.643-2.075-7.881-4.146-9.955c-2.739-2.732-6.381-2.899-11.192-2.899
		c-0.587,0-1.08,0-1.659,0h-7.136v15.255h2.159c5.141,0,6.797-2.236,6.797-8.287c0-0.169,0-0.335,0-0.502h6.965v25.377h-6.965
		c-0.161-7.049-1.073-9.287-6.717-9.287h-2.239v17.329h8.128c0.583,0,1.163,0,1.739,0c5.557,0,9.205-0.161,11.199-3.068
		c1.907-2.817,2.734-6.713,3.066-12.022h9.124v22.971h-58.71v-7.88h2.815c4.397,0,4.477-0.993,4.477-4.395c0-0.168,0-0.246,0-0.415
		v-30.346c0-3.984-0.331-4.729-4.558-4.729h-2.735v-7.876h58.375V359.748z"/>
	<path fill="#003168" d="M357.143,361.899v-14.839h3.315c5.805,0,8.209,1.988,8.209,7.213c0,5.307-2.652,7.626-8.457,7.626H357.143z
		 M357.143,386.861V369.2h3.482c6.469,0,9.536,2.655,9.536,8.624c0,6.553-2.823,9.037-9.456,9.037H357.143z M331.518,394.658h32.589
		c16.833,0,24.791-3.734,24.791-15.254c0-7.549-4.723-12.112-14.346-14.187c7.548-2.405,11.531-7.048,11.531-13.106
		c0-9.28-6.965-13.094-21.063-13.094h-33.501v7.876h2.735c4.229,0,4.562,0.745,4.562,4.729v30.346c0,0.169,0,0.247,0,0.415
		c0,3.401-0.084,4.395-4.475,4.395h-2.822V394.658z"/>
	<path fill="#003168" d="M421.077,368.781h-9.788l4.733-16.83L421.077,368.781z M419.002,394.658h33.754v-7.88h-2.904
		c-4.068,0-4.562-1.489-5.97-5.886l-13.021-41.875h-20.147l-14.6,42.039c-1.322,3.816-3.065,5.722-6.049,5.722h-2.075v7.88h24.875
		v-7.88h-2.731c-2.571,0-3.896-0.581-3.896-1.577c0-0.99,0.327-1.986,0.739-3.15l1.743-5.302h15.009l1.994,5.966
		c0.245,0.832,0.332,1.662,0.332,2.406c0,1.657-1.323,1.657-4.562,1.657h-2.49V394.658z"/>
	<path fill="#003168" d="M480.035,365.055h30.766v7.881h-1.99c-4.479,0-4.559,0.906-4.559,4.723v17.576h-10.119l-1.825-3.398
		c-5.472,3.07-10.945,4.645-16.502,4.645c-17.001,0-27.779-10.945-27.779-29.605c0-17.66,11.529-29.604,29.11-29.604
		c5.969,0,10.775,1.242,14.921,3.982l1.332-3.068h8.868v22.889h-9.699c-1.828-10.371-5.392-15.262-12.191-15.262
		c-7.877,0-10.781,6.803-10.781,20.9c0,14.26,2.904,21.145,10.701,21.145c5.466,0,6.218-1.576,6.218-5.97v-4.229
		c0-3.982-0.414-4.723-4.643-4.723h-1.827V365.055z"/>
	<path fill="#003168" d="M544.882,345.812c7.715,0,10.701,6.885,10.701,21.148c0,14.179-2.986,20.896-10.781,20.896
		c-7.8,0-10.699-6.885-10.699-21.145C534.103,352.615,537.089,345.812,544.882,345.812z M512.541,366.875
		c0,18.159,11.942,29.441,32.178,29.441c20.4,0,32.339-11.195,32.339-29.441c0-18.24-11.938-29.52-32.176-29.52
		C524.483,337.355,512.541,348.635,512.541,366.875z"/>
	<path fill="#003168" d="M586.856,345.688c0-4.007,3.038-7.049,6.925-7.049c3.812,0,6.851,3.042,6.851,7.049
		c0,4.082-3.038,7.085-6.851,7.085C589.895,352.773,586.856,349.771,586.856,345.688z M593.781,354.189
		c4.588,0,8.556-3.586,8.556-8.501c0-4.871-3.968-8.453-8.556-8.453c-4.665,0-8.624,3.582-8.624,8.453
		C585.157,350.604,589.116,354.189,593.781,354.189z M591.978,346.359h1.721l2.558,4.244h1.662l-2.795-4.309
		c1.458-0.171,2.547-0.941,2.547-2.693c0-1.92-1.148-2.784-3.437-2.784h-3.724v9.786h1.468V346.359z M591.978,345.107v-3.027h2.036
		c1.026,0,2.131,0.223,2.131,1.438c0,1.492-1.131,1.59-2.38,1.59H591.978z"/>
</g>
</svg>
