<?xml version="1.0" encoding="utf-8"?>
<!-- Generator: Adobe Illustrator 16.0.4, SVG Export Plug-In . SVG Version: 6.00 Build 0)  -->
<!DOCTYPE svg PUBLIC "-//W3C//DTD SVG 1.1//EN" "http://www.w3.org/Graphics/SVG/1.1/DTD/svg11.dtd">
<svg version="1.1" id="Layer_1" xmlns="http://www.w3.org/2000/svg" xmlns:xlink="http://www.w3.org/1999/xlink" x="0px" y="0px"
	 width="446px" height="118px" viewBox="0 0 446 118" enable-background="new 0 0 446 118" xml:space="preserve">
<g>
	<path d="M388.709,23.246c4.956-0.102,9.405,1.854,13.278,5.326c5.466,4.907,5.852,8.857,10.571,11.189
		c3.724,1.837,9.732,3.905,12.761,7.455c4.186,4.9,5.365,11.129,2.349,18.126c-3.013,6.991-6.111,9.858-7.152,10.821
		c-0.948,0.888-1.325,0.976-1.834,0.511c-0.51-0.456-0.396-0.886,0.104-1.531c0.333-0.431,3.332-4.357,2.8-9.098
		c-0.678-6.009-2.636-6.298-2.031-8.161c0.519-1.633,1.927-1.219,1.832-3.072c-0.134-2.501-1.242-4.558-5.171-5.835
		c-3.934-1.277-6.007-1.431-12.645-6.259c-7.027-5.1-12.492-9.371-20.97-6.659c-8.478,2.705-12.013,7.633-13.29,10.847
		c-1.277,3.219-1.215,4.933-0.456,6.946c0.571,1.543,1.019,3.077-0.414,4.289c-2.214,1.877-4.681,3.737-4.914,11.012
		c-0.067,2.065,0.356,4.206,0.571,5.125c0.206,0.858,0.409,1.381-0.049,1.631c-0.46,0.255-0.869,0.358-1.938-1.171
		c-1.073-1.534-5.733-9.037-4.808-16.136c0.825-6.389,3.04-8.494,6.742-12.24c2.052-2.084,4.706-4.451,7.51-10.893
		C374.903,27.797,380.953,23.403,388.709,23.246"/>
	<path d="M379.142,56.534c2.23,0.671,3.861,2.964,4.292,4.407c0.336,1.11,0.725,3.175-0.615,4.681
		c-1.157,1.301-2.357,2.622-3.145,5.104c-0.571,1.807-0.777,3.679-0.824,7.552c-0.041,3.082,0.077,6.305,1.127,9.098
		c0.473,1.254,0.348,1.502,0.059,1.691c-0.385,0.252-0.748,0.326-1.71-0.787c-0.926-1.068-5.146-6.342-6.456-11.677
		c-1.013-4.111-1.138-7.006-0.909-10.722c0.22-3.724,0.743-5.804,2.587-7.483C375.296,56.813,377.344,55.995,379.142,56.534"/>
	<path d="M394.258,57.563c2.32-0.271,3.75,1.717,4.188,2.487c0.933,1.654,2.396,5.439,2.27,9.484
		c-0.106,3.463-1.117,9.558-2.668,12.945c-1.548,3.387-2.237,4.613-3.572,6.492c-1.332,1.876-3.137,3.604-3.817,4.184
		c-0.689,0.578-1.337,0.865-1.73,0.321c-0.403-0.539,0.104-1.15,0.394-1.548c0.291-0.394,1.464-2.3,2.163-5.483
		c0.544-2.453,1.428-5.586,0.15-10.507c-0.975-3.729-1.796-5.392-2.638-7.526c-0.627-1.593-1.257-3.778-0.377-6.079
		C389.26,60.666,391.634,57.874,394.258,57.563"/>
	<path d="M408.699,56.12c2.136-0.525,3.661,0.587,4.369,1.589c0.693,1.002,2.346,5.19,2.32,8.143
		c-0.027,2.95-0.032,5.879-1.432,10.081c-1.308,3.931-2.784,5.911-4.29,7.575c-1.272,1.399-2.233,2.149-2.728,2.473
		c-0.503,0.326-1.019,0.438-1.407-0.064c-0.336-0.439-0.308-0.858,0.407-1.585c0.509-0.521,1.918-1.847,2.381-3.854
		c0.49-2.141,0.46-5.363-0.104-8.332c-0.358-1.864-1.27-4.172-2.836-6.592c-0.914-1.437-1.284-3.096-0.877-4.977
		C404.936,58.57,406.381,56.691,408.699,56.12"/>
	<path fill="#DE2027" d="M350.472,31.289v-1.733h1.142c0.58,0,1.198,0.13,1.198,0.819c0,0.858-0.634,0.914-1.335,0.914H350.472z
		 M352.254,31.962c0.81-0.102,1.43-0.537,1.43-1.536c0-1.1-0.644-1.583-1.946-1.583h-2.094v5.576h0.828v-2.415h0.961l1.457,2.415
		h0.931L352.254,31.962z M351.485,35.662c-2.184,0-3.89-1.717-3.89-4.043c0-2.293,1.706-4.021,3.89-4.021
		c2.161,0,3.866,1.728,3.866,4.021C355.352,33.945,353.646,35.662,351.485,35.662 M351.485,26.791c-2.628,0-4.852,2.052-4.852,4.828
		c0,2.8,2.224,4.848,4.852,4.848c2.601,0,4.827-2.048,4.827-4.848C356.312,28.843,354.086,26.791,351.485,26.791 M236.4,48.182
		c-0.216,2.697-2.534,4.965-4.53,4.965h-3.557V37.376h3.665c3.776,0,4.507,3.473,4.53,4.577
		C236.566,44.486,236.595,45.742,236.4,48.182 M249.454,85.673V70.014c-0.215-10.034-4.745-11.027-6.578-12.018
		c0.646-0.772,6.578-1.879,6.687-11.687v-5.292c-0.323-14.887-12.797-14.056-15.536-14.227h-19.311v64.505h13.598V63.729h3.88
		c2.969,0,3.943,2.925,3.883,7.108l0.005,14.562c0,1.927,0.213,4.407,1.021,5.896h13.434
		C249.454,88.815,249.508,87.771,249.454,85.673 M100.815,77.545c0,2.281-1.812,4.135-4.042,4.135c-2.235,0-4.046-1.854-4.046-4.135
		V40.272c0-2.285,1.812-4.134,4.046-4.134c2.23,0,4.042,1.849,4.042,4.134V77.545z M96.983,25.801c-9.672,0-17.73,6.798-17.73,15.99
		v34.516c0,9.19,7.628,15.981,17.302,15.981c9.671,0,17.723-6.874,17.723-16.066V41.791
		C114.278,32.599,106.655,25.801,96.983,25.801 M181.129,26.791v64.505h30.856V79.275H194.94V63.838h13.593V52.371h-13.378V38.479
		h14.892V26.791H181.129z M270.907,26.791v64.505h13.596V58.547l8.63,32.749h15.535V26.791h-13.596v33.077l-9.057-33.077H270.907z
		 M312.675,26.791v64.505h30.842V79.275H326.48V63.838h13.587V52.371h-13.371V38.479h14.877V26.791H312.675z M141.504,26.791
		l9.822,64.505h17.258l9.922-64.505h-14.457l-3.882,43.003l-4.528-43.003H141.504z M117.948,26.791v64.505h29.236V79.498h-15.532
		V26.791H117.948z M21,26.791l9.602,64.505h16.617l2.909-32.974l3.239,32.974h16.828l8.954-64.505H65.127L60.81,70.9l-4.098-44.109
		H43.55L39.45,70.9l-4.1-44.109H21z M253.084,91.296h13.812V26.793h-13.812V91.296z"/>
</g>
</svg>
