<?xml version="1.0" encoding="utf-8"?>
<!-- Generator: Adobe Illustrator 18.1.1, SVG Export Plug-In . SVG Version: 6.00 Build 0)  -->
<svg version="1.1" id="Layer_1" xmlns="http://www.w3.org/2000/svg" xmlns:xlink="http://www.w3.org/1999/xlink" x="0px" y="0px"
	 viewBox="511 -149.4 481.7 317.4" enable-background="new 511 -149.4 481.7 317.4" xml:space="preserve">
<path fill="#6A6158" d="M756.8-65.2c-0.3,0.5-0.3,1.4,0.7,1.4c6.1,0.1,12.1,0.3,18.1,0.5c110.8,5.5,197.3,49.9,197.3,103.9
	c0,57.7-98.6,104.4-220.3,104.4c-121.7,0-220.3-46.8-220.3-104.4c0-12.2,3-25.5,11.1-36.4c0,0,0.3-0.5-0.3-0.9
	c-0.6-0.4-1.1,0.2-1.1,0.2c-11.9,13.6-18.5,28.5-18.5,44.2c0,62.5,104.8,113.2,234.1,113.2s234.1-50.7,234.1-113.2
	c0-59.6-95.2-108.5-216.1-112.9c-6-0.2-12-0.3-18.1-0.3C757.6-65.5,757-65.5,756.8-65.2"/>
<path fill="#6A6158" d="M943.2,17.5c0,2.4-1.7,4-3.7,4v0c-2.1,0-3.7-1.6-3.7-4c0-2.4,1.7-4,3.7-4C941.5,13.5,943.2,15.1,943.2,17.5
	 M944.7,17.5c0-3.3-2.5-5.2-5.2-5.2c-2.8,0-5.2,1.9-5.2,5.2c0,3.3,2.4,5.2,5.2,5.2C942.3,22.7,944.7,20.8,944.7,17.5 M938.7,18h0.6
	l1.3,2.3h1.4l-1.4-2.4c0.7-0.1,1.4-0.4,1.4-1.5c0-1.3-0.9-1.7-2.3-1.7h-2.1v5.6h1.2L938.7,18L938.7,18z M938.7,17v-1.3h0.8
	c0.4,0,1.1,0,1.1,0.6c0,0.6-0.3,0.7-0.8,0.7H938.7z"/>
<path fill="#6A6158" d="M908.6,25.1c-14.1,0-23.1,14.7-23.1,27.8c0,13,9,27.8,23.1,27.8c14,0,23.1-14.7,23.1-27.8
	C931.7,39.9,922.7,25.1,908.6,25.1 M944.9,52.8c0,19.5-13.9,35.3-36.2,35.3c-22.3,0-36.2-15.8-36.2-35.3c0-19.5,16.2-35.3,36.2-35.3
	C928.7,17.5,944.9,33.3,944.9,52.8"/>
<path fill="#6A6158" d="M673.4,0.3c0,0-24.7-19.6-42.1-22c-16.9-2.4-32.4,1.8-47.8,15.7c-16.5,14.7-28.4,48-6.4,78.1
	C595.1,97.1,631,98,651.5,87.7C671.9,77.3,677,66.9,677,66.9l0.2-12.5c0,0-10.3,21-37.4,26.2c-21.6,4-44.8-6.7-53.9-26.8
	c-7.4-16.3-2.5-43.9,11.2-55.7c13.8-12,28.8-15.7,44.9-9c16.3,6.6,19.4,19.3,17.8,25.3c-2.6,9.2-3.8,9.3-3.8,9.3l2.4,1.5L673.4,0.3z
	"/>
<path fill="#6A6158" d="M873,31.2c0,0-2,3.8-3.5,6.8c-1.6,3.3-3.5,8.6-3.5,8.6h-1.8c0,0,0.9-7.3-2.2-12.6c-3.3-4.9-9-9-14.6-9
	c-8,0-15.2,3.7-20.4,12.1c-5.7,9.7-4.8,18.7-2.8,25.5c3.3,11.3,14.5,18,25.8,16.7c15.4-1.5,22-10.6,22-10.6l2.7,4.8
	c0,0-3.1,4-8.8,8.1c-4.6,3.3-11.4,7.1-23.7,6.6c-14.7-0.6-24-7.7-28.8-18.3c-4.4-9.4-5.7-24.5,2.9-37.5c8.1-11.5,18.8-14.6,29-14.5
	c10.3,0,19.1,6.4,21.6,8.2C870.4,28.2,873,31.2,873,31.2"/>
<path fill="#6A6158" d="M769.2,79.2c-6.4-2.8-10-8.5-9.2-15.9c0.3-3,1.4-6.2,4-9.5c8.8-11.5,28.8-4.7,28.8-4.7l0,26.1
	C792.9,75.1,778.4,82.8,769.2,79.2 M815.4,79.4c0,0-2.9,3.1-5.3,2.4c-2.6-0.7-3.1-2.5-3.3-3.8c-0.1-0.8-1.6-31.3-1.8-33.4
	c0-16-12.3-27.5-27.5-27.5c-3.7,0-7.1,0.7-10.3,2c-0.8,0.3-1.7,0.7-2.6,1.2c-6.5,3-13.7,6.6-13.7,6.6l6.2,9.1c0,0,1.3-1.5,3.5-3.5
	c1.4-1.3,4.5-4.8,9.6-6.7c1.8-0.7,3.9-1,6-1c11.4,0,16.7,7.4,16.7,16.6l0,1.6c0,0-12.7-2.3-21.6-1.1c-7.7,1.1-17.8,3.5-22.5,13.7
	c-1.1,2.4-1.8,4.9-2.2,7.7c-1.1,8.4,2,17.6,11.5,22.5c9.4,4.8,16.5,3.5,23.1,1.7C786.4,85.8,794,81,794,81s2.6,6.8,7.9,7.1
	c4.8,0.3,7.7-0.9,10.3-2.6c2.7-1.8,4.8-4.8,4.8-4.8L815.4,79.4z"/>
<path fill="#6A6158" d="M746.4,87C746.4,87,746.4,87,746.4,87L746.4,87L746.4,87c-0.6-0.2-3.2-1.3-3.9-3.8c-0.4-0.9-0.3-7.2-0.3-7.2
	s-0.1-20.9,0-27.6c0.4-9.5-1.5-14.9-2.9-18.3c-1.3-2.6-7-11.9-21.1-12.3c-13.2-0.4-23.3,14.5-23.3,14.5l0-49.7c0,0,0.4-4.8-1.3-7
	c-0.7-1.1-1.8-1.5-1.8-1.5L677.4-2.6c0,0,2,0,3.3,1.1c1.3,1.5,1.1,5.3,1.1,5.3l0,72.2c0,0,0,6.3-0.3,7.2c-0.7,2.7-3.9,3.8-3.9,3.8h0
	v1.8h21.5V87h0c0,0-3.2-1.1-3.9-3.8c-0.4-0.9-0.3-7.2-0.3-7.2l0-27.6c0,0-0.1-2.1,5.3-9.4c3.7-4.9,4.5-5.9,8.8-9.7
	c2.8-2.5,9.9-5.7,15.4-0.7c5.3,4.9,4.8,15.4,4.8,15.4v32c0,0,0,6.2-0.4,7.2c-0.7,2.5-3.4,3.6-3.8,3.8h-0.1v0l0,0h0v1.8h21.6
	L746.4,87L746.4,87L746.4,87L746.4,87z"/>
<path fill="#E4B023" d="M679.3-35.8c-7.3,2.3-16.2,0.8-16.2,0.8c4.8-1,15.6-9.3,16.4-10.2c0.8-0.8,1.9-2.5,1.2-3.1
	c-0.6-0.6-1.3,0.1-1.3,0.1c-5,4.4-16,8.5-16,8.5c1.6-1.2,3.7-3,9.5-11.3c5.9-8.3,0.5-10.3,0.5-10.3c-21.9-4.9-39.8,8-42.6,10.2
	c-0.2,0.2-0.3,0.4-0.3,0.4c-0.8,2.9,2.9,2.3,2.9,2.3c10.6-2.3,18.7-1,22.2-0.8c3.5,0.2,2.5,3.5,0.6,7.3c-1.9,3.7-8.7,8.6-11.4,9.8
	c-2.4,1-1.1,2.2-1.1,2.2c0.2,0.2,0.7,0.1,1,0.1c0.2,0,0.4,0,0.7,0c8.7,1,21,10.7,21,10.7s2.3,2.4,2.7,0.2c0.5-3.1-8.7-10.6-8.7-10.6
	c12.2,0.4,18.9-3.5,18.9-3.5s1.9-0.8,1.7-1.9C680.8-36,679.3-35.8,679.3-35.8"/>
<path fill="#E4B023" d="M773.7-34.5c-5-9.1-12.5-11-12.5-11c3.2,0.1,6.8-4.5,7.3-5.1c0.4-0.6,0.7-1.7,0.3-2
	c-0.4-0.3-1.1,0.4-1.1,0.4c-5.5,5.7-14.8,4-21.3,1.1c-6.4-2.9-14-2.7-14-2.7s10.5-7,11.7-15.7c1.2-8.7-2.5-6.2-2.5-6.2
	c-5.7,7.9-11.9,8.2-13.2,8.5c-1.2,0.3-5.9,0.5-6.6,3.3c-0.7,2.8-4,6.6-7.7,9.3c-2.6,1.9-1,3.8-1,3.8c1.7,2.2,4.9,3.7,6.3,4.1
	c1.4,0.3,4.4-2,18.4,0.1c14,2.1,22.8,18.7,23.1,21.2c0.1,1,0.4,1.5,0.6,1.8c0.2,0.1,0.6,0.4,0.8,0c2.7-7.6-3.3-16.5-3.3-16.5
	c9.1,1.7,12.2,5.7,12.6,5.9c0.3,0.2,1.3,1,1.8,0.7C773.9-33.7,773.7-34.5,773.7-34.5"/>
<path fill="#E4B023" d="M785.1-139.5c-0.4-5.5-4.1-7-6-7.5c-0.7-0.1-1.5-0.1-2,0c-19.2,3-29,18.7-29.1,18.8
	c-2.7,3.6-6,13.9-7.6,19.2l0,0c-1.1,4.2-2.8,6.6-2.8,6.6c-4.9,7.7-20.5,25.8-55.4,18.1c-52.2-11.5-82,29.3-82.3,29.7
	c-21,26.2-41.4,40.3-60.5,41.9c-15.6,1.2-24.5-6.7-24.6-6.8c-0.2-0.2-0.4-0.1-0.6,0c-0.2,0.2-0.2,0.4,0,0.6
	c7.4,8.1,16.5,12.3,27,12.5c29.4,0.7,60.8-30.2,61.1-30.6c49.3-45.4,90.4-34.6,90.8-34.4c43.4,8.3,57.3-15.5,60.5-22.8h0
	c0,0,0,0,0-0.1c0.1-0.3,0.2-0.6,0.3-0.8c0.3-0.7,0.7-1.3,1.3-1.8c2.4-2,5.1-3.9,7.8-5.7c4.8-3.3,9.7-6.6,13-11.1
	c5.5-7.4,9.2-18.9,9.2-24.9C785.2-138.9,785.2-139.2,785.1-139.5"/>
<path fill="#E4B023" d="M642.6-112.7c-5-3.4-23.7,10-23.7,10s-1,0.6-1,0.4s0.5-1.2,0.5-1.2c3.1-5.4,7.9-12.4,6.1-13.9
	c-1.9-1.5-9.1,9.3-10,11c-0.9,1.7-1.4,1.2-1.4,1.2c0-5.4-1.2-10.5-1.9-12c-0.6-1.3-1.1-1.3-1.6-1.3c-0.5,0-0.6,0.8-0.6,0.8
	c1.7,11.3-4.2,22.5-4.9,23.2c-0.9,1-0.1,1.5-0.1,1.5c6.3,2.3,19.8-5.2,24.4-3.5c4.6,1.7-6,14.4-6,14.4c-0.1,0.1-0.2,0.3-0.2,0.4
	c0,0.1-0.1,0.2-0.1,0.3c0,0.6,0.4,1.1,1,1c0.2,0,0.3,0,0.4-0.1c4.9-1.3,14.1-7.4,15.4-9C640.3-91.2,647.6-109.3,642.6-112.7"/>
<path fill="#E4B023" d="M734.4-127.6c-0.8-0.4-1.2,0.6-1.2,0.6c-3.2,6.6-8.4,7-8.4,7c7.4-7.2,4.5-16,4.2-16.6
	c-0.2-0.3-0.5-0.2-0.8-0.1c-0.2,0.1-0.2,0.6-0.2,0.6c0,8.3-7.4,13.7-7.4,13.7c1.3-8.6-1.4-11.6-1.9-12.3c-0.7-0.9-1,0-1,0
	c0.6,15.7-4,20.2-11.2,23.9c-7.3,3.6-14.8,4.9-15.5,7.7c-0.8,2.8,1.4,3.3,10,5.7c5.4,1.5,7.5,3.7,8.3,5.1c0,0,0,0,0,0
	c0.2,0.3,0.3,0.8,0.4,1.3c0,0.2,0.2,0.4,0.6,0.5c0,0,0,0,0,0c0.9,0.1,2.9-0.4,6.6-3.7c5.3-4.8,3.5-7.7,3.5-7.7c-3-4.7-9-4.6-9-4.6
	c17.7-6.3,22-17.8,22.5-18.7C734.4-126.1,734.8-127.3,734.4-127.6"/>
</svg>
