<?xml version="1.0" encoding="utf-8"?>
<!-- Generator: Adobe Illustrator 16.0.4, SVG Export Plug-In . SVG Version: 6.00 Build 0)  -->
<!DOCTYPE svg PUBLIC "-//W3C//DTD SVG 1.1//EN" "http://www.w3.org/Graphics/SVG/1.1/DTD/svg11.dtd">
<svg version="1.1" id="Layer_1" xmlns="http://www.w3.org/2000/svg" xmlns:xlink="http://www.w3.org/1999/xlink" x="0px" y="0px"
	 width="350.47px" height="90.69px" viewBox="0 0 350.47 90.69" enable-background="new 0 0 350.47 90.69" xml:space="preserve">
<g>
	<path fill-rule="evenodd" clip-rule="evenodd" fill="#1184C7" d="M26.526,0.357c0.306,0,0.61,0,0.915,0
		c1.514,0.178,2.92,0.627,4.211,1.076c1.314,0.461,2.423,1.088,3.387,1.901c0.983,0.831,1.82,1.679,2.025,3.26
		c0.188,1.454,0.094,3.327-0.033,5.03c1.477-2.508,3.01-5.107,4.686-7.405c0.867-1.188,1.945-2.233,3.67-2.405
		c2.006-0.199,3.412,0.427,4.877,1.107c0.699,0.326,1.357,0.645,2.025,1.013c0.678,0.378,1.316,0.739,1.77,1.268
		c0.92,1.065,1.422,2.544,1.9,4.144c0.234,0.789,0.477,1.575,0.602,2.438c0.385,2.688,0.172,5.795-0.064,8.578
		c-0.158,1.849-0.352,3.703-0.537,5.537c-0.754,7.351-1.941,14.156-3.514,20.732c-0.375,1.569-0.869,3.311-1.615,4.431
		c-0.803,1.206-2.18,2.134-4.111,1.899c-0.898-0.111-1.494-0.453-2.09-0.949c-0.557-0.463-1.025-0.992-1.203-1.806
		c-0.283-1.28-0.145-2.956-0.062-4.399c0.244-4.357,0.781-8.473,1.232-12.469c0.633-5.611,1.012-11.145,1.426-16.869
		c-2.932,5.904-5.766,12.119-8.416,18.451c-1.302,3.098-2.593,6.37-3.768,9.717c-0.301,0.848-0.605,1.68-0.855,2.531
		c-0.26,0.89-0.287,1.848-0.477,2.881c-0.166,0.908-0.578,1.576-1.201,2.15c-0.61,0.561-1.279,1.036-2.152,1.205
		c-1.042,0.195-1.996-0.131-2.723-0.538c-0.771-0.433-1.377-0.939-1.932-1.427c-0.602-0.529-1.16-1.1-1.705-1.676
		c-0.559-0.588-0.996-1.303-1.235-2.121c-0.566-1.92,0.235-3.994,0.821-5.477c0.643-1.615,1.072-3.566,1.426-5.285
		c0.774-3.791,1.351-7.592,1.927-11.52c0.584-3.949,0.874-8.084,0.854-12.598c-0.351,0.39-0.617,0.854-0.914,1.299
		c-2.091,3.133-4.061,6.5-5.73,10.128c-0.932,2.026-1.815,4.194-2.752,6.33c-0.462,1.054-0.919,2.087-1.456,3.069
		c-0.55,1.01-1.056,2.002-1.425,3.102c-1.116,3.326-1.486,7.529-2.245,11.362c-0.257,1.287-0.554,2.576-1.141,3.386
		c-0.622,0.86-1.521,1.588-2.628,1.898c-1.182,0.336-2.744,0.105-3.86-0.348c-2.114-0.852-3.289-2.777-4.431-4.621
		c0-0.049,0-0.105,0-0.158c0.15-0.795,0.436-1.788,0.697-2.656c0.767-2.569,1.61-5.209,2.311-7.756
		c0.466-1.689,0.932-3.486,1.235-5.443c0.293-1.912,0.498-3.98,0.665-6.045c0.496-6.244,0.697-12.682,0.697-19.369
		c0-1.037-0.032-2.178,0.188-3.164c0.185-0.832,0.665-1.744,1.421-1.931c0.697-0.171,1.638,0.122,2.313,0.317
		c0.67,0.193,1.309,0.523,1.835,0.758c0.588,0.261,1.207,0.535,1.807,0.791c1.265,0.55,2.245,1.23,2.943,2.279
		c0.357,0.54,0.648,1.131,0.661,1.93c0.034,1.639-0.303,3.016-0.442,4.781c0.062,0.102,0.106-0.047,0.126-0.064
		c0.185-0.164,0.343-0.357,0.474-0.537c1.345-1.824,2.498-3.682,3.798-5.539c1.076-1.531,2.148-3.152,3.357-4.621
		C24.755,1.131,25.353,0.479,26.526,0.357z"/>
	<path fill-rule="evenodd" clip-rule="evenodd" fill="#1184C7" d="M93.4,13.868c0,0.148,0,0.296,0,0.444
		c-0.084,0.475-0.275,0.908-0.504,1.33c-0.215,0.391-0.459,0.752-0.6,1.201c-0.293,0.908-0.406,2.061-0.479,3.165
		c-0.15,2.317-0.176,4.606-0.285,6.995c-0.207,4.586-0.191,9.441-0.41,14.115c-0.055,1.176-0.062,2.369-0.062,3.544
		c0,1.198-0.064,2.399-0.064,3.575c0,7.277-0.707,13.984-1.643,20.195c-0.33,2.163-0.602,4.26-1.078,6.17
		c-0.961,3.874-2.721,6.988-4.904,9.65c-2.217,2.704-4.701,4.905-8.611,5.919c-1.941,0.507-4.363,0.678-6.613,0.349
		c-2.861-0.416-5.645-1.779-7.848-3.068c-0.682-0.396-1.707-0.887-2.152-1.489c-0.129-0.171-0.244-0.46-0.225-0.725
		c0.08-0.923,1.232-0.948,2.154-1.016c0.684-0.05,1.422-0.061,2.025-0.061c1.449,0,2.895,0.005,4.115,0.061
		c0.715,0.035,1.383,0.082,1.992,0.03c1.973-0.156,3.209-0.887,4.465-1.831c1.52-1.149,2.832-2.723,3.924-4.433
		c1.104-1.737,2.062-3.602,2.689-5.696c0.654-2.183,1.016-4.531,1.426-6.935c0.404-2.391,0.73-4.866,1.012-7.371
		c0.57-5.135,0.465-10.705,0.221-16.172c-1.08,2.697-2.689,4.707-4.492,6.708c-0.863,0.955-1.844,1.891-2.852,2.754
		c-1.021,0.877-2.154,1.732-3.639,1.964c-1.746,0.271-3.209-0.424-4.398-1.078c-0.59-0.326-1.186-0.684-1.74-1.045
		c-0.586-0.376-1.16-0.754-1.646-1.171c-1.057-0.905-1.787-2.022-2.152-3.45c-0.396-1.555-0.258-3.333-0.346-5.254
		c-0.256-5.508,0.643-10.521,1.516-15.157c0.299-1.575,0.67-3.104,0.951-4.653c0.404-2.229,0.771-4.92,0.855-7.533
		c0.025-0.902,0.119-1.744,0.381-2.436c0.531-1.422,1.662-2.084,3.131-2.469c0.381-0.102,0.758-0.217,1.141-0.252
		c0.41-0.043,0.824-0.004,1.266,0.061c0.775,0.115,1.658,0.262,2.277,0.539c0.531,0.236,0.963,0.807,1.33,1.234
		c0.42,0.489,0.775,1.008,1.105,1.487c0.414,0.595,0.717,0.962,0.791,1.803c0.068,0.765,0.006,1.579-0.123,2.407
		c-0.109,0.681-0.35,1.333-0.541,2.027c-0.549,2.001-1.062,4.291-1.516,6.264c-1.309,5.672-2.811,11.029-2.916,17.818
		c0.066,0.104,0.109-0.045,0.129-0.064c0.82-0.845,1.525-1.799,2.217-2.752c2.236-3.084,4.191-6.473,5.854-10.097
		c1.16-2.53,2.113-4.896,2.785-7.817c0.578-2.505,0.885-5.518,0.695-8.482c-0.027-0.398-0.109-0.828-0.094-1.232
		c0.012-0.285,0.125-0.51,0.221-0.666c0.471-0.759,1.279-1.205,2.025-1.676c0.389-0.246,0.596-0.451,1.045-0.508
		c1.016-0.127,2.104-0.027,2.848,0.349c0.723,0.362,1.434,0.726,2.121,1.14c0.688,0.415,1.305,0.893,1.838,1.426
		C92.566,12.561,93.208,13.131,93.4,13.868z"/>
	<path fill="#55B948" d="M125.267,53.43c-14.832,0-25.848-11.449-25.848-25.922v-0.143c0-14.331,10.801-26.068,26.279-26.068
		c9.506,0,15.193,3.168,19.875,7.777l-7.059,8.136c-3.887-3.527-7.85-5.688-12.889-5.688c-8.492,0-14.615,7.057-14.615,15.696v0.146
		c0,8.639,5.975,15.84,14.615,15.84c5.762,0,9.291-2.304,13.25-5.906l7.055,7.131C140.748,49.973,134.986,53.43,125.267,53.43z"/>
	<path fill="#55B948" d="M177.039,52.564V31.035c0-5.184-2.45-7.849-6.627-7.849c-4.176,0-6.84,2.665-6.84,7.849v21.529h-10.943
		V0.002h10.943v19.442c2.52-3.242,5.76-6.195,11.307-6.195c8.282,0,13.106,5.475,13.106,14.331v24.984H177.039z"/>
	<path fill="#55B948" d="M219.346,52.564v-4.176c-2.664,2.953-6.336,4.898-11.664,4.898c-7.275,0-13.25-4.176-13.25-11.811v-0.144
		c0-8.425,6.412-12.313,15.553-12.313c3.891,0,6.697,0.648,9.434,1.584v-0.646c0-4.537-2.807-7.059-8.279-7.059
		c-4.178,0-7.135,0.795-10.66,2.09l-2.738-8.354c4.254-1.872,8.43-3.096,14.982-3.096c11.949,0,17.209,6.192,17.209,16.633v22.393
		H219.346z M219.562,37.01c-1.873-0.861-4.318-1.438-6.984-1.438c-4.682,0-7.561,1.871-7.561,5.329v0.144
		c0,2.951,2.447,4.682,5.977,4.682c5.113,0,8.568-2.809,8.568-6.771V37.01z"/>
	<path fill="#55B948" d="M255.943,53.43c-11.596,0-20.094-8.93-20.094-19.945V33.34c0-11.018,8.424-20.091,20.238-20.091
		c7.27,0,11.805,2.449,15.406,6.482l-6.697,7.2c-2.447-2.594-4.895-4.248-8.783-4.248c-5.473,0-9.363,4.824-9.363,10.514v0.143
		c0,5.904,3.816,10.656,9.795,10.656c3.674,0,6.193-1.584,8.857-4.103l6.408,6.478C267.965,50.477,263.645,53.43,255.943,53.43z"/>
	<path fill="#55B948" d="M295.135,53.43c-11.953,0-20.809-8.857-20.809-19.945V33.34c0-11.088,8.928-20.091,20.949-20.091
		c11.959,0,20.812,8.858,20.812,19.948v0.143C316.088,44.43,307.16,53.43,295.135,53.43z M305.287,33.34
		c0-5.688-4.104-10.656-10.152-10.656c-6.264,0-10.01,4.824-10.01,10.514v0.143c0,5.689,4.104,10.656,10.15,10.656
		c6.27,0,10.012-4.824,10.012-10.512V33.34z"/>
	<path fill="#55B948" d="M335.705,53.287c-5.4,0-11.447-1.803-16.561-5.832l4.682-7.202c4.174,3.022,8.566,4.606,12.168,4.606
		c3.168,0,4.607-1.15,4.607-2.879v-0.145c0-2.375-3.744-3.168-7.992-4.463c-5.4-1.584-11.52-4.105-11.52-11.594v-0.145
		c0-7.848,6.336-12.24,14.109-12.24c4.9,0,10.229,1.656,14.402,4.465l-4.174,7.561c-3.818-2.233-7.633-3.602-10.445-3.602
		c-2.662,0-4.031,1.153-4.031,2.663v0.146c0,2.16,3.674,3.168,7.854,4.609c5.396,1.799,11.662,4.393,11.662,11.448v0.145
		C350.467,49.398,344.061,53.287,335.705,53.287z"/>
</g>
</svg>
