<?xml version="1.0" encoding="utf-8"?>
<!-- Generator: Adobe Illustrator 18.1.1, SVG Export Plug-In . SVG Version: 6.00 Build 0)  -->
<svg version="1.1" id="Logos" xmlns="http://www.w3.org/2000/svg" xmlns:xlink="http://www.w3.org/1999/xlink" x="0px" y="0px"
	 viewBox="0 0 247.3 64" enable-background="new 0 0 247.3 64" xml:space="preserve">
<g>
	<g>
		<g>
			<polygon fill="#D41010" points="16.3,14.2 16.3,14.2 16.3,14.2 			"/>
			<path fill="#D41010" d="M172.9,31.9c-1,0-2-0.3-3-0.9l-0.5-0.3l-2.3,5.1l0.4,0.2c2,1.1,3.8,1.5,6,1.5c4.1,0,6.5-2,8.5-7.1
				c0,0,9.9-25.6,9.9-25.6h-0.8h-6.2c0,0-5.1,14.7-5.9,17c-0.9-2.3-6.5-17-6.5-17h-7.1c0,0,10.1,24.3,10.3,24.7
				C174.9,31.5,174,31.9,172.9,31.9z"/>
			<path fill="#D41010" d="M108.7,25.5l0.3-0.4l-4.1-4l-0.4,0.4c-1.9,2-3.8,2.9-5.9,2.9c-3.8,0-6.7-3.1-6.7-7.3V17
				c0-4,2.8-7.2,6.4-7.2c2.8,0,4.5,1.4,5.9,2.9l0.4,0.4l4.2-4.5l-0.3-0.4c-2.7-3-5.8-4.3-10.1-4.3c-7.3,0-13.1,5.8-13.1,13.2v0.1
				c0,7.3,5.7,13,13,13C103.8,30.2,106.6,27.8,108.7,25.5z"/>
			<path fill="#D41010" d="M123.8,30.1c7.6,0,13.5-5.8,13.5-13.1v-0.1c0-7.3-5.9-13.1-13.4-13.1c-7.5,0-13.5,5.8-13.5,13.2v0.1
				C110.4,24.4,116.3,30.1,123.8,30.1z M117,16.9c0-4.2,2.8-7.2,6.8-7.2c3.9,0,6.9,3.1,6.9,7.3v0.1c0,3.6-2.3,7.2-6.8,7.2
				C120,24.3,117,21.1,117,16.9L117,16.9z"/>
			<path fill="#D41010" d="M74.5,4.7l0,0.5V19c0,2.8-1.8,4.8-4.5,4.8c-2.6,0-4.6-2.1-4.6-4.8V4.7h-6.9V19c0,6.3,5,10.4,11.4,10.4
				c2,0,3.8-0.7,5.4-1.5c0.2-0.1,0.3-0.2,0.5-0.2l0.1,1.3v0.5h5.6V19v-2.3v-12H74.5L74.5,4.7z"/>
			<path fill="#D41010" d="M148,29.4l0-0.5V15.1c0-2.8,1.8-4.8,4.5-4.8c2.6,0,4.6,2.1,4.6,4.8v14.3h6.9V15.1c0-6.3-5-10.4-11.4-10.4
				c-2,0-3.8,0.7-5.4,1.5c-0.2,0.1-0.3,0.2-0.5,0.2l-0.1-1.3V4.7H141v10.5v2.3v12H148L148,29.4z"/>
			<path fill="#D41010" d="M47.3,5.1v1.1c-2-1.1-4.4-2.3-7-2.3c-7.7,0-13.7,5.4-13.7,12.9v0.1c0,7.5,6,12.8,13.6,12.8
				c2.6,0,5-1.2,7.1-2.4v1.1V29h6.2V4.5h-6.2V5.1z M40.6,24.2c-4.2,0-7.5-3.3-7.5-7.4c0-4.1,3.4-7.4,7.5-7.4c4.2,0,7.5,3.3,7.5,7.4
				C48.1,20.8,44.7,24.2,40.6,24.2z"/>
			<path fill="#D41010" d="M14.5,8.1c1.7,0,4,0.8,6.9,2.4l0.2,0.1L24.3,6l-0.2-0.1c-2.8-1.7-6.4-2.8-9.5-2.8c-4.8,0-9.7,2.6-9.7,8.3
				v0.1c0,4.7,4.3,6.6,8.1,7.7c2.5,0.7,4.9,1.6,4.9,3.5v0.1c0,0.8-0.4,2.9-3.7,2.9c-2.3,0-5.3-1.4-8.3-3.4L5.7,22l-2.9,4.5L3,26.6
				c3.2,2.4,7.2,4,11,4c6.5,0,10.1-3.2,10.1-8.4v-0.5c0-3.3-2.6-5.8-8-7.6h0h0l0,0L15.5,14c-2.5-0.8-4.3-1.4-4.3-3.3v-0.1
				C11.2,9.4,12.2,8.1,14.5,8.1z"/>
		</g>
		<path fill="#D41010" d="M243.8,33.3L243.8,33.3c-2-1.4-2-1.4-3.4-2.2c-13.3-8.1-20.2-9-26.6-6.9c-5,1.7-13.6,8.5-13.6,8.5
			c-7.9,5.3-15.8,13.9-34.5,12.9c-17.4-0.9-53.1-10.2-53.6-10.3c-0.4-0.1-0.9,0.2-0.8,0.7c0.1,0.4,1,2.3,1,2.3
			c0.1,0.3,0.3,0.3,0.4,0.4c14.3,5.7,57.7,21.7,73,21.7c18.3,0,33.4-25.4,49.7-25.4c5.1,0,6.3,0.2,7.1,0.2c0.7,0.1,1.3-0.2,1.5-0.8
			C244.1,34.3,244.3,33.7,243.8,33.3z M195.2,52.6L195.2,52.6L195.2,52.6z M196.6,49.6c-0.2,1-0.8,1.9-1.7,2.5l0,0
			c-0.9,0.6-1.9,0.8-2.9,0.6c-1-0.2-1.9-0.8-2.5-1.7c-1.2-1.8-0.7-4.2,1.1-5.4c1.8-1.2,4.2-0.7,5.4,1.1
			C196.6,47.5,196.8,48.6,196.6,49.6z M206.4,44.4c-1.8,1.2-4.2,0.7-5.4-1.1c-1.2-1.8-0.7-4.2,1.1-5.4c1.8-1.2,4.2-0.7,5.4,1.1
			c0.4,0.7,0.7,1.4,0.7,2.2C208.2,42.4,207.6,43.6,206.4,44.4z M219.6,34.2c-0.2,1-0.8,1.9-1.7,2.5c-0.9,0.6-1.9,0.8-2.9,0.6
			c-1-0.2-1.9-0.8-2.5-1.7c-0.6-0.9-0.8-1.9-0.6-2.9c0.2-1,0.8-1.9,1.7-2.5c0.9-0.6,1.9-0.8,2.9-0.6c1,0.2,1.9,0.8,2.5,1.7
			C219.6,32.2,219.9,33.2,219.6,34.2z"/>
	</g>
	<g>
		<path fill="#D41010" d="M198.3,4.9c2.6,0,4.8,2.1,4.8,4.7c0,2.7-2.2,4.8-4.8,4.8c-2.6,0-4.8-2-4.8-4.7
			C193.5,7,195.7,4.9,198.3,4.9z M198.3,13.8c2.3,0,4-1.8,4-4.1c0-2.3-1.8-4.1-4-4.1c-2.2,0-4,1.8-4,4.1
			C194.3,12,196.1,13.8,198.3,13.8z M196.6,7h2c1.3,0,1.9,0.5,1.9,1.6c0,1-0.6,1.4-1.5,1.5l1.6,2.4h-0.8l-1.5-2.4h-1v2.4h-0.8V7z
			 M197.3,9.4h1c0.8,0,1.5,0,1.5-0.9c0-0.8-0.7-0.9-1.2-0.9h-1.2V9.4z"/>
	</g>
</g>
</svg>
