<?xml version="1.0" encoding="utf-8"?>
<!-- Generator: Adobe Illustrator 16.0.4, SVG Export Plug-In . SVG Version: 6.00 Build 0)  -->
<!DOCTYPE svg PUBLIC "-//W3C//DTD SVG 1.1//EN" "http://www.w3.org/Graphics/SVG/1.1/DTD/svg11.dtd">
<svg version="1.1" id="Layer_1" xmlns="http://www.w3.org/2000/svg" xmlns:xlink="http://www.w3.org/1999/xlink" x="0px" y="0px"
	 width="939px" height="277px" viewBox="0 0 939 277" enable-background="new 0 0 939 277" xml:space="preserve">
<g>
	<defs>
		<rect id="SVGID_1_" x="31" y="44" width="878" height="206.011"/>
	</defs>
	<clipPath id="SVGID_2_">
		<use xlink:href="#SVGID_1_"  overflow="visible"/>
	</clipPath>
	<path clip-path="url(#SVGID_2_)" fill="#E31937" d="M79.897,84.213h0.019H79.897z"/>
</g>
<g>
	<defs>
		<rect id="SVGID_3_" x="31" y="44" width="878" height="206.011"/>
	</defs>
	<clipPath id="SVGID_4_">
		<use xlink:href="#SVGID_3_"  overflow="visible"/>
	</clipPath>
	<g clip-path="url(#SVGID_4_)">
		<defs>
			<rect id="SVGID_5_" x="31" y="44" width="878" height="206.011"/>
		</defs>
		<clipPath id="SVGID_6_">
			<use xlink:href="#SVGID_5_"  overflow="visible"/>
		</clipPath>
		<path clip-path="url(#SVGID_6_)" fill="#E31937" d="M649.735,147.959c-3.458,0-7.133-1.049-10.929-3.1l-1.801-0.965l-8.421,18.329
			l1.583,0.819c7.202,3.87,13.73,5.513,21.749,5.513c14.911,0,23.536-7.19,30.783-25.625c0.008-0.015,36.033-92.199,36.033-92.199
			h-2.775h-22.377c0,0-18.614,52.77-21.562,61.098c-3.197-8.237-23.642-61.098-23.642-61.098h-25.698
			c0,0,36.843,87.442,37.484,88.982C657.009,146.534,653.915,147.959,649.735,147.959"/>
		<path clip-path="url(#SVGID_6_)" fill="#E31937" d="M416.311,124.772l1.222-1.334l-14.837-14.471l-1.37,1.36
			c-7.008,7.135-13.659,10.308-21.474,10.308c-13.935,0-24.441-11.211-24.441-26.164v-0.323c0-14.487,10.292-25.83,23.445-25.83
			c10.188,0,16.344,4.941,21.472,10.287l1.382,1.468l15.103-16.109l-1.178-1.291c-9.913-10.82-21.208-15.632-36.615-15.632
			c-26.688,0-47.599,20.822-47.599,47.431v0.345c0,26.314,20.832,46.931,47.436,46.931
			C398.319,141.749,408.709,133.174,416.311,124.772"/>
		<path clip-path="url(#SVGID_6_)" fill="#E31937" d="M471.154,141.43c27.553,0,49.107-20.755,49.107-47.261v-0.338
			c0-26.424-21.409-47.112-48.765-47.112c-27.447,0-48.952,20.829-48.952,47.45v0.338
			C422.545,120.804,443.901,141.43,471.154,141.43 M446.55,93.831c0-14.981,10.339-25.845,24.604-25.845
			c14.303,0,25.124,11.242,25.124,26.183v0.338c0,12.809-8.526,25.811-24.781,25.811c-14.009,0-24.947-11.472-24.947-26.149V93.831z
			"/>
		<path clip-path="url(#SVGID_6_)" fill="#E31937" d="M291.814,49.839l0.093,1.854v49.845c0,10.134-6.637,17.196-16.209,17.196
			c-9.448,0-16.605-7.489-16.605-17.45V49.839h-25.246v51.699c0,22.568,18.272,37.411,41.604,37.411
			c7.137,0,13.793-2.615,19.62-5.552c0.56-0.285,1.089-0.575,1.638-0.874l0.275,4.596v1.76h20.2v-37.595v-8.184V49.839h-25.277
			H291.814z"/>
		<path clip-path="url(#SVGID_6_)" fill="#E31937" d="M559.239,138.951l-0.113-1.849V87.262c0-10.148,6.642-17.211,16.217-17.211
			c9.461,0,16.617,7.499,16.617,17.458v51.443h25.246V87.262c0-22.593-18.276-37.42-41.628-37.42
			c-7.133,0-13.793,2.615-19.597,5.559c-0.567,0.278-1.104,0.572-1.667,0.872l-0.271-4.615v-1.815h-20.202v37.667v8.176v43.267
			h25.284H559.239z"/>
		<path clip-path="url(#SVGID_6_)" fill="#E31937" d="M192.804,51.312v3.854c-7.269-4.084-15.896-8.282-25.378-8.282
			c-27.983,0-49.929,19.299-49.929,46.425v0.352c0,26.851,21.8,45.927,49.58,45.927c9.477,0,18.257-4.318,25.728-8.545v3.865v2.378
			h22.563V49.188h-22.563V51.312z M168.278,120.006c-15.146,0-27.438-11.954-27.438-26.697c0-14.739,12.292-26.683,27.438-26.683
			c15.168,0,27.45,11.944,27.45,26.683C195.728,108.053,183.446,120.006,168.278,120.006"/>
		<path clip-path="url(#SVGID_6_)" fill="#E31937" d="M73.636,62.308c6.146,0,14.636,2.932,25.187,8.696l0.845,0.46l9.451-16.926
			l-0.769-0.491C98.083,47.763,85.145,44,73.768,44C56.287,44,38.65,53.247,38.65,73.947v0.348c0,16.926,15.735,23.66,29.444,27.639
			c9.08,2.658,17.941,5.803,17.941,12.469v0.354c0,2.874-1.298,10.392-13.376,10.392c-8.469,0-19.218-4.91-30.292-12.291
			l-0.795-0.554l-10.574,16.093l0.726,0.531c11.805,8.622,26.07,14.488,40.191,14.488c23.725,0,36.807-11.393,36.807-30.082v-1.895
			c0-11.836-9.563-20.727-29.258-27.222h0.015h-0.015l-2.409-0.805c-9.137-3.001-15.74-5.19-15.74-12.052v-0.378
			C61.314,66.806,65.175,62.308,73.636,62.308"/>
		<path clip-path="url(#SVGID_6_)" fill="#E31937" d="M907.764,152.864v-0.041c-7.397-4.963-7.397-4.989-12.42-8.009
			c-48.373-29.014-73.403-32.427-96.831-24.662c-18.236,6.033-49.599,30.582-49.599,30.582
			c-28.645,18.904-57.596,50.146-125.462,46.495c-63.205-3.379-193.336-36.826-194.915-37.26c-1.576-0.436-3.214,0.716-2.732,2.556
			c0.383,1.38,3.537,8.222,3.537,8.222c0.402,0.932,1.236,1.157,1.629,1.33c51.854,20.59,209.91,77.934,265.779,77.934
			c66.579,0,121.663-91.452,180.877-91.452c18.383,0,23.048,0.651,25.697,0.68c2.584,0.216,4.83-0.567,5.465-2.85
			C908.789,156.39,909.694,154.488,907.764,152.864 M735.959,211.499c-0.726,3.703-2.894,6.867-6.066,8.97
			c-3.179,2.081-6.979,2.816-10.689,2.081c-3.731-0.742-6.965-2.879-9.053-6.004c-4.376-6.5-2.577-15.25,3.951-19.577
			c6.529-4.287,15.412-2.52,19.764,3.939C735.959,204.036,736.726,207.804,735.959,211.499 M771.844,192.854
			c-6.572,4.302-15.4,2.522-19.79-3.933c-4.338-6.495-2.565-15.261,3.987-19.562c6.562-4.297,15.412-2.531,19.747,3.931
			c1.601,2.378,2.393,5.084,2.405,7.743C778.193,185.618,775.966,190.116,771.844,192.854 M819.854,156.268
			c-0.755,3.688-2.938,6.881-6.086,8.952c-3.178,2.098-6.96,2.838-10.698,2.079c-3.717-0.726-6.937-2.859-9.065-6
			c-2.107-3.142-2.841-6.891-2.107-10.588c0.754-3.688,2.917-6.879,6.086-8.962c3.154-2.091,6.96-2.826,10.684-2.091
			c3.741,0.743,6.96,2.881,9.063,6.019C819.854,148.807,820.611,152.564,819.854,156.268"/>
	</g>
</g>
</svg>
