<?xml version="1.0" encoding="utf-8"?>
<!-- Generator: Adobe Illustrator 18.1.1, SVG Export Plug-In . SVG Version: 6.00 Build 0)  -->
<svg version="1.1" id="Layer_1" xmlns="http://www.w3.org/2000/svg" xmlns:xlink="http://www.w3.org/1999/xlink" x="0px" y="0px"
	 viewBox="486 -80 883 211" enable-background="new 486 -80 883 211" xml:space="preserve">
<g>
	<g>
		<defs>
			<rect id="SVGID_1_" x="488" y="-79" width="878" height="206"/>
		</defs>
		<clipPath id="SVGID_2_">
			<use xlink:href="#SVGID_1_"  overflow="visible"/>
		</clipPath>
		<path clip-path="url(#SVGID_2_)" fill="#E31937" d="M536.9-38.8L536.9-38.8L536.9-38.8z"/>
	</g>
</g>
<g>
	<g>
		<defs>
			<rect id="SVGID_3_" x="488" y="-79" width="878" height="206"/>
		</defs>
		<clipPath id="SVGID_4_">
			<use xlink:href="#SVGID_3_"  overflow="visible"/>
		</clipPath>
		<g clip-path="url(#SVGID_4_)">
			<g>
				<defs>
					<rect id="SVGID_5_" x="488" y="-79" width="878" height="206"/>
				</defs>
				<defs>
					<rect id="SVGID_6_" x="488" y="-79" width="878" height="206"/>
				</defs>
				<defs>
					<rect id="SVGID_7_" x="488" y="-79" width="878" height="206"/>
				</defs>
				<defs>
					<rect id="SVGID_8_" x="488" y="-79" width="878" height="206"/>
				</defs>
				<defs>
					<rect id="SVGID_9_" x="488" y="-79" width="878" height="206"/>
				</defs>
				<defs>
					<rect id="SVGID_10_" x="488" y="-79" width="878" height="206"/>
				</defs>
				<defs>
					<rect id="SVGID_11_" x="488" y="-79" width="878" height="206"/>
				</defs>
				<defs>
					<rect id="SVGID_12_" x="488" y="-79" width="878" height="206"/>
				</defs>
				<clipPath id="SVGID_13_">
					<use xlink:href="#SVGID_5_"  overflow="visible"/>
				</clipPath>
				<clipPath id="SVGID_14_" clip-path="url(#SVGID_13_)">
					<use xlink:href="#SVGID_6_"  overflow="visible"/>
				</clipPath>
				<clipPath id="SVGID_15_" clip-path="url(#SVGID_14_)">
					<use xlink:href="#SVGID_7_"  overflow="visible"/>
				</clipPath>
				<clipPath id="SVGID_16_" clip-path="url(#SVGID_15_)">
					<use xlink:href="#SVGID_8_"  overflow="visible"/>
				</clipPath>
				<clipPath id="SVGID_17_" clip-path="url(#SVGID_16_)">
					<use xlink:href="#SVGID_9_"  overflow="visible"/>
				</clipPath>
				<clipPath id="SVGID_18_" clip-path="url(#SVGID_17_)">
					<use xlink:href="#SVGID_10_"  overflow="visible"/>
				</clipPath>
				<clipPath id="SVGID_19_" clip-path="url(#SVGID_18_)">
					<use xlink:href="#SVGID_11_"  overflow="visible"/>
				</clipPath>
				<clipPath id="SVGID_20_" clip-path="url(#SVGID_19_)">
					<use xlink:href="#SVGID_12_"  overflow="visible"/>
				</clipPath>
				<path clip-path="url(#SVGID_20_)" fill="#E31937" d="M1106.7,25c-3.5,0-7.1-1-10.9-3.1l-1.8-1l-8.4,18.3l1.6,0.8
					c7.2,3.9,13.7,5.5,21.7,5.5c14.9,0,23.5-7.2,30.8-25.6c0,0,36-92.2,36-92.2h-2.8h-22.4c0,0-18.6,52.8-21.6,61.1
					c-3.2-8.2-23.6-61.1-23.6-61.1h-25.7c0,0,36.8,87.4,37.5,89C1114,23.5,1110.9,25,1106.7,25"/>
				<path clip-path="url(#SVGID_20_)" fill="#E31937" d="M873.3,1.8l1.2-1.3L859.7-14l-1.4,1.4c-7,7.1-13.7,10.3-21.5,10.3
					c-13.9,0-24.4-11.2-24.4-26.2v-0.3c0-14.5,10.3-25.8,23.4-25.8c10.2,0,16.3,4.9,21.5,10.3l1.4,1.5L873.8-59l-1.2-1.3
					C862.7-71.1,851.4-76,836-76c-26.7,0-47.6,20.8-47.6,47.4v0.3c0,26.3,20.8,46.9,47.4,46.9C855.3,18.7,865.7,10.2,873.3,1.8"/>
				<path clip-path="url(#SVGID_20_)" fill="#E31937" d="M928.2,18.4c27.6,0,49.1-20.8,49.1-47.3v-0.3c0-26.4-21.4-47.1-48.8-47.1
					c-27.4,0-49,20.8-49,47.4v0.3C879.5-2.2,900.9,18.4,928.2,18.4 M903.5-29.2c0-15,10.3-25.8,24.6-25.8
					c14.3,0,25.1,11.2,25.1,26.2v0.3c0,12.8-8.5,25.8-24.8,25.8c-14,0-24.9-11.5-24.9-26.1V-29.2z"/>
				<path clip-path="url(#SVGID_20_)" fill="#E31937" d="M748.8-73.2l0.1,1.9v49.8c0,10.1-6.6,17.2-16.2,17.2
					c-9.4,0-16.6-7.5-16.6-17.5v-51.4h-25.2v51.7c0,22.6,18.3,37.4,41.6,37.4c7.1,0,13.8-2.6,19.6-5.6c0.6-0.3,1.1-0.6,1.6-0.9
					l0.3,4.6v1.8h20.2v-37.6v-8.2v-43.3H748.8L748.8-73.2z"/>
				<path clip-path="url(#SVGID_20_)" fill="#E31937" d="M1016.2,16l-0.1-1.8v-49.8c0-10.1,6.6-17.2,16.2-17.2
					c9.5,0,16.6,7.5,16.6,17.5V16h25.2v-51.7c0-22.6-18.3-37.4-41.6-37.4c-7.1,0-13.8,2.6-19.6,5.6c-0.6,0.3-1.1,0.6-1.7,0.9
					l-0.3-4.6v-1.8h-20.2v37.7v8.2V16h25.3L1016.2,16L1016.2,16z"/>
				<path clip-path="url(#SVGID_20_)" fill="#E31937" d="M649.8-71.7v3.9c-7.3-4.1-15.9-8.3-25.4-8.3c-28,0-49.9,19.3-49.9,46.4v0.4
					c0,26.9,21.8,45.9,49.6,45.9c9.5,0,18.3-4.3,25.7-8.5v3.9v2.4h22.6v-88.1h-22.6L649.8-71.7L649.8-71.7z M625.3-3
					c-15.1,0-27.4-12-27.4-26.7c0-14.7,12.3-26.7,27.4-26.7c15.2,0,27.5,11.9,27.5,26.7C652.7-14.9,640.4-3,625.3-3"/>
				<path clip-path="url(#SVGID_20_)" fill="#E31937" d="M530.6-60.7c6.1,0,14.6,2.9,25.2,8.7l0.8,0.5l9.5-16.9l-0.8-0.5
					c-10.3-6.3-23.2-10-34.6-10c-17.5,0-35.1,9.2-35.1,29.9v0.3c0,16.9,15.7,23.7,29.4,27.6c9.1,2.7,17.9,5.8,17.9,12.5v0.4
					c0,2.9-1.3,10.4-13.4,10.4c-8.5,0-19.2-4.9-30.3-12.3l-0.8-0.6L488,5.4l0.7,0.5c11.8,8.6,26.1,14.5,40.2,14.5
					c23.7,0,36.8-11.4,36.8-30.1v-1.9c0-11.8-9.6-20.7-29.3-27.2h0h0l-2.4-0.8c-9.1-3-15.7-5.2-15.7-12.1V-52
					C518.3-56.2,522.2-60.7,530.6-60.7"/>
				<path clip-path="url(#SVGID_20_)" fill="#E31937" d="M1364.8,29.9L1364.8,29.9c-7.4-5-7.4-5-12.4-8.1
					c-48.4-29-73.4-32.4-96.8-24.7c-18.2,6-49.6,30.6-49.6,30.6c-28.6,18.9-57.6,50.1-125.5,46.5c-63.2-3.4-193.3-36.8-194.9-37.3
					c-1.6-0.4-3.2,0.7-2.7,2.6c0.4,1.4,3.5,8.2,3.5,8.2c0.4,0.9,1.2,1.2,1.6,1.3c51.9,20.6,209.9,77.9,265.8,77.9
					c66.6,0,121.7-91.5,180.9-91.5c18.4,0,23,0.7,25.7,0.7c2.6,0.2,4.8-0.6,5.5-2.9C1365.8,33.4,1366.7,31.5,1364.8,29.9 M1193,88.5
					c-0.7,3.7-2.9,6.9-6.1,9c-3.2,2.1-7,2.8-10.7,2.1c-3.7-0.7-7-2.9-9.1-6c-4.4-6.5-2.6-15.2,4-19.6c6.5-4.3,15.4-2.5,19.8,3.9
					C1193,81,1193.7,84.8,1193,88.5 M1228.8,69.9c-6.6,4.3-15.4,2.5-19.8-3.9c-4.3-6.5-2.6-15.3,4-19.6c6.6-4.3,15.4-2.5,19.7,3.9
					c1.6,2.4,2.4,5.1,2.4,7.7C1235.2,62.6,1233,67.1,1228.8,69.9 M1276.9,33.3c-0.8,3.7-2.9,6.9-6.1,9c-3.2,2.1-7,2.8-10.7,2.1
					c-3.7-0.7-6.9-2.9-9.1-6c-2.1-3.1-2.8-6.9-2.1-10.6c0.8-3.7,2.9-6.9,6.1-9c3.2-2.1,7-2.8,10.7-2.1c3.7,0.7,7,2.9,9.1,6
					C1276.9,25.8,1277.6,29.6,1276.9,33.3"/>
			</g>
		</g>
	</g>
</g>
</svg>
