<?xml version="1.0" encoding="utf-8"?>
<!-- Generator: Adobe Illustrator 16.0.4, SVG Export Plug-In . SVG Version: 6.00 Build 0)  -->
<!DOCTYPE svg PUBLIC "-//W3C//DTD SVG 1.1//EN" "http://www.w3.org/Graphics/SVG/1.1/DTD/svg11.dtd">
<svg version="1.1" id="Layer_1" xmlns="http://www.w3.org/2000/svg" xmlns:xlink="http://www.w3.org/1999/xlink" x="0px" y="0px"
	 width="161.5px" height="123.5px" viewBox="0 0 161.5 123.5" enable-background="new 0 0 161.5 123.5" xml:space="preserve">
<g>
	<g>
		<g>
			<g>
				<g>
					<path fill="#F36F21" d="M73.7,110.65c0-3.301-3-5.7-6.5-5.7H52.3v18.5H58v-7h3.9l5.3,7h6.4l-5.7-7.3
						C71,116.25,73.6,113.75,73.7,110.65z M64.8,113.65h-6.9v-5.7h7c1.6,0,3.1,1.399,3,3C67.9,112.45,66.4,113.65,64.8,113.65z"/>
				</g>
			</g>
			<g>
				<g>
					<path fill="#F36F21" d="M98.5,110.65c0-3.301-3-5.7-6.5-5.7H77v18.5h5.7v-7H86.6l5.301,7H98.3l-5.7-7.3
						C95.8,116.25,98.4,113.75,98.5,110.65z M89.6,113.65H82.7v-5.7h7c1.6,0,3.1,1.399,3,3C92.7,112.45,91.2,113.65,89.6,113.65z"/>
				</g>
			</g>
			<polygon fill="#F36F21" points="36.4,115.25 47.2,115.25 47.2,112.55 36.4,112.55 36.4,107.85 49.1,107.85 49.1,105.05 
				30.7,105.05 30.7,123.55 49.2,123.55 49.2,120.65 36.4,120.65 			"/>
			<polygon fill="#F36F21" points="107.4,115.25 118.3,115.25 118.3,112.55 107.5,112.55 107.5,107.85 120.1,107.85 120.1,105.05 
				101.7,105.05 101.7,123.55 120.2,123.55 120.2,120.65 107.4,120.65 			"/>
			<polygon fill="#F36F21" points="13.2,119.05 7.4,105.05 0,105.05 0,123.55 3.5,123.55 3.5,108.35 9.1,123.55 15.2,123.55 
				20.8,108.35 20.8,123.55 26.6,123.55 26.6,105.05 18.4,105.05 			"/>
			<polygon fill="#F36F21" points="128.9,105.05 123.3,105.05 123.3,123.55 141,123.55 141,120.65 128.9,120.65 			"/>
			<polygon fill="#F36F21" points="149.3,105.05 143.7,105.05 143.7,123.55 161.5,123.55 161.5,120.65 149.3,120.65 			"/>
		</g>
		<g>
			<path fill="#F36F21" d="M77.9-0.05c-25.8,0-46.7,21-46.7,46.7c0,25.8,21,46.699,46.7,46.699c25.8,0,46.7-20.8,46.7-46.699
				C124.5,20.95,103.7-0.05,77.9-0.05z M106.3,62.35v-28.1L96.9,65.05L84.3,68.85L70.2,32.15V73.05l-19.8,5.9V13.35l30.701,4.801
				L91.6,47.75l7.801-26.8l15.199,2.3v36.5L106.3,62.35z"/>
		</g>
	</g>
</g>
<g>
	<path fill="#F36F21" d="M129.6,25.85c2,0,3.7,1.601,3.7,3.7c0,2.101-1.7,3.7-3.7,3.7s-3.699-1.6-3.699-3.7
		C125.9,27.45,127.6,25.85,129.6,25.85z M129.6,26.45c-1.699,0-3,1.399-3,3.1s1.4,3.101,3,3.101c1.7,0,3-1.2,3-3.101
		C132.5,27.85,131.2,26.45,129.6,26.45z M128.8,31.65h-0.6v-4.2h1.6c1,0,1.5,0.399,1.5,1.2c0,0.699-0.5,1.1-1.1,1.1l1.2,1.8h-0.7
		l-1.101-1.8H128.9L128.8,31.65L128.8,31.65z M128.8,29.35h0.7c0.7,0,1-0.199,1-0.699c0-0.4-0.2-0.601-1-0.601h-0.9v1.4L128.8,29.35
		L128.8,29.35z"/>
</g>
</svg>
