<?xml version="1.0" encoding="utf-8"?>
<!-- Generator: Adobe Illustrator 18.1.1, SVG Export Plug-In . SVG Version: 6.00 Build 0)  -->
<svg version="1.1" id="Layer_1" xmlns="http://www.w3.org/2000/svg" xmlns:xlink="http://www.w3.org/1999/xlink" x="0px" y="0px"
	 viewBox="0 0 163.5 121.6" enable-background="new 0 0 163.5 121.6" xml:space="preserve">
<g>
	<rect x="0" y="0" fill="#FFCB05" width="163.5" height="121.6"/>
	<g>
		<polygon points="115.7,91.4 84.8,65.4 52.7,91.4 		"/>
		<g>
			<path d="M59.8,81.1c2.3-2,2.7-4.4,2.7-6.5v-9.1H49.8v12.4c0,1.8-1.4,3.2-3.2,3.2c-1.8,0-3.1-1.4-3.1-3.2V42.8
				c0-1.8,1.3-3.2,3.1-3.2c1.8,0,3.2,1.4,3.2,3.2v12.4h12.7V42.3l0,0c0-7.1-4.7-13-16-13l0,0c-11.7,0-16.1,5.9-16.1,13l0,36.6
				c0,7.1,5.6,12.4,12.8,12.4h3.9L59.8,81.1z"/>
			<polygon points="110,82.6 110,42.4 101.2,42.4 101.2,30.5 133,30.5 133,42.4 124.2,42.4 124.2,91.3 120.4,91.3 			"/>
			<path d="M93.6,30.6H75.9L65.5,77l19.2-15.5l20.1,16.8L93.6,30.6z M81.3,58.4l3.4-17.5l3.4,17.5H81.3z"/>
		</g>
	</g>
	<path d="M135.3,33.4c0-1.3,1-2.4,2.3-2.4c1.3,0,2.3,1,2.3,2.4c0,1.4-1,2.4-2.3,2.4C136.3,35.8,135.3,34.8,135.3,33.4z M137.6,36.2
		c1.5,0,2.9-1.2,2.9-2.8c0-1.6-1.3-2.8-2.9-2.8c-1.6,0-2.9,1.2-2.9,2.8C134.7,35,136,36.2,137.6,36.2z M137,33.6h0.6l0.9,1.4h0.6
		l-0.9-1.4c0.5-0.1,0.8-0.3,0.8-0.9c0-0.6-0.4-0.9-1.2-0.9h-1.2V35h0.5V33.6z M137,33.2v-1h0.7c0.3,0,0.7,0.1,0.7,0.5
		c0,0.5-0.4,0.5-0.8,0.5H137z"/>
</g>
</svg>
