<?xml version="1.0" encoding="utf-8"?>
<!-- Generator: Adobe Illustrator 18.1.1, SVG Export Plug-In . SVG Version: 6.00 Build 0)  -->
<svg version="1.1" id="Layer_1" xmlns="http://www.w3.org/2000/svg" xmlns:xlink="http://www.w3.org/1999/xlink" x="0px" y="0px"
	 viewBox="0 0 73.8 31.8" enable-background="new 0 0 73.8 31.8" xml:space="preserve">
<g>
	<path fill="#113081" d="M73.8,30c0,1-0.8,1.8-1.8,1.8H1.8C0.8,31.8,0,31,0,30V1.8C0,0.8,0.8,0,1.8,0H72c1,0,1.8,0.8,1.8,1.8V30z"/>
	<g>
		<path fill="#FFFFFF" d="M67.9,16.4c0.2,0.2,0.7,0.6,1,0.6c0.6,0.1,1.2-0.4,1.4-1c0.1-0.3,0-0.8-0.1-1c-0.1-0.2-0.6-0.5-0.8-0.6
			c-0.5-0.2-0.9,0.1-1.3,0.3C67.7,15.1,67.5,15.8,67.9,16.4 M68.6,13.9C68.6,13.9,68.6,13.9,68.6,13.9c1.3-0.1,2.5,1.1,2,2.5
			c-0.1,0.2-0.2,0.3-0.4,0.5c-0.1,0.2-0.3,0.3-0.4,0.4c-0.5,0.2-1.2,0.3-1.6,0c-0.2-0.1-0.4-0.2-0.5-0.4c0,0-0.3-0.5-0.3-0.5
			c-0.1-0.2-0.2-0.6-0.2-0.8c0-0.6,0.4-1.1,0.8-1.4C68.2,14,68.4,14,68.6,13.9"/>
		<path fill="#FFFFFF" d="M68.8,15.5c0.6,0.1,0.5-0.5,0-0.4C68.8,15.3,68.8,15.4,68.8,15.5 M69.4,15.8c0.1,0.2,0.6,0.5,0.3,0.7
			c-0.4,0.3-0.5-0.4-1-0.5c0.2,0-0.1,0.4,0,0.6c0.1,0.1-0.3,0.1-0.4,0c-0.1-0.6-0.1-1.2,0-1.8c0.3-0.2,0.8-0.1,1.1,0
			c0.1,0.2,0.3,0.3,0.3,0.5C69.8,15.5,69.6,15.7,69.4,15.8"/>
	</g>
	<path fill="#FFFFFF" d="M30.2,16c-1.2,0-1.8,0.2-2.6,1c-0.4,0.4-0.6,0.9-0.8,1.4c1,0,5.2,0,6.2-0.1C32.7,17.4,31.6,16,30.2,16
		 M26.9,21.2c0,0.6,0.5,1.9,1.6,2.4c0.9,0.4,2.1,0.4,3,0c0.1-0.1,1-0.4,1.3-1.2c0.7,0,4-0.1,4.1,0c0.3,0.1-0.6,2-1.1,2.5
		c-0.9,1-2.4,1.6-2.7,1.7c-0.2,0.1-0.5,0.1-0.9,0.2c-1,0.2-2.4,0.2-3.6,0.1c-0.7-0.1-1.7-0.3-3.1-0.9c-0.7-0.3-1.3-1-1.7-1.7
		c-0.6-0.9-1-2-1.2-3.3c-0.2-1,0-2.5,0.3-3.4c0.2-0.7,0.4-1.2,0.7-1.8c0.1-0.1,2.1-2.7,4.5-3.1c0.5-0.1,1-0.1,1.5-0.1
		c2,0,2.8,0.3,3.7,0.8c0.5,0.3,0.7,0.4,1.2,0.8c0.2,0.2,0.4,0.3,0.6,0.5c0.7,0.7,1.1,1.1,1.5,2c0.2,0.5,0.4,0.8,0.5,1.4
		c0.1,0.5,0.2,1.5,0.2,2c0,0.3,0,0.6-0.1,0.9c-0.1,0.1-0.4,0.1-0.5,0.1c-2.2,0-7.4,0-7.8,0C28,21.1,26.9,21,26.9,21.2"/>
	<path fill="#FFFFFF" d="M48.9,21.1c0.3-0.6,0.3-1.9,0-2.7c-0.1-0.2-0.6-1.1-0.8-1.3c-0.5-0.6-1.3-0.9-2.1-0.8
		c-1,0.1-2.2,0.7-2.6,1.4c-0.2,0.3-0.4,1-0.4,1.4c-0.2,1.2,0.1,2,0.6,2.7c0.4,0.6,0.7,0.9,1.5,1.1C46.9,23.4,48.4,22.1,48.9,21.1
		 M53.3,5.1c0,1.2,0.2,21.1,0.1,21.4c-0.1,0.5-3.5,0.3-3.6,0.2c-0.4-0.5-0.8-1.3-0.8-1.3c-0.4,0.2-0.7,0.5-1.1,0.8
		c-0.2,0.1-1.4,1.1-4.7,0.8c-0.5,0-2.1-0.9-2.5-1.2c-0.7-0.5-2.1-2.7-2.3-4.7c-0.2-1.7,0-3.2,0.1-3.4c0.1-0.5,1.2-3.9,3.7-4.6
		c0.7-0.2,1.1-0.4,2-0.5c0.8-0.1,1.9,0.1,2.6,0.2c0.9,0.2,1.9,1,2.3,1.3c0-1.4,0-6,0-7.8C49,5.8,49,5.1,49.1,5
		C49.3,4.9,53.3,4.8,53.3,5.1"/>
	<path fill-rule="evenodd" clip-rule="evenodd" fill="#FFFFFF" d="M66.5,14c-0.3,0.5-0.8,1-1.1,1.4c-0.4,0.4-0.8,0.9-1.1,1.4
		c-0.3-0.1-0.5-0.3-0.8-0.4c-0.5-0.2-1-0.4-1.6-0.6c-0.3-0.1-0.6-0.2-0.9-0.2c-0.3,0-0.5,0.4-0.6,0.6c0,0.3,0.3,0.6,0.6,0.7
		c0.2,0.1,0.4,0.1,0.5,0.2c0.2,0.1,0.7,0.3,0.8,0.3c0.2,0.1,2.4,1.2,3,1.9c0.2,0.2,0.5,0.5,0.7,0.8c0.2,0.3,1.2,2.6-0.3,4.7
		c-0.7,1-2.1,2-3.5,2.1c-1.9,0.2-3.4-0.4-3.6-0.5c-1-0.4-1.7-0.8-2.6-1.5c-0.2-0.2-0.8-0.5-0.8-0.8c0-0.2,0.2-0.7,0.4-0.9
		c0.2-0.3,0.4-0.5,0.6-0.7c0.2-0.2,0.3-0.5,0.6-0.8c0.1-0.2,0.5-0.6,0.7-0.6c0.3,0,0.8,0.5,1.1,0.7c0.2,0.1,0.8,0.6,0.9,0.7
		c0.4,0.3,1.7,1,2.1,0.9c0.5-0.1,0.9-0.7,0.8-1.1c-0.1-0.3-0.3-0.4-0.6-0.6c-0.2-0.1-1.4-0.7-1.7-0.8c-0.3-0.1-2.1-1.1-2.5-1.4
		c-0.1-0.1-2.2-2.1-1-5c0.3-0.6,1.6-2.5,4.7-2.2c0.3,0,0.9,0,1.4,0.1c0.5,0.1,1.9,0.5,2.1,0.6C65.3,13.3,66,13.5,66.5,14z"/>
	<path fill="#FFFFFF" d="M22.6,24.9c-0.3-0.3-1-1.1-1-1.2c-0.1-0.2-1-1.1-1.2-1.4c-0.6-0.8-1.1-1.4-1.7-2.1
		c-0.3-0.4-0.6-0.7-0.9-1.1c-0.3-0.4-2.9-3.5-3.5-4.2c1-1,2.1-2.1,3.1-3.1c0.1-0.1,0.2-0.2,0.3-0.3c0.5-0.5,1.1-0.9,1.5-1.4
		c0.5-0.6,1.1-1.1,1.6-1.6c0.9-0.8,1.7-1.8,2.6-2.6C23.5,5.6,24.1,5.2,24,5c-0.2-0.2-1.8-0.1-2.2-0.1c-0.1,0-1.2,0-1.7,0
		c-0.4,0-1.3-0.1-1.6,0c-0.3,0.1-0.8,0.8-1.1,1.1c-0.7,0.7-1.2,1.3-1.8,1.9c-0.3,0.3-0.6,0.6-0.9,0.9c-1.3,1.3-2.3,2.4-3.4,3.5
		c-0.1-2,0-7.1,0-7.1c0-0.2,0-0.3,0-0.3c-0.1-0.3-4-0.1-4.1-0.1C7,5,7,5.4,7,5.7C7,6,7,6.3,7,6.6c0,1.5,0,8.2,0,8.7
		c0,0.5,0,4.3,0,5.8c0,2.3,0,4,0,5.2c-0.1,0.2,0.4,0.3,0.6,0.3c0.2,0,1.6,0.1,2.4,0c0.3,0.1,1.1,0,1.1-0.3c0-0.4,0-1.7,0-2
		c0-2.1,0-4.6,0-6.6c0,0,0-0.1,0.1,0c0.3,0.4,0.7,0.9,1,1.3c0.4,0.4,1.6,1.9,1.7,2.1c1.1,1.3,2.1,2.5,3.1,3.8
		c0.2,0.2,0.5,0.6,0.7,0.9c0.2,0.3,0.5,0.7,0.6,0.7c0.4,0.2,1,0,1.5,0c0.6,0,1.3,0,2,0c0.3,0,0.7,0,1,0c0.3,0,0.6,0.1,0.9,0
		c0.2-0.2-0.1-0.4-0.2-0.5C23.3,25.8,22.9,25.3,22.6,24.9z"/>
</g>
</svg>
