<?xml version="1.0" encoding="utf-8"?>
<!-- Generator: Adobe Illustrator 18.1.1, SVG Export Plug-In . SVG Version: 6.00 Build 0)  -->
<svg version="1.1" id="Layer_1" xmlns="http://www.w3.org/2000/svg" xmlns:xlink="http://www.w3.org/1999/xlink" x="0px" y="0px"
	 viewBox="-684.8 1433.8 820.9 136.2" enable-background="new -684.8 1433.8 820.9 136.2" xml:space="preserve">
<g id="Layer_1_1_">
	<g>
		<g>
			<g>
				<path fill="#F27B21" d="M-383.2,1486.5c0.1-13.7-12-23.1-26.6-23.1l-61,0l0,75.8l23.2,0l0-28.6l16.2,0l21.6,28.6l26.3,0
					l-23.3-29.9C-393.9,1509.5-383.3,1499.3-383.2,1486.5z M-419.5,1498.6l-28.2,0v-23.3l28.7,0c6.8-0.1,12.5,5.5,12.3,12.1
					C-406.9,1493.9-412.8,1498.9-419.5,1498.6z"/>
			</g>
		</g>
		<g>
			<g>
				<path fill="#F27B21" d="M-281.7,1486.5c0.1-13.7-12-23.1-26.6-23.1h-61l0,75.8l23.2,0l0-28.6l16.2,0l21.6,28.6l26.3,0
					l-23.3-29.9C-292.5,1509.5-281.8,1499.3-281.7,1486.5z M-318,1498.6l-28.2,0v-23.3l28.7,0c6.8-0.1,12.5,5.5,12.3,12.1
					C-305.5,1493.9-311.3,1498.9-318,1498.6z"/>
			</g>
		</g>
		<polygon fill="#F27B21" points="-536,1505.5 -491.4,1505.5 -491.4,1494.4 -535.8,1494.4 -535.8,1475 -484.1,1474.9 -484.1,1463.4 
			-559.2,1463.4 -559.2,1539.2 -483.6,1539.2 -483.6,1527.6 -536,1527.6 		"/>
		<polygon fill="#F27B21" points="-245,1505.5 -200.4,1505.5 -200.4,1494.4 -244.9,1494.4 -244.8,1475 -193.1,1474.9 -193.1,1463.4 
			-268.2,1463.4 -268.2,1539.2 -192.7,1539.2 -192.7,1527.6 -245,1527.6 		"/>
		<polygon fill="#F27B21" points="-630.8,1520.9 -654.6,1463.4 -684.8,1463.4 -684.8,1539.2 -670.8,1539.2 -670.8,1477.1 
			-647.7,1539.2 -622.6,1539.2 -599.6,1477 -599.5,1539.2 -575.8,1539.2 -575.8,1463.4 -609.4,1463.4 		"/>
		<polygon fill="#F27B21" points="-156.9,1463.4 -179.9,1463.4 -179.9,1539.2 -107.2,1539.2 -107.2,1527.7 -156.9,1527.7 		"/>
		<polygon fill="#F27B21" points="-73.5,1463.4 -96.5,1463.4 -96.5,1539.2 -23.9,1539.2 -23.8,1527.7 -73.5,1527.7 		"/>
		<path fill="#F27B21" d="M52.7,1433.8c-37.6,0-68.1,30.5-68.1,68.1c0,37.6,30.5,68.1,68.1,68.1c37.6,0,68.1-30.5,68.1-68.1
			C120.8,1464.3,90.3,1433.8,52.7,1433.8z M94.1,1524.8v-41l-13.7,45l-18.4,5.5l-20.4-53.6v59.6l-29,8.6v-95.7l44.8,7l15.3,43.2
			l11.3-38.9l21.9,3.4v53.2L94.1,1524.8z"/>
	</g>
</g>
<g id="Artwork">
	<g>
		<path fill="#F37021" d="M127.3,1471.3H125v6.4h-0.9v-6.4h-2.4v-0.8h5.5L127.3,1471.3L127.3,1471.3z M132.4,1476.2l2.2-5.7h1.5v7.1
			h-0.9v-6.4h0l-2.6,6.4h-0.5l-2.6-6.4h0v6.4h-0.9v-7.1h1.5L132.4,1476.2z"/>
	</g>
</g>
</svg>
