<?xml version="1.0" encoding="utf-8"?>
<!-- Generator: Adobe Illustrator 16.0.4, SVG Export Plug-In . SVG Version: 6.00 Build 0)  -->
<!DOCTYPE svg PUBLIC "-//W3C//DTD SVG 1.1//EN" "http://www.w3.org/Graphics/SVG/1.1/DTD/svg11.dtd">
<svg version="1.1" id="Layer_1" xmlns="http://www.w3.org/2000/svg" xmlns:xlink="http://www.w3.org/1999/xlink" x="0px" y="0px"
	 width="437px" height="152px" viewBox="0 0 437 152" enable-background="new 0 0 437 152" xml:space="preserve">
<polygon fill="#002F65" points="45.52,88.917 40.115,88.917 40.115,105.161 36.458,105.161 36.458,88.917 31.162,88.917 
	31.162,85.592 45.52,85.592 "/>
<g>
	<path fill="#002F65" d="M71.762,88.446c-3.354,0-5.6,2.716-5.6,6.792c0,4.407,2.44,7.04,5.683,7.04
		c2.439,0,5.571-1.774,5.654-6.486C77.583,91.967,75.615,88.446,71.762,88.446 M71.733,105.659c-2.467,0-4.739-0.693-6.735-2.992
		c-1.942-2.247-2.606-4.797-2.606-7.264c0-5.986,4.048-10.31,9.397-10.31c4.851,0,9.397,3.602,9.37,10.284
		C81.13,100.975,77.749,105.659,71.733,105.659"/>
	<path fill="#002F65" d="M104.304,88.724v6.791h2.635c0.776,0,1.44,0,2.078-0.167c2.273-0.555,2.411-2.633,2.411-3.326
		c0-1.441-0.636-2.189-0.97-2.495c-0.914-0.775-2.19-0.803-3.382-0.803H104.304z M100.618,85.591h6.597c1.082,0,2.219,0,3.355,0.306
		c1.912,0.525,4.6,2.244,4.6,6.209c0,2.605-1.22,5.403-4.712,6.18c-1.081,0.249-2.105,0.249-3.298,0.249h-2.856v6.626h-3.686V85.591
		z"/>
</g>
<rect x="133.859" y="94.904" fill="#002F65" width="10.845" height="3.105"/>
<g>
	<path fill="#002F65" d="M166.579,99.34c0.471,0.72,1.941,2.965,6.071,2.965c0.693,0,1.414-0.056,2.106-0.332
		c1.413-0.582,1.662-1.581,1.662-2.247c0-1.246-0.858-1.689-1.468-1.939c-0.443-0.167-0.5-0.194-2.273-0.61l-2.356-0.5
		c-1.247-0.305-1.857-0.443-2.467-0.692c-0.886-0.36-3.298-1.553-3.298-4.794c0-3.716,3.132-6.099,7.733-6.099
		c4.213,0,6.485,2.079,7.871,3.963l-2.993,2.245c-0.665-0.971-1.939-2.91-5.073-2.91c-1.968,0-3.686,0.887-3.686,2.383
		c0,1.663,1.829,1.997,3.604,2.328l2.022,0.443c2.633,0.556,6.348,1.635,6.348,5.821c0,4.491-4.158,6.292-8.315,6.292
		c-1.082,0-2.3-0.11-3.492-0.443c-1.303-0.388-3.603-1.331-5.072-3.714L166.579,99.34z"/>
</g>
<rect x="204.373" y="85.592" fill="#002F65" width="3.604" height="19.569"/>
<g>
	<path fill="#002F65" d="M236.714,88.917v12.945h1.55c2.774,0,3.744-0.14,4.574-0.443c1.416-0.557,2.91-1.775,2.91-5.849
		c0-1.829-0.277-4.824-2.993-6.126c-1.054-0.471-1.635-0.499-4.102-0.527H236.714z M233.053,85.591h7.014
		c1.692,0.027,3.743,0.057,5.794,1.524c3.27,2.302,3.769,6.237,3.769,8.427c0,3.354-1.136,6.764-4.02,8.426
		c-1.939,1.138-3.991,1.164-6.292,1.193h-6.266V85.591z"/>
</g>
<polygon fill="#002F65" points="274.184,88.862 274.184,93.463 283.607,93.463 283.607,96.622 274.184,96.622 274.184,101.863 
	285.188,101.863 285.188,105.161 270.58,105.161 270.58,85.591 284.495,85.591 284.495,88.862 "/>
<g>
	<path fill="#002F65" d="M310.212,88.751v6.126h1.276c1.246,0,1.717-0.029,2.41-0.055c0.805-0.029,3.438-0.167,3.438-3.022
		c0-0.416-0.027-1.857-1.552-2.634c-0.776-0.388-1.719-0.415-3.882-0.415H310.212z M306.581,85.591h6.238
		c2.604,0.027,4.351,0.027,6.07,1.413c1.219,0.998,2.16,2.551,2.16,4.824c0,3.743-2.744,5.044-3.851,5.376l4.352,7.957h-4.188
		l-3.88-7.264h-3.27v7.264h-3.631V85.591z"/>
	<path fill="#002F65" d="M27.499,67.391l3.991-7.65l0.773,0.326c0,0-0.078,0.402,0.206,0.803c0.294,0.394,0.51,0.946,2.116,1.69
		c0,0,1.697,0.788,3.729,1.368c0.866,0.245,1.88,0.625,4.874,0.979c0.66,0.077,2.254,0.297,3.896,0.228c0,0,3.327-0.279,4.062-0.418
		c0.676-0.131,2.327-0.492,2.975-0.724c0.587-0.196,1.245-0.381,1.871-0.817c0.63-0.441,0.994-0.518,1.491-1.421
		c0,0,0.225-0.227,0.243-0.491c0.021-0.263,0.121-0.807,0.072-1.083c-0.052-0.279-0.248-0.86-0.489-1.142
		c-0.247-0.277-0.598-0.595-1.037-0.816c-0.438-0.23-1.062-0.442-1.505-0.566c-0.435-0.123-1.589-0.382-2.094-0.433
		c-0.512-0.055-2.103-0.19-2.594-0.226c-0.492-0.038-2.801-0.14-3.325-0.179c0,0-4.182-0.225-4.8-0.285
		c-0.61-0.044-2.744-0.275-3.374-0.377c-0.631-0.104-2.944-0.551-3.493-0.74c-0.553-0.18-2.23-0.732-2.733-1.021
		c-0.498-0.286-1.862-1.158-2.174-1.577c0,0-1.815-1.701-2.18-4.565c-0.076-0.582-0.102-2.441,0.259-3.653
		c0.489-1.6,1.067-2.239,2.128-3.41c0,0,1.605-1.472,2.232-1.782c0.632-0.316,1.965-1.1,2.967-1.47
		c0.398-0.151,2.8-0.897,3.807-1.052c0.711-0.11,2.146-0.367,4.147-0.497c0.443-0.033,3.648-0.059,4.23-0.033
		c0.577,0.033,3.726,0.265,5.325,0.556c1.082,0.191,3.652,0.812,4.467,1.026c0.812,0.206,2.152,0.7,2.57,0.81
		c0.418,0.103,1.259,0.344,1.549,0.446c0.289,0.104,1.104,0.292,1.339,0.292c0.233,0,0.684,0.077,0.995,0
		c0.32-0.078,0.483-0.099,0.604-0.147c0.125-0.055,0.214-0.178,0.214-0.178l0.118-0.016l0.81,0.468l-5,7.915H60.54l-0.317-0.125
		l-0.184-0.041l-0.077-0.081c0,0-0.068-0.371-0.209-0.759c-0.079-0.225-0.129-0.341-0.304-0.563
		c-0.172-0.228-0.666-0.726-0.997-0.934c-0.328-0.206-1.628-1.012-2.836-1.417c-1.205-0.404-2.838-1.102-5.071-1.392
		c-1.395-0.179-2.328-0.422-3.851-0.397c-1.529,0.026-3.596,0.041-5.154,0.344c-1.756,0.343-2.937,0.688-4.169,1.525
		c-0.339,0.221-0.817,0.913-0.944,1.203c-0.132,0.291-0.181,1.233-0.076,1.471c0.104,0.239,0.31,1.051,1.02,1.47
		c0.708,0.422,1.445,0.896,2.57,1.131c1.129,0.237,3.204,0.417,3.916,0.52c0.707,0.104,3.624,0.241,4.411,0.292
		c0.786,0.052,4.698,0.397,5.563,0.474c2.653,0.24,4.04,0.627,4.698,0.817c0.655,0.18,3.574,1.205,4.859,2.312
		c0,0,1.917,1.309,2.521,4.009c0.175,0.802,0.629,3.021-0.314,5.413c-0.328,0.825-1.211,2.493-2.999,3.672
		c-0.648,0.437-1.628,1.471-5.35,2.622c-0.606,0.192-4.443,1.267-7.586,1.395c-0.946,0.041-5.804,0.217-8.716-0.099
		c-0.709-0.083-3.784-0.422-6.224-1.296c-0.672-0.232-2.394-0.885-2.915-1.045c-0.526-0.156-1.524-0.521-1.731-0.563
		c-0.211-0.041-0.371-0.13-0.62-0.092c-0.251,0.041-0.371,0.092-0.499,0.155c-0.132,0.067-0.261,0.149-0.312,0.214
		c-0.057,0.066-0.136,0.13-0.136,0.13l-0.09,0.025L27.499,67.391z"/>
	<path fill="#002F65" d="M106.542,50.722c1.616-0.042,2.06-0.331,2.384-0.398c1.036-0.181,1.845-1.047,1.845-1.047
		c1.1-1.047,0.942-2.442,0.916-3.07c-0.053-1.239-0.789-2.075-1.155-2.394c-0.859-0.734-1.734-0.863-2.438-1.05
		c-0.713-0.181-2.389-0.238-2.389-0.238H90.107v8.224L106.542,50.722z M79.076,70.262l-0.013-1.145c0,0,1.665,0.008,2.239-0.344
		c0.144-0.085,0.362-0.181,0.455-0.576V39.092c0,0-0.057-0.479-0.313-0.671c-0.182-0.138-0.75-0.417-1.065-0.473
		c-0.312-0.051-1.34-0.082-1.34-0.082V36.73h24.96c0,0,3.433,0.027,5.54,0.283c2.096,0.264,4.669,0.529,7.714,2.917
		c1.491,1.172,3.573,4.097,2.543,9.212c-0.336,1.701-1.411,4.412-5.22,5.886c-1.356,0.522-2.205,1.076-6.928,1.469
		c-1.443,0.123-3.891,0.051-5.121,0.051h-12.25c0,0-0.146-0.026-0.133,0.245v10.993c0,0,0.017,0.684,0.294,0.868
		c0.273,0.183,0.546,0.292,0.81,0.363c0.433,0.116,1.251,0.091,1.251,0.091v1.166L79.076,70.262z"/>
	<path fill="#002F65" d="M169.268,35.213v8.379h-1.244c0,0,0.089-0.354-0.254-0.694c-0.339-0.342-0.765-0.497-1.354-0.57
		c0,0-0.883-0.127-1.368-0.141c-0.463-0.011-23.661,0-23.661,0l-0.083,0.034v7.674l0.045,0.166l0.062,0.06h14.532
		c0,0,1.223-0.029,1.562-0.133c0.344-0.108,0.773-0.241,1.088-0.722c0.278-0.417,0.274-0.742,0.318-1.305h1.289v9.93h-1.312
		c0,0,0.007-0.762-0.211-1.169c-0.216-0.401-0.383-0.747-1.201-0.963c0,0-0.538-0.17-1.52-0.192c-0.438-0.004-14.613,0-14.613,0
		v8.813h25.262c0,0,0.87-0.09,1.361-0.544c0.29-0.259,0.459-0.527,0.497-0.703c0.04-0.161,0.043-0.357,0.043-0.357h1.317v8.918
		h-1.303v-0.446c0,0-0.142-0.279-0.276-0.422c-0.128-0.161-0.316-0.342-0.667-0.41c-0.348-0.071-1.431-0.172-1.921-0.169
		c-0.502,0.014-33.958,0-33.958,0v-1.069c0,0,0.692-0.122,0.91-0.318c0.165-0.146,0.31-0.328,0.394-0.584V39.039
		c0,0-0.076-0.458-0.254-0.618c-0.178-0.162-0.505-0.426-0.766-0.491c-0.263-0.064-0.375-0.076-0.375-0.076v-1.085h33.748
		c0,0,0.924-0.038,1.163-0.095c0.232-0.053,0.625-0.17,0.805-0.3c0.188-0.131,0.318-0.251,0.408-0.366
		c0.094-0.125,0.17-0.237,0.17-0.237s0.086-0.202,0.086-0.341c0-0.144,0.018-0.196,0.018-0.196"/>
	<path fill="#002F65" d="M207.347,51.692c3.29-0.156,4.534-0.543,4.89-0.663c1.645-0.52,2.314-1.05,2.645-1.451
		c0.974-1.199,0.93-1.812,0.959-2.202c0.133-1.698-0.404-2.287-0.579-2.559c-0.916-1.488-2.801-1.942-4.13-2.23
		c-1.328-0.291-3.999-0.359-3.999-0.359h-13.147c0,0-0.013,9.105-0.005,9.194c0.005,0.089,0.103,0.252,0.103,0.252
		S206.972,51.711,207.347,51.692 M183.555,69.195c0,0,1.205-0.095,1.407-0.225c0,0,0.39-0.178,0.477-0.342
		c0.083-0.155,0.172-0.318,0.198-0.547c0.026-0.231,0.021-0.438,0.021-0.557c0-0.166-0.051-28.099-0.051-28.099
		s-0.008-0.542-0.098-0.748c-0.052-0.122-0.173-0.296-0.173-0.296s-0.228-0.254-0.666-0.356c-0.432-0.088-0.891-0.104-1.037-0.104
		c-0.15,0-0.189-0.003-0.189-0.003v-1.142H207.3c0,0,4.812-0.102,7.122,0.423c2.104,0.479,5.529,0.888,8.058,3.937
		c0.814,0.973,2.051,3.257,1.76,6.668c-0.089,1.059-0.289,2.917-2.734,5.202c-0.8,0.754-2.224,1.652-4.509,2.312
		c-0.794,0.222-1.401,0.402-2.916,0.719c-0.375,0.076-0.407,0.041-0.407,0.041v0.14l9.8,11.994c0,0,0.411,0.462,0.688,0.599
		c0.277,0.133,0.602,0.255,0.774,0.281c0.168,0.026,1.08,0.087,1.08,0.087v1.095h-13.749v-1.109c0,0,0.214-0.001,0.53-0.046
		c0.309-0.03,0.574-0.077,0.787-0.256c0.202-0.173,0.247-0.208,0.279-0.367c0.056-0.232-0.117-0.49-0.232-0.723
		c-0.124-0.226-0.387-0.454-0.387-0.454l-8.697-10.693l-10.548-0.012l0.051,11.541c0,0,0.06,0.424,0.169,0.499
		c0.102,0.068,0.394,0.318,0.592,0.363c0.207,0.049,0.464,0.159,0.938,0.163l0.49,0.006v1.077h-12.691L183.555,69.195z"/>
	<path fill="#002F65" d="M262.368,51.692c3.295-0.156,4.534-0.543,4.891-0.663c1.644-0.52,2.313-1.05,2.645-1.451
		c0.967-1.199,0.928-1.812,0.959-2.202c0.129-1.698-0.406-2.287-0.573-2.559c-0.928-1.488-2.808-1.942-4.141-2.23
		c-1.329-0.291-3.995-0.359-3.995-0.359h-13.152c0,0-0.013,9.105-0.009,9.194c0.014,0.089,0.104,0.252,0.104,0.252
		S261.984,51.711,262.368,51.692 M238.567,69.195c0,0,1.208-0.095,1.415-0.225c0,0,0.387-0.178,0.476-0.342
		c0.084-0.155,0.168-0.318,0.194-0.547c0.031-0.231,0.019-0.438,0.019-0.557c0-0.166-0.051-28.099-0.051-28.099
		s-0.007-0.542-0.096-0.748c-0.053-0.122-0.169-0.296-0.169-0.296s-0.231-0.254-0.67-0.356c-0.438-0.088-0.883-0.104-1.033-0.104
		c-0.149,0-0.186-0.003-0.186-0.003v-1.142h23.855c0,0,4.815-0.102,7.118,0.423c2.107,0.479,5.535,0.888,8.063,3.937
		c0.812,0.973,2.05,3.257,1.76,6.668c-0.092,1.059-0.288,2.917-2.727,5.202c-0.809,0.754-2.242,1.652-4.524,2.312
		c-0.788,0.222-1.4,0.402-2.907,0.719c-0.385,0.076-0.409,0.041-0.409,0.041v0.14l9.801,11.994c0,0,0.413,0.462,0.687,0.599
		c0.273,0.133,0.604,0.255,0.776,0.281c0.169,0.026,1.07,0.087,1.07,0.087v1.095H267.29v-1.109c0,0,0.204-0.001,0.522-0.046
		c0.311-0.03,0.582-0.077,0.793-0.256c0.2-0.173,0.245-0.208,0.276-0.367c0.053-0.232-0.116-0.49-0.24-0.723
		c-0.119-0.226-0.378-0.454-0.378-0.454l-8.703-10.693l-10.547-0.012l0.051,11.541c0,0,0.064,0.424,0.168,0.499
		c0.104,0.068,0.387,0.318,0.596,0.363c0.196,0.049,0.463,0.159,0.932,0.163l0.49,0.006v1.077h-12.689L238.567,69.195z"/>
	<path fill="#002F65" d="M302.873,69.184c0,0,0.714-0.021,0.999-0.215c0.471-0.346,0.536-0.556,0.516-1.356l0.006-10.76
		c0,0-0.006-0.187-0.127-0.318c-0.124-0.116-14.329-17.301-14.329-17.301s-0.66-0.458-0.856-0.563
		c-0.194-0.109-0.67-0.347-0.926-0.422c-0.217-0.079-0.791-0.27-0.968-0.27c-0.196,0-0.48-0.023-0.48-0.023v-1.128h15.318v1.044
		l-0.165,0.107c0,0-0.611-0.015-0.64,0c-0.037,0.012-0.521,0.067-0.669,0.237c-0.163,0.176-0.342,0.146-0.361,0.548
		c-0.012,0.19,0.122,0.501,0.173,0.594c0.008,0.01,0.398,0.688,0.938,1.44c0.521,0.731,1.186,1.531,1.54,2.002
		c0.833,1.083,1.918,2.364,2.886,3.587c1.844,2.353,3.448,4.479,3.448,4.479s0.04,0.057,0.079,0.071
		c0.033,0.011,0.06,0.017,0.06,0.017s0.734-0.861,0.836-1.05c0.103-0.18,1.639-1.927,1.865-2.231
		c0.228-0.294,3.542-4.228,3.871-4.631c0.328-0.408,1.419-1.589,1.585-1.868c0.176-0.274,1.315-1.625,1.447-1.841
		c0.134-0.228,0.172-0.306,0.214-0.413c0.03-0.102,0.062-0.182,0.062-0.274c0-0.083,0.006-0.107-0.076-0.211
		c-0.079-0.103-0.177-0.175-0.267-0.244c-0.097-0.066-0.491-0.122-0.698-0.164c-0.206-0.035-0.953-0.113-0.953-0.113v-1.085h12.858
		c0,0,0.065,0.036,0.065,0.059c0.003,0.019,0,1.036,0,1.036s-0.092-0.009-0.131,0.008c-0.033,0.018-0.038,0.051-0.038,0.051
		s-0.705-0.002-0.809,0.026c-0.065,0.013-0.901,0.007-2.451,1.648c-0.3,0.319-1.496,1.74-1.496,1.74s-2.038,2.488-2.326,2.844
		c-0.292,0.359-2.499,3.032-2.719,3.323c-0.232,0.291-2.3,2.876-2.561,3.18c-0.253,0.297-1.954,2.395-2.174,2.664
		c-0.22,0.277-1.657,2.035-1.89,2.304c-0.24,0.267-0.291,0.344-0.386,0.452c-0.104,0.107-0.219,0.238-0.265,0.312
		c-0.044,0.069-0.104,0.14-0.116,0.241c-0.014,0.079-0.028,0.303-0.028,0.303l0.059,11.104c0,0,0.009,0.348,0.149,0.497
		c0.15,0.147,0.291,0.294,0.473,0.353c0.185,0.06,0.515,0.192,0.688,0.208c0.168,0.011,0.361,0,0.361,0l-0.006,1.148h-11.585V69.184
		z"/>
	<path fill="#002F65" d="M322.896,67.167c0.429,0,0.814-0.033,0.814-0.548c0-0.416-0.375-0.491-0.732-0.491h-0.687v1.04H322.896z
		 M322.292,69.041h-0.512v-3.346h1.278c0.795,0,1.182,0.293,1.182,0.956c0,0.601-0.369,0.86-0.863,0.92l0.946,1.469h-0.568
		l-0.881-1.447h-0.582V69.041z M322.902,69.794c1.315,0,2.348-1.031,2.348-2.429c0-1.377-1.032-2.41-2.348-2.41
		c-1.329,0-2.366,1.032-2.366,2.41C320.536,68.763,321.574,69.794,322.902,69.794 M319.956,67.365c0-1.67,1.347-2.895,2.946-2.895
		c1.583,0,2.937,1.224,2.937,2.895c0,1.675-1.354,2.908-2.937,2.908C321.303,70.273,319.956,69.041,319.956,67.365"/>
	<path fill="#002F65" d="M366.967,77.636c3.812,1.792,7.35,1.946,10.524,0.396c8.096-3.953,12.106-17.684,13.539-23.882
		C387.377,59.528,378.33,71.522,366.967,77.636"/>
	<path fill="#002F65" d="M405.436,75.702c-0.009,0.009-0.021,0.019-0.031,0.028l0.002-0.001c-0.002,0.002-0.006,0.003-0.009,0.006
		c-13.41,12.655-30.636,10.296-42.481,3.787c-5.436,2.09-11.269,2.64-17.217,0.371c-0.265-0.102-0.423-0.375-0.38-0.656
		c0.045-0.282,0.279-0.494,0.564-0.509c25.028-1.333,46.751-31.061,46.966-31.361c0.151-0.21,0.421-0.3,0.67-0.223
		c0.248,0.077,0.417,0.304,0.421,0.564c0.022,1.026,0.385,25.241-11.256,32.699c-0.464,0.295-0.943,0.551-1.432,0.786
		c7.713,0.734,16.229-0.463,23.384-6.392c0.249-0.207,0.62-0.179,0.835,0.063c0.102,0.117,0.152,0.257,0.152,0.401
		C405.624,75.425,405.561,75.584,405.436,75.702 M400.192,86.282c-11.092,11.588-30.86,8.462-38.278,2.864
		c-2.649,1.078-7.07,0.54-10.996-1.412c-0.279-0.138-0.407-0.469-0.291-0.758c0.115-0.292,0.433-0.447,0.733-0.358
		c0.045,0.013,4.722,1.339,10.931-1.465c0.182-0.083,0.394-0.069,0.565,0.037c0.189,0.118,19.357,11.721,36.564,0.174
		c0.255-0.171,0.598-0.123,0.796,0.113C400.416,85.713,400.404,86.058,400.192,86.282 M406.075,36.613h-61.302
		c-2.034,0-3.699,1.665-3.699,3.698v61.303c0,2.034,1.665,3.699,3.699,3.699h61.302c2.034,0,3.698-1.666,3.698-3.699V40.311
		C409.773,38.278,408.109,36.613,406.075,36.613"/>
</g>
</svg>
