<?xml version="1.0" encoding="utf-8"?>
<!-- Generator: Adobe Illustrator 16.0.4, SVG Export Plug-In . SVG Version: 6.00 Build 0)  -->
<!DOCTYPE svg PUBLIC "-//W3C//DTD SVG 1.1//EN" "http://www.w3.org/Graphics/SVG/1.1/DTD/svg11.dtd">
<svg version="1.1" id="Layer_1" xmlns="http://www.w3.org/2000/svg" xmlns:xlink="http://www.w3.org/1999/xlink" x="0px" y="0px"
	 width="621px" height="174px" viewBox="0 0 621 174" enable-background="new 0 0 621 174" xml:space="preserve">
<g>
	<g>
		<defs>
			<rect id="SVGID_1_" x="20" y="32.757" width="569.121" height="97.385"/>
		</defs>
		<clipPath id="SVGID_2_">
			<use xlink:href="#SVGID_1_"  overflow="visible"/>
		</clipPath>
		<path clip-path="url(#SVGID_2_)" fill="#EF413D" d="M36.553,109.777c1.79,5.471,7.136,8.289,14.276,8.289
			c7.475,0,12.351-2.667,12.351-7.844c0-3.529-2.44-5.462-8.447-6.781L39.8,100.199c-10.222-2.224-17.86-7.224-17.86-18.005
			c0-11.783,11.527-20.515,27.267-20.515c16.886,0,26.464,7.375,28.9,19.33H62.199c-1.459-4.282-5.679-7.227-13.147-7.227
			c-5.67,0-11.514,2.35-11.514,7.53c0,2.943,2.262,4.864,7.449,6.046l15.268,3.255c12.325,2.66,18.482,8.984,18.482,18.578
			c0,12.984-11.835,20.953-28.056,20.953c-16.875,0-28.572-7.667-30.681-20.366H36.553z"/>
		<path clip-path="url(#SVGID_2_)" fill="#F6891F" d="M91.908,75.415H80.536V63.159h11.373V45.593h16.236v17.566h16.216v12.255
			h-16.216v33.941c0,5.308,3.227,7.661,8.577,7.661c3.265,0,7.006-1.177,9.261-2.666v13.443c-2.749,1.473-7.129,2.35-12.16,2.35
			c-12.832,0-21.915-6.183-21.915-19.169V75.415z"/>
		<path clip-path="url(#SVGID_2_)" fill="#7AC144" d="M176.312,78.064c-2.264-1.474-6.177-2.226-9.576-2.226
			c-6.655,0-12.836,3.397-14.445,10.492v42.347h-16.231V63.159h16.231v6.788c2.753-4.878,9.086-8.269,16.079-8.269
			c3.562,0,6.796,0.598,7.942,1.185V78.064z"/>
		<path clip-path="url(#SVGID_2_)" fill="#7D7FBD" d="M192.854,52.381c-5.339,0-10.05-3.989-10.05-9.006
			c0-5.025,4.71-9.001,10.05-9.001c5.365,0,10.079,3.976,10.079,9.001C202.932,48.393,198.219,52.381,192.854,52.381
			 M200.977,128.68h-16.229V63.158h16.229V128.68z"/>
		<path clip-path="url(#SVGID_2_)" fill="#EF413D" d="M261.365,123.067c-3.238,3.69-10.378,7.076-18.341,7.076
			c-21.099,0-33.437-15.334-33.437-34.224c0-18.749,12.338-34.241,33.437-34.241c7.962,0,15.103,3.391,18.341,7.1V32.758h16.233
			v95.92h-16.233V123.067z M261.365,83.507c-2.753-5.162-8.928-8.702-15.579-8.702c-12.51,0-19.965,9.014-19.965,21.115
			c0,12.104,7.455,21.094,19.965,21.094c6.651,0,12.825-3.541,15.579-8.712V83.507z"/>
		<path clip-path="url(#SVGID_2_)" fill="#F6891F" d="M350.635,108.3c-2.44,13.001-12.984,21.843-30.351,21.843
			c-20.104,0-34.089-13.866-34.089-34.086c0-19.631,14.124-34.379,33.768-34.379c20.298,0,31.323,13.127,31.323,32.321v5.308
			h-49.176c0.482,11.518,7.799,18.438,18.175,18.438c7.806,0,13.63-3.08,15.422-9.446H350.635z M302.592,88.546h32.639
			c-0.158-7.974-5.195-14.463-15.109-14.463C311.203,74.083,304.55,79.085,302.592,88.546"/>
		<path clip-path="url(#SVGID_2_)" fill="#7AC144" d="M429.364,78.064c-2.269-1.474-6.168-2.226-9.571-2.226
			c-6.653,0-12.821,3.397-14.455,10.492v42.347h-16.22V63.159h16.22v6.788c2.771-4.878,9.089-8.269,16.072-8.269
			c3.583,0,6.827,0.598,7.954,1.185V78.064z"/>
		<path clip-path="url(#SVGID_2_)" fill="#7D7FBD" d="M445.926,52.381c-5.354,0-10.055-3.989-10.055-9.006
			c0-5.025,4.7-9.001,10.055-9.001c5.361,0,10.062,3.976,10.062,9.001C455.987,48.393,451.287,52.381,445.926,52.381
			 M454.036,128.68h-16.22V63.158h16.22V128.68z"/>
		<path clip-path="url(#SVGID_2_)" fill="#EF413D" d="M471.427,75.415h-11.375V63.159h11.375V45.593h16.218v17.566h16.216v12.255
			h-16.216v33.941c0,5.308,3.252,7.661,8.593,7.661c3.254,0,6.995-1.177,9.268-2.666v13.443c-2.762,1.473-7.148,2.35-12.175,2.35
			c-12.823,0-21.903-6.183-21.903-19.169V75.415z"/>
		<path clip-path="url(#SVGID_2_)" fill="#F6891F" d="M574.971,108.3c-2.44,13.001-12.988,21.843-30.346,21.843
			c-20.133,0-34.094-13.866-34.094-34.086c0-19.631,14.124-34.379,33.773-34.379c20.276,0,31.316,13.127,31.316,32.321v5.308
			h-49.189c0.498,11.518,7.809,18.438,18.193,18.438c7.79,0,13.614-3.08,15.4-9.446H574.971z M526.93,88.546h32.621
			c-0.158-7.974-5.185-14.463-15.085-14.463C535.527,74.083,528.87,79.085,526.93,88.546"/>
		<path clip-path="url(#SVGID_2_)" fill="#F6891F" d="M580.865,68.689v-0.042h1.12c0.602-0.014,1.292,0.02,1.669,0.372
			c0.191,0.204,0.282,0.467,0.282,0.811c0,1.178-1.18,1.178-1.951,1.178h-1.071L580.865,68.689z M579.483,67.488v8.073l1.431-0.064
			l-0.049-3.277l1.12-0.041c0.046,0.031,2.053,3.35,2.053,3.35s1.261-0.025,1.415-0.032c-0.068-0.133-2.09-3.427-2.09-3.427h0.063
			c0.701-0.088,1.9-0.489,1.9-2.185c0-1.592-0.935-2.397-2.793-2.397H579.483z M576.309,71.547c0-3.246,2.621-5.902,5.831-5.902
			c3.221,0,5.826,2.656,5.826,5.902c0,3.244-2.605,5.887-5.826,5.887C578.93,77.434,576.309,74.791,576.309,71.547 M575.165,71.547
			c0,3.888,3.13,7.047,6.975,7.047c3.852,0,6.983-3.16,6.983-7.047c0-3.896-3.132-7.048-6.983-7.048
			C578.295,64.499,575.165,67.65,575.165,71.547"/>
	</g>
</g>
</svg>
