<?xml version="1.0" encoding="utf-8"?>
<!-- Generator: Adobe Illustrator 16.0.4, SVG Export Plug-In . SVG Version: 6.00 Build 0)  -->
<!DOCTYPE svg PUBLIC "-//W3C//DTD SVG 1.1//EN" "http://www.w3.org/Graphics/SVG/1.1/DTD/svg11.dtd">
<svg version="1.1" id="Layer_1" xmlns="http://www.w3.org/2000/svg" xmlns:xlink="http://www.w3.org/1999/xlink" x="0px" y="0px"
	 width="295.27px" height="54.054px" viewBox="0 0 295.27 54.054" enable-background="new 0 0 295.27 54.054" xml:space="preserve">
<g>
	<path fill="#333333" d="M26.582,34.996c0.816,0,1.545-0.135,2.187-0.405s1.185-0.657,1.629-1.161s0.783-1.119,1.017-1.845
		s0.351-1.551,0.351-2.475V13.576h6.084V29.11c0,1.608-0.261,3.084-0.783,4.428c-0.522,1.344-1.269,2.502-2.241,3.474
		s-2.154,1.728-3.546,2.268c-1.392,0.54-2.958,0.81-4.698,0.81c-1.752,0-3.324-0.27-4.716-0.81s-2.574-1.296-3.546-2.268
		c-0.972-0.972-1.716-2.13-2.232-3.474c-0.516-1.344-0.774-2.82-0.774-4.428V13.576h6.084v15.516c0,0.924,0.117,1.749,0.351,2.475
		c0.234,0.726,0.573,1.344,1.017,1.854s0.987,0.9,1.629,1.17S25.766,34.996,26.582,34.996z"/>
	<path fill="#333333" d="M51.476,31.036v8.766h-6.084V13.576h9.252c1.848,0,3.435,0.219,4.761,0.657s2.418,1.041,3.276,1.809
		c0.857,0.768,1.491,1.674,1.899,2.718c0.408,1.044,0.612,2.172,0.612,3.384c0,1.308-0.21,2.508-0.63,3.6
		c-0.42,1.092-1.062,2.028-1.926,2.808c-0.864,0.78-1.959,1.389-3.285,1.827c-1.326,0.438-2.896,0.657-4.707,0.657H51.476z
		 M51.476,26.446h3.168c1.584,0,2.724-0.378,3.42-1.134c0.696-0.756,1.044-1.812,1.044-3.168c0-0.6-0.09-1.146-0.27-1.638
		s-0.453-0.915-0.819-1.269c-0.366-0.354-0.828-0.627-1.386-0.819s-1.221-0.288-1.989-0.288h-3.168V26.446z"/>
	<path fill="#52ABCB" d="M87.972,13.576v4.68H77.208v6.642h8.964v4.698h-8.964v10.206h-6.12V13.576H87.972z"/>
	<path fill="#52ABCB" d="M119.338,26.68c0,1.896-0.327,3.66-0.981,5.292c-0.654,1.632-1.575,3.051-2.763,4.257
		c-1.188,1.206-2.619,2.151-4.293,2.835c-1.674,0.684-3.531,1.026-5.571,1.026s-3.9-0.342-5.58-1.026
		c-1.68-0.684-3.117-1.629-4.311-2.835c-1.194-1.206-2.118-2.625-2.772-4.257c-0.654-1.632-0.981-3.396-0.981-5.292
		c0-1.896,0.327-3.66,0.981-5.292c0.654-1.632,1.578-3.048,2.772-4.248c1.194-1.2,2.631-2.142,4.311-2.826
		c1.68-0.684,3.54-1.026,5.58-1.026s3.897,0.345,5.571,1.035c1.674,0.69,3.105,1.635,4.293,2.835c1.188,1.2,2.109,2.616,2.763,4.248
		C119.011,23.038,119.338,24.796,119.338,26.68z M113.11,26.68c0-1.296-0.168-2.463-0.504-3.501
		c-0.336-1.038-0.819-1.917-1.449-2.637c-0.63-0.72-1.401-1.272-2.313-1.656c-0.912-0.384-1.95-0.576-3.114-0.576
		c-1.176,0-2.223,0.192-3.141,0.576c-0.918,0.384-1.692,0.936-2.322,1.656c-0.63,0.72-1.113,1.599-1.449,2.637
		c-0.336,1.038-0.504,2.205-0.504,3.501c0,1.308,0.168,2.481,0.504,3.519c0.336,1.038,0.819,1.917,1.449,2.637
		c0.63,0.72,1.404,1.269,2.322,1.647s1.965,0.567,3.141,0.567c1.164,0,2.202-0.189,3.114-0.567s1.683-0.927,2.313-1.647
		c0.63-0.72,1.113-1.599,1.449-2.637C112.942,29.161,113.11,27.988,113.11,26.68z"/>
	<path fill="#52ABCB" d="M151.518,26.68c0,1.896-0.327,3.66-0.981,5.292c-0.654,1.632-1.575,3.051-2.763,4.257
		c-1.188,1.206-2.619,2.151-4.293,2.835c-1.674,0.684-3.531,1.026-5.571,1.026s-3.9-0.342-5.58-1.026
		c-1.68-0.684-3.117-1.629-4.311-2.835c-1.194-1.206-2.118-2.625-2.772-4.257c-0.654-1.632-0.981-3.396-0.981-5.292
		c0-1.896,0.327-3.66,0.981-5.292c0.654-1.632,1.578-3.048,2.772-4.248c1.194-1.2,2.631-2.142,4.311-2.826
		c1.68-0.684,3.54-1.026,5.58-1.026s3.897,0.345,5.571,1.035c1.674,0.69,3.105,1.635,4.293,2.835c1.188,1.2,2.109,2.616,2.763,4.248
		C151.191,23.038,151.518,24.796,151.518,26.68z M145.29,26.68c0-1.296-0.168-2.463-0.504-3.501
		c-0.336-1.038-0.819-1.917-1.449-2.637c-0.63-0.72-1.401-1.272-2.313-1.656c-0.912-0.384-1.95-0.576-3.114-0.576
		c-1.176,0-2.223,0.192-3.141,0.576c-0.918,0.384-1.692,0.936-2.322,1.656c-0.63,0.72-1.113,1.599-1.449,2.637
		c-0.336,1.038-0.504,2.205-0.504,3.501c0,1.308,0.168,2.481,0.504,3.519c0.336,1.038,0.819,1.917,1.449,2.637
		c0.63,0.72,1.404,1.269,2.322,1.647s1.965,0.567,3.141,0.567c1.164,0,2.202-0.189,3.114-0.567s1.683-0.927,2.313-1.647
		c0.63-0.72,1.113-1.599,1.449-2.637C145.122,29.161,145.29,27.988,145.29,26.68z"/>
	<path fill="#52ABCB" d="M175.887,13.576V18.4h-7.38v21.402h-6.084V18.4h-7.38v-4.824H175.887z"/>
	<path fill="#52ABCB" d="M193.274,35.41c0.84,0,1.584-0.072,2.232-0.216c0.648-0.144,1.26-0.336,1.836-0.576V30.64h-2.592
		c-0.384,0-0.684-0.102-0.9-0.306s-0.324-0.462-0.324-0.774v-3.348h9.324v11.07c-0.672,0.492-1.371,0.915-2.097,1.269
		s-1.5,0.645-2.322,0.873c-0.822,0.228-1.698,0.396-2.628,0.504c-0.93,0.108-1.929,0.162-2.997,0.162
		c-1.92,0-3.696-0.339-5.328-1.017c-1.632-0.678-3.045-1.614-4.239-2.808c-1.194-1.194-2.13-2.61-2.808-4.248
		c-0.678-1.638-1.017-3.417-1.017-5.337c0-1.956,0.324-3.753,0.972-5.391c0.648-1.638,1.575-3.051,2.781-4.239
		s2.664-2.112,4.374-2.772c1.71-0.66,3.621-0.99,5.733-0.99c1.092,0,2.118,0.09,3.078,0.27c0.96,0.18,1.845,0.426,2.655,0.738
		c0.81,0.312,1.551,0.684,2.223,1.116c0.672,0.432,1.272,0.9,1.8,1.404l-1.764,2.682c-0.168,0.252-0.369,0.45-0.603,0.594
		s-0.489,0.216-0.765,0.216c-0.36,0-0.732-0.12-1.116-0.36c-0.48-0.288-0.933-0.537-1.359-0.747
		c-0.426-0.21-0.861-0.381-1.305-0.513c-0.444-0.132-0.912-0.228-1.404-0.288c-0.492-0.06-1.044-0.09-1.656-0.09
		c-1.14,0-2.166,0.201-3.078,0.603c-0.912,0.402-1.689,0.969-2.331,1.701s-1.137,1.611-1.485,2.637
		c-0.348,1.026-0.522,2.169-0.522,3.429c0,1.392,0.192,2.628,0.576,3.708c0.384,1.08,0.915,1.992,1.593,2.736
		c0.678,0.745,1.482,1.312,2.412,1.701C191.153,35.215,192.17,35.41,193.274,35.41z"/>
	<path fill="#52ABCB" d="M226.981,13.576v4.68h-10.764v6.12h8.244v4.5h-8.244v6.246h10.764v4.68h-16.884V13.576H226.981z"/>
	<path fill="#52ABCB" d="M258.34,39.802h-4.716c-0.528,0-0.963-0.123-1.305-0.369c-0.342-0.246-0.579-0.561-0.711-0.945
		l-1.548-4.572h-9.972l-1.548,4.572c-0.12,0.336-0.354,0.639-0.702,0.909s-0.774,0.405-1.278,0.405h-4.752l10.152-26.226h6.228
		L258.34,39.802z M241.492,29.776h7.164l-2.412-7.182c-0.156-0.456-0.339-0.993-0.549-1.611s-0.417-1.287-0.621-2.007
		c-0.192,0.732-0.39,1.41-0.594,2.034s-0.396,1.164-0.576,1.62L241.492,29.776z"/>
	<path fill="#52ABCB" d="M269.63,30.1v9.702h-6.084V13.576h8.532c1.896,0,3.513,0.195,4.851,0.585
		c1.338,0.39,2.43,0.933,3.276,1.629c0.846,0.696,1.461,1.519,1.845,2.466c0.384,0.948,0.576,1.98,0.576,3.096
		c0,0.853-0.114,1.656-0.342,2.412s-0.567,1.455-1.017,2.097c-0.45,0.642-1.002,1.215-1.656,1.719
		c-0.654,0.504-1.407,0.918-2.259,1.242c0.408,0.204,0.789,0.456,1.143,0.756c0.354,0.3,0.663,0.666,0.927,1.098l5.58,9.126h-5.508
		c-1.02,0-1.752-0.384-2.196-1.152l-4.356-7.614c-0.192-0.336-0.417-0.576-0.675-0.72s-0.621-0.216-1.089-0.216H269.63z
		 M269.63,25.906h2.448c0.828,0,1.533-0.105,2.115-0.315c0.582-0.21,1.059-0.501,1.431-0.873s0.642-0.807,0.81-1.305
		c0.168-0.498,0.252-1.035,0.252-1.611c0-1.152-0.375-2.052-1.125-2.7c-0.75-0.648-1.911-0.972-3.483-0.972h-2.448V25.906z"/>
</g>
</svg>
