<?xml version="1.0" encoding="utf-8"?>
<!-- Generator: Adobe Illustrator 16.0.0, SVG Export Plug-In . SVG Version: 6.00 Build 0)  -->
<!DOCTYPE svg PUBLIC "-//W3C//DTD SVG 1.1//EN" "http://www.w3.org/Graphics/SVG/1.1/DTD/svg11.dtd">
<svg version="1.1" id="Layer_1" xmlns="http://www.w3.org/2000/svg" xmlns:xlink="http://www.w3.org/1999/xlink" x="0px" y="0px"
	 width="121.511px" height="43.997px" viewBox="-371.019 -167.302 121.511 43.997"
	 enable-background="new -371.019 -167.302 121.511 43.997" xml:space="preserve">
<path fill="#FFFFFF" d="M-361.086-161.101c-0.559,2.275-2.535,3.783-4.862,3.783c-3.016,0-5.07-2.405-5.07-5.005
	c0-2.457,1.898-4.979,5.044-4.979c3.016,0,4.628,2.327,4.888,3.835h-2.574c-0.273-0.715-1.001-1.677-2.327-1.677
	c-1.651,0-2.574,1.443-2.574,2.809c0,1.456,0.988,2.86,2.587,2.86c1.534,0,2.158-1.287,2.314-1.625H-361.086z M-357.863-167.12
	h2.457v3.614h3.146v-3.614h2.457v9.62h-2.457v-3.848h-3.146v3.848h-2.457V-167.12z M-346.111-167.12h3.042
	c1.69,0,2.34,0.208,2.964,0.689c0.793,0.624,1.183,1.638,1.183,2.626c0,1.105-0.572,2.73-2.393,3.029l2.613,3.276h-2.808
	l-2.223-3.107h-0.026v3.107h-2.353V-167.12z M-343.758-162.284h0.871c1.443,0,1.612-0.91,1.612-1.378c0-0.871-0.637-1.3-1.586-1.3
	h-0.897V-162.284z M-335.672-167.12h2.457v9.62h-2.457V-167.12z M-325.753-164.312c-0.052-0.325-0.13-0.936-0.884-0.936
	c-0.429,0-0.845,0.299-0.845,0.754c0,0.572,0.26,0.689,1.989,1.469c1.794,0.806,2.249,1.638,2.249,2.756
	c0,1.404-0.806,2.951-3.354,2.951c-2.782,0-3.471-1.82-3.471-3.055v-0.312h2.444c0,1.118,0.689,1.313,1.001,1.313
	c0.585,0,0.936-0.481,0.936-0.923c0-0.637-0.403-0.793-1.885-1.417c-0.676-0.273-2.353-0.949-2.353-2.756s1.755-2.834,3.367-2.834
	c0.949,0,1.976,0.351,2.6,1.092c0.572,0.702,0.611,1.352,0.637,1.898H-325.753z M-370.629-150.12h5.343v2.158h-2.99v1.495h2.899
	v2.158h-2.899v1.651h2.99v2.158h-5.343V-150.12z M-361.815-150.12h2.457v9.62h-2.457V-150.12z M-346.124-144.101
	c-0.559,2.275-2.535,3.783-4.862,3.783c-3.016,0-5.07-2.405-5.07-5.005c0-2.457,1.898-4.979,5.044-4.979
	c3.016,0,4.628,2.327,4.888,3.835h-2.574c-0.273-0.715-1.001-1.677-2.327-1.677c-1.651,0-2.574,1.443-2.574,2.809
	c0,1.456,0.988,2.86,2.587,2.86c1.534,0,2.158-1.287,2.314-1.625H-346.124z M-342.9-150.12h2.457v3.614h3.146v-3.614h2.457v9.62
	h-2.457v-3.848h-3.146v3.848h-2.457V-150.12z M-331.148-150.12h5.343v2.158h-2.99v1.495h2.899v2.158h-2.899v1.651h2.99v2.158h-5.343
	V-150.12z M-322.334-150.12h2.119l3.718,6.045l0.026-0.026l-0.104-6.019h2.353v9.62h-2.132l-3.666-5.85l-0.026,0.013l0.065,5.837
	h-2.353V-150.12z M-306.747-147.312c-0.052-0.325-0.13-0.936-0.884-0.936c-0.429,0-0.845,0.299-0.845,0.754
	c0,0.572,0.26,0.689,1.989,1.469c1.794,0.806,2.249,1.638,2.249,2.756c0,1.404-0.806,2.951-3.354,2.951
	c-2.782,0-3.471-1.82-3.471-3.055v-0.312h2.444c0,1.118,0.689,1.313,1.001,1.313c0.585,0,0.936-0.481,0.936-0.923
	c0-0.637-0.403-0.793-1.885-1.417c-0.676-0.273-2.353-0.949-2.353-2.756s1.755-2.834,3.367-2.834c0.949,0,1.976,0.351,2.6,1.092
	c0.572,0.702,0.611,1.352,0.637,1.898H-306.747z M-301.118-150.12h5.343v2.158h-2.99v1.495h2.899v2.158h-2.899v1.651h2.99v2.158
	h-5.343V-150.12z M-292.304-150.12h5.343v2.158h-2.99v1.495h2.899v2.158h-2.899v1.651h2.99v2.158h-5.343V-150.12z M-283.49-150.12
	h3.042c1.69,0,2.34,0.208,2.964,0.689c0.793,0.624,1.183,1.638,1.183,2.626c0,1.105-0.572,2.73-2.393,3.029l2.613,3.276h-2.808
	l-2.223-3.107h-0.026v3.107h-2.353V-150.12z M-281.137-145.284h0.871c1.443,0,1.612-0.91,1.612-1.378c0-0.871-0.637-1.3-1.586-1.3
	h-0.897V-145.284z M-370.629-133.12h3.146c1.781,0,2.444,0.273,2.964,0.702c0.754,0.624,1.131,1.573,1.131,2.548
	s-0.403,2.002-1.014,2.522c-0.663,0.559-1.313,0.832-2.808,0.832h-1.066v3.016h-2.353V-133.12z M-368.276-128.674h1.001
	c0.468,0,1.534,0,1.534-1.157c0-1.131-1.092-1.131-1.625-1.131h-0.91V-128.674z M-360.411-133.12h2.457v3.614h3.146v-3.614h2.457
	v9.62h-2.457v-3.848h-3.146v3.848h-2.457V-133.12z M-344.005-133.302c2.964,0,5.083,2.314,5.083,4.992s-2.106,4.992-5.096,4.992
	c-3.029,0-5.057-2.405-5.057-4.875c0-0.637,0.091-1.352,0.377-2.054C-348.191-131.495-346.696-133.302-344.005-133.302z
	 M-343.966-125.476c1.742,0,2.587-1.586,2.587-2.821c0-1.248-0.845-2.847-2.613-2.847c-1.703,0-2.626,1.456-2.626,2.809
	C-346.618-126.854-345.617-125.476-343.966-125.476z M-334.489-130.962h-1.898v-2.158h6.24v2.158h-1.885v7.462h-2.458V-130.962z
	 M-322.555-133.302c2.964,0,5.083,2.314,5.083,4.992s-2.106,4.992-5.096,4.992c-3.029,0-5.057-2.405-5.057-4.875
	c0-0.637,0.091-1.352,0.377-2.054C-326.742-131.495-325.247-133.302-322.555-133.302z M-322.517-125.476
	c1.742,0,2.587-1.586,2.587-2.821c0-1.248-0.845-2.847-2.613-2.847c-1.703,0-2.626,1.456-2.626,2.809
	C-325.168-126.854-324.167-125.476-322.517-125.476z M-304.381-128.973c0.013,0.169,0.013,0.312,0.013,0.507
	c0,3.224-2.47,5.161-5.135,5.161c-2.912,0-5.109-2.275-5.109-5.044c0-2.873,2.314-4.953,5.148-4.953
	c2.301,0,4.277,1.547,4.811,3.406h-2.756c-0.377-0.676-1.079-1.248-2.119-1.248c-1.209,0-2.626,0.897-2.626,2.795
	c0,2.015,1.43,2.886,2.639,2.886c1.222,0,2.041-0.611,2.301-1.547h-2.874v-1.963H-304.381z M-301.145-133.12h3.042
	c1.69,0,2.34,0.208,2.964,0.689c0.793,0.624,1.183,1.638,1.183,2.626c0,1.105-0.572,2.73-2.393,3.029l2.613,3.276h-2.808
	l-2.223-3.107h-0.026v3.107h-2.353V-133.12z M-298.792-128.284h0.871c1.443,0,1.612-0.91,1.612-1.378c0-0.871-0.637-1.3-1.586-1.3
	h-0.897V-128.284z M-288.313-124.891l-0.507,1.391h-2.639l3.861-9.62h1.937l3.822,9.62h-2.665l-0.468-1.391H-288.313z
	 M-287.638-126.841h2.015l-0.988-3.289h-0.013h-0.026L-287.638-126.841z M-278.901-133.12h3.146c1.781,0,2.444,0.273,2.964,0.702
	c0.754,0.624,1.131,1.573,1.131,2.548s-0.403,2.002-1.014,2.522c-0.663,0.559-1.313,0.832-2.808,0.832h-1.066v3.016h-2.353V-133.12z
	 M-276.548-128.674h1.001c0.468,0,1.534,0,1.534-1.157c0-1.131-1.092-1.131-1.625-1.131h-0.91V-128.674z M-268.684-133.12h2.457
	v3.614h3.146v-3.614h2.457v9.62h-2.457v-3.848h-3.146v3.848h-2.457V-133.12z M-254.812-126.997l-2.873-6.123h2.665l1.43,3.861
	l1.443-3.861h2.639l-2.847,6.123v3.497h-2.457V-126.997z"/>
</svg>
