<?xml version="1.0" encoding="utf-8"?>
<!-- Generator: Adobe Illustrator 16.0.0, SVG Export Plug-In . SVG Version: 6.00 Build 0)  -->
<!DOCTYPE svg PUBLIC "-//W3C//DTD SVG 1.1//EN" "http://www.w3.org/Graphics/SVG/1.1/DTD/svg11.dtd">
<svg version="1.1" id="Layer_1" xmlns="http://www.w3.org/2000/svg" xmlns:xlink="http://www.w3.org/1999/xlink" x="0px" y="0px"
	 width="90.354px" height="90.354px" viewBox="0 0 90.354 90.354" enable-background="new 0 0 90.354 90.354" xml:space="preserve">
<path fill="#F04C4E" d="M45.177,90.354C20.266,90.354,0,70.087,0,45.177S20.266,0,45.177,0c24.911,0,45.178,20.267,45.178,45.177
	S70.088,90.354,45.177,90.354z M45.177,5C23.023,5,5,23.023,5,45.177s18.023,40.177,40.177,40.177
	c22.154,0,40.178-18.023,40.178-40.177S67.331,5,45.177,5z M48.193,70.448V46.731h8.863l0.403-8.538h-9.267
	c0-10.203,0-4.374,0-6.236c0-2.354,0.493-3.772,3.571-3.772c2.844,0,5.45,0.025,5.45,0.025l0.202-7.974c0,0-2.557-0.331-6.013-0.331
	c-8.535,0-12.239,5.263-12.239,10.994c0,3.794,0,7.294,0,7.294h-6.271v8.538h6.271v23.717H48.193z"/>
</svg>
