<?xml version="1.0" encoding="utf-8"?>
<!-- Generator: Adobe Illustrator 16.0.4, SVG Export Plug-In . SVG Version: 6.00 Build 0)  -->
<!DOCTYPE svg PUBLIC "-//W3C//DTD SVG 1.1//EN" "http://www.w3.org/Graphics/SVG/1.1/DTD/svg11.dtd">
<svg version="1.1" id="Layer_1" xmlns="http://www.w3.org/2000/svg" xmlns:xlink="http://www.w3.org/1999/xlink" x="0px" y="0px"
	 width="455px" height="75.5px" viewBox="0 0 455 75.5" enable-background="new 0 0 455 75.5" xml:space="preserve">
<filter  width="300%" height="300%" y="-100%" x="-100%" id="blurMe_2_">
	<feGaussianBlur  stdDeviation="2" in="SourceGraphic"></feGaussianBlur>
</filter>
<filter  width="300%" height="300%" y="-100%" x="-100%" id="blurMe_1_">
	<feGaussianBlur  stdDeviation="5" in="SourceGraphic"></feGaussianBlur>
</filter>
<g>
	<g opacity="0.2" filter="url(#blurMe_1_)">
		
			<linearGradient id="SVGID_1_" gradientUnits="userSpaceOnUse" x1="48.0981" y1="170.0957" x2="477.9023" y2="170.0957" gradientTransform="matrix(1 0 0 -1 -35.5 231)">
			<stop  offset="0" style="stop-color:#000000;stop-opacity:0"/>
			<stop  offset="0.2" style="stop-color:#000000"/>
			<stop  offset="0.8" style="stop-color:#000000"/>
			<stop  offset="1" style="stop-color:#000000;stop-opacity:0"/>
		</linearGradient>
		<path fill="url(#SVGID_1_)" d="M432.154,56.249H22.846c-13.664,0-13.664,9.312,0,9.312h409.308
			C445.817,65.561,445.817,56.249,432.154,56.249z"/>
	</g>
	<g opacity="0.2" filter="url(#blurMe_2_)">
		
			<linearGradient id="SVGID_2_" gradientUnits="userSpaceOnUse" x1="159.5889" y1="170.0957" x2="366.4121" y2="170.0957" gradientTransform="matrix(1 0 0 -1 -35.5 231)">
			<stop  offset="0" style="stop-color:#000000;stop-opacity:0"/>
			<stop  offset="0.2" style="stop-color:#000000"/>
			<stop  offset="0.8" style="stop-color:#000000"/>
			<stop  offset="1" style="stop-color:#000000;stop-opacity:0"/>
		</linearGradient>
		<path fill="url(#SVGID_2_)" d="M325.979,56.249H129.021c-6.576,0-6.576,9.312,0,9.312h196.959
			C332.556,65.561,332.556,56.249,325.979,56.249z"/>
	</g>
</g>
<g id="Layer_1_1_">
	
		<linearGradient id="bottompad_1_" gradientUnits="userSpaceOnUse" x1="1490.6934" y1="1135.3438" x2="1490.6934" y2="1116.59" gradientTransform="matrix(0.2459 0 0 -0.2459 -138.9263 341.524)">
		<stop  offset="0" style="stop-color:#C8C8C8"/>
		<stop  offset="0.6813" style="stop-color:#292929"/>
	</linearGradient>
	<path id="bottompad" fill="url(#bottompad_1_)" d="M143.805,62.831v1.967c0,1.451,62.02,1.082,83.831,1.082
		c21.813,0,83.831,0.369,83.831-1.082v-1.967l0,0v-0.492c-21.369,0.983-65.043,0.688-83.312,0.688c-18.247,0-62.608,0-84.348-0.688
		L143.805,62.831L143.805,62.831z"/>
	
		<linearGradient id="edge_1_" gradientUnits="userSpaceOnUse" x1="1144.3809" y1="2185.1191" x2="1835.8145" y2="2185.1191" gradientTransform="matrix(0.2459 0 0 -0.2459 -138.9263 601.2057)">
		<stop  offset="0" style="stop-color:#909195"/>
		<stop  offset="0.0475" style="stop-color:#939498"/>
		<stop  offset="0.1302" style="stop-color:#BEBEBF"/>
		<stop  offset="0.3155" style="stop-color:#E4E5E7"/>
		<stop  offset="0.7538" style="stop-color:#DEDFE1"/>
		<stop  offset="0.9158" style="stop-color:#B0B1B2"/>
		<stop  offset="0.9662" style="stop-color:#88898A"/>
		<stop  offset="1" style="stop-color:#787878"/>
	</linearGradient>
	<path id="edge" fill="url(#edge_1_)" d="M142.477,63.175v0.787c0,1.451,63.174,1.082,85.012,1.082
		c21.836,0,85.012,0.369,85.012-1.082v-0.787l0,0v-0.491c-21.371,0.983-66.225,0.688-84.496,0.688c-18.247,0-63.766,0-85.527-0.688
		V63.175L142.477,63.175z"/>
	
		<linearGradient id="metal_1_" gradientUnits="userSpaceOnUse" x1="1490.2422" y1="1388.875" x2="1490.2422" y2="1130.9951" gradientTransform="matrix(0.2459 0 0 -0.2459 -138.9263 341.524)">
		<stop  offset="0" style="stop-color:#909195"/>
		<stop  offset="0.14" style="stop-color:#939498"/>
		<stop  offset="0.27" style="stop-color:#999999"/>
		<stop  offset="0.27" style="stop-color:#999999"/>
		<stop  offset="0.46" style="stop-color:#BEBEBF"/>
		<stop  offset="0.67" style="stop-color:#E4E5E7"/>
		<stop  offset="0.69" style="stop-color:#DEDFE1"/>
		<stop  offset="0.73" style="stop-color:#CDCDCF"/>
		<stop  offset="0.77" style="stop-color:#B0B1B2"/>
		<stop  offset="0.82" style="stop-color:#88898A"/>
		<stop  offset="0.86" style="stop-color:#666666"/>
		<stop  offset="0.9" style="stop-color:#787878"/>
		<stop  offset="0.93" style="stop-color:#919191"/>
		<stop  offset="0.98" style="stop-color:#B3B3B3"/>
		<stop  offset="1" style="stop-color:#BFC0C4"/>
	</linearGradient>
	<path id="metal" fill="url(#metal_1_)" d="M312.523,62.682c0-1.08-16.623-4.572-21.396-6.541C286.357,54.174,283.7,9.787,283.7,0
		H171.519c0,9.787-2.828,54.124-7.427,56.141c-4.598,2.019-21.566,5.461-21.566,6.541c21.764,0.689,67.257,0.689,85.502,0.689
		C246.273,63.371,291.129,63.667,312.523,62.682z"/>
</g>
</svg>
