<?xml version="1.0" encoding="utf-8"?>
<!-- Generator: Adobe Illustrator 21.0.0, SVG Export Plug-In . SVG Version: 6.00 Build 0)  -->
<svg version="1.1" id="Layer_1" xmlns="http://www.w3.org/2000/svg" xmlns:xlink="http://www.w3.org/1999/xlink" x="0px" y="0px"
	 viewBox="0 0 2200 390" style="enable-background:new 0 0 2200 390;" xml:space="preserve">
<style type="text/css">
	.st0{opacity:0.4;enable-background:new    ;}
	.st1{clip-path:url(#SVGID_2_);fill:#FFFFFF;}
	.st2{clip-path:url(#SVGID_2_);fill:#FEFEFE;}
	.st3{clip-path:url(#SVGID_2_);fill:#FDFDFD;}
	.st4{clip-path:url(#SVGID_2_);fill:#FCFCFC;}
	.st5{clip-path:url(#SVGID_2_);fill:#FBFBFB;}
	.st6{clip-path:url(#SVGID_2_);fill:#FAFAFA;}
	.st7{clip-path:url(#SVGID_2_);fill:#F8F8F8;}
	.st8{clip-path:url(#SVGID_2_);fill:#F7F7F7;}
	.st9{clip-path:url(#SVGID_2_);fill:#F6F6F6;}
	.st10{clip-path:url(#SVGID_2_);fill:#F5F5F5;}
	.st11{clip-path:url(#SVGID_2_);fill:#F4F4F4;}
	.st12{clip-path:url(#SVGID_2_);fill:#F3F3F3;}
	.st13{clip-path:url(#SVGID_2_);fill:#F2F2F2;}
	.st14{clip-path:url(#SVGID_2_);fill:#F1F1F1;}
	.st15{clip-path:url(#SVGID_2_);fill:#F0F0F0;}
	.st16{clip-path:url(#SVGID_2_);fill:#EFEFEF;}
	.st17{clip-path:url(#SVGID_2_);fill:#EEEEEE;}
	.st18{clip-path:url(#SVGID_2_);fill:#EDEDED;}
	.st19{clip-path:url(#SVGID_2_);fill:#ECECEC;}
	.st20{clip-path:url(#SVGID_2_);fill:#EBEBEB;}
	.st21{clip-path:url(#SVGID_2_);fill:#EAEAEA;}
	.st22{clip-path:url(#SVGID_2_);fill:#E9E9E9;}
	.st23{clip-path:url(#SVGID_2_);fill:#E8E8E8;}
	.st24{clip-path:url(#SVGID_2_);fill:#E6E6E6;}
	.st25{clip-path:url(#SVGID_2_);fill:#E5E5E5;}
	.st26{clip-path:url(#SVGID_2_);fill:#E4E4E4;}
	.st27{clip-path:url(#SVGID_2_);fill:#E3E3E3;}
	.st28{clip-path:url(#SVGID_2_);fill:#E2E2E2;}
	.st29{clip-path:url(#SVGID_2_);fill:#E1E1E1;}
	.st30{clip-path:url(#SVGID_2_);fill:#E0E0E0;}
	.st31{clip-path:url(#SVGID_2_);fill:#DFDFDF;}
	.st32{clip-path:url(#SVGID_2_);fill:#DEDEDE;}
	.st33{clip-path:url(#SVGID_2_);fill:#DDDDDD;}
	.st34{clip-path:url(#SVGID_2_);fill:#DCDCDC;}
	.st35{clip-path:url(#SVGID_2_);fill:#DBDBDB;}
	.st36{clip-path:url(#SVGID_2_);fill:#DADADA;}
	.st37{clip-path:url(#SVGID_2_);fill:#D9D9D9;}
	.st38{clip-path:url(#SVGID_2_);fill:#D8D8D8;}
	.st39{clip-path:url(#SVGID_2_);fill:#D7D7D7;}
	.st40{clip-path:url(#SVGID_2_);fill:#D6D6D6;}
	.st41{clip-path:url(#SVGID_2_);fill:#D5D5D5;}
	.st42{clip-path:url(#SVGID_2_);fill:#D4D4D4;}
	.st43{clip-path:url(#SVGID_2_);fill:#D3D3D3;}
	.st44{clip-path:url(#SVGID_2_);fill:#D2D2D2;}
	.st45{clip-path:url(#SVGID_2_);fill:#D1D1D1;}
	.st46{clip-path:url(#SVGID_2_);fill:#D0D0D0;}
	.st47{clip-path:url(#SVGID_2_);fill:#CFCFCF;}
	.st48{clip-path:url(#SVGID_2_);fill:#CECECE;}
	.st49{clip-path:url(#SVGID_2_);fill:#CDCDCD;}
	.st50{clip-path:url(#SVGID_2_);fill:#CCCCCD;}
	.st51{clip-path:url(#SVGID_2_);fill:#CBCBCC;}
	.st52{clip-path:url(#SVGID_2_);fill:#CACACB;}
	.st53{clip-path:url(#SVGID_2_);fill:#C9C9CA;}
	.st54{clip-path:url(#SVGID_2_);fill:#C8C8C9;}
	.st55{clip-path:url(#SVGID_2_);fill:#C7C7C8;}
	.st56{clip-path:url(#SVGID_2_);fill:#C6C6C7;}
	.st57{clip-path:url(#SVGID_2_);fill:#C5C5C6;}
	.st58{clip-path:url(#SVGID_2_);fill:#C4C5C6;}
	.st59{clip-path:url(#SVGID_2_);fill:#C2C4C5;}
	.st60{clip-path:url(#SVGID_2_);fill:#C1C3C4;}
	.st61{clip-path:url(#SVGID_2_);fill:#C0C2C3;}
	.st62{clip-path:url(#SVGID_2_);fill:#BFC1C2;}
	.st63{clip-path:url(#SVGID_2_);fill:#BEC0C1;}
	.st64{clip-path:url(#SVGID_2_);fill:#BDBFC0;}
	.st65{clip-path:url(#SVGID_2_);fill:#BCBEBF;}
	.st66{clip-path:url(#SVGID_2_);fill:#BBBDBE;}
	.st67{clip-path:url(#SVGID_2_);fill:#BABCBE;}
	.st68{clip-path:url(#SVGID_2_);fill:#B9BBBD;}
	.st69{clip-path:url(#SVGID_2_);fill:#B8BABC;}
	.st70{clip-path:url(#SVGID_2_);fill:#B7B9BB;}
	.st71{clip-path:url(#SVGID_2_);fill:#B6B8BA;}
	.st72{fill:url(#bottompad_1_);}
	.st73{fill:url(#edge_1_);}
	.st74{fill:url(#metal_1_);}
</style>
<g id="Layer_2">
	<g id="shadow" class="st0">
		<g>
			<defs>
				<path id="SVGID_1_" d="M1920.3,300H175.7c-239.3,3.1-212.5-75.3,57.5-78l1630.4-3.2c163.9,7.2,311.5-2.8,314.4,35.2
					C2180.9,292,1954.1,296.5,1920.3,300z"/>
			</defs>
			<clipPath id="SVGID_2_">
				<use xlink:href="#SVGID_1_"  style="overflow:visible;"/>
			</clipPath>
			<rect x="12.2" y="218.7" class="st1" width="2140.8" height="84.4"/>
			<path class="st1" d="M2154,255.8v-8.4v-2h0.2c-3.3-0.7-6.9-1.3-10.7-2c-7.8-1.3-16.7-2.6-26.8-3.8c-40.3-4.9-98.7-9.3-170.7-13
				c-144.2-7.3-603.3-11.6-823.2-11.1C682.7,216.4,46.2,235.9,46.2,259s636.7,41.2,1076.6,40.3c219.9-0.4,679.1-5.5,823.2-13.4
				c72.1-3.9,130.4-8.6,170.7-13.6c10.1-1.3,19-2.6,26.8-3.9c3.9-0.7,7.5-1.3,10.7-2h-0.2V255.8z"/>
			<path class="st2" d="M2154,255.9v-8.3h0.1c-10.5-2.7-26-5.2-45.9-7.7c-39.9-4.9-97.5-9.2-168.8-12.8
				c-142.5-7.2-599.3-11.4-816.8-11C687.8,216.9,55.4,236.1,55.4,259s632.6,40.7,1067.4,39.8c217.4-0.4,674.2-5.5,816.7-13.2
				c71.2-3.9,128.9-8.5,168.7-13.5c19.9-2.5,35.4-5.1,45.9-7.9h-0.1V255.9z"/>
			<path class="st3" d="M2160.9,255.9c-0.1-22.6-608.5-40.2-1038.2-39.4S64.6,236.4,64.6,259s628.5,40.2,1058.2,39.4
				S2160.9,278.5,2160.9,255.9z"/>
			<path class="st4" d="M2151.7,255.9c-0.1-22.3-604.4-39.7-1029.1-38.9C698,217.8,73.7,236.6,73.8,259s624.4,39.7,1049.1,38.9
				S2151.7,278.2,2151.7,255.9z"/>
			<path class="st5" d="M2142.5,255.9c-0.1-22.1-600.3-39.3-1019.9-38.4C703,218.3,82.9,236.9,83,258.9s620.3,39.3,1039.9,38.4
				S2142.6,278,2142.5,255.9z"/>
			<path class="st6" d="M2133.3,255.9c-0.1-21.8-596.1-38.8-1010.7-38S92.1,237.1,92.2,258.9s616.1,38.8,1030.7,38
				S2133.4,277.7,2133.3,255.9z"/>
			<path class="st7" d="M2124.1,255.9c-0.1-21.5-592-38.3-1001.5-37.5c-409.5,0.8-1021.3,18.9-1021.3,40.4
				c0.1,21.5,612,38.3,1021.5,37.5C1532.3,295.6,2124.2,277.5,2124.1,255.9z"/>
			<path class="st8" d="M2114.9,256c-0.1-21.3-587.9-37.8-992.3-37S110.5,237.6,110.5,258.9c0.1,21.3,607.9,37.8,1012.3,37
				S2115,277.2,2114.9,256z"/>
			<path class="st9" d="M2105.8,256c-0.1-21-583.8-37.4-983.1-36.6c-399.3,0.8-1003,18.5-1002.9,39.4s603.8,37.4,1003.1,36.6
				S2105.8,277,2105.8,256z"/>
			<path class="st10" d="M2096.6,256c-0.1-20.7-579.7-36.9-973.9-36.1c-394.2,0.8-993.8,18.2-993.7,38.9s599.7,36.9,993.9,36.1
				S2096.6,276.7,2096.6,256z"/>
			<path class="st11" d="M2087.4,256c-0.1-20.5-575.6-36.4-964.7-35.6s-984.6,18-984.5,38.4c0.1,20.5,595.6,36.4,984.7,35.6
				S2087.4,276.5,2087.4,256z"/>
			<path class="st12" d="M2078.2,256c-0.1-20.2-571.5-35.9-955.5-35.2s-975.4,17.8-975.4,37.9c0.1,20.2,591.5,35.9,975.5,35.2
				C1506.9,293.2,2078.2,276.2,2078.2,256z"/>
			<path class="st13" d="M2069,256.1c-0.1-19.9-567.3-35.5-946.4-34.7s-966.2,17.5-966.2,37.4c0.1,19.9,587.3,35.5,966.4,34.7
				S2069.1,276,2069,256.1z"/>
			<path class="st14" d="M2059.8,256.1c-0.1-19.7-563.2-35-937.2-34.2c-373.9,0.7-957,17.3-957,36.9c0.1,19.7,583.2,35,957.2,34.2
				S2059.9,275.7,2059.8,256.1z"/>
			<path class="st15" d="M2050.6,256.1c-0.1-19.4-559.1-34.5-928-33.8c-368.9,0.7-947.9,17-947.8,36.4c0.1,19.4,579.1,34.5,948,33.8
				S2050.7,275.5,2050.6,256.1z"/>
			<path class="st16" d="M2041.4,256.1c-0.1-19.1-555-34-918.8-33.3S184,239.6,184,258.7c0,19.1,575,34,938.8,33.3
				S2041.5,275.2,2041.4,256.1z"/>
			<path class="st17" d="M2032.3,256.1c0-18.9-550.9-33.6-909.6-32.8s-929.5,16.6-929.4,35.4c0,18.9,570.9,33.6,929.6,32.8
				C1481.6,290.9,2032.3,275,2032.3,256.1z"/>
			<path class="st18" d="M2023.1,256.1c0-18.6-546.8-33.1-900.4-32.4c-353.6,0.7-920.3,16.3-920.2,34.9
				c0,18.6,566.8,33.1,920.4,32.4C1476.5,290.4,2023.1,274.7,2023.1,256.1z"/>
			<path class="st19" d="M2013.9,256.2c0-18.3-542.7-32.6-891.2-31.9c-348.6,0.7-911.1,16.1-911.1,34.4s562.7,32.6,911.2,31.9
				S2013.9,274.5,2013.9,256.2z"/>
			<path class="st20" d="M2004.7,256.2c0-18.1-538.5-32.1-882-31.5c-343.5,0.7-901.9,15.9-901.9,33.9s558.5,32.1,902,31.5
				S2004.7,274.2,2004.7,256.2z"/>
			<path class="st21" d="M1995.5,256.2c0-17.8-534.4-31.7-872.9-31S229.9,240.9,230,258.6c0,17.8,554.4,31.7,892.9,31
				S1995.6,274,1995.5,256.2z"/>
			<path class="st22" d="M1986.3,256.2c0-17.5-530.3-31.2-863.7-30.5s-883.5,15.4-883.5,32.9s550.3,31.2,883.7,30.5
				C1456.2,288.5,1986.4,273.7,1986.3,256.2z"/>
			<path class="st23" d="M1977.1,256.2c0-17.3-526.2-30.7-854.5-30.1c-328.3,0.7-874.4,15.2-874.3,32.4s546.2,30.7,874.5,30.1
				C1451.1,288,1977.2,273.5,1977.1,256.2z"/>
			<path class="st24" d="M1968,256.3c0-17-522.1-30.2-845.3-29.6c-323.2,0.6-865.2,14.9-865.1,31.9s542.1,30.2,865.3,29.6
				C1446,287.5,1968,273.2,1968,256.3z"/>
			<path class="st25" d="M1958.8,256.3c0-16.7-518-29.8-836.1-29.1c-318.1,0.6-856,14.7-855.9,31.4c0,16.7,538,29.8,856.1,29.1
				S1958.8,273,1958.8,256.3z"/>
			<path class="st26" d="M1949.6,256.3c0-16.5-513.9-29.3-826.9-28.7s-846.8,14.5-846.8,30.9c0,16.5,533.9,29.3,846.9,28.7
				S1949.6,272.8,1949.6,256.3z"/>
			<path class="st27" d="M1940.4,256.3c0-16.2-509.7-28.8-817.7-28.2S285,242.3,285.1,258.5c0,16.2,529.7,28.8,837.7,28.2
				C1430.8,286.1,1940.4,272.5,1940.4,256.3z"/>
			<path class="st28" d="M1931.2,256.3c0-15.9-505.6-28.3-808.5-27.7c-302.9,0.6-828.4,14-828.4,29.9s525.6,28.3,828.5,27.7
				C1425.7,285.7,1931.2,272.3,1931.2,256.3z"/>
			<path class="st29" d="M1922,256.3c0-15.7-501.5-27.9-799.4-27.3c-297.8,0.6-819.2,13.8-819.2,29.4s521.5,27.9,819.4,27.3
				C1420.7,285.2,1922.1,272,1922,256.3z"/>
			<path class="st30" d="M1912.8,256.4c0-15.4-497.4-27.4-790.2-26.8s-810.1,13.5-810,28.9s517.4,27.4,810.2,26.8
				C1415.6,284.7,1912.9,271.8,1912.8,256.4z"/>
			<path class="st31" d="M1903.6,256.4c0-15.1-493.3-26.9-781-26.3s-800.9,13.3-800.8,28.4c0,15.1,513.3,26.9,801,26.3
				S1903.7,271.5,1903.6,256.4z"/>
			<path class="st32" d="M1894.5,256.4c0-14.9-489.2-26.4-771.8-25.9S331,243.6,331,258.4c0,14.9,509.2,26.4,791.8,25.9
				C1405.4,283.8,1894.5,271.3,1894.5,256.4z"/>
			<path class="st33" d="M1885.3,256.4c0-14.6-485.1-26-762.6-25.4c-277.5,0.6-782.5,12.8-782.5,27.4c0,14.6,505.1,26,782.6,25.4
				C1400.4,283.3,1885.3,271,1885.3,256.4z"/>
			<path class="st34" d="M1876.1,256.4c0-14.3-480.9-25.5-753.4-24.9c-272.5,0.5-773.3,12.6-773.3,26.9
				c0,14.3,500.9,25.5,773.4,24.9C1395.3,282.8,1876.1,270.8,1876.1,256.4z"/>
			<path class="st35" d="M1866.9,256.5c0-14.1-476.8-25-744.2-24.5s-764.1,12.4-764.1,26.4c0,14.1,496.8,25,764.2,24.5
				C1390.2,282.3,1866.9,270.5,1866.9,256.5z"/>
			<path class="st36" d="M1857.7,256.5c0-13.8-472.7-24.5-735-24s-754.9,12.1-754.9,25.9c0,13.8,492.7,24.5,755,24
				S1857.8,270.3,1857.7,256.5z"/>
			<path class="st37" d="M1848.5,256.5c0-13.5-468.6-24.1-725.9-23.6S376.9,244.8,377,258.4c0,13.5,488.6,24.1,745.9,23.6
				C1380.1,281.4,1848.6,270,1848.5,256.5z"/>
			<path class="st38" d="M1839.3,256.5c0-13.3-464.5-23.6-716.7-23.1c-252.2,0.5-736.6,11.7-736.5,24.9
				c0,13.3,484.5,23.6,736.7,23.1C1375,280.9,1839.4,269.8,1839.3,256.5z"/>
			<path class="st39" d="M1830.2,256.5c0-13-460.4-23.1-707.5-22.6c-247.1,0.5-727.4,11.4-727.4,24.4c0,13,480.4,23.1,727.5,22.6
				C1369.9,280.5,1830.2,269.5,1830.2,256.5z"/>
			<path class="st40" d="M1821,256.6c0-12.7-456.3-22.6-698.3-22.2s-718.2,11.2-718.2,23.9c0,12.7,476.3,22.6,718.3,22.2
				C1364.8,280,1821,269.3,1821,256.6z"/>
			<path class="st41" d="M1811.8,256.6c0-12.5-452.1-22.2-689.1-21.7s-709,11-709,23.4c0,12.5,472.1,22.2,709.1,21.7
				S1811.8,269,1811.8,256.6z"/>
			<path class="st42" d="M1802.6,256.6c0-12.2-448-21.7-679.9-21.2c-231.9,0.5-699.8,10.7-699.8,22.9c0,12.2,468,21.7,699.9,21.2
				S1802.6,268.8,1802.6,256.6z"/>
			<path class="st42" d="M1793.4,256.6c0-11.9-443.9-21.2-670.7-20.8c-226.8,0.5-690.6,10.5-690.6,22.4
				c0,11.9,463.9,21.2,690.7,20.8C1349.6,278.6,1793.4,268.5,1793.4,256.6z"/>
			<path class="st43" d="M1784.2,256.6c0-11.7-439.8-20.7-661.5-20.3c-221.7,0.4-681.5,10.2-681.4,21.9
				c0,11.7,459.8,20.7,681.5,20.3C1344.5,278.1,1784.3,268.3,1784.2,256.6z"/>
			<path class="st44" d="M1775,256.6c0-11.4-435.7-20.3-652.3-19.8s-672.3,10-672.2,21.4s455.7,20.3,672.3,19.8
				C1339.5,277.6,1775.1,268,1775,256.6z"/>
			<path class="st45" d="M1765.8,256.7c0-11.1-431.6-19.8-643.2-19.4s-663.1,9.8-663.1,20.9s451.6,19.8,663.2,19.4
				S1765.9,267.8,1765.8,256.7z"/>
			<path class="st45" d="M1756.7,256.7c0-10.9-427.5-19.3-634-18.9c-206.5,0.4-653.9,9.5-653.9,20.4s447.5,19.3,654,18.9
				S1756.7,267.5,1756.7,256.7z"/>
			<path class="st46" d="M1742.8,256.7c0-10.5-421.3-18.6-620.1-18.2c-198.9,0.4-640,9.2-640,19.6c0,10.5,441.3,18.6,640.1,18.2
				C1321.7,276,1742.8,267.2,1742.8,256.7z"/>
			<path class="st47" d="M1729,256.7c0-10.1-415.1-17.9-606.3-17.5s-626.2,8.8-626.2,18.9c0,10.1,435.1,17.9,626.3,17.5
				C1314,275.2,1729,266.8,1729,256.7z"/>
			<path class="st48" d="M1715.1,256.8c0-9.6-408.9-17.2-592.4-16.8c-183.6,0.4-612.4,8.5-612.3,18.1c0,9.6,428.9,17.2,612.4,16.8
				C1306.4,274.5,1715.1,266.4,1715.1,256.8z"/>
			<path class="st49" d="M1701.3,256.8c0-9.2-402.7-16.5-578.6-16.1c-175.9,0.4-598.5,8.1-598.5,17.4s422.7,16.5,598.6,16.1
				S1701.3,266,1701.3,256.8z"/>
			<path class="st50" d="M1687.4,256.8c0-8.8-396.4-15.7-564.7-15.4c-168.3,0.3-584.7,7.8-584.6,16.6c0,8.8,416.4,15.7,584.7,15.4
				C1291.1,273.1,1687.4,265.7,1687.4,256.8z"/>
			<path class="st51" d="M1673.6,256.8c0-8.4-390.2-15-550.9-14.7c-160.6,0.3-570.8,7.4-570.8,15.9c0,8.4,410.2,15,570.9,14.7
				S1673.6,265.3,1673.6,256.8z"/>
			<path class="st52" d="M1659.7,256.9c0-8-384-14.3-537-14c-153,0.3-557,7.1-556.9,15.1c0,8,404,14.3,557,14
				C1275.8,271.7,1659.7,264.9,1659.7,256.9z"/>
			<path class="st53" d="M1645.9,256.9c0-7.6-377.8-13.6-523.2-13.3s-543.1,6.7-543.1,14.4c0,7.6,397.8,13.6,543.2,13.3
				S1645.9,264.5,1645.9,256.9z"/>
			<path class="st54" d="M1632,256.9c0-7.2-371.6-12.9-509.3-12.6s-529.3,6.4-529.2,13.6c0,7.2,391.6,12.9,529.3,12.6
				C1260.4,270.3,1632,264.2,1632,256.9z"/>
			<path class="st55" d="M1618.2,257c0-6.8-365.4-12.2-495.5-11.9c-130,0.3-515.4,6-515.4,12.8c0,6.8,385.4,12.2,515.5,11.9
				S1618.2,263.8,1618.2,257z"/>
			<path class="st56" d="M1604.3,257c0-6.4-359.2-11.4-481.6-11.2c-122.4,0.2-501.6,5.7-501.6,12.1c0,6.4,379.2,11.4,501.6,11.2
				C1245.1,268.8,1604.3,263.4,1604.3,257z"/>
			<path class="st57" d="M1590.5,257c0-6-353-10.7-467.8-10.5C1008,246.7,635,251.8,635,257.8s373,10.7,487.8,10.5
				S1590.5,263,1590.5,257z"/>
			<path class="st58" d="M1576.6,257c0-5.6-346.8-10-453.9-9.8c-107.1,0.2-473.9,4.9-473.9,10.6c0,5.6,366.8,10,473.9,9.8
				C1229.8,267.4,1576.6,262.7,1576.6,257z"/>
			<path class="st59" d="M1562.8,257.1c0-5.2-340.6-9.3-440.1-9.1s-460,4.6-460,9.8c0,5.2,360.6,9.3,460.1,9.1
				C1222.2,266.7,1562.8,262.3,1562.8,257.1z"/>
			<path class="st60" d="M1548.9,257.1c0-4.8-334.4-8.6-426.2-8.4s-446.2,4.2-446.2,9.1c0,4.8,354.4,8.6,446.2,8.4
				S1548.9,261.9,1548.9,257.1z"/>
			<path class="st61" d="M1535.1,257.1c0-4.4-328.2-7.9-412.4-7.7c-84.1,0.2-432.3,3.9-432.3,8.3c0,4.4,348.2,7.9,432.4,7.7
				S1535.1,261.5,1535.1,257.1z"/>
			<path class="st62" d="M1521.2,257.1c0-4-322-7.2-398.5-7c-76.5,0.2-418.5,3.5-418.5,7.6c0,4,342,7.2,418.5,7
				C1199.2,264.6,1521.2,261.2,1521.2,257.1z"/>
			<path class="st63" d="M1507.4,257.2c0-3.6-315.8-6.4-384.7-6.3c-68.8,0.1-404.6,3.2-404.6,6.8c0,3.6,335.8,6.4,404.7,6.3
				C1191.6,263.8,1507.4,260.8,1507.4,257.2z"/>
			<path class="st64" d="M1493.5,257.2c0-3.2-309.6-5.7-370.8-5.6c-61.2,0.1-390.8,2.8-390.8,6c0,3.2,329.6,5.7,390.8,5.6
				C1183.9,263.1,1493.5,260.4,1493.5,257.2z"/>
			<path class="st65" d="M1479.7,257.2c0-2.8-303.4-5-357-4.9s-376.9,2.5-376.9,5.3c0,2.8,323.4,5,377,4.9
				C1176.3,262.4,1479.7,260,1479.7,257.2z"/>
			<path class="st66" d="M1465.8,257.3c0-2.4-297.2-4.3-343.1-4.2s-363.1,2.1-363.1,4.5s317.2,4.3,363.1,4.2
				C1168.6,261.7,1465.8,259.7,1465.8,257.3z"/>
			<path class="st67" d="M1452,257.3c0-2-291-3.6-329.3-3.5c-38.2,0.1-349.2,1.8-349.2,3.8c0,2,311,3.6,349.3,3.5
				S1452,259.3,1452,257.3z"/>
			<path class="st68" d="M1438.1,257.3c0-1.6-284.8-2.9-315.4-2.8c-30.6,0.1-335.4,1.4-335.4,3s304.8,2.9,335.4,2.8
				C1153.3,260.3,1438.1,258.9,1438.1,257.3z"/>
			<path class="st69" d="M1424.3,257.3c0-1.2-278.6-2.1-301.6-2.1c-22.9,0-321.5,1.1-321.5,2.3c0,1.2,298.6,2.1,321.6,2.1
				C1145.7,259.6,1424.3,258.5,1424.3,257.3z"/>
			<path class="st70" d="M1410.4,257.4c0-0.8-272.4-1.4-287.7-1.4c-15.3,0-307.7,0.7-307.7,1.5c0,0.8,292.4,1.4,307.7,1.4
				C1138,258.8,1410.4,258.2,1410.4,257.4z"/>
			<path class="st71" d="M1396.6,257.4c0-0.4-266.2-0.7-273.9-0.7c-7.6,0-13.8,0.4-13.8,0.8c0,0.4,6.2,0.7,13.9,0.7
				C1130.4,258.1,1396.6,257.8,1396.6,257.4z"/>
		</g>
	</g>
</g>
<g id="Layer_1_1_">
	
		<linearGradient id="bottompad_1_" gradientUnits="userSpaceOnUse" x1="1086.474" y1="1309.5" x2="1086.474" y2="1328.25" gradientTransform="matrix(1 0 0 1 0 -1056)">
		<stop  offset="0" style="stop-color:#C8C8C8"/>
		<stop  offset="0.6813" style="stop-color:#292929"/>
	</linearGradient>
	<path id="bottompad" class="st72" d="M745.6,255.5v8c0,5.9,252.2,4.4,340.9,4.4c88.7,0,340.9,1.5,340.9-4.4v-8l0,0v-2
		c-86.9,4-264.5,2.8-338.8,2.8c-74.2,0-254.6,0-343-2.8L745.6,255.5L745.6,255.5z"/>
	<linearGradient id="edge_1_" gradientUnits="userSpaceOnUse" x1="740.2" y1="259.7852" x2="1431.5923" y2="259.7852">
		<stop  offset="0" style="stop-color:#909195"/>
		<stop  offset="4.751912e-02" style="stop-color:#939498"/>
		<stop  offset="0.1302" style="stop-color:#BEBEBF"/>
		<stop  offset="0.3155" style="stop-color:#E4E5E7"/>
		<stop  offset="0.7538" style="stop-color:#DEDFE1"/>
		<stop  offset="0.9158" style="stop-color:#B0B1B2"/>
		<stop  offset="0.9662" style="stop-color:#88898A"/>
		<stop  offset="1" style="stop-color:#787878"/>
	</linearGradient>
	<path id="edge" class="st73" d="M740.2,256.9v3.2c0,5.9,256.9,4.4,345.7,4.4c88.8,0,345.7,1.5,345.7-4.4v-3.2l0,0v-2
		c-86.9,4-269.3,2.8-343.6,2.8c-74.2,0-259.3,0-347.8-2.8L740.2,256.9L740.2,256.9z"/>
	
		<linearGradient id="metal_1_" gradientUnits="userSpaceOnUse" x1="1085.9924" y1="1056" x2="1085.9924" y2="1313.8688" gradientTransform="matrix(1 0 0 1 0 -1056)">
		<stop  offset="0" style="stop-color:#909195"/>
		<stop  offset="0.14" style="stop-color:#939498"/>
		<stop  offset="0.27" style="stop-color:#999999"/>
		<stop  offset="0.27" style="stop-color:#999999"/>
		<stop  offset="0.46" style="stop-color:#BEBEBF"/>
		<stop  offset="0.67" style="stop-color:#E4E5E7"/>
		<stop  offset="0.69" style="stop-color:#DEDFE1"/>
		<stop  offset="0.73" style="stop-color:#CDCDCF"/>
		<stop  offset="0.77" style="stop-color:#B0B1B2"/>
		<stop  offset="0.82" style="stop-color:#88898A"/>
		<stop  offset="0.86" style="stop-color:#666666"/>
		<stop  offset="0.9" style="stop-color:#787878"/>
		<stop  offset="0.93" style="stop-color:#919191"/>
		<stop  offset="0.98" style="stop-color:#B3B3B3"/>
		<stop  offset="1" style="stop-color:#BFC0C4"/>
	</linearGradient>
	<path id="metal" class="st74" d="M1431.7,254.9c0-4.4-67.6-18.6-87-26.6S1314.5,39.8,1314.5,0H858.3c0,39.8-11.5,220.1-30.2,228.3
		s-87.7,22.2-87.7,26.6c88.5,2.8,273.5,2.8,347.7,2.8S1344.7,258.9,1431.7,254.9z"/>
</g>
</svg>
