<?xml version="1.0" encoding="utf-8"?>
<!-- Generator: Adobe Illustrator 21.0.0, SVG Export Plug-In . SVG Version: 6.00 Build 0)  -->
<svg version="1.1" xmlns="http://www.w3.org/2000/svg" xmlns:xlink="http://www.w3.org/1999/xlink" x="0px" y="0px"
	 viewBox="0 0 2000 320" style="enable-background:new 0 0 2000 320;" xml:space="preserve">
<style type="text/css">
	.st0{opacity:0.5;fill:url(#leftshadow_1_);}
	.st1{opacity:0.5;fill:url(#rightshadow_1_);}
	.st2{opacity:0.8;fill:url(#centershadow_1_);}
	.st3{fill:url(#bottompad_1_);}
	.st4{fill:url(#edge_1_);}
	.st5{fill:url(#metal_1_);}
</style>
<g id="Layer_2">
	
		<radialGradient id="leftshadow_1_" cx="1722.8049" cy="250.2925" r="335.7578" gradientTransform="matrix(0.9996 2.968778e-02 -4.778548e-03 0.1873 1.8484 156.3488)" gradientUnits="userSpaceOnUse">
		<stop  offset="0" style="stop-color:#E6E6E6;stop-opacity:0.8"/>
		<stop  offset="0.4196" style="stop-color:#EFEFEF;stop-opacity:0.411"/>
		<stop  offset="0.8629" style="stop-color:#FFFFFF;stop-opacity:0"/>
	</radialGradient>
	<path id="leftshadow" class="st0" d="M1937.7,307.9h-456.5c-92.1,4.2-81.8-101.2,22.1-104.9l412.5-4.3
		C2020.9,198.6,2026.9,310.8,1937.7,307.9z"/>
	
		<radialGradient id="rightshadow_1_" cx="282.0305" cy="245.8994" r="297.946" gradientTransform="matrix(1.0962 -4.658355e-02 8.475066e-03 0.1656 -1.748 218.3157)" gradientUnits="userSpaceOnUse">
		<stop  offset="0" style="stop-color:#E6E6E6;stop-opacity:0.8"/>
		<stop  offset="0.4196" style="stop-color:#EFEFEF;stop-opacity:0.411"/>
		<stop  offset="0.8629" style="stop-color:#FFFFFF;stop-opacity:0"/>
	</radialGradient>
	<path id="rightshadow" class="st1" d="M539.5,299.9H65.4c-95.7,3.9-84.9-93.8,23-97.3l428.5-4C625.9,198.6,632.2,302.6,539.5,299.9
		z"/>
	
		<radialGradient id="centershadow_1_" cx="1022.4924" cy="236.2507" r="812.0848" gradientTransform="matrix(1 -3.042665e-03 1.373145e-04 8.023835e-02 -3.144547e-02 224.3819)" gradientUnits="userSpaceOnUse">
		<stop  offset="0" style="stop-color:#A6A6A6;stop-opacity:0.8"/>
		<stop  offset="0.1211" style="stop-color:#ABABAB;stop-opacity:0.846"/>
		<stop  offset="0.266" style="stop-color:#B9B9B9;stop-opacity:0.9011"/>
		<stop  offset="0.4226" style="stop-color:#D1D1D1;stop-opacity:0.9606"/>
		<stop  offset="0.5262" style="stop-color:#E6E6E6"/>
		<stop  offset="0.9002" style="stop-color:#FFFFFF;stop-opacity:0"/>
	</radialGradient>
	<path id="centershadow" class="st2" d="M1523.9,299.9H472.4c-212.2,4.4-188.4-105.5,51-109.3l950.2-4.5
		C1715.5,186,1729.4,302.9,1523.9,299.9z"/>
</g>
<g id="Layer_1">
	
		<linearGradient id="bottompad_1_" gradientUnits="userSpaceOnUse" x1="999.75" y1="-511.5" x2="999.75" y2="-530.25" gradientTransform="matrix(1 0 0 -1 0 -264)">
		<stop  offset="0" style="stop-color:#C8C8C8"/>
		<stop  offset="0.67" style="stop-color:#303030"/>
	</linearGradient>
	<path id="bottompad" class="st3" d="M645.8,249.5v8c0,5.9,261.9,4.4,354,4.4s354,1.5,354-4.4v-8l0,0v-2
		c-90.2,4-274.7,2.8-351.8,2.8s-264.4,0-356.2-2.8V249.5z"/>
	
		<linearGradient id="edge_1_" gradientUnits="userSpaceOnUse" x1="640.25" y1="-515.7752" x2="1358.25" y2="-515.7752" gradientTransform="matrix(1 0 0 -1 0 -264)">
		<stop  offset="9.983987e-03" style="stop-color:#303030"/>
		<stop  offset="8.417750e-02" style="stop-color:#9F9D9F"/>
		<stop  offset="0.151" style="stop-color:#CFCED1"/>
		<stop  offset="0.22" style="stop-color:#D2D1D4"/>
		<stop  offset="0.5" style="stop-color:#FFFFFF"/>
		<stop  offset="0.7855" style="stop-color:#D0CFD2"/>
		<stop  offset="0.8596" style="stop-color:#A0A0A2"/>
		<stop  offset="1" style="stop-color:#313131"/>
	</linearGradient>
	<path id="edge" class="st4" d="M640.2,248.9v3.2c0,5.9,266.8,4.4,359,4.4s359,1.5,359-4.4v-3.2l0,0v-2c-90.2,4-279.7,2.8-356.8,2.8
		s-269.3,0-361.2-2.8V248.9z"/>
	
		<linearGradient id="metal_1_" gradientUnits="userSpaceOnUse" x1="999.7" y1="-264" x2="999.7" y2="-513.5688" gradientTransform="matrix(1 0 0 -1 0 -264)">
		<stop  offset="0" style="stop-color:#909195"/>
		<stop  offset="0.14" style="stop-color:#939498"/>
		<stop  offset="0.27" style="stop-color:#999999"/>
		<stop  offset="0.27" style="stop-color:#999999"/>
		<stop  offset="0.46" style="stop-color:#BEBEBF"/>
		<stop  offset="0.67" style="stop-color:#E4E5E7"/>
		<stop  offset="0.69" style="stop-color:#DEDFE1"/>
		<stop  offset="0.73" style="stop-color:#CDCDCF"/>
		<stop  offset="0.77" style="stop-color:#B0B1B2"/>
		<stop  offset="0.82" style="stop-color:#88898A"/>
		<stop  offset="0.86" style="stop-color:#666666"/>
		<stop  offset="0.9" style="stop-color:#787878"/>
		<stop  offset="0.93" style="stop-color:#919191"/>
		<stop  offset="0.98" style="stop-color:#B3B3B3"/>
		<stop  offset="1" style="stop-color:#BFC0C4"/>
	</linearGradient>
	<path id="metal" class="st5" d="M1358.7,246.6c0-4.4-75.2-11.5-90.7-18.3S1236.6,39.8,1236.6,0H762.8c0,39.8-15.9,221.5-31.4,228.3
		s-90.7,13.9-90.7,18.3c91.9,2.8,284,2.8,361.1,2.8S1268.4,250.6,1358.7,246.6z"/>
</g>
</svg>
