<?xml version="1.0" encoding="utf-8"?>
<!-- Generator: Adobe Illustrator 16.0.4, SVG Export Plug-In . SVG Version: 6.00 Build 0)  -->
<!DOCTYPE svg PUBLIC "-//W3C//DTD SVG 1.1//EN" "http://www.w3.org/Graphics/SVG/1.1/DTD/svg11.dtd">
<svg version="1.1" id="Layer_1" xmlns="http://www.w3.org/2000/svg" xmlns:xlink="http://www.w3.org/1999/xlink" x="0px" y="0px"
	 width="541px" height="1103px" viewBox="0 0 541 1103" enable-background="new 0 0 541 1103" xml:space="preserve">
<g id="Layer_2">
	<g id="shadow" opacity="0.4" enable-background="new    ">
		<g>
			<g>
				<defs>
					<path id="SVGID_1_" d="M472.219,577.32H43.206c-58.846,0.763-52.255-18.517,14.14-19.181l400.93-0.787
						c40.305,1.771,76.601-0.688,77.313,8.656S480.531,576.46,472.219,577.32z"/>
				</defs>
				<clipPath id="SVGID_2_">
					<use xlink:href="#SVGID_1_"  overflow="visible"/>
				</clipPath>
				<rect x="3" y="557.328" opacity="0" clip-path="url(#SVGID_2_)" width="526.442" height="20.755"/>
			</g>
			<g>
				<defs>
					<path id="SVGID_3_" d="M472.219,577.32H43.206c-58.846,0.763-52.255-18.517,14.14-19.181l400.93-0.787
						c40.305,1.771,76.601-0.688,77.313,8.656S480.531,576.46,472.219,577.32z"/>
				</defs>
				<clipPath id="SVGID_4_">
					<use xlink:href="#SVGID_3_"  overflow="visible"/>
				</clipPath>
				<path opacity="0" clip-path="url(#SVGID_4_)" d="M529.688,566.451v-2.065v-0.492h0.049c-0.812-0.172-1.696-0.319-2.631-0.491
					c-1.918-0.32-4.107-0.64-6.591-0.935c-9.91-1.205-24.271-2.287-41.977-3.197c-35.46-1.795-148.357-2.853-202.432-2.729
					c-108.225,0.222-264.747,5.017-264.747,10.697s156.57,10.131,264.747,9.91c54.074-0.099,166.996-1.353,202.432-3.295
					c17.73-0.959,32.066-2.115,41.977-3.345c2.483-0.319,4.673-0.64,6.591-0.959c0.959-0.172,1.844-0.319,2.631-0.492h-0.049
					V566.451z"/>
			</g>
			<g>
				<defs>
					<path id="SVGID_5_" d="M472.219,577.32H43.206c-58.846,0.763-52.255-18.517,14.14-19.181l400.93-0.787
						c40.305,1.771,76.601-0.688,77.313,8.656S480.531,576.46,472.219,577.32z"/>
				</defs>
				<clipPath id="SVGID_6_">
					<use xlink:href="#SVGID_5_"  overflow="visible"/>
				</clipPath>
				<path opacity="0.01" clip-path="url(#SVGID_6_)" d="M529.688,566.476v-2.041h0.024c-2.582-0.664-6.394-1.278-11.287-1.894
					c-9.812-1.205-23.977-2.262-41.51-3.147c-35.042-1.771-147.373-2.804-200.858-2.705c-106.921,0.197-262.434,4.918-262.434,10.55
					c0,5.631,155.562,10.009,262.484,9.787c53.46-0.099,165.791-1.353,200.833-3.246c17.509-0.959,31.698-2.09,41.485-3.319
					c4.894-0.615,8.705-1.255,11.287-1.943h-0.024V566.476L529.688,566.476z"/>
			</g>
			<g>
				<defs>
					<path id="SVGID_7_" d="M472.219,577.32H43.206c-58.846,0.763-52.255-18.517,14.14-19.181l400.93-0.787
						c40.305,1.771,76.601-0.688,77.313,8.656S480.531,576.46,472.219,577.32z"/>
				</defs>
				<clipPath id="SVGID_8_">
					<use xlink:href="#SVGID_7_"  overflow="visible"/>
				</clipPath>
				<path opacity="0.01" clip-path="url(#SVGID_8_)" d="M531.385,566.476c-0.024-5.558-149.636-9.886-255.303-9.688
					c-105.667,0.196-260.196,4.894-260.196,10.451s154.554,9.886,260.222,9.688C381.773,576.73,531.385,572.033,531.385,566.476z"/>
			</g>
			<g>
				<defs>
					<path id="SVGID_9_" d="M472.219,577.32H43.206c-58.846,0.763-52.255-18.517,14.14-19.181l400.93-0.787
						c40.305,1.771,76.601-0.688,77.313,8.656S480.531,576.46,472.219,577.32z"/>
				</defs>
				<clipPath id="SVGID_10_">
					<use xlink:href="#SVGID_9_"  overflow="visible"/>
				</clipPath>
				<path opacity="0.02" clip-path="url(#SVGID_10_)" d="M529.123,566.476c-0.025-5.483-148.628-9.763-253.065-9.565
					c-104.413,0.196-257.934,4.819-257.91,10.328c0.025,5.508,153.546,9.763,257.983,9.565
					C380.569,576.607,529.123,571.96,529.123,566.476z"/>
			</g>
			<g>
				<defs>
					<path id="SVGID_11_" d="M472.219,577.32H43.206c-58.846,0.763-52.255-18.517,14.14-19.181l400.93-0.787
						c40.305,1.771,76.601-0.688,77.313,8.656S480.531,576.46,472.219,577.32z"/>
				</defs>
				<clipPath id="SVGID_12_">
					<use xlink:href="#SVGID_11_"  overflow="visible"/>
				</clipPath>
				<path opacity="0.02" clip-path="url(#SVGID_12_)" d="M526.86,566.476c-0.024-5.435-147.619-9.664-250.803-9.442
					c-103.184,0.196-255.672,4.771-255.647,10.181c0.024,5.41,152.537,9.664,255.72,9.442
					C379.314,576.436,526.885,571.91,526.86,566.476z"/>
			</g>
			<g>
				<defs>
					<path id="SVGID_13_" d="M472.219,577.32H43.206c-58.846,0.763-52.255-18.517,14.14-19.181l400.93-0.787
						c40.305,1.771,76.601-0.688,77.313,8.656S480.531,576.46,472.219,577.32z"/>
				</defs>
				<clipPath id="SVGID_14_">
					<use xlink:href="#SVGID_13_"  overflow="visible"/>
				</clipPath>
				<path opacity="0.02" clip-path="url(#SVGID_14_)" d="M524.598,566.476c-0.024-5.36-146.586-9.541-248.54-9.345
					c-101.954,0.197-253.409,4.722-253.385,10.083c0.024,5.36,151.504,9.541,253.458,9.345
					C378.085,576.361,524.622,571.837,524.598,566.476z"/>
			</g>
			<g>
				<defs>
					<path id="SVGID_15_" d="M472.219,577.32H43.206c-58.846,0.763-52.255-18.517,14.14-19.181l400.93-0.787
						c40.305,1.771,76.601-0.688,77.313,8.656S480.531,576.46,472.219,577.32z"/>
				</defs>
				<clipPath id="SVGID_16_">
					<use xlink:href="#SVGID_15_"  overflow="visible"/>
				</clipPath>
				<path opacity="0.03" clip-path="url(#SVGID_16_)" d="M522.336,566.476c-0.025-5.287-145.578-9.418-246.278-9.222
					c-100.7,0.197-251.147,4.648-251.147,9.936c0.024,5.286,150.497,9.418,251.197,9.221
					C376.807,576.238,522.36,571.787,522.336,566.476z"/>
			</g>
			<g>
				<defs>
					<path id="SVGID_17_" d="M472.219,577.32H43.206c-58.846,0.763-52.255-18.517,14.14-19.181l400.93-0.787
						c40.305,1.771,76.601-0.688,77.313,8.656S480.531,576.46,472.219,577.32z"/>
				</defs>
				<clipPath id="SVGID_18_">
					<use xlink:href="#SVGID_17_"  overflow="visible"/>
				</clipPath>
				<path opacity="0.04" clip-path="url(#SVGID_18_)" d="M520.073,566.5c-0.024-5.237-144.57-9.295-244.016-9.099
					c-99.446,0.197-248.885,4.574-248.885,9.812c0.025,5.237,149.488,9.295,248.935,9.099
					C375.553,576.115,520.098,571.714,520.073,566.5z"/>
			</g>
			<g>
				<defs>
					<path id="SVGID_19_" d="M472.219,577.32H43.206c-58.846,0.763-52.255-18.517,14.14-19.181l400.93-0.787
						c40.305,1.771,76.601-0.688,77.313,8.656S480.531,576.46,472.219,577.32z"/>
				</defs>
				<clipPath id="SVGID_20_">
					<use xlink:href="#SVGID_19_"  overflow="visible"/>
				</clipPath>
				<path opacity="0.04" clip-path="url(#SVGID_20_)" d="M517.835,566.5c-0.024-5.164-143.562-9.196-241.753-9
					c-98.191,0.197-246.646,4.55-246.622,9.689c0.024,5.139,148.48,9.196,246.671,9C374.323,575.992,517.835,571.664,517.835,566.5z
					"/>
			</g>
			<g>
				<defs>
					<path id="SVGID_21_" d="M472.219,577.32H43.206c-58.846,0.763-52.255-18.517,14.14-19.181l400.93-0.787
						c40.305,1.771,76.601-0.688,77.313,8.656S480.531,576.46,472.219,577.32z"/>
				</defs>
				<clipPath id="SVGID_22_">
					<use xlink:href="#SVGID_21_"  overflow="visible"/>
				</clipPath>
				<path opacity="0.04" clip-path="url(#SVGID_22_)" d="M515.573,566.5c-0.024-5.09-142.554-9.073-239.491-8.877
					c-96.937,0.197-244.384,4.476-244.36,9.566c0.025,5.09,147.472,9.073,244.409,8.877
					C373.068,575.869,515.573,571.591,515.573,566.5z"/>
			</g>
			<g>
				<defs>
					<path id="SVGID_23_" d="M472.219,577.32H43.206c-58.846,0.763-52.255-18.517,14.14-19.181l400.93-0.787
						c40.305,1.771,76.601-0.688,77.313,8.656S480.531,576.46,472.219,577.32z"/>
				</defs>
				<clipPath id="SVGID_24_">
					<use xlink:href="#SVGID_23_"  overflow="visible"/>
				</clipPath>
				<path opacity="0.05" clip-path="url(#SVGID_24_)" d="M513.311,566.5c-0.024-5.041-141.545-8.95-237.229-8.754
					c-95.683,0.196-242.122,4.427-242.097,9.443c0.024,5.041,146.463,8.95,242.146,8.754
					C371.814,575.747,513.311,571.542,513.311,566.5z"/>
			</g>
			<g>
				<defs>
					<path id="SVGID_25_" d="M472.219,577.32H43.206c-58.846,0.763-52.255-18.517,14.14-19.181l400.93-0.787
						c40.305,1.771,76.601-0.688,77.313,8.656S480.531,576.46,472.219,577.32z"/>
				</defs>
				<clipPath id="SVGID_26_">
					<use xlink:href="#SVGID_25_"  overflow="visible"/>
				</clipPath>
				<path opacity="0.05" clip-path="url(#SVGID_26_)" d="M511.048,566.5c-0.024-4.967-140.536-8.828-234.966-8.655
					c-94.429,0.172-239.86,4.377-239.86,9.319c0.025,4.968,145.456,8.828,239.885,8.656
					C370.561,575.648,511.048,571.468,511.048,566.5z"/>
			</g>
			<g>
				<defs>
					<path id="SVGID_27_" d="M472.219,577.32H43.206c-58.846,0.763-52.255-18.517,14.14-19.181l400.93-0.787
						c40.305,1.771,76.601-0.688,77.313,8.656S480.531,576.46,472.219,577.32z"/>
				</defs>
				<clipPath id="SVGID_28_">
					<use xlink:href="#SVGID_27_"  overflow="visible"/>
				</clipPath>
				<path clip-path="url(#SVGID_28_)" fill="#F2F2F2" d="M508.786,566.525c-0.024-4.894-139.505-8.73-232.729-8.533
					c-93.224,0.196-237.598,4.303-237.598,9.197c0.025,4.894,144.423,8.729,237.647,8.532
					C369.331,575.525,508.811,571.419,508.786,566.525z"/>
			</g>
			<g>
				<defs>
					<path id="SVGID_29_" d="M472.219,577.32H43.206c-58.846,0.763-52.255-18.517,14.14-19.181l400.93-0.787
						c40.305,1.771,76.601-0.688,77.313,8.656S480.531,576.46,472.219,577.32z"/>
				</defs>
				<clipPath id="SVGID_30_">
					<use xlink:href="#SVGID_29_"  overflow="visible"/>
				</clipPath>
				<path clip-path="url(#SVGID_30_)" fill="#F1F1F1" d="M506.523,566.525c-0.024-4.845-138.496-8.607-230.466-8.41
					c-91.945,0.172-235.335,4.254-235.335,9.074c0.024,4.844,143.414,8.606,235.385,8.409
					C368.077,575.402,506.548,571.345,506.523,566.525z"/>
			</g>
			<g>
				<defs>
					<path id="SVGID_31_" d="M472.219,577.32H43.206c-58.846,0.763-52.255-18.517,14.14-19.181l400.93-0.787
						c40.305,1.771,76.601-0.688,77.313,8.656S480.531,576.46,472.219,577.32z"/>
				</defs>
				<clipPath id="SVGID_32_">
					<use xlink:href="#SVGID_31_"  overflow="visible"/>
				</clipPath>
				<path clip-path="url(#SVGID_32_)" fill="#F0F0F0" d="M504.261,566.525c-0.024-4.771-137.487-8.484-228.203-8.312
					c-90.716,0.173-233.097,4.181-233.073,8.951c0.025,4.771,142.406,8.484,233.123,8.312
					C366.822,575.304,504.286,571.296,504.261,566.525z"/>
			</g>
			<g>
				<defs>
					<path id="SVGID_33_" d="M472.219,577.32H43.206c-58.846,0.763-52.255-18.517,14.14-19.181l400.93-0.787
						c40.305,1.771,76.601-0.688,77.313,8.656S480.531,576.46,472.219,577.32z"/>
				</defs>
				<clipPath id="SVGID_34_">
					<use xlink:href="#SVGID_33_"  overflow="visible"/>
				</clipPath>
				<path clip-path="url(#SVGID_34_)" fill="#EFEFEF" d="M501.999,566.525c-0.024-4.697-136.479-8.361-225.941-8.189
					c-89.462,0.173-230.811,4.132-230.811,8.828c0,4.697,141.398,8.361,230.86,8.189
					C365.568,575.181,502.023,571.222,501.999,566.525z"/>
			</g>
			<g>
				<defs>
					<path id="SVGID_35_" d="M472.219,577.32H43.206c-58.846,0.763-52.255-18.517,14.14-19.181l400.93-0.787
						c40.305,1.771,76.601-0.688,77.313,8.656S480.531,576.46,472.219,577.32z"/>
				</defs>
				<clipPath id="SVGID_36_">
					<use xlink:href="#SVGID_35_"  overflow="visible"/>
				</clipPath>
				<path clip-path="url(#SVGID_36_)" fill="#EEEEEE" d="M499.761,566.525c0-4.648-135.471-8.263-223.679-8.066
					c-88.208,0.197-228.572,4.082-228.548,8.705c0,4.648,140.39,8.263,228.597,8.066
					C364.339,575.083,499.761,571.173,499.761,566.525z"/>
			</g>
			<g>
				<defs>
					<path id="SVGID_37_" d="M472.219,577.32H43.206c-58.846,0.763-52.255-18.517,14.14-19.181l400.93-0.787
						c40.305,1.771,76.601-0.688,77.313,8.656S480.531,576.46,472.219,577.32z"/>
				</defs>
				<clipPath id="SVGID_38_">
					<use xlink:href="#SVGID_37_"  overflow="visible"/>
				</clipPath>
				<path clip-path="url(#SVGID_38_)" fill="#EDEDED" d="M497.499,566.525c0-4.574-134.464-8.14-221.417-7.968
					s-226.31,4.009-226.286,8.582c0,4.574,139.381,8.14,226.334,7.968C363.085,574.96,497.499,571.099,497.499,566.525z"/>
			</g>
			<g>
				<defs>
					<path id="SVGID_39_" d="M472.219,577.32H43.206c-58.846,0.763-52.255-18.517,14.14-19.181l400.93-0.787
						c40.305,1.771,76.601-0.688,77.313,8.656S480.531,576.46,472.219,577.32z"/>
				</defs>
				<clipPath id="SVGID_40_">
					<use xlink:href="#SVGID_39_"  overflow="visible"/>
				</clipPath>
				<path clip-path="url(#SVGID_40_)" fill="#ECECEC" d="M495.236,566.55c0-4.5-133.455-8.017-219.154-7.845
					c-85.724,0.172-224.048,3.959-224.048,8.459s138.373,8.017,224.073,7.845C361.806,574.837,495.236,571.05,495.236,566.55z"/>
			</g>
			<g>
				<defs>
					<path id="SVGID_41_" d="M472.219,577.32H43.206c-58.846,0.763-52.255-18.517,14.14-19.181l400.93-0.787
						c40.305,1.771,76.601-0.688,77.313,8.656S480.531,576.46,472.219,577.32z"/>
				</defs>
				<clipPath id="SVGID_42_">
					<use xlink:href="#SVGID_41_"  overflow="visible"/>
				</clipPath>
				<path clip-path="url(#SVGID_42_)" fill="#EBEBEB" d="M492.974,566.55c0-4.451-132.422-7.894-216.892-7.746
					c-84.47,0.172-221.785,3.91-221.785,8.336c0,4.427,137.34,7.894,221.811,7.746C360.576,574.738,492.974,570.976,492.974,566.55z
					"/>
			</g>
			<g>
				<defs>
					<path id="SVGID_43_" d="M472.219,577.32H43.206c-58.846,0.763-52.255-18.517,14.14-19.181l400.93-0.787
						c40.305,1.771,76.601-0.688,77.313,8.656S480.531,576.46,472.219,577.32z"/>
				</defs>
				<clipPath id="SVGID_44_">
					<use xlink:href="#SVGID_43_"  overflow="visible"/>
				</clipPath>
				<path clip-path="url(#SVGID_44_)" fill="#EAEAEA" d="M490.712,566.55c0-4.377-131.414-7.796-214.654-7.623
					c-83.24,0.172-219.523,3.86-219.499,8.213c0,4.377,136.332,7.796,219.572,7.623C359.371,574.591,490.736,570.927,490.712,566.55
					z"/>
			</g>
			<g>
				<defs>
					<path id="SVGID_45_" d="M472.219,577.32H43.206c-58.846,0.763-52.255-18.517,14.14-19.181l400.93-0.787
						c40.305,1.771,76.601-0.688,77.313,8.656S480.531,576.46,472.219,577.32z"/>
				</defs>
				<clipPath id="SVGID_46_">
					<use xlink:href="#SVGID_45_"  overflow="visible"/>
				</clipPath>
				<path clip-path="url(#SVGID_46_)" fill="#E9E9E9" d="M488.449,566.55c0-4.304-130.405-7.673-212.392-7.5
					c-81.986,0.172-217.261,3.786-217.261,8.09s135.324,7.673,217.311,7.5C358.093,574.492,488.474,570.854,488.449,566.55z"/>
			</g>
			<g>
				<defs>
					<path id="SVGID_47_" d="M472.219,577.32H43.206c-58.846,0.763-52.255-18.517,14.14-19.181l400.93-0.787
						c40.305,1.771,76.601-0.688,77.313,8.656S480.531,576.46,472.219,577.32z"/>
				</defs>
				<clipPath id="SVGID_48_">
					<use xlink:href="#SVGID_47_"  overflow="visible"/>
				</clipPath>
				<path clip-path="url(#SVGID_48_)" fill="#E8E8E8" d="M486.187,566.55c0-4.255-129.397-7.55-210.129-7.402
					c-80.732,0.173-215.023,3.738-214.999,7.968c0.025,4.229,134.316,7.55,215.048,7.402
					C356.839,574.369,486.212,570.804,486.187,566.55z"/>
			</g>
			<g>
				<defs>
					<path id="SVGID_49_" d="M472.219,577.32H43.206c-58.846,0.763-52.255-18.517,14.14-19.181l400.93-0.787
						c40.305,1.771,76.601-0.688,77.313,8.656S480.531,576.46,472.219,577.32z"/>
				</defs>
				<clipPath id="SVGID_50_">
					<use xlink:href="#SVGID_49_"  overflow="visible"/>
				</clipPath>
				<path clip-path="url(#SVGID_50_)" fill="#E6E6E6" d="M483.949,566.574c0-4.181-128.39-7.427-207.867-7.279
					c-79.478,0.148-212.76,3.664-212.736,7.845s133.307,7.427,212.785,7.279C355.585,574.246,483.949,570.73,483.949,566.574z"/>
			</g>
			<g>
				<defs>
					<path id="SVGID_51_" d="M472.219,577.32H43.206c-58.846,0.763-52.255-18.517,14.14-19.181l400.93-0.787
						c40.305,1.771,76.601-0.688,77.313,8.656S480.531,576.46,472.219,577.32z"/>
				</defs>
				<clipPath id="SVGID_52_">
					<use xlink:href="#SVGID_51_"  overflow="visible"/>
				</clipPath>
				<path clip-path="url(#SVGID_52_)" fill="#E5E5E5" d="M481.687,566.574c0-4.106-127.381-7.328-205.604-7.156
					c-78.224,0.147-210.498,3.615-210.474,7.722c0,4.106,132.299,7.328,210.522,7.156
					C354.355,574.124,481.687,570.681,481.687,566.574z"/>
			</g>
			<g>
				<defs>
					<path id="SVGID_53_" d="M472.219,577.32H43.206c-58.846,0.763-52.255-18.517,14.14-19.181l400.93-0.787
						c40.305,1.771,76.601-0.688,77.313,8.656S480.531,576.46,472.219,577.32z"/>
				</defs>
				<clipPath id="SVGID_54_">
					<use xlink:href="#SVGID_53_"  overflow="visible"/>
				</clipPath>
				<path clip-path="url(#SVGID_54_)" fill="#E4E4E4" d="M479.425,566.574c0-4.058-126.373-7.205-203.343-7.058
					c-76.969,0.147-208.236,3.565-208.236,7.599c0,4.058,131.291,7.205,208.261,7.058
					C353.076,574.025,479.425,570.632,479.425,566.574z"/>
			</g>
			<g>
				<defs>
					<path id="SVGID_55_" d="M472.219,577.32H43.206c-58.846,0.763-52.255-18.517,14.14-19.181l400.93-0.787
						c40.305,1.771,76.601-0.688,77.313,8.656S480.531,576.46,472.219,577.32z"/>
				</defs>
				<clipPath id="SVGID_56_">
					<use xlink:href="#SVGID_55_"  overflow="visible"/>
				</clipPath>
				<path clip-path="url(#SVGID_56_)" fill="#E3E3E3" d="M477.162,566.574c0-3.983-125.34-7.082-201.08-6.935
					c-75.74,0.147-205.998,3.492-205.973,7.476c0,3.983,130.258,7.082,205.999,6.935
					C351.847,573.902,477.162,570.558,477.162,566.574z"/>
			</g>
			<g>
				<defs>
					<path id="SVGID_57_" d="M472.219,577.32H43.206c-58.846,0.763-52.255-18.517,14.14-19.181l400.93-0.787
						c40.305,1.771,76.601-0.688,77.313,8.656S480.531,576.46,472.219,577.32z"/>
				</defs>
				<clipPath id="SVGID_58_">
					<use xlink:href="#SVGID_57_"  overflow="visible"/>
				</clipPath>
				<path clip-path="url(#SVGID_58_)" fill="#E2E2E2" d="M474.899,566.574c0-3.91-124.331-6.959-198.817-6.812
					c-74.486,0.147-203.711,3.442-203.711,7.353s129.25,6.959,203.736,6.812C350.593,573.804,474.899,570.509,474.899,566.574z"/>
			</g>
			<g>
				<defs>
					<path id="SVGID_59_" d="M472.219,577.32H43.206c-58.846,0.763-52.255-18.517,14.14-19.181l400.93-0.787
						c40.305,1.771,76.601-0.688,77.313,8.656S480.531,576.46,472.219,577.32z"/>
				</defs>
				<clipPath id="SVGID_60_">
					<use xlink:href="#SVGID_59_"  overflow="visible"/>
				</clipPath>
				<path clip-path="url(#SVGID_60_)" fill="#E1E1E1" d="M472.638,566.574c0-3.86-123.324-6.861-196.58-6.713
					c-73.232,0.147-201.449,3.394-201.449,7.229s128.242,6.86,201.499,6.713C349.363,573.681,472.662,570.435,472.638,566.574z"/>
			</g>
			<g>
				<defs>
					<path id="SVGID_61_" d="M472.219,577.32H43.206c-58.846,0.763-52.255-18.517,14.14-19.181l400.93-0.787
						c40.305,1.771,76.601-0.688,77.313,8.656S480.531,576.46,472.219,577.32z"/>
				</defs>
				<clipPath id="SVGID_62_">
					<use xlink:href="#SVGID_61_"  overflow="visible"/>
				</clipPath>
				<path clip-path="url(#SVGID_62_)" fill="#E0E0E0" d="M470.375,566.599c0-3.787-122.315-6.737-194.317-6.59
					c-72.002,0.147-199.211,3.319-199.187,7.106c0.025,3.787,127.233,6.738,199.236,6.591
					C348.109,573.558,470.399,570.386,470.375,566.599z"/>
			</g>
			<g>
				<defs>
					<path id="SVGID_63_" d="M472.219,577.32H43.206c-58.846,0.763-52.255-18.517,14.14-19.181l400.93-0.787
						c40.305,1.771,76.601-0.688,77.313,8.656S480.531,576.46,472.219,577.32z"/>
				</defs>
				<clipPath id="SVGID_64_">
					<use xlink:href="#SVGID_63_"  overflow="visible"/>
				</clipPath>
				<path clip-path="url(#SVGID_64_)" fill="#DFDFDF" d="M468.112,566.599c0-3.713-121.307-6.615-192.055-6.467
					c-70.748,0.147-196.949,3.271-196.924,6.983c0,3.713,126.225,6.615,196.974,6.468
					C346.854,573.436,468.137,570.312,468.112,566.599z"/>
			</g>
			<g>
				<defs>
					<path id="SVGID_65_" d="M472.219,577.32H43.206c-58.846,0.763-52.255-18.517,14.14-19.181l400.93-0.787
						c40.305,1.771,76.601-0.688,77.313,8.656S480.531,576.46,472.219,577.32z"/>
				</defs>
				<clipPath id="SVGID_66_">
					<use xlink:href="#SVGID_65_"  overflow="visible"/>
				</clipPath>
				<path clip-path="url(#SVGID_66_)" fill="#DEDEDE" d="M465.875,566.599c0-3.664-120.299-6.492-189.793-6.369
					c-69.494,0.123-194.686,3.222-194.686,6.861c0,3.664,125.217,6.492,194.711,6.369
					C345.601,573.337,465.875,570.263,465.875,566.599z"/>
			</g>
			<g>
				<defs>
					<path id="SVGID_67_" d="M472.219,577.32H43.206c-58.846,0.763-52.255-18.517,14.14-19.181l400.93-0.787
						c40.305,1.771,76.601-0.688,77.313,8.656S480.531,576.46,472.219,577.32z"/>
				</defs>
				<clipPath id="SVGID_68_">
					<use xlink:href="#SVGID_67_"  overflow="visible"/>
				</clipPath>
				<path clip-path="url(#SVGID_68_)" fill="#DDDDDD" d="M463.612,566.599c0-3.59-119.29-6.394-187.53-6.246
					c-68.24,0.147-192.424,3.147-192.424,6.738c0,3.59,124.209,6.394,192.449,6.246
					C344.371,573.214,463.612,570.189,463.612,566.599z"/>
			</g>
			<g>
				<defs>
					<path id="SVGID_69_" d="M472.219,577.32H43.206c-58.846,0.763-52.255-18.517,14.14-19.181l400.93-0.787
						c40.305,1.771,76.601-0.688,77.313,8.656S480.531,576.46,472.219,577.32z"/>
				</defs>
				<clipPath id="SVGID_70_">
					<use xlink:href="#SVGID_69_"  overflow="visible"/>
				</clipPath>
				<path clip-path="url(#SVGID_70_)" fill="#DCDCDC" d="M461.35,566.599c0-3.517-118.257-6.271-185.268-6.123
					c-67.01,0.123-190.162,3.099-190.162,6.615s123.176,6.271,190.187,6.123C343.117,573.091,461.35,570.14,461.35,566.599z"/>
			</g>
			<g>
				<defs>
					<path id="SVGID_71_" d="M472.219,577.32H43.206c-58.846,0.763-52.255-18.517,14.14-19.181l400.93-0.787
						c40.305,1.771,76.601-0.688,77.313,8.656S480.531,576.46,472.219,577.32z"/>
				</defs>
				<clipPath id="SVGID_72_">
					<use xlink:href="#SVGID_71_"  overflow="visible"/>
				</clipPath>
				<path clip-path="url(#SVGID_72_)" fill="#DBDBDB" d="M459.088,566.623c0-3.467-117.25-6.147-183.006-6.024
					s-187.899,3.049-187.899,6.492c0,3.467,122.167,6.147,187.924,6.024C341.863,572.968,459.088,570.066,459.088,566.623z"/>
			</g>
			<g>
				<defs>
					<path id="SVGID_73_" d="M472.219,577.32H43.206c-58.846,0.763-52.255-18.517,14.14-19.181l400.93-0.787
						c40.305,1.771,76.601-0.688,77.313,8.656S480.531,576.46,472.219,577.32z"/>
				</defs>
				<clipPath id="SVGID_74_">
					<use xlink:href="#SVGID_73_"  overflow="visible"/>
				</clipPath>
				<path clip-path="url(#SVGID_74_)" fill="#DADADA" d="M456.825,566.623c0-3.394-116.241-6.024-180.743-5.901
					s-185.637,2.976-185.637,6.369s121.16,6.024,185.662,5.901C340.608,572.869,456.85,570.017,456.825,566.623z"/>
			</g>
			<g>
				<defs>
					<path id="SVGID_75_" d="M472.219,577.32H43.206c-58.846,0.763-52.255-18.517,14.14-19.181l400.93-0.787
						c40.305,1.771,76.601-0.688,77.313,8.656S480.531,576.46,472.219,577.32z"/>
				</defs>
				<clipPath id="SVGID_76_">
					<use xlink:href="#SVGID_75_"  overflow="visible"/>
				</clipPath>
				<path clip-path="url(#SVGID_76_)" fill="#D9D9D9" d="M454.562,566.623c0-3.319-115.232-5.926-178.505-5.803
					s-183.375,2.926-183.35,6.271c0,3.319,120.151,5.926,183.423,5.804C339.379,572.746,454.588,569.943,454.562,566.623z"/>
			</g>
			<g>
				<defs>
					<path id="SVGID_77_" d="M472.219,577.32H43.206c-58.846,0.763-52.255-18.517,14.14-19.181l400.93-0.787
						c40.305,1.771,76.601-0.688,77.313,8.656S480.531,576.46,472.219,577.32z"/>
				</defs>
				<clipPath id="SVGID_78_">
					<use xlink:href="#SVGID_77_"  overflow="visible"/>
				</clipPath>
				<path clip-path="url(#SVGID_78_)" fill="#D8D8D8" d="M452.301,566.623c0-3.271-114.225-5.803-176.243-5.68
					c-62.019,0.122-181.137,2.877-181.112,6.123c0,3.271,119.143,5.803,181.162,5.68
					C338.125,572.624,452.325,569.894,452.301,566.623z"/>
			</g>
			<g>
				<defs>
					<path id="SVGID_79_" d="M472.219,577.32H43.206c-58.846,0.763-52.255-18.517,14.14-19.181l400.93-0.787
						c40.305,1.771,76.601-0.688,77.313,8.656S480.531,576.46,472.219,577.32z"/>
				</defs>
				<clipPath id="SVGID_80_">
					<use xlink:href="#SVGID_79_"  overflow="visible"/>
				</clipPath>
				<path clip-path="url(#SVGID_80_)" fill="#D7D7D7" d="M450.062,566.623c0-3.196-113.216-5.68-173.98-5.558
					c-60.764,0.123-178.874,2.804-178.874,6.001c0,3.196,118.135,5.68,178.899,5.558
					C336.871,572.525,450.062,569.82,450.062,566.623z"/>
			</g>
			<g>
				<defs>
					<path id="SVGID_81_" d="M472.219,577.32H43.206c-58.846,0.763-52.255-18.517,14.14-19.181l400.93-0.787
						c40.305,1.771,76.601-0.688,77.313,8.656S480.531,576.46,472.219,577.32z"/>
				</defs>
				<clipPath id="SVGID_82_">
					<use xlink:href="#SVGID_81_"  overflow="visible"/>
				</clipPath>
				<path clip-path="url(#SVGID_82_)" fill="#D6D6D6" d="M447.801,566.648c0-3.123-112.209-5.558-171.719-5.46
					c-59.51,0.099-176.612,2.755-176.612,5.878s117.126,5.558,176.637,5.459C335.617,572.402,447.801,569.771,447.801,566.648z"/>
			</g>
			<g>
				<defs>
					<path id="SVGID_83_" d="M472.219,577.32H43.206c-58.846,0.763-52.255-18.517,14.14-19.181l400.93-0.787
						c40.305,1.771,76.601-0.688,77.313,8.656S480.531,576.46,472.219,577.32z"/>
				</defs>
				<clipPath id="SVGID_84_">
					<use xlink:href="#SVGID_83_"  overflow="visible"/>
				</clipPath>
				<path clip-path="url(#SVGID_84_)" fill="#D5D5D5" d="M445.538,566.648c0-3.074-111.176-5.46-169.456-5.337
					s-174.35,2.705-174.35,5.755c0,3.073,116.094,5.459,174.375,5.336C334.387,572.279,445.538,569.697,445.538,566.648z"/>
			</g>
			<g>
				<defs>
					<path id="SVGID_85_" d="M472.219,577.32H43.206c-58.846,0.763-52.255-18.517,14.14-19.181l400.93-0.787
						c40.305,1.771,76.601-0.688,77.313,8.656S480.531,576.46,472.219,577.32z"/>
				</defs>
				<clipPath id="SVGID_86_">
					<use xlink:href="#SVGID_85_"  overflow="visible"/>
				</clipPath>
				<path clip-path="url(#SVGID_86_)" fill="#D4D4D4" d="M443.275,566.648c0-3.001-110.167-5.337-167.193-5.214
					s-172.087,2.632-172.087,5.632s115.085,5.336,172.112,5.213C333.133,572.156,443.275,569.648,443.275,566.648z"/>
			</g>
			<g>
				<defs>
					<path id="SVGID_87_" d="M472.219,577.32H43.206c-58.846,0.763-52.255-18.517,14.14-19.181l400.93-0.787
						c40.305,1.771,76.601-0.688,77.313,8.656S480.531,576.46,472.219,577.32z"/>
				</defs>
				<clipPath id="SVGID_88_">
					<use xlink:href="#SVGID_87_"  overflow="visible"/>
				</clipPath>
				<path clip-path="url(#SVGID_88_)" fill="#D4D4D4" d="M441.014,566.648c0-2.927-109.159-5.214-164.932-5.115
					c-55.772,0.123-169.825,2.582-169.825,5.508c0,2.927,114.077,5.214,169.85,5.115
					C331.879,572.058,441.014,569.574,441.014,566.648z"/>
			</g>
			<g>
				<defs>
					<path id="SVGID_89_" d="M472.219,577.32H43.206c-58.846,0.763-52.255-18.517,14.14-19.181l400.93-0.787
						c40.305,1.771,76.601-0.688,77.313,8.656S480.531,576.46,472.219,577.32z"/>
				</defs>
				<clipPath id="SVGID_90_">
					<use xlink:href="#SVGID_89_"  overflow="visible"/>
				</clipPath>
				<path clip-path="url(#SVGID_90_)" fill="#D3D3D3" d="M438.751,566.648c0-2.878-108.15-5.091-162.669-4.992
					c-54.518,0.098-167.587,2.508-167.562,5.385c0,2.878,113.069,5.091,167.588,4.992
					C330.625,571.936,438.775,569.525,438.751,566.648z"/>
			</g>
			<g>
				<defs>
					<path id="SVGID_91_" d="M472.219,577.32H43.206c-58.846,0.763-52.255-18.517,14.14-19.181l400.93-0.787
						c40.305,1.771,76.601-0.688,77.313,8.656S480.531,576.46,472.219,577.32z"/>
				</defs>
				<clipPath id="SVGID_92_">
					<use xlink:href="#SVGID_91_"  overflow="visible"/>
				</clipPath>
				<path clip-path="url(#SVGID_92_)" fill="#D2D2D2" d="M436.488,566.648c0-2.804-107.143-4.992-160.406-4.869
					s-165.325,2.459-165.3,5.262c0.024,2.804,112.061,4.992,165.325,4.869C329.396,571.812,436.514,569.451,436.488,566.648z"/>
			</g>
			<g>
				<defs>
					<path id="SVGID_93_" d="M472.219,577.32H43.206c-58.846,0.763-52.255-18.517,14.14-19.181l400.93-0.787
						c40.305,1.771,76.601-0.688,77.313,8.656S480.531,576.46,472.219,577.32z"/>
				</defs>
				<clipPath id="SVGID_94_">
					<use xlink:href="#SVGID_93_"  overflow="visible"/>
				</clipPath>
				<path clip-path="url(#SVGID_94_)" fill="#D1D1D1" d="M434.227,566.673c0-2.729-106.135-4.869-158.169-4.771
					c-52.034,0.098-163.062,2.409-163.062,5.139c0,2.73,111.053,4.869,163.087,4.771
					C328.116,571.714,434.251,569.402,434.227,566.673z"/>
			</g>
			<g>
				<defs>
					<path id="SVGID_95_" d="M472.219,577.32H43.206c-58.846,0.763-52.255-18.517,14.14-19.181l400.93-0.787
						c40.305,1.771,76.601-0.688,77.313,8.656S480.531,576.46,472.219,577.32z"/>
				</defs>
				<clipPath id="SVGID_96_">
					<use xlink:href="#SVGID_95_"  overflow="visible"/>
				</clipPath>
				<path clip-path="url(#SVGID_96_)" fill="#D1D1D1" d="M431.988,566.673c0-2.681-105.126-4.746-155.906-4.647
					c-50.78,0.098-160.8,2.336-160.8,5.016c0,2.681,110.044,4.746,160.825,4.648C326.887,571.591,431.988,569.328,431.988,566.673z"
					/>
			</g>
			<g>
				<defs>
					<path id="SVGID_97_" d="M472.219,577.32H43.206c-58.846,0.763-52.255-18.517,14.14-19.181l400.93-0.787
						c40.305,1.771,76.601-0.688,77.313,8.656S480.531,576.46,472.219,577.32z"/>
				</defs>
				<clipPath id="SVGID_98_">
					<use xlink:href="#SVGID_97_"  overflow="visible"/>
				</clipPath>
				<path clip-path="url(#SVGID_98_)" fill="#D0D0D0" d="M428.57,566.673c0-2.582-103.602-4.574-152.488-4.476
					c-48.911,0.098-157.382,2.262-157.382,4.819c0,2.582,108.52,4.574,157.407,4.476C325.018,571.419,428.57,569.255,428.57,566.673
					z"/>
			</g>
			<g>
				<defs>
					<path id="SVGID_99_" d="M472.219,577.32H43.206c-58.846,0.763-52.255-18.517,14.14-19.181l400.93-0.787
						c40.305,1.771,76.601-0.688,77.313,8.656S480.531,576.46,472.219,577.32z"/>
				</defs>
				<clipPath id="SVGID_100_">
					<use xlink:href="#SVGID_99_"  overflow="visible"/>
				</clipPath>
				<path clip-path="url(#SVGID_100_)" fill="#CFCFCF" d="M425.177,566.673c0-2.484-102.077-4.402-149.095-4.304
					s-153.988,2.164-153.988,4.647c0,2.484,106.995,4.402,154.014,4.304C323.125,571.222,425.177,569.156,425.177,566.673z"/>
			</g>
			<g>
				<defs>
					<path id="SVGID_101_" d="M472.219,577.32H43.206c-58.846,0.763-52.255-18.517,14.14-19.181l400.93-0.787
						c40.305,1.771,76.601-0.688,77.313,8.656S480.531,576.46,472.219,577.32z"/>
				</defs>
				<clipPath id="SVGID_102_">
					<use xlink:href="#SVGID_101_"  overflow="visible"/>
				</clipPath>
				<path clip-path="url(#SVGID_102_)" fill="#CECECE" d="M421.759,566.697c0-2.36-100.553-4.229-145.677-4.131
					c-45.149,0.098-150.595,2.09-150.57,4.45c0,2.361,105.47,4.229,150.595,4.132C321.256,571.05,421.759,569.058,421.759,566.697z"
					/>
			</g>
			<g>
				<defs>
					<path id="SVGID_103_" d="M472.219,577.32H43.206c-58.846,0.763-52.255-18.517,14.14-19.181l400.93-0.787
						c40.305,1.771,76.601-0.688,77.313,8.656S480.531,576.46,472.219,577.32z"/>
				</defs>
				<clipPath id="SVGID_104_">
					<use xlink:href="#SVGID_103_"  overflow="visible"/>
				</clipPath>
				<path clip-path="url(#SVGID_104_)" fill="#CDCDCD" d="M418.365,566.697c0-2.263-99.027-4.058-142.283-3.959
					c-43.255,0.098-147.176,1.991-147.176,4.278s103.946,4.058,147.202,3.959C319.362,570.878,418.365,568.96,418.365,566.697z"/>
			</g>
			<g>
				<defs>
					<path id="SVGID_105_" d="M472.219,577.32H43.206c-58.846,0.763-52.255-18.517,14.14-19.181l400.93-0.787
						c40.305,1.771,76.601-0.688,77.313,8.656S480.531,576.46,472.219,577.32z"/>
				</defs>
				<clipPath id="SVGID_106_">
					<use xlink:href="#SVGID_105_"  overflow="visible"/>
				</clipPath>
				<path clip-path="url(#SVGID_106_)" fill="#CCCCCD" d="M414.947,566.697c0-2.164-97.479-3.861-138.865-3.787
					c-41.386,0.074-143.783,1.918-143.758,4.082c0,2.164,102.396,3.861,143.784,3.787
					C317.493,570.705,414.947,568.886,414.947,566.697z"/>
			</g>
			<g>
				<defs>
					<path id="SVGID_107_" d="M472.219,577.32H43.206c-58.846,0.763-52.255-18.517,14.14-19.181l400.93-0.787
						c40.305,1.771,76.601-0.688,77.313,8.656S480.531,576.46,472.219,577.32z"/>
				</defs>
				<clipPath id="SVGID_108_">
					<use xlink:href="#SVGID_107_"  overflow="visible"/>
				</clipPath>
				<path clip-path="url(#SVGID_108_)" fill="#CBCBCC" d="M411.554,566.697c0-2.065-95.954-3.688-135.472-3.615
					c-39.493,0.074-140.365,1.82-140.365,3.91c0,2.065,100.872,3.688,140.39,3.615C315.624,570.533,411.554,568.787,411.554,566.697
					z"/>
			</g>
			<g>
				<defs>
					<path id="SVGID_109_" d="M472.219,577.32H43.206c-58.846,0.763-52.255-18.517,14.14-19.181l400.93-0.787
						c40.305,1.771,76.601-0.688,77.313,8.656S480.531,576.46,472.219,577.32z"/>
				</defs>
				<clipPath id="SVGID_110_">
					<use xlink:href="#SVGID_109_"  overflow="visible"/>
				</clipPath>
				<path clip-path="url(#SVGID_110_)" fill="#CACACB" d="M408.136,566.722c0-1.967-94.43-3.517-132.054-3.442
					c-37.624,0.073-136.971,1.746-136.947,3.713c0,1.968,99.347,3.517,136.972,3.442
					C313.73,570.361,408.136,568.689,408.136,566.722z"/>
			</g>
			<g>
				<defs>
					<path id="SVGID_111_" d="M472.219,577.32H43.206c-58.846,0.763-52.255-18.517,14.14-19.181l400.93-0.787
						c40.305,1.771,76.601-0.688,77.313,8.656S480.531,576.46,472.219,577.32z"/>
				</defs>
				<clipPath id="SVGID_112_">
					<use xlink:href="#SVGID_111_"  overflow="visible"/>
				</clipPath>
				<path clip-path="url(#SVGID_112_)" fill="#C9C9CA" d="M404.742,566.722c0-1.869-92.905-3.345-128.66-3.271
					s-133.553,1.647-133.553,3.541c0,1.869,97.823,3.345,133.579,3.271C311.862,570.189,404.742,568.591,404.742,566.722z"/>
			</g>
			<g>
				<defs>
					<path id="SVGID_113_" d="M472.219,577.32H43.206c-58.846,0.763-52.255-18.517,14.14-19.181l400.93-0.787
						c40.305,1.771,76.601-0.688,77.313,8.656S480.531,576.46,472.219,577.32z"/>
				</defs>
				<clipPath id="SVGID_114_">
					<use xlink:href="#SVGID_113_"  overflow="visible"/>
				</clipPath>
				<path clip-path="url(#SVGID_114_)" fill="#C8C8C9" d="M401.323,566.722c0-1.771-91.38-3.172-125.241-3.099
					c-33.862,0.074-130.16,1.574-130.135,3.345c0,1.771,96.298,3.172,130.16,3.099C309.943,570.017,401.323,568.517,401.323,566.722
					z"/>
			</g>
			<g>
				<defs>
					<path id="SVGID_115_" d="M472.219,577.32H43.206c-58.846,0.763-52.255-18.517,14.14-19.181l400.93-0.787
						c40.305,1.771,76.601-0.688,77.313,8.656S480.531,576.46,472.219,577.32z"/>
				</defs>
				<clipPath id="SVGID_116_">
					<use xlink:href="#SVGID_115_"  overflow="visible"/>
				</clipPath>
				<path clip-path="url(#SVGID_116_)" fill="#C7C7C8" d="M397.93,566.746c0-1.672-89.854-3-121.848-2.926
					c-31.968,0.073-126.741,1.476-126.741,3.147s94.773,3,126.767,2.926C308.1,569.82,397.93,568.419,397.93,566.746z"/>
			</g>
			<g>
				<defs>
					<path id="SVGID_117_" d="M472.219,577.32H43.206c-58.846,0.763-52.255-18.517,14.14-19.181l400.93-0.787
						c40.305,1.771,76.601-0.688,77.313,8.656S480.531,576.46,472.219,577.32z"/>
				</defs>
				<clipPath id="SVGID_118_">
					<use xlink:href="#SVGID_117_"  overflow="visible"/>
				</clipPath>
				<path clip-path="url(#SVGID_118_)" fill="#C6C6C7" d="M394.512,566.746c0-1.573-88.33-2.803-118.43-2.754
					c-30.099,0.049-123.348,1.401-123.348,2.976c0,1.573,93.249,2.804,123.348,2.754
					C306.182,569.648,394.512,568.32,394.512,566.746z"/>
			</g>
			<g>
				<defs>
					<path id="SVGID_119_" d="M472.219,577.32H43.206c-58.846,0.763-52.255-18.517,14.14-19.181l400.93-0.787
						c40.305,1.771,76.601-0.688,77.313,8.656S480.531,576.46,472.219,577.32z"/>
				</defs>
				<clipPath id="SVGID_120_">
					<use xlink:href="#SVGID_119_"  overflow="visible"/>
				</clipPath>
				<path clip-path="url(#SVGID_120_)" fill="#C5C5C6" d="M391.118,566.746c0-1.476-86.806-2.631-115.036-2.582
					c-28.206,0.05-119.93,1.304-119.93,2.779s91.724,2.631,119.955,2.582C304.337,569.476,391.118,568.222,391.118,566.746z"/>
			</g>
			<g>
				<defs>
					<path id="SVGID_121_" d="M472.219,577.32H43.206c-58.846,0.763-52.255-18.517,14.14-19.181l400.93-0.787
						c40.305,1.771,76.601-0.688,77.313,8.656S480.531,576.46,472.219,577.32z"/>
				</defs>
				<clipPath id="SVGID_122_">
					<use xlink:href="#SVGID_121_"  overflow="visible"/>
				</clipPath>
				<path clip-path="url(#SVGID_122_)" fill="#C4C5C6" d="M387.7,566.746c0-1.377-85.281-2.459-111.618-2.409
					c-26.337,0.049-116.536,1.204-116.536,2.606c0,1.377,90.199,2.459,116.536,2.409C302.419,569.304,387.7,568.148,387.7,566.746z"
					/>
			</g>
			<g>
				<defs>
					<path id="SVGID_123_" d="M472.219,577.32H43.206c-58.846,0.763-52.255-18.517,14.14-19.181l400.93-0.787
						c40.305,1.771,76.601-0.688,77.313,8.656S480.531,576.46,472.219,577.32z"/>
				</defs>
				<clipPath id="SVGID_124_">
					<use xlink:href="#SVGID_123_"  overflow="visible"/>
				</clipPath>
				<path clip-path="url(#SVGID_124_)" fill="#C2C4C5" d="M384.307,566.771c0-1.278-83.756-2.286-108.225-2.237
					c-24.468,0.049-113.118,1.131-113.118,2.41c0,1.278,88.675,2.287,113.144,2.237C300.551,569.132,384.307,568.05,384.307,566.771
					z"/>
			</g>
			<g>
				<defs>
					<path id="SVGID_125_" d="M472.219,577.32H43.206c-58.846,0.763-52.255-18.517,14.14-19.181l400.93-0.787
						c40.305,1.771,76.601-0.688,77.313,8.656S480.531,576.46,472.219,577.32z"/>
				</defs>
				<clipPath id="SVGID_126_">
					<use xlink:href="#SVGID_125_"  overflow="visible"/>
				</clipPath>
				<path clip-path="url(#SVGID_126_)" fill="#C1C3C4" d="M380.889,566.771c0-1.18-82.232-2.114-104.807-2.065
					c-22.574,0.05-109.725,1.033-109.725,2.238c0,1.18,87.15,2.114,109.725,2.065S380.889,567.951,380.889,566.771z"/>
			</g>
			<g>
				<defs>
					<path id="SVGID_127_" d="M472.219,577.32H43.206c-58.846,0.763-52.255-18.517,14.14-19.181l400.93-0.787
						c40.305,1.771,76.601-0.688,77.313,8.656S480.531,576.46,472.219,577.32z"/>
				</defs>
				<clipPath id="SVGID_128_">
					<use xlink:href="#SVGID_127_"  overflow="visible"/>
				</clipPath>
				<path clip-path="url(#SVGID_128_)" fill="#C0C2C3" d="M377.495,566.771c0-1.081-80.708-1.942-101.413-1.893
					c-20.681,0.049-106.307,0.959-106.307,2.041c0,1.081,85.626,1.942,106.332,1.894
					C296.812,568.763,377.495,567.853,377.495,566.771z"/>
			</g>
			<g>
				<defs>
					<path id="SVGID_129_" d="M472.219,577.32H43.206c-58.846,0.763-52.255-18.517,14.14-19.181l400.93-0.787
						c40.305,1.771,76.601-0.688,77.313,8.656S480.531,576.46,472.219,577.32z"/>
				</defs>
				<clipPath id="SVGID_130_">
					<use xlink:href="#SVGID_129_"  overflow="visible"/>
				</clipPath>
				<path clip-path="url(#SVGID_130_)" fill="#BFC1C2" d="M374.077,566.771c0-0.983-79.183-1.771-97.995-1.721
					c-18.812,0.049-102.913,0.86-102.913,1.869c0,0.983,84.101,1.771,102.913,1.721
					C294.895,568.615,374.077,567.779,374.077,566.771z"/>
			</g>
			<g>
				<defs>
					<path id="SVGID_131_" d="M472.219,577.32H43.206c-58.846,0.763-52.255-18.517,14.14-19.181l400.93-0.787
						c40.305,1.771,76.601-0.688,77.313,8.656S480.531,576.46,472.219,577.32z"/>
				</defs>
				<clipPath id="SVGID_132_">
					<use xlink:href="#SVGID_131_"  overflow="visible"/>
				</clipPath>
				<path clip-path="url(#SVGID_132_)" fill="#BEC0C1" d="M370.684,566.796c0-0.886-77.658-1.574-94.602-1.55
					c-16.918,0.024-99.495,0.787-99.495,1.673c0,0.885,82.576,1.573,99.52,1.549C293.025,568.419,370.684,567.681,370.684,566.796z"
					/>
			</g>
			<g>
				<defs>
					<path id="SVGID_133_" d="M472.219,577.32H43.206c-58.846,0.763-52.255-18.517,14.14-19.181l400.93-0.787
						c40.305,1.771,76.601-0.688,77.313,8.656S480.531,576.46,472.219,577.32z"/>
				</defs>
				<clipPath id="SVGID_134_">
					<use xlink:href="#SVGID_133_"  overflow="visible"/>
				</clipPath>
				<path clip-path="url(#SVGID_134_)" fill="#BDBFC0" d="M367.266,566.796c0-0.787-76.134-1.402-91.184-1.378
					c-15.049,0.025-96.101,0.689-96.101,1.476c0,0.787,81.052,1.402,96.101,1.378C291.132,568.246,367.266,567.582,367.266,566.796z
					"/>
			</g>
			<g>
				<defs>
					<path id="SVGID_135_" d="M472.219,577.32H43.206c-58.846,0.763-52.255-18.517,14.14-19.181l400.93-0.787
						c40.305,1.771,76.601-0.688,77.313,8.656S480.531,576.46,472.219,577.32z"/>
				</defs>
				<clipPath id="SVGID_136_">
					<use xlink:href="#SVGID_135_"  overflow="visible"/>
				</clipPath>
				<path clip-path="url(#SVGID_136_)" fill="#BCBEBF" d="M363.872,566.796c0-0.688-74.609-1.229-87.79-1.205
					s-92.683,0.614-92.683,1.303s79.527,1.229,92.708,1.205C289.263,568.074,363.872,567.484,363.872,566.796z"/>
			</g>
			<g>
				<defs>
					<path id="SVGID_137_" d="M472.219,577.32H43.206c-58.846,0.763-52.255-18.517,14.14-19.181l400.93-0.787
						c40.305,1.771,76.601-0.688,77.313,8.656S480.531,576.46,472.219,577.32z"/>
				</defs>
				<clipPath id="SVGID_138_">
					<use xlink:href="#SVGID_137_"  overflow="visible"/>
				</clipPath>
				<path clip-path="url(#SVGID_138_)" fill="#BBBDBE" d="M360.453,566.82c0-0.591-73.084-1.058-84.371-1.033
					s-89.29,0.517-89.29,1.106c0,0.591,78.002,1.058,89.29,1.033S360.453,567.41,360.453,566.82z"/>
			</g>
			<g>
				<defs>
					<path id="SVGID_139_" d="M472.219,577.32H43.206c-58.846,0.763-52.255-18.517,14.14-19.181l400.93-0.787
						c40.305,1.771,76.601-0.688,77.313,8.656S480.531,576.46,472.219,577.32z"/>
				</defs>
				<clipPath id="SVGID_140_">
					<use xlink:href="#SVGID_139_"  overflow="visible"/>
				</clipPath>
				<path clip-path="url(#SVGID_140_)" fill="#BABCBE" d="M357.06,566.82c0-0.492-71.56-0.886-80.978-0.861
					c-9.394,0.025-85.872,0.443-85.872,0.935c0,0.492,76.478,0.886,85.897,0.861C285.525,567.73,357.06,567.312,357.06,566.82z"/>
			</g>
			<g>
				<defs>
					<path id="SVGID_141_" d="M472.219,577.32H43.206c-58.846,0.763-52.255-18.517,14.14-19.181l400.93-0.787
						c40.305,1.771,76.601-0.688,77.313,8.656S480.531,576.46,472.219,577.32z"/>
				</defs>
				<clipPath id="SVGID_142_">
					<use xlink:href="#SVGID_141_"  overflow="visible"/>
				</clipPath>
				<path clip-path="url(#SVGID_142_)" fill="#B9BBBD" d="M353.642,566.82c0-0.394-70.034-0.713-77.56-0.688
					c-7.525,0.024-82.478,0.344-82.478,0.737s74.953,0.713,82.478,0.688C283.607,567.558,353.642,567.214,353.642,566.82z"/>
			</g>
			<g>
				<defs>
					<path id="SVGID_143_" d="M472.219,577.32H43.206c-58.846,0.763-52.255-18.517,14.14-19.181l400.93-0.787
						c40.305,1.771,76.601-0.688,77.313,8.656S480.531,576.46,472.219,577.32z"/>
				</defs>
				<clipPath id="SVGID_144_">
					<use xlink:href="#SVGID_143_"  overflow="visible"/>
				</clipPath>
				<path clip-path="url(#SVGID_144_)" fill="#B8BABC" d="M350.248,566.82c0-0.295-68.51-0.517-74.166-0.517
					c-5.631,0-79.06,0.271-79.06,0.565s73.428,0.517,79.085,0.517C281.738,567.386,350.248,567.115,350.248,566.82z"/>
			</g>
			<g>
				<defs>
					<path id="SVGID_145_" d="M472.219,577.32H43.206c-58.846,0.763-52.255-18.517,14.14-19.181l400.93-0.787
						c40.305,1.771,76.601-0.688,77.313,8.656S480.531,576.46,472.219,577.32z"/>
				</defs>
				<clipPath id="SVGID_146_">
					<use xlink:href="#SVGID_145_"  overflow="visible"/>
				</clipPath>
				<path clip-path="url(#SVGID_146_)" fill="#B7B9BB" d="M346.83,566.845c0-0.196-66.985-0.345-70.748-0.345
					c-3.762,0-75.666,0.173-75.666,0.369c0,0.197,71.904,0.345,75.666,0.345C279.845,567.189,346.83,567.041,346.83,566.845z"/>
			</g>
			<g>
				<defs>
					<path id="SVGID_147_" d="M472.219,577.32H43.206c-58.846,0.763-52.255-18.517,14.14-19.181l400.93-0.787
						c40.305,1.771,76.601-0.688,77.313,8.656S480.531,576.46,472.219,577.32z"/>
				</defs>
				<clipPath id="SVGID_148_">
					<use xlink:href="#SVGID_147_"  overflow="visible"/>
				</clipPath>
				<path clip-path="url(#SVGID_148_)" fill="#B6B8BA" d="M343.437,566.845c0-0.099-65.461-0.172-67.354-0.172
					c-1.869,0-3.394,0.098-3.394,0.196s1.524,0.172,3.419,0.172C277.976,567.017,343.437,566.943,343.437,566.845z"/>
			</g>
		</g>
	</g>
</g>
<g id="Layer_1_1_">
	
		<linearGradient id="bottompad_1_" gradientUnits="userSpaceOnUse" x1="1230.8594" y1="425.8433" x2="1230.8594" y2="407.0933" gradientTransform="matrix(0.2459 0 0 -0.2459 -35.4998 670.6052)">
		<stop  offset="0" style="stop-color:#C8C8C8"/>
		<stop  offset="0.6813" style="stop-color:#292929"/>
	</linearGradient>
	<path id="bottompad" fill="url(#bottompad_1_)" d="M183.35,566.378v1.967c0,1.451,62.019,1.082,83.831,1.082
		s83.831,0.369,83.831-1.082v-1.967l0,0v-0.492c-21.369,0.983-65.043,0.688-83.314,0.688c-18.247,0-62.608,0-84.347-0.688V566.378
		L183.35,566.378z"/>
	
		<linearGradient id="edge_1_" gradientUnits="userSpaceOnUse" x1="884.5625" y1="1475.5654" x2="1575.9648" y2="1475.5654" gradientTransform="matrix(0.2459 0 0 -0.2459 -35.4998 930.2858)">
		<stop  offset="0" style="stop-color:#909195"/>
		<stop  offset="0.0475" style="stop-color:#939498"/>
		<stop  offset="0.1302" style="stop-color:#BEBEBF"/>
		<stop  offset="0.3155" style="stop-color:#E4E5E7"/>
		<stop  offset="0.7538" style="stop-color:#DEDFE1"/>
		<stop  offset="0.9158" style="stop-color:#B0B1B2"/>
		<stop  offset="0.9662" style="stop-color:#88898A"/>
		<stop  offset="1" style="stop-color:#787878"/>
	</linearGradient>
	<path id="edge" fill="url(#edge_1_)" d="M182.022,566.722v0.787c0,1.451,63.174,1.082,85.011,1.082
		c21.836,0,85.011,0.369,85.011-1.082v-0.787l0,0v-0.492c-21.37,0.984-66.224,0.689-84.495,0.689c-18.247,0-63.765,0-85.527-0.689
		V566.722L182.022,566.722z"/>
	
		<linearGradient id="metal_1_" gradientUnits="userSpaceOnUse" x1="1230.4102" y1="679.3438" x2="1230.4102" y2="421.4761" gradientTransform="matrix(0.2459 0 0 -0.2459 -35.4998 670.6052)">
		<stop  offset="0" style="stop-color:#909195"/>
		<stop  offset="0.14" style="stop-color:#939498"/>
		<stop  offset="0.27" style="stop-color:#999999"/>
		<stop  offset="0.27" style="stop-color:#999999"/>
		<stop  offset="0.46" style="stop-color:#BEBEBF"/>
		<stop  offset="0.67" style="stop-color:#E4E5E7"/>
		<stop  offset="0.69" style="stop-color:#DEDFE1"/>
		<stop  offset="0.73" style="stop-color:#CDCDCF"/>
		<stop  offset="0.77" style="stop-color:#B0B1B2"/>
		<stop  offset="0.82" style="stop-color:#88898A"/>
		<stop  offset="0.86" style="stop-color:#666666"/>
		<stop  offset="0.9" style="stop-color:#787878"/>
		<stop  offset="0.93" style="stop-color:#919191"/>
		<stop  offset="0.98" style="stop-color:#B3B3B3"/>
		<stop  offset="1" style="stop-color:#BFC0C4"/>
	</linearGradient>
	<path id="metal" fill="url(#metal_1_)" d="M352.068,566.229c0-1.081-16.624-4.573-21.395-6.541
		c-4.771-1.967-7.427-46.354-7.427-56.141H211.064c0,9.787-2.828,54.124-7.427,56.141c-4.598,2.017-21.566,5.46-21.566,6.541
		c21.763,0.689,67.256,0.689,85.502,0.689S330.674,567.214,352.068,566.229z"/>
</g>
</svg>
