<?xml version="1.0" encoding="utf-8"?>
<!-- Generator: Adobe Illustrator 16.0.0, SVG Export Plug-In . SVG Version: 6.00 Build 0)  -->
<!DOCTYPE svg PUBLIC "-//W3C//DTD SVG 1.1//EN" "http://www.w3.org/Graphics/SVG/1.1/DTD/svg11.dtd">
<svg version="1.1" id="Layer_1" xmlns="http://www.w3.org/2000/svg" xmlns:xlink="http://www.w3.org/1999/xlink" x="0px" y="0px"
	 width="90.354px" height="90.354px" viewBox="0 0 90.354 90.354" enable-background="new 0 0 90.354 90.354" xml:space="preserve">
<g>
	<path fill="#EE4A50" d="M45.176,0C20.266,0,0,20.267,0,45.177s20.266,45.177,45.176,45.177c24.911,0,45.179-20.267,45.179-45.177
		S70.087,0,45.176,0z M45.176,5c18.025,0,33.315,11.933,38.389,28.312H60.623c-3.569-4.635-9.156-7.64-15.445-7.64
		s-11.876,3.005-15.445,7.64H6.789C11.862,16.933,27.15,5,45.176,5z M59.682,45.177c0,7.997-6.507,14.504-14.504,14.504
		s-14.504-6.507-14.504-14.504s6.507-14.504,14.504-14.504S59.682,37.18,59.682,45.177z M45.176,85.354
		C23.022,85.354,5,67.33,5,45.177c0-2.059,0.157-4.082,0.457-6.059h21.192c-0.626,1.909-0.976,3.942-0.976,6.059
		c0,10.755,8.749,19.504,19.504,19.504s19.504-8.749,19.504-19.504c0-2.116-0.35-4.149-0.976-6.059h21.191
		c0.3,1.977,0.457,4,0.457,6.059C85.354,67.33,67.33,85.354,45.176,85.354z"/>
	<path fill="#EE4A50" d="M63.578,26.817h6.699c1.194,0,2.17-0.977,2.17-2.168v-6.703c0-1.193-0.976-2.17-2.17-2.17h-6.699
		c-1.194,0-2.172,0.977-2.172,2.17v6.703C61.406,25.841,62.384,26.817,63.578,26.817z"/>
	<circle fill="#EE4A50" cx="45.178" cy="45.176" r="6.896"/>
</g>
</svg>
