<?xml version="1.0" encoding="utf-8"?>
<!-- Generator: Adobe Illustrator 21.1.0, SVG Export Plug-In . SVG Version: 6.00 Build 0)  -->
<svg version="1.1" id="Layer_2" xmlns="http://www.w3.org/2000/svg" xmlns:xlink="http://www.w3.org/1999/xlink" x="0px" y="0px"
	 viewBox="0 0 2594.739 3518.883" enable-background="new 0 0 2594.739 3518.883" xml:space="preserve">
<filter  height="300%" id="blurMe" width="300%" x="-100%" y="-100%">
	<feGaussianBlur  in="SourceGraphic" stdDeviation="10"></feGaussianBlur>
</filter>
<g opacity="0.4">
	<g opacity="0.5" filter="url(#blurMe)">
		<path d="M2318.644,3410.249H270.032c-68.388,0-130.793,6.786-130.793,15.155c0,8.371,62.408,15.156,130.793,15.156h2048.612
			c68.39,0,130.796-6.785,130.796-15.156C2449.44,3417.035,2387.034,3410.249,2318.644,3410.249z"/>
	</g>
	<g opacity="0.6" filter="url(#blurMe)">
		<path d="M2352.758,3410.249H235.922c-70.666,0-158.481,6.786-158.481,15.155c0,8.371,87.818,15.156,158.481,15.156h2116.836
			c70.663,0,158.481-6.785,158.481-15.156C2511.239,3417.035,2423.421,3410.249,2352.758,3410.249z"/>
	</g>
</g>
<g id="Base">
	<g>
		<path fill="#F7F7F7" d="M220.516,3431.125c-72.785,0-132-59.215-132-132V141c0-72.785,59.215-132,132-132h2153.707
			c72.785,0,132,59.215,132,132v3158.125c0,72.785-59.215,132-132,132H220.516z"/>
		<path fill="#FFFFFF" d="M2374.223,18c32.854,0,63.742,12.794,86.974,36.026c23.232,23.231,36.026,54.12,36.026,86.974v3158.125
			c0,32.854-12.794,63.742-36.026,86.974c-23.231,23.231-54.119,36.026-86.974,36.026H220.515
			c-32.854,0-63.742-12.795-86.974-36.026s-36.026-54.119-36.026-86.974V141c0-32.854,12.795-63.743,36.026-86.974
			S187.661,18,220.515,18H2374.223 M2374.223,0H220.515c-77.872,0-141,63.128-141,141v3158.125c0,77.872,63.128,141,141,141
			h2153.708c77.871,0,141-63.128,141-141V141C2515.223,63.128,2452.094,0,2374.223,0L2374.223,0z"/>
	</g>
	<g>
		
			<linearGradient id="SVGID_1_" gradientUnits="userSpaceOnUse" x1="1297.369" y1="77.875" x2="1297.369" y2="3518" gradientTransform="matrix(1 0 0 -1 0 3518)">
			<stop  offset="0" style="stop-color:#C2C2C2"/>
			<stop  offset="0.06" style="stop-color:#F2F2F2"/>
			<stop  offset="0.09" style="stop-color:#C9C9C9"/>
			<stop  offset="0.11" style="stop-color:#CECECE"/>
			<stop  offset="0.16" style="stop-color:#AEAEAE"/>
			<stop  offset="0.37" style="stop-color:#BFBFBF"/>
			<stop  offset="0.41" style="stop-color:#C9C9C9"/>
			<stop  offset="0.42" style="stop-color:#E6E6E6"/>
			<stop  offset="0.44" style="stop-color:#ABABAB"/>
			<stop  offset="0.5" style="stop-color:#F2F2F2"/>
			<stop  offset="0.56" style="stop-color:#ABABAB"/>
			<stop  offset="0.57" style="stop-color:#E6E6E6"/>
			<stop  offset="0.59" style="stop-color:#C9C9C9"/>
			<stop  offset="0.62" style="stop-color:#BFBFBF"/>
			<stop  offset="0.87" style="stop-color:#AEAEAE"/>
			<stop  offset="0.9" style="stop-color:#CECECE"/>
			<stop  offset="0.91" style="stop-color:#C9C9C9"/>
			<stop  offset="0.94" style="stop-color:#F2F2F2"/>
			<stop  offset="1" style="stop-color:#C2C2C2"/>
		</linearGradient>
		<path fill="url(#SVGID_1_)" d="M2374.223,16c33.388,0,64.778,13.002,88.388,36.611c23.61,23.61,36.612,55,36.612,88.389v3158.125
			c0,33.389-13.002,64.779-36.612,88.388c-23.609,23.61-54.999,36.612-88.388,36.612H220.515c-33.389,0-64.779-13.002-88.388-36.612
			c-23.609-23.608-36.612-54.999-36.612-88.388V141c0-33.389,13.002-64.779,36.612-88.389C155.736,29.002,187.127,16,220.515,16
			H2374.223 M2374.223,0H220.515c-77.872,0-141,63.128-141,141v3158.125c0,77.872,63.128,141,141,141h2153.708
			c77.871,0,141-63.128,141-141V141C2515.223,63.128,2452.094,0,2374.223,0L2374.223,0z"/>
	</g>
	<g>
		
			<linearGradient id="SVGID_2_" gradientUnits="userSpaceOnUse" x1="-130.2913" y1="370.2773" x2="2725.0291" y2="3225.5977" gradientTransform="matrix(1 0 0 -1 0 3518)">
			<stop  offset="0" style="stop-color:#C2C2C2"/>
			<stop  offset="0.06" style="stop-color:#F2F2F2"/>
			<stop  offset="0.09" style="stop-color:#C9C9C9"/>
			<stop  offset="0.11" style="stop-color:#CECECE"/>
			<stop  offset="0.16" style="stop-color:#AEAEAE"/>
			<stop  offset="0.37" style="stop-color:#BFBFBF"/>
			<stop  offset="0.41" style="stop-color:#C9C9C9"/>
			<stop  offset="0.42" style="stop-color:#E6E6E6"/>
			<stop  offset="0.44" style="stop-color:#ABABAB"/>
			<stop  offset="0.5" style="stop-color:#F2F2F2"/>
			<stop  offset="0.56" style="stop-color:#ABABAB"/>
			<stop  offset="0.57" style="stop-color:#E6E6E6"/>
			<stop  offset="0.59" style="stop-color:#C9C9C9"/>
			<stop  offset="0.62" style="stop-color:#BFBFBF"/>
			<stop  offset="0.87" style="stop-color:#AEAEAE"/>
			<stop  offset="0.9" style="stop-color:#CECECE"/>
			<stop  offset="0.91" style="stop-color:#C9C9C9"/>
			<stop  offset="0.94" style="stop-color:#F2F2F2"/>
			<stop  offset="1" style="stop-color:#C2C2C2"/>
		</linearGradient>
		<path fill="url(#SVGID_2_)" d="M2374.223,16c33.388,0,64.778,13.002,88.388,36.611c23.61,23.61,36.612,55,36.612,88.389v3158.125
			c0,33.389-13.002,64.779-36.612,88.388c-23.609,23.61-54.999,36.612-88.388,36.612H220.515c-33.389,0-64.779-13.002-88.388-36.612
			c-23.609-23.608-36.612-54.999-36.612-88.388V141c0-33.389,13.002-64.779,36.612-88.389C155.736,29.002,187.127,16,220.515,16
			H2374.223 M2374.223,0H220.515c-77.872,0-141,63.128-141,141v3158.125c0,77.872,63.128,141,141,141h2153.708
			c77.871,0,141-63.128,141-141V141C2515.223,63.128,2452.094,0,2374.223,0L2374.223,0z"/>
	</g>
	<g opacity="0.05">
		<path d="M2374.223,1c37.395,0,72.552,14.562,98.994,41.005c26.443,26.442,41.006,61.6,41.006,98.995v3158.125
			c0,37.396-14.562,72.552-41.006,98.995c-26.442,26.442-61.6,41.005-98.994,41.005H220.515c-37.396,0-72.553-14.562-98.995-41.005
			c-26.442-26.442-41.005-61.6-41.005-98.995V141c0-37.396,14.563-72.553,41.005-98.995S183.12,1,220.516,1H2374.223 M2374.223,0
			H220.515c-77.872,0-141,63.128-141,141v3158.125c0,77.872,63.128,141,141,141h2153.708c77.871,0,141-63.128,141-141V141
			C2515.223,63.128,2452.094,0,2374.223,0L2374.223,0z"/>
	</g>
	<g opacity="0.05">
		<path d="M2374.223,2c37.128,0,72.033,14.458,98.287,40.712c26.254,26.254,40.713,61.16,40.713,98.288v3158.125
			c0,37.128-14.459,72.034-40.713,98.287c-26.254,26.254-61.159,40.713-98.287,40.713H220.515
			c-37.128,0-72.034-14.459-98.288-40.713c-26.254-26.253-40.712-61.159-40.712-98.287V141c0-37.128,14.458-72.034,40.712-98.288
			C148.482,16.458,183.388,2,220.516,2H2374.223 M2374.223,0H220.515c-77.872,0-141,63.128-141,141v3158.125
			c0,77.872,63.128,141,141,141h2153.708c77.871,0,141-63.128,141-141V141C2515.223,63.128,2452.094,0,2374.223,0L2374.223,0z"/>
	</g>
</g>
<g id="cam">
	
		<linearGradient id="SVGID_3_" gradientUnits="userSpaceOnUse" x1="1448.3706" y1="6274.0752" x2="1430.3674" y2="6305.2568" gradientTransform="matrix(1 0 0 -1 -142 6448)">
		<stop  offset="0" style="stop-color:#5E5F5F"/>
		<stop  offset="1" style="stop-color:#191A1A"/>
	</linearGradient>
	<circle fill="url(#SVGID_3_)" cx="1297.369" cy="158.334" r="18"/>
	
		<linearGradient id="SVGID_4_" gradientUnits="userSpaceOnUse" x1="1447.3169" y1="6275.8999" x2="1431.4211" y2="6303.4321" gradientTransform="matrix(1 0 0 -1 -142 6448)">
		<stop  offset="0" style="stop-color:#5E5F5F"/>
		<stop  offset="1" style="stop-color:#000000"/>
	</linearGradient>
	<circle fill="url(#SVGID_4_)" cx="1297.369" cy="158.334" r="15.893"/>
	
		<linearGradient id="SVGID_5_" gradientUnits="userSpaceOnUse" x1="1443.2339" y1="6279.0474" x2="1435.5042" y2="6300.2847" gradientTransform="matrix(1 0 0 -1 -142 6448)">
		<stop  offset="0" style="stop-color:#202F4D"/>
		<stop  offset="1" style="stop-color:#344C7B"/>
	</linearGradient>
	
		<linearGradient id="SVGID_6_" gradientUnits="userSpaceOnUse" x1="1445.2684" y1="6279.4478" x2="1433.4696" y2="6299.8843" gradientTransform="matrix(1 0 0 -1 -142 6448)">
		<stop  offset="0" style="stop-color:#5E5F5F"/>
		<stop  offset="1" style="stop-color:#000000"/>
	</linearGradient>
	<circle fill="url(#SVGID_5_)" stroke="url(#SVGID_6_)" stroke-miterlimit="10" cx="1297.369" cy="158.334" r="11.297"/>
	
		<radialGradient id="SVGID_7_" cx="1439.9451" cy="6289.0908" r="6.7" gradientTransform="matrix(1 0 0 -1 -142 6448)" gradientUnits="userSpaceOnUse">
		<stop  offset="0" style="stop-color:#000000;stop-opacity:0.8"/>
		<stop  offset="1" style="stop-color:#111929;stop-opacity:0"/>
	</radialGradient>
	<circle fill="url(#SVGID_7_)" cx="1297.945" cy="158.909" r="6.7"/>
</g>
<g id="home">
	<circle fill="#F4F5F7" stroke="#F7F7F7" stroke-width="10" stroke-miterlimit="10" cx="1297.369" cy="3291.125" r="70"/>
	<g opacity="0.9">
		
			<linearGradient id="SVGID_8_" gradientUnits="userSpaceOnUse" x1="1439.369" y1="3231.875" x2="1439.369" y2="3081.875" gradientTransform="matrix(1 0 0 -1 -142 6448)">
			<stop  offset="0" style="stop-color:#000000;stop-opacity:0.3"/>
			<stop  offset="0.69" style="stop-color:#111929;stop-opacity:0"/>
		</linearGradient>
		<circle fill="none" stroke="url(#SVGID_8_)" stroke-width="10" stroke-miterlimit="10" cx="1297.369" cy="3291.125" r="70"/>
		
			<linearGradient id="SVGID_9_" gradientUnits="userSpaceOnUse" x1="1401.863" y1="3221.8369" x2="1476.875" y2="3091.9131" gradientTransform="matrix(1 0 0 -1 -142 6448)">
			<stop  offset="0" style="stop-color:#000000;stop-opacity:0.8"/>
			<stop  offset="0.4225" style="stop-color:#111929;stop-opacity:0"/>
		</linearGradient>
		<circle fill="none" stroke="url(#SVGID_9_)" stroke-width="10" stroke-miterlimit="10" cx="1297.369" cy="3291.125" r="70"/>
		
			<linearGradient id="SVGID_10_" gradientUnits="userSpaceOnUse" x1="1514.369" y1="3156.875" x2="1364.369" y2="3156.875" gradientTransform="matrix(1 0 0 -1 -142 6448)">
			<stop  offset="0.1" style="stop-color:#000000;stop-opacity:0"/>
			<stop  offset="0.5193" style="stop-color:#000000;stop-opacity:0.8"/>
			<stop  offset="0.9" style="stop-color:#111929;stop-opacity:0"/>
		</linearGradient>
		<circle fill="none" stroke="url(#SVGID_10_)" stroke-width="10" stroke-miterlimit="10" cx="1297.369" cy="3291.125" r="70"/>
	</g>
</g>
</svg>
