<svg xmlns="http://www.w3.org/2000/svg" viewBox="0 0 95 95">
  <defs/>
  <path d="M47.6 94.7c-17.3 0-33.1-9.3-41.4-24.4-2.7-5-4.5-10.3-5.3-15.9-2.8-19.5 6.8-38.9 23.9-48.3 5-2.7 10.4-4.5 15.9-5.3 2.2-.3 4.5-.5 6.8-.5 17.3 0 33.1 9.4 41.4 24.4 2.7 5 4.5 10.3 5.3 15.9 2.8 19.4-6.8 38.8-24 48.2-4.9 2.7-10.3 4.5-15.9 5.3-2.2.5-4.5.6-6.7.6zm-.1-89.9c-2.1 0-4.1.1-6.1.4-5 .7-9.8 2.3-14.4 4.8C11.4 18.6 2.7 36.1 5.2 53.8c.7 5 2.4 9.9 4.8 14.4 7.5 13.7 21.9 22.1 37.5 22.1 2 0 4.1-.1 6.1-.4 5.1-.7 9.9-2.4 14.4-4.8C83.5 76.6 92.3 59 89.7 41.4c-.7-5-2.4-9.9-4.8-14.4C77.5 13.2 63.1 4.7 47.5 4.8zm-3.6 57.7c-2.2-4-5.4-6.6-8.1-6.6h-.5c-.5.1-.9.2-1.2.4-1.7 1-2.4 3.2-2 6.1.3 1.8.9 3.7 1.9 5.5 2.2 4 5.4 6.6 8.1 6.6h.5c.4-.1.8-.2 1.2-.4 1.7-.9 2.4-3.2 2-6.1-.2-1.9-.9-3.8-1.9-5.5zm30-10c-.3-1.8-.9-3.7-1.9-5.5-2.2-4-5.4-6.5-8.1-6.5h-.5c-.4 0-.8.2-1.2.4-1.7.9-2.4 3.2-2 6.1.3 1.8.9 3.6 1.9 5.5 2.2 4 5.4 6.5 8.1 6.5h.6c.4-.1.8-.2 1.2-.4 1.6-1 2.3-3.2 1.9-6.1zm3.2-27.6c-.3-.3-.6-.4-1-.4h-.3c-1.1.2-2.4 1.1-3.4 1.9-2.9-3.3-10.4-10.5-22.1-10.5-1.4 0-2.8.1-4.3.3-4.3.6-8.7 2.2-13.2 4.7C15 30.7 14.2 45 15.3 52.6c.2 1.6.6 3.1 1 4.6-.9.3-1.7.7-2.4 1-.8.5-1.5 1-1.4 1.9v.2c.5 1 1.5 1.1 2.3 1.1.5 0 1.1-.1 1.7-.1h.1c.5-.1 1-.2 1.7-.4 1.3-.3 2.4-.7 3.3-1.3.7-.4 1.6-1 1.5-2l-.1-.2c-.4-1-1.5-1.1-2.3-1.1-.5 0-1.1.1-1.7.1l-.6.1h-.3c-.7-6.4-.2-21.4 17.4-31 4.1-2.3 8.3-3.7 12.4-4.3 1.5-.2 2.9-.3 4.4-.3 9.3 0 16 4.5 18.7 6.6-1.5 1.7-2.2 2.9-2.2 3.9 0 .2.1.5.3.6.3.3.8.4 1.3.4 1.1-.2 2.5-1.1 4.2-2.6 2-2 2.9-3.4 2.8-4.6 0 0-.1-.2-.3-.3z"/>
</svg>
