<?xml version="1.0" encoding="utf-8"?>
<!-- Generator: Adobe Illustrator 16.0.0, SVG Export Plug-In . SVG Version: 6.00 Build 0)  -->
<!DOCTYPE svg PUBLIC "-//W3C//DTD SVG 1.1//EN" "http://www.w3.org/Graphics/SVG/1.1/DTD/svg11.dtd">
<svg version="1.1" id="Layer_1" xmlns="http://www.w3.org/2000/svg" xmlns:xlink="http://www.w3.org/1999/xlink" x="0px" y="0px"
	 width="76px" height="69.49px" viewBox="0 0 76 69.49" enable-background="new 0 0 76 69.49" xml:space="preserve">
<path fill="#FFFFFF" d="M32.589,54.558H0.817v-1.823h31.772V54.558z M43.462,54.558h31.772v-1.823H43.462V54.558z M13.426,11.511
	c1.176-0.979,1.763-2.657,1.763-5.026c0-2.171-0.59-3.772-1.772-4.808c-1.181-1.036-2.766-1.553-4.754-1.553H0.042v20.078h4.168
	v-7.219h4.18C10.573,12.982,12.25,12.49,13.426,11.511 M10.224,4.277c0.532,0.445,0.798,1.19,0.798,2.235
	c0,1.045-0.266,1.808-0.798,2.287c-0.53,0.483-1.275,0.723-2.232,0.723H4.211V3.61h3.781C8.949,3.61,9.694,3.832,10.224,4.277
	 M17.102,5.354v8.949c0,1.699,0.212,2.983,0.638,3.855c0.76,1.582,2.237,2.37,4.428,2.37c0.761,0,1.424-0.099,1.99-0.3
	c0.565-0.2,1.152-0.571,1.759-1.116c0.199-0.172,0.372-0.373,0.517-0.601c0.144-0.226,0.235-0.361,0.271-0.407v2.098h3.772V5.354
	h-3.936v8.078c0,0.953-0.127,1.72-0.38,2.302c-0.487,1.071-1.392,1.608-2.71,1.608c-1.029,0-1.721-0.379-2.074-1.131
	c-0.199-0.427-0.299-1.062-0.299-1.908V5.354H17.102z M45.805,7.137c-1.109-1.408-2.649-2.111-4.612-2.111
	c-1.088,0-1.984,0.227-2.687,0.682c-0.595,0.364-1.14,0.889-1.631,1.579V0.149h-3.883v20.052h3.828v-1.868
	c0.521,0.728,1.004,1.236,1.452,1.527c0.747,0.49,1.738,0.736,2.972,0.736c1.961,0,3.49-0.758,4.585-2.274
	c1.096-1.516,1.645-3.428,1.645-5.733C47.472,10.363,46.916,8.545,45.805,7.137 M42.56,16.182c-0.557,0.811-1.341,1.212-2.349,1.212
	c-1.162,0-2.028-0.418-2.595-1.253c-0.568-0.834-0.852-1.888-0.852-3.159c0-1.083,0.137-1.963,0.412-2.644
	c0.53-1.281,1.507-1.921,2.926-1.921c1.4,0,2.361,0.654,2.883,1.963c0.275,0.69,0.413,1.561,0.413,2.614
	C43.399,14.312,43.119,15.375,42.56,16.182 M53.501,0.123h-3.883v20.078h3.883V0.123z M60.292,0h-3.936v3.583h3.936V0z
	 M56.357,20.202h3.936V5.354h-3.936V20.202z M76,10.681c-0.218-2.117-0.921-3.593-2.105-4.428C72.707,5.417,71.182,5,69.319,5
	c-2.191,0-3.909,0.708-5.155,2.125c-1.244,1.417-1.867,3.397-1.867,5.947c0,2.255,0.563,4.091,1.691,5.507
	c1.127,1.418,3.085,2.127,5.477,2.127s3.995-0.849,5.212-2.548c0.765-1.053,1.191-2.169,1.282-3.35h-3.963
	c-0.082,0.781-0.313,1.417-0.696,1.906c-0.382,0.488-1.03,0.736-1.939,0.736c-1.283,0-2.157-0.618-2.622-1.853
	c-0.255-0.662-0.382-1.536-0.382-2.623c0-1.141,0.127-2.055,0.382-2.744c0.481-1.298,1.38-1.947,2.69-1.947
	c0.919,0,1.598,0.299,2.034,0.898c0.301,0.446,0.487,0.945,0.56,1.5H76z M0,23.34l5.547,19.565h3.795l2.363-11.442l0.691-3.784
	l0.689,3.784l2.364,11.442h3.914l5.503-19.565h-4.162l-2.609,11.322l-0.603,2.998l-0.595-3.118L14.573,23.34h-4.313L8.05,34.606
	L7.486,37.66l-0.563-3.118L4.339,23.34H0z M36.406,30.282c1.222,1.529,1.832,3.337,1.832,5.422c0,2.124-0.61,3.938-1.832,5.444
	c-1.221,1.509-3.074,2.261-5.561,2.261c-2.486,0-4.34-0.752-5.561-2.261c-1.221-1.506-1.831-3.32-1.831-5.444
	c0-2.085,0.61-3.894,1.831-5.422c1.221-1.531,3.075-2.295,5.561-2.295C33.332,27.987,35.185,28.751,36.406,30.282 M33.38,39.058
	c0.593-0.784,0.89-1.903,0.89-3.354c0-1.448-0.297-2.562-0.89-3.346c-0.593-0.78-1.442-1.172-2.549-1.172
	c-1.105,0-1.958,0.392-2.553,1.172c-0.598,0.784-0.897,1.898-0.897,3.346c0,1.45,0.299,2.569,0.897,3.354
	c0.595,0.787,1.448,1.18,2.553,1.18C31.938,40.238,32.787,39.845,33.38,39.058 M47.833,28.115c-0.048-0.006-0.107-0.007-0.18-0.007
	c-1.132,0-2.053,0.295-2.76,0.887c-0.434,0.355-0.942,1.014-1.525,1.98v-2.521h-3.61v14.464h3.809v-6.914
	c0-1.159,0.146-2.018,0.438-2.575c0.521-0.99,1.544-1.488,3.066-1.488c0.115,0,0.265,0.006,0.451,0.015
	c0.187,0.009,0.398,0.026,0.637,0.053v-3.875C47.991,28.125,47.882,28.119,47.833,28.115 M49.747,42.918h3.716v-4.552l1.566-1.629
	l3.506,6.181h4.604l-5.386-9.01l5.185-5.39h-4.703l-4.771,5.457V23.422h-3.716V42.918z M62.748,38.298
	c0,1.489,0.544,2.713,1.629,3.671c1.087,0.959,2.769,1.44,5.048,1.44c2.232,0,3.885-0.454,4.952-1.359
	c1.069-0.908,1.604-2.076,1.604-3.512c0-1.089-0.372-1.994-1.115-2.721c-0.752-0.717-1.882-1.25-3.389-1.605
	c-2.26-0.494-3.576-0.846-3.948-1.048c-0.373-0.195-0.561-0.509-0.561-0.942c0-0.346,0.177-0.646,0.526-0.903
	c0.35-0.256,0.939-0.384,1.765-0.384c1.001,0,1.711,0.256,2.129,0.77c0.222,0.283,0.359,0.667,0.411,1.154h3.784
	c-0.169-1.77-0.823-3.015-1.963-3.736c-1.14-0.721-2.612-1.081-4.423-1.081c-1.906,0-3.385,0.479-4.436,1.438
	s-1.576,2.108-1.576,3.444c0,1.134,0.336,2.001,1.009,2.603c0.673,0.609,1.831,1.118,3.475,1.525
	c2.283,0.54,3.604,0.922,3.957,1.142c0.354,0.22,0.532,0.546,0.532,0.969c0,0.443-0.221,0.775-0.66,0.995
	c-0.441,0.222-1.035,0.332-1.781,0.332c-1.271,0-2.142-0.252-2.613-0.757c-0.268-0.28-0.44-0.761-0.519-1.435H62.748z M4.645,65.041
	c-0.017-0.347-0.042-0.761-0.405-1.207c-0.397-0.472-1.05-0.695-1.654-0.695c-1.025,0-2.142,0.653-2.142,1.803
	c0,1.15,1.067,1.58,1.497,1.753c0.943,0.397,1.199,0.497,1.199,0.902c0,0.28-0.223,0.587-0.595,0.587
	c-0.198,0-0.637-0.124-0.637-0.836H0.353v0.199c0,0.785,0.438,1.943,2.208,1.943c1.621,0,2.133-0.985,2.133-1.877
	c0-0.712-0.29-1.241-1.43-1.754c-1.1-0.495-1.266-0.57-1.266-0.935c0-0.288,0.265-0.479,0.538-0.479
	c0.479,0,0.529,0.389,0.562,0.596H4.645z M9.276,63.138c-1.711,0-2.663,1.149-2.985,1.943c-0.183,0.446-0.24,0.902-0.24,1.307
	c0,1.571,1.29,3.102,3.216,3.102c1.902,0,3.242-1.473,3.242-3.176C12.509,64.61,11.161,63.138,9.276,63.138 M9.301,68.118
	c-1.05,0-1.688-0.877-1.688-1.82c0-0.859,0.587-1.786,1.671-1.786c1.125,0,1.662,1.017,1.662,1.811
	C10.946,67.108,10.409,68.118,9.301,68.118 M14.215,69.374h1.438l-0.05-4.581l0.017-0.016l1.306,4.597h1.034l1.307-4.597
	l0.016,0.016l-0.049,4.581h1.439v-6.119h-2.018l-1.2,4.027H17.44l-1.215-4.027h-2.009V69.374z M22.681,69.374h3.399v-1.372h-1.902
	v-1.051h1.845v-1.373h-1.845v-0.95h1.902v-1.373h-3.399V69.374z M30.858,63.138c-1.711,0-2.663,1.149-2.985,1.943
	c-0.182,0.446-0.24,0.902-0.24,1.307c0,1.571,1.29,3.102,3.216,3.102c1.902,0,3.242-1.473,3.242-3.176
	C34.092,64.61,32.744,63.138,30.858,63.138 M30.883,68.118c-1.05,0-1.687-0.877-1.687-1.82c0-0.859,0.587-1.786,1.67-1.786
	c1.125,0,1.662,1.017,1.662,1.811C32.529,67.108,31.992,68.118,30.883,68.118 M35.756,69.375h2.143c2.323,0,3.15-1.406,3.15-3.077
	c0-0.67-0.141-1.323-0.562-1.902c-0.794-1.141-2.018-1.141-2.704-1.141h-2.026V69.375z M37.319,64.627h0.678
	c0.695,0,1.009,0.289,1.191,0.562c0.223,0.348,0.297,0.786,0.297,1.133c0,0.868-0.33,1.68-1.497,1.68h-0.67V64.627z M42.766,69.375
	h2.142c2.324,0,3.151-1.406,3.151-3.077c0-0.67-0.141-1.323-0.562-1.902c-0.794-1.141-2.018-1.141-2.704-1.141h-2.026V69.375z
	 M44.33,64.627h0.678c0.694,0,1.009,0.289,1.19,0.562c0.224,0.348,0.298,0.786,0.298,1.133c0,0.868-0.33,1.68-1.496,1.68h-0.67
	V64.627z M49.816,69.374h1.498v-1.918h0.678c0.951,0,1.364-0.174,1.786-0.529c0.389-0.33,0.646-0.984,0.646-1.604
	s-0.24-1.224-0.72-1.621c-0.332-0.272-0.753-0.446-1.886-0.446h-2.002V69.374z M51.314,64.627h0.578c0.339,0,1.034,0,1.034,0.719
	c0,0.736-0.679,0.736-0.977,0.736h-0.636V64.627z M55.91,69.374h1.563v-6.119H55.91V69.374z M59.479,69.374h3.375v-1.372h-1.812
	v-4.747h-1.563V69.374z M67.136,63.138c-1.711,0-2.662,1.149-2.985,1.943c-0.182,0.446-0.239,0.902-0.239,1.307
	c0,1.571,1.29,3.102,3.216,3.102c1.902,0,3.242-1.473,3.242-3.176C70.37,64.61,69.022,63.138,67.136,63.138 M67.162,68.118
	c-1.051,0-1.688-0.877-1.688-1.82c0-0.859,0.588-1.786,1.671-1.786c1.124,0,1.662,1.017,1.662,1.811
	C68.807,67.108,68.269,68.118,67.162,68.118 M72.666,69.374h1.563v-4.746h1.198v-1.373h-3.969v1.373h1.207V69.374z M41.5,51.461
	l-1.289-1.289l-2.185,2.185l-2.186-2.185l-1.29,1.289l2.186,2.185l-2.186,2.187l1.29,1.289l2.186-2.186l2.185,2.186l1.289-1.289
	l-2.186-2.187L41.5,51.461z"/>
</svg>
