<?xml version="1.0" encoding="utf-8"?>
<!-- Generator: Adobe Illustrator 16.0.4, SVG Export Plug-In . SVG Version: 6.00 Build 0)  -->
<!DOCTYPE svg PUBLIC "-//W3C//DTD SVG 1.1//EN" "http://www.w3.org/Graphics/SVG/1.1/DTD/svg11.dtd">
<svg version="1.1" id="Layer_1" xmlns="http://www.w3.org/2000/svg" xmlns:xlink="http://www.w3.org/1999/xlink" x="0px" y="0px"
	 width="86.945px" height="86.945px" viewBox="0 0 86.945 86.945" enable-background="new 0 0 86.945 86.945" xml:space="preserve">
<rect y="0" width="86.945" height="86.945"/>
<path fill="#FFFFFF" d="M54.111,69.476c0.95-2.514,1.869-6.347,0.481-9.757c-1.392-3.417-2.242-5.318-2.763-6.385
	c-1.583-2.691-3.439-5.247-5.298-7.703l-0.143-0.186c-4.079-5.313-8.296-10.817-8.901-17.713c0.276-2.978,3.32-5.347,5.764-7.257
	c0.054-0.057,0.216-0.206,0.216-0.206c1.73-0.534,3.423-0.333,4.484,0.635c1.054,2.015,1.632,4.576,1.632,7.475
	c0,3.178-0.677,6.126-1.238,8.038l-0.076,0.278v0.162l-0.217,1.277l-0.108,0.489c0.007-0.033-0.446,2.625-0.446,2.625
	c0,1.621,0.772,2.864,2.202,3.583l0.052,0.029l0.236,0.093c1.966,0.485,4.288,0.069,5.749-1.027c0,0,0.032-0.028,0.06-0.049
	c0.094-0.146,0.35-0.539,1.012-1.542c1.453-2.203,1.184-10.996,1.184-10.996c0.114-1.216,0.185-2.352,0.185-3.412
	c0-3.621-0.674-6.776-2.043-9.627c-2.042-4.087-7.093-6.594-12.279-6.1c-6.083,1.464-11.648,5.781-14.388,11.044l-0.033,0.063
	l-0.07,0.164l-0.024,0.104c-0.37,1.533-0.571,3.141-0.571,4.744c0,8.522,5.499,16.054,10.658,22.448
	c-0.049-0.099,1.367,1.91,1.367,1.91c2.127,2.938,4.218,5.993,4.724,9.322c-1.166-1.294-2.438-2.829-3.406-4.66
	c0.006,0.004-0.204-0.43-0.204-0.43l-0.119-0.234l-0.733-0.089c-1.613-0.168-5.514-0.24-7.262,2.609l-0.049,0.074l-0.097,0.219
	L33.608,59.7c-0.729,3.374,1.627,5.641,3.534,7.453c0.043,0.039,2.112,2.211,2.112,2.211l0.061,0.06l0.185,0.243l0.115,0.064
	c-0.059-0.044,1.725,1.805,1.725,1.805l0.29,0.348c0.895,1.266,1.945,2.588,3.683,3.371l0.219,0.101l0.615,0.091
	c1.361,0.196,2.906,0.421,4.277-0.377l0.026-0.015l0.136-0.104c1.899-1.516,2.777-3.578,3.489-5.509
	C54.086,69.454,54.099,69.465,54.111,69.476z"/>
</svg>
