<?xml version="1.0" encoding="utf-8"?>
<!DOCTYPE svg PUBLIC "-//W3C//DTD SVG 1.1//EN" "http://www.w3.org/Graphics/SVG/1.1/DTD/svg11.dtd">
<svg version="1.1" id="Layer_1" xmlns="http://www.w3.org/2000/svg" xmlns:xlink="http://www.w3.org/1999/xlink" x="0px" y="0px"
   width="253.409px" height="86.945px" viewBox="0 0 253.409 86.945" enable-background="new 0 0 253.409 86.945"
   xml:space="preserve">
<g>
  <g>
    <path d="M253.239,27.229l-0.072-0.333l-0.061-0.333c-0.114-0.777-0.286-1.976-1.562-2.56c-0.147-0.078-0.238-0.094-0.238-0.094
      c-2.867-0.625-5.6,0.053-8.232,0.714c-2.424,0.612-5.149,1.3-7.913,0.741c-0.159-0.021-2.074-0.054-2.074-0.054
      c-4.163-0.125-8.474-0.262-12.258-1.439c-1.718-0.677-3.572-0.317-5.473,1.057l-0.029,0.032l-0.141,0.124l-0.08,0.083
      c-0.498,0.73-0.729,1.486-0.729,2.289c0,0,0.054,0.397,0.11,0.713c-0.421,0.17-1.091,0.428-1.091,0.428
      c-0.088,0.047-0.844,0.362-0.844,0.362l-0.572,0.021c0,0-5.255,7.899-5.396,8.114c-0.236,0.083-6.867,2.294-6.867,2.294
      c-0.076,0.034-1.454,0.897-1.722,1.062c0.191-0.782,0.4-1.701,0.4-1.701c0.547-2.268,1.172-4.838,1.172-7.458l-0.036-0.667
      l-0.023-0.337l-0.032-0.164c-0.473-2.364-2.715-2.385-3.929-2.403c-0.004,0-0.345-0.01-0.579-0.032
      c-0.319-1.783-1.006-3.383-1.652-4.785c-0.013-0.013-0.285-0.565-0.285-0.565c-3.231-5.39-9.731-8.487-17.408-8.355
      c-7.662,0.403-12.972,7.413-15.194,13.294c-0.756,1.548-1.427,3.174-2.04,4.845c-0.034-0.097-0.061-0.196-0.109-0.29l-0.007-0.013
      l-0.004-0.06c-1.085-2.09-7.733-9.235-15.457-6.688c-4.531,1.497-4.733,3.504-5.996,6.846l-0.099,0.157
      c0,0.006-0.031,0.053-0.043,0.07c-1.442-2.149-3.183-2.961-5.386-4.192c-1.75-0.661-9.198-2.169-13.038,0.778
      c-2.671,2.061-3.236,6.485-4.063,12.092c0.526-3.569-2.219-6.415-5.043-8.771l-0.169-0.14l-0.082-0.036
      c-1.274-0.61-2.908-0.933-4.338-0.849l-0.116,0.013l-0.264,0.077l-0.11,0.082c-2.134,1.069-3.428,2.648-3.674,4.534
      c-0.257,0.564-0.294,1.228-0.294,1.739v1.2c0,0.724-0.066,1.033-0.418,1.319L99.6,40.05l-0.152,0.21l-1.13,2.562
      c-1.885,4.084-4.246,9.178-4.246,14.11v0.156c-0.64-0.036-2.785-0.148-2.785-0.148l-0.137,0.045
      c-3.825,0.833-4.774,4.046-5.53,6.627c-0.004,0.009-0.449,1.25-0.689,1.925c-3.89-1.785-6.198-5.545-6.902-11.177
      c0.859,0.219,3.403,0.875,3.403,0.875c2.105,0.655,4.255,1.323,6.503,1.229h0.045l0.17-0.024c1.765-0.436,2.979-1.64,3.314-3.312
      c0-0.004,0.03-0.183,0.03-0.183c0-0.136-0.026-0.341-0.026-0.341c-0.023-0.056-1.493-5.574-1.493-5.574l-0.166-0.672
      l-2.714-10.076c-0.005-0.008-0.104-0.354-0.104-0.354c-0.751-2.575-1.521-5.238-2.819-7.667c-0.741-1.632-2.638-2.875-4.597-2.998
      c-1.718-0.142-3.247,0.562-4.192,1.943c-2.948,5.313-4.814,11.171-5.489,17.043c-0.429,0.071-1.129,0.196-1.277,0.227
      c-0.109-0.731-0.635-4.26-0.635-4.26c0-0.011-0.06-0.492-0.06-0.492c-0.265-1.934-0.526-3.933-1.017-5.904
      c-0.042-0.155-0.3-0.889-0.3-0.889c-0.34-1.146-0.973-3.333-3.258-3.612c-1.905-0.646-3.988,0.101-5.097,1.875l-0.116,0.18
      l-0.048,0.127c-0.402,1.721-1.029,3.417-1.668,5.023c-0.229-1.984-0.531-4.005-1.235-5.957l-0.008-0.03l-0.084-0.162
      c-1.037-1.835-3.351-2.28-5.044-1.931l-0.176,0.057c-1.914,0.721-2.58,2.201-3.159,3.509c0,0.004-0.17,0.343-0.298,0.599
      c-0.346-0.09-1.106-0.249-1.106-0.249c-1.454,0.225-2.479,0.575-3.499,1.768c-0.588,0.601-0.906,1.301-0.906,2.07
      c0,0.825,0.322,1.603,0.625,2.266c0.011,0.037,0.092,0.215,0.092,0.215c0.17,1.153,0.254,2.455,0.254,4.028
      c0,2.392-0.264,4.832-0.599,7.441c-0.406-3.609-1.452-7.316-3.065-10.668l-0.094-0.166l-0.949-1.135
      c-1.92-2.28-4.289-5.094-8.228-3.983l-0.161,0.06c-1.916,0.917-3.394,2.338-4.463,4.192c0.094-1.012,0.154-1.957,0.154-2.839
      c0-3.013-0.561-5.638-1.701-8.01c-1.699-3.4-5.902-5.486-10.216-5.075c-5.062,1.218-9.692,4.81-11.971,9.189l-0.028,0.052
      l-0.058,0.137l-0.02,0.087C0.167,33.264,0,34.602,0,35.936c0,7.091,4.575,13.358,8.867,18.677
      c-0.041-0.082,1.138,1.589,1.138,1.589c1.77,2.445,3.509,4.986,3.93,7.757c-0.97-1.077-2.029-2.355-2.834-3.878
      c0.005,0.004-0.17-0.358-0.17-0.358l-0.099-0.194l-0.61-0.074c-1.342-0.14-4.587-0.2-6.042,2.171l-0.041,0.061l-0.08,0.183
      l-0.032,0.174c-0.607,2.806,1.354,4.692,2.94,6.201c0.036,0.032,1.757,1.839,1.757,1.839l0.051,0.05l0.153,0.202l0.096,0.053
      c-0.049-0.036,1.435,1.502,1.435,1.502l0.241,0.289c0.745,1.053,1.619,2.154,3.064,2.805l0.183,0.084l0.511,0.075
      c1.134,0.163,2.418,0.351,3.559-0.313l0.021-0.013l0.114-0.086c1.58-1.261,2.311-2.976,2.903-4.583
      c1.656,1.742,3.975,2.676,6.375,2.448c3.713,0.121,6.234-2.024,8.401-4.359c1.881-1.921,3.251-4.171,4.197-6.677
      c-0.028,0.64-0.06,1.288-0.06,1.89c0,1.68,0.109,3.333,0.317,4.907l0.007,0.056l0.068,0.14l0.052,0.118
      c0.784,1.764,2.422,2.015,3.748,2.207c0.075,0.017,1.023,0.121,1.023,0.121l0.361-0.279c-0.049,0.037,0.58-0.272,0.58-0.272
      c0.737-0.263,1.774-0.617,2.191-1.851c-0.036,0.085,0.05-0.062,0.05-0.062l0.06-0.103l-0.011-0.294l-0.075-4.372
      c0-5.02,0.365-9.39,1.069-13.329c0.41,3.806,1.529,14.313,1.529,14.313c0.045,0.148,1.441,2.754,1.441,2.754l0.129,0.24
      l0.722-0.06c-0.022,0.004,1.022,0.154,1.022,0.154c0.706,0.191,1.89,0.491,3.135-0.249c0.084-0.05,0.459-0.29,0.459-0.29
      c0.578-0.365,1.405-0.898,1.619-1.998l0.011-0.04l0.017-0.138l-0.017-1.184c0-4.39,0.808-8.76,1.634-13.016
      c0.855,4.892,1.834,9.856,4.188,14.229c0.756,2.137,3.07,1.759,4.184,1.567c0.082-0.019,0.833-0.09,0.833-0.09
      c0.047,0.006,0.285,0.032,0.285,0.032l0.127,0.011l0.339-0.215c0.844-0.516,1.37-1.336,1.699-2.261
      c0.586,0.955,1.89,3.079,1.89,3.079c2.241,2.713,8.035,8.554,15.103,6.578c2.613-0.507,2.809-2.738,2.929-4.074l0.045-0.412
      l0.144-0.896l0.053-0.17v-0.088c0.142-1.168,0.718-2.242,1.508-3.632c0.006-0.015,0.219-0.396,0.219-0.396s0.4-0.828,0.713-1.504
      c0.545,1.116,1.186,2.164,2.019,3.116c2.786,2.769,6.984,2.65,9.993,1.621c0.155-0.029,0.243-0.081,0.243-0.081
      c3.433-2.227,5.846-5.539,7.175-9.557c0.026,0.243,0.042,0.488,0.05,0.737c0.055,1.43,0.12,3.195,1.737,4.458
      c-0.018-0.015,0.126,0.114,0.126,0.114l0.092,0.09l0.374,0.047c0.862,0.062,1.042,0.398,1.454,1.823
      c0.385,1.332,0.888,3.059,2.94,3.725c0.971,0.195,3.144,0.494,4.684-0.473c0.131-0.088,0.215-0.152,0.215-0.152
      c0.064-0.062,2.073-2.16,2.073-2.16l0.271-0.267c0,0,2.369-2.466,2.942-3.054c0.746-0.023,1.53,0.507,2.539,1.245l1.976,1.218
      c6.148,2.307,10.748-0.205,15.23-4.37c1.891-1.757,2.395-2.487,2.906-3.17c0.061,6.338,1.026,10.886,2.579,16.955
      c0.004,0.018,2.779,9.901,2.779,9.901L160,85.326l0.082,0.182l0.038,0.052c0.847,1.433,2.391,1.268,3.32,1.164
      c0.091-0.004,1.111,0,1.111,0l0.599,0.222l0.855-0.702c0.859-0.664,2.173-1.687,2.173-3.368l-0.073-0.356
      c-0.492-2.742-0.596-6.288-0.7-9.419l-0.034-1.739v-5.958c0-3.892,0.094-8.008,0.685-11.859c0.226-0.071,1.169-0.389,1.169-0.389
      c2.409-0.777,4.877-1.615,7.224-2.699c0.013,0.099,0.013,0.233,0.013,0.233l-0.038,1.972l-0.023,1.237
      c0,1.22,0.099,2.133,0.324,2.983c0.17,2.647,0.416,6.308,3.993,7.371l0.074,0.021l0.234,0.021l0.986-0.113
      c0.975-0.044,2.22-0.091,3.444-1.386c0.554-0.729,0.779-1.43,0.779-2.187l-0.191-1.277L186,59.132l-0.159-0.892l-0.09-0.191
      c-0.629-1.123-0.93-2.661-0.93-4.716l0.335-4.604c0,0.011,0.03-0.217,0.03-0.217l0.006-0.047l-0.043-0.24l-0.054-0.647
      c0-1.767,1.525-3.023,3.299-4.464c0,0,0.111-0.09,0.189-0.156c-0.735,3-1.39,5.966-1.39,9.175l0.045,1.422l0.032,0.194
      l0.061,0.138c0.797,1.849,2.502,2.807,4.802,2.673c1.3-0.101,2.5-0.717,3.288-1.688l0.066-0.07l0.099-0.176l0.021-0.084
      c2.163-4.355,5.509-7.515,9.188-8.751c0.229,1.92,0.709,3.81,1.481,5.62c1.431,2.751,4.216,4.801,7.156,5.294
      c4.753,0.371,9.207-1.462,12.041-4.933c2.183-2.296,3.289-5.356,3.289-9.061c0-2.953-0.701-6.31-2.049-10.164
      c0.889,0.036,4.903,0.191,4.903,0.191s5.287,0.152,6.928,0.202c-0.741,3.683-1.725,7.354-2.693,10.81
      c-1.776,6.403-3.29,12.206-3.84,18.372l-0.025,0.274l0.04,0.122c-0.004-0.006,0.014,0.29,0.014,0.29l-0.073,0.91
      c0,0.012-0.025,0.374-0.025,0.374l-0.071,0.851c0,1.538,0.631,2.513,1.935,2.975c0.032,0.011,0.646,0.174,0.646,0.174l0.455-0.401
      l1.119-0.652c1.081-0.569,2.444-1.289,2.764-2.971c2.15-11.515,5.394-22.687,8.277-32.284c0.292-0.08,1.516-0.397,1.516-0.397
      c1.644-0.31,4.147-0.777,4.717-3.41c-0.005,0.03,0.071-0.232,0.071-0.232l0.038-0.149
      C253.409,27.592,253.25,27.253,253.239,27.229z M20.989,54.17c0,0-0.892,2.388-1.291,3.444c-1.412-2.563-3.172-4.969-4.919-7.275
      l-0.12-0.155c-3.393-4.421-6.902-9-7.405-14.738c0.23-2.477,2.762-4.448,4.796-6.038c0.045-0.047,0.18-0.171,0.18-0.171
      c1.439-0.444,2.848-0.277,3.73,0.528c0.878,1.677,1.359,3.808,1.359,6.22c0,2.644-0.564,5.097-1.03,6.688l-0.064,0.231v0.135
      l-0.18,1.062l-0.09,0.408c0.006-0.028-0.371,2.183-0.371,2.183c0,1.349,0.642,2.383,1.832,2.982l0.042,0.024l0.197,0.077
      c1.635,0.404,3.567,0.058,4.783-0.854c0,0,0.034-0.033,0.06-0.05c0.024,0.258,0.045,0.684,0.045,0.684s0.039,0.559,0.05,0.654
      C22.498,50.423,20.989,54.17,20.989,54.17z M28.44,64.88c-0.169,0.117-0.61,0.398-0.979,0.481
      c-0.498-0.695-0.779-1.514-0.779-2.538c0-1.108,0.249-2.403,0.779-4.078c1.051-2.74,2.668-6.761,5.693-8.174
      c0.166,0.935,0.306,1.86,0.306,2.745C33.46,57.723,31.671,61.833,28.44,64.88z M79.147,39.074
      c0.144,0.468,0.294,1.009,0.294,1.009c0.79,2.52,1.449,4.808,1.883,7.162c-1.306-0.159-2.541-0.438-3.614-0.845
      C77.93,44.442,78.331,41.784,79.147,39.074z M105.842,57.943c-0.465,1.063-1.183,1.993-2.068,2.783
      c-0.094-0.038-0.236-0.173-0.575-0.534c0.007,0-0.169-0.189-0.279-0.308c-0.24-1.109-0.373-2.205-0.373-3.253
      c0-3.686,1.348-7.635,3.906-11.761c0.526,2.294,0.831,4.453,0.831,6.378C107.283,53.885,106.809,56.138,105.842,57.943z
       M132.196,45.53c-0.08,1.953-0.492,3.611-1.216,4.966c-0.374,0.687-2.919,4.529-7.076,5.276c-1.235,0.226-1.645-0.925-1.766-2.607
      c-0.12-1.686,0.087-8.051,0.346-11.199c0.269-3.26,0.585-7.168,1.431-7.288c1.422-0.189,4.146,0.53,6.737,3.172
      c0.869,0.891,1.224,2.168,1.423,3.522C132.23,42.34,132.276,43.725,132.196,45.53z M151.921,45.219
      c-0.307,2.876-1.881,6.082-4.329,8.625c-2.45,2.537-5.708,2.887-6.234,3.164c0,0-0.698-0.004-0.795-0.301
      c-0.099-0.29-0.243-1.462-0.089-3.832c0.163-2.375,0.51-6.271,1.07-9.792c0.468-2.88,0.513-3.147,0.514-3.158
      c0.506-3.152,0.91-6.847,1.735-6.963c1.373-0.185,4.249,0.393,6.548,3.148c0.774,0.921,1.08,1.979,1.394,3.25l0.045,0.251
      C152.066,41.156,152.152,43.049,151.921,45.219z M187.013,30.56c-0.393-0.3-0.822-0.53-1.338-0.599
      c-1.655-0.331-3.12,0.306-4.189,0.763l-0.347,0.148c-0.113,0.075-0.264,0.206-0.264,0.206c-1.737,1.962-1.952,4.26-2.153,6.485
      c-0.121,1.271-0.25,2.53-0.664,3.625c-2.601,1.673-5.58,3.035-9.218,4.273c0.06-0.515,0.129-1.119,0.129-1.119l0.262-2.881
      c0-2.738-1.175-4.33-3.55-4.884c0.144-0.421,0.313-0.954,0.313-0.954c1.739-5.331,3.526-10.774,8.655-14.052
      c3.786-0.994,8.031,0.459,10.729,3.749c0.73,1.209,1.646,3.108,1.646,5.068C187.024,30.39,187.013,30.513,187.013,30.56z
       M220.484,46.241c-0.018,0.005-0.61,0.638-0.61,0.638c-1.646,1.736-3.07,3.242-5.167,2.505c-1.175-1.115-1.924-2.811-1.924-4.562
      c0,0,0.074-0.753,0.074-0.772c0.46-0.06,0.972,0.013,1.604,0.117l0.136,0.021c1.323,0.22,2.974,0.484,4.482-0.896
      c0.79-0.748,1.63-2.021,1.63-3.387c0-0.897-0.358-1.663-1.022-2.271l-0.126-0.108c-0.846-0.53-1.767-0.844-2.689-1.101
      c0.034-0.028,0.084-0.086,0.084-0.086c0.635-0.784,1.344-1.825,1.754-2.97c0.918,1.417,1.439,3.133,1.826,4.738
      c0.008,0.01,0.309,1.15,0.309,1.15c0.247,1.173,0.381,2.28,0.381,3.256C221.225,43.985,220.976,45.237,220.484,46.241z"/>
  </g>
  <path d="M191.539,6.462c0.045-1.221,0.094-2.59-0.406-4.042c-0.015-0.048-0.099-0.208-0.099-0.208l-0.109-0.189
    C189.784,0.698,187.95,0,185.626,0h-0.385h-0.226l-0.327,0.515c0.016-0.01-0.682,0.595-0.682,0.595l-0.23,0.156
    c-0.711,0.471-1.617,1.07-1.9,2.326l-0.013,0.028l-0.012,0.183c-0.172,2.388,1.519,3.728,2.879,4.795l0.115,0.092l1.186,1.001
    c0.023,0.023,0.344,0.294,0.344,0.294l1.182,0.056c1.069,0.064,2.407,0.147,3.586-0.981c-0.005,0.008,0.26-0.239,0.26-0.239
    l0.146-0.135l-0.057-0.597C191.5,8.111,191.539,6.462,191.539,6.462z"/>
</g>
</svg>
