<?xml version="1.0" encoding="utf-8"?>
<!-- Generator: Adobe Illustrator 16.0.0, SVG Export Plug-In . SVG Version: 6.00 Build 0)  -->
<!DOCTYPE svg PUBLIC "-//W3C//DTD SVG 1.1//EN" "http://www.w3.org/Graphics/SVG/1.1/DTD/svg11.dtd">
<svg version="1.1" id="Layer_1" xmlns="http://www.w3.org/2000/svg" xmlns:xlink="http://www.w3.org/1999/xlink" x="0px" y="0px"
	 width="90.354px" height="90.354px" viewBox="0 0 90.354 90.354" enable-background="new 0 0 90.354 90.354" xml:space="preserve">
<path fill="#F04C4E" d="M45.177,90.354C20.266,90.354,0,70.087,0,45.177S20.266,0,45.177,0c24.911,0,45.178,20.267,45.178,45.177
	S70.088,90.354,45.177,90.354z M45.177,5C23.023,5,5,23.023,5,45.177s18.023,40.177,40.177,40.177
	c22.154,0,40.178-18.023,40.178-40.177S67.331,5,45.177,5z M69.394,30.446c-1.748,0.775-3.625,1.299-5.597,1.535
	c2.012-1.207,3.557-3.115,4.285-5.392c-1.883,1.117-3.968,1.928-6.188,2.364c-1.777-1.894-4.31-3.076-7.113-3.076
	c-5.381,0-9.744,4.362-9.744,9.744c0,0.764,0.086,1.508,0.252,2.221c-8.099-0.406-15.279-4.286-20.085-10.182
	c-0.839,1.439-1.319,3.113-1.319,4.898c0,3.381,1.72,6.363,4.335,8.111c-1.597-0.051-3.1-0.489-4.414-1.219
	c-0.001,0.04-0.001,0.081-0.001,0.122c0,4.722,3.359,8.659,7.816,9.556c-0.817,0.222-1.678,0.342-2.567,0.342
	c-0.628,0-1.238-0.062-1.833-0.176c1.24,3.871,4.839,6.689,9.103,6.768c-3.335,2.613-7.537,4.172-12.102,4.172
	c-0.786,0-1.562-0.047-2.324-0.137c4.312,2.765,9.434,4.378,14.937,4.378c17.924,0,27.725-14.849,27.725-27.726
	c0-0.422-0.01-0.842-0.028-1.26C66.436,34.117,68.087,32.401,69.394,30.446z"/>
</svg>
