<?xml version="1.0" encoding="utf-8"?>
<!-- Generator: Adobe Illustrator 16.0.0, SVG Export Plug-In . SVG Version: 6.00 Build 0)  -->
<!DOCTYPE svg PUBLIC "-//W3C//DTD SVG 1.1//EN" "http://www.w3.org/Graphics/SVG/1.1/DTD/svg11.dtd">
<svg version="1.1" id="Layer_1" xmlns="http://www.w3.org/2000/svg" xmlns:xlink="http://www.w3.org/1999/xlink" x="0px" y="0px"
	 width="90.355px" height="90.354px" viewBox="0 0 90.355 90.354" enable-background="new 0 0 90.355 90.354" xml:space="preserve">
<path fill="#F04C4E" d="M45.177,90.354C20.266,90.354,0,70.087,0,45.177S20.266,0,45.177,0c24.912,0,45.178,20.267,45.178,45.177
	S70.088,90.354,45.177,90.354z M45.177,5C23.023,5,5,23.023,5,45.177s18.023,40.177,40.177,40.177
	c22.155,0,40.178-18.023,40.178-40.177S67.332,5,45.177,5z M68.024,36.981c-0.215,4.707-3.501,11.151-9.857,19.332
	c-6.572,8.545-12.131,12.816-16.68,12.816c-2.816,0-5.201-2.6-7.148-7.805c-1.301-4.771-2.602-9.542-3.902-14.312
	c-1.445-5.202-2.996-7.806-4.656-7.806c-0.361,0-1.627,0.762-3.793,2.277l-2.273-2.931c2.385-2.097,4.738-4.193,7.054-6.293
	c3.181-2.75,5.569-4.196,7.161-4.342c3.762-0.361,6.078,2.211,6.946,7.717c0.938,5.94,1.589,9.636,1.954,11.082
	c1.084,4.929,2.277,7.391,3.58,7.391c1.012,0,2.531-1.6,4.559-4.796c2.023-3.197,3.107-5.63,3.254-7.302
	c0.289-2.759-0.797-4.143-3.254-4.143c-1.158,0-2.351,0.267-3.578,0.793c2.376-7.783,6.914-11.563,13.613-11.348
	C65.969,27.46,68.31,30.683,68.024,36.981z"/>
</svg>
