<?xml version="1.0" encoding="utf-8"?>
<!-- Generator: Adobe Illustrator 18.1.1, SVG Export Plug-In . SVG Version: 6.00 Build 0)  -->
<svg version="1.1" id="Layer_1" xmlns="http://www.w3.org/2000/svg" xmlns:xlink="http://www.w3.org/1999/xlink" x="0px" y="0px"
	 viewBox="206.6 -52.5 375.2 135.6" enable-background="new 206.6 -52.5 375.2 135.6" xml:space="preserve">
<g>
	<g>
		<g>
			
				<linearGradient id="SVGID_1_" gradientUnits="userSpaceOnUse" x1="519.6504" y1="66.3344" x2="653.7804" y2="-169.5491" gradientTransform="matrix(1 0 0 -1 0 32)">
				<stop  offset="0" style="stop-color:#00FFFF"/>
				<stop  offset="1" style="stop-color:#23C920"/>
			</linearGradient>
			<path fill="url(#SVGID_1_)" d="M580.7-13.9l-40.8,83.5c-1.6,2.8-4.6,4.5-7.8,4.5c-3.2,0-6.2-1.7-7.8-4.5l-40.8-83.5
				c-2.5-4.3-1-9.8,3.3-12.3c1.4-0.8,2.9-1.2,4.5-1.2c3.2,0,6.2,1.7,7.8,4.5l33,67.7l33-67.7c1.6-2.8,4.6-4.5,7.8-4.5
				c1.6,0,3.1,0.4,4.5,1.2c2.1,1.2,3.6,3.1,4.2,5.5C582.2-18.4,581.9-16,580.7-13.9z"/>
		</g>
	</g>
	
		<radialGradient id="SVGID_2_" cx="580.3838" cy="104.5488" r="189.2478" gradientTransform="matrix(1 0 0 -1 -91.623 17.3359)" gradientUnits="userSpaceOnUse">
		<stop  offset="0.1665" style="stop-color:#E6FA00"/>
		<stop  offset="1" style="stop-color:#4ADEDB"/>
	</radialGradient>
	<path fill="url(#SVGID_2_)" d="M554.8-52.5h-45.5c-5,0-9,4-9,9c0,5,4,9,9,9l45.5,0c5,0,9-4,9-9C563.8-48.4,559.8-52.5,554.8-52.5z"
		/>
</g>
<g>
	<path fill="#969799" d="M206.4,16.1c0.3-0.6,0.2-1.2,0.2-1.9c1-13,5.5-24.6,13.4-34.9c1.3-1.7,2.7-3.4,4.3-4.9
		c0.2,0,0.2,0.1,0.2,0.2c-0.2,0.6-0.7,1-1.2,1.5c-3.7,4.1-6.8,8.6-9.4,13.5c-3.2,6.2-5.3,12.7-6.4,19.6c-0.4,2.7-0.6,5.5-0.7,8.3
		c-0.1,5.1,0.3,10.1,1.4,15.1c1,4.7,2.6,9.2,4.6,13.5c2.5,5.3,5.7,10.2,9.6,14.7c0.7,0.9,1.5,1.7,2.3,2.5c0.2,0.2,0.5,0.4,0.6,0.8
		c0,0.1-0.1,0.2-0.2,0.2c-2-1.9-3.8-4-5.5-6.2c-4.7-6-8.1-12.6-10.4-19.9c-1.3-4.2-2.3-8.6-2.6-13c-0.1-1.3-0.2-2.5-0.3-3.8
		c-0.1-0.3,0-0.6,0-0.9c0-1,0-2,0-3c0-0.4,0.1-0.7-0.1-1.1C206.4,16.3,206.4,16.2,206.4,16.1z"/>
	<path fill="#D2D2D3" d="M268.7-45.4c1.3,0,2.6,0,3.8,0c0,0.1,0,0.2-0.1,0.2c-1.2,0.2-2.5,0.2-3.7,0
		C268.7-45.2,268.7-45.3,268.7-45.4z"/>
	<path fill="#D2D2D3" d="M272.6,83.1c-1.3,0-2.6,0-3.8,0c0-0.1,0-0.2,0.1-0.2c1.2-0.2,2.5-0.2,3.7,0C272.6,82.9,272.6,83,272.6,83.1
		z"/>
	<path fill="#D6D6D7" d="M334.9,17.2c0,1.1,0,2.2,0,3.3c-0.1,0-0.2,0-0.2-0.1c-0.2-1.1-0.2-2.1,0-3.2
		C334.7,17.2,334.8,17.2,334.9,17.2z"/>
	<path fill="#D0D0D1" d="M206.5,17.5c0,1.1,0,2.1,0,3.2c0,0.1-0.1,0.1-0.1,0c0-1,0-2.1,0-3.1C206.4,17.4,206.5,17.4,206.5,17.5z"/>
	<path fill="#DCDCDC" d="M206.5,17.5c0,0-0.1,0-0.1,0c0-0.3,0-0.7,0-1C206.7,16.8,206.5,17.2,206.5,17.5z"/>
	<path fill="#E8E8E9" d="M206.4,20.6c0,0,0.1,0,0.1,0c0,0.3,0,0.6,0,0.9c0,0-0.1,0-0.1,0C206.4,21.2,206.4,20.9,206.4,20.6z"/>
	<path fill="#EAEAEA" d="M334.8,20.5c0,0,0.1,0,0.1,0c0,0.3,0,0.6,0,0.9l-0.1,0h-0.1C334.5,21.1,334.5,20.8,334.8,20.5z"/>
	<path fill="#E6E6E6" d="M334.9,17.2c0,0-0.1,0-0.1,0c-0.2-0.2-0.2-0.5,0-0.7c0,0,0.1,0,0.1,0C334.9,16.7,334.9,17,334.9,17.2z"/>
	<path fill="#ECEDED" d="M272.6-45.3c0,0,0-0.1,0-0.1c0.2,0,0.5,0,0.7,0c0,0,0,0.1,0,0.1C273-45.1,272.8-45.1,272.6-45.3z"/>
	<path fill="#ECECEC" d="M268.7,83c0,0,0,0.1,0,0.1c-0.2,0-0.5,0-0.7,0c0,0,0-0.1,0-0.1C268.2,82.7,268.5,82.7,268.7,83z"/>
	<path fill="#ECECEC" d="M268.7-45.4c0,0,0,0.1,0,0.1c-0.2,0.2-0.5,0.2-0.7,0c0,0,0-0.1,0-0.1C268.2-45.4,268.5-45.4,268.7-45.4z"/>
	<path fill="#ECEDED" d="M272.6,83.1c0,0,0-0.1,0-0.1c0.2-0.2,0.5-0.2,0.7,0c0,0,0,0.1,0,0.1C273,83.1,272.8,83.1,272.6,83.1z"/>
	<path fill="#969799" d="M273.3,83c-0.2,0-0.5,0-0.7,0c-1.3,0-2.6,0-3.9,0c-0.2,0-0.5,0-0.7,0c-9.3-0.4-18.1-2.7-26.4-6.9
		c-5.3-2.7-10.1-6-14.5-10.1c-0.6-0.6-1.3-1.1-1.8-1.7c0-0.1,0.1-0.1,0.1-0.1c0.3-0.1,0.5,0.2,0.7,0.4c1.8,1.7,3.8,3.4,5.8,5
		c2.7,2.1,5.5,3.9,8.4,5.5c6.2,3.3,12.8,5.6,19.7,6.8c4.7,0.8,9.4,1,14.1,0.7c9.3-0.5,18.1-3,26.3-7.4c4.7-2.5,9-5.6,12.9-9.2
		c0.6-0.6,1.2-1.3,2-1.7c0.1,0,0.2,0.1,0.2,0.2c-2.1,2.2-4.5,4.2-7,6c-7.2,5.3-15.2,9-24,11C281,82.3,277.2,82.8,273.3,83z"/>
	<path fill="#969799" d="M334.8,16.5c0,0.2,0,0.5,0,0.7c0,1.1,0,2.2,0,3.3c0,0.3,0,0.6,0,0.9c-0.4,9.3-2.6,18.1-6.9,26.5
		c-0.7,1.5-1.5,2.9-2.4,4.3c-0.2,0-0.2-0.1-0.2-0.2c0.1-0.8,0.7-1.4,1-2c3.7-6.7,6.1-13.8,7.3-21.3c0.7-4.4,0.9-8.8,0.6-13.3
		c-0.4-7.5-2.1-14.7-5-21.6c-1.5-3.6-3.4-7-5.6-10.3c-0.2-0.3-0.5-0.6-0.5-1c0-0.1,0.1-0.2,0.2-0.2c2.1,2.9,3.9,6,5.4,9.3
		c2.4,5.1,4.1,10.5,5.1,16C334.3,10.5,334.7,13.5,334.8,16.5z"/>
	<path fill="#9A9B9D" d="M325.3,52c0,0.1,0.1,0.1,0.1,0.2c-2.7,4.5-5.9,8.6-9.7,12.3c-0.1,0-0.1-0.1-0.2-0.1
		c-0.1-0.3,0.2-0.5,0.4-0.6c2.3-2.3,4.4-4.8,6.2-7.4c0.9-1.2,1.7-2.4,2.5-3.7C324.9,52.3,324.9,52,325.3,52z"/>
	<path fill="#969799" d="M268-45.3c0.2,0,0.5,0,0.7,0c1.3,0,2.6,0,3.9,0c0.2,0,0.5,0,0.7,0c9.6,0.4,18.7,2.8,27.2,7.3
		c4.9,2.6,9.4,5.8,13.5,9.5c0.3,0.3,0.7,0.7,1,1c0,0.2-0.1,0.2-0.2,0.2c-0.6-0.3-1-0.7-1.5-1.2c-5-4.5-10.6-8.2-16.8-10.9
		c-5-2.2-10.1-3.8-15.5-4.7c-4.7-0.8-9.4-1-14.1-0.7c-7.8,0.4-15.4,2.2-22.5,5.5c-6,2.7-11.5,6.3-16.5,10.8c-0.5,0.5-0.9,1-1.6,1.3
		c-0.1,0-0.2-0.1-0.2-0.2c2-2,4.2-3.8,6.5-5.5c7.2-5.2,15.1-8.8,23.7-10.8C260.2-44.6,264.1-45.1,268-45.3z"/>
	<path fill="#9B9C9D" d="M323.3-17.7c0,0.1-0.1,0.1-0.1,0.2c-0.3,0-0.4-0.2-0.5-0.4c-1.9-2.6-3.9-5.1-6.2-7.4
		c-0.2-0.2-0.3-0.3-0.4-0.6c0-0.1,0.1-0.2,0.2-0.1C318.9-23.6,321.3-20.8,323.3-17.7z"/>
	<path fill="#A0A1A3" d="M316.4-26.2c-0.1,0.1-0.1,0.1-0.2,0.2c-0.6-0.2-1.1-0.7-1.3-1.3c0.1,0,0.1-0.1,0.2-0.1
		C315.5-27.1,316-26.6,316.4-26.2z"/>
	<path fill="#A0A1A3" d="M226.2-27.4c0.1,0.1,0.1,0.1,0.2,0.2c-0.4,0.8-1,1.5-1.9,1.9c-0.1-0.1-0.1-0.1-0.2-0.2
		C224.9-26.3,225.5-26.9,226.2-27.4z"/>
	<path fill="#FDFDFD" d="M224.5-25.4c0.6-0.6,1.2-1.2,1.9-1.9c2.7-2.5,5.5-4.8,8.6-6.9c7.5-5,15.6-8.3,24.5-9.9
		c4.9-0.9,9.9-1.2,14.9-0.9c14.1,0.9,26.6,5.9,37.4,14.9c1.1,0.9,2.1,1.8,3.1,2.7c0.4,0.4,0.9,0.9,1.3,1.3c2.5,2.6,4.8,5.5,7,8.4
		c2,3.1,3.9,6.3,5.5,9.7c2.6,5.7,4.4,11.7,5.3,18c0.6,4.1,0.7,8.1,0.5,12.2c-0.5,9.8-3.1,19-7.9,27.5c-0.4,0.7-0.8,1.5-1.2,2.2
		c-1.1,1.6-2.1,3.3-3.3,4.9c-1.9,2.6-4.1,5.1-6.4,7.4c-2.2,2-4.4,4-6.8,5.8c-8.1,6-17.1,9.9-27.1,11.7c-4.9,0.9-9.9,1.2-14.9,0.9
		c-12.7-0.8-24.2-5-34.5-12.6c-2.2-1.7-4.3-3.5-6.3-5.4c-0.2-0.2-0.4-0.3-0.6-0.5c-1.8-2-3.7-4-5.3-6.1c-5.8-7.5-9.7-15.8-11.8-25
		c-1.4-5.9-1.8-11.9-1.5-17.9c0.7-11.8,4.4-22.7,11.1-32.4C219.9-20.2,222.2-22.9,224.5-25.4z"/>
	<path fill="#939495" d="M331.9,10.4c0.4,1.8,0.5,3.6,0.5,5.4c0.3,7.6-0.6,15-3,22.2c-2,6.1-4.9,11.7-8.6,17
		c-4.2,5.9-9.3,10.9-15.3,15c-5.9,4-12.2,7-19.1,8.8c-3.8,1-7.7,1.6-11.6,1.9c-10.6,0.7-20.8-1.1-30.4-5.7
		c-13.3-6.3-23.1-16.1-29.5-29.2c-2.7-5.6-4.5-11.5-5.4-17.7c-0.6-4.1-0.8-8.3-0.6-12.5c0.1-2.1,0.3-4.3,0.7-6.4
		c0.1-0.3,0.4-0.5,0.7-0.5c0.3,0,0.6,0,0.9,0c2.8,0,5.6,0,8.4,0c8.1,0.2,16.2,0.1,24.3,0.2c1.1,0,2.2,0,3.2,0.3
		c0.2,0.2,0.2,0.5,0.2,0.8c-0.1,3.2,0.2,6.4,0.1,9.6c0,0.3,0,0.7-0.2,1c-0.3,0.1-0.3-0.1-0.4-0.2c-0.1-1.3,0-2.6-0.1-3.9
		c0-0.9-0.1-1-1-1c-0.1,0,0,0-0.1,0c-10,0.1-20-0.2-30-0.1c-1.8,0-3.5-0.2-5.3-0.1c-1,0-1.2,0.2-1.2,1.2c0,1.2,0,2.4,0,3.6
		c0,1.5,0.1,3.1,0.2,4.6c0.1,1.8,0.4,3.6,0.7,5.4c0.3,1.7,0.7,3.4,1.1,5c0.4,1.8,1.1,3.6,1.7,5.4c0.6,1.7,1.3,3.4,2.1,5
		c0.8,1.7,1.6,3.3,2.6,4.9c1.1,1.9,2.3,3.6,3.6,5.4c1.3,1.8,2.8,3.5,4.3,5.1c1.8,1.8,3.6,3.7,5.6,5.3c2.4,2,4.8,3.8,7.5,5.4
		c3.9,2.3,7.9,4.3,12.2,5.7c4.2,1.4,8.5,2.4,12.9,2.9c3.6,0.4,7.2,0.4,10.9,0.2c5.2-0.3,10.2-1.3,15.1-2.9c4.3-1.4,8.5-3.2,12.3-5.5
		c2-1.1,3.8-2.4,5.6-3.7c0.6-0.5,1.3-0.9,1.8-1.4c1.8-1.5,3.6-3.1,5.2-4.8c0.2-0.2,0.4-0.4,0.6-0.6c0.5-0.7,1.2-1.2,1.7-1.9
		c1-1,1.8-2.1,2.6-3.2c1.1-1.3,2-2.7,2.9-4.1c0.2-0.3,0.4-0.7,0.7-1c1.1-1.8,2.1-3.6,3-5.6c0.8-1.5,1.4-3.1,2-4.7
		c0.6-1.5,1.1-3.1,1.6-4.7c0.6-2,1-4,1.4-6c0.3-1.8,0.5-3.5,0.7-5.3c0.2-0.4,0-0.9,0.2-1.3c0.1-0.3,0.1-0.6,0.1-1c0-1,0-2,0-3
		c0-1.6,0-3.2-0.1-4.9c0-1.8,0-1.8-1.8-1.8c-0.8,0-1.6,0-2.4,0c-0.2,0-0.5,0-0.6-0.2c-0.1-0.2,0.1-0.4,0.2-0.6
		c0.8-0.8,1.5-1.6,2.4-2.2c0.4-0.1,0.8-0.1,1.2-0.1C331.6,9.5,331.7,9.6,331.9,10.4z"/>
	<path fill="#969798" d="M331.9,10.4c-0.1-0.6-0.6-0.8-1.1-0.7c-0.4,0-0.7,0-1.1,0c-0.3,0.2-0.7,0.2-1,0.2c-2.3,0-4.7,0.1-7,0
		c-4.3-0.2-8.6-0.1-13-0.1c-4.6,0-9.1-0.2-13.7-0.2c-0.3,0-0.6,0-0.9-0.2c-0.4-0.8-0.2-1.7-0.1-2.5c0-0.3,0.3-0.4,0.6-0.5
		c0.5-0.1,1.1-0.1,1.6,0c2.4,0.2,4.8,0.1,7.3,0.1c3.4,0,6.7-0.1,10.1,0c5.3,0.2,10.5,0.1,15.8,0.1c1.3,0,1.4-0.1,1.2-1.4
		c-0.1-0.4-0.2-0.9-0.3-1.3c-0.5-1.7-0.9-3.3-1.4-5c-0.7-1.8-1.2-3.6-2.1-5.3c-0.8-1.6-1.5-3.3-2.4-4.8c-1.1-2-2.3-4-3.7-5.8
		c-1.1-1.4-2.1-2.9-3.3-4.2c-0.1-0.1-0.2-0.2-0.3-0.3c-1.2-1.5-2.7-2.9-4.1-4.3c-0.4-0.4-0.9-0.8-1.3-1.2c-1.2-1-2.3-2.1-3.5-3
		c-1.1-0.8-2.1-1.6-3.3-2.3c-2.5-1.8-5.2-3.2-7.9-4.5c-0.4-0.2-0.8-0.4-1.2-0.5c-4-1.8-8-3.2-12.3-4c-2.8-0.6-5.6-1-8.4-1.2
		c-2.5-0.2-5-0.2-7.5-0.1c-4.6,0.2-9.2,1-13.6,2.2c-2.4,0.7-4.7,1.5-7,2.5c-0.2,0.1-0.4,0.1-0.5,0.2c-0.3,0.1-0.5,0.2-0.8,0.3
		c-2.8,1.3-5.5,2.7-8.1,4.4c-2.3,1.4-4.4,3.1-6.5,4.8c-0.8,0.6-1.4,1.3-2.2,1.9c-1.9,1.8-3.7,3.7-5.4,5.7c-1,1.3-2.1,2.6-3,4
		c-1.2,1.6-2.2,3.4-3.3,5.1c-0.9,1.6-1.7,3.3-2.6,5c-0.6,1.6-1.3,3.1-1.9,4.7c-0.6,1.7-1.1,3.4-1.6,5.1c-0.1,0.5-0.2,0.9-0.3,1.3
		c-0.3,1.2-0.2,1.3,1,1.3c2.3,0,4.5-0.1,6.8,0c6.7,0.2,13.4,0,20.2,0.2c2.4,0.1,4.9,0.1,7.3,0.1c0.3,0,0.6,0,0.9,0.2
		c0.3,0.9,0.3,1.7,0,2.6c-7-0.3-14,0-20.9-0.2c-5.2-0.1-10.4,0-15.6-0.1c-0.4,0-0.7,0-1,0.3c0.7-4.6,2-9.1,3.7-13.5
		c2.6-6.4,6.1-12.1,10.6-17.3c6.1-7.1,13.5-12.5,22.1-16.2c4.7-2,9.6-3.5,14.6-4.3c4.7-0.8,9.4-1,14.2-0.6
		c8.3,0.5,16.1,2.7,23.5,6.3c7.7,3.9,14.4,9.1,19.9,15.8c5.4,6.5,9.4,13.9,11.8,22c0.7,2.5,1.3,5,1.7,7.6
		C331.7,9.3,331.9,9.8,331.9,10.4z"/>
	<path fill="#747879" d="M315.3,61.1c-1.2,1.5-2.7,2.7-4.1,4c-0.6,0.5-1.2,1-1.7,1.4c-0.5,0.1-0.9,0.1-1.4,0.1
		c-8.5-0.1-17-0.1-25.4-0.2c-6.2-0.1-12.5,0.1-18.7-0.1c-6.5-0.2-13,0-19.5-0.1c-4.2-0.1-8.4,0-12.5-0.1c-0.3,0-0.6,0-0.8-0.1
		c-2-1.6-3.8-3.4-5.6-5.3c0.1-0.4,0.5-0.4,0.8-0.5c0.5-0.1,1-0.1,1.5,0c6,0.3,12.1,0,18.1,0.2c6.7,0.2,13.4,0,20.1,0.2
		c6,0.2,12.1,0,18.1,0.1c6.7,0.2,13.4,0,20.1,0.2c3.4,0.1,6.8,0,10.2,0.1C314.7,60.9,315.1,60.8,315.3,61.1z"/>
	<path fill="#717577" d="M231.1,66c0.2-0.2,0.5-0.1,0.7-0.1c3.6,0,7.3-0.1,10.9,0c6.5,0.2,12.9-0.1,19.4,0.1
		c6.3,0.2,12.6-0.1,18.9,0.1c6.3,0.2,12.6-0.1,18.9,0.2c3,0.1,6,0,9,0.1c0.2,0,0.5,0,0.7,0.1c-2.1,1.8-4.4,3.4-6.8,4.9
		c-0.2,0.1-0.4,0.3-0.6,0.3c-5.8-0.1-11.5,0.1-17.3-0.1c-6.4-0.2-12.8,0.1-19.2-0.1c-6.3-0.2-12.6,0-18.9-0.1
		c-2.3-0.1-4.5-0.1-6.8-0.1c-0.5,0-1,0-1.5,0.2c-2.6-1.6-5-3.4-7.3-5.2C231.1,66.1,231.1,66,231.1,66z"/>
	<path fill="#6E7274" d="M238.5,71.4c0.1-0.5,0.5-0.4,0.9-0.4c1.9,0,3.8-0.1,5.6,0c5.7,0.3,11.4,0,17.2,0.1c7,0.2,14,0,20.9,0.2
		c6,0.2,12,0,17.9,0.1c0.4,0,0.8-0.1,1.1,0.3c-0.6,0.6-1.4,0.9-2.1,1.3c-3.1,1.7-6.3,3.1-9.7,4.2c-0.2,0.1-0.3,0.1-0.5,0.1
		c-0.7-0.1-1.4-0.1-2.1-0.1c-8.9,0-17.8-0.2-26.7-0.2c-3,0-5.9-0.1-8.9-0.1c-0.5,0-1,0-1.5,0.2C246.4,75.6,242.3,73.7,238.5,71.4z"
		/>
	<path fill="#777A7C" d="M315.3,61.1c-7.3,0.1-14.7-0.2-22-0.1c-1.3,0-2.6,0-3.8,0c-7.3-0.2-14.7,0-22-0.2
		c-6.2-0.1-12.5,0.1-18.7-0.1c-6.5-0.2-13,0-19.5-0.1c-0.9,0-1.8-0.1-2.7-0.1c-0.4,0-0.8,0-1.1,0.3c-1.4-1.4-2.6-3-3.8-4.5
		c-0.2-0.2-0.3-0.4-0.5-0.6c0-0.3,0.2-0.4,0.5-0.4c0.2-0.1,0.3-0.1,0.5-0.1c0.2,0,0.5,0,0.7,0c11.4-0.1,22.8,0.2,34.3,0.2
		c3.8,0,7.6,0,11.5,0.1c0.3,0,0.7,0,1,0.2c0.3,0.9,0.3,1.9,0,2.8c-0.4,0.3-0.8,0.2-1.2,0.2c-4,0-8,0-12,0c-0.3,0-0.5,0-0.8,0
		c-0.4,0-0.5,0.3-0.5,0.6c0,0.4,0,0.7,0.5,0.7c0.3,0,0.6,0,0.9,0c9.2,0,18.4,0,27.7,0c0.4,0,0.9,0.1,1.3-0.1
		c0.5-0.2,0.2-0.8,0.5-1.2c0.2-0.2,0.4-0.2,0.7-0.2c2.5,0.2,4.9,0.1,7.4,0.1c3.1,0,6.1-0.1,9.2,0c4.2,0.1,8.4,0.1,12.6,0.1
		c0.4,0,0.9-0.1,1.1,0.5C316.5,59.9,315.9,60.5,315.3,61.1z"/>
	<path fill="#7D8082" d="M326.2,45.3c-0.9,1.9-1.8,3.8-3,5.6c-0.3,0.1-0.6,0.1-0.8,0.1c-1.9,0-3.8,0-5.8,0c-7.1-0.2-14.3,0-21.4-0.2
		c-6.1-0.1-12.2,0-18.2-0.1c-1.5,0-3-0.2-4.6-0.2c-0.2,0-0.5,0-0.7-0.2c-0.1-0.1-0.1-0.2-0.1-0.3c-0.1-1.6,0-3.1,0-4.7
		c0-0.4,0.2-0.6,0.6-0.6c0.2,0,0.4,0,0.6,0c8.4,0.1,16.9,0,25.3,0.2c5.8,0.1,11.7,0,17.5,0.1c3.3,0.1,6.5,0.1,9.8,0.1
		C325.6,45.1,325.9,45.1,326.2,45.3z"/>
	<path fill="#808385" d="M269.6,58.3c0-0.9,0-1.8,0-2.7c-0.2-0.2-0.2-0.5-0.2-0.8c0-1.5,0-3,0-4.5c0-1.1,0-2.2,0-3.3
		c0-0.9-0.1-0.9-1-1c-6.4-0.3-12.8,0-19.2-0.2c-6.6-0.2-13.3,0-19.9-0.2c-4.3-0.1-8.7,0-13-0.1c-0.4,0-0.8,0.1-1.2-0.2
		c-0.9-1.6-1.6-3.3-2.1-5c0-0.2,0.1-0.3,0.3-0.4c0.1-0.1,0.3-0.1,0.4-0.1c4.1,0,8.3-0.1,12.4,0.1c0.3,0,0.6,0,0.9,0
		c1.1,0,2.2,0,3.3,0c9.8-0.1,19.6,0.2,29.4,0.1c0.3,0,0.6,0,0.9-0.1c0.3,0,0.7,0.1,1,0.2c2.4,1,4.8,1.5,7.4,1.7
		c0.7,0.1,0.9,0.2,0.9,1c0,4.9,0,9.7,0,14.6C269.9,57.8,270,58.2,269.6,58.3z"/>
	<path fill="#7B7D7F" d="M269.6,50.3c0,1.8,0,3.5,0,5.3c-7.7,0.1-15.4-0.2-23.1-0.1c-2.3,0-4.6,0.1-6.9,0c-5.7-0.3-11.5,0-17.2-0.1
		c-0.4,0-0.8-0.1-1.1,0.3c-1.3-1.7-2.6-3.5-3.6-5.4c0-0.3,0.3-0.3,0.5-0.4c0.3,0,0.5,0,0.8,0c0.3,0,0.7,0,1,0
		c11.7-0.1,23.3,0.1,35,0.2c4.5,0,9.1,0,13.6,0.1C268.9,50.1,269.3,50,269.6,50.3z"/>
	<path fill="#87898A" d="M331.2,29.9c-0.3,1.9-0.7,3.7-1.2,5.5c0,0.2-0.1,0.4-0.2,0.5c-5.6-0.1-11.2,0.1-16.8-0.1
		c-6.1-0.2-12.3,0-18.4-0.1c-2.3-0.1-4.7-0.1-7-0.2c-0.6-0.2-0.2-0.5,0-0.7c0.7-0.8,1.4-1.6,2-2.5s1.2-1.8,1.7-2.7
		c0.2-0.3,0.3-0.6,0.7-0.8c1.3,0,2.7,0,4,0c3.2,0,6.4-0.1,9.6,0c7.9,0.1,15.9,0.1,23.8,0.1c0.5,0,1,0,1.5,0.2
		C331.1,29.2,331.4,29.4,331.2,29.9z"/>
	<path fill="#818385" d="M326.2,45.3c-2.4,0-4.9,0.1-7.3,0c-6.5-0.3-13,0.1-19.4-0.2c-5.2-0.2-10.3-0.1-15.5-0.1
		c-3.8,0-7.6-0.2-11.5-0.2c-0.6,0-0.8,0.2-0.8,0.8c0,1.5,0,3.1,0,4.6c0.2,0.2,0.2,0.5,0.2,0.7c0,1.5,0,2.9,0,4.4
		c-0.1,0.9,0.2,1.9-0.2,2.8c-0.3,0.1-0.3-0.1-0.4-0.3c-0.1-0.3-0.1-0.6-0.1-0.9c0-4.5,0-9,0-13.5c0-0.1,0-0.3,0-0.4
		c0-0.9,0.2-1.1,1.1-1.1c2.2-0.2,4.3-0.6,6.3-1.4c0.7-0.2,1.3-0.6,2-0.7c6.9,0.2,13.7,0,20.6,0.1c6,0.2,12,0,18,0.1
		c2.6,0.1,5.2,0.1,7.8,0.1c0.4,0,0.8,0,1,0.4c-0.2,1.1-0.8,2.1-1.2,3.1C326.8,44.2,326.6,44.8,326.2,45.3z"/>
	<path fill="#FEFEFE" d="M280.7,40c-1.8,0.7-3.7,1.4-5.6,1.8c-1,0.2-1.9,0.3-2.9,0.4c-0.4,0-0.6,0.1-0.6,0.5c0,5.1,0,10.2,0,15.3
		c0,0.1,0.1,0.2,0.1,0.3c0.2-0.2,0.5-0.2,0.8-0.2c4.2,0,8.5,0,12.7,0c0.2,0,0.4,0,0.6,0.1c0.3,0.1,0.4,0.3,0.3,0.6
		c-0.1,1.4-0.1,1.4-1.6,1.4c-9.6,0-19.3,0-28.9,0c-0.3,0-0.7,0.2-0.8-0.1c-0.1-0.5-0.1-1,0-1.6c0-0.2,0.4-0.1,0.7-0.1
		c4.4,0,8.7,0,13.1,0c0.3,0,0.6,0,0.9,0c0.2-0.2,0.1-0.4,0.1-0.6c0-4.9,0-9.9,0-14.8c0-0.4,0-0.7-0.5-0.7c-2.9-0.1-5.6-0.8-8.2-2
		c-0.1,0-0.1,0-0.2,0c-1.1-0.2-1.9-0.8-2.8-1.4c-1.7-1-3.2-2.2-4.5-3.7c-1.6-1.6-2.9-3.5-3.9-5.5c-0.8-1.5-1.4-3.1-1.9-4.8
		c-0.3-1.2-0.5-2.4-0.7-3.6c0-0.3-0.1-0.5,0.1-0.7c0-3.8-0.1-7.6-0.1-11.4c0-0.9,0-1.7,0-2.6c-0.3-0.4-0.4-0.9,0-1.2
		c0.4-0.4,1-0.3,1.5-0.2C249,5.2,249,5.6,249,6c0,4.1,0,8.1,0,12.2c0,0.4,0,0.7,0.1,1.1c0.1,0.6,0,1.3,0.1,1.9
		c0.2,1.7,0.5,3.3,1.1,4.8c0.5,1.6,1.3,3.2,2.3,4.6c1.1,1.6,2.3,3.2,3.9,4.4c1.1,1,2.3,1.9,3.7,2.6c2.6,1.5,5.4,2.3,8.4,2.6
		c4.4,0.5,8.4-0.5,12.3-2.5c1.8-0.8,3.3-2.1,4.8-3.4c1-0.9,1.7-1.9,2.5-3c0.2-0.2,0.4-0.5,0.6-0.7c0.9-1.3,1.6-2.7,2.1-4.1
		c0.6-1.7,1.1-3.4,1.3-5.2c0.2-0.6,0-1.3,0.1-1.9c0.1-0.3,0.1-0.7,0.1-1c0-3.8,0-7.6,0-11.4c0-0.3,0-0.5,0-0.8c0-0.9,0.8-1.4,1.6-1
		c0.5,0.3,0.5,0.8,0.4,1.2C294,6.9,294,7.4,294,8c0.2,3.7,0.1,7.5,0.1,11.2c0,1.4-0.2,2.9-0.5,4.3c-0.3,1.4-0.7,2.7-1.2,4.1
		c-0.2,0.5-0.4,1-0.8,1.5c-1,1.9-2.1,3.7-3.6,5.3c-0.3,0.3-0.6,0.7-0.9,1c-0.4,0.9-1.2,1.3-1.9,1.9c-1.1,0.9-2.3,1.7-3.6,2.4
		C281.4,39.8,281,39.9,280.7,40z"/>
	<path fill="#7B7E7F" d="M271.7,55.4c0-1.7,0-3.4,0-5.1c7.3,0.2,14.6,0,21.9,0.2c5.5,0.1,11.1,0,16.6,0.1c4.1,0.1,8.2,0.1,12.2,0.1
		c0.2,0,0.5,0,0.7,0.1c-1,1.6-2,3.2-3.1,4.7c-0.1,0.2-0.2,0.3-0.4,0.4c-1.3,0.2-2.7,0.1-4,0c-0.4,0-0.7-0.1-1.1-0.1
		c-11.5,0.1-23.1-0.2-34.6-0.2c-2.5,0-4.9-0.2-7.4-0.1C272.2,55.7,272,55.7,271.7,55.4z"/>
	<path fill="#7D8082" d="M269.6,50.3c-9.1,0-18.2-0.1-27.3-0.1c-1.5,0-3,0.1-4.6,0c-6.4-0.3-12.8,0-19.2-0.1c-0.3,0-0.6-0.1-0.8,0.1
		c-1-1.5-1.8-3.2-2.6-4.9c4.1,0,8.2-0.1,12.3,0c6.5,0.2,12.9-0.1,19.4,0.1c6.2,0.2,12.5,0,18.7,0.1c1.2,0,2.4,0.2,3.6,0.1
		c0.4,0,0.5,0.2,0.5,0.6C269.6,47.6,269.6,49,269.6,50.3z"/>
	<path fill="#838587" d="M253.6,35c2.1,2.1,4.5,3.8,7.2,5.1c-0.4,0.1-0.8,0.2-1.3,0.2c-3.5,0-7,0.1-10.5,0c-7.5-0.2-15.1,0-22.6-0.2
		c-4.2-0.1-8.4,0-12.6-0.1c-0.3,0-0.7-0.1-0.9,0.3c-0.7-1.8-1.4-3.5-1.7-5.4c0.4-0.3,0.8-0.2,1.2-0.2c6.3,0.2,12.7,0.1,19,0.2
		c7.1,0.1,14.3,0.1,21.4,0.1C253.1,34.9,253.4,35,253.6,35z"/>
	<path fill="#87898A" d="M253.6,35c-0.3,0.2-0.5,0.1-0.8,0.1c-5.3,0-10.7,0.1-16,0c-6.3-0.2-12.6,0-18.9-0.1
		c-2.2-0.1-4.4-0.1-6.5-0.1c-0.6-1.6-0.9-3.3-1.1-5c-0.2-0.4,0-0.5,0.3-0.6c0.3-0.1,0.6-0.1,0.9-0.1c3.1,0,6.2-0.1,9.3,0
		c6.4,0.2,12.8,0,19.2,0.2c3.2,0.1,6.4,0.1,9.5,0.1c0.2,0,0.3,0,0.5,0.1C250.8,31.6,252.1,33.4,253.6,35z"/>
	<path fill="#848688" d="M280.7,40c1.9-1,3.8-2.1,5.4-3.6c0.4-0.4,0.8-0.7,1.2-1.1c5.1,0,10.3,0.2,15.4,0.1c1.1,0,2.1,0,3.2,0
		c7.7,0.2,15.3,0.1,23,0.1c0.3,0,0.7,0,0.9,0.3c-0.4,1.6-0.8,3.2-1.6,4.7c-0.4-0.1-0.7-0.2-1.1-0.1c-1.2,0-2.4,0-3.6,0
		c-6.9-0.3-13.8,0-20.7-0.2c-6.3-0.2-12.7,0-19-0.1C282.7,40.1,281.7,40,280.7,40z"/>
	<path fill="#8B8D8E" d="M291.7,29c0.8-1.8,1.4-3.6,1.8-5.4c0.3-0.2,0.7-0.2,1-0.2c4.6,0,9.1-0.1,13.7,0c5.9,0.2,11.8,0,17.7,0.1
		c1.7,0,3.4,0.2,5,0.2c0.8,0,0.9,0.2,0.9,0.8c-0.1,1.8-0.3,3.6-0.7,5.4c0-0.3-0.1-0.5-0.5-0.6c-0.6-0.1-1.2-0.1-1.8-0.1
		c-4.7,0-9.5,0.1-14.2,0c-7.3-0.2-14.6-0.1-21.9-0.1C292.4,29.1,292,28.8,291.7,29z"/>
	<path fill="#919293" d="M332,14.2c0.2,1.7,0.1,3.3,0.1,5c-0.3,0.2-0.6,0.2-0.9,0.2c-3.7,0-7.5,0.1-11.2,0
		c-4.1-0.2-8.1-0.1-12.2-0.1c-4.3,0-8.6-0.2-12.9-0.2c-0.3,0-0.6,0-0.9-0.2c-0.1-1.7-0.1-3.4,0-5.1c0.3-0.2,0.6-0.2,1-0.2
		c4.8,0,9.7-0.1,14.5,0c6,0.2,12.1,0,18.1,0.1c1.2,0,2.5,0.2,3.7,0.2C331.6,14,331.8,14,332,14.2z"/>
	<path fill="#8A8C8D" d="M249.7,29.6c-0.3,0.1-0.7,0.1-1,0.1c-2.3,0-4.6,0.1-6.8,0c-6.5-0.3-13.1,0-19.6-0.2
		c-3.8-0.1-7.6,0-11.5-0.1c-0.3,0-0.7-0.1-0.7,0.4c-0.4-1.1-0.4-2.2-0.6-3.3c-0.1-0.7-0.2-1.4-0.2-2.1c0.2-0.2,0.6-0.2,0.9-0.2
		c6.8,0.3,13.6,0,20.4,0.2c5.2,0.1,10.4,0,15.6,0.1c0.5,0,1.2-0.1,1.6,0.4C248.4,26.5,249,28.1,249.7,29.6z"/>
	<path fill="#8F9192" d="M209.1,19.9c0-1.3,0-2.6,0-3.9c0-1,0.2-1.2,1.2-1.2c7.3,0.2,14.7,0,22,0.2c4.7,0.1,9.3,0,14,0.1
		c0.6,0,0.8,0.2,0.8,0.8c0,1.4,0,2.9,0,4.3c-0.3,0.3-0.7,0.2-1.1,0.2c-1.9,0.1-3.7-0.1-5.6-0.1c-5,0-10,0.1-15,0
		c-5.1-0.1-10.3-0.1-15.4-0.1C209.7,20.1,209.4,20.2,209.1,19.9z"/>
	<path fill="#8D8F90" d="M294.1,18.9c1.6,0,3.3-0.1,4.9,0c6.5,0.3,13.1,0,19.6,0.2c4.5,0.1,9.1,0,13.6,0.1c0,1,0,2.1,0,3.1
		c-0.2,0.3,0,0.6-0.1,0.9c-0.1,0.4,0.1,0.9-0.1,1.3c0-0.5-0.3-0.6-0.6-0.6c-1.4,0-2.8-0.1-4.2-0.1c-5.6-0.1-11.3,0.1-16.9-0.1
		c-5.6-0.2-11.1,0-16.7-0.1c0.2-1.4,0.4-2.8,0.5-4.3C294.1,19.2,294,19,294.1,18.9z"/>
	<path fill="#8D8E90" d="M209.1,19.9c0.2,0,0.3,0,0.5,0c10.6-0.1,21.3,0.2,31.9,0.2c1.8,0,3.7,0.1,5.5,0.1c0,0.1,0.1,0.2,0.1,0.3
		c0.1,1.5,0.4,3,0.7,4.4c-0.6-0.2-1.2-0.1-1.8-0.1c-4.1,0-8.3,0.1-12.4,0c-6.9-0.2-13.8,0-20.7-0.1c-1.2,0-2.4-0.1-3.6-0.1
		c-0.3-0.9-0.1-1.8-0.3-2.7C209,21.2,209.1,20.5,209.1,19.9z"/>
	<path fill="#939496" d="M332,14.2c-7-0.3-14,0-20.9-0.2c-5.7-0.2-11.3,0-17-0.1c-0.1-1.5-0.1-3,0-4.6c2.2,0,4.4-0.1,6.6,0
		c6.5,0.3,13,0,19.4,0.2c3.2,0.1,6.3,0,9.5,0.1c-0.8,0.9-1.7,1.7-2.6,2.7c1.3,0,2.4,0,3.6,0c1.2,0,1.2,0,1.4,1.1
		C332,13.7,332,14,332,14.2z"/>
	<path fill="#787B7D" d="M271.7,55.4c1.7,0,3.4-0.1,5.1,0c6.3,0.3,12.6,0,18.9,0.2c6.4,0.2,12.8,0,19.2,0.1c1.4,0,2.7,0.1,4.1,0.1
		c0.2,0,0.4,0.1,0.5,0.1c-0.7,1.2-1.6,2.2-2.6,3.3c-0.2-0.2-0.4-0.3-0.6-0.3c-0.1,0-0.2,0-0.3,0c-9.3,0-18.6-0.2-28-0.1
		c-0.7,0-1.4-0.1-2-0.1c0-0.5-0.4-0.4-0.7-0.4c-4.3,0-8.6,0-12.9,0c-0.3,0-0.6,0.1-0.8-0.1C271.7,57.3,271.7,56.4,271.7,55.4z"/>
	<path fill="#6B6F71" d="M250.6,77.1c0.1-0.4,0.5-0.4,0.8-0.4c2.7,0,5.3-0.1,8,0c6,0.3,11.9,0,17.9,0.1c3.9,0.1,7.8,0.1,11.7,0.1
		c0.3,0,0.6,0,0.8,0.3c-1.8,0.8-3.6,1.1-5.5,1.6c-2.3,0.6-4.7,1-7,1.2c-2.8,0.3-5.7,0.4-8.5,0.3c-5.1-0.1-10.1-0.9-15.1-2.3
		C252.7,77.8,251.6,77.4,250.6,77.1z"/>
	<path fill="#939496" d="M332,23.2c0-0.3-0.1-0.6,0.1-0.9C332.1,22.6,332.3,22.9,332,23.2z"/>
	<path fill="#ABABAC" d="M304.8-32.3c1.2,0.6,2.2,1.5,3.3,2.3c1.3,0.9,2.4,2,3.5,3c0,0.3-0.2,0.4-0.4,0.4c-0.1,0-0.3,0.1-0.4,0.1
		c-4.1,0-8.3,0.1-12.4-0.1c-0.4,0-0.7,0-1.1,0c-5.3,0-10.6,0-15.9,0c-1.1,0-2.2-0.2-3.3-0.1c-0.2,0-0.3,0-0.5,0.1
		c-0.5,0.1-0.8-0.1-1.2-0.3c-3.3-1.2-6.6-1.3-10-0.5c-1.5,0.4-2.8,1-4.1,1.8c-0.3,0.2-0.6,0.4-1,0.3c-1-0.1-2-0.2-3-0.2
		c-1.8,0-3.6,0-5.4,0c-7.7,0.1-15.4-0.2-23.1-0.1c-0.3,0-0.5,0-0.8-0.1c-0.2-0.1-0.4-0.1-0.3-0.4c1.2-1.1,2.4-2.2,3.7-3.2
		c1.5-1.2,3-2.3,4.6-3.3c0.1-0.1,0.3-0.2,0.4-0.2c5,0.4,10,0.1,15,0.2c8.1,0.2,16.2,0,24.3,0.2c6.1,0.1,12.1,0,18.2,0.1
		c3,0.1,6,0.1,9,0.1C304.3-32.4,304.5-32.3,304.8-32.3z"/>
	<path fill="#AFAEAF" d="M304.8-32.3c-0.2,0.1-0.5,0.1-0.8,0.1c-2.2,0-4.5,0.1-6.7,0c-6.3-0.3-12.6,0.1-18.9-0.2
		c-6.3-0.2-12.7,0.1-19-0.1c-6.3-0.2-12.7,0-19-0.1c-0.8,0-1.5-0.2-2.3-0.1c-0.2,0-0.4-0.1-0.6-0.3c2.5-1.8,5.3-3.2,8.1-4.4
		c0.5,0.1,1.1,0,1.6,0c4.6,0,9.2-0.1,13.8,0c6.5,0.2,13-0.1,19.5,0.1c4.6,0.1,9.3,0,13.9,0.1c0.5,0,1,0,1.5-0.2c0.1,0,0.3,0,0.4,0.1
		C299.2-35.7,302.2-34.3,304.8-32.3z"/>
	<path fill="#999A9B" d="M211.1,3.2c0.4-1.7,0.8-3.4,1.6-5c3,0.2,6.1-0.1,9.1,0.2c0.3,0,0.6,0,0.9,0c1.9,0,3.8,0,5.6,0
		c8.4-0.1,16.8,0.2,25.3,0.1c0.4,0,0.7,0,1,0.2c0.1,0.1,0.1,0.2,0.1,0.2c0.1,1.5,0.1,3.1,0,4.6c0,0.1-0.1,0.1-0.1,0.2
		c-0.3,0.2-0.7,0.2-1,0.2c-3.4,0-6.8,0.1-10.2,0c-6.2-0.2-12.4,0-18.6-0.1c-4.2-0.1-8.4-0.1-12.5-0.1C211.8,3.7,211.3,3.9,211.1,3.2
		z"/>
	<path fill="#9A9A9C" d="M328.9-1.1c0.6,1.6,1,3.2,1.4,4.8c-0.1,0.4-0.4,0.4-0.7,0.4c-1.6,0-3.1,0.1-4.7-0.1c-0.4,0-0.7,0-1.1,0
		c-2,0-4.1,0-6.1,0c-10.1,0-20.1-0.2-30.1-0.2c-0.6,0-0.7,0.2-0.7,0.7c0,0.5,0,1,0,1.6c0,0.3,0,0.6-0.4,0.7
		c-0.2-0.2-0.2-0.4-0.2-0.6c0-1.5-0.1-3,0-4.4c0.2-0.7,0.1-1.5,0.1-2.2c0-0.9,0.2-1.2,1.1-1.2c3.3,0,6.6-0.2,9.9,0.1
		c0.3,0,0.7,0,1,0c3.1,0,6.2,0,9.3,0c6.7,0,13.4,0.3,20.2,0.1C328.2-1.3,328.6-1.3,328.9-1.1z"/>
	<path fill="#9C9D9E" d="M328.9-1.1c-3.9,0-7.7,0.1-11.5,0c-6.6-0.2-13.1,0-19.7-0.2c-3.3-0.1-6.7,0-10-0.1c-0.9,0-1,0.1-1,1
		c0,0.7,0.1,1.5-0.1,2.2c-0.2-0.2-0.2-0.4-0.2-0.6c0-1.4-0.1-2.8,0-4.2c0.2-0.8,0.1-1.7,0.1-2.5c0-0.9,0.2-1.2,1.1-1.2
		c2.7,0,5.4-0.1,8,0.1c0.3,0,0.5,0,0.8,0c0.8,0,1.7,0,2.5,0c9.1-0.1,18.1,0.2,27.2,0.1c0.2,0,0.4,0,0.6,0.1c0.7,1,1,2.1,1.4,3.2
		C328.5-2.4,328.7-1.7,328.9-1.1z"/>
	<path fill="#9C9D9E" d="M254.6-1.2c-10.7,0.1-21.4-0.3-32-0.1c-0.1,0-0.1,0-0.2,0c-2.9-0.3-5.8-0.1-8.7-0.1c-0.3,0-0.7-0.1-0.9-0.3
		c0.3-1.4,1-2.6,1.5-4c0.1-0.3,0.2-0.5,0.4-0.8c0.3-0.2,0.6-0.2,0.9-0.2c2.7,0,5.5-0.1,8.2,0c4.8,0.2,9.5,0.1,14.3,0.1
		c5.2,0,10.4,0.3,15.7,0.2c0.3,0,0.7,0,1,0.2c0,0.1,0,0,0,0.1c0.3,1.6,0.2,3.3,0,4.9C254.7-1.3,254.6-1.2,254.6-1.2z"/>
	<path fill="#A3A3A4" d="M320.6-17c1.1,1.3,1.9,2.7,2.8,4.1c0.3,0.6,0.6,1.2,1,1.7c-0.3,0.3-0.6,0.2-0.9,0.2c-5.7,0-11.5,0.1-17.2,0
		c-6-0.2-12,0-18-0.1c-0.6,0-1.1,0.1-1.6,0.2c-0.2-0.1-0.3-0.4-0.3-0.6c0-1.6-0.1-3.2-0.4-4.7c0-0.2,0-0.3,0.1-0.5
		c0.3-0.5,0.8-0.4,1.2-0.4c2.3,0,4.6,0,6.9,0c2.3,0,4.5-0.1,6.8,0c6,0.2,12,0.1,18,0.1C319.5-17,320.1-17,320.6-17z"/>
	<path fill="#B1B0B1" d="M295.8-37.3c0,0.5-0.4,0.4-0.8,0.4c-4.4,0-8.7,0.1-13,0c-6.2-0.2-12.4,0.1-18.7-0.1
		c-5.8-0.2-11.5,0-17.3-0.1c-0.1,0-0.6,0.2-0.4-0.3c0.2-0.1,0.5-0.2,0.7-0.3c0.2,0,0.3,0,0.4-0.1c0.9-0.5,1.8-0.8,2.7-1.1
		c3-1.1,6.1-2,9.3-2.6c1.9-0.4,3.9-0.6,5.9-0.9c3.1-0.4,6.2-0.4,9.2-0.2c4.6,0.2,9.1,1,13.6,2.2C290.3-39.6,293.1-38.5,295.8-37.3z"
		/>
	<path fill="#A2A2A3" d="M254.6-1.2c0-1.7,0-3.3,0-5c-0.2-0.3-0.2-0.6-0.2-0.9c0-0.9,0-1.9,0-2.8c0-0.8-0.1-0.9-0.9-0.9
		c-3.4,0-6.8,0.1-10.1,0c-6.7-0.2-13.3,0-20-0.2c-1.8,0-3.6-0.1-5.4-0.1c-0.3,0-0.7,0.1-0.8-0.4c1-1.8,2-3.6,3.3-5.1
		c0.2-0.1,0.3-0.2,0.5-0.2c5.9,0.1,11.8-0.1,17.7,0.1c5.1,0.2,10.3,0,15.4,0.1c0.4,0,0.8-0.1,1.1,0.3c0.1,0.3,0.1,0.6,0,0.8
		c-0.2,1.1-0.2,2.2-0.2,3.3c0,10.5,0,21,0,31.5c0,0.4,0.1,0.9-0.2,1.3c-0.5,0-0.4-0.4-0.4-0.7c0-1.1,0-2.2,0-3.2c0-1.5,0-3,0-4.6
		c0-1.2,0-2.5,0-3.7c0-1.3,0-2.6,0-3.9c0-0.3,0-0.6,0.2-0.8C254.6,2.1,254.6,0.5,254.6-1.2z"/>
	<path fill="#9F9FA1" d="M286.6-10.9c0.3-0.4,0.7-0.5,1.2-0.4c0.1,0,0.2,0,0.4,0c12.1-0.1,24.1,0.2,36.2,0.1c1,1.5,1.8,3.2,2.4,4.8
		c-0.3,0.2-0.5,0.1-0.8,0.1c-3.7,0-7.3,0.1-11,0c-6.4-0.2-12.7,0-19.1-0.2c-2.8-0.1-5.5,0-8.2-0.1c-0.9,0-0.9,0.1-1,1
		c0,0.8,0.1,1.7-0.1,2.5c-0.3-0.3-0.2-0.6-0.2-0.9c0-2,0-4,0-6C286.3-10.3,286.3-10.6,286.6-10.9z"/>
	<path fill="#A7A7A8" d="M228.8-26.3c0,0.2,0.1,0.3,0.3,0.3c0.1,0,0.3,0,0.4,0c9.7,0,19.5,0.2,29.2,0.1c0.8,0,1.5,0.2,2.3,0.1
		c0.2,0,0.4,0.1,0.5,0.3c-0.3,0.6-1,1-1.5,1.4c-1.2,1.1-2.2,2.4-3,3.7c-0.2,0.3-0.4,0.6-0.8,0.5c-6.3-0.3-12.7,0-19-0.2
		c-4.2-0.1-8.4,0-12.7-0.1c-0.4,0-1,0.2-1.2-0.5C225-22.6,226.8-24.5,228.8-26.3z"/>
	<path fill="#9F9FA0" d="M217.1-11.5c0.2,0.2,0.5,0.1,0.7,0.1c7.7,0.2,15.4,0,23.1,0.2c4.3,0.1,8.6,0,12.9,0.1
		c0.6,0,0.7,0.2,0.7,0.7c0,1.4,0,2.8,0,4.1c-8.5,0.1-17-0.3-25.6-0.1c-1,0-2,0.1-3,0c-3.8-0.2-7.7-0.1-11.5-0.1
		C215.3-8.2,216-9.9,217.1-11.5z"/>
	<path fill="#A9A8A9" d="M277.4-26.8c0.7-0.5,1.5-0.2,2.3-0.2c0.3,0,0.6,0.1,0.9,0.1c0.7,0,1.4,0,2.1,0c9.3-0.1,18.6,0.2,27.9,0.1
		c0.3,0,0.7,0.1,1-0.3c1.8,1.5,3.5,3.2,5,5c0.1,0.2,0.2,0.3,0.4,0.4c0,0.5-0.4,0.5-0.7,0.5c-0.7,0-1.5,0.1-2.2,0
		c-2.1-0.2-4.3-0.1-6.4-0.1c-3.6,0-7.3,0.1-10.9,0c-3.8-0.1-7.6-0.1-11.4-0.1c-0.4,0-0.8,0-1.2,0.1c-0.5,0.2-0.7-0.2-0.9-0.5
		c-1.2-1.5-2.5-2.8-4.2-3.8c-0.4-0.2-0.8-0.4-1.2-0.7C277.8-26.4,277.5-26.4,277.4-26.8z"/>
	<path fill="#A6A6A7" d="M284-21.3c0.1-0.4,0.4-0.3,0.6-0.3c3.1,0,6.3-0.1,9.4,0c5.8,0.2,11.5,0.1,17.3,0.1c1.7,0,3.4,0.3,5,0.2
		c0.3,0,0.6,0.1,0.7-0.3c1.2,1.2,2.2,2.6,3.1,4c0.1,0.2,0.3,0.4,0.4,0.6c-0.1,0.4-0.3,0.3-0.6,0.3c-5.5,0-11.1,0.1-16.6,0
		c-5.5-0.2-11.1,0-16.6-0.1c-0.3,0-0.6-0.1-0.8,0.3c-0.3,0-0.3-0.3-0.4-0.5c-0.4-1.3-0.9-2.5-1.6-3.6C284-20.9,283.8-21,284-21.3z"
		/>
	<path fill="#979799" d="M286.6,6.8c0.3-0.8,0.1-1.7,0.1-2.5c0-0.5,0-0.9,0.7-0.6c0.1,0.1,0.3,0,0.5,0c11.9-0.1,23.9,0.2,35.8,0.2
		c2,0,3.9,0.1,5.9,0.1c0.2,0,0.5,0.1,0.7-0.1c0.3,0.8,0.4,1.6,0.5,2.4c0.1,0.5-0.2,0.8-0.8,0.8c-4.5,0-9.1,0.1-13.6,0
		c-6.1-0.2-12.3,0-18.4-0.1c-1.1,0-2.2-0.2-3.3-0.2c-0.5,0-0.7,0.2-0.6,0.7c0,0.7,0,1.4,0,2.1c0,1.5,0,3,0,4.6c0,1.7,0,3.3,0,5
		c0,0.2,0,0.3-0.1,0.4c0-4.4,0-8.9,0-13.3c0-0.3,0.2-0.7-0.2-0.7c-0.4-0.1-0.9-0.1-1.3,0c-0.3,0.1-0.1,0.4-0.1,0.6
		c0,4.2,0,8.3,0,12.5c0,0.3,0.1,0.7-0.1,1c-0.2-0.2-0.2-0.5-0.2-0.8c0-1.4,0-2.9,0-4.3c0-1.4,0-2.9,0-4.3c0-0.9-0.1-0.9-0.9-0.9
		c-1,0-2-0.2-3.1-0.2c-1.1,0-1.1,0-1.1,1.1c0,0.3,0,0.7,0,1c0,0.2,0,0.5-0.4,0.4c-0.2-0.2-0.2-0.5-0.2-0.7c0-1,0-2,0-3
		C286.3,7.3,286.3,7,286.6,6.8z"/>
	<path fill="#A5A5A6" d="M223.4-20.6c0.1,0.2,0.2,0.3,0.5,0.3c0.1,0,0.2,0,0.4,0c10.1,0,20.1,0.2,30.2,0.2c0.7,0,1.4,0,2.1,0.3
		c-0.3,1.2-0.8,2.4-1.2,3.6c0,0.1-0.1,0.1-0.2,0.1c-0.2-0.3-0.5-0.2-0.7-0.2c-10.2,0.1-20.4-0.2-30.6-0.1c-1.1,0-2.2,0.1-3.3-0.1
		c0.4-1,1.3-1.7,1.9-2.6C222.6-19.7,223-20.1,223.4-20.6z"/>
	<path fill="#969799" d="M254.6,3.8c0,1.6,0,3.1,0,4.7c-0.3,0.2-0.6,0.2-0.9,0.2c-1.2,0-2.4-0.1-3.6-0.1c-0.8,0-0.9,0-0.9,0.9
		c0,0.9,0,1.9,0,2.8c0,1.5,0,2.9,0,4.4c0,0.7,0,1.3,0,2c0,0.3,0,0.6-0.2,0.8c-0.2-0.3-0.1-0.7-0.1-1c0-4.1,0-8.2,0-12.4
		c0-0.7-0.2-0.8-0.8-0.8c-0.6,0-1,0-0.9,0.8c0,0.2,0,0.3,0,0.5c-2.2,0-4.3,0.1-6.5,0c-6.4-0.3-12.8,0-19.1-0.2
		c-3.4-0.1-6.9,0-10.3-0.1c-0.6,0-0.7-0.2-0.6-0.7c0.2-0.8,0.3-1.6,0.6-2.3c0.2,0.3,0.6,0.3,0.9,0.3c8.5-0.1,17,0.2,25.5,0.2
		C243.2,3.7,248.9,3.8,254.6,3.8z"/>
	<path fill="#AFAEAF" d="M246.7-37.9c-0.1,0.3-0.2,0.4-0.4,0.1C246.4-37.9,246.6-37.8,246.7-37.9z"/>
	<path fill="#858788" d="M285.7,34.3c-1.4,1.4-2.9,2.6-4.7,3.4c-0.4-0.1-0.9,0-1.3,0c-3,0-6.1,0-9.1,0c-3.4,0-6.9-0.3-10.3-0.1
		c-0.1,0-0.2,0-0.3,0c-1.3-0.7-2.5-1.5-3.6-2.5c0-0.5,0.4-0.5,0.7-0.5c1.6,0,3.3-0.1,4.9,0c1.2,0.1,2.4,0.1,3.5,0
		c0.7,0.1,1.4,0.2,2.1,0.4c3,0.6,6,0.3,8.9-0.8c0.5-0.2,0.9-0.4,1.4-0.4c0.2,0.1,0.4,0,0.6,0c2.1-0.1,4.3,0.2,6.4,0.2
		C285.2,34,285.5,33.9,285.7,34.3z"/>
	<path fill="#838587" d="M259.9,37.6c0.1-0.4,0.4-0.3,0.6-0.3c1.8,0,3.6-0.1,5.3,0c4.8,0.3,9.6,0,14.4,0.1c0.3,0,0.6-0.2,0.8,0.3
		c-4.4,2.4-9.2,3.2-14.2,2.4c-2.2-0.4-4.3-1.1-6.3-2.1C260.3,37.9,260.1,37.7,259.9,37.6z"/>
	<path fill="#8F9192" d="M292.2,14.2c0,1.7,0,3.4,0,5.2c0,0.6,0.1,1.3-0.1,1.9c-0.3-0.4-0.7-0.6-1.2-0.5c-1.2,0-2.3,0-3.5,0
		c-0.3,0-0.7,0-0.9-0.2c-0.4-1-0.2-2.1-0.1-3.2c0.2-0.8,0.1-1.6,0.1-2.4c0-0.9,0.1-1.1,1.1-1.1c1.1,0,2.1,0,3.2,0
		C291.3,13.9,291.8,13.9,292.2,14.2z"/>
	<path fill="#86888A" d="M265.6,34.7c-1.2,0.3-2.4,0.2-3.7,0.1c-1.7-0.1-3.4,0-5.1-0.1c-0.2,0-0.4,0.1-0.5,0.3
		c-1.5-1.2-2.8-2.7-3.9-4.4c-0.1-0.6,0.4-0.5,0.7-0.5c1.3,0.1,2.5,0,3.8,0.1c0.5,0,1-0.1,1.6-0.1c0.4,0,0.6,0.2,0.8,0.5
		c1.6,1.7,3.6,2.9,5.7,3.7C265.3,34.4,265.6,34.4,265.6,34.7z"/>
	<path fill="#8C8E8F" d="M286.6,20.5c1.6,0,3.2,0,4.7,0c0.6,0,0.9,0.1,0.8,0.8c-0.1,1.8-0.6,3.6-1.3,5.3c-1.5-0.2-3-0.1-4.5-0.1
		c-0.4,0-0.7,0-1-0.1c-0.3-0.2-0.2-0.4-0.1-0.6c0.6-1.5,0.9-3.1,1.1-4.7C286.4,20.8,286.4,20.6,286.6,20.5z"/>
	<path fill="#898B8D" d="M258.7,30.3c-1.5,0.2-2.9,0.1-4.4,0.1c-0.4,0-0.8,0-1.2-0.1c-0.2-0.1-0.6-0.1-0.7,0.3
		c-1-1.4-1.8-2.9-2.3-4.6c0.1-0.3,0.4-0.4,0.7-0.4c1.6,0,3.2-0.1,4.8,0c0.3,0.1,0.4,0.2,0.5,0.5c0.7,1.3,1.5,2.6,2.5,3.7
		C258.7,30,258.8,30.1,258.7,30.3z"/>
	<path fill="#87898B" d="M285.7,34.3c-0.1-0.1-0.3-0.1-0.5-0.1c-2.2,0.1-4.5-0.2-6.7-0.1c-0.2,0-0.5,0.1-0.6-0.2
		c0-0.3,0.3-0.4,0.5-0.5c1.3-0.8,2.6-1.7,3.7-2.9c0.2-0.2,0.5-0.5,0.9-0.4c1.7,0,3.3,0,5,0c0.3,0,0.9-0.1,0.8,0.5
		c-0.8,1.1-1.5,2.2-2.4,3.1C286.1,34,285.9,34.2,285.7,34.3z"/>
	<path fill="#8C8E8F" d="M255.9,25.9c-1.6,0-3.2,0-4.8,0c-0.3,0-0.6,0-0.9,0.2c-0.6-1.6-1-3.2-1.1-4.9c0.1-0.1,0.3-0.2,0.4-0.2
		c1.7,0,3.4-0.1,5.2,0.1c0.3,0.2,0.4,0.5,0.4,0.8c0.2,1.2,0.5,2.3,0.9,3.5C255.9,25.5,256,25.7,255.9,25.9z"/>
	<path fill="#8F9092" d="M254.7,21.2c-1.9,0-3.8,0-5.7,0c-0.2-0.6-0.1-1.2-0.1-1.8c0-0.9,0-1.8,0-2.7c0.5-0.4,1.1-0.3,1.6-0.2
		c1.1,0.1,2.2,0.1,3.2,0.1c0.3,0,0.6,0,0.8,0.2c0,1.1,0,2.2,0,3.3c0,0.2-0.1,0.5,0.1,0.7C254.9,20.9,254.9,21.1,254.7,21.2z"/>
	<path fill="#898B8D" d="M288.7,30.6c-0.1-0.4-0.4-0.3-0.7-0.3c-1.5,0-3,0-4.5,0c-0.3,0-0.6,0-0.9-0.2c0-0.1,0-0.2,0.1-0.3
		c0.8-1.1,1.6-2.3,2.3-3.6c0-0.1,0.1-0.1,0.2-0.1c1.6,0,3.2,0,4.8,0c0.3,0,0.6-0.1,0.8,0.3C290.3,28,289.6,29.4,288.7,30.6z"/>
	<path fill="#FEFEFE" d="M285.3,26.2c-0.7,1.4-1.6,2.8-2.6,4c-1.4,1.5-3,2.7-4.8,3.7c-2.6,1.2-5.3,1.8-8.2,1.6
		c-1.4-0.1-2.7-0.3-4-0.7c-2.6-0.9-4.9-2.4-6.9-4.4c-1.1-1.4-2.1-2.8-2.8-4.4c-0.6-1.5-1-3.1-1.1-4.7c0-0.1,0-0.3,0-0.4
		c0-0.3,0-0.7,0-1c0-10.7,0-21.5,0-32.2c0-1.2,0.2-2.5,0.3-3.7c0.4-1,0.6-2.1,1.1-3.1c0.1-0.2,0.2-0.4,0.3-0.6
		c1-1.7,2.3-3.2,3.7-4.6c0.4-0.4,0.9-0.6,1.3-1c1-0.5,2-1.1,3-1.5c4.2-1.6,8.3-1.6,12.5,0.1c0.2,0.1,0.3,0.1,0.5,0.2
		c2,1,3.8,2.3,5.3,4c0.4,0.5,0.8,1,1.3,1.5c0.9,1.5,1.6,3.1,2.1,4.7c0.4,1.9,0.5,3.8,0.5,5.7c0,2.6,0,5.2,0,7.8c0,1.6,0,3.2,0,4.8
		c0,1.7,0,3.3,0,5c0,1.5,0,3,0,4.6c0.4,0.7,0.3,1.4,0.2,2.1c-0.2,1.2-0.1,2.3-0.1,3.4c0,0.1,0,0.3,0,0.4c0,1,0,2.1,0,3.1
		C286.5,22.5,286,24.4,285.3,26.2z"/>
	<path fill="#919294" d="M254.6,16.8c-1.9,0.1-3.8-0.2-5.7-0.1c0-1.5,0-2.9,0-4.4c0.2-0.2,0.5-0.2,0.8-0.2c1.4,0,2.7,0,4.1,0
		c0.3,0,0.6,0,0.8,0.2C254.6,13.7,254.6,15.3,254.6,16.8z"/>
	<path fill="#949596" d="M254.6,12.2c-1.9,0-3.8,0-5.7,0c0-1.1,0-2.2,0-3.3c0-0.5,0.2-0.6,0.6-0.6c1.7,0.1,3.4,0.2,5.1,0.1
		C254.6,9.7,254.6,11,254.6,12.2z"/>
	<path fill="#949596" d="M286.6,17.3c0-2,0-4,0-6c0.3-0.7,0.1-1.4,0.1-2.1c0-0.4,0.1-0.6,0.5-0.6c1.5,0,3.1,0.2,4.6,0.2
		c0.4,0,0.4,0.3,0.4,0.6c0,1.6,0,3.2,0,4.8c-1.6-0.2-3.3-0.1-4.9-0.2c-0.5,0-0.7,0.2-0.7,0.7C286.7,15.6,286.8,16.5,286.6,17.3z"/>
</g>
<g>
	
		<rect x="410.6" y="10.8" transform="matrix(0.7074 0.7068 -0.7068 0.7074 146.1539 -280.0849)" fill="#AFAEAF" width="1.5" height="51.4"/>
	
		<rect x="410.6" y="-24.5" transform="matrix(-0.7071 0.7071 -0.7071 -0.7071 703.0902 -288.8181)" fill="#AFAEAF" width="1.5" height="51.4"/>
</g>
</svg>
