<?xml version="1.0" encoding="utf-8"?>
<!-- Generator: Adobe Illustrator 18.1.1, SVG Export Plug-In . SVG Version: 6.00 Build 0)  -->
<svg version="1.1" id="Layer_1" xmlns="http://www.w3.org/2000/svg" xmlns:xlink="http://www.w3.org/1999/xlink" x="0px" y="0px"
	 viewBox="0 0 377.867 140" enable-background="new 0 0 377.867 140" xml:space="preserve">
<g>
	<g>
		<g>
			<g>
				<linearGradient id="SVGID_1_" gradientUnits="userSpaceOnUse" x1="315.6508" y1="20.1651" x2="449.7816" y2="256.0498">
					<stop  offset="0" style="stop-color:#00FFFF"/>
					<stop  offset="1" style="stop-color:#23C920"/>
				</linearGradient>
				<path fill="url(#SVGID_1_)" d="M376.656,40.618l-40.768,83.543c-1.605,2.779-4.594,4.506-7.803,4.506
					c-3.21,0-6.195-1.727-7.802-4.506l-40.768-83.543c-2.481-4.302-1.005-9.821,3.3-12.306c1.369-0.792,2.925-1.21,4.498-1.21
					c3.215,0,6.205,1.729,7.809,4.505l32.963,67.705l32.966-67.705c1.602-2.776,4.596-4.505,7.809-4.505
					c1.572,0,3.129,0.418,4.5,1.21c2.082,1.201,3.572,3.146,4.194,5.469C378.18,36.106,377.858,38.533,376.656,40.618z"/>
			</g>
		</g>
		
			<radialGradient id="SVGID_2_" cx="376.3833" cy="-18.0491" r="189.2489" gradientTransform="matrix(1 0 0 1 -91.623 -14.6641)" gradientUnits="userSpaceOnUse">
			<stop  offset="0.1665" style="stop-color:#E6FA00"/>
			<stop  offset="1" style="stop-color:#4ADEDB"/>
		</radialGradient>
		<path fill="url(#SVGID_2_)" d="M350.815,2.024h-45.456c-4.957,0-8.988,4.033-8.988,8.988c0,4.954,4.031,8.986,8.988,8.986
			l45.456,0.002c4.956,0,8.989-4.031,8.989-8.988C359.805,6.058,355.771,2.024,350.815,2.024z"/>
	</g>
	<g>
		<path fill-rule="evenodd" clip-rule="evenodd" fill="#969799" d="M2.387,70.565c0.295-0.591,0.199-1.243,0.244-1.86
			c0.959-12.977,5.467-24.581,13.425-34.857c1.337-1.726,2.747-3.39,4.299-4.929c0.152-0.026,0.196,0.067,0.212,0.191
			c-0.236,0.618-0.737,1.043-1.162,1.508c-3.738,4.095-6.84,8.622-9.392,13.543c-3.201,6.174-5.309,12.697-6.355,19.564
			c-0.418,2.746-0.625,5.508-0.673,8.293C2.898,77.1,3.321,82.122,4.42,87.083c1.037,4.679,2.576,9.187,4.632,13.52
			c2.532,5.337,5.748,10.221,9.625,14.67c0.747,0.857,1.496,1.72,2.316,2.514c0.234,0.228,0.512,0.434,0.574,0.792
			c-0.017,0.125-0.062,0.218-0.214,0.192c-2.023-1.878-3.791-3.986-5.478-6.16c-4.657-6-8.137-12.626-10.432-19.867
			c-1.341-4.236-2.261-8.564-2.647-12.997c-0.109-1.251-0.192-2.505-0.288-3.757c-0.094-0.298-0.026-0.603-0.046-0.903
			c0-0.998,0-1.996,0-2.993c-0.04-0.366,0.084-0.744-0.074-1.102C2.387,70.85,2.387,70.708,2.387,70.565z"/>
		<path fill-rule="evenodd" clip-rule="evenodd" fill="#D2D2D3" d="M64.712,9.096c1.283,0,2.567,0,3.85,0
			c0.043,0.095,0.02,0.171-0.068,0.227c-1.238,0.186-2.476,0.186-3.715,0.001C64.692,9.268,64.669,9.191,64.712,9.096z"/>
		<path fill-rule="evenodd" clip-rule="evenodd" fill="#D2D2D3" d="M68.562,137.596c-1.283,0-2.567,0-3.85,0
			c-0.043-0.096-0.02-0.171,0.068-0.228c1.238-0.187,2.476-0.186,3.715-0.001C68.582,137.424,68.605,137.501,68.562,137.596z"/>
		<path fill-rule="evenodd" clip-rule="evenodd" fill="#D6D6D7" d="M130.887,71.706c0,1.094,0,2.187,0,3.281
			c-0.094,0.042-0.168,0.02-0.226-0.066c-0.186-1.05-0.186-2.099-0.001-3.15C130.718,71.685,130.793,71.663,130.887,71.706z"/>
		<path fill-rule="evenodd" clip-rule="evenodd" fill="#D0D0D1" d="M2.51,71.987c0,1.05,0,2.1,0,3.15
			c-0.045,0.057-0.086,0.051-0.123-0.009c0-1.045,0-2.091,0-3.138C2.425,71.928,2.467,71.927,2.51,71.987z"/>
		<path fill-rule="evenodd" clip-rule="evenodd" fill="#DCDCDC" d="M2.51,71.987c-0.041,0.001-0.082,0.002-0.123,0.004
			c0-0.332,0-0.665,0-0.998C2.675,71.294,2.475,71.655,2.51,71.987z"/>
		<path fill-rule="evenodd" clip-rule="evenodd" fill="#E8E8E9" d="M2.387,75.128c0.041,0.004,0.082,0.007,0.123,0.009
			c-0.001,0.284-0.001,0.569-0.003,0.854c-0.04,0-0.08-0.002-0.12-0.007C2.387,75.699,2.387,75.414,2.387,75.128z"/>
		<path fill-rule="evenodd" clip-rule="evenodd" fill="#EAEAEA" d="M130.767,74.993c0.041,0.001,0.08,0,0.12-0.007
			c0,0.285,0,0.57,0,0.855l-0.061,0.005l-0.061,0C130.504,75.562,130.504,75.277,130.767,74.993z"/>
		<path fill-rule="evenodd" clip-rule="evenodd" fill="#E6E6E6" d="M130.887,71.706c-0.04-0.004-0.082-0.006-0.123-0.004
			c-0.229-0.24-0.23-0.478,0.004-0.715c0.04-0.004,0.08-0.001,0.119,0.006C130.887,71.23,130.887,71.468,130.887,71.706z"/>
		<path fill-rule="evenodd" clip-rule="evenodd" fill="#ECEDED" d="M68.571,9.218c-0.004-0.041-0.007-0.082-0.009-0.123
			c0.238,0,0.476,0,0.713,0c0.001,0.04,0.002,0.079,0.005,0.118C69.045,9.449,68.808,9.447,68.571,9.218z"/>
		<path fill-rule="evenodd" clip-rule="evenodd" fill="#ECECEC" d="M64.703,137.474c0.004,0.04,0.007,0.082,0.009,0.122
			c-0.238,0-0.476,0-0.713,0c-0.001-0.04-0.003-0.08-0.005-0.119C64.229,137.243,64.466,137.245,64.703,137.474z"/>
		<path fill-rule="evenodd" clip-rule="evenodd" fill="#ECECEC" d="M64.712,9.096c-0.001,0.041-0.004,0.082-0.009,0.122
			c-0.237,0.23-0.474,0.231-0.709-0.003c0.002-0.039,0.004-0.078,0.005-0.118C64.236,9.096,64.474,9.096,64.712,9.096z"/>
		<path fill-rule="evenodd" clip-rule="evenodd" fill="#ECEDED" d="M68.562,137.596c0.002-0.041,0.004-0.082,0.009-0.122
			c0.237-0.23,0.474-0.231,0.709,0.003c-0.002,0.039-0.004,0.079-0.005,0.119C69.038,137.596,68.8,137.596,68.562,137.596z"/>
		<path fill-rule="evenodd" clip-rule="evenodd" fill="#969799" d="M69.28,137.478c-0.236-0.001-0.473-0.002-0.709-0.003
			c-1.29,0-2.578,0-3.868,0c-0.237,0.001-0.473,0.003-0.709,0.003c-9.277-0.412-18.077-2.663-26.362-6.871
			c-5.301-2.692-10.148-6.04-14.5-10.098c-0.606-0.566-1.255-1.086-1.779-1.737c0.049-0.05,0.099-0.1,0.147-0.15
			c0.344-0.066,0.514,0.199,0.713,0.387c1.848,1.747,3.76,3.418,5.777,4.972c2.661,2.051,5.477,3.861,8.43,5.455
			c6.203,3.347,12.787,5.577,19.737,6.763c4.687,0.8,9.414,1.001,14.133,0.742c9.31-0.51,18.114-2.979,26.346-7.395
			c4.692-2.515,9.012-5.557,12.939-9.161c0.639-0.586,1.189-1.297,2.003-1.682c0.124,0.014,0.219,0.056,0.197,0.209
			c-2.145,2.229-4.516,4.202-6.997,6.04c-7.212,5.339-15.2,9.002-23.951,10.996C77.026,136.812,73.173,137.302,69.28,137.478z"/>
		<path fill-rule="evenodd" clip-rule="evenodd" fill="#969799" d="M130.768,70.986c-0.002,0.238-0.003,0.476-0.004,0.715
			c0.001,1.097,0.002,2.194,0.003,3.292c0,0.285-0.001,0.568-0.001,0.854c-0.392,9.314-2.647,18.147-6.86,26.47
			c-0.748,1.477-1.519,2.945-2.441,4.326c-0.152,0.016-0.202-0.084-0.231-0.206c0.142-0.771,0.654-1.362,1.017-2.018
			c3.696-6.674,6.137-13.768,7.332-21.308c0.698-4.408,0.861-8.844,0.643-13.275c-0.368-7.488-2.067-14.702-5.037-21.596
			c-1.544-3.583-3.385-7.012-5.558-10.257c-0.209-0.312-0.475-0.601-0.517-1.001c0.017-0.125,0.058-0.229,0.215-0.213
			c2.12,2.907,3.866,6.034,5.4,9.28c2.416,5.112,4.107,10.461,5.096,16.027C130.349,65.022,130.656,67.994,130.768,70.986z"/>
		<path fill-rule="evenodd" clip-rule="evenodd" fill="#9A9B9D" d="M121.319,106.478c0.048,0.055,0.097,0.11,0.146,0.165
			c-2.688,4.517-5.918,8.606-9.69,12.269c-0.053-0.049-0.105-0.098-0.158-0.146c-0.055-0.314,0.187-0.47,0.362-0.649
			c2.26-2.31,4.354-4.76,6.246-7.381c0.875-1.211,1.721-2.443,2.509-3.714C120.876,106.791,120.95,106.47,121.319,106.478z"/>
		<path fill-rule="evenodd" clip-rule="evenodd" fill="#969799" d="M63.994,9.214c0.236,0.001,0.473,0.002,0.709,0.004
			c1.29,0,2.578,0,3.868,0c0.237-0.002,0.473-0.003,0.709-0.004c9.626,0.424,18.716,2.848,27.248,7.328
			c4.921,2.585,9.429,5.765,13.508,9.545c0.347,0.322,0.682,0.656,1.022,0.984c0.018,0.153-0.077,0.191-0.201,0.204
			c-0.608-0.252-1.037-0.746-1.505-1.17c-5.005-4.535-10.587-8.178-16.754-10.934c-4.973-2.222-10.148-3.75-15.511-4.68
			c-4.681-0.81-9.407-0.985-14.125-0.74c-7.829,0.408-15.351,2.245-22.497,5.496c-6.028,2.743-11.546,6.287-16.452,10.759
			c-0.5,0.456-0.95,0.999-1.605,1.27c-0.125-0.015-0.219-0.058-0.196-0.211c2.008-2.03,4.209-3.835,6.51-5.515
			c7.164-5.232,15.074-8.841,23.727-10.809C56.25,9.877,60.101,9.393,63.994,9.214z"/>
		<path fill-rule="evenodd" clip-rule="evenodd" fill="#9B9C9D" d="M119.329,36.768c-0.049,0.055-0.097,0.109-0.146,0.164
			c-0.298,0.027-0.403-0.213-0.535-0.4c-1.869-2.636-3.943-5.102-6.163-7.448c-0.161-0.171-0.349-0.33-0.351-0.597
			c0.035-0.108,0.084-0.193,0.22-0.142C114.949,30.928,117.294,33.719,119.329,36.768z"/>
		<path fill-rule="evenodd" clip-rule="evenodd" fill="#A0A1A3" d="M112.354,28.345c-0.053,0.057-0.106,0.114-0.16,0.171
			c-0.644-0.221-1.076-0.654-1.298-1.298c0.054-0.048,0.108-0.098,0.163-0.147C111.548,27.438,111.968,27.874,112.354,28.345z"/>
		<path fill-rule="evenodd" clip-rule="evenodd" fill="#A0A1A3" d="M22.211,27.066c0.054,0.05,0.108,0.1,0.161,0.15
			c-0.395,0.849-1.023,1.465-1.863,1.87c-0.051-0.056-0.103-0.111-0.154-0.167C20.92,28.248,21.534,27.625,22.211,27.066z"/>
		<path fill-rule="evenodd" clip-rule="evenodd" fill="#FDFDFD" d="M20.509,29.086c0.621-0.623,1.241-1.247,1.863-1.87
			c2.718-2.484,5.54-4.839,8.604-6.896c7.475-5.017,15.647-8.307,24.5-9.905c4.929-0.888,9.91-1.165,14.896-0.851
			c14.092,0.887,26.576,5.881,37.43,14.919c1.058,0.88,2.063,1.822,3.093,2.735c0.432,0.433,0.865,0.865,1.298,1.298
			c2.529,2.64,4.842,5.457,6.988,8.415c2.05,3.09,3.932,6.276,5.479,9.652c2.628,5.732,4.378,11.714,5.254,17.963
			c0.57,4.063,0.728,8.142,0.51,12.223c-0.521,9.773-3.144,18.964-7.905,27.531c-0.402,0.725-0.802,1.451-1.203,2.177
			c-1.114,1.615-2.15,3.282-3.317,4.862c-1.945,2.634-4.131,5.057-6.384,7.425c-2.176,2.019-4.38,4.003-6.765,5.778
			c-8.101,6.032-17.126,9.932-27.058,11.731c-4.928,0.893-9.911,1.158-14.9,0.855c-12.728-0.773-24.228-4.989-34.479-12.576
			c-2.235-1.654-4.337-3.474-6.333-5.413c-0.185-0.181-0.387-0.346-0.582-0.518c-1.843-1.98-3.683-3.962-5.342-6.107
			c-5.781-7.474-9.726-15.813-11.846-25.02c-1.357-5.893-1.813-11.873-1.458-17.893c0.698-11.831,4.43-22.651,11.114-32.446
			C15.926,34.285,18.161,31.641,20.509,29.086z"/>
		<path fill-rule="evenodd" clip-rule="evenodd" fill="#939495" d="M127.884,64.857c0.358,1.797,0.471,3.624,0.55,5.446
			c0.328,7.562-0.6,14.961-2.953,22.174c-1.988,6.099-4.853,11.747-8.592,16.954c-4.226,5.884-9.333,10.875-15.304,14.971
			c-5.867,4.023-12.244,6.952-19.127,8.766c-3.816,1.006-7.693,1.633-11.635,1.889c-10.636,0.688-20.805-1.128-30.444-5.699
			c-13.257-6.288-23.076-16.084-29.535-29.236C8.096,94.524,6.338,88.6,5.412,82.435C4.79,78.289,4.654,74.112,4.85,69.931
			c0.1-2.13,0.296-4.259,0.703-6.36c0.127-0.331,0.387-0.459,0.72-0.488c0.285-0.025,0.569-0.022,0.854-0.022
			c2.801-0.001,5.604-0.045,8.404,0.008c8.093,0.154,16.186,0.116,24.28,0.156c1.073,0.006,2.178-0.016,3.236,0.301
			c0.203,0.233,0.216,0.523,0.209,0.805c-0.078,3.215,0.244,6.424,0.149,9.641c-0.01,0.328,0.027,0.667-0.17,0.963
			c-0.273,0.143-0.295-0.09-0.37-0.244c-0.129-1.302-0.032-2.607-0.059-3.911c-0.019-0.922-0.058-0.968-0.961-0.984
			c-0.095-0.001,0.024-0.001-0.071,0c-9.992,0.059-19.982-0.249-29.974-0.147c-1.755,0.018-3.504-0.216-5.263-0.142
			c-1.026,0.044-1.189,0.184-1.209,1.219c-0.022,1.21,0.023,2.421-0.022,3.631c-0.036,1.53,0.112,3.052,0.225,4.575
			c0.142,1.814,0.381,3.617,0.697,5.408c0.315,1.683,0.697,3.351,1.135,5.005c0.435,1.842,1.106,3.608,1.705,5.398
			c0.638,1.697,1.312,3.378,2.123,4.999c0.782,1.656,1.63,3.275,2.564,4.85c1.09,1.861,2.313,3.634,3.573,5.382
			c1.35,1.769,2.765,3.485,4.256,5.139c1.8,1.821,3.574,3.672,5.576,5.28c2.367,1.954,4.835,3.764,7.453,5.37
			c3.874,2.305,7.902,4.278,12.197,5.68c4.198,1.445,8.509,2.391,12.915,2.891c3.618,0.41,7.244,0.433,10.881,0.233
			c5.162-0.283,10.164-1.336,15.071-2.91c4.312-1.393,8.454-3.164,12.322-5.545c1.955-1.084,3.759-2.394,5.551-3.721
			c0.628-0.466,1.252-0.937,1.849-1.444c1.812-1.518,3.582-3.083,5.239-4.772c0.199-0.202,0.408-0.395,0.565-0.635
			c0.537-0.67,1.2-1.226,1.735-1.898c0.962-1.005,1.803-2.108,2.606-3.24c1.094-1.283,2.005-2.694,2.884-4.126
			c0.211-0.343,0.409-0.691,0.651-1.013c1.136-1.776,2.095-3.646,2.992-5.55c0.782-1.506,1.398-3.083,2.005-4.664
			c0.594-1.547,1.105-3.12,1.555-4.715c0.605-1.966,0.974-3.987,1.406-5.994c0.298-1.763,0.523-3.536,0.703-5.315
			c0.158-0.425,0.048-0.883,0.151-1.315c0.11-0.319,0.094-0.646,0.069-0.975c0-1.01-0.022-2.019,0.007-3.026
			c-0.019-1.624,0.018-3.249-0.143-4.869c-0.009-1.765-0.03-1.785-1.772-1.787c-0.804-0.002-1.608,0.014-2.413-0.012
			c-0.212-0.006-0.467-0.003-0.571-0.211c-0.111-0.221,0.073-0.411,0.221-0.555c0.778-0.756,1.457-1.617,2.356-2.248
			c0.389-0.129,0.79-0.098,1.188-0.084C127.603,63.971,127.737,64.096,127.884,64.857z"/>
		<path fill-rule="evenodd" clip-rule="evenodd" fill="#969798" d="M127.884,64.857c-0.139-0.633-0.573-0.766-1.149-0.716
			c-0.373,0.033-0.749,0.005-1.125,0.005c-0.312,0.206-0.663,0.233-1.024,0.233c-2.326-0.001-4.657,0.099-6.977-0.023
			c-4.319-0.227-8.637-0.113-12.953-0.101c-4.556,0.013-9.108-0.251-13.664-0.165c-0.308,0.006-0.621,0.013-0.896-0.169
			c-0.382-0.818-0.185-1.674-0.137-2.514c0.02-0.34,0.344-0.425,0.64-0.455c0.546-0.053,1.097-0.069,1.638-0.015
			c2.42,0.243,4.845,0.105,7.267,0.123c3.352,0.025,6.705-0.077,10.054,0.025c5.252,0.16,10.501,0.099,15.752,0.123
			c1.323,0.005,1.407-0.101,1.175-1.383c-0.081-0.444-0.213-0.878-0.269-1.326c-0.47-1.66-0.898-3.334-1.45-4.971
			c-0.69-1.769-1.249-3.591-2.113-5.292c-0.755-1.634-1.461-3.294-2.427-4.823c-1.096-2.03-2.326-3.975-3.69-5.834
			c-1.099-1.404-2.089-2.894-3.288-4.221c-0.095-0.104-0.182-0.215-0.296-0.301c-1.24-1.536-2.674-2.887-4.058-4.288
			c-0.417-0.423-0.851-0.826-1.341-1.164c-1.164-1.001-2.269-2.068-3.513-2.977c-1.088-0.793-2.141-1.635-3.308-2.315
			c-2.482-1.762-5.156-3.184-7.883-4.518c-0.384-0.188-0.771-0.362-1.192-0.457c-3.954-1.786-8.038-3.185-12.294-4.047
			c-2.771-0.562-5.562-0.958-8.389-1.166c-2.494-0.182-4.992-0.196-7.475-0.081c-4.613,0.213-9.161,0.954-13.608,2.233
			c-2.376,0.683-4.707,1.5-6.99,2.451c-0.17,0.069-0.351,0.108-0.519,0.18c-0.257,0.1-0.501,0.234-0.759,0.333
			c-2.789,1.278-5.5,2.699-8.081,4.361c-2.286,1.413-4.4,3.059-6.47,4.766c-0.75,0.619-1.435,1.312-2.193,1.921
			c-1.889,1.829-3.733,3.7-5.426,5.716c-1.021,1.304-2.082,2.578-3.003,3.959c-1.214,1.63-2.244,3.377-3.258,5.134
			c-0.942,1.619-1.749,3.306-2.555,4.994c-0.65,1.552-1.328,3.093-1.856,4.693c-0.639,1.674-1.091,3.405-1.584,5.124
			c-0.054,0.452-0.176,0.887-0.269,1.328c-0.26,1.233-0.24,1.26,0.988,1.26c2.256,0.002,4.515-0.068,6.768,0.014
			c6.718,0.243,13.439,0.013,20.155,0.163c2.444,0.054,4.889,0.069,7.332,0.113c0.307,0.005,0.622-0.014,0.891,0.184
			c0.301,0.87,0.323,1.738-0.008,2.605c-6.974-0.272-13.954,0.018-20.926-0.176c-5.197-0.144-10.391-0.019-15.585-0.111
			c-0.365-0.006-0.71,0.006-0.988,0.283c0.681-4.646,1.964-9.127,3.724-13.473c2.571-6.351,6.103-12.124,10.603-17.288
			c6.149-7.055,13.505-12.481,22.096-16.223c4.699-2.047,9.578-3.493,14.635-4.31c4.704-0.76,9.436-0.95,14.194-0.646
			c8.258,0.528,16.083,2.65,23.469,6.345c7.726,3.865,14.362,9.129,19.897,15.779c5.438,6.53,9.391,13.854,11.783,22.003
			c0.728,2.479,1.289,5.008,1.672,7.571C127.701,63.839,127.933,64.324,127.884,64.857z"/>
		<path fill-rule="evenodd" clip-rule="evenodd" fill="#747879" d="M111.34,115.633c-1.23,1.469-2.707,2.684-4.108,3.976
			c-0.551,0.509-1.151,0.965-1.729,1.445c-0.47,0.081-0.943,0.095-1.418,0.09c-8.48-0.1-16.963-0.063-25.441-0.188
			c-6.248-0.092-12.498,0.069-18.741-0.124c-6.486-0.201-12.974,0.047-19.455-0.15c-4.182-0.127-8.36-0.045-12.54-0.108
			c-0.287-0.004-0.568-0.035-0.848-0.094c-2.043-1.56-3.815-3.404-5.563-5.275c0.08-0.44,0.46-0.433,0.771-0.481
			c0.493-0.075,0.997-0.056,1.494-0.031c6.031,0.306,12.068-0.019,18.097,0.157c6.699,0.196,13.399-0.037,20.093,0.154
			c6.035,0.172,12.068-0.048,18.098,0.132c6.699,0.2,13.398-0.025,20.093,0.157c3.397,0.091,6.791,0.044,10.186,0.111
			C110.679,115.41,111.051,115.349,111.34,115.633z"/>
		<path fill-rule="evenodd" clip-rule="evenodd" fill="#717577" d="M27.061,120.48c0.211-0.231,0.491-0.136,0.739-0.137
			c3.635-0.006,7.272-0.112,10.9,0.02c6.455,0.236,12.912-0.061,19.361,0.146c6.29,0.202,12.579-0.064,18.863,0.142
			c6.313,0.206,12.626-0.051,18.933,0.152c2.989,0.096,5.974,0.037,8.961,0.104c0.242,0.005,0.472,0.024,0.685,0.147
			c-2.134,1.791-4.409,3.386-6.777,4.851c-0.202,0.125-0.393,0.262-0.639,0.286c-5.772-0.13-11.548,0.082-17.317-0.087
			c-6.391-0.187-12.782,0.057-19.167-0.14c-6.296-0.194-12.591,0.011-18.883-0.142c-2.255-0.054-4.509-0.105-6.765-0.117
			c-0.501-0.002-0.998,0.021-1.478,0.182c-2.559-1.567-4.961-3.355-7.296-5.235C27.13,120.61,27.101,120.538,27.061,120.48z"/>
		<path fill-rule="evenodd" clip-rule="evenodd" fill="#6E7274" d="M34.479,125.887c0.136-0.466,0.523-0.411,0.872-0.411
			c1.878-0.004,3.758-0.08,5.631,0.012c5.721,0.281,11.446-0.022,17.164,0.144c6.981,0.202,13.964-0.032,20.94,0.16
			c5.985,0.165,11.966,0.02,17.949,0.11c0.376,0.005,0.771-0.059,1.053,0.289c-0.59,0.601-1.37,0.915-2.086,1.302
			c-3.106,1.673-6.342,3.056-9.693,4.163c-0.155,0.051-0.321,0.071-0.481,0.105c-0.709-0.085-1.422-0.065-2.134-0.067
			c-8.907-0.031-17.814-0.157-26.721-0.185c-2.966-0.009-5.935-0.056-8.903-0.096c-0.493-0.006-0.998-0.042-1.466,0.181
			C42.353,130.132,38.322,128.209,34.479,125.887z"/>
		<path fill-rule="evenodd" clip-rule="evenodd" fill="#777A7C" d="M111.34,115.633c-7.334,0.08-14.667-0.245-22.001-0.146
			c-1.283,0.018-2.566,0.034-3.849-0.002c-7.333-0.208-14.671-0.003-22.001-0.174c-6.244-0.146-12.487,0.07-18.725-0.131
			c-6.504-0.209-13.006-0.013-19.508-0.14c-0.893-0.017-1.791-0.118-2.69-0.121c-0.384-0.002-0.755,0.029-1.068,0.286
			c-1.393-1.402-2.608-2.956-3.822-4.51c-0.159-0.203-0.304-0.417-0.456-0.625c0.005-0.309,0.247-0.376,0.472-0.449
			c0.159-0.051,0.327-0.055,0.494-0.06c0.238-0.008,0.475-0.006,0.712-0.007c11.418-0.082,22.834,0.168,34.252,0.188
			c3.818,0.007,7.641,0.032,11.46,0.1c0.33,0.006,0.669-0.022,0.965,0.177c0.324,0.924,0.271,1.854,0.036,2.786
			c-0.354,0.266-0.771,0.202-1.168,0.203c-4.017,0.005-8.033,0.003-12.048,0.004c-0.262,0-0.522,0-0.784,0.019
			c-0.415,0.029-0.494,0.304-0.494,0.643c0,0.353,0.034,0.678,0.498,0.712c0.309,0.023,0.617,0.02,0.925,0.02
			c9.221,0.001,18.442,0.002,27.663-0.001c0.45,0,0.918,0.083,1.347-0.063c0.545-0.187,0.203-0.836,0.525-1.162
			c0.199-0.161,0.437-0.189,0.675-0.167c2.465,0.229,4.935,0.079,7.403,0.102c3.063,0.029,6.129-0.068,9.188,0.025
			c4.201,0.127,8.401,0.104,12.602,0.136c0.416,0.003,0.943-0.112,1.113,0.497C112.484,114.392,111.913,115.013,111.34,115.633z"/>
		<path fill-rule="evenodd" clip-rule="evenodd" fill="#7D8082" d="M122.187,99.801c-0.851,1.934-1.817,3.805-2.995,5.562
			c-0.275,0.096-0.559,0.095-0.845,0.093c-1.924-0.008-3.849,0.044-5.771-0.012c-7.146-0.208-14.295,0.001-21.438-0.17
			c-6.079-0.146-12.155-0.038-18.232-0.099c-1.52-0.016-3.031-0.23-4.552-0.163c-0.237,0.01-0.476-0.025-0.676-0.181
			c-0.076-0.094-0.135-0.2-0.14-0.321c-0.065-1.568-0.039-3.135-0.014-4.703c0.005-0.358,0.21-0.564,0.563-0.624
			c0.212-0.036,0.427-0.046,0.639-0.042c8.434,0.142,16.869,0.041,25.3,0.184c5.844,0.1,11.688-0.03,17.53,0.118
			c3.254,0.082,6.506,0.114,9.759,0.129C121.623,99.575,121.942,99.555,122.187,99.801z"/>
		<path fill-rule="evenodd" clip-rule="evenodd" fill="#808385" d="M65.566,112.768c-0.002-0.899-0.003-1.797-0.006-2.695
			c-0.204-0.232-0.218-0.519-0.217-0.804c0.001-1.493-0.027-2.986,0.012-4.478c-0.043-1.116-0.006-2.232-0.02-3.347
			c-0.011-0.91-0.067-0.945-0.969-0.985c-6.383-0.283-12.772,0.008-19.154-0.164c-6.647-0.179-13.296,0.036-19.938-0.153
			c-4.345-0.123-8.687-0.036-13.029-0.11c-0.398-0.007-0.815,0.059-1.16-0.229c-0.91-1.579-1.554-3.272-2.137-4.992
			c-0.021-0.23,0.12-0.347,0.307-0.423c0.133-0.054,0.275-0.08,0.418-0.079c4.129,0.03,8.259-0.137,12.387,0.091
			c0.308,0.018,0.616,0.036,0.924,0.036c1.116,0.001,2.231,0.01,3.347-0.001c9.803-0.097,19.604,0.246,29.407,0.141
			c0.309-0.003,0.616-0.012,0.917-0.084c0.345-0.033,0.653,0.097,0.959,0.228c2.362,1.013,4.838,1.54,7.393,1.729
			c0.749,0.055,0.913,0.194,0.916,0.965c0.017,4.872,0.016,9.745-0.003,14.617C65.918,112.306,66.008,112.68,65.566,112.768z"/>
		<path fill-rule="evenodd" clip-rule="evenodd" fill="#7B7D7F" d="M65.561,104.795c0,1.759,0,3.519,0,5.277
			c-7.715,0.088-15.428-0.236-23.144-0.149c-2.304,0.026-4.612,0.094-6.912-0.014c-5.743-0.268-11.487-0.039-17.229-0.124
			c-0.375-0.006-0.77-0.06-1.055,0.283c-1.3-1.732-2.556-3.495-3.568-5.417c0.036-0.329,0.309-0.315,0.53-0.351
			c0.258-0.042,0.521-0.024,0.783-0.025c0.333-0.002,0.665,0.002,0.997-0.001c11.661-0.092,23.32,0.15,34.981,0.19
			c4.532,0.015,9.068,0.024,13.603,0.098C64.899,104.569,65.267,104.528,65.561,104.795z"/>
		<path fill-rule="evenodd" clip-rule="evenodd" fill="#87898A" d="M127.179,84.399c-0.269,1.857-0.744,3.671-1.194,5.49
			c-0.042,0.171-0.054,0.381-0.232,0.5c-5.602-0.123-11.208,0.086-16.808-0.085c-6.15-0.187-12.3,0.02-18.447-0.137
			c-2.324-0.06-4.65-0.054-6.971-0.173c-0.589-0.221-0.213-0.505-0.024-0.734c0.674-0.82,1.38-1.614,1.996-2.483
			c0.616-0.869,1.161-1.779,1.652-2.722c0.164-0.315,0.317-0.642,0.705-0.75c1.33-0.002,2.658,0.012,3.986,0.01
			c3.205-0.004,6.409-0.051,9.612,0.008c7.925,0.146,15.85,0.133,23.775,0.133c0.501,0,0.997,0.044,1.48,0.176
			C127.097,83.737,127.361,83.936,127.179,84.399z"/>
		<path fill-rule="evenodd" clip-rule="evenodd" fill="#818385" d="M122.187,99.801c-2.448,0-4.9,0.085-7.343-0.016
			c-6.482-0.267-12.968,0.053-19.446-0.157c-5.153-0.167-10.304-0.053-15.454-0.103c-3.821-0.037-7.639-0.237-11.461-0.169
			c-0.641,0.011-0.806,0.189-0.787,0.808c0.048,1.544,0.026,3.089,0.033,4.633c0.182,0.212,0.2,0.472,0.201,0.732
			c0.001,1.457,0.027,2.914-0.012,4.371c-0.055,0.949,0.195,1.916-0.164,2.848c-0.289,0.108-0.308-0.136-0.353-0.296
			c-0.085-0.299-0.056-0.612-0.056-0.919c-0.002-4.506-0.001-9.012-0.001-13.518c0-0.142-0.001-0.285,0.003-0.427
			c0.03-0.891,0.197-1.056,1.084-1.146c2.156-0.217,4.267-0.635,6.303-1.396c0.664-0.248,1.277-0.641,2.003-0.716
			c6.858,0.199,13.722-0.039,20.578,0.141c6.007,0.158,12.012-0.021,18.015,0.129c2.61,0.065,5.219,0.106,7.829,0.129
			c0.377,0.002,0.773-0.004,1.026,0.366c-0.231,1.089-0.77,2.061-1.193,3.074C122.758,98.726,122.617,99.338,122.187,99.801z"/>
		<path fill-rule="evenodd" clip-rule="evenodd" fill="#FEFEFE" d="M76.657,94.512c-1.825,0.73-3.654,1.443-5.602,1.785
			c-0.957,0.168-1.913,0.344-2.887,0.368c-0.369,0.009-0.563,0.106-0.562,0.528c0.008,5.1,0.003,10.2,0.006,15.301
			c0,0.084,0.063,0.168,0.097,0.251c0.242-0.19,0.53-0.192,0.815-0.193c4.227-0.006,8.455-0.006,12.682,0
			c0.214,0,0.429,0.004,0.635,0.07c0.295,0.097,0.449,0.266,0.284,0.587c-0.086,1.419-0.086,1.419-1.568,1.419
			c-9.625,0-19.251,0.001-28.877-0.008c-0.261,0-0.694,0.17-0.759-0.149c-0.101-0.499-0.074-1.045,0.018-1.551
			c0.039-0.211,0.426-0.106,0.654-0.106c4.374-0.005,8.748-0.003,13.12-0.005c0.284-0.001,0.567-0.026,0.852-0.039
			c0.234-0.152,0.126-0.389,0.127-0.584c0.005-4.942,0.001-9.886,0.003-14.83c0-0.378,0.023-0.664-0.527-0.689
			c-2.851-0.126-5.576-0.813-8.183-1.975c-0.063-0.028-0.138-0.029-0.208-0.043c-1.06-0.181-1.896-0.831-2.778-1.363
			c-1.666-1.006-3.155-2.245-4.496-3.658c-1.597-1.626-2.858-3.493-3.948-5.484c-0.797-1.531-1.422-3.129-1.852-4.803
			c-0.33-1.188-0.548-2.395-0.682-3.62c-0.028-0.257-0.07-0.52,0.129-0.739c-0.033-3.802-0.066-7.603-0.099-11.406
			c0-0.855,0-1.711-0.001-2.566c-0.315-0.406-0.365-0.886-0.039-1.242c0.392-0.429,0.97-0.308,1.476-0.185
			c0.477,0.116,0.478,0.551,0.477,0.928c-0.019,4.056-0.022,8.111-0.017,12.168c0,0.354-0.033,0.712,0.076,1.059
			c0.136,0.624,0.014,1.267,0.144,1.892c0.158,1.654,0.538,3.257,1.106,4.817c0.517,1.643,1.291,3.16,2.253,4.584
			c1.098,1.642,2.34,3.16,3.875,4.42c1.118,1.002,2.335,1.865,3.667,2.562c2.628,1.461,5.444,2.285,8.429,2.61
			c4.369,0.478,8.417-0.542,12.284-2.493c1.822-0.827,3.328-2.097,4.791-3.425c0.972-0.869,1.711-1.931,2.47-2.976
			c0.179-0.248,0.353-0.501,0.556-0.73c0.922-1.27,1.573-2.678,2.116-4.142c0.621-1.693,1.07-3.428,1.259-5.225
			c0.166-0.622-0.027-1.269,0.135-1.892c0.101-0.325,0.075-0.659,0.075-0.99c-0.003-3.801,0.02-7.602-0.029-11.401
			c-0.003-0.261-0.005-0.523,0.005-0.784c0.037-0.938,0.766-1.385,1.613-0.972c0.522,0.255,0.463,0.77,0.369,1.189
			c-0.127,0.567-0.143,1.132-0.109,1.696c0.22,3.747,0.088,7.496,0.13,11.243c0.026,1.448-0.18,2.872-0.466,4.286
			c-0.303,1.383-0.684,2.743-1.206,4.063c-0.208,0.529-0.423,1.048-0.814,1.473c-1.024,1.862-2.114,3.679-3.554,5.261
			c-0.3,0.33-0.587,0.672-0.88,1.01c-0.411,0.875-1.246,1.332-1.938,1.916c-1.103,0.93-2.325,1.695-3.585,2.399
			C77.381,94.318,77.015,94.395,76.657,94.512z"/>
		<path fill-rule="evenodd" clip-rule="evenodd" fill="#7B7E7F" d="M67.729,109.932c-0.001-1.711-0.001-3.423-0.001-5.135
			c7.312,0.228,14.629-0.002,21.938,0.176c5.534,0.135,11.065-0.029,16.594,0.121c4.083,0.11,8.163,0.121,12.245,0.124
			c0.243,0.001,0.473,0.022,0.687,0.146c-0.977,1.606-1.967,3.204-3.124,4.69c-0.131,0.169-0.242,0.348-0.44,0.446
			c-1.326,0.167-2.653,0.109-3.979,0.018c-0.354-0.024-0.708-0.076-1.066-0.072c-11.548,0.102-23.095-0.22-34.644-0.151
			c-2.469,0.014-4.936-0.209-7.408-0.142C68.249,110.16,67.955,110.157,67.729,109.932z"/>
		<path fill-rule="evenodd" clip-rule="evenodd" fill="#7D8082" d="M65.561,104.795c-9.11-0.048-18.22-0.097-27.33-0.143
			c-1.519-0.008-3.042,0.059-4.557-0.012c-6.403-0.301-12.809-0.043-19.211-0.126c-0.271-0.004-0.575-0.108-0.81,0.139
			c-1.032-1.523-1.849-3.16-2.568-4.85c4.088,0,8.18-0.114,12.263,0.025c6.46,0.22,12.921-0.062,19.376,0.144
			c6.246,0.199,12.49,0.018,18.734,0.123c1.206,0.02,2.409,0.203,3.619,0.132c0.445-0.026,0.498,0.219,0.495,0.576
			C65.559,102.134,65.563,103.465,65.561,104.795z"/>
		<path fill-rule="evenodd" clip-rule="evenodd" fill="#838587" d="M49.599,89.531c2.098,2.12,4.509,3.8,7.18,5.117
			c-0.41,0.134-0.828,0.168-1.259,0.167c-3.49-0.008-6.982,0.059-10.47-0.018c-7.544-0.164-15.091-0.015-22.631-0.17
			c-4.198-0.087-8.395-0.02-12.59-0.097c-0.314-0.005-0.686-0.117-0.881,0.281c-0.688-1.77-1.359-3.545-1.712-5.42
			c0.362-0.322,0.81-0.237,1.225-0.226c6.335,0.169,12.672,0.073,19.008,0.154c7.143,0.091,14.285,0.145,21.428,0.12
			C49.136,89.438,49.369,89.46,49.599,89.531z"/>
		<path fill-rule="evenodd" clip-rule="evenodd" fill="#87898A" d="M49.599,89.531c-0.257,0.16-0.543,0.146-0.829,0.146
			c-5.348-0.002-10.7,0.124-16.043-0.033c-6.318-0.186-12.635,0.04-18.949-0.145c-2.181-0.063-4.361-0.053-6.542-0.108
			c-0.554-1.624-0.904-3.294-1.14-4.991c-0.176-0.37,0.024-0.531,0.348-0.608c0.279-0.067,0.567-0.051,0.851-0.052
			c3.086-0.001,6.177-0.097,9.259,0.02c6.385,0.243,12.771-0.026,19.152,0.152c3.181,0.089,6.359,0.088,9.538,0.094
			c0.169,0,0.332,0.015,0.477,0.11C46.792,86.079,48.098,87.874,49.599,89.531z"/>
		<path fill-rule="evenodd" clip-rule="evenodd" fill="#848688" d="M76.657,94.512c1.901-1.042,3.759-2.149,5.378-3.611
			c0.402-0.362,0.803-0.724,1.206-1.085c5.128-0.005,10.253,0.242,15.382,0.149c1.069-0.019,2.139-0.024,3.208,0.001
			c7.669,0.179,15.34,0.132,23.01,0.138c0.337,0,0.67-0.008,0.912,0.287c-0.384,1.615-0.843,3.205-1.568,4.706
			c-0.366-0.108-0.736-0.151-1.12-0.148c-1.212,0.014-2.425,0.044-3.635-0.001c-6.905-0.257-13.815,0.022-20.717-0.168
			c-6.338-0.176-12.674-0.009-19.009-0.124C78.689,94.636,77.676,94.498,76.657,94.512z"/>
		<path fill-rule="evenodd" clip-rule="evenodd" fill="#8B8D8E" d="M87.675,83.544c0.752-1.762,1.409-3.557,1.816-5.433
			c0.309-0.232,0.669-0.217,1.025-0.217c4.558-0.002,9.12-0.12,13.673,0.029c5.911,0.192,11.819,0.044,17.728,0.104
			c1.686,0.017,3.362,0.21,5.049,0.171c0.784-0.018,0.943,0.172,0.924,0.782c-0.072,1.828-0.313,3.634-0.713,5.42
			c0.014-0.33-0.09-0.533-0.467-0.576c-0.609-0.068-1.214-0.146-1.834-0.145c-4.749,0.013-9.5,0.09-14.247-0.012
			c-7.308-0.157-14.616-0.104-21.923-0.112C88.363,83.554,88.02,83.309,87.675,83.544z"/>
		<path fill-rule="evenodd" clip-rule="evenodd" fill="#919293" d="M128.035,68.711c0.181,1.66,0.141,3.327,0.142,4.992
			c-0.274,0.245-0.615,0.229-0.945,0.229c-3.729,0.004-7.46,0.118-11.182-0.029c-4.061-0.162-8.118-0.11-12.175-0.091
			c-4.297,0.02-8.589-0.189-12.886-0.166c-0.306,0.001-0.623,0.02-0.887-0.188c-0.131-1.684-0.095-3.369-0.019-5.055
			c0.28-0.239,0.624-0.206,0.952-0.206c4.847-0.006,9.698-0.124,14.541,0.027c6.035,0.188,12.066,0.045,18.099,0.099
			c1.238,0.011,2.464,0.177,3.7,0.167C127.614,68.488,127.847,68.539,128.035,68.711z"/>
		<path fill-rule="evenodd" clip-rule="evenodd" fill="#8A8C8D" d="M45.719,84.115c-0.341,0.107-0.687,0.147-1.048,0.146
			c-2.28-0.009-4.564,0.076-6.841-0.02c-6.527-0.271-13.058,0.046-19.581-0.162c-3.821-0.122-7.639-0.029-11.458-0.103
			c-0.302-0.006-0.724-0.14-0.698,0.424c-0.368-1.072-0.393-2.204-0.559-3.309c-0.104-0.696-0.225-1.399-0.154-2.111
			c0.245-0.248,0.565-0.236,0.87-0.224c6.809,0.271,13.626-0.021,20.433,0.173c5.199,0.148,10.395,0.021,15.591,0.113
			c0.549,0.01,1.154-0.134,1.601,0.364C44.376,81.02,44.975,82.596,45.719,84.115z"/>
		<path fill-rule="evenodd" clip-rule="evenodd" fill="#8F9192" d="M5.097,74.416c0-1.307-0.005-2.614,0.001-3.921
			c0.004-1.041,0.177-1.238,1.191-1.208c7.335,0.21,14.676,0.011,22.01,0.178c4.654,0.105,9.304,0.032,13.956,0.086
			c0.636,0.007,0.81,0.18,0.79,0.804c-0.045,1.448-0.016,2.898-0.016,4.348c-0.319,0.279-0.712,0.215-1.087,0.23
			c-1.853,0.072-3.701-0.127-5.551-0.135c-4.988-0.021-9.979,0.08-14.964-0.031c-5.128-0.114-10.256-0.097-15.385-0.122
			C5.711,74.644,5.371,74.661,5.097,74.416z"/>
		<path fill-rule="evenodd" clip-rule="evenodd" fill="#8D8F90" d="M90.1,73.418c1.638,0,3.28-0.062,4.915,0.011
			c6.524,0.287,13.053-0.046,19.573,0.164c4.533,0.146,9.06,0.026,13.59,0.11c0,1.046,0,2.091,0,3.137
			c-0.186,0.262,0.036,0.592-0.142,0.855c-0.064,0.426,0.142,0.883-0.144,1.284c0.024-0.464-0.292-0.559-0.648-0.565
			c-1.397-0.023-2.795-0.106-4.188-0.122c-5.633-0.064-11.269,0.097-16.897-0.062c-5.557-0.155-11.111-0.013-16.666-0.121
			c0.242-1.414,0.447-2.833,0.487-4.27C90.081,73.717,89.967,73.532,90.1,73.418z"/>
		<path fill-rule="evenodd" clip-rule="evenodd" fill="#8D8E90" d="M5.097,74.416c0.166,0,0.332,0,0.498-0.001
			c10.633-0.052,21.264,0.214,31.896,0.181c1.84-0.006,3.692,0.06,5.538,0.105c0.041,0.094,0.081,0.187,0.122,0.279
			c0.112,1.496,0.421,2.959,0.725,4.424c-0.598-0.159-1.21-0.142-1.821-0.142c-4.135,0.001-8.272,0.096-12.403-0.021
			C22.768,79.049,15.883,79.203,9,79.095c-1.203-0.019-2.411-0.105-3.618-0.116c-0.274-0.886-0.14-1.813-0.269-2.716
			C5.026,75.66,5.097,75.033,5.097,74.416z"/>
		<path fill-rule="evenodd" clip-rule="evenodd" fill="#939496" d="M128.035,68.711c-6.974-0.275-13.954,0.017-20.926-0.176
			c-5.672-0.157-11.34-0.023-17.009-0.108c-0.119-1.521-0.118-3.042,0-4.563c2.208,0,4.42-0.079,6.624,0.013
			c6.476,0.271,12.956-0.037,19.428,0.164c3.154,0.097,6.306,0.031,9.457,0.106c-0.826,0.866-1.654,1.732-2.588,2.71
			c1.299,0,2.45,0,3.601,0c1.178,0,1.184-0.001,1.384,1.145C128.047,68.232,128.027,68.474,128.035,68.711z"/>
		<path fill-rule="evenodd" clip-rule="evenodd" fill="#787B7D" d="M67.729,109.932c1.711-0.001,3.426-0.071,5.133,0.008
			c6.315,0.291,12.635-0.047,18.946,0.156c6.389,0.206,12.775-0.005,19.16,0.145c1.371,0.032,2.744,0.09,4.118,0.122
			c0.181,0.004,0.362,0.09,0.543,0.138c-0.719,1.199-1.644,2.238-2.573,3.271c-0.166-0.192-0.383-0.269-0.63-0.276
			c-0.095-0.002-0.19-0.001-0.285-0.001c-9.323,0.009-18.645-0.242-27.968-0.15c-0.682,0.007-1.364-0.087-2.046-0.135
			c-0.014-0.547-0.427-0.394-0.724-0.394c-4.284-0.006-8.567-0.003-12.852-0.007c-0.28,0-0.568,0.057-0.841-0.063
			C67.716,111.806,67.724,110.869,67.729,109.932z"/>
		<path fill-rule="evenodd" clip-rule="evenodd" fill="#6B6F71" d="M46.602,131.594c0.111-0.436,0.47-0.413,0.798-0.413
			c2.661-0.004,5.325-0.099,7.981,0.017c5.957,0.261,11.917-0.031,17.871,0.146c3.915,0.117,7.828,0.091,11.742,0.119
			c0.317,0.001,0.618,0.024,0.834,0.298c-1.763,0.767-3.641,1.139-5.493,1.602c-2.314,0.579-4.666,0.956-7.032,1.226
			c-2.826,0.322-5.669,0.355-8.51,0.297c-5.126-0.104-10.147-0.924-15.078-2.31C48.667,132.281,47.638,131.922,46.602,131.594z"/>
		<path fill-rule="evenodd" clip-rule="evenodd" fill="#939496" d="M128.035,77.695c0.045-0.285-0.117-0.605,0.142-0.855
			C128.131,77.126,128.293,77.445,128.035,77.695z"/>
		<path fill-rule="evenodd" clip-rule="evenodd" fill="#ABABAC" d="M100.799,22.213c1.224,0.574,2.228,1.471,3.308,2.253
			c1.259,0.912,2.402,1.963,3.535,3.024c0.026,0.272-0.159,0.371-0.371,0.444c-0.136,0.046-0.279,0.064-0.421,0.062
			c-4.149-0.045-8.301,0.149-12.449-0.108c-0.356-0.021-0.711-0.022-1.067-0.022c-5.314,0-10.628-0.012-15.943,0.007
			c-1.116,0.004-2.219-0.234-3.337-0.138c-0.164,0.014-0.333-0.02-0.484,0.071c-0.453,0.137-0.834-0.112-1.223-0.257
			c-3.278-1.222-6.605-1.323-9.98-0.473c-1.46,0.367-2.799,1.014-4.094,1.766c-0.304,0.176-0.589,0.42-0.984,0.263
			c-0.986-0.127-1.975-0.229-2.968-0.237c-1.804-0.015-3.608-0.024-5.413-0.001c-7.689,0.098-15.377-0.222-23.067-0.147
			c-0.261,0.002-0.526,0.014-0.777-0.069c-0.206-0.068-0.428-0.144-0.284-0.444c1.157-1.14,2.406-2.175,3.678-3.184
			c1.477-1.172,2.991-2.295,4.58-3.315c0.14-0.089,0.259-0.207,0.438-0.208c5.007,0.365,10.022,0.109,15.032,0.205
			c8.1,0.154,16.202,0.02,24.299,0.177c6.059,0.117,12.115-0.029,18.17,0.123c3.016,0.076,6.031,0.118,9.046,0.121
			C100.285,22.127,100.539,22.202,100.799,22.213z"/>
		<path fill-rule="evenodd" clip-rule="evenodd" fill="#AFAEAF" d="M100.799,22.213c-0.234,0.142-0.492,0.148-0.757,0.148
			c-2.233-0.003-4.471,0.08-6.7-0.018c-6.315-0.278-12.634,0.052-18.945-0.152c-6.341-0.205-12.682,0.062-19.017-0.142
			c-6.341-0.205-12.679-0.025-19.017-0.123c-0.779-0.012-1.549-0.192-2.335-0.148c-0.215,0.011-0.412-0.096-0.554-0.277
			c2.544-1.777,5.309-3.15,8.131-4.415c0.538,0.138,1.084,0.049,1.626,0.05c4.586,0.003,9.177-0.112,13.758,0.029
			c6.487,0.201,12.975-0.054,19.457,0.147c4.634,0.143,9.265,0.042,13.896,0.107c0.494,0.007,1.001,0.046,1.466-0.195
			c0.139,0.023,0.292,0.016,0.413,0.075C95.18,18.765,98.166,20.182,100.799,22.213z"/>
		<path fill-rule="evenodd" clip-rule="evenodd" fill="#999A9B" d="M7.093,57.729c0.42-1.696,0.831-3.395,1.569-4.992
			c3.03,0.171,6.069-0.107,9.099,0.171c0.308,0.029,0.616,0.025,0.925,0.025c1.875,0,3.75,0.016,5.625-0.002
			c8.424-0.081,16.846,0.247,25.271,0.148c0.352-0.004,0.717-0.037,1.033,0.185c0.062,0.073,0.125,0.155,0.129,0.249
			c0.073,1.542,0.099,3.084-0.014,4.626c-0.005,0.073-0.062,0.127-0.098,0.188c-0.309,0.237-0.674,0.2-1.027,0.201
			c-3.398,0.006-6.8,0.107-10.193-0.02c-6.201-0.232-12.403,0.042-18.599-0.147c-4.182-0.128-8.361-0.052-12.54-0.125
			C7.835,58.229,7.283,58.367,7.093,57.729z"/>
		<path fill-rule="evenodd" clip-rule="evenodd" fill="#9A9A9C" d="M124.897,53.45c0.619,1.574,1.019,3.213,1.426,4.849
			c-0.072,0.401-0.414,0.357-0.671,0.355c-1.567-0.004-3.137,0.112-4.7-0.081c-0.355-0.045-0.712-0.042-1.067-0.043
			c-2.044-0.001-4.087-0.003-6.131,0c-10.05,0.01-20.099-0.215-30.149-0.177c-0.558,0.003-0.706,0.208-0.693,0.704
			c0.012,0.522,0.024,1.046-0.013,1.567c-0.021,0.269,0.021,0.595-0.355,0.691c-0.171-0.155-0.214-0.365-0.214-0.578
			c-0.005-1.477-0.083-2.956,0.045-4.433c0.203-0.725,0.079-1.466,0.105-2.198c0.033-0.874,0.232-1.156,1.08-1.151
			c3.299,0.017,6.602-0.155,9.899,0.097c0.333,0.026,0.665,0.024,0.998,0.024c3.088,0,6.176,0.017,9.265-0.003
			c6.721-0.043,13.439,0.253,20.161,0.148C124.233,53.216,124.599,53.192,124.897,53.45z"/>
		<path fill-rule="evenodd" clip-rule="evenodd" fill="#9C9D9E" d="M124.897,53.45c-3.85,0-7.703,0.109-11.547-0.023
			c-6.553-0.227-13.108,0.049-19.656-0.155c-3.347-0.105-6.69-0.032-10.034-0.103c-0.924-0.019-0.951,0.054-0.986,0.957
			c-0.027,0.726,0.147,1.464-0.111,2.178c-0.214-0.166-0.239-0.409-0.239-0.645c0.003-1.401-0.079-2.803,0.049-4.203
			c0.211-0.819,0.074-1.653,0.105-2.481c0.034-0.896,0.239-1.165,1.145-1.16c2.68,0.021,5.363-0.147,8.04,0.104
			c0.26,0.025,0.521,0.021,0.782,0.021c0.832,0.001,1.662,0.009,2.492-0.001c9.066-0.109,18.129,0.218,27.195,0.139
			c0.214-0.002,0.43-0.013,0.626,0.094c0.688,0.976,0.956,2.139,1.417,3.215C124.461,52.056,124.659,52.762,124.897,53.45z"/>
		<path fill-rule="evenodd" clip-rule="evenodd" fill="#9C9D9E" d="M50.587,53.31c-10.681,0.066-21.36-0.252-32.041-0.145
			c-0.071,0.001-0.143,0.006-0.213,0c-2.911-0.272-5.83-0.089-8.745-0.141c-0.336-0.006-0.656-0.063-0.925-0.286
			c0.311-1.388,0.987-2.638,1.483-3.956c0.098-0.26,0.246-0.5,0.371-0.75c0.275-0.242,0.615-0.229,0.946-0.229
			c2.731-0.005,5.468-0.107,8.194,0.021c4.774,0.224,9.545,0.078,14.317,0.109c5.224,0.035,10.446,0.253,15.67,0.156
			c0.33-0.006,0.669-0.024,0.964,0.181c0.036,0.087,0.026-0.036,0.04,0.056c0.253,1.625,0.197,3.253,0.031,4.882
			C50.675,53.244,50.619,53.275,50.587,53.31z"/>
		<path fill-rule="evenodd" clip-rule="evenodd" fill="#A3A3A4" d="M116.625,37.476c1.069,1.269,1.898,2.698,2.757,4.104
			c0.345,0.564,0.637,1.162,0.952,1.745c-0.268,0.264-0.614,0.226-0.941,0.227c-5.724,0.006-11.451,0.125-17.171-0.031
			c-6.008-0.164-12.014-0.023-18.021-0.115c-0.557-0.008-1.078,0.122-1.608,0.242c-0.239-0.142-0.266-0.389-0.258-0.62
			c0.045-1.586-0.11-3.153-0.388-4.712c-0.029-0.164-0.006-0.329,0.056-0.487c0.272-0.492,0.756-0.433,1.198-0.435
			c2.305-0.012,4.609-0.004,6.914-0.005c2.257,0,4.518-0.072,6.771,0.014c6.009,0.229,12.02,0.078,18.029,0.129
			C115.488,37.536,116.057,37.522,116.625,37.476z"/>
		<path fill-rule="evenodd" clip-rule="evenodd" fill="#B1B0B1" d="M91.81,17.224c-0.049,0.494-0.422,0.428-0.75,0.428
			c-4.35,0.001-8.702,0.12-13.046-0.028c-6.223-0.211-12.446,0.063-18.663-0.139c-5.771-0.187-11.539-0.039-17.307-0.128
			c-0.149-0.002-0.556,0.233-0.437-0.271c0.238-0.097,0.476-0.193,0.714-0.289c0.16,0.003,0.316-0.003,0.424-0.149
			c0.856-0.515,1.806-0.813,2.734-1.149c3.027-1.095,6.111-2.002,9.283-2.583c1.948-0.357,3.906-0.626,5.875-0.852
			c3.076-0.354,6.158-0.355,9.228-0.224c4.607,0.196,9.143,0.98,13.587,2.243C86.326,14.898,89.109,15.95,91.81,17.224z"/>
		<path fill-rule="evenodd" clip-rule="evenodd" fill="#A2A2A3" d="M50.587,53.31c0-1.664,0-3.328,0.001-4.992
			c-0.241-0.277-0.222-0.617-0.224-0.948c-0.008-0.926,0.005-1.853-0.006-2.779c-0.01-0.812-0.078-0.886-0.911-0.889
			c-3.374-0.009-6.75,0.091-10.12-0.023c-6.674-0.228-13.349-0.017-20.02-0.15c-1.802-0.036-3.606-0.089-5.41-0.129
			c-0.297-0.007-0.698,0.104-0.814-0.361c0.958-1.798,1.957-3.57,3.279-5.135c0.156-0.128,0.34-0.156,0.535-0.151
			c5.912,0.142,11.828-0.08,17.736,0.094c5.129,0.15,10.255,0.035,15.381,0.116c0.392,0.006,0.825-0.072,1.106,0.328
			c0.128,0.274,0.097,0.559,0.046,0.839c-0.198,1.104-0.204,2.217-0.203,3.333c0.005,10.486,0.004,20.973-0.001,31.46
			c0,0.443,0.091,0.907-0.186,1.315c-0.497-0.031-0.39-0.442-0.397-0.714c-0.028-1.078-0.037-2.157,0-3.234
			c-0.025-1.522-0.029-3.043,0-4.564c-0.025-1.242-0.028-2.483,0-3.725c-0.038-1.3-0.013-2.6-0.013-3.899
			c0-0.284,0.012-0.571,0.219-0.801C50.586,56.637,50.586,54.973,50.587,53.31z"/>
		<path fill-rule="evenodd" clip-rule="evenodd" fill="#9F9FA1" d="M82.562,43.611c0.328-0.359,0.731-0.503,1.214-0.432
			c0.116,0.017,0.237,0.003,0.356,0.002c12.068-0.086,24.134,0.247,36.203,0.143c1.02,1.51,1.753,3.164,2.424,4.849
			c-0.256,0.16-0.542,0.144-0.828,0.144c-3.656-0.001-7.315,0.109-10.966-0.025c-6.356-0.233-12.714,0.045-19.066-0.154
			c-2.75-0.086-5.496-0.043-8.244-0.103c-0.919-0.02-0.945,0.054-0.98,0.958c-0.031,0.821,0.146,1.651-0.113,2.461
			c-0.289-0.254-0.249-0.603-0.25-0.929c-0.01-1.995-0.01-3.991,0-5.986C82.313,44.214,82.272,43.865,82.562,43.611z"/>
		<path fill-rule="evenodd" clip-rule="evenodd" fill="#A7A7A8" d="M24.779,28.208c0.024,0.154,0.093,0.269,0.267,0.276
			c0.142,0.006,0.285,0.008,0.427,0.008c9.746-0.017,19.491,0.248,29.238,0.143c0.757-0.009,1.497,0.232,2.26,0.147
			c0.207-0.023,0.365,0.079,0.467,0.263c-0.347,0.614-0.971,0.952-1.462,1.415c-1.183,1.114-2.184,2.356-3.027,3.733
			c-0.177,0.291-0.354,0.573-0.768,0.509c-6.334-0.291-12.673,0.032-19.003-0.164c-4.224-0.131-8.445-0.034-12.667-0.123
			c-0.422-0.008-1.003,0.196-1.151-0.502C21.002,31.855,22.84,29.984,24.779,28.208z"/>
		<path fill-rule="evenodd" clip-rule="evenodd" fill="#9F9FA0" d="M13.083,43.039c0.21,0.233,0.489,0.133,0.739,0.139
			c7.708,0.203,15.419,0.034,23.126,0.187c4.316,0.086,8.63,0.031,12.943,0.087c0.581,0.007,0.725,0.188,0.712,0.734
			c-0.035,1.376-0.014,2.754-0.015,4.13c-8.519,0.06-17.037-0.251-25.557-0.145c-0.997,0.012-1.998,0.052-2.991-0.008
			c-3.839-0.231-7.682-0.094-11.524-0.133C11.279,46.319,12.05,44.612,13.083,43.039z"/>
		<path fill-rule="evenodd" clip-rule="evenodd" fill="#A9A8A9" d="M73.413,27.749c0.734-0.513,1.548-0.215,2.324-0.196
			c0.295,0.006,0.604,0.082,0.911,0.083c0.713,0.002,1.425,0.008,2.138,0c9.302-0.108,18.603,0.202,27.905,0.139
			c0.334-0.002,0.734,0.143,0.951-0.283c1.846,1.473,3.468,3.17,4.975,4.981c0.136,0.163,0.243,0.344,0.439,0.444
			c-0.026,0.481-0.409,0.472-0.726,0.491c-0.733,0.046-1.477,0.079-2.206,0.002c-2.132-0.224-4.268-0.105-6.401-0.119
			c-3.631-0.023-7.264,0.07-10.894-0.027c-3.795-0.1-7.59-0.114-11.385-0.122c-0.404,0-0.808-0.005-1.205,0.066
			c-0.477,0.168-0.684-0.193-0.92-0.481c-1.212-1.471-2.538-2.813-4.171-3.824c-0.384-0.237-0.783-0.442-1.178-0.658
			C73.749,28.126,73.472,28.056,73.413,27.749z"/>
		<path fill-rule="evenodd" clip-rule="evenodd" fill="#A6A6A7" d="M79.955,33.233c0.054-0.383,0.351-0.318,0.604-0.318
			c3.137-0.002,6.278-0.109,9.409,0.022c5.77,0.241,11.538,0.051,17.306,0.107c1.683,0.016,3.357,0.256,5.043,0.156
			c0.28-0.017,0.585,0.052,0.74-0.284c1.162,1.242,2.19,2.588,3.144,3.995c0.132,0.194,0.283,0.377,0.424,0.564
			c-0.05,0.353-0.325,0.285-0.551,0.285c-5.533,0.002-11.071,0.128-16.6-0.034c-5.53-0.161-11.057-0.019-16.584-0.106
			c-0.303-0.004-0.635-0.062-0.793,0.313c-0.305-0.039-0.336-0.306-0.405-0.517c-0.41-1.258-0.891-2.482-1.619-3.598
			C79.961,33.648,79.824,33.463,79.955,33.233z"/>
		<path fill-rule="evenodd" clip-rule="evenodd" fill="#979799" d="M82.562,61.295c0.265-0.834,0.081-1.69,0.107-2.536
			c0.017-0.543,0.046-0.927,0.743-0.631c0.143,0.062,0.328,0.029,0.494,0.027c11.926-0.099,23.851,0.208,35.776,0.17
			c1.963-0.006,3.933,0.113,5.9,0.111c0.25,0,0.528,0.096,0.739-0.138c0.323,0.764,0.418,1.586,0.541,2.392
			c0.07,0.458-0.156,0.762-0.749,0.759c-4.537-0.023-9.078,0.109-13.61-0.042c-6.148-0.205-12.294-0.022-18.441-0.113
			c-1.111-0.017-2.214-0.194-3.331-0.158c-0.501,0.017-0.666,0.167-0.643,0.66c0.034,0.687,0.01,1.377,0.011,2.066
			c0,1.521,0,3.042,0,4.563c0,1.664-0.001,3.328-0.001,4.992c-0.007,0.15,0.024,0.312-0.121,0.422
			c-0.005-4.445-0.007-8.889-0.022-13.333c-0.001-0.255,0.169-0.659-0.187-0.74c-0.404-0.092-0.861-0.079-1.269,0.014
			c-0.256,0.058-0.14,0.417-0.14,0.641c-0.005,4.16,0,8.319-0.004,12.478c0,0.328,0.068,0.667-0.095,0.981
			c-0.247-0.211-0.241-0.506-0.241-0.786c-0.003-1.442-0.032-2.885,0.012-4.326c-0.023-1.446,0.001-2.892-0.012-4.338
			c-0.008-0.86-0.066-0.943-0.944-0.911c-1.025,0.037-2.031-0.172-3.053-0.156c-1.115,0.019-1.115,0.006-1.123,1.096
			c-0.002,0.332,0.03,0.668-0.042,0.993c-0.041,0.184-0.037,0.456-0.368,0.377c-0.171-0.22-0.175-0.481-0.177-0.739
			c-0.01-1.008-0.014-2.015,0.002-3.023C82.321,61.793,82.312,61.5,82.562,61.295z"/>
		<path fill-rule="evenodd" clip-rule="evenodd" fill="#A5A5A6" d="M19.359,33.913c0.091,0.191,0.244,0.283,0.455,0.283
			c0.119,0,0.238,0.002,0.356,0.002c10.07-0.037,20.138,0.246,30.209,0.154c0.691-0.007,1.4,0.041,2.07,0.283
			c-0.316,1.247-0.797,2.438-1.231,3.644c-0.023,0.065-0.11,0.08-0.18,0.09c-0.19-0.267-0.474-0.176-0.723-0.174
			c-10.208,0.082-20.415-0.248-30.623-0.149c-1.112,0.01-2.227,0.069-3.33-0.141c0.42-1.024,1.278-1.738,1.876-2.638
			C18.56,34.781,18.982,34.361,19.359,33.913z"/>
		<path fill-rule="evenodd" clip-rule="evenodd" fill="#969799" d="M50.586,58.301c0,1.568,0,3.137,0,4.706
			c-0.275,0.245-0.617,0.208-0.946,0.22c-1.211,0.042-2.417-0.065-3.625-0.131c-0.841-0.045-0.894,0.041-0.905,0.863
			c-0.012,0.925,0.016,1.851-0.014,2.776c0.029,1.467,0.029,2.934,0.002,4.401c0.036,0.655,0.019,1.311,0.01,1.966
			c-0.004,0.278,0.005,0.57-0.24,0.778c-0.163-0.313-0.093-0.651-0.094-0.978c-0.004-4.124-0.016-8.247,0.015-12.37
			c0.004-0.651-0.166-0.85-0.822-0.828c-0.596,0.02-1.042,0.03-0.901,0.809c0.029,0.159-0.01,0.33-0.016,0.496
			c-2.161,0-4.325,0.079-6.482-0.015c-6.38-0.28-12.765,0.046-19.142-0.163c-3.44-0.112-6.875-0.042-10.312-0.095
			c-0.552-0.008-0.728-0.166-0.593-0.693c0.197-0.769,0.267-1.57,0.57-2.314c0.242,0.294,0.575,0.289,0.911,0.286
			c8.5-0.075,16.997,0.18,25.496,0.167C39.195,58.173,44.89,58.334,50.586,58.301z"/>
		<path fill-rule="evenodd" clip-rule="evenodd" fill="#AFAEAF" d="M42.745,16.648c-0.051,0.307-0.183,0.385-0.424,0.149
			C42.421,16.632,42.59,16.66,42.745,16.648z"/>
		<path fill-rule="evenodd" clip-rule="evenodd" fill="#858788" d="M81.667,88.778c-1.364,1.419-2.913,2.587-4.691,3.44
			c-0.446-0.092-0.898-0.027-1.345-0.028c-3.035-0.009-6.07-0.019-9.106,0c-3.436,0.021-6.869-0.256-10.307-0.145
			c-0.118,0.004-0.236-0.01-0.348,0.039c-1.318-0.665-2.528-1.485-3.579-2.528c0.034-0.467,0.418-0.495,0.728-0.5
			c1.635-0.029,3.271-0.103,4.904,0.044c1.183,0.107,2.367,0.093,3.55,0.025c0.699,0.106,1.397,0.223,2.093,0.353
			c3.05,0.571,6.022,0.325,8.916-0.816c0.457-0.181,0.896-0.443,1.421-0.387c0.21,0.06,0.425,0.045,0.638,0.036
			c2.139-0.094,4.27,0.188,6.408,0.157C81.214,88.464,81.54,88.418,81.667,88.778z"/>
		<path fill-rule="evenodd" clip-rule="evenodd" fill="#838587" d="M55.87,92.084c0.085-0.391,0.402-0.262,0.636-0.263
			c1.779-0.01,3.562-0.09,5.333,0.011c4.784,0.274,9.568,0.036,14.351,0.135c0.269,0.005,0.643-0.194,0.786,0.252
			c-4.448,2.426-9.163,3.243-14.166,2.377c-2.205-0.381-4.299-1.079-6.291-2.09C56.291,92.389,56.086,92.226,55.87,92.084z"/>
		<path fill-rule="evenodd" clip-rule="evenodd" fill="#8F9192" d="M88.231,68.715c0.01,1.722,0.02,3.444,0.031,5.166
			c-0.016,0.622,0.072,1.251-0.142,1.858c-0.293-0.43-0.704-0.55-1.212-0.539c-1.153,0.024-2.307,0.013-3.46,0.005
			c-0.327-0.003-0.665,0.029-0.95-0.192c-0.351-1.039-0.159-2.1-0.125-3.154c0.21-0.795,0.079-1.606,0.104-2.409
			c0.031-0.95,0.139-1.09,1.058-1.103c1.067-0.015,2.136-0.026,3.203,0.007C87.254,68.369,87.789,68.37,88.231,68.715z"/>
		<path fill-rule="evenodd" clip-rule="evenodd" fill="#86888A" d="M61.596,89.241c-1.213,0.297-2.446,0.189-3.661,0.086
			c-1.703-0.145-3.402-0.037-5.103-0.066c-0.213-0.003-0.41,0.104-0.541,0.294c-1.539-1.248-2.817-2.724-3.853-4.41
			c-0.097-0.615,0.381-0.515,0.681-0.479c1.273,0.149,2.549,0.046,3.824,0.085c0.522,0.017,1.036-0.07,1.554-0.095
			c0.36,0.013,0.618,0.224,0.847,0.469c1.601,1.722,3.558,2.887,5.741,3.707C61.292,88.908,61.572,88.924,61.596,89.241z"/>
		<path fill-rule="evenodd" clip-rule="evenodd" fill="#8C8E8F" d="M82.559,74.987c1.582-0.001,3.164,0.027,4.744-0.016
			c0.604-0.017,0.896,0.135,0.817,0.768c-0.128,1.826-0.567,3.575-1.292,5.255c-1.482-0.156-2.969-0.052-4.453-0.083
			c-0.351-0.007-0.709,0.037-1.044-0.119c-0.254-0.179-0.176-0.422-0.091-0.636c0.61-1.524,0.901-3.12,1.111-4.737
			C82.372,75.254,82.408,75.091,82.559,74.987z"/>
		<path fill-rule="evenodd" clip-rule="evenodd" fill="#898B8D" d="M54.708,84.831c-1.461,0.248-2.935,0.101-4.401,0.137
			c-0.403,0.01-0.799-0.003-1.198-0.113c-0.247-0.067-0.596-0.146-0.67,0.29c-1.021-1.4-1.78-2.932-2.307-4.581
			c0.138-0.313,0.428-0.361,0.709-0.363c1.601-0.01,3.202-0.079,4.8,0.036c0.254,0.056,0.384,0.248,0.501,0.457
			c0.722,1.297,1.469,2.576,2.451,3.701C54.697,84.512,54.822,84.647,54.708,84.831z"/>
		<path fill-rule="evenodd" clip-rule="evenodd" fill="#87898B" d="M81.667,88.778c-0.137-0.126-0.309-0.104-0.472-0.1
			c-2.245,0.073-4.481-0.245-6.726-0.147c-0.225,0.009-0.484,0.075-0.642-0.182c0.049-0.31,0.332-0.386,0.545-0.513
			c1.35-0.803,2.626-1.697,3.705-2.853c0.23-0.246,0.489-0.458,0.868-0.399c1.665,0.043,3.329-0.011,4.992,0.037
			c0.312,0.009,0.854-0.148,0.755,0.523c-0.79,1.066-1.503,2.191-2.447,3.136C82.065,88.46,81.933,88.696,81.667,88.778z"/>
		<path fill-rule="evenodd" clip-rule="evenodd" fill="#8C8E8F" d="M51.862,80.406c-1.612,0-3.223,0.001-4.835-0.002
			c-0.31-0.001-0.617-0.007-0.895,0.16c-0.63-1.56-1.014-3.179-1.132-4.858c0.115-0.136,0.272-0.2,0.439-0.201
			c1.723-0.016,3.447-0.135,5.168,0.062c0.324,0.162,0.366,0.487,0.408,0.785c0.169,1.181,0.462,2.328,0.856,3.453
			C51.94,80.001,52.037,80.209,51.862,80.406z"/>
		<path fill-rule="evenodd" clip-rule="evenodd" fill="#8F9092" d="M50.719,75.7c-1.906,0.002-3.812,0.003-5.718,0.005
			c-0.201-0.597-0.119-1.214-0.132-1.825c0.011-0.914,0.021-1.828,0.033-2.742c0.506-0.377,1.099-0.259,1.641-0.205
			c1.083,0.108,2.163,0.116,3.247,0.123c0.284,0.002,0.57,0.011,0.796,0.222c0.002,1.107,0,2.215,0.009,3.322
			c0.001,0.229-0.064,0.476,0.119,0.675C50.854,75.415,50.854,75.556,50.719,75.7z"/>
		<path fill-rule="evenodd" clip-rule="evenodd" fill="#898B8D" d="M84.691,85.144c-0.07-0.43-0.411-0.312-0.67-0.313
			c-1.487-0.008-2.976-0.004-4.463-0.003c-0.308,0-0.616,0.015-0.894-0.151c-0.032-0.125,0.007-0.236,0.078-0.332
			c0.836-1.14,1.639-2.3,2.281-3.565c0.046-0.09,0.131-0.126,0.235-0.088c1.59-0.001,3.18-0.002,4.769,0
			c0.302,0,0.636-0.07,0.8,0.302C86.336,82.491,85.619,83.871,84.691,85.144z"/>
		<path fill-rule="evenodd" clip-rule="evenodd" fill="#FEFEFE" d="M81.259,80.692c-0.718,1.423-1.566,2.762-2.594,3.985
			c-1.414,1.484-3.024,2.713-4.838,3.672c-2.61,1.19-5.337,1.799-8.214,1.602c-1.361-0.093-2.71-0.291-4.017-0.709
			c-2.642-0.931-4.941-2.395-6.888-4.411c-1.125-1.361-2.136-2.796-2.846-4.424c-0.566-1.524-0.962-3.089-1.143-4.707
			c-0.002-0.142-0.003-0.283-0.006-0.424c0.006-0.332,0.017-0.664,0.017-0.996c-0.001-10.744,0.001-21.488-0.018-32.231
			c-0.001-1.242,0.169-2.458,0.326-3.68c0.378-1.035,0.649-2.107,1.091-3.124c0.093-0.215,0.221-0.404,0.32-0.611
			c0.995-1.732,2.264-3.248,3.703-4.62c0.385-0.368,0.854-0.649,1.285-0.969c1.018-0.499,1.967-1.129,3.029-1.542
			c4.171-1.62,8.331-1.588,12.483,0.066c0.154,0.062,0.309,0.12,0.464,0.18c2.019,0.976,3.806,2.265,5.286,3.959
			c0.432,0.496,0.838,1.017,1.256,1.525c0.929,1.47,1.586,3.062,2.143,4.701c0.401,1.872,0.481,3.771,0.464,5.677
			c0,2.615,0,5.229,0,7.844c0,1.616,0,3.232,0.001,4.849c0,1.664,0,3.327,0,4.992c0,1.519,0,3.038,0,4.556
			c0.382,0.683,0.27,1.443,0.171,2.135c-0.167,1.15-0.083,2.293-0.125,3.438c-0.005,0.14,0.014,0.283-0.046,0.417
			c-0.002,1.048-0.003,2.097-0.004,3.146C82.458,76.964,81.981,78.856,81.259,80.692z"/>
		<path fill-rule="evenodd" clip-rule="evenodd" fill="#919294" d="M50.586,71.279c-1.898,0.103-3.788-0.182-5.684-0.141
			c0-1.474,0-2.947-0.001-4.421c0.223-0.217,0.511-0.225,0.793-0.227c1.366-0.01,2.732-0.01,4.098,0
			c0.283,0.002,0.569,0.014,0.794,0.226C50.586,68.236,50.586,69.758,50.586,71.279z"/>
		<path fill-rule="evenodd" clip-rule="evenodd" fill="#949596" d="M50.586,66.715c-1.896,0-3.79,0.001-5.686,0.002
			c-0.003-1.087,0.012-2.175-0.019-3.262c-0.014-0.476,0.164-0.622,0.619-0.596c1.694,0.098,3.388,0.202,5.087,0.148
			C50.586,64.243,50.586,65.479,50.586,66.715z"/>
		<path fill-rule="evenodd" clip-rule="evenodd" fill="#949596" d="M82.562,71.842c0-1.997,0-3.994,0-5.99
			c0.255-0.689,0.081-1.403,0.108-2.104c0.017-0.395,0.081-0.595,0.547-0.609c1.542-0.047,3.071,0.25,4.612,0.156
			c0.439-0.026,0.413,0.286,0.413,0.578c-0.005,1.614-0.008,3.229-0.011,4.843c-1.623-0.219-3.255-0.113-4.882-0.158
			c-0.539-0.015-0.675,0.168-0.683,0.69C82.652,70.111,82.832,70.987,82.562,71.842z"/>
	</g>
	<g>
		
			<rect x="206.613" y="65.289" transform="matrix(-0.7074 -0.7068 0.7068 -0.7074 289.7525 301.9142)" fill="#AFAEAF" width="1.5" height="51.397"/>
		
			<rect x="206.613" y="30.007" transform="matrix(0.7071 -0.7071 0.7071 0.7071 21.3458 162.9436)" fill="#AFAEAF" width="1.501" height="51.396"/>
	</g>
</g>
</svg>
