<?xml version="1.0" encoding="utf-8"?>
<!-- Generator: Adobe Illustrator 18.1.1, SVG Export Plug-In . SVG Version: 6.00 Build 0)  -->
<svg version="1.1" id="Layer_1" xmlns="http://www.w3.org/2000/svg" xmlns:xlink="http://www.w3.org/1999/xlink" x="0px" y="0px"
	 viewBox="0 0 402.088 134.976" enable-background="new 0 0 402.088 134.976" xml:space="preserve">
<linearGradient id="SVGID_1_" gradientUnits="userSpaceOnUse" x1="-212.5909" y1="210.7398" x2="-89.0909" y2="210.7398" gradientTransform="matrix(0 -1 1 0 -147.3878 -79.4366)">
	<stop  offset="0" style="stop-color:#000000"/>
	<stop  offset="0" style="stop-color:#6B6F71"/>
	<stop  offset="1" style="stop-color:#B8B8B8"/>
</linearGradient>
<circle fill-rule="evenodd" clip-rule="evenodd" fill="url(#SVGID_1_)" cx="63.352" cy="71.404" r="61.75"/>
<g>
	<g>
		<g>
			<linearGradient id="SVGID_2_" gradientUnits="userSpaceOnUse" x1="312.7386" y1="18.1407" x2="446.8693" y2="254.0254">
				<stop  offset="0" style="stop-color:#00FFFF"/>
				<stop  offset="1" style="stop-color:#23C920"/>
			</linearGradient>
			<path fill="url(#SVGID_2_)" d="M373.744,38.594l-40.768,83.543c-1.605,2.779-4.594,4.506-7.803,4.506
				c-3.21,0-6.195-1.727-7.802-4.506l-40.768-83.543c-2.481-4.302-1.005-9.821,3.3-12.306c1.369-0.792,2.925-1.21,4.498-1.21
				c3.215,0,6.205,1.729,7.809,4.505l32.963,67.705l32.966-67.705c1.602-2.776,4.596-4.505,7.809-4.505
				c1.572,0,3.129,0.418,4.5,1.21c2.082,1.201,3.572,3.146,4.194,5.469C375.267,34.081,374.946,36.509,373.744,38.594z"/>
		</g>
	</g>
	
		<radialGradient id="SVGID_3_" cx="373.4711" cy="-20.0735" r="189.2489" gradientTransform="matrix(1 0 0 1 -91.623 -14.6641)" gradientUnits="userSpaceOnUse">
		<stop  offset="0.1665" style="stop-color:#E6FA00"/>
		<stop  offset="1" style="stop-color:#4ADEDB"/>
	</radialGradient>
	<path fill="url(#SVGID_3_)" d="M347.903,0h-45.456c-4.957,0-8.988,4.033-8.988,8.988c0,4.954,4.031,8.986,8.988,8.986l45.456,0.002
		c4.956,0,8.989-4.031,8.989-8.988C356.892,4.033,352.859,0,347.903,0z"/>
</g>
<g>
	<path fill-rule="evenodd" clip-rule="evenodd" fill="#FEFEFE" d="M73.621,92.581c-1.825,0.73-3.654,1.443-5.602,1.785
		c-0.957,0.168-1.913,0.344-2.887,0.368c-0.369,0.009-0.563,0.106-0.562,0.528c0.008,4.893,0.003,10.079,0.006,14.996
		c0,0.209,0.324,0.625,0.913,0.625c4.227-0.006,7.806-0.006,12.034,0c0.214,0,0.89-0.066,1.096,0
		c0.295,0.097,0.56,0.104,0.531,0.656c0.094,1.281-0.145,1.158-1.627,1.158c-9.626,0-19.251,0.002-28.877-0.008
		c-0.261,0-0.711-0.019-0.777-0.338c-0.101-0.498-0.061-0.713,0.031-1.219c0.039-0.211,0.518-0.25,0.746-0.25
		c3.785-0.005,11.207,0.019,13.318,0.004c0.623-0.004,0.692-0.438,0.693-0.633c0.005-4.942,0.001-9.886,0.003-14.83
		c0.001-0.378,0.023-0.664-0.527-0.688c-4.889-0.354-10.286-2.85-11.168-3.382c-1.666-1.006-3.155-2.245-4.496-3.658
		c-1.597-1.626-2.858-3.493-3.948-5.484c-0.797-1.531-1.422-3.129-1.852-4.803c-0.33-1.188-0.42-2.395-0.553-3.62
		c-0.028-0.257,0.033-8.342,0-12.145c0-0.855-0.041-1.9,0-2.566c0.041-0.665-0.129-0.899,0.191-1.259
		c0.25-0.281,0.654-0.34,1.146-0.168c0.479,0.168,0.478,0.551,0.477,0.928c-0.019,4.056-0.022,8.111-0.017,12.168
		c0,0.354-0.016,2.322,0.113,2.947c0.158,1.654,0.644,3.261,1.212,4.821c0.517,1.643,1.291,3.16,2.252,4.585
		c1.098,1.642,2.34,3.16,3.875,4.42c1.118,1.002,2.335,1.865,3.667,2.562c2.628,1.461,5.444,2.285,8.429,2.61
		c4.369,0.478,8.418-0.542,12.284-2.493c1.822-0.827,3.328-2.097,4.791-3.425c0.972-0.869,2.823-3.476,3.026-3.706
		c0.922-1.271,1.834-3.11,2.306-4.094c0.472-0.983,0.879-3.476,1.068-5.272c0.166-0.622,0.211-2.551,0.211-2.882
		c-0.003-3.801,0.049-7.602,0-11.401c-0.003-0.261-0.01-0.523,0-0.784c0.013-0.336,0.05-0.642,0.163-0.878
		c0.202-0.423,1.246-0.376,1.562,0.074c0.225,0.32,0.219,2.152,0.252,2.716c0.22,3.747-0.042,7.496,0,11.243
		c0.026,1.448-0.001,2.958-0.288,4.372c-0.303,1.383-0.656,2.344-1.384,3.977c-0.231,0.52-2.929,5.152-4.369,6.734
		c-0.3,0.33-2.127,2.342-2.818,2.926C77.164,90.73,73.979,92.464,73.621,92.581z"/>
</g>
<g>
	
		<rect x="203.701" y="63.264" transform="matrix(-0.7074 -0.7068 0.7068 -0.7074 286.2109 296.3993)" fill="#AFAEAF" width="1.5" height="51.397"/>
	
		<rect x="203.7" y="27.983" transform="matrix(0.7071 -0.7071 0.7071 0.7071 21.9243 160.2914)" fill="#AFAEAF" width="1.501" height="51.396"/>
</g>
<circle fill-rule="evenodd" clip-rule="evenodd" fill="none" stroke="#969799" stroke-width="0.75" stroke-miterlimit="10" cx="63.462" cy="71.393" r="63.583"/>
<path fill-rule="evenodd" clip-rule="evenodd" fill="#FEFEFE" d="M78.223,78.667c-0.718,1.423-1.566,2.762-2.594,3.985
	c-1.414,1.484-3.024,2.713-4.837,3.672c-2.61,1.189-5.337,1.799-8.214,1.602c-1.361-0.093-2.71-0.291-4.017-0.71
	c-2.642-0.931-4.941-2.395-6.888-4.411c-1.125-1.361-2.136-2.796-2.846-4.424c-0.566-1.524-0.962-3.089-1.143-4.706
	c-0.002-0.142-0.003-0.283-0.006-0.424c0.006-0.332,0.017-0.664,0.017-0.996c-0.001-10.744,0.001-21.488-0.018-32.231
	c-0.001-1.242,0.169-2.458,0.326-3.68c0.378-1.035,0.649-2.108,1.091-3.124c0.093-0.215,0.221-0.404,0.32-0.611
	c0.995-1.732,2.264-3.248,3.703-4.62c0.385-0.368,0.854-0.649,1.285-0.969c1.018-0.499,1.967-1.129,3.029-1.542
	c4.171-1.62,8.331-1.588,12.483,0.066c0.154,0.062,0.309,0.12,0.464,0.18c2.019,0.976,3.806,2.265,5.286,3.959
	c0.432,0.496,0.838,1.017,1.256,1.525c0.929,1.47,1.586,3.063,2.143,4.701c0.401,1.872,0.481,3.771,0.464,5.677
	c0,2.615,0,5.229,0,7.844c0,1.616,0,3.232,0.001,4.849c0,1.664,0,3.327,0,4.992c0,1.519,0.088,8.984,0.046,10.129
	c-0.005,0.14-0.049,2.514-0.05,3.562C79.422,74.94,78.945,76.832,78.223,78.667z"/>
</svg>
