<?xml version="1.0" encoding="utf-8"?>
<!-- Generator: Adobe Illustrator 18.1.1, SVG Export Plug-In . SVG Version: 6.00 Build 0)  -->
<svg version="1.1" id="Layer_1" xmlns="http://www.w3.org/2000/svg" xmlns:xlink="http://www.w3.org/1999/xlink" x="0px" y="0px"
	 viewBox="216 -58 363.867 143" enable-background="new 216 -58 363.867 143" xml:space="preserve">
<g>
	<g>
		<g>
			
				<linearGradient id="SVGID_1_" gradientUnits="userSpaceOnUse" x1="512.2475" y1="68.2702" x2="658.0282" y2="-188.1021" gradientTransform="matrix(1 0 0 -1 0 32)">
				<stop  offset="0" style="stop-color:#00FFFF"/>
				<stop  offset="1" style="stop-color:#23C920"/>
			</linearGradient>
			<path fill="url(#SVGID_1_)" d="M578.551-14.041l-44.309,90.799c-1.744,3.021-4.992,4.897-8.48,4.897
				c-3.488,0-6.733-1.876-8.479-4.897l-44.308-90.799c-2.697-4.675-1.092-10.674,3.586-13.375c1.488-0.86,3.179-1.315,4.889-1.315
				c3.494,0,6.744,1.879,8.487,4.896l35.825,73.586l35.829-73.586c1.741-3.017,4.995-4.896,8.487-4.896
				c1.709,0,3.4,0.455,4.891,1.315c2.263,1.306,3.883,3.42,4.559,5.944C580.207-18.945,579.857-16.307,578.551-14.041z"/>
		</g>
	</g>
	
		<radialGradient id="SVGID_2_" cx="570.2969" cy="111.0771" r="205.6867" gradientTransform="matrix(1 0 0 -1 -91.623 17.3359)" gradientUnits="userSpaceOnUse">
		<stop  offset="0.1665" style="stop-color:#E6FA00"/>
		<stop  offset="1" style="stop-color:#4ADEDB"/>
	</radialGradient>
	<path fill="url(#SVGID_2_)" d="M550.466-55.986h-49.404c-5.388,0-9.769,4.384-9.769,9.769c0,5.384,4.381,9.767,9.769,9.767
		l49.404,0.002c5.387,0,9.771-4.381,9.771-9.769C560.236-51.603,555.853-55.986,550.466-55.986z"/>
</g>
<g>
	<path fill="#969799" d="M218.387,17.641c0.286-0.573,0.193-1.204,0.236-1.802c0.929-12.573,5.297-23.815,13.007-33.772
		c1.295-1.672,2.661-3.285,4.166-4.776c0.147-0.025,0.19,0.065,0.206,0.186c-0.229,0.599-0.714,1.011-1.125,1.461
		c-3.622,3.967-6.627,8.354-9.1,13.122c-3.101,5.982-5.144,12.302-6.158,18.955c-0.405,2.66-0.605,5.337-0.652,8.035
		c-0.084,4.923,0.325,9.789,1.39,14.596c1.004,4.534,2.496,8.901,4.488,13.099c2.454,5.171,5.569,9.903,9.325,14.214
		c0.724,0.831,1.449,1.667,2.244,2.436c0.227,0.22,0.496,0.42,0.556,0.767c-0.016,0.121-0.061,0.211-0.208,0.186
		c-1.959-1.819-3.673-3.862-5.308-5.968c-4.512-5.813-7.884-12.233-10.107-19.249c-1.299-4.104-2.191-8.297-2.565-12.592
		c-0.105-1.212-0.187-2.427-0.279-3.64c-0.091-0.289-0.025-0.584-0.045-0.875c0-0.967,0-1.934,0-2.9
		c-0.039-0.354,0.082-0.721-0.071-1.068C218.387,17.917,218.387,17.779,218.387,17.641z"/>
	<path fill="#D2D2D3" d="M278.772-41.915c1.243,0,2.487,0,3.73,0c0.042,0.092,0.02,0.166-0.065,0.22
		c-1.2,0.181-2.399,0.181-3.6,0.001C278.752-41.749,278.73-41.823,278.772-41.915z"/>
	<path fill="#D2D2D3" d="M282.502,82.585c-1.243,0-2.487,0-3.73,0c-0.042-0.093-0.02-0.166,0.065-0.22
		c1.199-0.181,2.399-0.181,3.6-0.001C282.521,82.419,282.544,82.493,282.502,82.585z"/>
	<path fill="#D6D6D7" d="M342.887,18.746c0,1.06,0,2.118,0,3.178c-0.091,0.041-0.163,0.02-0.219-0.063
		c-0.181-1.017-0.181-2.034-0.001-3.052C342.724,18.726,342.796,18.705,342.887,18.746z"/>
	<path fill="#D0D0D1" d="M218.506,19.019c0,1.018,0,2.035,0,3.052c-0.043,0.055-0.083,0.049-0.119-0.009c0-1.013,0-2.026,0-3.04
		C218.424,18.961,218.464,18.96,218.506,19.019z"/>
	<path fill="#DCDCDC" d="M218.506,19.019c-0.039,0.001-0.08,0.002-0.119,0.003c0-0.322,0-0.644,0-0.967
		C218.666,18.347,218.472,18.697,218.506,19.019z"/>
	<path fill="#E8E8E9" d="M218.387,22.062c0.039,0.004,0.08,0.007,0.119,0.009c-0.001,0.275-0.001,0.551-0.002,0.827
		c-0.039,0-0.078-0.001-0.116-0.006C218.387,22.615,218.387,22.339,218.387,22.062z"/>
	<path fill="#EAEAEA" d="M342.771,21.931c0.04,0.001,0.078,0,0.116-0.007c0,0.276,0,0.553,0,0.829l-0.059,0.005h-0.059
		C342.516,22.482,342.516,22.206,342.771,21.931z"/>
	<path fill="#E6E6E6" d="M342.887,18.746c-0.039-0.004-0.08-0.006-0.119-0.004c-0.222-0.232-0.223-0.463,0.004-0.693
		c0.039-0.004,0.078-0.001,0.115,0.006C342.887,18.285,342.887,18.516,342.887,18.746z"/>
	<path fill="#ECEDED" d="M282.511-41.796c-0.004-0.039-0.007-0.079-0.009-0.119c0.23,0,0.461,0,0.691,0
		c0.001,0.039,0.002,0.077,0.004,0.114C282.97-41.573,282.741-41.574,282.511-41.796z"/>
	<path fill="#ECECEC" d="M278.763,82.467c0.004,0.039,0.007,0.079,0.009,0.118c-0.23,0-0.461,0-0.691,0
		c-0.001-0.039-0.003-0.077-0.004-0.115C278.304,82.243,278.533,82.245,278.763,82.467z"/>
	<path fill="#ECECEC" d="M278.772-41.915c-0.001,0.039-0.004,0.079-0.009,0.118c-0.23,0.223-0.459,0.224-0.687-0.003
		c0.001-0.038,0.003-0.075,0.004-0.114C278.311-41.915,278.542-41.915,278.772-41.915z"/>
	<path fill="#ECEDED" d="M282.502,82.585c0.001-0.039,0.004-0.08,0.009-0.118c0.23-0.223,0.459-0.224,0.687,0.003
		c-0.002,0.038-0.003,0.076-0.004,0.115C282.963,82.585,282.732,82.585,282.502,82.585z"/>
	<path fill="#969799" d="M283.198,82.471c-0.229-0.001-0.458-0.002-0.687-0.003c-1.25,0-2.498,0-3.748,0
		c-0.229,0.001-0.458,0.003-0.687,0.003c-8.988-0.399-17.514-2.581-25.542-6.657c-5.136-2.608-9.833-5.853-14.049-9.784
		c-0.587-0.548-1.216-1.052-1.724-1.683c0.048-0.048,0.096-0.097,0.143-0.145c0.333-0.064,0.498,0.192,0.69,0.375
		c1.791,1.693,3.643,3.312,5.597,4.817c2.578,1.987,5.306,3.741,8.167,5.285c6.01,3.243,12.389,5.403,19.123,6.552
		c4.541,0.775,9.121,0.97,13.693,0.719c9.021-0.495,17.55-2.887,25.526-7.165c4.545-2.437,8.731-5.384,12.536-8.875
		c0.619-0.567,1.152-1.257,1.941-1.629c0.12,0.013,0.212,0.054,0.191,0.202c-2.078,2.16-4.375,4.071-6.779,5.852
		c-6.988,5.173-14.727,8.722-23.206,10.654C290.703,81.826,286.97,82.3,283.198,82.471z"/>
	<path fill="#969799" d="M342.772,18.049c-0.002,0.23-0.002,0.461-0.004,0.693c0.001,1.063,0.002,2.125,0.003,3.189
		c0,0.276-0.001,0.551-0.001,0.827c-0.38,9.024-2.565,17.582-6.646,25.646c-0.725,1.431-1.471,2.854-2.365,4.191
		c-0.148,0.016-0.195-0.081-0.225-0.199c0.137-0.747,0.634-1.319,0.986-1.956c3.581-6.466,5.946-13.339,7.104-20.645
		c0.677-4.271,0.834-8.569,0.623-12.862c-0.356-7.255-2.002-14.244-4.88-20.923c-1.495-3.471-3.28-6.794-5.385-9.938
		c-0.203-0.303-0.46-0.582-0.5-0.97c0.016-0.122,0.056-0.221,0.208-0.207c2.054,2.816,3.746,5.846,5.232,8.991
		c2.341,4.953,3.979,10.136,4.938,15.528C342.365,12.27,342.663,15.15,342.772,18.049z"/>
	<path fill="#9A9B9D" d="M333.617,52.436c0.047,0.053,0.094,0.107,0.142,0.16c-2.605,4.376-5.734,8.339-9.389,11.887
		c-0.051-0.047-0.102-0.095-0.153-0.142c-0.053-0.304,0.181-0.455,0.351-0.629c2.19-2.238,4.218-4.612,6.051-7.151
		c0.848-1.173,1.667-2.367,2.431-3.599C333.188,52.739,333.26,52.428,333.617,52.436z"/>
	<path fill="#969799" d="M278.076-41.801c0.229,0.001,0.458,0.002,0.687,0.004c1.25,0,2.498,0,3.748,0
		c0.229-0.002,0.458-0.003,0.687-0.004c9.327,0.411,18.134,2.76,26.4,7.1c4.769,2.505,9.136,5.585,13.088,9.249
		c0.336,0.312,0.661,0.635,0.99,0.954c0.018,0.148-0.075,0.186-0.195,0.197c-0.589-0.244-1.005-0.722-1.458-1.133
		c-4.85-4.394-10.258-7.923-16.233-10.593c-4.818-2.153-9.833-3.633-15.028-4.534c-4.535-0.785-9.114-0.955-13.686-0.717
		c-7.585,0.396-14.874,2.175-21.796,5.325c-5.841,2.658-11.187,6.091-15.94,10.424c-0.485,0.442-0.92,0.968-1.555,1.23
		c-0.121-0.014-0.212-0.056-0.19-0.204c1.945-1.966,4.078-3.715,6.308-5.343c6.94-5.069,14.604-8.565,22.989-10.473
		C270.573-41.158,274.305-41.627,278.076-41.801z"/>
	<path fill="#9B9C9D" d="M331.688-15.104c-0.047,0.053-0.094,0.106-0.142,0.159c-0.289,0.026-0.39-0.207-0.519-0.388
		c-1.811-2.554-3.82-4.943-5.971-7.216c-0.156-0.166-0.338-0.32-0.34-0.578c0.033-0.104,0.081-0.187,0.213-0.138
		C327.445-20.762,329.718-18.058,331.688-15.104z"/>
	<path fill="#A0A1A3" d="M324.931-23.265c-0.051,0.055-0.103,0.11-0.154,0.166c-0.624-0.214-1.043-0.634-1.258-1.258
		c0.053-0.047,0.105-0.095,0.158-0.142C324.15-24.144,324.557-23.722,324.931-23.265z"/>
	<path fill="#A0A1A3" d="M237.594-24.504c0.052,0.048,0.104,0.097,0.156,0.146c-0.382,0.822-0.991,1.419-1.805,1.812
		c-0.049-0.054-0.1-0.108-0.149-0.162C236.343-23.359,236.938-23.962,237.594-24.504z"/>
	<path fill="#FDFDFD" d="M235.945-22.547c0.602-0.604,1.203-1.208,1.805-1.812c2.634-2.407,5.368-4.688,8.336-6.681
		c7.243-4.86,15.16-8.048,23.737-9.596c4.775-0.861,9.602-1.129,14.433-0.825c13.653,0.859,25.749,5.698,36.265,14.455
		c1.024,0.853,1.999,1.765,2.997,2.65c0.419,0.419,0.838,0.838,1.258,1.258c2.45,2.558,4.691,5.288,6.771,8.153
		c1.986,2.994,3.81,6.081,5.309,9.351c2.546,5.554,4.241,11.35,5.091,17.404c0.552,3.937,0.705,7.889,0.494,11.842
		c-0.504,9.469-3.046,18.374-7.659,26.674c-0.39,0.702-0.777,1.405-1.166,2.109c-1.079,1.564-2.083,3.18-3.214,4.711
		c-1.885,2.552-4.002,4.899-6.186,7.193c-2.108,1.957-4.243,3.878-6.554,5.599c-7.849,5.844-16.593,9.623-26.215,11.366
		c-4.775,0.865-9.603,1.123-14.437,0.828c-12.332-0.75-23.474-4.833-33.406-12.185c-2.166-1.603-4.202-3.366-6.136-5.244
		c-0.18-0.175-0.375-0.335-0.564-0.502c-1.786-1.918-3.569-3.839-5.176-5.917c-5.601-7.242-9.423-15.321-11.477-24.241
		c-1.314-5.71-1.756-11.504-1.413-17.336c0.677-11.462,4.292-21.946,10.769-31.436C231.505-17.51,233.67-20.072,235.945-22.547z"/>
	<path fill="#939495" d="M339.978,12.11c0.347,1.742,0.456,3.512,0.533,5.276c0.317,7.327-0.581,14.496-2.86,21.483
		c-1.927,5.909-4.702,11.382-8.325,16.426c-4.094,5.701-9.042,10.536-14.828,14.504c-5.685,3.898-11.863,6.735-18.532,8.493
		c-3.697,0.975-7.453,1.583-11.273,1.83c-10.305,0.667-20.157-1.093-29.497-5.522c-12.845-6.092-22.357-15.583-28.616-28.326
		c-2.663-5.422-4.366-11.162-5.263-17.135c-0.603-4.018-0.734-8.064-0.545-12.115c0.097-2.064,0.287-4.127,0.681-6.162
		c0.123-0.32,0.375-0.445,0.697-0.473c0.276-0.024,0.552-0.021,0.828-0.021c2.714-0.001,5.43-0.043,8.143,0.007
		c7.841,0.149,15.682,0.113,23.524,0.151c1.04,0.006,2.11-0.016,3.135,0.292c0.196,0.226,0.209,0.506,0.203,0.78
		c-0.076,3.115,0.236,6.224,0.144,9.34c-0.01,0.318,0.026,0.646-0.165,0.934c-0.264,0.139-0.285-0.087-0.359-0.237
		c-0.125-1.261-0.03-2.525-0.057-3.789c-0.019-0.894-0.056-0.938-0.931-0.954c-0.092-0.001,0.023-0.001-0.069,0
		c-9.681,0.058-19.36-0.242-29.041-0.142c-1.701,0.017-3.396-0.209-5.099-0.138c-0.994,0.042-1.152,0.178-1.171,1.181
		c-0.021,1.173,0.023,2.346-0.021,3.518c-0.035,1.482,0.108,2.957,0.218,4.433c0.137,1.757,0.369,3.504,0.675,5.24
		c0.306,1.63,0.675,3.247,1.1,4.85c0.421,1.785,1.072,3.496,1.651,5.23c0.618,1.644,1.271,3.273,2.058,4.844
		c0.757,1.604,1.58,3.173,2.483,4.699c1.057,1.803,2.242,3.521,3.462,5.215c1.308,1.714,2.679,3.377,4.124,4.979
		c1.744,1.764,3.462,3.558,5.403,5.116c2.293,1.893,4.685,3.647,7.221,5.203c3.753,2.233,7.656,4.145,11.817,5.503
		c4.067,1.4,8.244,2.317,12.513,2.801c3.505,0.397,7.019,0.419,10.542,0.226c5.001-0.274,9.848-1.294,14.602-2.82
		c4.178-1.349,8.191-3.065,11.939-5.372c1.894-1.05,3.642-2.319,5.378-3.605c0.608-0.452,1.212-0.908,1.791-1.399
		c1.756-1.471,3.471-2.987,5.076-4.624c0.193-0.196,0.396-0.383,0.547-0.615c0.521-0.649,1.163-1.188,1.681-1.839
		c0.932-0.974,1.747-2.042,2.525-3.139c1.06-1.243,1.943-2.611,2.794-3.998c0.204-0.333,0.396-0.67,0.631-0.982
		c1.101-1.721,2.029-3.533,2.898-5.377c0.757-1.459,1.355-2.987,1.943-4.519c0.576-1.499,1.071-3.023,1.506-4.568
		c0.586-1.905,0.943-3.863,1.362-5.807c0.289-1.708,0.507-3.426,0.681-5.149c0.153-0.412,0.046-0.856,0.146-1.274
		c0.107-0.309,0.091-0.626,0.067-0.945c0-0.979-0.021-1.956,0.006-2.932c-0.018-1.574,0.018-3.148-0.138-4.718
		c-0.008-1.709-0.029-1.729-1.717-1.731c-0.779-0.001-1.558,0.014-2.337-0.011c-0.206-0.006-0.452-0.003-0.553-0.205
		c-0.107-0.214,0.071-0.398,0.214-0.537c0.754-0.733,1.412-1.566,2.283-2.178c0.376-0.125,0.766-0.095,1.15-0.082
		C339.705,11.252,339.835,11.374,339.978,12.11z"/>
	<path fill="#969798" d="M339.978,12.11c-0.134-0.613-0.555-0.742-1.113-0.693c-0.361,0.032-0.726,0.005-1.09,0.005
		c-0.302,0.2-0.642,0.226-0.992,0.226c-2.253-0.001-4.512,0.095-6.759-0.022c-4.185-0.22-8.368-0.11-12.55-0.098
		c-4.414,0.012-8.825-0.243-13.239-0.16c-0.298,0.006-0.602,0.013-0.868-0.164c-0.37-0.793-0.179-1.622-0.133-2.436
		c0.019-0.33,0.333-0.412,0.62-0.44c0.529-0.052,1.063-0.067,1.587-0.015c2.345,0.236,4.694,0.102,7.041,0.119
		c3.247,0.024,6.496-0.074,9.741,0.025c5.088,0.155,10.174,0.096,15.262,0.119c1.281,0.005,1.363-0.098,1.139-1.34
		c-0.079-0.431-0.207-0.851-0.26-1.284c-0.455-1.608-0.87-3.23-1.405-4.816c-0.669-1.714-1.21-3.479-2.047-5.127
		c-0.731-1.583-1.416-3.191-2.351-4.673c-1.062-1.966-2.253-3.851-3.576-5.653c-1.065-1.36-2.024-2.804-3.186-4.09
		c-0.092-0.101-0.177-0.208-0.287-0.292c-1.202-1.488-2.591-2.797-3.932-4.154c-0.404-0.41-0.824-0.8-1.299-1.128
		c-1.128-0.97-2.199-2.004-3.404-2.884c-1.054-0.769-2.075-1.584-3.205-2.244c-2.404-1.707-4.996-3.085-7.638-4.377
		c-0.373-0.183-0.748-0.351-1.155-0.442c-3.831-1.73-7.788-3.085-11.912-3.921c-2.686-0.544-5.39-0.928-8.128-1.129
		c-2.417-0.176-4.836-0.19-7.243-0.079c-4.469,0.207-8.875,0.924-13.185,2.164c-2.303,0.662-4.561,1.454-6.772,2.374
		c-0.165,0.067-0.339,0.105-0.503,0.175c-0.249,0.097-0.485,0.227-0.735,0.323c-2.702,1.238-5.329,2.615-7.829,4.225
		c-2.215,1.369-4.263,2.964-6.269,4.617c-0.727,0.6-1.39,1.271-2.125,1.861c-1.83,1.772-3.617,3.585-5.257,5.538
		c-0.99,1.263-2.017,2.498-2.909,3.836c-1.176,1.58-2.174,3.272-3.157,4.974c-0.913,1.568-1.694,3.203-2.475,4.839
		c-0.63,1.504-1.286,2.997-1.799,4.547c-0.619,1.622-1.057,3.299-1.535,4.964c-0.052,0.438-0.17,0.86-0.26,1.287
		c-0.252,1.194-0.233,1.221,0.957,1.221c2.186,0.002,4.374-0.065,6.557,0.013c6.509,0.236,13.021,0.013,19.528,0.158
		c2.368,0.053,4.737,0.067,7.104,0.11c0.297,0.004,0.602-0.013,0.863,0.178c0.292,0.843,0.313,1.684-0.007,2.524
		c-6.757-0.264-13.52,0.017-20.275-0.171c-5.036-0.14-10.067-0.018-15.1-0.108c-0.354-0.006-0.688,0.006-0.958,0.274
		c0.66-4.501,1.903-8.843,3.608-13.053c2.491-6.153,5.913-11.746,10.273-16.75c5.958-6.835,13.085-12.093,21.408-15.718
		c4.553-1.983,9.28-3.384,14.179-4.176c4.557-0.736,9.142-0.92,13.752-0.626c8.001,0.512,15.583,2.567,22.739,6.148
		c7.486,3.745,13.915,8.845,19.278,15.288c5.268,6.327,9.099,13.423,11.417,21.318c0.705,2.402,1.249,4.853,1.62,7.336
		C339.8,11.125,340.024,11.594,339.978,12.11z"/>
	<path fill="#747879" d="M323.949,61.306c-1.192,1.423-2.623,2.6-3.98,3.852c-0.534,0.493-1.115,0.935-1.675,1.4
		c-0.455,0.078-0.914,0.092-1.374,0.087c-8.217-0.097-16.435-0.061-24.649-0.182c-6.054-0.089-12.109,0.066-18.158-0.12
		c-6.284-0.195-12.57,0.045-18.849-0.146c-4.052-0.124-8.1-0.043-12.15-0.105c-0.278-0.004-0.55-0.034-0.821-0.091
		c-1.979-1.511-3.697-3.298-5.39-5.111c0.078-0.427,0.445-0.419,0.747-0.466c0.478-0.072,0.965-0.054,1.447-0.03
		c5.844,0.296,11.692-0.018,17.534,0.152c6.49,0.19,12.982-0.036,19.468,0.149c5.847,0.167,11.692-0.046,17.534,0.128
		c6.49,0.193,12.981-0.024,19.468,0.152c3.291,0.088,6.58,0.042,9.869,0.108C323.308,61.09,323.669,61.03,323.949,61.306z"/>
	<path fill="#717577" d="M242.293,66.002c0.205-0.224,0.476-0.132,0.716-0.133c3.521-0.006,7.045-0.109,10.561,0.02
		c6.254,0.229,12.51-0.059,18.759,0.141c6.094,0.195,12.188-0.062,18.275,0.137c6.117,0.2,12.232-0.049,18.344,0.148
		c2.896,0.093,5.788,0.035,8.682,0.101c0.234,0.005,0.458,0.023,0.664,0.143c-2.068,1.735-4.271,3.281-6.566,4.7
		c-0.196,0.121-0.381,0.254-0.619,0.277c-5.592-0.126-11.189,0.079-16.778-0.084c-6.192-0.181-12.384,0.055-18.57-0.136
		c-6.1-0.188-12.199,0.01-18.295-0.138c-2.186-0.053-4.369-0.102-6.555-0.113c-0.485-0.002-0.966,0.021-1.432,0.176
		c-2.479-1.519-4.807-3.25-7.069-5.072C242.36,66.128,242.332,66.059,242.293,66.002z"/>
	<path fill="#6E7274" d="M249.479,71.24c0.131-0.451,0.507-0.397,0.845-0.398c1.819-0.004,3.641-0.078,5.456,0.012
		c5.543,0.272,11.089-0.021,16.629,0.14c6.764,0.196,13.53-0.031,20.289,0.155c5.799,0.16,11.594,0.02,17.39,0.106
		c0.365,0.004,0.747-0.057,1.02,0.28c-0.572,0.583-1.327,0.886-2.021,1.261c-3.009,1.621-6.145,2.96-9.392,4.034
		c-0.15,0.049-0.311,0.069-0.466,0.102c-0.687-0.083-1.378-0.063-2.068-0.065c-8.63-0.03-17.26-0.152-25.89-0.179
		c-2.874-0.009-5.75-0.054-8.626-0.093c-0.478-0.006-0.967-0.041-1.421,0.176C257.108,75.354,253.204,73.49,249.479,71.24z"/>
	<path fill="#777A7C" d="M323.949,61.306c-7.106,0.078-14.21-0.237-21.316-0.141c-1.243,0.017-2.487,0.033-3.729-0.002
		c-7.104-0.202-14.214-0.003-21.316-0.169c-6.049-0.142-12.098,0.068-18.142-0.127c-6.301-0.203-12.601-0.013-18.901-0.136
		c-0.865-0.017-1.735-0.114-2.606-0.118c-0.373-0.002-0.732,0.028-1.035,0.277c-1.35-1.358-2.527-2.863-3.703-4.37
		c-0.154-0.196-0.294-0.404-0.442-0.605c0.005-0.299,0.24-0.364,0.458-0.435c0.154-0.049,0.317-0.053,0.479-0.059
		c0.23-0.008,0.46-0.005,0.689-0.007c11.062-0.08,22.124,0.163,33.186,0.182c3.699,0.007,7.403,0.031,11.103,0.096
		c0.32,0.006,0.649-0.021,0.936,0.172c0.313,0.896,0.262,1.796,0.034,2.699c-0.342,0.258-0.746,0.196-1.132,0.197
		c-3.892,0.005-7.783,0.002-11.673,0.003c-0.253,0-0.506,0-0.759,0.018c-0.402,0.028-0.479,0.294-0.479,0.623
		c0,0.342,0.033,0.657,0.483,0.69c0.299,0.022,0.597,0.019,0.896,0.019c8.934,0.001,17.868,0.001,26.801-0.001
		c0.436,0,0.89,0.081,1.305-0.062c0.528-0.181,0.197-0.81,0.509-1.125c0.193-0.156,0.423-0.183,0.654-0.162
		c2.388,0.222,4.781,0.077,7.173,0.099c2.968,0.028,5.938-0.066,8.902,0.024c4.07,0.123,8.14,0.101,12.21,0.132
		c0.403,0.002,0.914-0.108,1.078,0.481C325.057,60.103,324.504,60.705,323.949,61.306z"/>
	<path fill="#7D8082" d="M334.458,45.967c-0.825,1.874-1.761,3.687-2.902,5.39c-0.267,0.093-0.542,0.092-0.819,0.09
		c-1.864-0.008-3.729,0.042-5.591-0.011c-6.923-0.202-13.85,0.001-20.77-0.165c-5.89-0.141-11.777-0.037-17.665-0.095
		c-1.472-0.016-2.937-0.223-4.411-0.158c-0.229,0.01-0.46-0.024-0.655-0.175c-0.074-0.091-0.131-0.194-0.136-0.311
		c-0.063-1.519-0.038-3.038-0.014-4.557c0.005-0.347,0.204-0.546,0.546-0.604c0.206-0.035,0.414-0.044,0.62-0.042
		c8.171,0.138,16.344,0.04,24.513,0.179c5.662,0.096,11.325-0.029,16.984,0.114c3.153,0.079,6.304,0.111,9.456,0.125
		C333.911,45.748,334.22,45.728,334.458,45.967z"/>
	<path fill="#808385" d="M279.6,58.53c-0.002-0.871-0.003-1.741-0.006-2.611c-0.198-0.226-0.211-0.502-0.21-0.779
		c0-1.447-0.026-2.893,0.012-4.339c-0.042-1.081-0.006-2.162-0.02-3.243c-0.011-0.881-0.065-0.916-0.939-0.954
		c-6.185-0.274-12.375,0.007-18.558-0.159c-6.44-0.174-12.882,0.035-19.318-0.148c-4.209-0.119-8.417-0.035-12.624-0.106
		c-0.386-0.007-0.79,0.057-1.124-0.223c-0.882-1.529-1.506-3.17-2.07-4.836c-0.021-0.224,0.116-0.336,0.297-0.41
		c0.129-0.053,0.267-0.077,0.405-0.076c4,0.029,8.002-0.133,12.001,0.088c0.298,0.017,0.597,0.034,0.896,0.034
		c1.082,0.002,2.162,0.01,3.243,0c9.498-0.094,18.994,0.238,28.491,0.137c0.299-0.003,0.597-0.012,0.888-0.082
		c0.334-0.032,0.633,0.094,0.929,0.221c2.289,0.981,4.688,1.492,7.163,1.676c0.725,0.054,0.885,0.188,0.887,0.936
		c0.017,4.72,0.016,9.441-0.003,14.162C279.94,58.082,280.027,58.444,279.6,58.53z"/>
	<path fill="#7B7D7F" d="M279.594,50.806c0,1.704,0,3.409,0,5.113c-7.475,0.085-14.948-0.229-22.424-0.145
		c-2.232,0.025-4.469,0.091-6.696-0.013c-5.564-0.26-11.129-0.038-16.693-0.12c-0.364-0.006-0.746-0.059-1.022,0.274
		c-1.26-1.679-2.476-3.386-3.457-5.249c0.035-0.319,0.299-0.305,0.514-0.34c0.25-0.041,0.505-0.024,0.758-0.024
		c0.322-0.001,0.645,0.002,0.966-0.001c11.298-0.089,22.594,0.146,33.892,0.184c4.392,0.015,8.786,0.023,13.18,0.095
		C278.953,50.586,279.309,50.547,279.594,50.806z"/>
	<path fill="#87898A" d="M339.294,31.044c-0.26,1.8-0.72,3.557-1.156,5.319c-0.041,0.166-0.052,0.37-0.226,0.484
		c-5.427-0.119-10.859,0.084-16.285-0.083c-5.959-0.181-11.917,0.02-17.873-0.133c-2.251-0.058-4.505-0.052-6.754-0.168
		c-0.57-0.214-0.206-0.489-0.023-0.711c0.653-0.795,1.337-1.564,1.934-2.406c0.597-0.842,1.125-1.724,1.601-2.638
		c0.16-0.305,0.307-0.622,0.683-0.727c1.289-0.002,2.576,0.011,3.862,0.01c3.105-0.004,6.21-0.049,9.313,0.008
		c7.678,0.142,15.356,0.129,23.035,0.129c0.485,0,0.965,0.043,1.434,0.171C339.215,30.403,339.471,30.595,339.294,31.044z"/>
	<path fill="#818385" d="M334.458,45.967c-2.372,0-4.748,0.083-7.115-0.015c-6.28-0.259-12.564,0.051-18.841-0.152
		c-4.993-0.162-9.983-0.051-14.973-0.1c-3.702-0.036-7.401-0.23-11.105-0.164c-0.621,0.011-0.781,0.183-0.762,0.782
		c0.046,1.496,0.025,2.993,0.032,4.489c0.177,0.205,0.194,0.457,0.195,0.709c0,1.412,0.026,2.823-0.012,4.235
		c-0.053,0.919,0.189,1.856-0.158,2.759c-0.28,0.104-0.298-0.131-0.342-0.287c-0.082-0.29-0.054-0.593-0.054-0.891
		c-0.002-4.366-0.001-8.732-0.001-13.098c0-0.138-0.001-0.275,0.003-0.413c0.029-0.864,0.191-1.023,1.05-1.11
		c2.089-0.21,4.134-0.615,6.106-1.353c0.643-0.241,1.237-0.621,1.94-0.694c6.645,0.193,13.295-0.037,19.937,0.136
		c5.82,0.153,11.639-0.02,17.455,0.125c2.529,0.063,5.056,0.103,7.585,0.125c0.365,0.002,0.749-0.004,0.994,0.354
		c-0.224,1.055-0.746,1.997-1.156,2.979C335.011,44.925,334.874,45.518,334.458,45.967z"/>
	<path fill="#FEFEFE" d="M290.345,40.842c-1.768,0.707-3.54,1.398-5.427,1.729c-0.927,0.163-1.854,0.333-2.797,0.356
		c-0.357,0.009-0.546,0.103-0.545,0.511c0.008,4.941,0.003,9.882,0.006,14.824c0,0.082,0.062,0.163,0.094,0.243
		c0.234-0.184,0.514-0.186,0.79-0.187c4.095-0.006,8.191-0.006,12.287,0c0.208,0,0.416,0.003,0.616,0.068
		c0.286,0.094,0.435,0.257,0.275,0.569c-0.083,1.375-0.083,1.375-1.52,1.375c-9.326,0-18.651,0.001-27.978-0.007
		c-0.252,0-0.672,0.165-0.735-0.145c-0.098-0.483-0.071-1.013,0.018-1.502c0.038-0.204,0.413-0.103,0.634-0.103
		c4.237-0.005,8.475-0.003,12.712-0.005c0.275,0,0.549-0.025,0.825-0.038c0.227-0.147,0.122-0.376,0.123-0.566
		c0.005-4.789,0.001-9.579,0.003-14.368c0-0.366,0.023-0.644-0.51-0.667c-2.763-0.123-5.402-0.788-7.928-1.914
		c-0.061-0.027-0.134-0.028-0.201-0.042c-1.027-0.175-1.837-0.805-2.691-1.321c-1.614-0.975-3.057-2.175-4.356-3.544
		c-1.547-1.575-2.769-3.384-3.825-5.313c-0.772-1.484-1.377-3.032-1.794-4.653c-0.32-1.15-0.531-2.32-0.661-3.507
		c-0.027-0.25-0.067-0.504,0.125-0.716c-0.032-3.684-0.064-7.367-0.096-11.051c0-0.829,0-1.657-0.001-2.486
		c-0.305-0.394-0.354-0.859-0.038-1.204c0.38-0.416,0.939-0.299,1.43-0.179c0.462,0.112,0.463,0.533,0.462,0.898
		c-0.019,3.93-0.021,7.859-0.017,11.79c0,0.343-0.032,0.69,0.073,1.026c0.131,0.604,0.014,1.228,0.139,1.833
		c0.153,1.603,0.521,3.156,1.072,4.667c0.5,1.592,1.251,3.062,2.183,4.442c1.063,1.591,2.267,3.062,3.754,4.283
		c1.083,0.971,2.262,1.807,3.553,2.482c2.546,1.416,5.274,2.214,8.167,2.529c4.233,0.463,8.156-0.525,11.902-2.415
		c1.765-0.801,3.224-2.032,4.642-3.318c0.942-0.842,1.658-1.871,2.393-2.884c0.174-0.24,0.342-0.484,0.539-0.707
		c0.894-1.231,1.524-2.595,2.05-4.013c0.601-1.641,1.037-3.321,1.22-5.062c0.16-0.603-0.026-1.229,0.131-1.833
		c0.098-0.315,0.073-0.639,0.073-0.959c-0.002-3.683,0.019-7.365-0.028-11.046c-0.003-0.253-0.005-0.507,0.005-0.76
		c0.036-0.909,0.742-1.342,1.562-0.942c0.506,0.247,0.449,0.746,0.357,1.152c-0.123,0.55-0.138,1.097-0.106,1.643
		c0.213,3.63,0.085,7.262,0.126,10.893c0.025,1.403-0.174,2.782-0.452,4.152c-0.294,1.34-0.663,2.658-1.168,3.937
		c-0.202,0.513-0.41,1.016-0.789,1.427c-0.993,1.804-2.048,3.564-3.444,5.098c-0.291,0.319-0.568,0.651-0.853,0.978
		c-0.398,0.847-1.207,1.291-1.877,1.856c-1.068,0.901-2.253,1.643-3.474,2.324C291.047,40.655,290.691,40.729,290.345,40.842z"/>
	<path fill="#7B7E7F" d="M281.695,55.783c0-1.658-0.001-3.316-0.001-4.975c7.084,0.221,14.174-0.001,21.256,0.171
		c5.361,0.13,10.72-0.028,16.078,0.117c3.956,0.106,7.909,0.117,11.863,0.12c0.235,0.001,0.458,0.022,0.666,0.141
		c-0.947,1.556-1.906,3.104-3.026,4.544c-0.127,0.164-0.234,0.337-0.426,0.432c-1.285,0.162-2.57,0.106-3.856,0.017
		c-0.343-0.023-0.686-0.073-1.033-0.07c-11.188,0.098-22.376-0.213-33.566-0.146c-2.393,0.014-4.782-0.202-7.177-0.138
		C282.199,56.003,281.914,56,281.695,55.783z"/>
	<path fill="#7D8082" d="M279.594,50.806c-8.827-0.046-17.653-0.094-26.479-0.139c-1.472-0.007-2.947,0.057-4.416-0.012
		c-6.203-0.292-12.41-0.042-18.613-0.123c-0.263-0.004-0.557-0.105-0.785,0.134c-1-1.476-1.792-3.062-2.488-4.699
		c3.961,0,7.925-0.11,11.881,0.025c6.259,0.213,12.519-0.06,18.773,0.14c6.051,0.192,12.101,0.017,18.15,0.119
		c1.168,0.019,2.334,0.196,3.506,0.127c0.431-0.025,0.482,0.212,0.479,0.559C279.592,48.227,279.596,49.517,279.594,50.806z"/>
	<path fill="#838587" d="M264.129,36.016c2.033,2.054,4.369,3.682,6.956,4.958c-0.396,0.13-0.802,0.163-1.22,0.162
		c-3.382-0.008-6.765,0.057-10.145-0.018c-7.309-0.159-14.621-0.015-21.927-0.165c-4.067-0.084-8.133-0.019-12.198-0.094
		c-0.305-0.005-0.665-0.114-0.854,0.272c-0.667-1.714-1.317-3.434-1.659-5.251c0.351-0.312,0.785-0.229,1.187-0.219
		c6.138,0.164,12.278,0.071,18.416,0.149c6.92,0.088,13.84,0.141,20.761,0.116C263.681,35.926,263.907,35.948,264.129,36.016z"/>
	<path fill="#87898A" d="M264.129,36.016c-0.249,0.155-0.526,0.142-0.803,0.142c-5.182-0.001-10.367,0.12-15.544-0.032
		c-6.121-0.18-12.242,0.039-18.359-0.14c-2.113-0.062-4.226-0.051-6.339-0.105c-0.537-1.573-0.875-3.192-1.104-4.836
		c-0.17-0.358,0.023-0.514,0.337-0.589c0.271-0.065,0.549-0.05,0.825-0.05c2.99-0.001,5.984-0.094,8.971,0.019
		c6.186,0.235,12.374-0.025,18.556,0.147c3.082,0.086,6.161,0.085,9.241,0.091c0.164,0,0.321,0.015,0.462,0.107
		C261.41,32.671,262.675,34.411,264.129,36.016z"/>
	<path fill="#848688" d="M290.345,40.842c1.842-1.01,3.642-2.083,5.21-3.499c0.39-0.351,0.778-0.701,1.168-1.052
		c4.969-0.005,9.934,0.235,14.903,0.145c1.036-0.019,2.073-0.023,3.108,0c7.431,0.173,14.863,0.128,22.294,0.134
		c0.327,0,0.649-0.008,0.883,0.277c-0.372,1.565-0.816,3.105-1.52,4.56c-0.354-0.104-0.713-0.146-1.084-0.143
		c-1.174,0.013-2.35,0.043-3.522-0.001c-6.689-0.249-13.385,0.022-20.072-0.162c-6.141-0.17-12.28-0.009-18.417-0.121
		C292.314,40.962,291.332,40.829,290.345,40.842z"/>
	<path fill="#8B8D8E" d="M301.021,30.216c0.729-1.708,1.365-3.446,1.76-5.265c0.299-0.224,0.648-0.21,0.994-0.21
		c4.416-0.002,8.836-0.116,13.248,0.028c5.727,0.187,11.451,0.043,17.176,0.101c1.633,0.016,3.257,0.203,4.892,0.166
		c0.76-0.017,0.914,0.167,0.895,0.758c-0.069,1.771-0.303,3.521-0.691,5.251c0.014-0.319-0.087-0.517-0.452-0.558
		c-0.59-0.066-1.176-0.142-1.777-0.141c-4.601,0.012-9.204,0.087-13.803-0.012c-7.081-0.152-14.161-0.1-21.241-0.108
		C301.687,30.226,301.354,29.988,301.021,30.216z"/>
	<path fill="#919293" d="M340.124,15.845c0.175,1.608,0.136,3.223,0.138,4.836c-0.266,0.238-0.596,0.222-0.916,0.222
		c-3.612,0.004-7.228,0.114-10.834-0.028c-3.935-0.157-7.866-0.106-11.796-0.089c-4.164,0.019-8.322-0.184-12.485-0.16
		c-0.297,0.001-0.604,0.019-0.86-0.183c-0.126-1.632-0.092-3.264-0.018-4.898c0.271-0.231,0.604-0.199,0.922-0.199
		c4.696-0.006,9.396-0.12,14.088,0.027c5.847,0.182,11.69,0.044,17.536,0.095c1.2,0.01,2.387,0.171,3.585,0.163
		C339.716,15.629,339.942,15.678,340.124,15.845z"/>
	<path fill="#8A8C8D" d="M260.371,30.77c-0.331,0.104-0.666,0.142-1.016,0.141c-2.209-0.008-4.422,0.073-6.628-0.02
		c-6.323-0.262-12.651,0.045-18.971-0.157c-3.703-0.118-7.401-0.028-11.101-0.1c-0.292-0.005-0.701-0.135-0.676,0.411
		c-0.357-1.039-0.38-2.135-0.542-3.206c-0.101-0.674-0.218-1.355-0.149-2.045c0.237-0.24,0.548-0.229,0.843-0.217
		c6.597,0.262,13.201-0.021,19.797,0.167c5.038,0.144,10.071,0.021,15.106,0.11c0.532,0.009,1.118-0.13,1.551,0.353
		C259.069,27.771,259.649,29.297,260.371,30.77z"/>
	<path fill="#8F9192" d="M221.012,21.372c0-1.267-0.004-2.533,0.001-3.799c0.004-1.009,0.172-1.2,1.154-1.171
		c7.107,0.203,14.22,0.011,21.325,0.172c4.509,0.102,9.015,0.031,13.521,0.083c0.617,0.007,0.785,0.175,0.766,0.779
		c-0.043,1.403-0.015,2.808-0.016,4.213c-0.31,0.271-0.69,0.208-1.054,0.223c-1.795,0.07-3.586-0.124-5.378-0.131
		c-4.833-0.02-9.668,0.078-14.499-0.03c-4.968-0.11-9.937-0.094-14.906-0.118C221.608,21.592,221.278,21.609,221.012,21.372z"/>
	<path fill="#8D8F90" d="M303.369,20.405c1.587,0,3.178-0.06,4.762,0.011c6.321,0.278,12.647-0.044,18.963,0.159
		c4.392,0.141,8.778,0.026,13.167,0.106c0,1.014,0,2.026,0,3.04c-0.18,0.254,0.035,0.574-0.138,0.829
		c-0.062,0.413,0.138,0.855-0.139,1.244c0.023-0.45-0.283-0.542-0.628-0.547c-1.354-0.022-2.708-0.103-4.058-0.118
		c-5.458-0.062-10.918,0.094-16.372-0.06c-5.383-0.15-10.765-0.013-16.147-0.117c0.234-1.37,0.434-2.744,0.472-4.137
		C303.351,20.695,303.241,20.516,303.369,20.405z"/>
	<path fill="#8D8E90" d="M221.012,21.372c0.161,0,0.322,0,0.483,0c10.302-0.05,20.602,0.207,30.904,0.175
		c1.783-0.006,3.577,0.058,5.365,0.103c0.04,0.091,0.079,0.181,0.118,0.271c0.109,1.449,0.408,2.867,0.703,4.287
		c-0.58-0.154-1.172-0.137-1.764-0.137c-4.006,0.001-8.015,0.093-12.017-0.021c-6.671-0.188-13.341-0.038-20.011-0.143
		c-1.166-0.018-2.335-0.102-3.505-0.112c-0.265-0.858-0.135-1.756-0.26-2.631C220.944,22.577,221.012,21.97,221.012,21.372z"/>
	<path fill="#939496" d="M340.124,15.845c-6.757-0.267-13.52,0.016-20.274-0.171c-5.496-0.152-10.987-0.022-16.48-0.105
		c-0.115-1.474-0.114-2.948,0-4.421c2.139,0,4.282-0.076,6.418,0.013c6.274,0.263,12.553-0.036,18.823,0.159
		c3.056,0.094,6.109,0.03,9.163,0.103c-0.8,0.839-1.602,1.678-2.508,2.626c1.259,0,2.374,0,3.489,0c1.142,0,1.146-0.001,1.341,1.109
		C340.136,15.381,340.116,15.615,340.124,15.845z"/>
	<path fill="#787B7D" d="M281.695,55.783c1.658-0.001,3.319-0.069,4.973,0.007c6.119,0.282,12.242-0.046,18.356,0.151
		c6.19,0.199,12.378-0.005,18.564,0.14c1.328,0.031,2.658,0.087,3.989,0.118c0.176,0.004,0.351,0.087,0.526,0.133
		c-0.697,1.162-1.592,2.168-2.493,3.169c-0.161-0.187-0.372-0.261-0.61-0.268c-0.092-0.002-0.184-0.001-0.276-0.001
		c-9.033,0.008-18.064-0.234-27.098-0.146c-0.661,0.007-1.321-0.084-1.982-0.131c-0.014-0.53-0.414-0.382-0.702-0.382
		c-4.151-0.006-8.301-0.003-12.452-0.007c-0.271,0-0.551,0.055-0.814-0.061C281.683,57.598,281.69,56.69,281.695,55.783z"/>
	<path fill="#6B6F71" d="M261.225,76.77c0.108-0.422,0.455-0.4,0.773-0.4c2.578-0.004,5.159-0.096,7.733,0.017
		c5.772,0.252,11.546-0.03,17.314,0.142c3.793,0.113,7.584,0.088,11.376,0.115c0.308,0,0.599,0.023,0.808,0.289
		c-1.708,0.743-3.527,1.103-5.322,1.552c-2.243,0.561-4.521,0.926-6.813,1.188c-2.738,0.312-5.492,0.344-8.245,0.288
		c-4.967-0.101-9.831-0.895-14.608-2.238C263.227,77.436,262.229,77.088,261.225,76.77z"/>
	<path fill="#939496" d="M340.124,24.549c0.044-0.276-0.113-0.587,0.138-0.829C340.217,23.997,340.374,24.307,340.124,24.549z"/>
	<path fill="#ABABAC" d="M313.736-29.206c1.186,0.556,2.158,1.425,3.205,2.183c1.22,0.884,2.327,1.902,3.425,2.93
		c0.025,0.264-0.154,0.36-0.359,0.431c-0.132,0.045-0.271,0.062-0.408,0.061c-4.02-0.043-8.042,0.144-12.061-0.105
		c-0.345-0.021-0.689-0.022-1.034-0.022c-5.149,0-10.297-0.011-15.447,0.007c-1.081,0.004-2.15-0.227-3.233-0.134
		c-0.159,0.013-0.323-0.019-0.469,0.068c-0.439,0.133-0.808-0.109-1.185-0.249c-3.176-1.185-6.4-1.282-9.67-0.458
		c-1.415,0.355-2.712,0.982-3.967,1.71c-0.294,0.17-0.57,0.407-0.953,0.255c-0.955-0.124-1.913-0.222-2.875-0.229
		c-1.748-0.014-3.496-0.023-5.244,0c-7.45,0.094-14.898-0.215-22.349-0.143c-0.253,0.002-0.51,0.013-0.753-0.067
		c-0.2-0.065-0.415-0.14-0.275-0.43c1.121-1.104,2.331-2.107,3.563-3.084c1.431-1.136,2.898-2.224,4.438-3.212
		c0.135-0.086,0.251-0.201,0.425-0.202c4.851,0.354,9.71,0.106,14.564,0.199c7.848,0.149,15.698,0.02,23.542,0.172
		c5.87,0.113,11.738-0.028,17.604,0.119c2.922,0.074,5.843,0.115,8.765,0.117C313.238-29.29,313.483-29.217,313.736-29.206z"/>
	<path fill="#AFAEAF" d="M313.736-29.206c-0.227,0.137-0.477,0.144-0.733,0.143c-2.164-0.003-4.332,0.078-6.491-0.018
		c-6.119-0.269-12.241,0.051-18.355-0.147c-6.144-0.198-12.287,0.06-18.424-0.138c-6.144-0.199-12.284-0.024-18.425-0.119
		c-0.755-0.011-1.501-0.187-2.262-0.144c-0.208,0.011-0.399-0.093-0.537-0.268c2.465-1.722,5.144-3.052,7.878-4.277
		c0.521,0.133,1.051,0.047,1.575,0.048c4.444,0.003,8.891-0.109,13.33,0.028c6.285,0.195,12.571-0.052,18.851,0.142
		c4.489,0.139,8.976,0.041,13.463,0.104c0.479,0.007,0.97,0.044,1.42-0.189c0.134,0.022,0.283,0.015,0.4,0.073
		C308.292-32.547,311.185-31.174,313.736-29.206z"/>
	<path fill="#999A9B" d="M222.947,5.205c0.407-1.643,0.805-3.29,1.52-4.836c2.936,0.166,5.88-0.104,8.815,0.166
		c0.298,0.028,0.597,0.024,0.896,0.024c1.816,0,3.633,0.015,5.45-0.002c8.162-0.078,16.321,0.239,24.484,0.144
		c0.341-0.004,0.695-0.036,1,0.179c0.061,0.071,0.122,0.15,0.125,0.241c0.071,1.495,0.096,2.988-0.013,4.482
		c-0.005,0.071-0.06,0.123-0.095,0.183c-0.299,0.229-0.653,0.194-0.995,0.195c-3.293,0.005-6.589,0.104-9.876-0.02
		c-6.008-0.225-12.018,0.041-18.021-0.143c-4.051-0.124-8.101-0.05-12.149-0.121C223.666,5.688,223.13,5.822,222.947,5.205z"/>
	<path fill="#9A9A9C" d="M337.083,1.059c0.599,1.525,0.988,3.113,1.381,4.698c-0.07,0.389-0.401,0.346-0.65,0.344
		c-1.519-0.004-3.039,0.109-4.554-0.079c-0.344-0.043-0.689-0.041-1.034-0.042c-1.98,0-3.96-0.002-5.94,0
		c-9.737,0.01-19.473-0.208-29.211-0.171c-0.541,0.002-0.685,0.202-0.671,0.682c0.012,0.506,0.023,1.013-0.013,1.519
		c-0.02,0.261,0.021,0.577-0.344,0.669c-0.166-0.15-0.207-0.354-0.208-0.56c-0.005-1.432-0.081-2.864,0.043-4.295
		c0.196-0.702,0.077-1.42,0.102-2.129c0.032-0.847,0.225-1.12,1.046-1.116c3.197,0.016,6.396-0.15,9.591,0.094
		c0.322,0.025,0.644,0.023,0.967,0.023c2.992,0,5.984,0.016,8.976-0.003c6.512-0.042,13.021,0.245,19.533,0.144
		C336.44,0.832,336.795,0.809,337.083,1.059z"/>
	<path fill="#9C9D9E" d="M337.083,1.059c-3.73,0-7.463,0.105-11.188-0.022c-6.349-0.22-12.7,0.048-19.044-0.15
		c-3.243-0.102-6.481-0.031-9.721-0.1c-0.895-0.019-0.922,0.053-0.955,0.927c-0.027,0.704,0.143,1.418-0.108,2.11
		c-0.208-0.16-0.232-0.396-0.231-0.624c0.003-1.357-0.077-2.716,0.047-4.072c0.205-0.793,0.072-1.602,0.102-2.403
		c0.033-0.868,0.231-1.129,1.109-1.124c2.596,0.02,5.196-0.143,7.79,0.102c0.251,0.024,0.505,0.021,0.758,0.021
		c0.806,0.001,1.61,0.009,2.415-0.001c8.784-0.106,17.565,0.211,26.348,0.134c0.208-0.002,0.417-0.012,0.606,0.091
		c0.667,0.945,0.926,2.072,1.373,3.115C336.662-0.292,336.853,0.392,337.083,1.059z"/>
	<path fill="#9C9D9E" d="M265.086,0.922c-10.349,0.064-20.695-0.245-31.044-0.14c-0.069,0.001-0.139,0.006-0.207,0
		c-2.82-0.263-5.648-0.086-8.473-0.137c-0.326-0.006-0.635-0.061-0.896-0.277c0.301-1.345,0.957-2.556,1.437-3.833
		c0.095-0.251,0.239-0.484,0.36-0.726c0.267-0.235,0.596-0.223,0.917-0.223c2.646-0.005,5.298-0.104,7.939,0.02
		c4.625,0.217,9.248,0.075,13.872,0.106c5.061,0.034,10.121,0.245,15.183,0.151c0.32-0.006,0.649-0.023,0.935,0.175
		c0.035,0.084,0.025-0.035,0.038,0.054c0.245,1.575,0.191,3.152,0.03,4.73C265.172,0.858,265.117,0.889,265.086,0.922z"/>
	<path fill="#A3A3A4" d="M329.069-14.418c1.036,1.229,1.839,2.614,2.671,3.977c0.334,0.547,0.617,1.126,0.923,1.69
		c-0.26,0.256-0.595,0.219-0.912,0.219c-5.545,0.006-11.095,0.121-16.637-0.03c-5.821-0.158-11.64-0.022-17.459-0.111
		c-0.539-0.008-1.044,0.119-1.558,0.234c-0.232-0.137-0.257-0.377-0.25-0.6c0.044-1.537-0.106-3.055-0.375-4.565
		c-0.028-0.158-0.006-0.319,0.054-0.472c0.264-0.477,0.732-0.419,1.161-0.421c2.233-0.011,4.466-0.004,6.699-0.005
		c2.187,0,4.377-0.069,6.561,0.013c5.821,0.222,11.645,0.076,17.467,0.125C327.967-14.36,328.518-14.374,329.069-14.418z"/>
	<path fill="#B1B0B1" d="M305.026-34.04c-0.048,0.479-0.409,0.415-0.727,0.415c-4.214,0.001-8.431,0.116-12.64-0.027
		c-6.03-0.204-12.059,0.061-18.082-0.135c-5.591-0.181-11.18-0.038-16.769-0.125c-0.145-0.002-0.539,0.226-0.423-0.262
		c0.231-0.094,0.46-0.188,0.692-0.28c0.155,0.003,0.307-0.003,0.411-0.144c0.83-0.5,1.75-0.789,2.649-1.114
		c2.933-1.061,5.92-1.94,8.994-2.502c1.888-0.347,3.784-0.607,5.692-0.825c2.98-0.344,5.967-0.344,8.941-0.217
		c4.464,0.19,8.858,0.95,13.165,2.173C299.713-36.293,302.41-35.274,305.026-34.04z"/>
	<path fill="#A2A2A3" d="M265.086,0.922c0-1.612,0-3.224,0.001-4.836c-0.233-0.269-0.215-0.598-0.217-0.918
		c-0.007-0.897,0.005-1.795-0.005-2.693c-0.01-0.787-0.075-0.858-0.883-0.861c-3.269-0.009-6.54,0.088-9.805-0.022
		c-6.466-0.22-12.933-0.017-19.397-0.145c-1.746-0.035-3.494-0.086-5.241-0.125c-0.288-0.007-0.676,0.101-0.789-0.35
		c0.929-1.742,1.896-3.458,3.177-4.975c0.151-0.124,0.329-0.151,0.519-0.146c5.728,0.137,11.459-0.078,17.184,0.091
		c4.97,0.146,9.937,0.034,14.903,0.112c0.38,0.005,0.799-0.07,1.072,0.318c0.124,0.265,0.094,0.541,0.045,0.812
		c-0.191,1.069-0.198,2.148-0.197,3.23c0.005,10.16,0.004,20.32-0.001,30.48c0,0.429,0.088,0.879-0.18,1.274
		c-0.481-0.03-0.377-0.429-0.385-0.691c-0.027-1.044-0.035-2.09,0-3.134c-0.024-1.475-0.028-2.948,0-4.422
		c-0.024-1.203-0.027-2.406,0-3.609c-0.037-1.259-0.013-2.519-0.013-3.778c0-0.275,0.011-0.553,0.212-0.776
		C265.086,4.146,265.086,2.534,265.086,0.922z"/>
	<path fill="#9F9FA1" d="M296.066-8.474c0.318-0.348,0.708-0.487,1.176-0.418c0.112,0.017,0.229,0.003,0.345,0.002
		c11.692-0.083,23.383,0.239,35.076,0.139c0.988,1.463,1.699,3.065,2.348,4.698c-0.248,0.155-0.525,0.14-0.802,0.139
		c-3.542-0.001-7.088,0.105-10.625-0.025c-6.159-0.226-12.318,0.044-18.472-0.149c-2.664-0.083-5.325-0.042-7.987-0.099
		c-0.89-0.02-0.916,0.052-0.949,0.929c-0.03,0.795,0.141,1.599-0.109,2.384c-0.281-0.246-0.241-0.584-0.242-0.9
		c-0.01-1.933-0.01-3.867,0-5.8C295.825-7.89,295.786-8.229,296.066-8.474z"/>
	<path fill="#A7A7A8" d="M240.082-23.398c0.024,0.149,0.091,0.26,0.258,0.267c0.138,0.006,0.276,0.008,0.414,0.008
		c9.443-0.017,18.885,0.24,28.328,0.138c0.734-0.008,1.451,0.226,2.189,0.143c0.201-0.023,0.354,0.077,0.453,0.255
		c-0.336,0.595-0.941,0.922-1.417,1.371c-1.146,1.079-2.116,2.282-2.933,3.617c-0.171,0.282-0.344,0.555-0.744,0.494
		c-6.137-0.282-12.278,0.031-18.412-0.159c-4.093-0.127-8.182-0.033-12.272-0.119c-0.409-0.008-0.971,0.189-1.115-0.487
		C236.422-19.864,238.204-21.677,240.082-23.398z"/>
	<path fill="#9F9FA0" d="M228.75-9.028c0.204,0.226,0.474,0.129,0.716,0.135c7.468,0.196,14.939,0.033,22.406,0.181
		c4.182,0.083,8.361,0.03,12.541,0.085c0.562,0.006,0.702,0.182,0.689,0.711c-0.034,1.333-0.014,2.668-0.015,4.002
		c-8.254,0.058-16.507-0.243-24.762-0.141c-0.966,0.011-1.935,0.05-2.898-0.008c-3.72-0.224-7.442-0.091-11.165-0.129
		C227.002-5.851,227.75-7.504,228.75-9.028z"/>
	<path fill="#A9A8A9" d="M287.202-23.843c0.711-0.497,1.5-0.208,2.252-0.19c0.286,0.006,0.585,0.079,0.883,0.08
		c0.69,0.002,1.38,0.008,2.071,0c9.013-0.104,18.024,0.195,27.037,0.134c0.324-0.002,0.711,0.139,0.922-0.274
		c1.789,1.427,3.36,3.072,4.82,4.827c0.132,0.158,0.235,0.333,0.426,0.43c-0.025,0.466-0.396,0.458-0.704,0.476
		c-0.71,0.044-1.431,0.077-2.137,0.002c-2.066-0.217-4.135-0.102-6.202-0.115c-3.518-0.022-7.038,0.068-10.555-0.026
		c-3.677-0.097-7.354-0.11-11.031-0.118c-0.391,0-0.783-0.005-1.167,0.064c-0.462,0.163-0.663-0.187-0.892-0.466
		c-1.174-1.425-2.459-2.725-4.042-3.705c-0.372-0.23-0.759-0.429-1.142-0.638C287.528-23.478,287.259-23.545,287.202-23.843z"/>
	<path fill="#A6A6A7" d="M293.541-18.529c0.052-0.371,0.341-0.309,0.585-0.309c3.039-0.001,6.083-0.105,9.116,0.021
		c5.59,0.233,11.179,0.05,16.767,0.104c1.63,0.016,3.253,0.248,4.886,0.151c0.271-0.016,0.567,0.051,0.717-0.275
		c1.125,1.203,2.122,2.508,3.045,3.871c0.128,0.188,0.274,0.365,0.411,0.547c-0.049,0.342-0.315,0.276-0.534,0.276
		c-5.361,0.001-10.727,0.124-16.083-0.033c-5.358-0.156-10.713-0.019-16.068-0.103c-0.294-0.004-0.616-0.061-0.769,0.304
		c-0.295-0.038-0.326-0.296-0.393-0.501c-0.397-1.219-0.863-2.405-1.569-3.485C293.547-18.126,293.413-18.306,293.541-18.529z"/>
	<path fill="#979799" d="M296.067,8.66c0.256-0.809,0.079-1.638,0.104-2.457c0.016-0.525,0.045-0.898,0.72-0.612
		c0.138,0.06,0.318,0.028,0.479,0.026c11.555-0.096,23.108,0.202,34.663,0.166c1.902-0.006,3.811,0.109,5.716,0.107
		c0.242,0,0.512,0.093,0.716-0.134c0.313,0.74,0.405,1.537,0.524,2.317c0.068,0.444-0.151,0.738-0.727,0.735
		c-4.396-0.022-8.795,0.106-13.187-0.041c-5.957-0.199-11.912-0.022-17.867-0.109c-1.077-0.017-2.145-0.188-3.228-0.153
		c-0.486,0.016-0.646,0.163-0.623,0.64c0.033,0.666,0.01,1.334,0.01,2.002c0,1.474,0,2.948,0,4.421c0,1.612,0,3.224,0,4.836
		c-0.006,0.146,0.023,0.302-0.117,0.41c-0.005-4.307-0.007-8.613-0.021-12.918c-0.001-0.248,0.164-0.639-0.181-0.717
		c-0.391-0.089-0.834-0.076-1.229,0.013c-0.248,0.056-0.135,0.404-0.135,0.621c-0.005,4.03,0,8.061-0.004,12.09
		c0,0.317,0.066,0.646-0.092,0.951c-0.239-0.205-0.233-0.49-0.233-0.761c-0.003-1.397-0.031-2.795,0.012-4.191
		c-0.022-1.401,0.001-2.802-0.012-4.204c-0.008-0.833-0.064-0.914-0.915-0.882c-0.993,0.036-1.968-0.167-2.958-0.151
		c-1.081,0.018-1.08,0.006-1.088,1.062c-0.002,0.322,0.029,0.647-0.041,0.962c-0.04,0.178-0.036,0.442-0.356,0.365
		c-0.166-0.213-0.169-0.466-0.171-0.716c-0.01-0.977-0.014-1.952,0.001-2.929C295.833,9.142,295.824,8.857,296.067,8.66z"/>
	<path fill="#A5A5A6" d="M234.831-17.871c0.088,0.185,0.236,0.274,0.44,0.274c0.115,0,0.23,0.002,0.345,0.001
		c9.756-0.036,19.511,0.238,29.269,0.149c0.67-0.007,1.357,0.04,2.006,0.274c-0.306,1.208-0.772,2.361-1.192,3.531
		c-0.023,0.062-0.106,0.077-0.175,0.087c-0.184-0.259-0.459-0.17-0.7-0.169c-9.891,0.08-19.78-0.24-29.67-0.145
		c-1.077,0.01-2.158,0.067-3.227-0.136c0.407-0.992,1.239-1.684,1.817-2.556C234.057-17.029,234.466-17.436,234.831-17.871z"/>
	<path fill="#969799" d="M265.086,5.758c0,1.52,0,3.04,0,4.56c-0.267,0.237-0.597,0.202-0.917,0.213
		c-1.174,0.041-2.341-0.063-3.512-0.127c-0.815-0.044-0.867,0.039-0.877,0.836c-0.011,0.896,0.015,1.793-0.013,2.69
		c0.028,1.422,0.028,2.843,0.002,4.264c0.035,0.635,0.018,1.27,0.009,1.905c-0.003,0.269,0.005,0.552-0.232,0.753
		c-0.158-0.303-0.09-0.631-0.091-0.948c-0.004-3.995-0.016-7.99,0.015-11.985c0.004-0.631-0.161-0.824-0.797-0.802
		c-0.578,0.019-1.01,0.029-0.873,0.784c0.028,0.154-0.01,0.32-0.016,0.48c-2.094,0-4.19,0.076-6.28-0.015
		c-6.181-0.271-12.368,0.045-18.546-0.158c-3.333-0.109-6.661-0.041-9.991-0.092c-0.534-0.008-0.706-0.161-0.574-0.672
		c0.191-0.745,0.258-1.521,0.552-2.242c0.234,0.285,0.557,0.28,0.883,0.277c8.235-0.072,16.467,0.174,24.702,0.162
		C254.049,5.634,259.567,5.791,265.086,5.758z"/>
	<path fill="#AFAEAF" d="M257.488-34.598c-0.049,0.297-0.177,0.373-0.411,0.144C257.175-34.613,257.339-34.586,257.488-34.598z"/>
	<path fill="#858788" d="M295.199,35.287c-1.322,1.375-2.822,2.506-4.545,3.333c-0.433-0.089-0.87-0.026-1.303-0.027
		c-2.941-0.009-5.881-0.019-8.823,0c-3.329,0.02-6.655-0.248-9.986-0.141c-0.114,0.003-0.229-0.01-0.337,0.038
		c-1.277-0.644-2.449-1.438-3.467-2.449c0.033-0.453,0.405-0.479,0.705-0.484c1.584-0.029,3.17-0.1,4.751,0.043
		c1.146,0.104,2.293,0.09,3.44,0.024c0.677,0.102,1.354,0.216,2.028,0.342c2.955,0.553,5.834,0.314,8.639-0.791
		c0.443-0.175,0.869-0.43,1.377-0.375c0.204,0.058,0.412,0.044,0.618,0.035c2.073-0.091,4.137,0.182,6.208,0.152
		C294.76,34.982,295.077,34.938,295.199,35.287z"/>
	<path fill="#838587" d="M270.205,38.489c0.082-0.378,0.39-0.254,0.616-0.255c1.723-0.009,3.451-0.087,5.167,0.011
		c4.635,0.266,9.271,0.035,13.904,0.131c0.26,0.005,0.623-0.188,0.761,0.244c-4.31,2.35-8.877,3.142-13.725,2.303
		c-2.136-0.369-4.166-1.045-6.095-2.025C270.613,38.786,270.415,38.627,270.205,38.489z"/>
	<path fill="#8F9192" d="M301.559,15.848c0.01,1.668,0.02,3.337,0.03,5.005c-0.016,0.603,0.07,1.212-0.138,1.8
		c-0.284-0.416-0.682-0.532-1.174-0.522c-1.118,0.023-2.235,0.013-3.353,0.004c-0.316-0.002-0.645,0.028-0.92-0.186
		c-0.34-1.007-0.154-2.034-0.121-3.056c0.203-0.771,0.077-1.556,0.101-2.334c0.03-0.92,0.135-1.056,1.025-1.068
		c1.034-0.015,2.069-0.025,3.103,0.006C300.612,15.513,301.13,15.514,301.559,15.848z"/>
	<path fill="#86888A" d="M275.753,35.736c-1.175,0.288-2.37,0.184-3.546,0.083c-1.65-0.14-3.296-0.036-4.944-0.064
		c-0.206-0.003-0.397,0.102-0.524,0.286c-1.491-1.209-2.729-2.639-3.733-4.273c-0.094-0.596,0.369-0.499,0.66-0.465
		c1.233,0.145,2.47,0.044,3.705,0.083c0.506,0.016,1.004-0.068,1.505-0.092c0.349,0.012,0.599,0.217,0.82,0.454
		c1.551,1.668,3.447,2.797,5.562,3.591C275.458,35.413,275.73,35.428,275.753,35.736z"/>
	<path fill="#8C8E8F" d="M296.063,21.925c1.533-0.001,3.065,0.027,4.597-0.016c0.585-0.016,0.867,0.131,0.792,0.744
		c-0.124,1.77-0.549,3.464-1.251,5.092c-1.436-0.151-2.876-0.051-4.314-0.081c-0.34-0.007-0.688,0.035-1.012-0.116
		c-0.246-0.173-0.171-0.409-0.088-0.616c0.591-1.477,0.874-3.023,1.076-4.589C295.882,22.184,295.917,22.026,296.063,21.925z"/>
	<path fill="#898B8D" d="M269.08,31.462c-1.415,0.24-2.843,0.098-4.264,0.133c-0.39,0.01-0.774-0.003-1.161-0.109
		c-0.239-0.065-0.577-0.141-0.649,0.281c-0.989-1.356-1.724-2.841-2.235-4.439c0.133-0.303,0.415-0.35,0.688-0.352
		c1.551-0.01,3.102-0.076,4.651,0.035c0.246,0.054,0.372,0.24,0.485,0.443c0.7,1.257,1.423,2.496,2.375,3.585
		C269.069,31.154,269.19,31.284,269.08,31.462z"/>
	<path fill="#87898B" d="M295.199,35.287c-0.133-0.122-0.299-0.101-0.457-0.096c-2.175,0.07-4.341-0.237-6.517-0.143
		c-0.218,0.009-0.469,0.072-0.622-0.177c0.047-0.3,0.321-0.374,0.528-0.497c1.308-0.778,2.544-1.645,3.589-2.764
		c0.223-0.238,0.474-0.444,0.841-0.387c1.613,0.041,3.225-0.011,4.836,0.036c0.302,0.009,0.827-0.144,0.731,0.507
		c-0.766,1.032-1.457,2.123-2.371,3.038C295.585,34.979,295.457,35.208,295.199,35.287z"/>
	<path fill="#8C8E8F" d="M266.322,27.176c-1.562,0-3.123,0.001-4.685-0.002c-0.3-0.001-0.598-0.007-0.867,0.155
		c-0.61-1.512-0.982-3.08-1.097-4.707c0.111-0.132,0.264-0.194,0.425-0.195c1.669-0.016,3.34-0.13,5.007,0.061
		c0.313,0.157,0.354,0.472,0.395,0.76c0.164,1.144,0.447,2.256,0.829,3.345C266.398,26.783,266.492,26.984,266.322,27.176z"/>
	<path fill="#8F9092" d="M265.215,22.616c-1.847,0.001-3.694,0.003-5.541,0.005c-0.195-0.579-0.115-1.177-0.127-1.768
		c0.011-0.886,0.021-1.771,0.032-2.657c0.49-0.366,1.065-0.251,1.59-0.199c1.049,0.105,2.096,0.112,3.146,0.12
		c0.275,0.002,0.552,0.01,0.771,0.215c0.002,1.072,0,2.146,0.009,3.218c0.001,0.222-0.062,0.461,0.115,0.654
		C265.346,22.34,265.345,22.477,265.215,22.616z"/>
	<path fill="#898B8D" d="M298.129,31.766c-0.068-0.417-0.398-0.302-0.649-0.304c-1.441-0.008-2.883-0.004-4.324-0.002
		c-0.298,0-0.596,0.014-0.866-0.146c-0.031-0.121,0.007-0.229,0.076-0.322c0.81-1.105,1.588-2.229,2.21-3.454
		c0.044-0.087,0.127-0.123,0.228-0.085c1.54,0,3.081-0.002,4.621,0c0.293,0,0.616-0.068,0.775,0.292
		C299.723,29.196,299.028,30.533,298.129,31.766z"/>
	<path fill="#FEFEFE" d="M294.804,27.453c-0.696,1.379-1.518,2.676-2.514,3.861c-1.37,1.438-2.93,2.628-4.687,3.558
		c-2.529,1.153-5.171,1.743-7.959,1.552c-1.318-0.09-2.625-0.282-3.892-0.687c-2.559-0.902-4.788-2.32-6.673-4.273
		c-1.09-1.318-2.069-2.709-2.757-4.287c-0.549-1.477-0.932-2.993-1.107-4.56c-0.002-0.137-0.003-0.274-0.006-0.411
		c0.006-0.322,0.016-0.644,0.016-0.965c-0.001-10.409,0.001-20.819-0.018-31.228c-0.001-1.204,0.164-2.381,0.316-3.565
		c0.366-1.003,0.629-2.042,1.057-3.026c0.09-0.208,0.214-0.391,0.31-0.592c0.964-1.679,2.194-3.146,3.587-4.477
		c0.374-0.356,0.828-0.629,1.246-0.939c0.986-0.483,1.905-1.094,2.934-1.494c4.042-1.569,8.072-1.538,12.095,0.063
		c0.149,0.06,0.299,0.117,0.449,0.175c1.956,0.946,3.688,2.194,5.122,3.836c0.418,0.48,0.812,0.985,1.217,1.477
		c0.9,1.424,1.537,2.967,2.076,4.555c0.389,1.813,0.466,3.653,0.45,5.5c0,2.533,0,5.066,0,7.6c0,1.566,0,3.131,0,4.698
		c0,1.612,0,3.224,0,4.836c0,1.472,0,2.943,0,4.415c0.37,0.662,0.262,1.398,0.166,2.068c-0.162,1.114-0.081,2.222-0.121,3.331
		c-0.005,0.136,0.013,0.274-0.044,0.404c-0.001,1.016-0.003,2.031-0.004,3.047C295.965,23.841,295.503,25.674,294.804,27.453z"/>
	<path fill="#919294" d="M265.085,18.333c-1.839,0.099-3.669-0.176-5.507-0.137c0-1.428,0-2.855-0.001-4.283
		c0.216-0.21,0.495-0.218,0.768-0.22c1.323-0.01,2.647-0.01,3.971,0c0.274,0.002,0.551,0.013,0.77,0.219
		C265.085,15.385,265.085,16.859,265.085,18.333z"/>
	<path fill="#949596" d="M265.085,13.911c-1.836,0-3.672,0.001-5.509,0.002c-0.003-1.054,0.011-2.108-0.019-3.161
		c-0.014-0.461,0.159-0.603,0.6-0.577c1.641,0.094,3.283,0.196,4.929,0.144C265.086,11.516,265.086,12.713,265.085,13.911z"/>
	<path fill="#949596" d="M296.067,18.878c0-1.935,0-3.869,0-5.804c0.247-0.668,0.079-1.36,0.105-2.039
		c0.016-0.382,0.079-0.577,0.53-0.59c1.494-0.046,2.975,0.243,4.469,0.151c0.425-0.025,0.4,0.277,0.4,0.56
		c-0.005,1.564-0.008,3.128-0.011,4.692c-1.572-0.212-3.154-0.11-4.73-0.153c-0.523-0.014-0.654,0.163-0.662,0.668
		C296.154,17.201,296.329,18.05,296.067,18.878z"/>
</g>
<g>
	
		<rect x="403.991" y="14.262" transform="matrix(0.7074 0.7068 -0.7068 0.7074 137.5803 -277.8372)" fill="#AFAEAF" width="0.759" height="25.987"/>
	
		<rect x="403.984" y="-3.571" transform="matrix(-0.7068 0.7074 -0.7074 -0.7068 696.8363 -269.9666)" fill="#AFAEAF" width="0.759" height="25.987"/>
</g>
</svg>
