<?xml version="1.0" encoding="utf-8"?>
<!-- Generator: Adobe Illustrator 18.1.1, SVG Export Plug-In . SVG Version: 6.00 Build 0)  -->
<svg version="1.1" id="Layer_1" xmlns="http://www.w3.org/2000/svg" xmlns:xlink="http://www.w3.org/1999/xlink" x="0px" y="0px"
	 viewBox="142 25 641 232" enable-background="new 142 25 641 232" xml:space="preserve">
<g>
	<g>
		<g>
			
				<linearGradient id="SVGID_1_" gradientUnits="userSpaceOnUse" x1="672.3603" y1="209.1581" x2="900.9002" y2="-192.7561" gradientTransform="matrix(1 0 0 -1 0 270)">
				<stop  offset="0" style="stop-color:#00FFFF"/>
				<stop  offset="1" style="stop-color:#23C920"/>
			</linearGradient>
			<path fill="url(#SVGID_1_)" d="M776.304,95.69l-69.462,142.346c-2.735,4.735-7.826,7.677-13.294,7.677
				c-5.47,0-10.556-2.942-13.294-7.677L610.792,95.69c-4.228-7.33-1.712-16.734,5.622-20.967c2.333-1.35,4.984-2.062,7.664-2.062
				c5.478,0,10.573,2.945,13.305,7.675l56.165,115.36l56.169-115.36c2.729-4.73,7.829-7.675,13.305-7.675
				c2.679,0,5.331,0.712,7.668,2.062c3.547,2.046,6.086,5.361,7.146,9.318C778.9,88.001,778.352,92.138,776.304,95.69z"/>
		</g>
	</g>
	
		<radialGradient id="SVGID_2_" cx="711.3496" cy="284.5928" r="322.4547" gradientTransform="matrix(1 0 0 -1 -91.623 255.3359)" gradientUnits="userSpaceOnUse">
		<stop  offset="0.1665" style="stop-color:#E6FA00"/>
		<stop  offset="1" style="stop-color:#4ADEDB"/>
	</radialGradient>
	<path fill="url(#SVGID_2_)" d="M732.275,29.932h-77.45c-8.447,0-15.315,6.872-15.315,15.315c0,8.441,6.868,15.312,15.315,15.312
		l77.45,0.003c8.443,0,15.316-6.869,15.316-15.315C747.592,36.804,740.719,29.932,732.275,29.932z"/>
</g>
<g>
	
		<linearGradient id="SVGID_3_" gradientUnits="userSpaceOnUse" x1="178.444" y1="76.06" x2="388.87" y2="76.06" gradientTransform="matrix(0 -1 -1 0 332.5 427.5)">
		<stop  offset="0" style="stop-color:#000000"/>
		<stop  offset="0" style="stop-color:#6B6F71"/>
		<stop  offset="1" style="stop-color:#B8B8B8"/>
	</linearGradient>
	<circle fill="url(#SVGID_3_)" cx="256.44" cy="143.843" r="105.213"/>
	<g>
		<path fill="#FEFEFE" d="M273.938,179.925c-3.109,1.244-6.226,2.458-9.544,3.041c-1.63,0.286-3.259,0.586-4.919,0.626
			c-0.628,0.016-0.96,0.181-0.959,0.899c0.014,8.337,0.005,17.173,0.011,25.551c0,0.355,0.552,1.065,1.555,1.065
			c7.202-0.01,13.301-0.01,20.503,0c0.365,0,1.517-0.113,1.868,0c0.503,0.165,0.954,0.177,0.905,1.117
			c0.16,2.184-0.248,1.974-2.773,1.974c-16.4,0-32.8,0.002-49.202-0.013c-0.444,0-1.212-0.032-1.324-0.576
			c-0.172-0.849-0.103-1.215,0.054-2.077c0.066-0.359,0.882-0.425,1.27-0.425c6.45-0.008,19.095,0.031,22.693,0.007
			c1.062-0.007,1.179-0.745,1.181-1.078c0.008-8.421,0.001-16.845,0.004-25.268c0.001-0.644,0.041-1.131-0.897-1.173
			c-8.33-0.603-17.526-4.855-19.029-5.763c-2.838-1.714-5.375-3.824-7.661-6.232c-2.721-2.771-4.87-5.952-6.727-9.344
			c-1.358-2.609-2.423-5.332-3.155-8.183c-0.562-2.023-0.715-4.081-0.942-6.167c-0.048-0.439,0.057-14.214,0-20.694
			c-0.001-1.457-0.07-3.238,0-4.372c0.07-1.134-0.22-1.532,0.326-2.146c0.426-0.479,1.114-0.581,1.952-0.287
			c0.816,0.287,0.814,0.938,0.812,1.581c-0.033,6.91-0.037,13.821-0.029,20.733c0.001,0.604-0.027,3.956,0.193,5.021
			c0.269,2.818,1.097,5.557,2.065,8.215c0.881,2.799,2.2,5.383,3.838,7.812c1.871,2.797,3.987,5.383,6.603,7.532
			c1.905,1.708,3.979,3.177,6.248,4.365c4.478,2.489,9.275,3.893,14.362,4.447c7.444,0.814,14.342-0.923,20.93-4.247
			c3.104-1.408,5.67-3.573,8.164-5.836c1.656-1.48,4.81-5.923,5.157-6.313c1.571-2.165,3.125-5.299,3.929-6.976
			c0.804-1.675,1.499-5.921,1.821-8.983c0.282-1.06,0.359-4.346,0.359-4.91c-0.005-6.477,0.083-12.952,0-19.426
			c-0.005-0.445-0.018-0.891,0-1.336c0.022-0.573,0.085-1.093,0.277-1.495c0.344-0.722,2.122-0.642,2.662,0.126
			c0.384,0.545,0.374,3.667,0.431,4.628c0.375,6.383-0.073,12.771,0,19.156c0.043,2.467-0.003,5.039-0.491,7.448
			c-0.517,2.356-1.118,3.994-2.358,6.777c-0.394,0.885-4.99,8.778-7.444,11.474c-0.511,0.563-3.623,3.99-4.802,4.985
			C279.975,176.772,274.547,179.726,273.938,179.925z"/>
	</g>
	<circle fill="none" stroke="#969799" stroke-width="1.2779" stroke-miterlimit="10" cx="256.627" cy="143.823" r="108.337"/>
	<path fill="#FEFEFE" d="M281.779,156.218c-1.224,2.426-2.669,4.707-4.42,6.79c-2.409,2.529-5.152,4.623-8.242,6.257
		c-4.447,2.026-9.094,3.064-13.996,2.729c-2.318-0.158-4.618-0.496-6.844-1.209c-4.501-1.585-8.419-4.08-11.736-7.515
		c-1.917-2.319-3.64-4.764-4.849-7.539c-0.965-2.597-1.639-5.263-1.948-8.019c-0.004-0.242-0.006-0.482-0.01-0.723
		c0.01-0.566,0.029-1.132,0.029-1.697c-0.003-18.307,0.002-36.613-0.031-54.918c-0.002-2.116,0.288-4.188,0.556-6.27
		c0.644-1.764,1.105-3.59,1.858-5.322c0.159-0.367,0.376-0.688,0.546-1.041c1.695-2.952,3.858-5.533,6.309-7.872
		c0.657-0.627,1.456-1.106,2.189-1.651c1.735-0.851,3.351-1.923,5.161-2.626c7.107-2.761,14.195-2.706,21.27,0.112
		c0.263,0.105,0.527,0.205,0.791,0.307c3.44,1.663,6.485,3.859,9.007,6.746c0.736,0.845,1.428,1.732,2.14,2.598
		c1.582,2.504,2.702,5.218,3.65,8.01c0.683,3.19,0.82,6.424,0.791,9.673c0,4.455,0,8.91,0,13.365c0,2.754,0,5.507,0.001,8.262
		c0,2.834,0,5.669,0,8.505c0,2.588,0.15,15.307,0.078,17.259c-0.008,0.239-0.083,4.283-0.085,6.07
		C283.822,149.867,283.009,153.091,281.779,156.218z"/>
</g>
<g>
	<path fill="#CCCCCC" d="M471.025,175.869c-0.823,0-1.646-0.329-2.305-0.988c-1.317-1.317-1.482-3.458-0.165-4.939l19.594-21.241
		l-19.594-21.075c-1.317-1.317-1.152-3.623,0.165-4.94s3.622-1.152,4.939,0.165l23.875,25.851l-23.875,25.852
		C472.837,175.54,472.014,175.869,471.025,175.869z"/>
</g>
</svg>
