<?xml version="1.0" encoding="utf-8"?>
<!-- Generator: Adobe Illustrator 18.1.1, SVG Export Plug-In . SVG Version: 6.00 Build 0)  -->
<svg version="1.1" id="Layer_1" xmlns="http://www.w3.org/2000/svg" xmlns:xlink="http://www.w3.org/1999/xlink" x="0px" y="0px"
	 viewBox="-1266 1429 270 136.5" enable-background="new -1266 1429 270 136.5" xml:space="preserve">
<g>
	
		<radialGradient id="SVGID_1_" cx="-1257.0107" cy="1610.0781" r="201.4292" gradientTransform="matrix(1 0 0 -1 0 3004)" gradientUnits="userSpaceOnUse">
		<stop  offset="0.1665" style="stop-color:#E6FA00"/>
		<stop  offset="1" style="stop-color:#4ADEDB"/>
	</radialGradient>
	<path fill="url(#SVGID_1_)" d="M-1186.7,1430.9l-48.4,0c-5.3,0-9.6,4.3-9.6,9.6c0,5.3,4.3,9.6,9.6,9.6l48.4,0
		c5.3,0,9.6-4.3,9.6-9.6S-1181.4,1430.9-1186.7,1430.9z"/>
	
		<linearGradient id="SVGID_2_" gradientUnits="userSpaceOnUse" x1="-1190.9287" y1="1572.7588" x2="-998.1616" y2="1388.7061" gradientTransform="matrix(1 0 0 -1 0 3004)">
		<stop  offset="0" style="stop-color:#00FFFF"/>
		<stop  offset="1" style="stop-color:#23C920"/>
	</linearGradient>
	<path fill="url(#SVGID_2_)" d="M-1159.3,1469.6l-43.3,88.7c-1.7,2.9-4.9,4.8-8.3,4.8c-3.4,0-6.6-1.8-8.3-4.8l-43.3-88.7
		c-2.6-4.6-1.1-10.4,3.5-13.1c1.5-0.8,3.1-1.3,4.8-1.3c3.4,0,6.6,1.8,8.3,4.8l35,74.4l35-74.4c1.7-3,4.9-4.8,8.3-4.8
		c1.7,0,3.3,0.4,4.8,1.3c2.2,1.3,3.8,3.3,4.5,5.8C-1157.7,1464.8-1158,1467.4-1159.3,1469.6z M-998.5,1462.4
		c-0.7-2.5-2.2-4.5-4.5-5.8c-1.5-0.8-3.1-1.3-4.8-1.3c-3.4,0-6.6,1.8-8.3,4.8l-35,74.4l-35-74.4c-1.7-3-4.9-4.8-8.3-4.8
		c-1.7,0-3.3,0.4-4.8,1.3c-4.6,2.6-6.1,8.5-3.5,13.1l43.3,88.7c1.7,2.9,4.9,4.8,8.3,4.8c3.4,0,6.6-1.8,8.3-4.8l43.3-88.7
		C-998.1,1467.4-997.8,1464.8-998.5,1462.4z M-1130.6,1455.4c-5.3,0-9.5,4.3-9.5,9.5v88.6c0,5.3,4.3,9.5,9.5,9.5s9.5-4.3,9.5-9.5
		v-88.6C-1121,1459.7-1125.3,1455.4-1130.6,1455.4z"/>
</g>
</svg>
