<svg id="Layer_1" data-name="Layer 1" xmlns="http://www.w3.org/2000/svg" viewBox="0 0 99.01 99.01"><defs><style>.cls-1,.cls-3{fill:#fff;}.cls-1{stroke:#231f20;stroke-miterlimit:10;stroke-width:0.55px;}.cls-2{fill:#231f20;}</style></defs><title>Vector Smart Object</title><circle class="cls-1" cx="49.51" cy="49.51" r="49.23"/><path class="cls-2" d="M59.19,85.28A37.54,37.54,0,0,0,82.43,66.43H44.16Z" transform="translate(0.27 0.27)"/><path class="cls-2" d="M27.9,79.93a37.37,37.37,0,0,0,28.95,5.92L33.29,56.31Z" transform="translate(0.27 0.27)"/><path class="cls-2" d="M83.23,33.67,58.84,64.25H83.48a37.24,37.24,0,0,0-.25-30.58" transform="translate(0.27 0.27)"/><path class="cls-2" d="M55.3,12.33a37.34,37.34,0,0,0-29.94,8.13L61,37.61Z" transform="translate(0.27 0.27)"/><path class="cls-2" d="M82.16,31.5A37.56,37.56,0,0,0,57.65,12.79l8.65,38.6Z" transform="translate(0.27 0.27)"/><path class="cls-2" d="M12,52.32A37.38,37.38,0,0,0,26,78.5l8.45-37Z" transform="translate(0.27 0.27)"/><path class="cls-2" d="M23.6,22a37.32,37.32,0,0,0-11.77,27.2c0,.25,0,.48,0,.73L46.71,33.17Z" transform="translate(0.27 0.27)"/><path class="cls-2" d="M54.64,55.81l-3-3A7.66,7.66,0,0,0,41.31,42.49l7.4,7.4-3.2,3.21-7.41-7.41A7.65,7.65,0,0,0,48.45,56l3,3Z" transform="translate(0.27 0.27)"/><path class="cls-2" d="M56.69,52.35V41.63H52.16v2.78a8.68,8.68,0,0,1,1.48,4.84A8.6,8.6,0,0,1,53,52.6l3.22,3.22L55.1,56.89h6.82V52.35Z" transform="translate(0.27 0.27)"/><path class="cls-2" d="M54.64,55.81l-3-3A7.66,7.66,0,0,0,41.31,42.49l7.4,7.4-3.2,3.21-7.41-7.41A7.65,7.65,0,0,0,48.45,56l3,3Z" transform="translate(0.27 0.27)"/><path class="cls-2" d="M5,42l-.21,1.16L3.72,43l.62-3.49,1.08.19-.21,1.17,5.18.92-.21,1.16Z" transform="translate(0.27 0.27)"/><path class="cls-2" d="M4.59,38.3l.34-1.13,2.48.74.65-2.18L5.58,35l.34-1.13L12,35.68l-.34,1.13L9.11,36l-.65,2.18L11,39l-.34,1.13Z" transform="translate(0.27 0.27)"/><path class="cls-2" d="M6.55,32.24l1.38-3.13,1,.44L8,31.61l1.42.63.87-2,1,.44-.87,2,1.38.61.91-2.05,1,.44-1.38,3.13Z" transform="translate(0.27 0.27)"/><path class="cls-2" d="M19.1,23.59l-.09.13a2.54,2.54,0,0,1-1.3.93,3.38,3.38,0,0,1-.62,1.77,3.31,3.31,0,1,1-.79-4.64,3,3,0,0,1,1.25,1.74,1.26,1.26,0,0,0,.55-.42L18.2,23Zm-2.64.3a2,2,0,0,0-.82-1.13,2.15,2.15,0,1,0-2.55,3.46.7.7,0,0,0,.17.1,2.89,2.89,0,0,1,.44-.75,4.64,4.64,0,0,1,2.75-1.66Zm-1.87,2.32a1.51,1.51,0,0,0-.23.46,2.14,2.14,0,0,0,1.83-.88,2.1,2.1,0,0,0,.35-.82A3.52,3.52,0,0,0,14.59,26.21Z" transform="translate(0.27 0.27)"/><path class="cls-2" d="M15.59,18l2.88,2.83A1.12,1.12,0,1,0,20,19.24l-2.89-2.82.82-.84,2.89,2.82a2.61,2.61,0,0,1,.82,1.31,2.32,2.32,0,0,1-.65,2,2.37,2.37,0,0,1-2,.72,2.54,2.54,0,0,1-1.38-.79l-2.89-2.82Z" transform="translate(0.27 0.27)"/><path class="cls-2" d="M19.13,14.58l.9-.76,4.11,4.85-.9.76Z" transform="translate(0.27 0.27)"/><path class="cls-2" d="M21.22,12.83l2.79-2,.64.9L22.82,13l.9,1.27,1.75-1.25.64.89L24.36,15.2l.87,1.23,1.83-1.3.64.9-2.79,2Z" transform="translate(0.27 0.27)"/><path class="cls-2" d="M26.46,10.64l-1,.59-.55-1L28,8.51l.55,1-1,.59,2.62,4.56-1,.59Z" transform="translate(0.27 0.27)"/><path class="cls-2" d="M31.37,6.93l1.1-.43,1.91,4.89,1.81-.71.4,1-2.9,1.14Z" transform="translate(0.27 0.27)"/><path class="cls-2" d="M35.26,5.49l1.13-.35,1.87,6.08-1.13.35Z" transform="translate(0.27 0.27)"/><path class="cls-2" d="M37.85,4.72,41,4l.24,1.07-2,.45.34,1.52,1.92-.43.24,1.07-1.92.43.56,2.54-1.15.25Z" transform="translate(0.27 0.27)"/><path class="cls-2" d="M42.4,3.8l3.4-.38.12,1.09-2.23.25.17,1.54L46,6.06l.12,1.09L44,7.39l.17,1.49,2.23-.25.12,1.09-3.4.38Z" transform="translate(0.27 0.27)"/><path class="cls-2" d="M55.83,8.31A3.23,3.23,0,0,1,52.74,10a3.35,3.35,0,0,1-3-3.6,3.31,3.31,0,0,1,3.55-3,3.26,3.26,0,0,1,2.83,2.18l-1.34-.11a2.1,2.1,0,0,0-3.87,1A2.22,2.22,0,0,0,52.8,8.86a2.09,2.09,0,0,0,1.66-.66Z" transform="translate(0.27 0.27)"/><path class="cls-2" d="M59.52,4.48l.89.21,1.11,6.8-1.26-.3L60,9.44l-2.22-.53-1,1.44L55.47,10ZM58.41,7.92l1.42.34L59.58,6.2h0Z" transform="translate(0.27 0.27)"/><path class="cls-2" d="M64.39,5.75l1.5.65-.35,5.09h0L69,7.74l1.5.65L68,14.22l-1.08-.47,1.89-4.38h0L65.39,13.1l-.91-.39.39-5h0L63,12.06l-1.08-.47Z" transform="translate(0.27 0.27)"/><path class="cls-2" d="M72,9.33l2.9,1.8-.58.93-1.9-1.18-.82,1.32,1.82,1.13-.58.93-1.82-1.13-.79,1.28,1.9,1.18-.58.93-2.9-1.8Z" transform="translate(0.27 0.27)"/><path class="cls-2" d="M76.3,12.07l1.53,1.21a2.29,2.29,0,0,1,.94,1.3,2,2,0,0,1-.37,1.67,2.21,2.21,0,0,1-1.42.81,2.07,2.07,0,0,1-1.15-.25l-.11,2.91-1.12-.89.2-3h0l-1.51,1.9L72.34,17Zm-1,3.11.59.47a1,1,0,1,0,1.21-1.52l-.59-.47Z" transform="translate(0.27 0.27)"/><path class="cls-2" d="M82.16,17.2l.63.67L80,24.18l-.9-.94.72-1.62L78.29,20l-1.66.64-.89-.94Zm-2.8,2.29,1,1.06.91-1.87h0Z" transform="translate(0.27 0.27)"/><path class="cls-2" d="M86.28,30.57A3.23,3.23,0,0,1,83.13,29a3.35,3.35,0,0,1,1.13-4.56,3.31,3.31,0,0,1,4.51,1.11,3.26,3.26,0,0,1-.11,3.57L88,28a2.1,2.1,0,0,0-3.12-2.52,2.21,2.21,0,0,0-.8,3,2.09,2.09,0,0,0,1.51,1Z" transform="translate(0.27 0.27)"/><path class="cls-2" d="M90.75,29.49l.48,1.08-4.81,2.13.79,1.78-1,.45-1.26-2.85Z" transform="translate(0.27 0.27)"/><path class="cls-2" d="M92.77,34.47l-3.86,1.2c-.3.09-1.29.4-1,1.45a1.13,1.13,0,0,0,1.62.65l3.85-1.21.35,1.12L89.92,38.9a2.6,2.6,0,0,1-1.54.1,2.31,2.31,0,0,1-1.47-1.53,2.37,2.37,0,0,1,.3-2.08,2.53,2.53,0,0,1,1.35-.84l3.85-1.21Z" transform="translate(0.27 0.27)"/><path class="cls-2" d="M94.16,39.34l.22,1.24a2.75,2.75,0,0,1-.14,2,1.67,1.67,0,0,1-1.07.74,1.29,1.29,0,0,1-1.32-.49,1.53,1.53,0,0,1-1.37,1.35,1.79,1.79,0,0,1-1.63-.51,3.09,3.09,0,0,1-.66-1.55l-.3-1.68Zm-5,2.08.1.58c0,.23.21,1.17,1,1,.25,0,.81-.28.63-1.29l-.11-.61Zm2.74-.49.07.38c0,.27.18,1,.85.88.37-.07.63-.36.52-1l-.09-.48Z" transform="translate(0.27 0.27)"/><path class="cls-3" d="M92.06,50.81a1.31,1.31,0,1,1,1.34-1.29A1.32,1.32,0,0,1,92.06,50.81Z" transform="translate(0.27 0.27)"/><path class="cls-2" d="M93.57,56.09l.19-1.16,1.09.18-.58,3.49-1.08-.18.2-1.17-5.19-.87.19-1.16Z" transform="translate(0.27 0.27)"/><path class="cls-2" d="M94,59.77,93.7,60.9l-2.49-.71-.63,2.19,2.49.72-.33,1.13-6.11-1.76L87,61.33l2.57.74.63-2.19-2.57-.74L87.92,58Z" transform="translate(0.27 0.27)"/><path class="cls-2" d="M92.13,65.84,90.78,69l-1-.43.89-2.06-1.43-.61-.85,2-1-.43.85-2-1.38-.59L86,66.9l-1-.43,1.35-3.14Z" transform="translate(0.27 0.27)"/><path class="cls-2" d="M79.67,74.62l.09-.13a2.54,2.54,0,0,1,1.29-.94,3.37,3.37,0,0,1,.6-1.78,3.31,3.31,0,1,1,.84,4.63,3,3,0,0,1-1.27-1.73,1.27,1.27,0,0,0-.55.43l-.11.15Zm4.49-2.67a1.45,1.45,0,0,0,.23-.46,2.1,2.1,0,0,0-2.16,1.72A3.51,3.51,0,0,0,84.16,71.95Zm-1.85,2.34a2,2,0,0,0,.83,1.12,2.15,2.15,0,1,0,2.52-3.48.64.64,0,0,0-.17-.1,2.92,2.92,0,0,1-.43.76,4.63,4.63,0,0,1-2.73,1.69Z" transform="translate(0.27 0.27)"/><path class="cls-2" d="M83.25,80.17l-2.92-2.79A1.12,1.12,0,1,0,78.81,79l2.92,2.79-.81.85L78,79.82a2.6,2.6,0,0,1-.83-1.31,2.31,2.31,0,0,1,.63-2,2.37,2.37,0,0,1,2-.74,2.54,2.54,0,0,1,1.39.78l2.92,2.79Z" transform="translate(0.27 0.27)"/><path class="cls-2" d="M79.72,83.63l-.89.77-4.15-4.82.89-.77Z" transform="translate(0.27 0.27)"/><path class="cls-2" d="M77.66,85.39l-2.77,2-.65-.89,1.81-1.32-.92-1.26L73.41,85.2l-.65-.89L74.5,83l-.89-1.22L71.8,83.15l-.65-.89,2.77-2Z" transform="translate(0.27 0.27)"/><path class="cls-2" d="M72.44,87.63l1-.6L74,88,71,89.77l-.56-.95,1-.6-2.66-4.54,1-.6Z" transform="translate(0.27 0.27)"/><path class="cls-2" d="M67.56,91.4l-1.09.44-2-4.88-1.8.72-.41-1,2.89-1.16Z" transform="translate(0.27 0.27)"/><path class="cls-2" d="M63.68,92.87l-1.12.36-1.92-6.06,1.12-.36Z" transform="translate(0.27 0.27)"/><path class="cls-2" d="M61.1,93.67l-3.16.73-.25-1.07,2-.46-.35-1.52-1.92.44-.25-1.07,1.92-.44-.59-2.54,1.15-.27Z" transform="translate(0.27 0.27)"/><path class="cls-2" d="M56.57,94.64l-3.39.42L53,94l2.23-.27-.19-1.54-2.13.26-.13-1.09,2.13-.26-.18-1.49-2.23.27-.13-1.09,3.4-.42Z" transform="translate(0.27 0.27)"/><path class="cls-2" d="M43.09,90.25a3.23,3.23,0,0,1,3.07-1.68,3.35,3.35,0,0,1,3.07,3.57,3.32,3.32,0,0,1-3.52,3A3.27,3.27,0,0,1,42.86,93l1.34.1A2.1,2.1,0,0,0,48.06,92a2.22,2.22,0,0,0-1.95-2.37,2.09,2.09,0,0,0-1.65.68Z" transform="translate(0.27 0.27)"/><path class="cls-2" d="M39.44,94.13l-.9-.21-1.18-6.79,1.27.29.3,1.75,2.22.51,1-1.45,1.27.29Zm1.07-3.46-1.42-.33.27,2.06h0Z" transform="translate(0.27 0.27)"/><path class="cls-2" d="M34.54,92.9,33,92.27l.3-5.09h0L29.91,91l-1.51-.63,2.46-5.86,1.09.45-1.84,4.4h0l3.34-3.77.92.39-.34,5h0l1.84-4.4L37,87Z" transform="translate(0.27 0.27)"/><path class="cls-2" d="M26.88,89.41,24,87.64l.57-.94,1.92,1.16.81-1.33-1.84-1.12.57-.94,1.84,1.12.78-1.29-1.92-1.16.57-.94L30.18,84Z" transform="translate(0.27 0.27)"/><path class="cls-2" d="M22.6,86.71l-1.54-1.2a2.3,2.3,0,0,1-1-1.29,2,2,0,0,1,.35-1.67,2.22,2.22,0,0,1,1.42-.83A2.06,2.06,0,0,1,23,82l.08-2.91,1.13.88-.16,3h0L25.57,81l.93.72Zm.94-3.12-.6-.46a1,1,0,0,0-1.5.08,1,1,0,0,0,.3,1.46l.6.46Z" transform="translate(0.27 0.27)"/><path class="cls-2" d="M16.66,81.62,16,81l2.7-6.34.9.93-.7,1.63,1.59,1.63,1.65-.66.9.93Zm2.78-2.32-1-1-.9,1.88h0Z" transform="translate(0.27 0.27)"/><path class="cls-2" d="M12.42,68.29a3.22,3.22,0,0,1,3.16,1.5,3.35,3.35,0,0,1-1.09,4.57A3.31,3.31,0,0,1,10,73.3,3.26,3.26,0,0,1,10,69.73l.71,1.14a2.09,2.09,0,0,0,3.14,2.49,2.21,2.21,0,0,0,.77-3,2.09,2.09,0,0,0-1.52-.94Z" transform="translate(0.27 0.27)"/><path class="cls-2" d="M8,69.43l-.49-1.07,4.78-2.18-.81-1.77,1-.46,1.29,2.84Z" transform="translate(0.27 0.27)"/><path class="cls-2" d="M5.9,64.48l3.84-1.24c.3-.1,1.28-.42.94-1.46a1.13,1.13,0,0,0-1.62-.63L5.22,62.4l-.36-1.12L8.7,60a2.59,2.59,0,0,1,1.54-.11,2.31,2.31,0,0,1,1.49,1.51,2.37,2.37,0,0,1-.28,2.08,2.54,2.54,0,0,1-1.34.85L6.27,65.61Z" transform="translate(0.27 0.27)"/><path class="cls-2" d="M4.46,59.62l-.23-1.23a2.75,2.75,0,0,1,.12-2,1.67,1.67,0,0,1,1.07-.75,1.29,1.29,0,0,1,1.32.48,1.54,1.54,0,0,1,1.35-1.37,1.79,1.79,0,0,1,1.63.5,3.08,3.08,0,0,1,.68,1.54l.32,1.67ZM6.67,58l-.07-.38c0-.27-.19-1-.86-.87-.37.07-.63.36-.51,1l.09.48Zm2.74-.52L9.3,56.9c0-.23-.22-1.17-1-1-.25,0-.81.28-.62,1.3l.12.61Z" transform="translate(0.27 0.27)"/><path class="cls-3" d="M6.44,48.11a1.31,1.31,0,1,1-1.33,1.3A1.32,1.32,0,0,1,6.44,48.11Z" transform="translate(0.27 0.27)"/><polygon class="cls-2" points="92.42 46.91 92.99 48.67 94.84 48.67 93.34 49.76 93.91 51.51 92.42 50.43 90.92 51.51 91.49 49.76 90 48.67 91.84 48.67 92.42 46.91"/><polygon class="cls-2" points="6.78 46.91 7.35 48.67 9.2 48.67 7.7 49.76 8.27 51.51 6.78 50.43 5.28 51.51 5.85 49.76 4.36 48.67 6.21 48.67 6.78 46.91"/></svg>