<svg xmlns="http://www.w3.org/2000/svg" id="Layer_1" x="0" y="0" version="1.1" viewBox="0 0 92.51 59.94" xml:space="preserve">
  <defs/>
  <style>
    .st0{fill:#76ccdc}
  </style>
  <path d="M47.08 15.9c-.07.09-.05.27.13.27 1.16.01 2.3.05 3.43.1 21.01 1.04 37.39 9.45 37.39 19.68 0 10.93-18.69 19.79-41.75 19.79S4.52 46.88 4.52 35.95c0-2.32.56-4.83 2.11-6.9 0 0 .06-.1-.05-.18-.11-.07-.21.03-.21.03-2.26 2.58-3.52 5.41-3.52 8.39 0 11.85 19.87 21.46 44.38 21.46s44.38-9.61 44.38-21.46c0-11.3-18.05-20.56-40.96-21.4-1.13-.04-2.27-.06-3.42-.06.01.01-.1 0-.15.07" class="st0"/>
  <path d="M81.56 31.48v-.26h.16c.09 0 .2.01.2.12 0 .12-.06.14-.16.14h-.2zm0 .18h.11l.24.44h.27l-.27-.46c.14-.01.26-.08.26-.28 0-.24-.16-.32-.43-.32h-.4v1.05h.22v-.43zm1.15-.08c0-.62-.46-.98-.98-.98s-.99.36-.99.98.46.98.99.98c.51 0 .98-.36.98-.98m-.29 0c0 .45-.32.76-.7.76-.39 0-.7-.3-.7-.75s.31-.75.7-.75c.38-.02.7.28.7.74M82.73 38.26c0 3.69-2.64 6.68-6.85 6.68-4.22 0-6.85-2.99-6.85-6.68 0-3.69 3.07-6.68 6.85-6.68 3.78-.01 6.85 2.99 6.85 6.68m-6.86-5.24c-2.67 0-4.38 2.79-4.38 5.26 0 2.47 1.71 5.26 4.38 5.26 2.66 0 4.37-2.79 4.37-5.26 0-2.47-1.71-5.26-4.37-5.26M31.28 28.32s-4.69-3.72-7.99-4.17c-3.2-.45-6.15.34-9.07 2.98-3.13 2.78-5.39 9.1-1.22 14.8 3.44 4.73 10.25 4.9 14.14 2.96 3.86-1.98 4.83-3.94 4.83-3.94l.03-2.38s-1.95 3.99-7.09 4.96c-4.1.76-8.49-1.28-10.21-5.08-1.4-3.08-.46-8.31 2.12-10.56 2.62-2.28 5.46-2.99 8.51-1.7 3.09 1.25 3.68 3.65 3.37 4.79-.49 1.74-.73 1.77-.73 1.77l.45.28 2.86-4.71z" class="st0"/>
  <path d="M69.11 34.17s-.39.71-.66 1.29c-.3.62-.66 1.63-.66 1.63h-.35s.17-1.39-.42-2.4c-.62-.94-1.7-1.7-2.78-1.7-1.52-.01-2.88.69-3.86 2.29-1.08 1.84-.9 3.54-.52 4.83.63 2.15 2.74 3.41 4.9 3.16 2.92-.28 4.17-2.01 4.17-2.01l.52.9s-.59.76-1.67 1.53c-.87.62-2.15 1.35-4.48 1.25-2.78-.1-4.55-1.46-5.45-3.47-.84-1.77-1.08-4.65.56-7.11 1.53-2.19 3.56-2.77 5.5-2.76 1.95.01 3.63 1.21 4.09 1.55.61.45 1.11 1.02 1.11 1.02" class="st0"/>
  <path d="M58.2 43.3s-.56.59-1.01.45c-.49-.14-.58-.47-.63-.72-.03-.14-.31-5.93-.33-6.34 0-3.03-2.34-5.21-5.22-5.21-.69 0-1.35.14-1.96.38-.16.06-.33.14-.49.23-1.23.58-2.6 1.25-2.6 1.25l1.17 1.72s.26-.29.66-.66c.27-.25.86-.91 1.83-1.27.34-.13.74-.18 1.13-.18 2.17 0 3.17 1.41 3.17 3.14l.01.31s-2.42-.43-4.1-.2c-1.46.2-3.37.66-4.28 2.6-.21.45-.35.94-.42 1.46-.21 1.6.38 3.34 2.19 4.27 1.77.9 3.13.66 4.38.31 1.01-.31 2.43-1.21 2.43-1.21s.49 1.29 1.49 1.35c.91.06 1.46-.17 1.95-.48.52-.35.9-.9.9-.9l-.27-.3zm-8.76-.04c-1.22-.52-1.9-1.62-1.74-3.02.07-.56.27-1.18.76-1.81 1.67-2.19 5.46-.9 5.46-.9v4.95c0 .01-2.74 1.48-4.48.78M45.11 44.75l-.02-.01c-.09-.03-.6-.25-.73-.72-.07-.17-.06-1.36-.06-1.36s-.03-3.97 0-5.24c.07-1.81-.28-2.81-.56-3.47-.24-.49-1.32-2.26-3.99-2.33-2.5-.07-4.41 2.74-4.41 2.74v-9.41s.07-.9-.24-1.32c-.14-.21-.35-.28-.35-.28l-2.71 4.41s.38 0 .63.21c.24.28.21 1.01.21 1.01v13.68s.01 1.18-.06 1.36c-.14.52-.74.73-.74.73v.35h4.08v-.35s-.6-.21-.74-.73c-.07-.17-.06-1.36-.06-1.36v-5.24s-.02-.4 1.01-1.77c.69-.93.85-1.12 1.67-1.84.53-.47 1.88-1.08 2.92-.14 1.01.94.9 2.92.9 2.92v6.07s-.01 1.18-.08 1.36c-.13.48-.64.69-.73.72h-.01V45.09h4.09l-.02-.34zM32.41 21.48c-1.38.43-3.07.16-3.07.16.91-.2 2.95-1.77 3.11-1.93.16-.16.35-.47.24-.59-.12-.12-.25.02-.25.02-.94.84-3.04 1.6-3.04 1.6.3-.22.69-.57 1.8-2.15s.1-1.95.1-1.95c-4.16-.93-7.55 1.52-8.07 1.93-.04.04-.06.07-.06.07-.14.55.56.44.56.44 2.01-.43 3.54-.2 4.21-.16.67.04.47.67.12 1.38-.35.71-1.66 1.64-2.16 1.85-.45.19-.21.42-.21.42.05.05.14.03.19.03h.13c1.65.18 3.98 2.03 3.98 2.03s.44.47.51.04c.1-.59-1.65-2.01-1.65-2.01 2.32.08 3.58-.67 3.58-.67s.35-.16.31-.35c-.06-.2-.33-.16-.33-.16M50.29 21.71c-.94-1.73-2.36-2.08-2.36-2.08.61.02 1.3-.85 1.38-.96.08-.12.14-.32.06-.37-.08-.06-.22.08-.22.08-1.04 1.08-2.81.77-4.03.22-1.22-.55-2.66-.51-2.66-.51s1.99-1.32 2.22-2.97c.23-1.65-.47-1.18-.47-1.18-1.08 1.49-2.26 1.55-2.5 1.61-.24.06-1.12.1-1.26.63-.14.53-.76 1.26-1.45 1.77-.49.36-.19.73-.19.73.33.42.93.71 1.19.77.26.06.83-.38 3.48.02 2.65.39 4.33 3.54 4.38 4.01.02.18.07.28.11.34.03.02.11.08.16 0 .51-1.44-.62-3.13-.62-3.13 1.73.32 2.32 1.08 2.38 1.12.06.04.24.2.34.14.1-.08.06-.24.06-.24" class="st0"/>
  <path d="M52.46 1.82C52.39.77 51.69.48 51.31.41c-.13-.02-.29-.01-.38-.01-3.64.57-5.5 3.54-5.52 3.57-.51.69-1.14 2.64-1.43 3.63-.21.8-.52 1.25-.52 1.25-.93 1.46-3.89 4.9-10.5 3.44-9.89-2.18-15.55 5.54-15.61 5.62-3.98 4.97-7.84 7.64-11.47 7.93-2.95.24-4.64-1.27-4.66-1.29-.03-.03-.08-.03-.11 0s-.03.08 0 .11c1.4 1.53 3.13 2.33 5.12 2.38 5.57.13 11.52-5.73 11.58-5.79 9.34-8.61 17.14-6.55 17.22-6.53 8.23 1.58 10.86-2.93 11.46-4.32v-.02c.02-.06.05-.1.06-.15.05-.13.13-.25.24-.35.46-.38.97-.74 1.48-1.08.91-.62 1.84-1.26 2.47-2.1 1.04-1.41 1.75-3.57 1.75-4.72-.02-.05-.03-.11-.03-.16M25.45 6.89c-.94-.65-4.5 1.9-4.5 1.9s-.18.11-.18.07c0-.04.09-.23.09-.23.6-1.03 1.5-2.35 1.15-2.63-.36-.27-1.72 1.76-1.9 2.09-.18.33-.27.22-.27.22 0-1.02-.23-2-.35-2.28-.11-.25-.21-.25-.31-.25s-.11.15-.11.15c.32 2.13-.8 4.27-.93 4.4-.17.18-.03.28-.03.28 1.19.43 3.76-1 4.62-.67.86.32-1.14 2.72-1.14 2.72-.03.03-.04.05-.04.08-.01.02-.01.04-.01.06 0 .11.08.2.19.19.03 0 .06-.01.08-.02.93-.25 2.67-1.4 2.92-1.7.27-.3 1.66-3.73.72-4.38" class="st0"/>
  <path d="M42.84 4.08c-.14-.08-.22.12-.22.12-.61 1.26-1.6 1.32-1.6 1.32 1.4-1.36.85-3.04.79-3.14-.04-.06-.1-.05-.14-.02-.04.01-.04.11-.04.12 0 1.57-1.4 2.61-1.4 2.61.24-1.62-.26-2.2-.37-2.33-.13-.17-.18 0-.18 0 .12 2.98-.75 3.83-2.13 4.52-1.38.69-2.8.93-2.94 1.46-.14.53.26.63 1.91 1.07 1.03.28 1.42.7 1.58.97.04.06.07.15.08.25.01.04.04.08.11.09.16.03.54-.07 1.25-.7 1.02-.91.66-1.46.66-1.46-.57-.89-1.7-.87-1.7-.87 3.34-1.2 4.18-3.37 4.26-3.55.08-.19.16-.42.08-.46" class="st0"/>
</svg>
