<?xml version="1.0" encoding="utf-8"?>
<!-- Generator: Adobe Illustrator 16.0.4, SVG Export Plug-In . SVG Version: 6.00 Build 0)  -->
<!DOCTYPE svg PUBLIC "-//W3C//DTD SVG 1.1//EN" "http://www.w3.org/Graphics/SVG/1.1/DTD/svg11.dtd">
<svg version="1.1" id="Layer_1" xmlns="http://www.w3.org/2000/svg" xmlns:xlink="http://www.w3.org/1999/xlink" x="0px" y="0px"
	 width="400px" height="400px" viewBox="0 0 400 400" enable-background="new 0 0 400 400" xml:space="preserve">
<g>
	<g>
		<path fill="#323031" d="M191.408,91.739c-73.651,0-133.566,59.918-133.566,133.567c0,73.639,59.916,133.543,133.566,133.543
			c73.625,0,133.524-59.904,133.524-133.543C324.932,151.657,265.033,91.739,191.408,91.739z M191.402,315.163
			c-49.559,0-89.877-40.307-89.877-89.859c0-49.559,40.318-89.877,89.877-89.877c49.543,0,89.852,40.318,89.852,89.877
			C281.254,274.856,240.945,315.163,191.402,315.163z"/>
	</g>
	<path fill="#9D9FA1" enable-background="new    " d="M356.324,142.012c-2.303-2.301-6.031-2.301-8.341,0l-12.626,12.631
		c0.542,1.545,1.695,3.333,3.356,4.99c1.654,1.658,3.451,2.809,4.982,3.348l12.628-12.631
		C358.621,148.05,358.621,144.318,356.324,142.012z"/>
	<g>
		<path fill="#323031" d="M144.874,169.535l-21.297,21.294c-5.242,10.319-8.213,21.992-8.213,34.366
			c0,4.788,0.468,9.465,1.319,14.007l48.929-48.934L144.874,169.535z M195.089,197.461l-68.094,68.11
			c6.057,9.633,14.214,17.813,23.838,23.892l68.136-68.12L195.089,197.461z M225.785,250.738l-49.031,49.021
			c4.729,0.928,9.601,1.425,14.598,1.425c11.847,0,23.042-2.75,33.043-7.579l22.133-22.137L225.785,250.738z"/>
	</g>
	<g>
		<path fill="#FED401" enable-background="new    " d="M263.385,97.706L238.536,72.89c0,0-6.108,0.04-9.901,3.204l-10.441,10.301
			c0,0-33.223,35.314-34.259,38.095c-1.084,2.725-3.393,10.134-3.081,11.397c3.057,4.375,6.632,9.359,19.531,19.527
			c1.261,0.321,8.676-1.993,11.401-3.076c2.773-1.045,38.089-34.26,38.089-34.26l10.306-10.451c3.163-3.785,3.205-9.887,3.205-9.887
			L238.565,72.89"/>
		<path fill="#8E5723" d="M251.141,119.421l10.354-10.499c3.651-4.355,3.728-10.893,3.728-11.174l0.006-0.574l4.971-4.764
			c0.065-0.066,0.153-0.113,0.23-0.187c0.047-0.047,0.083-0.108,0.123-0.164l0.042-0.033c0,0-0.007,0-0.018,0.007
			c3.18-3.631-1.585-11.959-8.069-18.442c-6.49-6.498-14.843-11.271-18.464-8.057c0.018-0.013,0.018-0.041,0.023-0.06l-0.171,0.18
			c-0.006,0.002-0.018,0.01-0.029,0.013c-0.007,0.014-0.018,0.028-0.018,0.037l-5.131,5.342h-0.193
			c-0.283,0.005-6.82,0.079-11.072,3.633c-0.106,0.101-10.555,10.406-10.555,10.406c-10.111,10.743-33.629,35.929-34.692,38.746
			c-0.023,0.063-3.163,8.539-3.195,11.774c-6.655,0.635-5.91,6.949-5.91,6.949c-7.859,0.002-7.023,7.025-7.023,7.025l-0.033,0.056
			c-7.565-0.024-7.084,6.461-7.041,6.961c-7.809,0.035-6.967,7.022-6.967,7.022L152,163.662c-7.88,0-7.624,6.411-7.624,6.411
			l16.977,16.996l3.74,3.715c8.455,0.604,7.615-6.4,7.615-6.4l0.047-0.058c7.666,0,7.062-6.63,7.027-6.965
			c7.801-0.026,6.976-7.001,6.976-7.001l0.039-0.066c7.861,0,7.014-7.015,7.014-7.015c6.001-0.007,6.932-4.085,7.032-6.024
			c3.357-0.143,11.536-3.163,11.625-3.197C215.254,153,240.432,129.487,251.141,119.421z M260.139,75.957
			c6.773,6.77,8.971,12.847,7.916,13.9c-1.048,1.058-7.132-1.143-13.9-7.907c-6.772-6.775-8.976-12.857-7.92-13.911
			C247.288,66.98,253.366,69.185,260.139,75.957z M211.061,150.648c-2.779,1.093-8.342,2.749-10.029,2.918
			c-11.982-9.502-15.495-14.216-18.334-18.264c0.141-1.624,1.82-7.293,2.951-10.14c1.219-2.367,21.433-24.268,33.881-37.505
			c0.006,0,10.402-10.252,10.402-10.252c1.584-1.322,3.757-1.984,5.522-2.321c-0.276,1.931,0.237,7.039,9.378,16.194l0.018,0.007
			c9.512,9.509,14.631,9.659,16.356,9.309c-0.324,1.814-1.014,4.137-2.444,5.851l-0.019,0.023
			c-0.559,0.561-10.183,10.322-10.183,10.322C235.379,129.189,213.475,149.402,211.061,150.648z"/>
		<g>
			<path fill="#9D9FA1" enable-background="new    " d="M276.183,60.069c-2.297-2.307-6.025-2.307-8.335,0L254.679,73.24
				c0.548,1.534,1.697,3.328,3.353,4.984c1.667,1.657,3.451,2.807,4.988,3.344L276.183,68.4
				C278.485,66.099,278.485,62.367,276.183,60.069z"/>
			<path fill="#8E5723" d="M266.812,59.024l-13.823,13.833l0.301,0.872c0.642,1.82,1.954,3.783,3.698,5.538
				c1.743,1.748,3.717,3.052,5.549,3.694l0.87,0.305l13.823-13.82c2.881-2.872,2.881-7.549,0-10.421
				C274.356,56.154,269.682,56.154,266.812,59.024z M268.892,61.108c1.726-1.718,4.534-1.718,6.254,0
				c1.726,1.728,1.726,4.533,0,6.249c0,0-11.06,11.064-12.408,12.417c-1.214-0.571-2.491-1.427-3.657-2.596
				c-1.173-1.167-2.033-2.449-2.604-3.654C257.836,72.175,268.892,61.108,268.892,61.108z"/>
		</g>
	</g>
	<g>
		<path fill="#FFFFFF" enable-background="new    " d="M344.361,179.054l-24.842-24.816c0,0-6.108,0.044-9.901,3.201l-10.442,10.308
			c0,0-33.218,35.315-34.267,38.087c-1.071,2.732-3.386,10.148-3.073,11.402c3.056,4.37,6.631,9.358,19.53,19.531
			c1.26,0.312,8.674-1.997,11.402-3.075c2.767-1.052,38.083-34.262,38.083-34.262l10.301-10.453
			c3.174-3.784,3.209-9.887,3.209-9.887l-24.818-24.853"/>
		<g>
			<path fill="#6E7072" d="M332.117,200.774l10.349-10.506c3.657-4.353,3.733-10.893,3.733-11.17l0.012-0.571l4.971-4.769
				c0.071-0.063,0.153-0.108,0.23-0.179c0.041-0.053,0.076-0.116,0.124-0.167l0.034-0.041c0,0.008-0.005,0.008-0.011,0.008
				c2.291-2.62,0.436-7.678-3.192-12.734l9.306-9.31c2.874-2.873,2.874-7.549-0.007-10.419c-2.867-2.875-7.539-2.875-10.418,0
				l-9.275,9.284c-5.136-3.735-10.307-5.666-12.947-3.32c0.008-0.018,0.008-0.034,0.013-0.055L324.879,147
				c-0.018,0.01-0.024,0.018-0.029,0.02c-0.012,0.017-0.012,0.03-0.029,0.04l-5.112,5.334h-0.206c-0.271,0-6.814,0.084-11.062,3.631
				c-0.106,0.104-10.565,10.408-10.565,10.408c-10.106,10.748-33.624,35.941-34.685,38.75c-0.023,0.063-3.164,8.538-3.199,11.771
				c-6.661,0.643-5.906,6.954-5.906,6.954c-7.857,0-7.021,7.021-7.021,7.021l-0.047,0.056c-7.556-0.018-7.079,6.458-7.031,6.967
				c-7.811,0.035-6.963,7.021-6.963,7.021l-0.047,0.042c-7.874,0-7.621,6.413-7.621,6.413l16.985,16.991l3.734,3.714
				c8.457,0.604,7.616-6.405,7.616-6.405l0.047-0.047c7.662,0,7.056-6.638,7.026-6.968c7.797-0.029,6.974-7,6.974-7l0.04-0.074
				c7.863,0,7.021-7.008,7.021-7.008c5.995-0.012,6.92-4.085,7.026-6.022c3.356-0.142,11.526-3.165,11.62-3.203
				C296.231,234.354,321.421,210.836,332.117,200.774z M340.304,152.038c3.959-3.959,9.035-9.041,9.035-9.041
				c1.726-1.723,4.529-1.723,6.249,0.004c1.72,1.722,1.72,4.526,0,6.25c0,0-5.094,5.09-9.047,9.042l-2.373,2.378l-0.454,0.451
				c-1.213-0.571-2.485-1.43-3.657-2.592c-1.166-1.172-2.021-2.456-2.598-3.652l0.471-0.477L340.304,152.038z M335.575,152.592
				l-1.608,1.611l0.306,0.872c0.637,1.83,1.949,3.797,3.7,5.535c1.748,1.751,3.715,3.062,5.547,3.697l0.872,0.311l1.584-1.577
				c2.922,4.202,3.806,7.426,3.062,8.175c-1.055,1.055-7.145-1.156-13.905-7.921c-6.772-6.768-8.97-12.851-7.916-13.91
				C327.972,148.64,331.292,149.556,335.575,152.592z M292.044,232c-2.774,1.094-8.346,2.748-10.042,2.919
				c-11.968-9.501-15.484-14.224-18.322-18.27c0.141-1.621,1.819-7.287,2.944-10.133c1.224-2.372,21.444-24.269,33.889-37.513
				c0,0.003,10.407-10.245,10.407-10.245c1.585-1.322,3.746-1.985,5.513-2.322c-0.283,1.924,0.242,7.038,9.383,16.192l0.013,0.009
				c9.517,9.51,14.635,9.658,16.36,9.308c-0.323,1.816-1.008,4.141-2.438,5.855l-0.029,0.02
				c-0.559,0.555-10.178,10.319-10.178,10.319C316.356,210.535,294.459,230.752,292.044,232z"/>
		</g>
	</g>
	<g>
		<path fill="#ED2224" d="M331.323,114.845L302.78,86.338c0,0-7.021,0.043-11.367,3.681l-12.008,11.831
			c0,0-38.147,40.573-39.351,43.756c-1.242,3.133-3.904,11.651-3.533,13.102c3.511,5.018,7.615,10.746,22.429,22.431
			c1.448,0.364,9.97-2.296,13.092-3.534c3.198-1.206,43.755-39.358,43.755-39.358l11.845-12.002
			c3.64-4.348,3.682-11.364,3.682-11.364l-28.508-28.543"/>
		<path fill="#9D9FA1" enable-background="new    " d="M345.41,72.236c-2.644-2.643-6.932-2.643-9.582,0l-14.748,14.74
			c0.624,1.771,1.954,3.828,3.852,5.729c1.908,1.907,3.976,3.23,5.736,3.847l14.742-14.741
			C348.049,79.163,348.049,74.877,345.41,72.236z"/>
		<path fill="#8B191B" d="M317.252,139.795l11.896-12.06c4.193-5.008,4.289-12.523,4.289-12.84v-0.665l5.7-5.468
			c0.095-0.074,0.195-0.129,0.271-0.21c0.053-0.053,0.095-0.124,0.152-0.183l0.042-0.047c-0.006,0-0.006,0.006-0.006,0.006
			c2.626-3.01,0.488-8.826-3.681-14.627l10.689-10.695c3.298-3.299,3.298-8.673,0-11.973c-3.299-3.301-8.67-3.301-11.975,0
			l-10.66,10.659c-5.896-4.286-11.832-6.504-14.865-3.805c0.011-0.023,0.011-0.047,0.024-0.066l-0.201,0.206
			c-0.005,0.01-0.013,0.01-0.029,0.018c-0.013,0.017-0.018,0.032-0.023,0.04l-5.884,6.136h-0.236
			c-0.312,0.007-7.826,0.102-12.699,4.176c-0.134,0.113-12.132,11.956-12.132,11.956c-11.614,12.342-38.637,41.274-39.861,44.504
			c-0.023,0.08-3.622,9.808-3.663,13.526c-7.656,0.73-6.797,7.983-6.797,7.983c-9.017,0-8.057,8.073-8.057,8.073l-0.041,0.058
			c-8.688-0.024-8.14,7.421-8.087,8.007c-8.975,0.029-8.004,8.053-8.004,8.053l-0.047,0.054c-9.04,0-8.754,7.362-8.754,7.362
			l19.508,19.527l4.294,4.268c9.705,0.695,8.752-7.353,8.752-7.353l0.041-0.062c8.812,0,8.115-7.621,8.069-8.001
			c8.97-0.034,8.015-8.041,8.015-8.041l0.048-0.081c9.029-0.007,8.069-8.061,8.069-8.061c6.89-0.005,7.944-4.692,8.069-6.917
			c3.852-0.161,13.251-3.631,13.352-3.672C276.042,178.364,304.96,151.346,317.252,139.795z M326.657,83.803
			c4.548-4.544,10.378-10.376,10.378-10.376c1.974-1.98,5.201-1.98,7.18,0c1.973,1.982,1.973,5.206,0,7.186
			c0,0-5.848,5.85-10.396,10.385l-2.721,2.727l-0.767,0.762c-1.39-0.656-2.861-1.638-4.198-2.981
			c-1.35-1.345-2.321-2.814-2.987-4.194l0.784-0.785L326.657,83.803z M321.232,84.448l-2.097,2.088l0.349,1.004
			c0.741,2.096,2.25,4.357,4.252,6.364c2.009,2.001,4.271,3.508,6.367,4.247l1.007,0.351l2.055-2.054
			c3.37,4.826,4.376,8.537,3.528,9.392c-1.219,1.209-8.204-1.319-15.973-9.095c-7.779-7.777-10.312-14.766-9.093-15.982
			C312.487,79.901,316.298,80.957,321.232,84.448z M271.218,175.665c-3.186,1.252-9.577,3.15-11.52,3.35
			c-13.765-10.914-17.806-16.335-21.062-20.983c0.159-1.864,2.085-8.37,3.381-11.648c1.413-2.714,24.631-27.874,38.925-43.079
			c0.006,0,11.963-11.78,11.963-11.78c1.813-1.517,4.311-2.272,6.331-2.664c-0.318,2.215,0.276,8.087,10.784,18.604l0.005,0.01
			c10.932,10.925,16.815,11.097,18.801,10.688c-0.377,2.09-1.166,4.757-2.804,6.722l-0.035,0.032
			c-0.63,0.639-11.691,11.846-11.691,11.846C299.153,151.009,273.991,174.228,271.218,175.665z"/>
	</g>
</g>
</svg>
