<?xml version="1.0" encoding="utf-8"?>
<!-- Generator: Adobe Illustrator 18.1.1, SVG Export Plug-In . SVG Version: 6.00 Build 0)  -->
<svg version="1.1" id="Layer_1" xmlns="http://www.w3.org/2000/svg" xmlns:xlink="http://www.w3.org/1999/xlink" x="0px" y="0px"
	 viewBox="239 -131.7 308.7 309.3" enable-background="new 239 -131.7 308.7 309.3" xml:space="preserve">
<g>
	<g>
		<path fill="#323031" d="M376.4-93.3c-73.7,0-133.6,59.9-133.6,133.6c0,73.6,59.9,133.5,133.6,133.5c73.6,0,133.5-59.9,133.5-133.5
			C509.9-33.3,450-93.3,376.4-93.3z M376.4,130.2c-49.6,0-89.9-40.3-89.9-89.9c0-49.6,40.3-89.9,89.9-89.9
			c49.5,0,89.9,40.3,89.9,89.9C466.3,89.9,425.9,130.2,376.4,130.2z"/>
	</g>
	<path fill="#9D9FA1" d="M541.3-43c-2.3-2.3-6-2.3-8.3,0l-12.6,12.6c0.5,1.5,1.7,3.3,3.4,5c1.7,1.7,3.5,2.8,5,3.3l12.6-12.6
		C543.6-37,543.6-40.7,541.3-43z"/>
	<g>
		<path fill="#323031" d="M329.9-15.5L308.6,5.8c-5.2,10.3-8.2,22-8.2,34.4c0,4.8,0.5,9.5,1.3,14l48.9-48.9L329.9-15.5z M380.1,12.5
			L312,80.6c6.1,9.6,14.2,17.8,23.8,23.9L404,36.3L380.1,12.5z M410.8,65.7l-49,49c4.7,0.9,9.6,1.4,14.6,1.4c11.8,0,23-2.8,33-7.6
			l22.1-22.1L410.8,65.7z"/>
	</g>
	<g>
		<path fill="#FED401" d="M448.4-87.3l-24.8-24.8c0,0-6.1,0-9.9,3.2l-10.4,10.3c0,0-33.2,35.3-34.3,38.1c-1.1,2.7-3.4,10.1-3.1,11.4
			c3.1,4.4,6.6,9.4,19.5,19.5c1.3,0.3,8.7-2,11.4-3.1c2.8-1,38.1-34.3,38.1-34.3l10.3-10.5C448.3-81.2,448.4-87.3,448.4-87.3
			l-24.8-24.8"/>
		<path fill="#8E5723" d="M436.1-65.6l10.4-10.5c3.7-4.4,3.7-10.9,3.7-11.2l0-0.6l5-4.8c0.1-0.1,0.2-0.1,0.2-0.2
			c0,0,0.1-0.1,0.1-0.2l0,0c0,0,0,0,0,0c3.2-3.6-1.6-12-8.1-18.4c-6.5-6.5-14.8-11.3-18.5-8.1c0,0,0,0,0-0.1l-0.2,0.2c0,0,0,0,0,0
			c0,0,0,0,0,0l-5.1,5.3h-0.2c-0.3,0-6.8,0.1-11.1,3.6c-0.1,0.1-10.6,10.4-10.6,10.4c-10.1,10.7-33.6,35.9-34.7,38.7
			c0,0.1-3.2,8.5-3.2,11.8c-6.7,0.6-5.9,6.9-5.9,6.9c-7.9,0-7,7-7,7l0,0.1c-7.6,0-7.1,6.5-7,7c-7.8,0-7,7-7,7l0,0
			c-7.9,0-7.6,6.4-7.6,6.4l17,17l3.7,3.7c8.5,0.6,7.6-6.4,7.6-6.4l0-0.1c7.7,0,7.1-6.6,7-7c7.8,0,7-7,7-7l0-0.1c7.9,0,7-7,7-7
			c6,0,6.9-4.1,7-6c3.4-0.1,11.5-3.2,11.6-3.2C400.3-32,425.4-55.5,436.1-65.6z M445.1-109c6.8,6.8,9,12.8,7.9,13.9
			c-1,1.1-7.1-1.1-13.9-7.9c-6.8-6.8-9-12.9-7.9-13.9C432.3-118,438.4-115.8,445.1-109z M396.1-34.4c-2.8,1.1-8.3,2.7-10,2.9
			c-12-9.5-15.5-14.2-18.3-18.3c0.1-1.6,1.8-7.3,3-10.1c1.2-2.4,21.4-24.3,33.9-37.5c0,0,10.4-10.3,10.4-10.3c1.6-1.3,3.8-2,5.5-2.3
			c-0.3,1.9,0.2,7,9.4,16.2l0,0c9.5,9.5,14.6,9.7,16.4,9.3c-0.3,1.8-1,4.1-2.4,5.9l0,0c-0.6,0.6-10.2,10.3-10.2,10.3
			C420.4-55.8,398.5-35.6,396.1-34.4z"/>
		<g>
			<path fill="#9D9FA1" d="M461.2-124.9c-2.3-2.3-6-2.3-8.3,0l-13.2,13.2c0.5,1.5,1.7,3.3,3.4,5c1.7,1.7,3.5,2.8,5,3.3l13.2-13.2
				C463.5-118.9,463.5-122.6,461.2-124.9z"/>
			<path fill="#8E5723" d="M451.8-126L438-112.1l0.3,0.9c0.6,1.8,2,3.8,3.7,5.5c1.7,1.7,3.7,3.1,5.5,3.7l0.9,0.3l13.8-13.8
				c2.9-2.9,2.9-7.5,0-10.4C459.4-128.8,454.7-128.8,451.8-126z M453.9-123.9c1.7-1.7,4.5-1.7,6.3,0c1.7,1.7,1.7,4.5,0,6.2
				c0,0-11.1,11.1-12.4,12.4c-1.2-0.6-2.5-1.4-3.7-2.6c-1.2-1.2-2-2.4-2.6-3.7C442.8-112.8,453.9-123.9,453.9-123.9z"/>
		</g>
	</g>
	<g>
		<path fill="#FFFFFF" d="M529.4-5.9l-24.8-24.8c0,0-6.1,0-9.9,3.2l-10.4,10.3c0,0-33.2,35.3-34.3,38.1c-1.1,2.7-3.4,10.1-3.1,11.4
			c3.1,4.4,6.6,9.4,19.5,19.5c1.3,0.3,8.7-2,11.4-3.1c2.8-1.1,38.1-34.3,38.1-34.3L526.2,4C529.3,0.2,529.4-5.9,529.4-5.9
			l-24.8-24.8"/>
		<g>
			<path fill="#6E7072" d="M517.1,15.8l10.3-10.5c3.7-4.4,3.7-10.9,3.7-11.2l0-0.6l5-4.8c0.1-0.1,0.2-0.1,0.2-0.2
				c0-0.1,0.1-0.1,0.1-0.2l0,0c0,0,0,0,0,0c2.3-2.6,0.4-7.7-3.2-12.7l9.3-9.3c2.9-2.9,2.9-7.5,0-10.4c-2.9-2.9-7.5-2.9-10.4,0
				l-9.3,9.3c-5.1-3.7-10.3-5.7-12.9-3.3c0,0,0,0,0-0.1l-0.2,0.2c0,0,0,0,0,0c0,0,0,0,0,0l-5.1,5.3h-0.2c-0.3,0-6.8,0.1-11.1,3.6
				c-0.1,0.1-10.6,10.4-10.6,10.4c-10.1,10.7-33.6,35.9-34.7,38.8c0,0.1-3.2,8.5-3.2,11.8c-6.7,0.6-5.9,7-5.9,7c-7.9,0-7,7-7,7
				l0,0.1c-7.6,0-7.1,6.5-7,7c-7.8,0-7,7-7,7l0,0c-7.9,0-7.6,6.4-7.6,6.4l17,17l3.7,3.7c8.5,0.6,7.6-6.4,7.6-6.4l0,0
				c7.7,0,7.1-6.6,7-7c7.8,0,7-7,7-7l0-0.1c7.9,0,7-7,7-7c6,0,6.9-4.1,7-6c3.4-0.1,11.5-3.2,11.6-3.2
				C481.2,49.4,506.4,25.8,517.1,15.8z M525.3-33c4-4,9-9,9-9c1.7-1.7,4.5-1.7,6.2,0c1.7,1.7,1.7,4.5,0,6.2c0,0-5.1,5.1-9,9
				l-2.4,2.4l-0.5,0.5c-1.2-0.6-2.5-1.4-3.7-2.6c-1.2-1.2-2-2.5-2.6-3.7l0.5-0.5L525.3-33z M520.6-32.4l-1.6,1.6l0.3,0.9
				c0.6,1.8,1.9,3.8,3.7,5.5c1.7,1.8,3.7,3.1,5.5,3.7l0.9,0.3L531-22c2.9,4.2,3.8,7.4,3.1,8.2c-1.1,1.1-7.1-1.2-13.9-7.9
				c-6.8-6.8-9-12.9-7.9-13.9C513-36.4,516.3-35.4,520.6-32.4z M477,47c-2.8,1.1-8.3,2.7-10,2.9c-12-9.5-15.5-14.2-18.3-18.3
				c0.1-1.6,1.8-7.3,2.9-10.1c1.2-2.4,21.4-24.3,33.9-37.5c0,0,10.4-10.2,10.4-10.2c1.6-1.3,3.7-2,5.5-2.3c-0.3,1.9,0.2,7,9.4,16.2
				l0,0c9.5,9.5,14.6,9.7,16.4,9.3c-0.3,1.8-1,4.1-2.4,5.9l0,0c-0.6,0.6-10.2,10.3-10.2,10.3C501.4,25.5,479.5,45.8,477,47z"/>
		</g>
	</g>
	<g>
		<path fill="#ED2224" d="M516.3-70.2l-28.5-28.5c0,0-7,0-11.4,3.7l-12,11.8c0,0-38.1,40.6-39.4,43.8c-1.2,3.1-3.9,11.7-3.5,13.1
			c3.5,5,7.6,10.7,22.4,22.4c1.4,0.4,10-2.3,13.1-3.5c3.2-1.2,43.8-39.4,43.8-39.4l11.8-12C516.3-63.1,516.3-70.1,516.3-70.2
			l-28.5-28.5"/>
		<path fill="#9D9FA1" d="M530.4-112.8c-2.6-2.6-6.9-2.6-9.6,0L506.1-98c0.6,1.8,2,3.8,3.9,5.7c1.9,1.9,4,3.2,5.7,3.8l14.7-14.7
			C533-105.8,533-110.1,530.4-112.8z"/>
		<path fill="#8B191B" d="M502.3-45.2l11.9-12.1c4.2-5,4.3-12.5,4.3-12.8v-0.7l5.7-5.5c0.1-0.1,0.2-0.1,0.3-0.2
			c0.1-0.1,0.1-0.1,0.2-0.2l0,0c0,0,0,0,0,0c2.6-3,0.5-8.8-3.7-14.6l10.7-10.7c3.3-3.3,3.3-8.7,0-12c-3.3-3.3-8.7-3.3-12,0
			L509-103.3c-5.9-4.3-11.8-6.5-14.9-3.8c0,0,0,0,0-0.1l-0.2,0.2c0,0,0,0,0,0c0,0,0,0,0,0l-5.9,6.1h-0.2c-0.3,0-7.8,0.1-12.7,4.2
			c-0.1,0.1-12.1,12-12.1,12c-11.6,12.3-38.6,41.3-39.9,44.5c0,0.1-3.6,9.8-3.7,13.5c-7.7,0.7-6.8,8-6.8,8c-9,0-8.1,8.1-8.1,8.1
			l0,0.1c-8.7,0-8.1,7.4-8.1,8c-9,0-8,8.1-8,8.1l0,0.1c-9,0-8.8,7.4-8.8,7.4l19.5,19.5l4.3,4.3c9.7,0.7,8.8-7.4,8.8-7.4l0-0.1
			c8.8,0,8.1-7.6,8.1-8c9,0,8-8,8-8l0-0.1c9,0,8.1-8.1,8.1-8.1c6.9,0,7.9-4.7,8.1-6.9c3.9-0.2,13.3-3.6,13.4-3.7
			C461-6.6,490-33.7,502.3-45.2z M511.7-101.2c4.5-4.5,10.4-10.4,10.4-10.4c2-2,5.2-2,7.2,0c2,2,2,5.2,0,7.2c0,0-5.8,5.8-10.4,10.4
			l-2.7,2.7l-0.8,0.8c-1.4-0.7-2.9-1.6-4.2-3c-1.4-1.3-2.3-2.8-3-4.2l0.8-0.8L511.7-101.2z M506.2-100.6l-2.1,2.1l0.3,1
			c0.7,2.1,2.2,4.4,4.3,6.4c2,2,4.3,3.5,6.4,4.2l1,0.4l2.1-2.1c3.4,4.8,4.4,8.5,3.5,9.4c-1.2,1.2-8.2-1.3-16-9.1
			c-7.8-7.8-10.3-14.8-9.1-16C497.5-105.1,501.3-104,506.2-100.6z M456.2-9.3c-3.2,1.3-9.6,3.1-11.5,3.4
			c-13.8-10.9-17.8-16.3-21.1-21c0.2-1.9,2.1-8.4,3.4-11.6c1.4-2.7,24.6-27.9,38.9-43.1c0,0,12-11.8,12-11.8
			c1.8-1.5,4.3-2.3,6.3-2.7c-0.3,2.2,0.3,8.1,10.8,18.6l0,0c10.9,10.9,16.8,11.1,18.8,10.7c-0.4,2.1-1.2,4.8-2.8,6.7l0,0
			c-0.6,0.6-11.7,11.8-11.7,11.8C484.2-34,459-10.8,456.2-9.3z"/>
	</g>
</g>
</svg>
