<?xml version="1.0" encoding="utf-8"?>
<!-- Generator: Adobe Illustrator 16.0.4, SVG Export Plug-In . SVG Version: 6.00 Build 0)  -->
<!DOCTYPE svg PUBLIC "-//W3C//DTD SVG 1.1//EN" "http://www.w3.org/Graphics/SVG/1.1/DTD/svg11.dtd">
<svg version="1.1" id="Layer_1" xmlns="http://www.w3.org/2000/svg" xmlns:xlink="http://www.w3.org/1999/xlink" x="0px" y="0px"
	 width="400px" height="400px" viewBox="0 0 400 400" enable-background="new 0 0 400 400" xml:space="preserve">
<path display="none" fill="#9D9FA1" d="M312.68,153.341c-0.955-0.957-2.506-0.957-3.465,0l-5.248,5.249
	c0.229,0.643,0.705,1.386,1.396,2.074c0.686,0.689,1.432,1.168,2.067,1.392l5.248-5.25
	C313.635,155.85,313.635,154.299,312.68,153.341z"/>
<g display="none">
	<g display="inline">
		<path fill="#323031" d="M43.975,234.71c-0.672-0.183-1.814-0.271-3.433-0.271h-2.118v6.646h2.652c1.851,0,3.193-0.217,4.034-0.658
			c0.809-0.436,1.211-1.289,1.211-2.558c0-0.822-0.219-1.524-0.654-2.099C45.244,235.216,44.682,234.859,43.975,234.71z
			 M357.264,229.611c0-2.291,0-13.605,0-13.605l-27.252,12.956h-3.278l-8.492,8.869c0-4.177,0-8.313,0-8.313h-0.006v-0.002
			l-0.013,0.002h-19.227c0-2.966,0-10.65,0-10.65h-8.791c5.941-8.842,9.424-19.478,9.424-30.907
			c0-30.606-24.896-55.503-55.496-55.503c-30.607,0-55.498,24.897-55.498,55.503c0,11.273,3.385,21.767,9.179,30.535
			c-2.281,0.28-4.16,0.749-5.718,1.433c-2.243,0.977-4.218,2.354-5.845,4.1c0.092-0.09-0.162,0.16-0.162,0.16
			c0.084-0.08-0.054,0.054-0.054,0.054c-0.052,0.053-0.32,0.329-0.32,0.329c0.132-0.139-0.108,0.102-0.108,0.102
			c0.098-0.102-0.137,0.139-0.154,0.155c-0.036,0.039-0.217,0.222-0.217,0.222l0.191-0.195l-0.302,0.301
			c0.088-0.088-0.05,0.046-0.05,0.046c-0.038,0.038-0.117,0.118-0.187,0.192l-1.056,1.053c-0.043,0.043-0.032,0.031-0.032,0.031
			c-0.018,0.02-0.327,0.334-0.335,0.342c-0.11,0.108-0.269,0.265-0.27,0.271c-0.014,0.011-0.039,0.037-0.062,0.062
			c-0.037,0.037-0.085,0.086-0.134,0.134c-0.04,0.041-0.452,0.478-0.452,0.478l0.312-0.339l-0.312,0.313
			c0.091-0.098-0.162,0.158-0.162,0.158c0.085-0.09-0.109,0.107-0.109,0.107l-0.426,0.426l-0.146,0.152
			c-0.052,0.052-0.3,0.299-0.315,0.312c-0.093,0.094-0.452,0.453-0.452,0.453c0.09-0.093-0.129,0.125-0.151,0.146
			c-0.049,0.051-0.226,0.232-0.226,0.232l0.143-0.151l-0.511,0.522l0.193-0.203l-0.303,0.312c0.003-0.015,0.003-0.015,0.003-0.015
			c-0.038,0.035-0.171,0.17-0.171,0.17c-0.05,0.054-0.319,0.332-0.319,0.332c0.134-0.146-0.107,0.099-0.107,0.099
			c0.068-0.069-0.111,0.11-0.111,0.11l-0.192,0.195l0.071-0.078l-0.206,0.211l0.043-0.045l-0.329,0.327
			c0.005-0.011,0.015-0.017,0.015-0.017l-0.019,0.02c-0.01,0.01-0.02,0.021-0.026,0.025c-2.62-1.6-5.707-2.454-9.142-2.454
			c-0.918,0-1.868,0.188-2.811,0.317c0-2.961,0-10.536,0-10.536h-25.775l-10.632,10.63l-1.381,0.021c0,0-0.123,0.121-0.147,0.146
			c-1.698-0.354-3.486-0.58-5.396-0.58c-4.247,0-8.044,0.966-11.374,2.811c0-1.187,0-2.377,0-2.377s-5.044,0-5.145,0
			c0-3.252,0-14.035,0-14.035l-6.583,3.129c0,0-11.288,5.363-15.001,7.125c-0.807-1.939-2.132-3.672-4.057-5.016
			c-2.545-1.712-5.573-2.561-9.07-2.561c-3.306,0-6.24,0.755-8.72,2.236c0,0.008-2.426,1.896-2.426,1.896
			c-0.091,0.088-0.63,0.627-0.63,0.627c-0.026,0.028-0.042,0.044-0.054,0.058c-0.023,0.023-0.01,0.01-0.001,0
			c-0.003,0.004-0.017,0.016-0.03,0.031c-1.129-0.797-2.323-1.535-3.678-2.109c-3.306-1.395-7.66-2.032-13.731-2.032H16.817
			L1.074,234.609v20.193c0,0,2.119,0,3.423,0v3.204c-0.981,0.987-3.423,3.427-3.423,3.427v20.188h31.543
			c0,0,6.071-3.087,10.809-5.503c0,0.155,0,5.448,0,5.448h27.226c0,0,2.337-2.33,2.381-2.375c0.784,0.556,1.601,1.074,2.513,1.49
			c2.325,1.057,4.984,1.59,7.916,1.59c2.137,0,4.364-0.308,6.619-0.903c2.396-0.642,4.283-1.443,5.783-2.457l1.14-0.767
			c-0.004,0-0.004,0-0.004-0.006c0-0.033,0.089-0.095,0.123-0.115c4.1,2.77,9.248,4.248,15.441,4.248
			c4.012,0,7.622-0.682,10.795-1.979c0,0.505,0,1.271,0,1.271h72.003c0,0,3.336-3.326,3.36-3.354
			c4.131,2.644,9.28,4.062,15.489,4.062c5.205,0,9.738-1.078,13.566-3.168c0,1.224,0,2.463,0,2.463h53.576l0.645-0.64l0.156-0.167
			l0.166-0.156c0,0,1.312-1.314,1.332-1.328c0.307,0.326,2.178,2.291,2.178,2.291h13.693v0.006h5.883l0.096-0.09l3.02-3.026
			c1.007,2.005,3.062,3.394,5.464,3.394l0.014,0.006h57.752l13.018-13.099l4.757-8.729l9.403-7.303v-23.113H357.264z
			 M58.617,243.919c-1.283,1.654-2.982,2.849-5.094,3.59c-2.074,0.73-5.279,1.091-9.609,1.091h-5.489v4.93h3.534v8.492h-20.64
			v-8.492h3.422v-18.332h-3.422v-8.499h21.63c4.969,0,8.604,0.493,10.903,1.46c2.299,0.982,3.989,2.318,5.072,4.01
			c1.082,1.688,1.623,3.543,1.623,5.557C60.547,240.214,59.903,242.279,58.617,243.919z M67.197,227.219
			c1.353-0.812,3.027-1.219,5.022-1.219c2.052,0,3.7,0.425,4.951,1.264c1.231,0.859,1.852,1.913,1.852,3.144
			c0,1.333-0.644,2.389-1.93,3.168c-1.301,0.792-2.941,1.187-4.924,1.187c-2.011,0-3.685-0.361-5.021-1.09
			c-1.337-0.708-2.002-1.788-2.002-3.24C65.146,229.096,65.827,228.025,67.197,227.219z M81.102,261.965H63.671v-7.732h2.537v-9.137
			h-2.537v-7.736h15.3v16.873h2.131V261.965z M104.875,245.09h-5.144v4.788c0,1.562,0.142,2.604,0.431,3.132
			c0.271,0.524,0.847,0.788,1.723,0.788c0.828,0,1.824-0.269,2.99-0.812v7.551c-0.826,0.559-2.028,1.052-3.602,1.472
			c-1.658,0.441-3.246,0.66-4.768,0.66c-1.912,0-3.552-0.312-4.922-0.94c-1.404-0.639-2.46-1.502-3.172-2.588
			c-0.391-0.623-0.675-1.193-0.862-1.711c-0.186-0.517-0.322-1.088-0.407-1.738c-0.118-1.112-0.176-3.271-0.176-6.467v-4.135h-3.144
			v-7.73h3.144v-3.781l12.765-6.062v9.846h5.144V245.09z M135.445,260.382c-2.657,1.524-5.933,2.287-9.839,2.287
			c-5.169,0-9.246-1.166-12.218-3.495c-2.971-2.333-4.463-5.456-4.463-9.374c0-3.771,1.387-6.858,4.161-9.278
			c2.754-2.396,6.209-3.596,10.365-3.596c3.516,0,6.231,0.705,8.14,2.108v-1.675h7.784v10.49h-7.784
			c-0.961-2.776-2.596-4.166-4.895-4.166c-1.554,0-2.754,0.602-3.596,1.801c-0.847,1.232-1.271,2.727-1.271,4.48
			c0,1.911,0.458,3.412,1.372,4.51c0.894,1.101,2.063,1.649,3.495,1.649c2.369,0,3.821-1.429,4.361-4.272l9.508,2.135
			C139.77,256.725,138.062,258.857,135.445,260.382z M181.89,261.965h-15.653v-10.061c0-3.061-0.177-4.982-0.531-5.754
			c-0.375-0.777-1.148-1.166-2.328-1.166c-1.236,0-2.496,0.428-3.796,1.289v7.963h3.443v7.729H143.6v-7.73h3.22v-19.795h-3.22
			v-7.741h15.981v13.636c3.397-2.271,6.734-3.407,10.011-3.407c2.89,0,5.178,0.834,6.868,2.505c1.698,1.694,2.543,4.678,2.543,8.95
			v5.856h2.885v7.727H181.89z M244.133,150.603c20.592,0,37.348,16.758,37.348,37.356c0,20.594-16.756,37.35-37.348,37.35
			c-20.6,0-37.355-16.756-37.355-37.35C206.777,167.36,223.533,150.603,244.133,150.603z M209.154,232.947
			c-1.205-0.119-2.26-0.182-3.176-0.182c-1.16,0-2.066,0.155-2.713,0.459c-0.652,0.318-1.086,0.748-1.285,1.291
			c-0.222,0.506-0.334,1.455-0.334,2.844h4.717v7.729h-4.717v9.136h4.158v7.739h-19.903v-7.739h3.118v-9.136h-3.118v-7.729h3.118
			v-0.586c0-2.558,0.551-4.619,1.649-6.168c1.082-1.521,2.519-2.666,4.307-3.442c1.771-0.774,4.698-1.163,8.775-1.163
			c1.826,0,3.629,0.035,5.401,0.104v6.844H209.154z M239.578,258.939c-3.111,2.485-7.221,3.729-12.324,3.729
			c-5.514,0-9.812-1.243-12.889-3.729c-3.082-2.465-4.621-5.604-4.621-9.407c0-3.614,1.518-6.666,4.568-9.149
			c3.045-2.484,7.151-3.726,12.33-3.726c5.211,0,9.444,1.198,12.707,3.599c3.27,2.398,4.897,5.528,4.897,9.38
			C244.248,253.354,242.693,256.452,239.578,258.939z M274.422,247.744h-1.066c-2.6,0-4.537,0.256-5.805,0.783
			c-1.322,0.539-2.215,1.244-2.688,2.121c-0.494,0.91-0.744,2.113-0.762,3.599h3.727v7.718h-19.807v-7.732h3.346v-9.137h-3.346
			v-7.736h15.242v6.166c0.571-1.534,1.463-2.855,2.666-3.971c1.146-1.096,2.311-1.812,3.491-2.147c1.138-0.321,2.804-0.48,5-0.48
			L274.422,247.744L274.422,247.744z M311.117,261.965h-9.154l-10.164-10.71v10.71h-15.893v-7.73h3.145v-19.795h-3.191v-7.741
			h15.939v24.558l8.012-7.837h-4.488v-6.06h15.718v6.67h-2.863l-4.614,4.516l5.551,5.688h2.006v7.732H311.117z M355.098,244.936
			h-5.137v5.086c0,2.625,0.512,3.496,2.205,3.496c0.877,0,2.162-0.357,2.932-0.771v7.452c-1.799,1.285-5.295,2.16-8.274,2.16
			c-6.574,0-9.502-3.396-9.502-9.35v-8.074h-3.188v-7.66h3.188v-3.694l12.641-6.019v9.713h5.137L355.098,244.936L355.098,244.936z
			 M391.23,244.936h-2.365l-8.896,17.01h-8.821l-9.281-17.01h-3.002v-7.66h16.188v7.66h-3.692l4.586,9.252l5.104-9.252h-2.412v-7.66
			h12.595v7.66H391.23z M227.1,243.846c-1.338,0-2.414,0.491-3.223,1.473c-0.812,0.979-1.221,2.404-1.221,4.281
			c0,3.918,1.404,5.869,4.215,5.869c2.975,0,4.465-1.971,4.465-5.922c0-1.803-0.363-3.208-1.088-4.206
			C229.504,244.348,228.449,243.846,227.1,243.846z M183.096,227.184c0.014-0.015,0.023-0.022,0.037-0.037
			c0.033-0.032,0.058-0.059,0.058-0.059L183.096,227.184z M224.793,164.78l-8.852,8.851c-2.176,4.289-3.412,9.14-3.412,14.282
			c0,1.991,0.193,3.935,0.547,5.823l20.338-20.338L224.793,164.78z M227.271,214.626l28.319-28.312l-9.928-9.927l-28.302,28.308
			C219.879,208.7,223.271,212.1,227.271,214.626z M244.111,219.499c4.924,0,9.578-1.144,13.734-3.151l9.198-9.199l-8.621-8.619
			l-20.379,20.375C240.01,219.291,242.035,219.499,244.111,219.499z"/>
	</g>
</g>
<path display="none" fill="#ED2224" d="M318.018,256.797c0-3.221,2.609-5.831,5.824-5.831c3.219,0,5.832,2.61,5.832,5.831
	c0,3.215-2.613,5.825-5.832,5.825C320.627,262.622,318.018,260.012,318.018,256.797z"/>
<g display="none">
	<path display="inline" fill="#FED401" d="M274.051,134.925l-10.326-10.315c0,0-2.537,0.017-4.115,1.332l-4.34,4.282
		c0,0-13.809,14.678-14.24,15.833c-0.45,1.133-1.409,4.212-1.278,4.737c1.271,1.819,2.754,3.891,8.115,8.117
		c0.524,0.133,3.608-0.829,4.741-1.278c1.152-0.435,15.826-14.239,15.826-14.239l4.287-4.345c1.314-1.573,1.33-4.11,1.33-4.11
		l-10.314-10.328"/>
	<path display="inline" fill="#8E5723" d="M268.961,143.951l4.305-4.364c1.521-1.81,1.551-4.527,1.551-4.644l0.002-0.239l2.066-1.98
		c0.027-0.027,0.062-0.047,0.096-0.078c0.019-0.02,0.035-0.044,0.052-0.068l0.018-0.014c0,0,0,0-0.008,0.003
		c1.322-1.509-0.66-4.97-3.354-7.666c-2.698-2.7-6.17-4.684-7.676-3.349c0.006-0.005,0.006-0.017,0.012-0.025l-0.069,0.076
		c-0.004,0.001-0.006,0.004-0.013,0.005c-0.006,0.006-0.01,0.011-0.01,0.016l-2.129,2.22h-0.084c-0.117,0.002-2.834,0.033-4.6,1.511
		c-0.045,0.041-4.389,4.325-4.389,4.325c-4.201,4.465-13.979,14.934-14.42,16.104c-0.013,0.027-1.316,3.549-1.326,4.894
		c-2.767,0.264-2.457,2.888-2.457,2.888c-3.271,0.001-2.92,2.92-2.92,2.92l-0.015,0.024c-3.146-0.01-2.944,2.685-2.928,2.893
		c-3.244,0.014-2.896,2.918-2.896,2.918l-0.014,0.018c-3.275,0-3.17,2.665-3.17,2.665l7.057,7.063l1.553,1.544
		c3.517,0.251,3.166-2.66,3.166-2.66l0.021-0.023c3.184,0,2.932-2.756,2.92-2.895c3.242-0.011,2.9-2.91,2.9-2.91l0.014-0.028
		c3.268,0,2.916-2.916,2.916-2.916c2.496-0.002,2.879-1.698,2.924-2.503c1.396-0.06,4.793-1.315,4.83-1.329
		C254.045,157.907,264.514,148.134,268.961,143.951z M272.705,125.885c2.812,2.814,3.727,5.34,3.287,5.778
		c-0.436,0.44-2.965-0.476-5.775-3.287c-2.816-2.815-3.732-5.344-3.293-5.781C267.361,122.155,269.889,123.071,272.705,125.885z
		 M252.307,156.93c-1.158,0.454-3.471,1.143-4.172,1.213c-4.98-3.95-6.441-5.909-7.619-7.592c0.058-0.675,0.756-3.031,1.229-4.214
		c0.504-0.984,8.907-10.086,14.08-15.589c0.004,0,4.323-4.261,4.323-4.261c0.658-0.549,1.562-0.824,2.297-0.964
		c-0.114,0.803,0.099,2.925,3.896,6.731l0.004,0.003c3.955,3.952,6.082,4.015,6.801,3.869c-0.137,0.754-0.42,1.719-1.016,2.431
		l-0.01,0.009c-0.23,0.233-4.23,4.291-4.23,4.291C262.414,148.011,253.309,156.412,252.307,156.93z"/>
	<g display="inline">
		<path fill="#9D9FA1" d="M279.371,119.282c-0.955-0.959-2.504-0.959-3.463,0l-5.475,5.475c0.229,0.637,0.705,1.383,1.395,2.071
			c0.691,0.688,1.432,1.167,2.07,1.39l5.473-5.473C280.33,121.788,280.33,120.237,279.371,119.282z"/>
		<path fill="#8E5723" d="M275.477,118.847l-5.744,5.749l0.123,0.363c0.269,0.757,0.812,1.573,1.539,2.302
			c0.726,0.726,1.543,1.269,2.306,1.536l0.362,0.126l5.746-5.744c1.193-1.194,1.193-3.138,0-4.332
			C278.615,117.654,276.67,117.654,275.477,118.847z M276.342,119.713c0.717-0.713,1.885-0.713,2.6,0
			c0.718,0.718,0.718,1.884,0,2.598c0,0-4.598,4.599-5.157,5.161c-0.504-0.237-1.037-0.593-1.521-1.079
			c-0.484-0.484-0.847-1.018-1.08-1.519C271.744,124.313,276.342,119.713,276.342,119.713z"/>
	</g>
</g>
<g display="none">
	<path display="inline" fill="#FFFFFF" d="M307.709,168.737l-10.324-10.315c0,0-2.541,0.019-4.115,1.331l-4.342,4.285
		c0,0-13.807,14.678-14.24,15.83c-0.446,1.136-1.41,4.218-1.276,4.74c1.271,1.815,2.754,3.889,8.112,8.116
		c0.525,0.131,3.607-0.829,4.74-1.277c1.152-0.438,15.83-14.241,15.83-14.241l4.281-4.344c1.32-1.573,1.334-4.11,1.334-4.11
		l-10.316-10.33"/>
	<g display="inline">
		<path fill="#6E7072" d="M302.619,177.764l4.301-4.366c1.521-1.809,1.557-4.528,1.557-4.643l0.002-0.237l2.062-1.981
			c0.033-0.026,0.066-0.046,0.098-0.075c0.021-0.022,0.033-0.049,0.054-0.069l0.018-0.017c0,0.002-0.006,0.002-0.01,0.002
			c0.953-1.088,0.184-3.19-1.324-5.292l3.865-3.869c1.196-1.194,1.196-3.138,0-4.331c-1.193-1.195-3.135-1.195-4.332,0l-3.854,3.858
			c-2.137-1.553-4.285-2.354-5.381-1.38c0.002-0.007,0.002-0.014,0.004-0.022l-0.064,0.072c-0.006,0.004-0.012,0.007-0.012,0.008
			c-0.006,0.006-0.006,0.012-0.016,0.017l-2.123,2.217h-0.086c-0.115,0-2.832,0.035-4.598,1.509
			c-0.045,0.043-4.391,4.327-4.391,4.327c-4.203,4.466-13.979,14.938-14.418,16.105c-0.011,0.026-1.312,3.548-1.33,4.892
			c-2.769,0.267-2.453,2.89-2.453,2.89c-3.269,0-2.92,2.918-2.92,2.918l-0.017,0.024c-3.146-0.008-2.942,2.684-2.924,2.895
			c-3.246,0.015-2.896,2.918-2.896,2.918l-0.02,0.019c-3.273,0-3.168,2.664-3.168,2.664l7.062,7.063l1.549,1.543
			c3.516,0.254,3.166-2.662,3.166-2.662l0.018-0.02c3.186,0,2.934-2.759,2.92-2.896c3.242-0.012,2.898-2.909,2.898-2.909l0.016-0.03
			c3.271,0,2.922-2.913,2.922-2.913c2.494-0.004,2.877-1.698,2.922-2.503c1.396-0.059,4.789-1.316,4.828-1.331
			C287.705,191.72,298.174,181.946,302.619,177.764z M306.021,157.507c1.646-1.646,3.756-3.757,3.756-3.757
			c0.717-0.716,1.881-0.716,2.598,0.002c0.717,0.716,0.717,1.881,0,2.598c0,0-2.117,2.115-3.76,3.758l-0.986,0.989l-0.186,0.188
			c-0.507-0.237-1.037-0.594-1.521-1.078c-0.484-0.487-0.84-1.02-1.084-1.517l0.199-0.199L306.021,157.507z M304.055,157.738
			l-0.666,0.669l0.127,0.363c0.269,0.76,0.812,1.578,1.539,2.3c0.726,0.728,1.543,1.273,2.306,1.537l0.36,0.129l0.66-0.655
			c1.215,1.747,1.58,3.086,1.271,3.397c-0.438,0.439-2.97-0.48-5.781-3.292c-2.812-2.813-3.727-5.341-3.287-5.781
			C300.895,156.095,302.277,156.476,304.055,157.738z M285.965,190.742c-1.154,0.454-3.469,1.142-4.174,1.214
			c-4.977-3.95-6.438-5.912-7.617-7.594c0.059-0.674,0.758-3.028,1.225-4.211c0.511-0.985,8.914-10.087,14.084-15.592
			c0,0.002,4.326-4.258,4.326-4.258c0.662-0.55,1.562-0.825,2.293-0.965c-0.119,0.8,0.103,2.926,3.9,6.73l0.004,0.004
			c3.955,3.953,6.082,4.014,6.801,3.868c-0.137,0.755-0.42,1.722-1.014,2.434l-0.014,0.008c-0.23,0.23-4.229,4.289-4.229,4.289
			C296.07,181.82,286.967,190.224,285.965,190.742z"/>
	</g>
</g>
<g display="none">
	<path display="inline" fill="#ED2224" d="M302.289,142.049L290.426,130.2c0,0-2.914,0.018-4.725,1.53l-4.988,4.918
		c0,0-15.855,16.863-16.355,18.187c-0.518,1.302-1.625,4.842-1.471,5.444c1.461,2.085,3.164,4.467,9.32,9.324
		c0.604,0.151,4.146-0.954,5.445-1.469c1.328-0.501,18.184-16.358,18.184-16.358l4.926-4.988c1.51-1.808,1.527-4.723,1.527-4.723
		L290.443,130.2"/>
	<path display="inline" fill="#9D9FA1" d="M308.145,124.338c-1.096-1.098-2.879-1.098-3.983,0l-6.125,6.127
		c0.256,0.736,0.812,1.591,1.6,2.381c0.791,0.793,1.648,1.343,2.382,1.6l6.129-6.127
		C309.242,127.218,309.242,125.437,308.145,124.338z"/>
	<path display="inline" fill="#8B191B" d="M296.441,152.419l4.945-5.013c1.743-2.081,1.778-5.205,1.778-5.337l0.004-0.276
		l2.367-2.273c0.041-0.03,0.084-0.054,0.114-0.088c0.021-0.021,0.035-0.051,0.062-0.076l0.018-0.02
		c-0.004,0-0.004,0.002-0.004,0.002c1.093-1.251,0.203-3.668-1.528-6.08l4.442-4.446c1.371-1.37,1.371-3.604,0-4.976
		s-3.604-1.372-4.977,0l-4.432,4.431c-2.449-1.782-4.92-2.703-6.178-1.582c0.002-0.01,0.004-0.02,0.008-0.027l-0.084,0.086
		c0,0.004-0.006,0.004-0.011,0.007c-0.006,0.006-0.008,0.014-0.012,0.017l-2.442,2.551h-0.099c-0.131,0.002-3.254,0.041-5.276,1.735
		c-0.058,0.048-5.043,4.97-5.043,4.97c-4.828,5.13-16.062,17.154-16.566,18.497c-0.012,0.034-1.506,4.077-1.529,5.622
		c-3.178,0.304-2.82,3.318-2.82,3.318c-3.748,0-3.348,3.356-3.348,3.356l-0.018,0.023c-3.613-0.01-3.385,3.085-3.363,3.328
		c-3.729,0.013-3.326,3.347-3.326,3.347l-0.02,0.022c-3.761,0-3.638,3.06-3.638,3.06l8.107,8.117l1.782,1.772
		c4.037,0.29,3.64-3.056,3.64-3.056l0.017-0.026c3.665,0,3.375-3.167,3.354-3.325c3.725-0.014,3.329-3.342,3.329-3.342l0.021-0.033
		c3.755-0.003,3.353-3.351,3.353-3.351c2.865-0.003,3.305-1.95,3.354-2.875c1.603-0.066,5.509-1.509,5.554-1.526
		C279.314,168.449,291.332,157.22,296.441,152.419z M300.352,129.146c1.887-1.888,4.312-4.312,4.312-4.312
		c0.82-0.824,2.162-0.824,2.984,0c0.821,0.823,0.821,2.163,0,2.986c0,0-2.435,2.431-4.32,4.317l-1.131,1.133l-0.32,0.316
		c-0.576-0.272-1.188-0.68-1.742-1.238c-0.561-0.56-0.967-1.17-1.242-1.744l0.326-0.326L300.352,129.146z M298.096,129.415
		l-0.871,0.867l0.146,0.418c0.312,0.87,0.937,1.81,1.771,2.645c0.832,0.832,1.772,1.458,2.645,1.764l0.418,0.146l0.854-0.854
		c1.4,2.006,1.82,3.548,1.467,3.904c-0.506,0.502-3.41-0.548-6.637-3.78c-3.234-3.233-4.287-6.137-3.783-6.642
		C294.461,127.524,296.043,127.963,298.096,129.415z M277.309,167.327c-1.324,0.521-3.981,1.31-4.789,1.393
		c-5.721-4.536-7.399-6.79-8.754-8.722c0.068-0.775,0.863-3.478,1.406-4.842c0.586-1.127,10.238-11.584,16.18-17.904l4.972-4.897
		c0.756-0.63,1.79-0.944,2.633-1.106c-0.133,0.92,0.11,3.361,4.481,7.732v0.004c4.543,4.541,6.988,4.612,7.812,4.443
		c-0.154,0.869-0.482,1.977-1.166,2.793l-0.012,0.013c-0.262,0.266-4.857,4.924-4.857,4.924
		C288.918,157.08,278.459,166.73,277.309,167.327z"/>
</g>
<g>
	<g>
		<path fill="#343432" d="M358.311,229.493c0-2.289,0-13.614,0-13.614l-27.271,12.965h-3.284l-8.502,8.878c0-4.18,0-8.319,0-8.319
			h-0.006v-0.003l-0.006,0.003h-19.239v-10.384l0.09-0.3l-25.759-0.033l-1.45,1.455l-0.327,0.32l-4.514,4.509l-4.022,4.026
			l-0.162,0.166l-0.165,0.159l-17.217,0.024c0,0-3.335,3.335-3.367,3.367c-4.271-2.653-9.411-4.067-15.433-4.067
			c-3.824,0-7.235,0.616-10.304,1.729c0.004-2.473,0.004-12.154,0.004-12.154l-12.524-0.239c-5.293,0-8.993,0.562-11.76,1.773
			c-2.24,0.968-4.212,2.356-5.846,4.102c0.089-0.1-0.161,0.161-0.161,0.161c0.083-0.089-0.056,0.05-0.056,0.05
			c-0.05,0.051-0.316,0.329-0.316,0.329c0.127-0.139-0.111,0.104-0.111,0.104c0.106-0.106-0.161,0.157-0.161,0.157
			c0.022-0.016-0.021,0.022-0.039,0.039l-0.282,0.283c-0.022,0.02-0.045,0.044-0.045,0.044c-0.078,0.081-0.321,0.334-0.321,0.334
			l0.149-0.161l-1.073,1.078c-0.045,0.045-0.033,0.033-0.033,0.033c-0.021,0.016-0.328,0.328-0.334,0.337
			c-0.11,0.112-0.272,0.27-0.272,0.27c0.095-0.1-0.222,0.223-0.222,0.223l0.021-0.021c-0.039,0.039-0.455,0.475-0.455,0.475
			l0.317-0.336l-0.317,0.312c0.095-0.104-0.155,0.155-0.155,0.155c0.083-0.086-0.111,0.108-0.111,0.108l-0.422,0.426l-0.161,0.166
			l-0.306,0.307c-0.089,0.094-0.45,0.445-0.45,0.445c0.095-0.095-0.155,0.157-0.155,0.157c0.106-0.103-0.222,0.23-0.222,0.23
			l0.145-0.155l-0.511,0.528l0.199-0.214l-0.311,0.317c0.006-0.008,0.006-0.014,0.006-0.014c-0.039,0.036-0.172,0.169-0.172,0.169
			c-0.051,0.053-0.317,0.33-0.317,0.33c0.127-0.136-0.112,0.101-0.112,0.101c0.067-0.072-0.11,0.11-0.11,0.11l-0.327,0.328
			l0.043-0.042l-0.327,0.32c-0.006,0.011-0.021,0.021-0.033,0.035c-2.618-1.603-5.708-2.459-9.148-2.459
			c-0.916,0-1.873,0.189-2.805,0.322c0-2.968,0-10.55,0-10.55h-25.811l-10.637,10.637l-1.383,0.024c0,0-0.122,0.126-0.145,0.145
			c-1.706-0.35-3.49-0.577-5.401-0.577c-4.257,0-8.058,0.972-11.387,2.812c0-1.189,0-2.379,0-2.379s-5.046,0-5.146,0
			c0-3.257,0-14.047,0-14.047l-6.591,3.133c0,0-11.297,5.368-15.016,7.132c-0.806-1.937-2.128-3.676-4.058-5.015
			c-2.544-1.721-5.579-2.569-9.08-2.569c-3.307,0-6.241,0.754-8.725,2.246l-2.434,1.887c-0.09,0.092-0.623,0.628-0.623,0.628
			c-0.116,0.114-0.05,0.054-0.05,0.054s-0.023,0.02-0.039,0.035c-1.128-0.796-2.324-1.53-3.679-2.113
			c-3.307-1.384-7.664-2.031-13.744-2.031H17.664L1.915,234.441v20.21c0,0,2.117,0,3.423,0v3.215
			c-0.984,0.98-3.423,3.424-3.423,3.424v19.982H33.48c0,0,6.079-2.868,10.819-5.29c0,0.157,0,5.465,0,5.465h27.247
			c0,0,2.339-2.34,2.385-2.385c0.783,0.554,1.6,1.084,2.512,1.493c2.328,1.059,4.991,1.595,7.925,1.595
			c2.146,0,4.367-0.306,6.618-0.906c2.402-0.643,4.29-1.451,5.791-2.461l1.14-0.774c0,0,0-0.002,0-0.005
			c0-0.034,0.083-0.095,0.123-0.113c4.101,2.778,9.252,4.26,15.454,4.26c4.013,0,7.625-0.679,10.803-1.984c0,0.512,0,1.281,0,1.281
			h72.066c0,0,3.339-3.342,3.368-3.371c4.131,2.654,9.288,4.074,15.501,4.074c5.201,0,9.742-1.084,13.576-3.18
			c0,1.231,11.382,2.477,11.382,2.477l41.496,0.033c0.166,0.012,0.433,0.022,0.833,0.022c0.783-0.86,2.112-2.305,2.122-2.312
			c0.313,0.328,2.185,2.289,2.185,2.289h13.699v0.005h5.89l0.09-0.088l3.029-3.029c1.006,2.007,3.062,3.396,5.461,3.396l0.019,0.006
			h57.79l13.025-13.104l4.759-8.735l9.413-7.305v-23.133h-41.689V229.493z M48.914,257.527h-0.04c0.012-0.012,0.022-0.022,0.04-0.03
			V257.527z M59.506,243.76c-1.285,1.652-2.984,2.854-5.102,3.595c-2.072,0.728-5.28,1.087-9.613,1.087h-5.497v4.94h3.54v8.494
			H22.178v-8.494H25.6v-18.348h-3.422v-8.508h21.645c4.974,0,8.609,0.487,10.915,1.465c2.3,0.978,3.99,2.316,5.074,4.007
			c1.083,1.694,1.622,3.551,1.622,5.562C61.433,240.055,60.788,242.119,59.506,243.76z M68.092,227.044
			c1.356-0.813,3.029-1.221,5.023-1.221c2.057,0,3.707,0.427,4.956,1.271c1.234,0.862,1.856,1.907,1.856,3.141
			c0,1.336-0.65,2.39-1.934,3.173c-1.305,0.795-2.946,1.189-4.924,1.189c-2.017,0-3.695-0.361-5.03-1.088
			c-1.339-0.715-2.006-1.791-2.006-3.246C66.035,228.925,66.719,227.854,68.092,227.044z M82.007,261.822H64.563v-7.744h2.54v-9.139
			h-2.54v-7.747h15.314v16.886h2.13V261.822z M105.803,244.935h-5.158v4.79c0,1.562,0.149,2.609,0.434,3.134
			c0.277,0.528,0.85,0.791,1.727,0.791c0.829,0,1.823-0.269,2.997-0.808v7.552c-0.833,0.556-2.035,1.052-3.613,1.474
			c-1.649,0.438-3.24,0.659-4.768,0.659c-1.911,0-3.551-0.315-4.924-0.942c-1.406-0.643-2.462-1.503-3.172-2.585
			c-0.395-0.626-0.679-1.2-0.868-1.714c-0.189-0.514-0.317-1.098-0.4-1.742c-0.123-1.111-0.183-3.276-0.183-6.471v-4.139h-3.146
			v-7.742h3.146v-3.781l12.771-6.066v9.847h5.158V244.935z M136.39,260.241c-2.651,1.521-5.93,2.285-9.841,2.285
			c-5.173,0-9.252-1.165-12.225-3.496c-2.979-2.332-4.469-5.463-4.469-9.384c0-3.767,1.39-6.862,4.156-9.283
			c2.762-2.403,6.22-3.604,10.382-3.604c3.516,0,6.234,0.706,8.14,2.111v-1.679h7.791v10.504h-7.791
			c-0.961-2.778-2.595-4.168-4.896-4.168c-1.556,0-2.755,0.597-3.6,1.794c-0.845,1.241-1.267,2.732-1.267,4.497
			c0,1.905,0.455,3.413,1.367,4.512c0.901,1.096,2.067,1.646,3.501,1.646c2.374,0,3.824-1.429,4.363-4.279l9.52,2.138
			C140.725,256.576,139.013,258.713,136.39,260.241z M182.882,261.822h-15.666v-10.074c0-3.057-0.183-4.98-0.532-5.753
			c-0.373-0.778-1.145-1.17-2.334-1.17c-1.228,0-2.495,0.431-3.795,1.293v7.969h3.445v7.736H144.56v-7.738h3.217v-19.809h-3.217
			v-7.75h15.994v13.646c3.4-2.272,6.74-3.412,10.018-3.412c2.891,0,5.186,0.837,6.881,2.512c1.688,1.689,2.533,4.677,2.533,8.958
			v5.857h2.896V261.822L182.882,261.822z M210.175,232.777c-1.206-0.114-2.266-0.175-3.179-0.175c-1.168,0-2.073,0.152-2.718,0.455
			c-0.656,0.326-1.089,0.751-1.29,1.29c-0.223,0.511-0.327,1.462-0.327,2.845h4.72v7.742h-4.72v9.141h4.164v7.747h-19.93v-7.747
			h3.123v-9.141h-3.123v-7.742h3.123v-0.579c0-2.565,0.551-4.627,1.645-6.181c1.089-1.521,2.523-2.664,4.317-3.443
			c1.778-0.774,4.701-1.166,8.781-1.166c1.83,0,3.636,0.035,5.413,0.105V232.777L210.175,232.777z M240.618,258.797
			c-3.106,2.484-7.22,3.729-12.333,3.729c-5.523,0-9.819-1.246-12.898-3.729c-3.082-2.476-4.622-5.61-4.622-9.416
			c0-3.618,1.521-6.675,4.568-9.159c3.045-2.487,7.164-3.729,12.343-3.729c5.213,0,9.459,1.194,12.721,3.601
			c3.268,2.401,4.902,5.53,4.902,9.392C245.297,253.206,243.736,256.307,240.618,258.797z M275.497,247.585h-1.074
			c-2.601,0-4.533,0.262-5.803,0.783c-1.321,0.548-2.222,1.252-2.688,2.128c-0.5,0.912-0.751,2.117-0.761,3.603h3.727v7.724H249.07
			v-7.744h3.35v-9.139h-3.35v-7.747h15.26v6.175c0.574-1.53,1.461-2.856,2.662-3.974c1.149-1.101,2.315-1.817,3.501-2.151
			c1.134-0.321,2.8-0.482,5.002-0.482v10.825H275.497z M312.129,261.87h-9.158l-10.17-10.72v10.72h-15.905v-7.736h3.146v-19.812
			h-3.19v-7.743h15.949v24.571l8.013-7.842h-4.49v-6.064h15.727v6.675h-2.861l-4.617,4.521l5.551,5.688h2.005v7.742H312.129z
			 M356.143,244.825h-5.142v5.092c0,2.628,0.513,3.501,2.208,3.501c0.877,0,2.16-0.362,2.934-0.772v7.458
			c-1.802,1.284-5.303,2.162-8.279,2.162c-6.58,0-9.516-3.399-9.516-9.358v-8.08h-3.189v-7.66h3.189v-3.698l12.653-6.023v9.722
			h5.142V244.825z M392.299,244.825h-2.367l-8.903,17.025h-8.825l-9.29-17.025h-3.001v-7.66h16.198v7.66h-3.694l4.589,9.259
			l5.109-9.259h-2.417v-7.66h12.604v7.66H392.299z M228.13,243.688c-1.337,0-2.409,0.492-3.216,1.473
			c-0.812,0.979-1.228,2.403-1.228,4.284c0,3.925,1.404,5.88,4.223,5.88c2.979,0,4.469-1.977,4.469-5.935
			c0-1.807-0.366-3.206-1.094-4.204C230.537,244.189,229.481,243.688,228.13,243.688z M44.85,234.543
			c-0.672-0.181-1.817-0.267-3.434-0.267h-2.123v6.651h2.656c1.851,0,3.196-0.222,4.035-0.658c0.811-0.442,1.217-1.293,1.217-2.56
			c0-0.828-0.223-1.528-0.657-2.101C46.123,235.054,45.557,234.695,44.85,234.543z"/>
	</g>
	<path fill="#ED2224" d="M319.035,256.698c0-3.226,2.606-5.835,5.831-5.835c3.218,0,5.83,2.609,5.83,5.835
		c0,3.216-2.612,5.827-5.83,5.827C321.642,262.526,319.035,259.914,319.035,256.698z"/>
</g>
</svg>
