<?xml version="1.0" encoding="utf-8"?>
<!-- Generator: Adobe Illustrator 16.0.4, SVG Export Plug-In . SVG Version: 6.00 Build 0)  -->
<!DOCTYPE svg PUBLIC "-//W3C//DTD SVG 1.1//EN" "http://www.w3.org/Graphics/SVG/1.1/DTD/svg11.dtd">
<svg version="1.1" id="Layer_1" xmlns="http://www.w3.org/2000/svg" xmlns:xlink="http://www.w3.org/1999/xlink" x="0px" y="0px"
	 width="400px" height="178px" viewBox="0 111.5 400 178" enable-background="new 0 111.5 400 178" xml:space="preserve">
<g>
	<path fill="#9D9FA1" d="M312.678,153.729c-0.955-0.957-2.506-0.957-3.465,0l-5.248,5.249c0.229,0.643,0.705,1.386,1.396,2.074
		c0.686,0.689,1.432,1.168,2.068,1.392l5.248-5.25C313.633,156.238,313.633,154.687,312.678,153.729z"/>
	<g>
		<g>
			<path fill="#323031" d="M43.974,235.099c-0.672-0.183-1.814-0.271-3.433-0.271h-2.118v6.646h2.652
				c1.851,0,3.193-0.217,4.034-0.658c0.809-0.436,1.211-1.289,1.211-2.558c0-0.822-0.219-1.524-0.654-2.099
				C45.243,235.604,44.681,235.248,43.974,235.099z M357.262,230c0-2.291,0-13.605,0-13.605l-27.252,12.956h-3.277l-8.492,8.869
				c0-4.177,0-8.313,0-8.313h-0.006v-0.002l-0.014,0.002h-19.227c0-2.966,0-10.65,0-10.65h-8.791
				c5.941-8.842,9.424-19.479,9.424-30.908c0-30.606-24.896-55.503-55.496-55.503c-30.607,0-55.497,24.897-55.497,55.503
				c0,11.273,3.385,21.767,9.179,30.536c-2.281,0.28-4.16,0.749-5.718,1.433c-2.243,0.977-4.218,2.354-5.845,4.1
				c0.092-0.09-0.162,0.16-0.162,0.16c0.084-0.08-0.054,0.054-0.054,0.054c-0.052,0.053-0.32,0.329-0.32,0.329
				c0.132-0.139-0.108,0.102-0.108,0.102c0.098-0.102-0.137,0.139-0.154,0.155c-0.036,0.039-0.217,0.222-0.217,0.222l0.191-0.195
				l-0.302,0.301c0.088-0.088-0.05,0.046-0.05,0.046c-0.038,0.038-0.117,0.118-0.187,0.192l-1.056,1.053
				c-0.043,0.043-0.032,0.031-0.032,0.031c-0.018,0.02-0.327,0.334-0.335,0.342c-0.11,0.108-0.269,0.265-0.27,0.271
				c-0.014,0.011-0.039,0.037-0.062,0.062c-0.037,0.037-0.085,0.086-0.134,0.134c-0.04,0.041-0.452,0.478-0.452,0.478l0.312-0.339
				l-0.312,0.313c0.091-0.098-0.162,0.158-0.162,0.158c0.085-0.09-0.109,0.107-0.109,0.107l-0.426,0.426l-0.146,0.152
				c-0.052,0.052-0.3,0.299-0.315,0.312c-0.093,0.094-0.452,0.453-0.452,0.453c0.09-0.093-0.129,0.125-0.151,0.146
				c-0.049,0.051-0.226,0.232-0.226,0.232l0.143-0.151l-0.511,0.522l0.193-0.203l-0.303,0.312c0.003-0.015,0.003-0.015,0.003-0.015
				c-0.038,0.035-0.171,0.17-0.171,0.17c-0.05,0.054-0.319,0.332-0.319,0.332c0.134-0.146-0.107,0.099-0.107,0.099
				c0.068-0.069-0.111,0.11-0.111,0.11l-0.192,0.195l0.071-0.078l-0.206,0.211l0.043-0.045l-0.329,0.327
				c0.005-0.011,0.015-0.017,0.015-0.017l-0.019,0.02c-0.01,0.01-0.02,0.021-0.026,0.025c-2.62-1.6-5.707-2.454-9.142-2.454
				c-0.918,0-1.868,0.188-2.811,0.317c0-2.961,0-10.536,0-10.536h-25.775l-10.632,10.63l-1.381,0.021c0,0-0.123,0.121-0.147,0.146
				c-1.698-0.354-3.486-0.58-5.396-0.58c-4.247,0-8.044,0.966-11.374,2.811c0-1.187,0-2.377,0-2.377s-5.044,0-5.145,0
				c0-3.252,0-14.035,0-14.035L100.347,219c0,0-11.288,5.363-15.001,7.125c-0.807-1.939-2.132-3.672-4.057-5.016
				c-2.545-1.712-5.573-2.561-9.07-2.561c-3.306,0-6.24,0.755-8.72,2.236c0,0.008-2.426,1.896-2.426,1.896
				c-0.091,0.088-0.63,0.627-0.63,0.627c-0.026,0.028-0.042,0.044-0.054,0.058c-0.023,0.023-0.01,0.01-0.001,0
				c-0.003,0.004-0.017,0.016-0.03,0.031c-1.129-0.797-2.323-1.535-3.678-2.109c-3.306-1.395-7.66-2.032-13.731-2.032H16.815
				L1.073,234.998v20.193c0,0,2.119,0,3.423,0v3.204c-0.981,0.987-3.423,3.427-3.423,3.427v20.188h31.543
				c0,0,6.071-3.087,10.809-5.503c0,0.155,0,5.448,0,5.448H70.65c0,0,2.337-2.33,2.381-2.375c0.784,0.556,1.601,1.074,2.513,1.49
				c2.325,1.057,4.984,1.59,7.916,1.59c2.137,0,4.364-0.308,6.619-0.903c2.396-0.642,4.283-1.443,5.783-2.457l1.14-0.767
				c-0.004,0-0.004,0-0.004-0.006c0-0.033,0.089-0.095,0.123-0.115c4.1,2.77,9.248,4.248,15.441,4.248
				c4.012,0,7.622-0.682,10.795-1.979c0,0.505,0,1.271,0,1.271h72.003c0,0,3.336-3.326,3.36-3.354
				c4.131,2.644,9.279,4.062,15.488,4.062c5.205,0,9.738-1.078,13.566-3.168c0,1.224,0,2.463,0,2.463h53.576l0.645-0.64l0.156-0.167
				l0.166-0.156c0,0,1.312-1.314,1.332-1.328c0.307,0.326,2.178,2.291,2.178,2.291h13.693v0.006h5.883l0.096-0.09l3.02-3.026
				c1.008,2.005,3.062,3.394,5.465,3.394l0.014,0.006h57.752l13.018-13.099l4.756-8.729l9.404-7.303V230H357.262z M58.616,244.308
				c-1.283,1.654-2.982,2.849-5.094,3.59c-2.074,0.73-5.279,1.091-9.609,1.091h-5.489v4.93h3.534v8.492h-20.64v-8.492h3.422v-18.332
				h-3.422v-8.499h21.63c4.969,0,8.604,0.493,10.903,1.46c2.299,0.982,3.989,2.318,5.072,4.01c1.082,1.688,1.623,3.543,1.623,5.557
				C60.545,240.603,59.901,242.668,58.616,244.308z M67.195,227.607c1.353-0.812,3.027-1.219,5.022-1.219
				c2.052,0,3.7,0.425,4.951,1.264c1.231,0.859,1.852,1.913,1.852,3.144c0,1.333-0.644,2.389-1.93,3.168
				c-1.301,0.792-2.941,1.187-4.924,1.187c-2.011,0-3.685-0.361-5.021-1.09c-1.337-0.708-2.002-1.788-2.002-3.24
				C65.145,229.484,65.826,228.414,67.195,227.607z M81.101,262.354H63.669v-7.732h2.537v-9.137h-2.537v-7.736h15.3v16.873h2.131
				V262.354z M104.874,245.479h-5.144v4.788c0,1.562,0.142,2.604,0.431,3.132c0.271,0.524,0.847,0.788,1.723,0.788
				c0.828,0,1.824-0.269,2.99-0.812v7.551c-0.826,0.559-2.028,1.052-3.602,1.472c-1.658,0.441-3.246,0.66-4.768,0.66
				c-1.912,0-3.552-0.312-4.922-0.94c-1.404-0.639-2.46-1.502-3.172-2.588c-0.391-0.623-0.675-1.193-0.862-1.711
				c-0.186-0.517-0.322-1.088-0.407-1.738c-0.118-1.112-0.176-3.271-0.176-6.467v-4.135H83.82v-7.73h3.144v-3.781l12.765-6.062
				v9.846h5.144V245.479z M135.443,260.771c-2.657,1.524-5.933,2.287-9.839,2.287c-5.169,0-9.246-1.166-12.218-3.495
				c-2.971-2.333-4.463-5.456-4.463-9.374c0-3.771,1.387-6.858,4.161-9.278c2.754-2.396,6.209-3.596,10.365-3.596
				c3.516,0,6.231,0.705,8.14,2.108v-1.675h7.784v10.49h-7.784c-0.961-2.776-2.596-4.166-4.895-4.166
				c-1.554,0-2.754,0.602-3.596,1.801c-0.847,1.232-1.271,2.727-1.271,4.48c0,1.911,0.458,3.412,1.372,4.51
				c0.894,1.101,2.063,1.649,3.495,1.649c2.369,0,3.821-1.429,4.361-4.272l9.508,2.135
				C139.769,257.113,138.061,259.246,135.443,260.771z M181.889,262.354h-15.653v-10.061c0-3.061-0.177-4.982-0.531-5.754
				c-0.375-0.777-1.148-1.166-2.328-1.166c-1.236,0-2.496,0.428-3.796,1.289v7.963h3.443v7.729h-19.425v-7.73h3.22v-19.795h-3.22
				v-7.741h15.981v13.636c3.397-2.271,6.734-3.407,10.011-3.407c2.89,0,5.178,0.834,6.868,2.505c1.698,1.694,2.543,4.678,2.543,8.95
				v5.856h2.885v7.727H181.889z M244.131,150.991c20.592,0,37.348,16.758,37.348,37.356c0,20.594-16.756,37.35-37.348,37.35
				c-20.6,0-37.355-16.756-37.355-37.35C206.775,167.748,223.531,150.991,244.131,150.991z M209.152,233.336
				c-1.205-0.119-2.26-0.182-3.176-0.182c-1.16,0-2.066,0.155-2.713,0.459c-0.652,0.318-1.086,0.748-1.285,1.291
				c-0.221,0.506-0.334,1.455-0.334,2.844h4.717v7.729h-4.717v9.136h4.158v7.739H185.9v-7.739h3.118v-9.136H185.9v-7.729h3.118
				v-0.586c0-2.558,0.551-4.619,1.649-6.168c1.082-1.521,2.519-2.666,4.307-3.442c1.771-0.774,4.698-1.163,8.775-1.163
				c1.826,0,3.629,0.035,5.4,0.104v6.844H209.152z M239.576,259.328c-3.111,2.485-7.221,3.729-12.324,3.729
				c-5.514,0-9.812-1.243-12.889-3.729c-3.082-2.465-4.621-5.604-4.621-9.407c0-3.614,1.518-6.666,4.568-9.149
				c3.045-2.484,7.152-3.726,12.33-3.726c5.211,0,9.445,1.198,12.707,3.599c3.27,2.398,4.898,5.528,4.898,9.38
				C244.246,253.742,242.691,256.841,239.576,259.328z M274.42,248.133h-1.066c-2.6,0-4.537,0.256-5.805,0.783
				c-1.322,0.539-2.215,1.244-2.688,2.121c-0.494,0.91-0.744,2.113-0.762,3.599h3.727v7.718H248.02v-7.732h3.346v-9.137h-3.346
				v-7.736h15.242v6.166c0.572-1.534,1.463-2.855,2.666-3.971c1.146-1.096,2.311-1.812,3.492-2.147c1.137-0.321,2.803-0.48,5-0.48
				V248.133L274.42,248.133z M311.115,262.354h-9.154l-10.164-10.71v10.71h-15.893v-7.73h3.145v-19.795h-3.191v-7.741h15.939v24.558
				l8.012-7.837h-4.488v-6.06h15.719v6.67h-2.863l-4.615,4.516l5.551,5.688h2.006v7.732H311.115z M355.096,245.324h-5.137v5.086
				c0,2.625,0.512,3.496,2.205,3.496c0.877,0,2.162-0.357,2.932-0.771v7.452c-1.799,1.285-5.295,2.16-8.273,2.16
				c-6.574,0-9.502-3.396-9.502-9.35v-8.074h-3.189v-7.66h3.189v-3.694l12.641-6.019v9.713h5.137v7.66H355.096z M391.229,245.324
				h-2.365l-8.896,17.01h-8.82l-9.281-17.01h-3.002v-7.66h16.188v7.66h-3.691l4.586,9.252l5.104-9.252h-2.412v-7.66h12.594v7.66
				H391.229z M227.098,244.234c-1.338,0-2.414,0.491-3.223,1.473c-0.812,0.979-1.221,2.404-1.221,4.281
				c0,3.918,1.404,5.869,4.215,5.869c2.975,0,4.465-1.971,4.465-5.922c0-1.803-0.363-3.208-1.088-4.206
				C229.502,244.736,228.447,244.234,227.098,244.234z M183.095,227.572c0.014-0.015,0.023-0.022,0.037-0.037
				c0.033-0.032,0.058-0.059,0.058-0.059L183.095,227.572z M224.791,165.168l-8.852,8.851c-2.176,4.289-3.412,9.14-3.412,14.282
				c0,1.991,0.193,3.935,0.547,5.823l20.338-20.338L224.791,165.168z M227.27,215.015l28.32-28.312l-9.928-9.927l-28.303,28.309
				C219.877,209.089,223.27,212.488,227.27,215.015z M244.109,219.888c4.924,0,9.578-1.144,13.734-3.151l9.199-9.199l-8.621-8.619
				l-20.379,20.375C240.008,219.68,242.033,219.888,244.109,219.888z"/>
		</g>
	</g>
	<path fill="#ED2224" d="M318.016,257.186c0-3.221,2.609-5.831,5.824-5.831c3.219,0,5.832,2.61,5.832,5.831
		c0,3.215-2.613,5.825-5.832,5.825C320.625,263.011,318.016,260.4,318.016,257.186z"/>
	<g>
		<path fill="#FED401" d="M274.049,135.313l-10.326-10.315c0,0-2.537,0.017-4.115,1.332l-4.34,4.282c0,0-13.809,14.678-14.24,15.833
			c-0.449,1.133-1.408,4.212-1.277,4.737c1.27,1.819,2.754,3.891,8.115,8.117c0.523,0.133,3.607-0.829,4.74-1.278
			c1.152-0.435,15.826-14.239,15.826-14.239l4.287-4.345c1.314-1.573,1.33-4.11,1.33-4.11l-10.314-10.328"/>
		<path fill="#8E5723" d="M268.959,144.339l4.305-4.364c1.521-1.81,1.551-4.527,1.551-4.644l0.002-0.239l2.066-1.98
			c0.027-0.027,0.062-0.047,0.096-0.078c0.02-0.02,0.035-0.044,0.053-0.068l0.018-0.014c0,0,0,0-0.008,0.003
			c1.322-1.509-0.66-4.97-3.355-7.666c-2.697-2.7-6.17-4.684-7.676-3.349c0.006-0.005,0.006-0.017,0.012-0.025l-0.068,0.076
			c-0.004,0.001-0.006,0.004-0.014,0.005c-0.006,0.006-0.01,0.011-0.01,0.016l-2.129,2.22h-0.084
			c-0.117,0.002-2.834,0.033-4.6,1.511c-0.045,0.041-4.389,4.325-4.389,4.325c-4.201,4.465-13.979,14.934-14.42,16.104
			c-0.012,0.027-1.316,3.549-1.326,4.894c-2.766,0.264-2.457,2.888-2.457,2.888c-3.27,0.001-2.92,2.92-2.92,2.92l-0.014,0.024
			c-3.146-0.01-2.945,2.685-2.928,2.893c-3.244,0.014-2.896,2.918-2.896,2.918l-0.014,0.018c-3.275,0-3.17,2.665-3.17,2.665
			l7.057,7.063l1.553,1.544c3.518,0.251,3.166-2.66,3.166-2.66l0.021-0.023c3.184,0,2.932-2.756,2.92-2.895
			c3.242-0.011,2.9-2.91,2.9-2.91l0.014-0.028c3.268,0,2.916-2.916,2.916-2.916c2.496-0.002,2.879-1.698,2.924-2.503
			c1.396-0.06,4.793-1.315,4.83-1.329C254.043,158.295,264.512,148.522,268.959,144.339z M272.703,126.273
			c2.812,2.814,3.727,5.34,3.287,5.778c-0.436,0.44-2.965-0.476-5.775-3.287c-2.816-2.815-3.732-5.344-3.293-5.781
			C267.359,122.543,269.887,123.459,272.703,126.273z M252.305,157.318c-1.158,0.454-3.471,1.143-4.172,1.213
			c-4.98-3.95-6.441-5.909-7.619-7.592c0.059-0.675,0.756-3.031,1.23-4.214c0.504-0.984,8.906-10.086,14.08-15.589
			c0.004,0,4.322-4.261,4.322-4.261c0.658-0.549,1.562-0.824,2.297-0.964c-0.113,0.803,0.1,2.925,3.896,6.731l0.004,0.003
			c3.955,3.952,6.082,4.015,6.801,3.869c-0.137,0.754-0.42,1.719-1.016,2.431l-0.01,0.009c-0.23,0.233-4.23,4.291-4.23,4.291
			C262.412,148.399,253.307,156.8,252.305,157.318z"/>
		<g>
			<path fill="#9D9FA1" d="M279.369,119.67c-0.955-0.959-2.504-0.959-3.463,0l-5.475,5.475c0.229,0.637,0.705,1.383,1.395,2.071
				c0.691,0.688,1.432,1.167,2.07,1.39l5.473-5.473C280.328,122.176,280.328,120.625,279.369,119.67z"/>
			<path fill="#8E5723" d="M275.475,119.235l-5.744,5.749l0.123,0.363c0.27,0.757,0.812,1.573,1.539,2.302
				c0.727,0.726,1.543,1.269,2.307,1.536l0.361,0.126l5.746-5.744c1.193-1.194,1.193-3.138,0-4.332
				C278.613,118.042,276.668,118.042,275.475,119.235z M276.34,120.101c0.717-0.713,1.885-0.713,2.6,0
				c0.719,0.718,0.719,1.884,0,2.598c0,0-4.598,4.599-5.156,5.161c-0.504-0.237-1.037-0.593-1.521-1.079
				c-0.484-0.484-0.846-1.018-1.08-1.519C271.742,124.701,276.34,120.101,276.34,120.101z"/>
		</g>
	</g>
	<g>
		<path fill="#FFFFFF" d="M307.707,169.125l-10.324-10.315c0,0-2.541,0.019-4.115,1.331l-4.342,4.285c0,0-13.807,14.678-14.24,15.83
			c-0.445,1.136-1.41,4.218-1.275,4.74c1.27,1.815,2.754,3.889,8.111,8.116c0.525,0.131,3.607-0.829,4.74-1.277
			c1.152-0.438,15.83-14.241,15.83-14.241l4.281-4.344c1.32-1.573,1.334-4.11,1.334-4.11l-10.316-10.33"/>
		<g>
			<path fill="#6E7072" d="M302.617,178.152l4.301-4.366c1.521-1.809,1.557-4.528,1.557-4.643l0.002-0.237l2.062-1.981
				c0.033-0.026,0.066-0.046,0.098-0.075c0.021-0.022,0.033-0.049,0.055-0.069l0.018-0.017c0,0.002-0.006,0.002-0.01,0.002
				c0.953-1.088,0.184-3.19-1.324-5.292l3.865-3.869c1.195-1.194,1.195-3.138,0-4.331c-1.193-1.195-3.135-1.195-4.332,0
				l-3.855,3.858c-2.137-1.553-4.285-2.354-5.381-1.38c0.002-0.007,0.002-0.014,0.004-0.022l-0.064,0.072
				c-0.006,0.004-0.012,0.007-0.012,0.008c-0.006,0.006-0.006,0.012-0.016,0.017l-2.123,2.217h-0.086
				c-0.115,0-2.832,0.035-4.598,1.509c-0.045,0.043-4.391,4.327-4.391,4.327c-4.203,4.466-13.979,14.938-14.418,16.105
				c-0.01,0.026-1.312,3.548-1.33,4.892c-2.768,0.267-2.453,2.89-2.453,2.89c-3.268,0-2.92,2.918-2.92,2.918l-0.016,0.024
				c-3.146-0.008-2.943,2.684-2.924,2.895c-3.246,0.015-2.896,2.918-2.896,2.918l-0.02,0.019c-3.273,0-3.168,2.664-3.168,2.664
				l7.062,7.063l1.549,1.543c3.516,0.254,3.166-2.662,3.166-2.662l0.018-0.02c3.186,0,2.934-2.759,2.92-2.896
				c3.242-0.012,2.898-2.909,2.898-2.909l0.016-0.03c3.271,0,2.922-2.913,2.922-2.913c2.494-0.004,2.877-1.698,2.922-2.503
				c1.396-0.059,4.789-1.316,4.828-1.331C287.703,192.108,298.172,182.334,302.617,178.152z M306.02,157.895
				c1.646-1.646,3.756-3.757,3.756-3.757c0.717-0.716,1.881-0.716,2.598,0.002c0.717,0.716,0.717,1.881,0,2.598
				c0,0-2.117,2.115-3.76,3.758l-0.986,0.989l-0.186,0.188c-0.506-0.237-1.037-0.594-1.521-1.078
				c-0.484-0.487-0.84-1.02-1.084-1.517l0.199-0.199L306.02,157.895z M304.053,158.126l-0.666,0.669l0.127,0.363
				c0.27,0.76,0.812,1.578,1.539,2.3c0.727,0.728,1.543,1.273,2.307,1.537l0.359,0.129l0.66-0.655
				c1.215,1.747,1.58,3.086,1.271,3.397c-0.438,0.439-2.969-0.48-5.781-3.292c-2.812-2.813-3.727-5.341-3.287-5.781
				C300.893,156.483,302.275,156.864,304.053,158.126z M285.963,191.13c-1.154,0.454-3.469,1.142-4.174,1.214
				c-4.977-3.95-6.438-5.912-7.617-7.594c0.059-0.674,0.758-3.028,1.225-4.211c0.512-0.985,8.914-10.087,14.084-15.592
				c0,0.002,4.326-4.258,4.326-4.258c0.662-0.55,1.562-0.825,2.293-0.965c-0.119,0.8,0.104,2.926,3.9,6.73l0.004,0.004
				c3.955,3.953,6.082,4.014,6.801,3.868c-0.137,0.755-0.42,1.722-1.014,2.434l-0.014,0.008c-0.23,0.23-4.229,4.289-4.229,4.289
				C296.068,182.208,286.965,190.612,285.963,191.13z"/>
		</g>
	</g>
	<g>
		<path fill="#ED2224" d="M302.287,142.437l-11.863-11.849c0,0-2.914,0.018-4.725,1.53l-4.988,4.918
			c0,0-15.855,16.863-16.355,18.187c-0.518,1.302-1.625,4.842-1.471,5.444c1.461,2.085,3.164,4.467,9.32,9.324
			c0.604,0.151,4.146-0.954,5.445-1.469c1.328-0.501,18.184-16.358,18.184-16.358l4.926-4.988c1.51-1.808,1.527-4.723,1.527-4.723
			l-11.846-11.865"/>
		<path fill="#9D9FA1" d="M308.143,124.726c-1.096-1.098-2.879-1.098-3.982,0l-6.125,6.127c0.256,0.736,0.811,1.591,1.6,2.381
			c0.791,0.793,1.648,1.343,2.381,1.6l6.129-6.127C309.24,127.606,309.24,125.825,308.143,124.726z"/>
		<path fill="#8B191B" d="M296.439,152.807l4.945-5.013c1.744-2.081,1.779-5.205,1.779-5.337l0.004-0.276l2.367-2.273
			c0.041-0.03,0.084-0.054,0.113-0.088c0.021-0.021,0.035-0.051,0.062-0.076l0.018-0.02c-0.004,0-0.004,0.002-0.004,0.002
			c1.094-1.251,0.203-3.668-1.527-6.08l4.441-4.446c1.371-1.37,1.371-3.604,0-4.976s-3.604-1.372-4.977,0l-4.432,4.431
			c-2.449-1.782-4.92-2.703-6.178-1.582c0.002-0.01,0.004-0.02,0.008-0.027l-0.084,0.086c0,0.004-0.006,0.004-0.01,0.007
			c-0.006,0.006-0.008,0.014-0.012,0.017l-2.443,2.551h-0.098c-0.131,0.002-3.254,0.041-5.277,1.735
			c-0.057,0.048-5.043,4.97-5.043,4.97c-4.828,5.13-16.062,17.154-16.566,18.497c-0.012,0.034-1.506,4.077-1.529,5.622
			c-3.178,0.304-2.82,3.318-2.82,3.318c-3.748,0-3.348,3.356-3.348,3.356l-0.018,0.023c-3.613-0.01-3.385,3.085-3.363,3.328
			c-3.729,0.013-3.326,3.347-3.326,3.347l-0.02,0.022c-3.76,0-3.637,3.06-3.637,3.06l8.107,8.117l1.781,1.772
			c4.037,0.29,3.641-3.056,3.641-3.056l0.016-0.026c3.666,0,3.375-3.167,3.355-3.325c3.725-0.014,3.328-3.342,3.328-3.342
			l0.021-0.033c3.754-0.003,3.352-3.351,3.352-3.351c2.865-0.003,3.305-1.95,3.355-2.875c1.602-0.066,5.508-1.509,5.553-1.526
			C279.312,168.837,291.33,157.608,296.439,152.807z M300.35,129.534c1.887-1.888,4.312-4.312,4.312-4.312
			c0.82-0.824,2.162-0.824,2.984,0c0.822,0.823,0.822,2.163,0,2.986c0,0-2.434,2.431-4.32,4.317l-1.131,1.133l-0.32,0.316
			c-0.576-0.272-1.188-0.68-1.742-1.238c-0.561-0.56-0.967-1.17-1.242-1.744l0.326-0.326L300.35,129.534z M298.094,129.803
			l-0.871,0.867l0.146,0.418c0.311,0.87,0.936,1.81,1.77,2.645c0.832,0.832,1.773,1.458,2.645,1.764l0.418,0.146l0.854-0.854
			c1.4,2.006,1.82,3.548,1.467,3.904c-0.506,0.502-3.41-0.548-6.637-3.78c-3.234-3.233-4.287-6.137-3.783-6.642
			C294.459,127.912,296.041,128.351,298.094,129.803z M277.307,167.715c-1.324,0.521-3.98,1.31-4.789,1.393
			c-5.721-4.536-7.398-6.79-8.754-8.722c0.068-0.775,0.863-3.478,1.406-4.842c0.586-1.127,10.238-11.584,16.18-17.904l4.973-4.897
			c0.756-0.63,1.789-0.944,2.633-1.106c-0.133,0.92,0.109,3.361,4.48,7.732v0.004c4.543,4.541,6.988,4.612,7.812,4.443
			c-0.154,0.869-0.482,1.977-1.166,2.793l-0.012,0.013c-0.262,0.266-4.857,4.924-4.857,4.924
			C288.916,157.468,278.457,167.118,277.307,167.715z"/>
	</g>
</g>
</svg>
