<svg xmlns="http://www.w3.org/2000/svg" id="Layer_1" x="0" y="0" version="1.1" viewBox="0 0 612 64" xml:space="preserve">
  <defs/>
  <style>
    .st0{fill:#f4eccd}
  </style>
  <path d="M18.25 14.45h5.87v33.43h-5.87zM42.6 14.45v33.44h5.77V24.11L66.8 47.89h4.92V14.45h-5.78v23.12l-17.9-23.12zM87.24 14.45v5.45h10.6v27.99h5.92V19.9h10.6v-5.45zM130.1 14.45v33.44h25.02v-5.26h-19.14v-8.98h16.76V28.4h-16.76v-8.68h18.91v-5.27zM171.63 14.45v33.43h5.87V36.23h7.35l8.22 11.65H200l-9.02-12.66c4.68-1.29 7.98-4.63 7.98-10.17 0-6.55-4.73-10.6-12.42-10.6h-14.91zm21.35 10.95c0 3.43-2.67 5.63-6.88 5.63h-8.59V19.81h8.55c4.34 0 6.92 1.91 6.92 5.59M216.03 14.45h5.87v33.43h-5.87zM238.89 31.22c0 9.45 7.16 17.24 17.43 17.24s17.53-7.88 17.53-17.33c0-9.46-7.16-17.24-17.43-17.24s-17.53 7.88-17.53 17.33m28.8 0c0 6.55-4.63 11.84-11.27 11.84s-11.36-5.39-11.36-11.93c0-6.55 4.63-11.85 11.27-11.85 6.63 0 11.36 5.4 11.36 11.94M289.66 14.45v33.43h5.88V36.23h7.35l8.21 11.65h6.92L309 35.23c4.68-1.29 7.98-4.63 7.98-10.17 0-6.55-4.73-10.6-12.41-10.6h-14.91zm21.35 10.95c0 3.43-2.67 5.63-6.88 5.63h-8.59V19.81h8.55c4.34 0 6.92 1.91 6.92 5.59M368.32 14.45v33.43h12.46c10.51 0 17.76-7.31 17.76-16.76 0-9.46-7.26-16.67-17.76-16.67h-12.46zm24.07 16.77c0 6.59-4.58 11.32-11.6 11.32h-6.59V19.81h6.59c7.01 0 11.6 4.82 11.6 11.41M414.4 14.45v33.44h25.02v-5.26h-19.15v-8.98h16.77V28.4h-16.77v-8.68h18.91v-5.27zM455.93 14.45v33.44h5.87V34.27h16.87v-5.34H461.8v-9.12h19.01v-5.36zM497.12 14.45h5.87v33.43h-5.87zM521.47 14.45v33.44h5.78V24.11l18.43 23.78h4.92V14.45h-5.78v23.12l-17.91-23.12zM568.73 14.45v33.44h25.02v-5.26H574.6v-8.98h16.76V28.4H574.6v-8.68h18.91v-5.27z" class="st0"/>
</svg>
