<?xml version="1.0" encoding="utf-8"?>
<!-- Generator: Adobe Illustrator 21.0.2, SVG Export Plug-In . SVG Version: 6.00 Build 0)  -->
<svg version="1.1" id="Layer_1" xmlns="http://www.w3.org/2000/svg" xmlns:xlink="http://www.w3.org/1999/xlink" x="0px" y="0px"
	 viewBox="0 0 779 465" style="enable-background:new 0 0 779 465;" xml:space="preserve">
<style type="text/css">
	.st0{fill:#D0222A;}
	.st1{fill:#FAAD02;}
	.st2{fill:#F45A22;}
	.st3{fill:#FFD800;}
	.st4{fill:#E11F48;}
	.st5{fill:#AECB2B;}
	.st6{fill:#00A083;}
	.st7{fill:#00E87D;}
	.st8{fill:#2B424D;}
	.st9{fill:url(#SVGID_1_);}
	.st10{fill:url(#SVGID_2_);}
	.st11{fill:url(#SVGID_3_);}
	.st12{fill:url(#SVGID_4_);}
	.st13{fill:url(#SVGID_5_);}
	.st14{fill:url(#SVGID_6_);}
	.st15{fill:url(#SVGID_7_);}
	.st16{fill:url(#SVGID_8_);}
	.st17{fill:url(#SVGID_9_);}
	.st18{clip-path:url(#SVGID_11_);fill:url(#SVGID_12_);}
	.st19{clip-path:url(#SVGID_14_);fill:url(#SVGID_15_);}
	.st20{clip-path:url(#SVGID_17_);fill:url(#SVGID_18_);}
	.st21{clip-path:url(#SVGID_20_);fill:url(#SVGID_21_);}
	.st22{fill:#17242B;}
	.st23{display:none;fill:#FA4987;}
	.st24{fill:#FF3333;}
	.st25{fill:#263645;}
	.st26{clip-path:url(#SVGID_26_);fill:url(#SVGID_27_);}
	.st27{clip-path:url(#SVGID_29_);}
	.st28{clip-path:url(#SVGID_31_);}
	.st29{clip-path:url(#SVGID_33_);fill:url(#SVGID_34_);}
	.st30{clip-path:url(#SVGID_29_);fill:#FFFFFF;}
	.st31{clip-path:url(#SVGID_36_);}
	.st32{clip-path:url(#SVGID_38_);fill:#001D6F;}
	.st33{fill:#FF0D75;}
	.st34{fill:#420FFF;}
	.st35{clip-path:url(#SVGID_40_);fill:url(#SVGID_41_);}
	.st36{clip-path:url(#SVGID_43_);fill:url(#SVGID_44_);}
	.st37{clip-path:url(#SVGID_46_);fill:#0092F6;}
	.st38{clip-path:url(#SVGID_46_);fill:#032B3D;}
	.st39{fill:#F73840;}
	.st40{fill:#FF5E24;}
	.st41{fill:#F7523D;}
	.st42{fill:#F7053D;}
	.st43{fill:#FF7317;}
	.st44{fill:#00BAFF;}
	.st45{fill:#033BED;}
	.st46{fill:none;stroke:#383838;stroke-width:0.25;stroke-miterlimit:10;}
</style>
<g id="col4">
	<g>
		<g>
			<polygon class="st0" points="678,352.7 666,356.7 665.2,357.2 665.5,370.4 666,369.6 678,365.6 679.1,364 678.5,353.5 			"/>
			<polygon class="st1" points="658.4,380.1 666,390.6 673.6,380.1 666,369.6 			"/>
			<polygon class="st2" points="653.6,365.6 658.4,380.1 666,369.7 666,356.7 			"/>
			<polygon class="st3" points="646,384.6 646,384.6 653.6,395 666,390.6 658.4,380.1 			"/>
			<polygon class="st4" points="678,365.6 681.9,359.8 678,352.8 			"/>
			<polygon class="st5" points="646,384.7 648.1,395.6 649,395.6 653.6,395.1 646,384.6 			"/>
		</g>
		<path class="st6" d="M714.3,376.7c0,1.7,1.8,2.4,2.5,2.8c1.6,0.7,2,0.9,2,1.4c0,0.4-0.3,0.8-1,0.8c-0.3,0-1.1-0.3-1.1-1.3
			l-2.6-0.2l0,0.3c0,1.1,0.8,2.9,3.7,3.1c2.7,0.2,3.5-1.2,3.4-2.4c0-1-0.6-1.8-2.5-2.7c-1.8-0.9-2.1-1-2.1-1.5
			c0-0.4,0.4-0.6,0.9-0.6c0.8,0.1,0.9,0.6,1,0.9l2.5,0.2c0-0.5-0.1-1.1-0.7-1.8c-0.7-0.7-1.7-1.2-2.7-1.3c-0.2,0-0.3,0-0.5,0
			C715.7,374.4,714.2,375.2,714.3,376.7 M706.6,375.5l2,0.2l0,7.1l2.6,0.2l-0.1-7l2,0.2l0-2l-6.4-0.7V375.5z M700.5,378.9l1.1-3.1
			l0,0h0l1,3.3L700.5,378.9z M696.4,381.9l2.8,0.2l0.6-1.3l3.5,0.3l0.5,1.4l2.8,0.2l-3.9-9.6l-2-0.2L696.4,381.9z M690.3,373.8
			l1.9,0.2l-0.3,7.6l2.6,0.2l0.3-7.5l1.9,0.2l0.1-2.1l-6.4-0.7L690.3,373.8z M685.2,370.9c-1.4,0.1-2.8,1-2.9,2.6
			c-0.1,1.9,1.5,2.8,2.2,3.1c1.5,0.8,1.9,1,1.9,1.7c0,0.5-0.4,0.9-1,0.9c-0.3,0-1-0.3-1-1.5l-2.5-0.2l0,0.3
			c-0.1,1.3,0.5,3.3,3.4,3.5c2.7,0.2,3.6-1.3,3.7-2.7c0.1-1.1-0.4-2-2.2-3.1c-1.7-1-2-1.1-2-1.7c0-0.5,0.5-0.7,0.9-0.7
			c0.8,0.1,0.8,0.7,0.8,1.1l2.5,0.3c0-0.6,0-1.2-0.6-2c-0.6-0.8-1.6-1.3-2.6-1.4c-0.1,0-0.1,0-0.2,0H685.2z"/>
	</g>
	<g>
		<rect x="677.7" y="86.1" class="st7" width="12.1" height="4"/>
		<path class="st8" d="M684.3,73.4l-0.4-7.5l-0.5,0l-0.6,7.4H684.3z M687.8,65l1.9,18.3h-4.9l-0.3-5.2h-2.2l-0.4,5.2h-4.3l1.9-18.3
			l0.1-1.3l0.5-4.7l0.1-1.3l0.6-5.5h5.7l0.6,5.5l0.1,1.3l0.5,4.7L687.8,65z M661.4,73.6c-2-3.7-3-5.9-3-9c0-0.9,0.7-1.4,1.3-1.4
			c0.6,0,1,0.5,1,1.4v4.3h4.4v-4.5c0-3.1-2.3-5.7-5.4-5.7c-1.4,0-2.5,0.4-3.4,1c-0.5,0.4-0.9,0.8-1.3,1.4c-0.5,0.8-0.8,1.7-1,2.7
			c-0.1,0.4-0.1,0.8-0.2,1.3c0,0.3,0,0.5,0,0.8c0,3.2,1.7,6.7,3.5,9.9c1.7,3,3.4,5.7,3.4,8.6c0,1-0.4,1.7-1.4,1.7
			c-0.9,0-1.4-0.8-1.4-1.7v-4.1h-4.4v4.5c0,3.1,2.4,5.7,6.1,5.7c3.6,0,5.7-3.2,5.7-7.2C665.2,80.3,663.2,76.9,661.4,73.6
			 M710.1,73.6c-2-3.7-3-5.9-3-9c0-0.9,0.7-1.4,1.3-1.4c0.6,0,1,0.5,1,1.4v4.3h4.4v-4.5c0-3.1-2.3-5.7-5.4-5.7c-1.4,0-2.5,0.4-3.4,1
			c-0.5,0.4-0.9,0.8-1.3,1.4c-0.5,0.8-0.8,1.7-1,2.7c-0.1,0.4-0.1,0.8-0.2,1.3c0,0.3,0,0.5,0,0.8c0,3.2,1.7,6.7,3.5,9.9
			c1.7,3,3.4,5.7,3.4,8.6c0,1-0.4,1.7-1.4,1.7c-0.9,0-1.4-0.8-1.4-1.7v-4.1h-4.4v4.5c0,3.1,2.4,5.7,6.1,5.7s5.7-3.2,5.7-7.2
			C714,80.3,711.9,76.9,710.1,73.6 M678,59h-11.7v4.7h3.5v26.3h4.8V63.8h3.5V59z M701.1,63.8h-3.5v26.3h-4.8V63.8h-3.5V59h11.7V63.8
			z"/>
	</g>
	<g>
		<linearGradient id="SVGID_1_" gradientUnits="userSpaceOnUse" x1="644.8914" y1="228.6831" x2="653.5851" y2="219.9894">
			<stop  offset="0" style="stop-color:#4A00E9;stop-opacity:0.9"/>
			<stop  offset="0.1737" style="stop-color:#7200CF;stop-opacity:0.8826"/>
			<stop  offset="0.4586" style="stop-color:#AE00A7;stop-opacity:0.8541"/>
			<stop  offset="0.7014" style="stop-color:#DA008A;stop-opacity:0.8299"/>
			<stop  offset="0.8895" style="stop-color:#F50079;stop-opacity:0.811"/>
			<stop  offset="1" style="stop-color:#FF0072;stop-opacity:0.8"/>
		</linearGradient>
		<path class="st9" d="M657.1,224c0-0.8-0.7-1.2-1.1-1.2c0,0-8.6,0-8.6,0c-1.3,0-2.3-0.4-2.3-2.5c0-0.7,0-1.7,0-1.7h0
			c0,0,0-0.7,0-0.9c0-0.1,0-0.8-0.7-0.8c-0.7,0-0.8,0.7-0.8,0.8c0,0,0,0.1,0,0.1l0,0c0,0,0,2.1,0,3c0,2,1.1,3.3,3.5,3.3
			c1.3,0,6.7,0,7.8,0c0.5,0,0.7,0.2,0.7,0.9v2.2c0,0.5,0,0.9-0.7,0.9h0l0,0c0,0-8.6,0-8.7,0c-0.1,0-0.8,0-0.8,0.7
			c0,0.7,0.7,0.8,0.8,0.8c0.1,0,9.4,0,9.5,0c0.5,0,1.3-0.2,1.3-1.2c0-0.3,0-4.6,0-4.6l0,0V224z"/>
		<linearGradient id="SVGID_2_" gradientUnits="userSpaceOnUse" x1="665.7622" y1="230.5656" x2="679.8052" y2="216.5226">
			<stop  offset="0" style="stop-color:#4A00E9;stop-opacity:0.9"/>
			<stop  offset="0.1737" style="stop-color:#7200CF;stop-opacity:0.8826"/>
			<stop  offset="0.4586" style="stop-color:#AE00A7;stop-opacity:0.8541"/>
			<stop  offset="0.7014" style="stop-color:#DA008A;stop-opacity:0.8299"/>
			<stop  offset="0.8895" style="stop-color:#F50079;stop-opacity:0.811"/>
			<stop  offset="1" style="stop-color:#FF0072;stop-opacity:0.8"/>
		</linearGradient>
		<path class="st10" d="M677.4,214.9h-0.6h0h0h-0.1c0,0,0,0-0.1,0c-1,0-6.2,0-6.8,0c-1,0-2,0.8-2,2c0,0.8,0,11.4,0,11.4h0
			c0,0.2,0,0.5,0,0.5c0,0.1,0,0.8,0.7,0.8c0.7,0,0.8-0.7,0.8-0.8c0-0.1,0-0.4,0-0.6h0c0,0,0-9.8,0-10.6c0-1.1,0.5-1.3,1.4-1.3
			c0.3,0,5.7,0,5.8,0l-0.8,3.3l-4.1,16.7l0,0l0,0l1.1-0.3c0,0,0.3-0.1,0.4-0.3c0.1-0.2,0.2-0.4,0.2-0.4l0.7-2.9l4.3-17.5H677.4z"/>
		<linearGradient id="SVGID_3_" gradientUnits="userSpaceOnUse" x1="653.2032" y1="227.2279" x2="665.3444" y2="215.0867">
			<stop  offset="0" style="stop-color:#4A00E9;stop-opacity:0.9"/>
			<stop  offset="0.1737" style="stop-color:#7200CF;stop-opacity:0.8826"/>
			<stop  offset="0.4586" style="stop-color:#AE00A7;stop-opacity:0.8541"/>
			<stop  offset="0.7014" style="stop-color:#DA008A;stop-opacity:0.8299"/>
			<stop  offset="0.8895" style="stop-color:#F50079;stop-opacity:0.811"/>
			<stop  offset="1" style="stop-color:#FF0072;stop-opacity:0.8"/>
		</linearGradient>
		<path class="st11" d="M666.3,230.1L666.3,230.1v-12.5l0,0c0-0.4,0-0.6,0-0.7c0-1.2-1-2-2-2c-0.5,0-15.4,0-15.4,0s0,0,0,0
			c-0.4,0-0.8,0-0.9,0c-0.5,0-1.5,0.4-1.5,1.5c0,0.9,0,1.9,0,1.9h0c0,0.6,0,1.2,0,1.6c0,1.1,1,1.5,1.5,1.5c0.2,0,7.8,0,8.2,0
			c1.4,0,2.3,0.4,2.3,2.5c0,0.5,0,4.9,0,4.9c0,0.1,0,0.8,0.7,0.8c0.7,0,0.8-0.7,0.8-0.8c0-0.1,0-5.5,0-5.6c0-2-1.1-3.3-3.5-3.3
			c-0.1,0-7.2,0-7.5,0c-0.7,0-1-0.1-1-0.7c0-0.1,0-0.5,0-1h0c0,0,0-0.2,0-0.5c0-0.3,0-0.5,0-0.7c0-0.6,0.3-0.7,1-0.7
			c0.2,0-0.7,0,1,0l13.5,0c0.9,0,1.4,0.2,1.4,1.3c0,0.6,0,6.6,0,10l0,0v3.9l0,0c0,0.2,0,0.3,0,0.4c0,0.1,0,0.8,0.7,0.8
			c0.7,0,0.8-0.7,0.8-0.8c0-0.1,0-0.9,0-0.9h0V230.1z"/>
		<linearGradient id="SVGID_4_" gradientUnits="userSpaceOnUse" x1="656.0303" y1="220.3661" x2="673.4906" y2="202.9058">
			<stop  offset="0" style="stop-color:#4A00E9;stop-opacity:0.9"/>
			<stop  offset="0.1737" style="stop-color:#7200CF;stop-opacity:0.8826"/>
			<stop  offset="0.4586" style="stop-color:#AE00A7;stop-opacity:0.8541"/>
			<stop  offset="0.7014" style="stop-color:#DA008A;stop-opacity:0.8299"/>
			<stop  offset="0.8895" style="stop-color:#F50079;stop-opacity:0.811"/>
			<stop  offset="1" style="stop-color:#FF0072;stop-opacity:0.8"/>
		</linearGradient>
		<path class="st12" d="M649.4,213.4c0.1,0,0.2,0,0.4,0v0h7h2.3h17.5h0.5h0h0.8h0.5l1.1-4.4l-0.9,0.3c0,0-0.3,0.1-0.4,0.3
			c-0.1,0.2-0.2,0.4-0.2,0.4l-0.5,1.9h-19h-1.1h-7.2v0c0,0-0.7,0-0.9,0s-0.8,0-0.8,0.7C648.6,213.4,649.3,213.4,649.4,213.4z"/>
		<linearGradient id="SVGID_5_" gradientUnits="userSpaceOnUse" x1="675.9827" y1="236.5905" x2="711.2061" y2="201.3671">
			<stop  offset="0" style="stop-color:#4A00E9;stop-opacity:0.9"/>
			<stop  offset="0.1737" style="stop-color:#7200CF;stop-opacity:0.8826"/>
			<stop  offset="0.4586" style="stop-color:#AE00A7;stop-opacity:0.8541"/>
			<stop  offset="0.7014" style="stop-color:#DA008A;stop-opacity:0.8299"/>
			<stop  offset="0.8895" style="stop-color:#F50079;stop-opacity:0.811"/>
			<stop  offset="1" style="stop-color:#FF0072;stop-opacity:0.8"/>
		</linearGradient>
		<path class="st13" d="M700.1,227L700.1,227v-9.5l0,0c0-0.4,0-0.6,0-0.7c0-1.2-1-2-2-2c-0.4,0-6.6,0-7,0l-0.4-1.5h11.8h0.2
			c0,0,18.4,0,18.6,0c0.1,0,0.8,0,0.8-0.7c0-0.7-0.7-0.8-0.8-0.8c-0.1,0-19.2,0-19.2,0h-0.2h-11.5c0,0-0.1-0.2-0.2-0.9
			c-0.3-1.4-1.6-2-4.9-2c-0.7,0-3,0-3,0h-0.7H681l-6.5,26.1l0,0l0,0l1.1-0.3c0,0,0.3-0.1,0.4-0.3c0.1-0.2,0.2-0.4,0.2-0.4l0.2-1
			l2.1-8.8l10.7,0l2.3,9.5c0,0,0,0.3,0.2,0.4c0.1,0.2,0.4,0.3,0.4,0.3l1.1,0.3l-2.6-10.6c0,0,0.4,0,0.8,0c0.3,0,0.6,0.1,0.7,0.5
			c0,0.1,0.1,0.4,0.2,1l0,0l2.3,9.5c0,0,0,0.3,0.2,0.4c0.1,0.2,0.4,0.3,0.4,0.3l1.1,0.3l0,0l0,0c0,0-2.6-10.6-2.7-11.3
			c-0.4-1.8-1-2.2-2.4-2.2c-0.8,0-12.3,0-12.3,0l0.4-1.5c0,0,10.7,0,11.3,0c1.2,0,1.9-0.8,1.6-2c-0.2-0.8-0.8-3.1-0.8-3.1l0,0l5.8,0
			c0.9,0,1.4,0.2,1.4,1.3c0,0.6,0,6.6,0,10l0,0v0.8l0,0c0,0.2,0,0.3,0,0.4c0,0.1,0,0.8,0.7,0.8c0.7,0,0.8-0.7,0.8-0.8
			c0-0.1,0-0.9,0-0.9h0V227z M679.6,220l1.6-6.6c0,0,2.9,0,3.4,0c1.1,0,2,0,2.4,1.6c0.1,0.5,1.2,5,1.2,5H679.6z M690.4,220
			c-0.3,0-0.9,0-0.9,0s-1.3-5.3-1.6-6.3c-0.4-1.6-1.2-1.8-3-1.8c-0.7,0-3.5,0-3.5,0l0.4-1.5c0,0,2.2,0,3.7,0c2.3,0,3.1,0.1,3.6,2.1
			c0.2,0.9,1.1,4.4,1.5,6.2C690.9,219.5,691.1,220,690.4,220z"/>
		<linearGradient id="SVGID_6_" gradientUnits="userSpaceOnUse" x1="646.6537" y1="235.438" x2="653.8258" y2="228.266">
			<stop  offset="0" style="stop-color:#4A00E9;stop-opacity:0.9"/>
			<stop  offset="0.1737" style="stop-color:#7200CF;stop-opacity:0.8826"/>
			<stop  offset="0.4586" style="stop-color:#AE00A7;stop-opacity:0.8541"/>
			<stop  offset="0.7014" style="stop-color:#DA008A;stop-opacity:0.8299"/>
			<stop  offset="0.8895" style="stop-color:#F50079;stop-opacity:0.811"/>
			<stop  offset="1" style="stop-color:#FF0072;stop-opacity:0.8"/>
		</linearGradient>
		<path class="st14" d="M656.3,231.1c-0.1,0-0.9,0-0.9,0v0h-10.7v0c-0.2,0-0.4,0-0.5,0c-0.1,0-0.8,0-0.8,0.7c0,0.7,0.7,0.8,0.8,0.8
			c0,0,0.1,0,0.2,0v0h11.7v0c0,0,0.1,0,0.1,0c0.1,0,0.8,0,0.8-0.7C657.1,231.1,656.4,231.1,656.3,231.1z"/>
		<linearGradient id="SVGID_7_" gradientUnits="userSpaceOnUse" x1="701.6721" y1="232.3667" x2="715.9663" y2="218.0726">
			<stop  offset="0" style="stop-color:#4A00E9;stop-opacity:0.9"/>
			<stop  offset="0.1737" style="stop-color:#7200CF;stop-opacity:0.8826"/>
			<stop  offset="0.4586" style="stop-color:#AE00A7;stop-opacity:0.8541"/>
			<stop  offset="0.7014" style="stop-color:#DA008A;stop-opacity:0.8299"/>
			<stop  offset="0.8895" style="stop-color:#F50079;stop-opacity:0.811"/>
			<stop  offset="1" style="stop-color:#FF0072;stop-opacity:0.8"/>
		</linearGradient>
		<path class="st15" d="M721.4,224c0-0.8-0.7-1.2-1.1-1.2c0,0-8.6,0-8.6,0c-1.3,0-2.3-0.4-2.3-2.5c0-0.7,0-3.8,0-3.8h0
			c0,0,0-0.7,0-0.9c0,0,0-0.1,0-0.2v-0.6c-0.1,0-0.4,0-0.6,0c0,0,0,0-0.1,0c0,0,0,0-0.1,0c-1.5,0-4.4,0-5,0c-1,0-2,0.8-2,2
			c0,0.8,0,14.5,0,14.5h0c0,0.2,0,0.5,0,0.5c0,0.1,0,0.8,0.7,0.8c0.7,0,0.8-0.7,0.8-0.8c0-0.1,0-0.4,0-0.6l0,0c0,0,0-12.8,0-13.6
			c0-1.1,0.5-1.3,1.4-1.3l3.4,0c0,1.1,0,3.9,0,4.7c0,2,1.1,3.3,3.5,3.3c1.3,0,6.7,0,7.8,0c0.5,0,0.7,0.2,0.7,0.9v2.2
			c0,0.5,0,0.9-0.7,0.9h0h0c0,0-8.6,0-8.7,0c-0.1,0-0.8,0-0.8,0.7c0,0.7,0.7,0.8,0.8,0.8c0.1,0,9.4,0,9.5,0c0.5,0,1.3-0.2,1.3-1.2
			c0-0.3,0-4.6,0-4.6l0,0V224z"/>
		<linearGradient id="SVGID_8_" gradientUnits="userSpaceOnUse" x1="714.6267" y1="224.3534" x2="723.97" y2="215.0101">
			<stop  offset="0" style="stop-color:#4A00E9;stop-opacity:0.9"/>
			<stop  offset="0.1737" style="stop-color:#7200CF;stop-opacity:0.8826"/>
			<stop  offset="0.4586" style="stop-color:#AE00A7;stop-opacity:0.8541"/>
			<stop  offset="0.7014" style="stop-color:#DA008A;stop-opacity:0.8299"/>
			<stop  offset="0.8895" style="stop-color:#F50079;stop-opacity:0.811"/>
			<stop  offset="1" style="stop-color:#FF0072;stop-opacity:0.8"/>
		</linearGradient>
		<path class="st16" d="M720.7,220c-0.1,0-7.2,0-7.5,0c-0.7,0-1-0.1-1-0.7c0-0.1,0-0.5,0-1h0c0,0,0-0.2,0-0.5c0-0.3,0-0.5,0-0.7
			c0-0.6,0.3-0.7,1-0.7c0.2,0-0.6,0,0.7,0c0,0,0,0,0,0c0,0,0.1,0,0.2,0v0h9.1v0c0,0,0.1,0,0.1,0c0.1,0,0.8,0,0.8-0.7
			c0-0.7-0.7-0.8-0.8-0.8c-0.1,0-0.9,0-0.9,0v0h-8.1v0c-0.1,0-0.3,0-0.5,0c0,0-0.1,0-0.1,0c-0.2,0-0.4,0-0.7,0l0,0c0,0,0,0,0,0
			c-0.4,0-0.8,0-0.9,0c-0.5,0-1.5,0.4-1.5,1.5c0,0.9,0,1.9,0,1.9h0c0,0.6,0,1.2,0,1.6c0,1.1,1,1.5,1.5,1.5c0.2,0,7.8,0,8.2,0
			c1.4,0,2.3,0.4,2.3,2.5c0,0.5,0,2.8,0,2.8c0,0.1,0,0.8,0.7,0.8c0.7,0,0.8-0.7,0.8-0.8c0-0.1,0-3.4,0-3.5
			C724.3,221.3,723.1,220,720.7,220z"/>
		<linearGradient id="SVGID_9_" gradientUnits="userSpaceOnUse" x1="710.9518" y1="235.4381" x2="718.1241" y2="228.2658">
			<stop  offset="0" style="stop-color:#4A00E9;stop-opacity:0.9"/>
			<stop  offset="0.1737" style="stop-color:#7200CF;stop-opacity:0.8826"/>
			<stop  offset="0.4586" style="stop-color:#AE00A7;stop-opacity:0.8541"/>
			<stop  offset="0.7014" style="stop-color:#DA008A;stop-opacity:0.8299"/>
			<stop  offset="0.8895" style="stop-color:#F50079;stop-opacity:0.811"/>
			<stop  offset="1" style="stop-color:#FF0072;stop-opacity:0.8"/>
		</linearGradient>
		<path class="st17" d="M720.6,231.1c-0.1,0-0.9,0-0.9,0v0H709v0c-0.2,0-0.4,0-0.5,0c-0.1,0-0.8,0-0.8,0.7c0,0.7,0.7,0.8,0.8,0.8
			c0,0,0.1,0,0.2,0v0h11.7v0c0,0,0.1,0,0.1,0c0.1,0,0.8,0,0.8-0.7C721.4,231.1,720.7,231.1,720.6,231.1z"/>
	</g>
</g>
<g id="col3">
	<g>
		<g>
			<defs>
				<path id="SVGID_10_" d="M441.9,366.4l-1.9,6.5l-1.1-0.4c0,0,2,8.3,10,6.9l0.3,0.2l0.2-0.3c1.4-0.3,2.9-0.9,4.6-1.9l-2.6-0.8
					l4.7-6.2c-14,5.6-11.3-4-11.3-4H441.9z"/>
			</defs>
			<clipPath id="SVGID_11_">
				<use xlink:href="#SVGID_10_"  style="overflow:visible;"/>
			</clipPath>
			
				<linearGradient id="SVGID_12_" gradientUnits="userSpaceOnUse" x1="-7.9208" y1="605.7571" x2="-7.1959" y2="605.7571" gradientTransform="matrix(7.5139 20.6444 20.6444 -7.5139 -12000.2979 5083.5825)">
				<stop  offset="0" style="stop-color:#7A0028"/>
				<stop  offset="1" style="stop-color:#050089"/>
			</linearGradient>
			<polygon class="st18" points="454.1,360.9 460.8,379.1 441,386.3 434.3,368.1 			"/>
		</g>
		<g>
			<defs>
				<path id="SVGID_13_" d="M454.4,352.2c-0.5,0.2-1,0.4-1.6,0.7c-1.2,0.6-2.5,1.2-3.6,1.9c-4.9,2.9-10.2,7.8-10.7,14
					c-0.2,2.3,0.7,5.1,2,6.9c-0.1-0.2,0.5-1.5,0.6-1.8c0.4-1.1,0.9-2.2,1.5-3.2c2.1-3.6,5.3-6.4,8.8-8.5c3.3-2,6.9-3.3,10.6-4.1
					c2.1-0.5-0.1-3.8-0.1-3.8c-0.6-0.9-1.3-1.7-2.1-2.4c-0.6-0.5-1.3-0.7-2-0.7C456.6,351.3,455.4,351.8,454.4,352.2"/>
			</defs>
			<clipPath id="SVGID_14_">
				<use xlink:href="#SVGID_13_"  style="overflow:visible;"/>
			</clipPath>
			
				<linearGradient id="SVGID_15_" gradientUnits="userSpaceOnUse" x1="-8.6861" y1="612.7302" x2="-7.9613" y2="612.7302" gradientTransform="matrix(-27.1092 32.3075 32.3075 27.1092 -19570.8086 -15977.4316)">
				<stop  offset="0" style="stop-color:#F45E00"/>
				<stop  offset="0.2015" style="stop-color:#FA3D16"/>
				<stop  offset="0.6541" style="stop-color:#FF2727"/>
				<stop  offset="1" style="stop-color:#7F0085"/>
			</linearGradient>
			<polygon class="st19" points="476.1,361.4 453.5,388.5 426.3,365.7 449,338.7 			"/>
		</g>
		<g>
			<defs>
				<path id="SVGID_16_" d="M453.9,371.4c-0.6,0.3-1.1,0.6-1.6,0.9c-1.3,0.8-2.6,1.7-3.8,2.6c-5.1,3.8-10.4,9.8-10,16.5
					c0.1,1.8,0.9,3.9,2,5.5c4.2-9.1,11.9-16.2,21.4-19.6c0.5-0.2,1-0.4,1.5-0.6c2.3-0.8-0.6-4.1-0.6-4.1c-0.8-0.9-1.7-1.7-2.7-2.3
					c-0.6-0.4-1.2-0.5-1.8-0.5C456.7,369.9,455.2,370.7,453.9,371.4"/>
			</defs>
			<clipPath id="SVGID_17_">
				<use xlink:href="#SVGID_16_"  style="overflow:visible;"/>
			</clipPath>
			
				<linearGradient id="SVGID_18_" gradientUnits="userSpaceOnUse" x1="-9.13" y1="611.9082" x2="-8.4054" y2="611.9082" gradientTransform="matrix(-23.0654 39.9504 39.9504 23.0654 -24197.0098 -13378.9805)">
				<stop  offset="0" style="stop-color:#4EDAF4"/>
				<stop  offset="0.3987" style="stop-color:#4E85F4"/>
				<stop  offset="1" style="stop-color:#45004E"/>
			</linearGradient>
			<polygon class="st20" points="477.4,376.7 458.8,408.9 426.4,390.2 445,358 			"/>
		</g>
		<g>
			<defs>
				<path id="SVGID_19_" d="M483.9,367.1v3.2h2.8v11h3.6v-11h2.8v-3.2H483.9z M500.2,371.5L500.2,371.5L500.2,371.5l1.5,4.8h-3
					L500.2,371.5z M498.8,367.1l-5.7,14.2h3.9l0.7-2h4.9l0.7,2h3.9l-5.6-14.2H498.8z M507.2,367.1v3.2h2.8v11h3.6v-11h2.8v-3.2
					H507.2z M472.5,371c0,2.7,2.5,3.7,3.5,4.1c2.2,0.9,2.8,1.1,2.8,2.1c0,0.7-0.5,1.4-1.4,1.4c-0.5,0-1.5-0.3-1.5-1.9h-3.6v0.5
					c0,1.8,1,4.5,5.1,4.5c3.8,0,4.9-2.3,4.9-4.3c0-1.6-0.7-2.9-3.3-4.1c-2.5-1.1-2.9-1.3-2.9-2.2c0-0.7,0.6-1.1,1.2-1.1
					c1.1,0,1.2,0.9,1.3,1.4h3.6c0-0.8-0.1-1.8-0.9-2.8c-0.9-1.1-2.4-1.6-3.8-1.6C475.1,366.8,472.5,368.3,472.5,371 M518.2,371
					c0,2.7,2.5,3.7,3.5,4.1c2.2,0.9,2.8,1.1,2.8,2.1c0,0.7-0.5,1.4-1.4,1.4c-0.5,0-1.5-0.3-1.5-1.9H518v0.5c0,1.8,1,4.5,5.1,4.5
					c3.8,0,4.9-2.3,4.9-4.3c0-1.6-0.7-2.9-3.3-4.1c-2.5-1.1-2.9-1.3-2.9-2.2c0-0.7,0.6-1.1,1.2-1.1c1.1,0,1.2,0.9,1.3,1.4h3.6
					c0-0.8-0.1-1.8-0.9-2.8c-0.9-1.1-2.4-1.6-3.8-1.6C520.8,366.8,518.2,368.3,518.2,371"/>
			</defs>
			<clipPath id="SVGID_20_">
				<use xlink:href="#SVGID_19_"  style="overflow:visible;"/>
			</clipPath>
			
				<linearGradient id="SVGID_21_" gradientUnits="userSpaceOnUse" x1="-15.8795" y1="612.9545" x2="-15.1547" y2="612.9545" gradientTransform="matrix(19.1806 -56.7781 -56.7781 -19.1806 35603.0898 11241.3115)">
				<stop  offset="0" style="stop-color:#2C0039"/>
				<stop  offset="0.1231" style="stop-color:#2D0741"/>
				<stop  offset="0.3114" style="stop-color:#301C56"/>
				<stop  offset="0.5414" style="stop-color:#343D79"/>
				<stop  offset="0.8018" style="stop-color:#3A6BA9"/>
				<stop  offset="1" style="stop-color:#3F92D2"/>
			</linearGradient>
			<polygon class="st21" points="467.8,380 478,349.9 532.5,368.3 522.3,398.4 			"/>
		</g>
	</g>
	<g>
		<path class="st22" d="M453.2,59.4c-1.2-0.6-2.1-1.2-2.1-2.1c0-0.8,0.6-1.3,1.4-1.3c0.5,0,1,0.2,1.4,0.6l0,0c0.2,0.3,0.6,0.4,1,0.4
			c0.7,0,1.3-0.6,1.3-1.3c0-0.3-0.1-0.6-0.3-0.9l0,0c-0.8-0.9-1.9-1.3-3.3-1.3c-1.1,0-2,0.4-2.8,1.1c-0.7,0.8-1.1,1.7-1.1,2.8
			c0,2.6,2.2,3.7,3.8,4.4c1.2,0.5,2.1,1.2,2.1,2c0,1.2-0.6,1.9-1.9,1.9c-0.9,0-1.6-0.4-2.2-1.3c-0.1-0.1-0.1-0.2-0.2-0.3l0,0
			c-0.2-0.4-0.6-0.7-1.1-0.7c-0.7,0-1.3,0.6-1.3,1.3c0,0.2,0,0.4,0.1,0.5v0c0.1,0.1,0.1,0.3,0.2,0.4c0,0.1,0.1,0.1,0.1,0.2
			c0.3,0.4,0.6,0.8,1,1.2c0.9,0.8,2,1.1,3.2,1.1c2.8,0,4.6-1.7,4.6-4.4C457.2,61.2,454.9,60.1,453.2,59.4"/>
		<path class="st22" d="M514.6,59.4c-1.2-0.6-2.1-1.2-2.1-2.1c0-0.8,0.6-1.3,1.4-1.3c0.5,0,1,0.2,1.4,0.6l0,0c0.2,0.3,0.6,0.4,1,0.4
			c0.7,0,1.3-0.6,1.3-1.3c0-0.3-0.1-0.6-0.3-0.9l0,0c-0.8-0.9-1.9-1.3-3.3-1.3c-1.1,0-2,0.4-2.8,1.1c-0.7,0.8-1.1,1.7-1.1,2.8
			c0,2.6,2.2,3.7,3.8,4.4c1.2,0.5,2.1,1.2,2.1,2c0,1.2-0.6,1.9-1.9,1.9c-0.9,0-1.6-0.4-2.2-1.3c-0.1-0.1-0.1-0.2-0.2-0.3l0,0
			c-0.2-0.4-0.6-0.7-1.1-0.7c-0.7,0-1.3,0.6-1.3,1.3c0,0.2,0,0.4,0.1,0.5v0c0.1,0.1,0.1,0.3,0.2,0.4c0,0.1,0.1,0.1,0.1,0.2
			c0.3,0.4,0.6,0.8,1,1.2c0.9,0.8,2,1.1,3.2,1.1c2.8,0,4.6-1.7,4.6-4.4C518.6,61.2,516.3,60.1,514.6,59.4"/>
		<path class="st22" d="M471.5,53.7L471.5,53.7h-8.1h0c-0.7,0-1.2,0.5-1.2,1.2c0,0.7,0.5,1.2,1.2,1.2l0,0h0h0h0h2.7v10.5
			c0,0.7,0.6,1.3,1.3,1.3c0.7,0,1.3-0.6,1.3-1.3V56.1h2.7h0h0c0.7,0,1.2-0.5,1.2-1.2C472.7,54.2,472.2,53.7,471.5,53.7"/>
		<path class="st22" d="M503,53.7L503,53.7h-8.1h0c-0.7,0-1.2,0.5-1.2,1.2c0,0.7,0.5,1.2,1.2,1.2l0,0h0h0h0h2.7v10.5
			c0,0.7,0.6,1.3,1.3,1.3c0.7,0,1.3-0.6,1.3-1.3V56.1h2.7h0h0c0.7,0,1.2-0.5,1.2-1.2C504.2,54.2,503.7,53.7,503,53.7"/>
		<path class="st22" d="M481.7,62.1l1.5-4.9l1.5,4.9H481.7z M488.8,66.3l0-0.1c0,0,0-0.1,0-0.1L485,54.9c0,0,0-0.1,0-0.1l0,0h0
			c-0.3-0.6-0.9-1.1-1.7-1.1c-0.8,0-1.5,0.5-1.7,1.2l0,0l-3.8,11.3l0,0c-0.1,0.1-0.1,0.3-0.1,0.5c0,0.7,0.6,1.3,1.3,1.3
			c0.6,0,1-0.3,1.2-0.8l0,0c0-0.1,0.1-0.2,0.1-0.3l0.7-2.3h4.5l0.7,2.4l0,0c0.2,0.6,0.7,1,1.3,1c0.7,0,1.3-0.6,1.3-1.3
			C488.8,66.5,488.8,66.4,488.8,66.3L488.8,66.3z"/>
		<g>
			<defs>
				<path id="SVGID_22_" d="M517,74.8l-68.1,11.8c-0.4,0.1-1.1,0.7-1,1.5c0.1,0.8,0.7,1.1,1.3,1.1c0.1,0,0.2,0,0.2,0l68.1-11.8
					c0.7-0.1,1.2-0.8,1.1-1.5c-0.1-0.6-0.7-1.1-1.3-1.1C517.1,74.8,517.1,74.8,517,74.8"/>
			</defs>
			<linearGradient id="SVGID_23_" gradientUnits="userSpaceOnUse" x1="447.8747" y1="82.0214" x2="518.5452" y2="82.0214">
				<stop  offset="0" style="stop-color:#FFFABB;stop-opacity:0.9"/>
				<stop  offset="0.1595" style="stop-color:#FED6B0;stop-opacity:0.884"/>
				<stop  offset="0.4494" style="stop-color:#FC9A9F;stop-opacity:0.8551"/>
				<stop  offset="0.6963" style="stop-color:#FB6E92;stop-opacity:0.8304"/>
				<stop  offset="0.8876" style="stop-color:#FA538A;stop-opacity:0.8112"/>
				<stop  offset="1" style="stop-color:#FA4987;stop-opacity:0.8"/>
			</linearGradient>
			<use xlink:href="#SVGID_22_"  style="overflow:visible;fill:url(#SVGID_23_);"/>
			<clipPath id="SVGID_24_">
				<use xlink:href="#SVGID_22_"  style="overflow:visible;"/>
			</clipPath>
		</g>
		<rect x="447.3" y="95.2" class="st23" width="71.7" height="14.4"/>
	</g>
	<g>
		<polygon class="st24" points="490.3,210 485.7,210 485.4,210 471.4,235.5 476.7,235.5 482.4,224.9 480,235.5 484.9,235.6 
			490.6,210 		"/>
		<polygon class="st25" points="501.8,215.1 502.5,211.8 502.5,211.8 502.9,210.1 493,210.1 491.4,210.1 491,211.8 491,211.9 
			490.8,212.6 490.8,212.6 490.3,215.1 493.6,215.1 489.1,235.5 494,235.5 498.5,215.1 		"/>
		<polygon class="st25" points="513.6,210.1 512.8,210.1 506.2,210.1 505.4,210.1 503.7,210.1 503.2,212.5 500.8,223.2 500.8,223.2 
			506.8,225.8 505.8,230.4 504.2,230.4 504.9,227.2 499.9,227.2 498.7,232.9 498.5,233.7 498.5,233.7 498.5,233.8 498.1,235.5 
			499.7,235.5 500.6,235.5 504.7,235.5 504.7,235.5 509.6,235.5 512.3,223.2 512.3,223.2 512.5,222.4 506.5,219.8 507.5,215.1 
			509.2,215.1 508.4,218.6 513.3,218.6 514.7,212.6 514.9,211.8 515.2,210.1 		"/>
		<polygon class="st25" points="468.1,215.1 471.4,215.1 466.9,235.5 471.8,235.5 476.3,215.1 479.6,215.1 480.7,210 469.2,210 		
			"/>
		<polygon class="st25" points="466.5,218.6 467.8,212.6 468,211.8 468.4,210.1 456.9,210.1 455.2,217.9 454,223.1 454,223.2 
			454,223.2 460,225.8 459,230.4 457.3,230.4 458,227.2 453.1,227.2 451.8,232.9 451.7,233.7 451.6,233.7 451.6,233.8 451.3,235.5 
			452.9,235.5 453.7,235.5 457.8,235.5 457.8,235.5 462.8,235.5 465.5,223.2 465.7,222.4 459.7,219.8 460.7,215.1 462.3,215.1 
			461.6,218.6 		"/>
	</g>
</g>
<g id="col2">
	<g>
		<g>
			<defs>
				<path id="SVGID_25_" d="M273.1,355.1c-3.6,4.6-3.2,13.5,10.9,15.4c11.2,1.5,2.9,16.3,10.5,18.2c4.3,1.1,14.6-8.1,15.1-18.3
					c0.4-7.6-9.1-10-11-13.4c-2.6-4.7-1.2-21.9-8.3-23.4c-0.5-0.1-1-0.2-1.4-0.2C280.5,333.5,277.2,349.9,273.1,355.1"/>
			</defs>
			<clipPath id="SVGID_26_">
				<use xlink:href="#SVGID_25_"  style="overflow:visible;"/>
			</clipPath>
			
				<linearGradient id="SVGID_27_" gradientUnits="userSpaceOnUse" x1="-19.1118" y1="624.9344" x2="-17.7973" y2="624.9344" gradientTransform="matrix(16.3197 -20.0928 -20.0928 -16.3197 13149.6934 10187.0283)">
				<stop  offset="0" style="stop-color:#38F67D"/>
				<stop  offset="1" style="stop-color:#15FBFF"/>
			</linearGradient>
			<polygon class="st26" points="242,367.4 285.6,313.8 337.5,355.9 293.9,409.6 			"/>
		</g>
		<g>
			<defs>
				<rect id="SVGID_28_" x="255.6" y="333.5" width="54.3" height="81.2"/>
			</defs>
			<clipPath id="SVGID_29_">
				<use xlink:href="#SVGID_28_"  style="overflow:visible;"/>
			</clipPath>
			<g class="st27">
				<g>
					<defs>
						<rect id="SVGID_30_" x="255.6" y="347.4" width="47.4" height="48.8"/>
					</defs>
					<clipPath id="SVGID_31_">
						<use xlink:href="#SVGID_30_"  style="overflow:visible;"/>
					</clipPath>
					<g class="st28">
						<defs>
							<path id="SVGID_32_" d="M280.8,347.4c-0.2,0-0.3,0-0.5,0c-8.3,0.3-9.3,2.7-19.2,6.6c-12.8,5,1.3,15.7-1.1,23.8
								c-3.5,11.7-2.9,25.5,11.4,14c10-8,11.5-4.8,19.8-7.9c26.1-9.7,0.9-14.1,0.5-18.7c-0.3-2.9,4.6-3.8,0.8-11.5
								C290,348.9,284.6,347.4,280.8,347.4L280.8,347.4z"/>
						</defs>
						<clipPath id="SVGID_33_">
							<use xlink:href="#SVGID_32_"  style="overflow:visible;"/>
						</clipPath>
						
							<linearGradient id="SVGID_34_" gradientUnits="userSpaceOnUse" x1="-10.3071" y1="623.5384" x2="-8.9926" y2="623.5384" gradientTransform="matrix(0 -30.7582 -30.7582 0 19461.6914 73.3912)">
							<stop  offset="0" style="stop-color:#15C0FF"/>
							<stop  offset="1" style="stop-color:#FFFFFF"/>
						</linearGradient>
						<rect x="248.3" y="347.4" class="st29" width="69" height="56"/>
					</g>
				</g>
			</g>
			<path class="st30" d="M285.1,365.8l-5.6-1.9c-4.2-1.4-5.6-2.1-5.6-5c0-5.1,4.5-5.7,6.4-5.7c5.3,0,6.5,2.9,7.6,5.5
				c0.1,0.3,0.3,0.6,0.4,0.9c0.6,1.3,1.3,1.6,2.3,1.6c1.9,0,3.2-1.4,3.2-3.3c0-1.8-1.5-5.3-3.7-7.3c-2.3-2.2-5.5-3.3-9.7-3.3
				c-8,0-12.8,4.6-12.8,12.2c0,8,5.4,9.7,9,10.8l4.9,1.6c6.3,2,6.8,4.5,6.8,6.6c0,1.8-0.7,6.1-7.3,6.1c-6.5,0-8.1-3.9-8.7-7.3
				c-0.1-0.5-0.4-2.2-2.7-2.2c-1.2,0-3.5,0.7-3.5,3.4c0,1,0.8,5.6,4.3,8.8c2.4,2.1,6.2,3.4,10.2,3.4c6.4,0,13.9-3.3,13.9-12.7
				C294.5,373.8,293.4,368.6,285.1,365.8"/>
			<g class="st27">
				<g>
					<defs>
						<rect id="SVGID_35_" x="260.7" y="406.4" width="43.9" height="8.4"/>
					</defs>
					<clipPath id="SVGID_36_">
						<use xlink:href="#SVGID_35_"  style="overflow:visible;"/>
					</clipPath>
					<g class="st31">
						<defs>
							<rect id="SVGID_37_" x="260.7" y="406.4" width="43.9" height="8.4"/>
						</defs>
						<clipPath id="SVGID_38_">
							<use xlink:href="#SVGID_37_"  style="overflow:visible;"/>
						</clipPath>
						<path class="st32" d="M265.4,409.9c1,0.3,2,0.9,2,2.3c0,1.1-0.8,2.6-3.3,2.6c-2.5,0-3.5-1.2-3.5-2c0-0.6,0.5-0.9,0.9-0.9
							c0.4,0,0.6,0.2,0.9,0.6c0.3,0.4,0.5,0.8,1.7,0.8c0.5,0,1.4-0.1,1.4-1c0-0.6-0.5-0.8-1.1-0.9l-1-0.3c-1.2-0.3-2.4-0.8-2.4-2.3
							c0-1.5,1.1-2.4,3.2-2.4c2,0,3.1,1,3.1,1.8c0,0.5-0.5,0.9-0.9,0.9c-0.2,0-0.5-0.1-0.7-0.4c-0.3-0.5-0.7-0.8-1.5-0.8
							c-0.8,0-1.4,0.3-1.4,0.8c0,0.5,0.4,0.6,1.2,0.9L265.4,409.9z"/>
						<path class="st32" d="M274.7,413.6c0,0.6-0.2,1-0.9,1c-0.6,0-0.9-0.4-0.9-1V408h-1.5c-0.5,0-0.9-0.2-0.9-0.7
							c0-0.5,0.4-0.8,0.9-0.8h4.9c0.5,0,0.8,0.2,0.8,0.7c0,0.6-0.4,0.8-0.9,0.8h-1.5V413.6z"/>
						<path class="st32" d="M281.3,413l-0.2,0.7c-0.2,0.5-0.3,1-0.9,1c-0.5,0-1-0.3-1-0.9c0-0.2,0.1-0.4,0.1-0.6l2-5.6
							c0.3-0.8,0.4-1.2,1.3-1.2c0.7,0,1,0.3,1.2,0.9l2.1,5.8c0.1,0.2,0.1,0.4,0.1,0.6c0,0.5-0.4,0.8-0.9,0.8c-0.5,0-0.8-0.3-0.9-0.8
							l-0.3-0.9H281.3z M282.6,408.6l-0.9,3h1.7L282.6,408.6z"/>
						<path class="st32" d="M292.3,413.6c0,0.6-0.2,1-0.9,1c-0.6,0-0.9-0.4-0.9-1V408H289c-0.5,0-0.9-0.2-0.9-0.7
							c0-0.5,0.4-0.8,0.9-0.8h4.9c0.5,0,0.8,0.2,0.8,0.7c0,0.6-0.4,0.8-0.9,0.8h-1.5V413.6z"/>
						<path class="st32" d="M302.5,409.9c1,0.3,2,0.9,2,2.3c0,1.1-0.8,2.6-3.3,2.6c-2.5,0-3.5-1.2-3.5-2c0-0.6,0.5-0.9,0.9-0.9
							c0.4,0,0.6,0.2,0.9,0.6c0.2,0.4,0.5,0.8,1.7,0.8c0.5,0,1.4-0.1,1.4-1c0-0.6-0.5-0.8-1.1-0.9l-1-0.3c-1.2-0.3-2.4-0.8-2.4-2.3
							c0-1.5,1.1-2.4,3.2-2.4c2,0,3.1,1,3.1,1.8c0,0.5-0.5,0.9-0.9,0.9c-0.2,0-0.5-0.1-0.7-0.4c-0.3-0.5-0.7-0.8-1.5-0.8
							c-0.8,0-1.4,0.3-1.4,0.8c0,0.5,0.4,0.6,1.2,0.9L302.5,409.9z"/>
					</g>
				</g>
			</g>
		</g>
	</g>
	<g>
		<path d="M263.8,84.5v5.6c0,1.5-0.8,2.3-2.4,2.3H260c-1.6,0-2.4-0.8-2.4-2.3v-5.4h2.5v5c0,0.3,0.1,0.4,0.4,0.4h0.2
			c0.3,0,0.4-0.1,0.4-0.4v-5c0-0.7-0.1-1-0.7-1.5l-1.6-1.4c-1-0.8-1.3-1.5-1.3-3v-5.4c0-1.6,0.8-2.3,2.4-2.3h1.4
			c1.6,0,2.4,0.8,2.4,2.3v5h-2.5v-4.7c0-0.3-0.1-0.4-0.4-0.4h-0.2c-0.3,0-0.4,0.1-0.4,0.4v4.8c0,0.7,0.1,1,0.7,1.5l1.6,1.4
			C263.4,82.4,263.8,83.1,263.8,84.5"/>
		<polygon points="267.2,92.5 267.2,68.8 265.2,68.8 265.2,66 272.4,66 272.4,68.8 270.4,68.8 270.4,92.5 		"/>
		<path d="M277.5,84.6h2.1l-1.1-16.2L277.5,84.6z M280.1,92.5l-0.3-4.6h-2.4l-0.3,4.6h-3.5l2.5-31.7h5.2l2.5,31.7H280.1z"/>
		<polygon points="286.9,92.5 286.9,59.4 284.2,59.4 284.2,55.5 294.2,55.5 294.2,59.4 291.4,59.4 291.4,92.5 		"/>
		<path d="M308,76.7v11.2c0,3.1-1.6,4.6-4.8,4.6h-2.8c-3.2,0-4.7-1.5-4.7-4.6V77.2h5.1v10c0,0.6,0.2,0.9,0.8,0.9h0.4
			c0.6,0,0.8-0.3,0.8-0.9v-10c0-1.4-0.2-2.1-1.4-3l-3.2-2.7c-1.9-1.6-2.6-3-2.6-5.9V54.9c0-3.1,1.6-4.6,4.8-4.6h2.7
			c3.1,0,4.7,1.5,4.7,4.6v10h-5v-9.4c0-0.6-0.2-0.9-0.8-0.9h-0.5c-0.6,0-0.8,0.3-0.8,0.9V65c0,1.4,0.2,2.1,1.4,3l3.2,2.7
			C307.3,72.3,308,73.7,308,76.7"/>
	</g>
	<g>
		<path class="st33" d="M253.6,233.4h-4.7c-3.3,0-5.3-2.7-4.6-5.9h4.7c-0.2,0.7,0.3,1.2,0.9,1.2h4.7L253.6,233.4z"/>
		<path class="st33" d="M321.2,218h-4.7c0.2-0.7-0.3-1.2-0.9-1.2h-4.7l1.1-4.7h4.7C319.9,212.1,322,214.7,321.2,218"/>
		<polygon class="st33" points="277.4,233.4 272.6,233.4 276.4,216.8 281.2,216.8 		"/>
		<polygon class="st33" points="283.7,226.3 277.8,226.3 278.9,221.6 284.8,221.6 		"/>
		<path class="st34" d="M311.7,233.4h-9.5l1.1-4.7h9.5c0.7,0,1.3-0.5,1.5-1.2l0.3-1.2c0.1-0.7-0.3-1.2-0.9-1.2h-3.6
			c-3.3,0-5.3-2.7-4.6-5.9l0.5-2.4h4.7l-0.5,2.4c-0.2,0.7,0.3,1.2,0.9,1.2h3.6c3.3,0,5.3,2.7,4.6,5.9l-0.3,1.2
			C318.3,230.8,315,233.4,311.7,233.4"/>
		<path class="st34" d="M288,233.4h-4.7l3.6-15.4c0.2-0.7-0.3-1.2-0.9-1.2h-4.7l1.1-4.7h4.7c3.3,0,5.3,2.7,4.6,5.9L288,233.4z"/>
		<path class="st34" d="M259.5,228.7h-4.7l0.5-2.4c0.2-0.7-0.3-1.2-0.9-1.2h-3.6c-3.3,0-5.3-2.7-4.6-5.9l0.3-1.2
			c0.8-3.3,4-5.9,7.3-5.9h8.3l-1.1,4.7h-8.3c-0.7,0-1.3,0.5-1.5,1.2l-0.3,1.2c-0.2,0.7,0.3,1.2,0.9,1.2h3.6c3.3,0,5.3,2.7,4.6,5.9
			L259.5,228.7z"/>
		<path class="st34" d="M267.9,233.4h-4.7l3.6-15.4c0.2-0.7-0.3-1.2-0.9-1.2h-3.6l1.1-4.7h3.6c3.3,0,5.3,2.7,4.6,5.9L267.9,233.4z"
			/>
		<polygon class="st34" points="276.4,216.8 262.2,216.8 263.3,212.1 277.5,212.1 		"/>
		<path class="st34" d="M297.5,233.4h-4.7l3.6-15.4c0.2-0.7-0.3-1.2-0.9-1.2h-3.6l1.1-4.7h3.6c3.3,0,5.3,2.7,4.6,5.9L297.5,233.4z"
			/>
		<polygon class="st34" points="306.1,216.8 291.9,216.8 293,212.1 307.2,212.1 		"/>
	</g>
</g>
<g id="col1">
	<g>
		<g>
			<defs>
				<path id="SVGID_39_" d="M73,372.7l7.2-3.3l11.4,7.2l-7.2,3.3L73,372.7z M93.9,364.2v9l-12.4-7.8c-0.6-0.4-1.3-0.4-1.9-0.1
					l-11.7,5.4c-0.7,0.3-1.1,1-1.2,1.7c0,0.7,0.3,1.5,0.9,1.9l15.5,9.8c0.3,0.2,0.7,0.3,1.1,0.3c0.3,0,0.6-0.1,0.9-0.2l11.7-5.4
					c0,0,0,0,0,0c0.1,0,0.1-0.1,0.2-0.1c0,0,0,0,0,0c0.1,0,0.1-0.1,0.2-0.1c0,0,0,0,0,0c0.1,0,0.1-0.1,0.1-0.1c0,0,0,0,0-0.1
					c0-0.1,0.1-0.1,0.1-0.2c0,0,0,0,0,0c0-0.1,0.1-0.1,0.1-0.2c0,0,0,0,0,0c0-0.1,0.1-0.1,0.1-0.2c0,0,0,0,0-0.1
					c0.1-0.2,0.1-0.3,0.1-0.5c0,0,0,0,0,0c0,0,0,0,0,0c0,0,0-0.1,0-0.1v-12.7c0-1.1-0.9-2-2-2C94.8,362.1,93.9,363,93.9,364.2"/>
			</defs>
			<clipPath id="SVGID_40_">
				<use xlink:href="#SVGID_39_"  style="overflow:visible;"/>
			</clipPath>
			
				<linearGradient id="SVGID_41_" gradientUnits="userSpaceOnUse" x1="-13.4414" y1="600.4266" x2="-12.5885" y2="600.4266" gradientTransform="matrix(0 25.981 25.981 0 -15517.3809 711.3477)">
				<stop  offset="0" style="stop-color:#C100C2"/>
				<stop  offset="1" style="stop-color:#FF3333"/>
			</linearGradient>
			<rect x="66.7" y="362.1" class="st35" width="31.3" height="22.2"/>
		</g>
		<g>
			<defs>
				<path id="SVGID_42_" d="M73,360l7.2-3.3l11.4,7.2l-7.2,3.3L73,360z M66.7,347v12.7c0,0,0,0.1,0,0.1c0,0,0,0,0,0.1
					c0,0.2,0,0.3,0.1,0.5c0,0,0,0,0,0.1c0,0.1,0.1,0.1,0.1,0.2c0,0,0,0,0,0c0,0.1,0.1,0.1,0.1,0.2c0,0,0,0,0,0
					c0,0.1,0.1,0.1,0.1,0.2c0,0,0,0,0,0c0,0,0.1,0.1,0.2,0.1c0,0,0,0,0,0c0.1,0.1,0.1,0.1,0.2,0.1c0,0,0,0,0,0l15.5,9.8
					c0.3,0.2,0.7,0.3,1.1,0.3c0.3,0,0.6-0.1,0.9-0.2l11.7-5.4c0.7-0.3,1.1-1,1.2-1.7c0-0.7-0.3-1.5-0.9-1.9l-15.5-9.8
					c-0.6-0.4-1.3-0.4-1.9-0.1l-8.8,4V347c0-1.1-0.9-2-2-2S66.7,345.9,66.7,347"/>
			</defs>
			<clipPath id="SVGID_43_">
				<use xlink:href="#SVGID_42_"  style="overflow:visible;"/>
			</clipPath>
			
				<linearGradient id="SVGID_44_" gradientUnits="userSpaceOnUse" x1="-13.2769" y1="602.3555" x2="-12.424" y2="602.3555" gradientTransform="matrix(0 31.1859 31.1859 0 -18702.6523 759.0181)">
				<stop  offset="0" style="stop-color:#0092F6"/>
				<stop  offset="1" style="stop-color:#C100C2"/>
			</linearGradient>
			<rect x="66.7" y="345" class="st36" width="31.3" height="26.6"/>
		</g>
		<g>
			<defs>
				<rect id="SVGID_45_" x="50" y="339.5" width="64.7" height="69.3"/>
			</defs>
			<clipPath id="SVGID_46_">
				<use xlink:href="#SVGID_45_"  style="overflow:visible;"/>
			</clipPath>
			<path class="st37" d="M84.2,358.8c-0.4,0-0.8-0.1-1.1-0.3l-15.5-9.8c-0.6-0.4-1-1.1-0.9-1.9c0.1-0.7,0.5-1.4,1.2-1.7l11.7-5.4
				c0.6-0.3,1.4-0.2,1.9,0.1l15.5,9.8c0.6,0.4,1,1.1,0.9,1.9c0,0.7-0.5,1.4-1.2,1.7l-11.7,5.4C84.8,358.8,84.5,358.8,84.2,358.8
				 M73,347.3l11.4,7.2l7.2-3.3L80.2,344L73,347.3z"/>
			<path class="st38" d="M73.5,392H73h-0.5H65h-0.5h-0.3c-0.4,0-0.7,0.3-0.7,0.7v0.3v0.3v1.4v0.3v0.1c0,0.4,0.3,0.7,0.7,0.7h0.3h1.3
				H66c0.4,0,0.7,0.3,0.7,0.7v0.3v0.7v9.6v0.6v0.3c0,0.4,0.3,0.7,0.7,0.7h0.3h2.2h0.3c0.4,0,0.7-0.3,0.7-0.7v-0.4v-0.6v-9.4v-0.8
				v-0.3c0-0.4,0.3-0.7,0.7-0.7h0.4h1.2h0.3c0.4,0,0.7-0.3,0.7-0.7v-0.2v-1.5v-0.4v-0.2C74.1,392.3,73.8,392,73.5,392"/>
			<path class="st38" d="M100.6,392h-0.4h-0.5h-7.5h-0.5h-0.3c-0.4,0-0.7,0.3-0.7,0.7v0.3v0.3v1.4v0.3v0.1c0,0.4,0.3,0.7,0.7,0.7
				h0.3h1.3h0.4c0.4,0,0.7,0.3,0.7,0.7v0.3v0.7v9.6v0.6v0.3c0,0.4,0.3,0.7,0.7,0.7h0.3H97h0.3c0.4,0,0.7-0.3,0.7-0.7v-0.4v-0.6v-9.4
				v-0.8v-0.3c0-0.4,0.3-0.7,0.7-0.7h0.4h1.2h0.3c0.4,0,0.7-0.3,0.7-0.7v-0.2v-1.5v-0.4v-0.2C101.2,392.3,100.9,392,100.6,392"/>
			<path class="st38" d="M57.8,399c-3-1.3-3.4-1.5-3.4-2.5c0-0.8,0.7-1.3,1.4-1.3c0.8,0,1.2,0.4,1.3,0.9c0,0,0,0,0,0
				c0.1,0.2,0.1,0.3,0.1,0.3c0,0.2,0.3,0.4,0.5,0.4h0.3h1h0.6h0.7h0.4c0.4,0,0.7-0.3,0.6-0.7c0,0,0-0.3-0.1-0.7c0,0,0,0,0,0
				c-0.1-0.6-0.4-1.2-0.9-1.8c-1.1-1.3-2.8-1.9-4.4-1.9c-2.8,0-5.8,1.8-5.8,4.8c0,3.1,2.9,4.2,4,4.7c2.5,1.1,3.2,1.3,3.2,2.4
				c0,0.8-0.6,1.6-1.6,1.6c-0.5,0-1.5-0.3-1.7-1.6c0,0,0,0,0,0c0-0.1,0-0.1,0-0.1c0-0.2-0.3-0.5-0.5-0.5h-0.3c0,0,0,0,0,0h-2.3h-0.3
				h-0.1c-0.4,0-0.7,0.2-0.7,0.5c0,0.1,0,0.3,0,0.4c0,0,0,0,0,0c0.1,2.1,1.5,4.8,5.9,4.8c4.4,0,5.7-2.6,5.7-5.1
				C61.6,401.8,60.9,400.4,57.8,399"/>
			<path class="st38" d="M110.8,399c-3-1.3-3.4-1.5-3.4-2.5c0-0.8,0.7-1.3,1.4-1.3c0.8,0,1.2,0.4,1.3,0.9c0,0,0,0,0,0
				c0.1,0.2,0.1,0.3,0.1,0.3c0,0.2,0.3,0.4,0.5,0.4h0.3h1h0.6h0.7h0.4c0.4,0,0.7-0.3,0.6-0.7c0,0,0-0.3-0.1-0.7c0,0,0,0,0,0
				c-0.1-0.6-0.4-1.2-0.9-1.8c-1.1-1.3-2.8-1.9-4.5-1.9c-2.8,0-5.8,1.8-5.8,4.8c0,3.1,2.9,4.2,4,4.7c2.5,1.1,3.2,1.3,3.2,2.4
				c0,0.8-0.6,1.6-1.6,1.6c-0.5,0-1.5-0.3-1.7-1.6c0,0,0,0,0,0c0-0.1,0-0.1,0-0.1c0-0.2-0.3-0.5-0.5-0.5h-0.3l0,0h-2.3h-0.3h-0.1
				c-0.4,0-0.7,0.2-0.7,0.5c0,0.1,0,0.3,0,0.4c0,0,0,0,0,0c0.1,2.1,1.5,4.8,5.9,4.8c4.4,0,5.7-2.6,5.7-5.1
				C114.7,401.8,113.9,400.4,110.8,399"/>
			<path class="st38" d="M90.3,407.8l-0.3-0.7l0,0l-5.4-13.5h0l-0.4-1c-0.1-0.3-0.6-0.6-0.9-0.6h-0.2h-1.4h-0.3
				c-0.4,0-0.8,0.3-0.9,0.6l-0.4,1.1l-5.5,13.8h0l-0.1,0.4c-0.1,0.3,0.1,0.6,0.4,0.6h0.6H76h1.2h0.5h0.4c0.2,0,0.5-0.2,0.6-0.4
				l0.1-0.3l0.4-1.1l0-0.1c0.1-0.2,0.4-0.4,0.6-0.4h4.8c0.2,0,0.5,0.2,0.6,0.4l0.5,1.5c0.1,0.2,0.3,0.4,0.6,0.4h0.2h0.2H88h1.1h0.8
				C90.3,408.5,90.4,408.2,90.3,407.8 M83.6,402.8h-2.5c-0.2,0-0.4-0.2-0.3-0.4l0.7-2.4l0.7-2.4c0.1-0.2,0.1-0.4,0.2-0.4h0h0
				c0,0,0.1,0.2,0.1,0.4l0.7,2.4l0.7,2.4C84,402.6,83.9,402.8,83.6,402.8"/>
		</g>
	</g>
	<g>
		<polygon class="st39" points="67.6,60 63.4,60 63.4,55.9 76.3,55.9 76.3,60 72.1,60 72.1,80.6 67.6,80.6 		"/>
		<polygon class="st40" points="92.4,60 88.3,60 88.3,55.9 101.2,55.9 101.2,60 97,60 97,80.6 92.4,80.6 		"/>
		<path class="st41" d="M80.9,77.3h3L82.4,65L80.9,77.3z M79.2,62.1h6.7l3.8,24.8h-4.5l-0.7-5.8h-4l-0.7,5.8h-4.3L79.2,62.1z"/>
		<polygon class="st42" points="52.2,69.3 51.9,69.3 51.8,69.1 50.8,68.1 50.6,68 50.6,67.7 50.6,62 50.6,61.7 50.8,61.6 52.1,60.3 
			52.2,60.1 52.5,60.1 54.3,60.1 54.6,60.1 54.8,60.3 56,61.6 56.2,61.7 56.2,62 56.2,65.2 60.7,65.2 60.7,59.9 57.3,56.5 
			49.5,56.5 46.1,59.9 46.1,70.4 48.9,73.3 54.7,73.3 54.9,73.3 55.1,73.5 56,74.4 56.2,74.6 56.2,74.9 56.2,80.9 56.2,81.1 
			56,81.3 54.8,82.5 54.6,82.7 54.4,82.7 52.3,82.7 52.1,82.7 52,82.5 50.7,81.3 50.5,81.1 50.5,80.9 50.5,77.6 46,77.6 46,82.9 
			49.3,86.3 57.4,86.3 60.8,82.9 60.8,72.1 58,69.3 		"/>
		<polygon class="st43" points="110.1,69.3 109.8,69.3 109.7,69.1 108.7,68.1 108.5,68 108.5,67.7 108.5,62 108.5,61.7 108.7,61.6 
			110,60.3 110.2,60.1 110.4,60.1 112.3,60.1 112.5,60.1 112.7,60.3 113.9,61.6 114.1,61.7 114.1,62 114.1,65.2 118.7,65.2 
			118.7,59.9 115.3,56.5 107.4,56.5 104,59.9 104,70.4 106.8,73.3 112.6,73.3 112.8,73.3 113,73.5 113.9,74.4 114.1,74.6 
			114.1,74.9 114.1,80.9 114.1,81.1 113.9,81.3 112.7,82.5 112.5,82.7 112.3,82.7 110.3,82.7 110,82.7 109.9,82.5 108.6,81.3 
			108.4,81.1 108.4,80.9 108.4,77.6 103.9,77.6 103.9,82.9 107.3,86.3 115.3,86.3 118.7,82.9 118.7,72.1 115.9,69.3 		"/>
	</g>
	<g>
		<path class="st44" d="M90.7,215.3v-1.1h6.4v-2.1h-8.6v5.3H95v16h2.1v-18.1H90.7z M112.8,212.1c-1.8,0-3.4,0.7-4.7,1.9
			c-1.3,1.2-1.9,2.9-1.9,4.7c0,1.8,0.7,3.5,2,4.7c1.3,1.3,3,2,4.8,2l3.3,0c0.4,0,0.7,0.1,0.9,0.4c0.2,0.2,0.4,0.6,0.4,0.9
			c0,0.4-0.1,0.7-0.4,1c-0.3,0.3-0.6,0.4-1,0.4l-9.4,0v5.3h2.1v-3.2l7.4,0c0.9,0,1.8-0.4,2.4-1c0.6-0.6,1-1.5,1-2.4
			c0-0.9-0.4-1.8-1-2.5c-0.7-0.7-1.6-1-2.5-1l-3.3,0c-1.2,0-2.4-0.5-3.2-1.3c-0.9-0.8-1.3-2-1.3-3.2c0-1.2,0.5-2.4,1.4-3.3
			c0.9-0.9,2-1.4,3.3-1.4l7.8,0l0,3.2h2.1v-5.3L112.8,212.1z M58.7,212.1l0,2.1h5.6v19.2h2.1v-21.3H58.7z M46,216.3
			c0.6-0.6,1.5-1,2.4-1l9.3,0l0,2.1l-9.2,0c-0.4,0-0.7,0.1-1,0.4c-0.5,0.5-0.6,1.4,0,1.9c0.2,0.2,0.6,0.4,0.9,0.4l3.3,0
			c1.8,0,3.5,0.7,4.8,2c2.6,2.6,2.6,6.8,0,9.4c-1.3,1.2-2.9,1.9-4.7,1.9l-9.5,0v-5.3h2.1v3.2l7.3,0c1.2,0,2.4-0.5,3.3-1.4
			c1.8-1.8,1.8-4.7,0-6.5c-0.9-0.8-2-1.3-3.2-1.3l-3.3,0c-0.9,0-1.8-0.4-2.5-1C44.6,219.8,44.6,217.6,46,216.3"/>
		<path class="st45" d="M79.2,212.1l-6.7,21.3h2.2l6-19.2H84l5.3,17.1H88l-4.6-15.2h-2.1l-2.8,9.3h2.2l1.7-5.4l4.1,13.4h5.8
			l-6.7-21.3H79.2z M103.9,217.4h2.1v-5.3h-7.8v21.3h2.1v-19.2h3.5V217.4z M116.2,220.1l-3.3,0c-0.4,0-0.7-0.1-0.9-0.4
			c-0.5-0.5-0.5-1.4,0-1.9c0.3-0.3,0.6-0.4,1-0.4h0.2v-2.1h-0.3c-0.9,0-1.8,0.4-2.4,1c-1.3,1.3-1.3,3.5,0,4.9c0.7,0.7,1.6,1,2.5,1
			l3.3,0c1.2,0,2.3,0.5,3.2,1.3c1.8,1.8,1.8,4.7,0,6.5c-0.9,0.9-2,1.4-3.3,1.4H116v2.1h0.3c1.8,0,3.4-0.7,4.7-1.9
			c2.6-2.6,2.6-6.8,0-9.4C119.6,220.8,117.9,220.1,116.2,220.1 M63.5,215.3h-4.8l0,2.1h4.7V215.3z M74.1,214.2v1.1h-3.5v2.1h5.6
			v-5.3h-8.6v21.3h2.1v-19.2H74.1z M57.6,212.1l0,2.1h-9.1c-1.2,0-2.4,0.5-3.3,1.4c-1.8,1.8-1.8,4.7,0,6.4c0.9,0.8,2,1.3,3.2,1.3
			l3.3,0c0.9,0,1.8,0.4,2.5,1c1.4,1.4,1.4,3.5,0,4.9c-0.6,0.6-1.5,1-2.4,1h-0.3v-2.1h0.2c0.4,0,0.7-0.1,1-0.4c0.5-0.5,0.6-1.4,0-1.9
			c-0.2-0.2-0.6-0.4-0.9-0.4l-3.3,0c-1.8,0-3.5-0.7-4.8-2c-2.6-2.6-2.6-6.8,0-9.4c1.3-1.2,2.9-1.9,4.7-1.9H57.6z"/>
	</g>
</g>
<g id="lines">
	<line id="vert_1_" class="st46" x1="593" y1="0" x2="593" y2="465"/>
	<line id="vert" class="st46" x1="389.5" y1="0" x2="389.5" y2="465"/>
	<line id="vertt" class="st46" x1="177.5" y1="0" x2="177.5" y2="465"/>
	<line id="horz_1_" class="st46" x1="0" y1="146" x2="779" y2="146"/>
	<line id="horz" class="st46" x1="0" y1="302.5" x2="779" y2="302.5"/>
</g>
</svg>
