<?xml version="1.0" encoding="utf-8"?>
<!-- Generator: Adobe Illustrator 21.0.2, SVG Export Plug-In . SVG Version: 6.00 Build 0)  -->
<svg version="1.1" id="Layer_1" xmlns="http://www.w3.org/2000/svg" xmlns:xlink="http://www.w3.org/1999/xlink" x="0px" y="0px"
	 viewBox="0 0 771.4 709.4" style="enable-background:new 0 0 771.4 709.4;" xml:space="preserve">
<style type="text/css">
	.st0{clip-path:url(#SVGID_1_);fill-rule:evenodd;clip-rule:evenodd;fill:#FFFFFF;}
	.st1{clip-path:url(#SVGID_1_);fill:#CB1E24;}
	.st2{clip-path:url(#SVGID_1_);fill:#A71825;}
	.st3{clip-path:url(#SVGID_1_);fill-rule:evenodd;clip-rule:evenodd;}
	.st4{clip-path:url(#SVGID_1_);}
	.st5{clip-path:url(#SVGID_1_);fill:#94070A;}
	.st6{clip-path:url(#SVGID_1_);fill:#F8F8F9;}
	.st7{fill:none;stroke:#B3B5BA;stroke-miterlimit:10;}
	.st8{clip-path:url(#SVGID_4_);}
	.st9{fill:#DB1F26;}
	.st10{fill:#EA1B3A;}
	.st11{opacity:0.6;fill:url(#SVGID_5_);}
	.st12{fill:#EC1D25;}
	.st13{opacity:0.6;fill:url(#SVGID_6_);}
	.st14{fill:url(#SVGID_7_);}
	.st15{opacity:0.6;fill:url(#SVGID_8_);}
	.st16{opacity:0.2;fill:url(#SVGID_9_);}
	.st17{opacity:0.2;fill:url(#SVGID_10_);}
	.st18{opacity:0.15;fill:url(#SVGID_11_);}
	.st19{opacity:0.15;fill:url(#SVGID_12_);}
	.st20{opacity:0.1;fill:url(#SVGID_13_);}
	.st21{opacity:0.1;fill:url(#SVGID_14_);}
	.st22{fill:url(#SVGID_15_);}
	.st23{fill:url(#SVGID_16_);}
	.st24{fill:url(#SVGID_17_);}
	.st25{fill:url(#SVGID_18_);}
	.st26{opacity:0.7;fill:url(#SVGID_19_);}
	.st27{fill:#CC2027;}
	.st28{fill:url(#SVGID_20_);}
	.st29{fill:url(#SVGID_21_);}
	.st30{opacity:0.7;fill:#E71E25;}
	.st31{opacity:0.7;fill:url(#SVGID_22_);}
	.st32{opacity:0.5;fill:url(#SVGID_23_);}
	.st33{opacity:0.7;fill:url(#SVGID_24_);}
	.st34{opacity:0.7;fill:url(#SVGID_25_);}
	.st35{opacity:0.3;fill:url(#SVGID_26_);}
	.st36{opacity:0.3;fill:url(#SVGID_27_);}
	.st37{opacity:0.4;fill:#E42F25;}
	.st38{fill:#E51E25;}
	.st39{opacity:0.7;fill:url(#SVGID_28_);}
	.st40{opacity:0.7;fill:url(#SVGID_29_);}
	.st41{opacity:0.2;fill:url(#SVGID_30_);}
	.st42{opacity:0.2;fill:url(#SVGID_31_);}
	.st43{opacity:0.8;fill:url(#SVGID_32_);}
	.st44{opacity:0.8;fill:url(#SVGID_33_);}
	.st45{opacity:0.8;fill:url(#SVGID_34_);}
	.st46{fill:url(#SVGID_35_);}
	.st47{fill:url(#SVGID_36_);}
	.st48{fill:url(#SVGID_37_);}
	.st49{fill:#E51E27;}
	.st50{opacity:0.8;fill:url(#SVGID_38_);}
	.st51{opacity:0.8;fill:url(#SVGID_39_);}
	.st52{fill:url(#SVGID_40_);}
	.st53{fill:url(#SVGID_41_);}
	.st54{fill:url(#SVGID_42_);}
	.st55{fill:url(#SVGID_43_);}
	.st56{opacity:0.2;fill:#BD2026;}
	.st57{fill:url(#SVGID_44_);}
	.st58{fill:url(#SVGID_45_);}
	.st59{display:none;opacity:0.9;fill:url(#SVGID_46_);}
	.st60{opacity:0.6;fill:url(#SVGID_47_);}
	.st61{fill:#B11F2F;}
	.st62{opacity:0.2;fill:url(#SVGID_48_);}
	.st63{fill:url(#SVGID_49_);}
	.st64{fill:url(#SVGID_50_);}
	.st65{fill:url(#SVGID_51_);}
	.st66{opacity:0.4;fill:url(#SVGID_52_);}
	.st67{opacity:0.8;fill:url(#SVGID_53_);}
	.st68{opacity:0.5;fill:url(#SVGID_54_);}
	.st69{opacity:0.5;fill:url(#SVGID_55_);}
	.st70{opacity:0.4;fill:url(#SVGID_56_);}
	.st71{opacity:0.3;fill:url(#SVGID_57_);}
	.st72{opacity:0.3;fill:url(#SVGID_58_);}
	.st73{fill:#991B1E;}
	.st74{fill:url(#SVGID_59_);}
	.st75{fill:url(#SVGID_60_);}
	.st76{opacity:0.4;fill:url(#SVGID_61_);}
	.st77{fill:url(#SVGID_62_);}
	.st78{opacity:0.8;fill:url(#SVGID_63_);}
	.st79{fill:#C42126;}
	.st80{opacity:0.2;fill:url(#SVGID_64_);}
	.st81{fill:url(#SVGID_65_);}
	.st82{fill:url(#SVGID_66_);}
	.st83{opacity:0.3;fill:url(#SVGID_67_);}
	.st84{opacity:0.4;}
	.st85{opacity:0.8;fill:#DB1F26;}
	.st86{fill:#BD2026;}
	.st87{opacity:0.6;fill:url(#SVGID_68_);}
	.st88{opacity:0.5;fill:#DE1E31;}
	.st89{opacity:0.3;fill:url(#SVGID_69_);}
	.st90{fill:url(#SVGID_70_);}
	.st91{opacity:0.5;fill:url(#SVGID_71_);}
	.st92{opacity:0.6;}
	.st93{opacity:0.3;filter:url(#blurMe);}
	.st94{fill:#010101;}
	.st95{opacity:0.2;filter:url(#blurMe);}
</style>
<filter  height="300%" id="blurMe" width="300%" x="-100%" y="-100%">
	<feGaussianBlur  in="SourceGraphic" stdDeviation="15"></feGaussianBlur>
</filter>
<g>
	<defs>
		<rect id="SVGID_3_" x="248.8" width="277.9" height="83.9"/>
	</defs>
	<clipPath id="SVGID_1_">
		<use xlink:href="#SVGID_3_"  style="overflow:visible;"/>
	</clipPath>
	<polyline class="st0" points="253.8,74.2 252.3,76.8 483.4,79.2 495.1,56.2 488,56.4 479.3,72.9 253.8,74.2 	"/>
	<polyline class="st0" points="431.1,14.6 434.8,7.9 288.7,7.8 267.7,47.8 283.6,47.8 301.2,14.6 431.1,14.6 	"/>
	<polyline class="st1" points="494.6,57.8 488.1,57.8 479.4,74.3 253.8,74.3 267.9,47.3 278.5,47.3 296.2,14.1 431.4,14.1 
		434.8,7.9 521.8,7.9 494.6,57.8 	"/>
	<path class="st2" d="M479.5,74.4h-226l14.3-27.3h10.6L296.1,14h135.3l3.3-6.2h87.4L522,8l-27.3,49.9h-6.5L479.5,74.4 M254,74.1
		h225.3l8.7-16.5h6.5l27.1-49.6h-86.7l-3.3,6.2H296.2l-17.6,33.2H268L254,74.1z"/>
	<polyline class="st3" points="429.4,11.6 434.7,1.5 283.1,1.5 260.1,44.8 276.1,44.8 293.7,11.6 429.4,11.6 	"/>
	<path class="st4" d="M276.2,45h-16.3L283,1.3h152l-5.5,10.4H293.8L276.2,45 M260.4,44.6H276l17.6-33.3h135.7l5.2-9.8H283.2
		L260.4,44.6z"/>
	<polyline class="st3" points="252.4,76.7 249.1,83.1 487.4,83.1 499.2,60.2 489.9,60.2 481.2,76.7 252.4,76.7 	"/>
	<path class="st4" d="M487.5,83.2H248.8l3.5-6.7h228.8l8.7-16.5h9.6L487.5,83.2 M249.3,82.9h238l11.6-22.6H490l-8.7,16.5H252.5
		L249.3,82.9z"/>
	<path class="st5" d="M306.4,32.6c-0.7,0.5-1.3,1.2-1.8,2l-1.6,2.8c-0.5,0.8-0.6,1.4-0.4,2c0.2,0.5,0.6,0.8,1.2,0.8h16
		c0.9,0,1.7,0.2,2.3,0.7c0.6,0.4,1,1,1.2,1.7c0.2,0.7,0.2,1.6,0,2.6c-0.2,1-0.6,2.1-1.3,3.2l-4.7,8.2c-0.7,1.1-1.4,2.2-2.4,3.2
		c-0.9,1-1.9,1.9-2.9,2.6c-1,0.7-2.1,1.3-3.2,1.7c-1.1,0.4-2.1,0.7-3,0.7h-29.7l4.7-8.2h22.8c0.6,0,1.3-0.3,2.1-0.8
		c0.7-0.5,1.3-1.2,1.8-2L309,51c0.5-0.8,0.6-1.4,0.5-2c-0.1-0.5-0.5-0.8-1.2-0.8h-16c-0.9,0-1.7-0.2-2.3-0.7c-0.6-0.4-1-1-1.2-1.7
		c-0.2-0.7-0.2-1.6,0-2.6c0.2-1,0.6-2.1,1.3-3.2l4.7-8.2c0.6-1.1,1.4-2.2,2.3-3.2c0.9-1,1.9-1.9,2.9-2.6c1-0.7,2.1-1.3,3.2-1.8
		c1.1-0.4,2.1-0.7,3-0.7H336l-4.6,8.2h-22.8C307.9,31.8,307.2,32.1,306.4,32.6"/>
	<polyline class="st5" points="348.5,31.8 335.9,31.8 340.5,23.7 377.1,23.7 372.5,31.8 359.9,31.8 341.2,64.7 329.7,64.7 
		348.5,31.8 	"/>
	<path class="st5" d="M386.1,40.1h11.4l3.1-5.5c0.5-0.8,0.6-1.4,0.5-2c-0.1-0.5-0.5-0.8-1.2-0.8h-9.1c-0.6,0-1.3,0.3-2.1,0.8
		c-0.7,0.5-1.3,1.2-1.8,1.9l-17.1,30.1h-11.4l18.7-32.8c0.6-1.1,1.4-2.2,2.3-3.2c0.9-1,1.9-1.9,2.9-2.6c1-0.7,2.1-1.3,3.2-1.8
		c1.1-0.4,2.1-0.7,3-0.7h22.8c0.9,0,1.7,0.2,2.3,0.7c0.6,0.4,1,1,1.2,1.7c0.2,0.7,0.2,1.6,0,2.6c-0.2,1-0.6,2.1-1.2,3.2l-18.7,32.9
		h-11.4l9.4-16.4h-11.4L386.1,40.1"/>
	<polyline class="st5" points="430.7,31.8 418.2,31.8 422.8,23.7 459.4,23.7 454.8,31.8 442.2,31.8 423.5,64.7 412,64.7 430.7,31.8 
			"/>
	<path class="st5" d="M471,32.6c-0.7,0.5-1.3,1.2-1.8,2l-1.6,2.8c-0.5,0.8-0.6,1.4-0.4,2c0.2,0.5,0.6,0.8,1.2,0.8h16
		c0.9,0,1.7,0.2,2.3,0.7c0.6,0.4,1,1,1.2,1.7c0.2,0.7,0.2,1.6,0,2.6c-0.2,1-0.6,2.1-1.3,3.2l-4.7,8.2c-0.7,1.1-1.4,2.2-2.4,3.2
		c-0.9,1-1.9,1.9-2.9,2.6c-1,0.7-2.1,1.3-3.2,1.7c-1.1,0.4-2.1,0.7-3,0.7h-29.7l4.7-8.2h22.8c0.6,0,1.3-0.3,2.1-0.8
		c0.7-0.5,1.3-1.2,1.8-2l1.5-2.8c0.5-0.8,0.6-1.4,0.5-2c-0.1-0.5-0.5-0.8-1.2-0.8h-16c-0.9,0-1.7-0.2-2.3-0.7c-0.6-0.4-1-1-1.2-1.7
		c-0.2-0.7-0.2-1.6,0-2.6c0.2-1,0.6-2.1,1.3-3.2l4.7-8.2c0.6-1.1,1.4-2.2,2.3-3.2c0.9-1,1.9-1.9,2.9-2.6c1-0.7,2.1-1.3,3.2-1.8
		c1.1-0.4,2.1-0.7,3-0.7h29.7l-4.6,8.2h-22.8C472.4,31.8,471.7,32.1,471,32.6"/>
	<path class="st6" d="M306.1,31.7c-0.7,0.5-1.3,1.2-1.8,2l-1.6,2.8c-0.5,0.8-0.6,1.4-0.4,2c0.2,0.5,0.6,0.8,1.2,0.8h16
		c0.9,0,1.7,0.2,2.3,0.7c0.6,0.4,1,1,1.2,1.7c0.2,0.7,0.2,1.6,0,2.6c-0.2,1-0.6,2.1-1.3,3.2l-4.7,8.2c-0.7,1.1-1.4,2.2-2.4,3.2
		c-0.9,1-1.9,1.9-2.9,2.6c-1,0.7-2.1,1.3-3.2,1.7c-1.1,0.4-2.1,0.7-3,0.7h-29.7l4.7-8.2h22.8c0.6,0,1.3-0.3,2.1-0.8
		c0.7-0.5,1.3-1.2,1.8-2l1.5-2.8c0.5-0.8,0.6-1.4,0.5-2c-0.1-0.5-0.5-0.8-1.2-0.8h-16c-0.9,0-1.7-0.2-2.3-0.7c-0.6-0.4-1-1-1.2-1.7
		c-0.2-0.7-0.2-1.6,0-2.6c0.2-1,0.6-2.1,1.3-3.2l4.7-8.2c0.6-1.1,1.4-2.2,2.3-3.2c0.9-1,1.9-1.9,2.9-2.6c1-0.7,2.1-1.3,3.2-1.8
		c1.1-0.4,2.1-0.7,3-0.7h29.7l-4.6,8.2h-22.8C307.5,30.9,306.8,31.2,306.1,31.7"/>
	<path class="st6" d="M335.5,22.8l-4.5,8h-22.8c-0.6,0-1.4,0.3-2.1,0.8c-0.7,0.5-1.4,1.2-1.8,2l-1.6,2.8c-0.5,0.8-0.6,1.5-0.5,2
		c0.2,0.6,0.6,0.8,1.3,0.8h16c0.9,0,1.7,0.2,2.3,0.6c0.6,0.4,1,1,1.1,1.7c0.2,0.7,0.2,1.6,0,2.6c-0.2,1-0.6,2.1-1.2,3.2l-4.7,8.2
		c-0.7,1.1-1.4,2.2-2.4,3.2c-0.9,1-1.9,1.9-2.9,2.6c-1,0.7-2.1,1.3-3.2,1.7c-1.1,0.4-2.1,0.6-3,0.6h-29.6l4.6-8h22.8
		c0.6,0,1.4-0.3,2.1-0.8c0.7-0.5,1.4-1.2,1.8-2l1.5-2.8c0.5-0.8,0.6-1.5,0.5-2c-0.1-0.6-0.6-0.8-1.2-0.8h-16c-0.9,0-1.7-0.2-2.3-0.6
		c-0.6-0.4-1-1-1.2-1.7c-0.2-0.7-0.2-1.6,0-2.6c0.2-1,0.6-2.1,1.3-3.2l4.7-8.2c0.6-1.1,1.4-2.2,2.3-3.2c0.9-1,1.9-1.9,2.9-2.6
		c1-0.7,2.1-1.3,3.2-1.7c1.1-0.4,2.1-0.7,3-0.7H335.5 M335.6,22.7h-29.7c-0.9,0-2,0.2-3,0.7c-1.1,0.4-2.1,1-3.2,1.8
		c-1,0.7-2,1.6-2.9,2.6c-0.9,1-1.7,2.1-2.3,3.2l-4.7,8.2c-0.7,1.1-1.1,2.2-1.3,3.2c-0.2,1-0.2,1.9,0,2.6c0.2,0.7,0.6,1.3,1.2,1.7
		c0.6,0.4,1.4,0.7,2.3,0.7h16c0.6,0,1,0.3,1.2,0.8c0.1,0.5,0,1.2-0.5,2l-1.5,2.8c-0.5,0.8-1.1,1.4-1.8,2c-0.7,0.5-1.4,0.8-2.1,0.8
		h-22.8l-4.7,8.2h29.7c0.9,0,2-0.2,3-0.7c1.1-0.4,2.1-1,3.2-1.7c1-0.7,2-1.6,2.9-2.6c0.9-1,1.7-2.1,2.4-3.2l4.7-8.2
		c0.6-1.1,1-2.2,1.3-3.2c0.2-1,0.2-1.9,0-2.6c-0.2-0.7-0.6-1.3-1.2-1.7c-0.6-0.4-1.4-0.7-2.3-0.7h-16c-0.6,0-1-0.3-1.2-0.8
		c-0.2-0.5,0-1.2,0.4-2l1.6-2.8c0.5-0.8,1-1.4,1.8-2c0.7-0.5,1.4-0.8,2.1-0.8H331L335.6,22.7z"/>
	<polyline class="st6" points="348.1,30.9 335.6,30.9 340.2,22.7 376.8,22.7 372.1,30.9 359.6,30.9 340.9,63.8 329.4,63.8 
		348.1,30.9 	"/>
	<path class="st6" d="M376.7,22.8l-4.5,8h-12.6l0,0l-18.7,32.8h-11.3l18.7-32.8l0.1-0.1h-12.5l4.5-8H376.7 M376.8,22.7h-36.5
		l-4.6,8.2h12.5l-18.7,32.9h11.5l18.7-32.9h12.6L376.8,22.7z"/>
	<path class="st6" d="M385.7,39.2h11.4l3.1-5.5c0.5-0.8,0.6-1.4,0.5-2c-0.1-0.5-0.5-0.8-1.2-0.8h-9.1c-0.6,0-1.3,0.3-2.1,0.8
		c-0.7,0.5-1.3,1.2-1.8,1.9l-17.1,30.1H358l18.7-32.8c0.6-1.1,1.4-2.2,2.3-3.2c0.9-1,1.9-1.9,2.9-2.6c1-0.7,2.1-1.3,3.2-1.8
		c1.1-0.4,2.1-0.7,3-0.7H411c0.9,0,1.7,0.2,2.3,0.7c0.6,0.4,1,1,1.2,1.7c0.2,0.7,0.2,1.6,0,2.6c-0.2,1-0.6,2.1-1.2,3.2l-18.7,32.9
		h-11.4l9.4-16.4h-11.4L385.7,39.2"/>
	<path class="st6" d="M411,22.8c0.9,0,1.7,0.2,2.3,0.6c0.6,0.4,1,1,1.2,1.7c0.2,0.7,0.2,1.6,0,2.6c-0.2,1-0.6,2.1-1.2,3.2
		l-18.7,32.8h-11.3l9.3-16.3l0.1-0.1h-11.4l4.6-8h11.4l0,0l3.1-5.5c0.5-0.8,0.6-1.5,0.5-2c-0.1-0.6-0.6-0.8-1.2-0.8h-9.1
		c-0.6,0-1.4,0.3-2.1,0.8c-0.7,0.5-1.3,1.2-1.8,2l-17.1,30.1h-11.3L376.8,31c0.6-1.1,1.4-2.2,2.3-3.2c0.9-1,1.9-1.9,2.9-2.6
		c1-0.7,2.1-1.3,3.2-1.7c1.1-0.4,2.1-0.7,3-0.7H411 M411,22.7h-22.8c-0.9,0-2,0.2-3,0.7c-1.1,0.4-2.1,1-3.2,1.8
		c-1,0.7-2,1.6-2.9,2.6c-0.9,1-1.7,2.1-2.3,3.2L358,63.8h11.4l17.1-30.1c0.5-0.8,1-1.4,1.8-1.9c0.7-0.5,1.4-0.8,2.1-0.8h9.1
		c0.6,0,1,0.3,1.2,0.8c0.1,0.5,0,1.2-0.5,2l-3.1,5.5h-11.4l-4.7,8.2h11.4l-9.4,16.4h11.4l18.7-32.9c0.6-1.1,1-2.2,1.2-3.2
		c0.2-1,0.2-1.9,0-2.6c-0.2-0.7-0.6-1.3-1.2-1.7C412.8,22.9,412,22.7,411,22.7z"/>
	<polyline class="st6" points="430.4,30.9 417.9,30.9 422.5,22.7 459,22.7 454.4,30.9 441.9,30.9 423.1,63.8 411.7,63.8 430.4,30.9 
			"/>
	<path class="st6" d="M458.9,22.8l-4.5,8h-12.6l0,0l-18.7,32.8h-11.3l18.7-32.8l0.1-0.1H418l4.5-8H458.9 M459,22.7h-36.5l-4.6,8.2
		h12.5l-18.7,32.9h11.5l18.7-32.9h12.6L459,22.7z"/>
	<path class="st6" d="M470.6,31.7c-0.7,0.5-1.3,1.2-1.8,2l-1.6,2.8c-0.5,0.8-0.6,1.4-0.4,2c0.2,0.5,0.6,0.8,1.2,0.8h16
		c0.9,0,1.7,0.2,2.3,0.7c0.6,0.4,1,1,1.2,1.7c0.2,0.7,0.2,1.6,0,2.6c-0.2,1-0.6,2.1-1.3,3.2l-4.7,8.2c-0.7,1.1-1.4,2.2-2.4,3.2
		c-0.9,1-1.9,1.9-2.9,2.6c-1,0.7-2.1,1.3-3.2,1.7c-1.1,0.4-2.1,0.7-3,0.7h-29.7l4.7-8.2h22.8c0.6,0,1.3-0.3,2.1-0.8
		c0.7-0.5,1.3-1.2,1.8-2l1.5-2.8c0.5-0.8,0.6-1.4,0.5-2c-0.1-0.5-0.5-0.8-1.2-0.8h-16c-0.9,0-1.7-0.2-2.3-0.7c-0.6-0.4-1-1-1.2-1.7
		c-0.2-0.7-0.2-1.6,0-2.6c0.2-1,0.6-2.1,1.3-3.2l4.7-8.2c0.6-1.1,1.4-2.2,2.3-3.2c0.9-1,1.9-1.9,2.9-2.6c1-0.7,2.1-1.3,3.2-1.8
		c1.1-0.4,2.1-0.7,3-0.7h29.7l-4.6,8.2h-22.8C472.1,30.9,471.4,31.2,470.6,31.7"/>
	<path class="st6" d="M500.1,22.8l-4.5,8h-22.8c-0.6,0-1.4,0.3-2.1,0.8c-0.7,0.5-1.4,1.2-1.8,2l-1.6,2.8c-0.5,0.8-0.6,1.5-0.5,2
		c0.2,0.6,0.6,0.8,1.3,0.8h16c0.9,0,1.7,0.2,2.3,0.6c0.6,0.4,1,1,1.1,1.7c0.2,0.7,0.2,1.6,0,2.6c-0.2,1-0.6,2.1-1.2,3.2l-4.7,8.2
		c-0.7,1.1-1.4,2.2-2.4,3.2c-0.9,1-1.9,1.9-2.9,2.6c-1,0.7-2.1,1.3-3.2,1.7c-1.1,0.4-2.1,0.6-3,0.6h-29.6l4.6-8h22.8
		c0.7,0,1.4-0.3,2.1-0.8c0.7-0.5,1.4-1.2,1.8-2l1.5-2.8c0.5-0.8,0.6-1.5,0.5-2c-0.1-0.6-0.6-0.8-1.2-0.8h-16c-0.9,0-1.7-0.2-2.3-0.6
		c-0.6-0.4-1-1-1.2-1.7c-0.2-0.7-0.2-1.6,0-2.6c0.2-1,0.6-2,1.3-3.2L459,31c0.6-1.1,1.4-2.2,2.3-3.2c0.9-1,1.9-1.9,2.9-2.6
		c1-0.7,2.1-1.3,3.2-1.7c1.1-0.4,2.1-0.7,3-0.7H500.1 M500.2,22.7h-29.7c-0.9,0-2,0.2-3,0.7c-1.1,0.4-2.1,1-3.2,1.8
		c-1,0.7-2,1.6-2.9,2.6c-0.9,1-1.7,2.1-2.3,3.2l-4.7,8.2c-0.7,1.1-1.1,2.2-1.3,3.2c-0.2,1-0.2,1.9,0,2.6c0.2,0.7,0.6,1.3,1.2,1.7
		c0.6,0.4,1.4,0.7,2.3,0.7h16c0.6,0,1,0.3,1.2,0.8c0.1,0.5,0,1.2-0.5,2l-1.5,2.8c-0.5,0.8-1.1,1.4-1.8,2c-0.7,0.5-1.4,0.8-2.1,0.8
		H445l-4.7,8.2H470c0.9,0,2-0.2,3-0.7c1.1-0.4,2.1-1,3.2-1.7c1-0.7,2-1.6,2.9-2.6c0.9-1,1.7-2.1,2.4-3.2l4.7-8.2
		c0.6-1.1,1-2.2,1.3-3.2c0.2-1,0.2-1.9,0-2.6c-0.2-0.7-0.6-1.3-1.2-1.7c-0.6-0.4-1.4-0.7-2.3-0.7h-16c-0.6,0-1-0.3-1.2-0.8
		c-0.2-0.5,0-1.2,0.4-2l1.6-2.8c0.5-0.8,1.1-1.4,1.8-2c0.7-0.5,1.4-0.8,2.1-0.8h22.8L500.2,22.7z"/>
</g>
<polyline class="st7" points="364.1,164.5 382.6,182.9 400.5,165 "/>
<g id="newstats">
	<defs>
		<path id="SVGID_2_" d="M83.2,327.8c-1-6.3-2.5-18.1-17-18.1c-8.3,0-16.3,5.8-16.3,14.5c0,11,5,13.3,38.4,28.3
			c34.6,15.5,43.4,31.6,43.4,53.2c0,27.1-15.5,56.9-64.7,56.9C13.3,462.7,0,427.6,0,403.7v-6h47.1c0,21.6,13.3,25.3,19.3,25.3
			c11.3,0,18.1-9.3,18.1-17.8c0-12.3-7.8-15.3-36.4-27.3c-13-5.3-45.4-18.3-45.4-53.2c0-34.9,33.9-54.7,64.9-54.7
			c18.3,0,38.1,6.8,50.2,21.1c11,13.5,11.8,26.1,12.3,36.6H83.2z M200.8,315.2h-36.6v-41.6h120.4v41.6h-36.4v143.9h-47.4V315.2z
			 M525.9,315.2h-36.6v-41.6h120.4v41.6h-36.4v143.9h-47.4V315.2z M723,327.8c-1-6.3-2.5-18.1-17.1-18.1c-8.3,0-16.3,5.8-16.3,14.5
			c0,11,5,13.3,38.4,28.3c34.6,15.5,43.4,31.6,43.4,53.2c0,27.1-15.5,56.9-64.7,56.9c-53.7,0-66.9-35.1-66.9-58.9v-6h47.1
			c0,21.6,13.3,25.3,19.3,25.3c11.3,0,18.1-9.3,18.1-17.8c0-12.3-7.8-15.3-36.4-27.3c-13-5.3-45.4-18.3-45.4-53.2
			c0-34.9,33.8-54.7,64.9-54.7c18.3,0,38.1,6.8,50.1,21.1c11,13.5,11.8,26.1,12.3,36.6H723z M428.9,459.1h50.7l-70.7-185.6h-44.3
			l-70.7,185.6h50.7l42.2-122.8l20,58.4h-27.9L366,432.3h53.7L428.9,459.1z"/>
	</defs>
	<clipPath id="SVGID_4_">
		<use xlink:href="#SVGID_2_"  style="overflow:visible;"/>
	</clipPath>
	<g class="st8">
		<path class="st9" d="M83.2,327.8c-1-6.3-2.5-18.1-17-18.1c-8.3,0-16.3,5.8-16.3,14.5c0,11,5,13.3,38.4,28.3
			c34.6,15.5,43.4,31.6,43.4,53.2c0,27.1-15.5,56.9-64.7,56.9C13.3,462.7,0,427.6,0,403.7v-6h47.1c0,21.6,13.3,25.3,19.3,25.3
			c11.3,0,18.1-9.3,18.1-17.8c0-12.3-7.8-15.3-36.4-27.3c-13-5.3-45.4-18.3-45.4-53.2c0-34.9,33.9-54.7,64.9-54.7
			c18.3,0,38.1,6.8,50.2,21.1c11,13.5,11.8,26.1,12.3,36.6H83.2z M200.8,315.2h-36.6v-41.6h120.4v41.6h-36.4v143.9h-47.4V315.2z
			 M525.9,315.2h-36.6v-41.6h120.4v41.6h-36.4v143.9h-47.4V315.2z M723,327.8c-1-6.3-2.5-18.1-17.1-18.1c-8.3,0-16.3,5.8-16.3,14.5
			c0,11,5,13.3,38.4,28.3c34.6,15.5,43.4,31.6,43.4,53.2c0,27.1-15.5,56.9-64.7,56.9c-53.7,0-66.9-35.1-66.9-58.9v-6h47.1
			c0,21.6,13.3,25.3,19.3,25.3c11.3,0,18.1-9.3,18.1-17.8c0-12.3-7.8-15.3-36.4-27.3c-13-5.3-45.4-18.3-45.4-53.2
			c0-34.9,33.8-54.7,64.9-54.7c18.3,0,38.1,6.8,50.1,21.1c11,13.5,11.8,26.1,12.3,36.6H723z M428.9,459.1h50.7l-70.7-185.6h-44.3
			l-70.7,185.6h50.7l42.2-122.8l20,58.4h-27.9L366,432.3h53.7L428.9,459.1z"/>
		<polygon class="st10" points="164.2,273.6 164.2,315.2 184.7,315.2 224.8,273.6 		"/>
		<linearGradient id="SVGID_5_" gradientUnits="userSpaceOnUse" x1="154.9671" y1="217.6633" x2="204.9667" y2="314.6624">
			<stop  offset="0" style="stop-color:#FFCE04"/>
			<stop  offset="4.468220e-02" style="stop-color:#FBB81E"/>
			<stop  offset="0.1167" style="stop-color:#F69A2C"/>
			<stop  offset="0.195" style="stop-color:#F28033"/>
			<stop  offset="0.2789" style="stop-color:#EF6937"/>
			<stop  offset="0.3699" style="stop-color:#ED5339"/>
			<stop  offset="0.4709" style="stop-color:#EC3F3A"/>
			<stop  offset="0.5874" style="stop-color:#EB2D3A"/>
			<stop  offset="0.7331" style="stop-color:#EA203A"/>
			<stop  offset="1" style="stop-color:#EA1B3A"/>
		</linearGradient>
		<polygon class="st11" points="164.2,273.6 164.2,315.2 184.7,315.2 224.8,273.6 		"/>
		<polygon class="st12" points="248.2,315.2 284.6,315.2 284.6,273.6 224.8,273.6 184.7,315.2 200.8,315.2 200.8,412.5 248.2,363.3 
					"/>
		<linearGradient id="SVGID_6_" gradientUnits="userSpaceOnUse" x1="177.2066" y1="238.0211" x2="249.5401" y2="347.6885">
			<stop  offset="0" style="stop-color:#FFCE04"/>
			<stop  offset="3.652489e-02" style="stop-color:#FDBC1E"/>
			<stop  offset="0.1091" style="stop-color:#F89F32"/>
			<stop  offset="0.1881" style="stop-color:#F5853B"/>
			<stop  offset="0.2727" style="stop-color:#F26F40"/>
			<stop  offset="0.3645" style="stop-color:#F15943"/>
			<stop  offset="0.4664" style="stop-color:#EF4545"/>
			<stop  offset="0.5838" style="stop-color:#EE3545"/>
			<stop  offset="0.7308" style="stop-color:#EE2946"/>
			<stop  offset="1" style="stop-color:#EE2546"/>
		</linearGradient>
		<polygon class="st13" points="270,315.2 283.4,301.3 254.6,273.6 164.2,273.6 164.2,315.2 200.8,315.2 200.8,371.5 208.6,379 
			248.2,337.8 248.2,315.2 		"/>
		<linearGradient id="SVGID_7_" gradientUnits="userSpaceOnUse" x1="199.6722" y1="311.9625" x2="307.6726" y2="389.963">
			<stop  offset="0" style="stop-color:#EC1D25;stop-opacity:0"/>
			<stop  offset="1" style="stop-color:#EC1D25"/>
		</linearGradient>
		<polygon class="st14" points="248.2,315.2 284.6,315.2 284.6,273.6 224.8,273.6 184.7,315.2 200.8,315.2 200.8,412.5 248.2,363.3 
					"/>
		<linearGradient id="SVGID_8_" gradientUnits="userSpaceOnUse" x1="220.0888" y1="272.8448" x2="244.589" y2="348.8451">
			<stop  offset="0" style="stop-color:#FFCE04"/>
			<stop  offset="6.629682e-02" style="stop-color:#F5B518"/>
			<stop  offset="0.187" style="stop-color:#E79121"/>
			<stop  offset="0.3117" style="stop-color:#DE7524"/>
			<stop  offset="0.4386" style="stop-color:#D75C26"/>
			<stop  offset="0.5683" style="stop-color:#D24526"/>
			<stop  offset="0.7021" style="stop-color:#CF3327"/>
			<stop  offset="0.8424" style="stop-color:#CD2527"/>
			<stop  offset="1" style="stop-color:#CC2027"/>
		</linearGradient>
		<polygon class="st15" points="248.2,315.2 284.6,315.2 284.6,273.6 224.8,273.6 184.7,315.2 200.8,315.2 200.8,412.5 248.2,363.3 
					"/>
		<g>
			<linearGradient id="SVGID_9_" gradientUnits="userSpaceOnUse" x1="315.5088" y1="264.0511" x2="204.1757" y2="378.7178">
				<stop  offset="0" style="stop-color:#991B1E"/>
				<stop  offset="5.590320e-02" style="stop-color:#991B1E;stop-opacity:0.9441"/>
				<stop  offset="1" style="stop-color:#991B1E;stop-opacity:0"/>
			</linearGradient>
			<polygon class="st16" points="200.8,367.8 200.8,396.8 248.2,347.6 248.2,318.6 			"/>
			<linearGradient id="SVGID_10_" gradientUnits="userSpaceOnUse" x1="315.2752" y1="263.8246" x2="203.9422" y2="378.4912">
				<stop  offset="0" style="stop-color:#991B1E"/>
				<stop  offset="5.590320e-02" style="stop-color:#991B1E;stop-opacity:0.9441"/>
				<stop  offset="1" style="stop-color:#991B1E;stop-opacity:0"/>
			</linearGradient>
			<polygon class="st17" points="279.5,315.2 284.6,309.9 284.6,280.9 251.5,315.2 			"/>
		</g>
		<g>
			<linearGradient id="SVGID_11_" gradientUnits="userSpaceOnUse" x1="225.3512" y1="359.089" x2="300.0184" y2="277.7558">
				<stop  offset="0" style="stop-color:#991B1E"/>
				<stop  offset="5.590320e-02" style="stop-color:#991B1E;stop-opacity:0.9441"/>
				<stop  offset="1" style="stop-color:#991B1E;stop-opacity:0"/>
			</linearGradient>
			<polygon class="st18" points="279.5,315.2 284.6,309.9 284.6,280.9 251.5,315.2 			"/>
			<linearGradient id="SVGID_12_" gradientUnits="userSpaceOnUse" x1="224.2414" y1="358.0695" x2="298.9086" y2="276.7364">
				<stop  offset="0" style="stop-color:#991B1E"/>
				<stop  offset="5.590320e-02" style="stop-color:#991B1E;stop-opacity:0.9441"/>
				<stop  offset="1" style="stop-color:#991B1E;stop-opacity:0"/>
			</linearGradient>
			<polygon class="st19" points="200.8,367.8 200.8,396.8 248.2,347.6 248.2,318.6 			"/>
		</g>
		<g>
			<linearGradient id="SVGID_13_" gradientUnits="userSpaceOnUse" x1="202.0325" y1="399.0307" x2="254.5356" y2="344.0275">
				<stop  offset="0" style="stop-color:#991B1E"/>
				<stop  offset="5.590320e-02" style="stop-color:#991B1E;stop-opacity:0.9441"/>
				<stop  offset="1" style="stop-color:#991B1E;stop-opacity:0"/>
			</linearGradient>
			<polygon class="st20" points="284.6,315.2 284.6,309.9 279.5,315.2 			"/>
			<linearGradient id="SVGID_14_" gradientUnits="userSpaceOnUse" x1="204.3511" y1="401.2348" x2="256.8513" y2="346.2346">
				<stop  offset="0" style="stop-color:#991B1E"/>
				<stop  offset="5.590320e-02" style="stop-color:#991B1E;stop-opacity:0.9441"/>
				<stop  offset="1" style="stop-color:#991B1E;stop-opacity:0"/>
			</linearGradient>
			<polygon class="st21" points="248.2,347.6 200.8,396.8 200.8,412.5 248.2,363.3 			"/>
		</g>
		<g>
			<linearGradient id="SVGID_15_" gradientUnits="userSpaceOnUse" x1="177.1504" y1="411.2339" x2="410.9029" y2="411.2339">
				<stop  offset="0" style="stop-color:#CC2027"/>
				<stop  offset="5.590320e-02" style="stop-color:#CC2027"/>
				<stop  offset="1" style="stop-color:#CC2027"/>
			</linearGradient>
			<polygon class="st22" points="200.8,412.5 200.8,459.1 232.3,459.1 248.2,442.6 248.2,363.3 			"/>
			<linearGradient id="SVGID_16_" gradientUnits="userSpaceOnUse" x1="177.1504" y1="313.5046" x2="410.9034" y2="313.5046">
				<stop  offset="0" style="stop-color:#CC2027"/>
				<stop  offset="5.590320e-02" style="stop-color:#CC2027"/>
				<stop  offset="1" style="stop-color:#CC2027"/>
			</linearGradient>
			<polygon class="st23" points="408.8,273.5 364.6,273.5 334.1,353.5 409.5,275.2 			"/>
		</g>
		<linearGradient id="SVGID_17_" gradientUnits="userSpaceOnUse" x1="362.617" y1="303.785" x2="388.617" y2="272.4515">
			<stop  offset="0" style="stop-color:#DB1F26"/>
			<stop  offset="1" style="stop-color:#E42F25"/>
		</linearGradient>
		<polygon class="st24" points="408.8,273.5 364.6,273.5 334.1,353.5 409.5,275.2 		"/>
		<linearGradient id="SVGID_18_" gradientUnits="userSpaceOnUse" x1="212.603" y1="445.7346" x2="286.6029" y2="333.0683">
			<stop  offset="0" style="stop-color:#991B1E"/>
			<stop  offset="5.590320e-02" style="stop-color:#991B1E;stop-opacity:0.9441"/>
			<stop  offset="1" style="stop-color:#991B1E;stop-opacity:0"/>
		</linearGradient>
		<polygon class="st25" points="248.2,363.3 200.8,412.5 200.8,459.1 232.3,459.1 248.2,442.6 		"/>
		<linearGradient id="SVGID_19_" gradientUnits="userSpaceOnUse" x1="288.9734" y1="339.3365" x2="202.3063" y2="458.003">
			<stop  offset="0" style="stop-color:#EC1D25"/>
			<stop  offset="1" style="stop-color:#EC1D25;stop-opacity:0"/>
		</linearGradient>
		<polygon class="st26" points="248.2,363.3 200.8,412.5 200.8,459.1 232.3,459.1 248.2,442.6 		"/>
		<g>
			<polygon class="st27" points="248.2,442.6 232.3,459.1 248.2,459.1 			"/>
			<polygon class="st27" points="409.5,275.2 334.1,353.5 293.8,459.1 298.7,459.1 369.9,385.2 386.7,336.3 394.7,359.5 
				428.3,324.6 			"/>
		</g>
		<g>
			<linearGradient id="SVGID_20_" gradientUnits="userSpaceOnUse" x1="249.0748" y1="440.8377" x2="308.4065" y2="317.5071">
				<stop  offset="0" style="stop-color:#901A1D"/>
				<stop  offset="0.3107" style="stop-color:#A71D21"/>
				<stop  offset="0.7474" style="stop-color:#C22025"/>
				<stop  offset="1" style="stop-color:#CC2027"/>
			</linearGradient>
			<polygon class="st28" points="248.2,442.6 232.3,459.1 248.2,459.1 			"/>
			<linearGradient id="SVGID_21_" gradientUnits="userSpaceOnUse" x1="316.6045" y1="473.3246" x2="375.9373" y2="349.9917">
				<stop  offset="0" style="stop-color:#901A1D"/>
				<stop  offset="0.3107" style="stop-color:#A71D21"/>
				<stop  offset="0.7474" style="stop-color:#C22025"/>
				<stop  offset="1" style="stop-color:#CC2027"/>
			</linearGradient>
			<polygon class="st29" points="409.5,275.2 334.1,353.5 293.8,459.1 298.7,459.1 369.9,385.2 386.7,336.3 394.7,359.5 
				428.3,324.6 			"/>
		</g>
		<polygon class="st30" points="409.5,275.2 334.1,353.5 293.8,459.1 298.7,459.1 369.9,385.2 386.7,336.3 394.7,359.5 428.3,324.6 
					"/>
		<linearGradient id="SVGID_22_" gradientUnits="userSpaceOnUse" x1="290.1034" y1="453.2412" x2="337.4363" y2="393.9083">
			<stop  offset="0" style="stop-color:#901A1D"/>
			<stop  offset="1" style="stop-color:#901A1D;stop-opacity:0"/>
		</linearGradient>
		<polygon class="st31" points="409.5,275.2 334.1,353.5 293.8,459.1 298.7,459.1 369.9,385.2 386.7,336.3 394.7,359.5 428.3,324.6 
					"/>
		
			<linearGradient id="SVGID_23_" gradientUnits="userSpaceOnUse" x1="58.0411" y1="655.5765" x2="84.7083" y2="682.2431" gradientTransform="matrix(0.9231 7.990000e-02 7.990000e-02 0.9171 238.0835 -246.2537)">
			<stop  offset="5.102040e-03" style="stop-color:#901A1D;stop-opacity:0"/>
			<stop  offset="1" style="stop-color:#901A1D"/>
		</linearGradient>
		<polygon class="st32" points="409.5,275.2 334.1,353.5 293.8,459.1 298.7,459.1 369.9,385.2 386.7,336.3 394.7,359.5 428.3,324.6 
					"/>
		<g>
			<linearGradient id="SVGID_24_" gradientUnits="userSpaceOnUse" x1="220.4468" y1="374.236" x2="200.5424" y2="297.2782">
				<stop  offset="0" style="stop-color:#FFCE04;stop-opacity:0"/>
				<stop  offset="1" style="stop-color:#FFCE04"/>
			</linearGradient>
			<polygon class="st33" points="248.2,442.6 232.3,459.1 248.2,459.1 			"/>
			<linearGradient id="SVGID_25_" gradientUnits="userSpaceOnUse" x1="347.9736" y1="341.2491" x2="328.0685" y2="264.2885">
				<stop  offset="0" style="stop-color:#FFCE04;stop-opacity:0"/>
				<stop  offset="1" style="stop-color:#FFCE04"/>
			</linearGradient>
			<polygon class="st34" points="409.5,275.2 334.1,353.5 293.8,459.1 298.7,459.1 369.9,385.2 386.7,336.3 394.7,359.5 
				428.3,324.6 			"/>
		</g>
		<g>
			<linearGradient id="SVGID_26_" gradientUnits="userSpaceOnUse" x1="209.8308" y1="394.9439" x2="275.1644" y2="328.9433">
				<stop  offset="0" style="stop-color:#EC1D25"/>
				<stop  offset="1" style="stop-color:#EC1D25;stop-opacity:0"/>
			</linearGradient>
			<polygon class="st35" points="248.2,347.6 200.8,396.8 200.8,412.5 248.2,363.3 			"/>
			<linearGradient id="SVGID_27_" gradientUnits="userSpaceOnUse" x1="206.4003" y1="391.5542" x2="271.7361" y2="325.5514">
				<stop  offset="0" style="stop-color:#EC1D25"/>
				<stop  offset="1" style="stop-color:#EC1D25;stop-opacity:0"/>
			</linearGradient>
			<polygon class="st36" points="284.6,315.2 284.6,309.9 279.5,315.2 			"/>
		</g>
		<polygon class="st37" points="232.3,459.1 248.2,459.1 248.2,445.2 248.2,442.6 		"/>
		<g>
			<polygon class="st38" points="489.3,273.6 489.3,311.6 525.8,273.6 			"/>
			<polygon class="st38" points="394.7,359.5 406.7,394.7 378.9,394.7 366,432.3 372.9,432.3 442,360.6 428.3,324.6 			"/>
			<polygon class="st38" points="369.9,385.2 298.7,459.1 344.5,459.1 			"/>
		</g>
		<g>
			<radialGradient id="SVGID_28_" cx="249.5415" cy="324.651" r="107.9997" gradientUnits="userSpaceOnUse">
				<stop  offset="0" style="stop-color:#E93125"/>
				<stop  offset="1" style="stop-color:#E93125;stop-opacity:0"/>
			</radialGradient>
			<path class="st39" d="M284.6,315.2v-41.6H164.2v41.6h36.6v105.9c14.3,7.2,30.4,11.4,47.4,11.6V315.2H284.6z"/>
			<radialGradient id="SVGID_29_" cx="249.5426" cy="324.651" r="107.9994" gradientUnits="userSpaceOnUse">
				<stop  offset="0" style="stop-color:#E93125"/>
				<stop  offset="1" style="stop-color:#E93125;stop-opacity:0"/>
			</radialGradient>
			<path class="st40" d="M357.5,324.7c0-8.6-1-17-2.9-25l-43.3,113.6C339.3,393.7,357.5,361.3,357.5,324.7z"/>
		</g>
		<g>
			<radialGradient id="SVGID_30_" cx="392.875" cy="339.3179" r="108.0003" gradientUnits="userSpaceOnUse">
				<stop  offset="0" style="stop-color:#E93125"/>
				<stop  offset="1" style="stop-color:#E93125;stop-opacity:0"/>
			</radialGradient>
			<path class="st41" d="M489.3,315.2h8.9c-2-8.7-5-16.9-8.9-24.7V315.2z"/>
			<radialGradient id="SVGID_31_" cx="392.8749" cy="339.3177" r="108.0003" gradientUnits="userSpaceOnUse">
				<stop  offset="0" style="stop-color:#E93125"/>
				<stop  offset="1" style="stop-color:#E93125;stop-opacity:0"/>
			</radialGradient>
			<path class="st42" d="M364.6,273.5l-52.4,137.5c10.7,12.1,24.1,21.7,39.3,28l35.3-102.8l20,58.4h-27.9L366,432.3h53.7l3.7,10.6
				c15.5-4.5,29.6-12.5,41.4-23l-55.8-146.5H364.6z"/>
		</g>
		<g>
			<linearGradient id="SVGID_32_" gradientUnits="userSpaceOnUse" x1="515.8744" y1="300.7352" x2="461.2509" y2="247.2269">
				<stop  offset="0" style="stop-color:#901A1D"/>
				<stop  offset="5.590320e-02" style="stop-color:#901A1D;stop-opacity:0.9441"/>
				<stop  offset="1" style="stop-color:#901A1D;stop-opacity:0"/>
			</linearGradient>
			<polygon class="st43" points="489.3,273.6 489.3,311.6 525.8,273.6 			"/>
			<linearGradient id="SVGID_33_" gradientUnits="userSpaceOnUse" x1="366.2483" y1="453.4782" x2="311.6263" y2="399.9714">
				<stop  offset="0" style="stop-color:#901A1D"/>
				<stop  offset="5.590320e-02" style="stop-color:#901A1D;stop-opacity:0.9441"/>
				<stop  offset="1" style="stop-color:#901A1D;stop-opacity:0"/>
			</linearGradient>
			<polygon class="st44" points="369.9,385.2 298.7,459.1 344.5,459.1 			"/>
			<linearGradient id="SVGID_34_" gradientUnits="userSpaceOnUse" x1="418.8715" y1="399.7603" x2="364.247" y2="346.251">
				<stop  offset="0" style="stop-color:#901A1D"/>
				<stop  offset="5.590320e-02" style="stop-color:#901A1D;stop-opacity:0.9441"/>
				<stop  offset="1" style="stop-color:#901A1D;stop-opacity:0"/>
			</linearGradient>
			<polygon class="st45" points="394.7,359.5 406.7,394.7 378.9,394.7 366,432.3 372.9,432.3 442,360.6 428.3,324.6 			"/>
		</g>
		<g>
			<linearGradient id="SVGID_35_" gradientUnits="userSpaceOnUse" x1="316.6746" y1="507.1308" x2="430.0071" y2="368.4648">
				<stop  offset="0" style="stop-color:#901A1D"/>
				<stop  offset="5.590320e-02" style="stop-color:#901A1D;stop-opacity:0.9441"/>
				<stop  offset="1" style="stop-color:#901A1D;stop-opacity:0"/>
			</linearGradient>
			<polygon class="st46" points="489.3,273.6 489.3,311.6 525.8,273.6 			"/>
			<linearGradient id="SVGID_36_" gradientUnits="userSpaceOnUse" x1="305.5679" y1="498.0562" x2="418.9015" y2="359.3887">
				<stop  offset="0" style="stop-color:#901A1D"/>
				<stop  offset="5.590320e-02" style="stop-color:#901A1D;stop-opacity:0.9441"/>
				<stop  offset="1" style="stop-color:#901A1D;stop-opacity:0"/>
			</linearGradient>
			<polygon class="st47" points="394.7,359.5 406.7,394.7 378.9,394.7 366,432.3 372.9,432.3 442,360.6 428.3,324.6 			"/>
			<linearGradient id="SVGID_37_" gradientUnits="userSpaceOnUse" x1="296.1336" y1="490.3438" x2="409.4665" y2="351.6772">
				<stop  offset="0" style="stop-color:#901A1D"/>
				<stop  offset="5.590320e-02" style="stop-color:#901A1D;stop-opacity:0.9441"/>
				<stop  offset="1" style="stop-color:#901A1D;stop-opacity:0"/>
			</linearGradient>
			<polygon class="st48" points="369.9,385.2 298.7,459.1 344.5,459.1 			"/>
		</g>
		<g>
			<polygon class="st49" points="525.8,273.6 489.3,311.6 489.3,315.2 525.9,315.2 525.9,319.4 570,273.6 			"/>
			<polygon class="st49" points="372.9,432.3 417.1,432.3 454.5,393.5 442,360.6 			"/>
		</g>
		<g>
			<linearGradient id="SVGID_38_" gradientUnits="userSpaceOnUse" x1="551.8831" y1="317.6674" x2="509.1684" y2="272.9812">
				<stop  offset="0" style="stop-color:#901A1D"/>
				<stop  offset="1" style="stop-color:#901A1D;stop-opacity:0"/>
			</linearGradient>
			<polygon class="st50" points="525.8,273.6 489.3,311.6 489.3,315.2 525.9,315.2 525.9,319.4 570,273.6 			"/>
			<linearGradient id="SVGID_39_" gradientUnits="userSpaceOnUse" x1="437.0679" y1="427.4171" x2="394.3526" y2="382.7303">
				<stop  offset="0" style="stop-color:#901A1D"/>
				<stop  offset="1" style="stop-color:#901A1D;stop-opacity:0"/>
			</linearGradient>
			<polygon class="st51" points="372.9,432.3 417.1,432.3 454.5,393.5 442,360.6 			"/>
		</g>
		<g>
			<linearGradient id="SVGID_40_" gradientUnits="userSpaceOnUse" x1="477.2042" y1="381.9602" x2="633.7053" y2="224.4589">
				<stop  offset="0" style="stop-color:#C42126"/>
				<stop  offset="1" style="stop-color:#EE2D28"/>
			</linearGradient>
			<polygon class="st52" points="417.1,432.3 419.6,432.3 424.5,446.3 460.4,409 454.5,393.5 			"/>
			<linearGradient id="SVGID_41_" gradientUnits="userSpaceOnUse" x1="475.4865" y1="380.2535" x2="631.9862" y2="222.7536">
				<stop  offset="0" style="stop-color:#C42126"/>
				<stop  offset="1" style="stop-color:#EE2D28"/>
			</linearGradient>
			<polygon class="st53" points="570,273.6 525.9,319.4 525.9,341.1 590.9,273.6 			"/>
		</g>
		<g>
			<linearGradient id="SVGID_42_" gradientUnits="userSpaceOnUse" x1="524.9333" y1="250.201" x2="592.9336" y2="410.2016">
				<stop  offset="0" style="stop-color:#FFCE04"/>
				<stop  offset="4.468220e-02" style="stop-color:#FBB81E"/>
				<stop  offset="0.1167" style="stop-color:#F69A2C"/>
				<stop  offset="0.195" style="stop-color:#F28033"/>
				<stop  offset="0.2789" style="stop-color:#EF6937"/>
				<stop  offset="0.3699" style="stop-color:#ED5339"/>
				<stop  offset="0.4709" style="stop-color:#EC3F3A"/>
				<stop  offset="0.5874" style="stop-color:#EB2D3A"/>
				<stop  offset="0.7331" style="stop-color:#EA203A"/>
				<stop  offset="1" style="stop-color:#EA1B3A"/>
			</linearGradient>
			<polygon class="st54" points="573.3,315.2 609.6,315.2 609.6,273.6 590.9,273.6 525.9,341.1 525.9,428.3 573.3,379.1 			"/>
			<linearGradient id="SVGID_43_" gradientUnits="userSpaceOnUse" x1="390.7502" y1="307.2322" x2="458.7485" y2="467.2282">
				<stop  offset="0" style="stop-color:#FFCE04"/>
				<stop  offset="4.468220e-02" style="stop-color:#FBB81E"/>
				<stop  offset="0.1167" style="stop-color:#F69A2C"/>
				<stop  offset="0.195" style="stop-color:#F28033"/>
				<stop  offset="0.2789" style="stop-color:#EF6937"/>
				<stop  offset="0.3699" style="stop-color:#ED5339"/>
				<stop  offset="0.4709" style="stop-color:#EC3F3A"/>
				<stop  offset="0.5874" style="stop-color:#EB2D3A"/>
				<stop  offset="0.7331" style="stop-color:#EA203A"/>
				<stop  offset="1" style="stop-color:#EA1B3A"/>
			</linearGradient>
			<polygon class="st55" points="479.6,459.1 460.4,409 424.5,446.3 428.9,459.1 			"/>
			<polygon class="st56" points="479.6,459.1 460.4,409 424.5,446.3 428.9,459.1 			"/>
		</g>
		<g>
			<linearGradient id="SVGID_44_" gradientUnits="userSpaceOnUse" x1="459.3932" y1="448.7995" x2="481.8929" y2="471.2992">
				<stop  offset="0" style="stop-color:#C42126;stop-opacity:0"/>
				<stop  offset="1" style="stop-color:#C42126"/>
			</linearGradient>
			<polygon class="st57" points="479.6,459.1 460.4,409 424.5,446.3 428.9,459.1 			"/>
			<linearGradient id="SVGID_45_" gradientUnits="userSpaceOnUse" x1="562.5039" y1="345.6895" x2="585.0039" y2="368.1895">
				<stop  offset="0" style="stop-color:#C42126;stop-opacity:0"/>
				<stop  offset="1" style="stop-color:#C42126"/>
			</linearGradient>
			<polygon class="st58" points="573.3,315.2 609.6,315.2 609.6,273.6 590.9,273.6 525.9,341.1 525.9,428.3 573.3,379.1 			"/>
		</g>
		<g>
			<linearGradient id="SVGID_46_" gradientUnits="userSpaceOnUse" x1="464.0059" y1="453.4122" x2="416.6937" y2="406.1">
				<stop  offset="0" style="stop-color:#FFCE04;stop-opacity:0"/>
				<stop  offset="0.8422" style="stop-color:#FFCE04;stop-opacity:0.9961"/>
				<stop  offset="0.8455" style="stop-color:#FFCE04"/>
			</linearGradient>
			<polygon class="st59" points="479.6,459.1 460.4,409 424.5,446.3 428.9,459.1 			"/>
			<linearGradient id="SVGID_47_" gradientUnits="userSpaceOnUse" x1="575.8505" y1="365.1952" x2="506.5174" y2="243.1951">
				<stop  offset="0" style="stop-color:#FFCE04;stop-opacity:0"/>
				<stop  offset="0.8422" style="stop-color:#FFCE04;stop-opacity:0.9961"/>
				<stop  offset="0.8455" style="stop-color:#FFCE04"/>
			</linearGradient>
			<polygon class="st60" points="573.3,315.2 609.6,315.2 609.6,273.6 590.9,273.6 525.9,341.1 525.9,428.3 573.3,379.1 			"/>
		</g>
		<g>
			<polygon class="st61" points="573.3,420.5 536,459.1 573.3,459.1 			"/>
		</g>
		<g>
			<linearGradient id="SVGID_48_" gradientUnits="userSpaceOnUse" x1="552.4506" y1="437.8129" x2="558.4504" y2="443.3128">
				<stop  offset="0" style="stop-color:#EE2D28"/>
				<stop  offset="1" style="stop-color:#EE2D28;stop-opacity:0"/>
			</linearGradient>
			<polygon class="st62" points="573.3,420.5 536,459.1 573.3,459.1 			"/>
		</g>
		<g>
			<linearGradient id="SVGID_49_" gradientUnits="userSpaceOnUse" x1="521.0051" y1="362.8232" x2="551.0045" y2="431.4884">
				<stop  offset="0" style="stop-color:#FFCE04"/>
				<stop  offset="1" style="stop-color:#FFCE04;stop-opacity:0"/>
			</linearGradient>
			<polygon class="st63" points="573.3,420.5 536,459.1 573.3,459.1 			"/>
		</g>
		<g>
			<linearGradient id="SVGID_50_" gradientUnits="userSpaceOnUse" x1="592.5599" y1="476.5904" x2="569.1888" y2="453.9275">
				<stop  offset="0" style="stop-color:#C72037"/>
				<stop  offset="1" style="stop-color:#C72037;stop-opacity:0"/>
			</linearGradient>
			<polygon class="st64" points="573.3,420.5 536,459.1 573.3,459.1 			"/>
		</g>
		<g>
			<linearGradient id="SVGID_51_" gradientUnits="userSpaceOnUse" x1="544.4255" y1="429.7895" x2="708.4249" y2="257.2899">
				<stop  offset="0" style="stop-color:#9F1C27"/>
				<stop  offset="0.186" style="stop-color:#B51E27"/>
				<stop  offset="0.4485" style="stop-color:#CD1E26"/>
				<stop  offset="0.7174" style="stop-color:#DC1E26"/>
				<stop  offset="1" style="stop-color:#E31E26"/>
			</linearGradient>
			<polygon class="st65" points="525.9,428.3 525.9,459.1 536,459.1 573.3,420.5 573.3,379.1 			"/>
		</g>
		<g>
			<linearGradient id="SVGID_52_" gradientUnits="userSpaceOnUse" x1="566.991" y1="435.1953" x2="548.4211" y2="418.0538">
				<stop  offset="0" style="stop-color:#901A1D;stop-opacity:1"/>
				<stop  offset="0.9441" style="stop-color:#901A1D;stop-opacity:5.585188e-02"/>
				<stop  offset="1" style="stop-color:#901A1D;stop-opacity:0"/>
			</linearGradient>
			<polygon class="st66" points="525.9,428.3 525.9,459.1 536,459.1 573.3,420.5 573.3,379.1 			"/>
		</g>
		<g>
			<radialGradient id="SVGID_53_" cx="555.8751" cy="302.3179" r="108.0002" gradientUnits="userSpaceOnUse">
				<stop  offset="0" style="stop-color:#E93125"/>
				<stop  offset="1" style="stop-color:#E93125;stop-opacity:0"/>
			</radialGradient>
			<path class="st67" d="M609.6,315.2v-41.6H489.3v41.6h36.6v90.9c9.5,2.8,19.6,4.2,30,4.2c5.9,0,11.7-0.5,17.4-1.4v-93.7H609.6z"/>
		</g>
		<g>
			<radialGradient id="SVGID_54_" cx="475.8749" cy="352.3176" r="107.9996" gradientUnits="userSpaceOnUse">
				<stop  offset="0" style="stop-color:#E93125"/>
				<stop  offset="1" style="stop-color:#E93125;stop-opacity:0"/>
			</radialGradient>
			<path class="st68" d="M408.8,273.5H402c-21,19.7-34.1,47.7-34.1,78.8c0,9.7,1.3,19.1,3.7,28.1l15.1-44.1l20,58.4h-27.9l-1,3
				c6.1,13.2,14.8,25,25.5,34.6h16.3l5.2,15.2c10.7,5.8,22.5,9.8,35.1,11.6h19.6L408.8,273.5z"/>
			<radialGradient id="SVGID_55_" cx="475.875" cy="352.3183" r="108" gradientUnits="userSpaceOnUse">
				<stop  offset="0" style="stop-color:#E93125"/>
				<stop  offset="1" style="stop-color:#E93125;stop-opacity:0"/>
			</radialGradient>
			<path class="st69" d="M549.8,273.6h-60.5v41.6h36.6v132.9c20.6-10.8,37.3-28,47.4-49v-83.9h4.1C571.5,299.2,562,285,549.8,273.6z
				"/>
		</g>
		<radialGradient id="SVGID_56_" cx="441.2075" cy="391.9843" r="52.6269" gradientUnits="userSpaceOnUse">
			<stop  offset="0" style="stop-color:#C42126"/>
			<stop  offset="1" style="stop-color:#C42126;stop-opacity:0"/>
		</radialGradient>
		<path class="st70" d="M470.6,435.6l-36.5-95.8c-16,2.2-29.7,11.5-37.8,24.6l10.4,30.2h-18.1c0.8,15.1,7.9,28.5,18.8,37.6h12.2
			l3.1,8.9c5.8,2.2,12,3.3,18.5,3.3C452.1,444.6,462.2,441.3,470.6,435.6z"/>
		<g>
			<radialGradient id="SVGID_57_" cx="558.8749" cy="412.3175" r="107.9996" gradientUnits="userSpaceOnUse">
				<stop  offset="0" style="stop-color:#9E1C27"/>
				<stop  offset="1" style="stop-color:#9E1C27;stop-opacity:0"/>
			</radialGradient>
			<path class="st71" d="M453.2,389.9c-1.5,7.2-2.3,14.7-2.3,22.4c0,16.8,3.8,32.7,10.7,46.8h18L453.2,389.9z"/>
			<radialGradient id="SVGID_58_" cx="558.8749" cy="412.3178" r="107.9995" gradientUnits="userSpaceOnUse">
				<stop  offset="0" style="stop-color:#9E1C27"/>
				<stop  offset="1" style="stop-color:#9E1C27;stop-opacity:0"/>
			</radialGradient>
			<path class="st72" d="M525.9,459.1h47.4V315.2h32.9c-14.3-7-30.3-10.9-47.3-10.9c-17,0-33,3.9-47.3,10.9h14.3V459.1z"/>
		</g>
		<path class="st73" d="M771.4,405.7c0-5.1-0.5-9.8-1.7-14.4l-68.6,71.2c1.8,0.1,3.7,0.1,5.6,0.1
			C755.9,462.7,771.4,432.8,771.4,405.7z"/>
		<linearGradient id="SVGID_59_" gradientUnits="userSpaceOnUse" x1="779.7184" y1="468.4572" x2="717.3956" y2="410.0333">
			<stop  offset="0" style="stop-color:#EE3234"/>
			<stop  offset="1" style="stop-color:#EE3234;stop-opacity:0"/>
		</linearGradient>
		<path class="st74" d="M771.4,405.7c0-5.1-0.5-9.8-1.7-14.4l-68.6,71.2c1.8,0.1,3.7,0.1,5.6,0.1
			C755.9,462.7,771.4,432.8,771.4,405.7z"/>
		<linearGradient id="SVGID_60_" gradientUnits="userSpaceOnUse" x1="543.3691" y1="430.6887" x2="707.3709" y2="258.1868">
			<stop  offset="0" style="stop-color:#9C1C2A"/>
			<stop  offset="0.2072" style="stop-color:#B41E2A"/>
			<stop  offset="0.4629" style="stop-color:#CB1E28"/>
			<stop  offset="0.7248" style="stop-color:#DA1F27"/>
			<stop  offset="1" style="stop-color:#E01F27"/>
		</linearGradient>
		<path class="st75" d="M707.5,270.1c-17.3,0-35.5,6.1-48.2,17.6l-5.4,5.6c-7,8.4-11.4,19-11.4,31.5c0,6.9,1.3,12.9,3.4,18.2
			l69.8-72.4C713,270.3,710.2,270.1,707.5,270.1z"/>
		<linearGradient id="SVGID_61_" gradientUnits="userSpaceOnUse" x1="682.2919" y1="308.1226" x2="663.7227" y2="290.9818">
			<stop  offset="0" style="stop-color:#8E191F;stop-opacity:1"/>
			<stop  offset="0.9441" style="stop-color:#8E191F;stop-opacity:5.585188e-02"/>
			<stop  offset="1" style="stop-color:#8E191F;stop-opacity:0"/>
		</linearGradient>
		<path class="st76" d="M707.5,270.1c-17.3,0-35.5,6.1-48.2,17.6l-5.4,5.6c-7,8.4-11.4,19-11.4,31.5c0,6.9,1.3,12.9,3.4,18.2
			l69.8-72.4C713,270.3,710.2,270.1,707.5,270.1z"/>
		<linearGradient id="SVGID_62_" gradientUnits="userSpaceOnUse" x1="591.3621" y1="305.0536" x2="821.0201" y2="309.0247">
			<stop  offset="0" style="stop-color:#FFCE04"/>
			<stop  offset="4.468220e-02" style="stop-color:#FBB81E"/>
			<stop  offset="0.1167" style="stop-color:#F69A2C"/>
			<stop  offset="0.195" style="stop-color:#F28033"/>
			<stop  offset="0.2789" style="stop-color:#EF6937"/>
			<stop  offset="0.3699" style="stop-color:#ED5339"/>
			<stop  offset="0.4709" style="stop-color:#EC3F3A"/>
			<stop  offset="0.5874" style="stop-color:#EB2D3A"/>
			<stop  offset="0.7331" style="stop-color:#EA203A"/>
			<stop  offset="1" style="stop-color:#EA1B3A"/>
		</linearGradient>
		<path class="st77" d="M707.5,270.1c-17.3,0-35.5,6.1-48.2,17.6l-5.4,5.6c-7,8.4-11.4,19-11.4,31.5c0,6.9,1.3,12.9,3.4,18.2
			l69.8-72.4C713,270.3,710.2,270.1,707.5,270.1z"/>
		<radialGradient id="SVGID_63_" cx="553.8759" cy="302.3184" r="108.0004" gradientUnits="userSpaceOnUse">
			<stop  offset="0" style="stop-color:#E6322B"/>
			<stop  offset="1" style="stop-color:#E6322B;stop-opacity:0"/>
		</radialGradient>
		<path class="st78" d="M660.7,286.4c-10.9,9.2-18.2,22.1-18.2,38.3c0,10.7,3.1,19.4,7.7,26.4c7.4-14.7,11.7-31.3,11.7-48.8
			C661.9,296.9,661.5,291.6,660.7,286.4z"/>
		<path class="st79" d="M728,352.6c-33.4-15-38.4-17.3-38.4-28.3c0-8.8,8-14.5,16.3-14.5c14.5,0,16,11.8,17.1,18.1h46.9
			c-0.5-10.5-1.3-23.1-12.3-36.6c-10.2-12.2-26.1-18.9-41.9-20.6L645.9,343c8.7,21.5,31.5,30.7,42,34.9c28.6,12,36.4,15,36.4,27.3
			c0,8.5-6.8,17.8-18.1,17.8c-6,0-19.3-3.8-19.3-25.3h-47.1v6c0,23.3,12.7,57.3,63.2,58.9l67.1-69.7
			C766.6,377.5,755.4,364.9,728,352.6z"/>
		
			<linearGradient id="SVGID_64_" gradientUnits="userSpaceOnUse" x1="1111.7196" y1="759.1196" x2="1117.7195" y2="764.6195" gradientTransform="matrix(1.7432 0.7159 0.7159 1.6897 -1831.2863 -1764.0957)">
			<stop  offset="0" style="stop-color:#EE2E2D"/>
			<stop  offset="1" style="stop-color:#EE2E2D;stop-opacity:0"/>
		</linearGradient>
		<path class="st80" d="M728,352.6c-33.4-15-38.4-17.3-38.4-28.3c0-8.8,8-14.5,16.3-14.5c14.5,0,16,11.8,17.1,18.1h46.9
			c-0.5-10.5-1.3-23.1-12.3-36.6c-10.2-12.2-26.1-18.9-41.9-20.6L645.9,343c8.7,21.5,31.5,30.7,42,34.9c28.6,12,36.4,15,36.4,27.3
			c0,8.5-6.8,17.8-18.1,17.8c-6,0-19.3-3.8-19.3-25.3h-47.1v6c0,23.3,12.7,57.3,63.2,58.9l67.1-69.7
			C766.6,377.5,755.4,364.9,728,352.6z"/>
		
			<linearGradient id="SVGID_65_" gradientUnits="userSpaceOnUse" x1="1155.5648" y1="800.4167" x2="1132.1924" y2="777.7524" gradientTransform="matrix(1.7432 0.7159 0.7159 1.6897 -1831.2863 -1764.0957)">
			<stop  offset="0" style="stop-color:#C72037"/>
			<stop  offset="1" style="stop-color:#C72037;stop-opacity:0"/>
		</linearGradient>
		<path class="st81" d="M728,352.6c-33.4-15-38.4-17.3-38.4-28.3c0-8.8,8-14.5,16.3-14.5c14.5,0,16,11.8,17.1,18.1h46.9
			c-0.5-10.5-1.3-23.1-12.3-36.6c-10.2-12.2-26.1-18.9-41.9-20.6L645.9,343c8.7,21.5,31.5,30.7,42,34.9c28.6,12,36.4,15,36.4,27.3
			c0,8.5-6.8,17.8-18.1,17.8c-6,0-19.3-3.8-19.3-25.3h-47.1v6c0,23.3,12.7,57.3,63.2,58.9l67.1-69.7
			C766.6,377.5,755.4,364.9,728,352.6z"/>
		
			<linearGradient id="SVGID_66_" gradientUnits="userSpaceOnUse" x1="1116.3453" y1="738.2073" x2="1146.3444" y2="806.8717" gradientTransform="matrix(1.7432 0.7159 0.7159 1.6897 -1831.2863 -1764.0957)">
			<stop  offset="0" style="stop-color:#EE3234"/>
			<stop  offset="1" style="stop-color:#EE3234;stop-opacity:0"/>
		</linearGradient>
		<path class="st82" d="M728,352.6c-33.4-15-38.4-17.3-38.4-28.3c0-8.8,8-14.5,16.3-14.5c14.5,0,16,11.8,17.1,18.1h46.9
			c-0.5-10.5-1.3-23.1-12.3-36.6c-10.2-12.2-26.1-18.9-41.9-20.6L645.9,343c8.7,21.5,31.5,30.7,42,34.9c28.6,12,36.4,15,36.4,27.3
			c0,8.5-6.8,17.8-18.1,17.8c-6,0-19.3-3.8-19.3-25.3h-47.1v6c0,23.3,12.7,57.3,63.2,58.9l67.1-69.7
			C766.6,377.5,755.4,364.9,728,352.6z"/>
		<radialGradient id="SVGID_67_" cx="556.8757" cy="412.3189" r="108.0005" gradientUnits="userSpaceOnUse">
			<stop  offset="0" style="stop-color:#9C1B2A"/>
			<stop  offset="1" style="stop-color:#9C1B2A;stop-opacity:0"/>
		</radialGradient>
		<path class="st83" d="M663.9,397.7h-24.1v6c0,14,4.6,31.8,19.1,44.1c3.9-11.1,6-23.1,6-35.6C664.9,407.4,664.5,402.5,663.9,397.7z
			"/>
		<g class="st84">
			<path class="st85" d="M715.7,270.6c-2.8-0.3-5.5-0.5-8.3-0.5c-2,0-4.1,0.1-6.1,0.3L642.9,331c0.5,4.4,1.6,8.3,3,11.9L715.7,270.6
				z"/>
		</g>
		<path class="st86" d="M131.6,405.7c0-7.6-1.1-14.5-4-20.9l-74.2,77c4.2,0.5,8.7,0.8,13.5,0.8C116.1,462.7,131.6,432.8,131.6,405.7
			z"/>
		<path class="st12" d="M67.7,270.1c-31.1,0-64.9,19.8-64.9,54.7c0,4.3,0.5,8.3,1.4,11.9l64.1-66.6
			C68.1,270.1,67.9,270.1,67.7,270.1z"/>
		<path class="st10" d="M88.3,352.6c-33.4-15-38.4-17.3-38.4-28.3c0-8.8,8-14.5,16.3-14.5c14.5,0,16,11.8,17,18.1h46.9
			c-0.5-10.5-1.3-23.1-12.3-36.6c-11.9-14.1-31.4-20.9-49.6-21L4.1,336.7c6.3,26,32.6,36.6,44,41.2c28.6,12,36.4,15,36.4,27.3
			c0,8.5-6.8,17.8-18.1,17.8c-6,0-19.3-3.8-19.3-25.3H0v6c0,22,11.4,53.7,55.5,58.3l72.8-75.6C123.3,373.9,111.7,363.1,88.3,352.6z"
			/>
		
			<linearGradient id="SVGID_68_" gradientUnits="userSpaceOnUse" x1="-14.0199" y1="251.3269" x2="35.9801" y2="348.3268" gradientTransform="matrix(1.0398 3.830000e-02 3.830000e-02 1.0369 26.0435 24.808)">
			<stop  offset="0" style="stop-color:#FFCE04"/>
			<stop  offset="4.468220e-02" style="stop-color:#FBB81E"/>
			<stop  offset="0.1167" style="stop-color:#F69A2C"/>
			<stop  offset="0.195" style="stop-color:#F28033"/>
			<stop  offset="0.2789" style="stop-color:#EF6937"/>
			<stop  offset="0.3699" style="stop-color:#ED5339"/>
			<stop  offset="0.4709" style="stop-color:#EC3F3A"/>
			<stop  offset="0.5874" style="stop-color:#EB2D3A"/>
			<stop  offset="0.7331" style="stop-color:#EA203A"/>
			<stop  offset="1" style="stop-color:#EA1B3A"/>
		</linearGradient>
		<path class="st87" d="M88.3,352.6c-33.4-15-38.4-17.3-38.4-28.3c0-8.8,8-14.5,16.3-14.5c14.5,0,16,11.8,17,18.1h46.9
			c-0.5-10.5-1.3-23.1-12.3-36.6c-11.9-14.1-31.4-20.9-49.6-21L4.1,336.7c6.3,26,32.6,36.6,44,41.2c28.6,12,36.4,15,36.4,27.3
			c0,8.5-6.8,17.8-18.1,17.8c-6,0-19.3-3.8-19.3-25.3H0v6c0,22,11.4,53.7,55.5,58.3l72.8-75.6C123.3,373.9,111.7,363.1,88.3,352.6z"
			/>
		<path class="st88" d="M127.6,384.8l-74.2,77c3.5,0.4,7.1,0.7,11,0.8l66.1-68.6C129.9,390.9,129,387.8,127.6,384.8z"/>
		
			<linearGradient id="SVGID_69_" gradientUnits="userSpaceOnUse" x1="148.618" y1="368.0279" x2="233.3731" y2="281.5363" gradientTransform="matrix(1.0143 -1.480000e-02 -1.480000e-02 1.0154 -79.1773 82.824)">
			<stop  offset="5.102040e-03" style="stop-color:#CA2127"/>
			<stop  offset="0.1801" style="stop-color:#CA2527"/>
			<stop  offset="0.3217" style="stop-color:#CC3227"/>
			<stop  offset="0.4517" style="stop-color:#CF4328"/>
			<stop  offset="0.5747" style="stop-color:#D45828"/>
			<stop  offset="0.6929" style="stop-color:#DB702A"/>
			<stop  offset="0.8074" style="stop-color:#E38B2C"/>
			<stop  offset="0.9167" style="stop-color:#F0AC2F"/>
			<stop  offset="1" style="stop-color:#FECC31"/>
		</linearGradient>
		<path class="st89" d="M127.6,384.8l-74.2,77c3.5,0.4,7.1,0.7,11,0.8l66.1-68.6C129.9,390.9,129,387.8,127.6,384.8z"/>
		
			<linearGradient id="SVGID_70_" gradientUnits="userSpaceOnUse" x1="126.4102" y1="390.9432" x2="211.1739" y2="304.4427" gradientTransform="matrix(1.0044 -4.500000e-03 -4.500000e-03 1.0047 -59.5798 62.5994)">
			<stop  offset="5.102040e-03" style="stop-color:#CA2127"/>
			<stop  offset="0.4555" style="stop-color:#D22628"/>
			<stop  offset="1" style="stop-color:#E6322B"/>
		</linearGradient>
		<path class="st90" d="M127.6,384.8l-74.2,77c3.5,0.4,7.1,0.7,11,0.8l66.1-68.6C129.9,390.9,129,387.8,127.6,384.8z"/>
		
			<linearGradient id="SVGID_71_" gradientUnits="userSpaceOnUse" x1="226.1696" y1="282.3682" x2="233.0511" y2="289.2497" gradientTransform="matrix(1.024 -2.500000e-02 -2.500000e-02 1.0259 -134.6209 138.6672)">
			<stop  offset="5.102040e-03" style="stop-color:#EA1B3A"/>
			<stop  offset="1" style="stop-color:#EA1B3A;stop-opacity:0"/>
		</linearGradient>
		<path class="st91" d="M127.6,384.8l-74.2,77c3.5,0.4,7.1,0.7,11,0.8l66.1-68.6C129.9,390.9,129,387.8,127.6,384.8z"/>
	</g>
</g>
<g id="shadow" class="st92">
	<g class="st93">
		<path class="st94" d="M455.1,646c-72.2-2.3-281.2,10.1-281,18c0.1,7.6,110.3,11.6,155.2,13.2c40.1,1.5,285.8-9.7,285.7-17.2
			C614.8,650.9,479.2,646.7,455.1,646z"/>
	</g>
	<g class="st95">
		<path class="st94" d="M545.6,634.4c-161.7-8.3-261.4-2.4-295.5-0.2c-54.7,3.6-200.8,13.3-201.3,31.2
			c-0.4,13.9,87.8,26.5,125.2,31.9c72.9,10.4,211.3,24,420.6-6.8c49.4-7.3,142.6-21,142-33.5C736,644.2,638.5,639.2,545.6,634.4z"/>
	</g>
</g>
</svg>
