<?xml version="1.0" encoding="utf-8"?>
<!-- Generator: Adobe Illustrator 21.1.0, SVG Export Plug-In . SVG Version: 6.00 Build 0)  -->
<svg version="1.1" id="Layer_1" xmlns="http://www.w3.org/2000/svg" xmlns:xlink="http://www.w3.org/1999/xlink" x="0px" y="0px"
	 viewBox="0 0 230 250" style="enable-background:new 0 0 230 250;" xml:space="preserve">
<style type="text/css">
	.st0{fill:#FFFFFF;}
	.st1{fill:#535353;}
	.st2{fill:#181818;}
</style>
<g id="MLB">
	<path class="st0" d="M81.2,91.3H154c13.3,0,24.3,2.7,24.3,6v56.2c0,3.3-0.3,6-24.3,6s-72.8,0-72.8,0c-13.3,0-24.3-2.7-24.3-6V97.1
		C56.7,93.9,67.7,91.3,81.2,91.3z"/>
	<path class="st1" d="M180.3,97.6l-0.5-1.8c-0.8-2.3-3.3-4.2-5.7-4.5H142l16.8,29.8l1.3,0.3c0.7,1.3,2.2,2.3,1.8,4
		c1.3-0.2,1.7,1.5,2.5,2.2l-0.2,1.2h0.2c1.2-0.3,1.5,1.2,2.3,1.8l-0.3,2.3l5.2,3c1.8,1,2,3.2,3.2,4.7c0.7,1.3,2.7,2.2,2,3.8l-3,6
		c-0.8,1.3-2.2,2.2-3.7,2.3h-11.7v6.7H173c1.3,0.2,2.5-0.3,3.5-0.8c2.2-1.2,3.7-3.3,4-5.8v-45.3L180.3,97.6z"/>
	<path class="st2" d="M128.3,91.3H56.7l-2.3,0.7c-2.3,1-4,3.5-4.3,6v54c0,1.3,0.3,2.3,0.7,3.5c1,2.2,3.3,3.7,5.5,4h48.2l-2.8-5.5
		h-5.8c0-9.2,2-18.3,10.2-23l-0.5-4h-1.5l-2-0.5v-0.8l2.8-6.2l-1-1.3h-9c2.7-2.2,5.3-4.5,8.2-6.7c0.2-1.2,0.2-2.2,0.3-3.3
		c0.3-3.7,3.2-7.3,6.5-8.3c5.8-2,13.2-1.3,17.7,3.2c4.3,4,4.3,9.8,4,15.8h-0.7c0,1.5-0.2,3,0.3,4.2l1,1h12.5l1.3,0.2l4.7,2.3l1.5-4
		L128.3,91.3z M70,145.3c-0.5,1.8-2.3,3.5-4.2,3.8c-2.3,0.3-4.3-0.7-5.5-2.8c-1-1.8-0.8-4.5,0.5-6c1.3-1.7,3.2-2.2,5.2-1.8
		c1.3,0.3,2.5,1.2,3.3,2.5C70.2,141.9,70.5,143.8,70,145.3z"/>
</g>
</svg>
