<?xml version="1.0" encoding="utf-8"?>
<!-- Generator: Adobe Illustrator 21.1.0, SVG Export Plug-In . SVG Version: 6.00 Build 0)  -->
<svg version="1.1" id="Layer_1" xmlns="http://www.w3.org/2000/svg" xmlns:xlink="http://www.w3.org/1999/xlink" x="0px" y="0px"
	 viewBox="0 0 230 250" style="enable-background:new 0 0 230 250;" xml:space="preserve">
<style type="text/css">
	.st0{fill:#616161;}
</style>
<path id="espn" class="st0" d="M88.4,106.9c-5.5,0-9.2,2.8-9.7,7.2c-0.1,1.5-0.4,3-0.4,3H150c0,0,0.1-1,0.3-1.9
	c0.5-4.4-1.3-8.4-8.1-8.4l0,0C142.2,106.9,91.4,106.9,88.4,106.9L88.4,106.9z M44.8,106.9l-1.3,10.2H76l1.3-10.2H44.8L44.8,106.9z
	 M153.7,106.9l-1.3,10.2h35.2c0,0,0-0.4,0.3-1.5c0.9-6.7-3.5-8.6-7.6-8.6H153.7L153.7,106.9z M152,121.1l-2.7,22.3h12.1l2.7-22.3
	H152L152,121.1z M175.1,121.1l-2.7,22.3h12.1l2.7-22.3H175.1L175.1,121.1z M43,121.1l-2.7,22.3h32.5l1.2-9.7H53.6l0.5-4.1h20.4
	l1-8.5H43L43,121.1z M78,121.1c-0.9,5.8,2.1,8.5,6.2,8.5c2.2,0,16.4,0,16.4,0l-0.5,4.1H76.4l-1.2,9.7c0,0,25.7,0,26.7,0
	c0.9,0,6.8-0.3,8.9-5.2c0.6-1.5,1.3-7.4,1.4-8.5c0.9-7-3.9-8.6-7.7-8.6C102.5,121.1,82.1,121.1,78,121.1z M115.8,121.1l-2.7,22.3
	h12.1l1.7-13.8h15.2c4.4,0,6.7-2.3,7.1-5.4c0.3-1.5,0.4-3,0.4-3L115.8,121.1L115.8,121.1z"/>
</svg>
