<?xml version="1.0" encoding="utf-8"?>
<!-- Generator: Adobe Illustrator 21.1.0, SVG Export Plug-In . SVG Version: 6.00 Build 0)  -->
<svg version="1.1" id="Layer_1" xmlns="http://www.w3.org/2000/svg" xmlns:xlink="http://www.w3.org/1999/xlink" x="0px" y="0px"
	 viewBox="0 0 230 250" style="enable-background:new 0 0 230 250;" xml:space="preserve">
<style type="text/css">
	.st0{fill:#E0E0E0;}
	.st1{fill:#FFFFFF;}
</style>
<g id="Snap">
	<path class="st0" d="M63.4,149.2c0,0,0,4.4,0.6,6.6c0.4,2.4,0.9,4.6,2,6.6c1.5,2.8,3.7,5.2,6.3,7.2c1.8,1.5,3.9,2.6,6.3,3.3
		c3.3,1.1,6.8,1.5,10.3,1.5c2.2,0,4.4,0,6.5,0c15.9,0,31.6,0.2,47.4-0.2c2,0,4.2-0.2,6.3-0.6c3.9-0.7,7.4-2.2,10.3-4.8
		c3.5-3,5.9-6.6,6.8-11.1c0.7-3,0.9-5.7,0.9-8.7v-0.6c0-0.2,0-49.6-0.2-50.2c0-1.8-0.2-3.5-0.6-5.4c-0.4-2.2-1.1-4.2-2-6.3
		c-1.1-2-2.6-3.9-4.2-5.5c-2.8-2.4-5.7-4.2-9.4-5.2c-3.3-0.9-6.6-1.1-10-1.1l0,0H90l0,0c-1.8,0-3.9,0-5.7,0.2
		c-2,0.2-4.1,0.6-6.1,1.3c-3.1,1.1-5.7,2.8-8.1,5.2c-2.6,2.6-4.4,5.5-5.4,9c-0.7,2.8-1.1,5.7-1.1,8.7c0,0.2,0,0.6,0,0.7L63.4,149.2z
		"/>
	<path class="st1" d="M115.9,158.8c-0.2,0-0.4,0-0.6,0c-0.2,0-0.2,0-0.4,0c-4.4,0-7.6-2-10.2-3.9c-1.8-1.3-3.7-2.6-5.9-2.8
		c-1.1-0.2-2-0.2-3.1-0.2c-1.8,0-3.1,0.2-4.2,0.4c-0.6,0.2-1.1,0.2-1.7,0.2c-0.4,0-0.9-0.2-1.3-0.9c-0.2-0.6-0.4-1.1-0.4-1.7
		c-0.4-1.3-0.6-2.2-1.1-2.2c-5.7-0.9-9-2-9.6-3.5c0-0.2-0.2-0.4-0.2-0.6c0-0.4,0.4-0.9,0.7-0.9c4.4-0.7,8.5-3,11.8-6.8
		c2.6-3,3.9-5.7,4.1-6.1l0,0c0.7-1.3,0.7-2.4,0.4-3.3c-0.7-1.7-3.1-2.4-4.8-3c-0.4-0.2-0.7-0.2-1.1-0.4c-1.5-0.6-3.7-1.7-3.5-3.3
		c0.2-1.1,1.8-1.8,3.1-1.8c0.4,0,0.7,0,0.9,0.2c1.5,0.7,2.8,0.9,3.9,0.9c1.5,0,2-0.6,2.2-0.7c0-0.7,0-1.5-0.2-2.2
		c-0.4-5-0.7-11.1,0.9-14.6c5-10.5,15.3-11.4,18.5-11.4c0.6,0,1.1,0,1.5,0c3.1,0,13.7,0.7,18.5,11.4c1.7,3.5,1.3,9.8,0.9,14.8v0.2
		c0,0.7,0,1.3-0.2,1.8c0.2,0.2,0.7,0.6,2,0.6c1.1,0,2.2-0.4,3.7-0.9c0.4-0.2,0.9-0.2,1.1-0.2c0.6,0,0.9,0,1.3,0.2l0,0
		c1.1,0.4,1.8,1.1,1.8,2c0,0.7-0.6,1.8-3.5,3c-0.4,0.2-0.7,0.2-1.1,0.4c-1.7,0.6-4.1,1.3-4.8,3c-0.4,0.9-0.2,2,0.4,3.3l0,0
		c0.2,0.4,5.2,11.1,15.9,12.7c0.4,0,0.7,0.6,0.7,0.9c0,0.2,0,0.4-0.2,0.6c-0.7,1.5-4.1,2.8-9.6,3.5c-0.6,0-0.7,0.9-1.1,2.2
		c-0.2,0.6-0.2,1.1-0.4,1.7c-0.2,0.6-0.6,0.7-1.1,0.7l0,0c-0.4,0-0.9,0-1.7-0.2c-1.1-0.2-2.6-0.4-4.2-0.4c-0.9,0-2,0-3.1,0.2
		c-2,0.4-3.9,1.5-5.9,2.8C123.2,156.8,120.3,158.8,115.9,158.8"/>
	<path d="M116,91.4c3,0,12.9,0.7,17.7,10.9c1.5,3.3,1.1,9.4,0.9,14.2c0,0.7-0.2,1.5-0.2,2.2v0.4l0.2,0.2c0,0,0.9,0.9,2.8,0.9l0,0
		l0,0c1.1,0,2.6-0.4,4.1-1.1c0.2-0.2,0.6-0.2,0.7-0.2c0.4,0,0.7,0,0.9,0.2l0,0c0.7,0.2,1.3,0.7,1.3,1.1c0,0.2-0.2,1.1-3,2.2
		c-0.2,0.2-0.6,0.2-1.1,0.4c-1.8,0.6-4.4,1.3-5.4,3.3c-0.6,1.1-0.4,2.4,0.4,4.1c0.4,0.7,5.4,11.6,16.6,13.3v0.2
		c-0.2,0.4-1.5,1.8-9,3.1c-1.1,0.2-1.5,1.5-1.8,3c-0.2,0.6-0.2,1.1-0.4,1.7c0,0.2,0,0.2-0.2,0.2l0,0c-0.4,0-0.9,0-1.5-0.2
		c-1.1-0.2-2.6-0.4-4.4-0.4c-1.1,0-2.2,0-3.1,0.2c-2.4,0.4-4.2,1.7-6.3,3c-2.8,1.8-5.5,3.7-9.6,3.7c-0.2,0-0.4,0-0.6,0l0,0l0,0
		c-0.2,0-0.2,0-0.4,0c-4.2,0-7-1.8-9.6-3.7c-2-1.3-3.9-2.6-6.3-3c-1.1-0.2-2.2-0.2-3.1-0.2c-1.8,0-3.3,0.2-4.4,0.6
		c-0.6,0.2-1.1,0.2-1.5,0.2c-0.2,0-0.4,0-0.4-0.2c-0.2-0.6-0.4-1.1-0.4-1.7c-0.4-1.5-0.6-2.8-1.8-3c-7.6-1.1-8.9-2.6-9-3.1v-0.2
		c11.3-1.8,16.2-12.6,16.6-13.3c0.7-1.5,0.9-2.8,0.4-4.1c-0.9-2-3.5-2.8-5.4-3.3c-0.4-0.2-0.7-0.2-1.1-0.4c-2.2-0.9-3-1.7-3-2.2
		c0.2-0.6,1.3-1.3,2.2-1.3c0.2,0,0.4,0,0.6,0.2c1.5,0.7,3,1.1,4.2,1.1c2,0,2.8-0.9,3-0.9l0.2-0.2v-0.4c0-0.7,0-1.5-0.2-2.2
		c-0.4-4.8-0.7-10.9,0.9-14.2c4.8-10.2,14.8-10.9,17.7-10.9C114.6,91.4,115.9,91.4,116,91.4C115.9,91.4,116,91.4,116,91.4 M116,89.8
		L116,89.8h-0.2h-1.3c-1.7,0-5.2,0.2-8.9,1.8c-2,0.9-4.1,2-5.7,3.7c-2,1.8-3.5,4.1-4.8,6.5c-1.7,3.7-1.3,10-0.9,15.1l0,0
		c0,0.6,0,1.1,0.2,1.7c-0.2,0.2-0.7,0.2-1.3,0.2c-0.9,0-2.2-0.4-3.5-0.9c-0.4-0.2-0.7-0.2-1.3-0.2c-0.7,0-1.7,0.2-2.4,0.6
		c-0.9,0.6-1.5,1.3-1.7,2c-0.2,0.6-0.2,1.5,1.1,2.6c0.7,0.6,1.7,1.1,3,1.7c0.4,0.2,0.7,0.2,1.1,0.4c1.5,0.4,3.7,1.1,4.2,2.4
		c0.4,0.7,0.2,1.5-0.4,2.6l0,0c-0.2,0.4-1.3,3-3.9,5.9c-1.5,1.7-3,3-4.8,4.1c-2,1.3-4.2,2-6.6,2.4c-0.9,0.2-1.7,0.9-1.5,1.8
		c0,0.2,0,0.6,0.2,0.7l0,0c0.4,0.9,1.3,1.5,2.6,2.2c1.7,0.7,4.2,1.5,7.6,1.8c0.2,0.4,0.4,1.1,0.6,1.7c0.2,0.6,0.2,1.1,0.4,1.7
		c0.2,0.7,0.7,1.5,2,1.5c0.6,0,1.1-0.2,1.8-0.2c0.9-0.2,2.4-0.4,4.1-0.4c0.9,0,1.8,0,3,0.2c1.8,0.4,3.5,1.5,5.5,2.8
		c2.8,1.8,5.9,4.1,10.7,4.1c0.2,0,0.2,0,0.4,0s0.4,0,0.6,0c4.8,0,7.9-2.2,10.7-4.1l0,0c1.8-1.3,3.5-2.4,5.5-2.8c0.9-0.2,2-0.2,3-0.2
		c1.7,0,3,0.2,4.1,0.4c0.7,0.2,1.3,0.2,1.8,0.2l0,0l0,0c0.9,0,1.7-0.6,2-1.5c0.2-0.6,0.4-1.1,0.4-1.7c0.2-0.6,0.4-1.3,0.6-1.7
		c3.3-0.6,5.9-1.1,7.6-1.8c1.5-0.6,2.2-1.3,2.6-2.2c0.2-0.2,0.2-0.6,0.2-0.7c0-0.9-0.6-1.7-1.5-1.8c-10.3-1.7-15.1-11.8-15.3-12.4
		l0,0c-0.6-1.1-0.7-1.8-0.4-2.6c0.6-1.3,2.8-2,4.2-2.4c0.4-0.2,0.7-0.2,1.1-0.4c1.5-0.6,2.4-1.1,3.1-1.8c0.7-0.7,0.9-1.5,0.9-2
		c0-1.1-0.9-2.2-2.6-2.8c-0.6-0.2-1.1-0.4-1.7-0.4c-0.4,0-0.9,0-1.7,0.4c-1.3,0.6-2.2,0.9-3.3,0.9c-0.6,0-0.9-0.2-1.1-0.2
		c0-0.6,0-0.9,0-1.5v-0.2c0.4-5,0.7-11.3-0.9-15.1c-1.1-2.6-2.8-4.8-4.8-6.5c-1.7-1.5-3.5-2.8-5.7-3.7
		C121.2,89.9,117.7,89.8,116,89.8"/>
</g>
</svg>
