<?xml version="1.0" encoding="utf-8"?>
<!-- Generator: Adobe Illustrator 21.1.0, SVG Export Plug-In . SVG Version: 6.00 Build 0)  -->
<svg version="1.1" id="Layer_1" xmlns="http://www.w3.org/2000/svg" xmlns:xlink="http://www.w3.org/1999/xlink" x="0px" y="0px"
	 viewBox="0 0 230 250" style="enable-background:new 0 0 230 250;" xml:space="preserve">
<style type="text/css">
	.st0{stroke:#000000;stroke-width:3.4;}
	.st1{fill:none;stroke:#ACACAC;}
	.st2{fill:#ACACAC;}
	.st3{display:none;}
	.st4{fill:#FFFFFF;}
	.st5{stroke:#000000;stroke-width:0.68;}
	.st6{fill:#FFFFFF;stroke:#FFFFFF;stroke-width:2.2181;}
	.st7{stroke:#000000;stroke-width:7.344000e-02;}
</style>
<g id="PGA">
	<ellipse class="st0" cx="114.4" cy="124.5" rx="59.6" ry="59.5"/>
	<ellipse class="st1" cx="114.4" cy="124.7" rx="60.4" ry="60"/>
	<ellipse class="st2" cx="114.4" cy="124.9" rx="44.3" ry="44.1"/>
	<path class="st3" d="M112.3,92.2c-0.4,0-0.8,0.4-0.8,0.8c0.8-0.2,0.9-0.2,1.7,0C113.3,92.6,112.9,92.2,112.3,92.2z"/>
	<path class="st4" d="M77.3,116.8v2.3c0,0,1.3-0.2,2.4,0.4c1.1,0.4,1.5,1.5,1.5,1.5s0,9.4,0,9.9c-0.2,0.6-0.4,0.8-0.6,1.1
		c-0.2,0.2-0.8,0.8-1.3,0.8c-0.8,0.2-1.9,0.2-1.9,0.2v2.3h14.3V133c0,0-1.3,0.2-2.3-0.2c-0.6-0.2-0.9-0.2-1.3-0.6
		c-0.6-0.6-1.1-1.3-1.1-1.3c0-0.6,0-3.9,0-3.9s7.5,0,8.3,0s2.3-0.4,2.8-0.6c0.6-0.2,2.1-1.1,2.4-1.9c0.4-0.6,0.8-1.3,0.8-2.8
		c0-1.5-1.1-3.2-2.3-3.9c-0.6-0.2-1.5-0.8-2.3-0.8C96,116.8,77.3,116.8,77.3,116.8z"/>
	<path class="st2" d="M87.2,119.1v5.4c0,0,4.9,0,5.4,0c0.4,0,1.1-0.2,1.7-0.6c0.4-0.2,0.9-0.6,1.1-0.9c0.2-0.4,0.2-1.1,0.2-1.9
		c0-0.6-0.4-1.1-0.8-1.3c-0.4-0.4-1.1-0.6-1.5-0.6C93,119.1,87.2,119.1,87.2,119.1z"/>
	<path class="st4" d="M124,117h-2.8c0,0,0,1.5-0.4,1.5c-0.4-0.2-2.8-1.3-4.7-1.7c-1.9-0.4-3.6-0.4-5.3-0.2c-1.7,0.2-4.7,1.1-6.4,2.8
		c-0.2,0.2-1.7,1.5-2.3,4.5c-0.2,0.8-1.3,5.4,2.1,8.6c3.4,3.2,8.1,3,8.3,3s1.5,0,2.6,0c3-0.2,5.1-1.1,5.6-1.9
		c0.4-0.2,0.4,1.1,0.4,1.1h3c0,0,0-5.8,0-6c0-0.4,0.6-0.6,0.6-0.6h2.4v-2.1h-12.9v2.1c0,0,2.3,0,3,0c0.8,0,0.9,0.2,0.9,0.2
		s0.4,0.4,0.6,0.6c0,0.4,0,0.8,0,1.3c-0.2,0.6-0.2,0.9-0.9,1.7c-0.6,0.6-1.3,0.8-2.1,0.9c-0.9,0-1.5,0.2-2.6,0
		c-1.1-0.2-2.4-0.9-3-1.7c-0.8-0.8-0.9-1.3-1.3-2.8c-0.4-1.5-0.4-3-0.2-4.3c0.2-1.3,0.4-2.8,1.3-3.6c0.9-0.9,1.7-1.3,2.4-1.5
		c0.8-0.2,1.9-0.4,2.8-0.4c0.9,0,1.7,0.2,2.6,0.8c0.9,0.4,1.5,0.8,2.1,1.3c0.6,0.6,0.6,0.8,0.9,1.3s0.4,2.1,0.4,2.1h3.2L124,117z"/>
	<path class="st4" d="M141.6,116.4h-5.3c0,0-7.7,15.4-8.1,15.6c-0.4,0.4-0.4,0.4-0.9,0.4c-0.6,0-1.5,0.2-1.5,0.2v2.1H136v-2.1
		c0,0-1.9,0-2.4-0.4c-0.4-0.2-0.6-0.4-0.8-0.8c-0.2-0.4,0-0.8,0-1.1s0.4-1.5,0.4-1.5h8.8c0,0,0.6,0.8,0.6,1.3c0,0.4,0,1.1-0.2,1.5
		c-0.6,0.6-1.1,0.8-1.5,0.8c-0.6,0-1.5,0.2-1.5,0.2v2.3h12.4v-2.3c0,0-0.8,0-1.5-0.4c-0.8-0.4-0.8-0.4-0.9-0.8
		C148.7,130.7,141.6,116.4,141.6,116.4z"/>
	<polygon class="st2" points="137.7,120.4 134.3,126.6 140.5,126.6 	"/>
	<path class="st5" d="M121.9,136.7l-1.3,0.6l4.7,6.9v0.4l6,10.5c0,0,2.8,0.8,4.7,0.6c1.9,0,4.1-0.4,4.1-0.4l1.9-3.4
		c0,0-1.5-1.3-3.9-1.5c-0.8,0-1.1-0.2-2.8,0.2c-2.8,0.6-1.9,0.4-1.9,0.4l-6.4-7.3h-0.4L121.9,136.7z"/>
	<path class="st5" d="M108,136.9l1.3,0.6l-4.7,6.9v0.4l-6,10.5c0,0-2.8,0.8-4.7,0.6c-1.9,0-4.1-0.4-4.1-0.4l-1.9-3.4
		c0,0,1.5-1.3,3.9-1.5c0.8,0,1.1-0.2,2.8,0.2c2.8,0.6,1.9,0.4,1.9,0.4l6.4-7.3h0.4L108,136.9z"/>
	<path class="st5" d="M138.4,95.8c0,0-0.2-0.8-0.9-1.1c-0.8-0.4-1.5-0.4-1.5-0.4L122.5,114l1.9,1.3L138.4,95.8z"/>
	<path class="st5" d="M91.3,95.4c0,0,0.2-0.8,0.9-1.1c0.8-0.4,1.5-0.4,1.5-0.4l13.3,19.9l-1.9,1.3L91.3,95.4z"/>
	<g id="ball">
		<ellipse class="st6" cx="114.4" cy="93.7" rx="7.9" ry="7.9"/>
		<path class="st7" d="M114.4,101.4c4.1,0,7.5-3.4,7.5-7.5c-6.4-1.3-9.2-1.3-15.2,0C106.9,98.1,110.3,101.4,114.4,101.4z"/>
		<path class="st4" d="M114.4,95.3c0.6,0,0.9-0.4,0.9-0.6c-0.8,0-0.9,0-1.9,0C113.5,95.1,114,95.3,114.4,95.3z"/>
		<path class="st4" d="M112.5,95.3c0.4,0,0.8-0.4,0.8-0.6c-0.8,0.2-0.8,0.2-1.5,0.2C111.6,95.1,112,95.3,112.5,95.3z"/>
		<path class="st4" d="M116.5,95.3c0.4,0,0.8-0.2,0.8-0.6c-0.8,0-0.9,0-1.5-0.2C115.7,94.9,116.1,95.3,116.5,95.3z"/>
		<path class="st4" d="M110.8,95.3c0.4,0,0.6-0.2,0.6-0.6c-0.6,0.2-0.8,0.2-1.3,0.2C110.1,95.3,110.5,95.4,110.8,95.3z"/>
		<path class="st4" d="M118.2,95.3c0.4,0,0.6-0.2,0.8-0.4c-0.6,0-0.8,0-1.3-0.2C117.4,95.1,117.8,95.3,118.2,95.3z"/>
		<path class="st4" d="M114.4,93.9c0.6,0,1.1-0.6,1.1-1.1c-0.9,0.2-1.3,0.2-2.3,0C113.3,93.4,113.8,93.9,114.4,93.9z"/>
		<path d="M114.4,91.9c-0.6,0-1.1,0.4-1.1,0.9c1.1-0.2,0.9-0.2,2.1,0C115.5,92.2,115,91.9,114.4,91.9z"/>
		<path class="st4" d="M112.3,93.7c0.6,0,0.9-0.6,0.9-1.1c-0.9,0.2-1.1,0.2-1.9,0.2C111.4,93.4,111.8,93.9,112.3,93.7z"/>
		<path d="M112.1,92.1c-0.6,0-0.9,0.4-0.8,0.8c0.8-0.2,0.9-0.2,1.7,0C113.1,92.4,112.7,92.1,112.1,92.1z"/>
		<g>
			<path class="st4" d="M116.5,93.9c0.6,0,0.9-0.4,1.1-0.9c-0.9,0-1.1,0-1.9-0.2C115.5,93.4,115.9,93.7,116.5,93.9z"/>
			<path d="M116.7,92.1c-0.6,0-0.9,0.2-0.9,0.8c0.8,0,0.9,0,1.7,0.2C117.4,92.6,117,92.1,116.7,92.1z"/>
		</g>
		<path class="st4" d="M110.5,93.9c0.4,0,0.8-0.6,0.8-0.9c-0.8,0.2-0.9,0.2-1.7,0.2C109.5,93.7,110.1,94.1,110.5,93.9z"/>
		<path d="M110.3,92.4c-0.4,0-0.8,0.4-0.8,0.8c0.8-0.2,0.8-0.2,1.5-0.2C111,92.6,110.6,92.4,110.3,92.4z"/>
		<g>
			<path class="st4" d="M118.3,93.9c0.4,0,0.9-0.4,0.9-0.8c-0.8,0-0.9,0-1.7-0.2C117.4,93.4,117.8,93.9,118.3,93.9z"/>
			<path d="M118.3,92.4c-0.4,0-0.8,0.2-0.8,0.6c0.8,0,0.8,0,1.5,0.2C119.1,92.8,118.9,92.4,118.3,92.4z"/>
		</g>
		<path class="st4" d="M109,93.9c0.4,0,0.6-0.4,0.4-0.8c-0.6,0.2-0.6,0.2-1.1,0.4C108.4,93.9,108.8,94.1,109,93.9z"/>
		<path d="M108.8,92.8c-0.4,0-0.6,0.4-0.4,0.6c0.6-0.2,0.6-0.2,1.1-0.2C109.3,93,109.1,92.8,108.8,92.8z"/>
		<g>
			<path class="st4" d="M119.7,94.1c0.4,0,0.8-0.2,0.8-0.6c-0.6,0-0.8,0-1.3-0.2C119.1,93.7,119.3,93.9,119.7,94.1z"/>
			<path d="M119.8,92.8c-0.4,0-0.6,0.2-0.6,0.4c0.6,0,0.6,0,1.1,0.2C120.4,93.2,120.2,92.8,119.8,92.8z"/>
		</g>
		<path class="st4" d="M107.8,94.1c0.2,0,0.4-0.2,0.4-0.6c-0.4,0.2-0.6,0.2-0.9,0.2C107.5,93.9,107.6,94.1,107.8,94.1z"/>
		<path d="M107.6,93.2c-0.2,0-0.4,0.4-0.4,0.6c0.4-0.2,0.4-0.2,0.9-0.2C108.2,93.2,107.8,93.2,107.6,93.2z"/>
		<g>
			<path class="st4" d="M120.8,94.1c0.2,0,0.6-0.2,0.6-0.4c-0.4,0-0.6,0-0.9-0.2C120.4,93.7,120.6,94.1,120.8,94.1z"/>
			<path d="M121.2,93.2c-0.2,0-0.6,0-0.6,0.4c0.4,0,0.6,0,0.9,0.2C121.5,93.4,121.3,93.2,121.2,93.2z"/>
		</g>
		<path d="M110.5,88.1c-0.2,0-0.4,0.4-0.2,0.6c0.4-0.2,0.4-0.2,0.8-0.4C110.8,88.1,110.6,87.9,110.5,88.1z"/>
		<path d="M109.5,88.5c-0.2,0-0.2,0.4-0.2,0.4c0.4-0.2,0.2-0.2,0.6-0.4C109.7,88.5,109.5,88.5,109.5,88.5z"/>
		<path d="M108.6,89.2c-0.2,0.2-0.2,0.4-0.2,0.4c0.2-0.2,0.2-0.2,0.6-0.4C109,89.1,108.8,89.1,108.6,89.2z"/>
		<g>
			<path d="M118.5,88.1c0.2,0,0.4,0.4,0.2,0.6c-0.4-0.2-0.4-0.2-0.8-0.4C118,88.1,118.3,88.1,118.5,88.1z"/>
			<path d="M119.5,88.7c0.2,0,0.2,0.4,0.2,0.4c-0.4-0.2-0.2-0.2-0.6-0.4C119.1,88.5,119.3,88.5,119.5,88.7z"/>
			<path d="M120.4,89.2c0.2,0.2,0.2,0.4,0.2,0.4c-0.2-0.2-0.2-0.2-0.6-0.4C120,89.1,120.2,89.1,120.4,89.2z"/>
		</g>
		<g>
			<path d="M114.4,90.4c-0.4,0-0.9,0.4-0.8,0.8c0.8-0.2,0.8-0.2,1.5,0C115.3,90.7,115,90.4,114.4,90.4z"/>
			<path d="M112.7,90.6c-0.4,0-0.8,0.4-0.6,0.6c0.8-0.2,0.6-0.2,1.3,0C113.3,90.7,113.1,90.6,112.7,90.6z"/>
			<path d="M111.2,90.9c-0.2,0-0.6,0.4-0.4,0.6c0.6-0.2,0.6-0.2,0.9-0.2C111.8,90.9,111.4,90.7,111.2,90.9z"/>
			<path d="M116.3,90.6c0.4,0,0.8,0.4,0.6,0.6c-0.8-0.2-0.6-0.2-1.3-0.2C115.5,90.7,115.9,90.6,116.3,90.6z"/>
			<path d="M117.8,90.7c0.2,0,0.6,0.4,0.4,0.6c-0.6-0.2-0.6-0.2-0.9-0.2C117.2,90.9,117.4,90.7,117.8,90.7z"/>
			<path d="M118.9,91.1c0.2,0,0.4,0.4,0.4,0.6c-0.4-0.2-0.4-0.2-0.9-0.2C118.3,91.1,118.7,91.1,118.9,91.1z"/>
			<path d="M120,91.5c0.2,0,0.4,0.4,0.2,0.4c-0.4-0.2-0.4-0.2-0.8-0.4C119.5,91.5,119.8,91.5,120,91.5z"/>
			<path d="M110.1,91.1c-0.2,0-0.4,0.4-0.4,0.6c0.4-0.2,0.4-0.2,0.9-0.2C110.5,91.1,110.3,91.1,110.1,91.1z"/>
			<path d="M109,91.5c-0.2,0-0.4,0.4-0.2,0.4c0.4-0.2,0.4-0.2,0.8-0.4C109.3,91.5,109.1,91.5,109,91.5z"/>
			<path d="M108,92.1c-0.2,0.2-0.2,0.4-0.2,0.6c0.4-0.2,0.4-0.2,0.6-0.4C108.6,91.9,108.2,91.9,108,92.1z"/>
			<path d="M107.5,92.6c-0.2,0.2-0.2,0.4,0,0.4c0.2-0.2,0.2-0.2,0.6-0.4C107.6,92.4,107.5,92.4,107.5,92.6z"/>
			<path d="M121,92.1c0.2,0.2,0.2,0.4,0.2,0.6c-0.4-0.2-0.4-0.2-0.6-0.4C120.6,91.9,120.8,91.9,121,92.1z"/>
			<path d="M121.5,92.6c0.2,0.2,0.2,0.4,0,0.4c-0.2-0.2-0.2-0.2-0.6-0.4C121.3,92.4,121.5,92.4,121.5,92.6z"/>
		</g>
		<g>
			<path d="M111.4,89.2c-0.2,0-0.4,0.2-0.4,0.6c0.4-0.2,0.4-0.2,0.9-0.2C112,89.2,111.8,89.1,111.4,89.2z"/>
			<path d="M110.5,89.4c-0.2,0-0.4,0.2-0.4,0.4c0.4-0.2,0.4-0.2,0.8-0.2C110.8,89.4,110.6,89.4,110.5,89.4z"/>
			<path d="M109.5,89.8c-0.2,0-0.4,0.2-0.2,0.4c0.4-0.2,0.4-0.2,0.6-0.2C109.9,89.8,109.7,89.8,109.5,89.8z"/>
			<path d="M108.6,90.2c-0.2,0.2-0.2,0.4-0.2,0.4c0.2-0.2,0.2-0.2,0.6-0.4C109,90.2,108.8,90.2,108.6,90.2z"/>
			<g>
				<path d="M114.4,88.9c-0.4,0-0.8,0.2-0.8,0.6c0.8-0.2,0.8-0.2,1.5,0C115.2,89.1,114.8,88.9,114.4,88.9z"/>
				<path d="M112.7,88.9c-0.4,0-0.6,0.2-0.6,0.6c0.6-0.2,0.6-0.2,1.1,0C113.5,89.1,113.1,88.9,112.7,88.9z"/>
				<path d="M115.9,88.9c0.4,0,0.6,0.2,0.6,0.6c-0.6-0.2-0.6-0.2-1.1,0C115.3,89.1,115.7,88.9,115.9,88.9z"/>
				<path d="M117.4,89.2c0.2,0,0.4,0.2,0.4,0.6c-0.4-0.2-0.4-0.2-0.9-0.2C116.8,89.2,117,89.1,117.4,89.2z"/>
				<path d="M118.3,89.4c0.2,0,0.4,0.2,0.4,0.4c-0.4-0.2-0.4-0.2-0.8-0.2C118,89.4,118.2,89.4,118.3,89.4z"/>
				<path d="M119.3,89.8c0.2,0,0.4,0.2,0.2,0.4c-0.4-0.2-0.4-0.2-0.6-0.2C118.9,89.8,119.1,89.8,119.3,89.8z"/>
				<path d="M120.2,90.2c0.2,0.2,0.2,0.4,0.2,0.4c-0.2-0.2-0.2-0.2-0.6-0.4C119.8,90.2,120,90.2,120.2,90.2z"/>
			</g>
			<path d="M121,90.7c0.2,0.2,0.2,0.4,0,0.4c-0.2-0.2-0.2-0.2-0.6-0.4C120.6,90.6,120.8,90.6,121,90.7z"/>
			<path d="M108,90.7c-0.2,0.2-0.2,0.4,0,0.4c0.2-0.2,0.2-0.2,0.6-0.4C108.2,90.7,108,90.7,108,90.7z"/>
		</g>
	</g>
	<path class="st4" d="M105.6,158.1c0,0.6,0,1.3,0.6,1.7l0,0h-3.8l0,0c0.8-0.4,0.8-0.9,0.8-1.7v-4.3l-1.3-0.4l0,0
		c1.3-0.4,2.6-0.9,3.4-2.1l0,0v6.8H105.6z"/>
	<path class="st4" d="M108.2,159c2.3-0.6,3.4-2.1,3.4-4.3c0-0.8-0.2-2.3-1.1-2.3c-0.8,0-0.9,0.9-0.9,1.7c0,0.8,0.2,1.7,1.1,1.7
		c0.2,0,0.4,0,0.6-0.2l0,0l-0.9,1.3h-0.2c-0.8,0-1.3-0.2-1.9-0.6c-0.6-0.6-0.9-1.3-0.9-2.1c0-1.9,1.5-3,3.2-3c2.3,0,3.4,1.5,3.4,3.6
		c0,1.5-0.8,2.8-1.9,3.8c-1.1,0.9-2.6,1.5-3.9,1.5h-0.2L108.2,159z"/>
	<path class="st4" d="M118,158.1c0,0.6,0,1.3,0.6,1.7l0,0h-3.8l0,0c0.8-0.4,0.8-0.9,0.8-1.7v-4.3l-1.3-0.4l0,0
		c1.3-0.4,2.6-0.9,3.4-2.1l0,0v6.8H118z"/>
	<path class="st4" d="M125.1,152.5c-2.3,0.6-3.4,2.1-3.4,4.3c0,0.8,0.2,2.3,1.1,2.3c0.8,0,0.9-0.9,0.9-1.7c0-0.8-0.2-1.7-1.1-1.7
		c-0.2,0-0.4,0-0.6,0.2l0,0l0.9-1.3h0.4c1.7,0,2.6,1.1,2.6,2.8c0,1.9-1.5,3-3.2,3c-2.3,0-3.4-1.5-3.4-3.6c0-1.5,0.8-2.8,1.9-3.8
		c1.1-0.9,2.6-1.5,4.1-1.5L125.1,152.5z"/>
	<path d="M169.7,167.5c0.6,0.6,0.8,1.1,0.8,1.9c0,0.8-0.2,1.3-0.8,1.9c-0.6,0.6-1.1,0.8-1.9,0.8c-0.8,0-1.3-0.2-1.9-0.8
		c-0.6-0.6-0.8-1.1-0.8-1.9c0-0.8,0.2-1.3,0.8-1.9c0.6-0.6,1.1-0.8,1.9-0.8C168.6,166.7,169.4,166.9,169.7,167.5z M170.1,167.3
		c-0.6-0.6-1.3-0.9-2.1-0.9c-0.8,0-1.5,0.4-2.1,0.9c-0.6,0.6-0.9,1.3-0.9,2.1c0,0.8,0.4,1.5,0.9,2.1c0.6,0.6,1.3,0.9,2.1,0.9
		c0.8,0,1.5-0.4,2.1-0.9c0.6-0.6,0.9-1.3,0.9-2.1C170.9,168.4,170.7,167.8,170.1,167.3z M168.4,169.2c-0.2,0-0.4,0-0.6,0h-0.6V168
		h0.6c0.4,0,0.6,0,0.8,0.2c0.2,0,0.2,0.2,0.2,0.6C168.8,169,168.6,169,168.4,169.2z M166.7,170.8h0.6v-1.3h0.4c0.4,0,0.6,0,0.6,0.2
		c0.2,0.2,0.4,0.4,0.4,0.8v0.2v0.2l0,0l0,0h0.6l0,0c0,0,0,0,0-0.2v-0.2v-0.2c0-0.2,0-0.4-0.2-0.6c-0.2-0.2-0.4-0.2-0.6-0.4
		c0.2,0,0.4,0,0.4-0.2c0.2-0.2,0.4-0.4,0.4-0.6c0-0.4-0.2-0.8-0.6-0.8c-0.2,0-0.6-0.2-0.9-0.2h-1.1v3.2H166.7z"/>
	<path class="st5" d="M108.6,101.1c0,0,2.4,2.3,5.8,2.3s5.6-2.1,5.6-2.1l0.9,0.9c-5.4,4.7-6,12-6,12.2c0,0-1.5,0-1.7,0
		c-0.9-8.6-6-12.2-6-12.2L108.6,101.1z"/>
	<g id="text_circle">
		<path class="st2" d="M75.2,157.2c0.4-0.4,0.8-0.6,0.8-1.1l0,0l1.7,2.1l0,0c-0.6-0.2-0.9,0.2-1.3,0.6l-2.8,2.3
			c-0.4,0.4-0.9,0.6-0.8,1.1l0,0l-1.5-1.9c-0.4-0.4-0.8-0.9-0.9-1.5s0-1.3,0.6-1.7c1.1-0.9,2.3-0.4,3,0.6c0,0,0.2,0.2,0.2,0.4
			c-0.6-0.4-1.1-0.2-1.7,0.2c-0.6,0.4-0.8,0.9-0.4,1.5L75.2,157.2z"/>
		<path class="st2" d="M71.3,151.5c0.4-0.2,0.9-0.6,0.9-1.1l0,0l1.3,2.3l0,0c-0.6-0.2-0.9,0-1.3,0.4l-3.2,1.9
			c-0.4,0.2-0.9,0.6-0.9,1.1l0,0l-1.5-2.4c-0.2-0.4-0.4-0.8-0.6-1.3c0-0.8,0.2-1.1,0.8-1.5c0.6-0.4,1.3-0.2,1.9,0.2l1.1-2.1
			c0.2-0.4,0.4-0.9,0.6-1.5l0.8,1.1c0.4,0.6,0.4,0.9,0.2,1.5l-1.3,2.1L71.3,151.5z M67.7,153.6l1.9-1.1c-0.4-0.6-1.1-0.6-1.7-0.2
			c-0.2,0.2-0.6,0.4-0.6,0.8C67.5,153,67.5,153.2,67.7,153.6L67.7,153.6z"/>
		<path class="st2" d="M62.3,145c-0.8-1.9-0.2-3.8,1.9-4.5c2.1-0.8,3.8,0.4,4.5,2.3c0.8,1.9,0,3.8-1.9,4.5
			C64.7,148,62.8,146.8,62.3,145z M67.3,144.4c0.4-0.4,0.6-0.9,0.4-1.5c-0.2-0.6-0.6-0.8-1.1-0.9c-0.6-0.2-0.9,0-1.5,0.2
			c-1.1,0.4-2.4,1.3-1.9,2.6c0.4,1.1,1.7,1.1,2.6,0.8C66.2,145.3,66.9,144.8,67.3,144.4z"/>
		<path class="st2" d="M64.9,135.6c0.6-0.2,0.9-0.2,1.3-0.8l0,0l0.6,2.6l0,0c-0.4-0.4-0.9-0.2-1.5-0.2l-3.6,0.8
			c-0.6,0.2-1.1,0.2-1.3,0.8l0,0l-0.8-3.4c0-0.2,0-0.4-0.2-0.4l0,0l1.3-0.4l0,0c-0.4,0.4-0.2,0.9-0.2,1.3v0.4l1.5-0.4l-0.2-0.8
			c0-0.2,0-0.2-0.2-0.4l0,0l1.3-0.4l0,0c-0.4,0.2-0.2,0.6-0.2,0.9v0.2H64.9z"/>
		<path class="st2" d="M64.3,129.8c0.2-0.4,0-0.8,0-1.1c0-0.6-0.2-1.1-0.8-1.3l0,0l1.5,0.2l0.4,4.3l0,0c-0.4-0.4-0.9-0.4-1.3-0.2
			l-3.8,0.4c-0.6,0-1.1,0-1.3,0.6l0,0l-0.4-3.6c0-0.2,0-0.4,0-0.4l0,0l1.5-0.2l0,0c-0.4,0.4-0.4,0.9-0.4,1.3v0.4l1.5-0.2V129
			c0-0.2,0-0.2,0-0.4l0,0l1.3-0.2l0,0c-0.4,0.2-0.4,0.6-0.2,0.9v0.4H64.3z"/>
		<path class="st2" d="M63.4,125.3c0.6-0.6,0.8-1.3,0.9-2.1c0-0.4-0.2-1.1-0.8-1.1c-1.1,0-1.1,3-3.2,2.8c-0.6,0-1.1-0.4-1.3-0.8
			c-0.4-0.6-0.4-1.1-0.4-1.7c0-0.6,0.2-1.1,0.4-1.7h1.1c-0.2,0.4-0.6,0.9-0.6,1.3c0,0.4,0.2,0.9,0.6,0.9c0.6,0,0.8-0.6,0.9-0.9
			c0.2-0.4,0.4-0.9,0.8-1.3c0.4-0.4,0.9-0.8,1.5-0.8c0.6,0,1.1,0.4,1.5,0.9c0.4,0.6,0.4,1.3,0.4,1.9s-0.2,1.3-0.4,1.9L63.4,125.3z"
			/>
		<path class="st2" d="M63.8,118.3c0.6-0.4,0.9-1.1,1.1-1.9c0-0.4,0-1.1-0.6-1.1c-1.1-0.2-1.5,2.8-3.6,2.4c-0.6-0.2-1.1-0.4-1.3-0.9
			c-0.2-0.6-0.2-1.1-0.2-1.9c0.2-0.6,0.4-1.1,0.6-1.5l1.1,0.2c-0.4,0.4-0.6,0.8-0.8,1.3c0,0.4,0,0.9,0.6,0.9c0.4,0,0.8-0.4,0.9-0.8
			c0.4-0.4,0.6-0.8,0.9-1.1c0.6-0.4,0.9-0.6,1.5-0.4c0.6,0.2,1.1,0.6,1.5,1.1c0.4,0.6,0.4,1.3,0.2,1.9c-0.2,0.6-0.4,1.3-0.8,1.9
			L63.8,118.3z"/>
		<path class="st2" d="M66,109.5c0.6,0.2,0.9,0.4,1.5,0l0,0l-0.8,2.6l0,0c-0.2-0.6-0.8-0.6-1.1-0.8l-3.6-1.1c-0.6-0.2-0.9-0.4-1.5,0
			l0,0l0.8-2.6l0,0c0.2,0.6,0.8,0.6,1.1,0.8L66,109.5z"/>
		<path class="st2" d="M63.6,101.4c0.9-1.9,2.6-2.8,4.5-1.9s2.4,3,1.5,4.7c-0.8,1.9-2.6,2.6-4.5,1.9
			C63.2,105.4,62.6,103.3,63.6,101.4z M67.5,104.8c0.6,0,1.1-0.4,1.3-0.9s0.2-0.9,0-1.5c-0.2-0.4-0.8-0.8-1.1-0.9
			c-0.9-0.4-2.6-0.8-3.2,0.6c-0.6,1.1,0.4,2.1,1.3,2.4C66.2,104.6,66.9,104.8,67.5,104.8z"/>
		<path class="st2" d="M75.6,94.5c-0.2,0.4-0.8,0.6-0.9,0.8c-0.8,0.4-1.1,0.4-1.9,0.4l-3.2,0.2l0,0l2.1,1.5c0.6,0.4,0.8,0.6,1.5,0.4
			l0,0L72,99.2l0,0c0-0.6-0.4-0.8-0.9-1.1l-2.8-1.9c-0.6-0.4-0.9-0.6-1.7-0.4l0,0l1.1-1.7l0,0l5.1-0.2l-2.1-1.5
			c-0.6-0.4-0.8-0.6-1.5-0.4l0,0l1.1-1.5l0,0c0,0.6,0.4,0.8,0.9,1.1L75.6,94.5z"/>
		<path class="st2" d="M76.9,89.8l0.4,0.6c0,0.2,0.2,0.6,0.4,0.6c0.2,0.2,0.4,0.2,0.6,0.2l0,0l-1.5,1.5l0,0c0-0.6-0.2-0.8-0.4-1.3
			l-1.9-3.8c-0.2-0.2-0.2-0.6-0.4-0.8c-0.2-0.2-0.4-0.2-0.8-0.2l0,0l1.7-1.7l4.9,2.3c0.6,0.2,0.8,0.4,1.5,0.4l0,0l0,0l-2.1,2.1l0,0
			c0-0.2,0-0.6-0.2-0.8c-0.2-0.2-0.2-0.2-0.4-0.2l-0.9-0.4L76.9,89.8z M75.4,87.2L75.4,87.2l0.9,1.9l0.9-0.9L75.4,87.2z"/>
		<path class="st2" d="M84.2,84.4c0.4,0,0.6-0.2,0.9-0.6c0.4-0.4,0.8-0.8,0.9-1.1l0.6,1.3l-3.4,2.6l0,0c0.2-0.6-0.2-0.9-0.6-1.3
			l-2.3-3c-0.4-0.4-0.6-0.9-1.1-0.9l0,0l2.1-1.5l0,0c-0.2,0.6,0.2,0.9,0.6,1.3L84.2,84.4z"/>
		<path class="st2" d="M97.5,78c-0.6,0.4-1.1,0.8-1.9,1.1c-1.9,0.8-3.9,0.4-4.7-1.5c-0.9-1.9,0.2-3.8,2.1-4.5
			c0.6-0.2,0.9-0.4,1.5-0.4l0.6,1.3l0,0c-0.4-0.2-1.1-0.2-1.5,0.2c-1.1,0.6-1.3,1.5-0.9,2.6c0.6,1.1,1.5,2.3,2.8,1.7
			c0.2,0,0.2-0.2,0.4-0.2l-0.6-1.3c-0.2-0.4-0.4-0.6-0.8-0.8l0,0l1.9-0.8L97.5,78z"/>
		<path class="st2" d="M101.5,70.3c2.1-0.6,3.8,0.4,4.3,2.4c0.6,2.1-0.8,3.8-2.8,4.1c-1.9,0.6-3.8-0.4-4.3-2.4S99.6,70.7,101.5,70.3
			z M101.3,75.4c0.4,0.4,0.9,0.6,1.5,0.6c0.6-0.2,0.9-0.6,1.1-0.9c0.2-0.4,0.2-0.9,0-1.5c-0.2-1.1-1.1-2.6-2.4-2.3
			c-1.1,0.2-1.3,1.5-1.1,2.4C100.5,74.2,100.9,75,101.3,75.4z"/>
		<path class="st2" d="M110.5,74.2c0.4,0.2,0.8,0.2,1.1,0c0.6,0,0.9-0.2,1.3-0.6l-0.2,1.3l-4.3,0.4l0,0c0.4-0.4,0.4-0.9,0.4-1.3
			l-0.4-3.6c0-0.6,0-1.1-0.6-1.3l0,0l2.6-0.2l0,0c-0.4,0.4-0.4,0.9-0.4,1.5L110.5,74.2z"/>
		<path class="st2" d="M117.2,73.9c0,0.6,0,0.9,0.4,1.5l0,0l-2.6-0.2l0,0c0.6-0.4,0.4-0.8,0.6-1.3l0.2-3.8c0-0.6,0.2-1.1-0.4-1.3
			l0,0l3.4,0.2c0.2,0,0.4,0,0.4,0l0,0v1.5l0,0c-0.2-0.6-0.8-0.4-1.3-0.4h-0.4v1.5h0.8c0.2,0,0.2,0,0.4,0l0,0v1.3l0,0
			c-0.2-0.4-0.6-0.4-0.9-0.4h-0.2L117.2,73.9z"/>
		<path class="st2" d="M123,74.8c0.4,0.2,0.8,0.2,0.9,0.4c0.6,0,1.1,0,1.5-0.4l0,0l-0.6,1.3l-4.3-0.8l0,0c0.6-0.2,0.6-0.8,0.6-1.3
			l0.6-3.6c0-0.6,0.2-1.1-0.2-1.5l0,0l3.4,0.6c0.2,0,0.4,0,0.4,0l0,0l-0.2,1.3l0,0c-0.2-0.6-0.8-0.6-1.3-0.6h-0.4l-0.2,1.5l0.9,0.2
			c0.2,0,0.2,0,0.4,0l0,0l-0.2,1.3l0,0c0-0.4-0.6-0.4-0.9-0.6H123L123,74.8z"/>
		<path class="st2" d="M129.6,75.9c-0.2,0.6-0.4,0.9,0,1.5l0,0l-2.4-0.8l0,0c0.6-0.2,0.8-0.8,0.8-1.1L129,72c0.2-0.6,0.4-0.9,0-1.5
			l0,0l2.8,0.9c0.4,0.2,0.8,0.2,1.1,0.6c0.4,0.6,0.6,1.1,0.4,1.7c-0.2,0.8-0.9,1.1-1.5,1.1l0.6,2.3c0.2,0.6,0.2,0.9,0.6,1.5
			l-1.3-0.4c-0.6-0.2-0.9-0.4-1.1-0.9l-0.4-2.4L129.6,75.9z M130.7,72.2l-0.8,2.1c0.6,0,1.1-0.2,1.3-0.9c0.2-0.4,0-0.8-0.2-0.9
			C131.3,72.2,131.1,72.2,130.7,72.2L130.7,72.2z"/>
		<path class="st2" d="M135,77.6c0.4,0.6,0.9,1.3,1.5,1.5c0.4,0.2,0.9,0.4,1.3-0.2c0.6-1.1-2.3-2.3-1.3-4.1c0.2-0.6,0.8-0.9,1.3-0.9
			c0.6-0.2,1.1,0,1.7,0.4c0.6,0.2,0.9,0.6,1.3,0.9l-0.6,1.1c-0.2-0.4-0.6-0.8-1.1-0.9c-0.4-0.2-0.9-0.2-1.1,0.2
			c-0.2,0.4,0.2,0.8,0.6,1.1c0.4,0.4,0.6,0.8,0.9,1.3c0.2,0.6,0.4,1.1,0,1.7c-0.2,0.6-0.8,0.9-1.5,1.1c-0.8,0.2-1.3,0-1.9-0.4
			c-0.6-0.4-1.1-0.8-1.5-1.1L135,77.6z"/>
		<path class="st2" d="M149.9,87l-0.6,0.4c-0.2,0.2-0.6,0.2-0.6,0.4c-0.2,0.2-0.2,0.4-0.2,0.6l0,0L147,87l0,0c0.6,0,0.8-0.2,1.3-0.4
			l3.8-1.9c0.2-0.2,0.6-0.2,0.8-0.4c0.2-0.2,0.2-0.4,0.2-0.8l0,0l1.7,1.7l-2.3,4.9c-0.2,0.6-0.4,0.8-0.4,1.5l0,0l0,0l-2.1-2.1l0,0
			c0.2,0,0.6,0,0.8-0.2c0.2-0.2,0.2-0.2,0.2-0.4l0.4-0.9L149.9,87z M152.5,85.5L152.5,85.5l-1.9,0.9l0.9,0.9L152.5,85.5z"/>
		<path class="st2" d="M154.4,92.1c0,0.8,0.2,1.5,0.6,2.1c0.2,0.4,0.8,0.8,1.1,0.4c0.9-0.8-1.1-3,0.8-4.3c0.4-0.4,1.1-0.4,1.5-0.2
			c0.6,0.2,1.1,0.6,1.5,1.1c0.4,0.4,0.6,0.9,0.8,1.5l-0.9,0.8c0-0.6-0.2-0.9-0.4-1.3c-0.2-0.4-0.6-0.6-0.9-0.4
			c-0.4,0.4-0.2,0.9,0,1.3c0.2,0.6,0.2,0.9,0.2,1.5c0,0.6-0.2,1.1-0.8,1.5c-0.6,0.4-1.1,0.6-1.7,0.4c-0.8-0.2-1.1-0.8-1.5-1.1
			c-0.4-0.6-0.8-1.1-0.9-1.7L154.4,92.1z"/>
		<path class="st2" d="M158.5,97.7c-0.2,0.8,0,1.5,0.4,2.3c0.2,0.4,0.6,0.8,1.1,0.6c1.1-0.6-0.6-3,1.3-4.1c0.6-0.2,1.1-0.4,1.7,0
			c0.6,0.2,0.9,0.8,1.3,1.3c0.2,0.6,0.6,1.1,0.6,1.5l-0.9,0.6c0-0.6,0-0.9-0.2-1.5c-0.2-0.4-0.6-0.8-0.9-0.4
			c-0.4,0.2-0.4,0.8-0.2,1.1c0,0.6,0.2,0.9,0,1.5c-0.2,0.6-0.4,1.1-0.9,1.3c-0.6,0.4-1.1,0.4-1.7,0c-0.6-0.4-1.1-0.8-1.3-1.5
			c-0.4-0.6-0.6-1.1-0.6-1.9L158.5,97.7z"/>
		<path class="st2" d="M167.9,105.6c0.8,1.9,0.2,3.8-1.9,4.5c-2.1,0.8-3.8-0.4-4.5-2.3s0-3.8,1.9-4.5S167.1,103.7,167.9,105.6z
			 M162.6,106.1c-0.4,0.4-0.6,0.9-0.4,1.5c0.2,0.6,0.6,0.8,1.1,0.9c0.6,0.2,0.9,0,1.5-0.2c1.1-0.4,2.4-1.3,1.9-2.6
			c-0.4-1.1-1.7-1.1-2.6-0.8C163.7,105.2,163,105.6,162.6,106.1z"/>
		<path class="st2" d="M169.2,117.4c0.2-0.6,0.4-1.1,0.2-1.7c-0.2-1.3-1.3-1.5-2.6-1.3s-2.3,1.1-2.1,2.4c0.2,0.8,0.6,1.3,0.9,2.1
			l-1.5-0.2c-0.4-0.6-0.4-1.3-0.6-1.9c-0.2-0.9-0.2-1.9,0.4-2.8c0.6-0.9,1.3-1.5,2.3-1.7c0.9-0.2,1.9,0,2.6,0.6
			c0.8,0.6,1.1,1.5,1.3,2.6l0.2,1.5L169.2,117.4z"/>
		<path class="st2" d="M166,123.2c-0.6,0-1.1,0-1.3,0.6l0,0l-0.2-2.6l0,0c0.4,0.4,0.9,0.4,1.3,0.4l3.8-0.2c0.6,0,1.1,0,1.3-0.6l0,0
			l0.2,2.6l0,0c-0.4-0.4-0.9-0.4-1.3-0.4L166,123.2z"/>
		<path class="st2" d="M166.4,127.7l-0.6-0.4c-0.2,0-0.6-0.2-0.8-0.2c-0.2,0-0.4,0.2-0.6,0.4l0,0l0.2-2.1l0,0
			c0.4,0.4,0.6,0.6,1.1,0.8l3.8,1.7c0.2,0,0.6,0.2,0.8,0.4c0.2,0,0.4-0.2,0.6-0.4l0,0l-0.2,2.4l-5.3,1.5c-0.6,0.2-0.9,0.2-1.5,0.8
			l0,0l0,0l0.2-3l0,0c0.2,0.2,0.2,0.4,0.6,0.4c0.2,0,0.2,0,0.4,0l0.9-0.2L166.4,127.7z M169.2,128.8L169.2,128.8l-1.9-0.8l-0.2,1.3
			L169.2,128.8z"/>
		<path class="st2" d="M164.3,137.5c-0.6-0.2-0.9-0.2-1.5,0.2l0,0l0.6-2.6l0,0c0.2,0.6,0.8,0.6,1.3,0.8l3.9,0.9
			c0-0.2,0.2-0.4,0.2-0.6c0.2-0.4,0-0.8-0.2-1.1l0,0l1.3,0.8v0.2l-1.1,4.5l-1.3-0.8c0.4,0,0.6-0.4,0.6-0.8c0-0.2,0-0.4,0-0.6
			L164.3,137.5z"/>
		<path class="st2" d="M162.6,142.9c-0.6-0.2-0.9-0.4-1.5,0l0,0l0.9-2.4l0,0c0.2,0.6,0.8,0.8,1.1,0.9l3.4,1.3c0.6,0.2,0.9,0.4,1.5,0
			l0,0l-0.9,2.4l0,0c-0.2-0.6-0.8-0.8-1.1-0.9L162.6,142.9z"/>
		<path class="st2" d="M164.7,151.1c-0.9,1.9-2.8,2.6-4.7,1.7c-1.9-0.9-2.3-3-1.3-4.9c0.9-1.9,2.8-2.6,4.7-1.7
			C165.2,147.2,165.6,149.3,164.7,151.1z M160.9,147.6c-0.6,0-1.1,0.4-1.3,0.8c-0.2,0.4-0.2,0.9,0,1.5c0.2,0.4,0.6,0.8,1.1,0.9
			c0.9,0.6,2.6,0.9,3.2-0.4c0.6-0.9-0.2-2.1-1.1-2.4C162.2,147.8,161.5,147.6,160.9,147.6z"/>
		<path class="st2" d="M152.1,157.3c0.2-0.2,0.8-0.6,1.1-0.8c0.8-0.4,1.1-0.4,1.9-0.4h3.2l0,0l-2.1-1.5c-0.4-0.4-0.8-0.6-1.3-0.6
			l0,0l1.1-1.5l0,0c0,0.6,0.4,0.9,0.8,1.1l2.6,2.1c0.6,0.4,0.8,0.6,1.7,0.6l0,0l-1.3,1.7l0,0h-5.1l2.1,1.5c0.4,0.4,0.8,0.6,1.3,0.6
			l0,0l-1.1,1.5l0,0c0-0.6-0.4-0.9-0.9-1.1L152.1,157.3z"/>
		<path class="st2" d="M88.5,166.5c1.7,1.3,2.1,3.2,0.8,4.9c-1.3,1.7-3.4,1.7-5.1,0.4c-1.7-1.3-2.1-3.2-0.8-4.9
			C84.8,165.2,87,165.2,88.5,166.5z M84.6,169.5c0,0.6,0,1.1,0.6,1.5c0.4,0.4,0.9,0.4,1.5,0.2c0.6-0.2,0.8-0.6,1.1-0.9
			c0.8-0.9,1.3-2.4,0.2-3.2c-0.9-0.8-2.1-0.2-2.6,0.8C85,168.2,84.6,169,84.6,169.5z"/>
		<path class="st2" d="M91.9,174.2c-0.2,0.6-0.4,0.9-0.2,1.5l0,0l-2.4-1.1l0,0c0.6,0,0.8-0.6,0.9-1.1l1.5-3.4
			c0.2-0.4,0.6-0.9,0.2-1.5l0,0l3.2,1.5c0.2,0,0.2,0.2,0.4,0.2l0,0l-0.6,1.3l0,0c0-0.6-0.6-0.8-0.9-0.9l-0.4-0.2l-0.8,1.5l0.6,0.4
			c0.2,0,0.2,0.2,0.4,0.2l0,0l-0.6,1.3l0,0c0-0.4-0.4-0.6-0.6-0.8l-0.2-0.2L91.9,174.2z"/>
		<path class="st2" d="M100.3,177l-0.4,0.6c-0.2,0.2-0.2,0.4-0.4,0.6c0,0.2,0,0.4,0.2,0.6l0,0l-2.1-0.4l0,0c0.4-0.2,0.6-0.6,0.9-0.9
			l2.1-3.6c0.2-0.2,0.4-0.6,0.4-0.8c0-0.2,0-0.4-0.2-0.6l0,0l2.4,0.6l0.8,5.3c0.2,0.8,0.2,0.9,0.6,1.5l0,0l0,0l-3-0.6l0,0
			c0.2-0.2,0.4-0.2,0.6-0.6c0-0.2,0-0.2,0-0.4l-0.2-0.9L100.3,177z M102,174.4L102,174.4l-1.1,1.7l1.3,0.2L102,174.4z"/>
		<path class="st2" d="M112.3,174.2L112.3,174.2l2.4,0.2l0,0c-0.2,0.2-0.4,0.2-0.4,0.6v4.3c0,0.6,0,1.1,0.4,1.5l0,0l-2.6-0.2l0,0
			c0.2-0.2,0.4-0.4,0.4-0.8v-3.4l0,0l-1.7,4.1c-0.4-0.2-0.6-0.4-0.9-0.6c-0.4-0.4-0.6-0.8-0.6-1.3l-0.8-2.6l0,0l-0.6,3.4
			c0,0.4,0,0.6,0.4,0.8l0,0l-1.9-0.2l0,0c0.4-0.4,0.6-0.8,0.6-1.3l0.9-4.1c0-0.4,0-0.8-0.4-0.9l0,0l2.3,0.2l0,0l1.1,3.9L112.3,174.2
			z"/>
		<path class="st2" d="M118.7,179.7c0.4,0.2,0.8,0.2,1.1,0c0.6,0,1.1-0.2,1.5-0.6l0,0l-0.4,1.5l-4.3,0.2l0,0
			c0.4-0.4,0.4-0.9,0.4-1.3l-0.2-3.8c0-0.6,0-1.1-0.6-1.3l0,0l3.4-0.2c0.2,0,0.4,0,0.4,0l0,0v1.5l0,0c-0.4-0.4-0.9-0.4-1.3-0.4h-0.4
			l0.2,1.5h0.9c0.2,0,0.2,0,0.4,0l0,0v1.3l0,0c-0.2-0.4-0.6-0.4-0.9-0.4h-0.4L118.7,179.7z"/>
		<path class="st2" d="M125.3,178.3c0.2,0.6,0.2,1.1,0.8,1.3l0,0l-2.6,0.6l0,0c0.4-0.4,0.2-0.9,0.2-1.5l-0.8-3.6
			c-0.2-0.6-0.2-1.1-0.8-1.3l0,0l2.8-0.6c0.6-0.2,0.9-0.2,1.3,0c0.6,0.2,1.1,0.6,1.1,1.3c0.2,0.8-0.2,1.3-0.8,1.7l1.5,1.7
			c0.4,0.4,0.8,0.8,1.1,0.9l-1.3,0.4c-0.6,0.2-0.9,0.2-1.5-0.4l-1.5-1.9L125.3,178.3z M124.3,174.4l0.4,2.3c0.6-0.2,0.9-0.8,0.8-1.5
			c0-0.4-0.2-0.6-0.6-0.8C124.9,174.2,124.7,174.2,124.3,174.4L124.3,174.4z"/>
		<path class="st2" d="M132.4,176.5c0.2,0.6,0.4,0.9,0.9,1.1l0,0l-2.4,0.9l0,0c0.4-0.4,0-0.9,0-1.5l-1.3-3.4
			c-0.2-0.6-0.4-0.9-0.9-1.1l0,0l2.4-0.9l0,0c-0.4,0.4,0,0.9,0,1.5L132.4,176.5z"/>
		<path class="st2" d="M137.7,170.1c-0.6,0-1.1,0-1.7,0.2c-1.1,0.6-1.1,1.7-0.6,2.8c0.6,1.1,1.7,1.9,3,1.3c0.8-0.4,1.1-0.9,1.7-1.5
			l0.2,1.5c-0.6,0.4-1.1,0.8-1.7,1.1c-0.9,0.4-1.7,0.8-2.8,0.4c-0.9-0.2-1.7-0.9-2.3-1.7c-0.4-0.8-0.6-1.9-0.2-2.6
			c0.4-0.9,1.1-1.5,2.1-2.1l1.3-0.6L137.7,170.1z"/>
		<path class="st2" d="M142.9,170.8l0.2,0.8c0,0.2,0.2,0.6,0.2,0.8c0.2,0.2,0.4,0.2,0.6,0.2l0,0l-1.7,1.1l0,0c0.2-0.6,0-0.8,0-1.3
			l-0.9-4.1c0-0.2-0.2-0.6-0.2-0.8c-0.2-0.2-0.4-0.2-0.6-0.4l0,0l2.1-1.3l4.3,3.4c0.6,0.4,0.8,0.6,1.5,0.8l0,0l0,0l-2.4,1.5l0,0
			c0.2-0.2,0.2-0.4,0-0.8c0-0.2-0.2-0.2-0.2-0.2l-0.8-0.6L142.9,170.8z M142.2,168L142.2,168l0.6,2.1l1.1-0.8L142.2,168z"/>
		<path class="st2" d="M141.8,78.9c0.6-0.2,0.9-0.4,1.3-0.6c-0.4-0.2-0.6-0.8-0.4-1.1c0.2-0.4,0.8-0.6,1.3-0.4
			c0.6,0.2,0.6,0.8,0.4,1.3c-0.2,0.4-0.9,0.8-1.3,1.1c-0.4,0.2-0.6,0.2-0.9,0L141.8,78.9z"/>
	</g>
</g>
</svg>
