<?xml version="1.0" encoding="utf-8"?>
<!-- Generator: Adobe Illustrator 21.1.0, SVG Export Plug-In . SVG Version: 6.00 Build 0)  -->
<svg version="1.1" id="Layer_1" xmlns="http://www.w3.org/2000/svg" xmlns:xlink="http://www.w3.org/1999/xlink" x="0px" y="0px"
	 viewBox="0 0 230 250" style="enable-background:new 0 0 230 250;" xml:space="preserve">
<style type="text/css">
	.st0{fill:#FFFFFF;}
	.st1{fill:#4D4D4D;}
	.st2{fill:#1C1C1C;}
</style>
<g id="NBA">
	<path class="st0" d="M91.1,34h48.2c8.9,0,16.1,7.2,16.1,15.9v150.7c0,8.7-7.2,15.9-16.1,15.9H91.1c-8.9,0-16.1-7.2-16.1-15.9V49.9
		C75.1,41.2,82.2,34,91.1,34L91.1,34z"/>
	<path class="st1" d="M142.8,214.2c0.9-1.9,2.6-7.8-0.6-14c0.9-3.4-1.7-4.2-2.6-11.7c1.1-2.3,1.9-4.9,1.7-7.9
		c-0.2-2.6-2.1-4-3.2-6.1c-1.7-6.8-2.6-14.2-5.3-20.6c-0.9-3-3-5.9-4.5-8.7c-1.5-7.8-2.3-15.9-4.7-23.3c0.4-0.4,0.9-0.8,1.1-1.1
		c-1.7-6.6-4-16.1-7.6-18.9c0.9-3.2,2.1-7,2.6-9.8c1.5-2.1,3.2-4.3,6.6-5.9c1.7,4.7,2.5,10.6,3.4,15.3c2.1,4.7,5.3,8.9,6.1,13.2
		c-5.5,2.1-9.3,7.2-9.3,13c0,7.6,6.2,13.8,13.8,13.8c5.7,0,10.6-3.6,12.7-8.3v68.5C153,207.6,148.6,212.9,142.8,214.2L142.8,214.2z"
		/>
	<path class="st2" d="M136.1,214.4c-2.1-5.1-0.9-9.5-0.4-15.3c-0.6-2.6-0.9-5.3-1.3-7.9c-3-4.5-4.2-8.9-4.9-13.8
		c-5.7-5.1-12.5-9.5-17-14.9c-8.1-7.6-14.2-15.5-18.2-24.2c-1.5,0-3-0.2-4.5-0.2c-2.5-7-8.5-15.3-7.9-20.8c0.2-4.9,1.7-9.3,3.6-14.2
		c-1.7-0.4-3.2,0.2-4.9-0.8c-2.6-1.7-2.3-4.7-2.5-7.4c1.1-5.3,4.2-9.8,6.1-14.8c1.9-4.2,3.8-8.3,5.7-12.5c2.6-2.8,4.2-4.9,7.6-6.2
		c2.8-0.4,5.7,0.2,8.7-0.6c1.3-0.4,2.8-0.8,3.4-1.7c1.3-1.9,0.9-3.8,1.5-6.1c-1.7-0.9-1.5-5.9,0.4-7.6c0-3.4,1.3-8.1,4.3-9.3
		l-25.2-0.2c-7.2,0-13,5.9-13,13v152.4c0,7.2,5.9,13,13,13L136.1,214.4L136.1,214.4z M85.8,182.6h5.7l4.2,13.4v-13.4h5.3v22.5h-5.9
		l-4.3-13.4v13.4h-4.9V182.6L85.8,182.6z M101.9,182.6h6.8c8.7,0,6.4,10.6,3.2,10.8c4.9-0.6,5.5,11.7-2.5,11.7h-7.6V182.6
		L101.9,182.6z M107.2,186.2v5.1h1.3c2.1,0,2.1-5.1,0-5.1H107.2L107.2,186.2z M107.2,195.1v6.2h1.3c2.5,0,2.1-6.2,0-6.2H107.2
		L107.2,195.1z M119.5,182.6h7l4,22.5h-5.3l-0.4-4H121l-0.6,4h-5.3L119.5,182.6L119.5,182.6z M121.6,197.2h2.6l-1.3-11.2
		L121.6,197.2L121.6,197.2z"/>
	<path class="st1" d="M124.8,36.6c3.8,3.4,6.1,8.3,2.5,14.4c2.1,1.3-1.7,3.8-2.5,5.9c-1.1,3-4.7,4.7-4.3,5.9
		c4.7,2.8,8.5,5.9,13.4,9.5c2.5,3,3.4,15.5,4.9,25c2.1,5.9,4.9,11,6.1,17.6c3.8,1.3,6.8,4.3,8.3,7.8V49.1c0-7.2-5.9-13-13-13
		L124.8,36.6L124.8,36.6z"/>
</g>
</svg>
