<?xml version="1.0" encoding="utf-8"?>
<!-- Generator: Adobe Illustrator 21.0.2, SVG Export Plug-In . SVG Version: 6.00 Build 0)  -->
<svg version="1.1" id="Layer_1" xmlns="http://www.w3.org/2000/svg" xmlns:xlink="http://www.w3.org/1999/xlink" x="0px" y="0px"
	 viewBox="0 0 1185.6 96.6" style="enable-background:new 0 0 1185.6 96.6;" xml:space="preserve">
<style type="text/css">
	.st0{fill:#616161;}
	.st1{fill:#FFFFFF;}
	.st2{fill:url(#SVGID_1_);}
	.st3{fill:url(#SVGID_2_);}
	.st4{clip-path:url(#SVGID_3_);}
	.st5{fill:#3E3E3E;}
	.st6{clip-path:url(#SVGID_4_);}
	.st7{fill:#DCDCDC;}
	.st8{fill:url(#path7633_1_);}
	.st9{fill:url(#path7659_1_);}
	.st10{clip-path:url(#SVGID_5_);}
	.st11{fill-rule:evenodd;clip-rule:evenodd;fill:#FFFFFF;}
	.st12{fill:#535353;}
	.st13{fill:#181818;}
	.st14{fill:#4D4D4D;}
	.st15{fill:#E0E0E0;}
	.st16{fill:#969696;}
	.st17{fill-rule:evenodd;clip-rule:evenodd;fill:#B9B9B9;}
	.st18{fill-rule:evenodd;clip-rule:evenodd;fill:#585858;}
	.st19{stroke:#000000;stroke-width:3.4;}
	.st20{fill:none;stroke:#ACACAC;}
	.st21{fill:#ACACAC;}
	.st22{display:none;}
	.st23{stroke:#000000;stroke-width:0.68;}
	.st24{fill:#FFFFFF;stroke:#FFFFFF;stroke-width:2.2181;}
	.st25{stroke:#000000;stroke-width:7.344000e-02;}
	.st26{fill-rule:evenodd;clip-rule:evenodd;fill:#4D4D4D;}
	.st27{fill-rule:evenodd;clip-rule:evenodd;fill:#1C1C1C;}
	.st28{fill:#606060;}
	.st29{fill:#B9B9B9;}
	.st30{fill:#828282;}
	.st31{fill:#9E9E9E;}
</style>
<image style="display:none;overflow:visible;" width="1182" height="96" xlink:href="92E06FC3F08EEF02.jpg"  transform="matrix(1 0 0 1 0.7355 1.2842)">
</image>
<path id="espn" class="st0" d="M957.2,35c-4.3,0-7.1,2.2-7.5,5.6c-0.1,1.2-0.3,2.3-0.3,2.3h55.5c0,0,0.1-0.8,0.2-1.5
	c0.4-3.4-1-6.5-6.3-6.5v0C998.9,35,959.5,35,957.2,35L957.2,35z M923.4,35l-1,7.9h25.2l1-7.9H923.4L923.4,35z M1007.8,35l-1,7.9
	h27.3c0,0,0-0.3,0.2-1.2c0.7-5.2-2.7-6.7-5.9-6.7H1007.8L1007.8,35z M1006.5,46l-2.1,17.3l9.4,0l2.1-17.3L1006.5,46L1006.5,46z
	 M1024.4,46l-2.1,17.3l9.4,0l2.1-17.3L1024.4,46L1024.4,46z M922,46l-2.1,17.3h25.2l0.9-7.5l-15.8,0l0.4-3.2h15.8l0.8-6.6L922,46
	L922,46z M949.1,46c-0.7,4.5,1.6,6.6,4.8,6.6c1.7,0,12.7,0,12.7,0l-0.4,3.2l-18.3,0l-0.9,7.5c0,0,19.9,0,20.7,0c0.7,0,5.3-0.2,6.9-4
	c0.5-1.2,1-5.7,1.1-6.6c0.7-5.4-3-6.7-6-6.7C968.1,46,952.3,46,949.1,46z M978.4,46l-2.1,17.3h9.4l1.3-10.7h11.8
	c3.4,0,5.2-1.8,5.5-4.2c0.2-1.2,0.3-2.3,0.3-2.3L978.4,46L978.4,46z"/>
<g id="LFP">
	<path class="st1" d="M821.9,13.2v71.7c0,1.5,1.2,2.7,2.7,2.7l0,0h44.6c1.5,0,2.7-1.2,2.7-2.7l0,0V13.2c0-1.5-1.2-2.7-2.7-2.7l0,0
		h-44.6C823.1,10.5,821.9,11.7,821.9,13.2L821.9,13.2z"/>
	<path d="M824.9,88.3c-2.2,0-4-1.8-4-4l0,0V13.7c0-2.2,1.8-4,4-4l0,0h43.9c2.2,0,4,1.8,4,4l0,0v70.6c0,2.2-1.8,4-4,4l0,0H824.9
		L824.9,88.3z M822.3,13.7v70.6c0,1.5,1.2,2.6,2.6,2.6l0,0h43.9c1.5,0,2.6-1.2,2.6-2.6l0,0V13.7c0-1.5-1.2-2.6-2.6-2.6l0,0h-43.9
		C823.5,11.1,822.3,12.2,822.3,13.7L822.3,13.7z"/>
	<linearGradient id="SVGID_1_" gradientUnits="userSpaceOnUse" x1="845.2531" y1="39.1358" x2="848.0227" y2="16.6905">
		<stop  offset="0" style="stop-color:#C1C1C1"/>
		<stop  offset="1" style="stop-color:#000000"/>
	</linearGradient>
	<path class="st2" d="M870.4,38.2l0-24.4c0-0.7-0.6-1.3-1.2-1.3h-44.6c-0.7,0-1.2,0.6-1.2,1.3v13.4l0.9,5.2c6.5-0.1,15.9,0,25.2,1.3
		c1.3-2.6,1.9-4.7,1.5-7c-1-4.3-4.9-8.5-4.9-8.5c-0.5-1,0.9-0.5,0.9-0.5c3,1.2,8,6.2,8,6.2c0.8-0.4,1.5-1,2.2-1.8
		c-0.4,0.3-0.9,0.5-1.4,0.5c-1.3,0-2.4-1.1-2.4-2.4c0-1.3,1.1-2.4,2.4-2.4c1.3,0,2.4,1.1,2.4,2.4c0,0.4-0.1,0.8-0.3,1.1
		c1.5-1.9,2.5-4,2.5-4s0.8-0.8,0.6,1.9c-0.4,4.1-3.1,7.4-3.1,7.4s1,1.3,1.9,2.9c0.6,1,1.7,3.7,1.9,6.5c0.5,0.1,1,0.2,1.4,0.3
		c0.4-0.9,1.2-1.6,2.3-1.6c1.4,0,2.5,1.1,2.5,2.5c0,0.1,0,0.2,0,0.3C868.8,37.8,869.6,38,870.4,38.2z M855.2,30.5
		c-1,1.1-2.2,2.4-3.3,3.5c2.1,0.3,4.3,0.7,6.3,1.2c0.3,0.1,0.5,0.1,0.8,0.2C857.4,32.2,855.2,30.5,855.2,30.5z"/>
	<linearGradient id="SVGID_2_" gradientUnits="userSpaceOnUse" x1="850.8895" y1="50.6051" x2="844.9894" y2="33.3586">
		<stop  offset="0" style="stop-color:#626262"/>
		<stop  offset="1" style="stop-color:#B9B9B9"/>
	</linearGradient>
	<path class="st3" d="M842.2,44.5c0-0.2,0.6-0.4,1.4-0.5c-5.8-4.4-12-9.2-13.8-10.6c-1.7,0-3.5,0-5.3,0.1l3.1,17
		c0.2,1.2,1.4,2,2.6,1.8l19.6-3.5c-1.3-1-2.7-2.1-4.2-3.2C843.6,45.4,842.1,44.9,842.2,44.5z M870.4,39.6c-0.9-0.3-1.9-0.6-2.9-0.9
		c-0.4,0.6-1.2,1.1-2,1.1c-1.3,0-2.4-1-2.4-2.3c-0.4-0.1-0.8-0.2-1.2-0.3c0,0.6-0.1,1.2-0.2,1.7c-0.3,1.2-0.8,1.5-0.9,1.5
		c-0.2-0.1-0.4-1.8-1.2-3.7c-2.6-0.6-5.5-1.1-8.6-1.6c-1.1,1-1.9,1.8-2.2,1.8c-0.7,0.1-0.5-0.6-0.5-0.6c0.3-0.5,0.6-1,0.8-1.4
		c-5.2-0.7-11.1-1.2-17.6-1.3L846.4,44c2.1,0.2,3.8,0.7,3.7,1.1c0,0.2-0.6,0.4-1.5,0.5l3.8,2.7l17.9-3.2L870.4,39.6z"/>
	<path d="M830.1,57.3h-4.2v14h11.7l0.6-1.6h-8.1V57.3z M839.8,71.3h4.2v-5.7h5.5L850,64h-6v-5h7.5l0.6-1.6h-12.3V71.3z M868.6,62.4
		c-0.3-4.3-4.4-5.1-4.4-5.1h-10.5v14h4.2V58.9h4.4c0.8,0.3,2.9,1.3,2.9,3.3c-0.1,2.6-2.7,3.2-2.7,3.2h-3.2l-0.8,1.8h5.7
		C864.2,67.2,868.9,66.7,868.6,62.4z"/>
	<g>
		<path d="M827.9,78.2h-1.6v-3.1h0.5v2.7h1.1V78.2z"/>
		<path d="M828.9,78.2h-0.5v-3.1h0.5V78.2z"/>
		<path d="M830.7,76.7h2.1c0,0.5-0.2,0.9-0.5,1.2c-0.3,0.3-0.7,0.4-1.2,0.4c-0.2,0-0.5,0-0.7-0.1c-0.2-0.1-0.4-0.2-0.6-0.4
			c-0.1-0.1-0.2-0.3-0.3-0.5c-0.1-0.2-0.1-0.4-0.1-0.6c0-0.2,0-0.4,0.1-0.6c0.1-0.2,0.2-0.4,0.4-0.5c0.2-0.1,0.3-0.3,0.5-0.3
			c0.2-0.1,0.4-0.1,0.7-0.1c0.3,0,0.6,0.1,0.9,0.2c0.3,0.1,0.4,0.4,0.6,0.6H832c-0.1-0.1-0.2-0.2-0.4-0.3c-0.2-0.1-0.3-0.1-0.5-0.1
			c-0.2,0-0.3,0-0.4,0.1c-0.1,0.1-0.3,0.1-0.4,0.2c-0.1,0.1-0.2,0.2-0.3,0.4c-0.1,0.1-0.1,0.3-0.1,0.4c0,0.2,0,0.3,0.1,0.5
			c0.1,0.1,0.1,0.3,0.2,0.4c0.1,0.1,0.2,0.2,0.4,0.3c0.1,0.1,0.3,0.1,0.5,0.1c0.3,0,0.5-0.1,0.7-0.2c0.2-0.1,0.4-0.3,0.5-0.6h-1.5
			V76.7z"/>
		<path d="M833.3,75.1h0.5v2c0,0.3,0,0.5,0.1,0.6c0.1,0.1,0.2,0.2,0.5,0.2c0.2,0,0.4-0.1,0.4-0.2c0.1-0.1,0.1-0.3,0.1-0.6v-2h0.5v2
			c0,0.2,0,0.4,0,0.5c0,0.1-0.1,0.2-0.1,0.3c-0.1,0.1-0.2,0.2-0.4,0.3c-0.1,0.1-0.3,0.1-0.5,0.1c-0.2,0-0.4,0-0.5-0.1
			c-0.1-0.1-0.3-0.2-0.4-0.3c-0.1-0.1-0.1-0.2-0.1-0.3c0-0.1,0-0.3,0-0.5V75.1z"/>
		<path d="M837.8,78.2h-1.7v-3.1h1.7v0.4h-1.2v0.9h1.2v0.4h-1.2v0.9h1.2V78.2z"/>
		<path d="M840.8,78.2h-0.9v-3.1h1.1c0.5,0,0.9,0.1,1.2,0.4c0.3,0.3,0.5,0.7,0.5,1.1c0,0.3-0.1,0.5-0.2,0.7
			c-0.1,0.2-0.3,0.4-0.5,0.5c-0.1,0.1-0.3,0.2-0.5,0.2C841.3,78.2,841.1,78.2,840.8,78.2z M840.3,77.8h0.6c0.4,0,0.7-0.1,0.9-0.3
			c0.2-0.2,0.3-0.5,0.3-0.8c0-0.4-0.1-0.6-0.3-0.8c-0.2-0.2-0.5-0.3-0.9-0.3h-0.5V77.8z"/>
		<path d="M844.9,78.2h-1.7v-3.1h1.7v0.4h-1.2v0.9h1.2v0.4h-1.2v0.9h1.2V78.2z"/>
		<path d="M847,78.2v-3.1h1.6v0.4h-1.2v0.9h1.2v0.4h-1.2v1.4H847z"/>
		<path d="M849.2,76.7c0-0.2,0-0.4,0.1-0.6c0.1-0.2,0.2-0.4,0.4-0.5c0.2-0.1,0.3-0.3,0.5-0.3c0.2-0.1,0.4-0.1,0.6-0.1
			c0.2,0,0.4,0,0.6,0.1c0.2,0.1,0.4,0.2,0.5,0.3c0.2,0.2,0.3,0.3,0.4,0.5c0.1,0.2,0.1,0.4,0.1,0.6c0,0.2,0,0.4-0.1,0.6
			c-0.1,0.2-0.2,0.4-0.3,0.5c-0.2,0.2-0.4,0.3-0.6,0.4c-0.2,0.1-0.4,0.1-0.7,0.1c-0.2,0-0.5,0-0.7-0.1c-0.2-0.1-0.4-0.2-0.6-0.4
			c-0.1-0.1-0.2-0.3-0.3-0.5C849.2,77.1,849.2,76.9,849.2,76.7z M849.7,76.7c0,0.2,0,0.3,0.1,0.5c0.1,0.1,0.1,0.3,0.2,0.4
			c0.1,0.1,0.2,0.2,0.4,0.3c0.1,0.1,0.3,0.1,0.5,0.1c0.3,0,0.6-0.1,0.9-0.3c0.2-0.2,0.3-0.5,0.3-0.8c0-0.1,0-0.3-0.1-0.4
			c-0.1-0.1-0.1-0.2-0.2-0.4c-0.1-0.1-0.3-0.2-0.4-0.3c-0.1-0.1-0.3-0.1-0.5-0.1c-0.2,0-0.3,0-0.4,0.1c-0.1,0.1-0.3,0.1-0.4,0.2
			c-0.1,0.1-0.2,0.2-0.3,0.4C849.7,76.4,849.7,76.5,849.7,76.7z"/>
		<path d="M852.9,76.7c0-0.2,0-0.4,0.1-0.6c0.1-0.2,0.2-0.4,0.4-0.5c0.2-0.1,0.3-0.3,0.5-0.3c0.2-0.1,0.4-0.1,0.6-0.1
			c0.2,0,0.4,0,0.6,0.1c0.2,0.1,0.4,0.2,0.5,0.3c0.2,0.2,0.3,0.3,0.4,0.5c0.1,0.2,0.1,0.4,0.1,0.6c0,0.2,0,0.4-0.1,0.6
			c-0.1,0.2-0.2,0.4-0.3,0.5c-0.2,0.2-0.4,0.3-0.6,0.4c-0.2,0.1-0.4,0.1-0.7,0.1c-0.2,0-0.5,0-0.7-0.1c-0.2-0.1-0.4-0.2-0.6-0.4
			c-0.1-0.1-0.2-0.3-0.3-0.5C853,77.1,852.9,76.9,852.9,76.7z M853.4,76.7c0,0.2,0,0.3,0.1,0.5c0.1,0.1,0.1,0.3,0.2,0.4
			c0.1,0.1,0.2,0.2,0.4,0.3c0.1,0.1,0.3,0.1,0.5,0.1c0.3,0,0.6-0.1,0.9-0.3c0.2-0.2,0.3-0.5,0.3-0.8c0-0.1,0-0.3-0.1-0.4
			c-0.1-0.1-0.1-0.2-0.2-0.4c-0.1-0.1-0.3-0.2-0.4-0.3c-0.1-0.1-0.3-0.1-0.5-0.1c-0.2,0-0.3,0-0.4,0.1c-0.1,0.1-0.3,0.1-0.4,0.2
			c-0.1,0.1-0.2,0.2-0.3,0.4C853.5,76.4,853.4,76.5,853.4,76.7z"/>
		<path d="M857.7,78.2h-0.5v-2.7h-0.6v-0.4h1.7v0.4h-0.6V78.2z"/>
		<path d="M859.5,75.1c0.4,0,0.6,0.1,0.8,0.2c0.2,0.1,0.3,0.4,0.3,0.6c0,0.1,0,0.2-0.1,0.3c-0.1,0.1-0.1,0.2-0.3,0.2
			c0.2,0,0.3,0.1,0.4,0.3c0.1,0.1,0.1,0.3,0.1,0.5c0,0.1,0,0.3-0.1,0.4c-0.1,0.1-0.1,0.2-0.2,0.3c-0.1,0.1-0.2,0.1-0.3,0.2
			c-0.1,0-0.3,0.1-0.5,0.1h-0.8v-3.1H859.5z M859.2,77.8h0.4c0.2,0,0.4,0,0.5-0.1c0.1-0.1,0.2-0.2,0.2-0.4c0-0.2-0.1-0.3-0.2-0.4
			c-0.1-0.1-0.3-0.1-0.5-0.1h-0.4V77.8z M859.2,76.4h0.2c0.2,0,0.4,0,0.5-0.1c0.1-0.1,0.2-0.2,0.2-0.3c0-0.1,0-0.2-0.1-0.3
			c-0.1-0.1-0.2-0.1-0.4-0.1h-0.3V76.4z"/>
		<path d="M861.7,77.3l-0.4,0.9h-0.5l1.3-3.1h0.5l1.3,3.1h-0.5l-0.4-0.9H861.7z M862.8,76.9l-0.5-1.2l-0.5,1.2H862.8z"/>
		<path d="M865.7,78.2h-1.6v-3.1h0.5v2.7h1.1V78.2z"/>
		<path d="M867.8,78.2h-1.6v-3.1h0.5v2.7h1.1V78.2z"/>
		<path d="M830.7,83h-0.5v-3.1h0.8c0.2,0,0.4,0,0.5,0c0.1,0,0.2,0.1,0.3,0.1c0.1,0.1,0.2,0.2,0.3,0.3c0.1,0.1,0.1,0.3,0.1,0.5
			c0,0.3-0.1,0.5-0.3,0.7c-0.2,0.2-0.5,0.3-0.8,0.3h-0.4V83z M830.7,81.3h0.3c0.2,0,0.4,0,0.5-0.1c0.1-0.1,0.2-0.2,0.2-0.4
			c0-0.2-0.1-0.3-0.2-0.4c-0.1-0.1-0.3-0.1-0.5-0.1h-0.4V81.3z"/>
		<path d="M833.2,83h-0.5v-3.1h1c0.4,0,0.7,0.1,0.9,0.3c0.2,0.2,0.3,0.4,0.3,0.7c0,0.3-0.1,0.5-0.3,0.6c-0.2,0.2-0.4,0.3-0.7,0.3
			l0.9,1.2h-0.6l-1.1-1.4V83z M833.2,81.5h0.2c0.3,0,0.6-0.1,0.7-0.2c0.2-0.1,0.2-0.3,0.2-0.5c0-0.2-0.1-0.3-0.2-0.4
			c-0.1-0.1-0.4-0.1-0.7-0.1h-0.4V81.5z"/>
		<path d="M835.3,81.4c0-0.2,0-0.4,0.1-0.6c0.1-0.2,0.2-0.4,0.4-0.5c0.2-0.1,0.3-0.3,0.5-0.3c0.2-0.1,0.4-0.1,0.6-0.1
			c0.2,0,0.4,0,0.6,0.1c0.2,0.1,0.4,0.2,0.5,0.3c0.2,0.2,0.3,0.3,0.4,0.5c0.1,0.2,0.1,0.4,0.1,0.6c0,0.2,0,0.4-0.1,0.6
			c-0.1,0.2-0.2,0.4-0.3,0.5c-0.2,0.2-0.4,0.3-0.6,0.4c-0.2,0.1-0.4,0.1-0.7,0.1c-0.2,0-0.5,0-0.7-0.1c-0.2-0.1-0.4-0.2-0.6-0.4
			c-0.1-0.1-0.2-0.3-0.3-0.5C835.3,81.8,835.3,81.6,835.3,81.4z M835.8,81.4c0,0.2,0,0.3,0.1,0.5c0.1,0.1,0.1,0.3,0.2,0.4
			c0.1,0.1,0.2,0.2,0.4,0.3c0.1,0.1,0.3,0.1,0.5,0.1c0.3,0,0.6-0.1,0.9-0.3c0.2-0.2,0.3-0.5,0.3-0.8c0-0.1,0-0.3-0.1-0.4
			c-0.1-0.1-0.1-0.2-0.2-0.4c-0.1-0.1-0.3-0.2-0.4-0.3c-0.1-0.1-0.3-0.1-0.5-0.1c-0.2,0-0.3,0-0.4,0.1c-0.1,0.1-0.3,0.1-0.4,0.2
			c-0.1,0.1-0.2,0.2-0.3,0.4S835.8,81.3,835.8,81.4z"/>
		<path d="M839.2,83v-3.1h1.6v0.4h-1.2v0.9h1.2v0.4h-1.2V83H839.2z"/>
		<path d="M843.2,83h-1.7v-3.1h1.7v0.4H842v0.9h1.2v0.4H842v0.9h1.2V83z"/>
		<path d="M843.7,82.1h0.4c0,0.2,0.1,0.3,0.2,0.4c0.1,0.1,0.2,0.1,0.4,0.1c0.2,0,0.3,0,0.4-0.1c0.1-0.1,0.1-0.2,0.1-0.4
			c0-0.1,0-0.2-0.1-0.3c-0.1-0.1-0.2-0.1-0.5-0.2c0,0,0,0-0.1,0c-0.3-0.1-0.5-0.2-0.6-0.3c-0.1-0.1-0.1-0.1-0.1-0.2
			c0-0.1,0-0.2,0-0.3c0-0.3,0.1-0.5,0.3-0.6c0.2-0.2,0.4-0.2,0.7-0.2c0.3,0,0.5,0.1,0.6,0.2c0.2,0.1,0.2,0.3,0.3,0.6h-0.4
			c0-0.1-0.1-0.2-0.1-0.3c-0.1-0.1-0.2-0.1-0.3-0.1c-0.1,0-0.2,0-0.3,0.1c-0.1,0.1-0.1,0.2-0.1,0.3c0,0,0,0.1,0,0.1
			c0,0,0,0.1,0.1,0.1c0.1,0.1,0.2,0.1,0.4,0.2c0.1,0,0.2,0,0.2,0.1c0.2,0.1,0.4,0.2,0.5,0.3c0.1,0.1,0.2,0.3,0.2,0.5
			c0,0.3-0.1,0.5-0.3,0.7c-0.2,0.2-0.4,0.3-0.7,0.3c-0.3,0-0.5-0.1-0.7-0.3C843.8,82.6,843.7,82.4,843.7,82.1z"/>
		<path d="M846,82.1h0.4c0,0.2,0.1,0.3,0.2,0.4c0.1,0.1,0.2,0.1,0.4,0.1c0.2,0,0.3,0,0.4-0.1c0.1-0.1,0.1-0.2,0.1-0.4
			c0-0.1,0-0.2-0.1-0.3c-0.1-0.1-0.2-0.1-0.5-0.2c0,0,0,0-0.1,0c-0.3-0.1-0.5-0.2-0.6-0.3c-0.1-0.1-0.1-0.1-0.1-0.2
			c0-0.1,0-0.2,0-0.3c0-0.3,0.1-0.5,0.3-0.6c0.2-0.2,0.4-0.2,0.7-0.2c0.3,0,0.5,0.1,0.6,0.2c0.2,0.1,0.2,0.3,0.3,0.6h-0.4
			c0-0.1-0.1-0.2-0.1-0.3c-0.1-0.1-0.2-0.1-0.3-0.1c-0.1,0-0.2,0-0.3,0.1c-0.1,0.1-0.1,0.2-0.1,0.3c0,0,0,0.1,0,0.1
			c0,0,0,0.1,0.1,0.1c0.1,0.1,0.2,0.1,0.4,0.2c0.1,0,0.2,0,0.2,0.1c0.2,0.1,0.4,0.2,0.5,0.3c0.1,0.1,0.2,0.3,0.2,0.5
			c0,0.3-0.1,0.5-0.3,0.7c-0.2,0.2-0.4,0.3-0.7,0.3c-0.3,0-0.5-0.1-0.7-0.3C846.1,82.6,846,82.4,846,82.1z"/>
		<path d="M849,83h-0.5v-3.1h0.5V83z"/>
		<path d="M849.5,81.4c0-0.2,0-0.4,0.1-0.6c0.1-0.2,0.2-0.4,0.4-0.5c0.2-0.1,0.3-0.3,0.5-0.3c0.2-0.1,0.4-0.1,0.6-0.1
			c0.2,0,0.4,0,0.6,0.1c0.2,0.1,0.4,0.2,0.5,0.3c0.2,0.2,0.3,0.3,0.4,0.5c0.1,0.2,0.1,0.4,0.1,0.6c0,0.2,0,0.4-0.1,0.6
			c-0.1,0.2-0.2,0.4-0.3,0.5c-0.2,0.2-0.4,0.3-0.6,0.4c-0.2,0.1-0.4,0.1-0.7,0.1c-0.2,0-0.5,0-0.7-0.1c-0.2-0.1-0.4-0.2-0.6-0.4
			c-0.1-0.1-0.2-0.3-0.3-0.5C849.6,81.8,849.5,81.6,849.5,81.4z M850,81.4c0,0.2,0,0.3,0.1,0.5c0.1,0.1,0.1,0.3,0.2,0.4
			c0.1,0.1,0.2,0.2,0.4,0.3c0.1,0.1,0.3,0.1,0.5,0.1c0.3,0,0.6-0.1,0.9-0.3c0.2-0.2,0.3-0.5,0.3-0.8c0-0.1,0-0.3-0.1-0.4
			c-0.1-0.1-0.1-0.2-0.2-0.4c-0.1-0.1-0.3-0.2-0.4-0.3c-0.1-0.1-0.3-0.1-0.5-0.1c-0.2,0-0.3,0-0.4,0.1c-0.1,0.1-0.3,0.1-0.4,0.2
			c-0.1,0.1-0.2,0.2-0.3,0.4C850.1,81.1,850,81.3,850,81.4z"/>
		<path d="M853.9,83h-0.5v-3.1h0.5l1.6,2.3l0-2.3h0.5V83h-0.5l-1.7-2.4L853.9,83z"/>
		<path d="M857.2,83h-0.5v-3.1h0.5l1.6,2.3l0-2.3h0.5V83h-0.5l-1.7-2.4L857.2,83z"/>
		<path d="M861.7,83H860v-3.1h1.7v0.4h-1.2v0.9h1.2v0.4h-1.2v0.9h1.2V83z"/>
		<path d="M863.9,83h-1.6v-3.1h0.5v2.7h1.1V83z"/>
	</g>
	<g>
		<path d="M864.4,80.1c0.1,0,0.2,0,0.2,0c0.1,0,0.1,0.1,0.2,0.1c0.1,0.1,0.1,0.1,0.1,0.2c0,0.1,0,0.2,0,0.2c0,0.1,0,0.2,0,0.2
			c0,0.1-0.1,0.1-0.1,0.2c-0.1,0.1-0.1,0.1-0.2,0.1c-0.1,0-0.2,0-0.2,0c-0.1,0-0.2,0-0.2,0c-0.1,0-0.1-0.1-0.2-0.1
			c-0.1-0.1-0.1-0.1-0.1-0.2c0-0.1,0-0.2,0-0.2c0-0.1,0-0.2,0-0.2c0-0.1,0.1-0.1,0.1-0.2c0.1-0.1,0.1-0.1,0.2-0.1
			C864.2,80.1,864.3,80.1,864.4,80.1z M864.9,80.7c0-0.1,0-0.1,0-0.2c0-0.1-0.1-0.1-0.1-0.2c-0.1-0.1-0.1-0.1-0.2-0.1
			c-0.1,0-0.1,0-0.2,0c-0.1,0-0.1,0-0.2,0c-0.1,0-0.1,0.1-0.2,0.1c-0.1,0.1-0.1,0.1-0.1,0.2c0,0.1,0,0.1,0,0.2c0,0.1,0,0.1,0,0.2
			c0,0.1,0.1,0.1,0.1,0.2c0.1,0.1,0.1,0.1,0.2,0.1s0.1,0,0.2,0c0.1,0,0.1,0,0.2,0c0.1,0,0.1-0.1,0.2-0.1c0.1,0,0.1-0.1,0.1-0.2
			C864.9,80.9,864.9,80.8,864.9,80.7z M864.4,80.3c0.1,0,0.2,0,0.2,0c0,0,0.1,0.1,0.1,0.1c0,0.1,0,0.1,0,0.1c0,0-0.1,0.1-0.1,0.1
			l0.2,0.3h-0.1l-0.1-0.3h-0.1V81h-0.1v-0.7H864.4z M864.4,80.4h-0.1v0.2h0.1c0.1,0,0.1,0,0.1,0c0,0,0,0,0-0.1c0,0,0-0.1,0-0.1
			C864.5,80.4,864.4,80.4,864.4,80.4z"/>
	</g>
</g>
<g id="NRL" transform="translate(-256.68982,-382.36219)">
	<g id="g8114" transform="matrix(2.2823017,0,0,2.2823017,-973.2717,-116.95765)">
		<g id="g7557" transform="matrix(1.25,0,0,-1.25,-351.80479,904.40907)">
			<g>
				<defs>
					<polygon id="SVGID_7_" points="960.1,518.6 980,518.6 980,543.8 960.1,543.8 960.1,518.6 					"/>
				</defs>
				<clipPath id="SVGID_3_">
					<use xlink:href="#SVGID_7_"  style="overflow:visible;"/>
				</clipPath>
				<g id="g7559" class="st4">
					<g id="g7565" transform="translate(792.6627,478.41)">
						<path id="path7567" class="st5" d="M186.7,48.6c0-0.4-0.2-0.8-0.4-1.2c0-0.1-0.1-0.2-0.2-0.3c-0.6-1.1-1.8-1.8-3.7-3.1
							l-0.4-0.3c-1-0.6-2.9-1.8-4.1-2.5c-0.1,0-0.3-0.2-0.3-0.2l-0.3-0.1l-0.3,0.1c0,0-0.2,0.1-0.3,0.2c-1.2,0.7-3.1,1.9-4.1,2.5
							l-0.4,0.3c-1.9,1.2-3,2-3.7,3.1c-0.1,0.1-0.1,0.2-0.2,0.3c-0.2,0.4-0.3,0.8-0.4,1.2c0,0.1,0,0.3,0,0.4l0.1,14.9l0.4,0.1
							c0.1,0,3,0.7,8.8,0.7c5.7,0,8.7-0.7,8.8-0.7l0.4-0.1l0.1-14.9C186.7,48.9,186.7,48.8,186.7,48.6 M187.3,64.4l-0.9,0.2
							c-0.1,0-3.1,0.7-8.9,0.7c-5.8,0-8.8-0.7-8.9-0.7l-0.9-0.2L167.4,49c0-0.1,0-0.3,0-0.5c0.1-0.5,0.2-1,0.4-1.5
							c0.1-0.1,0.1-0.2,0.2-0.3c0.7-1.2,1.9-2,3.9-3.3l0.5-0.3c1-0.6,3-1.8,4.1-2.5c0.1,0,0.3-0.2,0.3-0.2l0.6-0.3l0.6,0.3
							c0,0,0.2,0.1,0.3,0.2c1.2,0.7,3.2,1.9,4.1,2.5l0.5,0.3c2,1.3,3.1,2.1,3.9,3.3c0.1,0.1,0.1,0.2,0.2,0.3c0.2,0.5,0.4,1,0.4,1.5
							c0,0.2,0,0.3,0,0.5L187.3,64.4z"/>
					</g>
				</g>
			</g>
		</g>
		<g id="g7569" transform="matrix(1.25,0,0,-1.25,-351.80479,904.40907)">
			<g>
				<defs>
					<polygon id="SVGID_9_" points="959.9,518.6 980.2,518.6 980.2,543.8 959.9,543.8 959.9,518.6 					"/>
				</defs>
				<clipPath id="SVGID_4_">
					<use xlink:href="#SVGID_9_"  style="overflow:visible;"/>
				</clipPath>
				<g id="g7571" class="st6">
					<g id="g7577" transform="translate(790.4667,478.6536)">
						<path id="path7579" class="st1" d="M188.4,48.4c0-0.4-0.2-0.7-0.3-1.1c0-0.1-0.1-0.2-0.1-0.2c-0.6-1-1.9-1.8-3.9-3.2
							c-0.9-0.6-2.9-1.8-4.1-2.5c-0.1,0-0.3-0.2-0.3-0.2s-0.2,0.1-0.3,0.2c-1.2,0.7-3.2,1.9-4.1,2.5c-2.1,1.4-3.3,2.2-3.9,3.2
							c0,0.1-0.1,0.2-0.1,0.2c-0.2,0.3-0.3,0.7-0.3,1.1c0,0.1,0,0.2,0,0.3l0.1,14.5c0,0,2.9,0.7,8.7,0.7c5.7,0,8.7-0.7,8.7-0.7
							l0.1-14.5C188.4,48.6,188.4,48.5,188.4,48.4 M188.4,63.8c-0.1,0-3,0.7-8.8,0.7c-5.7,0-8.7-0.7-8.8-0.7l-0.4-0.1l-0.1-14.9
							c0-0.1,0-0.2,0-0.4c0-0.4,0.2-0.8,0.4-1.2c0-0.1,0.1-0.2,0.2-0.3c0.6-1.1,1.8-1.8,3.7-3.1l0.4-0.3c1-0.6,2.9-1.8,4.1-2.5
							c0.1,0,0.3-0.2,0.3-0.2l0.3-0.1l0.3,0.1c0,0,0.2,0.1,0.3,0.2c1.2,0.7,3.1,1.9,4.1,2.5l0.4,0.3c1.9,1.2,3,2,3.7,3.1
							c0.1,0.1,0.1,0.2,0.2,0.3c0.2,0.4,0.3,0.8,0.4,1.2c0,0.1,0,0.3,0,0.4l-0.1,14.9L188.4,63.8z"/>
					</g>
					<g id="g7581" transform="translate(754.0621,451.8018)">
						<path id="path7583" class="st5" d="M216,68.8l-7.7,4.4c0.7-0.7,1.8-1.4,3.3-2.4c0.9-0.6,2.9-1.8,4.1-2.5
							c0.1,0,0.3-0.2,0.3-0.2s0.2,0.1,0.3,0.2c1.2,0.7,3.2,1.9,4.1,2.5c1.5,1,2.6,1.7,3.3,2.4L216,68.8z"/>
					</g>
					<g id="g7585" transform="translate(790.4794,487.9009)">
						<path id="path7587" class="st5" d="M188.4,41.4l0,0.6l-8.8-5l-8.8,5l0-0.6l8.8-5L188.4,41.4z"/>
					</g>
					<g id="g7589" transform="translate(790.3327,505.7424)">
						<path id="path7591" class="st5" d="M188.5,27.8l-0.1,8.4c0,0-2.9,0.7-8.7,0.7c-5.7,0-8.7-0.7-8.7-0.7l-0.1-8.4l8.7-5
							L188.5,27.8z"/>
					</g>
					<g id="g7593" transform="translate(790.4935,486.1521)">
						<path id="path7595" class="st7" d="M188.3,42.7l0,0.4l-8.8-5l-8.8,5l0-0.4l8.8-5L188.3,42.7z"/>
					</g>
					<g id="g7597" transform="translate(790.3468,503.9936)">
						<path id="path7599" class="st7" d="M188.5,29.2l0,0.4l-8.7-5l-8.7,5l0-0.4l8.7-5L188.5,29.2z"/>
					</g>
					<g id="g7601" transform="translate(786.0721,470.0857)">
						<path id="path7603" d="M191.7,54.9c0.2,0.2,0.4,0.5,0.6,0.8c0,0.1,0.1,0.2,0.1,0.2c0,0.1,0.1,0.1,0.1,0.2l-8.5-4.8l-8.5,4.8
							c0-0.1,0-0.1,0.1-0.2c0-0.1,0.1-0.2,0.1-0.2c0.2-0.3,0.4-0.5,0.6-0.7l7.7-4.4L191.7,54.9z"/>
					</g>
					<g id="g7605" transform="translate(790.4574,490.5164)">
						<path id="path7607" d="M188.4,39.4l0,0.7l-8.7-5l-8.8,5l0-0.7l8.8-5L188.4,39.4z"/>
					</g>
				</g>
			</g>
		</g>
		<g id="g7609" transform="matrix(1.25,0,0,-1.25,-351.80479,904.40907)">
			<g id="g7611">
				<g id="g7617">
					<g id="g7619">
						
							<linearGradient id="path7633_1_" gradientUnits="userSpaceOnUse" x1="1533.2396" y1="67.373" x2="1533.48" y2="67.373" gradientTransform="matrix(-234.5698 0 0 -234.5698 360631.6562 16328.7695)">
							<stop  offset="0" style="stop-color:#8A8A8A"/>
							<stop  offset="0.17" style="stop-color:#B3B3B3"/>
							<stop  offset="0.5031" style="stop-color:#CECECE"/>
							<stop  offset="0.83" style="stop-color:#B3B3B3"/>
							<stop  offset="1" style="stop-color:#8A8A8A"/>
						</linearGradient>
						<path id="path7633" class="st8" d="M961.3,527.4c0-0.1,0-0.2,0-0.3l0,0c0-0.3,0.1-0.6,0.2-0.9l0,0l8.5-4.8l8.5,4.8
							c0.1,0.3,0.2,0.6,0.3,0.9l0,0c0,0.1,0,0.2,0,0.3l0,0l0,1.5l-8.8-5l-8.8,5L961.3,527.4L961.3,527.4z"/>
					</g>
				</g>
			</g>
		</g>
		<g id="g7635" transform="matrix(1.25,0,0,-1.25,-351.80479,904.40907)">
			<g id="g7637">
				<g id="g7643">
					<g id="g7645">
						
							<linearGradient id="path7659_1_" gradientUnits="userSpaceOnUse" x1="1533.2396" y1="67.4309" x2="1533.48" y2="67.4309" gradientTransform="matrix(-234.5698 0 0 -234.5698 360631.6562 16346.6455)">
							<stop  offset="0" style="stop-color:#8A8A8A"/>
							<stop  offset="0.17" style="stop-color:#B3B3B3"/>
							<stop  offset="0.5031" style="stop-color:#CECECE"/>
							<stop  offset="0.83" style="stop-color:#B3B3B3"/>
							<stop  offset="1" style="stop-color:#8A8A8A"/>
						</linearGradient>
						<path id="path7659" class="st9" d="M961.3,530.6l8.8-5l8.7,5l0,2.5l-8.7-5l-8.7,5L961.3,530.6L961.3,530.6z"/>
					</g>
				</g>
			</g>
		</g>
		<g id="g7661" transform="matrix(1.25,0,0,-1.25,-351.80479,904.40907)">
			<g>
				<defs>
					<polygon id="SVGID_11_" points="959.9,518.6 980.2,518.6 980.2,543.8 959.9,543.8 959.9,518.6 					"/>
				</defs>
				<clipPath id="SVGID_5_">
					<use xlink:href="#SVGID_11_"  style="overflow:visible;"/>
				</clipPath>
				<g id="g7663" class="st10">
					<path id="path7669" d="M962.8,535.1h1.4v0.6h-1.4V535.1z"/>
					<g id="g7671" transform="translate(736.8775,515.5061)">
						<path id="path7673" d="M229.1,20.4l-1.7,2.8v-0.6l1.7-2.8c0.1-0.2,0.3-0.3,0.5-0.3h1.1v0.6h-1.1
							C229.4,20.1,229.2,20.2,229.1,20.4"/>
					</g>
					<g id="g7675" transform="translate(764.9585,527.8055)">
						<path id="path7677" d="M207.7,11c0,0.1,0,0.2,0,0.3c-0.1-0.5-0.3-1-0.7-1.2c-0.1-0.1-0.2-0.1-0.2-0.1l0.3-0.4
							C207.6,9.9,207.7,10.5,207.7,11"/>
					</g>
					<g id="g7679" transform="translate(746.7136,531.0699)">
						<path id="path7681" d="M221.6,8.6h1.2c0.1,0,0.2,0,0.2-0.1h0.6c0.5,0,0.8-0.2,0.9-0.5c0,0.1,0,0.2,0,0.3
							c0,0.5-0.3,0.7-0.9,0.7h-2.7V8.5L221.6,8.6L221.6,8.6z"/>
					</g>
					<g id="g7683" transform="translate(767.1613,519.932)">
						<path id="path7685" d="M206.1,17v-0.6l1.2-1.3h3.3v0.6h-3.3L206.1,17z"/>
					</g>
					<path id="path7687" d="M968.3,535.1h1.5v0.6h-1.5V535.1z"/>
					<g id="g7689" transform="translate(768.9954,514.3501)">
						<path id="path7691" d="M204.7,21.3h-1.4c-0.3,0-0.4,0.1-0.5,0.2c-0.1,0.1-1.4,1.7-1.4,1.7h-0.6v-0.6h0.6c0,0,1.3-1.6,1.4-1.7
							c0.1-0.1,0.2-0.2,0.5-0.2h0.8h0.5h0L204.7,21.3L204.7,21.3L204.7,21.3z"/>
					</g>
					<g id="g7693" transform="translate(762.1823,523.7935)">
						<path id="path7695" class="st1" d="M209.8,14.1c0.5,0.3,0.7,0.9,0.7,1.5c0,0.5-0.1,1-0.7,1.3c-0.4,0.2-1,0.3-1.7,0.3h-3.9l0,0
							v0c-0.2,0-0.2-0.1-0.2-0.2l0,0v-2.9l-1.8,3.1h-1.3c-0.2,0-0.2-0.1-0.2-0.2v-5.2h1.4v3.1l1.7-2.8c0.1-0.2,0.3-0.3,0.5-0.3h1.1
							v4.5h2.7c0.7,0,0.9-0.3,0.9-0.7c0-0.5-0.3-0.8-0.7-0.8h-0.7v0.8c0,0.1-0.1,0.2-0.2,0.2h-1.2v-4h1.5v1.9h0.6
							c0,0,1.3-1.6,1.4-1.7c0.1-0.1,0.2-0.2,0.5-0.2h1.4l-1.9,2.1C209.6,14,209.7,14,209.8,14.1"/>
					</g>
					<g id="g7697" transform="translate(784.7413,518.9237)">
						<path id="path7699" class="st1" d="M192.7,17.8h-2.8v4.4h-1.2c-0.1,0-0.2-0.1-0.2-0.2V18l1.2-1.3h3.3v0.9
							C192.9,17.7,192.9,17.8,192.7,17.8"/>
					</g>
					<g id="g7701" transform="translate(769.4246,502.9118)">
						<path id="path7703" d="M204.3,30l0-0.2l0.5,0.1l0,0l0,0.2h0L204.3,30z"/>
					</g>
					<g id="g7705" transform="translate(769.7719,504.4591)">
						<path id="path7707" d="M204.1,28.8L204.1,28.8l0.3,0.3l0,0l0,0.2l0,0L204.1,28.8z"/>
					</g>
					<g id="g7709" transform="translate(765.128,506.3113)">
						<path id="path7711" d="M207.6,27.4l0-0.2l0,0l0.2-0.3l0.1,0.1L207.6,27.4z"/>
					</g>
					<g id="g7713" transform="translate(765.1363,506.3127)">
						<path id="path7715" d="M207.6,27.4L207.6,27.4L207.6,27.4L207.6,27.4z"/>
					</g>
					<g id="g7717" transform="translate(767.9968,502.2175)">
						<path id="path7719" d="M205.4,30.5l-0.4-0.4l0-0.2l0.4,0.4l0.4-0.3l0,0.2L205.4,30.5z"/>
					</g>
					<g id="g7721" transform="translate(766.5665,502.9018)">
						<path id="path7723" d="M206.5,30l-0.5,0.1h0l0-0.2h0l0.5-0.1L206.5,30z"/>
					</g>
					<g id="g7725" transform="translate(767.1925,505.6908)">
						<path id="path7727" class="st1" d="M206,27.9l0.2,0.5l0.2-0.5l0.5,0.2l-0.3-0.4l0.4-0.3l-0.5-0.1l0-0.5l-0.4,0.3l-0.4-0.4
							l0,0.5l-0.5,0.1l0.4,0.3l-0.3,0.4L206,27.9z"/>
					</g>
					<g id="g7729" transform="translate(783.3388,493.6867)">
						<path id="path7731" d="M193.8,37l0-0.2l0.5,0.1l0,0l0,0.2h0L193.8,37z"/>
					</g>
					<g id="g7733" transform="translate(783.6862,495.2334)">
						<path id="path7735" d="M193.5,35.8L193.5,35.8l0.3,0.3h0l0,0.2h0L193.5,35.8z"/>
					</g>
					<g id="g7737" transform="translate(779.0417,497.086)">
						<path id="path7739" d="M197,34.4l0-0.2l0,0l0.2-0.3l0.1,0.1L197,34.4z"/>
					</g>
					<g id="g7741" transform="translate(779.0505,497.0875)">
						<path id="path7743" d="M197,34.4L197,34.4L197,34.4L197,34.4z"/>
					</g>
					<g id="g7745" transform="translate(781.9105,492.9921)">
						<path id="path7747" d="M194.9,37.5l-0.4-0.4l0-0.2l0.4,0.4l0.4-0.3l0,0.2L194.9,37.5z"/>
					</g>
					<g id="g7749" transform="translate(780.4803,493.6765)">
						<path id="path7751" d="M196,37l-0.5,0.1l0,0l0-0.2h0l0.5-0.1L196,37z"/>
					</g>
					<g id="g7753" transform="translate(781.1068,496.4654)">
						<path id="path7755" class="st1" d="M195.5,34.9l0.2,0.5l0.2-0.5l0.5,0.2l-0.3-0.4l0.4-0.3l-0.5-0.1l0-0.5l-0.4,0.3l-0.4-0.4
							l0,0.5l-0.5,0.1l0.4,0.3L195,35L195.5,34.9z"/>
					</g>
					<g id="g7757" transform="translate(768.9374,467.3811)">
						<path id="path7759" d="M204.7,57l0-0.2l0.5,0.1l0,0l0,0.2h0L204.7,57z"/>
					</g>
					<g id="g7761" transform="translate(769.2848,468.9278)">
						<path id="path7763" d="M204.5,55.8L204.5,55.8l0.3,0.3h0l0,0.2l0,0L204.5,55.8z"/>
					</g>
					<g id="g7765" transform="translate(764.6409,470.7804)">
						<path id="path7767" d="M208,54.4l0-0.2l0,0l0.2-0.3l0.1,0.1L208,54.4z"/>
					</g>
					<g id="g7769" transform="translate(764.6492,470.7818)">
						<path id="path7771" d="M208,54.4L208,54.4L208,54.4L208,54.4z"/>
					</g>
					<g id="g7773" transform="translate(767.5096,466.6864)">
						<path id="path7775" d="M205.8,57.5l-0.4-0.4l0-0.2l0.4,0.4l0.4-0.3l0,0.2L205.8,57.5z"/>
					</g>
					<g id="g7777" transform="translate(766.0794,467.3708)">
						<path id="path7779" d="M206.9,57l-0.5,0.1l0,0l0-0.2h0l0.5-0.1L206.9,57z"/>
					</g>
					<g id="g7781" transform="translate(766.7054,470.1602)">
						<path id="path7783" class="st1" d="M206.4,54.9l0.2,0.5l0.2-0.5l0.5,0.2l-0.3-0.4l0.4-0.3l-0.5-0.1l0-0.5l-0.4,0.3l-0.4-0.4
							l0,0.5l-0.5,0.1l0.4,0.3l-0.3,0.4L206.4,54.9z"/>
					</g>
					<g id="g7785" transform="translate(755.4498,490.9159)">
						<path id="path7787" d="M215,39.1l0-0.2l0.5,0.1l0,0l0,0.2h0L215,39.1z"/>
					</g>
					<g id="g7789" transform="translate(755.7971,492.463)">
						<path id="path7791" d="M214.7,37.9L214.7,37.9l0.3,0.3h0l0,0.2l0,0L214.7,37.9z"/>
					</g>
					<g id="g7793" transform="translate(751.154,494.3156)">
						<path id="path7795" d="M218.2,36.5l0-0.2l0,0l0.2-0.3l0.1,0.1L218.2,36.5z"/>
					</g>
					<g id="g7797" transform="translate(751.1626,494.3171)">
						<path id="path7799" d="M218.2,36.5L218.2,36.5L218.2,36.5L218.2,36.5z"/>
					</g>
					<g id="g7801" transform="translate(754.0226,490.2212)">
						<path id="path7803" d="M216,39.6l-0.4-0.4l0-0.2l0.4,0.4l0.4-0.3l0,0.2L216,39.6z"/>
					</g>
					<g id="g7805" transform="translate(752.5917,490.9061)">
						<path id="path7807" d="M217.1,39.1l-0.5,0.1h0l0-0.2h0l0.5-0.1L217.1,39.1z"/>
					</g>
					<g id="g7809" transform="translate(753.2187,493.695)">
						<path id="path7811" class="st1" d="M216.7,37l0.2,0.5L217,37l0.5,0.2l-0.3-0.4l0.4-0.3l-0.5-0.1l0-0.5l-0.4,0.3l-0.4-0.4
							l0,0.5l-0.5,0.1l0.4,0.3l-0.3,0.4L216.7,37z"/>
					</g>
					<g id="g7813" transform="translate(771.7921,487.3032)">
						<path id="path7815" d="M202.6,41.8l-0.3,0.2l0-0.2l0.2-0.2L202.6,41.8z"/>
					</g>
					<g id="g7817" transform="translate(773.5702,486.7119)">
						<path id="path7819" d="M201.2,42.3l0.2,0.2l0,0.2l-0.3-0.2L201.2,42.3z"/>
					</g>
					<g id="g7821" transform="translate(772.592,486.724)">
						<path id="path7823" d="M201.9,42.3l-0.3-0.2l0-0.2l0.3,0.2l0.3-0.2l0,0.2L201.9,42.3z"/>
					</g>
					<g id="g7825" transform="translate(772.0946,488.2419)">
						<path id="path7827" class="st1" d="M202.3,41.1l0.1,0.3l0.1-0.3l0.4,0l-0.3-0.2l0.1-0.3l-0.3,0.2l-0.3-0.2l0.1,0.3l-0.3,0.2
							L202.3,41.1z"/>
					</g>
				</g>
			</g>
		</g>
	</g>
</g>
<g id="MLB">
	<path class="st11" d="M589.8,28.9h43.7c8,0,14.6,1.6,14.6,3.6v33.7c0,2-0.2,3.6-14.6,3.6s-43.7,0-43.7,0c-8,0-14.6-1.6-14.6-3.6
		V32.4C575.1,30.5,581.7,28.9,589.8,28.9z"/>
	<path class="st12" d="M649.3,32.7l-0.3-1.1c-0.5-1.4-2-2.5-3.4-2.7l-19.3,0l10.1,17.9l0.8,0.2c0.4,0.8,1.3,1.4,1.1,2.4
		c0.8-0.1,1,0.9,1.5,1.3l-0.1,0.7h0.1c0.7-0.2,0.9,0.7,1.4,1.1l-0.2,1.4l3.1,1.8c1.1,0.6,1.2,1.9,1.9,2.8c0.4,0.8,1.6,1.3,1.2,2.3
		l-1.8,3.6c-0.5,0.8-1.3,1.3-2.2,1.4l-7,0v4l8.7,0c0.8,0.1,1.5-0.2,2.1-0.5c1.3-0.7,2.2-2,2.4-3.5l0-27.2L649.3,32.7z"/>
	<path class="st13" d="M618.1,28.9l-43,0l-1.4,0.4c-1.4,0.6-2.4,2.1-2.6,3.6l0,32.4c0,0.8,0.2,1.4,0.4,2.1c0.6,1.3,2,2.2,3.3,2.4
		l28.9,0l-1.7-3.3l-3.5,0c0-5.5,1.2-11,6.1-13.8l-0.3-2.4h-0.9l-1.2-0.3l0-0.5l1.7-3.7l-0.6-0.8l-5.4,0c1.6-1.3,3.2-2.7,4.9-4
		c0.1-0.7,0.1-1.3,0.2-2c0.2-2.2,1.9-4.4,3.9-5c3.5-1.2,7.9-0.8,10.6,1.9c2.6,2.4,2.6,5.9,2.4,9.5h-0.4c0,0.9-0.1,1.8,0.2,2.5
		l0.6,0.6l7.5,0l0.8,0.1l2.8,1.4l0.9-2.4L618.1,28.9z M583.1,61.3c-0.3,1.1-1.4,2.1-2.5,2.3c-1.4,0.2-2.6-0.4-3.3-1.7
		c-0.6-1.1-0.5-2.7,0.3-3.6c0.8-1,1.9-1.3,3.1-1.1c0.8,0.2,1.5,0.7,2,1.5C583.2,59.3,583.4,60.4,583.1,61.3z"/>
</g>
<g id="FB">
	<path id="Blue_1_" class="st14" d="M510.5,75.6c1.6,0,3-1.3,3-3V24.8c0-1.6-1.3-3-3-3h-47.9c-1.6,0-3,1.3-3,3v47.9c0,1.6,1.3,3,3,3
		H510.5z"/>
	<path id="f" class="st1" d="M496.7,75.6V54.8h7l1-8.1h-8v-5.2c0-2.4,0.7-4,4-4l4.3,0v-7.3c-0.7-0.1-3.3-0.3-6.3-0.3
		c-6.2,0-10.4,3.8-10.4,10.7v6h-7v8.1h7v20.8H496.7z"/>
</g>
<g id="Snap">
	<path class="st15" d="M346.2,62c0,0,0,2.4,0.3,3.6c0.2,1.3,0.5,2.5,1.1,3.6c0.8,1.5,2,2.8,3.4,3.9c1,0.8,2.1,1.4,3.4,1.8
		c1.8,0.6,3.7,0.8,5.6,0.8c1.2,0,2.4,0,3.5,0c8.6,0,17.1,0.1,25.7-0.1c1.1,0,2.3-0.1,3.4-0.3c2.1-0.4,4-1.2,5.6-2.6
		c1.9-1.6,3.2-3.6,3.7-6c0.4-1.6,0.5-3.1,0.5-4.7v-0.3c0-0.1,0-26.9-0.1-27.2c0-1-0.1-1.9-0.3-2.9c-0.2-1.2-0.6-2.3-1.1-3.4
		c-0.6-1.1-1.4-2.1-2.3-3c-1.5-1.3-3.1-2.3-5.1-2.8c-1.8-0.5-3.6-0.6-5.4-0.6c0,0,0,0,0,0h-27.5c0,0,0,0,0,0c-1,0-2.1,0-3.1,0.1
		c-1.1,0.1-2.2,0.3-3.3,0.7c-1.7,0.6-3.1,1.5-4.4,2.8c-1.4,1.4-2.4,3-2.9,4.9c-0.4,1.5-0.6,3.1-0.6,4.7c0,0.1,0,0.3,0,0.4L346.2,62z
		"/>
	<path class="st1" d="M374.6,67.2c-0.1,0-0.2,0-0.3,0c-0.1,0-0.1,0-0.2,0c-2.4,0-4.1-1.1-5.5-2.1c-1-0.7-2-1.4-3.2-1.5
		c-0.6-0.1-1.1-0.1-1.7-0.1c-1,0-1.7,0.1-2.3,0.2c-0.3,0.1-0.6,0.1-0.9,0.1c-0.2,0-0.5-0.1-0.7-0.5c-0.1-0.3-0.2-0.6-0.2-0.9
		c-0.2-0.7-0.3-1.2-0.6-1.2c-3.1-0.5-4.9-1.1-5.2-1.9c0-0.1-0.1-0.2-0.1-0.3c0-0.2,0.2-0.5,0.4-0.5c2.4-0.4,4.6-1.6,6.4-3.7
		c1.4-1.6,2.1-3.1,2.2-3.3c0,0,0,0,0,0c0.4-0.7,0.4-1.3,0.2-1.8c-0.4-0.9-1.7-1.3-2.6-1.6c-0.2-0.1-0.4-0.1-0.6-0.2
		c-0.8-0.3-2-0.9-1.9-1.8c0.1-0.6,1-1,1.7-1c0.2,0,0.4,0,0.5,0.1c0.8,0.4,1.5,0.5,2.1,0.5c0.8,0,1.1-0.3,1.2-0.4
		c0-0.4,0-0.8-0.1-1.2c-0.2-2.7-0.4-6,0.5-7.9c2.7-5.7,8.3-6.2,10-6.2c0.3,0,0.6,0,0.8,0c1.7,0,7.4,0.4,10,6.2
		c0.9,1.9,0.7,5.3,0.5,8l0,0.1c0,0.4,0,0.7-0.1,1c0.1,0.1,0.4,0.3,1.1,0.3c0.6,0,1.2-0.2,2-0.5c0.2-0.1,0.5-0.1,0.6-0.1
		c0.3,0,0.5,0,0.7,0.1l0,0c0.6,0.2,1,0.6,1,1.1c0,0.4-0.3,1-1.9,1.6c-0.2,0.1-0.4,0.1-0.6,0.2c-0.9,0.3-2.2,0.7-2.6,1.6
		c-0.2,0.5-0.1,1.1,0.2,1.8c0,0,0,0,0,0c0.1,0.2,2.8,6,8.6,6.9c0.2,0,0.4,0.3,0.4,0.5c0,0.1,0,0.2-0.1,0.3c-0.4,0.8-2.2,1.5-5.2,1.9
		c-0.3,0-0.4,0.5-0.6,1.2c-0.1,0.3-0.1,0.6-0.2,0.9c-0.1,0.3-0.3,0.4-0.6,0.4h0c-0.2,0-0.5,0-0.9-0.1c-0.6-0.1-1.4-0.2-2.3-0.2
		c-0.5,0-1.1,0-1.7,0.1c-1.1,0.2-2.1,0.8-3.2,1.5C378.6,66.1,377,67.2,374.6,67.2"/>
	<path d="M374.7,30.7c1.6,0,7,0.4,9.6,5.9c0.8,1.8,0.6,5.1,0.5,7.7c0,0.4-0.1,0.8-0.1,1.2l0,0.2l0.1,0.1c0,0,0.5,0.5,1.5,0.5l0,0
		l0,0c0.6,0,1.4-0.2,2.2-0.6c0.1-0.1,0.3-0.1,0.4-0.1c0.2,0,0.4,0,0.5,0.1l0,0c0.4,0.1,0.7,0.4,0.7,0.6c0,0.1-0.1,0.6-1.6,1.2
		c-0.1,0.1-0.3,0.1-0.6,0.2c-1,0.3-2.4,0.7-2.9,1.8c-0.3,0.6-0.2,1.3,0.2,2.2c0.2,0.4,2.9,6.3,9,7.2c0,0,0,0.1,0,0.1
		c-0.1,0.2-0.8,1-4.9,1.7c-0.6,0.1-0.8,0.8-1,1.6c-0.1,0.3-0.1,0.6-0.2,0.9c0,0.1,0,0.1-0.1,0.1h0c-0.2,0-0.5,0-0.8-0.1
		c-0.6-0.1-1.4-0.2-2.4-0.2c-0.6,0-1.2,0-1.7,0.1c-1.3,0.2-2.3,0.9-3.4,1.6c-1.5,1-3,2-5.2,2c-0.1,0-0.2,0-0.3,0l0,0l0,0
		c-0.1,0-0.1,0-0.2,0c-2.3,0-3.8-1-5.2-2c-1.1-0.7-2.1-1.4-3.4-1.6c-0.6-0.1-1.2-0.1-1.7-0.1c-1,0-1.8,0.1-2.4,0.3
		c-0.3,0.1-0.6,0.1-0.8,0.1c-0.1,0-0.2,0-0.2-0.1c-0.1-0.3-0.2-0.6-0.2-0.9c-0.2-0.8-0.3-1.5-1-1.6c-4.1-0.6-4.8-1.4-4.9-1.7
		c0,0,0-0.1,0-0.1c6.1-1,8.8-6.8,9-7.2c0.4-0.8,0.5-1.5,0.2-2.2c-0.5-1.1-1.9-1.5-2.9-1.8c-0.2-0.1-0.4-0.1-0.6-0.2
		c-1.2-0.5-1.6-0.9-1.6-1.2c0.1-0.3,0.7-0.7,1.2-0.7c0.1,0,0.2,0,0.3,0.1c0.8,0.4,1.6,0.6,2.3,0.6c1.1,0,1.5-0.5,1.6-0.5l0.1-0.1
		l0-0.2c0-0.4,0-0.8-0.1-1.2c-0.2-2.6-0.4-5.9,0.5-7.7c2.6-5.5,8-5.9,9.6-5.9C373.9,30.7,374.6,30.7,374.7,30.7
		C374.6,30.7,374.7,30.7,374.7,30.7 M374.7,29.8L374.7,29.8c0,0-0.1,0-0.1,0l-0.7,0c-0.9,0-2.8,0.1-4.8,1c-1.1,0.5-2.2,1.1-3.1,2
		c-1.1,1-1.9,2.2-2.6,3.5c-0.9,2-0.7,5.4-0.5,8.2l0,0c0,0.3,0,0.6,0.1,0.9c-0.1,0.1-0.4,0.1-0.7,0.1c-0.5,0-1.2-0.2-1.9-0.5
		c-0.2-0.1-0.4-0.1-0.7-0.1c-0.4,0-0.9,0.1-1.3,0.3c-0.5,0.3-0.8,0.7-0.9,1.1c-0.1,0.3-0.1,0.8,0.6,1.4c0.4,0.3,0.9,0.6,1.6,0.9
		c0.2,0.1,0.4,0.1,0.6,0.2c0.8,0.2,2,0.6,2.3,1.3c0.2,0.4,0.1,0.8-0.2,1.4c0,0,0,0,0,0c-0.1,0.2-0.7,1.6-2.1,3.2
		c-0.8,0.9-1.6,1.6-2.6,2.2c-1.1,0.7-2.3,1.1-3.6,1.3c-0.5,0.1-0.9,0.5-0.8,1c0,0.1,0,0.3,0.1,0.4l0,0c0.2,0.5,0.7,0.8,1.4,1.2
		c0.9,0.4,2.3,0.8,4.1,1c0.1,0.2,0.2,0.6,0.3,0.9c0.1,0.3,0.1,0.6,0.2,0.9c0.1,0.4,0.4,0.8,1.1,0.8c0.3,0,0.6-0.1,1-0.1
		c0.5-0.1,1.3-0.2,2.2-0.2c0.5,0,1,0,1.6,0.1c1,0.2,1.9,0.8,3,1.5c1.5,1,3.2,2.2,5.8,2.2c0.1,0,0.1,0,0.2,0c0.1,0,0.2,0,0.3,0
		c2.6,0,4.3-1.2,5.8-2.2l0,0c1-0.7,1.9-1.3,3-1.5c0.5-0.1,1.1-0.1,1.6-0.1c0.9,0,1.6,0.1,2.2,0.2c0.4,0.1,0.7,0.1,1,0.1l0,0h0
		c0.5,0,0.9-0.3,1.1-0.8c0.1-0.3,0.2-0.6,0.2-0.9c0.1-0.3,0.2-0.7,0.3-0.9c1.8-0.3,3.2-0.6,4.1-1c0.8-0.3,1.2-0.7,1.4-1.2
		c0.1-0.1,0.1-0.3,0.1-0.4c0-0.5-0.3-0.9-0.8-1c-5.6-0.9-8.2-6.4-8.3-6.7c0,0,0,0,0,0c-0.3-0.6-0.4-1-0.2-1.4
		c0.3-0.7,1.5-1.1,2.3-1.3c0.2-0.1,0.4-0.1,0.6-0.2c0.8-0.3,1.3-0.6,1.7-1c0.4-0.4,0.5-0.8,0.5-1.1c0-0.6-0.5-1.2-1.4-1.5
		c-0.3-0.1-0.6-0.2-0.9-0.2c-0.2,0-0.5,0-0.9,0.2c-0.7,0.3-1.2,0.5-1.8,0.5c-0.3,0-0.5-0.1-0.6-0.1c0-0.3,0-0.5,0-0.8l0-0.1
		c0.2-2.7,0.4-6.1-0.5-8.2c-0.6-1.4-1.5-2.6-2.6-3.5c-0.9-0.8-1.9-1.5-3.1-2C377.5,29.9,375.6,29.8,374.7,29.8"/>
</g>
<g id="SeriA">
	<path class="st16" d="M272.4,36.5c10.3-21.6-54.5-26.3-59.3,2.8c-1.1,8.9,8.2,15.3,27.1,19.4C195.1,42.2,250.1,18.3,272.4,36.5
		L272.4,36.5z"/>
	<path class="st14" d="M230.7,42c-9.2,22.1,55.8,23.4,59.1-5.9c0.6-8.9-9-14.9-28.1-18C307.7,32.2,253.9,59,230.7,42L230.7,42z"/>
	<path class="st17" d="M254.2,37.2c0.4,0.3,0.7,0.6,0.7,0.9c0,0.9-1.9,1.6-4.3,1.6c-0.5,0-0.9,0-1.3-0.1L254.2,37.2L254.2,37.2z
		 M246.4,38.6c-0.2-0.2-0.2-0.3-0.2-0.5c0-0.9,1.9-1.6,4.3-1.6c0.3,0,0.7,0,1,0L246.4,38.6L246.4,38.6z M245,39.2l-8.9,3.6
		c-2.7-1.2-4.3-2.7-4.3-4.4c0-3.8,8.4-6.8,18.7-6.8c3.8,0,7.3,0.4,10.2,1.1l-7.9,3.2c-0.7-0.1-1.5-0.2-2.3-0.2
		c-3.2,0-5.8,1.2-5.8,2.7C244.8,38.7,244.8,39,245,39.2L245,39.2z M247.1,40.7l-7.2,3.5c3,0.7,6.6,1.2,10.5,1.2
		c10.3,0,18.7-3,18.7-6.8c0-2.1-2.6-4-6.7-5.2l-7.4,3.5c0.8,0.5,1.2,1,1.2,1.7c0,1.5-2.6,2.7-5.8,2.7
		C249.3,41.2,248.1,41,247.1,40.7L247.1,40.7z"/>
	<path class="st18" d="M244.2,72.8v-4.3h1.3c1.9,0,2.7,1,2.7,2.1c0,1-0.9,2.2-2.8,2.2H244.2L244.2,72.8z M252.1,80.5l-4.2-6.7
		c1-0.3,2.6-1.6,2.6-3.5c0-1.6-1.3-3.5-4.9-3.5h-3.8v13.6h2.4v-6.1h1.4l3.9,6.4L252.1,80.5L252.1,80.5z M256,80.5V66.9h-2.3v13.6
		H256L256,80.5z M266.2,78.7h-5.9v-4.4h4.1v-1.7h-4.1v-4h5.6v-1.7h-8v13.6h8.2V78.7L266.2,78.7z M240.3,78.7h-5.9v-4.4h4.1v-1.7
		h-4.1v-4h5.6v-1.7h-8v13.6h8.2V78.7L240.3,78.7z M273.2,76.7h5.5l1.4,3.8h2.8l-5.7-15.4h-1.5l-6.3,15.4h2.4L273.2,76.7L273.2,76.7z
		 M278.1,74.9h-4.3l2.3-6.1L278.1,74.9L278.1,74.9z M220.3,78l-0.8,1.8c0.6,0.3,2.1,1.1,4.7,1.1c2.8,0,5.5-1.8,5.5-4.5
		c0-2.4-2.4-3.7-3.9-4.7c-1.7-1.1-3.2-1.7-3.2-3.2c0-0.9,0.9-1.7,2.4-1.7c1.5,0,2.5,0.5,3.1,0.7l0.8-1.8c-0.7-0.3-2-0.9-4.2-0.9
		c-2.7,0-4.7,1.7-4.7,4c0,2.7,2.1,3.7,3.6,4.7c1.7,1,3.3,1.8,3.3,3.3c0,1.2-1.2,2.1-2.6,2.1C222.2,78.9,220.9,78.2,220.3,78
		L220.3,78z"/>
</g>
<g id="PGA">
	<ellipse class="st19" cx="127.4" cy="44.6" rx="31.8" ry="31.7"/>
	<ellipse class="st20" cx="127.4" cy="44.7" rx="32.2" ry="32"/>
	<ellipse class="st21" cx="127.4" cy="44.8" rx="23.6" ry="23.5"/>
	<path class="st22" d="M126.3,27.4c-0.2,0-0.4,0.2-0.4,0.4c0.4-0.1,0.5-0.1,0.9,0C126.8,27.6,126.6,27.4,126.3,27.4z"/>
	<path class="st1" d="M107.6,40.5v1.2c0,0,0.7-0.1,1.3,0.2c0.6,0.2,0.8,0.8,0.8,0.8s0,5,0,5.3c-0.1,0.3-0.2,0.4-0.3,0.6
		c-0.1,0.1-0.4,0.4-0.7,0.4c-0.4,0.1-1,0.1-1,0.1v1.2h7.6v-1.2c0,0-0.7,0.1-1.2-0.1c-0.3-0.1-0.5-0.1-0.7-0.3
		c-0.3-0.3-0.6-0.7-0.6-0.7c0-0.3,0-2.1,0-2.1s4,0,4.4,0c0.4,0,1.2-0.2,1.5-0.3c0.3-0.1,1.1-0.6,1.3-1c0.2-0.3,0.4-0.7,0.4-1.5
		c0-0.8-0.6-1.7-1.2-2.1c-0.3-0.1-0.8-0.4-1.2-0.4C117.6,40.5,107.6,40.5,107.6,40.5z"/>
	<path class="st21" d="M112.9,41.7v2.9c0,0,2.6,0,2.9,0c0.2,0,0.6-0.1,0.9-0.3c0.2-0.1,0.5-0.3,0.6-0.5c0.1-0.2,0.1-0.6,0.1-1
		c0-0.3-0.2-0.6-0.4-0.7c-0.2-0.2-0.6-0.3-0.8-0.3C116,41.7,112.9,41.7,112.9,41.7z"/>
	<path class="st1" d="M132.5,40.6H131c0,0,0,0.8-0.2,0.8c-0.2-0.1-1.5-0.7-2.5-0.9c-1-0.2-1.9-0.2-2.8-0.1c-0.9,0.1-2.5,0.6-3.4,1.5
		c-0.1,0.1-0.9,0.8-1.2,2.4c-0.1,0.4-0.7,2.9,1.1,4.6c1.8,1.7,4.3,1.6,4.4,1.6c0.1,0,0.8,0,1.4,0c1.6-0.1,2.7-0.6,3-1
		c0.2-0.1,0.2,0.6,0.2,0.6h1.6c0,0,0-3.1,0-3.2c0-0.2,0.3-0.3,0.3-0.3h1.3v-1.1h-6.9v1.1c0,0,1.2,0,1.6,0c0.4,0,0.5,0.1,0.5,0.1
		s0.2,0.2,0.3,0.3c0,0.2,0,0.4,0,0.7c-0.1,0.3-0.1,0.5-0.5,0.9c-0.3,0.3-0.7,0.4-1.1,0.5c-0.5,0-0.8,0.1-1.4,0
		c-0.6-0.1-1.3-0.5-1.6-0.9c-0.4-0.4-0.5-0.7-0.7-1.5c-0.2-0.8-0.2-1.6-0.1-2.3c0.1-0.7,0.2-1.5,0.7-1.9c0.5-0.5,0.9-0.7,1.3-0.8
		c0.4-0.1,1-0.2,1.5-0.2c0.5,0,0.9,0.1,1.4,0.4c0.5,0.2,0.8,0.4,1.1,0.7c0.3,0.3,0.3,0.4,0.5,0.7c0.2,0.3,0.2,1.1,0.2,1.1h1.7
		L132.5,40.6z"/>
	<path class="st1" d="M141.9,40.3h-2.8c0,0-4.1,8.2-4.3,8.3c-0.2,0.2-0.2,0.2-0.5,0.2c-0.3,0-0.8,0.1-0.8,0.1V50h5.4v-1.1
		c0,0-1,0-1.3-0.2c-0.2-0.1-0.3-0.2-0.4-0.4c-0.1-0.2,0-0.4,0-0.6c0-0.2,0.2-0.8,0.2-0.8h4.7c0,0,0.3,0.4,0.3,0.7
		c0,0.2,0,0.6-0.1,0.8c-0.3,0.3-0.6,0.4-0.8,0.4c-0.3,0-0.8,0.1-0.8,0.1l0,1.2h6.6l0-1.2c0,0-0.4,0-0.8-0.2
		c-0.4-0.2-0.4-0.2-0.5-0.4C145.7,47.9,141.9,40.3,141.9,40.3z"/>
	<polygon class="st21" points="139.8,42.4 138,45.7 141.3,45.7 	"/>
	<path class="st23" d="M131.4,51.1l-0.7,0.3l2.5,3.7v0.2l3.2,5.6c0,0,1.5,0.4,2.5,0.3c1,0,2.2-0.2,2.2-0.2l1-1.8
		c0,0-0.8-0.7-2.1-0.8c-0.4,0-0.6-0.1-1.5,0.1c-1.5,0.3-1,0.2-1,0.2l-3.4-3.9h-0.2L131.4,51.1z"/>
	<path class="st23" d="M124,51.2l0.7,0.3l-2.5,3.7v0.2l-3.2,5.6c0,0-1.5,0.4-2.5,0.3c-1,0-2.2-0.2-2.2-0.2l-1-1.8
		c0,0,0.8-0.7,2.1-0.8c0.4,0,0.6-0.1,1.5,0.1c1.5,0.3,1,0.2,1,0.2l3.4-3.9h0.2L124,51.2z"/>
	<path class="st23" d="M140.2,29.3c0,0-0.1-0.4-0.5-0.6c-0.4-0.2-0.8-0.2-0.8-0.2L131.7,39l1,0.7L140.2,29.3z"/>
	<path class="st23" d="M115.1,29.1c0,0,0.1-0.4,0.5-0.6c0.4-0.2,0.8-0.2,0.8-0.2l7.1,10.6l-1,0.7L115.1,29.1z"/>
	<g id="ball">
		<ellipse class="st24" cx="127.4" cy="28.2" rx="4.2" ry="4.2"/>
		<path class="st25" d="M127.4,32.3c2.2,0,4-1.8,4-4c-3.4-0.7-4.9-0.7-8.1,0C123.4,30.5,125.2,32.3,127.4,32.3z"/>
		<path class="st1" d="M127.4,29c0.3,0,0.5-0.2,0.5-0.3c-0.4,0-0.5,0-1,0C126.9,28.9,127.2,29,127.4,29z"/>
		<path class="st1" d="M126.4,29c0.2,0,0.4-0.2,0.4-0.3c-0.4,0.1-0.4,0.1-0.8,0.1C125.9,28.9,126.1,29,126.4,29z"/>
		<path class="st1" d="M128.5,29c0.2,0,0.4-0.1,0.4-0.3c-0.4,0-0.5,0-0.8-0.1C128.1,28.8,128.3,29,128.5,29z"/>
		<path class="st1" d="M125.5,29c0.2,0,0.3-0.1,0.3-0.3c-0.3,0.1-0.4,0.1-0.7,0.1C125.1,29,125.3,29.1,125.5,29z"/>
		<path class="st1" d="M129.4,29c0.2,0,0.3-0.1,0.4-0.2c-0.3,0-0.4,0-0.7-0.1C129,28.9,129.2,29,129.4,29z"/>
		<path class="st1" d="M127.4,28.3c0.3,0,0.6-0.3,0.6-0.6c-0.5,0.1-0.7,0.1-1.2,0C126.8,28,127.1,28.3,127.4,28.3z"/>
		<path d="M127.4,27.2c-0.3,0-0.6,0.2-0.6,0.5c0.6-0.1,0.5-0.1,1.1,0C128,27.4,127.7,27.2,127.4,27.2z"/>
		<path class="st1" d="M126.3,28.2c0.3,0,0.5-0.3,0.5-0.6c-0.5,0.1-0.6,0.1-1,0.1C125.8,28,126,28.3,126.3,28.2z"/>
		<path d="M126.2,27.3c-0.3,0-0.5,0.2-0.4,0.4c0.4-0.1,0.5-0.1,0.9,0C126.7,27.5,126.5,27.3,126.2,27.3z"/>
		<g>
			<path class="st1" d="M128.5,28.3c0.3,0,0.5-0.2,0.6-0.5c-0.5,0-0.6,0-1-0.1C128,28,128.2,28.2,128.5,28.3z"/>
			<path d="M128.6,27.3c-0.3,0-0.5,0.1-0.5,0.4c0.4,0,0.5,0,0.9,0.1C129,27.6,128.8,27.3,128.6,27.3z"/>
		</g>
		<path class="st1" d="M125.3,28.3c0.2,0,0.4-0.3,0.4-0.5c-0.4,0.1-0.5,0.1-0.9,0.1C124.8,28.2,125.1,28.4,125.3,28.3z"/>
		<path d="M125.2,27.5c-0.2,0-0.4,0.2-0.4,0.4c0.4-0.1,0.4-0.1,0.8-0.1C125.6,27.6,125.4,27.5,125.2,27.5z"/>
		<g>
			<path class="st1" d="M129.5,28.3c0.2,0,0.5-0.2,0.5-0.4c-0.4,0-0.5,0-0.9-0.1C129,28,129.2,28.3,129.5,28.3z"/>
			<path d="M129.5,27.5c-0.2,0-0.4,0.1-0.4,0.3c0.4,0,0.4,0,0.8,0.1C129.9,27.7,129.8,27.5,129.5,27.5z"/>
		</g>
		<path class="st1" d="M124.5,28.3c0.2,0,0.3-0.2,0.2-0.4c-0.3,0.1-0.3,0.1-0.6,0.2C124.2,28.3,124.4,28.4,124.5,28.3z"/>
		<path d="M124.4,27.7c-0.2,0-0.3,0.2-0.2,0.3c0.3-0.1,0.3-0.1,0.6-0.1C124.7,27.8,124.6,27.7,124.4,27.7z"/>
		<g>
			<path class="st1" d="M130.2,28.4c0.2,0,0.4-0.1,0.4-0.3c-0.3,0-0.4,0-0.7-0.1C129.9,28.2,130,28.3,130.2,28.4z"/>
			<path d="M130.3,27.7c-0.2,0-0.3,0.1-0.3,0.2c0.3,0,0.3,0,0.6,0.1C130.6,27.9,130.5,27.7,130.3,27.7z"/>
		</g>
		<path class="st1" d="M123.9,28.4c0.1,0,0.2-0.1,0.2-0.3c-0.2,0.1-0.3,0.1-0.5,0.1C123.7,28.3,123.8,28.4,123.9,28.4z"/>
		<path d="M123.8,27.9c-0.1,0-0.2,0.2-0.2,0.3c0.2-0.1,0.2-0.1,0.5-0.1C124.1,27.9,123.9,27.9,123.8,27.9z"/>
		<g>
			<path class="st1" d="M130.8,28.4c0.1,0,0.3-0.1,0.3-0.2c-0.2,0-0.3,0-0.5-0.1C130.6,28.2,130.7,28.4,130.8,28.4z"/>
			<path d="M131,27.9c-0.1,0-0.3,0-0.3,0.2c0.2,0,0.3,0,0.5,0.1C131.2,28,131.1,27.9,131,27.9z"/>
		</g>
		<path d="M125.3,25.2c-0.1,0-0.2,0.2-0.1,0.3c0.2-0.1,0.2-0.1,0.4-0.2C125.5,25.2,125.4,25.1,125.3,25.2z"/>
		<path d="M124.8,25.4c-0.1,0-0.1,0.2-0.1,0.2c0.2-0.1,0.1-0.1,0.3-0.2C124.9,25.4,124.8,25.4,124.8,25.4z"/>
		<path d="M124.3,25.8c-0.1,0.1-0.1,0.2-0.1,0.2c0.1-0.1,0.1-0.1,0.3-0.2C124.5,25.7,124.4,25.7,124.3,25.8z"/>
		<g>
			<path d="M129.6,25.2c0.1,0,0.2,0.2,0.1,0.3c-0.2-0.1-0.2-0.1-0.4-0.2C129.3,25.2,129.5,25.2,129.6,25.2z"/>
			<path d="M130.1,25.5c0.1,0,0.1,0.2,0.1,0.2c-0.2-0.1-0.1-0.1-0.3-0.2C129.9,25.4,130,25.4,130.1,25.5z"/>
			<path d="M130.6,25.8c0.1,0.1,0.1,0.2,0.1,0.2c-0.1-0.1-0.1-0.1-0.3-0.2C130.4,25.7,130.5,25.7,130.6,25.8z"/>
		</g>
		<g>
			<path d="M127.4,26.4c-0.2,0-0.5,0.2-0.4,0.4c0.4-0.1,0.4-0.1,0.8,0C127.9,26.6,127.7,26.4,127.4,26.4z"/>
			<path d="M126.5,26.5c-0.2,0-0.4,0.2-0.3,0.3c0.4-0.1,0.3-0.1,0.7,0C126.8,26.6,126.7,26.5,126.5,26.5z"/>
			<path d="M125.7,26.7c-0.1,0-0.3,0.2-0.2,0.3c0.3-0.1,0.3-0.1,0.5-0.1C126,26.7,125.8,26.6,125.7,26.7z"/>
			<path d="M128.4,26.5c0.2,0,0.4,0.2,0.3,0.3c-0.4-0.1-0.3-0.1-0.7-0.1C128,26.6,128.2,26.5,128.4,26.5z"/>
			<path d="M129.2,26.6c0.1,0,0.3,0.2,0.2,0.3c-0.3-0.1-0.3-0.1-0.5-0.1C128.9,26.7,129,26.6,129.2,26.6z"/>
			<path d="M129.8,26.8c0.1,0,0.2,0.2,0.2,0.3c-0.2-0.1-0.2-0.1-0.5-0.1C129.5,26.8,129.7,26.8,129.8,26.8z"/>
			<path d="M130.4,27c0.1,0,0.2,0.2,0.1,0.2c-0.2-0.1-0.2-0.1-0.4-0.2C130.1,27,130.3,27,130.4,27z"/>
			<path d="M125.1,26.8c-0.1,0-0.2,0.2-0.2,0.3c0.2-0.1,0.2-0.1,0.5-0.1C125.3,26.8,125.2,26.8,125.1,26.8z"/>
			<path d="M124.5,27c-0.1,0-0.2,0.2-0.1,0.2c0.2-0.1,0.2-0.1,0.4-0.2C124.7,27,124.6,27,124.5,27z"/>
			<path d="M124,27.3c-0.1,0.1-0.1,0.2-0.1,0.3c0.2-0.1,0.2-0.1,0.3-0.2C124.3,27.2,124.1,27.2,124,27.3z"/>
			<path d="M123.7,27.6c-0.1,0.1-0.1,0.2,0,0.2c0.1-0.1,0.1-0.1,0.3-0.2C123.8,27.5,123.7,27.5,123.7,27.6z"/>
			<path d="M130.9,27.3c0.1,0.1,0.1,0.2,0.1,0.3c-0.2-0.1-0.2-0.1-0.3-0.2C130.7,27.2,130.8,27.2,130.9,27.3z"/>
			<path d="M131.2,27.6c0.1,0.1,0.1,0.2,0,0.2c-0.1-0.1-0.1-0.1-0.3-0.2C131.1,27.5,131.2,27.5,131.2,27.6z"/>
		</g>
		<g>
			<path d="M125.8,25.8c-0.1,0-0.2,0.1-0.2,0.3c0.2-0.1,0.2-0.1,0.5-0.1C126.1,25.8,126,25.7,125.8,25.8z"/>
			<path d="M125.3,25.9c-0.1,0-0.2,0.1-0.2,0.2c0.2-0.1,0.2-0.1,0.4-0.1C125.5,25.9,125.4,25.9,125.3,25.9z"/>
			<path d="M124.8,26.1c-0.1,0-0.2,0.1-0.1,0.2c0.2-0.1,0.2-0.1,0.3-0.1C125,26.1,124.9,26.1,124.8,26.1z"/>
			<path d="M124.3,26.3c-0.1,0.1-0.1,0.2-0.1,0.2c0.1-0.1,0.1-0.1,0.3-0.2C124.5,26.3,124.4,26.3,124.3,26.3z"/>
			<g>
				<path d="M127.4,25.6c-0.2,0-0.4,0.1-0.4,0.3c0.4-0.1,0.4-0.1,0.8,0C127.8,25.7,127.6,25.6,127.4,25.6z"/>
				<path d="M126.5,25.6c-0.2,0-0.3,0.1-0.3,0.3c0.3-0.1,0.3-0.1,0.6,0C126.9,25.7,126.7,25.6,126.5,25.6z"/>
				<path d="M128.2,25.6c0.2,0,0.3,0.1,0.3,0.3c-0.3-0.1-0.3-0.1-0.6,0C127.9,25.7,128.1,25.6,128.2,25.6z"/>
				<path d="M129,25.8c0.1,0,0.2,0.1,0.2,0.3c-0.2-0.1-0.2-0.1-0.5-0.1C128.7,25.8,128.8,25.7,129,25.8z"/>
				<path d="M129.5,25.9c0.1,0,0.2,0.1,0.2,0.2c-0.2-0.1-0.2-0.1-0.4-0.1C129.3,25.9,129.4,25.9,129.5,25.9z"/>
				<path d="M130,26.1c0.1,0,0.2,0.1,0.1,0.2c-0.2-0.1-0.2-0.1-0.3-0.1C129.8,26.1,129.9,26.1,130,26.1z"/>
				<path d="M130.5,26.3c0.1,0.1,0.1,0.2,0.1,0.2c-0.1-0.1-0.1-0.1-0.3-0.2C130.3,26.3,130.4,26.3,130.5,26.3z"/>
			</g>
			<path d="M130.9,26.6c0.1,0.1,0.1,0.2,0,0.2c-0.1-0.1-0.1-0.1-0.3-0.2C130.7,26.5,130.8,26.5,130.9,26.6z"/>
			<path d="M124,26.6c-0.1,0.1-0.1,0.2,0,0.2c0.1-0.1,0.1-0.1,0.3-0.2C124.1,26.6,124,26.6,124,26.6z"/>
		</g>
	</g>
	<path class="st1" d="M122.7,62.5c0,0.3,0,0.7,0.3,0.9v0h-2v0c0.4-0.2,0.4-0.5,0.4-0.9v-2.3l-0.7-0.2v0c0.7-0.2,1.4-0.5,1.8-1.1h0
		V62.5z"/>
	<path class="st1" d="M124.1,63c1.2-0.3,1.8-1.1,1.8-2.3c0-0.4-0.1-1.2-0.6-1.2c-0.4,0-0.5,0.5-0.5,0.9c0,0.4,0.1,0.9,0.6,0.9
		c0.1,0,0.2,0,0.3-0.1h0l-0.5,0.7l-0.1,0c-0.4,0-0.7-0.1-1-0.3c-0.3-0.3-0.5-0.7-0.5-1.1c0-1,0.8-1.6,1.7-1.6c1.2,0,1.8,0.8,1.8,1.9
		c0,0.8-0.4,1.5-1,2c-0.6,0.5-1.4,0.8-2.1,0.8l-0.1,0L124.1,63z"/>
	<path class="st1" d="M129.3,62.5c0,0.3,0,0.7,0.3,0.9v0h-2v0c0.4-0.2,0.4-0.5,0.4-0.9v-2.3l-0.7-0.2v0c0.7-0.2,1.4-0.5,1.8-1.1h0
		V62.5z"/>
	<path class="st1" d="M133.1,59.5c-1.2,0.3-1.8,1.1-1.8,2.3c0,0.4,0.1,1.2,0.6,1.2c0.4,0,0.5-0.5,0.5-0.9c0-0.4-0.1-0.9-0.6-0.9
		c-0.1,0-0.2,0-0.3,0.1h0l0.5-0.7l0.2,0c0.9,0,1.4,0.6,1.4,1.5c0,1-0.8,1.6-1.7,1.6c-1.2,0-1.8-0.8-1.8-1.9c0-0.8,0.4-1.5,1-2
		c0.6-0.5,1.4-0.8,2.2-0.8L133.1,59.5z"/>
	<path d="M156.9,67.5c0.3,0.3,0.4,0.6,0.4,1c0,0.4-0.1,0.7-0.4,1c-0.3,0.3-0.6,0.4-1,0.4c-0.4,0-0.7-0.1-1-0.4
		c-0.3-0.3-0.4-0.6-0.4-1c0-0.4,0.1-0.7,0.4-1c0.3-0.3,0.6-0.4,1-0.4C156.3,67.1,156.7,67.2,156.9,67.5z M157.1,67.4
		c-0.3-0.3-0.7-0.5-1.1-0.5c-0.4,0-0.8,0.2-1.1,0.5c-0.3,0.3-0.5,0.7-0.5,1.1c0,0.4,0.2,0.8,0.5,1.1c0.3,0.3,0.7,0.5,1.1,0.5
		c0.4,0,0.8-0.2,1.1-0.5c0.3-0.3,0.5-0.7,0.5-1.1C157.5,68,157.4,67.7,157.1,67.4z M156.2,68.4c-0.1,0-0.2,0-0.3,0h-0.3v-0.6h0.3
		c0.2,0,0.3,0,0.4,0.1c0.1,0,0.1,0.1,0.1,0.3C156.4,68.3,156.3,68.3,156.2,68.4z M155.3,69.3h0.3v-0.7h0.2c0.2,0,0.3,0,0.3,0.1
		c0.1,0.1,0.2,0.2,0.2,0.4v0.1l0,0.1c0,0,0,0,0,0c0,0,0,0,0,0h0.3l0,0c0,0,0,0,0-0.1c0,0,0-0.1,0-0.1V69c0-0.1,0-0.2-0.1-0.3
		c-0.1-0.1-0.2-0.1-0.3-0.2c0.1,0,0.2,0,0.2-0.1c0.1-0.1,0.2-0.2,0.2-0.3c0-0.2-0.1-0.4-0.3-0.4c-0.1,0-0.3-0.1-0.5-0.1h-0.6V69.3z"
		/>
	<path class="st23" d="M124.3,32.1c0,0,1.3,1.2,3.1,1.2c1.8,0,3-1.1,3-1.1l0.5,0.5c-2.9,2.5-3.2,6.4-3.2,6.5c0,0-0.8,0-0.9,0
		c-0.5-4.6-3.2-6.5-3.2-6.5L124.3,32.1z"/>
	<g id="text_circle">
		<path class="st21" d="M106.5,62c0.2-0.2,0.4-0.3,0.4-0.6l0,0l0.9,1.1l0,0c-0.3-0.1-0.5,0.1-0.7,0.3l-1.5,1.2
			c-0.2,0.2-0.5,0.3-0.4,0.6l0,0l-0.8-1c-0.2-0.2-0.4-0.5-0.5-0.8c-0.1-0.3,0-0.7,0.3-0.9c0.6-0.5,1.2-0.2,1.6,0.3
			c0,0,0.1,0.1,0.1,0.2c-0.3-0.2-0.6-0.1-0.9,0.1c-0.3,0.2-0.4,0.5-0.2,0.8L106.5,62z"/>
		<path class="st21" d="M104.4,59c0.2-0.1,0.5-0.3,0.5-0.6l0,0l0.7,1.2l0,0c-0.3-0.1-0.5,0-0.7,0.2l-1.7,1c-0.2,0.1-0.5,0.3-0.5,0.6
			l0,0l-0.8-1.3c-0.1-0.2-0.2-0.4-0.3-0.7c0-0.4,0.1-0.6,0.4-0.8c0.3-0.2,0.7-0.1,1,0.1l0.6-1.1c0.1-0.2,0.2-0.5,0.3-0.8l0.4,0.6
			c0.2,0.3,0.2,0.5,0.1,0.8l-0.7,1.1L104.4,59z M102.5,60.1l1-0.6c-0.2-0.3-0.6-0.3-0.9-0.1c-0.1,0.1-0.3,0.2-0.3,0.4
			C102.4,59.8,102.4,59.9,102.5,60.1L102.5,60.1z"/>
		<path class="st21" d="M99.6,55.5c-0.4-1-0.1-2,1-2.4c1.1-0.4,2,0.2,2.4,1.2c0.4,1,0,2-1,2.4C100.9,57.1,99.9,56.5,99.6,55.5z
			 M102.3,55.2c0.2-0.2,0.3-0.5,0.2-0.8c-0.1-0.3-0.3-0.4-0.6-0.5c-0.3-0.1-0.5,0-0.8,0.1c-0.6,0.2-1.3,0.7-1,1.4
			c0.2,0.6,0.9,0.6,1.4,0.4C101.7,55.7,102.1,55.4,102.3,55.2z"/>
		<path class="st21" d="M101,50.5c0.3-0.1,0.5-0.1,0.7-0.4l0,0l0.3,1.4l0,0c-0.2-0.2-0.5-0.1-0.8-0.1l-1.9,0.4
			c-0.3,0.1-0.6,0.1-0.7,0.4l0,0l-0.4-1.8c0-0.1,0-0.2-0.1-0.2l0,0l0.7-0.2l0,0c-0.2,0.2-0.1,0.5-0.1,0.7l0,0.2l0.8-0.2l-0.1-0.4
			c0-0.1,0-0.1-0.1-0.2l0,0l0.7-0.2l0,0c-0.2,0.1-0.1,0.3-0.1,0.5l0,0.1L101,50.5z"/>
		<path class="st21" d="M100.7,47.4c0.1-0.2,0-0.4,0-0.6c0-0.3-0.1-0.6-0.4-0.7l0,0l0.8,0.1l0.2,2.3l0,0c-0.2-0.2-0.5-0.2-0.7-0.1
			l-2,0.2c-0.3,0-0.6,0-0.7,0.3l0,0L97.7,47c0-0.1,0-0.2,0-0.2l0,0l0.8-0.1l0,0c-0.2,0.2-0.2,0.5-0.2,0.7l0,0.2l0.8-0.1l0-0.5
			c0-0.1,0-0.1,0-0.2l0,0l0.7-0.1l0,0c-0.2,0.1-0.2,0.3-0.1,0.5l0,0.2L100.7,47.4z"/>
		<path class="st21" d="M100.2,45c0.3-0.3,0.4-0.7,0.5-1.1c0-0.2-0.1-0.6-0.4-0.6c-0.6,0-0.6,1.6-1.7,1.5c-0.3,0-0.6-0.2-0.7-0.4
			c-0.2-0.3-0.2-0.6-0.2-0.9c0-0.3,0.1-0.6,0.2-0.9l0.6,0c-0.1,0.2-0.3,0.5-0.3,0.7c0,0.2,0.1,0.5,0.3,0.5c0.3,0,0.4-0.3,0.5-0.5
			c0.1-0.2,0.2-0.5,0.4-0.7c0.2-0.2,0.5-0.4,0.8-0.4c0.3,0,0.6,0.2,0.8,0.5c0.2,0.3,0.2,0.7,0.2,1c0,0.3-0.1,0.7-0.2,1L100.2,45z"/>
		<path class="st21" d="M100.4,41.3c0.3-0.2,0.5-0.6,0.6-1c0-0.2,0-0.6-0.3-0.6c-0.6-0.1-0.8,1.5-1.9,1.3c-0.3-0.1-0.6-0.2-0.7-0.5
			C98,40.2,98,39.9,98,39.5c0.1-0.3,0.2-0.6,0.3-0.8l0.6,0.1c-0.2,0.2-0.3,0.4-0.4,0.7c0,0.2,0,0.5,0.3,0.5c0.2,0,0.4-0.2,0.5-0.4
			c0.2-0.2,0.3-0.4,0.5-0.6c0.3-0.2,0.5-0.3,0.8-0.2c0.3,0.1,0.6,0.3,0.8,0.6c0.2,0.3,0.2,0.7,0.1,1c-0.1,0.3-0.2,0.7-0.4,1
			L100.4,41.3z"/>
		<path class="st21" d="M101.6,36.6c0.3,0.1,0.5,0.2,0.8,0l0,0L102,38l0,0c-0.1-0.3-0.4-0.3-0.6-0.4L99.5,37c-0.3-0.1-0.5-0.2-0.8,0
			l0,0l0.4-1.4l0,0c0.1,0.3,0.4,0.3,0.6,0.4L101.6,36.6z"/>
		<path class="st21" d="M100.3,32.3c0.5-1,1.4-1.5,2.4-1c1,0.5,1.3,1.6,0.8,2.5c-0.4,1-1.4,1.4-2.4,1
			C100.1,34.4,99.8,33.3,100.3,32.3z M102.4,34.1c0.3,0,0.6-0.2,0.7-0.5c0.1-0.3,0.1-0.5,0-0.8c-0.1-0.2-0.4-0.4-0.6-0.5
			c-0.5-0.2-1.4-0.4-1.7,0.3c-0.3,0.6,0.2,1.1,0.7,1.3C101.7,34,102.1,34.1,102.4,34.1z"/>
		<path class="st21" d="M106.7,28.6c-0.1,0.2-0.4,0.3-0.5,0.4c-0.4,0.2-0.6,0.2-1,0.2l-1.7,0.1l0,0l1.1,0.8c0.3,0.2,0.4,0.3,0.8,0.2
			l0,0l-0.6,0.8l0,0c0-0.3-0.2-0.4-0.5-0.6l-1.5-1c-0.3-0.2-0.5-0.3-0.9-0.2l0,0l0.6-0.9l0,0l2.7-0.1l-1.1-0.8
			c-0.3-0.2-0.4-0.3-0.8-0.2l0,0l0.6-0.8l0,0c0,0.3,0.2,0.4,0.5,0.6L106.7,28.6z"/>
		<path class="st21" d="M107.4,26.1l0.2,0.3c0,0.1,0.1,0.3,0.2,0.3c0.1,0.1,0.2,0.1,0.3,0.1l0,0l-0.8,0.8l0,0c0-0.3-0.1-0.4-0.2-0.7
			l-1-2c-0.1-0.1-0.1-0.3-0.2-0.4c-0.1-0.1-0.2-0.1-0.4-0.1l0,0l0.9-0.9l2.6,1.2c0.3,0.1,0.4,0.2,0.8,0.2l0,0l0,0l-1.1,1.1l0,0
			c0-0.1,0-0.3-0.1-0.4c-0.1-0.1-0.1-0.1-0.2-0.1l-0.5-0.2L107.4,26.1z M106.6,24.7L106.6,24.7l0.5,1l0.5-0.5L106.6,24.7z"/>
		<path class="st21" d="M111.3,23.2c0.2,0,0.3-0.1,0.5-0.3c0.2-0.2,0.4-0.4,0.5-0.6l0.3,0.7l-1.8,1.4l0,0c0.1-0.3-0.1-0.5-0.3-0.7
			l-1.2-1.6c-0.2-0.2-0.3-0.5-0.6-0.5l0,0l1.1-0.8l0,0c-0.1,0.3,0.1,0.5,0.3,0.7L111.3,23.2z"/>
		<path class="st21" d="M118.4,19.8c-0.3,0.2-0.6,0.4-1,0.6c-1,0.4-2.1,0.2-2.5-0.8c-0.5-1,0.1-2,1.1-2.4c0.3-0.1,0.5-0.2,0.8-0.2
			l0.3,0.7l0,0c-0.2-0.1-0.6-0.1-0.8,0.1c-0.6,0.3-0.7,0.8-0.5,1.4c0.3,0.6,0.8,1.2,1.5,0.9c0.1,0,0.1-0.1,0.2-0.1l-0.3-0.7
			c-0.1-0.2-0.2-0.3-0.4-0.4l0,0l1-0.4L118.4,19.8z"/>
		<path class="st21" d="M120.5,15.7c1.1-0.3,2,0.2,2.3,1.3c0.3,1.1-0.4,2-1.5,2.2c-1,0.3-2-0.2-2.3-1.3
			C118.7,16.8,119.5,15.9,120.5,15.7z M120.4,18.4c0.2,0.2,0.5,0.3,0.8,0.3c0.3-0.1,0.5-0.3,0.6-0.5c0.1-0.2,0.1-0.5,0-0.8
			c-0.1-0.6-0.6-1.4-1.3-1.2c-0.6,0.1-0.7,0.8-0.6,1.3C120,17.8,120.2,18.2,120.4,18.4z"/>
		<path class="st21" d="M125.3,17.8c0.2,0.1,0.4,0.1,0.6,0c0.3,0,0.5-0.1,0.7-0.3l-0.1,0.7l-2.3,0.2l0,0c0.2-0.2,0.2-0.5,0.2-0.7
			l-0.2-1.9c0-0.3,0-0.6-0.3-0.7l0,0l1.4-0.1l0,0c-0.2,0.2-0.2,0.5-0.2,0.8L125.3,17.8z"/>
		<path class="st21" d="M128.9,17.6c0,0.3,0,0.5,0.2,0.8v0l-1.4-0.1v0c0.3-0.2,0.2-0.4,0.3-0.7l0.1-2c0-0.3,0.1-0.6-0.2-0.7v0
			l1.8,0.1c0.1,0,0.2,0,0.2,0l0,0l0,0.8h0c-0.1-0.3-0.4-0.2-0.7-0.2l-0.2,0l0,0.8l0.4,0c0.1,0,0.1,0,0.2,0l0,0l0,0.7l0,0
			c-0.1-0.2-0.3-0.2-0.5-0.2l-0.1,0L128.9,17.6z"/>
		<path class="st21" d="M132,18.1c0.2,0.1,0.4,0.1,0.5,0.2c0.3,0,0.6,0,0.8-0.2l0,0l-0.3,0.7l-2.3-0.4l0,0c0.3-0.1,0.3-0.4,0.3-0.7
			l0.3-1.9c0-0.3,0.1-0.6-0.1-0.8l0,0l1.8,0.3c0.1,0,0.2,0,0.2,0l0,0l-0.1,0.7l0,0c-0.1-0.3-0.4-0.3-0.7-0.3l-0.2,0l-0.1,0.8
			l0.5,0.1c0.1,0,0.1,0,0.2,0l0,0l-0.1,0.7l0,0c0-0.2-0.3-0.2-0.5-0.3l-0.2,0L132,18.1z"/>
		<path class="st21" d="M135.5,18.7c-0.1,0.3-0.2,0.5,0,0.8l0,0l-1.3-0.4l0,0c0.3-0.1,0.4-0.4,0.4-0.6l0.6-1.9
			c0.1-0.3,0.2-0.5,0-0.8l0,0l1.5,0.5c0.2,0.1,0.4,0.1,0.6,0.3c0.2,0.3,0.3,0.6,0.2,0.9c-0.1,0.4-0.5,0.6-0.8,0.6l0.3,1.2
			c0.1,0.3,0.1,0.5,0.3,0.8l-0.7-0.2c-0.3-0.1-0.5-0.2-0.6-0.5l-0.2-1.3L135.5,18.7z M136.1,16.7l-0.4,1.1c0.3,0,0.6-0.1,0.7-0.5
			c0.1-0.2,0-0.4-0.1-0.5C136.4,16.7,136.3,16.7,136.1,16.7L136.1,16.7z"/>
		<path class="st21" d="M138.4,19.6c0.2,0.3,0.5,0.7,0.8,0.8c0.2,0.1,0.5,0.2,0.7-0.1c0.3-0.6-1.2-1.2-0.7-2.2
			c0.1-0.3,0.4-0.5,0.7-0.5c0.3-0.1,0.6,0,0.9,0.2c0.3,0.1,0.5,0.3,0.7,0.5l-0.3,0.6c-0.1-0.2-0.3-0.4-0.6-0.5
			c-0.2-0.1-0.5-0.1-0.6,0.1c-0.1,0.2,0.1,0.4,0.3,0.6c0.2,0.2,0.3,0.4,0.5,0.7c0.1,0.3,0.2,0.6,0,0.9c-0.1,0.3-0.4,0.5-0.8,0.6
			c-0.4,0.1-0.7,0-1-0.2c-0.3-0.2-0.6-0.4-0.8-0.6L138.4,19.6z"/>
		<path class="st21" d="M146.3,24.6l-0.3,0.2c-0.1,0.1-0.3,0.1-0.3,0.2c-0.1,0.1-0.1,0.2-0.1,0.3l0,0l-0.8-0.7l0,0
			c0.3,0,0.4-0.1,0.7-0.2l2-1c0.1-0.1,0.3-0.1,0.4-0.2c0.1-0.1,0.1-0.2,0.1-0.4l0,0l0.9,0.9l-1.2,2.6c-0.1,0.3-0.2,0.4-0.2,0.8l0,0
			l0,0l-1.1-1.1l0,0c0.1,0,0.3,0,0.4-0.1c0.1-0.1,0.1-0.1,0.1-0.2l0.2-0.5L146.3,24.6z M147.7,23.8L147.7,23.8l-1,0.5l0.5,0.5
			L147.7,23.8z"/>
		<path class="st21" d="M148.7,27.3c0,0.4,0.1,0.8,0.3,1.1c0.1,0.2,0.4,0.4,0.6,0.2c0.5-0.4-0.6-1.6,0.4-2.3
			c0.2-0.2,0.6-0.2,0.8-0.1c0.3,0.1,0.6,0.3,0.8,0.6c0.2,0.2,0.3,0.5,0.4,0.8l-0.5,0.4c0-0.3-0.1-0.5-0.2-0.7
			c-0.1-0.2-0.3-0.3-0.5-0.2c-0.2,0.2-0.1,0.5,0,0.7c0.1,0.3,0.1,0.5,0.1,0.8c0,0.3-0.1,0.6-0.4,0.8c-0.3,0.2-0.6,0.3-0.9,0.2
			c-0.4-0.1-0.6-0.4-0.8-0.6c-0.2-0.3-0.4-0.6-0.5-0.9L148.7,27.3z"/>
		<path class="st21" d="M150.9,30.3c-0.1,0.4,0,0.8,0.2,1.2c0.1,0.2,0.3,0.4,0.6,0.3c0.6-0.3-0.3-1.6,0.7-2.2c0.3-0.1,0.6-0.2,0.9,0
			c0.3,0.1,0.5,0.4,0.7,0.7c0.1,0.3,0.3,0.6,0.3,0.8l-0.5,0.3c0-0.3,0-0.5-0.1-0.8c-0.1-0.2-0.3-0.4-0.5-0.2
			c-0.2,0.1-0.2,0.4-0.1,0.6c0,0.3,0.1,0.5,0,0.8c-0.1,0.3-0.2,0.6-0.5,0.7c-0.3,0.2-0.6,0.2-0.9,0c-0.3-0.2-0.6-0.4-0.7-0.8
			c-0.2-0.3-0.3-0.6-0.3-1L150.9,30.3z"/>
		<path class="st21" d="M155.9,34.5c0.4,1,0.1,2-1,2.4c-1.1,0.4-2-0.2-2.4-1.2c-0.4-1,0-2,1-2.4C154.5,32.9,155.5,33.5,155.9,34.5z
			 M153.1,34.8c-0.2,0.2-0.3,0.5-0.2,0.8c0.1,0.3,0.3,0.4,0.6,0.5c0.3,0.1,0.5,0,0.8-0.1c0.6-0.2,1.3-0.7,1-1.4
			c-0.2-0.6-0.9-0.6-1.4-0.4C153.7,34.3,153.3,34.5,153.1,34.8z"/>
		<path class="st21" d="M156.6,40.8c0.1-0.3,0.2-0.6,0.1-0.9c-0.1-0.7-0.7-0.8-1.4-0.7c-0.7,0.1-1.2,0.6-1.1,1.3
			c0.1,0.4,0.3,0.7,0.5,1.1l-0.8-0.1c-0.2-0.3-0.2-0.7-0.3-1c-0.1-0.5-0.1-1,0.2-1.5c0.3-0.5,0.7-0.8,1.2-0.9c0.5-0.1,1,0,1.4,0.3
			c0.4,0.3,0.6,0.8,0.7,1.4l0.1,0.8L156.6,40.8z"/>
		<path class="st21" d="M154.9,43.9c-0.3,0-0.6,0-0.7,0.3l0,0l-0.1-1.4l0,0c0.2,0.2,0.5,0.2,0.7,0.2l2-0.1c0.3,0,0.6,0,0.7-0.3h0
			l0.1,1.4l0,0c-0.2-0.2-0.5-0.2-0.7-0.2L154.9,43.9z"/>
		<path class="st21" d="M155.1,46.3l-0.3-0.2c-0.1,0-0.3-0.1-0.4-0.1c-0.1,0-0.2,0.1-0.3,0.2l0,0l0.1-1.1h0c0.2,0.2,0.3,0.3,0.6,0.4
			l2,0.9c0.1,0,0.3,0.1,0.4,0.2c0.1,0,0.2-0.1,0.3-0.2l0,0l-0.1,1.3l-2.8,0.8c-0.3,0.1-0.5,0.1-0.8,0.4l0,0l0,0l0.1-1.6l0,0
			c0.1,0.1,0.1,0.2,0.3,0.2c0.1,0,0.1,0,0.2,0l0.5-0.1L155.1,46.3z M156.6,46.9L156.6,46.9l-1-0.4l-0.1,0.7L156.6,46.9z"/>
		<path class="st21" d="M154,51.5c-0.3-0.1-0.5-0.1-0.8,0.1l0,0l0.3-1.4l0,0c0.1,0.3,0.4,0.3,0.7,0.4l2.1,0.5c0-0.1,0.1-0.2,0.1-0.3
			c0.1-0.2,0-0.4-0.1-0.6l0,0l0.7,0.4l0,0.1l-0.6,2.4l-0.7-0.4c0.2,0,0.3-0.2,0.3-0.4c0-0.1,0-0.2,0-0.3L154,51.5z"/>
		<path class="st21" d="M153.1,54.4c-0.3-0.1-0.5-0.2-0.8,0l0,0l0.5-1.3l0,0c0.1,0.3,0.4,0.4,0.6,0.5l1.8,0.7c0.3,0.1,0.5,0.2,0.8,0
			l0,0l-0.5,1.3l0,0c-0.1-0.3-0.4-0.4-0.6-0.5L153.1,54.4z"/>
		<path class="st21" d="M154.2,58.8c-0.5,1-1.5,1.4-2.5,0.9c-1-0.5-1.2-1.6-0.7-2.6c0.5-1,1.5-1.4,2.5-0.9
			C154.5,56.7,154.7,57.8,154.2,58.8z M152.2,56.9c-0.3,0-0.6,0.2-0.7,0.4c-0.1,0.2-0.1,0.5,0,0.8c0.1,0.2,0.3,0.4,0.6,0.5
			c0.5,0.3,1.4,0.5,1.7-0.2c0.3-0.5-0.1-1.1-0.6-1.3C152.9,57,152.5,56.9,152.2,56.9z"/>
		<path class="st21" d="M147.5,62.1c0.1-0.1,0.4-0.3,0.6-0.4c0.4-0.2,0.6-0.2,1-0.2l1.7,0l0,0l-1.1-0.8c-0.2-0.2-0.4-0.3-0.7-0.3
			l0,0l0.6-0.8l0,0c0,0.3,0.2,0.5,0.4,0.6l1.4,1.1c0.3,0.2,0.4,0.3,0.9,0.3l0,0l-0.7,0.9l0,0l-2.7,0l1.1,0.8
			c0.2,0.2,0.4,0.3,0.7,0.3l0,0l-0.6,0.8l0,0c0-0.3-0.2-0.5-0.5-0.6L147.5,62.1z"/>
		<path class="st21" d="M113.6,67c0.9,0.7,1.1,1.7,0.4,2.6c-0.7,0.9-1.8,0.9-2.7,0.2c-0.9-0.7-1.1-1.7-0.4-2.6
			C111.6,66.3,112.8,66.3,113.6,67z M111.5,68.6c0,0.3,0,0.6,0.3,0.8c0.2,0.2,0.5,0.2,0.8,0.1c0.3-0.1,0.4-0.3,0.6-0.5
			c0.4-0.5,0.7-1.3,0.1-1.7c-0.5-0.4-1.1-0.1-1.4,0.4C111.7,67.9,111.5,68.3,111.5,68.6z"/>
		<path class="st21" d="M115.4,71.1c-0.1,0.3-0.2,0.5-0.1,0.8l0,0l-1.3-0.6l0,0c0.3,0,0.4-0.3,0.5-0.6l0.8-1.8
			c0.1-0.2,0.3-0.5,0.1-0.8l0,0l1.7,0.8c0.1,0,0.1,0.1,0.2,0.1l0,0l-0.3,0.7l0,0c0-0.3-0.3-0.4-0.5-0.5l-0.2-0.1l-0.4,0.8l0.3,0.2
			c0.1,0,0.1,0.1,0.2,0.1l0,0l-0.3,0.7l0,0c0-0.2-0.2-0.3-0.3-0.4l-0.1-0.1L115.4,71.1z"/>
		<path class="st21" d="M119.9,72.6l-0.2,0.3c-0.1,0.1-0.1,0.2-0.2,0.3c0,0.1,0,0.2,0.1,0.3l0,0l-1.1-0.2l0,0
			c0.2-0.1,0.3-0.3,0.5-0.5l1.1-1.9c0.1-0.1,0.2-0.3,0.2-0.4c0-0.1,0-0.2-0.1-0.3l0,0l1.3,0.3l0.4,2.8c0.1,0.4,0.1,0.5,0.3,0.8l0,0
			l0,0l-1.6-0.3l0,0c0.1-0.1,0.2-0.1,0.3-0.3c0-0.1,0-0.1,0-0.2l-0.1-0.5L119.9,72.6z M120.8,71.2L120.8,71.2l-0.6,0.9l0.7,0.1
			L120.8,71.2z"/>
		<path class="st21" d="M126.3,71.1L126.3,71.1l1.3,0.1l0,0c-0.1,0.1-0.2,0.1-0.2,0.3l0,2.3c0,0.3,0,0.6,0.2,0.8l0,0l-1.4-0.1l0,0
			c0.1-0.1,0.2-0.2,0.2-0.4l0-1.8l0,0l-0.9,2.2c-0.2-0.1-0.3-0.2-0.5-0.3c-0.2-0.2-0.3-0.4-0.3-0.7l-0.4-1.4l0,0l-0.3,1.8
			c0,0.2,0,0.3,0.2,0.4l0,0l-1-0.1l0,0c0.2-0.2,0.3-0.4,0.3-0.7l0.5-2.2c0-0.2,0-0.4-0.2-0.5l0,0l1.2,0.1l0,0l0.6,2.1L126.3,71.1z"
			/>
		<path class="st21" d="M129.7,74c0.2,0.1,0.4,0.1,0.6,0c0.3,0,0.6-0.1,0.8-0.3h0l-0.2,0.8l-2.3,0.1v0c0.2-0.2,0.2-0.5,0.2-0.7
			l-0.1-2c0-0.3,0-0.6-0.3-0.7v0l1.8-0.1c0.1,0,0.2,0,0.2,0h0l0,0.8l0,0c-0.2-0.2-0.5-0.2-0.7-0.2l-0.2,0l0.1,0.8l0.5,0
			c0.1,0,0.1,0,0.2,0l0,0l0,0.7l0,0c-0.1-0.2-0.3-0.2-0.5-0.2l-0.2,0L129.7,74z"/>
		<path class="st21" d="M133.2,73.3c0.1,0.3,0.1,0.6,0.4,0.7l0,0l-1.4,0.3l0,0c0.2-0.2,0.1-0.5,0.1-0.8l-0.4-1.9
			c-0.1-0.3-0.1-0.6-0.4-0.7l0,0l1.5-0.3c0.3-0.1,0.5-0.1,0.7,0c0.3,0.1,0.6,0.3,0.6,0.7c0.1,0.4-0.1,0.7-0.4,0.9l0.8,0.9
			c0.2,0.2,0.4,0.4,0.6,0.5l-0.7,0.2c-0.3,0.1-0.5,0.1-0.8-0.2l-0.8-1L133.2,73.3z M132.7,71.2l0.2,1.2c0.3-0.1,0.5-0.4,0.4-0.8
			c0-0.2-0.1-0.3-0.3-0.4C133,71.1,132.9,71.1,132.7,71.2L132.7,71.2z"/>
		<path class="st21" d="M137,72.3c0.1,0.3,0.2,0.5,0.5,0.6l0,0l-1.3,0.5l0,0c0.2-0.2,0-0.5,0-0.8l-0.7-1.8c-0.1-0.3-0.2-0.5-0.5-0.6
			l0,0l1.3-0.5l0,0c-0.2,0.2,0,0.5,0,0.8L137,72.3z"/>
		<path class="st21" d="M139.8,68.9c-0.3,0-0.6,0-0.9,0.1c-0.6,0.3-0.6,0.9-0.3,1.5c0.3,0.6,0.9,1,1.6,0.7c0.4-0.2,0.6-0.5,0.9-0.8
			l0.1,0.8c-0.3,0.2-0.6,0.4-0.9,0.6c-0.5,0.2-0.9,0.4-1.5,0.2c-0.5-0.1-0.9-0.5-1.2-0.9c-0.2-0.4-0.3-1-0.1-1.4
			c0.2-0.5,0.6-0.8,1.1-1.1l0.7-0.3L139.8,68.9z"/>
		<path class="st21" d="M142.6,69.3l0.1,0.4c0,0.1,0.1,0.3,0.1,0.4c0.1,0.1,0.2,0.1,0.3,0.1l0,0l-0.9,0.6l0,0c0.1-0.3,0-0.4,0-0.7
			l-0.5-2.2c0-0.1-0.1-0.3-0.1-0.4c-0.1-0.1-0.2-0.1-0.3-0.2l0,0l1.1-0.7l2.3,1.8c0.3,0.2,0.4,0.3,0.8,0.4l0,0l0,0l-1.3,0.8l0,0
			c0.1-0.1,0.1-0.2,0-0.4c0-0.1-0.1-0.1-0.1-0.1l-0.4-0.3L142.6,69.3z M142.2,67.8L142.2,67.8l0.3,1.1l0.6-0.4L142.2,67.8z"/>
		<path class="st21" d="M142,20.3c0.3-0.1,0.5-0.2,0.7-0.3c-0.2-0.1-0.3-0.4-0.2-0.6c0.1-0.2,0.4-0.3,0.7-0.2
			c0.3,0.1,0.3,0.4,0.2,0.7c-0.1,0.2-0.5,0.4-0.7,0.6c-0.2,0.1-0.3,0.1-0.5,0L142,20.3z"/>
	</g>
</g>
<g id="NBA">
	<path class="st11" d="M8.5,0H34c4.7,0,8.5,3.8,8.5,8.4v79.7c0,4.6-3.8,8.4-8.5,8.4H8.5c-4.7,0-8.5-3.8-8.5-8.4V8.4
		C0,3.8,3.8,0,8.5,0L8.5,0z"/>
	<path class="st26" d="M35.8,95.3c0.5-1,1.4-4.1-0.3-7.4c0.5-1.8-0.9-2.2-1.4-6.2c0.6-1.2,1-2.6,0.9-4.2c-0.1-1.4-1.1-2.1-1.7-3.2
		c-0.9-3.6-1.4-7.5-2.8-10.9c-0.5-1.6-1.6-3.1-2.4-4.6c-0.8-4.1-1.2-8.4-2.5-12.3c0.2-0.2,0.5-0.4,0.6-0.6c-0.9-3.5-2.1-8.5-4-10
		c0.5-1.7,1.1-3.7,1.4-5.2c0.8-1.1,1.7-2.3,3.5-3.1c0.9,2.5,1.3,5.6,1.8,8.1c1.1,2.5,2.8,4.7,3.2,7c-2.9,1.1-4.9,3.8-4.9,6.9
		c0,4,3.3,7.3,7.3,7.3c3,0,5.6-1.9,6.7-4.4v36.2C41.2,91.8,38.9,94.6,35.8,95.3L35.8,95.3z"/>
	<path class="st27" d="M32.3,95.4c-1.1-2.7-0.5-5-0.2-8.1c-0.3-1.4-0.5-2.8-0.7-4.2c-1.6-2.4-2.2-4.7-2.6-7.3c-3-2.7-6.6-5-9-7.9
		c-4.3-4-7.5-8.2-9.6-12.8C9.4,55.1,8.6,55,7.8,55C6.5,51.3,3.3,46.9,3.6,44c0.1-2.6,0.9-4.9,1.9-7.5c-0.9-0.2-1.7,0.1-2.6-0.4
		c-1.4-0.9-1.2-2.5-1.3-3.9c0.6-2.8,2.2-5.2,3.2-7.8c1-2.2,2-4.4,3-6.6c1.4-1.5,2.2-2.6,4-3.3c1.5-0.2,3,0.1,4.6-0.3
		c0.7-0.2,1.5-0.4,1.8-0.9c0.7-1,0.5-2,0.8-3.2c-0.9-0.5-0.8-3.1,0.2-4c0-1.8,0.7-4.3,2.3-4.9L8.2,1.1C4.4,1.1,1.3,4.2,1.3,8v80.6
		c0,3.8,3.1,6.9,6.9,6.9L32.3,95.4L32.3,95.4z M5.7,78.6h3l2.2,7.1v-7.1h2.8v11.9h-3.1l-2.3-7.1v7.1H5.7V78.6L5.7,78.6z M14.2,78.6
		h3.6c4.6,0,3.4,5.6,1.7,5.7c2.6-0.3,2.9,6.2-1.3,6.2h-4V78.6L14.2,78.6z M17,80.5v2.7h0.7c1.1,0,1.1-2.7,0-2.7L17,80.5L17,80.5z
		 M17,85.2v3.3h0.7c1.3,0,1.1-3.3,0-3.3L17,85.2L17,85.2z M23.5,78.6h3.7l2.1,11.9h-2.8l-0.2-2.1h-2L24,90.5h-2.8L23.5,78.6
		L23.5,78.6z M24.6,86.3H26l-0.7-5.9L24.6,86.3L24.6,86.3z"/>
	<path class="st26" d="M26.3,1.4c2,1.8,3.2,4.4,1.3,7.6c1.1,0.7-0.9,2-1.3,3.1c-0.6,1.6-2.5,2.5-2.3,3.1c2.5,1.5,4.5,3.1,7.1,5
		c1.3,1.6,1.8,8.2,2.6,13.2c1.1,3.1,2.6,5.8,3.2,9.3c2,0.7,3.6,2.3,4.4,4.1l0-38.8c0-3.8-3.1-6.9-6.9-6.9L26.3,1.4L26.3,1.4z"/>
</g>
<g id="google">
	<path class="st28" d="M1123.5,50.9c0,4.8-3.8,8.3-8.5,8.3s-8.5-3.5-8.5-8.3c0-4.8,3.8-8.3,8.5-8.3S1123.5,46.1,1123.5,50.9z
		 M1119.8,50.9c0-3-2.2-5-4.8-5c-2.6,0-4.8,2.1-4.8,5c0,3,2.2,5,4.8,5C1117.5,56,1119.8,53.9,1119.8,50.9z"/>
	<path class="st29" d="M1141.9,50.9c0,4.8-3.8,8.3-8.5,8.3s-8.5-3.5-8.5-8.3c0-4.8,3.8-8.3,8.5-8.3S1141.9,46.1,1141.9,50.9z
		 M1138.2,50.9c0-3-2.2-5-4.8-5c-2.6,0-4.8,2.1-4.8,5c0,3,2.2,5,4.8,5C1136,56,1138.2,53.9,1138.2,50.9z"/>
	<path class="st30" d="M1159.6,43.1v15c0,6.2-3.7,8.7-8.1,8.7c-4.1,0-6.6-2.7-7.6-4.9l3.3-1.3c0.6,1.4,2,3,4.3,3
		c2.8,0,4.5-1.7,4.5-4.9v-1.2h-0.1c-0.8,1-2.5,1.9-4.5,1.9c-4.3,0-8.2-3.6-8.2-8.3c0-4.7,3.9-8.4,8.2-8.4c2,0,3.6,0.9,4.5,1.9h0.1
		v-1.4L1159.6,43.1L1159.6,43.1z M1156.3,51c0-2.9-2-5.1-4.5-5.1c-2.6,0-4.7,2.1-4.7,5.1c0,2.9,2.2,5,4.7,5
		C1154.3,56,1156.3,53.9,1156.3,51z"/>
	<path class="st31" d="M1165.5,34.3v24.4h-3.6V34.3H1165.5z"/>
	<path class="st28" d="M1179.7,53.7l2.9,1.9c-0.9,1.4-3.2,3.7-7.1,3.7c-4.8,0-8.5-3.7-8.5-8.3c0-5,3.6-8.3,8-8.3
		c4.4,0,6.6,3.4,7.3,5.3l0.4,0.9l-11.4,4.6c0.9,1.7,2.2,2.5,4.1,2.5C1177.4,56,1178.7,55.1,1179.7,53.7L1179.7,53.7z M1170.7,50.7
		l7.6-3.1c-0.4-1-1.7-1.8-3.2-1.8C1173.3,45.8,1170.6,47.5,1170.7,50.7z"/>
	<path class="st30" d="M1092.6,48.8v-3.5h12.2c0.1,0.6,0.2,1.3,0.2,2.1c0,2.7-0.7,5.9-3.1,8.3c-2.3,2.4-5.3,3.6-9.2,3.6
		c-7.3,0-13.4-5.8-13.4-12.9s6.1-12.9,13.4-12.9c4,0,6.9,1.5,9.1,3.6l-2.6,2.5c-1.5-1.4-3.6-2.5-6.5-2.5c-5.3,0-9.5,4.2-9.5,9.4
		s4.2,9.4,9.5,9.4c3.5,0,5.4-1.4,6.7-2.6c1-1,1.7-2.4,2-4.4L1092.6,48.8z"/>
</g>
</svg>
