<?xml version="1.0" encoding="utf-8"?>
<!-- Generator: Adobe Illustrator 21.1.0, SVG Export Plug-In . SVG Version: 6.00 Build 0)  -->
<svg version="1.1" id="Layer_1" xmlns="http://www.w3.org/2000/svg" xmlns:xlink="http://www.w3.org/1999/xlink" x="0px" y="0px"
	 viewBox="0 0 230 250" style="enable-background:new 0 0 230 250;" xml:space="preserve">
<style type="text/css">
	.st0{clip-path:url(#SVGID_1_);}
	.st1{fill:#3E3E3E;}
	.st2{clip-path:url(#SVGID_2_);}
	.st3{fill:#FFFFFF;}
	.st4{fill:#DCDCDC;}
	.st5{fill:url(#path7633_1_);}
	.st6{fill:url(#path7659_1_);}
	.st7{clip-path:url(#SVGID_3_);}
</style>
<g id="NRL" transform="translate(-256.68982,-382.36219)">
	<g id="g8114" transform="matrix(2.2823017,0,0,2.2823017,-973.2717,-116.95765)">
		<g id="g7557" transform="matrix(1.25,0,0,-1.25,-351.80479,904.40907)">
			<g>
				<g>
					<defs>
						<rect id="SVGID_7_" x="709.8" y="450.2" width="85.9" height="108.7"/>
					</defs>
					<clipPath id="SVGID_1_">
						<use xlink:href="#SVGID_7_"  style="overflow:visible;"/>
					</clipPath>
					<g id="g7559" class="st0">
						<g id="g7565" transform="translate(792.6627,478.41)">
							<path id="path7567" class="st1" d="M-25.9,19.8c0-0.6-0.3-1.2-0.6-1.8c0-0.2-0.2-0.3-0.3-0.5c-0.9-1.7-2.7-2.7-5.6-4.7
								l-0.6-0.5c-1.5-0.9-4.4-2.7-6.2-3.8c-0.2,0-0.5-0.3-0.5-0.3l-0.5-0.2l-0.5,0.2c0,0-0.3,0.2-0.5,0.3c-1.8,1.1-4.7,2.9-6.2,3.8
								l-0.6,0.5c-2.9,1.8-4.5,3-5.6,4.7c-0.2,0.2-0.2,0.3-0.3,0.5c-0.3,0.6-0.5,1.2-0.6,1.8c0,0.2,0,0.5,0,0.6l0.2,22.5l0.6,0.2
								c0.2,0,4.5,1.1,13.3,1.1c8.6,0,13.2-1.1,13.3-1.1l0.6-0.2l0.2-22.5C-25.9,20.3-25.9,20.1-25.9,19.8 M-24.9,43.7l-1.4,0.3
								c-0.2,0-4.7,1.1-13.5,1.1c-8.8,0-13.3-1.1-13.5-1.1l-1.4-0.3L-55,20.4c0-0.2,0-0.5,0-0.8c0.2-0.8,0.3-1.5,0.6-2.3
								c0.2-0.2,0.2-0.3,0.3-0.5c1.1-1.8,2.9-3,5.9-5l0.8-0.5c1.5-0.9,4.5-2.7,6.2-3.8c0.2,0,0.5-0.3,0.5-0.3l0.9-0.5l0.9,0.5
								c0,0,0.3,0.2,0.5,0.3c1.8,1.1,4.8,2.9,6.2,3.8l0.8,0.5c3,2,4.7,3.2,5.9,5c0.2,0.2,0.2,0.3,0.3,0.5c0.3,0.8,0.6,1.5,0.6,2.3
								c0,0.3,0,0.5,0,0.8L-24.9,43.7z"/>
						</g>
					</g>
				</g>
			</g>
		</g>
		<g id="g7569" transform="matrix(1.25,0,0,-1.25,-351.80479,904.40907)">
			<g>
				<g>
					<defs>
						<rect id="SVGID_9_" x="708.9" y="450.2" width="87.6" height="108.7"/>
					</defs>
					<clipPath id="SVGID_2_">
						<use xlink:href="#SVGID_9_"  style="overflow:visible;"/>
					</clipPath>
					<g id="g7571" class="st2">
						<g id="g7577" transform="translate(790.4667,478.6536)">
							<path id="path7579" class="st3" d="M-24.4,19.6c0-0.6-0.3-1.1-0.5-1.7c0-0.2-0.2-0.3-0.2-0.3c-0.9-1.5-2.9-2.7-5.9-4.8
								c-1.4-0.9-4.4-2.7-6.2-3.8c-0.2,0-0.5-0.3-0.5-0.3S-37.9,8.9-38,9c-1.8,1.1-4.8,2.9-6.2,3.8c-3.2,2.1-5,3.3-5.9,4.8
								c0,0.2-0.2,0.3-0.2,0.3c-0.3,0.5-0.5,1.1-0.5,1.7c0,0.2,0,0.3,0,0.5l0.2,21.9c0,0,4.4,1.1,13.2,1.1c8.6,0,13.2-1.1,13.2-1.1
								l0.2-21.9C-24.4,19.9-24.4,19.8-24.4,19.6 M-24.4,42.9c-0.2,0-4.5,1.1-13.3,1.1c-8.6,0-13.2-1.1-13.3-1.1l-0.6-0.2l-0.2-22.5
								c0-0.2,0-0.3,0-0.6c0-0.6,0.3-1.2,0.6-1.8c0-0.2,0.2-0.3,0.3-0.5c0.9-1.7,2.7-2.7,5.6-4.7l0.6-0.5c1.5-0.9,4.4-2.7,6.2-3.8
								c0.2,0,0.5-0.3,0.5-0.3l0.5-0.2l0.5,0.2c0,0,0.3,0.2,0.5,0.3c1.8,1.1,4.7,2.9,6.2,3.8l0.6,0.5c2.9,1.8,4.5,3,5.6,4.7
								c0.2,0.2,0.2,0.3,0.3,0.5c0.3,0.6,0.5,1.2,0.6,1.8c0,0.2,0,0.5,0,0.6l-0.2,22.5L-24.4,42.9z"/>
						</g>
						<g id="g7581" transform="translate(754.0621,451.8018)">
							<path id="path7583" class="st1" d="M-1.3,36.7L-13,43.4c1.1-1.1,2.7-2.1,5-3.6c1.4-0.9,4.4-2.7,6.2-3.8
								c0.2,0,0.5-0.3,0.5-0.3S-1,35.8-0.9,36C1,37,4,38.8,5.3,39.8c2.3,1.5,3.9,2.6,5,3.6L-1.3,36.7z"/>
						</g>
						<g id="g7585" transform="translate(790.4794,487.9009)">
							<path id="path7587" class="st1" d="M-24.4,13.8v0.9l-13.3-7.6L-51,14.7v-0.9l13.3-7.6L-24.4,13.8z"/>
						</g>
						<g id="g7589" transform="translate(790.3327,505.7424)">
							<path id="path7591" class="st1" d="M-24.3,2.4l-0.2,12.7c0,0-4.4,1.1-13.2,1.1c-8.6,0-13.2-1.1-13.2-1.1l-0.2-12.7l13.2-7.6
								L-24.3,2.4z"/>
						</g>
						<g id="g7593" transform="translate(790.4935,486.1521)">
							<path id="path7595" class="st4" d="M-24.5,14.9v0.6l-13.3-7.6l-13.3,7.6v-0.6l13.3-7.6L-24.5,14.9z"/>
						</g>
						<g id="g7597" transform="translate(790.3468,503.9936)">
							<path id="path7599" class="st4" d="M-24.3,3.6v0.6l-13.2-7.6l-13.2,7.6V3.6L-37.5-4L-24.3,3.6z"/>
						</g>
						<g id="g7601" transform="translate(786.0721,470.0857)">
							<path id="path7603" d="M-21.7,25.1c0.3,0.3,0.6,0.8,0.9,1.2c0,0.2,0.2,0.3,0.2,0.3c0,0.2,0.2,0.2,0.2,0.3l-12.9-7.3
								l-12.9,7.3c0-0.2,0-0.2,0.2-0.3c0-0.2,0.2-0.3,0.2-0.3c0.3-0.5,0.6-0.8,0.9-1.1l11.6-6.7L-21.7,25.1z"/>
						</g>
						<g id="g7605" transform="translate(790.4574,490.5164)">
							<path id="path7607" d="M-24.4,12.1v1.1l-13.2-7.6l-13.3,7.6v-1.1l13.3-7.6L-24.4,12.1z"/>
						</g>
					</g>
				</g>
			</g>
		</g>
		<g id="g7609" transform="matrix(1.25,0,0,-1.25,-351.80479,904.40907)">
			<g id="g7611">
				<g id="g7617">
					<g id="g7619">
						
							<linearGradient id="path7633_1_" gradientUnits="userSpaceOnUse" x1="1250.6783" y1="484.1823" x2="1251.0419" y2="484.1823" gradientTransform="matrix(-669.1988 0 0 -669.1988 837720.1875 324509.625)">
							<stop  offset="0" style="stop-color:#8A8A8A"/>
							<stop  offset="0.17" style="stop-color:#B3B3B3"/>
							<stop  offset="0.5031" style="stop-color:#CECECE"/>
							<stop  offset="0.83" style="stop-color:#B3B3B3"/>
							<stop  offset="1" style="stop-color:#8A8A8A"/>
						</linearGradient>
						<path id="path7633" class="st5" d="M739.5,498.8c0-0.2,0-0.3,0-0.5l0,0c0-0.5,0.2-0.9,0.3-1.4l0,0l12.9-7.3l12.9,7.3
							c0.2,0.5,0.3,0.9,0.5,1.4l0,0c0,0.2,0,0.3,0,0.5l0,0v2.3l-13.3-7.6l-13.3,7.6L739.5,498.8L739.5,498.8z"/>
					</g>
				</g>
			</g>
		</g>
		<g id="g7635" transform="matrix(1.25,0,0,-1.25,-351.80479,904.40907)">
			<g id="g7637">
				<g id="g7643">
					<g id="g7645">
						
							<linearGradient id="path7659_1_" gradientUnits="userSpaceOnUse" x1="1250.6783" y1="484.1995" x2="1251.0419" y2="484.1995" gradientTransform="matrix(-669.1988 0 0 -669.1988 837720.1875 324527.5)">
							<stop  offset="0" style="stop-color:#8A8A8A"/>
							<stop  offset="0.17" style="stop-color:#B3B3B3"/>
							<stop  offset="0.5031" style="stop-color:#CECECE"/>
							<stop  offset="0.83" style="stop-color:#B3B3B3"/>
							<stop  offset="1" style="stop-color:#8A8A8A"/>
						</linearGradient>
						<path id="path7659" class="st6" d="M739.5,503.7l13.3-7.6l13.2,7.6v3.8l-13.2-7.6l-13.2,7.6L739.5,503.7L739.5,503.7z"/>
					</g>
				</g>
			</g>
		</g>
		<g id="g7661" transform="matrix(1.25,0,0,-1.25,-351.80479,904.40907)">
			<g>
				<g>
					<defs>
						<rect id="SVGID_11_" x="708.9" y="450.2" width="87.6" height="108.7"/>
					</defs>
					<clipPath id="SVGID_3_">
						<use xlink:href="#SVGID_11_"  style="overflow:visible;"/>
					</clipPath>
					<g id="g7663" class="st7">
						<path id="path7669" d="M741.8,510.5h2.1v0.9h-2.1V510.5z"/>
						<g id="g7671" transform="translate(736.8775,515.5061)">
							<path id="path7673" d="M9.7-3.8L7.1,0.4v-0.9l2.6-4.2c0.2-0.3,0.5-0.5,0.8-0.5h1.7v0.9h-1.7C10.1-4.3,9.8-4.1,9.7-3.8"/>
						</g>
						<g id="g7675" transform="translate(764.9585,527.8055)">
							<path id="path7677" d="M-8.3-11.7c0,0.2,0,0.3,0,0.5c-0.2-0.8-0.5-1.5-1.1-1.8c-0.2-0.2-0.3-0.2-0.3-0.2l0.5-0.6
								C-8.4-13.4-8.3-12.5-8.3-11.7"/>
						</g>
						<g id="g7679" transform="translate(746.7136,531.0699)">
							<path id="path7681" d="M3.4-13.7h1.8c0.2,0,0.3,0,0.3-0.2h0.9c0.8,0,1.2-0.3,1.4-0.8c0,0.2,0,0.3,0,0.5
								c0,0.8-0.5,1.1-1.4,1.1H2.3v-0.8L3.4-13.7L3.4-13.7z"/>
						</g>
						<g id="g7683" transform="translate(767.1613,519.932)">
							<path id="path7685" d="M-9.6-6.7v-0.9l1.8-2h5v0.9h-5L-9.6-6.7z"/>
						</g>
						<path id="path7687" d="M750.1,510.5h2.3v0.9h-2.3V510.5z"/>
						<g id="g7689" transform="translate(768.9954,514.3501)">
							<path id="path7691" d="M-10.8-3.1h-2.1c-0.5,0-0.6,0.2-0.8,0.3c-0.2,0.2-2.1,2.6-2.1,2.6h-0.9v-0.9h0.9c0,0,2-2.4,2.1-2.6
								c0.2-0.2,0.3-0.3,0.8-0.3h1.2h0.8l0,0L-10.8-3.1L-10.8-3.1L-10.8-3.1z"/>
						</g>
						<g id="g7693" transform="translate(762.1823,523.7935)">
							<path id="path7695" class="st3" d="M-6.5-9.1c0.8,0.5,1.1,1.4,1.1,2.3c0,0.8-0.2,1.5-1.1,2C-7.1-4.6-8-4.4-9.1-4.4H-15l0,0
								l0,0c-0.3,0-0.3-0.2-0.3-0.3l0,0v-4.4L-18-4.4h-2c-0.3,0-0.3-0.2-0.3-0.3v-7.9h2.1v4.7l2.6-4.2c0.2-0.3,0.5-0.5,0.8-0.5h1.7
								v6.8h4.1c1.1,0,1.4-0.5,1.4-1.1c0-0.8-0.5-1.2-1.1-1.2h-1.1v1.2c0,0.2-0.2,0.3-0.3,0.3H-12v-6h2.3v2.9h0.9c0,0,2-2.4,2.1-2.6
								c0.2-0.2,0.3-0.3,0.8-0.3h2.1l-2.9,3.2C-6.8-9.3-6.7-9.3-6.5-9.1"/>
						</g>
						<g id="g7697" transform="translate(784.7413,518.9237)">
							<path id="path7699" class="st3" d="M-20.8-6h-4.2v6.7h-1.8c-0.2,0-0.3-0.2-0.3-0.3v-6l1.8-2h5v1.4C-20.5-6.2-20.5-6-20.8-6"
								/>
						</g>
						<g id="g7701" transform="translate(769.4246,502.9118)">
							<path id="path7703" d="M-11.1,4.2V3.9l0.8,0.2l0,0v0.3l0,0L-11.1,4.2z"/>
						</g>
						<g id="g7705" transform="translate(769.7719,504.4591)">
							<path id="path7707" d="M-11.3,3.2L-11.3,3.2l0.5,0.5l0,0V4l0,0L-11.3,3.2z"/>
						</g>
						<g id="g7709" transform="translate(765.128,506.3113)">
							<path id="path7711" d="M-8.4,2V1.7l0,0L-8,1.3l0.2,0.2L-8.4,2z"/>
						</g>
						<g id="g7713" transform="translate(765.1363,506.3127)">
							<path id="path7715" d="M-8.3,2L-8.3,2L-8.3,2L-8.3,2z"/>
						</g>
						<g id="g7717" transform="translate(767.9968,502.2175)">
							<path id="path7719" d="M-10.2,4.6L-10.8,4V3.7l0.6,0.6l0.6-0.5v0.3L-10.2,4.6z"/>
						</g>
						<g id="g7721" transform="translate(766.5665,502.9018)">
							<path id="path7723" d="M-9.3,4.2L-10,4.4l0,0V4.1l0,0l0.8-0.2V4.2z"/>
						</g>
						<g id="g7725" transform="translate(767.1925,505.6908)">
							<path id="path7727" class="st3" d="M-9.7,2.5l0.3,0.8l0.3-0.8l0.8,0.3l-0.5-0.6l0.6-0.5L-9,1.6V0.8l-0.6,0.5l-0.6-0.6v0.8
								l-0.8,0.2l0.6,0.5l-0.5,0.6L-9.7,2.5z"/>
						</g>
						<g id="g7729" transform="translate(783.3388,493.6867)">
							<path id="path7731" d="M-19.9,10.1V9.8l0.8,0.2l0,0v0.3l0,0L-19.9,10.1z"/>
						</g>
						<g id="g7733" transform="translate(783.6862,495.2334)">
							<path id="path7735" d="M-20.2,9.1L-20.2,9.1l0.5,0.5l0,0v0.3l0,0L-20.2,9.1z"/>
						</g>
						<g id="g7737" transform="translate(779.0417,497.086)">
							<path id="path7739" d="M-17.3,7.9V7.6l0,0l0.3-0.5l0.2,0.2L-17.3,7.9z"/>
						</g>
						<g id="g7741" transform="translate(779.0505,497.0875)">
							<path id="path7743" d="M-17.2,7.9L-17.2,7.9L-17.2,7.9L-17.2,7.9z"/>
						</g>
						<g id="g7745" transform="translate(781.9105,492.9921)">
							<path id="path7747" d="M-19,10.5l-0.6-0.6V9.6l0.6,0.6l0.6-0.5V10L-19,10.5z"/>
						</g>
						<g id="g7749" transform="translate(780.4803,493.6765)">
							<path id="path7751" d="M-18,10.1l-0.8,0.2l0,0V9.9l0,0l0.8-0.2V10.1z"/>
						</g>
						<g id="g7753" transform="translate(781.1068,496.4654)">
							<path id="path7755" class="st3" d="M-18.5,8.3l0.3,0.8l0.3-0.8l0.8,0.3L-17.6,8l0.6-0.5l-0.8-0.2V6.7l-0.6,0.5l-0.6-0.6v0.8
								l-0.8,0.2l0.6,0.5l-0.2,0.6L-18.5,8.3z"/>
						</g>
						<g id="g7757" transform="translate(768.9374,467.3811)">
							<path id="path7759" d="M-10.8,26.9v-0.3l0.8,0.2l0,0V27l0,0L-10.8,26.9z"/>
						</g>
						<g id="g7761" transform="translate(769.2848,468.9278)">
							<path id="path7763" d="M-10.9,25.8L-10.9,25.8l0.5,0.5l0,0v0.3l0,0L-10.9,25.8z"/>
						</g>
						<g id="g7765" transform="translate(764.6409,470.7804)">
							<path id="path7767" d="M-8,24.7v-0.3l0,0l0.3-0.5l0.2,0.2L-8,24.7z"/>
						</g>
						<g id="g7769" transform="translate(764.6492,470.7818)">
							<path id="path7771" d="M-8,24.7L-8,24.7L-8,24.7L-8,24.7z"/>
						</g>
						<g id="g7773" transform="translate(767.5096,466.6864)">
							<path id="path7775" d="M-9.9,27.3l-0.6-0.6v-0.3l0.6,0.6l0.6-0.5v0.3L-9.9,27.3z"/>
						</g>
						<g id="g7777" transform="translate(766.0794,467.3708)">
							<path id="path7779" d="M-8.9,26.9L-9.7,27l0,0v-0.3l0,0l0.8-0.2V26.9z"/>
						</g>
						<g id="g7781" transform="translate(766.7054,470.1602)">
							<path id="path7783" class="st3" d="M-9.4,25.1l0.3,0.8l0.3-0.8l0.8,0.3l-0.5-0.6l0.6-0.5l-0.8-0.2v-0.8l-0.6,0.5l-0.6-0.6
								v0.8l-0.8,0.2l0.6,0.5l-0.5,0.6L-9.4,25.1z"/>
						</g>
						<g id="g7785" transform="translate(755.4498,490.9159)">
							<path id="path7787" d="M-2.1,11.9v-0.3l0.8,0.2l0,0V12l0,0L-2.1,11.9z"/>
						</g>
						<g id="g7789" transform="translate(755.7971,492.463)">
							<path id="path7791" d="M-2.4,10.8L-2.4,10.8l0.5,0.5l0,0v0.3l0,0L-2.4,10.8z"/>
						</g>
						<g id="g7793" transform="translate(751.154,494.3156)">
							<path id="path7795" d="M0.5,9.7V9.4l0,0l0.3-0.5L1,9.1L0.5,9.7z"/>
						</g>
						<g id="g7797" transform="translate(751.1626,494.3171)">
							<path id="path7799" d="M0.5,9.7L0.5,9.7L0.5,9.7L0.5,9.7z"/>
						</g>
						<g id="g7801" transform="translate(754.0226,490.2212)">
							<path id="path7803" d="M-1.3,12.3l-0.6-0.6v-0.3l0.6,0.6l0.6-0.5v0.3L-1.3,12.3z"/>
						</g>
						<g id="g7805" transform="translate(752.5917,490.9061)">
							<path id="path7807" d="M-0.4,11.8L-1.2,12l0,0v-0.3l0,0l0.8-0.2V11.8z"/>
						</g>
						<g id="g7809" transform="translate(753.2187,493.695)">
							<path id="path7811" class="st3" d="M-0.7,10.1l0.3,0.8l0.2-0.8l0.8,0.3L0.1,9.8l0.6-0.5l-0.8-0.2V8.4l-0.6,0.5l-0.6-0.6V9
								l-0.8,0.2l0.6,0.5l-0.5,0.6L-0.7,10.1z"/>
						</g>
						<g id="g7813" transform="translate(771.7921,487.3032)">
							<path id="path7815" d="M-12.5,14.1l-0.5,0.3v-0.3l0.3-0.3L-12.5,14.1z"/>
						</g>
						<g id="g7817" transform="translate(773.5702,486.7119)">
							<path id="path7819" d="M-13.7,14.5l0.3,0.3v0.3l-0.5-0.3L-13.7,14.5z"/>
						</g>
						<g id="g7821" transform="translate(772.592,486.724)">
							<path id="path7823" d="M-13.1,14.5l-0.5-0.3v-0.3l0.5,0.3l0.5-0.3v0.3L-13.1,14.5z"/>
						</g>
						<g id="g7825" transform="translate(772.0946,488.2419)">
							<path id="path7827" class="st3" d="M-12.8,13.5l0.2,0.5l0.2-0.5h0.6l-0.5-0.3l0.2-0.5l-0.5,0.3l-0.5-0.3l0.2,0.5l-0.5,0.3
								H-12.8z"/>
						</g>
					</g>
				</g>
			</g>
		</g>
	</g>
</g>
</svg>
