<?xml version="1.0" encoding="utf-8"?>
<!-- Generator: Adobe Illustrator 21.1.0, SVG Export Plug-In . SVG Version: 6.00 Build 0)  -->
<svg version="1.1" id="Layer_1" xmlns="http://www.w3.org/2000/svg" xmlns:xlink="http://www.w3.org/1999/xlink" x="0px" y="0px"
	 viewBox="0 0 230 250" style="enable-background:new 0 0 230 250;" xml:space="preserve">
<style type="text/css">
	.st0{fill:#606060;}
	.st1{fill:#B9B9B9;}
	.st2{fill:#828282;}
	.st3{fill:#9E9E9E;}
</style>
<g id="google">
	<path class="st0" d="M104.6,126.2c0,6.7-5.3,11.6-11.8,11.6c-6.5,0-11.8-4.9-11.8-11.6s5.3-11.6,11.8-11.6
		C99.3,114.6,104.6,119.5,104.6,126.2z M99.4,126.2c0-4.2-3.1-7-6.7-7c-3.6,0-6.7,2.9-6.7,7c0,4.2,3.1,7,6.7,7
		C96.2,133.3,99.4,130.4,99.4,126.2z"/>
	<path class="st1" d="M130.2,126.2c0,6.7-5.3,11.6-11.8,11.6c-6.5,0-11.8-4.9-11.8-11.6s5.3-11.6,11.8-11.6
		C124.9,114.6,130.2,119.5,130.2,126.2z M125,126.2c0-4.2-3.1-7-6.7-7c-3.6,0-6.7,2.9-6.7,7c0,4.2,3.1,7,6.7,7
		C122,133.3,125,130.4,125,126.2z"/>
	<path class="st2" d="M154.8,115.3v20.9c0,8.6-5.2,12.1-11.3,12.1c-5.7,0-9.2-3.8-10.6-6.8l4.6-1.8c0.8,1.9,2.8,4.2,6,4.2
		c3.9,0,6.3-2.4,6.3-6.8v-1.7h-0.1c-1.1,1.4-3.5,2.6-6.3,2.6c-6,0-11.4-5-11.4-11.6c0-6.5,5.4-11.7,11.4-11.7c2.8,0,5,1.3,6.3,2.6
		h0.1v-1.9L154.8,115.3L154.8,115.3z M150.2,126.3c0-4-2.8-7.1-6.3-7.1c-3.6,0-6.5,2.9-6.5,7.1c0,4,3.1,7,6.5,7
		C147.4,133.3,150.2,130.4,150.2,126.3z"/>
	<path class="st3" d="M163,103.1v34h-5v-34H163z"/>
	<path class="st0" d="M182.8,130.1l4,2.6c-1.3,1.9-4.5,5.2-9.9,5.2c-6.7,0-11.8-5.2-11.8-11.6c0-7,5-11.6,11.1-11.6
		s9.2,4.7,10.2,7.4l0.6,1.3l-15.9,6.4c1.3,2.4,3.1,3.5,5.7,3.5C179.6,133.3,181.4,132,182.8,130.1L182.8,130.1z M170.3,125.9
		l10.6-4.3c-0.6-1.4-2.4-2.5-4.5-2.5C173.9,119.1,170.1,121.5,170.3,125.9z"/>
	<path class="st2" d="M61.5,123.3v-4.9h17c0.1,0.8,0.3,1.8,0.3,2.9c0,3.8-1,8.2-4.3,11.6c-3.2,3.3-7.4,5-12.8,5
		c-10.2,0-18.7-8.1-18.7-18s8.5-18,18.7-18c5.6,0,9.6,2.1,12.7,5l-3.6,3.5c-2.1-1.9-5-3.5-9.1-3.5c-7.4,0-13.2,5.8-13.2,13.1
		s5.8,13.1,13.2,13.1c4.9,0,7.5-1.9,9.3-3.6c1.4-1.4,2.4-3.3,2.8-6.1L61.5,123.3z"/>
</g>
</svg>
