<?xml version="1.0" encoding="utf-8"?>
<!-- Generator: Adobe Illustrator 21.1.0, SVG Export Plug-In . SVG Version: 6.00 Build 0)  -->
<svg version="1.1" id="Layer_1" xmlns="http://www.w3.org/2000/svg" xmlns:xlink="http://www.w3.org/1999/xlink" x="0px" y="0px"
	 viewBox="0 0 230 250" style="enable-background:new 0 0 230 250;" xml:space="preserve">
<style type="text/css">
	.st0{fill:#969696;}
	.st1{fill:#4D4D4D;}
	.st2{fill:#B9B9B9;}
	.st3{fill:#585858;}
</style>
<g id="SeriA">
	<path class="st0" d="M150.8,105.9c17.9-37.5-94.6-45.6-102.9,4.9c-1.9,15.4,14.2,26.6,47,33.7C16.7,115.8,112.1,74.3,150.8,105.9
		L150.8,105.9z"/>
	<path class="st1" d="M78.5,115.5c-16,38.4,96.9,40.6,102.6-10.2c1-15.4-15.6-25.9-48.8-31.2C212.1,98.5,118.7,145,78.5,115.5
		L78.5,115.5z"/>
	<path class="st2" d="M119.2,107.2c0.7,0.5,1.2,1,1.2,1.6c0,1.6-3.3,2.8-7.5,2.8c-0.9,0-1.6,0-2.3-0.2L119.2,107.2L119.2,107.2z
		 M105.7,109.6c-0.3-0.3-0.3-0.5-0.3-0.9c0-1.6,3.3-2.8,7.5-2.8c0.5,0,1.2,0,1.7,0L105.7,109.6L105.7,109.6z M103.3,110.6l-15.4,6.2
		c-4.7-2.1-7.5-4.7-7.5-7.6c0-6.6,14.6-11.8,32.5-11.8c6.6,0,12.7,0.7,17.7,1.9l-13.7,5.6c-1.2-0.2-2.6-0.3-4-0.3
		c-5.6,0-10.1,2.1-10.1,4.7C102.9,109.8,102.9,110.3,103.3,110.6L103.3,110.6z M106.9,113.2l-12.5,6.1c5.2,1.2,11.5,2.1,18.2,2.1
		c17.9,0,32.5-5.2,32.5-11.8c0-3.6-4.5-6.9-11.6-9l-12.8,6.1c1.4,0.9,2.1,1.7,2.1,3c0,2.6-4.5,4.7-10.1,4.7
		C110.7,114.1,108.7,113.7,106.9,113.2L106.9,113.2z"/>
	<path class="st3" d="M101.9,168.9v-7.5h2.3c3.3,0,4.7,1.7,4.7,3.6c0,1.7-1.6,3.8-4.9,3.8L101.9,168.9L101.9,168.9z M115.6,182.3
		l-7.3-11.6c1.7-0.5,4.5-2.8,4.5-6.1c0-2.8-2.3-6.1-8.5-6.1h-6.6v23.6h4.2v-10.6h2.4l6.8,11.1L115.6,182.3L115.6,182.3z
		 M122.4,182.3v-23.6h-4v23.6H122.4L122.4,182.3z M140.1,179.2h-10.2v-7.6h7.1v-3h-7.1v-6.9h9.7v-3h-13.9v23.6h14.2v-3.1H140.1z
		 M95.1,179.2H84.9v-7.6H92v-3h-7.1v-6.9h9.7v-3H80.7v23.6h14.2v-3.1H95.1z M152.2,175.7h9.5l2.4,6.6h4.9l-9.9-26.7h-2.6l-10.9,26.7
		h4.2L152.2,175.7L152.2,175.7z M160.7,172.6h-7.5l4-10.6L160.7,172.6L160.7,172.6z M60.4,178l-1.4,3.1c1,0.5,3.6,1.9,8.2,1.9
		c4.9,0,9.5-3.1,9.5-7.8c0-4.2-4.2-6.4-6.8-8.2c-3-1.9-5.6-3-5.6-5.6c0-1.6,1.6-3,4.2-3c2.6,0,4.3,0.9,5.4,1.2l1.4-3.1
		c-1.2-0.5-3.5-1.6-7.3-1.6c-4.7,0-8.2,3-8.2,6.9c0,4.7,3.6,6.4,6.2,8.2c3,1.7,5.7,3.1,5.7,5.7c0,2.1-2.1,3.6-4.5,3.6
		C63.7,179.5,61.4,178.3,60.4,178L60.4,178z"/>
</g>
</svg>
