<?xml version="1.0" encoding="utf-8"?>
<!-- Generator: Adobe Illustrator 21.1.0, SVG Export Plug-In . SVG Version: 6.00 Build 0)  -->
<svg version="1.1" id="Layer_1" xmlns="http://www.w3.org/2000/svg" xmlns:xlink="http://www.w3.org/1999/xlink" x="0px" y="0px"
	 viewBox="0 0 230 250" style="enable-background:new 0 0 230 250;" xml:space="preserve">
<style type="text/css">
	.st0{fill:#FFFFFF;}
	.st1{fill:url(#SVGID_1_);}
	.st2{fill:url(#SVGID_2_);}
</style>
<g id="LFP">
	<path class="st0" d="M74.2,66.7v116.8c0,2.4,2,4.4,4.4,4.4l0,0h72.6c2.4,0,4.4-2,4.4-4.4l0,0V66.7c0-2.4-2-4.4-4.4-4.4l0,0H78.6
		C76.2,62.3,74.2,64.3,74.2,66.7L74.2,66.7z"/>
	<path d="M79.1,189c-3.6,0-6.5-2.9-6.5-6.5l0,0v-115c0-3.6,2.9-6.5,6.5-6.5l0,0h71.5c3.6,0,6.5,2.9,6.5,6.5l0,0v115
		c0,3.6-2.9,6.5-6.5,6.5l0,0L79.1,189L79.1,189z M74.9,67.5v115c0,2.4,2,4.2,4.2,4.2l0,0h71.5c2.4,0,4.2-2,4.2-4.2l0,0v-115
		c0-2.4-2-4.2-4.2-4.2l0,0H79.1C76.8,63.3,74.9,65.1,74.9,67.5L74.9,67.5z"/>
	
		<linearGradient id="SVGID_1_" gradientUnits="userSpaceOnUse" x1="112.2823" y1="143.0598" x2="116.7926" y2="179.6119" gradientTransform="matrix(1 0 0 -1 0 252)">
		<stop  offset="0" style="stop-color:#C1C1C1"/>
		<stop  offset="1" style="stop-color:#000000"/>
	</linearGradient>
	<path class="st1" d="M153.2,107.4V67.7c0-1.1-1-2.1-2-2.1H78.6c-1.1,0-2,1-2,2.1v21.8l1.5,8.5c10.6-0.2,25.9,0,41,2.1
		c2.1-4.2,3.1-7.7,2.4-11.4c-1.6-7-8-13.8-8-13.8c-0.8-1.6,1.5-0.8,1.5-0.8c4.9,2,13,10.1,13,10.1c1.3-0.7,2.4-1.6,3.6-2.9
		c-0.7,0.5-1.5,0.8-2.3,0.8c-2.1,0-3.9-1.8-3.9-3.9c0-2.1,1.8-3.9,3.9-3.9c2.1,0,3.9,1.8,3.9,3.9c0,0.7-0.2,1.3-0.5,1.8
		c2.4-3.1,4.1-6.5,4.1-6.5s1.3-1.3,1,3.1c-0.7,6.7-5,12.1-5,12.1s1.6,2.1,3.1,4.7c1,1.6,2.8,6,3.1,10.6c0.8,0.2,1.6,0.3,2.3,0.5
		c0.7-1.5,2-2.6,3.7-2.6c2.3,0,4.1,1.8,4.1,4.1c0,0.2,0,0.3,0,0.5C150.6,106.8,151.9,107.1,153.2,107.4z M128.4,94.9
		c-1.6,1.8-3.6,3.9-5.4,5.7c3.4,0.5,7,1.1,10.3,2c0.5,0.2,0.8,0.2,1.3,0.3C132,97.6,128.4,94.9,128.4,94.9z"/>
	
		<linearGradient id="SVGID_2_" gradientUnits="userSpaceOnUse" x1="121.4225" y1="124.3841" x2="111.8141" y2="152.47" gradientTransform="matrix(1 0 0 -1 0 252)">
		<stop  offset="0" style="stop-color:#626262"/>
		<stop  offset="1" style="stop-color:#B9B9B9"/>
	</linearGradient>
	<path class="st2" d="M107.3,117.7c0-0.3,1-0.7,2.3-0.8c-9.4-7.2-19.5-15-22.5-17.3c-2.8,0-5.7,0-8.6,0.2l5,27.7
		c0.3,2,2.3,3.3,4.2,2.9l31.9-5.7c-2.1-1.6-4.4-3.4-6.8-5.2C109.6,119.1,107.1,118.3,107.3,117.7z M153.2,109.7
		c-1.5-0.5-3.1-1-4.7-1.5c-0.7,1-2,1.8-3.3,1.8c-2.1,0-3.9-1.6-3.9-3.7c-0.7-0.2-1.3-0.3-2-0.5c0,1-0.2,2-0.3,2.8
		c-0.5,2-1.3,2.4-1.5,2.4c-0.3-0.2-0.7-2.9-2-6c-4.2-1-9-1.8-14-2.6c-1.8,1.6-3.1,2.9-3.6,2.9c-1.1,0.2-0.8-1-0.8-1
		c0.5-0.8,1-1.6,1.3-2.3c-8.5-1.1-18.1-2-28.7-2.1l24.3,16.9c3.4,0.3,6.2,1.1,6,1.8c0,0.3-1,0.7-2.4,0.8l6.2,4.4l29.2-5.2
		L153.2,109.7z"/>
	<path d="M87.6,138.5h-6.8v22.8h19.1l1-2.6H87.6V138.5z M103.4,161.3h6.8V152h9l0.8-2.6h-9.8v-8.1h12.2l1-2.6h-20V161.3z
		 M150.3,146.8c-0.5-7-7.2-8.3-7.2-8.3H126v22.8h6.8v-20.2h7.2c1.3,0.5,4.7,2.1,4.7,5.4c-0.2,4.2-4.4,5.2-4.4,5.2h-5.2l-1.3,2.9h9.3
		C143.1,154.6,150.8,153.8,150.3,146.8z"/>
	<g>
		<path d="M84,172.6h-2.6v-5h0.8v4.4H84V172.6z"/>
		<path d="M85.6,172.6h-0.8v-5h0.8V172.6z"/>
		<path d="M88.5,170.1H92c0,0.8-0.3,1.5-0.8,2c-0.5,0.5-1.1,0.7-2,0.7c-0.3,0-0.8,0-1.1-0.2c-0.3-0.2-0.7-0.3-1-0.7
			c-0.2-0.2-0.3-0.5-0.5-0.8c-0.2-0.3-0.2-0.7-0.2-1s0-0.7,0.2-1c0.2-0.3,0.3-0.7,0.7-0.8c0.3-0.2,0.5-0.5,0.8-0.5
			c0.3-0.2,0.7-0.2,1.1-0.2c0.5,0,1,0.2,1.5,0.3c0.5,0.2,0.7,0.7,1,1h-1c-0.2-0.2-0.3-0.3-0.7-0.5c-0.3-0.2-0.5-0.2-0.8-0.2
			c-0.3,0-0.5,0-0.7,0.2c-0.2,0.2-0.5,0.2-0.7,0.3c-0.2,0.2-0.3,0.3-0.5,0.7c-0.2,0.2-0.2,0.5-0.2,0.7c0,0.3,0,0.5,0.2,0.8
			c0.2,0.2,0.2,0.5,0.3,0.7c0.2,0.2,0.3,0.3,0.7,0.5c0.2,0.2,0.5,0.2,0.8,0.2c0.5,0,0.8-0.2,1.1-0.3c0.3-0.2,0.7-0.5,0.8-1h-2.4
			v-0.8H88.5z"/>
		<path d="M92.8,167.5h0.8v3.3c0,0.5,0,0.8,0.2,1c0.2,0.2,0.3,0.3,0.8,0.3c0.3,0,0.7-0.2,0.7-0.3c0.2-0.2,0.2-0.5,0.2-1v-3.3h0.8
			v3.3c0,0.3,0,0.7,0,0.8s-0.2,0.3-0.2,0.5c-0.2,0.2-0.3,0.3-0.7,0.5c-0.2,0.2-0.5,0.2-0.8,0.2c-0.3,0-0.7,0-0.8-0.2
			s-0.5-0.3-0.7-0.5c-0.2-0.2-0.2-0.3-0.2-0.5c0-0.2,0-0.5,0-0.8v-3.3H92.8z"/>
		<path d="M100.1,172.6h-2.8v-5h2.8v0.7h-2v1.5h2v0.7h-2v1.5h2V172.6z"/>
		<path d="M105,172.6h-1.5v-5h1.8c0.8,0,1.5,0.2,2,0.7c0.5,0.5,0.8,1.1,0.8,1.8c0,0.5-0.2,0.8-0.3,1.1c-0.2,0.3-0.5,0.7-0.8,0.8
			c-0.2,0.2-0.5,0.3-0.8,0.3C105.8,172.6,105.5,172.6,105,172.6z M104.2,171.9h1c0.7,0,1.1-0.2,1.5-0.5s0.5-0.8,0.5-1.3
			c0-0.7-0.2-1-0.5-1.3s-0.8-0.5-1.5-0.5h-0.8v3.6H104.2z"/>
		<path d="M111.7,172.6h-2.8v-5h2.8v0.7h-2v1.5h2v0.7h-2v1.5h2V172.6z"/>
		<path d="M115.1,172.6v-5h2.6v0.7h-2v1.5h2v0.7h-2v2.3C115.7,172.6,115.1,172.6,115.1,172.6z"/>
		<path d="M118.7,170.1c0-0.3,0-0.7,0.2-1c0.2-0.3,0.3-0.7,0.7-0.8c0.3-0.2,0.5-0.5,0.8-0.5c0.3-0.2,0.7-0.2,1-0.2
			c0.3,0,0.7,0,1,0.2c0.3,0.2,0.7,0.3,0.8,0.5c0.3,0.3,0.5,0.5,0.7,0.8c0.2,0.3,0.2,0.7,0.2,1s0,0.7-0.2,1s-0.3,0.7-0.5,0.8
			c-0.3,0.3-0.7,0.5-1,0.7c-0.3,0.2-0.7,0.2-1.1,0.2c-0.3,0-0.8,0-1.1-0.2c-0.3-0.2-0.7-0.3-1-0.7c-0.2-0.2-0.3-0.5-0.5-0.8
			C118.7,170.8,118.7,170.4,118.7,170.1z M119.5,170.1c0,0.3,0,0.5,0.2,0.8c0.2,0.2,0.2,0.5,0.3,0.7c0.2,0.2,0.3,0.3,0.7,0.5
			c0.2,0.2,0.5,0.2,0.8,0.2c0.5,0,1-0.2,1.5-0.5c0.3-0.3,0.5-0.8,0.5-1.3c0-0.2,0-0.5-0.2-0.7c-0.2-0.2-0.2-0.3-0.3-0.7
			c-0.2-0.2-0.5-0.3-0.7-0.5c-0.2-0.2-0.5-0.2-0.8-0.2c-0.3,0-0.5,0-0.7,0.2c-0.2,0.2-0.5,0.2-0.7,0.3c-0.2,0.2-0.3,0.3-0.5,0.7
			C119.5,169.6,119.5,169.8,119.5,170.1z"/>
		<path d="M124.7,170.1c0-0.3,0-0.7,0.2-1s0.3-0.7,0.7-0.8c0.3-0.2,0.5-0.5,0.8-0.5c0.3-0.2,0.7-0.2,1-0.2c0.3,0,0.7,0,1,0.2
			c0.3,0.2,0.7,0.3,0.8,0.5c0.3,0.3,0.5,0.5,0.7,0.8c0.2,0.3,0.2,0.7,0.2,1s0,0.7-0.2,1c-0.2,0.3-0.3,0.7-0.5,0.8
			c-0.3,0.3-0.7,0.5-1,0.7c-0.3,0.2-0.7,0.2-1.1,0.2c-0.3,0-0.8,0-1.1-0.2c-0.3-0.2-0.7-0.3-1-0.7c-0.2-0.2-0.3-0.5-0.5-0.8
			C124.9,170.8,124.7,170.4,124.7,170.1z M125.5,170.1c0,0.3,0,0.5,0.2,0.8c0.2,0.2,0.2,0.5,0.3,0.7c0.2,0.2,0.3,0.3,0.7,0.5
			c0.2,0.2,0.5,0.2,0.8,0.2c0.5,0,1-0.2,1.5-0.5c0.3-0.3,0.5-0.8,0.5-1.3c0-0.2,0-0.5-0.2-0.7c-0.2-0.2-0.2-0.3-0.3-0.7
			c-0.2-0.2-0.5-0.3-0.7-0.5c-0.2-0.2-0.5-0.2-0.8-0.2s-0.5,0-0.7,0.2c-0.2,0.2-0.5,0.2-0.7,0.3c-0.2,0.2-0.3,0.3-0.5,0.7
			C125.7,169.6,125.5,169.8,125.5,170.1z"/>
		<path d="M132.5,172.6h-0.8v-4.4h-1v-0.7h2.8v0.7h-1L132.5,172.6L132.5,172.6z"/>
		<path d="M135.5,167.5c0.7,0,1,0.2,1.3,0.3c0.3,0.2,0.5,0.7,0.5,1c0,0.2,0,0.3-0.2,0.5c-0.2,0.2-0.2,0.3-0.5,0.3
			c0.3,0,0.5,0.2,0.7,0.5c0.2,0.2,0.2,0.5,0.2,0.8c0,0.2,0,0.5-0.2,0.7s-0.2,0.3-0.3,0.5c-0.2,0.2-0.3,0.2-0.5,0.3
			c-0.2,0-0.5,0.2-0.8,0.2h-1.3v-5H135.5z M135,171.9h0.7c0.3,0,0.7,0,0.8-0.2c0.2-0.2,0.3-0.3,0.3-0.7c0-0.3-0.2-0.5-0.3-0.7
			c-0.2-0.2-0.5-0.2-0.8-0.2H135V171.9z M135,169.6h0.3c0.3,0,0.7,0,0.8-0.2c0.2-0.2,0.3-0.3,0.3-0.5s0-0.3-0.2-0.5
			c-0.2-0.2-0.3-0.2-0.7-0.2h-0.5v1.3H135z"/>
		<path d="M139,171.1l-0.7,1.5h-0.8l2.1-5h0.8l2.1,5h-0.8l-0.7-1.5H139z M140.8,170.4l-0.8-2l-0.8,2H140.8z"/>
		<path d="M145.5,172.6h-2.6v-5h0.8v4.4h1.8V172.6z"/>
		<path d="M149,172.6h-2.6v-5h0.8v4.4h1.8V172.6z"/>
		<path d="M88.5,180.4h-0.8v-5H89c0.3,0,0.7,0,0.8,0s0.3,0.2,0.5,0.2c0.2,0.2,0.3,0.3,0.5,0.5c0.2,0.2,0.2,0.5,0.2,0.8
			c0,0.5-0.2,0.8-0.5,1.1s-0.8,0.5-1.3,0.5h-0.7L88.5,180.4L88.5,180.4z M88.5,177.6H89c0.3,0,0.7,0,0.8-0.2
			c0.2-0.2,0.3-0.3,0.3-0.7s-0.2-0.5-0.3-0.7c-0.2-0.2-0.5-0.2-0.8-0.2h-0.7v1.6H88.5z"/>
		<path d="M92.6,180.4h-0.8v-5h1.6c0.7,0,1.1,0.2,1.5,0.5c0.3,0.3,0.5,0.7,0.5,1.1c0,0.5-0.2,0.8-0.5,1c-0.3,0.3-0.7,0.5-1.1,0.5
			l1.5,2h-1l-1.8-2.3v2.3H92.6z M92.6,177.9h0.3c0.5,0,1-0.2,1.1-0.3c0.3-0.2,0.3-0.5,0.3-0.8c0-0.3-0.2-0.5-0.3-0.7
			c-0.2-0.2-0.7-0.2-1.1-0.2h-0.7v2H92.6z"/>
		<path d="M96,177.8c0-0.3,0-0.7,0.2-1c0.2-0.3,0.3-0.7,0.7-0.8c0.3-0.2,0.5-0.5,0.8-0.5c0.3-0.2,0.7-0.2,1-0.2c0.3,0,0.7,0,1,0.2
			c0.3,0.2,0.7,0.3,0.8,0.5c0.3,0.3,0.5,0.5,0.7,0.8c0.2,0.3,0.2,0.7,0.2,1c0,0.3,0,0.7-0.2,1c-0.2,0.3-0.3,0.7-0.5,0.8
			c-0.3,0.3-0.7,0.5-1,0.7c-0.3,0.2-0.7,0.2-1.1,0.2c-0.3,0-0.8,0-1.1-0.2c-0.3-0.2-0.7-0.3-1-0.7c-0.2-0.2-0.3-0.5-0.5-0.8
			C96,178.4,96,178.1,96,177.8z M96.9,177.8c0,0.3,0,0.5,0.2,0.8c0.2,0.2,0.2,0.5,0.3,0.7c0.2,0.2,0.3,0.3,0.7,0.5
			c0.2,0.2,0.5,0.2,0.8,0.2c0.5,0,1-0.2,1.5-0.5c0.3-0.3,0.5-0.8,0.5-1.3c0-0.2,0-0.5-0.2-0.7c-0.2-0.2-0.2-0.3-0.3-0.7
			c-0.2-0.2-0.5-0.3-0.7-0.5c-0.2-0.2-0.5-0.2-0.8-0.2s-0.5,0-0.7,0.2c-0.2,0.2-0.5,0.2-0.7,0.3c-0.2,0.2-0.3,0.3-0.5,0.7
			C96.9,177.6,96.9,177.6,96.9,177.8z"/>
		<path d="M102.4,180.4v-5h2.6v0.7h-2v1.5h2v0.7h-2v2.3H102.4z"/>
		<path d="M108.9,180.4h-2.8v-5h2.8v0.7h-2v1.5h2v0.7h-2v1.5h2V180.4z"/>
		<path d="M109.7,178.9h0.7c0,0.3,0.2,0.5,0.3,0.7c0.2,0.2,0.3,0.2,0.7,0.2s0.5,0,0.7-0.2c0.2-0.2,0.2-0.3,0.2-0.7
			c0-0.2,0-0.3-0.2-0.5c-0.2-0.2-0.3-0.2-0.8-0.3c0,0,0,0-0.2,0c-0.5-0.2-0.8-0.3-1-0.5c-0.2-0.2-0.2-0.2-0.2-0.3c0-0.2,0-0.3,0-0.5
			c0-0.5,0.2-0.8,0.5-1c0.3-0.3,0.7-0.3,1.1-0.3s0.8,0.2,1,0.3c0.3,0.2,0.3,0.5,0.5,1h-0.7c0-0.2-0.2-0.3-0.2-0.5
			c-0.2-0.2-0.3-0.2-0.5-0.2s-0.3,0-0.5,0.2c-0.2,0.2-0.2,0.3-0.2,0.5v0.2c0,0,0,0.2,0.2,0.2c0.2,0.2,0.3,0.2,0.7,0.3
			c0.2,0,0.3,0,0.3,0.2c0.3,0.2,0.7,0.3,0.8,0.5s0.3,0.5,0.3,0.8c0,0.5-0.2,0.8-0.5,1.1c-0.3,0.3-0.7,0.5-1.1,0.5
			c-0.5,0-0.8-0.2-1.1-0.5C109.9,179.7,109.7,179.4,109.7,178.9z"/>
		<path d="M113.5,178.9h0.7c0,0.3,0.2,0.5,0.3,0.7c0.2,0.2,0.3,0.2,0.7,0.2s0.5,0,0.7-0.2c0.2-0.2,0.2-0.3,0.2-0.7
			c0-0.2,0-0.3-0.2-0.5c-0.2-0.2-0.3-0.2-0.8-0.3c0,0,0,0-0.2,0c-0.5-0.2-0.8-0.3-1-0.5c-0.2-0.2-0.2-0.2-0.2-0.3c0-0.2,0-0.3,0-0.5
			c0-0.5,0.2-0.8,0.5-1c0.3-0.3,0.7-0.3,1.1-0.3c0.5,0,0.8,0.2,1,0.3c0.3,0.2,0.3,0.5,0.5,1h-0.7c0-0.2-0.2-0.3-0.2-0.5
			c-0.2-0.2-0.3-0.2-0.5-0.2c-0.2,0-0.3,0-0.5,0.2c-0.2,0.2-0.2,0.3-0.2,0.5v0.2c0,0,0,0.2,0.2,0.2c0.2,0.2,0.3,0.2,0.7,0.3
			c0.2,0,0.3,0,0.3,0.2c0.3,0.2,0.7,0.3,0.8,0.5c0.2,0.2,0.3,0.5,0.3,0.8c0,0.5-0.2,0.8-0.5,1.1c-0.3,0.3-0.7,0.5-1.1,0.5
			c-0.5,0-0.8-0.2-1.1-0.5C113.6,179.7,113.5,179.4,113.5,178.9z"/>
		<path d="M118.4,180.4h-0.8v-5h0.8V180.4z"/>
		<path d="M119.2,177.8c0-0.3,0-0.7,0.2-1c0.2-0.3,0.3-0.7,0.7-0.8c0.3-0.2,0.5-0.5,0.8-0.5c0.3-0.2,0.7-0.2,1-0.2
			c0.3,0,0.7,0,1,0.2c0.3,0.2,0.7,0.3,0.8,0.5c0.3,0.3,0.5,0.5,0.7,0.8c0.2,0.3,0.2,0.7,0.2,1c0,0.3,0,0.7-0.2,1
			c-0.2,0.3-0.3,0.7-0.5,0.8c-0.3,0.3-0.7,0.5-1,0.7c-0.3,0.2-0.7,0.2-1.1,0.2c-0.3,0-0.8,0-1.1-0.2c-0.3-0.2-0.7-0.3-1-0.7
			c-0.2-0.2-0.3-0.5-0.5-0.8C119.3,178.4,119.2,178.1,119.2,177.8z M120,177.8c0,0.3,0,0.5,0.2,0.8c0.2,0.2,0.2,0.5,0.3,0.7
			c0.2,0.2,0.3,0.3,0.7,0.5c0.2,0.2,0.5,0.2,0.8,0.2c0.5,0,1-0.2,1.5-0.5c0.3-0.3,0.5-0.8,0.5-1.3c0-0.2,0-0.5-0.2-0.7
			s-0.2-0.3-0.3-0.7c-0.2-0.2-0.5-0.3-0.7-0.5c-0.2-0.2-0.5-0.2-0.8-0.2s-0.5,0-0.7,0.2c-0.2,0.2-0.5,0.2-0.7,0.3
			c-0.2,0.2-0.3,0.3-0.5,0.7C120.1,177.3,120,177.6,120,177.8z"/>
		<path d="M126.3,180.4h-0.8v-5h0.8l2.6,3.7v-3.7h0.8v5h-0.8l-2.8-3.9L126.3,180.4z"/>
		<path d="M131.7,180.4h-0.8v-5h0.8l2.6,3.7v-3.7h0.8v5h-0.8l-2.8-3.9L131.7,180.4z"/>
		<path d="M139,180.4h-2.8v-5h2.8v0.7h-2v1.5h2v0.7h-2v1.5h2V180.4z"/>
		<path d="M142.6,180.4H140v-5h0.8v4.4h1.8V180.4z"/>
	</g>
	<g>
		<path d="M143.4,175.6c0.2,0,0.3,0,0.3,0c0.2,0,0.2,0.2,0.3,0.2c0.2,0.2,0.2,0.2,0.2,0.3c0,0.2,0,0.3,0,0.3c0,0.2,0,0.3,0,0.3
			c0,0.2-0.2,0.2-0.2,0.3c-0.2,0.2-0.2,0.2-0.3,0.2c-0.2,0-0.3,0-0.3,0c-0.2,0-0.3,0-0.3,0c-0.2,0-0.2-0.2-0.3-0.2
			c-0.2-0.2-0.2-0.2-0.2-0.3s0-0.3,0-0.3c0-0.2,0-0.3,0-0.3c0-0.2,0.2-0.2,0.2-0.3c0.2-0.2,0.2-0.2,0.3-0.2
			C143.1,175.6,143.3,175.6,143.4,175.6z M144.2,176.6c0-0.2,0-0.2,0-0.3c0-0.2-0.2-0.2-0.2-0.3c-0.2-0.2-0.2-0.2-0.3-0.2
			c-0.2,0-0.2,0-0.3,0c-0.2,0-0.2,0-0.3,0c-0.2,0-0.2,0.2-0.3,0.2c-0.2,0.2-0.2,0.2-0.2,0.3c0,0.2,0,0.2,0,0.3c0,0.2,0,0.2,0,0.3
			s0.2,0.2,0.2,0.3c0.2,0.2,0.2,0.2,0.3,0.2c0.2,0,0.2,0,0.3,0c0.2,0,0.2,0,0.3,0c0.2,0,0.2-0.2,0.3-0.2c0.2,0,0.2-0.2,0.2-0.3
			C144.2,176.9,144.2,176.8,144.2,176.6z M143.4,176c0.2,0,0.3,0,0.3,0l0.2,0.2c0,0.2,0,0.2,0,0.2l-0.2,0.2l0.3,0.5h-0.2l-0.2-0.5
			h-0.2v0.7h-0.2L143.4,176L143.4,176z M143.4,176.1h-0.2v0.3h0.2c0.2,0,0.2,0,0.2,0s0,0,0-0.2v-0.2H143.4z"/>
	</g>
</g>
</svg>
