<?xml version="1.0" encoding="utf-8"?>
<!-- Generator: Adobe Illustrator 21.1.0, SVG Export Plug-In . SVG Version: 6.00 Build 0)  -->
<svg version="1.1" id="Layer_1" xmlns="http://www.w3.org/2000/svg" xmlns:xlink="http://www.w3.org/1999/xlink" x="0px" y="0px"
	 viewBox="0 0 230 250" style="enable-background:new 0 0 230 250;" xml:space="preserve">
<style type="text/css">
	.st0{fill:#4D4D4D;}
	.st1{fill:#FFFFFF;}
</style>
<g id="FB">
	<path id="Blue_1_" class="st0" d="M156.8,172.1c2.8,0,5.3-2.3,5.3-5.3V82.5c0-2.8-2.3-5.3-5.3-5.3H72.3c-2.8,0-5.3,2.3-5.3,5.3V167
		c0,2.8,2.3,5.3,5.3,5.3h84.5V172.1z"/>
	<path id="f" class="st1" d="M132.5,172.1v-36.7h12.4l1.8-14.3h-14.1V112c0-4.2,1.2-7.1,7.1-7.1h7.6V92c-1.2-0.2-5.8-0.5-11.1-0.5
		c-10.9,0-18.3,6.7-18.3,18.9V121h-12.4v14.3h12.4v36.7h14.8V172.1z"/>
</g>
</svg>
