<?xml version="1.0" encoding="utf-8"?>
<!-- Generator: Adobe Illustrator 18.1.1, SVG Export Plug-In . SVG Version: 6.00 Build 0)  -->
<svg version="1.1" id="Layer_1" xmlns="http://www.w3.org/2000/svg" xmlns:xlink="http://www.w3.org/1999/xlink" x="0px" y="0px"
	 viewBox="0 0 400 400" enable-background="new 0 0 400 400" xml:space="preserve">
<g id="logos">
	<g>
		<path fill="#010101" d="M203.7,154.7V91.6h-63.1l18.2,18.2l-102.4,102c-0.3,3-0.4,6-0.4,9.1c0,13.3,5.4,23.8,9.1,35.6l120.4-120.4
			L203.7,154.7z"/>
		<path fill="#010101" d="M265.9,219.4L148.7,337c10.9,3.3,21.7,6.7,33.9,8.1c4.6,0.7,8.1,0.4,12.9-0.3l97.2-99.1l18.1,18.1v-62.8
			h-63.1L265.9,219.4z"/>
		<path fill="#010101" d="M292.7,174v-63h-63.1l18.1,18.1l-162,162.3c7.6,10,16.4,18.8,27.1,26.3l161.5-161.8L292.7,174z"/>
		<path fill="#010101" d="M199.8,2.7C90.7,2.7,2,91.6,2,200.6c0,109.2,88.8,197.8,197.8,197.8c109.2,0,197.8-88.8,197.8-197.8
			S308.7,2.7,199.8,2.7z M199.8,359.1c-87.3,0-158.2-71-158.2-158.2s71-158.5,158.5-158.5s158.2,71.2,158.2,158.5
			S287,359.1,199.8,359.1z"/>
	</g>
</g>
<g id="guides">
</g>
</svg>
