<?xml version="1.0" encoding="utf-8"?>
<!-- Generator: Adobe Illustrator 18.1.1, SVG Export Plug-In . SVG Version: 6.00 Build 0)  -->
<svg version="1.1" id="Layer_1" xmlns="http://www.w3.org/2000/svg" xmlns:xlink="http://www.w3.org/1999/xlink" x="0px" y="0px"
	 viewBox="85 -85.5 173.5 173.5" enable-background="new 85 -85.5 173.5 173.5" xml:space="preserve">
<g id="logos">
	<g>
		<path d="M173.7-17.8v-27.1h-27.1l7.8,7.8l-44,43.8c-0.1,1.3-0.2,2.6-0.2,3.9c0,5.7,2.3,10.2,3.9,15.3l51.7-51.7L173.7-17.8z"/>
		<path d="M200.4,10L150,60.5c4.7,1.4,9.3,2.9,14.6,3.5c2,0.3,3.5,0.2,5.5-0.1l41.8-42.6l7.8,7.8V2.1h-27.1L200.4,10z"/>
		<path d="M211.9-9.5v-27.1h-27.1l7.8,7.8L123,40.9c3.3,4.3,7.1,8.1,11.6,11.3L204-17.3L211.9-9.5z"/>
		<path d="M172-83.1c-46.9,0-85,38.2-85,85c0,46.9,38.2,85,85,85c46.9,0,85-38.2,85-85C257-44.9,218.8-83.1,172-83.1z M172,70
			C134.5,70,104,39.5,104,2s30.5-68.1,68.1-68.1S240.1-35.5,240.1,2S209.5,70,172,70z"/>
	</g>
</g>
<g id="guides">
</g>
</svg>
