<?xml version="1.0" encoding="utf-8"?>
<!-- Generator: Adobe Illustrator 20.0.0, SVG Export Plug-In . SVG Version: 6.00 Build 0)  -->
<svg version="1.1" id="Layer_1" xmlns="http://www.w3.org/2000/svg" xmlns:xlink="http://www.w3.org/1999/xlink" x="0px" y="0px"
	 viewBox="0 0 130 37.5" style="enable-background:new 0 0 130 37.5;" xml:space="preserve">
<style type="text/css">
	.st0{fill:#FFFFFF;}
</style>
<g>
	<path class="st0" d="M6.2,12.5c-3.4,0-6.2,2.8-6.2,6.2v12.5c0,3.4,2.8,6.2,6.2,6.2h34.3c3.4,0,6.2-2.8,6.2-6.2v-25
		c0-3.4-2.8-6.2-6.2-6.2H0v6.2h38.5c1.1,0,2,0.9,2,2v20.9c0,1.1-0.9,2-2,2H8.2c-1.1,0-2-0.9-2-2v-8.5c0-1.1,0.9-2,2-2h26v-6.2H6.2
		L6.2,12.5z M80.2,4.6c0,0.1,0.1,0.1,0.1,0.1h0.8c0.1,0,0.1-0.1,0.1-0.1V1h0.9c0.1,0,0.1-0.1,0.1-0.1V0.2c0-0.1-0.1-0.1-0.1-0.1
		h-2.9c-0.1,0-0.1,0.1-0.1,0.1v0.7C79.1,1,79.2,1,79.3,1h0.9V4.6L80.2,4.6z M75.9,4.6c0,0.1,0.1,0.1,0.1,0.1h0.8
		c0.1,0,0.1-0.1,0.1-0.1V1h0.9C78,1,78,1,78,0.9V0.2c0-0.1-0.1-0.1-0.1-0.1H75c-0.1,0-0.1,0.1-0.1,0.1v0.7C74.9,1,74.9,1,75,1h0.9
		V4.6L75.9,4.6z M70.3,2.4c0-0.7,0.6-1.3,1.3-1.3c0.7,0,1.3,0.6,1.3,1.3c0,0.7-0.6,1.3-1.3,1.3C70.9,3.7,70.3,3.1,70.3,2.4L70.3,2.4
		z M69.2,2.4c0,1.3,1,2.4,2.4,2.4c1.3,0,2.4-1,2.4-2.4C74,1.1,72.9,0,71.6,0C70.3,0,69.2,1.1,69.2,2.4L69.2,2.4z M66,3.7V2.8h0.5
		C66.7,2.8,67,3,67,3.3c0,0.3-0.2,0.5-0.5,0.5H66L66,3.7z M66,1.9V1h0.5c0.3,0,0.5,0.2,0.5,0.4c0,0.3-0.2,0.5-0.5,0.5H66L66,1.9z
		 M64.9,4.6c0,0.1,0.1,0.1,0.1,0.1h1.6c0.8,0,1.4-0.5,1.4-1.3c0-0.6-0.5-0.9-0.9-1.1c0.3-0.2,0.8-0.5,0.8-1c0-0.7-0.6-1.2-1.4-1.2
		h-1.5c-0.1,0-0.1,0.1-0.1,0.1V4.6L64.9,4.6z M61.4,3.7V2.8h0.5c0.3,0,0.5,0.2,0.5,0.5c0,0.3-0.2,0.5-0.5,0.5H61.4L61.4,3.7z
		 M61.4,1.9V1h0.5c0.2,0,0.5,0.2,0.5,0.4c0,0.3-0.2,0.5-0.5,0.5H61.4L61.4,1.9z M60.4,4.6c0,0.1,0.1,0.1,0.1,0.1h1.6
		c0.8,0,1.4-0.5,1.4-1.3c0-0.6-0.5-0.9-0.9-1.1c0.3-0.2,0.8-0.5,0.8-1c0-0.7-0.6-1.2-1.4-1.2h-1.5c-0.1,0-0.1,0.1-0.1,0.1V4.6
		L60.4,4.6z M56.6,3.1L57.1,2h0l0.5,1.1H56.6L56.6,3.1z M55,4.7h0.7c0.1,0,0.2-0.1,0.2-0.2L56.2,4H58l0.2,0.5
		c0.1,0.1,0.1,0.2,0.2,0.2h0.7c0.1,0,0.2-0.1,0.1-0.2l-2.1-4.4c0,0-0.1-0.1-0.1-0.1H57c0,0-0.1,0-0.1,0.1l-2.1,4.4
		C54.8,4.6,54.9,4.7,55,4.7L55,4.7z M102.5,36.6c0.3,0.3,1.1,0.9,2.7,0.9c1.8,0,2.8-1.2,2.8-2.5c0-1.6-1.5-2.4-2.4-2.7
		c-0.9-0.4-1.3-0.7-1.3-1.2c0-0.3,0.3-0.6,0.8-0.6c0.7,0,1.6,0.7,1.7,0.7c0.1,0.1,0.3,0,0.4-0.2l0.6-0.9c0-0.1,0.1-0.3-0.1-0.4
		c-0.4-0.3-1.3-0.9-2.6-0.9c-1.8,0-2.8,1.2-2.8,2.4c0,1.4,1.3,2.2,2.3,2.6c0.8,0.3,1.2,0.7,1.2,1.2c0,0.4-0.3,0.7-0.8,0.7
		c-0.8,0-1.7-0.6-1.7-0.7c-0.1-0.1-0.3-0.1-0.4,0.1l-0.6,1C102.4,36.5,102.4,36.5,102.5,36.6L102.5,36.6z M95.3,32.6v-1.9h1.8
		c0.5,0,0.9,0.4,0.9,0.9c0,0.5-0.4,1-0.9,1H95.3L95.3,32.6z M93.5,37.2c0,0.1,0.1,0.2,0.2,0.2h1.4c0.1,0,0.2-0.1,0.2-0.2v-3.1h0.8
		l1.6,3.2c0,0,0.1,0.1,0.2,0.1h1.6c0.2,0,0.3-0.2,0.2-0.3l-1.6-3c1-0.4,1.8-1.3,1.8-2.4c0-1.4-1.2-2.6-2.6-2.6h-3.6
		c-0.1,0-0.2,0.1-0.2,0.2V37.2L93.5,37.2z M84.4,33.2c0-1.3,1.1-2.4,2.4-2.4c1.3,0,2.4,1.1,2.4,2.4c0,1.3-1.1,2.4-2.4,2.4
		C85.5,35.6,84.4,34.6,84.4,33.2L84.4,33.2z M82.5,33.2c0,2.4,1.9,4.3,4.3,4.3c2.4,0,4.3-1.9,4.3-4.3c0-2.4-1.9-4.3-4.3-4.3
		C84.4,28.9,82.5,30.8,82.5,33.2L82.5,33.2z M75.6,36.7c0.2,0.3,0.8,0.9,1.8,0.9c1.4,0,2.6-1,2.6-2.6v-5.7c0-0.1-0.1-0.2-0.2-0.2
		h-1.5c-0.1,0-0.2,0.1-0.2,0.2v5.6c0,0.6-0.4,0.9-0.7,0.9c-0.3,0-0.5-0.1-0.6-0.3c-0.1-0.1-0.2-0.1-0.3,0l-0.8,0.8
		C75.5,36.5,75.5,36.6,75.6,36.7L75.6,36.7z M69.3,34.6l0.9-2h0l0.9,2H69.3L69.3,34.6z M66.4,37.4h1.3c0.2,0,0.4-0.1,0.4-0.3l0.4-1
		h3.3l0.4,0.9c0.1,0.2,0.2,0.3,0.4,0.3H74c0.2,0,0.3-0.2,0.2-0.3l-3.8-8.1c0-0.1-0.1-0.1-0.2-0.1h-0.1c-0.1,0-0.2,0.1-0.2,0.1
		l-3.8,8.1C66.1,37.3,66.2,37.4,66.4,37.4L66.4,37.4z M55.1,37.2c0,0.2,0.1,0.3,0.2,0.3h1.4c0.1,0,0.2-0.1,0.2-0.2l0.5-3.7h0l2,3.9
		c0,0.1,0.1,0.1,0.2,0.1H60c0.1,0,0.2-0.1,0.2-0.1l2-3.9h0l0.5,3.7c0,0.1,0.1,0.2,0.2,0.2h1.4c0.1,0,0.3-0.1,0.2-0.3l-1.4-8.1
		c0-0.1-0.1-0.2-0.2-0.2h-0.2c-0.1,0-0.2,0-0.2,0.1l-2.8,5.2h0L57.1,29c0-0.1-0.1-0.1-0.2-0.1h-0.2c-0.1,0-0.2,0.1-0.2,0.2
		L55.1,37.2L55.1,37.2z M122.8,26.3c0,0.1,0.1,0.2,0.2,0.2h1.4c0.1,0,0.2-0.1,0.2-0.2v-4.5h0l4.7,4.8c0,0,0.1,0.1,0.2,0.1h0.2
		c0.1,0,0.2-0.1,0.2-0.2v-8.1c0-0.1-0.1-0.2-0.2-0.2h-1.4c-0.1,0-0.2,0.1-0.2,0.2v4.3h0l-4.8-4.6H123c-0.1,0-0.2,0.1-0.2,0.2
		L122.8,26.3L122.8,26.3z M113.8,22.3c0-1.3,1.1-2.4,2.4-2.4c1.3,0,2.4,1.1,2.4,2.4c0,1.3-1.1,2.4-2.4,2.4
		C114.8,24.7,113.8,23.6,113.8,22.3L113.8,22.3z M111.8,22.3c0,2.4,1.9,4.3,4.3,4.3c2.4,0,4.3-1.9,4.3-4.3c0-2.4-1.9-4.3-4.3-4.3
		C113.7,18,111.8,19.9,111.8,22.3L111.8,22.3z M102.3,26.3c0,0.1,0.1,0.2,0.2,0.2h1.4c0.1,0,0.2-0.1,0.2-0.2v-3.2h3.4v3.2
		c0,0.1,0.1,0.2,0.2,0.2h1.4c0.1,0,0.2-0.1,0.2-0.2v-7.9c0-0.1-0.1-0.2-0.2-0.2h-1.4c-0.1,0-0.2,0.1-0.2,0.2v3h-3.4v-3
		c0-0.1-0.1-0.2-0.2-0.2h-1.4c-0.1,0-0.2,0.1-0.2,0.2V26.3L102.3,26.3z M95.9,26.3c0,0.1,0.1,0.2,0.2,0.2h1.4c0.1,0,0.2-0.1,0.2-0.2
		v-6.4h1.7c0.1,0,0.2-0.1,0.2-0.2v-1.3c0-0.1-0.1-0.2-0.2-0.2h-5.3c-0.1,0-0.2,0.1-0.2,0.2v1.3c0,0.1,0.1,0.2,0.2,0.2h1.7V26.3
		L95.9,26.3z M87.8,23.6l0.9-2h0l0.9,2H87.8L87.8,23.6z M84.9,26.5h1.3c0.2,0,0.4-0.1,0.4-0.3l0.4-1h3.3l0.4,0.9
		c0.1,0.2,0.2,0.3,0.4,0.3h1.3c0.2,0,0.3-0.2,0.2-0.3l-3.8-8.1c0-0.1-0.1-0.1-0.2-0.1h-0.1c-0.1,0-0.2,0.1-0.2,0.1l-3.8,8.1
		C84.6,26.4,84.7,26.5,84.9,26.5L84.9,26.5z M78.4,21.7v-1.9h1.8c0.5,0,0.9,0.4,0.9,0.9c0,0.5-0.4,1-0.9,1H78.4L78.4,21.7z
		 M76.6,26.3c0,0.1,0.1,0.2,0.2,0.2h1.4c0.1,0,0.2-0.1,0.2-0.2v-3.1h0.8l1.6,3.2c0,0,0.1,0.1,0.2,0.1h1.6c0.2,0,0.3-0.2,0.2-0.3
		l-1.6-3c1-0.4,1.8-1.3,1.8-2.4c0-1.4-1.2-2.6-2.6-2.6h-3.6c-0.1,0-0.2,0.1-0.2,0.2V26.3L76.6,26.3z M69.3,23.6l0.9-2h0l0.9,2H69.3
		L69.3,23.6z M66.4,26.5h1.3c0.2,0,0.4-0.1,0.4-0.3l0.4-1h3.3l0.4,0.9c0.1,0.2,0.2,0.3,0.4,0.3H74c0.2,0,0.3-0.2,0.2-0.3l-3.8-8.1
		c0-0.1-0.1-0.1-0.2-0.1h-0.1c-0.1,0-0.2,0.1-0.2,0.1l-3.8,8.1C66.1,26.4,66.2,26.5,66.4,26.5L66.4,26.5z M55.1,26.3
		c0,0.2,0.1,0.3,0.2,0.3h1.4c0.1,0,0.2-0.1,0.2-0.2l0.5-3.7h0l2,3.9c0,0.1,0.1,0.1,0.2,0.1H60c0.1,0,0.2-0.1,0.2-0.1l2-3.9h0
		l0.5,3.7c0,0.1,0.1,0.2,0.2,0.2h1.4c0.1,0,0.3-0.1,0.2-0.3l-1.4-8.1c0-0.1-0.1-0.2-0.2-0.2h-0.2c-0.1,0-0.2,0-0.2,0.1l-2.8,5.2h0
		l-2.8-5.2c0-0.1-0.1-0.1-0.2-0.1h-0.2c-0.1,0-0.2,0.1-0.2,0.2L55.1,26.3L55.1,26.3z M94.9,13.8V9H96c1.4,0,2.3,1.1,2.3,2.4
		c0,1.4-1,2.4-2.3,2.4H94.9L94.9,13.8z M93,15.4c0,0.1,0.1,0.2,0.2,0.2h2.9c2.3,0,4.2-1.9,4.2-4.2c0-2.3-1.9-4.2-4.2-4.2h-2.9
		c-0.1,0-0.2,0.1-0.2,0.2V15.4L93,15.4z M85.8,15.4c0,0.1,0.1,0.2,0.2,0.2h4.5c0.1,0,0.2-0.1,0.2-0.2v-1.3c0-0.1-0.1-0.2-0.2-0.2
		h-2.9V7.4c0-0.1-0.1-0.2-0.2-0.2H86c-0.1,0-0.2,0.1-0.2,0.2V15.4L85.8,15.4z M78.4,10.8V8.9h1.8c0.5,0,0.9,0.4,0.9,0.9
		c0,0.5-0.4,1-0.9,1H78.4L78.4,10.8z M76.6,15.4c0,0.1,0.1,0.2,0.2,0.2h1.4c0.1,0,0.2-0.1,0.2-0.2v-3.1h0.8l1.6,3.2
		c0,0,0.1,0.1,0.2,0.1h1.6c0.2,0,0.3-0.2,0.2-0.3l-1.6-3c1-0.4,1.8-1.3,1.8-2.4c0-1.4-1.2-2.6-2.6-2.6h-3.6c-0.1,0-0.2,0.1-0.2,0.2
		V15.4L76.6,15.4z M67.8,11.4c0-1.3,1.1-2.4,2.4-2.4c1.3,0,2.4,1.1,2.4,2.4c0,1.3-1.1,2.4-2.4,2.4C68.9,13.8,67.8,12.7,67.8,11.4
		L67.8,11.4z M65.9,11.4c0,2.4,1.9,4.3,4.3,4.3c2.4,0,4.3-1.9,4.3-4.3c0-2.4-1.9-4.3-4.3-4.3C67.8,7.1,65.9,9,65.9,11.4L65.9,11.4z
		 M57.1,15.5c0,0.1,0.1,0.2,0.2,0.2h0.2c0.1,0,0.2-0.1,0.2-0.1l2.2-4.9h0l2.2,4.9c0,0.1,0.1,0.1,0.2,0.1h0.2c0.1,0,0.2-0.1,0.2-0.2
		L65,7.5c0-0.2,0-0.3-0.2-0.3h-1.4c-0.1,0-0.2,0.1-0.2,0.2l-1,4.1h0l-1.9-4.2c0-0.1-0.1-0.1-0.2-0.1h-0.2c-0.1,0-0.2,0.1-0.2,0.1
		l-1.9,4.2h0l-1-4.1c0-0.1-0.1-0.2-0.2-0.2H55c-0.2,0-0.3,0.1-0.2,0.3L57.1,15.5L57.1,15.5z"/>
</g>
</svg>
