<?xml version="1.0" encoding="utf-8"?>
<!-- Generator: Adobe Illustrator 21.0.2, SVG Export Plug-In . SVG Version: 6.00 Build 0)  -->
<svg version="1.1" id="Layer_1" xmlns="http://www.w3.org/2000/svg" xmlns:xlink="http://www.w3.org/1999/xlink" x="0px" y="0px"
	 viewBox="0 0 132.6 81.8" style="enable-background:new 0 0 132.6 81.8;" xml:space="preserve">
<style type="text/css">
	.st0{fill:#B2B1B2;}
	.st1{clip-path:url(#SVGID_2_);fill:#B2B1B2;}
</style>
<polygon class="st0" points="5.4,4.8 5.4,10.6 0,10.6 0,11.7 5.4,11.7 5.4,17.7 6.7,17.7 6.7,11.7 12,11.7 12,10.6 6.7,10.6 
	6.7,4.8 "/>
<g>
	<defs>
		<rect id="SVGID_1_" x="0" width="132.6" height="81.8"/>
	</defs>
	<clipPath id="SVGID_2_">
		<use xlink:href="#SVGID_1_"  style="overflow:visible;"/>
	</clipPath>
	<path class="st1" d="M37.8,65.2v7h4.8c2.2,0,3.7-1.5,3.7-3.5c0-2.1-1.5-3.5-3.7-3.5H37.8 M48.8,81.5h-2.7l-4.6-7.3h-3.7v7.3h-2.3
		V63.1h7.4c3.4,0,5.8,2.1,5.8,5.5c0,3.3-2.3,5.1-4.8,5.3L48.8,81.5"/>
	<path class="st1" d="M60.5,81.8c-4.9,0-7.5-2.9-7.5-7.4V63.1h2.3v11.2c0,3.3,1.8,5.5,5.2,5.5c3.4,0,5.2-2.1,5.2-5.5V63.1H68v11.2
		C68,78.9,65.5,81.8,60.5,81.8"/>
	<path class="st1" d="M79.1,81.8c-3.2,0-5.5-1.2-7-2.9l1.4-1.8c1.2,1.4,3.2,2.6,5.7,2.6c3.3,0,4.3-1.8,4.3-3.2
		c0-4.7-10.9-2.1-10.9-8.6c0-3,2.7-5.1,6.3-5.1c2.8,0,4.9,1,6.5,2.6L84,67.1c-1.4-1.5-3.3-2.2-5.3-2.2c-2.2,0-3.8,1.2-3.8,2.9
		c0,4.1,10.9,1.8,10.9,8.6C85.8,79.1,84,81.8,79.1,81.8"/>
	<polygon class="st1" points="96.7,81.5 94.4,81.5 94.4,65.2 88.6,65.2 88.6,63.1 102.5,63.1 102.5,65.2 96.7,65.2 	"/>
	<polygon class="st1" points="29.8,55.3 17.8,55.3 17.8,37 29.8,37 29.8,39 20,39 20,45 29.6,45 29.6,47 20,47 20,53.3 29.8,53.3 	
		"/>
	<polygon class="st1" points="49.4,55.3 47.2,55.3 36.5,40.7 36.5,55.3 34.2,55.3 34.2,37 36.5,37 47.1,51.3 47.1,37 49.4,37 	"/>
	<polygon class="st1" points="66.5,55.3 54.5,55.3 54.5,37 66.5,37 66.5,39 56.8,39 56.8,45 66.3,45 66.3,47 56.8,47 56.8,53.3 
		66.5,53.3 	"/>
	<path class="st1" d="M73.2,39v7H78c2.2,0,3.7-1.5,3.7-3.5c0-2.1-1.5-3.5-3.7-3.5H73.2 M84.2,55.3h-2.7l-4.6-7.3h-3.7v7.3h-2.3V37
		h7.4c3.4,0,5.8,2.1,5.8,5.5c0,3.3-2.3,5.1-4.8,5.3L84.2,55.3"/>
	<path class="st1" d="M97.2,55.7c-5.2,0-9.4-3.8-9.4-9.5c0-5.7,4.2-9.5,9.4-9.5c3.3,0,5.5,1.4,7.1,3.4l-1.8,1.2
		c-1.2-1.5-3.1-2.5-5.3-2.5c-4,0-7.1,3-7.1,7.4c0,4.3,3,7.4,7.1,7.4c2.2,0,4-1,4.9-2v-3.7h-6.3v-2h8.6v6.6
		C102.6,54.4,100.1,55.7,97.2,55.7"/>
	<polygon class="st1" points="116.2,55.3 114,55.3 114,47.6 106.7,37 109.4,37 115.1,45.5 120.8,37 123.4,37 116.2,47.6 	"/>
	<path class="st1" d="M27.2,29.8c-5.3,0-9.4-3.8-9.4-9.5c0-5.6,4.1-9.5,9.4-9.5c3.2,0,5.5,1.5,7,3.6l-1.9,1.1c-1-1.6-3-2.7-5.1-2.7
		c-4,0-7.1,3-7.1,7.4c0,4.3,3,7.4,7.1,7.4c2.1,0,4-1.1,5.1-2.7l1.9,1C32.6,28.3,30.4,29.8,27.2,29.8"/>
	<polygon class="st1" points="48.4,29.5 37.6,29.5 37.6,11.2 39.9,11.2 39.9,27.5 48.4,27.5 	"/>
	<polygon class="st1" points="64.3,29.5 52.3,29.5 52.3,11.2 64.3,11.2 64.3,13.2 54.5,13.2 54.5,19.1 64.1,19.1 64.1,21.2 
		54.5,21.2 54.5,27.5 64.3,27.5 	"/>
	<path class="st1" d="M75.6,13.5l-3.9,9.9h7.8L75.6,13.5z M84.4,29.5h-2.6l-1.6-4.1H71l-1.6,4.1h-2.6l7.4-18.3H77L84.4,29.5"/>
	<polygon class="st1" points="102.8,29.5 100.6,29.5 89.9,14.9 89.9,29.5 87.6,29.5 87.6,11.2 89.9,11.2 100.5,25.5 100.5,11.2 
		102.8,11.2 	"/>
	<polygon class="st1" points="17.8,63.1 17.8,65.2 23.6,65.2 23.6,81.5 25.8,81.5 25.8,65.2 31.7,65.2 31.7,63.1 	"/>
</g>
</svg>
