<?xml version="1.0" encoding="utf-8"?>
<!-- Generator: Adobe Illustrator 21.0.2, SVG Export Plug-In . SVG Version: 6.00 Build 0)  -->
<svg version="1.1" id="Layer_2" xmlns="http://www.w3.org/2000/svg" xmlns:xlink="http://www.w3.org/1999/xlink" x="0px" y="0px"
	 viewBox="0 0 5602.9 2221.8" style="enable-background:new 0 0 5602.9 2221.8;" xml:space="preserve">
<style type="text/css">
	.st0{fill:none;stroke:#FFFFFF;stroke-width:49;stroke-miterlimit:10;}
	.st1{fill:#FFFFFF;}
	.st2{fill:#FFFFFF;stroke:#FFFFFF;stroke-miterlimit:10;}
	.st3{fill:none;stroke:#FFFFFF;stroke-width:24;stroke-miterlimit:10;}
	.st4{fill:none;stroke:#FFFFFF;stroke-width:25;stroke-miterlimit:10;}
</style>
<g id="Fire">
	<circle class="st0" cx="5125.4" cy="497.6" r="302.9"/>
	<g>
		<g>
			<g>
				<path class="st1" d="M5101.2,662.2c-20.3-5.6-34.7-16.2-47.8-31.8c-2.1-2.5,0.9,1.2-0.3-0.3c-0.5-0.6-0.9-1.3-1.4-1.9
					c-1-1.4-2-2.8-3-4.2c-0.8-1.2-1.5-2.5-2.2-3.7c-0.5-0.9-0.9-1.8-1.3-2.7c-1.1-2.4,0.4,1.2-0.5-1.2c-3.9-10.1-6.7-20.6-9-31.1
					c-2.5-11.5-4.4-23.1-5.3-34.8c-0.4-5.5-0.7-11-0.6-16.5c0-2.4,0.2-4.7,0.3-7.1c0.1-1.4,0.2-2.8,0.4-4.1c0,0.1,0.5-4,0.3-2.2
					c0.7-4.7,1.7-9.3,3-13.9c0.7-2.4,1.5-4.8,2.3-7.1c1.1-3,1-2.7,2.1-5c1.9-4,4-7.9,6.4-11.6c2.8-4.4,4.9-7.2,7.5-10.3
					c14.9-17.6,32.3-29.5,51.9-41.4c-5.9-4.5-11.8-9-17.6-13.6c-2.5,17.4-0.5,38.8,19.4,44.8c9.5,2.9,19.8,0.9,29.1-1.8
					c9.7-2.8,18.8-7.8,26-15.1c14.1-14.3,21.4-35.5,23.7-55.1c2.3-20.1-2.9-40.4-13.1-57.8c-11.7-20.1-29-36.4-46.9-50.9
					c-1.8,6.7-3.5,13.4-5.3,20.1c-2.1,0.3,0.5,0,1-0.1c1,0,2-0.1,3-0.1c1.6,0,3.2,0.1,4.7,0.2c2.4,0.2,0.9,0.1,0.4,0
					c1,0.2,2,0.4,2.9,0.6c2.2,0.5,4.3,1.1,6.4,1.8c0.7,0.2,4.3,1.7,2.9,1c1.9,0.8,3.8,1.8,5.7,2.8c3.4,1.9,6.8,4,10,6.2
					c5.9,4.2,12.4,10,18.3,15.8c5.8,5.8,11.2,11.9,16.4,18.2c9.2,11.1,17.5,22.5,27,35.1c10.4,13.9,19.8,29.2,25,44.6
					c5.8,17,7.6,32.8,7.9,50.6c0.4,20.4,0.1,41.1-2.6,61.4c-2.6,19.9-8,39.6-17.9,57.1c-8.2,14.4-18.1,25.5-31.5,36.6
					c-30,25-73.4,40.4-111.6,24c-6-2.6-12.9-1.8-16.4,4.3c-3,5.1-1.7,13.8,4.3,16.4c21.4,9.2,43.7,12,66.8,8.2
					c20.3-3.3,39.9-12,56.9-23.3c16.2-10.7,30.6-23.9,42.4-39.3c13.3-17.4,22-38.2,26.9-59.4c5.1-22.4,6.5-45.5,6.7-68.5
					c0.2-20.9-0.3-41.9-5.2-62.3c-8.9-36.9-32.8-65.9-55.3-94.4c-24.2-30.8-58.5-67.2-101.5-60.6c-8.6,1.3-11.9,14.7-5.3,20.1
					c12.8,10.4,26.3,22.4,35.8,35c9.2,12.3,16.2,26.4,17.4,40.2c1.4,16-2.5,31.6-9.8,44.7c-0.8,1.4-1.6,2.9-2.5,4.2
					c-0.4,0.7-2.6,3.5-1.7,2.5c-1,1.3-2.1,2.4-3.3,3.6c-1.7,1.7-2.1,2.1-3.2,2.9c-6.2,4.4-12.8,6.5-20.9,7.8
					c-2.1,0.4,1.5-0.1-0.6,0.1c-1.1,0.1-2.3,0.1-3.4,0.1c-0.4,0-2.7-0.2-1,0c1.7,0.2-0.9-0.2-1.3-0.3c-0.6-0.1-1.2-0.4-1.7-0.6
					c3.5,1.2-0.3,0.1-0.2-0.3c-0.1,0.7,1.9,1.3,0.5,0.3c-0.8-0.6-1.6-2.5-0.3-0.1c0,0-1-1.3-0.9-1.5c-0.5-1-0.5-1-0.1-0.2
					c0.4,0.9,0.3,0.8-0.1-0.3c-0.2-0.9-1-5.3-0.8-2.7c-0.2-1.7-0.2-3.4-0.2-5.1c0-1,0.1-2,0.1-3.1c0-0.3,0.4-3.7,0.2-2.1
					c0.7-4.9-0.1-9.5-4.3-12.6c-3.8-2.8-9.1-3.5-13.3-0.9c-37.4,22.8-73.5,52.3-83,97.3c-5.3,25.2-2.6,51,2.2,76
					c3.8,20.1,8.7,41.5,21.2,58.1c15.8,21.1,37.1,36.5,62.7,43.5C5109.7,689.4,5116.1,666.3,5101.2,662.2L5101.2,662.2z"/>
			</g>
		</g>
		<g>
			<g>
				<path class="st1" d="M5109.2,638.1c69.8,2.8,112.8-70.3,111.5-133c-0.4-18.4-4.5-36.3-12.6-52.8c-5.6-11.3-21.8-5-22.4,6.1
					c0,1-0.1,2-0.2,3c-0.2,2.3,0.4-1.5-0.1,0.8c-0.5,2.4-1,4.7-1.8,7.1c-0.3,1-0.7,2-1,3c-0.2,0.7-1.2,3-0.4,1.1
					c-1,2.2-2,4.3-3.2,6.4c-5.1,9.2-9.1,14.1-17.1,21.4c-0.8,0.8-1.7,1.5-2.6,2.2c-0.4,0.3-2.5,2-1.9,1.5c0.7-0.5-1.5,1.1-1.9,1.4
					c-1.1,0.7-2.1,1.4-3.2,2.1c-2,1.2-4,2.4-6.1,3.5c-0.9,0.5-1.9,0.9-2.9,1.4c-1.3,0.6,0.3-0.1,0.5-0.2c-0.6,0.3-1.3,0.5-1.9,0.7
					c-1.9,0.7-3.8,1.3-5.8,1.7c-1.1,0.3-2.3,0.5-3.4,0.7c-1.4,0.3,0.7-0.1,0.8-0.1c-0.6,0.1-1.3,0.1-1.9,0.2c-1.9,0.1-3.8,0-5.7,0
					c-2.3,0,1.7,0.5-0.5-0.1c-1.1-0.3-2.1-0.4-3.2-0.7c-0.5-0.2-3.8-1.4-2.5-0.8c1.3,0.6-1.5-0.8-2-1.1c-1-0.6-1.9-1.2-2.9-1.9
					c-1.1-0.8,0.3,0.2,0.4,0.3c-0.5-0.5-1-0.9-1.6-1.4c-0.9-0.9-1.8-1.8-2.6-2.7c-0.4-0.4-0.7-0.8-1.1-1.3c1.3,1.5-0.3-0.5-0.5-0.8
					c-1.8-2.7-3.3-5.4-4.7-8.3c-3.3-6.8-14-7.9-18.8-2.4c-23,25.7-25.5,60.1-17.4,92.3c2.7,10.6,8.2,21,14.3,30.1
					c6,8.9,15.7,21.9,28.1,20.6c6.4-0.7,12-5,12-12c0-6-5.5-12.7-12-12c-2.7,0.3,1.2,0.4,0.5,0.2c2.6,0.8-0.1,0.6,0-0.1
					c-0.1,0.4-3.1-2.9-0.2-0.1c-0.7-0.6-1.4-1.2-2-1.9c-1-1-1.8-2-2.7-3c-1.6-1.9,0.9,1.3-0.8-1c-1.4-1.9-2.7-3.8-3.9-5.8
					c-2.6-4.2-5-8.6-7.1-13.1c-0.3-0.6-0.6-1.3-0.9-1.9c0.5,1.3,0.6,1.4,0.1,0.1c-0.3-0.8-0.6-1.7-0.9-2.5c-0.5-1.5-0.9-3-1.3-4.5
					c-5.7-23.3-5.7-49.3,11.4-68.4c-6.3-0.8-12.6-1.6-18.8-2.4c5.2,10.8,13.4,20.9,24.5,26.1c10.7,5,22.5,5.6,33.9,2.9
					c22.9-5.5,42.8-23.3,55-42.9c7-11.3,11.6-24.1,12.2-37.4c-7.5,2-14.9,4-22.4,6.1c0.4,0.8,0.8,1.7,1.2,2.5
					c0.2,0.5,1.2,2.7,0.4,0.7c0.6,1.4,1.1,2.7,1.6,4.1c1.3,3.5,2.3,7.1,3.2,10.7c0.8,3.1,1.4,6.2,1.9,9.4c0.1,0.6,0.4,3,0.1,0.7
					c0.1,0.8,0.2,1.5,0.3,2.3c0.2,1.9,0.4,3.8,0.5,5.7c0.4,7.3,0.2,14.6-0.6,21.9c-0.1,0.8-0.2,1.5-0.3,2.3c0.3-2.1,0-0.1,0,0.3
					c-0.3,1.7-0.6,3.5-0.9,5.2c-0.7,3.6-1.5,7.2-2.5,10.8c-0.9,3.4-2,6.7-3.1,10c-0.6,1.6-1.2,3.3-1.8,4.9c-0.2,0.5-1.1,2.8-0.3,0.9
					c-0.5,1.1-0.9,2.1-1.4,3.2c-2.9,6.2-6.2,12.2-10,17.9c-0.9,1.4-1.9,2.8-2.9,4.1c-0.3,0.4-1.8,2.3-0.5,0.7
					c-0.5,0.6-0.9,1.2-1.4,1.7c-2.2,2.7-4.6,5.3-7.1,7.8c-2.3,2.3-4.8,4.5-7.3,6.6c-0.4,0.4-2.3,1.8-0.6,0.5
					c-0.6,0.4-1.2,0.9-1.8,1.3c-1.5,1-3,2-4.5,3c-3.2,2-6.5,3.8-10,5.3c-1.9,0.9,2.6-0.9-0.6,0.3c-0.8,0.3-1.7,0.6-2.5,0.9
					c-1.9,0.7-3.8,1.3-5.7,1.8c-1.8,0.5-3.6,0.9-5.4,1.3c-0.7,0.1-1.5,0.3-2.2,0.4c-2.8,0.6,1.4-0.1-1.2,0.2
					c-4.2,0.4-8.4,0.6-12.7,0.4c-6.5-0.3-12,5.7-12,12C5097.2,632.8,5102.7,637.8,5109.2,638.1L5109.2,638.1z"/>
			</g>
		</g>
	</g>
	<g>
		<path class="st1" d="M5025,1149.2v37.1h-21.5v-102.9h58.6v20.7H5025v24.4h34.1v20.7H5025z"/>
		<path class="st1" d="M5098.7,1076.6c7.1,0,12.1,5.4,12.1,12.3s-5,12.1-12.1,12.1c-7,0-12.1-5.3-12.1-12.1
			S5091.8,1076.6,5098.7,1076.6z M5109,1186.2h-20.6v-75.4h20.6V1186.2z"/>
		<path class="st1" d="M5158.2,1119c3.6-5.6,9.4-9.7,17.9-9.7c1.7,0,4.2,0.2,5.9,0.5v22c-2.9-1.4-6.5-2.3-11.1-2.3
			c-7.3,0-12.3,5-12.7,13v43.7h-20.6v-75.4h20.6V1119z"/>
		<path class="st1" d="M5219.1,1155.1c1.8,8.6,9.4,14.2,20,14.2c9.4,0,18.8-2.7,25.6-7.1v19.8c-6.7,3.5-16.3,5.9-27.2,5.9
			c-22.4,0-38.9-15.9-38.9-39.4c0-22.1,15.9-39.2,37.7-39.2s35.3,16.3,35.3,35.9c0,3.2-0.6,7.4-1.2,9.8H5219.1z M5219.1,1139.5h32.5
			c-0.3-7.7-6.8-13-15.6-13C5226.9,1126.4,5220.1,1132.4,5219.1,1139.5z"/>
	</g>
	<g>
		<path class="st1" d="M4882.8,1365.8h19.9c13.3,0,22.6,7.9,22.6,21.5c0,13.5-9.3,21.3-22.6,21.3h-13.6v30.7h-6.3V1365.8z
			 M4902.7,1371.6h-13.6v31.1h13.6c9.1,0,16-4.8,16-15.5C4918.7,1376.7,4911.8,1371.6,4902.7,1371.6z"/>
		<path class="st1" d="M4942.3,1390.1c3.9-2.2,8.9-3.9,14.8-3.9c10.6,0,19.1,5.5,19.1,19v34.1h-6.2v-6.6c-2.8,4.5-8.3,7.7-14.8,7.7
			c-11.2,0-18.7-7.8-18.7-17.5c0-9.8,8.1-17.4,18.8-17.4c6.4,0,12.1,3.6,14.7,7.4v-7.6c0-9.5-6.8-13.3-13.4-13.3
			c-5.3,0-10.1,1.7-14.4,4.5V1390.1z M4956.3,1435.3c7.5,0,13.7-5.5,13.7-12.4c0-6.7-6.5-12.3-13.7-12.3c-7.5,0-13.5,5.6-13.5,12.3
			C4942.8,1429.8,4949.1,1435.3,4956.3,1435.3z"/>
		<path class="st1" d="M5023.4,1396.3c-3.5-2.7-7.5-4.4-12.2-4.4c-6.5,0-10.2,3.4-10.2,8c0,3.4,1.8,5.2,5.5,7.5l10.1,6.1
			c6.9,4.2,8.9,8.5,8.9,13.1c0,8.9-7,13.9-17.3,13.9c-5.6,0-10.4-1.8-13.4-3.5v-7.2c2.9,2.6,7.5,5.2,13.4,5.2
			c6.9,0,10.9-3.5,10.9-8.3c0-3.1-1.6-5.5-6.4-8.3l-10.4-6.4c-5.4-3.2-7.7-7.1-7.7-12c0-7.6,5.6-13.6,16.7-13.6
			c5.1,0,9.2,1.4,12.1,3V1396.3z"/>
		<path class="st1" d="M5069.6,1396.3c-3.5-2.7-7.5-4.4-12.2-4.4c-6.5,0-10.2,3.4-10.2,8c0,3.4,1.8,5.2,5.5,7.5l10.1,6.1
			c6.9,4.2,8.9,8.5,8.9,13.1c0,8.9-7,13.9-17.3,13.9c-5.6,0-10.4-1.8-13.4-3.5v-7.2c2.9,2.6,7.5,5.2,13.4,5.2
			c6.9,0,10.9-3.5,10.9-8.3c0-3.1-1.6-5.5-6.4-8.3l-10.4-6.4c-5.4-3.2-7.7-7.1-7.7-12c0-7.6,5.6-13.6,16.7-13.6
			c5.1,0,9.2,1.4,12.1,3V1396.3z"/>
		<path class="st1" d="M5092.9,1365.6c2.7,0,4.6,2.1,4.6,4.5c0,2.6-1.9,4.5-4.6,4.5c-2.5,0-4.5-1.9-4.5-4.5
			C5088.3,1367.7,5090.4,1365.6,5092.9,1365.6z M5096,1439.3h-6.2v-52h6.2V1439.3z"/>
		<path class="st1" d="M5141.1,1386.2c15.4,0,27,11.8,27,27c0,15.4-11.7,27.1-27,27.1c-15.2,0-27-11.8-27-27.1
			C5114.1,1398,5125.9,1386.2,5141.1,1386.2z M5141.1,1434.3c11.8,0,20.8-9.3,20.8-21.1c0-11.7-9-21-20.8-21
			c-11.7,0-20.7,9.3-20.7,21C5120.5,1425,5129.4,1434.3,5141.1,1434.3z"/>
		<path class="st1" d="M5192.4,1396.4c2.8-6.2,8.4-10.2,16.5-10.2c12.3,0,20.1,8.9,20.1,21.2v31.9h-6.1v-30.8
			c0-9.5-5.7-16.2-15.4-16.2c-9.4,0-15,6.4-15.2,15.6v31.5h-6.2v-52h6.2V1396.4z"/>
		<path class="st1" d="M5251.3,1390.1c3.9-2.2,8.9-3.9,14.8-3.9c10.6,0,19.1,5.5,19.1,19v34.1h-6.2v-6.6c-2.8,4.5-8.3,7.7-14.8,7.7
			c-11.2,0-18.7-7.8-18.7-17.5c0-9.8,8.1-17.4,18.8-17.4c6.4,0,12.1,3.6,14.7,7.4v-7.6c0-9.5-6.8-13.3-13.4-13.3
			c-5.3,0-10.1,1.7-14.4,4.5V1390.1z M5265.4,1435.3c7.5,0,13.7-5.5,13.7-12.4c0-6.7-6.5-12.3-13.7-12.3c-7.5,0-13.5,5.6-13.5,12.3
			C5251.8,1429.8,5258.1,1435.3,5265.4,1435.3z"/>
		<path class="st1" d="M5309.9,1439.3v-46.6h-10.6v-5.4h10.8v-13.5l5.9-1.7v15.2h10.9v5.4h-10.9v46.6H5309.9z"/>
		<path class="st1" d="M5343.6,1415.9c1,10.8,9.3,18.7,20.3,18.7c7.6,0,15-3.8,19.2-7.4v6.9c-4.3,3-11.2,6.2-19.6,6.2
			c-14.9,0-26.4-11.6-26.4-27.1c0-15.2,11.2-27,26.1-27s25.5,11.4,25.5,25.8c0,1.4-0.1,3-0.3,3.9H5343.6z M5343.5,1410.7h39.3
			c-0.1-11.5-8.8-19-19.5-19C5352.4,1391.7,5344.2,1400,5343.5,1410.7z"/>
		<path class="st1" d="M5001.3,1585.9c-5.7,3.7-12.9,5.8-20.5,5.8c-21.5,0-37.8-16.3-37.8-37.8s16.3-37.8,37.8-37.8
			c7.7,0,14.8,2.2,20.5,5.8v7.6c-5.3-4.5-12.5-7.2-20.5-7.2c-17.8,0-31.3,13.8-31.3,31.7c0,17.8,13.4,31.7,31.3,31.7
			c8,0,15.2-2.7,20.5-7.1V1585.9z"/>
		<path class="st1" d="M5026.2,1547.7c2.9-6.2,8.4-10.2,16.5-10.2c12.3,0,20.1,8.9,20.1,21.2v31.9h-6.1v-30.8
			c0-9.5-5.7-16.2-15.4-16.2c-9.4,0-15,6.4-15.2,15.6v31.5h-6.2v-74.6h6.2V1547.7z"/>
		<path class="st1" d="M5085.2,1541.5c3.9-2.2,8.9-3.9,14.8-3.9c10.6,0,19.1,5.5,19.1,19v34.1h-6.2v-6.6c-2.8,4.5-8.3,7.7-14.8,7.7
			c-11.2,0-18.7-7.8-18.7-17.5c0-9.8,8.1-17.4,18.8-17.4c6.4,0,12.1,3.6,14.7,7.4v-7.6c0-9.5-6.8-13.3-13.4-13.3
			c-5.3,0-10.1,1.7-14.4,4.5V1541.5z M5099.2,1586.7c7.5,0,13.7-5.5,13.7-12.4c0-6.7-6.5-12.3-13.7-12.3c-7.5,0-13.5,5.6-13.5,12.3
			C5085.7,1581.2,5092,1586.7,5099.2,1586.7z"/>
		<path class="st1" d="M5146.4,1547.7c2.8-6.2,8.4-10.2,16.5-10.2c12.3,0,20.1,8.9,20.1,21.2v31.9h-6.1v-30.8
			c0-9.5-5.7-16.2-15.4-16.2c-9.4,0-15,6.4-15.2,15.6v31.5h-6.2v-52h6.2V1547.7z"/>
		<path class="st1" d="M5253.7,1538.7v49.3c0,15.7-10.9,26-26.1,26c-8,0-14.9-2.6-18.7-4.9v-6.9c3.9,3,11.2,5.9,18.7,5.9
			c11.5,0,19.9-8.2,19.9-19.6v-10.9c-3.9,7.6-11.5,12.7-21.2,12.7c-14.6,0-25.7-11.4-25.7-26.3c0-14.8,11.1-26.4,25.7-26.4
			c9.7,0,17.3,5.2,21.2,13v-11.9H5253.7z M5227.2,1543.8c-11.6,0-20.1,8.7-20.1,20.1c0,11.6,8.5,20.3,20.1,20.3
			c11.6,0,20.1-8.8,20.1-20.3C5247.4,1552.5,5238.8,1543.8,5227.2,1543.8z"/>
		<path class="st1" d="M5278.4,1567.3c1,10.8,9.3,18.7,20.3,18.7c7.6,0,15-3.8,19.2-7.4v6.9c-4.3,3-11.2,6.2-19.6,6.2
			c-14.9,0-26.4-11.6-26.4-27.1c0-15.2,11.2-27,26.1-27c14.8,0,25.5,11.4,25.5,25.8c0,1.4-0.1,3-0.3,3.9H5278.4z M5278.3,1562.1
			h39.3c-0.1-11.5-8.8-19-19.5-19C5287.1,1543.1,5278.9,1551.4,5278.3,1562.1z"/>
		<path class="st1" d="M4897.1,1742.1v-73.5h38.4v5.8h-32.1v27.8h30v5.8h-30v28.2h32.1v5.8H4897.1z"/>
		<path class="st1" d="M4961.9,1742.1h-6.1v-74.6h6.1V1742.1z"/>
		<path class="st1" d="M4986.6,1718.7c1,10.8,9.3,18.7,20.3,18.7c7.6,0,15-3.8,19.2-7.4v6.9c-4.3,3-11.2,6.2-19.6,6.2
			c-14.9,0-26.4-11.6-26.4-27.1c0-15.2,11.2-27,26.1-27c14.8,0,25.5,11.4,25.5,25.8c0,1.4-0.1,3-0.3,3.9H4986.6z M4986.5,1713.5
			h39.3c-0.1-11.5-8.8-19-19.5-19C4995.4,1694.5,4987.1,1702.8,4986.5,1713.5z"/>
		<path class="st1" d="M5055,1697.7c2.8-5.5,7.9-8.8,14.9-8.8c8,0,14.6,4.1,17.2,11.5c2.4-7.2,8.1-11.5,16.2-11.5
			c10.6,0,18.6,7.2,18.6,19.6v33.5h-6.2v-32.3c0-9.6-5.7-14.7-13.6-14.7c-7.9,0-13.7,5.2-13.7,14.7v32.3h-6.2v-32.3
			c0-9.6-5.7-14.7-13.5-14.7c-7.9,0-13.5,4.9-13.7,14v33.1h-6.2v-52h6.2V1697.7z"/>
		<path class="st1" d="M5145.8,1718.7c1,10.8,9.3,18.7,20.3,18.7c7.6,0,15-3.8,19.2-7.4v6.9c-4.3,3-11.2,6.2-19.6,6.2
			c-14.9,0-26.4-11.6-26.4-27.1c0-15.2,11.2-27,26.1-27c14.8,0,25.5,11.4,25.5,25.8c0,1.4-0.1,3-0.3,3.9H5145.8z M5145.7,1713.5
			h39.3c-0.1-11.5-8.8-19-19.5-19C5154.5,1694.5,5146.3,1702.8,5145.7,1713.5z"/>
		<path class="st1" d="M5214.2,1699.1c2.8-6.2,8.4-10.2,16.5-10.2c12.3,0,20.1,8.9,20.1,21.2v31.9h-6.1v-30.8
			c0-9.5-5.7-16.2-15.4-16.2c-9.4,0-15,6.4-15.2,15.6v31.5h-6.2v-52h6.2V1699.1z"/>
		<path class="st1" d="M5275.3,1742.1v-46.6h-10.6v-5.4h10.8v-13.5l5.9-1.7v15.2h10.9v5.4h-10.9v46.6H5275.3z"/>
		<path class="st1" d="M5308.5,1692.9c3.9-2.2,8.9-3.9,14.8-3.9c10.6,0,19.1,5.5,19.1,19v34.1h-6.2v-6.6c-2.8,4.5-8.3,7.7-14.8,7.7
			c-11.2,0-18.7-7.8-18.7-17.5c0-9.8,8.1-17.4,18.8-17.4c6.4,0,12.1,3.6,14.7,7.4v-7.6c0-9.5-6.8-13.3-13.4-13.3
			c-5.3,0-10.1,1.7-14.4,4.5V1692.9z M5322.6,1738.1c7.5,0,13.7-5.5,13.7-12.4c0-6.7-6.5-12.3-13.7-12.3c-7.5,0-13.5,5.6-13.5,12.3
			C5309,1732.5,5315.3,1738.1,5322.6,1738.1z"/>
		<path class="st1" d="M5369.8,1742.1h-6.1v-74.6h6.1V1742.1z"/>
		<path class="st1" d="M4904.6,1870.4h-31.5l-8.5,23h-7l27.9-73.5h7l27.9,73.5h-7L4904.6,1870.4z M4875.2,1864.5h27.4l-13.6-36.3
			L4875.2,1864.5z"/>
		<path class="st1" d="M4984.2,1841.4v49.3c0,15.7-10.9,26-26.1,26c-8,0-14.9-2.6-18.7-4.9v-6.9c3.9,3,11.2,5.9,18.7,5.9
			c11.5,0,19.9-8.2,19.9-19.6v-10.9c-3.9,7.6-11.5,12.7-21.2,12.7c-14.6,0-25.7-11.4-25.7-26.3c0-14.8,11.1-26.4,25.7-26.4
			c9.7,0,17.3,5.2,21.2,13v-11.9H4984.2z M4957.7,1846.6c-11.6,0-20.1,8.7-20.1,20.1c0,11.6,8.5,20.3,20.1,20.3
			c11.6,0,20.1-8.8,20.1-20.3C4977.8,1855.3,4969.3,1846.6,4957.7,1846.6z"/>
		<path class="st1" d="M5055.7,1841.4v49.3c0,15.7-10.9,26-26.1,26c-8,0-14.9-2.6-18.7-4.9v-6.9c3.9,3,11.2,5.9,18.7,5.9
			c11.5,0,19.9-8.2,19.9-19.6v-10.9c-3.9,7.6-11.5,12.7-21.2,12.7c-14.6,0-25.7-11.4-25.7-26.3c0-14.8,11.1-26.4,25.7-26.4
			c9.7,0,17.3,5.2,21.2,13v-11.9H5055.7z M5029.2,1846.6c-11.6,0-20.1,8.7-20.1,20.1c0,11.6,8.5,20.3,20.1,20.3
			c11.6,0,20.1-8.8,20.1-20.3C5049.3,1855.3,5040.8,1846.6,5029.2,1846.6z"/>
		<path class="st1" d="M5083.7,1849.2c2.4-5.3,7-8.9,13.9-8.9c1.6,0,3.1,0.2,4.7,0.5v6.6c-1.6-0.6-3.8-1.1-5.6-1.1
			c-8.9,0-12.8,6.4-13,15.6v31.5h-6.2v-52h6.2V1849.2z"/>
		<path class="st1" d="M5118,1870.1c1,10.8,9.3,18.7,20.3,18.7c7.6,0,15-3.8,19.2-7.4v6.9c-4.3,3-11.2,6.2-19.6,6.2
			c-14.9,0-26.4-11.6-26.4-27.1c0-15.2,11.2-27,26.1-27s25.5,11.4,25.5,25.8c0,1.4-0.1,3-0.3,3.9H5118z M5117.9,1864.9h39.3
			c-0.1-11.5-8.8-19-19.5-19C5126.7,1845.9,5118.5,1854.2,5117.9,1864.9z"/>
		<path class="st1" d="M5206.3,1850.4c-3.5-2.7-7.5-4.4-12.2-4.4c-6.5,0-10.2,3.4-10.2,8c0,3.4,1.8,5.2,5.5,7.5l10.1,6.1
			c6.9,4.2,8.9,8.5,8.9,13.1c0,8.9-7,13.9-17.3,13.9c-5.6,0-10.4-1.8-13.4-3.5v-7.2c2.9,2.6,7.5,5.2,13.4,5.2
			c6.9,0,10.9-3.5,10.9-8.3c0-3.1-1.6-5.5-6.4-8.3l-10.4-6.4c-5.4-3.2-7.7-7.1-7.7-12c0-7.6,5.6-13.6,16.7-13.6
			c5.1,0,9.2,1.4,12.1,3V1850.4z"/>
		<path class="st1" d="M5252.6,1850.4c-3.5-2.7-7.5-4.4-12.2-4.4c-6.5,0-10.2,3.4-10.2,8c0,3.4,1.8,5.2,5.5,7.5l10.1,6.1
			c6.9,4.2,8.9,8.5,8.9,13.1c0,8.9-7,13.9-17.3,13.9c-5.6,0-10.4-1.8-13.4-3.5v-7.2c2.9,2.6,7.5,5.2,13.4,5.2
			c6.9,0,10.9-3.5,10.9-8.3c0-3.1-1.6-5.5-6.4-8.3l-10.4-6.4c-5.4-3.2-7.7-7.1-7.7-12c0-7.6,5.6-13.6,16.7-13.6
			c5.1,0,9.2,1.4,12.1,3V1850.4z"/>
		<path class="st1" d="M5275.8,1819.8c2.7,0,4.6,2.1,4.6,4.5c0,2.6-1.9,4.5-4.6,4.5c-2.5,0-4.5-1.9-4.5-4.5
			C5271.3,1821.8,5273.4,1819.8,5275.8,1819.8z M5279,1893.4h-6.2v-52h6.2V1893.4z"/>
		<path class="st1" d="M5301.3,1841.4l18,44.6l18.2-44.6h6.5l-21.3,52h-6.6l-21.3-52H5301.3z"/>
		<path class="st1" d="M5360.6,1870.1c1,10.8,9.3,18.7,20.3,18.7c7.6,0,15-3.8,19.2-7.4v6.9c-4.3,3-11.2,6.2-19.6,6.2
			c-14.9,0-26.4-11.6-26.4-27.1c0-15.2,11.2-27,26.1-27c14.8,0,25.5,11.4,25.5,25.8c0,1.4-0.1,3-0.3,3.9H5360.6z M5360.5,1864.9
			h39.3c-0.1-11.5-8.8-19-19.5-19C5369.4,1845.9,5361.2,1854.2,5360.5,1864.9z"/>
		<path class="st1" d="M5052.6,2044.8v-73.5h6.3v67.7h32.1v5.8H5052.6z"/>
		<path class="st1" d="M5109.4,1971.2c2.7,0,4.6,2.1,4.6,4.5c0,2.6-1.9,4.5-4.6,4.5c-2.5,0-4.5-1.9-4.5-4.5
			C5104.8,1973.2,5106.9,1971.2,5109.4,1971.2z M5112.5,2044.8h-6.2v-52h6.2V2044.8z"/>
		<path class="st1" d="M5157.9,1998.2h-14.5v46.6h-6.2v-46.6h-8.5v-5.4h8.5v-8.5c0-9.4,5.7-15.1,14.9-15.1c2.1,0,5.2,0.5,6.6,1v6.5
			c-1.1-0.5-3.7-1.4-6.5-1.4c-5.9,0-8.9,3.5-8.9,9.3v8.3h14.5V1998.2z"/>
		<path class="st1" d="M5173.8,2021.5c1,10.8,9.3,18.7,20.3,18.7c7.6,0,15-3.8,19.2-7.4v6.9c-4.3,3-11.2,6.2-19.6,6.2
			c-14.9,0-26.4-11.6-26.4-27.1c0-15.2,11.2-27,26.1-27s25.5,11.4,25.5,25.8c0,1.4-0.1,3-0.3,3.9H5173.8z M5173.7,2016.3h39.3
			c-0.1-11.5-8.8-19-19.5-19C5182.6,1997.2,5174.4,2005.6,5173.7,2016.3z"/>
	</g>
</g>
<g id="Energy">
	<g>
		<path class="st2" d="M3543.7,408.2c22.3,24.5,47.5,52.2,96.7,52.2c49.2,0,74.4-27.7,96.7-52.2c21.9-24.1,40.9-44.8,80.1-44.8
			c4.4,0,8.6,0.3,12.6,0.8v-22.6c-4-0.4-8.2-0.6-12.6-0.6c-49.2,0-74.4,27.7-96.7,52.2c-21.9,24.1-40.9,44.8-80.1,44.8
			c-39.2,0-58.2-20.8-80.1-44.8c-22.3-24.5-47.5-52.2-96.7-52.2v22.5C3502.8,363.4,3521.7,384.1,3543.7,408.2z"/>
		<path class="st2" d="M3543.7,484.2c22.3,24.5,47.5,52.2,96.7,52.2c49.2,0,74.4-27.7,96.7-52.2c21.9-24.1,40.9-44.8,80.1-44.8
			c4.4,0,8.6,0.3,12.6,0.8v-22.6c-4-0.4-8.2-0.6-12.6-0.6c-49.2,0-74.4,27.7-96.7,52.2c-21.9,24.1-40.9,44.8-80.1,44.8
			c-39.2,0-58.2-20.8-80.1-44.8c-22.3-24.5-47.5-52.2-96.7-52.2v22.5C3502.8,439.4,3521.7,460.1,3543.7,484.2z"/>
		<path class="st2" d="M3829.7,569.5c-4-0.4-8.2-0.6-12.6-0.6c-49.2,0-74.4,27.7-96.7,52.2c-21.9,24.1-40.9,44.8-80.1,44.8
			c-39.2,0-58.2-20.8-80.1-44.8c-22.3-24.5-47.5-52.2-96.7-52.2v22.5c39.2,0,58.2,20.8,80.1,44.8c22.3,24.5,47.5,52.2,96.7,52.2
			c49.2,0,74.4-27.7,96.7-52.2c21.9-24.1,40.9-44.8,80.1-44.8c4.4,0,8.6,0.3,12.6,0.8V569.5z"/>
		<path class="st2" d="M3543.7,560.2c22.3,24.5,47.5,52.2,96.7,52.2c49.2,0,74.4-27.7,96.7-52.2c21.9-24.1,40.9-44.8,80.1-44.8
			c4.4,0,8.6,0.3,12.6,0.8v-22.6c-4-0.4-8.2-0.6-12.6-0.6c-49.2,0-74.4,27.7-96.7,52.2c-21.9,24.1-40.9,44.8-80.1,44.8
			c-39.2,0-58.2-20.8-80.1-44.8c-22.3-24.5-47.5-52.2-96.7-52.2v22.5C3502.8,515.4,3521.7,536.1,3543.7,560.2z"/>
	</g>
	<circle class="st0" cx="3645.1" cy="497.6" r="302.9"/>
	<g>
		<path class="st1" d="M3171.3,1186.2v-102.9h58.6v20.7h-37.1v20h34.1v20.7h-34.1v20.7h37.1v20.7H3171.3z"/>
		<path class="st1" d="M3277.5,1120.4c4.1-6.5,10.4-11.1,19.8-11.1c16.2,0,26.6,12.1,26.6,28.3v48.6h-20.7v-42.8
			c0-8.3-5-13.9-12.9-13.9c-7.6,0-12.4,5-12.9,13v43.7h-20.6v-75.4h20.6V1120.4z"/>
		<path class="st1" d="M3368.2,1155.1c1.8,8.6,9.4,14.2,20,14.2c9.4,0,18.8-2.7,25.6-7.1v19.8c-6.7,3.5-16.3,5.9-27.2,5.9
			c-22.4,0-38.9-15.9-38.9-39.4c0-22.1,15.9-39.2,37.7-39.2c21.8,0,35.3,16.3,35.3,35.9c0,3.2-0.6,7.4-1.2,9.8H3368.2z
			 M3368.2,1139.5h32.5c-0.3-7.7-6.8-13-15.6-13C3376.1,1126.4,3369.3,1132.4,3368.2,1139.5z"/>
		<path class="st1" d="M3464.8,1119c3.6-5.6,9.4-9.7,17.9-9.7c1.7,0,4.2,0.2,5.9,0.5v22c-2.9-1.4-6.5-2.3-11.1-2.3
			c-7.3,0-12.3,5-12.7,13v43.7h-20.6v-75.4h20.6V1119z"/>
		<path class="st1" d="M3584.8,1110.9v66.3c0,27.7-15.7,41.6-41.9,41.6c-10.6,0-20.3-2.9-25.3-5.6v-21.3c6.5,4.2,16.5,7.6,25.4,7.6
			c12.3,0,21.2-7.3,21.2-19.5v-5.3c-5.1,6.5-13.3,11.1-23.8,11.1c-20.7,0-35.4-16.3-35.4-38c0-21.6,14.7-38.3,35.3-38.3
			c10.6,0,18.8,4.5,23.9,11.5v-10H3584.8z M3545,1129.5c-10.1,0-17.9,8.2-17.9,18c0,10,7.7,18,17.9,18c10.4,0,18-8,18-18
			C3563,1137.7,3555.5,1129.5,3545,1129.5z"/>
		<path class="st1" d="M3633.4,1180.5l-27.7-69.6h23.2l15.9,43.6l16.8-43.6h23.3l-44.8,106.4h-23.9L3633.4,1180.5z"/>
		<path class="st1" d="M3733.3,1083.3h23.9l17.4,76l21-63.4l-3.5-12.6h21.6l21,76l17.3-76h23.9l-27.6,102.9h-24.1l-18.2-61.3
			l-21.3,61.3h-24.1L3733.3,1083.3z"/>
		<path class="st1" d="M3895.3,1113.7c5.4-2.3,13.9-4.4,21.8-4.4c20.3,0,32.1,9.7,32.1,31.6v45.3h-20.6v-5.6
			c-3.8,4.4-9.5,7.3-16.8,7.3c-16.8,0-24.8-11.8-24.8-24.5c0-13.5,9.8-24.2,25.1-24.2c6.4,0,12.7,2.3,16.5,5.4v-4.1
			c0-9.1-6.1-12.9-13.9-12.9c-6.7,0-13.8,2.3-19.4,5.6V1113.7z M3917.9,1172.8c5.9,0,10.4-4.1,10.4-9.4c0-5.3-4.5-9.4-10.4-9.4
			c-5.9,0-10.6,4.1-10.6,9.4C3907.3,1168.7,3912,1172.8,3917.9,1172.8z"/>
		<path class="st1" d="M3988.7,1110.9l17.6,49.8l17.7-49.8h21.8l-28.6,75.4h-21.6l-28.5-75.4H3988.7z"/>
		<path class="st1" d="M4080,1155.1c1.8,8.6,9.4,14.2,20,14.2c9.4,0,18.8-2.7,25.6-7.1v19.8c-6.7,3.5-16.3,5.9-27.2,5.9
			c-22.4,0-38.9-15.9-38.9-39.4c0-22.1,15.9-39.2,37.7-39.2c21.8,0,35.3,16.3,35.3,35.9c0,3.2-0.6,7.4-1.2,9.8H4080z M4080,1139.5
			h32.5c-0.3-7.7-6.8-13-15.6-13C4087.9,1126.4,4081.1,1132.4,4080,1139.5z"/>
	</g>
	<g>
		<path class="st1" d="M3470.2,1416.3h-31.5l-8.5,23h-7l27.9-73.5h7l27.9,73.5h-7L3470.2,1416.3z M3440.8,1410.3h27.4l-13.6-36.3
			L3440.8,1410.3z"/>
		<path class="st1" d="M3544.6,1427.1c-3.9,8-11.7,13.3-21.5,13.3c-15.1,0-26.5-11.8-26.5-27.1c0-15.2,11.4-27,26.5-27
			c9.8,0,17.6,5.4,21.5,13.4v-34.9h6.2v74.6h-6.2V1427.1z M3523.8,1392.3c-11.8,0-20.8,9.3-20.8,21c0,11.8,9,21.1,20.8,21.1
			c11.8,0,20.8-9.3,20.8-21.1C3544.6,1401.6,3535.6,1392.3,3523.8,1392.3z"/>
		<path class="st1" d="M3573.5,1390.1c3.9-2.2,8.9-3.9,14.8-3.9c10.6,0,19.1,5.5,19.1,19v34.1h-6.2v-6.6c-2.8,4.5-8.3,7.7-14.8,7.7
			c-11.2,0-18.7-7.8-18.7-17.5c0-9.8,8.1-17.4,18.8-17.4c6.4,0,12.1,3.6,14.7,7.4v-7.6c0-9.5-6.8-13.3-13.4-13.3
			c-5.3,0-10.1,1.7-14.4,4.5V1390.1z M3587.6,1435.3c7.5,0,13.7-5.5,13.7-12.4c0-6.7-6.5-12.3-13.7-12.3c-7.5,0-13.5,5.6-13.5,12.3
			C3574.1,1429.8,3580.4,1435.3,3587.6,1435.3z"/>
		<path class="st1" d="M3634.8,1399.8c3.8-8.2,11.7-13.6,21.6-13.6c15,0,26.3,11.8,26.3,27c0,15.4-11.2,27.1-26.3,27.1
			c-9.9,0-17.8-5.3-21.6-13.3v34.4h-6.2v-74.2h6.2V1399.8z M3655.5,1434.3c11.8,0,20.8-9.3,20.8-21.1c0-11.7-9-21-20.8-21
			c-11.9,0-20.8,9.3-20.8,21C3634.8,1425,3643.6,1434.3,3655.5,1434.3z"/>
		<path class="st1" d="M3703.8,1439.3v-46.6h-10.6v-5.4h10.8v-13.5l5.9-1.7v15.2h10.9v5.4H3710v46.6H3703.8z"/>
		<path class="st1" d="M3739,1365.6c2.7,0,4.6,2.1,4.6,4.5c0,2.6-1.9,4.5-4.6,4.5c-2.5,0-4.5-1.9-4.5-4.5
			C3734.4,1367.7,3736.5,1365.6,3739,1365.6z M3742.1,1439.3h-6.2v-52h6.2V1439.3z"/>
		<path class="st1" d="M3764.4,1387.3l18,44.6l18.2-44.6h6.5l-21.3,52h-6.6l-21.3-52H3764.4z"/>
		<path class="st1" d="M3823.8,1415.9c1,10.8,9.3,18.7,20.3,18.7c7.6,0,15-3.8,19.2-7.4v6.9c-4.3,3-11.2,6.2-19.6,6.2
			c-14.9,0-26.4-11.6-26.4-27.1c0-15.2,11.2-27,26.1-27c14.8,0,25.5,11.4,25.5,25.8c0,1.4-0.1,3-0.3,3.9H3823.8z M3823.7,1410.7
			h39.3c-0.1-11.5-8.8-19-19.5-19C3832.5,1391.7,3824.3,1400,3823.7,1410.7z"/>
		<path class="st1" d="M3367.3,1517.1h19.9c13.3,0,22.6,7.9,22.6,21.5c0,13.5-9.3,21.3-22.6,21.3h-13.6v30.7h-6.3V1517.1z
			 M3387.2,1523h-13.6v31.1h13.6c9.1,0,16-4.8,16-15.5C3403.2,1528.1,3396.3,1523,3387.2,1523z"/>
		<path class="st1" d="M3433.2,1546.4c2.4-5.3,7-8.9,13.9-8.9c1.6,0,3.1,0.2,4.6,0.5v6.6c-1.6-0.6-3.8-1.1-5.6-1.1
			c-8.9,0-12.8,6.4-13,15.6v31.5h-6.2v-52h6.2V1546.4z"/>
		<path class="st1" d="M3488.1,1537.6c15.4,0,27,11.8,27,27c0,15.4-11.7,27.1-27,27.1c-15.2,0-27-11.8-27-27.1
			C3461.1,1549.4,3472.9,1537.6,3488.1,1537.6z M3488.1,1585.7c11.8,0,20.8-9.3,20.8-21.1c0-11.7-9-21-20.8-21
			c-11.7,0-20.7,9.3-20.7,21C3467.5,1576.4,3476.5,1585.7,3488.1,1585.7z"/>
		<path class="st1" d="M3582.9,1538.7v49.3c0,15.7-10.9,26-26.1,26c-8,0-14.9-2.6-18.7-4.9v-6.9c3.9,3,11.2,5.9,18.7,5.9
			c11.5,0,19.9-8.2,19.9-19.6v-10.9c-3.9,7.6-11.5,12.7-21.2,12.7c-14.6,0-25.7-11.4-25.7-26.3c0-14.8,11.1-26.4,25.7-26.4
			c9.7,0,17.3,5.2,21.2,13v-11.9H3582.9z M3556.4,1543.8c-11.6,0-20.1,8.7-20.1,20.1c0,11.6,8.5,20.3,20.1,20.3
			c11.6,0,20.1-8.8,20.1-20.3C3576.5,1552.5,3567.9,1543.8,3556.4,1543.8z"/>
		<path class="st1" d="M3610.9,1546.4c2.4-5.3,7-8.9,13.9-8.9c1.6,0,3.1,0.2,4.6,0.5v6.6c-1.6-0.6-3.8-1.1-5.6-1.1
			c-8.9,0-12.8,6.4-13,15.6v31.5h-6.2v-52h6.2V1546.4z"/>
		<path class="st1" d="M3645.1,1567.3c1,10.8,9.3,18.7,20.3,18.7c7.6,0,15-3.8,19.2-7.4v6.9c-4.3,3-11.2,6.2-19.6,6.2
			c-14.9,0-26.4-11.6-26.4-27.1c0-15.2,11.2-27,26.1-27c14.8,0,25.5,11.4,25.5,25.8c0,1.4-0.1,3-0.3,3.9H3645.1z M3645,1562.1h39.3
			c-0.1-11.5-8.8-19-19.5-19C3653.9,1543.1,3645.7,1551.4,3645,1562.1z"/>
		<path class="st1" d="M3733.5,1547.6c-3.5-2.7-7.5-4.4-12.2-4.4c-6.5,0-10.2,3.4-10.2,8c0,3.4,1.8,5.2,5.5,7.5l10.1,6.1
			c6.9,4.2,8.9,8.5,8.9,13.1c0,8.9-7,13.9-17.3,13.9c-5.6,0-10.4-1.8-13.4-3.5v-7.2c2.9,2.6,7.5,5.2,13.4,5.2
			c6.9,0,10.9-3.5,10.9-8.3c0-3.1-1.6-5.5-6.4-8.3l-10.4-6.4c-5.4-3.2-7.7-7.1-7.7-12c0-7.6,5.6-13.6,16.7-13.6
			c5.1,0,9.2,1.4,12.1,3V1547.6z"/>
		<path class="st1" d="M3779.8,1547.6c-3.5-2.7-7.5-4.4-12.2-4.4c-6.5,0-10.2,3.4-10.2,8c0,3.4,1.8,5.2,5.5,7.5l10.1,6.1
			c6.9,4.2,8.9,8.5,8.9,13.1c0,8.9-7,13.9-17.3,13.9c-5.6,0-10.4-1.8-13.4-3.5v-7.2c2.9,2.6,7.5,5.2,13.4,5.2
			c6.9,0,10.9-3.5,10.9-8.3c0-3.1-1.6-5.5-6.4-8.3l-10.4-6.4c-5.4-3.2-7.7-7.1-7.7-12c0-7.6,5.6-13.6,16.7-13.6
			c5.1,0,9.2,1.4,12.1,3V1547.6z"/>
		<path class="st1" d="M3803,1517c2.7,0,4.6,2.1,4.6,4.5c0,2.6-1.9,4.5-4.6,4.5c-2.5,0-4.5-1.9-4.5-4.5
			C3798.5,1519.1,3800.5,1517,3803,1517z M3806.1,1590.7h-6.2v-52h6.2V1590.7z"/>
		<path class="st1" d="M3828.4,1538.7l18,44.6l18.2-44.6h6.5l-21.3,52h-6.6l-21.3-52H3828.4z"/>
		<path class="st1" d="M3887.8,1567.3c1,10.8,9.3,18.7,20.3,18.7c7.6,0,15-3.8,19.2-7.4v6.9c-4.3,3-11.2,6.2-19.6,6.2
			c-14.9,0-26.4-11.6-26.4-27.1c0-15.2,11.2-27,26.1-27c14.8,0,25.5,11.4,25.5,25.8c0,1.4-0.1,3-0.3,3.9H3887.8z M3887.7,1562.1
			h39.3c-0.1-11.5-8.8-19-19.5-19C3896.5,1543.1,3888.3,1551.4,3887.7,1562.1z"/>
		<path class="st1" d="M3465.6,1679.4c-4.1-3.5-9.6-5.9-16.1-5.9c-8.9,0-14.7,4.8-14.7,12c0,4.5,2.3,7.9,7.4,11.2l14.3,9.2
			c9,5.6,12.1,10.7,12.1,18.2c0,9.9-7.8,19-22.5,19c-7.7,0-13.8-2.5-17.8-4.9v-7.8c3.8,3.2,9.7,6.6,17.7,6.6
			c10.5,0,15.9-6.2,15.9-12.8c0-4.6-2.9-8.8-9-12.7l-14.1-9.1c-7.8-4.9-10.7-10.1-10.7-16.9c0-9,6.3-18.3,21.7-18.3
			c6.8,0,12.1,2.1,15.8,4.4V1679.4z"/>
		<path class="st1" d="M3525,1738.9c-3.9,2.6-9.2,4.2-14.5,4.2c-15.5,0-27.1-11.8-27.1-27.1c0-15.2,11.7-27,27.1-27
			c5.3,0,10.6,1.5,14.5,4v7.1c-3.7-3.1-8.8-5.1-14.5-5.1c-11.7,0-20.8,9.3-20.8,21c0,11.8,9.1,21.1,20.8,21.1c5.6,0,10.8-1.9,14.5-5
			V1738.9z"/>
		<path class="st1" d="M3546.3,1668.4c2.7,0,4.7,2.1,4.7,4.5c0,2.6-1.9,4.5-4.7,4.5c-2.5,0-4.5-1.9-4.5-4.5
			C3541.8,1670.5,3543.8,1668.4,3546.3,1668.4z M3549.4,1742.1h-6.2v-52h6.2V1742.1z"/>
		<path class="st1" d="M3573.9,1718.7c1,10.8,9.3,18.7,20.3,18.7c7.6,0,15-3.8,19.2-7.4v6.9c-4.3,3-11.2,6.2-19.6,6.2
			c-14.9,0-26.4-11.6-26.4-27.1c0-15.2,11.2-27,26.1-27c14.8,0,25.5,11.4,25.5,25.8c0,1.4-0.1,3-0.3,3.9H3573.9z M3573.8,1713.5
			h39.3c-0.1-11.5-8.8-19-19.5-19C3582.6,1694.5,3574.4,1702.8,3573.8,1713.5z"/>
		<path class="st1" d="M3642.3,1699.1c2.8-6.2,8.4-10.2,16.5-10.2c12.3,0,20.1,8.9,20.1,21.2v31.9h-6.1v-30.8
			c0-9.5-5.7-16.2-15.4-16.2c-9.4,0-15,6.4-15.2,15.6v31.5h-6.2v-52h6.2V1699.1z"/>
		<path class="st1" d="M3703.4,1742.1v-46.6h-10.6v-5.4h10.8v-13.5l5.9-1.7v15.2h10.9v5.4h-10.9v46.6H3703.4z"/>
		<path class="st1" d="M3738.6,1668.4c2.7,0,4.6,2.1,4.6,4.5c0,2.6-1.9,4.5-4.6,4.5c-2.5,0-4.5-1.9-4.5-4.5
			C3734,1670.5,3736.1,1668.4,3738.6,1668.4z M3741.7,1742.1h-6.2v-52h6.2V1742.1z"/>
		<path class="st1" d="M3787.1,1695.4h-14.5v46.6h-6.2v-46.6h-8.5v-5.4h8.5v-8.5c0-9.4,5.7-15.1,14.9-15.1c2.1,0,5.2,0.5,6.6,1v6.5
			c-1.1-0.5-3.7-1.4-6.5-1.4c-5.9,0-8.9,3.5-8.9,9.3v8.3h14.5V1695.4z M3804,1668.4c2.7,0,4.7,2.1,4.7,4.5c0,2.6-1.9,4.5-4.7,4.5
			c-2.5,0-4.5-1.9-4.5-4.5C3799.4,1670.5,3801.5,1668.4,3804,1668.4z M3807.1,1742.1h-6.2v-52h6.2V1742.1z"/>
		<path class="st1" d="M3866.7,1738.9c-3.9,2.6-9.2,4.2-14.5,4.2c-15.5,0-27.1-11.8-27.1-27.1c0-15.2,11.7-27,27.1-27
			c5.3,0,10.6,1.5,14.5,4v7.1c-3.7-3.1-8.8-5.1-14.5-5.1c-11.7,0-20.8,9.3-20.8,21c0,11.8,9.1,21.1,20.8,21.1c5.6,0,10.8-1.9,14.5-5
			V1738.9z"/>
		<path class="st1" d="M3554.7,1825.7h-20.5v-5.8h47.1v5.8H3561v67.7h-6.3V1825.7z"/>
		<path class="st1" d="M3592.3,1870.1c1,10.8,9.3,18.7,20.3,18.7c7.6,0,15-3.8,19.2-7.4v6.9c-4.3,3-11.2,6.2-19.6,6.2
			c-14.9,0-26.4-11.6-26.4-27.1c0-15.2,11.2-27,26.1-27c14.8,0,25.5,11.4,25.5,25.8c0,1.4-0.1,3-0.3,3.9H3592.3z M3592.1,1864.9
			h39.3c-0.1-11.5-8.8-19-19.5-19C3601,1845.9,3592.8,1854.2,3592.1,1864.9z"/>
		<path class="st1" d="M3692.6,1890.3c-3.9,2.6-9.2,4.2-14.5,4.2c-15.5,0-27.1-11.8-27.1-27.1c0-15.2,11.7-27,27.1-27
			c5.3,0,10.6,1.5,14.5,4v7.1c-3.7-3.1-8.8-5.1-14.5-5.1c-11.7,0-20.8,9.3-20.8,21c0,11.8,9.1,21.1,20.8,21.1c5.6,0,10.8-1.9,14.5-5
			V1890.3z"/>
		<path class="st1" d="M3717,1850.5c2.9-6.2,8.4-10.2,16.5-10.2c12.3,0,20.1,8.9,20.1,21.2v31.9h-6.1v-30.8
			c0-9.5-5.7-16.2-15.4-16.2c-9.4,0-15,6.4-15.2,15.6v31.5h-6.2v-74.6h6.2V1850.5z"/>
		<path class="st1" d="M3481.5,1987v57.9h-6.3v-65.6l-5-7.2v-0.6h7.8l47.1,62.9v-62.9h6.3v73.5h-6.3L3481.5,1987z"/>
		<path class="st1" d="M3558.2,1971.2c2.7,0,4.6,2.1,4.6,4.5c0,2.6-1.9,4.5-4.6,4.5c-2.5,0-4.5-1.9-4.5-4.5
			C3553.7,1973.2,3555.8,1971.2,3558.2,1971.2z M3561.4,2044.8h-6.2v-52h6.2V2044.8z"/>
		<path class="st1" d="M3589.2,2000.5c2.8-5.5,7.9-8.8,14.9-8.8c8,0,14.6,4.1,17.2,11.5c2.4-7.2,8.1-11.5,16.2-11.5
			c10.6,0,18.6,7.2,18.6,19.6v33.5h-6.2v-32.3c0-9.6-5.7-14.7-13.6-14.7c-7.9,0-13.7,5.2-13.7,14.7v32.3h-6.2v-32.3
			c0-9.6-5.7-14.7-13.5-14.7c-7.9,0-13.5,4.9-13.7,14v33.1h-6.2v-52h6.2V2000.5z"/>
		<path class="st1" d="M3683.2,2044.8h-6.2v-74.6h6.2v34.9c3.8-8,11.7-13.4,21.6-13.4c15,0,26.3,11.8,26.3,27
			c0,15.4-11.2,27.1-26.3,27.1c-9.9,0-17.8-5.3-21.6-13.3V2044.8z M3704,2039.8c11.8,0,20.8-9.3,20.8-21.1c0-11.7-9-21-20.8-21
			c-11.9,0-20.8,9.3-20.8,21C3683.2,2030.5,3692.1,2039.8,3704,2039.8z"/>
		<path class="st1" d="M3755.6,2044.8h-6.1v-74.6h6.1V2044.8z"/>
		<path class="st1" d="M3780.2,2021.5c1,10.8,9.3,18.7,20.3,18.7c7.6,0,15-3.8,19.2-7.4v6.9c-4.3,3-11.2,6.2-19.6,6.2
			c-14.9,0-26.4-11.6-26.4-27.1c0-15.2,11.2-27,26.1-27c14.8,0,25.5,11.4,25.5,25.8c0,1.4-0.1,3-0.3,3.9H3780.2z M3780.1,2016.3
			h39.3c-0.1-11.5-8.8-19-19.5-19C3789,1997.2,3780.8,2005.6,3780.1,2016.3z"/>
	</g>
</g>
<g id="Nautilus">
	<circle class="st0" cx="2100.8" cy="495.3" r="302.9"/>
	<g>
		<path class="st3" d="M2023.8,339.1c-39.8,30.5-94.7,116.3-58.6,209.6c0,0,24.7,95.2,134.1,120.5c106.7,24.6,123.6-39.6,136.5-96
			c0,0,28-27,27.9-48.1c-0.1-18.3-9.6-36.1-9.6-36.1s19.8-41.6,9-57.6c-10.9-16-48.7-28.7-48.7-28.7s9.1-26.7,5.5-31.5
			c-3.6-4.7-37.8-6.1-37.8-6.1s-17.2-38.6-46.6-35.4c0,0-10.5,2.7-21.2,5.9C2114.1,335.6,2063.6,308.7,2023.8,339.1z"/>
		<path class="st3" d="M2002.2,359.8c0,0-51.8,77.4-3,186c48.8,108.5,122.4,127.5,122.4,127.5"/>
		<path class="st3" d="M2114.1,335.6c0,0-107.8,30.2-117.7,136.6c-5.1,55.1,30.8,123.6,30.8,123.6"/>
		<path class="st3" d="M2124.5,332.7c0,0-59.2,39-64.6,148.6c-5.4,109.6,22.2,172.5,60.5,176.3c38.3,3.9,60.8-58.2,60.8-58.2"/>
		<path class="st3" d="M2182,365.1c0,0-38.9,1-70.2,15.6c-25.9,12.1-37.3,24.8-37.3,24.8"/>
		<path class="st3" d="M2219,370.5c-18.9,17-50.2,76-77.4,135.6c-44.8,98.4-49.7,135.8-47.2,138.1c2.4,2.3,24.4-30.5,24.4-30.5"/>
		<path class="st3" d="M2254.1,488.9c0,0-29.3,50.4-65.6,79.7c-44.6,36.1-80.4,53.1-89.9,48.5"/>
		<path class="st3" d="M2235.8,573.2c0,0-27.1,20.6-62.4,27.6c-29.6,5.9-34.4,2.6-34.4,2.6"/>
	</g>
	<g>
		<path class="st1" d="M1839.8,1126.8v59.5h-21.5v-90.1l-7.1-11.4v-1.5h25.4l45.1,65.5v-65.5h21.5v102.9h-21.5L1839.8,1126.8z"/>
		<path class="st1" d="M1936.4,1113.7c5.4-2.3,13.9-4.4,21.8-4.4c20.3,0,32.1,9.7,32.1,31.6v45.3h-20.6v-5.6
			c-3.8,4.4-9.5,7.3-16.8,7.3c-16.8,0-24.8-11.8-24.8-24.5c0-13.5,9.8-24.2,25.1-24.2c6.4,0,12.7,2.3,16.5,5.4v-4.1
			c0-9.1-6.1-12.9-13.9-12.9c-6.7,0-13.8,2.3-19.4,5.6V1113.7z M1958.9,1172.8c5.9,0,10.4-4.1,10.4-9.4c0-5.3-4.5-9.4-10.4-9.4
			c-5.9,0-10.6,4.1-10.6,9.4C1948.4,1168.7,1953,1172.8,1958.9,1172.8z"/>
		<path class="st1" d="M2064,1176.9c-3.8,6.5-10.3,11.1-19.8,11.1c-15.9,0-26.3-12.1-26.3-28.3v-48.7h20.6v42.8
			c0,8.5,4.8,14.1,12.7,14.1c7.6,0,12.4-5.1,12.9-13v-43.9h20.6v75.4H2064V1176.9z"/>
		<path class="st1" d="M2119.4,1186.2v-57.8h-11.5v-17.6h12.7v-16.5l19.4-4.4v20.9h12.7v17.6H2140v57.8H2119.4z"/>
		<path class="st1" d="M2185,1076.6c7.1,0,12.1,5.4,12.1,12.3s-5,12.1-12.1,12.1c-7,0-12.1-5.3-12.1-12.1S2178,1076.6,2185,1076.6z
			 M2195.3,1186.2h-20.6v-75.4h20.6V1186.2z"/>
		<path class="st1" d="M2244.6,1186.2h-20.7v-104.5h20.7V1186.2z"/>
		<path class="st1" d="M2319.1,1176.9c-3.8,6.5-10.3,11.1-19.8,11.1c-15.9,0-26.3-12.1-26.3-28.3v-48.7h20.6v42.8
			c0,8.5,4.8,14.1,12.7,14.1c7.6,0,12.4-5.1,12.9-13v-43.9h20.6v75.4h-20.6V1176.9z"/>
		<path class="st1" d="M2410.7,1132.2c-4.7-2.9-11.4-5-16.5-5s-7.4,2.6-7.4,5.4c0,2.4,1.5,3.6,4.4,5.4l10.9,6.4
			c9.1,5.4,12.4,12.6,12.4,20.4c0,13-9.7,23-27.7,23c-6.8,0-14.4-1.5-19.7-3.8v-20.6c3.5,3,12.1,6.7,18.2,6.7c5.3,0,7.9-2.4,7.9-5.6
			c0-2.4-1.4-4.4-5-6.5l-11.8-6.8c-7.9-4.5-10.9-12-10.9-19.4c0-13.3,10.3-22.6,28-22.6c5.6,0,12.4,1.1,17.3,2.6V1132.2z"/>
	</g>
	<g>
		<path class="st1" d="M1880.9,1365.8h19.9c13.3,0,22.6,7.9,22.6,21.5c0,13.5-9.3,21.3-22.6,21.3h-13.6v30.7h-6.3V1365.8z
			 M1900.7,1371.6h-13.6v31.1h13.6c9.1,0,16-4.8,16-15.5C1916.8,1376.7,1909.8,1371.6,1900.7,1371.6z"/>
		<path class="st1" d="M1946.7,1395.1c2.4-5.3,7-8.9,13.9-8.9c1.6,0,3.1,0.2,4.7,0.5v6.6c-1.6-0.6-3.8-1.1-5.6-1.1
			c-8.9,0-12.8,6.4-13,15.6v31.5h-6.2v-52h6.2V1395.1z"/>
		<path class="st1" d="M1980.8,1390.1c3.9-2.2,8.9-3.9,14.8-3.9c10.6,0,19.1,5.5,19.1,19v34.1h-6.2v-6.6c-2.8,4.5-8.3,7.7-14.8,7.7
			c-11.2,0-18.7-7.8-18.7-17.5c0-9.8,8.1-17.4,18.8-17.4c6.4,0,12.1,3.6,14.7,7.4v-7.6c0-9.5-6.8-13.3-13.4-13.3
			c-5.3,0-10.1,1.7-14.4,4.5V1390.1z M1994.8,1435.3c7.5,0,13.7-5.5,13.7-12.4c0-6.7-6.5-12.3-13.7-12.3c-7.5,0-13.5,5.6-13.5,12.3
			C1981.3,1429.8,1987.6,1435.3,1994.8,1435.3z"/>
		<path class="st1" d="M2085.4,1387.3v49.3c0,15.7-10.9,26-26.1,26c-8,0-14.9-2.6-18.7-4.9v-6.9c3.9,3,11.2,5.9,18.7,5.9
			c11.5,0,19.9-8.2,19.9-19.6v-10.9c-3.9,7.6-11.5,12.7-21.2,12.7c-14.6,0-25.7-11.4-25.7-26.3c0-14.8,11.1-26.4,25.7-26.4
			c9.7,0,17.3,5.2,21.2,13v-11.9H2085.4z M2058.9,1392.5c-11.6,0-20.1,8.7-20.1,20.1c0,11.6,8.5,20.3,20.1,20.3
			c11.6,0,20.1-8.8,20.1-20.3C2079.1,1401.1,2070.5,1392.5,2058.9,1392.5z"/>
		<path class="st1" d="M2113.4,1395c2.8-5.5,7.9-8.8,14.9-8.8c8,0,14.6,4.1,17.2,11.5c2.4-7.2,8.1-11.5,16.2-11.5
			c10.6,0,18.6,7.2,18.6,19.6v33.5h-6.2V1407c0-9.6-5.7-14.7-13.6-14.7c-7.9,0-13.7,5.2-13.7,14.7v32.3h-6.2V1407
			c0-9.6-5.7-14.7-13.5-14.7c-7.9,0-13.5,4.9-13.7,14v33.1h-6.2v-52h6.2V1395z"/>
		<path class="st1" d="M2202.5,1390.1c3.9-2.2,8.9-3.9,14.8-3.9c10.6,0,19.1,5.5,19.1,19v34.1h-6.2v-6.6c-2.8,4.5-8.3,7.7-14.8,7.7
			c-11.2,0-18.7-7.8-18.7-17.5c0-9.8,8.1-17.4,18.8-17.4c6.4,0,12.1,3.6,14.7,7.4v-7.6c0-9.5-6.8-13.3-13.4-13.3
			c-5.3,0-10.1,1.7-14.4,4.5V1390.1z M2216.6,1435.3c7.5,0,13.7-5.5,13.7-12.4c0-6.7-6.5-12.3-13.7-12.3c-7.5,0-13.5,5.6-13.5,12.3
			C2203.1,1429.8,2209.3,1435.3,2216.6,1435.3z"/>
		<path class="st1" d="M2261.1,1439.3v-46.6h-10.6v-5.4h10.8v-13.5l5.9-1.7v15.2h10.9v5.4h-10.9v46.6H2261.1z"/>
		<path class="st1" d="M2296.3,1365.6c2.7,0,4.6,2.1,4.6,4.5c0,2.6-1.9,4.5-4.6,4.5c-2.5,0-4.5-1.9-4.5-4.5
			C2291.7,1367.7,2293.8,1365.6,2296.3,1365.6z M2299.4,1439.3h-6.2v-52h6.2V1439.3z"/>
		<path class="st1" d="M2359.1,1436.2c-3.9,2.6-9.2,4.2-14.5,4.2c-15.5,0-27.1-11.8-27.1-27.1c0-15.2,11.7-27,27.1-27
			c5.3,0,10.6,1.5,14.5,4v7.1c-3.7-3.1-8.8-5.1-14.5-5.1c-11.7,0-20.8,9.3-20.8,21c0,11.8,9.1,21.1,20.8,21.1c5.6,0,10.8-1.9,14.5-5
			V1436.2z"/>
		<path class="st1" d="M1996,1517.1v48c0,16.1-9.9,26.6-25.8,26.6c-16,0-26.1-10.5-26.1-26.6v-48h6.3v48.2
			c0,12.1,7.9,20.2,19.9,20.2c11.7,0,19.5-8.1,19.5-20.2v-48.2H1996z"/>
		<path class="st1" d="M2025.1,1547.7c2.8-6.2,8.4-10.2,16.5-10.2c12.3,0,20.1,8.9,20.1,21.2v31.9h-6.1v-30.8
			c0-9.5-5.7-16.2-15.4-16.2c-9.4,0-15,6.4-15.2,15.6v31.5h-6.2v-52h6.2V1547.7z"/>
		<path class="st1" d="M2085.9,1517c2.7,0,4.6,2.1,4.6,4.5c0,2.6-1.9,4.5-4.6,4.5c-2.5,0-4.5-1.9-4.5-4.5
			C2081.3,1519.1,2083.4,1517,2085.9,1517z M2089,1590.7h-6.2v-52h6.2V1590.7z"/>
		<path class="st1" d="M2134.4,1544.1h-14.5v46.6h-6.2v-46.6h-8.5v-5.4h8.5v-8.5c0-9.4,5.7-15.1,14.9-15.1c2.1,0,5.2,0.5,6.6,1v6.5
			c-1.1-0.5-3.7-1.4-6.5-1.4c-5.9,0-8.9,3.5-8.9,9.3v8.3h14.5V1544.1z M2151.3,1517c2.7,0,4.7,2.1,4.7,4.5c0,2.6-1.9,4.5-4.7,4.5
			c-2.5,0-4.5-1.9-4.5-4.5C2146.7,1519.1,2148.8,1517,2151.3,1517z M2154.4,1590.7h-6.2v-52h6.2V1590.7z"/>
		<path class="st1" d="M2178.7,1567.3c1,10.8,9.3,18.7,20.3,18.7c7.6,0,15-3.8,19.2-7.4v6.9c-4.3,3-11.2,6.2-19.6,6.2
			c-14.9,0-26.4-11.6-26.4-27.1c0-15.2,11.2-27,26.1-27c14.8,0,25.5,11.4,25.5,25.8c0,1.4-0.1,3-0.3,3.9H2178.7z M2178.6,1562.1
			h39.3c-0.1-11.5-8.8-19-19.5-19C2187.5,1543.1,2179.3,1551.4,2178.6,1562.1z"/>
		<path class="st1" d="M2285.5,1578.5c-3.9,8-11.7,13.3-21.5,13.3c-15.1,0-26.5-11.8-26.5-27.1c0-15.2,11.4-27,26.5-27
			c9.8,0,17.6,5.4,21.5,13.4v-34.9h6.2v74.6h-6.2V1578.5z M2264.7,1543.6c-11.8,0-20.8,9.3-20.8,21c0,11.8,9,21.1,20.8,21.1
			c11.8,0,20.8-9.3,20.8-21.1C2285.5,1552.9,2276.5,1543.6,2264.7,1543.6z"/>
		<path class="st1" d="M1875.3,1668.5h19.9c13.3,0,22.6,7.9,22.6,21.5c0,13.5-9.3,21.3-22.6,21.3h-13.6v30.7h-6.3V1668.5z
			 M1895.2,1674.4h-13.6v31.1h13.6c9.1,0,16-4.8,16-15.5C1911.2,1679.4,1904.3,1674.4,1895.2,1674.4z"/>
		<path class="st1" d="M1941.1,1697.8c2.4-5.3,7-8.9,13.9-8.9c1.6,0,3.1,0.2,4.6,0.5v6.6c-1.6-0.6-3.8-1.1-5.6-1.1
			c-8.9,0-12.8,6.4-13,15.6v31.5h-6.2v-52h6.2V1697.8z"/>
		<path class="st1" d="M1996.1,1689c15.4,0,27,11.8,27,27c0,15.4-11.7,27.1-27,27.1c-15.2,0-27-11.8-27-27.1
			C1969,1700.7,1980.8,1689,1996.1,1689z M1996.1,1737.1c11.8,0,20.8-9.3,20.8-21.1c0-11.7-9-21-20.8-21c-11.7,0-20.7,9.3-20.7,21
			C1975.4,1727.8,1984.4,1737.1,1996.1,1737.1z"/>
		<path class="st1" d="M2044.2,1742.1v-46.6h-10.6v-5.4h10.8v-13.5l5.9-1.7v15.2h10.9v5.4h-10.9v46.6H2044.2z"/>
		<path class="st1" d="M2077.9,1718.7c1,10.8,9.3,18.7,20.3,18.7c7.6,0,15-3.8,19.2-7.4v6.9c-4.3,3-11.2,6.2-19.6,6.2
			c-14.9,0-26.4-11.6-26.4-27.1c0-15.2,11.2-27,26.1-27c14.8,0,25.5,11.4,25.5,25.8c0,1.4-0.1,3-0.3,3.9H2077.9z M2077.8,1713.5
			h39.3c-0.1-11.5-8.8-19-19.5-19C2086.7,1694.5,2078.5,1702.8,2077.8,1713.5z"/>
		<path class="st1" d="M2178.3,1738.9c-3.9,2.6-9.2,4.2-14.5,4.2c-15.5,0-27.1-11.8-27.1-27.1c0-15.2,11.7-27,27.1-27
			c5.3,0,10.6,1.5,14.5,4v7.1c-3.7-3.1-8.8-5.1-14.5-5.1c-11.7,0-20.8,9.3-20.8,21c0,11.8,9.1,21.1,20.8,21.1c5.6,0,10.8-1.9,14.5-5
			V1738.9z"/>
		<path class="st1" d="M2200.8,1742.1v-46.6h-10.6v-5.4h10.8v-13.5l5.9-1.7v15.2h10.9v5.4h-10.9v46.6H2200.8z"/>
		<path class="st1" d="M2235.9,1668.4c2.7,0,4.6,2.1,4.6,4.5c0,2.6-1.9,4.5-4.6,4.5c-2.5,0-4.5-1.9-4.5-4.5
			C2231.4,1670.5,2233.4,1668.4,2235.9,1668.4z M2239,1742.1h-6.2v-52h6.2V1742.1z"/>
		<path class="st1" d="M2261.3,1690l18,44.6l18.2-44.6h6.5l-21.3,52h-6.6l-21.3-52H2261.3z"/>
		<path class="st1" d="M2320.7,1718.7c1,10.8,9.3,18.7,20.3,18.7c7.6,0,15-3.8,19.2-7.4v6.9c-4.3,3-11.2,6.2-19.6,6.2
			c-14.9,0-26.4-11.6-26.4-27.1c0-15.2,11.2-27,26.1-27c14.8,0,25.5,11.4,25.5,25.8c0,1.4-0.1,3-0.3,3.9H2320.7z M2320.6,1713.5
			h39.3c-0.1-11.5-8.8-19-19.5-19C2329.4,1694.5,2321.2,1702.8,2320.6,1713.5z"/>
		<path class="st1" d="M1996.5,1819.9v48c0,16.1-9.9,26.6-25.8,26.6c-16,0-26.1-10.5-26.1-26.6v-48h6.3v48.2
			c0,12.1,7.9,20.2,19.9,20.2c11.7,0,19.5-8.1,19.5-20.2v-48.2H1996.5z"/>
		<path class="st1" d="M2025.6,1850.5c2.8-6.2,8.4-10.2,16.5-10.2c12.3,0,20.1,8.9,20.1,21.2v31.9h-6.1v-30.8
			c0-9.5-5.7-16.2-15.4-16.2c-9.4,0-15,6.4-15.2,15.6v31.5h-6.2v-52h6.2V1850.5z"/>
		<path class="st1" d="M2086.4,1819.8c2.7,0,4.6,2.1,4.6,4.5c0,2.6-1.9,4.5-4.6,4.5c-2.5,0-4.5-1.9-4.5-4.5
			C2081.8,1821.8,2083.9,1819.8,2086.4,1819.8z M2089.5,1893.4h-6.2v-52h6.2V1893.4z"/>
		<path class="st1" d="M2155.6,1841.4h6.2v74.2h-6.2v-34.4c-3.9,8-11.7,13.3-21.5,13.3c-15.1,0-26.5-11.8-26.5-27.1
			c0-15.2,11.4-27,26.5-27c9.8,0,17.6,5.4,21.5,13.4V1841.4z M2134.8,1846.4c-11.8,0-20.8,9.3-20.8,21c0,11.8,9,21.1,20.8,21.1
			c11.8,0,20.8-9.3,20.8-21.1C2155.6,1855.7,2146.6,1846.4,2134.8,1846.4z"/>
		<path class="st1" d="M2219.7,1884.5c-2.8,6.1-8.3,10.1-16.5,10.1c-12.3,0-20.1-8.9-20.1-21.2v-31.9h6.2v30.8
			c0,9.5,5.6,16.2,15.2,16.2c9.3,0,14.9-6.3,15.2-15.5v-31.6h6.2v52h-6.2V1884.5z"/>
		<path class="st1" d="M2250.5,1870.1c1,10.8,9.3,18.7,20.3,18.7c7.6,0,15-3.8,19.2-7.4v6.9c-4.3,3-11.2,6.2-19.6,6.2
			c-14.9,0-26.4-11.6-26.4-27.1c0-15.2,11.2-27,26.1-27c14.8,0,25.5,11.4,25.5,25.8c0,1.4-0.1,3-0.3,3.9H2250.5z M2250.4,1864.9
			h39.3c-0.1-11.5-8.8-19-19.5-19C2259.2,1845.9,2251,1854.2,2250.4,1864.9z"/>
		<path class="st1" d="M1844,2021.8h-31.5l-8.5,23h-7l27.9-73.5h7l27.9,73.5h-7L1844,2021.8z M1814.6,2015.8h27.4l-13.6-36.3
			L1814.6,2015.8z"/>
		<path class="st1" d="M1910.2,2035.8c-2.8,6.1-8.3,10.1-16.5,10.1c-12.3,0-20.1-8.9-20.1-21.2v-31.9h6.2v30.8
			c0,9.5,5.6,16.2,15.2,16.2c9.3,0,14.9-6.3,15.2-15.5v-31.6h6.2v52h-6.2V2035.8z"/>
		<path class="st1" d="M1942.4,2044.8v-46.6h-10.6v-5.4h10.8v-13.5l5.9-1.7v15.2h10.9v5.4h-10.9v46.6H1942.4z"/>
		<path class="st1" d="M1980.7,2001.9c2.9-6.2,8.4-10.2,16.5-10.2c12.3,0,20.1,8.9,20.1,21.2v31.9h-6.1V2014
			c0-9.5-5.7-16.2-15.4-16.2c-9.4,0-15,6.4-15.2,15.6v31.5h-6.2v-74.6h6.2V2001.9z"/>
		<path class="st1" d="M2061.9,1991.7c15.4,0,27,11.8,27,27c0,15.4-11.7,27.1-27,27.1c-15.2,0-27-11.8-27-27.1
			C2034.8,2003.5,2046.6,1991.7,2061.9,1991.7z M2061.9,2039.8c11.8,0,20.8-9.3,20.8-21.1c0-11.7-9-21-20.8-21
			c-11.7,0-20.7,9.3-20.7,21C2041.2,2030.5,2050.2,2039.8,2061.9,2039.8z"/>
		<path class="st1" d="M2113.1,2000.6c2.4-5.3,7-8.9,13.9-8.9c1.6,0,3.1,0.2,4.7,0.5v6.6c-1.6-0.6-3.8-1.1-5.6-1.1
			c-8.9,0-12.8,6.4-13,15.6v31.5h-6.2v-52h6.2V2000.6z"/>
		<path class="st1" d="M2150.1,1971.2c2.7,0,4.6,2.1,4.6,4.5c0,2.6-1.9,4.5-4.6,4.5c-2.5,0-4.5-1.9-4.5-4.5
			C2145.6,1973.2,2147.6,1971.2,2150.1,1971.2z M2153.2,2044.8h-6.2v-52h6.2V2044.8z"/>
		<path class="st1" d="M2179.1,2044.8v-46.6h-10.6v-5.4h10.8v-13.5l5.9-1.7v15.2h10.9v5.4h-10.9v46.6H2179.1z"/>
		<path class="st1" d="M2212.3,1995.6c3.9-2.2,8.9-3.9,14.8-3.9c10.6,0,19.1,5.5,19.1,19v34.1h-6.2v-6.6c-2.8,4.5-8.3,7.7-14.8,7.7
			c-11.2,0-18.7-7.8-18.7-17.5c0-9.8,8.1-17.4,18.8-17.4c6.4,0,12.1,3.6,14.7,7.4v-7.6c0-9.5-6.8-13.3-13.4-13.3
			c-5.3,0-10.1,1.7-14.4,4.5V1995.6z M2226.3,2040.8c7.5,0,13.7-5.5,13.7-12.4c0-6.7-6.5-12.3-13.7-12.3c-7.5,0-13.5,5.6-13.5,12.3
			C2212.8,2035.3,2219.1,2040.8,2226.3,2040.8z"/>
		<path class="st1" d="M2270.9,2044.8v-46.6h-10.6v-5.4h10.8v-13.5l5.9-1.7v15.2h10.9v5.4H2277v46.6H2270.9z"/>
		<path class="st1" d="M2306,1971.2c2.7,0,4.6,2.1,4.6,4.5c0,2.6-1.9,4.5-4.6,4.5c-2.5,0-4.5-1.9-4.5-4.5
			C2301.5,1973.2,2303.5,1971.2,2306,1971.2z M2309.2,2044.8h-6.2v-52h6.2V2044.8z"/>
		<path class="st1" d="M2331.4,1992.8l18,44.6l18.2-44.6h6.5l-21.3,52h-6.6l-21.3-52H2331.4z"/>
		<path class="st1" d="M2390.8,2021.5c1,10.8,9.3,18.7,20.3,18.7c7.6,0,15-3.8,19.2-7.4v6.9c-4.3,3-11.2,6.2-19.6,6.2
			c-14.9,0-26.4-11.6-26.4-27.1c0-15.2,11.2-27,26.1-27c14.8,0,25.5,11.4,25.5,25.8c0,1.4-0.1,3-0.3,3.9H2390.8z M2390.7,2016.3
			h39.3c-0.1-11.5-8.8-19-19.5-19C2399.5,1997.2,2391.3,2005.6,2390.7,2016.3z"/>
	</g>
</g>
<g id="Mineral">
	<circle class="st0" cx="585.8" cy="495.2" r="302.9"/>
	<g>
		<path class="st4" d="M508,351.6l-67.9,62.7l-48.3,65.3c0,0,7.8,104.4,11.7,103.1c3.9-1.3,141,82.2,141,82.2L716.8,627l17-116.2
			L698.6,426l53.5-57.4L664.6,315L508,351.6z"/>
		<polyline class="st4" points="508,351.6 586.3,426 752.1,368.6 		"/>
		<polyline class="st4" points="547.1,654.4 565.4,553.9 731.2,516.1 		"/>
		<polyline class="st4" points="698.6,426 565.4,470.4 586.3,426 		"/>
		<path class="st4" d="M403.5,582.6c0,0,152.7-112.3,161.9-112.3"/>
		<line class="st4" x1="565.4" y1="553.9" x2="493.6" y2="521.3"/>
		<line class="st4" x1="560.2" y1="467.8" x2="440.1" y2="414.3"/>
	</g>
	<g>
		<path class="st1" d="M365,1186.2l-23.9-64.2v64.2h-21.5v-102.9h26.3l28.6,75.5l28.5-75.5h26.2v102.9h-21.5v-64.2l-23.9,64.2H365z"
			/>
		<path class="st1" d="M470.8,1076.6c7.1,0,12.1,5.4,12.1,12.3s-5,12.1-12.1,12.1c-7,0-12.1-5.3-12.1-12.1
			S463.8,1076.6,470.8,1076.6z M481.1,1186.2h-20.6v-75.4h20.6V1186.2z"/>
		<path class="st1" d="M530.3,1120.4c4.1-6.5,10.4-11.1,19.8-11.1c16.2,0,26.6,12.1,26.6,28.3v48.6H556v-42.8
			c0-8.3-5-13.9-12.9-13.9c-7.6,0-12.4,5-12.9,13v43.7h-20.6v-75.4h20.6V1120.4z"/>
		<path class="st1" d="M620.9,1155.1c1.8,8.6,9.4,14.2,20,14.2c9.4,0,18.8-2.7,25.6-7.1v19.8c-6.7,3.5-16.3,5.9-27.2,5.9
			c-22.4,0-38.9-15.9-38.9-39.4c0-22.1,15.9-39.2,37.7-39.2c21.8,0,35.3,16.3,35.3,35.9c0,3.2-0.6,7.4-1.2,9.8H620.9z M620.9,1139.5
			h32.5c-0.3-7.7-6.8-13-15.6-13C628.8,1126.4,622,1132.4,620.9,1139.5z"/>
		<path class="st1" d="M717.5,1119c3.6-5.6,9.4-9.7,17.9-9.7c1.7,0,4.2,0.2,5.9,0.5v22c-2.9-1.4-6.5-2.3-11.1-2.3
			c-7.3,0-12.3,5-12.7,13v43.7h-20.6v-75.4h20.6V1119z"/>
		<path class="st1" d="M764.7,1113.7c5.4-2.3,13.9-4.4,21.8-4.4c20.3,0,32.1,9.7,32.1,31.6v45.3h-20.6v-5.6
			c-3.8,4.4-9.5,7.3-16.8,7.3c-16.8,0-24.8-11.8-24.8-24.5c0-13.5,9.8-24.2,25.1-24.2c6.4,0,12.7,2.3,16.5,5.4v-4.1
			c0-9.1-6.1-12.9-13.9-12.9c-6.7,0-13.8,2.3-19.4,5.6V1113.7z M787.3,1172.8c5.9,0,10.4-4.1,10.4-9.4c0-5.3-4.5-9.4-10.4-9.4
			c-5.9,0-10.6,4.1-10.6,9.4C776.7,1168.7,781.4,1172.8,787.3,1172.8z"/>
		<path class="st1" d="M867.2,1186.2h-20.7v-104.5h20.7V1186.2z"/>
	</g>
	<g>
		<path class="st1" d="M371.1,1382.6c-5.1-3.2-12.1-5.7-20.1-5.7c-18.8,0-32.2,13.7-32.2,31.7c0,17.1,12.5,31.7,30.2,31.7
			s29.1-12.4,29.1-28.4c0-1.1,0-3.6-0.2-4.5h-29.6v-5.6H384c0.5,2.3,0.8,5.9,0.8,9.1c0,20-13.8,35.7-36,35.7
			c-21.2,0-36.7-16.7-36.7-37.8c0-21.5,16.2-37.8,38.8-37.8c8.4,0,15.1,2.1,20.1,4.8V1382.6z"/>
		<path class="st1" d="M404.8,1421.9c1,10.8,9.3,18.7,20.3,18.7c7.6,0,15-3.8,19.2-7.4v6.9c-4.3,3-11.2,6.2-19.6,6.2
			c-14.9,0-26.4-11.6-26.4-27.1c0-15.2,11.2-27,26.1-27s25.5,11.4,25.5,25.8c0,1.4-0.1,3-0.3,3.9H404.8z M404.7,1416.8H444
			c-0.1-11.5-8.8-19-19.5-19C413.6,1397.7,405.3,1406,404.7,1416.8z"/>
		<path class="st1" d="M490.6,1392.2c15.4,0,27,11.8,27,27c0,15.4-11.7,27.1-27,27.1c-15.2,0-27-11.8-27-27.1
			C463.5,1404,475.3,1392.2,490.6,1392.2z M490.6,1440.3c11.8,0,20.8-9.3,20.8-21.1c0-11.7-9-21-20.8-21c-11.7,0-20.7,9.3-20.7,21
			C469.9,1431,478.9,1440.3,490.6,1440.3z"/>
		<path class="st1" d="M541.8,1401c2.8-5.5,7.9-8.8,14.9-8.8c8,0,14.6,4.1,17.2,11.5c2.4-7.2,8.1-11.5,16.2-11.5
			c10.6,0,18.6,7.2,18.6,19.6v33.5h-6.2V1413c0-9.6-5.7-14.7-13.6-14.7c-7.9,0-13.7,5.2-13.7,14.7v32.3h-6.2V1413
			c0-9.6-5.7-14.7-13.5-14.7c-7.9,0-13.5,4.9-13.7,14v33.1h-6.2v-52h6.2V1401z"/>
		<path class="st1" d="M632.5,1421.9c1,10.8,9.3,18.7,20.3,18.7c7.6,0,15-3.8,19.2-7.4v6.9c-4.3,3-11.2,6.2-19.6,6.2
			c-14.9,0-26.4-11.6-26.4-27.1c0-15.2,11.2-27,26.1-27c14.8,0,25.5,11.4,25.5,25.8c0,1.4-0.1,3-0.3,3.9H632.5z M632.4,1416.8h39.3
			c-0.1-11.5-8.8-19-19.5-19C641.3,1397.7,633.1,1406,632.4,1416.8z"/>
		<path class="st1" d="M698.4,1445.3v-46.6h-10.6v-5.4h10.8v-13.5l5.9-1.7v15.2h10.9v5.4h-10.9v46.6H698.4z"/>
		<path class="st1" d="M736.7,1401.1c2.4-5.3,7-8.9,13.9-8.9c1.6,0,3.1,0.2,4.7,0.5v6.6c-1.6-0.6-3.8-1.1-5.6-1.1
			c-8.9,0-12.8,6.4-13,15.6v31.5h-6.2v-52h6.2V1401.1z"/>
		<path class="st1" d="M773.6,1371.7c2.7,0,4.6,2.1,4.6,4.5c0,2.6-1.9,4.5-4.6,4.5c-2.5,0-4.5-1.9-4.5-4.5
			C769.1,1373.7,771.1,1371.7,773.6,1371.7z M776.8,1445.3h-6.2v-52h6.2V1445.3z"/>
		<path class="st1" d="M836.5,1442.2c-3.9,2.6-9.2,4.2-14.5,4.2c-15.5,0-27.1-11.8-27.1-27.1c0-15.2,11.7-27,27.1-27
			c5.3,0,10.6,1.5,14.5,4v7.1c-3.7-3.1-8.8-5.1-14.5-5.1c-11.7,0-20.8,9.3-20.8,21c0,11.8,9.1,21.1,20.8,21.1c5.6,0,10.8-1.9,14.5-5
			V1442.2z"/>
		<path class="st1" d="M356.4,1534.1c-4.1-3.5-9.6-5.9-16.1-5.9c-8.9,0-14.7,4.8-14.7,12c0,4.5,2.3,7.9,7.4,11.2l14.3,9.2
			c9,5.6,12.1,10.7,12.1,18.2c0,9.9-7.8,19-22.5,19c-7.7,0-13.8-2.5-17.8-4.9v-7.8c3.8,3.2,9.7,6.6,17.7,6.6
			c10.5,0,15.9-6.2,15.9-12.8c0-4.6-2.9-8.8-9-12.7l-14.1-9.1c-7.8-4.9-10.7-10.1-10.7-16.9c0-9,6.3-18.3,21.7-18.3
			c6.8,0,12.1,2.1,15.8,4.4V1534.1z"/>
		<path class="st1" d="M380.5,1596.7v-46.6h-10.6v-5.4h10.8v-13.5l5.9-1.7v15.2h10.9v5.4h-10.9v46.6H380.5z"/>
		<path class="st1" d="M418.8,1552.5c2.4-5.3,7-8.9,13.9-8.9c1.6,0,3.1,0.2,4.7,0.5v6.6c-1.6-0.6-3.8-1.1-5.6-1.1
			c-8.9,0-12.8,6.4-13,15.6v31.5h-6.2v-52h6.2V1552.5z"/>
		<path class="st1" d="M489,1587.7c-2.8,6.1-8.3,10.1-16.5,10.1c-12.3,0-20.1-8.9-20.1-21.2v-31.9h6.2v30.8
			c0,9.5,5.6,16.2,15.2,16.2c9.3,0,14.9-6.3,15.2-15.5v-31.6h6.2v52H489V1587.7z"/>
		<path class="st1" d="M555.1,1593.5c-3.9,2.6-9.2,4.2-14.5,4.2c-15.5,0-27.1-11.8-27.1-27.1c0-15.2,11.7-27,27.1-27
			c5.3,0,10.6,1.5,14.5,4v7.1c-3.7-3.1-8.8-5.1-14.5-5.1c-11.7,0-20.8,9.3-20.8,21c0,11.8,9.1,21.1,20.8,21.1c5.6,0,10.8-1.9,14.5-5
			V1593.5z"/>
		<path class="st1" d="M577.5,1596.7v-46.6h-10.6v-5.4h10.8v-13.5l5.9-1.7v15.2h10.9v5.4h-10.9v46.6H577.5z"/>
		<path class="st1" d="M645.9,1587.7c-2.8,6.1-8.3,10.1-16.5,10.1c-12.3,0-20.1-8.9-20.1-21.2v-31.9h6.2v30.8
			c0,9.5,5.6,16.2,15.2,16.2c9.3,0,14.9-6.3,15.2-15.5v-31.6h6.2v52h-6.2V1587.7z"/>
		<path class="st1" d="M680,1552.5c2.4-5.3,7-8.9,13.9-8.9c1.6,0,3.1,0.2,4.7,0.5v6.6c-1.6-0.6-3.8-1.1-5.6-1.1
			c-8.9,0-12.8,6.4-13,15.6v31.5h-6.2v-52h6.2V1552.5z"/>
		<path class="st1" d="M714.3,1573.3c1,10.8,9.3,18.7,20.3,18.7c7.6,0,15-3.8,19.2-7.4v6.9c-4.3,3-11.2,6.2-19.6,6.2
			c-14.9,0-26.4-11.6-26.4-27.1c0-15.2,11.2-27,26.1-27s25.5,11.4,25.5,25.8c0,1.4-0.1,3-0.3,3.9H714.3z M714.2,1568.1h39.3
			c-0.1-11.5-8.8-19-19.5-19C723.1,1549.1,714.9,1557.4,714.2,1568.1z"/>
		<path class="st1" d="M821.1,1584.5c-3.9,8-11.7,13.3-21.5,13.3c-15.1,0-26.5-11.8-26.5-27.1c0-15.2,11.4-27,26.5-27
			c9.8,0,17.6,5.4,21.5,13.4v-34.9h6.2v74.6h-6.2V1584.5z M800.3,1549.6c-11.8,0-20.8,9.3-20.8,21c0,11.8,9,21.1,20.8,21.1
			c11.8,0,20.8-9.3,20.8-21.1C821.1,1558.9,812.1,1549.6,800.3,1549.6z"/>
		<path id="S_copy" class="st1" d="M197.6,1684.4c-4.1-3.5-9.6-5.9-16.1-5.9c-8.9,0-14.7,4.8-14.7,12c0,4.5,2.3,7.9,7.4,11.2
			l14.3,9.2c9,5.6,12.1,10.7,12.1,18.2c0,9.9-7.8,19-22.5,19c-7.7,0-13.8-2.5-17.8-4.9v-7.8c3.8,3.2,9.7,6.6,17.7,6.6
			c10.5,0,15.9-6.2,15.9-12.8c0-4.6-2.9-8.8-9-12.7l-14.1-9.1c-7.8-4.9-10.7-10.1-10.7-16.9c0-9,6.3-18.3,21.7-18.3
			c6.8,0,12.1,2.1,15.8,4.4V1684.4z"/>
		<path class="st1" d="M243.6,1695c15.4,0,27,11.8,27,27c0,15.4-11.7,27.1-27,27.1c-15.2,0-27-11.8-27-27.1
			C216.6,1706.8,228.3,1695,243.6,1695z M243.6,1743.1c11.8,0,20.8-9.3,20.8-21.1c0-11.7-9-21-20.8-21c-11.7,0-20.7,9.3-20.7,21
			C222.9,1733.8,231.9,1743.1,243.6,1743.1z"/>
		<path class="st1" d="M294.9,1748.1h-6.1v-74.6h6.1V1748.1z"/>
		<path class="st1" d="M319.8,1674.4c2.7,0,4.6,2.1,4.6,4.5c0,2.6-1.9,4.5-4.6,4.5c-2.5,0-4.5-1.9-4.5-4.5
			C315.3,1676.5,317.3,1674.4,319.8,1674.4z M323,1748.1h-6.2v-52h6.2V1748.1z"/>
		<path class="st1" d="M389,1735.8c-3.9,8-11.7,13.3-21.5,13.3c-15.1,0-26.5-11.8-26.5-27.1c0-15.2,11.4-27,26.5-27
			c9.8,0,17.6,5.4,21.5,13.4v-34.9h6.2v74.6H389V1735.8z M368.3,1701c-11.8,0-20.8,9.3-20.8,21c0,11.8,9,21.1,20.8,21.1
			c11.8,0,20.8-9.3,20.8-21.1C389,1710.3,380,1701,368.3,1701z"/>
		<path class="st1" d="M472.3,1701.5h-14.5v46.6h-6.2v-46.6h-8.5v-5.4h8.5v-8.5c0-9.4,5.7-15.1,14.9-15.1c2.1,0,5.2,0.5,6.6,1v6.5
			c-1.1-0.5-3.7-1.4-6.5-1.4c-5.9,0-8.9,3.5-8.9,9.3v8.3h14.5V1701.5z"/>
		<path class="st1" d="M508.8,1695c15.4,0,27,11.8,27,27c0,15.4-11.7,27.1-27,27.1c-15.2,0-27-11.8-27-27.1
			C481.8,1706.8,493.6,1695,508.8,1695z M508.8,1743.1c11.8,0,20.8-9.3,20.8-21.1c0-11.7-9-21-20.8-21c-11.7,0-20.7,9.3-20.7,21
			C488.2,1733.8,497.1,1743.1,508.8,1743.1z"/>
		<path class="st1" d="M590.1,1739.1c-2.8,6.1-8.3,10.1-16.5,10.1c-12.3,0-20.1-8.9-20.1-21.2v-31.9h6.2v30.8
			c0,9.5,5.6,16.2,15.2,16.2c9.3,0,14.9-6.3,15.2-15.5v-31.6h6.2v52h-6.2V1739.1z"/>
		<path class="st1" d="M624.3,1705.1c2.8-6.2,8.4-10.2,16.5-10.2c12.3,0,20.1,8.9,20.1,21.2v31.9h-6.1v-30.8
			c0-9.5-5.7-16.2-15.4-16.2c-9.4,0-15,6.4-15.2,15.6v31.5h-6.2v-52h6.2V1705.1z"/>
		<path class="st1" d="M726.5,1735.8c-3.9,8-11.7,13.3-21.5,13.3c-15.1,0-26.5-11.8-26.5-27.1c0-15.2,11.4-27,26.5-27
			c9.8,0,17.6,5.4,21.5,13.4v-34.9h6.2v74.6h-6.2V1735.8z M705.7,1701c-11.8,0-20.8,9.3-20.8,21c0,11.8,9,21.1,20.8,21.1
			c11.8,0,20.8-9.3,20.8-21.1C726.5,1710.3,717.5,1701,705.7,1701z"/>
		<path class="st1" d="M755.5,1698.9c3.9-2.2,8.9-3.9,14.8-3.9c10.6,0,19.1,5.5,19.1,19v34.1h-6.2v-6.6c-2.8,4.5-8.3,7.7-14.8,7.7
			c-11.2,0-18.7-7.8-18.7-17.5c0-9.8,8.1-17.4,18.8-17.4c6.4,0,12.1,3.6,14.7,7.4v-7.6c0-9.5-6.8-13.3-13.4-13.3
			c-5.3,0-10.1,1.7-14.4,4.5V1698.9z M769.5,1744.1c7.5,0,13.7-5.5,13.7-12.4c0-6.7-6.5-12.3-13.7-12.3c-7.5,0-13.5,5.6-13.5,12.3
			C756,1738.5,762.3,1744.1,769.5,1744.1z"/>
		<path class="st1" d="M814.1,1748.1v-46.6h-10.6v-5.4h10.8v-13.5l5.9-1.7v15.2h10.9v5.4h-10.9v46.6H814.1z"/>
		<path class="st1" d="M849.2,1674.4c2.7,0,4.6,2.1,4.6,4.5c0,2.6-1.9,4.5-4.6,4.5c-2.5,0-4.5-1.9-4.5-4.5
			C844.7,1676.5,846.7,1674.4,849.2,1674.4z M852.4,1748.1h-6.2v-52h6.2V1748.1z"/>
		<path class="st1" d="M897.4,1695c15.4,0,27,11.8,27,27c0,15.4-11.7,27.1-27,27.1c-15.2,0-27-11.8-27-27.1
			C870.4,1706.8,882.2,1695,897.4,1695z M897.4,1743.1c11.8,0,20.8-9.3,20.8-21.1c0-11.7-9-21-20.8-21c-11.7,0-20.7,9.3-20.7,21
			C876.8,1733.8,885.8,1743.1,897.4,1743.1z"/>
		<path class="st1" d="M948.7,1705.1c2.8-6.2,8.4-10.2,16.5-10.2c12.3,0,20.1,8.9,20.1,21.2v31.9h-6.1v-30.8
			c0-9.5-5.7-16.2-15.4-16.2c-9.4,0-15,6.4-15.2,15.6v31.5h-6.2v-52h6.2V1705.1z"/>
		<path class="st1" d="M174.9,1899.4v-73.5h38.4v5.8h-32.1v27.8h30v5.8h-30v28.2h32.1v5.8H174.9z"/>
		<path class="st1" d="M238.9,1856.5c2.8-6.2,8.4-10.2,16.5-10.2c12.3,0,20.1,8.9,20.1,21.2v31.9h-6.1v-30.8
			c0-9.5-5.7-16.2-15.4-16.2c-9.4,0-15,6.4-15.2,15.6v31.5h-6.2v-52h6.2V1856.5z"/>
		<path class="st1" d="M299.4,1876.1c1,10.8,9.3,18.7,20.3,18.7c7.6,0,15-3.8,19.2-7.4v6.9c-4.3,3-11.2,6.2-19.6,6.2
			c-14.9,0-26.4-11.6-26.4-27.1c0-15.2,11.2-27,26.1-27s25.5,11.4,25.5,25.8c0,1.4-0.1,3-0.3,3.9H299.4z M299.3,1870.9h39.3
			c-0.1-11.5-8.8-19-19.5-19C308.2,1851.9,300,1860.2,299.3,1870.9z"/>
		<path class="st1" d="M367.9,1855.2c2.4-5.3,7-8.9,13.9-8.9c1.6,0,3.1,0.2,4.6,0.5v6.6c-1.6-0.6-3.8-1.1-5.6-1.1
			c-8.9,0-12.8,6.4-13,15.6v31.5h-6.2v-52h6.2V1855.2z"/>
		<path class="st1" d="M449,1847.4v49.3c0,15.7-10.9,26-26.1,26c-8,0-14.9-2.6-18.7-4.9v-6.9c3.9,3,11.2,5.9,18.7,5.9
			c11.5,0,19.9-8.2,19.9-19.6v-10.9c-3.9,7.6-11.5,12.7-21.2,12.7c-14.6,0-25.7-11.4-25.7-26.3c0-14.8,11.1-26.4,25.7-26.4
			c9.7,0,17.3,5.2,21.2,13v-11.9H449z M422.5,1852.6c-11.6,0-20.1,8.7-20.1,20.1c0,11.6,8.5,20.3,20.1,20.3
			c11.6,0,20.1-8.8,20.1-20.3C442.6,1861.3,434.1,1852.6,422.5,1852.6z"/>
		<path class="st1" d="M485.5,1895.4l-20.5-48h7l16.9,40.3l17.3-40.3h7l-32.2,74.2h-7L485.5,1895.4z"/>
		<path class="st1" d="M563.7,1855.2c2.4-5.3,7-8.9,13.9-8.9c1.6,0,3.1,0.2,4.6,0.5v6.6c-1.6-0.6-3.8-1.1-5.6-1.1
			c-8.9,0-12.8,6.4-13,15.6v31.5h-6.2v-52h6.2V1855.2z"/>
		<path class="st1" d="M598,1876.1c1,10.8,9.3,18.7,20.3,18.7c7.6,0,15-3.8,19.2-7.4v6.9c-4.3,3-11.2,6.2-19.6,6.2
			c-14.9,0-26.4-11.6-26.4-27.1c0-15.2,11.2-27,26.1-27s25.5,11.4,25.5,25.8c0,1.4-0.1,3-0.3,3.9H598z M597.9,1870.9h39.3
			c-0.1-11.5-8.8-19-19.5-19C606.7,1851.9,598.5,1860.2,597.9,1870.9z"/>
		<path class="st1" d="M686.3,1856.4c-3.5-2.7-7.5-4.4-12.2-4.4c-6.5,0-10.2,3.4-10.2,8c0,3.4,1.8,5.2,5.5,7.5l10.1,6.1
			c6.9,4.2,8.9,8.5,8.9,13.1c0,8.9-7,13.9-17.3,13.9c-5.6,0-10.4-1.8-13.4-3.5v-7.2c2.9,2.6,7.5,5.2,13.4,5.2
			c6.9,0,10.9-3.5,10.9-8.3c0-3.1-1.6-5.5-6.4-8.3l-10.4-6.4c-5.4-3.2-7.7-7.1-7.7-12c0-7.6,5.6-13.6,16.7-13.6
			c5.1,0,9.2,1.4,12.1,3V1856.4z"/>
		<path class="st1" d="M730,1846.4c15.4,0,27,11.8,27,27c0,15.4-11.7,27.1-27,27.1c-15.2,0-27-11.8-27-27.1
			C703,1858.1,714.8,1846.4,730,1846.4z M730,1894.5c11.8,0,20.8-9.3,20.8-21.1c0-11.7-9-21-20.8-21c-11.7,0-20.7,9.3-20.7,21
			C709.3,1885.2,718.3,1894.5,730,1894.5z"/>
		<path class="st1" d="M811.3,1890.5c-2.8,6.1-8.3,10.1-16.5,10.1c-12.3,0-20.1-8.9-20.1-21.2v-31.9h6.2v30.8
			c0,9.5,5.6,16.2,15.2,16.2c9.3,0,14.9-6.3,15.2-15.5v-31.6h6.2v52h-6.2V1890.5z"/>
		<path class="st1" d="M845.5,1855.2c2.4-5.3,7-8.9,13.9-8.9c1.6,0,3.1,0.2,4.7,0.5v6.6c-1.6-0.6-3.8-1.1-5.6-1.1
			c-8.9,0-12.8,6.4-13,15.6v31.5h-6.2v-52h6.2V1855.2z"/>
		<path class="st1" d="M915,1896.3c-3.9,2.6-9.2,4.2-14.5,4.2c-15.5,0-27.1-11.8-27.1-27.1c0-15.2,11.7-27,27.1-27
			c5.3,0,10.6,1.5,14.5,4v7.1c-3.7-3.1-8.8-5.1-14.5-5.1c-11.7,0-20.8,9.3-20.8,21c0,11.8,9.1,21.1,20.8,21.1c5.6,0,10.8-1.9,14.5-5
			V1896.3z"/>
		<path class="st1" d="M934.9,1876.1c1,10.8,9.3,18.7,20.3,18.7c7.6,0,15-3.8,19.2-7.4v6.9c-4.3,3-11.2,6.2-19.6,6.2
			c-14.9,0-26.4-11.6-26.4-27.1c0-15.2,11.2-27,26.1-27s25.5,11.4,25.5,25.8c0,1.4-0.1,3-0.3,3.9H934.9z M934.8,1870.9h39.3
			c-0.1-11.5-8.8-19-19.5-19C943.7,1851.9,935.4,1860.2,934.8,1870.9z"/>
		<path class="st1" d="M475.8,1988.2c-4.1-3.5-9.6-5.9-16.1-5.9c-8.9,0-14.7,4.8-14.7,12c0,4.5,2.3,7.9,7.4,11.2l14.3,9.2
			c9,5.6,12.1,10.7,12.1,18.2c0,9.9-7.8,19-22.5,19c-7.7,0-13.8-2.5-17.8-4.9v-7.8c3.8,3.2,9.7,6.6,17.7,6.6
			c10.5,0,15.9-6.2,15.9-12.8c0-4.6-2.9-8.8-9-12.7l-14.1-9.1c-7.8-4.9-10.7-10.1-10.7-16.9c0-9,6.3-18.3,21.7-18.3
			c6.8,0,12.1,2.1,15.8,4.4V1988.2z"/>
		<path class="st1" d="M503.1,2007.9c2.9-6.2,8.4-10.2,16.5-10.2c12.3,0,20.1,8.9,20.1,21.2v31.9h-6.1V2020
			c0-9.5-5.7-16.2-15.4-16.2c-9.4,0-15,6.4-15.2,15.6v31.5H497v-74.6h6.2V2007.9z"/>
		<path class="st1" d="M562.1,2001.6c3.9-2.2,8.9-3.9,14.8-3.9c10.6,0,19.1,5.5,19.1,19v34.1h-6.2v-6.6c-2.8,4.5-8.3,7.7-14.8,7.7
			c-11.2,0-18.7-7.8-18.7-17.5c0-9.8,8.1-17.4,18.8-17.4c6.4,0,12.1,3.6,14.7,7.4v-7.6c0-9.5-6.8-13.3-13.4-13.3
			c-5.3,0-10.1,1.7-14.4,4.5V2001.6z M576.1,2046.8c7.5,0,13.7-5.5,13.7-12.4c0-6.7-6.5-12.3-13.7-12.3c-7.5,0-13.5,5.6-13.5,12.3
			C562.6,2041.3,568.9,2046.8,576.1,2046.8z"/>
		<path class="st1" d="M623.3,2006.6c2.4-5.3,7-8.9,13.9-8.9c1.6,0,3.1,0.2,4.7,0.5v6.6c-1.6-0.6-3.8-1.1-5.6-1.1
			c-8.9,0-12.8,6.4-13,15.6v31.5h-6.2v-52h6.2V2006.6z"/>
		<path class="st1" d="M663.4,2011.4c3.8-8.2,11.7-13.6,21.6-13.6c15,0,26.3,11.8,26.3,27c0,15.4-11.2,27.1-26.3,27.1
			c-9.9,0-17.8-5.3-21.6-13.3v34.4h-6.2v-74.2h6.2V2011.4z M684.2,2045.9c11.8,0,20.8-9.3,20.8-21.1c0-11.7-9-21-20.8-21
			c-11.9,0-20.8,9.3-20.8,21C663.4,2036.6,672.3,2045.9,684.2,2045.9z"/>
	</g>
</g>
</svg>
