<?xml version="1.0" encoding="utf-8"?>
<!-- Generator: Adobe Illustrator 21.0.2, SVG Export Plug-In . SVG Version: 6.00 Build 0)  -->
<svg version="1.1" id="Layer_1" xmlns="http://www.w3.org/2000/svg" xmlns:xlink="http://www.w3.org/1999/xlink" x="0px" y="0px"
	 viewBox="0 0 1920 1080" style="enable-background:new 0 0 1920 1080;" xml:space="preserve">
<style type="text/css">
	.st0{fill:#31E8D0;}
	.st1{clip-path:url(#SVGID_2_);fill:#231F20;}
	.st2{clip-path:url(#SVGID_2_);}
	.st3{clip-path:url(#SVGID_4_);fill:#231F20;}
	.st4{clip-path:url(#SVGID_5_);fill:#B2B0B1;}
	.st5{clip-path:url(#SVGID_6_);fill:#B2B0B1;}
	.st6{clip-path:url(#SVGID_7_);fill:#B2B0B1;}
	.st7{clip-path:url(#SVGID_8_);fill:#B2B0B1;}
	.st8{clip-path:url(#SVGID_9_);fill:#B2B0B1;}
	.st9{clip-path:url(#SVGID_10_);fill:#B2B0B1;}
	.st10{clip-path:url(#SVGID_11_);fill:#B2B0B1;}
	.st11{clip-path:url(#SVGID_12_);fill:#B2B0B1;}
	.st12{clip-path:url(#SVGID_13_);fill:#B2B0B1;}
	.st13{clip-path:url(#SVGID_14_);fill:#B2B0B1;}
	.st14{clip-path:url(#SVGID_15_);fill:#B2B0B1;}
	.st15{clip-path:url(#SVGID_16_);fill:#B2B0B1;}
	.st16{clip-path:url(#SVGID_17_);fill:#B2B0B1;}
	.st17{clip-path:url(#SVGID_18_);fill:#B2B0B1;}
	.st18{clip-path:url(#SVGID_19_);fill:#B2B0B1;}
	.st19{clip-path:url(#SVGID_20_);fill:#B2B0B1;}
	.st20{fill:#B2B0B1;}
	.st21{fill:#FFFFFF;}
</style>
<g id="new">
	<rect x="960" class="st0" width="960" height="1080"/>
	<g>
		<defs>
			<rect id="SVGID_1_" x="1290.5" y="258" width="293.5" height="558.9"/>
		</defs>
		<clipPath id="SVGID_2_">
			<use xlink:href="#SVGID_1_"  style="overflow:visible;"/>
		</clipPath>
		<path class="st1" d="M1415.9,684.3h21.1c-0.3-7-3.9-11.2-10.2-11.2C1420.2,673.1,1416.7,678,1415.9,684.3 M1410.2,687.2
			c0-10.2,6.6-18.4,16.6-18.4c10.5,0,16.1,8.1,16.1,19.7h-27.1c0.4,7.1,4.3,12.5,11.3,12.5c5.1,0,8.5-2.4,9.7-7.2h5.4
			c-1.6,7.5-7.1,11.8-15,11.8C1416.4,705.6,1410.2,697.3,1410.2,687.2"/>
		<path class="st1" d="M1469.8,691.7v-6c-1.8,1.2-5,2-8,2.6c-5.5,1-9.9,2-9.9,7.1c0,4.7,3.7,5.7,7.2,5.7
			C1466.5,701.1,1469.8,695.8,1469.8,691.7 M1469.7,699.8L1469.7,699.8c-2.2,2.7-5.8,5.6-11.7,5.6c-6.6,0-11.8-3.1-11.8-9.7
			c0-8.3,6.5-10,15.2-11.3c4.9-0.7,8.4-1.2,8.4-5c0-3.9-2.8-6.2-7.9-6.2c-5.7,0-8.5,2.4-8.7,7.7h-5.3c0.2-6.8,4.7-11.8,13.9-11.8
			c7.4,0,12.9,2.8,12.9,11.1v16.7c0,2.8,0.7,4.4,3.7,3.7h0.2v4c-0.7,0.3-1.6,0.5-3,0.5C1472.1,705,1470.2,703.3,1469.7,699.8"/>
		<path class="st1" d="M1488.2,674.2h0.1c2.5-3.3,6-5.4,11.1-5.4c7.3,0,11.8,4,11.8,11.2v24.6h-5.5v-24.1c0-4.5-3-7.1-7.9-7.1
			c-5.5,0-9.6,3.9-9.6,9.7v21.5h-5.5v-35h5.5V674.2z"/>
		<path class="st1" d="M1387,739.2c-0.4-4.1-3-6.8-6.6-6.8c-4.2,0-6.4,2.6-7.1,6.8H1387z M1362.5,742.8c0-10.4,7.2-18.3,17.8-18.3
			c4.9,0,8.9,1.6,11.8,4.3c4.1,3.8,6.2,9.8,6.1,16.9h-24.9c0.7,4.7,3.2,7.6,7.8,7.6c2.9,0,4.8-1.3,5.8-3.5h10.8
			c-0.7,3.1-2.8,6.1-5.8,8.2c-2.9,2-6.4,3.2-10.8,3.2C1369.5,761.3,1362.5,753.3,1362.5,742.8"/>
		<path class="st1" d="M1401.9,725.6h10.6v4.7h0.2c2.6-3.7,5.9-5.8,10.7-5.8c7.6,0,12.1,5.4,12.1,13.1v22.5h-11v-20.3
			c0-3.7-1.8-6.2-5.4-6.2c-3.7,0-6.1,3-6.1,7.3v19.2h-11V725.6z"/>
		<path class="st1" d="M1463.5,739.2c-0.4-4.1-3-6.8-6.6-6.8c-4.2,0-6.4,2.6-7.1,6.8H1463.5z M1439,742.8c0-10.4,7.2-18.3,17.8-18.3
			c4.9,0,8.9,1.6,11.8,4.3c4.1,3.8,6.2,9.8,6.1,16.9h-24.9c0.7,4.7,3.3,7.6,7.8,7.6c2.9,0,4.8-1.3,5.8-3.5h10.8
			c-0.7,3.1-2.8,6.1-5.8,8.2c-2.9,2-6.4,3.2-10.8,3.2C1446,761.3,1439,753.3,1439,742.8"/>
		<path class="st1" d="M1478.4,725.6h10.6v5.4h0.2c2.4-4.1,5.3-6,9.5-6c1,0,1.7,0.1,2.2,0.3v9.5h-0.3c-6.8-0.9-11.1,2.4-11.1,9.9
			v15.6h-11V725.6z"/>
		<path class="st1" d="M1526.8,741.5c0-4.7-2.4-8.6-7-8.6c-4.1,0-6.8,3.4-6.8,8.7c0,5.2,2.7,8.6,6.8,8.6
			C1524.5,750.2,1526.8,746.4,1526.8,741.5 M1502.9,761.1h10.7c0.6,1.8,2.4,3.4,6.1,3.4c4.7,0,6.6-2.4,6.6-6.6v-3.5h-0.3
			c-2,2.3-4.7,4-8.9,4c-7.8,0-15-5.8-15-16.5c0-10.2,6-17.3,14.6-17.3c4.6,0,7.7,1.8,9.7,4.7h0.1v-3.7h10.6v31.3
			c0,5.2-1.8,9-4.6,11.5c-3,2.7-7.6,3.9-12.7,3.9C1510.2,772.2,1503.9,768.3,1502.9,761.1"/>
		<path class="st1" d="M1543.5,763.1h3.8c3.2,0,4.5-1.3,4.5-3.7c0-1.5-0.7-3.5-2.1-7.2l-10.2-26.7h11.6l4.7,14.8
			c1.1,3.4,2.2,8,2.2,8h0.1c0,0,0.9-4.6,2-8l4.5-14.8h11l-12,35.1c-2.8,8.1-6.1,11-13.1,11h-7.2V763.1z"/>
		<path class="st1" d="M1362.9,780.9h5.1v-11h5.5v11h6.8v4.5h-6.8v22.7c0,2.4,1.3,3.2,3.5,3.2c1.1,0,2.3-0.3,2.9-0.5h0.2v4.7
			c-1.3,0.3-2.8,0.5-4.4,0.5c-4.5,0-7.7-1.8-7.7-6.8v-24h-5.1V780.9z"/>
		<path class="st1" d="M1391.4,786.7h0.1c2.1-3.4,5.8-6.2,10.4-6.2c1,0,1.6,0.1,2.2,0.4v5.3h-0.2c-0.8-0.3-1.4-0.3-2.4-0.3
			c-5.4,0-10.2,4.1-10.2,10.6v19.4h-5.5v-35h5.5V786.7z"/>
		<path class="st1" d="M1431.4,815.9V811h-0.1c-2.5,3.4-5.5,5.6-10.6,5.6c-7.2,0-11.8-4.3-11.8-11.6v-24.2h5.5V805
			c0,4.5,2.9,7.2,7.9,7.2c5.6,0,9.1-4.2,9.1-9.8v-21.5h5.5v35H1431.4z"/>
		<path class="st1" d="M1442.1,804.5h5.6c0.7,6.1,4.8,7.8,10,7.8c5.8,0,8.1-2.5,8.1-5.8c0-3.9-2.7-4.9-9.1-6.3
			c-6.9-1.4-13.1-2.8-13.1-10.5c0-5.8,4.5-9.6,12.6-9.6c8.7,0,12.9,4.1,13.7,11h-5.6c-0.5-4.6-3-6.6-8.3-6.6c-5,0-7,2.2-7,5
			c0,3.8,3.4,4.5,9.4,5.8c7,1.4,12.9,3,12.9,11c0,7-5.8,10.6-13.8,10.6C1448,816.9,1442.6,812.3,1442.1,804.5"/>
		<path class="st1" d="M1473.8,780.9h5.1v-11h5.5v11h6.8v4.5h-6.8v22.7c0,2.4,1.3,3.2,3.5,3.2c1.1,0,2.3-0.3,2.9-0.5h0.2v4.7
			c-1.3,0.3-2.8,0.5-4.4,0.5c-4.5,0-7.7-1.8-7.7-6.8v-24h-5.1V780.9z"/>
		<path class="st1" d="M1570.4,292.5c-0.1,0.7-0.4,1.5-0.7,2.3c-0.6,1.6-1.2,3.3-2,5c-1.2,2.7-2.5,5.4-3.7,8.2
			c0-0.2,0.1-0.4,0.1-0.6c0.1-2.6-0.1-4.5-0.6-6.7c-0.9-4.3-2.7-8.1-4.9-11.6c-2.3-3.4-4.9-6.5-7.9-9.1c-3-2.7-6.2-5-10.1-6.8
			c-2.1-1-4.7-1.6-6.8-1.6c-2.2-0.1-4.1,0-6.1,0.1c-3.9,0.4-7.5,1-11.1,1.7c-7.2,1.4-14.3,3.2-21.1,3.8c-6.9,0.3-14.3,0-21.5-0.1
			l-21.7-0.3l-14.3-0.1c0,0-0.1,0-0.1,0c0.3-0.3,0.7-0.6,1-0.7c0,0,0,0,0,0c0,0,0,0,0,0c0.1-0.1,0.2-0.1,0.2-0.1l0,0
			c4.1-1.4,8.5-2,12.9-2.2l16.4,0.1l20.3,0.2l5.7,0.2c1.9,0,3.7,0.2,5.9,0c4-0.3,7.8-0.8,11.7-1.4l22.6-3.7
			c3.7-0.6,7.5-1.2,11.1-1.5c1.8-0.1,3.6-0.3,5.1-0.2c0.3,0,0.7,0.1,1,0.1c0.1,0,0.4,0.1,0.2,0l0.7,0.2c0.5,0.2,1.1,0.4,1.8,0.7
			c5.4,2.7,10.7,8.1,13.7,13.7c1.5,2.9,2.4,5.9,2.5,8.8C1570.6,291.7,1570.5,292,1570.4,292.5 M1554.5,306.7c0,0.9-0.5,2.6-1,4.2
			c-1.6,4.7-3.5,9.5-5.4,14.3c0.1-1,0.2-2,0.3-3c0.1-2.6-0.3-4.4-0.7-6.4c-0.5-2-1.1-3.9-1.9-5.7c-1.6-3.6-3.6-6.8-5.9-9.8
			c-2.3-3-4.8-5.7-7.6-8.2c-2.8-2.5-5.7-4.8-9.5-6.7c-2.4-1.2-4.5-1.5-6.5-1.7c-2-0.2-3.8-0.2-5.6-0.1c-3.6,0.1-7.1,0.3-10.5,0.6
			c-7,0.5-13.5,1.3-20.1,0.7l-41.3-2.6l-6.6-0.3c0,0,2.4-2.5,3.7-3.3c0.4-0.1,2.2-0.1,3.2,0l13,0.9c14.5,1.1,28.7,2.4,43.6,3.3
			c7.7-0.1,14.8-1.3,22-1.9c3.6-0.3,7.1-0.6,10.4-0.7c1.7,0,3.3,0,4.8,0.3c1.5,0.2,2.4,0.5,3.6,1.1c5.2,2.8,10.5,7.6,13.9,12.8
			c1.7,2.6,3.1,5.4,3.7,8.2C1554.5,304,1554.6,305.6,1554.5,306.7 M1539,321.8c-0.1,2.6-0.8,6-1.6,9.1c-0.8,3.2-1.7,6.5-2.7,9.7
			c-1.9,6.1-3.9,12.3-6,18.5c0.4-1.7,0.8-3.4,1.2-5.1c0.7-3.2,1.4-6.4,1.9-9.7c0.4-3.4,1.1-6.5,0.6-11c-0.7-4.3-2.3-7.6-4.1-10.7
			c-1.8-3.1-3.8-5.9-5.9-8.6c-2.1-2.7-4.4-5.2-6.8-7.6c-2.5-2.4-4.8-4.6-8.1-6.8c-1.2-0.8-1.9-1.1-2.8-1.5c-0.8-0.4-1.7-0.7-2.6-1
			c-1.8-0.6-3.5-1-5.2-1.4c-3.5-0.6-6.9-0.9-10.2-1.1c-3.3-0.1-6.5-0.2-9.6-0.4c-2.9-0.2-6.3-0.8-9.5-1.2
			c-13.1-1.6-26.2-3.4-39.3-5.1c0.5-1.2,1-2.3,1.5-3.1c0.2-0.2,0.3-0.4,0.4-0.6l8.2,1c13.7,1.8,27.3,3.7,40.9,5.7
			c3.3,0.5,7.2,1,10.6,1.1c3.5,0.1,7,0.1,10.5,0.1c3.4,0,6.8,0,10.1,0.1c3.2,0.2,6.7,0.6,8.1,1.4c2.3,1.2,4.9,3.3,7.2,5.4
			c2.3,2.1,4.4,4.5,6.3,7c1.9,2.5,3.6,5.1,4.8,7.8c0.6,1.3,1.1,2.7,1.4,4.1C1538.8,319.3,1539.1,321,1539,321.8 M1532.9,456.1
			c-2.4-2.9-4.8-5.7-7.3-8.5c-4.1-4.7-8.3-9.2-12.4-13.7l-1.5-1.7c-0.4-0.5-1.1-1.2-1.1-1.4c0,0-0.2-0.6-0.3-1.1
			c-0.1-0.6-0.1-1.3-0.2-2c0-0.9,0-1.8,0-2.7c0.2,0.3,0.4,0.7,0.6,1l3.2,3.8l12.4,14.9c2.3,2.8,4.6,5.7,6.9,8.6
			C1533.2,454.2,1533,455.1,1532.9,456.1 M1531.1,462.5c-3.3-3.1-6.6-6.2-10-9.2l-13.4-11.6c-0.3-0.3-0.7-0.6-1-0.9
			c-0.4-0.5-1.4-1.8-1.8-2.9c-0.1-0.4-0.2-0.7-0.3-1.1c-0.3-1.8-0.5-5.2-0.3-5.3c0.2,0,0.3,0.2,0.5,0.7c0,0.2,0.1,0.3,0.2,0.5
			c0,0,0,0.1,0.1,0.2c0,0.1,0,0.1,0.1,0.1c0.1,0.3,0.3,0.7,0.6,1c0.8,1.1,1.3,1.5,1.9,2.1l1.7,1.6l13.3,12.8
			c3.2,3.1,6.4,6.3,9.6,9.5C1531.7,460.9,1531.4,461.7,1531.1,462.5 M1529.8,465.8c-0.3,0.6-0.5,1.2-0.7,1.7c-4-2.9-8-5.7-12.2-8.4
			l-14.5-9.1l-1.7-1.1c-0.4-0.3-0.1-0.1-0.3-0.3c-0.1-0.1-0.2-0.3-0.3-0.5c-0.5-0.9-1-2.2-1.5-3.4c-0.9-2.6-1.6-5.3-2.2-8
			c-2.6-10.9-4.4-22.2-6.2-33.5l-2.7-16.9c-0.5-2.9-0.8-5.4-1.6-8.9c-1.1-3.7-2.6-6.2-4.2-8.9c-3.1-5.2-6.6-9.9-10.1-14.5
			c-1.7-2.3-3.6-4.6-5.4-6.8l-2.8-3.3c-0.9-1.1-2-2.3-2.5-2.9c-1.2-1.8-2.5-4.4-3.8-6.8c-1.3-2.5-2.6-5.1-4.1-7.8
			c-0.8-1.3-1.5-2.7-2.6-4.1c-0.6-0.7-1.1-1.3-2.1-2.2c-0.8-0.7-1.4-1.1-2.1-1.5c-2.7-1.6-5.3-2.9-7.9-4.2c-6.4-3-12.8-5.7-19.4-8.2
			c0.4-0.5,0.9-1.1,1.3-1.6c0,0,0.3-0.4,0.7-1c0.1-0.1,0.2-0.3,0.3-0.4c7.1,2.8,14.2,5.6,21.1,8.9c2.6,1.2,5.2,2.6,7.8,3.9
			c2.5,1.4,5,2.9,6.8,4.4c4.2,3.5,8.1,7.9,12,12.1c7.7,8.6,15.5,17.5,20.8,27.1c1.3,2.4,2.3,4.7,2.7,7c0.4,2.4,0.7,5.4,1,8.2
			c0.5,5.8,0.8,11.7,1.1,17.6c0.8,11.8,1.4,23.7,2.9,35.6c0.4,3,0.8,6,1.6,9.1c0.4,1.6,0.8,3.1,1.7,4.9c0.3,0.5,0.5,0.9,1.1,1.5
			c0.5,0.5,0.6,0.6,1,0.9l1.8,1.4l14.3,10.6c3.8,2.9,7.7,5.8,11.5,8.8C1529.9,465.6,1529.8,465.9,1529.8,465.8 M1527,472.7
			c-4.8-2.5-9.7-5-14.6-7.2l-15.4-6.9l-1.9-0.9c-0.3-0.1-0.7-0.3-0.6-0.3c-0.1-0.1-0.2-0.2-0.4-0.4c-0.7-0.7-1.4-1.8-2-2.9
			c-1.3-2.3-2.4-4.8-3.4-7.3c-4.1-10.2-7.5-21-10.8-31.7l-5.1-16.1c-0.9-2.7-1.7-5.3-2.8-8.2c-1.1-3-2.8-5.9-4.5-8.3
			c-6.8-9.8-14.7-17.8-19.5-26.7c-2.1-4.1-3.3-9.3-4.4-14.8c-0.6-2.8-1.1-5.6-2.3-8.8c-0.6-1.5-1.7-3.7-3.2-5
			c-1.3-1.1-2.5-2-3.7-2.8c-6.4-4.3-13-8-19.7-11.5c0.8-0.8,1.5-1.6,2.3-2.4c0.1-0.1,0.3-0.3,0.4-0.5c6.6,3.3,13.1,6.7,19.4,10.4
			c2.4,1.4,4.8,3,6.8,4.5c0.5,0.4,1,0.8,1.3,1.1c0,0.1,0.4,0.6,0.7,1c0.6,0.9,1.2,2.1,1.8,3.3c1.1,2.4,2.2,5,3.4,7.7
			c1.2,2.7,2.3,5.4,4.2,8.3l10.8,13.7c3.4,4.4,6.8,9,9.6,13.5c1.4,2.2,2.7,4.7,3.3,6.5c0.6,2.1,1.2,5.2,1.7,7.9l3.5,16.8
			c2.5,11.2,5,22.4,8.4,33.6c0.9,2.8,1.8,5.6,2.9,8.4c0.6,1.4,1.2,2.8,2.2,4.3c0.3,0.4,0.5,0.8,0.9,1.2c0.3,0.4,1.2,1,1.4,1.1l2,1.1
			l15.2,8c4.4,2.4,8.9,4.8,13.2,7.3C1527.6,471,1527.3,471.9,1527,472.7 M1525.9,475.7c-0.3,0.6-0.7,1.3-1.1,2
			c-0.3-0.1-0.5-0.2-0.8-0.3c-5.4-1.7-10.9-3.3-16.3-4.8c-5.5-1.5-11-2.9-16.2-4.7l-0.9-0.3c-0.3-0.1-0.7-0.3-0.7-0.3
			c-0.3-0.2-0.8-0.5-1.2-0.9c-0.9-0.8-1.7-1.8-2.6-2.8c-1.6-2.1-3.2-4.4-4.7-6.7c-5.9-9.4-11-19.5-16-29.6l-7.4-15.2
			c-1.1-2.4-2.6-5.4-4.1-7.9c-1.5-2.5-3.2-4.9-4.8-7.3c-3.3-4.7-6.7-9.3-10-13.9c-3.2-4.5-7-9.1-9.3-13.3c-0.7-1.3-1.1-3.6-1.2-6.2
			c-0.1-2.6,0-5.3,0.1-8.1c0.1-2.8,0.3-5.7,0.2-8.7c0-1.5-0.1-3.1-0.4-4.7c-0.3-1.7-0.5-3.3-1.7-5.5c-0.5-0.8-0.4-0.5-0.9-1.3
			l-0.8-0.9l-1.6-1.6l-3.2-3c-2.1-1.9-4.3-3.9-6.5-5.7c-2.2-1.9-4.5-3.6-6.8-5.3c0.9-0.8,1.7-1.6,2.6-2.5
			c6.5,4.2,12.9,8.7,18.8,13.5c1,0.9,2.1,1.8,2.8,2.6c0.5,0.6,0.7,1.1,1,2.2c0.6,2.2,0.9,4.9,1.2,7.7c0.8,5.5,1.3,11.7,4.3,17.7
			c5.5,11.2,14.2,19.2,20.2,27.8c1.5,2.2,2.7,4.2,3.7,6.4c1,2.4,2,5.1,2.9,7.7c2,5.2,3.8,10.6,5.8,15.8c4,10.6,8,21.1,13,31.5
			c1.3,2.6,2.6,5.2,4.2,7.7c0.9,1.3,1.7,2.5,3.1,3.8c0.4,0.3,0.8,0.7,1.3,1c0.7,0.4,1,0.5,1.3,0.6l2,0.8l15.9,5.7
			c5.2,1.9,10.4,3.8,15.4,5.9C1526.3,475.1,1526.1,475.4,1525.9,475.7 M1522.2,482c-0.7-0.2-1.4-0.3-2.1-0.4
			c-5.8-1.1-11.5-1.9-17.2-2.6c-5.7-0.7-11.5-1.4-16.9-2.6c-0.6-0.1-1.4-0.4-1.7-0.5c-0.4-0.2-0.9-0.5-1.4-0.8c-1-0.7-2-1.5-3-2.5
			c-2-1.8-4-3.9-5.9-6c-7.6-8.4-14.5-17.6-21.3-26.8c-6.9-9.2-13.5-18.6-20.2-27.9c-3.3-4.7-6.6-9.4-9.8-14.1l-4.8-7.1l-2.3-3.5
			c-0.7-1.2-1.5-2.4-1.8-3.1c-0.6-1.4-0.8-3.7-0.6-6.2c0.2-2.5,0.7-5.2,1.3-8c1.1-5.5,2.7-11.1,3.1-17.7c0-1.8,0.1-3.3-0.6-5.6
			c-0.2-0.6-0.2-0.5-0.5-1.3c-0.3-0.5-0.5-0.9-0.7-1.3c-0.5-0.7-0.9-1.4-1.4-2c-1.9-2.5-3.8-4.7-5.7-6.9c-3.1-3.5-6.4-6.8-9.8-10
			c1.6-1,3.2-2.1,4.7-3.3c2.3,2,4.5,4.1,6.7,6.3c2,2,3.9,4,5.7,6.1l2.7,3.1l1.3,1.6l0.6,0.7c-0.2-0.2,0.4,0.6,0.2,0.5
			c0.1,0.3,0.4,1.6,0.4,2.7c0,1.2,0,2.5-0.1,3.8c-0.2,2.6-0.6,5.4-0.9,8.3c-0.3,2.8-0.6,5.7-0.7,8.9c0,3.1,0,6.6,1.9,10.4
			c1.6,3,3.2,5.3,4.9,7.8c1.7,2.4,3.3,4.7,5,7c3.4,4.5,6.8,9,10.1,13.6c1.6,2.3,3.2,4.5,4.6,6.8c1.5,2.3,2.7,4.3,4,7
			c2.7,5,5.4,10.1,8.2,15c5.7,9.9,11.5,19.7,18.3,29.1c1.7,2.4,3.5,4.7,5.5,6.9c1,1.1,2.1,2.2,3.4,3.2c0.7,0.5,1.4,1,2.3,1.5
			c0.6,0.2,0.9,0.3,1.2,0.5l1.1,0.3c5.7,1.5,11.3,2.5,16.8,3.6c5.6,1.1,11.2,2,16.7,3.3c0.1,0,0.2,0,0.3,0.1
			C1523.2,480.3,1522.7,481.2,1522.2,482 M1520.7,484.5c-0.1,0.1-0.1,0.1-0.2,0.2c-0.4,0.5-0.9,0.9-1.3,1.4c-1-0.1-2.1-0.2-3.1-0.2
			c-6.1-0.3-12.2-0.1-18.2,0.1c-3,0.1-6,0.2-8.9,0.2c-3,0-5.8-0.1-8.3-0.8c-4.8-1.7-9.7-5.5-14.3-9.1c-9.2-7.4-17.6-15.8-25.9-24.4
			c-4.1-4.3-8.2-8.6-12.2-13.1c-4-4.4-7.9-8.8-11.7-13.4c-3.8-4.6-7.5-9.2-11-13.9c-1.7-2.4-3.4-4.7-4.9-7.2
			c-0.8-1.2-1.5-2.4-2.2-3.6l-1-1.8l-0.3-0.5c-0.1-0.1,0-0.1-0.1-0.1c0,0-0.1-0.1-0.1-0.3c-0.4-1.3,0-4.2,0.6-6.8
			c0.7-2.7,1.5-5.5,2.4-8.3c1.8-5.7,3.9-11.3,5.5-17.4c0.8-3.1,1.5-6.2,1.4-10c-0.1-1-0.1-1.8-0.6-3.2c-0.3-0.8-0.4-0.9-0.6-1.3
			l-0.1-0.1l-0.2-0.3l0-0.1l-0.2-0.2l-0.3-0.5l-2.6-3.7c-3.6-4.9-7.2-9.7-11-14.5c-0.5-0.6-1-1.2-1.5-1.9c1.5-0.9,3-1.8,4.5-2.7
			c3.4,3.9,6.6,7.8,9.7,11.8c1.7,2.3,3.4,4.6,4.8,6.9c0.4,0.6,0.7,1.1,1,1.7c0.3,0.7,0.3,0.6,0.5,1.4c0,0.4,0.1,1.9-0.1,3
			c-0.7,5-2.8,10.5-4.2,16.2c-0.8,2.9-1.5,5.8-1.9,9.1c-0.4,3.2-0.6,6.8,1,10.8c0.8,2,1.7,3.2,2.4,4.5l2.4,3.7
			c1.6,2.5,3.2,4.9,4.8,7.3c3.3,4.8,6.7,9.5,10.1,14.2c13.8,18.7,28.2,36.9,44.8,53.5c2.1,2.1,4.3,4.1,6.7,6c1.2,1,2.4,1.9,3.9,2.7
			c0.7,0.4,1.5,0.8,2.4,1.2c1.1,0.4,1.7,0.4,2.5,0.6c6,0.9,11.8,1.1,17.5,1.4c5.8,0.3,11.5,0.4,17.2,0.9c0.4,0,0.8,0.1,1.2,0.2
			C1521,484.1,1520.8,484.3,1520.7,484.5 M1515.5,490.7c-0.2,0.2-0.3,0.4-0.4,0.6c-0.1,0.1-0.2,0.2-0.3,0.3c-1,0.1-2,0.1-2.9,0.2
			c-6.3,0.6-12.7,1.4-18.9,2.2c-6.1,0.7-12.7,1.6-18.1,0.7c-0.6-0.1-1.3-0.4-1.6-0.5c0,0-0.3-0.2-0.5-0.2l-0.4-0.2l-1-0.6l-4-2.4
			l-8-5c-10.7-6.7-21.1-13.8-31.3-21.1c-5.1-3.7-10.1-7.4-14.7-11.4c-2.4-1.9-4.5-3.9-6.6-6.1c-2.1-2.2-4.2-4.5-6.1-6.8
			c-3.9-4.7-7.6-9.6-11.1-14.7c-1.8-2.6-3.5-5.2-5.2-7.8l-1.3-2l-0.6-1c-0.1-0.3-0.3-0.4-0.4-0.6c-0.4-0.8-0.7-1.7-0.8-2.8
			c-0.5-4.5,1.8-10.4,4.2-15.9c2.1-4.9,4.5-9.8,6.7-15c-1.1,2.8-2.1,5.6-3,8.6c-0.8,3.2-1.8,6.3-1.1,11c0.1,1,1,2.9,1.2,3.2l1.1,2.2
			c0.8,1.4,1.6,2.8,2.4,4.1c1.6,2.7,3.4,5.2,5.2,7.8c3.6,5,7.4,9.8,11.4,14.4c7.9,9.3,16.3,18.1,25.2,26.4
			c8.9,8.3,18.2,16.2,28.2,23.3c2.5,1.8,5.1,3.5,7.8,5c2.7,1.5,5.5,3.1,9,3.9c3.4,0.7,6.6,0.4,9.7,0.3c3.1-0.2,6.1-0.5,9.1-0.9
			c6-0.6,11.9-1.4,17.9-1.7c0.5,0,1,0,1.6,0C1516.8,488.9,1516.1,489.9,1515.5,490.7 M1511.2,496.5c-0.2,0.3-0.3,0.5-0.4,0.8
			c-1.2,0.2-2.5,0.3-3.7,0.5c-6.7,1.1-13.3,2.4-19.9,3.7c-3.3,0.7-6.6,1.4-9.8,1.9c-1.6,0.3-3.3,0.6-4.7,0.7c-1.1,0-2.8-0.3-4.2-0.6
			c-6.1-1.6-12.2-4.4-18.1-7.3c-11.9-5.9-23.4-12.8-35.1-19.4c-5.8-3.3-11.6-6.7-17-10.2c-5.4-3.5-10.2-7.4-14.3-12.2
			c-4.1-4.8-7.8-10.2-11.4-15.8l-5.4-8.4l-1.2-2c-0.2-0.3-0.3-0.6-0.4-1.1c-0.2-0.8-0.3-2-0.1-3.3c0.7-5.3,3.6-11.5,6.5-17.3
			c0.3-0.7,0.7-1.4,1.1-2.1c-0.6,2.3-1,4.9-0.8,7.6c0.1,2.1,0.6,4.3,1.6,6.3c0.2,0.5,0.6,1,0.8,1.4l0.6,1l1.2,2
			c1.7,2.7,3.4,5.4,5.2,8.1c3.6,5.4,7.4,10.7,11.7,15.6c2.1,2.5,4.4,4.9,6.6,7.2c2.3,2.4,4.9,4.7,7.5,6.7
			c5.2,4.1,10.5,7.7,15.8,11.2c10.7,7,21.8,13.3,32.9,19.5l8.4,4.5l4.2,2.2l1.1,0.6l0.6,0.3l0.6,0.3c1.2,0.5,2,0.6,3,0.8
			c3.7,0.4,6.9,0,10.1-0.4c3.2-0.4,6.4-1,9.5-1.6c6.3-1.2,12.4-2.7,18.6-3.9c0.3,0,0.5-0.1,0.8-0.1
			C1512.3,494.6,1511.7,495.5,1511.2,496.5 M1508.5,502.9c-2,0.5-4,1-5.9,1.5l-20.8,5.8c-3.5,0.9-6.9,1.8-10.3,2.4
			c-1.7,0.3-3.5,0.6-4.9,0.6c-1.4,0-3.1-0.3-4.8-0.7c-6.7-1.5-13.5-4-20.2-6.4c-13.4-5-26.5-10.8-39.4-16.8
			c-6.5-3-12.9-6.1-19.1-9.5c-3-1.6-6.2-3.4-8.6-5.2c-2.4-1.9-4.9-4.3-7.2-6.8c-4.6-5.1-8.9-10.7-12.8-16.4c-1.9-2.8-4-6-5.3-8.5
			c-0.2-0.5-0.2-0.5-0.3-0.7c-0.1-0.2-0.1-0.4-0.2-0.6c-0.1-0.5-0.1-1-0.1-1.6c0.1-1.3,0.3-2.7,0.7-4.2c1.5-5.2,4.3-10.6,7.2-15.9
			c-0.2,0.9-0.4,1.9-0.6,2.8c-0.3,2-0.4,4.3,0.2,6.7c0.3,1.2,0.7,2.4,1.4,3.6l1.4,2.3l5.4,8.6c3.7,5.7,7.5,11.5,12.3,16.9
			c4.7,5.4,10.6,10,16.5,13.7c5.9,3.7,12,6.8,17.9,10c12,6.2,24,12.3,36.6,17.7c6.3,2.6,12.6,5.2,19.7,6.6c1.8,0.3,3.5,0.5,5.8,0.4
			c1.9-0.3,3.5-0.7,5.2-1.1c3.3-0.8,6.6-1.7,9.8-2.6c6.5-1.8,12.9-3.7,19.4-5.4c0.8-0.2,1.6-0.4,2.2-0.5
			C1509.3,500.6,1508.9,501.8,1508.5,502.9 M1506.7,508.5c-2.7,0.9-5.3,1.8-8.1,2.8l-21.7,7.6c-3.6,1.2-7.3,2.4-10.9,3.3
			c-0.9,0.2-1.8,0.4-2.6,0.5c-0.7,0.1-1.6,0.1-2.4,0.1c-1.7-0.1-3.6-0.3-5.4-0.6c-7.3-1.2-14.7-3.2-22-5.3
			c-14.6-4.3-29-9.4-43.3-14.7c-7.1-2.7-14.2-5.4-21.2-8.4l-5.2-2.3l-2.5-1.2c-0.8-0.4-1.4-0.7-2.1-1.1c-2.7-1.7-5.4-4-7.8-6.5
			c-4.9-5.2-9.1-11.4-13.1-17.6c-1.9-3.1-3.9-6.6-5.5-9.5c-0.8-1.4-0.5-4.5,0.6-7.6c1.5-4.1,3.7-8.3,6.2-12.5
			c-0.3,1.2-0.5,2.5-0.6,3.9c-0.1,1.2,0,2.4,0.2,3.7c0.1,0.7,0.3,1.3,0.5,2c0.2,0.7,0.6,1.5,0.7,1.8c2,3.9,3.8,6.7,5.9,9.9
			c4.1,6.2,8.6,12,13.7,17.6c2.6,2.8,5.3,5.4,8.5,7.9c3.5,2.5,6.7,4.1,10,5.9c6.6,3.3,13.2,6.2,19.9,9.1c13.4,5.6,27,10.6,40.8,15
			c7,2.2,13.9,4.3,21.3,5.5c1.9,0.3,3.8,0.6,5.9,0.5c2.2-0.2,3.9-0.6,5.7-1.1c3.6-0.9,7.1-2,10.5-3.2c6.9-2.3,13.6-4.9,20.3-7.4
			l4.6-1.6C1507.5,506.1,1507.1,507.3,1506.7,508.5 M1503.4,514.4c-0.3,0.3-0.5,0.6-0.8,0.8c-9.9,4.6-20.8,9.6-36.7,14.8
			c-1.9,0.6-3.8,1.1-5.6,1.5c-2,0.5-3.3,0.7-5.3,0.5c-3.8-0.1-7.7-0.7-11.6-1.3c-7.8-1.3-15.6-3-23.3-4.8
			c-15.5-3.6-30.9-7.9-46.2-12.2c-7.6-2.2-15.3-4.6-22.6-7.1c-1.9-0.6-3.7-1.3-5.4-2c-1.7-0.7-3.6-1.5-4.6-2.2
			c-2.6-1.7-5.5-4.5-8-7.2c-5.1-5.6-9.8-11.8-13.5-18.3c-1.8-3.2-3.4-6.6-3.8-9.5c-0.1-0.4,0.2-2.2,0.7-3.7c0.5-1.6,1.3-3.2,2.1-4.9
			c1.3-2.6,2.8-5.2,4.4-7.8c0,0.1,0,0.2,0,0.3c-0.3,2.4-0.1,5.3,1.2,8.1c2,3.9,3.8,7,5.9,10.5c4.1,6.8,8.7,13.3,14.4,19.2
			c2.9,2.9,6,5.8,9.9,8.1c1,0.6,2,1.1,3,1.5l2.7,1.2c1.8,0.8,3.6,1.5,5.4,2.2c7.3,2.9,14.5,5.4,21.9,7.9
			c14.7,4.9,29.5,9.2,44.5,12.9c7.5,1.8,15.1,3.5,23,4.4c2,0.2,4,0.4,6.1,0.3c1.1,0,2.1-0.1,3.3-0.3c1.1-0.3,2-0.5,3-0.8
			c3.8-1.2,7.4-2.6,11-4.1c9.6-3.8,18.2-7.8,27.3-11.9C1505.1,512.1,1504.3,513.3,1503.4,514.4 M1493.2,522.8
			c-1.9,1.6-4,2.9-6.1,4.1c-1.3,0.8-2.2,1.3-2.6,1.5c-1.4,0.7-2.7,1.4-4.1,2c-2.9,1.4-11.9,5.3-11.9,5.3l0,0c-1.7,0.7-3.4,1.4-5.1,2
			c0,0-0.1,0-0.1,0.1c-2.8,1-5.6,1.8-8.4,2.5c-0.9,0.2-1.9,0.4-2.8,0.5c-0.8,0.1-1.7,0.1-2.7,0.1c-1.9,0-3.8-0.1-5.8-0.2
			c-15.8-1.2-31.6-4.2-47.3-7.2c-7.9-1.5-15.7-3.2-23.5-4.9c-7.8-1.6-15.6-3.4-23.4-5.2l-11.6-2.9c-3.8-1-7.8-2.1-10.9-3.3
			c-2.6-1.1-5.5-3.5-8.2-6c-2.7-2.6-5.2-5.5-7.5-8.5c-2.3-3-4.6-6.2-6.5-9.4c-1.9-3.2-3.6-6.6-4.4-9.7c-0.2-0.7-0.3-1.4-0.3-1.9
			c0,0.1,0-1,0-1c0-0.2,0.1-0.6,0.1-1c0.3-1.5,0.8-3.1,1.5-4.8c1.3-3.1,3.1-6.2,4.9-9.3c-0.1,1-0.2,2.1-0.1,3.4
			c0.7,5,2.7,9,4.7,12.8c4.1,7.5,9.1,14.1,14.9,20.2c2.9,3.1,5.9,6,9.9,8.7c2.4,1.5,4.2,2.1,6.2,2.9c2,0.8,3.9,1.4,5.9,2.1
			c7.8,2.5,15.5,4.6,23.3,6.7c15.6,4.1,31.3,7.4,47.1,10.4c7.9,1.4,15.9,2.8,23.9,3.8c4,0.4,8.1,0.9,12.3,0.8c2.1,0,4.7-0.4,6.5-1.1
			c2-0.6,3.9-1.3,5.8-2c7.6-2.9,14.9-6.3,22-10.1c2.2-1.1,3.8-1.9,5.3-2.6C1494.2,522,1493.7,522.4,1493.2,522.8 M1359.6,369.9
			c0-0.4,0-0.8,0.1-1.2c0.2,2.4,0.4,4.9,0.7,7.3c0.2,1.9,0.5,3.9,0.8,5.8l0.1,0.4c0-0.1,0,0.2,0,0.2c0,0.2,0.1,0.5,0.1,0.6
			c0,0.3,0,0.6,0,1c-0.1,0.8-0.2,1.5-0.4,2.3c-0.2,0.7-0.4,1.4-0.7,2.1c-0.1-0.9-0.1-1.8-0.2-2.6l-0.4-6.5c-0.1-2.2-0.1-4.2-0.1-6.4
			C1359.5,371.8,1359.5,370.7,1359.6,369.9 M1366.2,351.1c0.3,1.7,0.5,3.3,0.8,5l2,10.6l1,5.3c0.3,1.7,0.9,3.8,0.7,4.7
			c-0.1,2.7-1.5,6-2.9,9c-0.4,0.7-0.8,1.5-1.2,2.2c0-0.1,0.1-0.2,0.1-0.4c0.2-1.1,0.3-2.2,0.3-3.4c0-0.6,0-1.2-0.1-1.9
			c0-0.4-0.1-0.5-0.1-0.8l-0.2-0.8c-0.4-1.8-0.7-3.7-1.1-5.6c-0.7-3.7-1.3-7.5-1.8-11.3c-0.3-2-0.6-4.1-0.9-6.1
			C1363.9,355.5,1365,353.3,1366.2,351.1 M1372.3,342.5c0.7,2.3,1.4,4.6,2.2,6.9l3,9.6l1.5,4.8c0.5,1.6,1.1,3.3,1.2,4.4
			c0.3,2.3-0.6,5.4-1.7,8.3c-0.8,2-1.8,4-2.8,6c0.5-1.8,0.8-3.6,0.8-5.7c-0.1-2.8-0.8-4-1.2-5.9l-1.4-5.2l-2.7-10.4l-2.2-8.7
			C1370.1,345.1,1371.2,343.8,1372.3,342.5 M1379.2,336.6c0.9,1.9,1.8,3.8,2.7,5.6c2.6,5.7,5.3,11.6,7.8,17.1
			c1.8,4.4-0.5,10.3-3.1,15.7c-0.6,1.1-1.1,2.3-1.7,3.4c1-3.4,2-7,1.3-11.2c-0.5-2.3-1.2-3.6-1.8-5.3l-1.8-4.7l-3.8-9.4
			c-1.1-2.8-2.3-5.5-3.4-8.3C1376.7,338.5,1377.9,337.5,1379.2,336.6 M1400.2,353.9L1400.2,353.9
			C1400.3,354,1400.3,354,1400.2,353.9 M1386.2,331.9c0.5,0.8,1,1.5,1.6,2.3c3.3,5,6.5,10,9.7,15.1l2.3,3.8l0.3,0.5l0.1,0.1l0.1,0.1
			c0.1,0.3,0.4,0.8,0.3,0.8c-0.1,0,0.1,0.7,0,1.2c0,2.2-0.8,5-1.7,7.7c-1.4,4.2-3.2,8.5-5,12.8c1-2.6,1.9-5.2,2.4-8.1
			c0.6-3.4,0.7-7.6-1.1-11.2c-3-5.9-6-11.3-9.2-16.9c-1.1-2-2.3-3.9-3.4-5.8C1383.7,333.5,1385,332.7,1386.2,331.9 M1424.9,296.4
			c9.7,2.7,19.3,5.6,28.8,8.9c5.8,2,11.5,4.1,17.1,6.4c2.8,1.2,5.5,2.4,8.1,3.7c2.7,1.4,4.4,2.4,6.5,4.5c4.1,3.9,8.1,8.4,11.8,13
			c3.7,4.6,7.2,9.5,9.3,14.3c0.5,1.1,0.9,2.5,1.1,3.2c0.2,1.1,0.2,2.4,0.2,3.9c0,2.9-0.2,5.9-0.4,8.9c-0.4,6-0.9,12.2-1.4,18.3
			c-0.7,9.2-1.5,18.3-2,27.6c0,0.2,0,0.5-0.1,0.9c0,0.5,0,1-0.1,1.5c0,0.4,0,0.9-0.1,1.3c-0.2,3.4-0.3,3.4-0.5,3.3
			c-0.1,0-0.1-0.5-0.2-1.4c-0.1-1.5-0.2-3-0.2-4.4c-0.1-2.3-0.2-4.9-0.3-6.7c0-3.8,0-7.7-0.1-11.5c-0.1-5.9-0.2-11.9-0.4-17.9
			c-0.2-3.1-0.3-5.9-0.8-9.4c-0.6-3.6-2.1-6.8-3.5-9.6c-6.1-11.2-13.9-20.5-22.3-29.2c-4.3-4.3-8.7-8.4-13.9-12.2
			c-3-2.1-5.8-3.2-8.6-4.4c-2.8-1.2-5.6-2.3-8.5-3.3c-7.1-2.5-14.2-4.7-21.3-6.8C1423.8,298.3,1424.3,297.4,1424.9,296.4
			 M1515.1,421.7c-0.1-0.6-0.1-1.3,0-2c0-0.9,0.2-1.9,0.3-2.8l0.2,0.3l2.8,4.4l11.1,17.4l1.1,1.7c0.1,0.3,0.2,0.6,0.3,0.9
			c0.5,1.5,0.9,2.9,1.2,4.4c-0.8-1.2-1.7-2.5-2.6-3.7c-3.7-5.3-7.5-10.6-11.4-15.7l-2.8-3.8C1515.4,422.8,1515.2,422.3,1515.1,421.7
			 M1426.7,292.2c0.3-0.7,0.5-1.4,0.8-2.1l1.2,0.2c12.7,2.5,25.4,5.1,37.9,8.1c12.3,4,27.3,3.2,35.6,8.8c2,1.6,4.3,3.8,6.5,6
			c2.1,2.2,4.2,4.6,6.1,6.9c1.9,2.4,3.7,4.8,5.1,7.3c1.5,2.5,2.6,5.1,2.9,7.2c0.3,1.9-0.1,5.3-0.6,8.3c-0.4,3.1-1,6.2-1.6,9.3
			c-1.2,6.3-2.5,12.6-3.8,18.9c-0.8,4-1.6,7.9-2.4,11.9c0-0.2,0.1-0.4,0.1-0.6c0.7-6.1,1.5-12.3,2-18.5c0.3-3.1,0.6-6.2,0.6-9.5
			c0-1.6,0-3.4-0.3-5.3c-0.4-2.3-1-3.9-1.7-5.6c-2.8-6.4-6.6-11.6-10.5-16.7c-4-5-8.3-9.7-13.4-13.9c-0.6-0.5-1.3-1-2-1.6
			c-0.6-0.5-1.7-1.2-2.3-1.5c-1.8-1-3.2-1.6-4.7-2.2c-3-1.3-6-2.2-9-3.1c-6-1.8-12-3.3-18-4.8c-9.6-2.3-19.3-4.5-29-6.4
			C1426.4,292.9,1426.6,292.6,1426.7,292.2 M1583.9,287.2c-0.1-1.6-0.5-3.3-0.8-4.9c-0.4-1.6-1-3.1-1.6-4.7c-1.9-4.7-5.1-9-9.1-12.3
			c-9.1-7.7-16.4-7.1-24-7.4c-7.6-0.3-23.7,5.4-23.7,5.4h0.1c-4.7,1.2-9.3,2.5-13.9,3.6c-3.7,0.9-7.4,1.7-11,2.2
			c-1.6,0.3-3.6,0.3-5.5,0.3l-5.7,0.2l-22.9,1.1l-3.1,0.1c-0.4,0-1.5,0-1.8,0c-5.4,0-11.3,0-16.8,1c-6.8,1-12.4,4.2-15.6,6.4
			c0,0-0.1,0-0.1,0.1c0,0-1.2,0.8-2.2,1.7c-0.4,0.3-0.6,0.5-0.6,0.5l0,0c-0.2,0.2-0.5,0.5-0.6,0.7c-1,1.2-2.1,2.5-2.8,3.7
			c-0.1,0.2-0.2,0.4-0.4,0.6c-1,1.4-2.1,3-3.1,4.9c0,0,0,0,0,0c-0.8,1.1-1.5,2.3-2.3,3.5c-0.6,0.8-1.1,1.5-1.6,2.1
			c-0.8,1.1-1.4,1.7-1.4,1.7c-1.7,2.1-3.2,4.2-5.2,6.3c-1.7,1.8-3.4,3.6-5.1,5.4c-3.5,3.5-6,6-10.4,8.8l-1.2,1
			c-7.1,4.5-15.1,8.6-22,14.8c-0.8,0.7-1.6,1.5-2.3,2.2c-0.8,0.6-1.4,1-2,1.4c-1.1,0.8-1.7,1.4-1.7,1.4l-2.8,2.7l-2.6,3
			c-0.4,0.5-0.9,1-1.3,1.5l-1.1,1.6l-2.2,3.3c-1.3,2.3-2.7,4.5-3.8,6.9c-2.3,4.7-4.1,9.7-5.4,14.7c-1.4,5-2.2,10.1-2.8,15.2
			c-0.7,5.2-0.8,9.9-1.7,14.5c-0.3,1.4-0.6,2.8-1,4.2c-0.9,1.7-1.9,3.4-2.9,5.1c-2.1,3.3-4.4,6.5-6.8,9.6
			c-9.6,12.6-20.4,24.6-29.7,38.4c-2.3,3.5-4.5,7.1-6.3,11.2c-0.9,2-1.7,4.2-2.2,6.7c-0.1,0.6-0.2,1.2-0.3,2c-0.1,1-0.1,0.9-0.1,1.9
			c0,1.5,0.3,2.8,0.5,4c1.2,4.8,3.2,8.6,5.3,12.3c2.2,3.7,4.5,7.2,7.1,10.5c2.6,3.3,5.4,6.5,8.5,9.5c3.1,2.9,6.5,5.9,11.3,7.9
			c4.4,1.6,8.2,2.6,12.2,3.6c4,1,7.9,1.9,11.9,2.7c15.8,3.4,31.7,6.2,47.7,8.5c16,2.3,32,4.5,48.3,5.1c2.1,0,4.1,0,6.3-0.2
			c1-0.1,2.1-0.2,3.3-0.4c1.1-0.2,2.1-0.5,3.1-0.8c4-1.2,7.8-2.8,11.5-4.5c4-2,8.1-4.1,11.9-6.4c4-1.8,8-3.9,11.7-6.3
			c1.8-1,4-2.4,6.1-3.6c0,0,0,0,0,0s6.8-4.1,11.1-8.5c1.7-1.8,3.2-3.7,4.5-5.9c1.4-2.4,2-5.1,2.8-7.7c0.3-1,0.7-1.9,1.1-2.7
			c1-1.6,2.8-3.8,2.8-3.8c1.7-2.2,3.8-4,5.3-5c0.3-0.2,0.6-0.4,0.9-0.6c0,0,0.1,0,0.1-0.1c0.6-0.4,1.4-1.1,2.2-1.7
			c0.1,0,0.1-0.1,0.2-0.1c0.3-0.2,0.5-0.4,0.7-0.6c0,0,0.1-0.1,0.1-0.1c0.5-0.5,0.9-0.8,0.9-0.8l0,0c0.8-0.8,1.7-1.8,2.6-2.9
			c0,0,0.1-0.1,0.1-0.1c0.3-0.3,0.4-0.5,0.4-0.5c1.7-2.3,3.1-4.4,4.4-6.9c0.1-0.2,0.2-0.4,0.3-0.6c0.5-1,0.9-2,1.3-3
			c2.4-5.5,4.4-12.5,5.2-21.3c0.3-2.2,0.4-4.3,0.4-6.5c0.1-0.8,0.4-5.4-0.7-10c-0.3-1.6-0.6-3.3-1-4.9c-1.2-4.7-2.7-9-4-13.2
			c-0.1-0.8-0.2-1.6-0.3-2.3c-0.7-5.4-0.9-10.6-0.1-15.7c0.8-5.1,2.4-10.2,4.5-15.1c2.1-4.9,4.8-9.7,7.6-14.5
			c2.8-4.8,5.8-9.6,8.7-14.4c5.9-9.6,11.7-19.5,16.2-30.3c2.2-5.4,4-11,5.2-16.8l0.4-2.2c0.1-0.3,0.2-0.9,0.2-1l0.1-0.5l0-0.2
			c0.7-2,1.2-4.1,1.6-6.2c0.4-1.5,0.4-3.1,0.6-4.7C1584,290.5,1583.9,288.8,1583.9,287.2"/>
		<rect x="1350" y="598.3" class="st1" width="173.8" height="17.4"/>
		<g class="st2">
			<defs>
				<rect id="SVGID_3_" x="1290.5" y="258" width="293.5" height="558.9"/>
			</defs>
			<clipPath id="SVGID_4_">
				<use xlink:href="#SVGID_3_"  style="overflow:visible;"/>
			</clipPath>
			<path class="st3" d="M1361.7,687.2c0-10.2,6.5-18.4,16.9-18.4c8.3,0,13.7,4.7,15,12.2h-5.6c-0.8-4.7-4.1-7.6-9.4-7.6
				c-7.4,0-11.3,6.2-11.3,13.9c0,7.7,3.9,13.8,11.3,13.8c5.7,0,9.1-3.3,9.5-8.7h5.4c-0.7,8.4-6.2,13.3-15,13.3
				C1368.2,705.6,1361.7,697.3,1361.7,687.2"/>
		</g>
		<rect x="1399" y="656.2" class="st1" width="5.5" height="48.4"/>
	</g>
</g>
<g id="old">
	<g>
		<defs>
			<rect id="SVGID_33_" x="272.8" y="413.4" width="408.9" height="252.3"/>
		</defs>
		<clipPath id="SVGID_5_">
			<use xlink:href="#SVGID_33_"  style="overflow:visible;"/>
		</clipPath>
		<path class="st4" d="M389.4,614.5v21.6h14.8c6.8,0,11.4-4.6,11.4-10.8c0-6.5-4.6-10.8-11.4-10.8H389.4 M423.3,664.8H415
			l-14.2-22.5h-11.4v22.5h-7.1V608h22.8c10.5,0,17.9,6.5,17.9,17c0,10.2-7.1,15.7-14.8,16.3L423.3,664.8"/>
	</g>
	<g>
		<defs>
			<rect id="SVGID_35_" x="272.8" y="413.4" width="408.9" height="252.3"/>
		</defs>
		<clipPath id="SVGID_6_">
			<use xlink:href="#SVGID_35_"  style="overflow:visible;"/>
		</clipPath>
		<path class="st5" d="M459.4,665.7c-15.1,0-23.1-8.9-23.1-22.8V608h7.1v34.5c0,10.2,5.6,17,16,17s16-6.5,16-17V608h7.1v34.5
			C482.5,656.8,474.8,665.7,459.4,665.7"/>
	</g>
	<g>
		<defs>
			<rect id="SVGID_37_" x="272.8" y="413.4" width="408.9" height="252.3"/>
		</defs>
		<clipPath id="SVGID_7_">
			<use xlink:href="#SVGID_37_"  style="overflow:visible;"/>
		</clipPath>
		<path class="st6" d="M516.7,665.7c-9.9,0-17-3.7-21.6-8.9l4.3-5.6c3.7,4.3,9.9,8,17.6,8c10.2,0,13.3-5.6,13.3-9.9
			c0-14.5-33.6-6.5-33.6-26.5c0-9.3,8.3-15.7,19.4-15.7c8.6,0,15.1,3.1,20,8l-4.3,5.2c-4.3-4.6-10.2-6.8-16.3-6.8
			c-6.8,0-11.7,3.7-11.7,8.9c0,12.6,33.6,5.6,33.6,26.5C537.4,657.4,531.9,665.7,516.7,665.7"/>
	</g>
	<g>
		<defs>
			<rect id="SVGID_39_" x="272.8" y="413.4" width="408.9" height="252.3"/>
		</defs>
		<clipPath id="SVGID_8_">
			<use xlink:href="#SVGID_39_"  style="overflow:visible;"/>
		</clipPath>
		<polygon class="st7" points="571,664.8 563.9,664.8 563.9,614.5 546,614.5 546,608 588.9,608 588.9,614.5 571,614.5 		"/>
	</g>
	<g>
		<defs>
			<rect id="SVGID_41_" x="272.8" y="413.4" width="408.9" height="252.3"/>
		</defs>
		<clipPath id="SVGID_9_">
			<use xlink:href="#SVGID_41_"  style="overflow:visible;"/>
		</clipPath>
		<polygon class="st8" points="364.7,584 327.7,584 327.7,527.5 364.7,527.5 364.7,533.7 334.5,533.7 334.5,552.2 364.1,552.2 
			364.1,558.4 334.5,558.4 334.5,577.8 364.7,577.8 		"/>
	</g>
	<g>
		<defs>
			<rect id="SVGID_43_" x="272.8" y="413.4" width="408.9" height="252.3"/>
		</defs>
		<clipPath id="SVGID_10_">
			<use xlink:href="#SVGID_43_"  style="overflow:visible;"/>
		</clipPath>
		<polygon class="st9" points="425.1,584 418.4,584 385.4,538.9 385.4,584 378.3,584 378.3,527.5 385.4,527.5 418.1,571.6 
			418.1,527.5 425.1,527.5 		"/>
	</g>
	<g>
		<defs>
			<rect id="SVGID_45_" x="272.8" y="413.4" width="408.9" height="252.3"/>
		</defs>
		<clipPath id="SVGID_11_">
			<use xlink:href="#SVGID_45_"  style="overflow:visible;"/>
		</clipPath>
		<polygon class="st10" points="477.9,584 440.9,584 440.9,527.5 477.9,527.5 477.9,533.7 448,533.7 448,552.2 477.3,552.2 
			477.3,558.4 448,558.4 448,577.8 477.9,577.8 		"/>
	</g>
	<g>
		<defs>
			<rect id="SVGID_47_" x="272.8" y="413.4" width="408.9" height="252.3"/>
		</defs>
		<clipPath id="SVGID_12_">
			<use xlink:href="#SVGID_47_"  style="overflow:visible;"/>
		</clipPath>
		<path class="st11" d="M498.5,533.7v21.6h14.8c6.8,0,11.4-4.6,11.4-10.8c0-6.5-4.6-10.8-11.4-10.8H498.5 M532.5,584h-8.3L510,561.5
			h-11.4V584h-7.1v-56.4h22.8c10.5,0,17.9,6.5,17.9,17c0,10.2-7.1,15.7-14.8,16.3L532.5,584"/>
	</g>
	<g>
		<defs>
			<rect id="SVGID_49_" x="272.8" y="413.4" width="408.9" height="252.3"/>
		</defs>
		<clipPath id="SVGID_13_">
			<use xlink:href="#SVGID_49_"  style="overflow:visible;"/>
		</clipPath>
		<path class="st12" d="M572.6,585.2c-16,0-29-11.7-29-29.3c0-17.6,13-29.3,29-29.3c10.2,0,17,4.3,21.9,10.5l-5.6,3.7
			c-3.7-4.6-9.6-7.7-16.3-7.7c-12.3,0-21.9,9.3-21.9,22.8c0,13.3,9.3,22.8,21.9,22.8c6.8,0,12.3-3.1,15.1-6.2v-11.4h-19.4V555h26.5
			v20.4C589.2,581.2,581.5,585.2,572.6,585.2"/>
	</g>
	<g>
		<defs>
			<rect id="SVGID_51_" x="272.8" y="413.4" width="408.9" height="252.3"/>
		</defs>
		<clipPath id="SVGID_14_">
			<use xlink:href="#SVGID_51_"  style="overflow:visible;"/>
		</clipPath>
		<polygon class="st13" points="631.2,584 624.4,584 624.4,560.2 601.9,527.5 610.2,527.5 627.8,553.8 645.3,527.5 653.4,527.5 
			631.2,560.2 		"/>
	</g>
	<g>
		<defs>
			<rect id="SVGID_53_" x="272.8" y="413.4" width="408.9" height="252.3"/>
		</defs>
		<clipPath id="SVGID_15_">
			<use xlink:href="#SVGID_53_"  style="overflow:visible;"/>
		</clipPath>
		<path class="st14" d="M356.7,505.3c-16.3,0-29-11.7-29-29.3c0-17.3,12.6-29.3,29-29.3c9.9,0,17,4.6,21.6,11.1l-5.9,3.4
			c-3.1-4.9-9.3-8.3-15.7-8.3c-12.3,0-21.9,9.3-21.9,22.8c0,13.3,9.3,22.8,21.9,22.8c6.5,0,12.3-3.4,15.7-8.3l5.9,3.1
			C373.3,500.7,366.6,505.3,356.7,505.3"/>
	</g>
	<g>
		<defs>
			<rect id="SVGID_55_" x="272.8" y="413.4" width="408.9" height="252.3"/>
		</defs>
		<clipPath id="SVGID_16_">
			<use xlink:href="#SVGID_55_"  style="overflow:visible;"/>
		</clipPath>
		<polygon class="st15" points="422.1,504.4 388.8,504.4 388.8,448 395.9,448 395.9,498.2 422.1,498.2 		"/>
	</g>
	<g>
		<defs>
			<rect id="SVGID_57_" x="272.8" y="413.4" width="408.9" height="252.3"/>
		</defs>
		<clipPath id="SVGID_17_">
			<use xlink:href="#SVGID_57_"  style="overflow:visible;"/>
		</clipPath>
		<polygon class="st16" points="471.1,504.4 434.1,504.4 434.1,448 471.1,448 471.1,454.1 440.9,454.1 440.9,472.3 470.5,472.3 
			470.5,478.8 440.9,478.8 440.9,498.2 471.1,498.2 		"/>
	</g>
	<g>
		<defs>
			<rect id="SVGID_59_" x="272.8" y="413.4" width="408.9" height="252.3"/>
		</defs>
		<clipPath id="SVGID_18_">
			<use xlink:href="#SVGID_59_"  style="overflow:visible;"/>
		</clipPath>
		<path class="st17" d="M505.9,455.1l-12,30.5H518L505.9,455.1z M533.1,504.4h-8l-4.9-12.6h-28.4l-4.9,12.6h-8l22.8-56.4h8.6
			L533.1,504.4"/>
	</g>
	<g>
		<defs>
			<rect id="SVGID_61_" x="272.8" y="413.4" width="408.9" height="252.3"/>
		</defs>
		<clipPath id="SVGID_19_">
			<use xlink:href="#SVGID_61_"  style="overflow:visible;"/>
		</clipPath>
		<polygon class="st18" points="589.8,504.4 583,504.4 550,459.4 550,504.4 543,504.4 543,448 550,448 582.7,492.1 582.7,448 
			589.8,448 		"/>
	</g>
	<g>
		<defs>
			<rect id="SVGID_63_" x="272.8" y="413.4" width="408.9" height="252.3"/>
		</defs>
		<clipPath id="SVGID_20_">
			<use xlink:href="#SVGID_63_"  style="overflow:visible;"/>
		</clipPath>
		<polygon class="st19" points="327.7,608 327.7,614.5 345.6,614.5 345.6,664.8 352.4,664.8 352.4,614.5 370.6,614.5 370.6,608 		
			"/>
	</g>
	<polygon class="st20" points="289.5,428.2 289.5,446.1 272.8,446.1 272.8,449.5 289.5,449.5 289.5,468 293.5,468 293.5,449.5 
		309.8,449.5 309.8,446.1 293.5,446.1 293.5,428.2 	"/>
</g>
<polygon class="st21" points="1000.5,538 960,574 922.9,541 960,504 "/>
</svg>
