<?xml version="1.0" encoding="utf-8"?>
<!-- Generator: Adobe Illustrator 21.0.2, SVG Export Plug-In . SVG Version: 6.00 Build 0)  -->
<svg version="1.1" id="Layer_1" xmlns="http://www.w3.org/2000/svg" xmlns:xlink="http://www.w3.org/1999/xlink" x="0px" y="0px"
	 viewBox="0 0 786 768.4" style="enable-background:new 0 0 786 768.4;" xml:space="preserve">
<style type="text/css">
	.st1{fill:#FFFFFF;}
	.st2{fill:#0FA399;fill-opacity:0.1;}
	.st3{filter:url(#GaussianBlur_4);}
	.st4{fill:none;stroke:#14DED0;stroke-width:8;stroke-linecap:round;stroke-miterlimit:10;}
	.st5{opacity:0.6;filter:url(#GaussianBlur_8);}
	.st6{fill:none;stroke:#14DED0;stroke-width:5;stroke-linecap:round;stroke-miterlimit:10;}
	.st7{filter:url(#GaussianBlur_8);}
	.st8{opacity:0.3;fill:none;stroke:#14DED0;stroke-width:4;stroke-linecap:round;stroke-miterlimit:10;enable-background:new    ;}
	.st9{fill:none;stroke:#14DED0;stroke-width:4;stroke-linecap:round;stroke-miterlimit:10;}
</style>
<filter  id="GaussianBlur_8">
	<feGaussianBlur  stdDeviation="8"></feGaussianBlur>
</filter>
<filter  id="GaussianBlur_4">
	<feGaussianBlur  stdDeviation="4"></feGaussianBlur>
</filter>
<title>CET brand identity Venn diagram, strategized by Someoddpilot</title>
<desc>
  Three cyan outlines of circles intersect in a triangular Venn diagram, with CET&apos;s new logo in the center. The top circle is labelled &quot;Policy Makers,&quot; the bottom right circle labelled &quot;Investors,&quot; and the bottom left labelled &quot;Start-ups and Innovators.&quot;
</desc>
<g>
	<g id="labels">
		<g id="Start-ups_and_Innovators" class="st0">
			<path class="st1" d="M100.7,498.1c-1.4-1.1-3.4-2-5.6-2c-2.8,0-4.5,1.4-4.5,3.6c0,1.3,0.8,2.4,2.4,3.4l4.5,2.8
				c3.2,2,4.3,3.9,4.3,6.6c0,3.7-2.7,7-8.1,7c-2.6,0-4.8-0.8-6.3-1.5v-3.8c1.4,1.1,3.5,2.3,6.2,2.3c3.1,0,4.8-1.8,4.8-3.8
				c0-1.4-0.9-2.6-2.8-3.8l-4.4-2.8c-2.9-1.8-4-3.7-4-6.3c0-3.3,2.2-6.7,8-6.7c2.2,0,4.1,0.6,5.5,1.4V498.1z"/>
			<path class="st1" d="M107,519.1v-15.7h-3.4v-2.7h3.6v-4.5l3-0.8v5.3h3.6v2.7h-3.6v15.7H107z"/>
			<path class="st1" d="M117.2,501.6c1.4-0.7,3.2-1.3,5.3-1.3c4.1,0,7.1,2.1,7.1,7.1v11.7h-3.1v-2c-1,1.4-2.7,2.4-4.8,2.4
				c-4,0-6.4-2.8-6.4-6.1c0-3.4,2.7-6,6.4-6c2,0,3.9,1,4.8,2.2v-2.1c0-2.9-2.1-4.2-4.3-4.2c-1.8,0-3.5,0.6-5,1.5V501.6z
				 M122.4,517.1c2.2,0,4-1.6,4-3.7c0-2-1.9-3.6-4-3.6c-2.2,0-4,1.6-4,3.6C118.4,515.4,120.2,517.1,122.4,517.1z"/>
			<path class="st1" d="M137.8,503.2c0.9-1.7,2.4-2.9,4.8-2.9c0.5,0,1.1,0.1,1.5,0.2v3.4c-0.6-0.3-1.4-0.5-2.2-0.5
				c-2.6,0-4,1.9-4.1,4.7v10.9h-3.1v-18.4h3.1V503.2z"/>
			<path class="st1" d="M148.7,519.1v-15.7h-3.4v-2.7h3.6v-4.5l3-0.8v5.3h3.6v2.7h-3.6v15.7H148.7z"/>
			<path class="st1" d="M158.1,509.8v-2.9h9.5v2.9H158.1z"/>
			<path class="st1" d="M184.8,516.2c-0.9,2-2.8,3.2-5.5,3.2c-4.2,0-6.9-3.1-6.9-7.3v-11.5h3.1v10.8c0,2.9,1.7,4.9,4.6,4.9
				c2.8,0,4.5-1.9,4.6-4.7v-11h3.2v18.4h-3.2V516.2z"/>
			<path class="st1" d="M196.4,504.6c1.3-2.6,3.8-4.2,7-4.2c5.2,0,9.1,4.2,9.1,9.5c0,5.4-3.8,9.6-9.1,9.6c-3.1,0-5.6-1.6-6.9-4v11.4
				h-3.1v-26.1h3.1V504.6z M202.8,516.4c3.6,0,6.4-2.9,6.4-6.5c0-3.5-2.8-6.5-6.4-6.5c-3.7,0-6.4,2.9-6.4,6.5
				C196.4,513.5,199.1,516.4,202.8,516.4z"/>
			<path class="st1" d="M226,504.6c-1.2-0.9-2.7-1.5-4.2-1.5c-2,0-3,1-3,2.3c0,1,0.5,1.5,1.6,2.2l3.2,1.9c2.4,1.4,3.1,3,3.1,4.8
				c0,3.1-2.4,5.1-6.3,5.1c-1.9,0-3.6-0.5-4.8-1.1V515c0.9,0.8,2.7,1.7,4.6,1.7c2.1,0,3.2-1,3.2-2.4c0-0.9-0.5-1.7-1.9-2.5l-3.4-2
				c-1.9-1.1-2.7-2.7-2.7-4.4c0-2.9,2.2-5.1,6.2-5.1c1.6,0,3.2,0.4,4.2,0.9V504.6z"/>
			<path class="st1" d="M67.8,538.6l-0.2-0.2c-1.1-1.4-2.1-3-2.1-4.7c0-3.1,2.5-5.5,6-5.5c3.7,0,5.8,2.7,5.8,5.6c0,3.2-2.3,4.7-5,6
				l5.1,6.1l6.1-6.9v4.4l-4.2,4.9l5,6h-4l-3-3.7c-2.1,2.2-4.9,4.1-8.2,4.1c-5.5,0-8-4-8-7.5C61.1,542.1,64.4,540.1,67.8,538.6z
				 M75.4,548l-5.8-7.2c-2.8,1.3-5.3,2.8-5.3,6c0,2.1,1.7,4.6,4.8,4.6C71.4,551.5,73.6,549.8,75.4,548z M70.4,537.4
				c2.1-0.9,3.8-1.9,3.8-3.7c0-1.4-0.9-2.8-2.7-2.8c-1.8,0-3,1.2-3,2.8c0,1.2,1,2.5,1.7,3.4L70.4,537.4z"/>
			<path class="st1" d="M97.5,528.4h3.2v25.7h-3.2V528.4z"/>
			<path class="st1" d="M109.8,538.6c1-2,2.8-3.3,5.5-3.3c4.2,0,6.9,3.1,6.9,7.3v11.5h-3.1v-10.7c0-2.9-1.8-4.9-4.6-4.9
				c-2.8,0-4.5,1.9-4.6,4.7v10.9h-3.1v-18.4h3.1V538.6z"/>
			<path class="st1" d="M130.4,538.6c1-2,2.8-3.3,5.5-3.3c4.2,0,6.9,3.1,6.9,7.3v11.5h-3.1v-10.7c0-2.9-1.8-4.9-4.6-4.9
				c-2.8,0-4.5,1.9-4.6,4.7v10.9h-3.1v-18.4h3.1V538.6z"/>
			<path class="st1" d="M156.1,535.4c5.4,0,9.5,4.2,9.5,9.5c0,5.4-4.1,9.6-9.5,9.6c-5.4,0-9.5-4.1-9.5-9.6
				C146.6,539.5,150.8,535.4,156.1,535.4z M156.1,551.4c3.6,0,6.3-2.9,6.3-6.5c0-3.6-2.7-6.5-6.3-6.5c-3.6,0-6.3,2.9-6.3,6.5
				C149.8,548.5,152.5,551.4,156.1,551.4z"/>
			<path class="st1" d="M170.4,535.7l5.7,14.5l5.7-14.5h3.3l-7.4,18.4h-3.3l-7.3-18.4H170.4z"/>
			<path class="st1" d="M188.1,536.6c1.4-0.7,3.2-1.3,5.3-1.3c4.1,0,7.1,2.1,7.1,7.1v11.7h-3.1v-2c-1,1.4-2.7,2.4-4.8,2.4
				c-4,0-6.4-2.8-6.4-6.1c0-3.4,2.7-6,6.5-6c2,0,3.9,1,4.8,2.2v-2.1c0-2.9-2.1-4.2-4.3-4.2c-1.8,0-3.5,0.6-5,1.5V536.6z
				 M193.3,552.1c2.2,0,4-1.6,4-3.7c0-2-1.9-3.6-4-3.6c-2.2,0-4,1.6-4,3.6C189.3,550.4,191.1,552.1,193.3,552.1z"/>
			<path class="st1" d="M206.8,554.1v-15.7h-3.4v-2.7h3.6v-4.5l3-0.8v5.3h3.6v2.7h-3.6v15.7H206.8z"/>
			<path class="st1" d="M224.6,535.4c5.4,0,9.5,4.2,9.5,9.5c0,5.4-4.1,9.6-9.5,9.6c-5.4,0-9.5-4.1-9.5-9.6
				C215.1,539.5,219.2,535.4,224.6,535.4z M224.6,551.4c3.6,0,6.3-2.9,6.3-6.5c0-3.6-2.7-6.5-6.3-6.5c-3.6,0-6.3,2.9-6.3,6.5
				C218.3,548.5,221,551.4,224.6,551.4z"/>
			<path class="st1" d="M241.3,538.2c0.9-1.7,2.4-2.9,4.8-2.9c0.5,0,1.1,0.1,1.5,0.2v3.4c-0.6-0.3-1.4-0.5-2.2-0.5
				c-2.6,0-4,1.9-4.1,4.7v10.9h-3.1v-18.4h3.1V538.2z"/>
			<path class="st1" d="M260.4,539.6c-1.2-0.9-2.7-1.5-4.2-1.5c-2,0-3,1-3,2.3c0,1,0.5,1.5,1.6,2.2l3.2,1.9c2.4,1.4,3.1,3,3.1,4.8
				c0,3.1-2.4,5.1-6.3,5.1c-1.9,0-3.6-0.5-4.8-1.1V550c0.9,0.8,2.7,1.7,4.6,1.7c2.1,0,3.2-1,3.2-2.4c0-0.9-0.5-1.7-1.9-2.5l-3.4-2
				c-1.9-1.1-2.7-2.7-2.7-4.4c0-2.9,2.2-5.1,6.2-5.1c1.6,0,3.2,0.4,4.2,0.9V539.6z"/>
		</g>
		<g id="Investors" class="st0">
			<path class="st1" d="M547.4,528.4h3.2v25.7h-3.2V528.4z"/>
			<path class="st1" d="M559.8,538.6c1-2,2.8-3.3,5.5-3.3c4.2,0,6.9,3.1,6.9,7.3v11.5H569v-10.7c0-2.9-1.8-4.9-4.6-4.9
				c-2.8,0-4.5,1.9-4.6,4.7v10.9h-3.1v-18.4h3.1V538.6z"/>
			<path class="st1" d="M577.9,535.7l5.7,14.5l5.7-14.5h3.3l-7.4,18.4h-3.3l-7.3-18.4H577.9z"/>
			<path class="st1" d="M597.1,546.1c0.4,3.2,2.9,5.5,6.4,5.5c2.5,0,5.1-1.1,6.6-2.3v3.2c-1.6,1-4,1.9-6.8,1.9c-5.3,0-9.4-4-9.4-9.6
				c0-5.4,3.9-9.5,9.2-9.5c5.3,0,8.9,4,8.9,9c0,0.6-0.1,1.3-0.2,1.7H597.1z M597.1,543.6h11.8c0-3.3-2.6-5.5-5.8-5.5
				C599.8,538.1,597.3,540.5,597.1,543.6z"/>
			<path class="st1" d="M625.2,539.6c-1.2-0.9-2.7-1.5-4.2-1.5c-2,0-3,1-3,2.3c0,1,0.5,1.5,1.6,2.2l3.2,1.9c2.4,1.4,3.1,3,3.1,4.8
				c0,3.1-2.4,5.1-6.3,5.1c-1.9,0-3.6-0.5-4.8-1.1V550c0.9,0.8,2.7,1.7,4.6,1.7c2.1,0,3.2-1,3.2-2.4c0-0.9-0.5-1.7-1.9-2.5l-3.4-2
				c-1.9-1.1-2.7-2.7-2.7-4.4c0-2.9,2.2-5.1,6.2-5.1c1.6,0,3.2,0.4,4.2,0.9V539.6z"/>
			<path class="st1" d="M631.5,554.1v-15.7h-3.4v-2.7h3.6v-4.5l3-0.8v5.3h3.6v2.7h-3.6v15.7H631.5z"/>
			<path class="st1" d="M649.3,535.4c5.4,0,9.5,4.2,9.5,9.5c0,5.4-4.1,9.6-9.5,9.6c-5.4,0-9.5-4.1-9.5-9.6
				C639.8,539.5,644,535.4,649.3,535.4z M649.3,551.4c3.6,0,6.3-2.9,6.3-6.5c0-3.6-2.7-6.5-6.3-6.5c-3.6,0-6.3,2.9-6.3,6.5
				C643,548.5,645.8,551.4,649.3,551.4z"/>
			<path class="st1" d="M666,538.2c0.9-1.7,2.4-2.9,4.8-2.9c0.5,0,1.1,0.1,1.5,0.2v3.4c-0.6-0.3-1.4-0.5-2.2-0.5
				c-2.6,0-4,1.9-4.1,4.7v10.9h-3.1v-18.4h3.1V538.2z"/>
			<path class="st1" d="M685.1,539.6c-1.2-0.9-2.7-1.5-4.2-1.5c-2,0-3,1-3,2.3c0,1,0.5,1.5,1.6,2.2l3.2,1.9c2.4,1.4,3.1,3,3.1,4.8
				c0,3.1-2.4,5.1-6.3,5.1c-1.9,0-3.6-0.5-4.8-1.1V550c0.9,0.8,2.7,1.7,4.6,1.7c2.1,0,3.2-1,3.2-2.4c0-0.9-0.5-1.7-1.9-2.5l-3.4-2
				c-1.9-1.1-2.7-2.7-2.7-4.4c0-2.9,2.2-5.1,6.2-5.1c1.6,0,3.2,0.4,4.2,0.9V539.6z"/>
		</g>
		<g id="Policy_Makers" class="st0">
			<path class="st1" d="M285.4,187.4h7.5c4.8,0,8.1,2.9,8.1,7.7c0,4.9-3.3,7.7-8.1,7.7h-4.3v10.3h-3.2V187.4z M293,190.5h-4.3v9.2
				h4.3c2.7,0,4.7-1.4,4.7-4.6S295.6,190.5,293,190.5z"/>
			<path class="st1" d="M312.4,194.4c5.4,0,9.5,4.2,9.5,9.5c0,5.4-4.1,9.6-9.5,9.6c-5.4,0-9.5-4.1-9.5-9.6
				C302.8,198.5,307,194.4,312.4,194.4z M312.4,210.4c3.6,0,6.3-2.9,6.3-6.5c0-3.6-2.7-6.5-6.3-6.5c-3.6,0-6.3,2.9-6.3,6.5
				C306.1,207.5,308.8,210.4,312.4,210.4z"/>
			<path class="st1" d="M329.1,213.1H326v-26h3.1V213.1z"/>
			<path class="st1" d="M336,186.9c1.2,0,2.1,0.9,2.1,2.1s-0.9,2-2.1,2c-1.1,0-2-0.9-2-2S334.8,186.9,336,186.9z M337.5,213.1h-3.1
				v-18.4h3.1V213.1z"/>
			<path class="st1" d="M356,212.2c-1.3,0.8-3.1,1.3-4.8,1.3c-5.6,0-9.6-4.1-9.6-9.6c0-5.4,4-9.5,9.6-9.5c1.6,0,3.5,0.5,4.8,1.2v3.5
				c-1.2-1-2.9-1.6-4.8-1.6c-3.7,0-6.4,2.9-6.4,6.5c0,3.6,2.8,6.5,6.4,6.5c1.8,0,3.6-0.7,4.8-1.6V212.2z"/>
			<path class="st1" d="M365.2,211.7l-7.1-17h3.6l5.2,13l5.4-13h3.6l-11.2,26.1h-3.6L365.2,211.7z"/>
			<path class="st1" d="M399.1,213.1l-8.3-19.5v19.5h-3.2v-25.6h3.8l9.2,21.5l9.1-21.5h3.8v25.6h-3.2v-19.5l-8.3,19.5H399.1z"/>
			<path class="st1" d="M419.7,195.6c1.4-0.7,3.2-1.3,5.3-1.3c4.1,0,7.1,2.1,7.1,7.1v11.7h-3.1v-2c-1,1.4-2.7,2.4-4.8,2.4
				c-4,0-6.4-2.8-6.4-6.1c0-3.4,2.7-6,6.4-6c2,0,3.9,1,4.8,2.2v-2.1c0-2.9-2.1-4.1-4.3-4.1c-1.8,0-3.5,0.6-5,1.5V195.6z
				 M424.8,211.1c2.2,0,4-1.6,4-3.7c0-2-1.9-3.6-4-3.6c-2.2,0-4,1.6-4,3.6C420.8,209.4,422.6,211.1,424.8,211.1z"/>
			<path class="st1" d="M437,187.1h3.1v16.4l7.4-8.8h3.8l-6.1,7.4l6.3,11h-3.7l-4.9-8.8l-2.7,3.2v5.6H437V187.1z"/>
			<path class="st1" d="M455.9,205.1c0.4,3.2,2.9,5.5,6.4,5.5c2.5,0,5.1-1.1,6.6-2.3v3.2c-1.6,1-4,1.9-6.8,1.9c-5.3,0-9.4-4-9.4-9.6
				c0-5.4,3.9-9.5,9.2-9.5c5.3,0,8.9,4,8.9,9c0,0.6-0.1,1.3-0.2,1.7H455.9z M455.9,202.6h11.8c0-3.3-2.6-5.5-5.8-5.5
				C458.7,197.1,456.2,199.5,455.9,202.6z"/>
			<path class="st1" d="M477.7,197.2c0.9-1.7,2.4-2.9,4.8-2.9c0.5,0,1.1,0.1,1.5,0.2v3.4c-0.6-0.3-1.4-0.5-2.2-0.5
				c-2.6,0-4,1.9-4.1,4.7v10.9h-3.1v-18.4h3.1V197.2z"/>
			<path class="st1" d="M496.7,198.6c-1.2-0.9-2.7-1.5-4.2-1.5c-2,0-3,1-3,2.3c0,1,0.5,1.5,1.6,2.2l3.2,1.9c2.4,1.4,3.1,3,3.1,4.8
				c0,3.1-2.4,5.1-6.3,5.1c-1.9,0-3.6-0.5-4.8-1.1V209c0.9,0.8,2.7,1.7,4.6,1.7c2.1,0,3.2-1,3.2-2.4c0-0.9-0.5-1.7-1.9-2.5l-3.4-2
				c-1.9-1.1-2.7-2.7-2.7-4.4c0-2.9,2.2-5.1,6.2-5.1c1.6,0,3.2,0.4,4.2,0.9V198.6z"/>
		</g>
	</g>
	<path id="triangleBg" class="st2" d="M392.6,340.7c-39.2,31.5-67.9,75.5-80.2,125.9c25.8,9.9,53.9,15.4,83.3,15.4
		c27.5,0,53.8-4.8,78.3-13.5C461.8,417.2,432.6,372.5,392.6,340.7z"/>
	<g id="triangleLineGlow4" class="st3">
		<path class="st4" d="M391.6,335c-41.8,33.6-68.5,78.5-81.6,132.3c27.6,10.6,53.5,18.4,84.8,18.4c29.3,0,57.4-5.1,83.5-14.4
			C465.4,416.6,434.2,368.9,391.6,335z"/>
	</g>
	<g id="triangleLineGlow8" class="st5">
		<path class="st6" d="M393,326.5c-47.3,38-78.1,88.5-92.8,149.4c31.1,12,60.7,20.6,96.1,20.6c33.1,0,59.6-9,89.1-19.6
			C470.5,415.1,441.1,364.8,393,326.5z"/>
	</g>
	<g id="triangleLineGlowBig8" class="st7">
		<path class="st8" d="M395.2,335c-70.1,35.5-82,50.4-85.2,132.2c37.8,36.4,122.6,43.3,164-4.7C465.1,384.2,462.9,374.5,395.2,335z"
			/>
	</g>
	<path id="venn" class="st9" d="M242.8,284.8c133,0,240.8,107.8,240.8,240.8S375.7,766.4,242.8,766.4S2,658.6,2,525.6
		S109.8,284.8,242.8,284.8z M302.7,524.8c0,132.9,107.7,240.7,240.7,240.7S784,657.7,784,524.8S676.3,284.1,543.3,284.1
		S302.7,391.9,302.7,524.8z M155,242.8c0,133,107.8,240.8,240.8,240.8s240.8-107.8,240.8-240.8S528.8,2,395.8,2S155,109.8,155,242.8
		z"/>
	<path id="logo_1_" class="st1" d="M417.1,400.3c0,0.1-0.1,0.3-0.1,0.5c-0.1,0.3-0.3,0.7-0.4,1c-0.2,0.6-0.5,1.1-0.8,1.7v-0.1
		c0-0.5,0-0.9-0.1-1.4c-0.2-0.9-0.6-1.7-1-2.4c-0.5-0.7-1-1.3-1.6-1.9c-0.6-0.5-1.3-1-2.1-1.4c-0.4-0.2-1-0.3-1.4-0.3s-0.9,0-1.2,0
		c-0.8,0.1-1.5,0.2-2.3,0.3c-1.5,0.3-2.9,0.7-4.3,0.8c-1.4,0.1-2.9,0-4.4,0l-4.5-0.1H390l0,0c0.1-0.1,0.1-0.1,0.2-0.1l0,0l0,0h0.1
		l0,0c0.8-0.3,1.7-0.4,2.7-0.4h3.4h4.2h1.2c0.4,0,0.8,0,1.2,0c0.8-0.1,1.6-0.2,2.4-0.3l4.6-0.8c0.8-0.1,1.5-0.2,2.3-0.3
		c0.4,0,0.7-0.1,1,0c0.1,0,0.1,0,0.2,0c0,0,0.1,0,0,0h0.1c0.1,0,0.2,0.1,0.4,0.1c1.1,0.6,2.2,1.7,2.8,2.8c0.3,0.6,0.5,1.2,0.5,1.8
		C417.2,400.1,417.2,400.2,417.1,400.3 M413.9,403.2c0,0.2-0.1,0.5-0.2,0.9c-0.3,1-0.7,1.9-1.1,2.9c0-0.2,0-0.4,0.1-0.6
		c0-0.5-0.1-0.9-0.2-1.3s-0.2-0.8-0.4-1.2c-0.3-0.7-0.7-1.4-1.2-2s-1-1.2-1.6-1.7s-1.2-1-2-1.4c-0.5-0.2-0.9-0.3-1.3-0.3
		s-0.8,0-1.2,0c-0.7,0-1.5,0.1-2.2,0.1c-1.4,0.1-2.8,0.3-4.1,0.1l-8.5-0.5l-1.3-0.1c0,0,0.5-0.5,0.8-0.7c0.1,0,0.5,0,0.7,0l2.7,0.2
		c3,0.2,5.9,0.5,8.9,0.7c1.6,0,3-0.3,4.5-0.4c0.7-0.1,1.5-0.1,2.1-0.1c0.3,0,0.7,0,1,0.1c0.3,0,0.5,0.1,0.7,0.2
		c1.1,0.6,2.2,1.6,2.9,2.6c0.4,0.5,0.6,1.1,0.8,1.7C413.9,402.7,413.9,403,413.9,403.2 M410.7,406.3c0,0.5-0.2,1.2-0.3,1.9
		c-0.2,0.7-0.4,1.3-0.6,2c-0.4,1.3-0.8,2.5-1.2,3.8c0.1-0.3,0.2-0.7,0.2-1c0.1-0.7,0.3-1.3,0.4-2s0.2-1.3,0.1-2.3
		c-0.1-0.9-0.5-1.6-0.8-2.2c-0.4-0.6-0.8-1.2-1.2-1.8s-0.9-1.1-1.4-1.6s-1-1-1.7-1.4c-0.2-0.2-0.4-0.2-0.6-0.3
		c-0.2-0.1-0.4-0.1-0.5-0.2c-0.4-0.1-0.7-0.2-1.1-0.3c-0.7-0.1-1.4-0.2-2.1-0.2s-1.3,0-2-0.1c-0.6,0-1.3-0.2-2-0.2
		c-2.7-0.3-5.4-0.7-8.1-1c0.1-0.3,0.2-0.5,0.3-0.6l0.1-0.1l1.7,0.2c2.8,0.4,5.6,0.8,8.4,1.2c0.7,0.1,1.5,0.2,2.2,0.2s1.4,0,2.1,0
		s1.4,0,2.1,0c0.6,0,1.4,0.1,1.7,0.3c0.5,0.3,1,0.7,1.5,1.1s0.9,0.9,1.3,1.4s0.7,1.1,1,1.6c0.1,0.3,0.2,0.6,0.3,0.8
		C410.7,405.8,410.7,406.2,410.7,406.3 M409.4,433.9c-0.5-0.6-1-1.2-1.5-1.8c-0.8-1-1.7-1.9-2.6-2.8L405,429
		c-0.1-0.1-0.2-0.3-0.2-0.3s0-0.1-0.1-0.2c0-0.1,0-0.3,0-0.4c0-0.2,0-0.4,0-0.5c0,0.1,0.1,0.1,0.1,0.2l0.7,0.8l2.5,3.1
		c0.5,0.6,0.9,1.2,1.4,1.8C409.5,433.5,409.5,433.7,409.4,433.9 M409.1,435.2c-0.7-0.6-1.4-1.3-2.1-1.9l-2.8-2.4
		c-0.1-0.1-0.1-0.1-0.2-0.2s-0.3-0.4-0.4-0.6c0-0.1,0-0.1-0.1-0.2c-0.1-0.4-0.1-1.1-0.1-1.1s0.1,0,0.1,0.1v0.1l0,0l0,0
		c0,0.1,0.1,0.1,0.1,0.2c0.2,0.2,0.3,0.3,0.4,0.4l0.3,0.3l2.7,2.6c0.7,0.6,1.3,1.3,2,1.9C409.2,434.9,409.1,435.1,409.1,435.2
		 M408.8,435.9c-0.1,0.1-0.1,0.2-0.2,0.3c-0.8-0.6-1.7-1.2-2.5-1.7l-3-1.9l-0.3-0.2c-0.1-0.1,0,0-0.1-0.1c0,0,0-0.1-0.1-0.1
		c-0.1-0.2-0.2-0.4-0.3-0.7c-0.2-0.5-0.3-1.1-0.5-1.6c-0.5-2.2-0.9-4.6-1.3-6.9l-0.6-3.5c-0.1-0.6-0.2-1.1-0.3-1.8
		c-0.2-0.8-0.5-1.3-0.9-1.8c-0.6-1.1-1.3-2-2.1-3c-0.4-0.5-0.7-0.9-1.1-1.4l-0.6-0.7c-0.2-0.2-0.4-0.5-0.5-0.6
		c-0.3-0.4-0.5-0.9-0.8-1.4s-0.5-1-0.8-1.6c-0.2-0.3-0.3-0.6-0.5-0.8c-0.1-0.1-0.2-0.3-0.4-0.5c-0.2-0.1-0.3-0.2-0.4-0.3
		c-0.6-0.3-1.1-0.6-1.6-0.9c-1.3-0.6-2.6-1.2-4-1.7c0.1-0.1,0.2-0.2,0.3-0.3c0,0,0.1-0.1,0.1-0.2c0,0,0-0.1,0.1-0.1
		c1.5,0.6,2.9,1.2,4.3,1.8c0.5,0.3,1.1,0.5,1.6,0.8s1,0.6,1.4,0.9c0.9,0.7,1.7,1.6,2.5,2.5c1.6,1.8,3.2,3.6,4.3,5.6
		c0.3,0.5,0.5,1,0.6,1.4c0.1,0.5,0.2,1.1,0.2,1.7c0.1,1.2,0.2,2.4,0.2,3.6c0.2,2.4,0.3,4.9,0.6,7.3c0.1,0.6,0.2,1.2,0.3,1.9
		c0.1,0.3,0.2,0.6,0.3,1c0.1,0.1,0.1,0.2,0.2,0.3c0.1,0.1,0.1,0.1,0.2,0.2l0.4,0.3l2.9,2.2c0.8,0.6,1.6,1.2,2.4,1.8
		C408.8,435.9,408.8,435.9,408.8,435.9 M408.2,437.3c-1-0.5-2-1-3-1.5l-3.2-1.4l-0.4-0.2c-0.1,0-0.1-0.1-0.1-0.1s0,0-0.1-0.1
		s-0.3-0.4-0.4-0.6c-0.3-0.5-0.5-1-0.7-1.5c-0.9-2.1-1.5-4.3-2.2-6.5l-1-3.3c-0.2-0.6-0.4-1.1-0.6-1.7s-0.6-1.2-0.9-1.7
		c-1.4-2-3-3.6-4-5.5c-0.4-0.8-0.7-1.9-0.9-3c-0.1-0.6-0.2-1.2-0.5-1.8c-0.1-0.3-0.3-0.8-0.7-1c-0.3-0.2-0.5-0.4-0.8-0.6
		c-1.3-0.9-2.7-1.6-4-2.4c0.2-0.2,0.3-0.3,0.5-0.5l0.1-0.1c1.4,0.7,2.7,1.4,4,2.1c0.5,0.3,1,0.6,1.4,0.9c0.1,0.1,0.2,0.2,0.3,0.2
		c0,0,0.1,0.1,0.1,0.2c0.1,0.2,0.2,0.4,0.4,0.7c0.2,0.5,0.5,1,0.7,1.6s0.5,1.1,0.9,1.7l2.2,2.8c0.7,0.9,1.4,1.8,2,2.8
		c0.3,0.5,0.6,1,0.7,1.3c0.1,0.4,0.2,1.1,0.4,1.6l0.7,3.5c0.5,2.3,1,4.6,1.7,6.9c0.2,0.6,0.4,1.1,0.6,1.7c0.1,0.3,0.3,0.6,0.5,0.9
		c0.1,0.1,0.1,0.2,0.2,0.2c0.1,0.1,0.2,0.2,0.3,0.2l0.4,0.2l3.1,1.6c0.9,0.5,1.8,1,2.7,1.5C408.4,437,408.3,437.2,408.2,437.3
		 M408,437.9c-0.1,0.1-0.1,0.3-0.2,0.4c-0.1,0-0.1,0-0.2-0.1c-1.1-0.4-2.2-0.7-3.4-1c-1.1-0.3-2.3-0.6-3.3-1l-0.2-0.1
		c-0.1,0-0.1-0.1-0.1-0.1c-0.1,0-0.2-0.1-0.3-0.2c-0.2-0.2-0.4-0.4-0.5-0.6c-0.3-0.4-0.7-0.9-1-1.4c-1.2-1.9-2.3-4-3.3-6.1l-1.5-3.1
		c-0.2-0.5-0.5-1.1-0.9-1.6c-0.3-0.5-0.7-1-1-1.5c-0.7-1-1.4-1.9-2.1-2.8s-1.4-1.9-1.9-2.7c-0.2-0.3-0.2-0.7-0.3-1.3
		c0-0.5,0-1.1,0-1.7s0.1-1.2,0-1.8c0-0.3,0-0.6-0.1-1c-0.1-0.3-0.1-0.7-0.4-1.1c-0.1-0.2-0.1-0.1-0.2-0.3l-0.2-0.2l-0.3-0.3
		l-0.6-0.6c-0.4-0.4-0.9-0.8-1.3-1.2c-0.5-0.4-0.9-0.7-1.4-1.1c0.2-0.2,0.4-0.3,0.5-0.5c1.3,0.9,2.7,1.8,3.9,2.8
		c0.2,0.2,0.4,0.4,0.6,0.5c0.1,0.1,0.1,0.2,0.2,0.5c0.1,0.4,0.2,1,0.2,1.6c0.2,1.1,0.3,2.4,0.9,3.6c1.1,2.3,2.9,3.9,4.1,5.7
		c0.3,0.4,0.6,0.9,0.7,1.3c0.2,0.5,0.4,1,0.6,1.6c0.4,1.1,0.8,2.2,1.2,3.3c0.8,2.2,1.6,4.3,2.7,6.5c0.3,0.5,0.5,1.1,0.9,1.6
		c0.2,0.3,0.3,0.5,0.6,0.8c0.1,0.1,0.2,0.1,0.3,0.2c0.1,0.1,0.2,0.1,0.3,0.1l0.4,0.2l3.3,1.2c1.1,0.4,2.1,0.8,3.2,1.2
		C408.1,437.8,408.1,437.9,408,437.9 M407.3,439.2c-0.1,0-0.3-0.1-0.4-0.1c-1.2-0.2-2.4-0.4-3.5-0.5c-1.2-0.1-2.4-0.3-3.5-0.5
		c-0.1,0-0.3-0.1-0.3-0.1c-0.1,0-0.2-0.1-0.3-0.2c-0.2-0.1-0.4-0.3-0.6-0.5c-0.4-0.4-0.8-0.8-1.2-1.2c-1.6-1.7-3-3.6-4.4-5.5
		s-2.8-3.8-4.2-5.7c-0.7-1-1.4-1.9-2-2.9l-1-1.5l-0.5-0.7c-0.2-0.2-0.3-0.5-0.4-0.6c-0.1-0.3-0.2-0.8-0.1-1.3c0-0.5,0.1-1.1,0.3-1.6
		c0.2-1.1,0.6-2.3,0.6-3.6c0-0.4,0-0.7-0.1-1.2c0-0.1,0-0.1-0.1-0.3c-0.1-0.1-0.1-0.2-0.1-0.3c-0.1-0.2-0.2-0.3-0.3-0.4
		c-0.4-0.5-0.8-1-1.2-1.4c-0.6-0.7-1.3-1.4-2-2c0.3-0.2,0.7-0.4,1-0.7c0.5,0.4,0.9,0.8,1.4,1.3c0.4,0.4,0.8,0.8,1.2,1.2l0.6,0.6
		l0.3,0.3l0.1,0.2l0.1,0.1c0,0.1,0.1,0.3,0.1,0.5s0,0.5,0,0.8c0,0.5-0.1,1.1-0.2,1.7s-0.1,1.2-0.1,1.8s0,1.4,0.4,2.1
		c0.3,0.6,0.7,1.1,1,1.6s0.7,1,1,1.4c0.7,0.9,1.4,1.9,2.1,2.8c0.3,0.5,0.7,0.9,1,1.4s0.6,0.9,0.8,1.4c0.6,1,1.1,2.1,1.7,3.1
		c1.2,2,2.4,4,3.7,6c0.4,0.5,0.7,1,1.1,1.4c0.2,0.2,0.4,0.4,0.7,0.7c0.1,0.1,0.3,0.2,0.5,0.3c0.1,0.1,0.2,0.1,0.3,0.1l0.2,0.1
		c1.2,0.3,2.3,0.5,3.5,0.7c1.1,0.2,2.3,0.4,3.4,0.7c0,0,0,0,0.1,0C407.5,438.9,407.4,439.1,407.3,439.2 M406.9,439.7
		C406.9,439.7,406.9,439.8,406.9,439.7c-0.1,0.1-0.2,0.2-0.3,0.3c-0.2,0-0.4,0-0.6-0.1c-1.2-0.1-2.5,0-3.7,0c-0.6,0-1.2,0-1.8,0
		s-1.2,0-1.7-0.2c-1-0.3-2-1.1-2.9-1.9c-1.9-1.5-3.6-3.3-5.3-5c-0.8-0.9-1.7-1.8-2.5-2.7s-1.6-1.8-2.4-2.7c-0.8-0.9-1.5-1.9-2.2-2.8
		c-0.4-0.5-0.7-1-1-1.5c-0.2-0.2-0.3-0.5-0.5-0.7l-0.2-0.4l-0.1-0.1l0,0c0,0,0,0,0-0.1c-0.1-0.3,0-0.9,0.1-1.4
		c0.1-0.6,0.3-1.1,0.5-1.7c0.4-1.2,0.8-2.3,1.1-3.6c0.2-0.6,0.3-1.3,0.3-2c0-0.2,0-0.4-0.1-0.7c-0.1-0.2-0.1-0.2-0.1-0.3l0,0V412
		l0,0l0,0l-0.1-0.1l-0.5-0.8c-0.7-1-1.5-2-2.3-3c-0.1-0.1-0.2-0.3-0.3-0.4c0.3-0.2,0.6-0.4,0.9-0.6c0.7,0.8,1.4,1.6,2,2.4
		c0.4,0.5,0.7,0.9,1,1.4c0.1,0.1,0.1,0.2,0.2,0.3c0.1,0.1,0.1,0.1,0.1,0.3c0,0.1,0,0.4,0,0.6c-0.1,1-0.6,2.1-0.9,3.3
		c-0.2,0.6-0.3,1.2-0.4,1.9c-0.1,0.7-0.1,1.4,0.2,2.2c0.2,0.4,0.3,0.7,0.5,0.9l0.5,0.8c0.3,0.5,0.7,1,1,1.5c0.7,1,1.4,1.9,2.1,2.9
		c2.8,3.8,5.8,7.6,9.2,11c0.4,0.4,0.9,0.8,1.4,1.2c0.2,0.2,0.5,0.4,0.8,0.6c0.1,0.1,0.3,0.2,0.5,0.2c0.2,0.1,0.4,0.1,0.5,0.1
		c1.2,0.2,2.4,0.2,3.6,0.3c1.2,0.1,2.4,0.1,3.5,0.2c0.1,0,0.2,0,0.3,0C407,439.7,407,439.7,406.9,439.7 M405.9,441L405.9,441
		c-0.1,0.1-0.1,0.1-0.2,0.2c-0.2,0-0.4,0-0.6,0c-1.3,0.1-2.6,0.3-3.9,0.5c-1.3,0.1-2.6,0.3-3.7,0.1c-0.1,0-0.3-0.1-0.3-0.1h-0.1H397
		l-0.2-0.1L396,441l-1.6-1c-2.2-1.4-4.3-2.8-6.4-4.3c-1-0.7-2.1-1.5-3-2.3c-0.5-0.4-0.9-0.8-1.3-1.2c-0.4-0.5-0.9-0.9-1.3-1.4
		c-0.8-1-1.6-2-2.3-3c-0.4-0.5-0.7-1.1-1.1-1.6l-0.3-0.4l-0.1-0.2c0-0.1-0.1-0.1-0.1-0.1c-0.1-0.2-0.1-0.4-0.2-0.6
		c-0.1-0.9,0.4-2.1,0.9-3.3c0.4-1,0.9-2,1.4-3.1c-0.2,0.6-0.4,1.1-0.6,1.8c-0.2,0.7-0.4,1.3-0.2,2.3c0,0.2,0.2,0.6,0.2,0.7l0.2,0.4
		c0.2,0.3,0.3,0.6,0.5,0.8c0.3,0.5,0.7,1.1,1.1,1.6c0.7,1,1.5,2,2.3,3c1.6,1.9,3.4,3.7,5.2,5.4s3.7,3.3,5.8,4.8c0.5,0.4,1,0.7,1.6,1
		s1.1,0.6,1.8,0.8c0.7,0.1,1.4,0.1,2,0.1s1.2-0.1,1.9-0.2c1.2-0.1,2.4-0.3,3.7-0.4c0.1,0,0.2,0,0.3,0
		C406.1,440.6,406,440.8,405.9,441 M405,442.2c0,0.1-0.1,0.1-0.1,0.2c-0.3,0-0.5,0.1-0.8,0.1c-1.4,0.2-2.7,0.5-4.1,0.8
		c-0.7,0.1-1.4,0.3-2,0.4c-0.3,0.1-0.7,0.1-1,0.1c-0.2,0-0.6-0.1-0.9-0.1c-1.3-0.3-2.5-0.9-3.7-1.5c-2.4-1.2-4.8-2.6-7.2-4
		c-1.2-0.7-2.4-1.4-3.5-2.1s-2.1-1.5-2.9-2.5s-1.6-2.1-2.3-3.2l-1.1-1.7l-0.3-0.4c0-0.1-0.1-0.1-0.1-0.2c0-0.2-0.1-0.4,0-0.7
		c0.1-1.1,0.7-2.4,1.3-3.6c0.1-0.1,0.1-0.3,0.2-0.4c-0.1,0.5-0.2,1-0.2,1.6c0,0.4,0.1,0.9,0.3,1.3c0,0.1,0.1,0.2,0.2,0.3l0.1,0.2
		l0.3,0.4c0.4,0.6,0.7,1.1,1.1,1.7c0.7,1.1,1.5,2.2,2.4,3.2c0.4,0.5,0.9,1,1.4,1.5s1,1,1.5,1.4c1.1,0.8,2.1,1.6,3.2,2.3
		c2.2,1.4,4.5,2.7,6.8,4l1.7,0.9l0.9,0.5l0.2,0.1l0.1,0.1l0.1,0.1c0.2,0.1,0.4,0.1,0.6,0.2c0.7,0.1,1.4,0,2.1-0.1s1.3-0.2,1.9-0.3
		c1.3-0.2,2.5-0.6,3.8-0.8c0.1,0,0.1,0,0.2,0C405.2,441.8,405.1,442,405,442.2 M404.4,443.5c-0.4,0.1-0.8,0.2-1.2,0.3L399,445
		c-0.7,0.2-1.4,0.4-2.1,0.5c-0.4,0.1-0.7,0.1-1,0.1s-0.6-0.1-1-0.1c-1.4-0.3-2.8-0.8-4.1-1.3c-2.7-1-5.4-2.2-8.1-3.5
		c-1.3-0.6-2.6-1.3-3.9-1.9c-0.6-0.3-1.3-0.7-1.8-1.1s-1-0.9-1.5-1.4c-0.9-1.1-1.8-2.2-2.6-3.4c-0.4-0.6-0.8-1.2-1.1-1.8
		c0-0.1-0.1-0.1-0.1-0.1v-0.1c0-0.1,0-0.2,0-0.3c0-0.3,0.1-0.6,0.1-0.9c0.3-1.1,0.9-2.2,1.5-3.3c0,0.2-0.1,0.4-0.1,0.6
		c-0.1,0.4-0.1,0.9,0,1.4c0.1,0.2,0.2,0.5,0.3,0.7l0.3,0.5l1.1,1.8c0.8,1.2,1.5,2.4,2.5,3.5s2.2,2.1,3.4,2.8c1.2,0.8,2.5,1.4,3.7,2
		c2.5,1.3,4.9,2.5,7.5,3.6c1.3,0.5,2.6,1.1,4,1.4c0.4,0.1,0.7,0.1,1.2,0.1c0.4-0.1,0.7-0.1,1.1-0.2c0.7-0.2,1.3-0.4,2-0.5
		c1.3-0.4,2.7-0.8,4-1.1c0.2,0,0.3-0.1,0.5-0.1C404.6,443,404.5,443.3,404.4,443.5 M404.1,444.7c-0.5,0.2-1.1,0.4-1.7,0.6l-4.5,1.6
		c-0.7,0.2-1.5,0.5-2.2,0.7c-0.2,0-0.4,0.1-0.5,0.1s-0.3,0-0.5,0c-0.4,0-0.7-0.1-1.1-0.1c-1.5-0.2-3-0.7-4.5-1.1c-3-0.9-6-1.9-8.9-3
		c-1.5-0.5-2.9-1.1-4.4-1.7l-1.1-0.5l-0.5-0.2c-0.2-0.1-0.3-0.1-0.4-0.2c-0.6-0.3-1.1-0.8-1.6-1.3c-1-1.1-1.9-2.3-2.7-3.6
		c-0.4-0.6-0.8-1.4-1.1-2c-0.2-0.3-0.1-0.9,0.1-1.6c0.3-0.8,0.8-1.7,1.3-2.6c-0.1,0.3-0.1,0.5-0.1,0.8c0,0.2,0,0.5,0,0.8
		c0,0.1,0.1,0.3,0.1,0.4s0.1,0.3,0.1,0.4c0.4,0.8,0.8,1.4,1.2,2c0.8,1.3,1.8,2.5,2.8,3.6c0.5,0.6,1.1,1.1,1.8,1.6s1.4,0.9,2,1.2
		c1.4,0.7,2.7,1.3,4.1,1.9c2.8,1.2,5.5,2.2,8.4,3.1c1.4,0.4,2.9,0.9,4.4,1.1c0.4,0.1,0.8,0.1,1.2,0.1s0.8-0.1,1.2-0.2
		c0.7-0.2,1.5-0.4,2.2-0.7c1.4-0.5,2.8-1,4.2-1.5l0.9-0.3C404.2,444.2,404.2,444.4,404.1,444.7 M403.4,445.9
		c-0.1,0.1-0.1,0.1-0.2,0.2c-2,0.9-4.3,2-7.5,3c-0.4,0.1-0.8,0.2-1.2,0.3s-0.7,0.1-1.1,0.1c-0.8,0-1.6-0.1-2.4-0.3
		c-1.6-0.3-3.2-0.6-4.8-1c-3.2-0.7-6.3-1.6-9.5-2.5c-1.6-0.5-3.1-0.9-4.6-1.5c-0.4-0.1-0.8-0.3-1.1-0.4c-0.3-0.1-0.7-0.3-0.9-0.4
		c-0.5-0.4-1.1-0.9-1.6-1.5c-1-1.1-2-2.4-2.8-3.8c-0.4-0.7-0.7-1.3-0.8-1.9c0-0.1,0-0.5,0.1-0.8s0.3-0.7,0.4-1
		c0.3-0.5,0.6-1.1,0.9-1.6c0,0,0,0,0,0.1c-0.1,0.5,0,1.1,0.2,1.7c0.4,0.8,0.8,1.4,1.2,2.2c0.8,1.4,1.8,2.7,3,3.9
		c0.6,0.6,1.2,1.2,2,1.7c0.2,0.1,0.4,0.2,0.6,0.3l0.6,0.3c0.4,0.2,0.7,0.3,1.1,0.5c1.5,0.6,3,1.1,4.5,1.6c3,1,6.1,1.9,9.1,2.6
		c1.5,0.4,3.1,0.7,4.7,0.9c0.4,0,0.8,0.1,1.2,0.1c0.2,0,0.4,0,0.7-0.1c0.2-0.1,0.4-0.1,0.6-0.2c0.8-0.2,1.5-0.5,2.3-0.8
		c2-0.8,3.7-1.6,5.6-2.4C403.7,445.4,403.6,445.6,403.4,445.9 M401.3,447.6c-0.4,0.3-0.8,0.6-1.3,0.8c-0.3,0.2-0.5,0.3-0.5,0.3
		c-0.3,0.1-0.6,0.3-0.8,0.4c-0.6,0.3-2.5,1.1-2.5,1.1l0,0c-0.3,0.2-0.7,0.3-1,0.4l0,0c-0.6,0.2-1.2,0.4-1.7,0.5
		c-0.2,0-0.4,0.1-0.6,0.1s-0.4,0-0.6,0c-0.4,0-0.8,0-1.2,0c-3.2-0.3-6.5-0.9-9.7-1.5c-1.6-0.3-3.2-0.7-4.8-1s-3.2-0.7-4.8-1.1
		l-2.4-0.6c-0.8-0.2-1.6-0.4-2.2-0.7c-0.5-0.2-1.1-0.7-1.7-1.2s-1.1-1.1-1.5-1.7c-0.5-0.6-0.9-1.3-1.3-1.9c-0.4-0.7-0.7-1.4-0.9-2
		c0-0.1-0.1-0.3-0.1-0.4v-0.2c0,0,0-0.1,0-0.2c0.1-0.3,0.2-0.6,0.3-1c0.3-0.6,0.6-1.3,1-1.9c0,0.2,0,0.4,0,0.7c0.1,1,0.6,1.9,1,2.6
		c0.8,1.5,1.9,2.9,3.1,4.2c0.6,0.6,1.2,1.2,2,1.8c0.5,0.3,0.9,0.4,1.3,0.6s0.8,0.3,1.2,0.4c1.6,0.5,3.2,0.9,4.8,1.4
		c3.2,0.8,6.4,1.5,9.7,2.1c1.6,0.3,3.3,0.6,4.9,0.8c0.8,0.1,1.7,0.2,2.5,0.2c0.4,0,1-0.1,1.3-0.2c0.4-0.1,0.8-0.3,1.2-0.4
		c1.6-0.6,3.1-1.3,4.5-2.1c0.4-0.2,0.8-0.4,1.1-0.5C401.5,447.4,401.4,447.5,401.3,447.6 M373.9,416.2c0-0.1,0-0.2,0-0.3
		c0,0.5,0.1,1,0.1,1.5c0,0.4,0.1,0.8,0.2,1.2v0.1c0,0,0,0,0,0.1v0.1c0,0.1,0,0.1,0,0.2c0,0.2,0,0.3-0.1,0.5c0,0.1-0.1,0.3-0.1,0.4
		c0-0.2,0-0.4,0-0.5l-0.1-1.3c0-0.4,0-0.9,0-1.3C373.8,416.6,373.8,416.4,373.9,416.2 M375.2,412.3c0.1,0.3,0.1,0.7,0.2,1l0.4,2.2
		l0.2,1.1c0.1,0.3,0.2,0.8,0.1,1c0,0.6-0.3,1.2-0.6,1.8c-0.1,0.2-0.2,0.3-0.2,0.5v-0.1c0-0.2,0.1-0.5,0.1-0.7c0-0.1,0-0.2,0-0.4
		c0-0.1,0-0.1,0-0.2v-0.2c-0.1-0.4-0.2-0.8-0.2-1.1c-0.1-0.8-0.3-1.5-0.4-2.3c-0.1-0.4-0.1-0.8-0.2-1.3
		C374.7,413.3,375,412.8,375.2,412.3 M376.5,410.6c0.1,0.5,0.3,0.9,0.4,1.4l0.6,2l0.3,1c0.1,0.3,0.2,0.7,0.3,0.9
		c0.1,0.5-0.1,1.1-0.4,1.7c-0.2,0.4-0.4,0.8-0.6,1.2c0.1-0.4,0.2-0.7,0.2-1.2c0-0.6-0.2-0.8-0.2-1.2l-0.3-1.1l-0.6-2.1l-0.4-1.8
		C376,411.1,376.2,410.8,376.5,410.6 M377.9,409.4c0.2,0.4,0.4,0.8,0.5,1.2c0.5,1.2,1.1,2.4,1.6,3.5c0.4,0.9-0.1,2.1-0.6,3.2
		c-0.1,0.2-0.2,0.5-0.4,0.7c0.2-0.7,0.4-1.4,0.3-2.3c-0.1-0.5-0.3-0.7-0.4-1.1l-0.4-1l-0.8-1.9c-0.2-0.6-0.5-1.1-0.7-1.7
		C377.4,409.8,377.6,409.6,377.9,409.4 M382.2,412.9L382.2,412.9L382.2,412.9 M379.3,408.4c0.1,0.2,0.2,0.3,0.3,0.5
		c0.7,1,1.3,2.1,2,3.1l0.5,0.8l0.1,0.1l0,0l0,0c0,0.1,0.1,0.2,0.1,0.2s0,0.1,0,0.2c0,0.5-0.2,1-0.4,1.6c-0.3,0.9-0.7,1.7-1,2.6
		c0.2-0.5,0.4-1.1,0.5-1.7c0.1-0.7,0.1-1.6-0.2-2.3c-0.6-1.2-1.2-2.3-1.9-3.5c-0.2-0.4-0.5-0.8-0.7-1.2
		C378.8,408.7,379.1,408.6,379.3,408.4 M387.3,401.1c2,0.6,4,1.2,5.9,1.8c1.2,0.4,2.4,0.8,3.5,1.3c0.6,0.2,1.1,0.5,1.7,0.8
		s0.9,0.5,1.3,0.9c0.9,0.8,1.7,1.7,2.4,2.7c0.8,0.9,1.5,1.9,1.9,2.9c0.1,0.2,0.2,0.5,0.2,0.7s0,0.5,0,0.8c0,0.6,0,1.2-0.1,1.8
		c-0.1,1.2-0.2,2.5-0.3,3.8c-0.2,1.9-0.3,3.8-0.4,5.7c0,0,0,0.1,0,0.2s0,0.2,0,0.3s0,0.2,0,0.3c0,0.7-0.1,0.7-0.1,0.7s0-0.1,0-0.3
		c0-0.3,0-0.6,0-0.9c0-0.5,0-1-0.1-1.4c0-0.8,0-1.6,0-2.4c0-1.2,0-2.4-0.1-3.7c0-0.6-0.1-1.2-0.2-1.9c-0.1-0.7-0.4-1.4-0.7-2
		c-1.3-2.3-2.8-4.2-4.6-6c-0.9-0.9-1.8-1.7-2.8-2.5c-0.6-0.4-1.2-0.7-1.8-0.9s-1.2-0.5-1.7-0.7c-1.4-0.5-2.9-1-4.4-1.4
		C387.1,401.5,387.2,401.3,387.3,401.1 M405.8,426.8c0-0.1,0-0.3,0-0.4c0-0.2,0-0.4,0.1-0.6v0.1l0.6,0.9l2.3,3.6l0.2,0.4
		c0,0.1,0,0.1,0.1,0.2c0.1,0.3,0.2,0.6,0.3,0.9c-0.2-0.3-0.3-0.5-0.5-0.8c-0.8-1.1-1.5-2.2-2.3-3.2l-0.6-0.8
		C405.8,427.1,405.8,427,405.8,426.8 M387.6,400.3c0.1-0.2,0.1-0.3,0.2-0.4h0.3c2.6,0.5,5.2,1,7.8,1.7c2.5,0.8,5.6,0.7,7.3,1.8
		c0.4,0.3,0.9,0.8,1.3,1.2c0.4,0.5,0.9,0.9,1.2,1.4c0.4,0.5,0.8,1,1.1,1.5s0.5,1,0.6,1.5c0.1,0.4,0,1.1-0.1,1.7s-0.2,1.3-0.3,1.9
		c-0.2,1.3-0.5,2.6-0.8,3.9c-0.2,0.8-0.3,1.6-0.5,2.4v-0.1c0.1-1.3,0.3-2.5,0.4-3.8c0.1-0.6,0.1-1.3,0.1-2c0-0.3,0-0.7-0.1-1.1
		c-0.1-0.5-0.2-0.8-0.3-1.1c-0.6-1.3-1.4-2.4-2.2-3.4s-1.7-2-2.7-2.9c-0.1-0.1-0.3-0.2-0.4-0.3c-0.1-0.1-0.4-0.3-0.5-0.3
		c-0.4-0.2-0.6-0.3-1-0.5c-0.6-0.3-1.2-0.5-1.9-0.6c-1.2-0.4-2.5-0.7-3.7-1c-2-0.5-4-0.9-6-1.3C387.6,400.4,387.6,400.3,387.6,400.3
		 M419.9,399.2c0-0.3-0.1-0.7-0.2-1s-0.2-0.6-0.3-1c-0.4-1-1.1-1.9-1.9-2.5c-1.9-1.6-3.4-1.5-4.9-1.5c-1.6-0.1-4.9,1.1-4.9,1.1l0,0
		c-1,0.3-1.9,0.5-2.9,0.7c-0.8,0.2-1.5,0.4-2.2,0.5c-0.3,0.1-0.7,0.1-1.1,0.1l-1.2,0.1l-4.7,0.2H395c-0.1,0-0.3,0-0.4,0
		c-1.1,0-2.3,0-3.5,0.2c-1.4,0.2-2.5,0.9-3.2,1.3l0,0c0,0-0.2,0.2-0.5,0.3c-0.1,0.1-0.1,0.1-0.1,0.1l0,0l-0.1,0.1
		c-0.2,0.2-0.4,0.5-0.6,0.8c0,0,0,0.1-0.1,0.1c-0.2,0.3-0.4,0.6-0.6,1l0,0c-0.2,0.2-0.3,0.5-0.5,0.7c-0.1,0.2-0.2,0.3-0.3,0.4
		c-0.2,0.2-0.3,0.4-0.3,0.4c-0.4,0.4-0.7,0.9-1.1,1.3c-0.3,0.4-0.7,0.7-1,1.1c-0.7,0.7-1.2,1.2-2.1,1.8l-0.3,0.2
		c-1.5,0.9-3.1,1.8-4.5,3c-0.2,0.1-0.3,0.3-0.5,0.5c-0.2,0.1-0.3,0.2-0.4,0.3c-0.2,0.2-0.3,0.3-0.3,0.3l-0.6,0.6l-0.5,0.6
		c-0.1,0.1-0.2,0.2-0.3,0.3l-0.2,0.3l-0.5,0.7c-0.3,0.5-0.6,0.9-0.8,1.4c-0.5,1-0.8,2-1.1,3s-0.5,2.1-0.6,3.1c-0.1,1.1-0.2,2-0.4,3
		c-0.1,0.3-0.1,0.6-0.2,0.9c-0.2,0.3-0.4,0.7-0.6,1c-0.4,0.7-0.9,1.3-1.4,2c-2,2.6-4.2,5-6.1,7.9c-0.5,0.7-0.9,1.5-1.3,2.3
		c-0.2,0.4-0.3,0.9-0.4,1.4c0,0.1,0,0.3-0.1,0.4c0,0.2,0,0.2,0,0.4c0,0.3,0.1,0.6,0.1,0.8c0.2,1,0.7,1.8,1.1,2.5
		c0.4,0.8,0.9,1.5,1.5,2.2c0.5,0.7,1.1,1.3,1.8,1.9c0.6,0.6,1.3,1.2,2.3,1.6c0.9,0.3,1.7,0.5,2.5,0.7s1.6,0.4,2.4,0.6
		c3.2,0.7,6.5,1.3,9.8,1.8s6.6,0.9,9.9,1c0.4,0,0.8,0,1.3,0c0.2,0,0.4,0,0.7-0.1c0.2,0,0.4-0.1,0.6-0.2c0.8-0.3,1.6-0.6,2.4-0.9
		c0.8-0.4,1.7-0.8,2.4-1.3c0.8-0.4,1.6-0.8,2.4-1.3c0.4-0.2,0.8-0.5,1.3-0.7l0,0c0,0,1.4-0.8,2.3-1.7c0.3-0.4,0.7-0.8,0.9-1.2
		c0.3-0.5,0.4-1.1,0.6-1.6c0.1-0.2,0.1-0.4,0.2-0.6c0.2-0.3,0.6-0.8,0.6-0.8c0.4-0.4,0.8-0.8,1.1-1c0.1,0,0.1-0.1,0.2-0.1l0,0
		c0.1-0.1,0.3-0.2,0.4-0.4l0,0c0.1,0,0.1-0.1,0.1-0.1l0,0c0.1-0.1,0.2-0.2,0.2-0.2l0,0c0.2-0.2,0.4-0.4,0.5-0.6l0,0
		c0.1-0.1,0.1-0.1,0.1-0.1c0.4-0.5,0.6-0.9,0.9-1.4l0.1-0.1c0.1-0.2,0.2-0.4,0.3-0.6c0.5-1.1,0.9-2.6,1.1-4.4
		c0.1-0.4,0.1-0.9,0.1-1.3c0-0.2,0.1-1.1-0.1-2c-0.1-0.3-0.1-0.7-0.2-1c-0.3-1-0.5-1.8-0.8-2.7c0-0.2,0-0.3-0.1-0.5
		c-0.2-1.1-0.2-2.2,0-3.2c0.2-1.1,0.5-2.1,0.9-3.1s1-2,1.6-3s1.2-2,1.8-3c1.2-2,2.4-4,3.3-6.2c0.5-1.1,0.8-2.3,1.1-3.4l0.1-0.4
		c0-0.1,0-0.2,0-0.2v-0.1l0,0c0.1-0.4,0.3-0.8,0.3-1.3c0.1-0.3,0.1-0.6,0.1-1C419.9,399.9,419.9,399.6,419.9,399.2"/>
</g>
</svg>
