<?xml version="1.0" encoding="utf-8"?>
<!-- Generator: Adobe Illustrator 21.0.2, SVG Export Plug-In . SVG Version: 6.00 Build 0)  -->
<svg version="1.1" id="Layer_1" xmlns="http://www.w3.org/2000/svg" xmlns:xlink="http://www.w3.org/1999/xlink" x="0px" y="0px"
	 viewBox="0 0 1920 1080" style="enable-background:new 0 0 1920 1080;" xml:space="preserve">
<style type="text/css">
	.st0{fill:#2A2E31;}
	.st1{fill:#FFFFFF;}
	.st2{font-family:'NiveauGroteskRegular';}
	.st3{font-size:37.72px;}
	.st4{fill:#0FA399;fill-opacity:0.1;}
	.st5{filter:url(#blurMe);}
	.st6{display:none;fill:none;stroke:#14DED0;stroke-width:4;stroke-linecap:round;stroke-miterlimit:10;}
	.st7{filter:url(#AI_GaussianBlur_4);}
	.st8{fill:none;stroke:#14DED0;stroke-width:8;stroke-linecap:round;stroke-miterlimit:10;}
	.st9{opacity:0.6;filter:url(#AI_GaussianBlur_8);}
	.st10{fill:none;stroke:#14DED0;stroke-width:5;stroke-linecap:round;stroke-miterlimit:10;}
	.st11{filter:url(#AI_GaussianBlur_8);}
	.st12{opacity:0.3;fill:none;stroke:#14DED0;stroke-width:4;stroke-linecap:round;stroke-miterlimit:10;enable-background:new    ;}
	.st13{fill:none;stroke:#14DED0;stroke-width:4;stroke-linecap:round;stroke-miterlimit:10;}
</style>
<filter  id="blurMe">
	<feGaussianBlur  stdDeviation="14"></feGaussianBlur>
</filter>
<filter  id="AI_GaussianBlur_8">
	<feGaussianBlur  stdDeviation="8"></feGaussianBlur>
</filter>
<filter  id="AI_GaussianBlur_4">
	<feGaussianBlur  stdDeviation="4"></feGaussianBlur>
</filter>
<rect x="-2" y="-3" class="st0" width="1925" height="1086"/>
<g>
	<text transform="matrix(1 0 0 1 649.1875 665.0991)" class="st1 st2 st3">Start-ups</text>
	<text transform="matrix(1 0 0 1 617.6875 702.7991)" class="st1 st2 st3">&amp; Innovators</text>
	<text transform="matrix(1 0 0 1 1111.0977 702.0991)" class="st1 st2 st3">Investors</text>
	<text transform="matrix(1 0 0 1 849.0977 361.0991)" class="st1 st2 st3">Policy Makers</text>
	<path id="triangleBg" class="st4" d="M959.6,488.7c-39.2,31.5-67.9,75.5-80.2,125.9c25.8,9.9,53.9,15.4,83.3,15.4
		c27.5,0,53.8-4.8,78.3-13.5C1028.8,565.2,999.6,520.5,959.6,488.7z"/>
	<g id="triangleGlow" class="st5">
		<path class="st6" d="M960,484c0,0-5.7-6-8-4c-42.2,36.2-69.2,78.2-84.4,133.4c-0.8,2.8,8.9,3.8,8.9,3.8s-5.3,6.9-2.4,7.9
			c29.2,10.1,56.6,17.7,89.2,17.7c30.3,0,54.4-7.7,81.8-16.5c3-1-0.5-9-0.5-9s10.1-2.3,9.4-5.2c-15.3-56.1-43.9-95.4-87-132
			C964.7,478,960,484,960,484z"/>
	</g>
	<g id="triangleLineGlow4" class="st7">
		<path class="st8" d="M958.6,483c-41.8,33.6-68.5,78.5-81.6,132.3c27.6,10.6,53.5,18.4,84.8,18.4c29.3,0,57.4-5.1,83.5-14.4
			C1032.4,564.6,1001.2,516.9,958.6,483z"/>
	</g>
	<g id="triangleLineGlow8" class="st9">
		<path class="st10" d="M960,474.5c-47.3,38-78.1,88.5-92.8,149.4c31.1,12,60.7,20.6,96.1,20.6c33.1,0,59.6-9,89.1-19.6
			C1037.5,563.1,1008.1,512.8,960,474.5z"/>
	</g>
	<g id="triangleLineGlowBig8" class="st11">
		<path class="st12" d="M962.2,483c-70.1,35.5-82,50.4-85.2,132.2c37.8,36.4,122.6,43.3,164-4.7
			C1032.1,532.2,1029.9,522.5,962.2,483z"/>
	</g>
	<path id="venn" class="st13" d="M809.8,432.8c133,0,240.8,107.8,240.8,240.8S942.7,914.4,809.8,914.4S569,806.6,569,673.6
		S676.8,432.8,809.8,432.8z M869.7,672.8c0,132.9,107.7,240.7,240.7,240.7S1351,805.7,1351,672.8s-107.7-240.7-240.7-240.7
		S869.7,539.9,869.7,672.8z M722,390.8c0,133,107.8,240.8,240.8,240.8s240.8-107.8,240.8-240.8S1095.8,150,962.8,150
		S722,257.8,722,390.8z"/>
	<path id="logo_1_" class="st1" d="M984.1,548.3c0,0.1-0.1,0.3-0.1,0.5c-0.1,0.3-0.3,0.7-0.4,1c-0.2,0.6-0.5,1.1-0.8,1.7v-0.1
		c0-0.5,0-0.9-0.1-1.4c-0.2-0.9-0.6-1.7-1-2.4c-0.5-0.7-1-1.3-1.6-1.9c-0.6-0.5-1.3-1-2.1-1.4c-0.4-0.2-1-0.3-1.4-0.3s-0.9,0-1.2,0
		c-0.8,0.1-1.5,0.2-2.3,0.3c-1.5,0.3-2.9,0.7-4.3,0.8c-1.4,0.1-2.9,0-4.4,0l-4.5-0.1H957l0,0c0.1-0.1,0.1-0.1,0.2-0.1l0,0l0,0h0.1
		l0,0c0.8-0.3,1.7-0.4,2.7-0.4h3.4h4.2h1.2c0.4,0,0.8,0,1.2,0c0.8-0.1,1.6-0.2,2.4-0.3l4.6-0.8c0.8-0.1,1.5-0.2,2.3-0.3
		c0.4,0,0.7-0.1,1,0c0.1,0,0.1,0,0.2,0c0,0,0.1,0,0,0h0.1c0.1,0,0.2,0.1,0.4,0.1c1.1,0.6,2.2,1.7,2.8,2.8c0.3,0.6,0.5,1.2,0.5,1.8
		C984.2,548.1,984.2,548.2,984.1,548.3 M980.9,551.2c0,0.2-0.1,0.5-0.2,0.9c-0.3,1-0.7,1.9-1.1,2.9c0-0.2,0-0.4,0.1-0.6
		c0-0.5-0.1-0.9-0.2-1.3c-0.1-0.4-0.2-0.8-0.4-1.2c-0.3-0.7-0.7-1.4-1.2-2s-1-1.2-1.6-1.7s-1.2-1-2-1.4c-0.5-0.2-0.9-0.3-1.3-0.3
		c-0.4,0-0.8,0-1.2,0c-0.7,0-1.5,0.1-2.2,0.1c-1.4,0.1-2.8,0.3-4.1,0.1l-8.5-0.5l-1.3-0.1c0,0,0.5-0.5,0.8-0.7c0.1,0,0.5,0,0.7,0
		l2.7,0.2c3,0.2,5.9,0.5,8.9,0.7c1.6,0,3-0.3,4.5-0.4c0.7-0.1,1.5-0.1,2.1-0.1c0.3,0,0.7,0,1,0.1c0.3,0,0.5,0.1,0.7,0.2
		c1.1,0.6,2.2,1.6,2.9,2.6c0.4,0.5,0.6,1.1,0.8,1.7C980.9,550.7,980.9,551,980.9,551.2 M977.7,554.3c0,0.5-0.2,1.2-0.3,1.9
		c-0.2,0.7-0.4,1.3-0.6,2c-0.4,1.3-0.8,2.5-1.2,3.8c0.1-0.3,0.2-0.7,0.2-1c0.1-0.7,0.3-1.3,0.4-2c0.1-0.7,0.2-1.3,0.1-2.3
		c-0.1-0.9-0.5-1.6-0.8-2.2c-0.4-0.6-0.8-1.2-1.2-1.8s-0.9-1.1-1.4-1.6s-1-1-1.7-1.4c-0.2-0.2-0.4-0.2-0.6-0.3
		c-0.2-0.1-0.4-0.1-0.5-0.2c-0.4-0.1-0.7-0.2-1.1-0.3c-0.7-0.1-1.4-0.2-2.1-0.2c-0.7,0-1.3,0-2-0.1c-0.6,0-1.3-0.2-2-0.2
		c-2.7-0.3-5.4-0.7-8.1-1c0.1-0.3,0.2-0.5,0.3-0.6l0.1-0.1l1.7,0.2c2.8,0.4,5.6,0.8,8.4,1.2c0.7,0.1,1.5,0.2,2.2,0.2s1.4,0,2.1,0
		c0.7,0,1.4,0,2.1,0c0.6,0,1.4,0.1,1.7,0.3c0.5,0.3,1,0.7,1.5,1.1c0.5,0.4,0.9,0.9,1.3,1.4c0.4,0.5,0.7,1.1,1,1.6
		c0.1,0.3,0.2,0.6,0.3,0.8C977.7,553.8,977.7,554.2,977.7,554.3 M976.4,581.9c-0.5-0.6-1-1.2-1.5-1.8c-0.8-1-1.7-1.9-2.6-2.8
		L972,577c-0.1-0.1-0.2-0.3-0.2-0.3s0-0.1-0.1-0.2c0-0.1,0-0.3,0-0.4c0-0.2,0-0.4,0-0.5c0,0.1,0.1,0.1,0.1,0.2l0.7,0.8l2.5,3.1
		c0.5,0.6,0.9,1.2,1.4,1.8C976.5,581.5,976.5,581.7,976.4,581.9 M976.1,583.2c-0.7-0.6-1.4-1.3-2.1-1.9l-2.8-2.4
		c-0.1-0.1-0.1-0.1-0.2-0.2c-0.1-0.1-0.3-0.4-0.4-0.6c0-0.1,0-0.1-0.1-0.2c-0.1-0.4-0.1-1.1-0.1-1.1s0.1,0,0.1,0.1v0.1l0,0l0,0
		c0,0.1,0.1,0.1,0.1,0.2c0.2,0.2,0.3,0.3,0.4,0.4l0.3,0.3l2.7,2.6c0.7,0.6,1.3,1.3,2,1.9C976.2,582.9,976.1,583.1,976.1,583.2
		 M975.8,583.9c-0.1,0.1-0.1,0.2-0.2,0.3c-0.8-0.6-1.7-1.2-2.5-1.7l-3-1.9l-0.3-0.2c-0.1-0.1,0,0-0.1-0.1c0,0,0-0.1-0.1-0.1
		c-0.1-0.2-0.2-0.4-0.3-0.7c-0.2-0.5-0.3-1.1-0.5-1.6c-0.5-2.2-0.9-4.6-1.3-6.9l-0.6-3.5c-0.1-0.6-0.2-1.1-0.3-1.8
		c-0.2-0.8-0.5-1.3-0.9-1.8c-0.6-1.1-1.3-2-2.1-3c-0.4-0.5-0.7-0.9-1.1-1.4l-0.6-0.7c-0.2-0.2-0.4-0.5-0.5-0.6
		c-0.3-0.4-0.5-0.9-0.8-1.4s-0.5-1-0.8-1.6c-0.2-0.3-0.3-0.6-0.5-0.8c-0.1-0.1-0.2-0.3-0.4-0.5c-0.2-0.1-0.3-0.2-0.4-0.3
		c-0.6-0.3-1.1-0.6-1.6-0.9c-1.3-0.6-2.6-1.2-4-1.7c0.1-0.1,0.2-0.2,0.3-0.3c0,0,0.1-0.1,0.1-0.2c0,0,0-0.1,0.1-0.1
		c1.5,0.6,2.9,1.2,4.3,1.8c0.5,0.3,1.1,0.5,1.6,0.8s1,0.6,1.4,0.9c0.9,0.7,1.7,1.6,2.5,2.5c1.6,1.8,3.2,3.6,4.3,5.6
		c0.3,0.5,0.5,1,0.6,1.4c0.1,0.5,0.2,1.1,0.2,1.7c0.1,1.2,0.2,2.4,0.2,3.6c0.2,2.4,0.3,4.9,0.6,7.3c0.1,0.6,0.2,1.2,0.3,1.9
		c0.1,0.3,0.2,0.6,0.3,1c0.1,0.1,0.1,0.2,0.2,0.3c0.1,0.1,0.1,0.1,0.2,0.2l0.4,0.3l2.9,2.2c0.8,0.6,1.6,1.2,2.4,1.8
		C975.8,583.9,975.8,583.9,975.8,583.9 M975.2,585.3c-1-0.5-2-1-3-1.5l-3.2-1.4l-0.4-0.2c-0.1,0-0.1-0.1-0.1-0.1s0,0-0.1-0.1
		s-0.3-0.4-0.4-0.6c-0.3-0.5-0.5-1-0.7-1.5c-0.9-2.1-1.5-4.3-2.2-6.5l-1-3.3c-0.2-0.6-0.4-1.1-0.6-1.7c-0.2-0.6-0.6-1.2-0.9-1.7
		c-1.4-2-3-3.6-4-5.5c-0.4-0.8-0.7-1.9-0.9-3c-0.1-0.6-0.2-1.2-0.5-1.8c-0.1-0.3-0.3-0.8-0.7-1c-0.3-0.2-0.5-0.4-0.8-0.6
		c-1.3-0.9-2.7-1.6-4-2.4c0.2-0.2,0.3-0.3,0.5-0.5l0.1-0.1c1.4,0.7,2.7,1.4,4,2.1c0.5,0.3,1,0.6,1.4,0.9c0.1,0.1,0.2,0.2,0.3,0.2
		c0,0,0.1,0.1,0.1,0.2c0.1,0.2,0.2,0.4,0.4,0.7c0.2,0.5,0.5,1,0.7,1.6s0.5,1.1,0.9,1.7l2.2,2.8c0.7,0.9,1.4,1.8,2,2.8
		c0.3,0.5,0.6,1,0.7,1.3c0.1,0.4,0.2,1.1,0.4,1.6l0.7,3.5c0.5,2.3,1,4.6,1.7,6.9c0.2,0.6,0.4,1.1,0.6,1.7c0.1,0.3,0.3,0.6,0.5,0.9
		c0.1,0.1,0.1,0.2,0.2,0.2c0.1,0.1,0.2,0.2,0.3,0.2l0.4,0.2l3.1,1.6c0.9,0.5,1.8,1,2.7,1.5C975.4,585,975.3,585.2,975.2,585.3
		 M975,585.9c-0.1,0.1-0.1,0.3-0.2,0.4c-0.1,0-0.1,0-0.2-0.1c-1.1-0.4-2.2-0.7-3.4-1c-1.1-0.3-2.3-0.6-3.3-1l-0.2-0.1
		c-0.1,0-0.1-0.1-0.1-0.1c-0.1,0-0.2-0.1-0.3-0.2c-0.2-0.2-0.4-0.4-0.5-0.6c-0.3-0.4-0.7-0.9-1-1.4c-1.2-1.9-2.3-4-3.3-6.1l-1.5-3.1
		c-0.2-0.5-0.5-1.1-0.9-1.6c-0.3-0.5-0.7-1-1-1.5c-0.7-1-1.4-1.9-2.1-2.8c-0.7-0.9-1.4-1.9-1.9-2.7c-0.2-0.3-0.2-0.7-0.3-1.3
		c0-0.5,0-1.1,0-1.7c0-0.6,0.1-1.2,0-1.8c0-0.3,0-0.6-0.1-1c-0.1-0.3-0.1-0.7-0.4-1.1c-0.1-0.2-0.1-0.1-0.2-0.3l-0.2-0.2l-0.3-0.3
		l-0.6-0.6c-0.4-0.4-0.9-0.8-1.3-1.2c-0.5-0.4-0.9-0.7-1.4-1.1c0.2-0.2,0.4-0.3,0.5-0.5c1.3,0.9,2.7,1.8,3.9,2.8
		c0.2,0.2,0.4,0.4,0.6,0.5c0.1,0.1,0.1,0.2,0.2,0.5c0.1,0.4,0.2,1,0.2,1.6c0.2,1.1,0.3,2.4,0.9,3.6c1.1,2.3,2.9,3.9,4.1,5.7
		c0.3,0.4,0.6,0.9,0.7,1.3c0.2,0.5,0.4,1,0.6,1.6c0.4,1.1,0.8,2.2,1.2,3.3c0.8,2.2,1.6,4.3,2.7,6.5c0.3,0.5,0.5,1.1,0.9,1.6
		c0.2,0.3,0.3,0.5,0.6,0.8c0.1,0.1,0.2,0.1,0.3,0.2c0.1,0.1,0.2,0.1,0.3,0.1l0.4,0.2l3.3,1.2c1.1,0.4,2.1,0.8,3.2,1.2
		C975.1,585.8,975.1,585.9,975,585.9 M974.3,587.2c-0.1,0-0.3-0.1-0.4-0.1c-1.2-0.2-2.4-0.4-3.5-0.5c-1.2-0.1-2.4-0.3-3.5-0.5
		c-0.1,0-0.3-0.1-0.3-0.1c-0.1,0-0.2-0.1-0.3-0.2c-0.2-0.1-0.4-0.3-0.6-0.5c-0.4-0.4-0.8-0.8-1.2-1.2c-1.6-1.7-3-3.6-4.4-5.5
		s-2.8-3.8-4.2-5.7c-0.7-1-1.4-1.9-2-2.9l-1-1.5l-0.5-0.7c-0.2-0.2-0.3-0.5-0.4-0.6c-0.1-0.3-0.2-0.8-0.1-1.3c0-0.5,0.1-1.1,0.3-1.6
		c0.2-1.1,0.6-2.3,0.6-3.6c0-0.4,0-0.7-0.1-1.2c0-0.1,0-0.1-0.1-0.3c-0.1-0.1-0.1-0.2-0.1-0.3c-0.1-0.2-0.2-0.3-0.3-0.4
		c-0.4-0.5-0.8-1-1.2-1.4c-0.6-0.7-1.3-1.4-2-2c0.3-0.2,0.7-0.4,1-0.7c0.5,0.4,0.9,0.8,1.4,1.3c0.4,0.4,0.8,0.8,1.2,1.2l0.6,0.6
		l0.3,0.3l0.1,0.2l0.1,0.1c0,0.1,0.1,0.3,0.1,0.5s0,0.5,0,0.8c0,0.5-0.1,1.1-0.2,1.7c-0.1,0.6-0.1,1.2-0.1,1.8s0,1.4,0.4,2.1
		c0.3,0.6,0.7,1.1,1,1.6s0.7,1,1,1.4c0.7,0.9,1.4,1.9,2.1,2.8c0.3,0.5,0.7,0.9,1,1.4s0.6,0.9,0.8,1.4c0.6,1,1.1,2.1,1.7,3.1
		c1.2,2,2.4,4,3.7,6c0.4,0.5,0.7,1,1.1,1.4c0.2,0.2,0.4,0.4,0.7,0.7c0.1,0.1,0.3,0.2,0.5,0.3c0.1,0.1,0.2,0.1,0.3,0.1l0.2,0.1
		c1.2,0.3,2.3,0.5,3.5,0.7c1.1,0.2,2.3,0.4,3.4,0.7c0,0,0,0,0.1,0C974.5,586.9,974.4,587.1,974.3,587.2 M973.9,587.7
		C973.9,587.7,973.9,587.8,973.9,587.7c-0.1,0.1-0.2,0.2-0.3,0.3c-0.2,0-0.4,0-0.6-0.1c-1.2-0.1-2.5,0-3.7,0c-0.6,0-1.2,0-1.8,0
		s-1.2,0-1.7-0.2c-1-0.3-2-1.1-2.9-1.9c-1.9-1.5-3.6-3.3-5.3-5c-0.8-0.9-1.7-1.8-2.5-2.7s-1.6-1.8-2.4-2.7c-0.8-0.9-1.5-1.9-2.2-2.8
		c-0.4-0.5-0.7-1-1-1.5c-0.2-0.2-0.3-0.5-0.5-0.7l-0.2-0.4l-0.1-0.1l0,0c0,0,0,0,0-0.1c-0.1-0.3,0-0.9,0.1-1.4
		c0.1-0.6,0.3-1.1,0.5-1.7c0.4-1.2,0.8-2.3,1.1-3.6c0.2-0.6,0.3-1.3,0.3-2c0-0.2,0-0.4-0.1-0.7c-0.1-0.2-0.1-0.2-0.1-0.3l0,0V560
		l0,0l0,0l-0.1-0.1l-0.5-0.8c-0.7-1-1.5-2-2.3-3c-0.1-0.1-0.2-0.3-0.3-0.4c0.3-0.2,0.6-0.4,0.9-0.6c0.7,0.8,1.4,1.6,2,2.4
		c0.4,0.5,0.7,0.9,1,1.4c0.1,0.1,0.1,0.2,0.2,0.3c0.1,0.1,0.1,0.1,0.1,0.3c0,0.1,0,0.4,0,0.6c-0.1,1-0.6,2.1-0.9,3.3
		c-0.2,0.6-0.3,1.2-0.4,1.9c-0.1,0.7-0.1,1.4,0.2,2.2c0.2,0.4,0.3,0.7,0.5,0.9l0.5,0.8c0.3,0.5,0.7,1,1,1.5c0.7,1,1.4,1.9,2.1,2.9
		c2.8,3.8,5.8,7.6,9.2,11c0.4,0.4,0.9,0.8,1.4,1.2c0.2,0.2,0.5,0.4,0.8,0.6c0.1,0.1,0.3,0.2,0.5,0.2c0.2,0.1,0.4,0.1,0.5,0.1
		c1.2,0.2,2.4,0.2,3.6,0.3c1.2,0.1,2.4,0.1,3.5,0.2c0.1,0,0.2,0,0.3,0C974,587.7,974,587.7,973.9,587.7 M972.9,589L972.9,589
		c-0.1,0.1-0.1,0.1-0.2,0.2c-0.2,0-0.4,0-0.6,0c-1.3,0.1-2.6,0.3-3.9,0.5c-1.3,0.1-2.6,0.3-3.7,0.1c-0.1,0-0.3-0.1-0.3-0.1h-0.1H964
		l-0.2-0.1L963,589l-1.6-1c-2.2-1.4-4.3-2.8-6.4-4.3c-1-0.7-2.1-1.5-3-2.3c-0.5-0.4-0.9-0.8-1.3-1.2c-0.4-0.5-0.9-0.9-1.3-1.4
		c-0.8-1-1.6-2-2.3-3c-0.4-0.5-0.7-1.1-1.1-1.6l-0.3-0.4l-0.1-0.2c0-0.1-0.1-0.1-0.1-0.1c-0.1-0.2-0.1-0.4-0.2-0.6
		c-0.1-0.9,0.4-2.1,0.9-3.3c0.4-1,0.9-2,1.4-3.1c-0.2,0.6-0.4,1.1-0.6,1.8c-0.2,0.7-0.4,1.3-0.2,2.3c0,0.2,0.2,0.6,0.2,0.7l0.2,0.4
		c0.2,0.3,0.3,0.6,0.5,0.8c0.3,0.5,0.7,1.1,1.1,1.6c0.7,1,1.5,2,2.3,3c1.6,1.9,3.4,3.7,5.2,5.4s3.7,3.3,5.8,4.8c0.5,0.4,1,0.7,1.6,1
		s1.1,0.6,1.8,0.8c0.7,0.1,1.4,0.1,2,0.1s1.2-0.1,1.9-0.2c1.2-0.1,2.4-0.3,3.7-0.4c0.1,0,0.2,0,0.3,0
		C973.1,588.6,973,588.8,972.9,589 M972,590.2c0,0.1-0.1,0.1-0.1,0.2c-0.3,0-0.5,0.1-0.8,0.1c-1.4,0.2-2.7,0.5-4.1,0.8
		c-0.7,0.1-1.4,0.3-2,0.4c-0.3,0.1-0.7,0.1-1,0.1c-0.2,0-0.6-0.1-0.9-0.1c-1.3-0.3-2.5-0.9-3.7-1.5c-2.4-1.2-4.8-2.6-7.2-4
		c-1.2-0.7-2.4-1.4-3.5-2.1c-1.1-0.7-2.1-1.5-2.9-2.5c-0.8-1-1.6-2.1-2.3-3.2l-1.1-1.7l-0.3-0.4c0-0.1-0.1-0.1-0.1-0.2
		c0-0.2-0.1-0.4,0-0.7c0.1-1.1,0.7-2.4,1.3-3.6c0.1-0.1,0.1-0.3,0.2-0.4c-0.1,0.5-0.2,1-0.2,1.6c0,0.4,0.1,0.9,0.3,1.3
		c0,0.1,0.1,0.2,0.2,0.3l0.1,0.2l0.3,0.4c0.4,0.6,0.7,1.1,1.1,1.7c0.7,1.1,1.5,2.2,2.4,3.2c0.4,0.5,0.9,1,1.4,1.5s1,1,1.5,1.4
		c1.1,0.8,2.1,1.6,3.2,2.3c2.2,1.4,4.5,2.7,6.8,4l1.7,0.9l0.9,0.5l0.2,0.1l0.1,0.1l0.1,0.1c0.2,0.1,0.4,0.1,0.6,0.2
		c0.7,0.1,1.4,0,2.1-0.1c0.7-0.1,1.3-0.2,1.9-0.3c1.3-0.2,2.5-0.6,3.8-0.8c0.1,0,0.1,0,0.2,0C972.2,589.8,972.1,590,972,590.2
		 M971.4,591.5c-0.4,0.1-0.8,0.2-1.2,0.3L966,593c-0.7,0.2-1.4,0.4-2.1,0.5c-0.4,0.1-0.7,0.1-1,0.1s-0.6-0.1-1-0.1
		c-1.4-0.3-2.8-0.8-4.1-1.3c-2.7-1-5.4-2.2-8.1-3.5c-1.3-0.6-2.6-1.3-3.9-1.9c-0.6-0.3-1.3-0.7-1.8-1.1c-0.5-0.4-1-0.9-1.5-1.4
		c-0.9-1.1-1.8-2.2-2.6-3.4c-0.4-0.6-0.8-1.2-1.1-1.8c0-0.1-0.1-0.1-0.1-0.1v-0.1c0-0.1,0-0.2,0-0.3c0-0.3,0.1-0.6,0.1-0.9
		c0.3-1.1,0.9-2.2,1.5-3.3c0,0.2-0.1,0.4-0.1,0.6c-0.1,0.4-0.1,0.9,0,1.4c0.1,0.2,0.2,0.5,0.3,0.7l0.3,0.5l1.1,1.8
		c0.8,1.2,1.5,2.4,2.5,3.5s2.2,2.1,3.4,2.8c1.2,0.8,2.5,1.4,3.7,2c2.5,1.3,4.9,2.5,7.5,3.6c1.3,0.5,2.6,1.1,4,1.4
		c0.4,0.1,0.7,0.1,1.2,0.1c0.4-0.1,0.7-0.1,1.1-0.2c0.7-0.2,1.3-0.4,2-0.5c1.3-0.4,2.7-0.8,4-1.1c0.2,0,0.3-0.1,0.5-0.1
		C971.6,591,971.5,591.3,971.4,591.5 M971.1,592.7c-0.5,0.2-1.1,0.4-1.7,0.6l-4.5,1.6c-0.7,0.2-1.5,0.5-2.2,0.7
		c-0.2,0-0.4,0.1-0.5,0.1s-0.3,0-0.5,0c-0.4,0-0.7-0.1-1.1-0.1c-1.5-0.2-3-0.7-4.5-1.1c-3-0.9-6-1.9-8.9-3c-1.5-0.5-2.9-1.1-4.4-1.7
		l-1.1-0.5l-0.5-0.2c-0.2-0.1-0.3-0.1-0.4-0.2c-0.6-0.3-1.1-0.8-1.6-1.3c-1-1.1-1.9-2.3-2.7-3.6c-0.4-0.6-0.8-1.4-1.1-2
		c-0.2-0.3-0.1-0.9,0.1-1.6c0.3-0.8,0.8-1.7,1.3-2.6c-0.1,0.3-0.1,0.5-0.1,0.8c0,0.2,0,0.5,0,0.8c0,0.1,0.1,0.3,0.1,0.4
		c0,0.1,0.1,0.3,0.1,0.4c0.4,0.8,0.8,1.4,1.2,2c0.8,1.3,1.8,2.5,2.8,3.6c0.5,0.6,1.1,1.1,1.8,1.6s1.4,0.9,2,1.2
		c1.4,0.7,2.7,1.3,4.1,1.9c2.8,1.2,5.5,2.2,8.4,3.1c1.4,0.4,2.9,0.9,4.4,1.1c0.4,0.1,0.8,0.1,1.2,0.1s0.8-0.1,1.2-0.2
		c0.7-0.2,1.5-0.4,2.2-0.7c1.4-0.5,2.8-1,4.2-1.5l0.9-0.3C971.2,592.2,971.2,592.4,971.1,592.7 M970.4,593.9
		c-0.1,0.1-0.1,0.1-0.2,0.2c-2,0.9-4.3,2-7.5,3c-0.4,0.1-0.8,0.2-1.2,0.3s-0.7,0.1-1.1,0.1c-0.8,0-1.6-0.1-2.4-0.3
		c-1.6-0.3-3.2-0.6-4.8-1c-3.2-0.7-6.3-1.6-9.5-2.5c-1.6-0.5-3.1-0.9-4.6-1.5c-0.4-0.1-0.8-0.3-1.1-0.4c-0.3-0.1-0.7-0.3-0.9-0.4
		c-0.5-0.4-1.1-0.9-1.6-1.5c-1-1.1-2-2.4-2.8-3.8c-0.4-0.7-0.7-1.3-0.8-1.9c0-0.1,0-0.5,0.1-0.8s0.3-0.7,0.4-1
		c0.3-0.5,0.6-1.1,0.9-1.6c0,0,0,0,0,0.1c-0.1,0.5,0,1.1,0.2,1.7c0.4,0.8,0.8,1.4,1.2,2.2c0.8,1.4,1.8,2.7,3,3.9
		c0.6,0.6,1.2,1.2,2,1.7c0.2,0.1,0.4,0.2,0.6,0.3l0.6,0.3c0.4,0.2,0.7,0.3,1.1,0.5c1.5,0.6,3,1.1,4.5,1.6c3,1,6.1,1.9,9.1,2.6
		c1.5,0.4,3.1,0.7,4.7,0.9c0.4,0,0.8,0.1,1.2,0.1c0.2,0,0.4,0,0.7-0.1c0.2-0.1,0.4-0.1,0.6-0.2c0.8-0.2,1.5-0.5,2.3-0.8
		c2-0.8,3.7-1.6,5.6-2.4C970.7,593.4,970.6,593.6,970.4,593.9 M968.3,595.6c-0.4,0.3-0.8,0.6-1.3,0.8c-0.3,0.2-0.5,0.3-0.5,0.3
		c-0.3,0.1-0.6,0.3-0.8,0.4c-0.6,0.3-2.5,1.1-2.5,1.1l0,0c-0.3,0.2-0.7,0.3-1,0.4l0,0c-0.6,0.2-1.2,0.4-1.7,0.5
		c-0.2,0-0.4,0.1-0.6,0.1c-0.2,0-0.4,0-0.6,0c-0.4,0-0.8,0-1.2,0c-3.2-0.3-6.5-0.9-9.7-1.5c-1.6-0.3-3.2-0.7-4.8-1s-3.2-0.7-4.8-1.1
		l-2.4-0.6c-0.8-0.2-1.6-0.4-2.2-0.7c-0.5-0.2-1.1-0.7-1.7-1.2c-0.6-0.5-1.1-1.1-1.5-1.7c-0.5-0.6-0.9-1.3-1.3-1.9
		c-0.4-0.7-0.7-1.4-0.9-2c0-0.1-0.1-0.3-0.1-0.4v-0.2c0,0,0-0.1,0-0.2c0.1-0.3,0.2-0.6,0.3-1c0.3-0.6,0.6-1.3,1-1.9
		c0,0.2,0,0.4,0,0.7c0.1,1,0.6,1.9,1,2.6c0.8,1.5,1.9,2.9,3.1,4.2c0.6,0.6,1.2,1.2,2,1.8c0.5,0.3,0.9,0.4,1.3,0.6
		c0.4,0.2,0.8,0.3,1.2,0.4c1.6,0.5,3.2,0.9,4.8,1.4c3.2,0.8,6.4,1.5,9.7,2.1c1.6,0.3,3.3,0.6,4.9,0.8c0.8,0.1,1.7,0.2,2.5,0.2
		c0.4,0,1-0.1,1.3-0.2c0.4-0.1,0.8-0.3,1.2-0.4c1.6-0.6,3.1-1.3,4.5-2.1c0.4-0.2,0.8-0.4,1.1-0.5
		C968.5,595.4,968.4,595.5,968.3,595.6 M940.9,564.2c0-0.1,0-0.2,0-0.3c0,0.5,0.1,1,0.1,1.5c0,0.4,0.1,0.8,0.2,1.2v0.1
		c0,0,0,0,0,0.1v0.1c0,0.1,0,0.1,0,0.2c0,0.2,0,0.3-0.1,0.5c0,0.1-0.1,0.3-0.1,0.4c0-0.2,0-0.4,0-0.5l-0.1-1.3c0-0.4,0-0.9,0-1.3
		C940.8,564.6,940.8,564.4,940.9,564.2 M942.2,560.3c0.1,0.3,0.1,0.7,0.2,1l0.4,2.2l0.2,1.1c0.1,0.3,0.2,0.8,0.1,1
		c0,0.6-0.3,1.2-0.6,1.8c-0.1,0.2-0.2,0.3-0.2,0.5v-0.1c0-0.2,0.1-0.5,0.1-0.7c0-0.1,0-0.2,0-0.4c0-0.1,0-0.1,0-0.2v-0.2
		c-0.1-0.4-0.2-0.8-0.2-1.1c-0.1-0.8-0.3-1.5-0.4-2.3c-0.1-0.4-0.1-0.8-0.2-1.3C941.7,561.3,942,560.8,942.2,560.3 M943.5,558.6
		c0.1,0.5,0.3,0.9,0.4,1.4l0.6,2l0.3,1c0.1,0.3,0.2,0.7,0.3,0.9c0.1,0.5-0.1,1.1-0.4,1.7c-0.2,0.4-0.4,0.8-0.6,1.2
		c0.1-0.4,0.2-0.7,0.2-1.2c0-0.6-0.2-0.8-0.2-1.2l-0.3-1.1l-0.6-2.1l-0.4-1.8C943,559.1,943.2,558.8,943.5,558.6 M944.9,557.4
		c0.2,0.4,0.4,0.8,0.5,1.2c0.5,1.2,1.1,2.4,1.6,3.5c0.4,0.9-0.1,2.1-0.6,3.2c-0.1,0.2-0.2,0.5-0.4,0.7c0.2-0.7,0.4-1.4,0.3-2.3
		c-0.1-0.5-0.3-0.7-0.4-1.1l-0.4-1l-0.8-1.9c-0.2-0.6-0.5-1.1-0.7-1.7C944.4,557.8,944.6,557.6,944.9,557.4 M949.2,560.9
		L949.2,560.9L949.2,560.9 M946.3,556.4c0.1,0.2,0.2,0.3,0.3,0.5c0.7,1,1.3,2.1,2,3.1l0.5,0.8l0.1,0.1l0,0l0,0
		c0,0.1,0.1,0.2,0.1,0.2s0,0.1,0,0.2c0,0.5-0.2,1-0.4,1.6c-0.3,0.9-0.7,1.7-1,2.6c0.2-0.5,0.4-1.1,0.5-1.7c0.1-0.7,0.1-1.6-0.2-2.3
		c-0.6-1.2-1.2-2.3-1.9-3.5c-0.2-0.4-0.5-0.8-0.7-1.2C945.8,556.7,946.1,556.6,946.3,556.4 M954.3,549.1c2,0.6,4,1.2,5.9,1.8
		c1.2,0.4,2.4,0.8,3.5,1.3c0.6,0.2,1.1,0.5,1.7,0.8c0.6,0.3,0.9,0.5,1.3,0.9c0.9,0.8,1.7,1.7,2.4,2.7c0.8,0.9,1.5,1.9,1.9,2.9
		c0.1,0.2,0.2,0.5,0.2,0.7s0,0.5,0,0.8c0,0.6,0,1.2-0.1,1.8c-0.1,1.2-0.2,2.5-0.3,3.8c-0.2,1.9-0.3,3.8-0.4,5.7c0,0,0,0.1,0,0.2
		c0,0.1,0,0.2,0,0.3s0,0.2,0,0.3c0,0.7-0.1,0.7-0.1,0.7s0-0.1,0-0.3c0-0.3,0-0.6,0-0.9c0-0.5,0-1-0.1-1.4c0-0.8,0-1.6,0-2.4
		c0-1.2,0-2.4-0.1-3.7c0-0.6-0.1-1.2-0.2-1.9c-0.1-0.7-0.4-1.4-0.7-2c-1.3-2.3-2.8-4.2-4.6-6c-0.9-0.9-1.8-1.7-2.8-2.5
		c-0.6-0.4-1.2-0.7-1.8-0.9s-1.2-0.5-1.7-0.7c-1.4-0.5-2.9-1-4.4-1.4C954.1,549.5,954.2,549.3,954.3,549.1 M972.8,574.8
		c0-0.1,0-0.3,0-0.4c0-0.2,0-0.4,0.1-0.6v0.1l0.6,0.9l2.3,3.6l0.2,0.4c0,0.1,0,0.1,0.1,0.2c0.1,0.3,0.2,0.6,0.3,0.9
		c-0.2-0.3-0.3-0.5-0.5-0.8c-0.8-1.1-1.5-2.2-2.3-3.2l-0.6-0.8C972.8,575.1,972.8,575,972.8,574.8 M954.6,548.3
		c0.1-0.2,0.1-0.3,0.2-0.4h0.3c2.6,0.5,5.2,1,7.8,1.7c2.5,0.8,5.6,0.7,7.3,1.8c0.4,0.3,0.9,0.8,1.3,1.2c0.4,0.5,0.9,0.9,1.2,1.4
		c0.4,0.5,0.8,1,1.1,1.5s0.5,1,0.6,1.5c0.1,0.4,0,1.1-0.1,1.7c-0.1,0.6-0.2,1.3-0.3,1.9c-0.2,1.3-0.5,2.6-0.8,3.9
		c-0.2,0.8-0.3,1.6-0.5,2.4v-0.1c0.1-1.3,0.3-2.5,0.4-3.8c0.1-0.6,0.1-1.3,0.1-2c0-0.3,0-0.7-0.1-1.1c-0.1-0.5-0.2-0.8-0.3-1.1
		c-0.6-1.3-1.4-2.4-2.2-3.4s-1.7-2-2.7-2.9c-0.1-0.1-0.3-0.2-0.4-0.3c-0.1-0.1-0.4-0.3-0.5-0.3c-0.4-0.2-0.6-0.3-1-0.5
		c-0.6-0.3-1.2-0.5-1.9-0.6c-1.2-0.4-2.5-0.7-3.7-1c-2-0.5-4-0.9-6-1.3C954.6,548.4,954.6,548.3,954.6,548.3 M986.9,547.2
		c0-0.3-0.1-0.7-0.2-1c-0.1-0.3-0.2-0.6-0.3-1c-0.4-1-1.1-1.9-1.9-2.5c-1.9-1.6-3.4-1.5-4.9-1.5c-1.6-0.1-4.9,1.1-4.9,1.1l0,0
		c-1,0.3-1.9,0.5-2.9,0.7c-0.8,0.2-1.5,0.4-2.2,0.5c-0.3,0.1-0.7,0.1-1.1,0.1l-1.2,0.1l-4.7,0.2H962c-0.1,0-0.3,0-0.4,0
		c-1.1,0-2.3,0-3.5,0.2c-1.4,0.2-2.5,0.9-3.2,1.3l0,0c0,0-0.2,0.2-0.5,0.3c-0.1,0.1-0.1,0.1-0.1,0.1l0,0l-0.1,0.1
		c-0.2,0.2-0.4,0.5-0.6,0.8c0,0,0,0.1-0.1,0.1c-0.2,0.3-0.4,0.6-0.6,1l0,0c-0.2,0.2-0.3,0.5-0.5,0.7c-0.1,0.2-0.2,0.3-0.3,0.4
		c-0.2,0.2-0.3,0.4-0.3,0.4c-0.4,0.4-0.7,0.9-1.1,1.3c-0.3,0.4-0.7,0.7-1,1.1c-0.7,0.7-1.2,1.2-2.1,1.8l-0.3,0.2
		c-1.5,0.9-3.1,1.8-4.5,3c-0.2,0.1-0.3,0.3-0.5,0.5c-0.2,0.1-0.3,0.2-0.4,0.3c-0.2,0.2-0.3,0.3-0.3,0.3l-0.6,0.6l-0.5,0.6
		c-0.1,0.1-0.2,0.2-0.3,0.3l-0.2,0.3l-0.5,0.7c-0.3,0.5-0.6,0.9-0.8,1.4c-0.5,1-0.8,2-1.1,3s-0.5,2.1-0.6,3.1c-0.1,1.1-0.2,2-0.4,3
		c-0.1,0.3-0.1,0.6-0.2,0.9c-0.2,0.3-0.4,0.7-0.6,1c-0.4,0.7-0.9,1.3-1.4,2c-2,2.6-4.2,5-6.1,7.9c-0.5,0.7-0.9,1.5-1.3,2.3
		c-0.2,0.4-0.3,0.9-0.4,1.4c0,0.1,0,0.3-0.1,0.4c0,0.2,0,0.2,0,0.4c0,0.3,0.1,0.6,0.1,0.8c0.2,1,0.7,1.8,1.1,2.5
		c0.4,0.8,0.9,1.5,1.5,2.2c0.5,0.7,1.1,1.3,1.8,1.9c0.6,0.6,1.3,1.2,2.3,1.6c0.9,0.3,1.7,0.5,2.5,0.7s1.6,0.4,2.4,0.6
		c3.2,0.7,6.5,1.3,9.8,1.8s6.6,0.9,9.9,1c0.4,0,0.8,0,1.3,0c0.2,0,0.4,0,0.7-0.1c0.2,0,0.4-0.1,0.6-0.2c0.8-0.3,1.6-0.6,2.4-0.9
		c0.8-0.4,1.7-0.8,2.4-1.3c0.8-0.4,1.6-0.8,2.4-1.3c0.4-0.2,0.8-0.5,1.3-0.7l0,0c0,0,1.4-0.8,2.3-1.7c0.3-0.4,0.7-0.8,0.9-1.2
		c0.3-0.5,0.4-1.1,0.6-1.6c0.1-0.2,0.1-0.4,0.2-0.6c0.2-0.3,0.6-0.8,0.6-0.8c0.4-0.4,0.8-0.8,1.1-1c0.1,0,0.1-0.1,0.2-0.1l0,0
		c0.1-0.1,0.3-0.2,0.4-0.4l0,0c0.1,0,0.1-0.1,0.1-0.1l0,0c0.1-0.1,0.2-0.2,0.2-0.2l0,0c0.2-0.2,0.4-0.4,0.5-0.6l0,0
		c0.1-0.1,0.1-0.1,0.1-0.1c0.4-0.5,0.6-0.9,0.9-1.4l0.1-0.1c0.1-0.2,0.2-0.4,0.3-0.6c0.5-1.1,0.9-2.6,1.1-4.4
		c0.1-0.4,0.1-0.9,0.1-1.3c0-0.2,0.1-1.1-0.1-2c-0.1-0.3-0.1-0.7-0.2-1c-0.3-1-0.5-1.8-0.8-2.7c0-0.2,0-0.3-0.1-0.5
		c-0.2-1.1-0.2-2.2,0-3.2c0.2-1.1,0.5-2.1,0.9-3.1s1-2,1.6-3s1.2-2,1.8-3c1.2-2,2.4-4,3.3-6.2c0.5-1.1,0.8-2.3,1.1-3.4l0.1-0.4
		c0-0.1,0-0.2,0-0.2v-0.1l0,0c0.1-0.4,0.3-0.8,0.3-1.3c0.1-0.3,0.1-0.6,0.1-1C986.9,547.9,986.9,547.6,986.9,547.2"/>
</g>
</svg>
