<?xml version="1.0" encoding="utf-8"?>
<!-- Generator: Adobe Illustrator 16.0.4, SVG Export Plug-In . SVG Version: 6.00 Build 0)  -->
<!DOCTYPE svg PUBLIC "-//W3C//DTD SVG 1.1//EN" "http://www.w3.org/Graphics/SVG/1.1/DTD/svg11.dtd">
<svg version="1.1" id="Layer_1" xmlns="http://www.w3.org/2000/svg" xmlns:xlink="http://www.w3.org/1999/xlink" x="0px" y="0px"
	 width="1312px" height="516px" viewBox="0 0 1312 516" enable-background="new 0 0 1312 516" xml:space="preserve">
<g>
	<path fill-rule="evenodd" clip-rule="evenodd" d="M471.11,143.53c21.521,0,42.296,0,63.843,0c0,1.849,0,3.599,0,5.349
		c-0.006,50.333,0.109,100.666-0.061,150.998c-0.107,31.666-0.789,63.326-6.885,94.563c-4.775,24.47-12.784,47.581-29.119,67.027
		c-18.027,21.461-41.882,32.551-68.832,37.229c-45.803,7.95-86.733-3.919-123.367-31.909c-0.524-0.4-0.984-0.886-1.932-1.747
		c10.375-14.171,20.744-28.333,31.13-42.519c6.934,3.75,13.373,7.528,20.062,10.795c18.315,8.941,37.323,13.992,57.967,10.162
		c19.258-3.573,33.588-13.871,43.284-30.743c9.621-16.74,12.778-35.087,13.553-54.816c-3.984,2.913-7.243,5.677-10.849,7.871
		c-26.338,16.034-54.233,17.782-83.148,8.524c-50.396-16.136-82.411-59.192-83.212-112.984c-0.566-37.99-0.11-75.997-0.094-113.996
		c0-1.134,0.187-2.268,0.315-3.73c20.961,0,41.699,0,63.242,0c0,1.977,0,3.885,0.001,5.793c0.017,36.833-0.062,73.666,0.081,110.498
		c0.115,29.551,19.503,52.462,48.273,57.435c33.169,5.732,65.247-20.489,65.609-54.278c0.404-37.662,0.121-75.331,0.137-112.997
		C471.11,148.071,471.11,146.089,471.11,143.53z"/>
	<path fill-rule="evenodd" clip-rule="evenodd" d="M196.525,138.818c0-39.504,0-78.399,0-117.463c21.405,0,42.163,0,63.56,0
		c0,1.991,0,3.763,0,5.534c-0.005,76.805,0.034,153.609-0.029,230.414c-0.044,54.512-32.036,99.133-83.546,116.766
		c-68.732,23.529-145.655-23.028-156.556-94.754c-10.178-66.974,32.107-126.591,98.713-138.87
		c6.667-1.229,13.577-1.473,20.381-1.557c17.158-0.212,34.319-0.07,51.48-0.07C192.313,138.818,194.098,138.818,196.525,138.818z
		 M196.086,201.964c-6.317,0-12.439-0.078-18.558,0.016c-15.807,0.242-31.772-0.764-47.384,1.129
		c-30.288,3.672-50.438,30.475-48.23,61.942c1.973,28.14,27.478,51.55,56.459,51.823c32.096,0.302,57.633-25.109,58.042-58.031
		c0.217-17.489,0.016-34.983-0.018-52.476C196.394,205.074,196.219,203.782,196.086,201.964z"/>
	<path fill-rule="evenodd" clip-rule="evenodd" d="M781.451,259.389c-0.074-66.51,53.65-120.34,120.329-120.566
		c66.856-0.227,121.082,53.562,121.193,120.22c0.112,66.608-53.942,120.829-120.586,120.957
		C835.772,380.127,781.524,326.024,781.451,259.389z M902.019,201.83c-31.809-0.029-57.479,25.399-57.775,57.232
		c-0.294,31.566,25.957,57.927,57.694,57.935c31.737,0.007,57.932-26.206,57.812-57.854
		C959.631,227.509,933.794,201.858,902.019,201.83z"/>
	<path fill-rule="evenodd" clip-rule="evenodd" d="M1111.986,374.939c-21.462,0-42.249,0-63.774,0c0-1.916,0-3.682,0-5.447
		c0.006-35.986-0.058-71.973,0.033-107.958c0.156-61.429,41.126-110.279,101.508-121.175
		c64.082-11.562,128.925,35.072,138.239,99.59c1.115,7.72,1.68,15.581,1.721,23.381c0.189,34.985,0.097,69.972,0.105,104.958
		c0,1.981,0,3.962,0,6.342c-21.201,0-42.094,0-63.771,0c0-1.726,0-3.644,0-5.561c0.002-36.485,0.081-72.972-0.022-109.457
		c-0.073-26.049-17.09-48.283-41.877-55.108c-24.932-6.864-51.172,3.856-64.467,26.431c-5.271,8.95-7.706,18.7-7.703,29.079
		c0.01,36.152,0.007,72.305,0.009,108.457C1111.986,370.446,1111.986,372.422,1111.986,374.939z"/>
	<path fill-rule="evenodd" clip-rule="evenodd" d="M591.375,301.575c19.607,12.332,40.366,20.045,62.789,22.953
		c10.772,1.396,21.642,1.694,32.189-1.597c3.438-1.073,6.925-2.614,9.803-4.737c8.323-6.141,8.059-15.458-1.211-20.01
		c-8.127-3.991-17.021-6.587-25.777-9.097c-21.886-6.274-44.251-11.086-64.74-21.507c-17.755-9.03-32.035-21.538-36.325-41.901
		c-5.514-26.178,2.954-47.938,23.314-65.03c16.756-14.067,36.777-20.08,58.116-21.164c31.604-1.606,62.037,3.689,90.272,18.76
		c4.499,2.401,8.635,5.484,13.337,8.508c-10.217,13.927-20.027,27.3-30.001,40.896c-6.94-2.387-13.714-4.99-20.648-7.047
		c-18.021-5.346-36.345-8.593-55.171-5.498c-4.658,0.766-9.473,2.289-13.531,4.643c-8.536,4.948-8.509,14.124,0.41,18.211
		c9.766,4.475,20.183,7.572,30.407,10.995c19.058,6.381,38.209,12.479,57.251,18.905c3.424,1.155,6.59,3.18,9.733,5.042
		c30.293,17.945,39.852,47.39,25.911,79.786c-9.399,21.846-27.33,33.893-48.796,41.249c-27.032,9.266-54.355,7.945-81.666,0.729
		c-23.729-6.271-45.868-15.786-65.792-31.539C571.254,329.327,581.177,315.641,591.375,301.575z"/>
</g>
</svg>
