<?xml version="1.0" encoding="utf-8"?>
<!-- Generator: Adobe Illustrator 18.1.1, SVG Export Plug-In . SVG Version: 6.00 Build 0)  -->
<svg version="1.1" xmlns="http://www.w3.org/2000/svg" xmlns:xlink="http://www.w3.org/1999/xlink" x="0px" y="0px"
	 viewBox="0 0 1420.4 849.1" style="enable-background:new 0 0 1420.4 849.1;" xml:space="preserve">
<style type="text/css">
	.st0{fill:none;}
	.st1{fill-rule:evenodd;clip-rule:evenodd;}
</style>
<g id="Layer_2">
</g>
<g id="Layer_1">
	<g>
		<path class="st0" d="M534.2,849.1c121.2,0,242.1,0,363.3,0c0-91.5,0-182.8,0-274.3c-121.2,0-242.1,0-363.3,0
			C534.2,666.3,534.2,757.7,534.2,849.1z"/>
		<path class="st1" d="M534.2,849.1c0-91.5,0-182.8,0-274.3c121.2,0,242.1,0,363.3,0c0,91.5,0,182.8,0,274.3
			C776.3,849.1,655.4,849.1,534.2,849.1z M862.2,610.4c-97.9,0-195.3,0-292.7,0c0,68,0,135.6,0,203.3c97.7,0,195.2,0,292.7,0
			C862.2,745.7,862.2,678.2,862.2,610.4z"/>
		<path class="st1" d="M788.6,784.5c-48.6,0-96.8,0-145.7,0c0.3-2.8,0.4-5.5,0.9-8.1c2.9-15.2,9.3-28.7,20.4-39.7
			c2.5-2.5,5.4-4.5,8.2-6.6c4.7-3.4,8.5-4,14.4-0.4c20.3,12.4,41,11.6,61-1.3c2.8-1.8,4.8-1.9,7.5-0.4c13.1,7,21.5,18.1,27,31.4
			c2.6,6.3,4.1,13.1,5.9,19.8C788.7,780.7,788.5,782.5,788.6,784.5z"/>
		<path class="st1" d="M673.7,681.8c0-23.6,19.2-42.7,42.7-42.6c23.6,0.1,42.3,19.2,42.2,43c-0.1,23.3-19.1,42.1-42.7,42
			C692.5,724.3,673.7,705.4,673.7,681.8z"/>
	</g>
	<g>
		<path class="st0" d="M0,830.8c2.3,0,4,0,5.8,0c43.1,0,86.2,0.1,129.3-0.1c9.4,0,18.2,1.9,26.2,7c14.4,9.3,28.8,9.3,43.3,0
			c7.8-5.1,16.4-7,25.7-7c43.4,0.1,86.8,0.1,130.2,0.1c1.7,0,3.4,0,5.2,0c0-65.2,0-129.8,0-194.4c-6.2,0-12,0-18.1,0
			c0,57.8,0,115.2,0,173c-3.6,0.6-7,1.1-11.1,1.8c0-70.4,0-140.2,0-210.2c-24.6,0.7-48.5,2.6-72.1,6.8c-27.7,4.9-54.5,12.2-79,26.7
			c-2.2,1.3-3.7,0.8-5.6-0.3c-12.9-7.7-26.8-13.2-41.1-17.6c-31.1-9.4-63-13.3-95.3-15c-4.8-0.3-9.6,0-14.7,0
			c0,69.9,0,139.6,0,209.6c-3.7-0.6-7-1.2-10.6-1.8c0-57.9,0-115.4,0-173c-6.3,0-12.1,0-18,0C0,701.3,0,765.8,0,830.8z"/>
		<path class="st1" d="M0,830.8c0-65,0-129.6,0-194.4c6,0,11.8,0,18,0c0,57.6,0,115.1,0,173c3.7,0.6,7,1.2,10.6,1.8
			c0-70,0-139.7,0-209.6c5.1,0,10-0.2,14.7,0c32.3,1.7,64.2,5.6,95.3,15c14.3,4.4,28.2,9.9,41.1,17.6c1.9,1.1,3.3,1.6,5.6,0.3
			c24.4-14.4,51.3-21.8,79-26.7c23.6-4.2,47.5-6.1,72.1-6.8c0,70,0,139.7,0,210.2c4.1-0.7,7.5-1.2,11.1-1.8c0-57.8,0-115.2,0-173
			c6.1,0,11.9,0,18.1,0c0,64.6,0,129.2,0,194.4c-1.8,0-3.5,0-5.2,0c-43.4,0-86.8,0.1-130.2-0.1c-9.3,0-17.9,1.9-25.7,7
			c-14.4,9.4-28.8,9.4-43.3,0c-7.9-5.1-16.7-7.1-26.2-7c-43.1,0.1-86.2,0.1-129.3,0.1C4,830.8,2.3,830.8,0,830.8z M167.3,807.3
			c0,0.3,0.1-0.3,0.1-0.9c0-47.1,0-94.2-0.1-141.3c0-1.5-1.4-3.5-2.7-4.3c-4.9-2.8-9.8-5.4-15-7.7c-24.8-10.7-51.1-15.6-77.8-18.7
			c-4.3-0.5-8.7-0.8-13-1.2c0,51.4,0,102.1,0,152.1c18.7,2.7,36.9,4.6,54.9,8.2C131.8,797.3,149.5,802.7,167.3,807.3z M306.8,632.8
			c-13,1.8-25.5,3.2-37.9,5.3c-23.3,4-45.8,10.2-66.7,21.8c-3.1,1.7-4.3,3.6-4.3,7.2c0.1,45.5,0.1,90.9,0.1,136.4c0,1.6,0,3.1,0,5.3
			c35.5-13.7,71.9-19.5,108.8-22.6C306.8,735.1,306.8,684.5,306.8,632.8z"/>
	</g>
	<g>
		<path class="st0" d="M1280.1,525.4c-0.2,0.1-0.6,0.5-1,0.9c-63.8,63.7-127.5,127.5-191.2,191.3c-1.2,1.2-2.1,3.1-2.4,4.8
			c-6.1,28.8-12,57.7-18,86.6c-1,4.9-1.9,9.7-2.9,15c34.2-6.3,67.7-12.6,101.3-18.6c3.6-0.7,6.3-2.1,8.9-4.7
			c62.4-62.5,124.8-124.9,187.2-187.3c1.1-1.1,2.6-1.9,3.5-2.6C1336.6,581.9,1308.4,553.7,1280.1,525.4z M1384,590.1
			c12.7-12.7,25.3-25.3,37.4-37.5c-27.9-27.9-56-56-83.4-83.4c-12.3,12.3-24.9,24.9-37.4,37.4C1328.1,534.2,1356.1,562.2,1384,590.1
			z"/>
		<path class="st1" d="M1280.1,525.4c28.3,28.3,56.5,56.5,85.4,85.4c-0.9,0.7-2.4,1.5-3.5,2.6c-62.4,62.4-124.9,124.8-187.2,187.3
			c-2.6,2.6-5.3,4-8.9,4.7c-33.5,6.1-67.1,12.3-101.3,18.6c1-5.2,1.9-10.1,2.9-15c6-28.9,11.9-57.7,18-86.6c0.4-1.7,1.2-3.6,2.4-4.8
			c63.7-63.8,127.5-127.6,191.2-191.3C1279.5,525.8,1279.9,525.5,1280.1,525.4z M1118,750.6c57.5-57.5,114.8-114.8,171.9-171.9
			c-2.9-3-6.2-6.4-9.3-9.6c-57.4,57.4-114.7,114.7-172,172C1111.8,744.3,1115.1,747.7,1118,750.6z M1148.6,781.2
			c57.4-57.4,114.6-114.6,171.8-171.8c-2.9-2.9-6.3-6.2-9.1-9c-57.1,57.1-114.5,114.5-171.5,171.5
			C1142.5,774.9,1145.7,778.2,1148.6,781.2z"/>
		<path class="st1" d="M1384,590.1c-27.9-27.9-55.9-55.9-83.5-83.5c12.5-12.5,25.1-25.1,37.4-37.4c27.4,27.4,55.6,55.6,83.4,83.4
			C1409.3,564.8,1396.7,577.4,1384,590.1z"/>
	</g>
	<g>
		<path class="st0" d="M867.3,258.1c0.1-1.8,0.2-3.1,0.2-4.4c0-59.6,0-119.1,0-178.7c0-12.7-7.2-19.7-19.8-19.7
			c-89,0-178.1,0-267.1,0c-13.2,0-20.2,6.9-20.2,20.2c0,59.3,0,118.5,0,177.8c0,1.6,0.1,3.2,0.2,4.9
			C663,258.1,764.9,258.1,867.3,258.1z M528.9,271.7c0,3.4,0,6.1,0,8.8c0,14.3,6.5,20.9,20.8,20.9c109.5,0,219,0,328.6,0
			c1.5,0,3,0.1,4.5-0.1c7.3-0.6,14.1-5.7,15.5-12.9c1-5.3,0.6-10.9,0.9-16.2c-1.2-0.3-1.7-0.5-2.1-0.5c-48.5,0-96.9-0.1-145.4,0
			c-1.2,0-3,1.2-3.6,2.3c-2.3,4-5.8,6.1-10.3,6.1c-15.9,0.1-31.7,0.3-47.6-0.2c-3.2-0.1-7.2-2.5-9.3-5.1c-2-2.4-3.5-3.3-6.4-3.3
			c-46.8,0.1-93.7,0-140.5,0C532.5,271.7,531,271.7,528.9,271.7z"/>
		<path class="st1" d="M867.3,258.1c-102.4,0-204.3,0-306.7,0c-0.1-1.7-0.2-3.3-0.2-4.9c0-59.3,0-118.5,0-177.8
			c0-13.2,7-20.2,20.2-20.2c89,0,178.1,0,267.1,0c12.6,0,19.8,7.1,19.8,19.7c0,59.6,0,119.1,0,178.7
			C867.5,255,867.4,256.3,867.3,258.1z M842.7,79.9c-86,0-171.7,0-257.5,0c0,51.4,0,102.5,0,153.9c85.9,0,171.6,0,257.5,0
			C842.7,182.4,842.7,131.3,842.7,79.9z"/>
		<path class="st1" d="M528.9,271.7c2.1,0,3.6,0,5,0c46.8,0,93.7,0,140.5,0c2.9,0,4.5,0.9,6.4,3.3c2.1,2.6,6,5,9.3,5.1
			c15.8,0.5,31.7,0.3,47.6,0.2c4.5,0,7.9-2.1,10.3-6.1c0.7-1.1,2.4-2.3,3.6-2.3c48.5-0.1,96.9-0.1,145.4,0c0.4,0,0.8,0.2,2.1,0.5
			c-0.2,5.3,0.1,10.9-0.9,16.2c-1.4,7.2-8.2,12.3-15.5,12.9c-1.5,0.1-3,0.1-4.5,0.1c-109.5,0-219,0-328.6,0
			c-14.2,0-20.8-6.6-20.8-20.9C528.9,277.8,528.9,275.2,528.9,271.7z"/>
	</g>
	<g>
		<path class="st0" d="M25.6,347.2c0.7-0.1,1.4,0,2.1-0.2c13.9-3.2,28-6,41.8-9.7c25.1-6.7,50-14.2,73-26.6c2.8-1.5,5.3-1.9,8.4-1.2
			c32.2,7.4,64.6,9.2,97.2,3.1c43.1-8,80.2-27.1,108.3-61.3c30.2-36.7,40.8-78.5,28.1-124.8c-10.1-36.9-33.5-64.4-65.2-84.8
			C276.4,14.2,229.3,4.6,179,11.1c-44.6,5.7-83.5,23.5-115.3,55.8c-48,48.6-53.1,124.7-11.8,178.5c2.5,3.3,3.4,6.5,3.1,10.6
			c-1.1,15.8-5,30.9-10.6,45.6C38.6,316.8,32,331.8,25.6,347.2z"/>
		<path class="st1" d="M25.6,347.2c6.4-15.4,13-30.4,18.8-45.7C50,286.9,53.9,271.8,55,256c0.3-4-0.6-7.3-3.1-10.6
			C10.6,191.6,15.7,115.5,63.7,66.9C95.6,34.6,134.4,16.8,179,11.1c50.3-6.4,97.4,3.1,140.2,30.7c31.7,20.4,55.1,47.9,65.2,84.8
			c12.7,46.3,2.1,88.1-28.1,124.8c-28.1,34.2-65.3,53.2-108.3,61.3c-32.6,6.1-65,4.3-97.2-3.1c-3.1-0.7-5.5-0.3-8.4,1.2
			c-23,12.4-47.9,19.9-73,26.6c-13.8,3.7-27.9,6.5-41.8,9.7C27,347.2,26.3,347.2,25.6,347.2z M82,298.7c1-0.2,1.8-0.4,2.7-0.6
			c19.8-6.2,38.7-14.5,56.7-24.7c2.8-1.6,5.3-1.8,8.3-1.1c30.4,7.6,61.1,10.4,92.2,4.8c34.4-6.2,64.3-20.9,86.7-48.3
			c22.5-27.5,31.4-58.7,20.9-93.6c-9-30-29-51.4-55.4-67c-34-20.1-71-26.7-110-21.8c-35.9,4.5-67.6,18.2-93.4,44.3
			C53,128.9,47.9,187,85,228.8c3.6,4.1,8.7,8.1,9.8,13c1.2,5-1.2,11-2.5,16.4C89.1,271.6,85.5,285,82,298.7z"/>
		<path class="st1" d="M225.6,195.6c-9.9,0-19.4,0-29.4,0c-0.9-11.8,1-22.6,9.1-31.4c4.7-5.1,10.3-9.3,15.1-14.3
			c3.5-3.7,7.1-7.6,9.5-12.1c5-9.3,1-21.5-8-26.5c-10.5-5.9-24.1-3.3-29.4,6.3c-2.7,4.9-4,10.7-6.1,16.6c-8.5,0-18.1,0-27.6,0
			c-0.7-29,15.6-49.7,41.3-52.9c9.6-1.2,19.2-0.9,28.5,1.9c33,9.7,44.5,48.5,22,74.6c-4.7,5.5-10.1,10.3-15.1,15.6
			C228,181.3,226.7,184.5,225.6,195.6z"/>
		<path class="st1" d="M211.7,209.8c10.1,0,18,7.7,18.1,17.8c0.1,10.3-7.9,18.4-18.1,18.4c-10.2,0-18.3-8.2-18.2-18.4
			C193.6,217.6,201.5,209.8,211.7,209.8z"/>
	</g>
	<g>
		<path class="st0" d="M1194.8,112.4c-1.7,1.3-2.6,2-3.6,2.7c-18.7,14.5-37.9,28.4-55.9,43.7c-24.3,20.6-46.3,43.5-63.9,70.3
			c-8.6,13.1-15.7,26.9-17.9,42.7c-2.6,19.1,7.4,35.1,26.2,39.7c7.4,1.8,15.5,2.2,23.1,1.8c20.7-1,40.1-7.6,59-15.5
			c44.6-18.5,85-44.1,122.9-73.7c30.8-24.1,59.3-50.6,82.5-82.3c10.1-13.8,18.9-28.4,22.8-45.4c5.9-26-7.9-45-34.4-47.4
			c-14.6-1.3-28.7,1.1-42.7,5c-31.5,8.9-60.5,23.4-88.5,40c-3,1.8-5,1.6-7.9-0.1c-24.6-14-49.9-26.3-77-34.6
			c-17.7-5.4-35.5-9.4-54.2-6.7c-22.5,3.2-35.3,19.9-31.1,42.2c1.7,9.1,5.9,17.7,9.4,26.4c1.1,2.8,1.6,4.8,0.4,7.7
			c-5.4,13.4,0,28.7,12.5,35.9c12.6,7.3,28.8,4.2,37.7-7.3c7.3-9.5,8.4-20,3.3-30.7c-5-10.6-14-15.8-25.7-16.7
			c-1.7-0.1-4.3-0.7-4.7-1.8c-2.6-6.3-5.1-12.8-6.8-19.4c-1.2-4.7,0.8-7.8,5.7-8.8c4.7-1,9.6-1.8,14.4-1.3
			C1134.2,81.8,1164.1,97,1194.8,112.4z M1241.8,275.7c0.8,0.5,1.4,1,2,1.3c20.6,10.8,41.8,20.2,64.2,26.7
			c16.6,4.8,33.4,8.3,50.9,5.9c22.8-3.1,35.7-19.8,31.6-42.3c-1.6-8.8-5.6-17.2-9-25.6c-1.2-3-1.8-5.3-0.7-8.6
			c5.3-14.8-2.1-30.8-16.7-36.6c-14.4-5.8-30.6,0.6-37.3,14.6c-9.2,19.2,4.7,41.6,26,41.9c1.8,0,4.5,0.6,5.1,1.8
			c2.4,5,4.7,10.2,5.9,15.5c2,8.5-0.5,11.5-9.1,12.8c-9.8,1.5-19.4-0.3-28.8-2.4c-19.4-4.4-37.7-12.2-55.7-20.5
			c-1.4-0.6-3.6-1-4.7-0.3C1257.5,265,1249.8,270.4,1241.8,275.7z M1195.4,62.9c2.3-5,4.3-10,6.8-14.8c2.5-4.6,5.2-9.2,8.4-13.4
			c8.2-10.5,15-10.3,23.4,0.1c0.6,0.8,1.4,1.6,1.9,2.5c3.6,6.6,7.1,13.2,10.6,19.8c0.7,1.2,1.2,2.5,1.8,3.9
			c8.3-3.9,16.1-7.5,24.2-11.2c-5.5-13.8-12-26.8-22.5-37.2c-16.7-16.6-38.4-16.6-55.2-0.1c-8.3,8.2-14.1,18-18.8,28.5
			c-1.7,3.7-3.2,7.4-4.7,11.2c8,3.6,15.5,7,23,10.4C1194.4,62.7,1194.8,62.8,1195.4,62.9z M1172.2,312.5c4.5,13.7,14,29.5,23.1,38.1
			c15.6,15,35.8,15.7,52,1.6c12.9-11.2,19.9-26.3,26.1-42c-8.3-3.7-16.3-7.3-24.5-10.9c-0.9,2.3-1.7,4.3-2.6,6.3
			c-4,9.2-8.3,18.2-15.6,25.4c-6,5.9-11.1,6.2-16.8,0.2c-3.8-4-7.1-8.7-9.9-13.4c-3.1-5.1-5.3-10.7-8.1-16.3
			C1188.1,305.2,1180.3,308.8,1172.2,312.5z"/>
		<path class="st1" d="M1194.8,112.4c-30.7-15.4-60.6-30.6-94.7-33.7c-4.7-0.4-9.7,0.3-14.4,1.3c-4.8,1.1-6.9,4.1-5.7,8.8
			c1.7,6.6,4.2,13.1,6.8,19.4c0.4,1.1,3.1,1.7,4.7,1.8c11.7,0.9,20.6,6.1,25.7,16.7c5.1,10.7,4,21.2-3.3,30.7
			c-8.8,11.6-25,14.6-37.7,7.3c-12.5-7.2-17.9-22.5-12.5-35.9c1.2-2.9,0.7-4.9-0.4-7.7c-3.5-8.7-7.6-17.3-9.4-26.4
			c-4.2-22.3,8.7-39,31.1-42.2c18.7-2.7,36.6,1.3,54.2,6.7c27.1,8.3,52.5,20.6,77,34.6c2.8,1.6,4.9,1.8,7.9,0.1
			c28-16.6,57-31.2,88.5-40c13.9-3.9,28.1-6.3,42.7-5c26.5,2.4,40.3,21.3,34.4,47.4c-3.8,17-12.7,31.6-22.8,45.4
			c-23.2,31.7-51.8,58.2-82.5,82.3c-37.9,29.7-78.3,55.3-122.9,73.7c-18.9,7.8-38.3,14.4-59,15.5c-7.7,0.4-15.7,0-23.1-1.8
			c-18.7-4.6-28.8-20.5-26.2-39.7c2.2-15.9,9.3-29.6,17.9-42.7c17.6-26.8,39.6-49.7,63.9-70.3c18-15.3,37.2-29.2,55.9-43.7
			C1192.1,114.5,1193.1,113.8,1194.8,112.4z M1130.5,199.8c-16.3,16.6-31.5,33.6-42.4,53.8c-3.4,6.4-5.9,13.4-7.9,20.4
			c-2,7.1,0.7,11.2,8.2,12.2c6,0.8,12.4,0.9,18.4,0c25.7-3.6,49-14.1,71.9-25.7c48-24.4,91.4-55.6,130.2-92.9
			c17.6-17,34.2-35,46.2-56.5c4.1-7.4,6.8-15.8,9.2-24.1c1.7-6-0.8-9.8-7-10.3c-8.2-0.7-16.8-0.9-24.9,0.6
			c-25.1,4.5-48,15.3-70.6,26.7c-5,2.5-9.9,5.3-14.6,7.9c18.1,13.3,35.8,26.3,53.9,39.5c-7.4,6.8-13.8,12.8-19.5,18.1
			c-19.6-13.6-38.6-26.6-57.5-39.8c-2.2-1.6-3.9-1.7-6.2,0c-15.2,11.1-30.6,22-45.6,33.2c-7.5,5.6-14.5,11.9-22.6,18.7
			c19.4,14.7,38.3,29,57.4,43.5c-7.7,4.4-15.5,9-23.5,13.4c-1,0.5-3.1-0.1-4.2-0.8c-6.8-4.8-13.7-9.7-20.3-14.8
			C1149.5,215.2,1140.2,207.6,1130.5,199.8z"/>
		<path class="st1" d="M1241.8,275.7c8-5.4,15.7-10.7,23.7-15.7c1.1-0.7,3.4-0.3,4.7,0.3c18,8.3,36.3,16.1,55.7,20.5
			c9.5,2.2,19,4,28.8,2.4c8.7-1.3,11.2-4.3,9.1-12.8c-1.3-5.4-3.6-10.5-5.9-15.5c-0.6-1.2-3.3-1.8-5.1-1.8
			c-21.3-0.4-35.3-22.7-26-41.9c6.7-14,22.9-20.3,37.3-14.6c14.5,5.8,22,21.8,16.7,36.6c-1.2,3.3-0.6,5.6,0.7,8.6
			c3.4,8.4,7.3,16.8,9,25.6c4.2,22.5-8.8,39.2-31.6,42.3c-17.5,2.4-34.3-1.1-50.9-5.9c-22.4-6.5-43.6-16-64.2-26.7
			C1243.2,276.7,1242.6,276.3,1241.8,275.7z"/>
		<path class="st1" d="M1195.4,62.9c-0.5-0.1-1-0.2-1.3-0.4c-7.5-3.4-14.9-6.8-23-10.4c1.6-3.8,3.1-7.5,4.7-11.2
			c4.8-10.5,10.5-20.4,18.8-28.5c16.9-16.5,38.5-16.5,55.2,0.1c10.5,10.5,17,23.4,22.5,37.2c-8.1,3.7-15.9,7.4-24.2,11.2
			c-0.6-1.3-1.1-2.6-1.8-3.9c-3.5-6.6-7-13.2-10.6-19.8c-0.5-0.9-1.2-1.7-1.9-2.5c-8.4-10.4-15.2-10.6-23.4-0.1
			c-3.2,4.1-5.9,8.8-8.4,13.4C1199.6,52.9,1197.7,57.9,1195.4,62.9z"/>
		<path class="st1" d="M1172.2,312.5c8.1-3.7,15.9-7.4,23.8-11c2.7,5.6,5,11.2,8.1,16.3c2.8,4.8,6.1,9.4,9.9,13.4
			c5.7,6,10.7,5.7,16.8-0.2c7.3-7.1,11.5-16.2,15.6-25.4c0.9-2,1.6-4,2.6-6.3c8.2,3.7,16.2,7.2,24.5,10.9
			c-6.2,15.8-13.2,30.8-26.1,42c-16.2,14.1-36.4,13.3-52-1.6C1186.3,342,1176.7,326.2,1172.2,312.5z"/>
	</g>
</g>
</svg>
