<?xml version="1.0" encoding="utf-8"?>
<!-- Generator: Adobe Illustrator 16.0.4, SVG Export Plug-In . SVG Version: 6.00 Build 0)  -->
<!DOCTYPE svg PUBLIC "-//W3C//DTD SVG 1.1//EN" "http://www.w3.org/Graphics/SVG/1.1/DTD/svg11.dtd">
<svg version="1.1" id="Layer_1" xmlns="http://www.w3.org/2000/svg" xmlns:xlink="http://www.w3.org/1999/xlink" x="0px" y="0px"
	 width="321px" height="431px" viewBox="0 0 321 431" enable-background="new 0 0 321 431" xml:space="preserve">
<polygon points="18.337,408.127 18.337,376.893 28.634,376.893 28.634,395.412 39.459,395.412 39.459,377.996 49.752,377.996 
	49.752,395.412 72.357,395.412 72.357,408.127 "/>
<path d="M64.943,353.146c0-5.115-4.77-5.875-19.607-5.875c-14.807,0-19.575,0.76-19.575,5.875c0,5.016,4.769,5.775,19.575,5.775
	C60.174,358.922,64.943,358.162,64.943,353.146 M73.419,353.109c0,16.684-10.904,18.955-28.083,18.955
	c-17.16,0-28.056-2.271-28.056-18.955c0-18.035,13.091-19,28.056-19C60.322,334.109,73.419,335.074,73.419,353.109"/>
<path d="M54.498,292.532c10.598,0,18.921,3.04,18.921,17.804c0,14.736-8.323,17.777-18.921,17.777H18.337v-12.727h39.868
	c4.24,0,6.738-1.648,6.738-5.051c0-3.43-2.498-5.078-6.738-5.078H18.337v-12.726H54.498z"/>
<polygon points="18.337,285.376 18.337,270.76 53.441,260.324 53.441,260.166 18.337,260.166 18.337,248.349 72.357,248.349 
	72.357,262.743 35.141,273.865 35.141,274.013 72.357,274.013 72.357,285.376 "/>
<path d="M62.969,227.773v-3.383c0-5.914-2.336-7.943-18.541-7.943c-13.147,0-16.707,1.02-16.707,7.748v3.578H62.969z M18.337,240.48
	v-18.815c0-12.567,6.507-17.935,25.279-17.935c19.585,0,28.741,2.493,28.741,19.195v17.555H18.337z"/>
<path d="M28.176,180.708v0.148l24.051,4.477v-9.241L28.176,180.708z M18.337,188.4v-15.858l54.021-13.467v13.152l-10.297,1.974
	v12.948l10.297,1.891v13.152L18.337,188.4z"/>
<polygon points="28.629,151.262 28.629,162.625 18.337,162.625 18.337,127.201 28.629,127.201 28.629,138.536 72.357,138.536 
	72.357,151.262 "/>
<rect x="18.337" y="109.869" width="54.025" height="12.707"/>
<path d="M64.943,84.075c0-5.153-4.77-5.904-19.607-5.904c-14.807,0-19.575,0.751-19.575,5.904c0,4.996,4.769,5.746,19.575,5.746
	C60.174,89.821,64.943,89.07,64.943,84.075 M73.419,84c0,16.72-10.904,19-28.083,19c-17.16,0-28.056-2.28-28.056-19
	c0-18.027,13.091-19,28.056-19C60.322,65,73.419,65.973,73.419,84"/>
<polygon points="18.337,58.327 18.337,43.748 53.441,33.302 53.441,33.163 18.337,33.163 18.337,21.355 72.357,21.355 72.357,35.74 
	35.141,46.843 35.141,46.992 72.357,46.992 72.357,58.327 "/>
<path d="M108.797,21.271h12.711v37.75c0,10.065-4.008,17.332-16.571,17.332c-11.433,0-16.127-5.45-16.127-14.922v-3.318h11.808
	v2.335c0,3.643,0.079,7.415,4.166,7.415c3.634,0,4.014-3.772,4.014-8.842V21.271z"/>
<path d="M145.681,31.087h-0.153l-4.463,24.08h9.232L145.681,31.087z M137.96,21.271h15.891l13.485,54.017h-13.175L152.191,65
	h-12.943l-1.895,10.288h-13.166L137.96,21.271z"/>
<polygon points="171.795,21.271 190.392,21.271 197.051,56.751 197.204,56.751 203.641,21.271 222.029,21.271 222.029,75.288 
	210.227,75.288 210.227,33.209 210.073,33.209 201.824,75.288 191.98,75.288 183.292,33.209 183.152,33.209 183.152,75.288 
	171.795,75.288 "/>
<polygon points="230.283,21.271 261.545,21.271 261.545,31.541 243,31.541 243,42.376 260.383,42.376 260.383,52.664 243,52.664 
	243,65 262.348,65 262.348,75.288 230.283,75.288 "/>
<path d="M278.627,58.799v1.891c0,4.087,1.136,7.174,5.533,7.174c4.459,0,5.747-3.318,5.747-6.433
	c0-11.641-23.236-5.135-23.236-25.349c0-8.629,4.611-15.877,17.708-15.877c12.721,0,17.258,6.414,17.258,14.755v1.279h-12.263
	c0-2.586-0.302-4.477-1.062-5.682c-0.755-1.289-1.965-1.891-3.859-1.891c-3.175,0-5.075,1.891-5.075,5.82
	c0,11.298,23.245,5.607,23.245,24.682c0,12.262-6.816,17.184-18.463,17.184c-9.244,0-17.795-2.799-17.795-14.088v-3.467H278.627z"/>
<path d="M104.376,231.063h3.405c5.904,0,7.916-2.345,7.916-18.527c0-13.152-1.053-16.739-7.762-16.739h-3.56V231.063z
	 M91.669,186.435h18.838c12.545,0,17.916,6.479,17.916,25.267c0,19.603-2.475,28.76-19.228,28.76H91.669V186.435z"/>
<polygon points="141.621,219.181 127.918,186.435 141.992,186.435 148.059,206.474 148.201,206.474 154.402,186.435 
	168.036,186.435 154.342,219.181 154.342,240.461 141.621,240.461 "/>
<path d="M180.883,223.963v1.891c0,4.078,1.135,7.192,5.523,7.192c4.463,0,5.751-3.318,5.751-6.441
	c0-11.65-23.213-5.145-23.213-25.358c0-8.629,4.611-15.868,17.685-15.868c12.725,0,17.258,6.414,17.258,14.727v1.316h-12.262
	c0-2.567-0.297-4.458-1.057-5.663c-0.761-1.325-1.947-1.928-3.856-1.928c-3.188,0-5.052,1.928-5.052,5.83
	c0,11.271,23.219,5.607,23.219,24.673c0,12.271-6.812,17.184-18.473,17.184c-9.24,0-17.768-2.79-17.768-14.079v-3.476H180.883z"/>
<path d="M228.721,233.046c5.145,0,5.904-4.773,5.904-19.603c0-14.849-0.76-19.612-5.904-19.612c-5,0-5.755,4.764-5.755,19.612
	C222.966,228.273,223.721,233.046,228.721,233.046 M228.791,241.518c-16.725,0-18.996-10.9-18.996-28.074
	c0-17.193,2.271-28.065,18.996-28.065c18.022,0,18.977,13.069,18.977,28.065C247.768,228.421,246.813,241.518,228.791,241.518"/>
<polygon points="254.428,186.435 269.039,186.435 279.48,221.535 279.643,221.535 279.643,186.435 291.441,186.435 291.441,240.461 
	277.065,240.461 265.934,203.22 265.786,203.22 265.786,240.461 254.428,240.461 "/>
</svg>
