<?xml version="1.0" encoding="utf-8"?>
<!-- Generator: Adobe Illustrator 16.0.4, SVG Export Plug-In . SVG Version: 6.00 Build 0)  -->
<!DOCTYPE svg PUBLIC "-//W3C//DTD SVG 1.1//EN" "http://www.w3.org/Graphics/SVG/1.1/DTD/svg11.dtd">
<svg version="1.1" xmlns="http://www.w3.org/2000/svg" xmlns:xlink="http://www.w3.org/1999/xlink" x="0px" y="0px" width="1600px"
	 height="900px" viewBox="0 0 1600 900" enable-background="new 0 0 1600 900" xml:space="preserve">
<g id="Layer_1">
	<rect x="800" y="0" fill="#31E9D1" width="800" height="900"/>
	<g>
		<rect x="1128.46" y="496.674" fill="#231F20" width="151.713" height="15.211"/>
		<g>
			<path fill="#231F20" d="M1138.654,574.287c0-8.867,5.674-16.076,14.773-16.076c7.209,0,11.996,4.137,13.062,10.637h-4.846
				c-0.712-4.137-3.605-6.676-8.216-6.676c-6.501,0-9.869,5.377-9.869,12.115c0,6.732,3.368,12.055,9.869,12.055
				c4.966,0,7.919-2.84,8.331-7.562h4.73c-0.651,7.324-5.438,11.578-13.062,11.578
				C1144.328,590.357,1138.654,583.148,1138.654,574.287"/>
		</g>
		<rect x="1171.216" y="547.279" fill="#231F20" width="4.784" height="42.252"/>
		<g>
			<path fill="#231F20" d="M1185.986,571.803h18.38c-0.295-6.088-3.428-9.809-8.923-9.809
				C1189.771,561.994,1186.695,566.248,1185.986,571.803 M1180.965,574.287c0-8.867,5.793-16.076,14.479-16.076
				c9.158,0,14.063,7.092,14.063,17.195h-23.638c0.355,6.205,3.723,10.936,9.87,10.936c4.433,0,7.385-2.129,8.45-6.266h4.671
				c-1.421,6.559-6.208,10.281-13.121,10.281C1186.401,590.357,1180.965,583.148,1180.965,574.287"/>
			<path fill="#231F20" d="M1233.026,578.244v-5.199c-1.595,1.006-4.371,1.771-6.974,2.244c-4.785,0.887-8.626,1.715-8.626,6.205
				c0,4.08,3.188,4.963,6.323,4.963C1230.131,586.457,1233.026,581.791,1233.026,578.244 M1232.908,585.277h-0.06
				c-1.833,2.365-4.962,4.846-10.163,4.846c-5.791,0-10.342-2.721-10.342-8.512c0-7.209,5.675-8.688,13.295-9.867
				c4.314-0.65,7.329-1.062,7.329-4.375c0-3.426-2.483-5.377-6.855-5.377c-4.965,0-7.446,2.127-7.623,6.736h-4.607
				c0.175-5.908,4.075-10.34,12.171-10.34c6.501,0,11.287,2.422,11.287,9.689v14.539c0,2.482,0.592,3.84,3.251,3.248h0.178v3.488
				c-0.591,0.236-1.357,0.471-2.6,0.471C1235.034,589.824,1233.381,588.408,1232.908,585.277"/>
			<path fill="#231F20" d="M1249.1,562.998h0.119c2.188-2.896,5.261-4.727,9.692-4.727c6.379,0,10.282,3.484,10.282,9.807v21.453
				h-4.787v-21.037c0-3.959-2.6-6.207-6.916-6.207c-4.842,0-8.391,3.428-8.391,8.451v18.793h-4.785V558.98h4.785V562.998z"/>
			<path fill="#231F20" d="M1160.775,619.693c-0.354-3.605-2.6-5.908-5.73-5.908c-3.664,0-5.553,2.303-6.204,5.908H1160.775z
				 M1139.325,622.885c0-9.041,6.325-15.955,15.543-15.955c4.314,0,7.739,1.418,10.339,3.783c3.607,3.309,5.38,8.568,5.32,14.715
				h-21.744c0.589,4.078,2.833,6.617,6.793,6.617c2.54,0,4.196-1.121,5.023-3.014h9.397c-0.653,2.719-2.423,5.32-5.085,7.15
				c-2.539,1.773-5.611,2.777-9.453,2.777C1145.471,638.959,1139.325,632.045,1139.325,622.885"/>
			<path fill="#231F20" d="M1173.775,607.816h9.279v4.135h0.179c2.246-3.25,5.141-5.021,9.336-5.021
				c6.62,0,10.52,4.727,10.52,11.465v19.678h-9.632v-17.729c0-3.191-1.596-5.379-4.729-5.379c-3.19,0-5.316,2.662-5.316,6.385
				v16.723h-9.636V607.816z"/>
			<path fill="#231F20" d="M1227.554,619.693c-0.354-3.605-2.601-5.908-5.734-5.908c-3.661,0-5.554,2.303-6.202,5.908H1227.554z
				 M1206.103,622.885c0-9.041,6.325-15.955,15.541-15.955c4.315,0,7.743,1.418,10.343,3.783c3.604,3.309,5.378,8.568,5.316,14.715
				h-21.747c0.592,4.078,2.839,6.617,6.799,6.617c2.54,0,4.193-1.121,5.022-3.014h9.396c-0.65,2.719-2.424,5.32-5.082,7.15
				c-2.543,1.773-5.613,2.777-9.455,2.777C1212.249,638.959,1206.103,632.045,1206.103,622.885"/>
			<path fill="#231F20" d="M1240.553,607.816h9.221v4.729h0.175c2.129-3.604,4.61-5.201,8.274-5.201
				c0.887,0,1.477,0.059,1.893,0.236v8.271h-0.237c-5.909-0.824-9.692,2.07-9.692,8.629v13.592h-9.633V607.816z"/>
			<path fill="#231F20" d="M1282.744,621.703c0-4.076-2.125-7.504-6.146-7.504c-3.605,0-5.968,2.953-5.968,7.564
				c0,4.549,2.362,7.504,5.968,7.504C1280.795,629.268,1282.744,625.957,1282.744,621.703 M1261.885,638.783h9.336
				c0.532,1.594,2.127,2.955,5.319,2.955c4.079,0,5.792-2.131,5.792-5.793v-3.014h-0.236c-1.771,2.008-4.077,3.488-7.741,3.488
				c-6.794,0-13.119-5.084-13.119-14.363c0-8.863,5.201-15.127,12.705-15.127c4.02,0,6.735,1.598,8.508,4.135h0.12v-3.248h9.218
				v27.301c0,4.553-1.596,7.859-4.019,10.049c-2.658,2.361-6.618,3.367-11.11,3.367
				C1268.326,648.533,1262.832,645.104,1261.885,638.783"/>
			<path fill="#231F20" d="M1297.402,640.555h3.308c2.834,0,3.958-1.123,3.958-3.191c0-1.299-0.59-3.072-1.831-6.264l-8.922-23.283
				h10.163l4.078,12.883c0.945,2.955,1.888,6.973,1.888,6.973h0.122c0,0,0.825-4.018,1.772-6.973l3.959-12.883h9.631l-10.458,30.67
				c-2.424,7.092-5.32,9.574-11.404,9.574h-6.264V640.555z"/>
			<path fill="#231F20" d="M1139.68,656.064h4.432v-9.633h4.787v9.633h5.91v3.898h-5.91v19.855c0,2.127,1.124,2.838,3.072,2.838
				c0.946,0,2.01-0.238,2.543-0.416h0.176v4.137c-1.123,0.238-2.422,0.414-3.841,0.414c-3.901,0-6.737-1.594-6.737-5.91v-20.918
				h-4.432V656.064z"/>
			<path fill="#231F20" d="M1164.558,661.145h0.12c1.83-2.955,5.021-5.436,9.098-5.436c0.889,0,1.361,0.117,1.951,0.355v4.609
				h-0.178c-0.707-0.24-1.184-0.295-2.127-0.295c-4.729,0-8.864,3.545-8.864,9.273v16.963h-4.785v-30.551h4.785V661.145z"/>
			<path fill="#231F20" d="M1199.482,686.615v-4.197h-0.12c-2.184,2.955-4.786,4.906-9.218,4.906
				c-6.266,0-10.281-3.783-10.281-10.105v-21.154h4.787v21.037c0,3.959,2.541,6.264,6.854,6.264c4.846,0,7.979-3.668,7.979-8.512
				v-18.789h4.786v30.551H1199.482z"/>
			<path fill="#231F20" d="M1208.818,676.688h4.908c0.646,5.318,4.192,6.795,8.743,6.795c5.023,0,7.091-2.186,7.091-5.023
				c0-3.428-2.362-4.314-7.977-5.494c-6.028-1.242-11.405-2.482-11.405-9.158c0-5.084,3.9-8.395,10.991-8.395
				c7.564,0,11.287,3.605,11.996,9.574h-4.903c-0.476-4.018-2.661-5.791-7.211-5.791c-4.373,0-6.146,1.949-6.146,4.373
				c0,3.311,2.956,3.959,8.212,5.021c6.146,1.242,11.288,2.602,11.288,9.635c0,6.145-5.02,9.277-12.056,9.277
				C1213.96,687.502,1209.291,683.541,1208.818,676.688"/>
			<path fill="#231F20" d="M1236.476,656.064h4.43v-9.633h4.789v9.633h5.908v3.898h-5.908v19.855c0,2.127,1.12,2.838,3.072,2.838
				c0.942,0,2.007-0.238,2.539-0.416h0.178v4.137c-1.122,0.238-2.423,0.414-3.84,0.414c-3.902,0-6.738-1.594-6.738-5.91v-20.918
				h-4.43V656.064z"/>
			<path fill="#231F20" d="M1320.831,229.809c-0.126,0.581-0.353,1.287-0.6,1.985c-0.491,1.427-1.081,2.911-1.719,4.384
				c-1.048,2.375-2.142,4.752-3.233,7.134c0.014-0.189,0.05-0.363,0.064-0.561c0.088-2.228-0.107-3.958-0.502-5.87
				c-0.784-3.742-2.371-7.103-4.319-10.096c-1.965-2.991-4.271-5.647-6.878-7.968c-2.643-2.319-5.396-4.379-8.859-5.964
				c-1.792-0.873-4.145-1.395-5.939-1.438c-1.879-0.116-3.615-0.012-5.299,0.13c-3.367,0.314-6.57,0.851-9.713,1.484
				c-6.269,1.236-12.455,2.808-18.385,3.35c-5.984,0.298-12.51,0-18.766-0.049l-18.979-0.281l-12.439-0.112
				c0.003-0.002-0.054-0.005-0.052-0.009c0.234-0.293,0.594-0.502,0.86-0.613c0-0.001,0-0.002,0-0.002
				c0.015-0.006,0.027-0.01,0.041-0.014c0.128-0.052,0.218-0.078,0.218-0.078l0.001,0.001c3.543-1.248,7.425-1.713,11.285-1.883
				l14.274,0.092l17.686,0.201l4.995,0.144c1.658,0.034,3.255,0.165,5.169,0.034c3.512-0.224,6.839-0.721,10.179-1.243l19.704-3.267
				c3.261-0.493,6.511-1.014,9.656-1.296c1.546-0.13,3.102-0.22,4.414-0.143c0.299,0.027,0.617,0.05,0.832,0.081
				c0.047,0.016,0.329,0.067,0.18,0.025l0.606,0.157c0.456,0.144,0.969,0.341,1.561,0.626c4.743,2.366,9.302,7.033,11.947,11.968
				c1.308,2.509,2.134,5.163,2.159,7.639C1320.987,229.038,1320.95,229.332,1320.831,229.809 M1307.007,242.166
				c-0.026,0.818-0.416,2.283-0.842,3.652c-1.405,4.104-3.029,8.284-4.691,12.479c0.107-0.848,0.195-1.712,0.24-2.615
				c0.088-2.306-0.257-3.814-0.646-5.615c-0.411-1.721-0.99-3.364-1.685-4.937c-1.364-3.13-3.126-5.979-5.108-8.587
				c-1.965-2.627-4.193-5.008-6.632-7.164c-2.479-2.156-4.974-4.159-8.295-5.83c-2.084-1.056-3.969-1.291-5.688-1.44
				c-1.71-0.143-3.318-0.152-4.908-0.124c-3.152,0.07-6.188,0.271-9.195,0.508c-6.073,0.48-11.744,1.163-17.579,0.575l-36.032-2.237
				l-5.732-0.278c0,0,2.053-2.218,3.192-2.864c0.31-0.122,1.927-0.062,2.815-0.019l11.37,0.8c12.689,0.92,25.021,2.134,38.029,2.891
				c6.719-0.11,12.938-1.115,19.199-1.645c3.101-0.273,6.171-0.565,9.113-0.597c1.462-0.012,2.91,0.029,4.178,0.229
				c1.352,0.202,2.124,0.403,3.162,0.955c4.56,2.456,9.152,6.622,12.171,11.13c1.521,2.282,2.671,4.732,3.205,7.196
				C1306.936,239.797,1307.039,241.234,1307.007,242.166 M1293.398,255.391c-0.087,2.311-0.713,5.213-1.402,7.972
				c-0.692,2.797-1.494,5.633-2.346,8.47c-1.621,5.365-3.424,10.733-5.237,16.116c0.329-1.457,0.686-2.939,1.009-4.421
				c0.615-2.792,1.205-5.599,1.682-8.497c0.386-2.988,0.97-5.673,0.561-9.638c-0.585-3.721-2.018-6.645-3.552-9.362
				c-1.551-2.699-3.298-5.159-5.159-7.495c-1.844-2.349-3.846-4.523-5.956-6.611c-2.147-2.116-4.215-4.043-7.049-5.964
				c-1.062-0.714-1.663-0.926-2.448-1.289c-0.729-0.352-1.494-0.608-2.249-0.874c-1.536-0.504-3.063-0.891-4.58-1.184
				c-3.032-0.558-6.012-0.806-8.886-0.958c-2.884-0.13-5.684-0.16-8.36-0.347c-2.546-0.195-5.52-0.688-8.299-1.021
				c-11.456-1.36-22.874-2.942-34.299-4.412c0.453-1.085,0.886-1.997,1.312-2.684c0.137-0.207,0.257-0.372,0.387-0.55l7.167,0.879
				c11.923,1.557,23.828,3.206,35.717,4.962c2.877,0.47,6.284,0.834,9.292,0.917c3.09,0.109,6.135,0.104,9.128,0.127
				c2.993,0.019,5.96-0.018,8.824,0.129c2.753,0.135,5.808,0.482,7.064,1.236c2.032,1.068,4.286,2.846,6.277,4.711
				c2.003,1.867,3.867,3.935,5.535,6.083c1.667,2.157,3.103,4.467,4.169,6.827c0.522,1.172,0.949,2.38,1.246,3.572
				C1293.235,253.194,1293.48,254.683,1293.398,255.391 M1288.122,372.548c-2.085-2.526-4.217-5.016-6.387-7.455
				c-3.563-4.06-7.244-7.999-10.849-11.931l-1.318-1.465c-0.383-0.433-0.925-1.073-0.987-1.19c0.003-0.005-0.168-0.523-0.221-0.983
				c-0.06-0.531-0.123-1.125-0.138-1.732c-0.025-0.752,0-1.547,0-2.332c0.138,0.287,0.314,0.584,0.524,0.902l2.766,3.305
				l10.817,12.988c1.997,2.484,3.999,4.973,5.987,7.468C1288.355,370.926,1288.213,371.723,1288.122,372.548 M1286.545,378.127
				c-2.844-2.746-5.744-5.443-8.727-8.009l-11.737-10.119c-0.261-0.231-0.576-0.508-0.881-0.776
				c-0.354-0.436-1.234-1.568-1.608-2.518c-0.083-0.307-0.16-0.629-0.232-0.959c-0.247-1.564-0.462-4.564-0.289-4.6
				c0.143-0.033,0.274,0.168,0.436,0.584c0.043,0.131,0.092,0.269,0.15,0.413c0.014,0.042,0.028,0.087,0.045,0.132
				c0.018,0.054,0.039,0.093,0.062,0.123c0.124,0.273,0.279,0.57,0.485,0.9c0.713,0.978,1.109,1.283,1.633,1.842l1.448,1.436
				l11.612,11.176c2.812,2.728,5.573,5.494,8.337,8.26C1287.047,376.777,1286.801,377.48,1286.545,378.127 M1285.427,381.061
				c-0.222,0.518-0.432,1.009-0.642,1.488c-3.487-2.559-7.023-5.016-10.66-7.305l-12.685-7.945l-1.452-0.954
				c-0.39-0.276-0.092-0.086-0.263-0.253c-0.087-0.104-0.195-0.272-0.303-0.459c-0.467-0.805-0.908-1.902-1.283-2.987
				c-0.765-2.23-1.386-4.592-1.962-6.962c-2.241-9.559-3.84-19.408-5.385-29.223l-2.396-14.766
				c-0.442-2.556-0.714-4.742-1.422-7.749c-0.976-3.196-2.31-5.408-3.649-7.74c-2.72-4.501-5.718-8.626-8.781-12.69
				c-1.507-2.023-3.104-3.99-4.728-5.936l-2.431-2.905c-0.796-0.963-1.77-2-2.146-2.565c-1.091-1.606-2.203-3.817-3.319-5.979
				c-1.137-2.182-2.24-4.459-3.561-6.78c-0.668-1.161-1.342-2.343-2.311-3.568c-0.501-0.632-0.926-1.166-1.827-1.96
				c-0.667-0.569-1.263-0.931-1.854-1.313c-2.343-1.432-4.615-2.555-6.915-3.668c-5.572-2.628-11.216-4.975-16.903-7.16
				c0.371-0.477,0.75-0.956,1.125-1.429c0,0,0.218-0.313,0.602-0.864c0.072-0.093,0.159-0.239,0.23-0.353
				c6.236,2.403,12.402,4.931,18.4,7.735c2.303,1.09,4.576,2.229,6.78,3.436c2.149,1.186,4.386,2.52,5.928,3.798
				c3.624,3.038,7.065,6.907,10.479,10.584c6.689,7.48,13.518,15.264,18.134,23.633c1.094,2.111,1.986,4.104,2.353,6.085
				c0.393,2.067,0.646,4.728,0.855,7.196c0.407,5.042,0.658,10.214,0.961,15.376c0.682,10.308,1.215,20.664,2.5,31.107
				c0.337,2.617,0.713,5.242,1.356,7.932c0.352,1.355,0.655,2.691,1.48,4.279c0.248,0.411,0.475,0.823,0.979,1.326
				c0.408,0.408,0.547,0.496,0.878,0.775l1.568,1.256l12.472,9.261c3.351,2.541,6.702,5.059,9.995,7.649
				C1285.455,380.91,1285.364,381.145,1285.427,381.061 M1282.986,387.105c-4.198-2.209-8.459-4.324-12.776-6.275l-13.456-6.012
				l-1.621-0.756c-0.262-0.127-0.58-0.304-0.524-0.29c-0.083-0.05-0.206-0.169-0.338-0.314c-0.571-0.606-1.193-1.569-1.737-2.539
				c-1.103-1.979-2.079-4.175-2.993-6.386c-3.618-8.938-6.519-18.307-9.41-27.652l-4.417-14.081
				c-0.761-2.358-1.506-4.67-2.429-7.171c-0.947-2.641-2.433-5.116-3.894-7.258c-5.944-8.56-12.844-15.497-17.026-23.318
				c-1.853-3.59-2.86-8.119-3.809-12.929c-0.503-2.435-0.965-4.906-2.002-7.689c-0.495-1.306-1.462-3.206-2.827-4.325
				c-1.122-1-2.158-1.713-3.229-2.464c-5.605-3.747-11.34-7.006-17.182-10.03c0.661-0.701,1.348-1.391,1.992-2.097
				c0.119-0.123,0.232-0.272,0.351-0.398c5.768,2.841,11.45,5.841,16.916,9.072c2.083,1.263,4.181,2.582,5.971,3.923
				c0.439,0.333,0.882,0.672,1.121,0.963c0.014,0.044,0.384,0.494,0.603,0.875c0.505,0.806,1.035,1.805,1.534,2.841
				c1.003,2.121,1.938,4.392,2.93,6.709c1.014,2.348,2,4.682,3.694,7.25l9.399,11.938c2.989,3.868,5.91,7.816,8.404,11.813
				c1.195,1.958,2.365,4.116,2.873,5.7c0.53,1.837,1.033,4.581,1.522,6.917l3.031,14.688c2.188,9.78,4.39,19.559,7.306,29.296
				c0.753,2.43,1.534,4.856,2.562,7.299c0.528,1.24,1.068,2.449,1.934,3.766c0.223,0.332,0.464,0.679,0.793,1.028
				c0.245,0.314,1.036,0.913,1.179,0.958l1.732,0.994l13.269,6.984c3.85,2.098,7.726,4.168,11.506,6.402
				C1283.521,385.548,1283.192,386.416,1282.986,387.105 M1282.027,389.719c-0.272,0.533-0.611,1.127-0.979,1.751
				c-0.233-0.077-0.459-0.172-0.689-0.253c-4.732-1.517-9.499-2.921-14.271-4.207c-4.765-1.303-9.614-2.535-14.106-4.093
				l-0.801-0.302c-0.288-0.114-0.57-0.234-0.625-0.287c-0.3-0.161-0.688-0.438-1.064-0.773c-0.744-0.66-1.51-1.54-2.24-2.427
				c-1.436-1.81-2.785-3.813-4.08-5.845c-5.156-8.201-9.634-17-13.978-25.795l-6.458-13.277c-0.999-2.137-2.271-4.721-3.621-6.89
				c-1.337-2.216-2.764-4.317-4.212-6.377c-2.876-4.14-5.821-8.132-8.734-12.105c-2.828-3.926-6.086-7.984-8.114-11.585
				c-0.647-1.117-0.936-3.166-1.073-5.391c-0.089-2.232-0.01-4.626,0.092-7.075c0.122-2.447,0.22-4.967,0.171-7.601
				c-0.038-1.338-0.09-2.685-0.309-4.123c-0.23-1.482-0.416-2.846-1.508-4.805c-0.424-0.701-0.305-0.458-0.808-1.123l-0.706-0.76
				l-1.357-1.384l-2.759-2.613c-1.853-1.702-3.743-3.371-5.663-4.976c-1.92-1.615-3.906-3.152-5.904-4.667
				c0.768-0.708,1.516-1.422,2.247-2.143c5.714,3.675,11.274,7.589,16.388,11.795c0.88,0.766,1.791,1.556,2.428,2.268
				c0.479,0.52,0.58,0.952,0.893,1.958c0.514,1.88,0.744,4.292,1.063,6.702c0.655,4.823,1.112,10.206,3.73,15.436
				c4.817,9.782,12.354,16.721,17.597,24.286c1.319,1.893,2.367,3.674,3.187,5.617c0.876,2.075,1.723,4.418,2.569,6.691
				c1.704,4.574,3.296,9.23,5.067,13.835c3.511,9.217,7.009,18.452,11.348,27.508c1.106,2.259,2.262,4.497,3.688,6.73
				c0.749,1.115,1.489,2.218,2.673,3.337c0.319,0.277,0.67,0.568,1.106,0.83c0.595,0.326,0.832,0.407,1.124,0.53l1.767,0.681
				l13.885,4.998c4.513,1.658,9.056,3.273,13.461,5.119C1282.314,389.164,1282.176,389.424,1282.027,389.719 M1278.788,395.228
				c-0.601-0.134-1.207-0.282-1.807-0.39c-5.021-0.961-10.049-1.656-15.048-2.24c-4.985-0.627-10.026-1.184-14.714-2.283
				c-0.521-0.11-1.266-0.318-1.472-0.398c-0.354-0.193-0.771-0.406-1.236-0.734c-0.879-0.592-1.783-1.352-2.658-2.15
				c-1.771-1.612-3.451-3.373-5.125-5.21c-6.599-7.356-12.666-15.372-18.613-23.425c-6.038-8-11.788-16.232-17.652-24.369
				c-2.893-4.082-5.765-8.203-8.572-12.342l-4.209-6.169l-2.02-3.08c-0.643-1.015-1.32-2.073-1.575-2.683
				c-0.519-1.194-0.669-3.273-0.536-5.451c0.159-2.214,0.58-4.576,1.092-6.956c0.978-4.836,2.37-9.672,2.715-15.413
				c0.02-1.529,0.059-2.854-0.52-4.916c-0.177-0.52-0.132-0.395-0.457-1.172c-0.218-0.457-0.424-0.784-0.624-1.118
				c-0.405-0.648-0.801-1.192-1.202-1.733c-1.615-2.144-3.303-4.077-5.018-5.995c-2.725-3.032-5.59-5.91-8.521-8.714
				c1.425-0.89,2.797-1.833,4.074-2.85c1.977,1.787,3.93,3.601,5.807,5.49c1.71,1.736,3.381,3.512,5.015,5.303l2.382,2.748
				l1.135,1.361l0.486,0.647c-0.146-0.167,0.383,0.558,0.213,0.421c0.076,0.248,0.344,1.359,0.355,2.322
				c0.039,1.031-0.009,2.153-0.086,3.3c-0.162,2.3-0.5,4.715-0.754,7.202c-0.273,2.458-0.529,5.009-0.592,7.728
				c-0.027,2.678,0,5.741,1.664,9.057c1.377,2.657,2.798,4.661,4.234,6.785c1.452,2.079,2.889,4.11,4.401,6.086
				c2.98,3.969,5.966,7.877,8.78,11.834c1.431,1.973,2.775,3.965,4.055,5.934c1.345,1.999,2.34,3.791,3.521,6.101
				c2.351,4.381,4.671,8.782,7.146,13.094c4.964,8.625,10.036,17.206,15.941,25.405c1.508,2.056,3.053,4.066,4.821,6.015
				c0.908,0.956,1.823,1.913,2.975,2.813c0.59,0.455,1.211,0.898,2.038,1.279c0.497,0.217,0.805,0.3,1.088,0.395l0.958,0.275
				c4.98,1.318,9.822,2.146,14.676,3.101c4.87,0.94,9.736,1.76,14.541,2.847c0.078,0.012,0.143,0.033,0.222,0.048
				C1279.672,393.745,1279.223,394.479,1278.788,395.228 M1277.484,397.373c-0.067,0.062-0.124,0.13-0.195,0.203
				c-0.385,0.406-0.761,0.824-1.14,1.246c-0.894-0.084-1.792-0.178-2.69-0.217c-5.312-0.245-10.611-0.121-15.857,0.086
				c-2.607,0.07-5.222,0.154-7.792,0.137c-2.584-0.031-5.098-0.09-7.209-0.691c-4.198-1.486-8.497-4.812-12.453-7.945
				c-8.005-6.482-15.406-13.834-22.628-21.266c-3.609-3.727-7.154-7.536-10.621-11.406c-3.494-3.826-6.928-7.721-10.23-11.686
				c-3.28-3.998-6.521-7.996-9.562-12.111c-1.514-2.055-2.967-4.142-4.316-6.259c-0.69-1.032-1.32-2.119-1.944-3.183l-0.905-1.594
				l-0.234-0.432c-0.059-0.102-0.015-0.077-0.053-0.13c-0.023-0.026-0.076-0.116-0.094-0.259c-0.336-1.12-0.031-3.666,0.514-5.937
				c0.572-2.345,1.336-4.763,2.135-7.22c1.563-4.936,3.398-9.874,4.791-15.193c0.672-2.696,1.341-5.396,1.182-8.714
				c-0.053-0.862-0.123-1.607-0.563-2.835c-0.244-0.667-0.366-0.769-0.536-1.108l-0.057-0.104l-0.157-0.281l-0.036-0.056
				l-0.139-0.209l-0.289-0.405l-2.305-3.244c-3.107-4.3-6.295-8.497-9.583-12.621c-0.438-0.548-0.893-1.09-1.337-1.628
				c1.303-0.787,2.616-1.582,3.93-2.385c2.932,3.374,5.79,6.81,8.483,10.341c1.489,1.975,2.954,3.982,4.212,5.982
				c0.309,0.5,0.608,1.001,0.836,1.447c0.279,0.577,0.224,0.496,0.402,1.184c0.027,0.372,0.09,1.618-0.066,2.593
				c-0.576,4.342-2.416,9.135-3.695,14.107c-0.673,2.513-1.311,5.1-1.672,7.902c-0.32,2.806-0.525,5.935,0.851,9.456
				c0.734,1.703,1.463,2.769,2.12,3.912l2.073,3.269c1.384,2.162,2.782,4.294,4.231,6.391c2.896,4.169,5.852,8.284,8.818,12.368
				c12.034,16.332,24.607,32.201,39.105,46.738c1.861,1.801,3.748,3.547,5.827,5.212c1.048,0.845,2.135,1.642,3.393,2.385
				c0.601,0.374,1.312,0.718,2.094,1.026c1.001,0.322,1.493,0.355,2.212,0.507c5.232,0.806,10.262,0.956,15.314,1.204
				c5.046,0.268,10.066,0.342,15.058,0.785c0.359,0.033,0.718,0.096,1.088,0.135
				C1277.685,397.041,1277.586,397.203,1277.484,397.373 M1272.905,402.797c-0.135,0.206-0.242,0.375-0.353,0.549
				c-0.077,0.08-0.159,0.152-0.236,0.232c-0.852,0.057-1.71,0.096-2.559,0.184c-5.541,0.521-11.048,1.262-16.51,1.955
				c-5.365,0.615-11.093,1.393-15.84,0.598c-0.535-0.119-1.171-0.311-1.413-0.432c-0.025-0.004-0.257-0.146-0.395-0.205
				l-0.345-0.206l-0.887-0.542l-3.521-2.133l-7.015-4.368c-9.319-5.866-18.427-12.056-27.304-18.454
				c-4.424-3.189-8.8-6.467-12.867-9.924c-2.059-1.699-3.943-3.395-5.729-5.311c-1.844-1.934-3.628-3.926-5.34-5.973
				c-3.414-4.108-6.632-8.418-9.706-12.871c-1.531-2.231-3.037-4.507-4.495-6.789l-1.111-1.744l-0.553-0.876
				c-0.129-0.229-0.227-0.348-0.308-0.546c-0.362-0.725-0.613-1.527-0.726-2.484c-0.4-3.934,1.532-9.108,3.67-13.906
				c1.847-4.25,3.928-8.549,5.862-13.06c-0.936,2.409-1.826,4.872-2.589,7.503c-0.686,2.781-1.603,5.526-0.941,9.609
				c0.077,0.865,0.853,2.529,1.014,2.829l0.972,1.88c0.685,1.206,1.375,2.41,2.108,3.567c1.438,2.331,2.958,4.552,4.527,6.776
				c3.124,4.369,6.434,8.576,9.915,12.602c6.894,8.129,14.259,15.779,22.024,23.003c7.762,7.246,15.864,14.11,24.6,20.313
				c2.191,1.54,4.439,3.036,6.803,4.396c2.394,1.351,4.795,2.68,7.822,3.447c3.008,0.6,5.805,0.383,8.449,0.232
				c2.674-0.171,5.3-0.466,7.915-0.75c5.222-0.531,10.412-1.26,15.604-1.488c0.449-0.022,0.902-0.019,1.36-0.027
				C1274.085,401.25,1273.429,402.08,1272.905,402.797 M1269.153,407.818c-0.132,0.234-0.248,0.479-0.371,0.719
				c-1.073,0.148-2.151,0.295-3.215,0.473c-5.82,0.953-11.605,2.08-17.354,3.273c-2.876,0.578-5.751,1.184-8.594,1.674
				c-1.418,0.259-2.891,0.51-4.134,0.586c-0.966,0.026-2.427-0.238-3.697-0.537c-5.32-1.361-10.63-3.856-15.808-6.378
				c-10.391-5.148-20.43-11.196-30.661-16.97c-5.068-2.906-10.119-5.82-14.84-8.932c-4.749-3.09-8.934-6.472-12.485-10.641
				c-3.561-4.156-6.797-8.895-9.981-13.752l-4.724-7.357l-1.089-1.751c-0.159-0.257-0.297-0.556-0.373-0.931
				c-0.189-0.73-0.253-1.747-0.114-2.885c0.58-4.669,3.131-10.045,5.674-15.119c0.297-0.611,0.633-1.225,0.945-1.854
				c-0.507,2.049-0.857,4.258-0.722,6.678c0.122,1.803,0.544,3.727,1.421,5.483c0.201,0.432,0.482,0.894,0.702,1.257l0.536,0.889
				l1.086,1.766c1.496,2.395,3.002,4.752,4.577,7.094c3.122,4.704,6.487,9.301,10.237,13.615c1.85,2.16,3.801,4.27,5.793,6.312
				c2.027,2.098,4.287,4.075,6.51,5.86c4.506,3.549,9.129,6.704,13.799,9.788c9.35,6.112,19.015,11.65,28.738,17.02l7.348,3.949
				l3.689,1.934l0.93,0.487l0.538,0.28l0.555,0.236c1.027,0.408,1.768,0.534,2.599,0.664c3.187,0.352,6.004,0.027,8.827-0.338
				c2.804-0.381,5.556-0.896,8.28-1.429c5.464-1.049,10.824-2.38,16.242-3.373c0.229-0.042,0.458-0.079,0.688-0.116
				C1270.149,406.225,1269.621,406.985,1269.153,407.818 M1266.839,413.453c-1.734,0.426-3.468,0.861-5.182,1.335l-18.143,5.026
				c-3.012,0.797-6.046,1.562-9.032,2.117c-1.49,0.267-3.03,0.528-4.288,0.54c-1.248-0.012-2.736-0.293-4.174-0.61
				c-5.868-1.33-11.798-3.463-17.615-5.614c-11.654-4.384-23.104-9.454-34.413-14.694c-5.635-2.617-11.24-5.342-16.631-8.277
				c-2.639-1.423-5.426-2.967-7.475-4.506c-2.117-1.664-4.277-3.785-6.269-5.965c-3.997-4.469-7.726-9.349-11.2-14.34
				c-1.679-2.455-3.475-5.234-4.629-7.445c-0.21-0.411-0.215-0.457-0.283-0.636c-0.049-0.165-0.105-0.346-0.139-0.547
				c-0.074-0.414-0.114-0.89-0.08-1.431c0.053-1.102,0.265-2.363,0.637-3.677c1.306-4.556,3.736-9.249,6.297-13.883
				c-0.193,0.808-0.38,1.632-0.541,2.481c-0.24,1.78-0.357,3.762,0.135,5.885c0.236,1.059,0.645,2.123,1.231,3.145l1.223,2.009
				l4.696,7.525c3.197,4.995,6.506,10.067,10.701,14.753c4.118,4.754,9.217,8.752,14.367,11.979
				c5.166,3.247,10.443,5.951,15.666,8.701c10.451,5.38,20.984,10.707,31.933,15.408c5.514,2.291,11.041,4.551,17.216,5.77
				c1.6,0.242,3.078,0.477,5.029,0.316c1.684-0.234,3.097-0.596,4.558-0.941c2.895-0.722,5.734-1.514,8.562-2.301
				c5.679-1.539,11.294-3.219,16.968-4.685c0.741-0.188,1.366-0.327,1.942-0.448
				C1267.504,411.441,1267.161,412.448,1266.839,413.453 M1265.241,418.289c-2.315,0.797-4.594,1.604-7.051,2.466l-18.925,6.642
				c-3.157,1.051-6.33,2.094-9.472,2.888c-0.76,0.19-1.57,0.368-2.239,0.47c-0.633,0.082-1.375,0.076-2.131,0.062
				c-1.509-0.055-3.104-0.256-4.701-0.51c-6.412-1.051-12.847-2.799-19.209-4.648c-12.754-3.727-25.352-8.192-37.828-12.824
				c-6.223-2.323-12.436-4.738-18.501-7.32l-4.507-1.977l-2.224-1.025c-0.678-0.307-1.22-0.598-1.831-0.959
				c-2.396-1.452-4.69-3.488-6.826-5.715c-4.297-4.527-7.941-9.926-11.402-15.405c-1.668-2.684-3.445-5.763-4.775-8.304
				c-0.702-1.184-0.443-3.914,0.552-6.631c1.27-3.606,3.229-7.26,5.417-10.886c-0.251,1.074-0.451,2.17-0.527,3.367
				c-0.053,1.025-0.012,2.121,0.163,3.267c0.098,0.57,0.244,1.146,0.424,1.721c0.19,0.58,0.483,1.271,0.635,1.559
				c1.708,3.384,3.351,5.857,5.177,8.638c3.576,5.376,7.478,10.511,11.964,15.341c2.271,2.409,4.603,4.721,7.439,6.892
				c3.019,2.193,5.811,3.618,8.69,5.153c5.752,2.887,11.552,5.43,17.388,7.902c11.69,4.899,23.569,9.242,35.646,13.09
				c6.068,1.885,12.123,3.711,18.557,4.84c1.653,0.26,3.277,0.486,5.186,0.416c1.896-0.174,3.421-0.564,5.003-0.945
				c3.147-0.805,6.167-1.774,9.164-2.775c6-1.99,11.859-4.281,17.761-6.455l4.036-1.438
				C1265.964,416.237,1265.625,417.276,1265.241,418.289 M1262.315,423.488c-0.223,0.24-0.438,0.484-0.671,0.713
				c-8.66,4.029-18.178,8.406-32.037,12.949c-1.629,0.52-3.283,0.959-4.921,1.352c-1.722,0.427-2.913,0.569-4.615,0.476
				c-3.278-0.112-6.694-0.618-10.09-1.166c-6.792-1.14-13.58-2.61-20.352-4.188c-13.528-3.139-26.944-6.886-40.287-10.666
				c-6.661-1.943-13.312-3.996-19.747-6.232c-1.618-0.549-3.219-1.121-4.756-1.73c-1.473-0.582-3.114-1.273-3.995-1.887
				c-2.31-1.521-4.759-3.885-6.983-6.282c-4.465-4.87-8.57-10.339-11.798-15.974c-1.578-2.832-2.925-5.723-3.277-8.288
				c-0.077-0.388,0.138-1.919,0.597-3.204c0.477-1.364,1.124-2.805,1.82-4.262c1.145-2.275,2.471-4.533,3.85-6.789
				c0,0.098-0.033,0.179-0.039,0.289c-0.226,2.136-0.095,4.664,1.049,7.084c1.73,3.411,3.302,6.133,5.125,9.168
				c3.559,5.908,7.596,11.577,12.568,16.783c2.501,2.567,5.264,5.035,8.622,7.036c0.831,0.486,1.788,0.968,2.606,1.347l2.363,1.064
				c1.586,0.686,3.158,1.322,4.75,1.949c6.336,2.488,12.692,4.744,19.086,6.896c12.793,4.275,25.73,8.022,38.867,11.233
				c6.572,1.568,13.182,3.042,20.05,3.844c1.729,0.176,3.481,0.318,5.294,0.285c0.942-0.014,1.863-0.07,2.906-0.262
				c0.967-0.221,1.785-0.457,2.627-0.715c3.322-1.058,6.438-2.302,9.575-3.561c8.358-3.297,15.891-6.811,23.852-10.385
				C1263.813,421.47,1263.149,422.514,1262.315,423.488 M1253.49,430.795c-1.62,1.407-3.472,2.547-5.347,3.602
				c-1.145,0.715-1.914,1.116-2.233,1.273c-1.181,0.617-2.369,1.204-3.562,1.759c-2.548,1.255-10.423,4.625-10.423,4.625
				l-0.003-0.004c-1.448,0.649-2.925,1.237-4.424,1.714c-0.042,0.013-0.067,0.043-0.107,0.062c-2.442,0.832-4.896,1.604-7.368,2.15
				c-0.814,0.186-1.666,0.371-2.438,0.471c-0.711,0.062-1.506,0.109-2.347,0.123c-1.653-0.01-3.354-0.09-5.062-0.191
				c-13.759-1.08-27.578-3.657-41.295-6.266c-6.855-1.348-13.699-2.773-20.537-4.268c-6.834-1.438-13.649-2.947-20.434-4.572
				l-10.096-2.55c-3.285-0.872-6.779-1.791-9.544-2.872c-2.303-0.965-4.845-3.03-7.165-5.268c-2.342-2.266-4.55-4.775-6.576-7.402
				c-2.041-2.645-3.976-5.378-5.647-8.212c-1.64-2.785-3.131-5.776-3.798-8.44c-0.153-0.635-0.264-1.262-0.27-1.698
				c-0.004,0.062,0.012-0.902,0.032-0.915c0.021-0.191,0.081-0.532,0.129-0.841c0.257-1.307,0.731-2.728,1.33-4.171
				c1.158-2.688,2.67-5.443,4.315-8.14c-0.105,0.903-0.15,1.845-0.047,2.989c0.616,4.362,2.387,7.895,4.123,11.164
				c3.604,6.543,7.982,12.305,13.006,17.67c2.574,2.67,5.133,5.239,8.665,7.561c2.062,1.273,3.709,1.852,5.454,2.566
				c1.729,0.667,3.418,1.252,5.113,1.82c6.781,2.211,13.562,4.037,20.363,5.818c13.598,3.572,27.321,6.459,41.121,9.076
				c6.905,1.258,13.838,2.453,20.873,3.289c3.526,0.387,7.043,0.764,10.755,0.732c1.79,0.031,4.068-0.385,5.711-0.939
				c1.733-0.518,3.418-1.109,5.087-1.734c6.646-2.523,12.985-5.541,19.201-8.791c1.89-0.987,3.328-1.681,4.616-2.299
				C1254.286,430.068,1253.897,430.441,1253.49,430.795 M1136.795,297.294c0.016-0.362,0.043-0.722,0.08-1.088
				c0.182,2.137,0.373,4.266,0.621,6.408c0.209,1.677,0.419,3.371,0.696,5.079l0.05,0.307c-0.029-0.097,0.006,0.156,0.017,0.215
				c0.007,0.176,0.067,0.461,0.048,0.568c0,0.23,0,0.518-0.025,0.871c-0.047,0.659-0.146,1.334-0.336,2.041
				c-0.164,0.603-0.357,1.203-0.572,1.799c-0.045-0.768-0.09-1.538-0.135-2.31l-0.385-5.684c-0.09-1.877-0.062-3.701-0.104-5.556
				C1136.733,299.018,1136.713,298.077,1136.795,297.294 M1142.619,280.92c0.25,1.451,0.473,2.897,0.732,4.34l1.717,9.286
				l0.885,4.633c0.254,1.467,0.76,3.35,0.629,4.109c-0.11,2.358-1.273,5.2-2.573,7.833c-0.328,0.641-0.704,1.294-1.044,1.948
				c0.016-0.109,0.053-0.216,0.078-0.32c0.175-0.934,0.27-1.924,0.287-2.934c0.012-0.498-0.016-1.051-0.077-1.641
				c-0.032-0.322-0.081-0.449-0.111-0.686l-0.14-0.701c-0.342-1.59-0.652-3.22-0.944-4.849c-0.569-3.259-1.107-6.549-1.589-9.853
				c-0.267-1.771-0.502-3.55-0.744-5.333C1140.588,284.804,1141.577,282.86,1142.619,280.92 M1147.946,273.457
				c0.626,1.997,1.252,3.995,1.878,5.991l2.662,8.392l1.324,4.185c0.402,1.378,0.969,2.892,1.07,3.806
				c0.244,2.048-0.506,4.711-1.51,7.209c-0.704,1.758-1.551,3.517-2.463,5.243c0.407-1.538,0.707-3.179,0.715-4.997
				c-0.128-2.401-0.715-3.53-1.045-5.142l-1.183-4.563l-2.364-9.111l-1.91-7.572
				C1145.985,275.693,1146.918,274.543,1147.946,273.457 M1153.955,268.235c0.783,1.64,1.574,3.275,2.334,4.922
				c2.275,4.98,4.66,10.125,6.775,14.967c1.57,3.821-0.461,8.979-2.664,13.682c-0.493,0.99-0.996,1.979-1.507,2.987
				c0.884-2.936,1.769-6.07,1.161-9.809c-0.44-1.978-1.066-3.17-1.555-4.595l-1.588-4.118l-3.277-8.205
				c-0.963-2.418-1.969-4.807-2.962-7.205C1151.716,269.95,1152.811,269.069,1153.955,268.235 M1172.299,283.351l0.023,0.024
				C1172.379,283.494,1172.346,283.419,1172.299,283.351 M1160.07,264.193c0.453,0.664,0.914,1.327,1.36,1.994
				c2.874,4.357,5.7,8.759,8.463,13.183l2.024,3.332l0.247,0.402l0.052,0.095l0.046,0.111c0.106,0.267,0.36,0.714,0.272,0.686
				c-0.045,0.025,0.076,0.603,0.036,1.042c-0.036,1.943-0.714,4.4-1.503,6.722c-1.244,3.682-2.807,7.391-4.377,11.152
				c0.852-2.242,1.63-4.567,2.079-7.097c0.551-2.965,0.621-6.622-0.938-9.754c-2.636-5.12-5.221-9.864-8.003-14.711
				c-0.978-1.711-1.995-3.399-3.001-5.094C1157.888,265.554,1158.968,264.869,1160.07,264.193 M1193.797,233.143
				c8.445,2.399,16.85,4.924,25.135,7.781c5.041,1.731,10.055,3.569,14.928,5.617c2.406,1.026,4.814,2.086,7.074,3.22
				c2.392,1.18,3.807,2.122,5.646,3.935c3.615,3.412,7.104,7.365,10.314,11.364c3.196,3.998,6.256,8.29,8.14,12.509
				c0.453,0.996,0.824,2.172,0.945,2.816c0.166,0.98,0.181,2.091,0.194,3.372c-0.028,2.5-0.147,5.131-0.308,7.77
				c-0.317,5.271-0.769,10.616-1.221,15.957c-0.65,7.999-1.312,16.012-1.719,24.109c-0.021,0.205-0.038,0.451-0.049,0.743
				c-0.017,0.476-0.032,0.909-0.049,1.304c-0.016,0.375-0.03,0.747-0.046,1.119c-0.133,2.934-0.23,2.927-0.423,2.889
				c-0.044-0.01-0.093-0.463-0.146-1.198c-0.069-1.294-0.142-2.641-0.208-3.88c-0.09-2.047-0.174-4.292-0.23-5.89
				c-0.024-3.349-0.035-6.707-0.062-10.064c-0.062-5.183-0.154-10.363-0.385-15.621c-0.146-2.688-0.237-5.182-0.703-8.225
				c-0.523-3.126-1.803-5.904-3.05-8.392c-5.346-9.798-12.118-17.862-19.472-25.481c-3.748-3.767-7.587-7.3-12.104-10.615
				c-2.642-1.79-5.038-2.799-7.525-3.876c-2.461-1.044-4.928-1.966-7.406-2.865c-6.157-2.188-12.359-4.113-18.592-5.914
				C1192.903,234.858,1193.346,234.021,1193.797,233.143 M1272.604,342.549c-0.065-0.521-0.069-1.133-0.037-1.762
				c0.031-0.801,0.148-1.635,0.23-2.447l0.138,0.229l2.413,3.844l9.729,15.18l0.967,1.518c0.091,0.27,0.203,0.533,0.292,0.798
				c0.471,1.267,0.779,2.541,1.067,3.808c-0.74-1.069-1.464-2.165-2.229-3.229c-3.271-4.627-6.561-9.228-9.974-13.747l-2.48-3.329
				C1272.817,343.535,1272.642,343.062,1272.604,342.549 M1195.422,229.552c0.234-0.648,0.461-1.26,0.683-1.846l1.078,0.206
				c11.066,2.184,22.131,4.461,33.11,7.032c10.754,3.484,23.803,2.764,31.086,7.683c1.777,1.355,3.795,3.343,5.631,5.198
				c1.851,1.938,3.627,3.973,5.304,6.019c1.668,2.078,3.215,4.221,4.477,6.414c1.268,2.149,2.266,4.455,2.553,6.318
				c0.246,1.658-0.109,4.629-0.487,7.205c-0.371,2.677-0.844,5.411-1.354,8.142c-1.013,5.476-2.178,10.988-3.344,16.49
				c-0.684,3.462-1.396,6.921-2.084,10.392c0.026-0.185,0.056-0.367,0.072-0.55c0.637-5.352,1.268-10.696,1.775-16.115
				c0.258-2.727,0.481-5.449,0.513-8.322c0.012-1.404,0.016-2.981-0.23-4.649c-0.369-2.017-0.888-3.396-1.483-4.863
				c-2.475-5.61-5.74-10.111-9.174-14.546c-3.512-4.357-7.239-8.426-11.664-12.148c-0.566-0.457-1.15-0.914-1.77-1.357
				c-0.528-0.398-1.518-1.064-1.998-1.31c-1.535-0.871-2.763-1.389-4.113-1.947c-2.646-1.092-5.259-1.956-7.893-2.746
				c-5.252-1.572-10.492-2.921-15.751-4.218c-8.419-2.04-16.842-3.896-25.303-5.611
				C1195.174,230.13,1195.308,229.848,1195.422,229.552 M1332.604,225.174c-0.093-1.414-0.436-2.841-0.662-4.261
				c-0.359-1.383-0.909-2.71-1.37-4.063c-1.683-4.135-4.485-7.883-7.96-10.745c-7.981-6.749-14.353-6.223-20.972-6.441
				c-6.646-0.22-20.719,4.671-20.719,4.671h0.106c-4.06,1.075-8.091,2.157-12.132,3.133c-3.204,0.763-6.417,1.52-9.559,1.949
				c-1.387,0.225-3.128,0.22-4.791,0.294l-4.999,0.213l-19.979,0.963l-2.703,0.094c-0.306,0-1.34,0.026-1.565,0.026
				c-4.749,0.002-9.863-0.007-14.704,0.854c-5.918,0.833-10.828,3.659-13.635,5.618c-0.032,0.021-0.064,0.04-0.1,0.061
				c-0.004-0.002-1.026,0.694-1.932,1.48c-0.333,0.277-0.51,0.437-0.51,0.437l0.011,0.018c-0.21,0.205-0.399,0.406-0.546,0.597
				c-0.895,1.033-1.807,2.152-2.418,3.251c-0.112,0.173-0.203,0.335-0.309,0.507c-0.91,1.228-1.821,2.619-2.72,4.254
				c-0.005,0.013-0.012,0.023-0.021,0.036c-0.664,0.989-1.347,2.041-2.021,3.088c-0.525,0.698-0.986,1.316-1.365,1.82
				c-0.689,0.998-1.217,1.506-1.217,1.506c-1.5,1.825-2.77,3.691-4.534,5.491c-1.464,1.603-2.961,3.18-4.457,4.67
				c-3.056,3.029-5.225,5.266-9.094,7.687l-1.077,0.848c-6.229,3.9-13.16,7.491-19.238,12.935c-0.7,0.62-1.375,1.279-2.033,1.951
				c-0.658,0.484-1.24,0.909-1.727,1.255c-0.92,0.732-1.44,1.205-1.447,1.208l-2.438,2.391l-2.264,2.624
				c-0.372,0.448-0.748,0.89-1.126,1.334l-0.994,1.438l-1.963,2.897c-1.122,1.976-2.349,3.888-3.28,5.999
				c-2.047,4.1-3.557,8.437-4.704,12.814c-1.193,4.381-1.912,8.806-2.467,13.244c-0.592,4.535-0.693,8.68-1.511,12.66
				c-0.236,1.24-0.545,2.447-0.897,3.631c-0.746,1.488-1.618,2.969-2.527,4.423c-1.816,2.86-3.836,5.647-5.912,8.403
				c-8.406,11.041-17.843,21.438-25.908,33.488c-1.986,3.031-3.947,6.172-5.49,9.739c-0.779,1.786-1.459,3.692-1.896,5.845
				c-0.092,0.549-0.2,1.088-0.254,1.768c-0.076,0.844-0.074,0.768-0.076,1.695c0.016,1.315,0.241,2.428,0.459,3.5
				c1.055,4.164,2.792,7.501,4.635,10.762c1.887,3.229,3.95,6.287,6.234,9.182c2.293,2.891,4.734,5.645,7.459,8.256
				c2.749,2.547,5.674,5.125,9.862,6.915c3.799,1.438,7.116,2.239,10.619,3.148c3.457,0.86,6.929,1.618,10.388,2.354
				c13.811,2.979,27.683,5.416,41.626,7.445c13.966,2.002,27.901,3.969,42.201,4.447c1.803,0.043,3.601,0.018,5.463-0.133
				c0.91-0.072,1.868-0.182,2.888-0.369c0.965-0.205,1.811-0.451,2.683-0.723c3.49-1.078,6.82-2.41,10.029-3.965
				c3.518-1.736,7.033-3.57,10.398-5.553c3.524-1.59,6.949-3.426,10.244-5.465c1.534-0.902,3.508-2.077,5.341-3.18
				c0.004-0.004,0.009-0.025,0.009-0.025s5.957-3.564,9.695-7.402c1.466-1.557,2.812-3.215,3.92-5.138
				c1.189-2.06,1.757-4.481,2.418-6.741c0.249-0.861,0.588-1.648,0.97-2.4c0.849-1.389,2.427-3.352,2.427-3.352
				c1.492-1.908,3.31-3.472,4.585-4.398c0.235-0.154,0.488-0.332,0.749-0.52c0.028-0.016,0.062-0.041,0.086-0.057
				c0.514-0.319,1.245-0.93,1.912-1.522c0.051-0.044,0.101-0.087,0.151-0.131c0.22-0.196,0.43-0.387,0.62-0.562
				c0.036-0.034,0.074-0.068,0.112-0.104c0.452-0.418,0.768-0.727,0.768-0.727l-0.016-0.008c0.732-0.734,1.49-1.578,2.256-2.52
				c0.026-0.027,0.063-0.063,0.087-0.088c0.227-0.264,0.346-0.398,0.346-0.398c1.518-1.971,2.724-3.837,3.864-5.982
				c0.106-0.182,0.215-0.36,0.303-0.547c0.418-0.84,0.794-1.703,1.137-2.579c2.099-4.837,3.803-10.95,4.565-18.628
				c0.24-1.877,0.349-3.763,0.383-5.654c0.056-0.674,0.336-4.728-0.571-8.707c-0.221-1.431-0.49-2.85-0.842-4.244
				c-1.083-4.129-2.325-7.846-3.449-11.524c-0.082-0.687-0.171-1.376-0.258-2.039c-0.643-4.749-0.749-9.216-0.088-13.737
				c0.663-4.492,2.059-8.906,3.927-13.208c1.829-4.278,4.222-8.443,6.658-12.645c2.461-4.193,5.047-8.352,7.609-12.571
				c5.123-8.407,10.199-17.065,14.112-26.458c1.94-4.692,3.517-9.628,4.564-14.665l0.379-1.897c0.057-0.262,0.155-0.746,0.155-0.845
				l0.045-0.478l0.016-0.14c0.571-1.751,1.079-3.55,1.418-5.432c0.308-1.32,0.364-2.745,0.549-4.113
				C1332.737,228.031,1332.604,226.584,1332.604,225.174"/>
		</g>
	</g>
	<polygon opacity="0.55" fill="#717171" points="225.279,354.433 225.279,370.616 210.169,370.616 210.169,373.835 225.279,373.835 
		225.279,390.477 228.732,390.477 228.732,373.835 243.76,373.835 243.76,370.616 228.732,370.616 228.732,354.433 	"/>
	<polygon opacity="0.55" fill="#717171" points="259.761,517.369 259.761,523.042 275.938,523.042 275.938,568.518 282.306,568.518 
		282.306,523.042 298.562,523.042 298.562,517.369 	"/>
	<g opacity="0.55">
		<path fill="#717171" d="M315.637,523.045V542.6h13.422c6.057,0,10.277-4.063,10.277-9.818c0-5.831-4.22-9.736-10.277-9.736
			H315.637 M346.39,568.52h-7.515l-12.956-20.324h-10.282v20.324h-6.367v-51.15h20.558c9.352,0,16.102,5.979,16.102,15.412
			c0,9.208-6.367,14.265-13.346,14.878L346.39,568.52"/>
		<path fill="#717171" d="M379.106,569.443c-13.807,0-20.858-8.21-20.858-20.787v-31.287h6.438v31.135
			c0,9.35,4.983,15.262,14.42,15.262c9.428,0,14.491-5.912,14.491-15.262v-31.135h6.446v31.211
			C400.043,561.31,392.988,569.443,379.106,569.443"/>
		<path fill="#717171" d="M430.831,569.443c-8.815,0-15.406-3.38-19.632-8.134l3.839-4.909c3.299,3.835,8.815,7.365,16.025,7.365
			c9.129,0,12.039-4.912,12.039-8.897c0-13.19-30.286-5.83-30.286-24.08c0-8.434,7.512-14.264,17.637-14.264
			c7.743,0,13.801,2.685,18.096,7.21l-3.838,4.675c-3.832-4.293-9.202-6.134-14.796-6.134c-6.062,0-10.511,3.299-10.511,8.129
			c0,11.503,30.289,4.909,30.289,24.007C449.693,561.773,444.637,569.443,430.831,569.443"/>
		<polygon fill="#717171" points="480.043,568.52 473.677,568.52 473.677,523.045 457.495,523.045 457.495,517.369 496.301,517.369 
			496.301,523.045 480.043,523.045 		"/>
		<polygon fill="#717171" points="293.275,495.584 259.761,495.584 259.761,444.434 293.275,444.434 293.275,450.106 
			266.13,450.106 266.13,466.598 292.74,466.598 292.74,472.272 266.13,472.272 266.13,489.909 293.275,489.909 		"/>
		<polygon fill="#717171" points="348.001,495.584 341.863,495.584 312.034,454.784 312.034,495.584 305.669,495.584 
			305.669,444.434 312.184,444.434 341.634,484.384 341.634,444.434 348.001,444.434 		"/>
		<polygon fill="#717171" points="395.747,495.584 362.233,495.584 362.233,444.434 395.747,444.434 395.747,450.106 
			368.595,450.106 368.595,466.598 395.205,466.598 395.205,472.272 368.595,472.272 368.595,489.909 395.747,489.909 		"/>
		<path fill="#717171" d="M414.504,450.106v19.556h13.422c6.057,0,10.281-4.062,10.281-9.816c0-5.828-4.225-9.739-10.281-9.739
			H414.504 M445.257,495.584h-7.513l-12.962-20.323h-10.278v20.323h-6.365v-51.15h20.556c9.353,0,16.101,5.981,16.101,15.412
			c0,9.206-6.37,14.264-13.342,14.878L445.257,495.584"/>
		<path fill="#717171" d="M481.347,496.582c-14.566,0-26.306-10.663-26.306-26.536c0-15.949,11.739-26.459,26.306-26.459
			c9.121,0,15.418,3.99,19.861,9.513l-5.063,3.219c-3.213-4.14-8.665-7.055-14.798-7.055c-11.192,0-19.707,8.51-19.707,20.782
			c0,12.116,8.515,20.788,19.707,20.788c6.133,0,11.194-2.921,13.798-5.529v-10.353h-17.634v-5.672h23.932v18.407
			C496.683,493.052,489.703,496.582,481.347,496.582"/>
		<polygon fill="#717171" points="534.611,495.584 528.25,495.584 528.25,473.961 508.082,444.434 515.513,444.434 531.399,468.206 
			547.263,444.434 554.705,444.434 534.611,473.961 		"/>
		<path fill="#717171" d="M286.067,424.394c-14.725,0-26.307-10.737-26.307-26.46c0-15.717,11.582-26.459,26.307-26.459
			c9.047,0,15.333,4.295,19.4,10.126l-5.291,2.987c-2.917-4.367-8.281-7.438-14.109-7.438c-11.195,0-19.708,8.513-19.708,20.784
			c0,12.117,8.512,20.788,19.708,20.788c5.828,0,11.192-3.144,14.109-7.442l5.367,2.914
			C301.25,420.095,295.114,424.394,286.067,424.394"/>
		<polygon fill="#717171" points="345.237,423.472 315.098,423.472 315.098,372.321 321.465,372.321 321.465,417.798 
			345.237,417.798 		"/>
		<polygon fill="#717171" points="389.54,423.472 356.026,423.472 356.026,372.321 389.54,372.321 389.54,377.997 362.396,377.997 
			362.396,394.485 389.001,394.485 389.001,400.158 362.396,400.158 362.396,417.798 389.54,417.798 		"/>
		<path fill="#717171" d="M421.184,378.84l-10.812,27.606h21.703L421.184,378.84z M445.723,423.472h-7.286l-4.525-11.423h-25.459
			l-4.522,11.423h-7.286l20.63-51.15h7.899L445.723,423.472"/>
		<polygon fill="#717171" points="496.992,423.472 490.856,423.472 461.028,382.672 461.028,423.472 454.66,423.472 454.66,372.321 
			461.179,372.321 490.626,412.272 490.626,372.321 496.992,372.321 		"/>
	</g>
</g>
<g id="Layer_2">
</g>
</svg>
