<?xml version="1.0" encoding="utf-8"?>
<!-- Generator: Adobe Illustrator 18.1.1, SVG Export Plug-In . SVG Version: 6.00 Build 0)  -->
<svg version="1.1" id="Layer_1" xmlns="http://www.w3.org/2000/svg" xmlns:xlink="http://www.w3.org/1999/xlink" x="0px" y="0px"
	 viewBox="0 0 481 268" enable-background="new 0 0 481 268" xml:space="preserve">
<g>
	<polygon fill="#B1B1B1" points="9.4,106.8 9.4,114.7 2,114.7 2,116.2 9.4,116.2 9.4,124.3 11.1,124.3 11.1,116.2 18.4,116.2 
		18.4,114.7 11.1,114.7 11.1,106.8 	"/>
	<polygon fill="#B1B1B1" points="26.2,186.3 26.2,189.1 34.1,189.1 34.1,211.2 37.2,211.2 37.2,189.1 45.1,189.1 45.1,186.3 	"/>
	<g>
		<path fill="#B1B1B1" d="M53.5,189.1v9.5H60c3,0,5-2,5-4.8s-2.1-4.8-5-4.8h-6.5 M68.5,211.2h-3.7l-6.3-9.9h-5v9.9h-3.1v-25h10
			c4.6,0,7.9,2.9,7.9,7.5c0,4.5-3.1,7-6.5,7.3L68.5,211.2"/>
		<path fill="#B1B1B1" d="M84.5,211.7c-6.7,0-10.2-4-10.2-10.1v-15.3h3.1v15.2c0,4.6,2.4,7.4,7,7.4s7.1-2.9,7.1-7.4v-15.2h3.1v15.2
			C94.7,207.7,91.2,211.7,84.5,211.7"/>
		<path fill="#B1B1B1" d="M109.7,211.7c-4.3,0-7.5-1.6-9.6-4l1.9-2.4c1.6,1.9,4.3,3.6,7.8,3.6c4.5,0,5.9-2.4,5.9-4.3
			c0-6.4-14.8-2.8-14.8-11.8c0-4.1,3.7-7,8.6-7c3.8,0,6.7,1.3,8.8,3.5l-1.9,2.3c-1.9-2.1-4.5-3-7.2-3c-3,0-5.1,1.6-5.1,4
			c0,5.6,14.8,2.4,14.8,11.7C118.9,208,116.4,211.7,109.7,211.7"/>
		<polygon fill="#B1B1B1" points="133.7,211.2 130.6,211.2 130.6,189.1 122.7,189.1 122.7,186.3 141.7,186.3 141.7,189.1 
			133.7,189.1 		"/>
		<polygon fill="#B1B1B1" points="42.6,175.6 26.2,175.6 26.2,150.7 42.6,150.7 42.6,153.5 29.3,153.5 29.3,161.5 42.3,161.5 
			42.3,164.3 29.3,164.3 29.3,172.9 42.6,172.9 		"/>
		<polygon fill="#B1B1B1" points="69.3,175.6 66.3,175.6 51.7,155.7 51.7,175.6 48.6,175.6 48.6,150.7 51.8,150.7 66.2,170.2 
			66.2,150.7 69.3,150.7 		"/>
		<polygon fill="#B1B1B1" points="92.6,175.6 76.2,175.6 76.2,150.7 92.6,150.7 92.6,153.5 79.3,153.5 79.3,161.5 92.3,161.5 
			92.3,164.3 79.3,164.3 79.3,172.9 92.6,172.9 		"/>
		<path fill="#B1B1B1" d="M101.7,153.5v9.5h6.6c3,0,5-2,5-4.8s-2.1-4.8-5-4.8L101.7,153.5 M116.7,175.6H113l-6.3-9.9h-5v9.9h-3.1
			v-25h10c4.6,0,7.9,2.9,7.9,7.5c0,4.5-3.1,7-6.5,7.3L116.7,175.6"/>
		<path fill="#B1B1B1" d="M134.4,176.1c-7.1,0-12.8-5.2-12.8-13s5.7-12.9,12.8-12.9c4.5,0,7.5,1.9,9.7,4.6l-2.5,1.6
			c-1.6-2-4.2-3.4-7.2-3.4c-5.5,0-9.6,4.2-9.6,10.1c0,5.9,4.2,10.1,9.6,10.1c3,0,5.5-1.4,6.7-2.7v-5.1h-8.6v-2.8h11.7v9
			C141.8,174.4,138.4,176.1,134.4,176.1"/>
		<polygon fill="#B1B1B1" points="160.4,175.6 157.2,175.6 157.2,165.1 147.4,150.7 151,150.7 158.8,162.3 166.5,150.7 170.2,150.7 
			160.4,165.1 		"/>
		<path fill="#B1B1B1" d="M39,140.9c-7.2,0-12.8-5.2-12.8-12.9s5.7-12.9,12.8-12.9c4.4,0,7.5,2.1,9.5,4.9l-2.6,1.5
			c-1.4-2.1-4-3.6-6.9-3.6c-5.5,0-9.6,4.2-9.6,10.1s4.2,10.1,9.6,10.1c2.8,0,5.5-1.5,6.9-3.6l2.6,1.4
			C46.5,138.8,43.5,140.9,39,140.9"/>
		<polygon fill="#B1B1B1" points="67.9,140.5 53.2,140.5 53.2,115.5 56.3,115.5 56.3,137.7 67.9,137.7 		"/>
		<polygon fill="#B1B1B1" points="89.5,140.5 73.2,140.5 73.2,115.5 89.5,115.5 89.5,118.3 76.3,118.3 76.3,126.3 89.3,126.3 
			89.3,129.1 76.3,129.1 76.3,137.7 89.5,137.7 		"/>
		<path fill="#B1B1B1" d="M105,118.7l-5.3,13.5h10.6L105,118.7z M117,140.5h-3.6l-2.2-5.6H98.8l-2.2,5.6H93l10.1-25h3.9L117,140.5"
			/>
		<polygon fill="#B1B1B1" points="142,140.5 139,140.5 124.4,120.5 124.4,140.5 121.3,140.5 121.3,115.5 124.5,115.5 138.9,135 
			138.9,115.5 142,115.5 		"/>
	</g>
</g>
<rect x="369.6" y="162.6" fill="#221F1F" width="81.5" height="8.2"/>
<g enable-background="new    ">
	<rect x="392.6" y="189.7" fill="#221F1F" width="2.6" height="22.7"/>
	<g>
		<path fill="#221F1F" d="M400.5,202.9h9.9c-0.2-3.3-1.8-5.3-4.8-5.3C402.5,197.6,400.9,199.9,400.5,202.9 M397.8,204.2
			c0-4.8,3.1-8.6,7.8-8.6c4.9,0,7.6,3.8,7.6,9.2h-12.7c0.2,3.3,2,5.9,5.3,5.9c2.4,0,4-1.1,4.5-3.4h2.5c-0.8,3.5-3.3,5.5-7,5.5
			C400.7,212.9,397.8,209,397.8,204.2"/>
	</g>
	<g>
		<path fill="#221F1F" d="M425.8,206.4v-2.8c-0.9,0.5-2.3,1-3.7,1.2c-2.6,0.5-4.6,0.9-4.6,3.3c0,2.2,1.7,2.7,3.4,2.7
			C424.2,210.8,425.8,208.3,425.8,206.4 M425.7,210.2L425.7,210.2c-1,1.3-2.7,2.6-5.5,2.6c-3.1,0-5.6-1.5-5.6-4.6
			c0-3.9,3-4.7,7.1-5.3c2.3-0.3,3.9-0.6,3.9-2.3c0-1.8-1.3-2.9-3.7-2.9c-2.7,0-4,1.1-4.1,3.6h-2.5c0.1-3.2,2.2-5.6,6.5-5.6
			c3.5,0,6.1,1.3,6.1,5.2v7.8c0,1.3,0.3,2.1,1.7,1.7h0.1v1.9c-0.3,0.1-0.7,0.3-1.4,0.3C426.9,212.6,426,211.8,425.7,210.2"/>
	</g>
	<g>
		<path fill="#221F1F" d="M434.4,198.2L434.4,198.2c1.2-1.6,2.9-2.5,5.3-2.5c3.4,0,5.5,1.9,5.5,5.3v11.5h-2.6v-11.3
			c0-2.1-1.4-3.3-3.7-3.3c-2.6,0-4.5,1.8-4.5,4.5v10.1h-2.6V196h2.6L434.4,198.2L434.4,198.2L434.4,198.2z"/>
	</g>
	<g>
		<path fill="#221F1F" d="M387,228.6c-0.2-1.9-1.4-3.2-3.1-3.2c-2,0-3,1.2-3.3,3.2H387z M375.4,230.4c0-4.9,3.4-8.6,8.3-8.6
			c2.3,0,4.2,0.8,5.6,2c1.9,1.8,2.9,4.6,2.9,7.9h-11.7c0.3,2.2,1.5,3.6,3.6,3.6c1.4,0,2.3-0.6,2.7-1.6h5c-0.4,1.5-1.3,2.9-2.7,3.8
			c-1.4,1-3,1.5-5.1,1.5C378.7,239,375.4,235.3,375.4,230.4"/>
	</g>
	<g>
		<path fill="#221F1F" d="M394,222.3h5v2.2h0.1c1.2-1.7,2.8-2.7,5-2.7c3.6,0,5.7,2.5,5.7,6.2v10.6h-5.2V229c0-1.7-0.9-2.9-2.5-2.9
			c-1.7,0-2.9,1.4-2.9,3.4v9H394V222.3L394,222.3L394,222.3z"/>
	</g>
	<g>
		<path fill="#221F1F" d="M422.8,228.6c-0.2-1.9-1.4-3.2-3.1-3.2c-2,0-3,1.2-3.3,3.2H422.8z M411.3,230.4c0-4.9,3.4-8.6,8.3-8.6
			c2.3,0,4.2,0.8,5.6,2c1.9,1.8,2.9,4.6,2.9,7.9h-11.7c0.3,2.2,1.5,3.6,3.7,3.6c1.4,0,2.3-0.6,2.7-1.6h5c-0.4,1.5-1.3,2.9-2.7,3.8
			c-1.4,1-3,1.5-5.1,1.5C414.6,239,411.3,235.3,411.3,230.4"/>
	</g>
	<g>
		<path fill="#221F1F" d="M429.8,222.3h5v2.5h0.1c1.1-1.9,2.5-2.8,4.4-2.8c0.5,0,0.8,0,1,0.1v4.4h-0.1c-3.2-0.4-5.2,1.1-5.2,4.6v7.3
			h-5.2L429.8,222.3L429.8,222.3z"/>
	</g>
	<g>
		<path fill="#221F1F" d="M452.5,229.7c0-2.2-1.1-4-3.3-4c-1.9,0-3.2,1.6-3.2,4.1c0,2.4,1.3,4,3.2,4
			C451.4,233.8,452.5,232,452.5,229.7 M441.3,238.9h5c0.3,0.9,1.1,1.6,2.9,1.6c2.2,0,3.1-1.1,3.1-3.1v-1.6h-0.1
			c-1,1.1-2.2,1.9-4.2,1.9c-3.7,0-7-2.7-7-7.7c0-4.8,2.8-8.1,6.8-8.1c2.2,0,3.6,0.9,4.6,2.2h0.1v-1.7h5v14.7c0,2.4-0.9,4.2-2.2,5.4
			c-1.4,1.3-3.6,1.8-6,1.8C444.7,244.1,441.8,242.3,441.3,238.9"/>
	</g>
	<g>
		<path fill="#221F1F" d="M460.4,239.8h1.8c1.5,0,2.1-0.6,2.1-1.7c0-0.7-0.3-1.6-1-3.4l-4.8-12.5h5.5l2.2,6.9c0.5,1.6,1,3.7,1,3.7
			h0.1c0,0,0.4-2.2,1-3.7l2.1-6.9h5.2l-5.6,16.5c-1.3,3.8-2.9,5.1-6.1,5.1h-3.4L460.4,239.8L460.4,239.8z"/>
	</g>
	<g>
		<path fill="#221F1F" d="M375.6,248.2h2.4V243h2.6v5.2h3.2v2.1h-3.2V261c0,1.1,0.6,1.5,1.7,1.5c0.5,0,1.1-0.1,1.4-0.2h0.1v2.2
			c-0.6,0.1-1.3,0.2-2.1,0.2c-2.1,0-3.6-0.9-3.6-3.2v-11.2h-2.4L375.6,248.2L375.6,248.2z"/>
	</g>
	<g>
		<path fill="#221F1F" d="M389,250.9L389,250.9c1.1-1.6,2.8-2.9,5-2.9c0.5,0,0.7,0.1,1,0.2v2.5h-0.1c-0.4-0.1-0.6-0.2-1.1-0.2
			c-2.5,0-4.8,1.9-4.8,5v9.1h-2.6v-16.4h2.6V250.9L389,250.9z"/>
	</g>
	<g>
		<path fill="#221F1F" d="M407.8,264.6v-2.3h-0.1c-1.2,1.6-2.6,2.6-5,2.6c-3.4,0-5.5-2-5.5-5.4v-11.4h2.6v11.3
			c0,2.1,1.4,3.4,3.7,3.4c2.6,0,4.3-2,4.3-4.6v-10.1h2.6v16.4L407.8,264.6L407.8,264.6z"/>
	</g>
	<g>
		<path fill="#221F1F" d="M412.8,259.3h2.6c0.4,2.9,2.3,3.7,4.7,3.7c2.7,0,3.8-1.2,3.8-2.7c0-1.8-1.3-2.3-4.3-3
			c-3.2-0.7-6.1-1.3-6.1-4.9c0-2.7,2.1-4.5,5.9-4.5c4.1,0,6.1,1.9,6.4,5.1h-2.6c-0.3-2.2-1.4-3.1-3.9-3.1c-2.3,0-3.3,1-3.3,2.3
			c0,1.8,1.6,2.1,4.4,2.7c3.3,0.7,6.1,1.4,6.1,5.2c0,3.3-2.7,5-6.5,5C415.5,265.1,413,262.9,412.8,259.3"/>
	</g>
	<g>
		<path fill="#221F1F" d="M427.6,248.2h2.4V243h2.6v5.2h3.2v2.1h-3.2V261c0,1.1,0.6,1.5,1.6,1.5c0.5,0,1.1-0.1,1.4-0.2h0.1v2.2
			c-0.6,0.1-1.3,0.2-2.1,0.2c-2.1,0-3.6-0.9-3.6-3.2v-11.2h-2.4V248.2L427.6,248.2z"/>
	</g>
	<path fill="#221F1F" d="M375.1,204.2c0-4.8,3-8.6,7.9-8.6c3.9,0,6.4,2.2,7,5.7h-2.6c-0.4-2.2-1.9-3.6-4.4-3.6
		c-3.5,0-5.3,2.9-5.3,6.5s1.8,6.5,5.3,6.5c2.7,0,4.3-1.5,4.5-4.1h2.5c-0.4,3.9-2.9,6.2-7,6.2C378.1,212.9,375.1,209,375.1,204.2"/>
</g>
<path fill="#221F1F" d="M473,19.2c-0.1,0.3-0.2,0.7-0.3,1.1c-0.3,0.8-0.6,1.6-0.9,2.4c-0.6,1.3-1.2,2.6-1.7,3.8c0-0.1,0-0.2,0-0.3
	c0-1.2-0.1-2.1-0.3-3.2c-0.4-2-1.3-3.8-2.3-5.4c-1.1-1.6-2.3-3-3.7-4.3c-1.4-1.2-2.9-2.4-4.8-3.2c-1-0.5-2.2-0.8-3.2-0.8
	c-1-0.1-1.9,0-2.8,0.1c-1.8,0.2-3.5,0.5-5.2,0.8c-3.4,0.7-6.7,1.5-9.9,1.8c-3.2,0.2-6.7,0-10.1,0l-10.2-0.1l-6.7-0.1l0,0
	c0.1-0.2,0.3-0.3,0.5-0.3l0,0l0,0c0.1,0,0.1,0,0.1,0l0,0c1.9-0.7,4-0.9,6.1-1h7.7l9.5,0.1l2.7,0.1c0.9,0,1.7,0.1,2.8,0
	c1.9-0.1,3.7-0.4,5.5-0.7l10.6-1.8c1.8-0.3,3.5-0.5,5.2-0.7c0.8-0.1,1.7-0.1,2.4-0.1c0.2,0,0.3,0,0.4,0c0,0,0.2,0,0.1,0l0.3,0.1
	c0.2,0.1,0.5,0.2,0.8,0.3c2.5,1.3,5,3.8,6.4,6.4c0.7,1.3,1.1,2.8,1.2,4.1C473,18.8,473,18.9,473,19.2 M465.5,25.8
	c0,0.4-0.2,1.2-0.5,2c-0.8,2.2-1.6,4.4-2.5,6.7c0.1-0.5,0.1-0.9,0.1-1.4c0-1.2-0.1-2-0.4-3c-0.2-0.9-0.5-1.8-0.9-2.7
	c-0.7-1.7-1.7-3.2-2.7-4.6c-1.1-1.4-2.3-2.7-3.6-3.8c-1.3-1.2-2.7-2.2-4.5-3.1c-1.1-0.6-2.1-0.7-3.1-0.8c-0.9-0.1-1.8-0.1-2.6-0.1
	c-1.7,0-3.3,0.1-4.9,0.3c-3.3,0.3-6.3,0.6-9.4,0.3l-19.4-1.2l-3.1-0.1c0,0,1.1-1.2,1.7-1.5c0.2-0.1,1,0,1.5,0l6.1,0.4
	c6.8,0.5,13.4,1.1,20.4,1.6c3.6-0.1,6.9-0.6,10.3-0.9c1.7-0.1,3.3-0.3,4.9-0.3c0.8,0,1.6,0,2.2,0.1c0.7,0.1,1.1,0.2,1.7,0.5
	c2.5,1.3,4.9,3.6,6.5,6c0.8,1.2,1.4,2.5,1.7,3.9C465.5,24.6,465.5,25.3,465.5,25.8 M458.2,32.9c0,1.2-0.4,2.8-0.8,4.3
	s-0.8,3-1.3,4.5c-0.9,2.9-1.8,5.8-2.8,8.7c0.2-0.8,0.4-1.6,0.5-2.4c0.3-1.5,0.6-3,0.9-4.6c0.2-1.6,0.5-3,0.3-5.2
	c-0.3-2-1.1-3.6-1.9-5c-0.8-1.4-1.8-2.8-2.8-4c-1-1.3-2.1-2.4-3.2-3.6c-1.2-1.1-2.3-2.2-3.8-3.2c-0.6-0.4-0.9-0.5-1.3-0.7
	s-0.8-0.3-1.2-0.5c-0.8-0.3-1.6-0.5-2.5-0.6c-1.6-0.3-3.2-0.4-4.8-0.5c-1.5-0.1-3.1-0.1-4.5-0.2s-3-0.4-4.5-0.5
	c-6.2-0.7-12.3-1.6-18.4-2.4c0.2-0.6,0.5-1.1,0.7-1.4c0.1-0.1,0.1-0.2,0.2-0.3l3.9,0.5c6.4,0.8,12.8,1.7,19.2,2.7
	c1.5,0.3,3.4,0.4,5,0.5c1.7,0.1,3.3,0.1,4.9,0.1s3.2,0,4.7,0.1s3.1,0.3,3.8,0.7c1.1,0.6,2.3,1.5,3.4,2.5s2.1,2.1,3,3.3
	c0.9,1.2,1.7,2.4,2.2,3.7c0.3,0.6,0.5,1.3,0.7,1.9C458.1,31.8,458.3,32.6,458.2,32.9 M455.4,95.9c-1.1-1.4-2.3-2.7-3.4-4
	c-1.9-2.2-3.9-4.3-5.8-6.4l-0.7-0.8c-0.2-0.2-0.5-0.6-0.5-0.6s-0.1-0.3-0.1-0.5c0-0.3-0.1-0.6-0.1-0.9c0-0.4,0-0.8,0-1.3
	c0.1,0.2,0.2,0.3,0.3,0.5l1.5,1.8l5.8,7c1.1,1.3,2.1,2.7,3.2,4C455.5,95,455.4,95.4,455.4,95.9 M454.5,98.9
	c-1.5-1.5-3.1-2.9-4.7-4.3l-6.3-5.4c-0.1-0.1-0.3-0.3-0.5-0.4c-0.2-0.2-0.7-0.8-0.9-1.4c0-0.2-0.1-0.3-0.1-0.5
	c-0.1-0.8-0.2-2.5-0.2-2.5c0.1,0,0.1,0.1,0.2,0.3c0,0.1,0,0.1,0.1,0.2c0,0,0,0,0,0.1c0,0,0,0,0,0.1c0.1,0.1,0.2,0.3,0.3,0.5
	c0.4,0.5,0.6,0.7,0.9,1l0.8,0.8l6.2,6c1.5,1.5,3,3,4.5,4.4C454.8,98.1,454.7,98.5,454.5,98.9 M453.9,100.4c-0.1,0.3-0.2,0.5-0.3,0.8
	c-1.9-1.4-3.8-2.7-5.7-3.9l-6.8-4.3l-0.8-0.5c-0.2-0.1-0.1,0-0.1-0.1s-0.1-0.1-0.2-0.2c-0.3-0.4-0.5-1-0.7-1.6
	c-0.4-1.2-0.7-2.5-1.1-3.7c-1.2-5.1-2.1-10.4-2.9-15.7l-1.3-7.9c-0.2-1.4-0.4-2.5-0.8-4.2c-0.5-1.7-1.2-2.9-2-4.2
	c-1.5-2.4-3.1-4.6-4.7-6.8c-0.8-1.1-1.7-2.1-2.5-3.2l-1.3-1.6c-0.4-0.5-0.9-1.1-1.2-1.4c-0.6-0.9-1.2-2.1-1.8-3.2
	c-0.6-1.2-1.2-2.4-1.9-3.6c-0.4-0.6-0.7-1.3-1.2-1.9c-0.3-0.3-0.5-0.6-1-1.1c-0.4-0.3-0.7-0.5-1-0.7c-1.3-0.8-2.5-1.4-3.7-2
	c-3-1.4-6-2.7-9.1-3.8c0.2-0.3,0.4-0.5,0.6-0.8c0,0,0.1-0.2,0.3-0.5c0,0,0.1-0.1,0.1-0.2c3.4,1.3,6.7,2.6,9.9,4.2
	c1.2,0.6,2.5,1.2,3.6,1.8c1.2,0.6,2.4,1.4,3.2,2c1.9,1.6,3.8,3.7,5.6,5.7c3.6,4,7.3,8.2,9.7,12.7c0.6,1.1,1.1,2.2,1.3,3.3
	c0.2,1.1,0.4,2.5,0.5,3.9c0.2,2.7,0.4,5.5,0.5,8.3c0.4,5.5,0.7,11.1,1.3,16.7c0.2,1.4,0.4,2.8,0.7,4.3c0.2,0.7,0.4,1.4,0.8,2.3
	c0.1,0.2,0.3,0.4,0.5,0.7c0.2,0.2,0.3,0.3,0.5,0.4L442,91l6.7,5c1.8,1.4,3.6,2.7,5.4,4.1C453.9,100.4,453.9,100.5,453.9,100.4
	 M452.6,103.7c-2.3-1.2-4.5-2.3-6.9-3.4l-7.2-3.2l-0.9-0.4c-0.1-0.1-0.3-0.2-0.3-0.2s-0.1-0.1-0.2-0.2c-0.3-0.3-0.6-0.8-0.9-1.4
	c-0.6-1.1-1.1-2.2-1.6-3.4c-1.9-4.8-3.5-9.8-5.1-14.9l-2.4-7.6c-0.4-1.3-0.8-2.5-1.3-3.9s-1.3-2.7-2.1-3.9
	c-3.2-4.6-6.9-8.3-9.1-12.5c-1-1.9-1.5-4.4-2-6.9c-0.3-1.3-0.5-2.6-1.1-4.1c-0.3-0.7-0.8-1.7-1.5-2.3c-0.6-0.5-1.2-0.9-1.7-1.3
	c-3-2-6.1-3.8-9.2-5.4c0.4-0.4,0.7-0.7,1.1-1.1c0.1-0.1,0.1-0.1,0.2-0.2c3.1,1.5,6.2,3.1,9.1,4.9c1.1,0.7,2.2,1.4,3.2,2.1
	c0.2,0.2,0.5,0.4,0.6,0.5c0,0,0.2,0.3,0.3,0.5c0.3,0.4,0.6,1,0.8,1.5c0.5,1.1,1,2.4,1.6,3.6c0.5,1.3,1.1,2.5,2,3.9l5,6.4
	c1.6,2.1,3.2,4.2,4.5,6.3c0.6,1.1,1.3,2.2,1.5,3.1c0.3,1,0.6,2.5,0.8,3.7l1.6,7.9c1.2,5.3,2.4,10.5,3.9,15.7
	c0.4,1.3,0.8,2.6,1.4,3.9c0.3,0.7,0.6,1.3,1,2c0.1,0.2,0.2,0.4,0.4,0.6c0.1,0.2,0.6,0.5,0.6,0.5l0.9,0.5l7.1,3.8
	c2.1,1.1,4.2,2.2,6.2,3.4C452.9,102.9,452.7,103.3,452.6,103.7 M452.1,105.1c-0.1,0.3-0.3,0.6-0.5,0.9c-0.1,0-0.2-0.1-0.4-0.1
	c-2.5-0.8-5.1-1.6-7.7-2.3c-2.6-0.7-5.2-1.4-7.6-2.2l-0.4-0.2c-0.2-0.1-0.3-0.1-0.3-0.2c-0.2-0.1-0.4-0.2-0.6-0.4
	c-0.4-0.4-0.8-0.8-1.2-1.3c-0.8-1-1.5-2.1-2.2-3.1c-2.8-4.4-5.2-9.1-7.5-13.9l-3.5-7.1c-0.5-1.1-1.2-2.5-1.9-3.7
	c-0.7-1.2-1.5-2.3-2.3-3.4c-1.5-2.2-3.1-4.4-4.7-6.5c-1.5-2.1-3.3-4.3-4.4-6.2c-0.4-0.6-0.5-1.7-0.6-2.9s0-2.5,0-3.8
	c0.1-1.3,0.1-2.7,0.1-4.1c0-0.7,0-1.4-0.2-2.2c-0.1-0.8-0.2-1.5-0.8-2.6c-0.2-0.4-0.2-0.2-0.4-0.6l-0.4-0.4l-0.7-0.7l-1.5-1.4
	c-1-0.9-2-1.8-3-2.7s-2.1-1.7-3.2-2.5c0.4-0.4,0.8-0.8,1.2-1.2c3.1,2,6.1,4.1,8.8,6.3c0.5,0.4,1,0.8,1.3,1.2
	c0.3,0.3,0.3,0.5,0.5,1.1c0.3,1,0.4,2.3,0.6,3.6c0.4,2.6,0.6,5.5,2,8.3c2.6,5.3,6.6,9,9.4,13c0.7,1,1.3,2,1.7,3
	c0.5,1.1,0.9,2.4,1.4,3.6c0.9,2.5,1.8,5,2.7,7.4c1.9,5,3.8,9.9,6.1,14.8c0.6,1.2,1.2,2.4,2,3.6c0.4,0.6,0.8,1.2,1.4,1.8
	c0.2,0.1,0.4,0.3,0.6,0.4c0.3,0.2,0.4,0.2,0.6,0.3l0.9,0.4l7.5,2.7c2.4,0.9,4.9,1.8,7.2,2.7C452.3,104.8,452.2,104.9,452.1,105.1
	 M450.4,108.1c-0.3-0.1-0.6-0.2-1-0.2c-2.7-0.5-5.4-0.9-8.1-1.2c-2.7-0.3-5.4-0.6-7.9-1.2c-0.3-0.1-0.7-0.2-0.8-0.2
	c-0.2-0.1-0.4-0.2-0.7-0.4c-0.5-0.3-1-0.7-1.4-1.2c-1-0.9-1.9-1.8-2.8-2.8c-3.5-4-6.8-8.3-10-12.6c-3.2-4.3-6.3-8.7-9.5-13.1
	c-1.6-2.2-3.1-4.4-4.6-6.6l-2.3-3.3l-1.1-1.7c-0.4-0.5-0.7-1.1-0.8-1.4c-0.3-0.6-0.4-1.8-0.3-2.9c0.1-1.2,0.3-2.5,0.6-3.7
	c0.5-2.6,1.3-5.2,1.5-8.3c0-0.8,0-1.5-0.3-2.6c-0.1-0.3-0.1-0.2-0.2-0.6c-0.1-0.2-0.2-0.4-0.3-0.6c-0.2-0.3-0.4-0.6-0.6-0.9
	c-0.9-1.2-1.8-2.2-2.7-3.2c-1.5-1.6-3-3.2-4.6-4.7c0.8-0.5,1.5-1,2.2-1.5c1.1,1,2.1,1.9,3.1,2.9c0.9,0.9,1.8,1.9,2.7,2.8l1.3,1.5
	l0.6,0.7l0.3,0.3c-0.1-0.1,0.2,0.3,0.1,0.2c0,0.1,0.2,0.7,0.2,1.2c0,0.6,0,1.2,0,1.8c-0.1,1.2-0.3,2.5-0.4,3.9
	c-0.1,1.3-0.3,2.7-0.3,4.2c0,1.4,0,3.1,0.9,4.9c0.7,1.4,1.5,2.5,2.3,3.6s1.6,2.2,2.4,3.3c1.6,2.1,3.2,4.2,4.7,6.4
	c0.8,1.1,1.5,2.1,2.2,3.2s1.3,2,1.9,3.3c1.3,2.4,2.5,4.7,3.8,7c2.7,4.6,5.4,9.2,8.6,13.6c0.8,1.1,1.6,2.2,2.6,3.2
	c0.5,0.5,1,1,1.6,1.5c0.3,0.2,0.6,0.5,1.1,0.7c0.3,0.1,0.4,0.2,0.6,0.2l0.5,0.1c2.7,0.7,5.3,1.2,7.9,1.7s5.2,0.9,7.8,1.5h0.1
	C450.8,107.3,450.6,107.7,450.4,108.1 M449.7,109.2l-0.1,0.1c-0.2,0.2-0.4,0.4-0.6,0.7c-0.5,0-1-0.1-1.4-0.1c-2.9-0.1-5.7-0.1-8.5,0
	c-1.4,0-2.8,0.1-4.2,0.1c-1.4,0-2.7,0-3.9-0.4c-2.3-0.8-4.6-2.6-6.7-4.3c-4.3-3.5-8.3-7.4-12.2-11.4c-1.9-2-3.8-4.1-5.7-6.1
	c-1.9-2.1-3.7-4.1-5.5-6.3c-1.8-2.1-3.5-4.3-5.1-6.5c-0.8-1.1-1.6-2.2-2.3-3.4c-0.4-0.6-0.7-1.1-1-1.7L392,69l-0.1-0.2
	c0-0.1,0,0,0-0.1c0,0,0-0.1-0.1-0.1c-0.2-0.6,0-2,0.3-3.2c0.3-1.3,0.7-2.6,1.1-3.9c0.8-2.7,1.8-5.3,2.6-8.2c0.4-1.4,0.7-2.9,0.6-4.7
	c0-0.5-0.1-0.9-0.3-1.5c-0.1-0.4-0.2-0.4-0.3-0.6v-0.1l-0.1-0.2l0,0l-0.1-0.1l-0.2-0.2l-1.2-1.7c-1.7-2.3-3.4-4.6-5.1-6.8
	c-0.2-0.3-0.5-0.6-0.7-0.9c0.7-0.4,1.4-0.9,2.1-1.3c1.6,1.8,3.1,3.7,4.6,5.6c0.8,1.1,1.6,2.1,2.3,3.2c0.2,0.3,0.3,0.5,0.4,0.8
	s0.1,0.3,0.2,0.6c0,0.2,0,0.9,0,1.4c-0.3,2.3-1.3,4.9-2,7.6c-0.4,1.4-0.7,2.7-0.9,4.2c-0.2,1.5-0.3,3.2,0.5,5.1
	c0.4,0.9,0.8,1.5,1.1,2.1l1.1,1.8c0.7,1.2,1.5,2.3,2.3,3.4c1.6,2.2,3.1,4.4,4.7,6.6c6.5,8.8,13.2,17.3,21,25.1c1,1,2,1.9,3.1,2.8
	c0.6,0.5,1.1,0.9,1.8,1.3c0.3,0.2,0.7,0.4,1.1,0.6c0.5,0.2,0.8,0.2,1.2,0.3c2.8,0.4,5.5,0.5,8.2,0.6s5.4,0.2,8.1,0.4
	c0.2,0,0.4,0.1,0.6,0.1C449.8,109,449.7,109.1,449.7,109.2 M447.2,112.1c-0.1,0.1-0.1,0.2-0.2,0.3l-0.1,0.1c-0.5,0-0.9,0.1-1.4,0.1
	c-3,0.3-5.9,0.7-8.9,1.1c-2.9,0.3-6,0.7-8.5,0.3c-0.3-0.1-0.6-0.2-0.8-0.2c0,0-0.1-0.1-0.2-0.1l-0.2-0.1l-0.5-0.3l-1.9-1.1l-3.8-2.3
	c-5-3.2-9.9-6.5-14.7-9.9c-2.4-1.7-4.7-3.5-6.9-5.3c-1.1-0.9-2.1-1.8-3.1-2.9c-1-1-1.9-2.1-2.9-3.2c-1.8-2.2-3.6-4.5-5.2-6.9
	c-0.8-1.2-1.6-2.4-2.4-3.6l-0.6-0.9l-0.3-0.5c-0.1-0.1-0.1-0.2-0.2-0.3c-0.2-0.4-0.3-0.8-0.4-1.3c-0.2-2.1,0.8-4.9,2-7.5
	c1-2.3,2.1-4.6,3.1-7c-0.5,1.3-1,2.6-1.4,4c-0.4,1.5-0.9,3-0.5,5.2c0,0.5,0.5,1.4,0.5,1.5l0.5,1c0.4,0.6,0.7,1.3,1.1,1.9
	c0.8,1.3,1.6,2.4,2.4,3.6c1.7,2.3,3.5,4.6,5.3,6.8c3.7,4.4,7.7,8.5,11.8,12.4c4.2,3.9,8.5,7.6,13.2,10.9c1.2,0.8,2.4,1.6,3.7,2.4
	c1.3,0.7,2.6,1.4,4.2,1.9c1.6,0.3,3.1,0.2,4.5,0.1s2.8-0.2,4.3-0.4c2.8-0.3,5.6-0.7,8.4-0.8c0.2,0,0.5,0,0.7,0
	C447.8,111.3,447.5,111.7,447.2,112.1 M445.2,114.8c-0.1,0.1-0.1,0.3-0.2,0.4c-0.6,0.1-1.2,0.2-1.7,0.3c-3.1,0.5-6.2,1.1-9.3,1.8
	c-1.5,0.3-3.1,0.6-4.6,0.9c-0.8,0.1-1.6,0.3-2.2,0.3c-0.5,0-1.3-0.1-2-0.3c-2.9-0.7-5.7-2.1-8.5-3.4c-5.6-2.8-11-6-16.5-9.1
	c-2.7-1.6-5.4-3.1-8-4.8c-2.6-1.7-4.8-3.5-6.7-5.7c-1.9-2.2-3.7-4.8-5.4-7.4l-2.5-4l-0.6-0.9c-0.1-0.1-0.2-0.3-0.2-0.5
	c-0.1-0.4-0.1-0.9-0.1-1.5c0.3-2.5,1.7-5.4,3-8.1c0.2-0.3,0.3-0.7,0.5-1c-0.3,1.1-0.5,2.3-0.4,3.6c0.1,1,0.3,2,0.8,2.9
	c0.1,0.2,0.3,0.5,0.4,0.7l0.3,0.5l0.6,0.9c0.8,1.3,1.6,2.6,2.5,3.8c1.7,2.5,3.5,5,5.5,7.3c1,1.2,2,2.3,3.1,3.4s2.3,2.2,3.5,3.1
	c2.4,1.9,4.9,3.6,7.4,5.3c5,3.3,10.2,6.3,15.4,9.1l3.9,2.1l2,1l0.5,0.3l0.3,0.1l0.3,0.1c0.6,0.2,0.9,0.3,1.4,0.4
	c1.7,0.2,3.2,0,4.7-0.2s3-0.5,4.4-0.8c2.9-0.6,5.8-1.3,8.7-1.8c0.1,0,0.2,0,0.4-0.1C445.7,114,445.4,114.4,445.2,114.8 M443.9,117.8
	c-0.9,0.2-1.9,0.5-2.8,0.7l-9.7,2.7c-1.6,0.4-3.2,0.8-4.9,1.1c-0.8,0.1-1.6,0.3-2.3,0.3c-0.7,0-1.5-0.2-2.2-0.3
	c-3.2-0.7-6.3-1.9-9.5-3c-6.3-2.4-12.4-5.1-18.5-7.9c-3-1.4-6-2.9-8.9-4.4c-1.4-0.8-2.9-1.6-4-2.4c-1.1-0.9-2.3-2-3.4-3.2
	c-2.1-2.4-4.2-5-6-7.7c-0.9-1.3-1.9-2.8-2.5-4c-0.1-0.2-0.1-0.2-0.1-0.3c0-0.1-0.1-0.2-0.1-0.3c0-0.2-0.1-0.5,0-0.8
	c0-0.6,0.1-1.3,0.3-2c0.7-2.4,2-5,3.4-7.5c-0.1,0.4-0.2,0.9-0.3,1.3c-0.1,1-0.2,2,0.1,3.2c0.1,0.6,0.3,1.1,0.7,1.7l0.7,1.1l2.5,4
	c1.7,2.7,3.5,5.4,5.8,7.9c2.2,2.6,4.9,4.7,7.7,6.4c2.8,1.7,5.6,3.2,8.4,4.7c5.6,2.9,11.3,5.8,17.2,8.3c3,1.2,5.9,2.4,9.2,3.1
	c0.9,0.1,1.7,0.3,2.7,0.2c0.9-0.1,1.7-0.3,2.4-0.5c1.6-0.4,3.1-0.8,4.6-1.2c3-0.8,6.1-1.7,9.1-2.5c0.4-0.1,0.7-0.2,1-0.2
	C444.3,116.8,444.1,117.3,443.9,117.8 M443.1,120.4c-1.2,0.4-2.5,0.9-3.8,1.3l-10.2,3.6c-1.7,0.6-3.4,1.1-5.1,1.6
	c-0.4,0.1-0.8,0.2-1.2,0.3c-0.3,0-0.7,0-1.1,0c-0.8,0-1.7-0.1-2.5-0.3c-3.4-0.6-6.9-1.5-10.3-2.5c-6.8-2-13.6-4.4-20.3-6.9
	c-3.3-1.2-6.7-2.5-9.9-3.9l-2.4-1.1L375,112c-0.4-0.2-0.7-0.3-1-0.5c-1.3-0.8-2.5-1.9-3.7-3.1c-2.3-2.4-4.3-5.3-6.1-8.3
	c-0.9-1.4-1.9-3.1-2.6-4.5c-0.4-0.6-0.2-2.1,0.3-3.6c0.7-1.9,1.7-3.9,2.9-5.8c-0.1,0.6-0.2,1.2-0.3,1.8c0,0.6,0,1.1,0.1,1.8
	c0.1,0.3,0.1,0.6,0.2,0.9s0.3,0.7,0.3,0.8c0.9,1.8,1.8,3.1,2.8,4.6c1.9,2.9,4,5.6,6.4,8.2c1.2,1.3,2.5,2.5,4,3.7
	c1.6,1.2,3.1,1.9,4.7,2.8c3.1,1.5,6.2,2.9,9.3,4.2c6.3,2.6,12.7,5,19.1,7c3.3,1,6.5,2,10,2.6c0.9,0.1,1.8,0.3,2.8,0.2
	c1-0.1,1.8-0.3,2.7-0.5c1.7-0.4,3.3-1,4.9-1.5c3.2-1.1,6.4-2.3,9.5-3.5l2.2-0.8C443.5,119.3,443.3,119.9,443.1,120.4 M441.5,123.2
	c-0.1,0.1-0.2,0.3-0.4,0.4c-4.7,2.2-9.8,4.5-17.2,7c-0.9,0.3-1.8,0.5-2.6,0.7c-0.9,0.2-1.6,0.3-2.5,0.3c-1.8-0.1-3.6-0.3-5.4-0.6
	c-3.7-0.6-7.3-1.4-10.9-2.2c-7.3-1.7-14.5-3.7-21.6-5.7c-3.6-1-7.2-2.1-10.6-3.3c-0.9-0.3-1.7-0.6-2.6-0.9c-0.8-0.3-1.7-0.7-2.1-1
	c-1.2-0.8-2.6-2.1-3.8-3.4c-2.4-2.6-4.6-5.6-6.3-8.6c-0.8-1.5-1.6-3.1-1.8-4.5c0-0.2,0.1-1,0.3-1.7c0.3-0.7,0.6-1.5,1-2.3
	c0.6-1.2,1.3-2.4,2.1-3.6c0,0.1,0,0.1,0,0.2c-0.1,1.1-0.1,2.5,0.6,3.8c0.9,1.8,1.8,3.3,2.8,4.9c1.9,3.2,4.1,6.2,6.8,9
	c1.3,1.4,2.8,2.7,4.6,3.8c0.4,0.3,1,0.5,1.4,0.7l1.3,0.6c0.8,0.4,1.7,0.7,2.6,1c3.4,1.3,6.8,2.5,10.3,3.7c6.9,2.3,13.8,4.3,20.9,6
	c3.5,0.8,7.1,1.6,10.8,2.1c0.9,0.1,1.9,0.2,2.8,0.2c0.5,0,1,0,1.6-0.1c0.5-0.1,1-0.2,1.4-0.4c1.8-0.6,3.5-1.2,5.1-1.9
	c4.5-1.8,8.5-3.7,12.8-5.6C442.3,122.2,442,122.7,441.5,123.2 M436.8,127.2c-0.9,0.8-1.9,1.4-2.9,1.9c-0.6,0.4-1,0.6-1.2,0.7
	c-0.6,0.3-1.3,0.6-1.9,0.9c-1.4,0.7-5.6,2.5-5.6,2.5l0,0c-0.8,0.4-1.6,0.7-2.4,0.9c0,0,0,0-0.1,0c-1.3,0.4-2.6,0.9-4,1.2
	c-0.4,0.1-0.9,0.2-1.3,0.3c-0.4,0-0.8,0.1-1.3,0.1c-0.9,0-1.8,0-2.7-0.1c-7.4-0.6-14.8-2-22.2-3.4c-3.7-0.7-7.4-1.5-11-2.3
	c-3.7-0.8-7.3-1.6-11-2.5l-5.4-1.4c-1.8-0.5-3.6-1-5.1-1.5c-1.2-0.5-2.6-1.6-3.9-2.8c-1.3-1.2-2.4-2.6-3.5-4s-2.1-2.9-3-4.4
	s-1.7-3.1-2-4.5c-0.1-0.3-0.1-0.7-0.1-0.9v-0.5c0-0.1,0-0.3,0.1-0.5c0.1-0.7,0.4-1.5,0.7-2.2c0.6-1.4,1.4-2.9,2.3-4.4
	c-0.1,0.5-0.1,1,0,1.6c0.3,2.3,1.3,4.2,2.2,6c1.9,3.5,4.3,6.6,7,9.5c1.4,1.4,2.8,2.8,4.7,4.1c1.1,0.7,2,1,2.9,1.4s1.8,0.7,2.7,1
	c3.6,1.2,7.3,2.2,10.9,3.1c7.3,1.9,14.7,3.5,22.1,4.9c3.7,0.7,7.4,1.3,11.2,1.8c1.9,0.2,3.8,0.4,5.8,0.4c1,0,2.2-0.2,3.1-0.5
	s1.8-0.6,2.7-0.9c3.6-1.4,7-3,10.3-4.7c1-0.5,1.8-0.9,2.5-1.2C437.2,126.8,437,127,436.8,127.2 M374.1,55.4c0-0.2,0-0.4,0-0.6
	c0.1,1.1,0.2,2.3,0.3,3.4c0.1,0.9,0.2,1.8,0.4,2.7v0.2c0-0.1,0,0.1,0,0.1c0,0.1,0,0.2,0,0.3s0,0.3,0,0.5c0,0.4-0.1,0.7-0.2,1.1
	c-0.1,0.3-0.2,0.6-0.3,1c0-0.4,0-0.8-0.1-1.2l-0.2-3.1c0-1,0-2-0.1-3C374.1,56.4,374,55.9,374.1,55.4 M377.2,46.7
	c0.1,0.8,0.3,1.6,0.4,2.3l0.9,5l0.5,2.5c0.1,0.8,0.4,1.8,0.3,2.2c-0.1,1.3-0.7,2.8-1.4,4.2c-0.2,0.3-0.4,0.7-0.6,1
	c0-0.1,0-0.1,0-0.2c0.1-0.5,0.1-1,0.2-1.6c0-0.3,0-0.6,0-0.9c0-0.2,0-0.2-0.1-0.4l-0.1-0.4c-0.2-0.9-0.4-1.7-0.5-2.6
	c-0.3-1.8-0.6-3.5-0.9-5.3c-0.1-1-0.3-1.9-0.4-2.9C376.1,48.7,376.7,47.7,377.2,46.7 M380.1,42.6c0.3,1.1,0.7,2.1,1,3.2l1.4,4.5
	l0.7,2.2c0.2,0.7,0.5,1.6,0.6,2c0.1,1.1-0.3,2.5-0.8,3.9c-0.4,0.9-0.8,1.9-1.3,2.8c0.2-0.8,0.4-1.7,0.4-2.7
	c-0.1-1.3-0.4-1.9-0.6-2.8l-0.6-2.5l-1.3-4.9l-1-4.1C379,43.8,379.5,43.2,380.1,42.6 M383.3,39.8c0.4,0.9,0.8,1.8,1.3,2.6
	c1.2,2.7,2.5,5.4,3.6,8c0.8,2.1-0.2,4.8-1.4,7.3c-0.3,0.5-0.5,1.1-0.8,1.6c0.5-1.6,0.9-3.3,0.6-5.3c-0.2-1.1-0.6-1.7-0.8-2.5
	l-0.9-2.2l-1.8-4.4c-0.5-1.3-1.1-2.6-1.6-3.9C382.1,40.8,382.7,40.3,383.3,39.8 M393.2,48L393.2,48L393.2,48 M386.6,37.7
	c0.2,0.4,0.5,0.7,0.7,1.1c1.5,2.3,3.1,4.7,4.5,7.1l1.1,1.8l0.1,0.2V48v0.1c0.1,0.1,0.2,0.4,0.1,0.4c0,0,0,0.3,0,0.6
	c0,1-0.4,2.4-0.8,3.6c-0.7,2-1.5,4-2.4,6c0.5-1.2,0.9-2.5,1.1-3.8c0.3-1.6,0.3-3.6-0.5-5.2c-1.4-2.7-2.8-5.3-4.3-7.9
	c-0.5-0.9-1.1-1.8-1.6-2.7C385.4,38.4,386,38,386.6,37.7 M404.7,21c4.5,1.3,9.1,2.6,13.5,4.2c2.7,0.9,5.4,1.9,8,3
	c1.3,0.6,2.6,1.1,3.8,1.7c1.3,0.6,2,1.1,3,2.1c1.9,1.8,3.8,4,5.5,6.1s3.4,4.5,4.4,6.7c0.2,0.5,0.4,1.2,0.5,1.5
	c0.1,0.5,0.1,1.1,0.1,1.8c0,1.3-0.1,2.8-0.2,4.2c-0.2,2.8-0.4,5.7-0.7,8.6c-0.3,4.3-0.7,8.6-0.9,13c0,0.1,0,0.2,0,0.4
	c0,0.3,0,0.5,0,0.7s0,0.4,0,0.6c-0.1,1.6-0.1,1.6-0.2,1.5c0,0-0.1-0.2-0.1-0.6c0-0.7-0.1-1.4-0.1-2.1c0-1.1-0.1-2.3-0.1-3.2
	c0-1.8,0-3.6,0-5.4c0-2.8-0.1-5.6-0.2-8.4c-0.1-1.4-0.1-2.8-0.4-4.4c-0.3-1.7-1-3.2-1.6-4.5c-2.9-5.3-6.5-9.6-10.5-13.7
	c-2-2-4.1-3.9-6.5-5.7c-1.4-1-2.7-1.5-4-2.1s-2.6-1.1-4-1.5c-3.3-1.2-6.6-2.2-10-3.2C404.2,21.9,404.5,21.5,404.7,21 M447,79.8
	c0-0.3,0-0.6,0-0.9c0-0.4,0.1-0.9,0.1-1.3l0.1,0.1l1.3,2.1l5.2,8.2l0.5,0.8c0,0.1,0.1,0.3,0.2,0.4c0.3,0.7,0.4,1.4,0.6,2
	c-0.4-0.6-0.8-1.2-1.2-1.7c-1.8-2.5-3.5-5-5.4-7.4l-1.3-1.8C447.2,80.3,447.1,80,447,79.8 M405.6,19.1c0.1-0.3,0.2-0.7,0.4-1
	l0.6,0.1c5.9,1.2,11.9,2.4,17.8,3.8c5.8,1.9,12.8,1.5,16.7,4.1c1,0.7,2,1.8,3,2.8s1.9,2.1,2.9,3.2c0.9,1.1,1.7,2.3,2.4,3.4
	c0.7,1.2,1.2,2.4,1.4,3.4c0.1,0.9-0.1,2.5-0.3,3.9c-0.2,1.4-0.5,2.9-0.7,4.4c-0.5,2.9-1.2,5.9-1.8,8.9c-0.4,1.9-0.8,3.7-1.1,5.6
	c0-0.1,0-0.2,0-0.3c0.3-2.9,0.7-5.7,1-8.7c0.1-1.5,0.3-2.9,0.3-4.5c0-0.8,0-1.6-0.1-2.5c-0.2-1.1-0.5-1.8-0.8-2.6
	c-1.3-3-3.1-5.4-4.9-7.8c-1.9-2.3-3.9-4.5-6.3-6.5c-0.3-0.2-0.6-0.5-1-0.7c-0.3-0.2-0.8-0.6-1.1-0.7c-0.8-0.5-1.5-0.7-2.2-1
	c-1.4-0.6-2.8-1.1-4.2-1.5c-2.8-0.8-5.6-1.6-8.5-2.3c-4.5-1.1-9-2.1-13.6-3C405.4,19.4,405.5,19.2,405.6,19.1 M479.3,16.7
	c0-0.8-0.2-1.5-0.4-2.3c-0.2-0.7-0.5-1.5-0.7-2.2c-0.9-2.2-2.4-4.2-4.3-5.8c-4.3-3.6-7.7-3.3-11.3-3.5c-3.6-0.1-11.1,2.5-11.1,2.5
	h0.1c-2.2,0.6-4.3,1.2-6.5,1.7c-1.7,0.4-3.4,0.8-5.1,1c-0.7,0.1-1.7,0.1-2.6,0.2l-2.7,0.1L423.9,9h-1.5c-0.2,0-0.7,0-0.8,0
	c-2.6,0-5.3,0-7.9,0.5c-3.2,0.4-5.8,2-7.3,3c0,0,0,0-0.1,0c0,0-0.6,0.4-1,0.8c-0.2,0.1-0.3,0.2-0.3,0.2l0,0
	c-0.1,0.1-0.2,0.2-0.3,0.3c-0.5,0.6-1,1.2-1.3,1.7c-0.1,0.1-0.1,0.2-0.2,0.3c-0.5,0.7-1,1.4-1.5,2.3l0,0c-0.4,0.5-0.7,1.1-1.1,1.7
	c-0.3,0.4-0.5,0.7-0.7,1c-0.4,0.5-0.7,0.8-0.7,0.8c-0.8,1-1.5,2-2.4,2.9c-0.8,0.9-1.6,1.7-2.4,2.5c-1.6,1.6-2.8,2.8-4.9,4.1
	l-0.6,0.5c-3.3,2.1-7.1,4-10.3,6.9c-0.4,0.3-0.7,0.7-1.1,1s-0.7,0.5-0.9,0.7c-0.5,0.4-0.8,0.6-0.8,0.6l-1.3,1.3l-1.2,1.4
	c-0.2,0.2-0.4,0.5-0.6,0.7l-0.5,0.8l-1.1,1.6c-0.6,1.1-1.3,2.1-1.8,3.2c-1.1,2.2-1.9,4.5-2.5,6.9s-1,4.7-1.3,7.1s-0.4,4.7-0.8,6.8
	c-0.1,0.7-0.3,1.3-0.5,1.9c-0.4,0.8-0.9,1.6-1.4,2.4c-1,1.5-2.1,3-3.2,4.5c-4.5,5.9-9.6,11.5-13.9,18c-1.1,1.6-2.1,3.3-3,5.2
	c-0.4,1-0.8,2-1,3.1c-0.1,0.3-0.1,0.6-0.1,0.9c0,0.5,0,0.4,0,0.9c0,0.7,0.1,1.3,0.2,1.9c0.6,2.2,1.5,4,2.5,5.8
	c1,1.7,2.1,3.4,3.3,4.9c1.2,1.6,2.5,3,4,4.4s3,2.8,5.3,3.7c2,0.8,3.8,1.2,5.7,1.7c1.9,0.5,3.7,0.9,5.6,1.3c7.4,1.6,14.9,2.9,22.4,4
	s15,2.1,22.7,2.4c1,0,1.9,0,2.9-0.1c0.5,0,1-0.1,1.5-0.2c0.5-0.1,1-0.2,1.4-0.4c1.9-0.6,3.7-1.3,5.4-2.1c1.9-0.9,3.8-1.9,5.6-3
	c1.9-0.9,3.7-1.8,5.5-2.9c0.8-0.5,1.9-1.1,2.9-1.7l0,0c0,0,3.2-1.9,5.2-4c0.8-0.8,1.5-1.7,2.1-2.8c0.6-1.1,0.9-2.4,1.3-3.6
	c0.1-0.5,0.3-0.9,0.5-1.3c0.5-0.7,1.3-1.8,1.3-1.8c0.8-1,1.8-1.9,2.5-2.4c0.1-0.1,0.3-0.2,0.4-0.3l0,0c0.3-0.2,0.7-0.5,1-0.8
	c0,0,0.1,0,0.1-0.1c0.1-0.1,0.2-0.2,0.3-0.3c0,0,0,0,0.1-0.1c0.2-0.2,0.4-0.4,0.4-0.4l0,0c0.4-0.4,0.8-0.8,1.2-1.4l0,0
	c0.1-0.1,0.2-0.2,0.2-0.2c0.8-1.1,1.5-2.1,2.1-3.2c0.1-0.1,0.1-0.2,0.2-0.3c0.2-0.5,0.4-0.9,0.6-1.4c1.1-2.6,2-5.9,2.5-10
	c0.1-1,0.2-2,0.2-3c0-0.4,0.2-2.5-0.3-4.7c-0.1-0.8-0.3-1.5-0.5-2.3c-0.6-2.2-1.2-4.2-1.9-6.2c0-0.4-0.1-0.7-0.1-1.1
	c-0.4-2.6-0.4-4.9,0-7.4c0.4-2.4,1.1-4.8,2.1-7.1s2.3-4.5,3.6-6.8c1.3-2.3,2.7-4.5,4.1-6.8c2.8-4.5,5.5-9.2,7.6-14.2
	c1-2.5,1.9-5.2,2.5-7.9l0.2-1c0-0.1,0.1-0.4,0.1-0.5v-0.3v-0.1c0.3-0.9,0.6-1.9,0.8-2.9c0.2-0.7,0.2-1.5,0.3-2.2
	C479.3,18.2,479.3,17.5,479.3,16.7"/>
<g>
	<path fill="#CCCCCC" d="M254.5,171.1c-0.5,0-1-0.2-1.4-0.6c-0.8-0.8-0.9-2.1-0.1-3l11.9-12.9L253,141.8c-0.8-0.8-0.7-2.2,0.1-3
		s2.2-0.7,3,0.1l14.5,15.7l-14.5,15.7C255.6,170.9,255.1,171.1,254.5,171.1z"/>
</g>
</svg>
