<?xml version="1.0" encoding="utf-8"?>
<!-- Generator: Adobe Illustrator 16.0.4, SVG Export Plug-In . SVG Version: 6.00 Build 0)  -->
<!DOCTYPE svg PUBLIC "-//W3C//DTD SVG 1.1//EN" "http://www.w3.org/Graphics/SVG/1.1/DTD/svg11.dtd">
<svg version="1.1" id="Intro_1_" xmlns="http://www.w3.org/2000/svg" xmlns:xlink="http://www.w3.org/1999/xlink" x="0px" y="0px"
	 width="707px" height="265px" viewBox="0 0 707 265" enable-background="new 0 0 707 265" xml:space="preserve">
<g>
	<polygon fill="#717171" points="11.246,68.355 11.246,80.4 0,80.4 0,82.796 11.246,82.796 11.246,95.183 13.816,95.183 
		13.816,82.796 25.001,82.796 25.001,80.4 13.816,80.4 13.816,68.355 	"/>
	<polygon fill="#717171" points="36.91,189.628 36.91,193.85 48.951,193.85 48.951,227.696 53.69,227.696 53.69,193.85 
		65.79,193.85 65.79,189.628 	"/>
	<g>
		<path fill="#717171" d="M78.5,193.852v14.555h9.989c4.508,0,7.648-3.024,7.648-7.308c0-4.34-3.141-7.247-7.648-7.247H78.5
			 M101.388,227.698h-5.594l-9.643-15.127H78.5v15.127h-4.739v-38.07H89.06c6.962,0,11.985,4.449,11.985,11.471
			c0,6.854-4.739,10.617-9.933,11.073L101.388,227.698"/>
		<path fill="#717171" d="M125.738,228.387c-10.276,0-15.525-6.111-15.525-15.472v-23.287h4.793v23.173
			c0,6.959,3.709,11.359,10.732,11.359c7.018,0,10.786-4.4,10.786-11.359v-23.173h4.797v23.229
			C141.321,222.332,136.07,228.387,125.738,228.387"/>
		<path fill="#717171" d="M164.237,228.387c-6.562,0-11.468-2.516-14.611-6.055l2.854-3.653c2.455,2.854,6.562,5.481,11.929,5.481
			c6.795,0,8.962-3.655,8.962-6.622c0-9.817-22.543-4.34-22.543-17.923c0-6.276,5.591-10.616,13.126-10.616
			c5.765,0,10.273,1.998,13.47,5.366l-2.856,3.479c-2.853-3.195-6.849-4.565-11.014-4.565c-4.512,0-7.823,2.455-7.823,6.051
			c0,8.562,22.545,3.653,22.545,17.867C178.277,222.678,174.513,228.387,164.237,228.387"/>
		<polygon fill="#717171" points="200.865,227.698 196.126,227.698 196.126,193.852 184.082,193.852 184.082,189.628 
			212.965,189.628 212.965,193.852 200.865,193.852 		"/>
		<polygon fill="#717171" points="61.854,173.414 36.91,173.414 36.91,135.343 61.854,135.343 61.854,139.564 41.65,139.564 
			41.65,151.839 61.456,151.839 61.456,156.063 41.65,156.063 41.65,169.189 61.854,169.189 		"/>
		<polygon fill="#717171" points="102.587,173.414 98.018,173.414 75.818,143.046 75.818,173.414 71.08,173.414 71.08,135.343 
			75.928,135.343 97.848,165.077 97.848,135.343 102.587,135.343 		"/>
		<polygon fill="#717171" points="138.124,173.414 113.18,173.414 113.18,135.343 138.124,135.343 138.124,139.564 117.916,139.564 
			117.916,151.839 137.721,151.839 137.721,156.063 117.916,156.063 117.916,169.189 138.124,169.189 		"/>
		<path fill="#717171" d="M152.083,139.564v14.555h9.991c4.508,0,7.652-3.022,7.652-7.306c0-4.337-3.144-7.249-7.652-7.249H152.083
			 M174.973,173.414h-5.592l-9.646-15.127h-7.652v15.127h-4.736v-38.071h15.298c6.962,0,11.985,4.451,11.985,11.471
			c0,6.852-4.741,10.617-9.932,11.073L174.973,173.414"/>
		<path fill="#717171" d="M201.834,174.156c-10.843,0-19.578-7.937-19.578-19.751c0-11.87,8.735-19.693,19.578-19.693
			c6.79,0,11.474,2.97,14.783,7.081l-3.769,2.396c-2.393-3.082-6.449-5.251-11.015-5.251c-8.331,0-14.667,6.334-14.667,15.468
			c0,9.019,6.336,15.472,14.667,15.472c4.566,0,8.333-2.173,10.271-4.114v-7.705H198.98v-4.222h17.81v13.7
			C213.249,171.529,208.055,174.156,201.834,174.156"/>
		<polygon fill="#717171" points="241.479,173.414 236.745,173.414 236.745,157.319 221.733,135.343 227.265,135.343 
			239.087,153.036 250.896,135.343 256.433,135.343 241.479,157.319 		"/>
		<path fill="#717171" d="M56.489,120.427c-10.958,0-19.579-7.992-19.579-19.694c0-11.698,8.621-19.694,19.579-19.694
			c6.735,0,11.413,3.197,14.44,7.537L66.993,90.8c-2.173-3.25-6.164-5.537-10.503-5.537c-8.331,0-14.667,6.336-14.667,15.47
			c0,9.018,6.336,15.472,14.667,15.472c4.34,0,8.331-2.339,10.503-5.539l3.994,2.168C67.791,117.228,63.224,120.427,56.489,120.427"
			/>
		<polygon fill="#717171" points="100.53,119.741 78.096,119.741 78.096,81.67 82.835,81.67 82.835,115.517 100.53,115.517 		"/>
		<polygon fill="#717171" points="133.504,119.741 108.56,119.741 108.56,81.67 133.504,81.67 133.504,85.895 113.3,85.895 
			113.3,98.167 133.104,98.167 133.104,102.389 113.3,102.389 113.3,115.517 133.504,115.517 		"/>
		<path fill="#717171" d="M157.057,86.521l-8.048,20.548h16.153L157.057,86.521z M175.32,119.741h-5.424l-3.366-8.503h-18.951
			l-3.365,8.503h-5.423l15.355-38.071h5.877L175.32,119.741"/>
		<polygon fill="#717171" points="213.48,119.741 208.913,119.741 186.711,89.374 186.711,119.741 181.973,119.741 181.973,81.67 
			186.823,81.67 208.741,111.405 208.741,81.67 213.48,81.67 		"/>
	</g>
</g>
<rect x="596.418" y="160.846" fill="#231F20" width="82.158" height="8.235"/>
<g enable-background="new    ">
	<rect x="619.572" y="188.249" fill="#231F20" width="2.591" height="22.879"/>
	<g>
		<path fill="#231F20" d="M627.571,201.527h9.953c-0.16-3.295-1.856-5.312-4.833-5.312
			C629.621,196.217,627.955,198.521,627.571,201.527 M624.852,202.873c0-4.803,3.137-8.706,7.841-8.706
			c4.959,0,7.616,3.842,7.616,9.313h-12.801c0.192,3.359,2.018,5.92,5.344,5.92c2.402,0,4.001-1.151,4.578-3.392h2.529
			c-0.771,3.552-3.362,5.567-7.107,5.567C627.795,211.577,624.852,207.672,624.852,202.873"/>
	</g>
	<g>
		<path fill="#231F20" d="M653.045,205.018V202.2c-0.865,0.545-2.367,0.962-3.776,1.217c-2.593,0.479-4.673,0.929-4.673,3.358
			c0,2.211,1.728,2.688,3.426,2.688C651.477,209.465,653.045,206.938,653.045,205.018 M652.98,208.826h-0.032
			c-0.993,1.279-2.688,2.622-5.504,2.622c-3.137,0-5.602-1.472-5.602-4.607c0-3.905,3.073-4.705,7.199-5.345
			c2.336-0.352,3.97-0.576,3.97-2.367c0-1.854-1.345-2.914-3.712-2.914c-2.688,0-4.032,1.152-4.129,3.649h-2.495
			c0.095-3.2,2.207-5.603,6.592-5.603c3.521,0,6.111,1.312,6.111,5.248v7.873c0,1.346,0.32,2.081,1.762,1.76h0.096v1.89
			c-0.319,0.129-0.733,0.254-1.407,0.254C654.133,211.288,653.236,210.521,652.98,208.826"/>
	</g>
	<g>
		<path fill="#231F20" d="M661.749,196.76h0.065c1.185-1.566,2.849-2.561,5.248-2.561c3.453,0,5.568,1.888,5.568,5.312v11.618
			h-2.593v-11.396c0-2.145-1.41-3.36-3.746-3.36c-2.622,0-4.546,1.856-4.546,4.578v10.178h-2.59v-16.548h2.59v2.177L661.749,196.76
			L661.749,196.76z"/>
	</g>
	<g>
		<path fill="#231F20" d="M613.918,227.462c-0.191-1.952-1.408-3.2-3.103-3.2c-1.985,0-3.008,1.248-3.361,3.2H613.918z
			 M602.303,229.191c0-4.897,3.425-8.642,8.417-8.642c2.336,0,4.191,0.769,5.601,2.05c1.951,1.793,2.91,4.639,2.881,7.969h-11.776
			c0.319,2.209,1.534,3.582,3.678,3.582c1.378,0,2.273-0.605,2.722-1.631h5.089c-0.354,1.473-1.312,2.881-2.752,3.871
			c-1.376,0.959-3.04,1.504-5.12,1.504C605.631,237.896,602.303,234.15,602.303,229.191"/>
	</g>
	<g>
		<path fill="#231F20" d="M620.957,221.032h5.023v2.237h0.1c1.216-1.759,2.783-2.72,5.057-2.72c3.584,0,5.696,2.562,5.696,6.21
			v10.655h-5.217v-9.601c0-1.729-0.863-2.914-2.561-2.914c-1.729,0-2.88,1.442-2.88,3.459v9.056h-5.218L620.957,221.032
			L620.957,221.032L620.957,221.032z"/>
	</g>
	<g>
		<path fill="#231F20" d="M650.081,227.462c-0.192-1.952-1.409-3.2-3.105-3.2c-1.981,0-3.007,1.248-3.357,3.2H650.081z
			 M638.465,229.191c0-4.897,3.426-8.642,8.415-8.642c2.337,0,4.193,0.769,5.603,2.05c1.952,1.793,2.912,4.639,2.879,7.969h-11.777
			c0.321,2.209,1.538,3.582,3.684,3.582c1.375,0,2.27-0.605,2.719-1.631h5.09c-0.354,1.473-1.313,2.881-2.753,3.871
			c-1.377,0.959-3.039,1.504-5.12,1.504C641.793,237.896,638.465,234.15,638.465,229.191"/>
	</g>
	<g>
		<path fill="#231F20" d="M657.12,221.032h4.994v2.56h0.096c1.151-1.953,2.495-2.816,4.479-2.816c0.479,0,0.801,0.033,1.025,0.129
			v4.479h-0.131c-3.199-0.445-5.247,1.122-5.247,4.674v7.36h-5.218L657.12,221.032L657.12,221.032z"/>
	</g>
	<g>
		<path fill="#231F20" d="M679.969,228.552c0-2.206-1.15-4.063-3.33-4.063c-1.949,0-3.229,1.6-3.229,4.097
			c0,2.463,1.278,4.062,3.229,4.062C678.912,232.646,679.969,230.855,679.969,228.552 M668.673,237.8h5.055
			c0.289,0.863,1.152,1.601,2.882,1.601c2.209,0,3.137-1.152,3.137-3.137v-1.634h-0.128c-0.958,1.091-2.208,1.89-4.191,1.89
			c-3.68,0-7.104-2.752-7.104-7.776c0-4.8,2.815-8.191,6.88-8.191c2.178,0,3.646,0.865,4.606,2.24h0.065v-1.759h4.992v14.783
			c0,2.466-0.864,4.256-2.177,5.441c-1.44,1.277-3.584,1.822-6.017,1.822C672.161,243.08,669.185,241.225,668.673,237.8"/>
	</g>
	<g>
		<path fill="#231F20" d="M687.907,238.761h1.79c1.536,0,2.143-0.608,2.143-1.729c0-0.704-0.318-1.662-0.99-3.392l-4.832-12.608
			h5.505l2.209,6.977c0.512,1.599,1.021,3.774,1.021,3.774h0.066c0,0,0.446-2.176,0.96-3.774l2.144-6.977h5.215l-5.662,16.608
			c-1.312,3.84-2.881,5.184-6.177,5.184h-3.391V238.761L687.907,238.761z"/>
	</g>
	<g>
		<path fill="#231F20" d="M602.493,247.158h2.4v-5.217h2.594v5.217h3.2v2.111h-3.2v10.752c0,1.151,0.608,1.535,1.664,1.535
			c0.512,0,1.087-0.127,1.376-0.224h0.095v2.239c-0.607,0.13-1.311,0.224-2.08,0.224c-2.111,0-3.647-0.86-3.647-3.198V249.27h-2.4
			L602.493,247.158L602.493,247.158z"/>
	</g>
	<g>
		<path fill="#231F20" d="M615.965,249.91h0.066c0.993-1.6,2.72-2.944,4.928-2.944c0.479,0,0.736,0.062,1.056,0.192v2.494h-0.096
			c-0.382-0.129-0.641-0.159-1.152-0.159c-2.56,0-4.802,1.921-4.802,5.022v9.186h-2.59v-16.543h2.59V249.91L615.965,249.91z"/>
	</g>
	<g>
		<path fill="#231F20" d="M634.88,263.703v-2.271h-0.065c-1.183,1.6-2.591,2.655-4.992,2.655c-3.394,0-5.566-2.048-5.566-5.471
			v-11.458h2.592v11.393c0,2.146,1.377,3.395,3.711,3.395c2.625,0,4.322-1.987,4.322-4.61v-10.176h2.592v16.545L634.88,263.703
			L634.88,263.703z"/>
	</g>
	<g>
		<path fill="#231F20" d="M639.938,258.327h2.656c0.351,2.879,2.27,3.68,4.733,3.68c2.721,0,3.84-1.185,3.84-2.721
			c0-1.854-1.278-2.334-4.319-2.976c-3.265-0.672-6.177-1.345-6.177-4.959c0-2.754,2.113-4.547,5.954-4.547
			c4.095,0,6.11,1.952,6.495,5.186h-2.655c-0.259-2.176-1.44-3.137-3.906-3.137c-2.367,0-3.326,1.057-3.326,2.367
			c0,1.793,1.601,2.145,4.446,2.721c3.328,0.674,6.114,1.408,6.114,5.219c0,3.326-2.722,5.021-6.53,5.021
			C642.719,264.184,640.191,262.039,639.938,258.327"/>
	</g>
	<g>
		<path fill="#231F20" d="M654.911,247.158h2.399v-5.217h2.595v5.217h3.198v2.111h-3.198v10.752c0,1.151,0.605,1.535,1.662,1.535
			c0.512,0,1.09-0.127,1.376-0.224h0.098v2.239c-0.608,0.13-1.312,0.224-2.08,0.224c-2.113,0-3.648-0.86-3.648-3.198V249.27h-2.4
			L654.911,247.158L654.911,247.158z"/>
	</g>
	<path fill="#231F20" d="M601.938,202.873c0-4.803,3.073-8.706,8.002-8.706c3.903,0,6.495,2.24,7.072,5.763h-2.625
		c-0.384-2.24-1.951-3.617-4.447-3.617c-3.521,0-5.346,2.912-5.346,6.562c0,3.647,1.824,6.526,5.346,6.526
		c2.688,0,4.287-1.534,4.511-4.092h2.562c-0.354,3.965-2.945,6.27-7.075,6.27C605.012,211.577,601.938,207.672,601.938,202.873"/>
</g>
<path fill="#231F20" d="M700.595,16.327c-0.068,0.315-0.19,0.697-0.325,1.076c-0.266,0.771-0.587,1.576-0.933,2.375
	c-0.567,1.286-1.16,2.574-1.75,3.863c0.008-0.103,0.027-0.196,0.034-0.304c0.048-1.207-0.057-2.143-0.271-3.179
	c-0.424-2.027-1.282-3.846-2.34-5.467c-1.062-1.62-2.311-3.059-3.724-4.314c-1.431-1.257-2.922-2.373-4.797-3.23
	c-0.971-0.474-2.244-0.757-3.218-0.78c-1.017-0.063-1.956-0.006-2.869,0.071c-1.822,0.17-3.558,0.46-5.26,0.804
	c-3.396,0.669-6.745,1.521-9.955,1.813c-3.241,0.162-6.776,0-10.163-0.027l-10.277-0.151l-6.737-0.062
	c0.002-0.002-0.027-0.002-0.025-0.003c0.126-0.158,0.32-0.273,0.466-0.333c0-0.002,0-0.002,0-0.002
	c0.008-0.004,0.014-0.006,0.021-0.008c0.07-0.028,0.118-0.042,0.118-0.042l0,0c1.92-0.674,4.021-0.927,6.111-1.019l7.729,0.05
	l9.578,0.109l2.705,0.078c0.896,0.018,1.762,0.088,2.799,0.018c1.901-0.121,3.703-0.39,5.513-0.672l10.67-1.769
	c1.767-0.268,3.526-0.55,5.229-0.704c0.837-0.071,1.68-0.118,2.391-0.076c0.162,0.015,0.333,0.027,0.45,0.044
	c0.025,0.008,0.179,0.036,0.1,0.013l0.326,0.084c0.245,0.078,0.524,0.185,0.847,0.34c2.566,1.282,5.037,3.807,6.468,6.48
	c0.71,1.358,1.156,2.797,1.169,4.138C700.678,15.91,700.659,16.069,700.595,16.327 M693.107,23.019
	c-0.015,0.444-0.227,1.236-0.455,1.978c-0.763,2.222-1.643,4.486-2.541,6.757c0.057-0.458,0.104-0.927,0.13-1.416
	c0.048-1.248-0.141-2.065-0.351-3.04c-0.224-0.932-0.535-1.823-0.913-2.674c-0.738-1.695-1.691-3.238-2.766-4.65
	c-1.065-1.423-2.271-2.71-3.593-3.88c-1.341-1.167-2.693-2.252-4.491-3.156c-1.128-0.573-2.148-0.699-3.079-0.779
	c-0.927-0.078-1.798-0.084-2.659-0.067c-1.706,0.036-3.35,0.145-4.979,0.273c-3.287,0.262-6.359,0.631-9.521,0.312l-19.512-1.211
	l-3.104-0.149c0,0,1.109-1.202,1.727-1.551c0.168-0.067,1.044-0.035,1.523-0.011l6.157,0.434c6.872,0.499,13.552,1.156,20.597,1.567
	c3.639-0.062,7.005-0.606,10.396-0.893c1.679-0.147,3.343-0.306,4.935-0.323c0.794-0.006,1.576,0.015,2.265,0.125
	c0.73,0.108,1.149,0.217,1.712,0.518c2.47,1.33,4.956,3.586,6.59,6.027c0.824,1.234,1.447,2.562,1.735,3.896
	C693.069,21.737,693.124,22.515,693.107,23.019 M685.738,30.181c-0.047,1.251-0.388,2.822-0.762,4.317
	c-0.374,1.513-0.807,3.049-1.27,4.585c-0.877,2.906-1.854,5.813-2.835,8.729c0.178-0.789,0.37-1.591,0.546-2.394
	c0.333-1.514,0.651-3.034,0.91-4.602c0.21-1.619,0.526-3.072,0.305-5.22c-0.316-2.016-1.094-3.599-1.923-5.07
	c-0.841-1.461-1.787-2.793-2.796-4.058c-0.997-1.272-2.082-2.45-3.225-3.58c-1.163-1.146-2.283-2.189-3.816-3.231
	c-0.575-0.385-0.899-0.5-1.326-0.697c-0.396-0.191-0.811-0.331-1.217-0.474c-0.833-0.273-1.66-0.483-2.481-0.642
	c-1.642-0.302-3.257-0.436-4.812-0.518c-1.562-0.07-3.077-0.088-4.525-0.189c-1.379-0.105-2.989-0.373-4.495-0.552
	c-6.203-0.736-12.388-1.594-18.572-2.39c0.244-0.587,0.479-1.082,0.709-1.452c0.073-0.113,0.14-0.203,0.209-0.298l3.883,0.476
	c6.455,0.843,12.902,1.736,19.341,2.686c1.56,0.256,3.403,0.453,5.033,0.497c1.674,0.059,3.321,0.057,4.94,0.069
	c1.622,0.012,3.229-0.01,4.78,0.07c1.49,0.073,3.146,0.262,3.825,0.669c1.1,0.579,2.321,1.542,3.398,2.552
	c1.084,1.011,2.095,2.13,2.996,3.293c0.903,1.167,1.683,2.419,2.259,3.697c0.282,0.634,0.514,1.289,0.675,1.935
	C685.65,28.991,685.782,29.797,685.738,30.181 M682.881,93.625c-1.129-1.368-2.283-2.717-3.458-4.037
	c-1.93-2.199-3.924-4.331-5.877-6.461l-0.712-0.793c-0.209-0.235-0.503-0.581-0.536-0.646c0.003-0.002-0.091-0.283-0.119-0.531
	c-0.032-0.289-0.064-0.609-0.075-0.94c-0.014-0.407,0-0.837,0-1.263c0.075,0.157,0.17,0.317,0.285,0.489l1.497,1.79l5.857,7.034
	c1.082,1.346,2.167,2.692,3.242,4.043C683.007,92.748,682.93,93.178,682.881,93.625 M682.027,96.647
	c-1.54-1.488-3.111-2.948-4.729-4.336l-6.355-5.481c-0.141-0.124-0.312-0.275-0.476-0.42c-0.192-0.235-0.669-0.849-0.872-1.364
	c-0.045-0.164-0.087-0.34-0.125-0.518c-0.134-0.848-0.251-2.472-0.156-2.491c0.077-0.017,0.148,0.09,0.236,0.315
	c0.022,0.073,0.049,0.146,0.08,0.223c0.008,0.023,0.016,0.048,0.025,0.073c0.009,0.029,0.021,0.05,0.031,0.065
	c0.068,0.149,0.152,0.31,0.264,0.489c0.387,0.529,0.603,0.693,0.886,0.997l0.782,0.777l6.289,6.05
	c1.521,1.479,3.019,2.977,4.515,4.475C682.298,95.916,682.167,96.296,682.027,96.647 M681.421,98.235
	c-0.121,0.281-0.231,0.546-0.348,0.806c-1.888-1.385-3.805-2.716-5.773-3.956l-6.868-4.302l-0.785-0.516
	c-0.212-0.15-0.052-0.047-0.143-0.137c-0.048-0.056-0.107-0.147-0.164-0.249c-0.255-0.436-0.493-1.03-0.695-1.618
	c-0.414-1.208-0.752-2.487-1.062-3.77c-1.213-5.177-2.08-10.511-2.917-15.826l-1.297-7.996c-0.238-1.385-0.386-2.567-0.771-4.195
	c-0.526-1.733-1.251-2.931-1.975-4.193c-1.473-2.436-3.097-4.671-4.756-6.872c-0.815-1.095-1.682-2.161-2.561-3.213l-1.317-1.574
	c-0.431-0.521-0.957-1.083-1.161-1.389c-0.59-0.87-1.192-2.067-1.798-3.238c-0.614-1.181-1.213-2.415-1.928-3.67
	c-0.36-0.631-0.729-1.271-1.252-1.933c-0.271-0.342-0.503-0.631-0.989-1.061c-0.36-0.31-0.685-0.504-1.003-0.712
	c-1.271-0.776-2.501-1.383-3.746-1.985c-3.018-1.423-6.072-2.695-9.153-3.878c0.201-0.258,0.408-0.518,0.61-0.773
	c0,0,0.117-0.17,0.326-0.468c0.037-0.05,0.086-0.13,0.124-0.191c3.378,1.301,6.718,2.671,9.965,4.189
	c1.248,0.59,2.479,1.206,3.67,1.861c1.166,0.642,2.377,1.364,3.212,2.055c1.962,1.645,3.826,3.741,5.674,5.731
	c3.622,4.052,7.32,8.267,9.819,12.798c0.595,1.145,1.077,2.224,1.275,3.295c0.212,1.12,0.351,2.56,0.462,3.897
	c0.222,2.73,0.356,5.531,0.521,8.328c0.37,5.581,0.658,11.189,1.354,16.844c0.185,1.417,0.387,2.839,0.733,4.297
	c0.19,0.733,0.354,1.456,0.803,2.317c0.134,0.221,0.257,0.445,0.528,0.718c0.222,0.222,0.297,0.267,0.477,0.42l0.851,0.678
	l6.753,5.015c1.814,1.377,3.63,2.739,5.413,4.144C681.438,98.153,681.387,98.28,681.421,98.235 M680.099,101.507
	c-2.271-1.196-4.579-2.34-6.917-3.397l-7.289-3.255l-0.876-0.409c-0.142-0.068-0.312-0.165-0.282-0.158
	c-0.047-0.025-0.112-0.09-0.185-0.171c-0.31-0.326-0.646-0.85-0.94-1.373c-0.598-1.072-1.125-2.262-1.62-3.458
	c-1.96-4.841-3.53-9.915-5.099-14.976l-2.392-7.625c-0.41-1.276-0.813-2.529-1.314-3.884c-0.514-1.429-1.317-2.771-2.108-3.93
	c-3.219-4.635-6.955-8.393-9.221-12.628c-1.003-1.943-1.549-4.396-2.062-7.001c-0.271-1.318-0.521-2.656-1.084-4.163
	c-0.269-0.707-0.792-1.737-1.532-2.342c-0.604-0.541-1.167-0.928-1.747-1.335c-3.036-2.029-6.141-3.792-9.305-5.431
	c0.357-0.378,0.729-0.753,1.08-1.135c0.063-0.067,0.123-0.147,0.188-0.215c3.122,1.54,6.201,3.164,9.16,4.913
	c1.129,0.685,2.265,1.398,3.234,2.125c0.236,0.18,0.478,0.363,0.604,0.521c0.009,0.023,0.208,0.268,0.329,0.474
	c0.272,0.436,0.561,0.977,0.828,1.538c0.543,1.148,1.052,2.379,1.588,3.634c0.548,1.271,1.083,2.535,2,3.926l5.089,6.465
	c1.619,2.094,3.201,4.231,4.553,6.396c0.646,1.06,1.28,2.229,1.557,3.087c0.287,0.995,0.558,2.481,0.823,3.746l1.642,7.954
	c1.186,5.297,2.378,10.591,3.956,15.864c0.409,1.316,0.831,2.631,1.391,3.953c0.282,0.672,0.575,1.328,1.046,2.038
	c0.121,0.181,0.25,0.369,0.429,0.558c0.133,0.17,0.562,0.495,0.64,0.52l0.938,0.539l7.185,3.781
	c2.084,1.137,4.185,2.256,6.231,3.467C680.39,100.665,680.212,101.134,680.099,101.507 M679.579,102.925
	c-0.147,0.288-0.33,0.609-0.529,0.947c-0.126-0.042-0.248-0.093-0.372-0.137c-2.563-0.821-5.145-1.582-7.729-2.277
	c-2.578-0.707-5.205-1.374-7.638-2.216l-0.435-0.165c-0.156-0.061-0.31-0.126-0.338-0.155c-0.162-0.088-0.372-0.237-0.576-0.418
	c-0.404-0.359-0.818-0.835-1.214-1.314c-0.777-0.979-1.508-2.067-2.21-3.166c-2.792-4.442-5.216-9.207-7.569-13.969l-3.496-7.19
	c-0.54-1.156-1.229-2.557-1.962-3.729c-0.724-1.2-1.496-2.338-2.28-3.454c-1.559-2.241-3.152-4.404-4.729-6.554
	c-1.532-2.127-3.297-4.324-4.394-6.274c-0.353-0.606-0.51-1.716-0.581-2.919c-0.05-1.209-0.006-2.506,0.05-3.832
	c0.063-1.324,0.118-2.69,0.092-4.115c-0.021-0.726-0.048-1.456-0.169-2.233c-0.123-0.802-0.225-1.542-0.815-2.602
	c-0.229-0.38-0.164-0.248-0.437-0.608l-0.382-0.413l-0.736-0.749l-1.494-1.416c-1.003-0.921-2.026-1.824-3.065-2.694
	c-1.039-0.875-2.115-1.708-3.195-2.527c0.414-0.384,0.819-0.77,1.217-1.162c3.093,1.991,6.105,4.109,8.873,6.389
	c0.478,0.415,0.971,0.842,1.314,1.228c0.261,0.281,0.314,0.514,0.483,1.061c0.278,1.016,0.402,2.323,0.576,3.627
	c0.354,2.612,0.602,5.527,2.021,8.36c2.606,5.298,6.688,9.056,9.527,13.151c0.716,1.026,1.282,1.989,1.728,3.042
	c0.476,1.125,0.934,2.394,1.392,3.625c0.924,2.478,1.785,4.999,2.743,7.492c1.901,4.992,3.797,9.992,6.146,14.896
	c0.6,1.222,1.227,2.436,1.996,3.645c0.406,0.604,0.808,1.202,1.448,1.807c0.172,0.149,0.363,0.308,0.598,0.449
	c0.323,0.176,0.451,0.22,0.61,0.287l0.957,0.369l7.521,2.707c2.441,0.898,4.9,1.773,7.287,2.772
	C679.736,102.623,679.662,102.764,679.579,102.925 M677.826,105.907c-0.325-0.073-0.653-0.153-0.979-0.212
	c-2.719-0.52-5.442-0.896-8.149-1.211c-2.697-0.34-5.429-0.642-7.967-1.238c-0.282-0.06-0.687-0.172-0.799-0.216
	c-0.19-0.103-0.417-0.217-0.668-0.397c-0.477-0.319-0.966-0.731-1.438-1.164c-0.959-0.873-1.868-1.828-2.776-2.821
	c-3.574-3.983-6.857-8.326-10.079-12.686c-3.271-4.333-6.384-8.79-9.56-13.195c-1.567-2.212-3.122-4.443-4.644-6.685l-2.278-3.341
	l-1.092-1.668c-0.351-0.548-0.719-1.121-0.854-1.452c-0.279-0.647-0.36-1.773-0.29-2.952c0.085-1.199,0.314-2.477,0.59-3.767
	c0.531-2.619,1.283-5.239,1.472-8.347c0.012-0.827,0.031-1.545-0.28-2.663c-0.096-0.281-0.073-0.214-0.249-0.634
	c-0.118-0.247-0.229-0.424-0.338-0.605c-0.221-0.35-0.435-0.646-0.651-0.938c-0.873-1.162-1.788-2.208-2.717-3.245
	c-1.478-1.643-3.027-3.2-4.615-4.719c0.771-0.483,1.516-0.993,2.207-1.543c1.071,0.967,2.127,1.951,3.145,2.973
	c0.927,0.939,1.831,1.901,2.718,2.871l1.288,1.488l0.613,0.737l0.265,0.35c-0.079-0.09,0.208,0.302,0.116,0.229
	c0.039,0.134,0.185,0.736,0.191,1.257c0.021,0.558-0.006,1.166-0.047,1.786c-0.088,1.246-0.271,2.555-0.409,3.901
	c-0.146,1.33-0.284,2.713-0.317,4.184c-0.017,1.45,0,3.11,0.898,4.906c0.747,1.438,1.518,2.524,2.294,3.674
	c0.786,1.125,1.564,2.226,2.383,3.295c1.614,2.149,3.229,4.266,4.756,6.408c0.772,1.07,1.504,2.147,2.194,3.214
	c0.729,1.083,1.269,2.053,1.906,3.305c1.274,2.373,2.529,4.755,3.87,7.089c2.688,4.671,5.436,9.319,8.634,13.759
	c0.815,1.112,1.652,2.201,2.61,3.257c0.491,0.518,0.986,1.035,1.61,1.522c0.319,0.247,0.655,0.487,1.104,0.693
	c0.27,0.117,0.436,0.163,0.59,0.214l0.518,0.148c2.698,0.713,5.319,1.162,7.948,1.68c2.64,0.508,5.273,0.951,7.875,1.54
	c0.041,0.008,0.078,0.019,0.12,0.027C678.305,105.104,678.061,105.502,677.826,105.907 M677.12,107.068
	c-0.036,0.035-0.066,0.071-0.106,0.111c-0.209,0.22-0.411,0.447-0.617,0.674c-0.482-0.046-0.971-0.095-1.455-0.116
	c-2.877-0.134-5.746-0.067-8.588,0.046c-1.411,0.038-2.826,0.084-4.22,0.074c-1.398-0.017-2.761-0.05-3.903-0.375
	c-2.272-0.806-4.603-2.606-6.743-4.302c-4.335-3.511-8.343-7.493-12.255-11.516c-1.955-2.019-3.873-4.083-5.751-6.178
	c-1.892-2.071-3.752-4.18-5.54-6.328c-1.777-2.166-3.53-4.331-5.181-6.558c-0.818-1.114-1.605-2.243-2.336-3.39
	c-0.374-0.559-0.717-1.147-1.053-1.723l-0.491-0.864l-0.126-0.235c-0.032-0.056-0.01-0.04-0.027-0.071
	c-0.015-0.013-0.042-0.063-0.053-0.14c-0.181-0.605-0.018-1.985,0.278-3.215c0.31-1.269,0.723-2.579,1.156-3.909
	c0.846-2.673,1.84-5.348,2.595-8.229c0.363-1.459,0.726-2.921,0.641-4.719c-0.029-0.466-0.067-0.87-0.307-1.534
	c-0.132-0.361-0.198-0.416-0.29-0.6l-0.03-0.057l-0.087-0.153l-0.019-0.031l-0.074-0.112l-0.157-0.22l-1.25-1.755
	c-1.681-2.329-3.406-4.602-5.188-6.835c-0.236-0.296-0.483-0.59-0.725-0.881c0.707-0.426,1.417-0.857,2.13-1.291
	c1.587,1.826,3.134,3.688,4.594,5.6c0.807,1.069,1.6,2.156,2.281,3.24c0.166,0.27,0.328,0.541,0.449,0.783
	c0.151,0.312,0.123,0.27,0.222,0.64c0.013,0.203,0.047,0.877-0.036,1.406c-0.312,2.35-1.31,4.946-2.002,7.638
	c-0.366,1.362-0.712,2.763-0.906,4.279c-0.172,1.521-0.285,3.215,0.46,5.122c0.399,0.921,0.794,1.498,1.148,2.119l1.124,1.769
	c0.748,1.171,1.505,2.325,2.29,3.461c1.568,2.258,3.171,4.486,4.775,6.698c6.518,8.843,13.325,17.438,21.178,25.309
	c1.008,0.975,2.028,1.92,3.154,2.822c0.568,0.459,1.156,0.891,1.838,1.292c0.325,0.202,0.71,0.389,1.134,0.558
	c0.542,0.174,0.809,0.191,1.197,0.273c2.833,0.436,5.56,0.518,8.294,0.651c2.731,0.146,5.45,0.186,8.153,0.426
	c0.195,0.018,0.39,0.052,0.59,0.072C677.229,106.889,677.177,106.977,677.12,107.068 M674.642,110.007
	c-0.074,0.111-0.132,0.203-0.191,0.296c-0.041,0.044-0.087,0.082-0.127,0.126c-0.463,0.03-0.927,0.051-1.389,0.099
	c-2.999,0.283-5.979,0.684-8.939,1.061c-2.904,0.333-6.007,0.752-8.578,0.322c-0.288-0.064-0.632-0.168-0.764-0.234
	c-0.015-0.002-0.141-0.079-0.214-0.111l-0.188-0.11l-0.479-0.294l-1.907-1.154l-3.8-2.367c-5.048-3.177-9.979-6.528-14.784-9.993
	c-2.396-1.728-4.769-3.502-6.97-5.375c-1.115-0.921-2.136-1.838-3.104-2.875c-0.999-1.047-1.964-2.126-2.893-3.234
	c-1.849-2.226-3.589-4.558-5.255-6.969c-0.829-1.209-1.646-2.441-2.436-3.678l-0.602-0.943l-0.301-0.476
	c-0.067-0.124-0.123-0.187-0.166-0.294c-0.196-0.393-0.333-0.827-0.394-1.347c-0.217-2.13,0.831-4.931,1.989-7.529
	c0.999-2.302,2.125-4.631,3.173-7.073c-0.506,1.305-0.987,2.639-1.402,4.062c-0.371,1.507-0.867,2.994-0.509,5.204
	c0.042,0.468,0.461,1.37,0.548,1.533l0.526,1.018c0.372,0.653,0.745,1.305,1.142,1.931c0.78,1.263,1.604,2.464,2.453,3.67
	c1.691,2.367,3.483,4.644,5.368,6.824c3.734,4.401,7.723,8.545,11.928,12.456c4.203,3.924,8.591,7.642,13.321,11
	c1.186,0.835,2.403,1.646,3.683,2.383c1.298,0.73,2.6,1.45,4.238,1.866c1.627,0.325,3.142,0.207,4.575,0.126
	c1.448-0.094,2.869-0.252,4.285-0.407c2.829-0.287,5.639-0.682,8.448-0.806c0.245-0.012,0.489-0.01,0.738-0.015
	C675.278,109.168,674.924,109.619,674.642,110.007 M672.607,112.725c-0.07,0.126-0.134,0.26-0.2,0.39
	c-0.58,0.08-1.165,0.16-1.74,0.256c-3.152,0.516-6.285,1.125-9.398,1.773c-1.558,0.313-3.113,0.64-4.653,0.905
	c-0.768,0.14-1.565,0.277-2.237,0.317c-0.522,0.015-1.313-0.128-2.002-0.291c-2.881-0.738-5.758-2.088-8.561-3.454
	c-5.63-2.787-11.063-6.064-16.604-9.189c-2.746-1.574-5.48-3.152-8.037-4.837c-2.572-1.673-4.839-3.506-6.762-5.762
	c-1.929-2.25-3.682-4.816-5.404-7.447l-2.559-3.985l-0.59-0.948c-0.088-0.138-0.16-0.3-0.2-0.504
	c-0.104-0.396-0.139-0.945-0.063-1.562c0.313-2.527,1.694-5.439,3.072-8.187c0.16-0.331,0.344-0.665,0.512-1.005
	c-0.274,1.11-0.464,2.308-0.391,3.617c0.066,0.976,0.293,2.02,0.769,2.969c0.109,0.235,0.264,0.485,0.38,0.682l0.291,0.481
	l0.59,0.955c0.809,1.297,1.625,2.573,2.477,3.842c1.692,2.547,3.514,5.036,5.545,7.373c1.001,1.169,2.061,2.312,3.139,3.418
	c1.098,1.136,2.319,2.208,3.524,3.175c2.44,1.922,4.942,3.629,7.472,5.299c5.062,3.311,10.298,6.31,15.562,9.218l3.979,2.138
	l1.998,1.047l0.503,0.266l0.293,0.151l0.301,0.128c0.556,0.222,0.956,0.29,1.406,0.359c1.726,0.191,3.252,0.015,4.78-0.182
	c1.52-0.206,3.009-0.485,4.484-0.773c2.958-0.569,5.86-1.29,8.795-1.827c0.124-0.023,0.249-0.044,0.372-0.063
	C673.149,111.862,672.862,112.274,672.607,112.725 M671.355,115.776c-0.938,0.231-1.879,0.466-2.808,0.724l-9.826,2.721
	c-1.629,0.432-3.271,0.846-4.891,1.146c-0.806,0.145-1.641,0.286-2.321,0.294c-0.676-0.008-1.481-0.159-2.261-0.331
	c-3.178-0.72-6.39-1.876-9.538-3.041c-6.312-2.375-12.513-5.12-18.636-7.957c-3.053-1.417-6.088-2.893-9.008-4.484
	c-1.43-0.77-2.938-1.606-4.046-2.439c-1.148-0.902-2.317-2.05-3.396-3.231c-2.165-2.418-4.187-5.062-6.066-7.766
	c-0.908-1.328-1.882-2.833-2.507-4.031c-0.112-0.222-0.115-0.246-0.153-0.344c-0.025-0.09-0.057-0.187-0.074-0.296
	c-0.04-0.223-0.062-0.481-0.042-0.773c0.025-0.598,0.141-1.28,0.344-1.993c0.707-2.466,2.023-5.009,3.41-7.518
	c-0.105,0.438-0.206,0.883-0.295,1.343c-0.127,0.965-0.192,2.037,0.073,3.187c0.13,0.573,0.352,1.15,0.669,1.704l0.66,1.087
	l2.545,4.075c1.729,2.707,3.522,5.452,5.795,7.989c2.229,2.573,4.988,4.74,7.779,6.488c2.799,1.758,5.653,3.223,8.483,4.711
	c5.66,2.914,11.362,5.799,17.292,8.345c2.986,1.24,5.979,2.464,9.323,3.125c0.864,0.13,1.666,0.258,2.724,0.17
	c0.912-0.125,1.677-0.322,2.467-0.51c1.569-0.39,3.107-0.819,4.639-1.245c3.074-0.833,6.116-1.743,9.188-2.538
	c0.401-0.101,0.739-0.178,1.053-0.241C671.716,114.688,671.53,115.233,671.355,115.776 M670.49,118.396
	c-1.254,0.432-2.488,0.869-3.817,1.335l-10.25,3.595c-1.71,0.571-3.427,1.135-5.129,1.565c-0.411,0.103-0.851,0.2-1.213,0.254
	c-0.342,0.044-0.744,0.042-1.154,0.034c-0.814-0.03-1.679-0.139-2.546-0.277c-3.472-0.569-6.957-1.515-10.401-2.516
	c-6.905-2.019-13.729-4.438-20.484-6.946c-3.371-1.257-6.735-2.566-10.02-3.963l-2.438-1.072l-1.205-0.554
	c-0.367-0.166-0.659-0.325-0.992-0.52c-1.297-0.787-2.539-1.89-3.696-3.095c-2.327-2.454-4.301-5.376-6.173-8.343
	c-0.906-1.454-1.866-3.122-2.587-4.497c-0.38-0.64-0.24-2.119,0.298-3.59c0.688-1.952,1.751-3.932,2.936-5.896
	c-0.137,0.581-0.245,1.175-0.286,1.822c-0.029,0.556-0.006,1.15,0.089,1.769c0.055,0.31,0.132,0.621,0.229,0.932
	c0.104,0.313,0.263,0.688,0.346,0.845c0.924,1.832,1.812,3.171,2.803,4.677c1.938,2.911,4.05,5.693,6.479,8.308
	c1.229,1.305,2.492,2.556,4.028,3.731c1.635,1.188,3.146,1.96,4.705,2.791c3.116,1.562,6.257,2.942,9.417,4.279
	c6.331,2.654,12.763,5.006,19.303,7.09c3.288,1.02,6.566,2.008,10.05,2.622c0.896,0.139,1.773,0.262,2.811,0.223
	c1.026-0.094,1.852-0.305,2.709-0.512c1.704-0.435,3.34-0.96,4.961-1.501c3.25-1.078,6.423-2.319,9.619-3.496l2.186-0.779
	C670.881,117.286,670.698,117.847,670.49,118.396 M668.905,121.211c-0.12,0.13-0.236,0.262-0.364,0.386
	c-4.688,2.182-9.843,4.553-17.347,7.011c-0.884,0.283-1.778,0.52-2.667,0.734c-0.934,0.231-1.576,0.308-2.499,0.256
	c-1.774-0.059-3.624-0.334-5.464-0.63c-3.678-0.617-7.354-1.414-11.021-2.268c-7.327-1.7-14.593-3.729-21.818-5.777
	c-3.606-1.052-7.208-2.165-10.691-3.374c-0.877-0.298-1.744-0.607-2.577-0.938c-0.797-0.315-1.685-0.69-2.162-1.022
	c-1.252-0.823-2.578-2.104-3.783-3.402c-2.416-2.636-4.641-5.598-6.389-8.648c-0.854-1.534-1.584-3.101-1.774-4.489
	c-0.042-0.21,0.076-1.04,0.324-1.735c0.259-0.739,0.608-1.519,0.986-2.308c0.619-1.232,1.337-2.457,2.085-3.677
	c0,0.053-0.02,0.097-0.022,0.156c-0.121,1.156-0.051,2.526,0.568,3.836c0.938,1.847,1.788,3.32,2.775,4.965
	c1.928,3.199,4.112,6.27,6.805,9.088c1.354,1.391,2.851,2.726,4.67,3.812c0.451,0.263,0.969,0.523,1.412,0.729l1.279,0.575
	c0.856,0.373,1.711,0.717,2.573,1.057c3.43,1.347,6.871,2.57,10.334,3.733c6.929,2.315,13.935,4.344,21.048,6.084
	c3.561,0.849,7.141,1.647,10.856,2.081c0.937,0.096,1.887,0.172,2.868,0.155c0.511-0.007,1.009-0.038,1.574-0.141
	c0.522-0.121,0.967-0.249,1.421-0.388c1.8-0.573,3.485-1.246,5.185-1.928c4.529-1.787,8.607-3.689,12.919-5.625
	C669.716,120.119,669.356,120.684,668.905,121.211 M664.126,125.168c-0.877,0.762-1.88,1.379-2.896,1.95
	c-0.619,0.386-1.036,0.604-1.209,0.69c-0.641,0.334-1.283,0.652-1.931,0.951c-1.379,0.68-5.645,2.505-5.645,2.505v-0.002
	c-0.785,0.354-1.586,0.67-2.396,0.928c-0.022,0.008-0.038,0.023-0.06,0.035c-1.322,0.451-2.651,0.867-3.989,1.164
	c-0.441,0.102-0.901,0.2-1.319,0.256c-0.386,0.032-0.815,0.061-1.271,0.067c-0.896-0.006-1.814-0.05-2.742-0.104
	c-7.45-0.584-14.934-1.979-22.361-3.392c-3.712-0.731-7.418-1.503-11.122-2.313c-3.699-0.777-7.39-1.595-11.064-2.476l-5.466-1.379
	c-1.78-0.472-3.672-0.971-5.17-1.558c-1.247-0.521-2.623-1.639-3.881-2.852c-1.267-1.227-2.463-2.585-3.562-4.008
	c-1.104-1.431-2.152-2.912-3.06-4.446c-0.886-1.509-1.693-3.129-2.055-4.572c-0.085-0.344-0.144-0.684-0.146-0.919
	c-0.002,0.032,0.008-0.489,0.019-0.497c0.012-0.103,0.044-0.288,0.069-0.455c0.139-0.709,0.396-1.477,0.721-2.258
	c0.627-1.458,1.445-2.948,2.338-4.41c-0.058,0.489-0.082,0.999-0.025,1.62c0.334,2.361,1.293,4.273,2.232,6.045
	c1.95,3.543,4.323,6.663,7.043,9.569c1.394,1.444,2.78,2.837,4.692,4.094c1.116,0.689,2.008,1.003,2.953,1.389
	c0.937,0.363,1.852,0.678,2.771,0.986c3.672,1.197,7.344,2.187,11.026,3.152c7.364,1.933,14.795,3.496,22.269,4.914
	c3.739,0.682,7.495,1.33,11.305,1.782c1.908,0.21,3.812,0.413,5.822,0.396c0.972,0.017,2.204-0.208,3.095-0.508
	c0.938-0.281,1.851-0.6,2.754-0.94c3.6-1.366,7.031-3,10.397-4.761c1.024-0.535,1.803-0.91,2.499-1.244
	C664.558,124.774,664.346,124.977,664.126,125.168 M600.932,52.874c0.009-0.197,0.024-0.392,0.043-0.59
	c0.1,1.158,0.202,2.311,0.339,3.471c0.109,0.908,0.226,1.827,0.377,2.751l0.025,0.167c-0.018-0.053,0.002,0.084,0.008,0.117
	c0.005,0.094,0.038,0.249,0.026,0.307c0,0.125,0,0.279-0.014,0.472c-0.024,0.355-0.079,0.723-0.183,1.104
	c-0.089,0.327-0.193,0.652-0.312,0.975c-0.022-0.417-0.047-0.833-0.071-1.251l-0.208-3.078c-0.049-1.016-0.034-2.004-0.057-3.009
	C600.896,53.806,600.889,53.297,600.932,52.874 M604.086,44.005c0.137,0.787,0.257,1.568,0.396,2.35l0.93,5.03l0.479,2.508
	c0.139,0.795,0.411,1.815,0.341,2.226c-0.06,1.276-0.689,2.814-1.393,4.241c-0.178,0.348-0.382,0.702-0.565,1.057
	c0.008-0.059,0.028-0.118,0.043-0.175c0.093-0.504,0.146-1.041,0.155-1.588c0.007-0.269-0.009-0.569-0.043-0.888
	c-0.017-0.176-0.043-0.245-0.061-0.371l-0.074-0.38c-0.186-0.861-0.354-1.744-0.513-2.627c-0.308-1.765-0.6-3.545-0.861-5.335
	c-0.144-0.959-0.271-1.922-0.4-2.887C602.986,46.108,603.521,45.056,604.086,44.005 M606.972,39.964
	c0.338,1.081,0.68,2.163,1.018,3.244l1.44,4.545l0.717,2.266c0.219,0.747,0.523,1.566,0.579,2.061
	c0.135,1.108-0.272,2.551-0.817,3.903c-0.38,0.953-0.838,1.905-1.333,2.841c0.221-0.833,0.384-1.723,0.388-2.707
	c-0.068-1.299-0.388-1.91-0.564-2.784l-0.643-2.472l-1.28-4.933l-1.034-4.102C605.909,41.176,606.413,40.553,606.972,39.964
	 M610.225,37.137c0.426,0.889,0.854,1.773,1.267,2.665c1.23,2.698,2.522,5.483,3.668,8.106c0.85,2.069-0.249,4.863-1.443,7.409
	c-0.268,0.537-0.538,1.072-0.814,1.618c0.478-1.591,0.957-3.288,0.629-5.312c-0.239-1.072-0.577-1.718-0.843-2.487l-0.859-2.232
	l-1.775-4.441c-0.521-1.311-1.064-2.604-1.604-3.903C609.012,38.066,609.604,37.588,610.225,37.137 M620.158,45.321l0.015,0.014
	C620.201,45.399,620.185,45.359,620.158,45.321 M613.538,34.948c0.244,0.359,0.494,0.718,0.734,1.079
	c1.558,2.359,3.088,4.744,4.584,7.14l1.096,1.805l0.135,0.218l0.028,0.052l0.023,0.059c0.059,0.145,0.195,0.386,0.147,0.371
	c-0.025,0.013,0.04,0.327,0.019,0.565c-0.019,1.051-0.386,2.382-0.812,3.64c-0.673,1.995-1.521,4.002-2.369,6.039
	c0.461-1.213,0.884-2.472,1.126-3.842c0.298-1.606,0.336-3.586-0.509-5.282c-1.428-2.772-2.827-5.342-4.335-7.966
	c-0.528-0.927-1.078-1.842-1.624-2.759C612.355,35.685,612.939,35.312,613.538,34.948 M631.801,18.132
	c4.571,1.299,9.125,2.667,13.61,4.214c2.729,0.938,5.444,1.934,8.085,3.042c1.304,0.556,2.605,1.129,3.831,1.745
	c1.295,0.638,2.061,1.148,3.056,2.13c1.959,1.849,3.849,3.989,5.587,6.155c1.73,2.165,3.388,4.488,4.407,6.772
	c0.246,0.541,0.447,1.177,0.512,1.526c0.091,0.53,0.099,1.131,0.105,1.825c-0.016,1.354-0.079,2.779-0.166,4.208
	c-0.172,2.854-0.417,5.749-0.661,8.641c-0.352,4.333-0.712,8.671-0.933,13.056c-0.011,0.111-0.021,0.245-0.024,0.403
	c-0.01,0.258-0.02,0.493-0.027,0.707c-0.009,0.203-0.017,0.403-0.023,0.606c-0.073,1.588-0.126,1.584-0.229,1.562
	c-0.024-0.004-0.052-0.25-0.08-0.647c-0.035-0.702-0.076-1.431-0.112-2.102c-0.047-1.108-0.093-2.325-0.124-3.19
	c-0.015-1.812-0.021-3.631-0.032-5.448c-0.034-2.807-0.084-5.613-0.208-8.459c-0.08-1.456-0.13-2.807-0.382-4.456
	c-0.283-1.692-0.978-3.196-1.651-4.544c-2.896-5.305-6.562-9.673-10.545-13.797c-2.029-2.04-4.109-3.955-6.556-5.749
	c-1.432-0.97-2.729-1.517-4.074-2.1c-1.334-0.565-2.669-1.064-4.011-1.551c-3.333-1.185-6.693-2.228-10.067-3.204
	C631.315,19.062,631.557,18.608,631.801,18.132 M674.479,77.38c-0.036-0.283-0.037-0.615-0.021-0.955
	c0.019-0.434,0.081-0.885,0.124-1.324l0.075,0.124l1.307,2.081l5.27,8.221l0.522,0.821c0.05,0.146,0.111,0.289,0.159,0.432
	c0.254,0.686,0.423,1.377,0.577,2.063c-0.399-0.579-0.793-1.173-1.208-1.75c-1.771-2.504-3.551-4.996-5.4-7.443l-1.343-1.803
	C674.593,77.914,674.498,77.657,674.479,77.38 M632.68,16.188c0.128-0.35,0.251-0.682,0.369-1l0.584,0.113
	c5.994,1.183,11.986,2.415,17.933,3.808c5.822,1.885,12.891,1.496,16.833,4.161c0.963,0.733,2.056,1.809,3.049,2.813
	c1.003,1.049,1.964,2.151,2.874,3.259c0.902,1.125,1.739,2.287,2.424,3.474c0.686,1.165,1.227,2.413,1.383,3.421
	c0.132,0.897-0.059,2.506-0.263,3.903c-0.202,1.448-0.459,2.929-0.734,4.409c-0.548,2.965-1.181,5.949-1.811,8.93
	c-0.371,1.874-0.757,3.748-1.129,5.628c0.013-0.101,0.029-0.201,0.038-0.298c0.346-2.898,0.688-5.792,0.963-8.727
	c0.14-1.477,0.259-2.952,0.275-4.507c0.009-0.76,0.012-1.614-0.124-2.518c-0.199-1.093-0.48-1.839-0.804-2.634
	c-1.34-3.038-3.109-5.475-4.968-7.876c-1.9-2.36-3.92-4.562-6.316-6.578c-0.307-0.249-0.622-0.495-0.958-0.736
	c-0.287-0.216-0.821-0.577-1.082-0.708c-0.831-0.472-1.497-0.753-2.227-1.055c-1.435-0.592-2.85-1.061-4.274-1.488
	c-2.845-0.85-5.684-1.582-8.529-2.283c-4.561-1.104-9.12-2.111-13.703-3.04C632.547,16.502,632.619,16.348,632.68,16.188
	 M706.97,13.818c-0.05-0.766-0.236-1.54-0.358-2.307c-0.192-0.749-0.491-1.468-0.742-2.201c-0.91-2.239-2.428-4.268-4.31-5.819
	c-4.323-3.655-7.773-3.371-11.356-3.487c-3.602-0.12-11.221,2.529-11.221,2.529h0.058c-2.199,0.581-4.383,1.167-6.57,1.697
	c-1.733,0.413-3.475,0.823-5.177,1.054c-0.751,0.123-1.693,0.121-2.595,0.159L661.99,5.56l-10.819,0.521l-1.464,0.049
	c-0.166,0-0.726,0.016-0.848,0.016c-2.571,0-5.343-0.003-7.962,0.462c-3.205,0.451-5.863,1.981-7.384,3.041
	c-0.02,0.012-0.035,0.023-0.055,0.035c-0.002-0.002-0.556,0.376-1.047,0.8c-0.18,0.151-0.275,0.237-0.275,0.237l0.006,0.01
	c-0.113,0.111-0.216,0.22-0.297,0.323c-0.481,0.56-0.978,1.166-1.308,1.761c-0.062,0.094-0.109,0.182-0.166,0.275
	c-0.495,0.665-0.988,1.418-1.476,2.304c-0.003,0.006-0.007,0.012-0.011,0.019c-0.359,0.535-0.729,1.105-1.095,1.672
	c-0.285,0.378-0.534,0.713-0.739,0.986c-0.375,0.541-0.659,0.816-0.659,0.816c-0.812,0.988-1.499,1.998-2.455,2.973
	c-0.793,0.869-1.604,1.723-2.413,2.529c-1.654,1.641-2.829,2.852-4.927,4.163l-0.582,0.458c-3.374,2.113-7.126,4.058-10.418,7.006
	c-0.38,0.336-0.745,0.693-1.102,1.057c-0.355,0.262-0.671,0.493-0.936,0.68c-0.499,0.396-0.778,0.651-0.783,0.653l-1.321,1.295
	l-1.225,1.421c-0.203,0.243-0.405,0.481-0.609,0.722l-0.539,0.779l-1.062,1.569c-0.607,1.07-1.272,2.105-1.776,3.248
	c-1.107,2.22-1.926,4.57-2.549,6.939c-0.646,2.373-1.035,4.77-1.335,7.172c-0.321,2.457-0.374,4.701-0.818,6.856
	c-0.128,0.672-0.294,1.326-0.485,1.965c-0.403,0.807-0.876,1.609-1.368,2.396c-0.984,1.55-2.076,3.059-3.2,4.55
	c-4.553,5.98-9.663,11.61-14.03,18.134c-1.075,1.644-2.138,3.343-2.975,5.275c-0.42,0.968-0.788,2-1.025,3.166
	c-0.052,0.296-0.109,0.588-0.138,0.957c-0.042,0.458-0.04,0.417-0.042,0.919c0.01,0.712,0.132,1.314,0.248,1.895
	c0.57,2.254,1.512,4.062,2.511,5.827c1.021,1.748,2.14,3.406,3.376,4.973c1.241,1.565,2.562,3.056,4.038,4.47
	c1.489,1.379,3.073,2.776,5.342,3.745c2.058,0.78,3.854,1.213,5.75,1.706c1.872,0.464,3.753,0.875,5.625,1.274
	c7.479,1.612,14.991,2.932,22.543,4.032c7.562,1.084,15.107,2.147,22.853,2.406c0.977,0.024,1.95,0.012,2.959-0.072
	c0.493-0.036,1.012-0.098,1.563-0.199c0.523-0.109,0.979-0.243,1.453-0.391c1.89-0.584,3.692-1.307,5.43-2.146
	c1.906-0.942,3.811-1.933,5.633-3.007c1.908-0.862,3.764-1.855,5.548-2.959c0.829-0.489,1.898-1.125,2.893-1.721
	c0.002-0.004,0.004-0.013,0.004-0.013s3.227-1.932,5.25-4.01c0.794-0.842,1.522-1.74,2.124-2.781
	c0.642-1.116,0.951-2.426,1.31-3.651c0.136-0.466,0.318-0.894,0.524-1.298c0.459-0.753,1.314-1.817,1.314-1.817
	c0.809-1.034,1.792-1.88,2.48-2.38c0.129-0.084,0.267-0.18,0.407-0.283c0.015-0.007,0.033-0.021,0.046-0.028
	c0.278-0.174,0.675-0.504,1.035-0.826c0.027-0.022,0.056-0.048,0.082-0.07c0.119-0.107,0.232-0.21,0.336-0.304
	c0.02-0.019,0.041-0.038,0.061-0.057c0.244-0.226,0.416-0.394,0.416-0.394l-0.008-0.004c0.396-0.397,0.808-0.854,1.222-1.364
	c0.014-0.016,0.034-0.035,0.048-0.048c0.122-0.144,0.188-0.216,0.188-0.216c0.821-1.067,1.476-2.078,2.091-3.24
	c0.06-0.098,0.117-0.195,0.165-0.296c0.229-0.454,0.431-0.92,0.615-1.396c1.137-2.619,2.06-5.93,2.473-10.087
	c0.13-1.017,0.188-2.039,0.208-3.062c0.03-0.365,0.182-2.56-0.31-4.715c-0.121-0.774-0.266-1.544-0.457-2.298
	c-0.586-2.235-1.259-4.249-1.866-6.242c-0.046-0.37-0.094-0.745-0.14-1.104c-0.351-2.571-0.407-4.99-0.048-7.439
	c0.358-2.432,1.113-4.822,2.127-7.153c0.988-2.315,2.287-4.571,3.604-6.847c1.333-2.27,2.734-4.522,4.121-6.807
	c2.774-4.552,5.522-9.243,7.643-14.328c1.051-2.541,1.903-5.214,2.473-7.941l0.204-1.028c0.03-0.142,0.083-0.403,0.083-0.457
	l0.025-0.26l0.008-0.076c0.31-0.948,0.585-1.922,0.768-2.941c0.168-0.714,0.198-1.486,0.299-2.227
	C707.041,15.364,706.97,14.58,706.97,13.818"/>
<g>
	<path fill="#2EE9D1" d="M391.548,157.361c-0.659,0-1.32-0.24-1.843-0.723c-1.099-1.018-1.164-2.733-0.146-3.833l15.462-16.689
		l-15.462-16.691c-1.018-1.099-0.952-2.814,0.146-3.832c1.099-1.017,2.814-0.952,3.832,0.146l18.877,20.377l-18.877,20.376
		C393.003,157.068,392.276,157.361,391.548,157.361z"/>
</g>
</svg>
