<?xml version="1.0" encoding="utf-8"?>
<!-- Generator: Adobe Illustrator 16.0.4, SVG Export Plug-In . SVG Version: 6.00 Build 0)  -->
<!DOCTYPE svg PUBLIC "-//W3C//DTD SVG 1.1//EN" "http://www.w3.org/Graphics/SVG/1.1/DTD/svg11.dtd">
<svg version="1.1" id="Layer_1" xmlns="http://www.w3.org/2000/svg" xmlns:xlink="http://www.w3.org/1999/xlink" x="0px" y="0px"
	 width="792px" height="612px" viewBox="0 0 792 612" enable-background="new 0 0 792 612" xml:space="preserve">
<rect x="320.001" y="359.681" width="151.713" height="15.211"/>
<g>
	<defs>
		<rect id="SVGID_1_" x="268.038" y="62.663" width="256.164" height="487.845"/>
	</defs>
	<clipPath id="SVGID_2_">
		<use xlink:href="#SVGID_1_"  overflow="visible"/>
	</clipPath>
	<path clip-path="url(#SVGID_2_)" d="M330.196,437.293c0-8.866,5.673-16.076,14.773-16.076c7.209,0,11.996,4.137,13.062,10.638
		h-4.846c-0.711-4.137-3.605-6.677-8.216-6.677c-6.501,0-9.869,5.377-9.869,12.115c0,6.733,3.368,12.055,9.869,12.055
		c4.966,0,7.919-2.839,8.331-7.562h4.73c-0.652,7.325-5.438,11.579-13.062,11.579C335.869,453.364,330.196,446.155,330.196,437.293"
		/>
</g>
<rect x="362.757" y="410.285" width="4.785" height="42.252"/>
<g>
	<defs>
		<rect id="SVGID_3_" x="268.038" y="62.663" width="256.164" height="487.845"/>
	</defs>
	<clipPath id="SVGID_4_">
		<use xlink:href="#SVGID_3_"  overflow="visible"/>
	</clipPath>
	<path clip-path="url(#SVGID_4_)" d="M377.528,434.809h18.379c-0.295-6.087-3.428-9.809-8.923-9.809
		C381.312,425,378.237,429.255,377.528,434.809 M372.506,437.293c0-8.866,5.793-16.076,14.478-16.076
		c9.158,0,14.064,7.092,14.064,17.196h-23.637c0.354,6.205,3.722,10.935,9.87,10.935c4.433,0,7.385-2.129,8.451-6.265h4.67
		c-1.421,6.559-6.208,10.281-13.121,10.281C377.942,453.364,372.506,446.155,372.506,437.293"/>
	<path clip-path="url(#SVGID_4_)" d="M424.567,441.25v-5.199c-1.595,1.006-4.371,1.772-6.974,2.245
		c-4.785,0.886-8.626,1.715-8.626,6.204c0,4.08,3.188,4.964,6.323,4.964C421.672,449.464,424.567,444.797,424.567,441.25
		 M424.449,448.284h-0.06c-1.833,2.364-4.962,4.845-10.163,4.845c-5.791,0-10.342-2.72-10.342-8.511
		c0-7.21,5.675-8.688,13.295-9.868c4.314-0.649,7.329-1.062,7.329-4.374c0-3.426-2.483-5.377-6.855-5.377
		c-4.965,0-7.446,2.127-7.623,6.736h-4.607c0.175-5.909,4.075-10.341,12.171-10.341c6.501,0,11.287,2.422,11.287,9.69v14.538
		c0,2.482,0.592,3.841,3.251,3.249h0.178v3.487c-0.591,0.237-1.357,0.472-2.6,0.472
		C426.575,452.831,424.922,451.414,424.449,448.284"/>
	<path clip-path="url(#SVGID_4_)" d="M440.641,426.004h0.119c2.188-2.896,5.261-4.727,9.692-4.727
		c6.379,0,10.282,3.485,10.282,9.808v21.453h-4.787V431.5c0-3.958-2.6-6.207-6.916-6.207c-4.842,0-8.391,3.429-8.391,8.452v18.793
		h-4.785v-30.552h4.785V426.004z"/>
	<path clip-path="url(#SVGID_4_)" d="M352.316,482.7c-0.354-3.605-2.599-5.909-5.729-5.909c-3.665,0-5.554,2.304-6.205,5.909
		H352.316z M330.866,485.891c0-9.04,6.325-15.954,15.543-15.954c4.314,0,7.74,1.418,10.339,3.782
		c3.606,3.31,5.379,8.568,5.32,14.715h-21.745c0.589,4.078,2.833,6.617,6.793,6.617c2.541,0,4.197-1.121,5.023-3.013h9.398
		c-0.653,2.719-2.423,5.319-5.085,7.15c-2.54,1.772-5.612,2.777-9.454,2.777C337.012,501.966,330.866,495.051,330.866,485.891"/>
	<path clip-path="url(#SVGID_4_)" d="M365.316,470.822h9.279v4.136h0.179c2.246-3.25,5.141-5.021,9.336-5.021
		c6.62,0,10.52,4.727,10.52,11.465v19.678h-9.632V483.35c0-3.19-1.595-5.378-4.729-5.378c-3.19,0-5.316,2.662-5.316,6.385v16.723
		h-9.636V470.822z"/>
	<path clip-path="url(#SVGID_4_)" d="M419.095,482.7c-0.354-3.605-2.601-5.909-5.734-5.909c-3.661,0-5.554,2.304-6.202,5.909
		H419.095z M397.644,485.891c0-9.04,6.325-15.954,15.541-15.954c4.315,0,7.743,1.418,10.343,3.782
		c3.604,3.31,5.378,8.568,5.316,14.715h-21.747c0.592,4.078,2.839,6.617,6.799,6.617c2.54,0,4.193-1.121,5.022-3.013h9.396
		c-0.65,2.719-2.424,5.319-5.082,7.15c-2.543,1.772-5.613,2.777-9.455,2.777C403.79,501.966,397.644,495.051,397.644,485.891"/>
	<path clip-path="url(#SVGID_4_)" d="M432.094,470.822h9.221v4.729h0.175c2.129-3.604,4.61-5.2,8.274-5.2
		c0.887,0,1.477,0.059,1.893,0.236v8.271h-0.237c-5.909-0.824-9.692,2.071-9.692,8.629v13.593h-9.633V470.822z"/>
	<path clip-path="url(#SVGID_4_)" d="M474.285,484.71c0-4.076-2.125-7.504-6.146-7.504c-3.605,0-5.968,2.953-5.968,7.563
		c0,4.549,2.362,7.505,5.968,7.505C472.336,492.274,474.285,488.963,474.285,484.71 M453.426,501.789h9.336
		c0.532,1.594,2.127,2.955,5.319,2.955c4.079,0,5.792-2.131,5.792-5.793v-3.014h-0.236c-1.771,2.009-4.077,3.488-7.741,3.488
		c-6.794,0-13.119-5.084-13.119-14.362c0-8.864,5.201-15.127,12.705-15.127c4.02,0,6.735,1.597,8.508,4.135h0.12v-3.249h9.218
		v27.302c0,4.552-1.596,7.859-4.019,10.048c-2.658,2.361-6.618,3.367-11.11,3.367C459.867,511.539,454.373,508.11,453.426,501.789"
		/>
	<path clip-path="url(#SVGID_4_)" d="M488.943,503.561h3.308c2.834,0,3.958-1.122,3.958-3.191c0-1.299-0.59-3.071-1.831-6.263
		l-8.922-23.284h10.163l4.078,12.883c0.945,2.955,1.888,6.974,1.888,6.974h0.122c0,0,0.825-4.019,1.772-6.974l3.959-12.883h9.631
		l-10.458,30.671c-2.424,7.091-5.32,9.573-11.404,9.573h-6.264V503.561z"/>
	<path clip-path="url(#SVGID_4_)" d="M331.221,519.07h4.432v-9.633h4.787v9.633h5.91v3.899h-5.91v19.855
		c0,2.127,1.124,2.837,3.072,2.837c0.946,0,2.009-0.237,2.542-0.415h0.176v4.137c-1.122,0.237-2.421,0.413-3.84,0.413
		c-3.901,0-6.737-1.594-6.737-5.909V522.97h-4.432V519.07z"/>
	<path clip-path="url(#SVGID_4_)" d="M356.099,524.15h0.12c1.831-2.954,5.021-5.435,9.098-5.435c0.889,0,1.362,0.117,1.951,0.354
		v4.609h-0.177c-0.708-0.239-1.184-0.295-2.128-0.295c-4.728,0-8.864,3.545-8.864,9.274v16.962h-4.785V519.07h4.785V524.15z"/>
	<path clip-path="url(#SVGID_4_)" d="M391.023,549.621v-4.197h-0.12c-2.184,2.956-4.786,4.907-9.218,4.907
		c-6.266,0-10.281-3.784-10.281-10.105V519.07h4.787v21.037c0,3.96,2.541,6.264,6.853,6.264c4.846,0,7.979-3.667,7.979-8.512V519.07
		h4.786v30.551H391.023z"/>
	<path clip-path="url(#SVGID_4_)" d="M400.359,539.693h4.908c0.646,5.318,4.192,6.796,8.743,6.796c5.023,0,7.091-2.187,7.091-5.023
		c0-3.428-2.362-4.314-7.977-5.494c-6.028-1.242-11.405-2.483-11.405-9.159c0-5.084,3.9-8.394,10.991-8.394
		c7.564,0,11.287,3.604,11.996,9.573h-4.903c-0.476-4.018-2.661-5.791-7.211-5.791c-4.373,0-6.146,1.949-6.146,4.374
		c0,3.31,2.956,3.958,8.212,5.021c6.146,1.242,11.288,2.601,11.288,9.634c0,6.145-5.02,9.277-12.056,9.277
		C405.501,550.508,400.832,546.547,400.359,539.693"/>
	<path clip-path="url(#SVGID_4_)" d="M428.017,519.07h4.43v-9.633h4.789v9.633h5.908v3.899h-5.908v19.855
		c0,2.127,1.12,2.837,3.072,2.837c0.942,0,2.007-0.237,2.539-0.415h0.178v4.137c-1.122,0.237-2.423,0.413-3.84,0.413
		c-3.902,0-6.738-1.594-6.738-5.909V522.97h-4.43V519.07z"/>
	<path clip-path="url(#SVGID_4_)" d="M512.372,92.815c-0.126,0.581-0.353,1.287-0.6,1.985c-0.491,1.427-1.081,2.911-1.719,4.384
		c-1.048,2.375-2.142,4.752-3.233,7.134c0.014-0.189,0.05-0.363,0.064-0.561c0.088-2.228-0.107-3.958-0.502-5.87
		c-0.784-3.742-2.371-7.103-4.319-10.096c-1.965-2.991-4.271-5.647-6.878-7.968c-2.643-2.319-5.396-4.379-8.859-5.964
		c-1.792-0.873-4.145-1.395-5.939-1.438c-1.879-0.116-3.615-0.012-5.299,0.13c-3.367,0.314-6.57,0.851-9.713,1.484
		c-6.269,1.236-12.455,2.808-18.385,3.35c-5.984,0.298-12.51,0-18.766-0.049l-18.979-0.281l-12.439-0.112
		c0.002-0.002-0.054-0.005-0.051-0.009c0.234-0.293,0.593-0.502,0.86-0.613c0-0.001,0-0.002,0-0.002
		c0.015-0.006,0.027-0.01,0.041-0.014c0.128-0.052,0.218-0.078,0.218-0.078l0.001,0.001c3.543-1.248,7.425-1.713,11.285-1.883
		l14.274,0.092l17.686,0.201l4.995,0.144c1.658,0.034,3.255,0.165,5.169,0.034c3.512-0.224,6.839-0.721,10.179-1.243l19.704-3.267
		c3.261-0.493,6.511-1.014,9.656-1.296c1.546-0.13,3.102-0.22,4.414-0.143c0.299,0.027,0.617,0.05,0.832,0.081
		c0.047,0.016,0.329,0.067,0.18,0.025l0.606,0.157c0.456,0.144,0.969,0.341,1.561,0.626c4.743,2.366,9.302,7.033,11.947,11.968
		c1.308,2.509,2.134,5.163,2.159,7.639C512.528,92.044,512.491,92.338,512.372,92.815 M498.548,105.172
		c-0.026,0.818-0.416,2.283-0.842,3.652c-1.405,4.104-3.029,8.284-4.691,12.479c0.107-0.848,0.195-1.712,0.24-2.615
		c0.088-2.306-0.257-3.814-0.646-5.615c-0.411-1.721-0.99-3.364-1.685-4.937c-1.364-3.13-3.126-5.979-5.108-8.587
		c-1.965-2.627-4.193-5.008-6.632-7.164c-2.479-2.156-4.974-4.159-8.295-5.83c-2.084-1.056-3.969-1.291-5.688-1.44
		c-1.71-0.143-3.318-0.152-4.908-0.124c-3.152,0.07-6.188,0.271-9.195,0.508c-6.073,0.48-11.744,1.163-17.579,0.575l-36.032-2.237
		l-5.732-0.278c0,0,2.052-2.218,3.192-2.864c0.31-0.122,1.926-0.062,2.815-0.019l11.37,0.8c12.689,0.92,25.021,2.134,38.029,2.891
		c6.719-0.11,12.938-1.115,19.199-1.645c3.101-0.273,6.171-0.565,9.113-0.597c1.462-0.012,2.91,0.029,4.178,0.229
		c1.352,0.202,2.124,0.403,3.162,0.955c4.56,2.456,9.152,6.622,12.171,11.13c1.521,2.282,2.671,4.732,3.205,7.196
		C498.477,102.803,498.58,104.24,498.548,105.172 M484.939,118.397c-0.087,2.311-0.713,5.213-1.402,7.972
		c-0.692,2.797-1.494,5.633-2.346,8.47c-1.621,5.365-3.424,10.733-5.237,16.116c0.329-1.457,0.686-2.939,1.009-4.421
		c0.615-2.792,1.205-5.599,1.682-8.497c0.386-2.988,0.97-5.673,0.561-9.638c-0.585-3.721-2.018-6.645-3.552-9.362
		c-1.551-2.699-3.298-5.159-5.159-7.495c-1.844-2.349-3.846-4.523-5.956-6.611c-2.147-2.116-4.215-4.043-7.049-5.964
		c-1.062-0.714-1.663-0.926-2.448-1.289c-0.729-0.352-1.494-0.608-2.249-0.874c-1.536-0.504-3.063-0.891-4.58-1.184
		c-3.032-0.558-6.012-0.806-8.886-0.958c-2.884-0.13-5.684-0.16-8.36-0.347c-2.546-0.195-5.52-0.688-8.299-1.021
		c-11.456-1.36-22.874-2.942-34.299-4.412c0.453-1.085,0.886-1.997,1.311-2.684c0.137-0.207,0.257-0.372,0.387-0.55l7.167,0.879
		c11.923,1.557,23.828,3.206,35.717,4.962c2.877,0.47,6.284,0.834,9.292,0.917c3.09,0.109,6.135,0.104,9.128,0.127
		c2.993,0.019,5.96-0.018,8.824,0.129c2.753,0.135,5.808,0.482,7.064,1.236c2.032,1.068,4.286,2.846,6.277,4.711
		c2.003,1.867,3.867,3.935,5.535,6.083c1.667,2.157,3.103,4.467,4.169,6.827c0.522,1.172,0.949,2.38,1.246,3.572
		C484.776,116.201,485.021,117.689,484.939,118.397 M479.663,235.554c-2.085-2.527-4.217-5.016-6.387-7.455
		c-3.563-4.06-7.244-7.999-10.849-11.931l-1.318-1.465c-0.383-0.432-0.925-1.073-0.987-1.19c0.003-0.005-0.168-0.523-0.221-0.983
		c-0.06-0.531-0.123-1.125-0.138-1.733c-0.025-0.752,0-1.546,0-2.332c0.138,0.287,0.314,0.584,0.524,0.902l2.766,3.305
		l10.817,12.988c1.997,2.484,3.999,4.973,5.987,7.468C479.896,233.933,479.754,234.729,479.663,235.554 M478.086,241.134
		c-2.844-2.747-5.744-5.444-8.727-8.009l-11.737-10.119c-0.261-0.232-0.576-0.508-0.881-0.776c-0.354-0.436-1.234-1.568-1.608-2.519
		c-0.083-0.306-0.16-0.628-0.232-0.958c-0.247-1.564-0.462-4.564-0.289-4.6c0.143-0.032,0.274,0.168,0.436,0.584
		c0.043,0.131,0.092,0.269,0.15,0.413c0.014,0.042,0.028,0.087,0.045,0.131c0.018,0.054,0.039,0.093,0.062,0.123
		c0.124,0.274,0.279,0.57,0.485,0.9c0.713,0.978,1.109,1.283,1.633,1.842l1.448,1.436l11.612,11.175
		c2.812,2.728,5.573,5.494,8.337,8.26C478.588,239.784,478.342,240.487,478.086,241.134 M476.968,244.067
		c-0.222,0.518-0.432,1.008-0.642,1.487c-3.487-2.558-7.023-5.015-10.66-7.304l-12.685-7.946l-1.452-0.954
		c-0.39-0.276-0.092-0.086-0.263-0.253c-0.087-0.103-0.195-0.272-0.303-0.458c-0.467-0.806-0.908-1.903-1.283-2.988
		c-0.765-2.23-1.386-4.592-1.962-6.962c-2.241-9.558-3.84-19.408-5.385-29.222l-2.396-14.765c-0.442-2.556-0.714-4.743-1.422-7.749
		c-0.976-3.196-2.31-5.408-3.649-7.74c-2.72-4.501-5.718-8.626-8.781-12.69c-1.507-2.023-3.104-3.99-4.728-5.936l-2.431-2.905
		c-0.796-0.963-1.77-2-2.146-2.565c-1.091-1.606-2.203-3.817-3.319-5.979c-1.137-2.182-2.24-4.459-3.561-6.78
		c-0.668-1.161-1.342-2.343-2.311-3.568c-0.501-0.632-0.926-1.166-1.827-1.96c-0.667-0.569-1.263-0.931-1.854-1.313
		c-2.343-1.432-4.615-2.555-6.915-3.668c-5.572-2.628-11.215-4.975-16.903-7.16c0.372-0.477,0.75-0.956,1.125-1.429
		c0,0,0.218-0.313,0.602-0.864c0.072-0.093,0.159-0.239,0.231-0.353c6.235,2.403,12.402,4.931,18.4,7.735
		c2.303,1.09,4.576,2.229,6.78,3.436c2.149,1.186,4.386,2.52,5.928,3.798c3.624,3.038,7.065,6.907,10.479,10.584
		c6.689,7.48,13.518,15.264,18.134,23.633c1.094,2.111,1.986,4.104,2.353,6.085c0.393,2.067,0.646,4.728,0.855,7.196
		c0.407,5.042,0.658,10.214,0.961,15.377c0.682,10.307,1.215,20.663,2.5,31.107c0.337,2.617,0.713,5.242,1.356,7.932
		c0.352,1.355,0.655,2.69,1.48,4.279c0.248,0.411,0.475,0.823,0.979,1.326c0.408,0.409,0.547,0.497,0.878,0.776l1.568,1.255
		l12.472,9.261c3.351,2.541,6.702,5.059,9.995,7.65C476.996,243.916,476.905,244.151,476.968,244.067 M474.527,250.111
		c-4.198-2.209-8.459-4.323-12.776-6.274l-13.456-6.012l-1.621-0.756c-0.262-0.127-0.58-0.303-0.524-0.29
		c-0.083-0.049-0.206-0.168-0.338-0.314c-0.571-0.606-1.193-1.57-1.737-2.539c-1.103-1.979-2.079-4.175-2.993-6.386
		c-3.618-8.938-6.519-18.306-9.41-27.652l-4.417-14.081c-0.761-2.358-1.506-4.67-2.429-7.171c-0.947-2.64-2.433-5.116-3.894-7.257
		c-5.944-8.56-12.844-15.497-17.026-23.318c-1.853-3.59-2.86-8.119-3.809-12.929c-0.503-2.435-0.965-4.906-2.002-7.689
		c-0.495-1.306-1.462-3.206-2.827-4.325c-1.122-1-2.158-1.713-3.228-2.464c-5.605-3.747-11.341-7.006-17.182-10.03
		c0.661-0.701,1.347-1.391,1.992-2.097c0.12-0.123,0.232-0.272,0.351-0.398c5.768,2.841,11.451,5.841,16.916,9.072
		c2.083,1.263,4.181,2.582,5.971,3.923c0.439,0.333,0.882,0.672,1.121,0.963c0.014,0.044,0.384,0.494,0.603,0.875
		c0.505,0.806,1.035,1.805,1.534,2.841c1.003,2.121,1.938,4.392,2.93,6.709c1.014,2.348,2,4.682,3.694,7.25l9.399,11.938
		c2.989,3.868,5.91,7.816,8.404,11.813c1.195,1.958,2.365,4.116,2.873,5.7c0.53,1.837,1.033,4.581,1.522,6.917l3.031,14.688
		c2.188,9.781,4.39,19.559,7.306,29.295c0.753,2.43,1.534,4.857,2.562,7.299c0.528,1.24,1.068,2.45,1.934,3.765
		c0.223,0.332,0.464,0.679,0.793,1.029c0.245,0.314,1.036,0.913,1.179,0.958l1.732,0.994l13.269,6.984
		c3.85,2.097,7.726,4.167,11.506,6.402C475.062,248.554,474.733,249.422,474.527,250.111 M473.568,252.725
		c-0.272,0.533-0.611,1.127-0.979,1.751c-0.233-0.077-0.459-0.172-0.689-0.252c-4.732-1.517-9.499-2.921-14.271-4.207
		c-4.765-1.303-9.614-2.536-14.106-4.093l-0.801-0.302c-0.288-0.114-0.57-0.233-0.625-0.286c-0.3-0.162-0.688-0.439-1.064-0.774
		c-0.744-0.661-1.51-1.54-2.24-2.427c-1.436-1.809-2.785-3.814-4.08-5.844c-5.156-8.202-9.634-17-13.978-25.796l-6.458-13.277
		c-0.999-2.136-2.271-4.72-3.621-6.889c-1.337-2.215-2.764-4.317-4.212-6.377c-2.876-4.139-5.821-8.132-8.734-12.105
		c-2.828-3.926-6.086-7.984-8.114-11.585c-0.647-1.117-0.936-3.166-1.073-5.391c-0.089-2.232-0.01-4.626,0.092-7.075
		c0.122-2.447,0.22-4.967,0.171-7.601c-0.038-1.338-0.09-2.685-0.309-4.123c-0.231-1.482-0.416-2.846-1.507-4.805
		c-0.425-0.701-0.306-0.458-0.808-1.123l-0.706-0.76l-1.357-1.384l-2.759-2.613c-1.852-1.702-3.744-3.371-5.663-4.976
		c-1.92-1.615-3.906-3.152-5.904-4.667c0.767-0.708,1.515-1.422,2.247-2.143c5.714,3.675,11.275,7.589,16.388,11.795
		c0.88,0.766,1.791,1.556,2.428,2.268c0.478,0.52,0.58,0.952,0.893,1.958c0.514,1.88,0.743,4.292,1.063,6.702
		c0.655,4.823,1.112,10.206,3.73,15.436c4.817,9.782,12.354,16.721,17.597,24.287c1.319,1.892,2.367,3.673,3.187,5.617
		c0.876,2.075,1.723,4.417,2.569,6.691c1.704,4.575,3.296,9.231,5.067,13.835c3.511,9.217,7.009,18.452,11.348,27.508
		c1.106,2.258,2.262,4.497,3.688,6.73c0.749,1.115,1.489,2.218,2.673,3.336c0.319,0.277,0.67,0.569,1.106,0.831
		c0.595,0.326,0.832,0.407,1.124,0.53l1.767,0.681l13.885,4.997c4.513,1.658,9.056,3.274,13.461,5.12
		C473.855,252.17,473.717,252.431,473.568,252.725 M470.329,258.234c-0.601-0.133-1.207-0.283-1.807-0.39
		c-5.021-0.96-10.049-1.655-15.048-2.24c-4.985-0.627-10.026-1.184-14.714-2.283c-0.521-0.11-1.266-0.318-1.472-0.399
		c-0.354-0.193-0.771-0.405-1.236-0.734c-0.879-0.591-1.783-1.352-2.658-2.151c-1.771-1.612-3.451-3.373-5.125-5.209
		c-6.599-7.357-12.666-15.373-18.613-23.425c-6.038-8-11.788-16.232-17.653-24.368c-2.892-4.083-5.764-8.204-8.571-12.343
		l-4.21-6.168l-2.019-3.08c-0.643-1.015-1.321-2.073-1.575-2.683c-0.518-1.194-0.669-3.273-0.537-5.451
		c0.16-2.214,0.581-4.576,1.092-6.956c0.978-4.836,2.37-9.672,2.714-15.413c0.021-1.529,0.059-2.854-0.519-4.916
		c-0.177-0.52-0.132-0.395-0.457-1.172c-0.218-0.457-0.424-0.784-0.625-1.118c-0.405-0.648-0.801-1.192-1.202-1.733
		c-1.615-2.144-3.303-4.077-5.018-5.995c-2.726-3.032-5.591-5.91-8.521-8.714c1.424-0.89,2.797-1.833,4.073-2.85
		c1.978,1.787,3.93,3.601,5.808,5.49c1.709,1.736,3.381,3.512,5.014,5.303l2.382,2.748l1.134,1.361l0.487,0.647
		c-0.146-0.167,0.383,0.558,0.213,0.421c0.076,0.248,0.344,1.359,0.356,2.322c0.038,1.031-0.009,2.153-0.086,3.3
		c-0.163,2.3-0.5,4.715-0.754,7.202c-0.274,2.458-0.529,5.009-0.592,7.728c-0.028,2.678,0,5.741,1.664,9.057
		c1.377,2.657,2.798,4.661,4.234,6.785c1.452,2.079,2.889,4.11,4.401,6.086c2.98,3.968,5.966,7.877,8.78,11.833
		c1.431,1.974,2.775,3.965,4.055,5.934c1.345,2,2.34,3.792,3.521,6.101c2.351,4.381,4.671,8.783,7.146,13.094
		c4.964,8.625,10.036,17.207,15.941,25.405c1.508,2.056,3.053,4.066,4.821,6.015c0.908,0.956,1.823,1.913,2.975,2.813
		c0.59,0.455,1.211,0.899,2.038,1.28c0.497,0.216,0.805,0.299,1.088,0.394l0.958,0.275c4.98,1.319,9.822,2.147,14.676,3.101
		c4.87,0.94,9.736,1.76,14.541,2.846c0.078,0.013,0.143,0.034,0.222,0.048C471.213,256.751,470.764,257.485,470.329,258.234
		 M469.025,260.379c-0.067,0.063-0.124,0.13-0.195,0.203c-0.385,0.407-0.761,0.825-1.14,1.246c-0.894-0.084-1.792-0.177-2.69-0.216
		c-5.312-0.246-10.611-0.121-15.857,0.086c-2.607,0.07-5.222,0.154-7.792,0.136c-2.584-0.03-5.098-0.09-7.209-0.69
		c-4.198-1.487-8.497-4.813-12.453-7.946c-8.005-6.482-15.406-13.834-22.628-21.266c-3.61-3.727-7.154-7.536-10.621-11.406
		c-3.494-3.826-6.927-7.72-10.231-11.686c-3.28-3.998-6.52-7.997-9.562-12.112c-1.514-2.054-2.967-4.141-4.317-6.258
		c-0.69-1.033-1.321-2.119-1.944-3.182l-0.905-1.594l-0.235-0.432c-0.059-0.102-0.015-0.077-0.053-0.13
		c-0.024-0.026-0.077-0.117-0.093-0.258c-0.336-1.121-0.032-3.666,0.513-5.937c0.573-2.345,1.336-4.763,2.135-7.22
		c1.563-4.936,3.398-9.874,4.791-15.193c0.672-2.696,1.341-5.396,1.183-8.714c-0.054-0.862-0.124-1.607-0.564-2.835
		c-0.244-0.667-0.366-0.769-0.536-1.108l-0.057-0.104l-0.158-0.281l-0.036-0.056l-0.139-0.209l-0.289-0.405l-2.305-3.244
		c-3.107-4.3-6.295-8.497-9.583-12.621c-0.438-0.548-0.893-1.09-1.336-1.628c1.302-0.787,2.616-1.582,3.929-2.385
		c2.932,3.374,5.79,6.81,8.483,10.341c1.49,1.975,2.954,3.982,4.212,5.982c0.308,0.5,0.608,1.001,0.835,1.447
		c0.279,0.577,0.224,0.496,0.403,1.184c0.027,0.372,0.09,1.618-0.066,2.593c-0.576,4.342-2.417,9.135-3.696,14.107
		c-0.673,2.513-1.311,5.1-1.672,7.902c-0.32,2.806-0.525,5.935,0.851,9.456c0.734,1.703,1.463,2.769,2.12,3.912l2.073,3.269
		c1.384,2.162,2.782,4.294,4.231,6.391c2.896,4.169,5.853,8.284,8.818,12.368c12.035,16.333,24.608,32.202,39.106,46.739
		c1.861,1.8,3.748,3.546,5.827,5.211c1.048,0.844,2.135,1.642,3.393,2.385c0.601,0.374,1.312,0.718,2.094,1.027
		c1.001,0.321,1.493,0.355,2.212,0.506c5.232,0.806,10.262,0.957,15.314,1.204c5.046,0.268,10.066,0.343,15.058,0.785
		c0.359,0.033,0.718,0.097,1.088,0.135C469.226,260.048,469.127,260.21,469.025,260.379 M464.446,265.804
		c-0.135,0.206-0.242,0.374-0.353,0.548c-0.077,0.081-0.159,0.152-0.236,0.233c-0.852,0.056-1.71,0.095-2.559,0.183
		c-5.541,0.521-11.048,1.262-16.51,1.956c-5.365,0.615-11.093,1.393-15.84,0.597c-0.535-0.119-1.171-0.311-1.413-0.432
		c-0.025-0.003-0.257-0.146-0.395-0.205l-0.345-0.206l-0.887-0.542l-3.521-2.132l-7.015-4.369
		c-9.319-5.867-18.427-12.056-27.304-18.455c-4.424-3.188-8.8-6.467-12.868-9.923c-2.058-1.7-3.943-3.396-5.728-5.311
		c-1.845-1.934-3.628-3.926-5.341-5.972c-3.414-4.109-6.631-8.418-9.706-12.871c-1.531-2.232-3.037-4.507-4.496-6.79l-1.11-1.744
		l-0.554-0.876c-0.128-0.23-0.227-0.348-0.307-0.546c-0.363-0.724-0.613-1.527-0.726-2.484c-0.4-3.934,1.533-9.108,3.671-13.906
		c1.846-4.25,3.927-8.549,5.862-13.06c-0.936,2.409-1.826,4.873-2.589,7.503c-0.686,2.781-1.603,5.526-0.941,9.609
		c0.077,0.864,0.852,2.529,1.014,2.829l0.971,1.88c0.685,1.206,1.375,2.41,2.109,3.567c1.438,2.331,2.958,4.551,4.527,6.776
		c3.124,4.37,6.434,8.577,9.915,12.603c6.894,8.128,14.259,15.778,22.024,23.002c7.762,7.246,15.865,14.11,24.6,20.313
		c2.191,1.54,4.439,3.036,6.803,4.397c2.394,1.35,4.795,2.679,7.822,3.447c3.008,0.599,5.805,0.382,8.449,0.232
		c2.674-0.171,5.3-0.466,7.915-0.751c5.222-0.53,10.412-1.259,15.604-1.487c0.449-0.023,0.902-0.019,1.36-0.028
		C465.626,264.256,464.97,265.087,464.446,265.804 M460.694,270.824c-0.132,0.235-0.248,0.479-0.371,0.72
		c-1.073,0.148-2.151,0.295-3.215,0.472c-5.82,0.954-11.605,2.08-17.354,3.273c-2.876,0.579-5.751,1.184-8.594,1.675
		c-1.418,0.258-2.891,0.509-4.134,0.585c-0.966,0.026-2.427-0.238-3.697-0.538c-5.32-1.361-10.63-3.856-15.808-6.377
		c-10.391-5.148-20.429-11.196-30.661-16.969c-5.068-2.906-10.119-5.821-14.84-8.932c-4.749-3.089-8.934-6.472-12.485-10.641
		c-3.561-4.156-6.797-8.894-9.981-13.751l-4.724-7.358l-1.088-1.75c-0.159-0.256-0.297-0.555-0.373-0.931
		c-0.189-0.73-0.252-1.747-0.115-2.885c0.58-4.668,3.131-10.045,5.674-15.118c0.297-0.611,0.633-1.226,0.945-1.854
		c-0.507,2.048-0.857,4.258-0.722,6.677c0.123,1.803,0.543,3.727,1.421,5.483c0.201,0.432,0.483,0.894,0.702,1.257l0.537,0.889
		l1.085,1.765c1.496,2.395,3.002,4.753,4.577,7.094c3.122,4.704,6.488,9.3,10.238,13.615c1.849,2.16,3.8,4.271,5.793,6.312
		c2.027,2.098,4.286,4.076,6.51,5.861c4.505,3.549,9.128,6.705,13.798,9.788c9.35,6.112,19.015,11.65,28.738,17.02l7.348,3.95
		l3.689,1.933l0.93,0.488l0.538,0.28l0.555,0.236c1.027,0.408,1.768,0.535,2.599,0.664c3.187,0.352,6.004,0.028,8.827-0.337
		c2.804-0.381,5.556-0.896,8.28-1.429c5.464-1.049,10.824-2.379,16.242-3.373c0.229-0.042,0.458-0.079,0.688-0.116
		C461.69,269.231,461.162,269.992,460.694,270.824 M458.38,276.46c-1.734,0.425-3.468,0.86-5.182,1.334l-18.143,5.026
		c-3.012,0.797-6.046,1.562-9.032,2.117c-1.49,0.267-3.03,0.529-4.288,0.541c-1.248-0.012-2.736-0.293-4.174-0.611
		c-5.868-1.329-11.798-3.462-17.615-5.614c-11.654-4.384-23.104-9.454-34.413-14.695c-5.636-2.616-11.241-5.341-16.632-8.277
		c-2.639-1.423-5.425-2.967-7.474-4.506c-2.117-1.665-4.277-3.786-6.269-5.965c-3.997-4.468-7.726-9.349-11.2-14.34
		c-1.679-2.455-3.475-5.234-4.629-7.445c-0.209-0.411-0.214-0.457-0.283-0.635c-0.048-0.165-0.104-0.346-0.139-0.547
		c-0.074-0.414-0.114-0.89-0.079-1.431c0.052-1.102,0.264-2.363,0.636-3.677c1.306-4.556,3.736-9.249,6.297-13.883
		c-0.194,0.808-0.38,1.632-0.541,2.482c-0.24,1.78-0.357,3.761,0.134,5.884c0.237,1.059,0.646,2.124,1.232,3.145l1.223,2.009
		l4.696,7.525c3.197,4.996,6.506,10.067,10.701,14.753c4.118,4.753,9.217,8.751,14.368,11.979
		c5.165,3.247,10.442,5.951,15.666,8.701c10.451,5.38,20.984,10.707,31.932,15.408c5.514,2.292,11.041,4.552,17.216,5.771
		c1.6,0.242,3.078,0.477,5.029,0.316c1.684-0.234,3.097-0.596,4.558-0.941c2.895-0.722,5.734-1.514,8.562-2.3
		c5.679-1.54,11.294-3.219,16.968-4.685c0.741-0.189,1.366-0.328,1.942-0.448C459.045,274.448,458.702,275.455,458.38,276.46
		 M456.782,281.296c-2.315,0.796-4.594,1.603-7.051,2.465l-18.925,6.641c-3.157,1.052-6.33,2.094-9.472,2.888
		c-0.76,0.19-1.57,0.369-2.239,0.47c-0.633,0.081-1.375,0.076-2.131,0.062c-1.509-0.055-3.104-0.257-4.701-0.51
		c-6.412-1.052-12.847-2.799-19.208-4.649c-12.755-3.727-25.352-8.192-37.829-12.824c-6.222-2.323-12.435-4.738-18.5-7.319
		l-4.506-1.978l-2.224-1.024c-0.678-0.307-1.22-0.599-1.831-0.96c-2.396-1.452-4.69-3.488-6.826-5.714
		c-4.297-4.528-7.942-9.926-11.402-15.406c-1.668-2.684-3.445-5.763-4.775-8.304c-0.702-1.183-0.443-3.914,0.552-6.63
		c1.27-3.606,3.229-7.26,5.417-10.886c-0.251,1.074-0.451,2.17-0.527,3.367c-0.054,1.025-0.012,2.121,0.163,3.266
		c0.098,0.571,0.244,1.146,0.424,1.721c0.19,0.58,0.483,1.271,0.635,1.559c1.708,3.384,3.35,5.857,5.177,8.638
		c3.575,5.376,7.477,10.51,11.963,15.341c2.27,2.409,4.603,4.72,7.439,6.891c3.019,2.193,5.811,3.618,8.69,5.153
		c5.752,2.887,11.552,5.431,17.388,7.903c11.691,4.899,23.569,9.241,35.646,13.09c6.068,1.884,12.123,3.71,18.557,4.839
		c1.653,0.26,3.277,0.486,5.186,0.416c1.896-0.174,3.421-0.564,5.003-0.946c3.147-0.805,6.167-1.774,9.164-2.774
		c6-1.99,11.859-4.281,17.761-6.456l4.036-1.438C457.505,279.244,457.166,280.283,456.782,281.296 M453.856,286.495
		c-0.223,0.239-0.438,0.484-0.671,0.713c-8.66,4.029-18.178,8.406-32.037,12.948c-1.629,0.52-3.283,0.96-4.921,1.352
		c-1.722,0.427-2.913,0.569-4.615,0.476c-3.278-0.112-6.694-0.618-10.09-1.166c-6.792-1.139-13.58-2.611-20.352-4.189
		c-13.528-3.138-26.945-6.885-40.287-10.666c-6.661-1.944-13.312-3.997-19.748-6.232c-1.618-0.55-3.218-1.122-4.756-1.731
		c-1.472-0.581-3.114-1.273-3.995-1.886c-2.31-1.522-4.759-3.886-6.984-6.283c-4.464-4.871-8.569-10.338-11.797-15.973
		c-1.578-2.832-2.925-5.723-3.277-8.289c-0.078-0.388,0.138-1.918,0.597-3.205c0.477-1.364,1.124-2.804,1.82-4.261
		c1.145-2.275,2.47-4.534,3.85-6.79c0,0.099-0.033,0.179-0.039,0.29c-0.226,2.135-0.095,4.664,1.048,7.084
		c1.731,3.411,3.302,6.132,5.126,9.168c3.559,5.907,7.596,11.577,12.568,16.783c2.501,2.567,5.263,5.034,8.622,7.036
		c0.831,0.486,1.788,0.967,2.606,1.347l2.364,1.064c1.585,0.687,3.159,1.322,4.75,1.949c6.335,2.488,12.692,4.745,19.086,6.896
		c12.792,4.275,25.73,8.022,38.866,11.233c6.573,1.568,13.182,3.042,20.05,3.843c1.729,0.177,3.481,0.319,5.294,0.286
		c0.942-0.013,1.863-0.07,2.906-0.262c0.967-0.22,1.785-0.456,2.627-0.714c3.322-1.058,6.438-2.302,9.575-3.562
		c8.358-3.296,15.891-6.81,23.852-10.385C455.354,284.476,454.69,285.521,453.856,286.495 M445.031,293.801
		c-1.62,1.407-3.472,2.546-5.347,3.602c-1.145,0.714-1.914,1.116-2.233,1.273c-1.181,0.618-2.369,1.204-3.562,1.759
		c-2.548,1.255-10.423,4.625-10.423,4.625l-0.003-0.004c-1.448,0.65-2.925,1.237-4.424,1.714c-0.042,0.012-0.067,0.042-0.107,0.062
		c-2.442,0.832-4.896,1.604-7.368,2.151c-0.814,0.186-1.666,0.371-2.438,0.47c-0.711,0.063-1.506,0.11-2.347,0.123
		c-1.653-0.009-3.354-0.089-5.062-0.191c-13.759-1.079-27.578-3.657-41.294-6.265c-6.856-1.348-13.7-2.774-20.538-4.269
		c-6.834-1.438-13.649-2.946-20.434-4.572l-10.095-2.549c-3.286-0.872-6.78-1.791-9.544-2.873c-2.303-0.965-4.844-3.03-7.166-5.267
		c-2.341-2.267-4.549-4.776-6.576-7.402c-2.04-2.645-3.975-5.378-5.647-8.212c-1.639-2.785-3.131-5.776-3.798-8.441
		c-0.153-0.634-0.264-1.261-0.269-1.698c-0.005,0.062,0.012-0.902,0.032-0.915c0.021-0.191,0.081-0.532,0.129-0.841
		c0.256-1.307,0.731-2.727,1.33-4.171c1.158-2.688,2.67-5.443,4.316-8.14c-0.106,0.904-0.15,1.845-0.047,2.99
		c0.616,4.362,2.387,7.895,4.123,11.164c3.604,6.543,7.982,12.304,13.006,17.67c2.573,2.669,5.133,5.239,8.665,7.561
		c2.061,1.273,3.709,1.851,5.455,2.566c1.728,0.667,3.417,1.251,5.113,1.82c6.781,2.211,13.562,4.037,20.363,5.819
		c13.599,3.572,27.322,6.458,41.121,9.075c6.906,1.259,13.839,2.454,20.874,3.289c3.526,0.388,7.043,0.764,10.755,0.733
		c1.79,0.031,4.068-0.385,5.711-0.94c1.733-0.517,3.418-1.109,5.087-1.734c6.646-2.523,12.985-5.541,19.201-8.792
		c1.89-0.987,3.328-1.68,4.616-2.299C445.827,293.075,445.438,293.447,445.031,293.801 M328.336,160.301
		c0.016-0.362,0.043-0.722,0.08-1.088c0.181,2.137,0.373,4.266,0.621,6.408c0.208,1.677,0.418,3.371,0.696,5.08l0.05,0.306
		c-0.03-0.096,0.005,0.157,0.016,0.216c0.007,0.175,0.067,0.46,0.048,0.567c0,0.23,0,0.518-0.025,0.871
		c-0.048,0.66-0.147,1.334-0.337,2.042c-0.164,0.602-0.357,1.203-0.572,1.798c-0.044-0.768-0.09-1.538-0.134-2.31l-0.384-5.684
		c-0.091-1.877-0.062-3.701-0.104-5.556C328.274,162.024,328.254,161.083,328.336,160.301 M334.16,143.926
		c0.25,1.451,0.473,2.897,0.733,4.34l1.717,9.286l0.885,4.633c0.253,1.467,0.76,3.35,0.629,4.109
		c-0.111,2.358-1.274,5.199-2.574,7.833c-0.328,0.641-0.705,1.294-1.043,1.949c0.015-0.109,0.053-0.216,0.078-0.321
		c0.174-0.934,0.269-1.923,0.287-2.933c0.011-0.498-0.016-1.052-0.077-1.642c-0.032-0.322-0.081-0.449-0.111-0.685l-0.139-0.701
		c-0.343-1.59-0.653-3.22-0.945-4.849c-0.569-3.259-1.107-6.549-1.589-9.853c-0.267-1.771-0.502-3.55-0.744-5.333
		C332.129,147.81,333.118,145.866,334.16,143.926 M339.487,136.463c0.626,1.997,1.252,3.995,1.878,5.991l2.662,8.392l1.324,4.185
		c0.402,1.378,0.968,2.892,1.071,3.806c0.244,2.048-0.507,4.711-1.51,7.209c-0.705,1.758-1.551,3.517-2.463,5.243
		c0.407-1.538,0.707-3.179,0.715-4.997c-0.128-2.401-0.715-3.53-1.045-5.142l-1.183-4.563l-2.365-9.111l-1.91-7.572
		C337.526,138.7,338.459,137.549,339.487,136.463 M345.497,131.242c0.783,1.64,1.574,3.275,2.333,4.922
		c2.276,4.98,4.66,10.125,6.776,14.967c1.569,3.821-0.461,8.979-2.665,13.682c-0.493,0.99-0.996,1.979-1.507,2.987
		c0.883-2.936,1.769-6.07,1.162-9.809c-0.441-1.978-1.067-3.17-1.555-4.595l-1.588-4.118l-3.278-8.205
		c-0.963-2.418-1.969-4.807-2.962-7.205C343.257,132.956,344.351,132.076,345.497,131.242 M363.84,146.357l0.024,0.024
		C363.92,146.5,363.887,146.425,363.84,146.357 M351.612,127.2c0.453,0.664,0.914,1.327,1.36,1.994
		c2.875,4.357,5.7,8.759,8.463,13.183l2.024,3.332l0.247,0.402l0.052,0.095l0.046,0.111c0.107,0.267,0.361,0.714,0.273,0.686
		c-0.045,0.025,0.075,0.603,0.036,1.042c-0.036,1.943-0.714,4.4-1.503,6.722c-1.244,3.682-2.807,7.391-4.377,11.152
		c0.851-2.242,1.63-4.567,2.079-7.097c0.551-2.965,0.621-6.622-0.938-9.754c-2.636-5.12-5.221-9.864-8.003-14.711
		c-0.978-1.711-1.995-3.399-3.001-5.094C349.429,128.561,350.509,127.875,351.612,127.2 M385.338,96.149
		c8.444,2.399,16.849,4.924,25.134,7.781c5.041,1.731,10.055,3.569,14.928,5.617c2.406,1.026,4.814,2.086,7.074,3.22
		c2.392,1.18,3.807,2.122,5.646,3.935c3.615,3.412,7.104,7.365,10.314,11.364c3.196,3.998,6.256,8.29,8.14,12.509
		c0.453,0.996,0.824,2.172,0.945,2.816c0.166,0.98,0.181,2.091,0.194,3.372c-0.028,2.5-0.147,5.131-0.308,7.77
		c-0.317,5.271-0.769,10.616-1.221,15.958c-0.65,7.999-1.312,16.011-1.719,24.108c-0.021,0.206-0.038,0.452-0.049,0.744
		c-0.017,0.475-0.032,0.909-0.049,1.304c-0.016,0.374-0.03,0.747-0.046,1.118c-0.133,2.935-0.23,2.927-0.423,2.889
		c-0.044-0.009-0.093-0.462-0.146-1.198c-0.069-1.293-0.142-2.641-0.208-3.88c-0.09-2.046-0.174-4.292-0.23-5.89
		c-0.024-3.348-0.035-6.707-0.062-10.064c-0.062-5.182-0.154-10.363-0.385-15.621c-0.146-2.688-0.237-5.182-0.703-8.225
		c-0.523-3.126-1.803-5.904-3.05-8.392c-5.346-9.798-12.118-17.862-19.472-25.481c-3.748-3.767-7.587-7.3-12.104-10.615
		c-2.642-1.79-5.038-2.799-7.525-3.876c-2.461-1.044-4.928-1.966-7.406-2.865c-6.157-2.188-12.36-4.113-18.591-5.914
		C384.444,97.865,384.887,97.028,385.338,96.149 M464.145,205.555c-0.065-0.522-0.069-1.133-0.037-1.761
		c0.031-0.801,0.148-1.635,0.23-2.447l0.138,0.228l2.413,3.843l9.729,15.18l0.967,1.518c0.091,0.27,0.203,0.534,0.292,0.798
		c0.471,1.267,0.779,2.541,1.067,3.808c-0.74-1.069-1.464-2.165-2.229-3.229c-3.271-4.627-6.561-9.227-9.974-13.747l-2.48-3.329
		C464.358,206.542,464.183,206.069,464.145,205.555 M386.962,92.558c0.235-0.648,0.461-1.26,0.683-1.846l1.078,0.206
		c11.066,2.184,22.131,4.461,33.11,7.032c10.754,3.484,23.803,2.764,31.086,7.683c1.777,1.355,3.795,3.343,5.631,5.198
		c1.851,1.938,3.627,3.973,5.304,6.019c1.668,2.078,3.215,4.221,4.477,6.414c1.268,2.149,2.266,4.455,2.553,6.318
		c0.246,1.658-0.109,4.629-0.487,7.205c-0.371,2.677-0.844,5.411-1.354,8.142c-1.013,5.476-2.178,10.988-3.344,16.49
		c-0.684,3.462-1.396,6.921-2.084,10.392c0.026-0.185,0.056-0.367,0.072-0.549c0.637-5.352,1.268-10.697,1.775-16.116
		c0.258-2.727,0.481-5.449,0.513-8.322c0.012-1.404,0.016-2.981-0.23-4.649c-0.369-2.017-0.888-3.396-1.483-4.863
		c-2.475-5.61-5.74-10.111-9.174-14.546c-3.512-4.357-7.239-8.426-11.664-12.148c-0.566-0.457-1.15-0.914-1.77-1.357
		c-0.528-0.398-1.518-1.064-1.998-1.31c-1.535-0.871-2.763-1.389-4.113-1.947c-2.646-1.092-5.259-1.956-7.893-2.746
		c-5.252-1.572-10.492-2.921-15.751-4.218c-8.419-2.04-16.841-3.896-25.303-5.611C386.715,93.137,386.849,92.854,386.962,92.558
		 M524.145,88.181c-0.093-1.414-0.436-2.841-0.662-4.261c-0.359-1.383-0.909-2.71-1.37-4.063c-1.683-4.135-4.485-7.883-7.96-10.745
		c-7.981-6.749-14.353-6.223-20.972-6.441c-6.646-0.22-20.719,4.671-20.719,4.671h0.106c-4.06,1.075-8.091,2.157-12.132,3.133
		c-3.204,0.763-6.417,1.52-9.559,1.949c-1.387,0.225-3.128,0.22-4.791,0.294l-4.999,0.213l-19.979,0.963l-2.703,0.094
		c-0.306,0-1.34,0.026-1.565,0.026c-4.749,0.002-9.863-0.007-14.704,0.854c-5.918,0.833-10.829,3.659-13.634,5.618
		c-0.033,0.021-0.065,0.04-0.101,0.061c-0.003-0.002-1.026,0.694-1.932,1.48c-0.333,0.277-0.509,0.437-0.509,0.437l0.011,0.018
		c-0.21,0.205-0.399,0.406-0.546,0.597c-0.895,1.033-1.806,2.152-2.418,3.251c-0.112,0.173-0.202,0.335-0.308,0.507
		c-0.911,1.228-1.821,2.619-2.72,4.254c-0.005,0.013-0.012,0.023-0.021,0.036c-0.664,0.989-1.347,2.041-2.021,3.088
		c-0.526,0.698-0.986,1.316-1.365,1.82c-0.69,0.998-1.217,1.506-1.217,1.506c-1.5,1.825-2.77,3.691-4.534,5.491
		c-1.464,1.603-2.961,3.18-4.457,4.67c-3.056,3.029-5.225,5.266-9.094,7.687l-1.077,0.848c-6.229,3.9-13.16,7.491-19.239,12.935
		c-0.7,0.62-1.375,1.279-2.034,1.951c-0.658,0.484-1.24,0.909-1.726,1.255c-0.92,0.732-1.44,1.205-1.447,1.208l-2.438,2.391
		l-2.264,2.624c-0.373,0.448-0.748,0.89-1.126,1.334l-0.993,1.438l-1.963,2.897c-1.122,1.976-2.349,3.888-3.28,5.999
		c-2.047,4.1-3.557,8.437-4.704,12.814c-1.194,4.381-1.913,8.806-2.467,13.243c-0.592,4.536-0.693,8.68-1.511,12.661
		c-0.236,1.241-0.545,2.447-0.897,3.63c-0.746,1.488-1.618,2.969-2.527,4.423c-1.817,2.86-3.835,5.647-5.912,8.404
		c-8.406,11.04-17.843,21.438-25.908,33.487c-1.986,3.032-3.947,6.172-5.491,9.74c-0.778,1.786-1.459,3.692-1.896,5.845
		c-0.093,0.548-0.201,1.087-0.254,1.767c-0.077,0.845-0.074,0.768-0.077,1.696c0.016,1.315,0.242,2.427,0.459,3.499
		c1.055,4.165,2.792,7.501,4.635,10.762c1.887,3.228,3.95,6.288,6.234,9.182c2.293,2.89,4.734,5.644,7.459,8.256
		c2.749,2.546,5.674,5.125,9.862,6.915c3.799,1.438,7.116,2.239,10.619,3.148c3.457,0.86,6.929,1.618,10.387,2.354
		c13.811,2.979,27.683,5.416,41.626,7.446c13.965,2.001,27.901,3.968,42.201,4.447c1.803,0.042,3.601,0.018,5.463-0.134
		c0.91-0.071,1.868-0.181,2.888-0.369c0.965-0.204,1.811-0.45,2.683-0.723c3.49-1.077,6.82-2.41,10.029-3.964
		c3.518-1.737,7.033-3.571,10.398-5.553c3.524-1.59,6.949-3.426,10.244-5.464c1.534-0.903,3.508-2.078,5.341-3.18
		c0.004-0.005,0.009-0.025,0.009-0.025s5.957-3.564,9.695-7.403c1.466-1.557,2.812-3.214,3.92-5.138
		c1.189-2.059,1.757-4.481,2.418-6.741c0.249-0.862,0.588-1.649,0.97-2.4c0.849-1.389,2.427-3.352,2.427-3.352
		c1.492-1.909,3.31-3.472,4.585-4.398c0.235-0.155,0.488-0.332,0.749-0.52c0.028-0.016,0.062-0.041,0.086-0.056
		c0.514-0.32,1.245-0.931,1.912-1.523c0.051-0.043,0.101-0.087,0.151-0.131c0.22-0.197,0.43-0.387,0.62-0.561
		c0.036-0.035,0.074-0.068,0.112-0.104c0.452-0.418,0.768-0.726,0.768-0.726l-0.016-0.009c0.732-0.734,1.49-1.578,2.256-2.52
		c0.026-0.027,0.063-0.063,0.087-0.088c0.227-0.263,0.346-0.398,0.346-0.398c1.518-1.97,2.724-3.836,3.864-5.982
		c0.106-0.181,0.215-0.36,0.303-0.546c0.418-0.84,0.794-1.703,1.137-2.58c2.099-4.837,3.803-10.95,4.565-18.628
		c0.24-1.877,0.349-3.762,0.383-5.654c0.056-0.674,0.336-4.727-0.571-8.707c-0.221-1.43-0.49-2.849-0.842-4.244
		c-1.083-4.128-2.325-7.846-3.449-11.524c-0.082-0.687-0.171-1.376-0.258-2.039c-0.643-4.749-0.749-9.216-0.088-13.737
		c0.663-4.492,2.059-8.906,3.927-13.208c1.829-4.278,4.222-8.443,6.658-12.645c2.461-4.193,5.047-8.352,7.609-12.571
		c5.123-8.407,10.199-17.065,14.112-26.458c1.94-4.692,3.517-9.628,4.564-14.665l0.379-1.897c0.057-0.262,0.155-0.746,0.155-0.845
		l0.045-0.478l0.016-0.14c0.571-1.751,1.079-3.55,1.418-5.432c0.308-1.32,0.364-2.745,0.549-4.113
		C524.278,91.037,524.145,89.59,524.145,88.181"/>
</g>
</svg>
