<?xml version="1.0" encoding="utf-8"?>
<!-- Generator: Adobe Illustrator 18.1.1, SVG Export Plug-In . SVG Version: 6.00 Build 0)  -->
<svg version="1.1" id="Layer_1" xmlns="http://www.w3.org/2000/svg" xmlns:xlink="http://www.w3.org/1999/xlink" x="0px" y="0px"
	 viewBox="645 -234 264 498" enable-background="new 645 -234 264 498" xml:space="preserve">
<rect x="701" y="68.7" width="151.7" height="15.2"/>
<g>
	<g>
		<defs>
			<rect id="SVGID_1_" x="649" y="-228.3" width="256.2" height="487.8"/>
		</defs>
		<clipPath id="SVGID_2_">
			<use xlink:href="#SVGID_1_"  overflow="visible"/>
		</clipPath>
		<path clip-path="url(#SVGID_2_)" d="M711.2,146.3c0-8.9,5.7-16.1,14.8-16.1c7.2,0,12,4.1,13.1,10.6h-4.8c-0.7-4.1-3.6-6.7-8.2-6.7
			c-6.5,0-9.9,5.4-9.9,12.1c0,6.7,3.4,12.1,9.9,12.1c5,0,7.9-2.8,8.3-7.6h4.7c-0.7,7.3-5.4,11.6-13.1,11.6
			C716.9,162.4,711.2,155.2,711.2,146.3"/>
	</g>
</g>
<rect x="743.8" y="119.3" width="4.8" height="42.3"/>
<g>
	<g>
		<defs>
			<rect id="SVGID_3_" x="649" y="-228.3" width="256.2" height="487.8"/>
		</defs>
		<clipPath id="SVGID_4_">
			<use xlink:href="#SVGID_3_"  overflow="visible"/>
		</clipPath>
		<path clip-path="url(#SVGID_4_)" d="M758.5,143.8h18.4c-0.3-6.1-3.4-9.8-8.9-9.8C762.3,134,759.2,138.3,758.5,143.8 M753.5,146.3
			c0-8.9,5.8-16.1,14.5-16.1c9.2,0,14.1,7.1,14.1,17.2h-23.6c0.4,6.2,3.7,10.9,9.9,10.9c4.4,0,7.4-2.1,8.5-6.3h4.7
			c-1.4,6.6-6.2,10.3-13.1,10.3C758.9,162.4,753.5,155.2,753.5,146.3"/>
	</g>
	<g>
		<defs>
			<rect id="SVGID_5_" x="649" y="-228.3" width="256.2" height="487.8"/>
		</defs>
		<clipPath id="SVGID_6_">
			<use xlink:href="#SVGID_5_"  overflow="visible"/>
		</clipPath>
		<path clip-path="url(#SVGID_6_)" d="M805.6,150.2v-5.2c-1.6,1-4.4,1.8-7,2.2c-4.8,0.9-8.6,1.7-8.6,6.2c0,4.1,3.2,5,6.3,5
			C802.7,158.5,805.6,153.8,805.6,150.2 M805.4,157.3L805.4,157.3c-1.9,2.4-5,4.8-10.2,4.8c-5.8,0-10.3-2.7-10.3-8.5
			c0-7.2,5.7-8.7,13.3-9.9c4.3-0.6,7.3-1.1,7.3-4.4c0-3.4-2.5-5.4-6.9-5.4c-5,0-7.4,2.1-7.6,6.7h-4.6c0.2-5.9,4.1-10.3,12.2-10.3
			c6.5,0,11.3,2.4,11.3,9.7v14.5c0,2.5,0.6,3.8,3.3,3.2h0.2v3.5c-0.6,0.2-1.4,0.5-2.6,0.5C807.6,161.8,805.9,160.4,805.4,157.3"/>
	</g>
	<g>
		<defs>
			<rect id="SVGID_7_" x="649" y="-228.3" width="256.2" height="487.8"/>
		</defs>
		<clipPath id="SVGID_8_">
			<use xlink:href="#SVGID_7_"  overflow="visible"/>
		</clipPath>
		<path clip-path="url(#SVGID_8_)" d="M821.6,135h0.1c2.2-2.9,5.3-4.7,9.7-4.7c6.4,0,10.3,3.5,10.3,9.8v21.5h-4.8v-21
			c0-4-2.6-6.2-6.9-6.2c-4.8,0-8.4,3.4-8.4,8.5v18.8h-4.8V131h4.8L821.6,135L821.6,135z"/>
	</g>
	<g>
		<defs>
			<rect id="SVGID_9_" x="649" y="-228.3" width="256.2" height="487.8"/>
		</defs>
		<clipPath id="SVGID_10_">
			<use xlink:href="#SVGID_9_"  overflow="visible"/>
		</clipPath>
		<path clip-path="url(#SVGID_10_)" d="M733.3,191.7c-0.4-3.6-2.6-5.9-5.7-5.9c-3.7,0-5.6,2.3-6.2,5.9H733.3z M711.9,194.9
			c0-9,6.3-16,15.5-16c4.3,0,7.7,1.4,10.3,3.8c3.6,3.3,5.4,8.6,5.3,14.7h-21.7c0.6,4.1,2.8,6.6,6.8,6.6c2.5,0,4.2-1.1,5-3h9.4
			c-0.7,2.7-2.4,5.3-5.1,7.1c-2.5,1.8-5.6,2.8-9.5,2.8C718,211,711.9,204.1,711.9,194.9"/>
	</g>
	<g>
		<defs>
			<rect id="SVGID_11_" x="649" y="-228.3" width="256.2" height="487.8"/>
		</defs>
		<clipPath id="SVGID_12_">
			<use xlink:href="#SVGID_11_"  overflow="visible"/>
		</clipPath>
		<path clip-path="url(#SVGID_12_)" d="M746.3,179.8h9.3v4.1h0.2c2.2-3.2,5.1-5,9.3-5c6.6,0,10.5,4.7,10.5,11.5v19.7H766v-17.7
			c0-3.2-1.6-5.4-4.7-5.4c-3.2,0-5.3,2.7-5.3,6.4v16.7h-9.6L746.3,179.8L746.3,179.8z"/>
	</g>
	<g>
		<defs>
			<rect id="SVGID_13_" x="649" y="-228.3" width="256.2" height="487.8"/>
		</defs>
		<clipPath id="SVGID_14_">
			<use xlink:href="#SVGID_13_"  overflow="visible"/>
		</clipPath>
		<path clip-path="url(#SVGID_14_)" d="M800.1,191.7c-0.4-3.6-2.6-5.9-5.7-5.9c-3.7,0-5.6,2.3-6.2,5.9H800.1z M778.6,194.9
			c0-9,6.3-16,15.5-16c4.3,0,7.7,1.4,10.3,3.8c3.6,3.3,5.4,8.6,5.3,14.7h-21.7c0.6,4.1,2.8,6.6,6.8,6.6c2.5,0,4.2-1.1,5-3h9.4
			c-0.6,2.7-2.4,5.3-5.1,7.1c-2.5,1.8-5.6,2.8-9.5,2.8C784.8,211,778.6,204.1,778.6,194.9"/>
	</g>
	<g>
		<defs>
			<rect id="SVGID_15_" x="649" y="-228.3" width="256.2" height="487.8"/>
		</defs>
		<clipPath id="SVGID_16_">
			<use xlink:href="#SVGID_15_"  overflow="visible"/>
		</clipPath>
		<path clip-path="url(#SVGID_16_)" d="M813.1,179.8h9.2v4.7h0.2c2.1-3.6,4.6-5.2,8.3-5.2c0.9,0,1.5,0.1,1.9,0.2v8.3h-0.2
			c-5.9-0.8-9.7,2.1-9.7,8.6v13.6h-9.6L813.1,179.8L813.1,179.8z"/>
	</g>
	<g>
		<defs>
			<rect id="SVGID_17_" x="649" y="-228.3" width="256.2" height="487.8"/>
		</defs>
		<clipPath id="SVGID_18_">
			<use xlink:href="#SVGID_17_"  overflow="visible"/>
		</clipPath>
		<path clip-path="url(#SVGID_18_)" d="M855.3,193.7c0-4.1-2.1-7.5-6.1-7.5c-3.6,0-6,3-6,7.6c0,4.5,2.4,7.5,6,7.5
			C853.3,201.3,855.3,198,855.3,193.7 M834.4,210.8h9.3c0.5,1.6,2.1,3,5.3,3c4.1,0,5.8-2.1,5.8-5.8v-3h-0.2c-1.8,2-4.1,3.5-7.7,3.5
			c-6.8,0-13.1-5.1-13.1-14.4c0-8.9,5.2-15.1,12.7-15.1c4,0,6.7,1.6,8.5,4.1h0.1v-3.2h9.2v27.3c0,4.6-1.6,7.9-4,10
			c-2.7,2.4-6.6,3.4-11.1,3.4C840.9,220.5,835.4,217.1,834.4,210.8"/>
	</g>
	<g>
		<defs>
			<rect id="SVGID_19_" x="649" y="-228.3" width="256.2" height="487.8"/>
		</defs>
		<clipPath id="SVGID_20_">
			<use xlink:href="#SVGID_19_"  overflow="visible"/>
		</clipPath>
		<path clip-path="url(#SVGID_20_)" d="M869.9,212.6h3.3c2.8,0,4-1.1,4-3.2c0-1.3-0.6-3.1-1.8-6.3l-8.9-23.3h10.2l4.1,12.9
			c0.9,3,1.9,7,1.9,7h0.1c0,0,0.8-4,1.8-7l4-12.9h9.6l-10.5,30.7c-2.4,7.1-5.3,9.6-11.4,9.6h-6.3V212.6L869.9,212.6z"/>
	</g>
	<g>
		<defs>
			<rect id="SVGID_21_" x="649" y="-228.3" width="256.2" height="487.8"/>
		</defs>
		<clipPath id="SVGID_22_">
			<use xlink:href="#SVGID_21_"  overflow="visible"/>
		</clipPath>
		<path clip-path="url(#SVGID_22_)" d="M712.2,228.1h4.4v-9.6h4.8v9.6h5.9v3.9h-5.9v19.9c0,2.1,1.1,2.8,3.1,2.8c0.9,0,2-0.2,2.5-0.4
			h0.2v4.1c-1.1,0.2-2.4,0.4-3.8,0.4c-3.9,0-6.7-1.6-6.7-5.9V232h-4.4L712.2,228.1L712.2,228.1z"/>
	</g>
	<g>
		<defs>
			<rect id="SVGID_23_" x="649" y="-228.3" width="256.2" height="487.8"/>
		</defs>
		<clipPath id="SVGID_24_">
			<use xlink:href="#SVGID_23_"  overflow="visible"/>
		</clipPath>
		<path clip-path="url(#SVGID_24_)" d="M737.1,233.2h0.1c1.8-3,5-5.4,9.1-5.4c0.9,0,1.4,0.1,2,0.4v4.6h-0.2
			c-0.7-0.2-1.2-0.3-2.1-0.3c-4.7,0-8.9,3.5-8.9,9.3v17h-4.8v-30.5h4.8V233.2L737.1,233.2z"/>
	</g>
	<g>
		<defs>
			<rect id="SVGID_25_" x="649" y="-228.3" width="256.2" height="487.8"/>
		</defs>
		<clipPath id="SVGID_26_">
			<use xlink:href="#SVGID_25_"  overflow="visible"/>
		</clipPath>
		<path clip-path="url(#SVGID_26_)" d="M772,258.6v-4.2h-0.1c-2.2,3-4.8,4.9-9.2,4.9c-6.3,0-10.3-3.8-10.3-10.1v-21.2h4.8v21
			c0,4,2.5,6.3,6.9,6.3c4.8,0,8-3.7,8-8.5v-18.8h4.8v30.6L772,258.6L772,258.6z"/>
	</g>
	<g>
		<defs>
			<rect id="SVGID_27_" x="649" y="-228.3" width="256.2" height="487.8"/>
		</defs>
		<clipPath id="SVGID_28_">
			<use xlink:href="#SVGID_27_"  overflow="visible"/>
		</clipPath>
		<path clip-path="url(#SVGID_28_)" d="M781.4,248.7h4.9c0.6,5.3,4.2,6.8,8.7,6.8c5,0,7.1-2.2,7.1-5c0-3.4-2.4-4.3-8-5.5
			c-6-1.2-11.4-2.5-11.4-9.2c0-5.1,3.9-8.4,11-8.4c7.6,0,11.3,3.6,12,9.6h-4.9c-0.5-4-2.7-5.8-7.2-5.8c-4.4,0-6.1,1.9-6.1,4.4
			c0,3.3,3,4,8.2,5c6.1,1.2,11.3,2.6,11.3,9.6c0,6.1-5,9.3-12.1,9.3C786.5,259.5,781.8,255.5,781.4,248.7"/>
	</g>
	<g>
		<defs>
			<rect id="SVGID_29_" x="649" y="-228.3" width="256.2" height="487.8"/>
		</defs>
		<clipPath id="SVGID_30_">
			<use xlink:href="#SVGID_29_"  overflow="visible"/>
		</clipPath>
		<path clip-path="url(#SVGID_30_)" d="M809,228.1h4.4v-9.6h4.8v9.6h5.9v3.9h-5.9v19.9c0,2.1,1.1,2.8,3.1,2.8c0.9,0,2-0.2,2.5-0.4
			h0.2v4.1c-1.1,0.2-2.4,0.4-3.8,0.4c-3.9,0-6.7-1.6-6.7-5.9V232H809V228.1z"/>
	</g>
	<g>
		<defs>
			<rect id="SVGID_31_" x="649" y="-228.3" width="256.2" height="487.8"/>
		</defs>
		<clipPath id="SVGID_32_">
			<use xlink:href="#SVGID_31_"  overflow="visible"/>
		</clipPath>
		<path clip-path="url(#SVGID_32_)" d="M893.4-198.2c-0.1,0.6-0.4,1.3-0.6,2c-0.5,1.4-1.1,2.9-1.7,4.4c-1,2.4-2.1,4.8-3.2,7.1
			c0-0.2,0-0.4,0.1-0.6c0.1-2.2-0.1-4-0.5-5.9c-0.8-3.7-2.4-7.1-4.3-10.1c-2-3-4.3-5.6-6.9-8c-2.6-2.3-5.4-4.4-8.9-6
			c-1.8-0.9-4.1-1.4-5.9-1.4c-1.9-0.1-3.6,0-5.3,0.1c-3.4,0.3-6.6,0.9-9.7,1.5c-6.3,1.2-12.5,2.8-18.4,3.4c-6,0.3-12.5,0-18.8,0
			l-19-0.3l-12.4-0.1c0,0-0.1,0-0.1,0c0.2-0.3,0.6-0.5,0.9-0.6c0,0,0,0,0,0c0,0,0,0,0,0c0.1-0.1,0.2-0.1,0.2-0.1l0,0
			c3.5-1.2,7.4-1.7,11.3-1.9l14.3,0.1l17.7,0.2l5,0.1c1.7,0,3.3,0.2,5.2,0c3.5-0.2,6.8-0.7,10.2-1.2l19.7-3.3c3.3-0.5,6.5-1,9.7-1.3
			c1.5-0.1,3.1-0.2,4.4-0.1c0.3,0,0.6,0.1,0.8,0.1c0,0,0.3,0.1,0.2,0l0.6,0.2c0.5,0.1,1,0.3,1.6,0.6c4.7,2.4,9.3,7,11.9,12
			c1.3,2.5,2.1,5.2,2.2,7.6C893.5-199,893.5-198.7,893.4-198.2 M879.5-185.8c0,0.8-0.4,2.3-0.8,3.7c-1.4,4.1-3,8.3-4.7,12.5
			c0.1-0.8,0.2-1.7,0.2-2.6c0.1-2.3-0.3-3.8-0.6-5.6c-0.4-1.7-1-3.4-1.7-4.9c-1.4-3.1-3.1-6-5.1-8.6c-2-2.6-4.2-5-6.6-7.2
			c-2.5-2.2-5-4.2-8.3-5.8c-2.1-1.1-4-1.3-5.7-1.4c-1.7-0.1-3.3-0.2-4.9-0.1c-3.2,0.1-6.2,0.3-9.2,0.5c-6.1,0.5-11.7,1.2-17.6,0.6
			l-36-2.2l-5.7-0.3c0,0,2.1-2.2,3.2-2.9c0.3-0.1,1.9-0.1,2.8,0l11.4,0.8c12.7,0.9,25,2.1,38,2.9c6.7-0.1,12.9-1.1,19.2-1.6
			c3.1-0.3,6.2-0.6,9.1-0.6c1.5,0,2.9,0,4.2,0.2c1.4,0.2,2.1,0.4,3.2,1c4.6,2.5,9.2,6.6,12.2,11.1c1.5,2.3,2.7,4.7,3.2,7.2
			C879.5-188.2,879.6-186.8,879.5-185.8 M865.9-172.6c-0.1,2.3-0.7,5.2-1.4,8c-0.7,2.8-1.5,5.6-2.3,8.5c-1.6,5.4-3.4,10.7-5.2,16.1
			c0.3-1.5,0.7-2.9,1-4.4c0.6-2.8,1.2-5.6,1.7-8.5c0.4-3,1-5.7,0.6-9.6c-0.6-3.7-2-6.6-3.6-9.4c-1.6-2.7-3.3-5.2-5.2-7.5
			c-1.8-2.3-3.8-4.5-6-6.6c-2.1-2.1-4.2-4-7-6c-1.1-0.7-1.7-0.9-2.4-1.3c-0.7-0.4-1.5-0.6-2.2-0.9c-1.5-0.5-3.1-0.9-4.6-1.2
			c-3-0.6-6-0.8-8.9-1c-2.9-0.1-5.7-0.2-8.4-0.3c-2.5-0.2-5.5-0.7-8.3-1c-11.5-1.4-22.9-2.9-34.3-4.4c0.5-1.1,0.9-2,1.3-2.7
			c0.1-0.2,0.3-0.4,0.4-0.6l7.2,0.9c11.9,1.6,23.8,3.2,35.7,5c2.9,0.5,6.3,0.8,9.3,0.9c3.1,0.1,6.1,0.1,9.1,0.1c3,0,6,0,8.8,0.1
			c2.8,0.1,5.8,0.5,7.1,1.2c2,1.1,4.3,2.8,6.3,4.7c2,1.9,3.9,3.9,5.5,6.1c1.7,2.2,3.1,4.5,4.2,6.8c0.5,1.2,0.9,2.4,1.2,3.6
			C865.8-174.8,866-173.3,865.9-172.6 M860.7-55.4c-2.1-2.5-4.2-5-6.4-7.5c-3.6-4.1-7.2-8-10.8-11.9l-1.3-1.5
			c-0.4-0.4-0.9-1.1-1-1.2c0,0-0.2-0.5-0.2-1c-0.1-0.5-0.1-1.1-0.1-1.7c0-0.8,0-1.5,0-2.3c0.1,0.3,0.3,0.6,0.5,0.9l2.8,3.3l10.8,13
			c2,2.5,4,5,6,7.5C860.9-57.1,860.8-56.3,860.7-55.4 M859.1-49.9c-2.8-2.7-5.7-5.4-8.7-8L838.6-68c-0.3-0.2-0.6-0.5-0.9-0.8
			c-0.4-0.4-1.2-1.6-1.6-2.5c-0.1-0.3-0.2-0.6-0.2-1c-0.2-1.6-0.5-4.6-0.3-4.6c0.1,0,0.3,0.2,0.4,0.6c0,0.1,0.1,0.3,0.2,0.4
			c0,0,0,0.1,0,0.1c0,0.1,0,0.1,0.1,0.1c0.1,0.3,0.3,0.6,0.5,0.9c0.7,1,1.1,1.3,1.6,1.8l1.4,1.4l11.6,11.2c2.8,2.7,5.6,5.5,8.3,8.3
			C859.6-51.2,859.3-50.5,859.1-49.9 M858-46.9c-0.2,0.5-0.4,1-0.6,1.5c-3.5-2.6-7-5-10.7-7.3L834-60.7l-1.5-1
			c-0.4-0.3-0.1-0.1-0.3-0.3c-0.1-0.1-0.2-0.3-0.3-0.5c-0.5-0.8-0.9-1.9-1.3-3c-0.8-2.2-1.4-4.6-2-7c-2.2-9.6-3.8-19.4-5.4-29.2
			l-2.4-14.8c-0.4-2.6-0.7-4.7-1.4-7.7c-1-3.2-2.3-5.4-3.6-7.7c-2.7-4.5-5.7-8.6-8.8-12.7c-1.5-2-3.1-4-4.7-5.9l-2.4-2.9
			c-0.8-1-1.8-2-2.1-2.6c-1.1-1.6-2.2-3.8-3.3-6c-1.1-2.2-2.2-4.5-3.6-6.8c-0.7-1.2-1.3-2.3-2.3-3.6c-0.5-0.6-0.9-1.2-1.8-2
			c-0.7-0.6-1.3-0.9-1.9-1.3c-2.3-1.4-4.6-2.6-6.9-3.7c-5.6-2.6-11.2-5-16.9-7.2c0.4-0.5,0.8-1,1.1-1.4c0,0,0.2-0.3,0.6-0.9
			c0.1-0.1,0.2-0.2,0.2-0.4c6.2,2.4,12.4,4.9,18.4,7.7c2.3,1.1,4.6,2.2,6.8,3.4c2.1,1.2,4.4,2.5,5.9,3.8c3.6,3,7.1,6.9,10.5,10.6
			c6.7,7.5,13.5,15.3,18.1,23.6c1.1,2.1,2,4.1,2.4,6.1c0.4,2.1,0.6,4.7,0.9,7.2c0.4,5,0.7,10.2,1,15.4c0.7,10.3,1.2,20.7,2.5,31.1
			c0.3,2.6,0.7,5.2,1.4,7.9c0.4,1.4,0.7,2.7,1.5,4.3c0.2,0.4,0.5,0.8,1,1.3c0.4,0.4,0.5,0.5,0.9,0.8l1.6,1.3l12.5,9.3
			c3.4,2.5,6.7,5.1,10,7.6C858-47.1,857.9-46.8,858-46.9 M855.5-40.9c-4.2-2.2-8.5-4.3-12.8-6.3l-13.5-6l-1.6-0.8
			c-0.3-0.1-0.6-0.3-0.5-0.3c-0.1,0-0.2-0.2-0.3-0.3c-0.6-0.6-1.2-1.6-1.7-2.5c-1.1-2-2.1-4.2-3-6.4c-3.6-8.9-6.5-18.3-9.4-27.7
			l-4.4-14.1c-0.8-2.4-1.5-4.7-2.4-7.2c-0.9-2.6-2.4-5.1-3.9-7.3c-5.9-8.6-12.8-15.5-17-23.3c-1.9-3.6-2.9-8.1-3.8-12.9
			c-0.5-2.4-1-4.9-2-7.7c-0.5-1.3-1.5-3.2-2.8-4.3c-1.1-1-2.2-1.7-3.2-2.5c-5.6-3.7-11.3-7-17.2-10c0.7-0.7,1.3-1.4,2-2.1
			c0.1-0.1,0.2-0.3,0.4-0.4c5.8,2.8,11.5,5.8,16.9,9.1c2.1,1.3,4.2,2.6,6,3.9c0.4,0.3,0.9,0.7,1.1,1c0,0,0.4,0.5,0.6,0.9
			c0.5,0.8,1,1.8,1.5,2.8c1,2.1,1.9,4.4,2.9,6.7c1,2.3,2,4.7,3.7,7.2l9.4,11.9c3,3.9,5.9,7.8,8.4,11.8c1.2,2,2.4,4.1,2.9,5.7
			c0.5,1.8,1,4.6,1.5,6.9l3,14.7c2.2,9.8,4.4,19.6,7.3,29.3c0.8,2.4,1.5,4.9,2.6,7.3c0.5,1.2,1.1,2.4,1.9,3.8c0.2,0.3,0.5,0.7,0.8,1
			c0.2,0.3,1,0.9,1.2,1l1.7,1l13.3,7c3.8,2.1,7.7,4.2,11.5,6.4C856.1-42.4,855.7-41.6,855.5-40.9 M854.6-38.3
			c-0.3,0.5-0.6,1.1-1,1.8c-0.2-0.1-0.5-0.2-0.7-0.3c-4.7-1.5-9.5-2.9-14.3-4.2c-4.8-1.3-9.6-2.5-14.1-4.1l-0.8-0.3
			c-0.3-0.1-0.6-0.2-0.6-0.3c-0.3-0.2-0.7-0.4-1.1-0.8c-0.7-0.7-1.5-1.5-2.2-2.4c-1.4-1.8-2.8-3.8-4.1-5.8c-5.2-8.2-9.6-17-14-25.8
			l-6.5-13.3c-1-2.1-2.3-4.7-3.6-6.9c-1.3-2.2-2.8-4.3-4.2-6.4c-2.9-4.1-5.8-8.1-8.7-12.1c-2.8-3.9-6.1-8-8.1-11.6
			c-0.6-1.1-0.9-3.2-1.1-5.4c-0.1-2.2,0-4.6,0.1-7.1c0.1-2.4,0.2-5,0.2-7.6c0-1.3-0.1-2.7-0.3-4.1c-0.2-1.5-0.4-2.8-1.5-4.8
			c-0.4-0.7-0.3-0.5-0.8-1.1l-0.7-0.8l-1.4-1.4l-2.8-2.6c-1.9-1.7-3.7-3.4-5.7-5c-1.9-1.6-3.9-3.2-5.9-4.7c0.8-0.7,1.5-1.4,2.2-2.1
			c5.7,3.7,11.3,7.6,16.4,11.8c0.9,0.8,1.8,1.6,2.4,2.3c0.5,0.5,0.6,1,0.9,2c0.5,1.9,0.7,4.3,1.1,6.7c0.7,4.8,1.1,10.2,3.7,15.4
			c4.8,9.8,12.4,16.7,17.6,24.3c1.3,1.9,2.4,3.7,3.2,5.6c0.9,2.1,1.7,4.4,2.6,6.7c1.7,4.6,3.3,9.2,5.1,13.8
			c3.5,9.2,7,18.5,11.3,27.5c1.1,2.3,2.3,4.5,3.7,6.7c0.7,1.1,1.5,2.2,2.7,3.3c0.3,0.3,0.7,0.6,1.1,0.8c0.6,0.3,0.8,0.4,1.1,0.5
			l1.8,0.7l13.9,5c4.5,1.7,9.1,3.3,13.5,5.1C854.9-38.8,854.7-38.6,854.6-38.3 M851.3-32.8c-0.6-0.1-1.2-0.3-1.8-0.4
			c-5-1-10-1.7-15-2.2c-5-0.6-10-1.2-14.7-2.3c-0.5-0.1-1.3-0.3-1.5-0.4c-0.4-0.2-0.8-0.4-1.2-0.7c-0.9-0.6-1.8-1.4-2.7-2.2
			c-1.8-1.6-3.5-3.4-5.1-5.2c-6.6-7.4-12.7-15.4-18.6-23.4c-6-8-11.8-16.2-17.7-24.4c-2.9-4.1-5.8-8.2-8.6-12.3l-4.2-6.2l-2-3.1
			c-0.6-1-1.3-2.1-1.6-2.7c-0.5-1.2-0.7-3.3-0.5-5.5c0.2-2.2,0.6-4.6,1.1-7c1-4.8,2.4-9.7,2.7-15.4c0-1.5,0.1-2.9-0.5-4.9
			c-0.2-0.5-0.1-0.4-0.5-1.2c-0.2-0.5-0.4-0.8-0.6-1.1c-0.4-0.6-0.8-1.2-1.2-1.7c-1.6-2.1-3.3-4.1-5-6c-2.7-3-5.6-5.9-8.5-8.7
			c1.4-0.9,2.8-1.8,4.1-2.8c2,1.8,3.9,3.6,5.8,5.5c1.7,1.7,3.4,3.5,5,5.3l2.4,2.7l1.1,1.4l0.5,0.6c-0.1-0.2,0.4,0.6,0.2,0.4
			c0.1,0.2,0.3,1.4,0.4,2.3c0,1,0,2.2-0.1,3.3c-0.2,2.3-0.5,4.7-0.8,7.2c-0.3,2.5-0.5,5-0.6,7.7c0,2.7,0,5.7,1.7,9.1
			c1.4,2.7,2.8,4.7,4.2,6.8c1.5,2.1,2.9,4.1,4.4,6.1c3,4,6,7.9,8.8,11.8c1.4,2,2.8,4,4.1,5.9c1.3,2,2.3,3.8,3.5,6.1
			c2.4,4.4,4.7,8.8,7.1,13.1c5,8.6,10,17.2,15.9,25.4c1.5,2.1,3.1,4.1,4.8,6c0.9,1,1.8,1.9,3,2.8c0.6,0.5,1.2,0.9,2,1.3
			c0.5,0.2,0.8,0.3,1.1,0.4l1,0.3c5,1.3,9.8,2.1,14.7,3.1c4.9,0.9,9.7,1.8,14.5,2.8c0.1,0,0.1,0,0.2,0
			C852.2-34.2,851.8-33.5,851.3-32.8 M850-30.6c-0.1,0.1-0.1,0.1-0.2,0.2c-0.4,0.4-0.8,0.8-1.1,1.2c-0.9-0.1-1.8-0.2-2.7-0.2
			c-5.3-0.2-10.6-0.1-15.9,0.1c-2.6,0.1-5.2,0.2-7.8,0.1c-2.6,0-5.1-0.1-7.2-0.7c-4.2-1.5-8.5-4.8-12.5-7.9
			c-8-6.5-15.4-13.8-22.6-21.3c-3.6-3.7-7.2-7.5-10.6-11.4c-3.5-3.8-6.9-7.7-10.2-11.7c-3.3-4-6.5-8-9.6-12.1
			c-1.5-2.1-3-4.1-4.3-6.3c-0.7-1-1.3-2.1-1.9-3.2l-0.9-1.6l-0.2-0.4c-0.1-0.1,0-0.1-0.1-0.1c0,0-0.1-0.1-0.1-0.3
			c-0.3-1.1,0-3.7,0.5-5.9c0.6-2.3,1.3-4.8,2.1-7.2c1.6-4.9,3.4-9.9,4.8-15.2c0.7-2.7,1.3-5.4,1.2-8.7c-0.1-0.9-0.1-1.6-0.6-2.8
			c-0.2-0.7-0.4-0.8-0.5-1.1l-0.1-0.1l-0.2-0.3l0-0.1l-0.1-0.2l-0.3-0.4l-2.3-3.2c-3.1-4.3-6.3-8.5-9.6-12.6
			c-0.4-0.5-0.9-1.1-1.3-1.6c1.3-0.8,2.6-1.6,3.9-2.4c2.9,3.4,5.8,6.8,8.5,10.3c1.5,2,3,4,4.2,6c0.3,0.5,0.6,1,0.8,1.4
			c0.3,0.6,0.2,0.5,0.4,1.2c0,0.4,0.1,1.6-0.1,2.6c-0.6,4.3-2.4,9.1-3.7,14.1c-0.7,2.5-1.3,5.1-1.7,7.9c-0.3,2.8-0.5,5.9,0.9,9.5
			c0.7,1.7,1.5,2.8,2.1,3.9l2.1,3.3c1.4,2.2,2.8,4.3,4.2,6.4c2.9,4.2,5.9,8.3,8.8,12.4c12,16.3,24.6,32.2,39.1,46.7
			c1.9,1.8,3.7,3.5,5.8,5.2c1,0.8,2.1,1.6,3.4,2.4c0.6,0.4,1.3,0.7,2.1,1c1,0.3,1.5,0.4,2.2,0.5c5.2,0.8,10.3,1,15.3,1.2
			c5,0.3,10.1,0.3,15.1,0.8c0.4,0,0.7,0.1,1.1,0.1C850.2-31,850.1-30.8,850-30.6 M845.4-25.2c-0.1,0.2-0.2,0.4-0.4,0.5
			c-0.1,0.1-0.2,0.2-0.2,0.2c-0.9,0.1-1.7,0.1-2.6,0.2c-5.5,0.5-11,1.3-16.5,2c-5.4,0.6-11.1,1.4-15.8,0.6c-0.5-0.1-1.2-0.3-1.4-0.4
			c0,0-0.3-0.1-0.4-0.2l-0.3-0.2l-0.9-0.5l-3.5-2.1l-7-4.4c-9.3-5.9-18.4-12.1-27.3-18.5c-4.4-3.2-8.8-6.5-12.9-9.9
			c-2.1-1.7-3.9-3.4-5.7-5.3c-1.8-1.9-3.6-3.9-5.3-6c-3.4-4.1-6.6-8.4-9.7-12.9c-1.5-2.2-3-4.5-4.5-6.8l-1.1-1.7l-0.6-0.9
			c-0.1-0.2-0.2-0.3-0.3-0.5c-0.4-0.7-0.6-1.5-0.7-2.5c-0.4-3.9,1.5-9.1,3.7-13.9c1.8-4.2,3.9-8.5,5.9-13.1
			c-0.9,2.4-1.8,4.9-2.6,7.5c-0.7,2.8-1.6,5.5-0.9,9.6c0.1,0.9,0.9,2.5,1,2.8l1,1.9c0.7,1.2,1.4,2.4,2.1,3.6c1.4,2.3,3,4.6,4.5,6.8
			c3.1,4.4,6.4,8.6,9.9,12.6c6.9,8.1,14.3,15.8,22,23c7.8,7.2,15.9,14.1,24.6,20.3c2.2,1.5,4.4,3,6.8,4.4c2.4,1.4,4.8,2.7,7.8,3.4
			c3,0.6,5.8,0.4,8.4,0.2c2.7-0.2,5.3-0.5,7.9-0.8c5.2-0.5,10.4-1.3,15.6-1.5c0.4,0,0.9,0,1.4,0C846.6-26.7,846-25.9,845.4-25.2
			 M841.7-20.2c-0.1,0.2-0.2,0.5-0.4,0.7c-1.1,0.1-2.2,0.3-3.2,0.5c-5.8,1-11.6,2.1-17.4,3.3c-2.9,0.6-5.8,1.2-8.6,1.7
			c-1.4,0.3-2.9,0.5-4.1,0.6c-1,0-2.4-0.2-3.7-0.5c-5.3-1.4-10.6-3.9-15.8-6.4c-10.4-5.1-20.4-11.2-30.7-17
			c-5.1-2.9-10.1-5.8-14.8-8.9c-4.7-3.1-8.9-6.5-12.5-10.6c-3.6-4.2-6.8-8.9-10-13.8l-4.7-7.4l-1.1-1.8c-0.2-0.3-0.3-0.6-0.4-0.9
			c-0.2-0.7-0.3-1.7-0.1-2.9c0.6-4.7,3.1-10,5.7-15.1c0.3-0.6,0.6-1.2,0.9-1.9c-0.5,2-0.9,4.3-0.7,6.7c0.1,1.8,0.5,3.7,1.4,5.5
			c0.2,0.4,0.5,0.9,0.7,1.3l0.5,0.9l1.1,1.8c1.5,2.4,3,4.8,4.6,7.1c3.1,4.7,6.5,9.3,10.2,13.6c1.8,2.2,3.8,4.3,5.8,6.3
			c2,2.1,4.3,4.1,6.5,5.9c4.5,3.5,9.1,6.7,13.8,9.8c9.4,6.1,19,11.6,28.7,17l7.3,4l3.7,1.9l0.9,0.5l0.5,0.3l0.6,0.2
			c1,0.4,1.8,0.5,2.6,0.7c3.2,0.4,6,0,8.8-0.3c2.8-0.4,5.6-0.9,8.3-1.4c5.5-1,10.8-2.4,16.2-3.4c0.2,0,0.5-0.1,0.7-0.1
			C842.7-21.8,842.2-21,841.7-20.2 M839.4-14.5c-1.7,0.4-3.5,0.9-5.2,1.3l-18.1,5c-3,0.8-6,1.6-9,2.1c-1.5,0.3-3,0.5-4.3,0.5
			c-1.2,0-2.7-0.3-4.2-0.6c-5.9-1.3-11.8-3.5-17.6-5.6c-11.7-4.4-23.1-9.5-34.4-14.7c-5.6-2.6-11.2-5.3-16.6-8.3
			c-2.6-1.4-5.4-3-7.5-4.5c-2.1-1.7-4.3-3.8-6.3-6c-4-4.5-7.7-9.3-11.2-14.3c-1.7-2.5-3.5-5.2-4.6-7.4c-0.2-0.4-0.2-0.5-0.3-0.6
			c0-0.2-0.1-0.3-0.1-0.5c-0.1-0.4-0.1-0.9-0.1-1.4c0.1-1.1,0.3-2.4,0.6-3.7c1.3-4.6,3.7-9.2,6.3-13.9c-0.2,0.8-0.4,1.6-0.5,2.5
			c-0.2,1.8-0.4,3.8,0.1,5.9c0.2,1.1,0.6,2.1,1.2,3.1l1.2,2l4.7,7.5c3.2,5,6.5,10.1,10.7,14.8c4.1,4.8,9.2,8.8,14.4,12
			c5.2,3.2,10.4,6,15.7,8.7c10.5,5.4,21,10.7,31.9,15.4c5.5,2.3,11,4.6,17.2,5.8c1.6,0.2,3.1,0.5,5,0.3c1.7-0.2,3.1-0.6,4.6-0.9
			c2.9-0.7,5.7-1.5,8.6-2.3c5.7-1.5,11.3-3.2,17-4.7c0.7-0.2,1.4-0.3,1.9-0.4C840-16.6,839.7-15.5,839.4-14.5 M837.8-9.7
			c-2.3,0.8-4.6,1.6-7.1,2.5l-18.9,6.6c-3.2,1.1-6.3,2.1-9.5,2.9c-0.8,0.2-1.6,0.4-2.2,0.5c-0.6,0.1-1.4,0.1-2.1,0.1
			c-1.5-0.1-3.1-0.3-4.7-0.5c-6.4-1.1-12.8-2.8-19.2-4.6c-12.8-3.7-25.4-8.2-37.8-12.8c-6.2-2.3-12.4-4.7-18.5-7.3l-4.5-2l-2.2-1
			c-0.7-0.3-1.2-0.6-1.8-1c-2.4-1.5-4.7-3.5-6.8-5.7c-4.3-4.5-7.9-9.9-11.4-15.4c-1.7-2.7-3.4-5.8-4.8-8.3c-0.7-1.2-0.4-3.9,0.6-6.6
			c1.3-3.6,3.2-7.3,5.4-10.9c-0.3,1.1-0.5,2.2-0.5,3.4c-0.1,1,0,2.1,0.2,3.3c0.1,0.6,0.2,1.1,0.4,1.7c0.2,0.6,0.5,1.3,0.6,1.6
			c1.7,3.4,3.3,5.9,5.2,8.6c3.6,5.4,7.5,10.5,12,15.3c2.3,2.4,4.6,4.7,7.4,6.9c3,2.2,5.8,3.6,8.7,5.2c5.8,2.9,11.6,5.4,17.4,7.9
			c11.7,4.9,23.6,9.2,35.6,13.1c6.1,1.9,12.1,3.7,18.6,4.8c1.7,0.3,3.3,0.5,5.2,0.4c1.9-0.2,3.4-0.6,5-0.9c3.1-0.8,6.2-1.8,9.2-2.8
			c6-2,11.9-4.3,17.8-6.5l4-1.4C838.5-11.8,838.2-10.7,837.8-9.7 M834.9-4.5c-0.2,0.2-0.4,0.5-0.7,0.7c-8.7,4-18.2,8.4-32,12.9
			c-1.6,0.5-3.3,1-4.9,1.4c-1.7,0.4-2.9,0.6-4.6,0.5c-3.3-0.1-6.7-0.6-10.1-1.2c-6.8-1.1-13.6-2.6-20.4-4.2
			C748.6,2.5,735.2-1.3,721.9-5c-6.7-1.9-13.3-4-19.7-6.2c-1.6-0.5-3.2-1.1-4.8-1.7c-1.5-0.6-3.1-1.3-4-1.9c-2.3-1.5-4.8-3.9-7-6.3
			c-4.5-4.9-8.6-10.3-11.8-16c-1.6-2.8-2.9-5.7-3.3-8.3c-0.1-0.4,0.1-1.9,0.6-3.2c0.5-1.4,1.1-2.8,1.8-4.3c1.1-2.3,2.5-4.5,3.8-6.8
			c0,0.1,0,0.2,0,0.3c-0.2,2.1-0.1,4.7,1,7.1c1.7,3.4,3.3,6.1,5.1,9.2c3.6,5.9,7.6,11.6,12.6,16.8c2.5,2.6,5.3,5,8.6,7
			c0.8,0.5,1.8,1,2.6,1.3l2.4,1.1c1.6,0.7,3.2,1.3,4.8,1.9c6.3,2.5,12.7,4.7,19.1,6.9c12.8,4.3,25.7,8,38.9,11.2
			c6.6,1.6,13.2,3,20,3.8c1.7,0.2,3.5,0.3,5.3,0.3c0.9,0,1.9-0.1,2.9-0.3c1-0.2,1.8-0.5,2.6-0.7c3.3-1.1,6.4-2.3,9.6-3.6
			c8.4-3.3,15.9-6.8,23.9-10.4C836.4-6.5,835.7-5.5,834.9-4.5 M826,2.8c-1.6,1.4-3.5,2.5-5.3,3.6c-1.1,0.7-1.9,1.1-2.2,1.3
			c-1.2,0.6-2.4,1.2-3.6,1.8c-2.5,1.3-10.4,4.6-10.4,4.6l0,0c-1.4,0.6-2.9,1.2-4.4,1.7c0,0-0.1,0-0.1,0.1c-2.4,0.8-4.9,1.6-7.4,2.2
			c-0.8,0.2-1.7,0.4-2.4,0.5c-0.7,0.1-1.5,0.1-2.3,0.1c-1.7,0-3.4-0.1-5.1-0.2c-13.8-1.1-27.6-3.7-41.3-6.3
			c-6.9-1.3-13.7-2.8-20.5-4.3c-6.8-1.4-13.6-2.9-20.4-4.6l-10.1-2.5c-3.3-0.9-6.8-1.8-9.5-2.9c-2.3-1-4.8-3-7.2-5.3
			c-2.3-2.3-4.5-4.8-6.6-7.4c-2-2.6-4-5.4-5.6-8.2c-1.6-2.8-3.1-5.8-3.8-8.4c-0.2-0.6-0.3-1.3-0.3-1.7c0,0.1,0-0.9,0-0.9
			c0-0.2,0.1-0.5,0.1-0.8c0.3-1.3,0.7-2.7,1.3-4.2c1.2-2.7,2.7-5.4,4.3-8.1c-0.1,0.9-0.1,1.8,0,3c0.6,4.4,2.4,7.9,4.1,11.2
			c3.6,6.5,8,12.3,13,17.7c2.6,2.7,5.1,5.2,8.7,7.6c2.1,1.3,3.7,1.9,5.5,2.6c1.7,0.7,3.4,1.3,5.1,1.8c6.8,2.2,13.6,4,20.4,5.8
			c13.6,3.6,27.3,6.5,41.1,9.1c6.9,1.3,13.8,2.5,20.9,3.3c3.5,0.4,7,0.8,10.8,0.7c1.8,0,4.1-0.4,5.7-0.9c1.7-0.5,3.4-1.1,5.1-1.7
			c6.6-2.5,13-5.5,19.2-8.8c1.9-1,3.3-1.7,4.6-2.3C826.8,2.1,826.4,2.4,826,2.8 M709.3-130.7c0-0.4,0-0.7,0.1-1.1
			c0.2,2.1,0.4,4.3,0.6,6.4c0.2,1.7,0.4,3.4,0.7,5.1l0,0.3c0-0.1,0,0.2,0,0.2c0,0.2,0.1,0.5,0,0.6c0,0.2,0,0.5,0,0.9
			c0,0.7-0.1,1.3-0.3,2c-0.2,0.6-0.4,1.2-0.6,1.8c0-0.8-0.1-1.5-0.1-2.3l-0.4-5.7c-0.1-1.9-0.1-3.7-0.1-5.6
			C709.3-129,709.3-129.9,709.3-130.7 M715.2-147.1c0.2,1.5,0.5,2.9,0.7,4.3l1.7,9.3l0.9,4.6c0.3,1.5,0.8,3.4,0.6,4.1
			c-0.1,2.4-1.3,5.2-2.6,7.8c-0.3,0.6-0.7,1.3-1,1.9c0-0.1,0.1-0.2,0.1-0.3c0.2-0.9,0.3-1.9,0.3-2.9c0-0.5,0-1.1-0.1-1.6
			c0-0.3-0.1-0.4-0.1-0.7l-0.1-0.7c-0.3-1.6-0.7-3.2-0.9-4.8c-0.6-3.3-1.1-6.5-1.6-9.9c-0.3-1.8-0.5-3.6-0.7-5.3
			C713.1-143.2,714.1-145.1,715.2-147.1 M720.5-154.5c0.6,2,1.3,4,1.9,6l2.7,8.4l1.3,4.2c0.4,1.4,1,2.9,1.1,3.8
			c0.2,2-0.5,4.7-1.5,7.2c-0.7,1.8-1.6,3.5-2.5,5.2c0.4-1.5,0.7-3.2,0.7-5c-0.1-2.4-0.7-3.5-1-5.1l-1.2-4.6l-2.4-9.1l-1.9-7.6
			C718.5-152.3,719.5-153.5,720.5-154.5 M726.5-159.8c0.8,1.6,1.6,3.3,2.3,4.9c2.3,5,4.7,10.1,6.8,15c1.6,3.8-0.5,9-2.7,13.7
			c-0.5,1-1,2-1.5,3c0.9-2.9,1.8-6.1,1.2-9.8c-0.4-2-1.1-3.2-1.6-4.6l-1.6-4.1l-3.3-8.2c-1-2.4-2-4.8-3-7.2
			C724.3-158,725.4-158.9,726.5-159.8 M744.8-144.6L744.8-144.6C744.9-144.5,744.9-144.6,744.8-144.6 M732.6-163.8
			c0.5,0.7,0.9,1.3,1.4,2c2.9,4.4,5.7,8.8,8.5,13.2l2,3.3l0.2,0.4l0.1,0.1l0,0.1c0.1,0.3,0.4,0.7,0.3,0.7c0,0,0.1,0.6,0,1
			c0,1.9-0.7,4.4-1.5,6.7c-1.2,3.7-2.8,7.4-4.4,11.2c0.9-2.2,1.6-4.6,2.1-7.1c0.6-3,0.6-6.6-0.9-9.8c-2.6-5.1-5.2-9.9-8-14.7
			c-1-1.7-2-3.4-3-5.1C730.4-162.4,731.5-163.1,732.6-163.8 M766.3-194.9c8.4,2.4,16.8,4.9,25.1,7.8c5,1.7,10.1,3.6,14.9,5.6
			c2.4,1,4.8,2.1,7.1,3.2c2.4,1.2,3.8,2.1,5.6,3.9c3.6,3.4,7.1,7.4,10.3,11.4c3.2,4,6.3,8.3,8.1,12.5c0.5,1,0.8,2.2,0.9,2.8
			c0.2,1,0.2,2.1,0.2,3.4c0,2.5-0.1,5.1-0.3,7.8c-0.3,5.3-0.8,10.6-1.2,16c-0.6,8-1.3,16-1.7,24.1c0,0.2,0,0.5,0,0.7
			c0,0.5,0,0.9,0,1.3c0,0.4,0,0.7,0,1.1c-0.1,2.9-0.2,2.9-0.4,2.9c0,0-0.1-0.5-0.1-1.2c-0.1-1.3-0.1-2.6-0.2-3.9
			c-0.1-2-0.2-4.3-0.2-5.9c0-3.3,0-6.7-0.1-10.1c-0.1-5.2-0.2-10.4-0.4-15.6c-0.1-2.7-0.2-5.2-0.7-8.2c-0.5-3.1-1.8-5.9-3-8.4
			c-5.3-9.8-12.1-17.9-19.5-25.5c-3.7-3.8-7.6-7.3-12.1-10.6c-2.6-1.8-5-2.8-7.5-3.9c-2.5-1-4.9-2-7.4-2.9
			c-6.2-2.2-12.4-4.1-18.6-5.9C765.4-193.1,765.9-194,766.3-194.9 M845.1-85.4c-0.1-0.5-0.1-1.1,0-1.8c0-0.8,0.1-1.6,0.2-2.4
			l0.1,0.2l2.4,3.8l9.7,15.2l1,1.5c0.1,0.3,0.2,0.5,0.3,0.8c0.5,1.3,0.8,2.5,1.1,3.8c-0.7-1.1-1.5-2.2-2.2-3.2
			c-3.3-4.6-6.6-9.2-10-13.7l-2.5-3.3C845.4-84.5,845.2-84.9,845.1-85.4 M768-198.4c0.2-0.6,0.5-1.3,0.7-1.8l1.1,0.2
			c11.1,2.2,22.1,4.5,33.1,7c10.8,3.5,23.8,2.8,31.1,7.7c1.8,1.4,3.8,3.3,5.6,5.2c1.9,1.9,3.6,4,5.3,6c1.7,2.1,3.2,4.2,4.5,6.4
			c1.3,2.1,2.3,4.5,2.6,6.3c0.2,1.7-0.1,4.6-0.5,7.2c-0.4,2.7-0.8,5.4-1.4,8.1c-1,5.5-2.2,11-3.3,16.5c-0.7,3.5-1.4,6.9-2.1,10.4
			c0-0.2,0.1-0.4,0.1-0.5c0.6-5.4,1.3-10.7,1.8-16.1c0.3-2.7,0.5-5.4,0.5-8.3c0-1.4,0-3-0.2-4.6c-0.4-2-0.9-3.4-1.5-4.9
			c-2.5-5.6-5.7-10.1-9.2-14.5c-3.5-4.4-7.2-8.4-11.7-12.1c-0.6-0.5-1.2-0.9-1.8-1.4c-0.5-0.4-1.5-1.1-2-1.3
			c-1.5-0.9-2.8-1.4-4.1-1.9c-2.6-1.1-5.3-2-7.9-2.7c-5.3-1.6-10.5-2.9-15.8-4.2c-8.4-2-16.8-3.9-25.3-5.6
			C767.7-197.9,767.8-198.1,768-198.4 M905.1-202.8c-0.1-1.4-0.4-2.8-0.7-4.3c-0.4-1.4-0.9-2.7-1.4-4.1c-1.7-4.1-4.5-7.9-8-10.7
			c-8-6.7-14.4-6.2-21-6.4c-6.6-0.2-20.7,4.7-20.7,4.7h0.1c-4.1,1.1-8.1,2.2-12.1,3.1c-3.2,0.8-6.4,1.5-9.6,1.9
			c-1.4,0.2-3.1,0.2-4.8,0.3l-5,0.2l-20,1l-2.7,0.1c-0.3,0-1.3,0-1.6,0c-4.7,0-9.9,0-14.7,0.9c-5.9,0.8-10.8,3.7-13.6,5.6
			c0,0-0.1,0-0.1,0.1c0,0-1,0.7-1.9,1.5c-0.3,0.3-0.5,0.4-0.5,0.4l0,0c-0.2,0.2-0.4,0.4-0.5,0.6c-0.9,1-1.8,2.2-2.4,3.3
			c-0.1,0.2-0.2,0.3-0.3,0.5c-0.9,1.2-1.8,2.6-2.7,4.3c0,0,0,0,0,0c-0.7,1-1.3,2-2,3.1c-0.5,0.7-1,1.3-1.4,1.8
			c-0.7,1-1.2,1.5-1.2,1.5c-1.5,1.8-2.8,3.7-4.5,5.5c-1.5,1.6-3,3.2-4.5,4.7c-3.1,3-5.2,5.3-9.1,7.7l-1.1,0.8
			c-6.2,3.9-13.2,7.5-19.2,12.9c-0.7,0.6-1.4,1.3-2,2c-0.7,0.5-1.2,0.9-1.7,1.3c-0.9,0.7-1.4,1.2-1.4,1.2l-2.4,2.4l-2.3,2.6
			c-0.4,0.4-0.7,0.9-1.1,1.3l-1,1.4l-2,2.9c-1.1,2-2.3,3.9-3.3,6c-2,4.1-3.6,8.4-4.7,12.8c-1.2,4.4-1.9,8.8-2.5,13.2
			c-0.6,4.5-0.7,8.7-1.5,12.7c-0.2,1.2-0.5,2.4-0.9,3.6c-0.7,1.5-1.6,3-2.5,4.4c-1.8,2.9-3.8,5.6-5.9,8.4
			c-8.4,11-17.8,21.4-25.9,33.5c-2,3-3.9,6.2-5.5,9.7c-0.8,1.8-1.5,3.7-1.9,5.8c-0.1,0.5-0.2,1.1-0.3,1.8c-0.1,0.8-0.1,0.8-0.1,1.7
			c0,1.3,0.2,2.4,0.5,3.5c1.1,4.2,2.8,7.5,4.6,10.8c1.9,3.2,3.9,6.3,6.2,9.2c2.3,2.9,4.7,5.6,7.5,8.3c2.7,2.5,5.7,5.1,9.9,6.9
			c3.8,1.4,7.1,2.2,10.6,3.1c3.5,0.9,6.9,1.6,10.4,2.4c13.8,3,27.7,5.4,41.6,7.4c14,2,27.9,4,42.2,4.4c1.8,0,3.6,0,5.5-0.1
			c0.9-0.1,1.9-0.2,2.9-0.4c1-0.2,1.8-0.5,2.7-0.7c3.5-1.1,6.8-2.4,10-4c3.5-1.7,7-3.6,10.4-5.6c3.5-1.6,6.9-3.4,10.2-5.5
			c1.5-0.9,3.5-2.1,5.3-3.2c0,0,0,0,0,0s6-3.6,9.7-7.4c1.5-1.6,2.8-3.2,3.9-5.1c1.2-2.1,1.8-4.5,2.4-6.7c0.2-0.9,0.6-1.6,1-2.4
			c0.8-1.4,2.4-3.4,2.4-3.4c1.5-1.9,3.3-3.5,4.6-4.4c0.2-0.2,0.5-0.3,0.7-0.5c0,0,0.1,0,0.1-0.1c0.5-0.3,1.2-0.9,1.9-1.5
			c0.1,0,0.1-0.1,0.2-0.1c0.2-0.2,0.4-0.4,0.6-0.6c0,0,0.1-0.1,0.1-0.1c0.5-0.4,0.8-0.7,0.8-0.7l0,0c0.7-0.7,1.5-1.6,2.3-2.5
			c0,0,0.1-0.1,0.1-0.1c0.2-0.3,0.3-0.4,0.3-0.4c1.5-2,2.7-3.8,3.9-6c0.1-0.2,0.2-0.4,0.3-0.5c0.4-0.8,0.8-1.7,1.1-2.6
			c2.1-4.8,3.8-10.9,4.6-18.6c0.2-1.9,0.3-3.8,0.4-5.7c0.1-0.7,0.3-4.7-0.6-8.7c-0.2-1.4-0.5-2.8-0.8-4.2c-1.1-4.1-2.3-7.8-3.4-11.5
			c-0.1-0.7-0.2-1.4-0.3-2c-0.6-4.7-0.7-9.2-0.1-13.7c0.7-4.5,2.1-8.9,3.9-13.2c1.8-4.3,4.2-8.4,6.7-12.6c2.5-4.2,5-8.4,7.6-12.6
			c5.1-8.4,10.2-17.1,14.1-26.5c1.9-4.7,3.5-9.6,4.6-14.7l0.4-1.9c0.1-0.3,0.2-0.7,0.2-0.8l0-0.5l0-0.1c0.6-1.8,1.1-3.6,1.4-5.4
			c0.3-1.3,0.4-2.7,0.5-4.1C905.3-200,905.1-201.4,905.1-202.8"/>
	</g>
</g>
</svg>
