<?xml version="1.0" encoding="utf-8"?>
<!-- Generator: Adobe Illustrator 16.0.0, SVG Export Plug-In . SVG Version: 6.00 Build 0)  -->
<!DOCTYPE svg PUBLIC "-//W3C//DTD SVG 1.1//EN" "http://www.w3.org/Graphics/SVG/1.1/DTD/svg11.dtd">
<svg version="1.1" id="Layer_1" xmlns="http://www.w3.org/2000/svg" xmlns:xlink="http://www.w3.org/1999/xlink" x="0px" y="0px"
	 width="119.074px" height="271.001px" viewBox="0 0 119.074 271.001" enable-background="new 0 0 119.074 271.001"
	 xml:space="preserve">
<g>
	<g>
		<path d="M0,139.718h5.757v2.325H2.535v1.611h3.124v2.326H2.535v1.779h3.222v2.325H0V139.718z"/>
		<path d="M9.693,139.718h2.283l4.006,6.514l0.028-0.028l-0.112-6.486h2.536v10.366h-2.298l-3.95-6.303l-0.027,0.014l0.069,6.29
			H9.693V139.718z"/>
		<path d="M22.535,139.718h5.757v2.325H25.07v1.611h3.124v2.326H25.07v1.779h3.222v2.325h-5.757V139.718z"/>
		<path d="M32.229,139.718h3.277c1.821,0,2.521,0.224,3.194,0.743c0.854,0.672,1.274,1.765,1.274,2.83
			c0,1.19-0.616,2.941-2.577,3.264l2.815,3.53h-3.025l-2.396-3.348h-0.028v3.348h-2.535V139.718z M34.765,144.929h0.938
			c1.555,0,1.737-0.98,1.737-1.485c0-0.938-0.687-1.401-1.709-1.401h-0.967V144.929z"/>
		<path d="M54.003,144.187c0.014,0.182,0.014,0.336,0.014,0.546c0,3.474-2.661,5.561-5.533,5.561c-3.138,0-5.505-2.451-5.505-5.435
			c0-3.096,2.493-5.337,5.547-5.337c2.479,0,4.608,1.667,5.183,3.67h-2.97c-0.406-0.729-1.162-1.345-2.283-1.345
			c-1.303,0-2.829,0.966-2.829,3.012c0,2.171,1.541,3.109,2.844,3.109c1.316,0,2.199-0.658,2.479-1.667h-3.096v-2.115H54.003z"/>
		<path d="M59.095,146.316l-3.096-6.598h2.872l1.54,4.16l1.556-4.16h2.843l-3.067,6.598v3.768h-2.647V146.316z"/>
		<path d="M76.371,139.718l1.387,6.738h0.027l1.527-6.738h2.031l1.498,6.766h0.028l1.415-6.766h2.675l-2.745,10.366H81.89
			l-1.555-6.709h-0.028l-1.555,6.709h-2.396l-2.675-10.366H76.371z"/>
		<path d="M92.016,148.585l-0.546,1.499h-2.844l4.16-10.366h2.087l4.118,10.366H96.12l-0.504-1.499H92.016z M92.744,146.484h2.171
			l-1.064-3.544h-0.014h-0.028L92.744,146.484z"/>
		<path d="M103.222,139.718l2.087,7.27h0.028l2.102-7.27h2.731l-3.475,10.366h-2.731l-3.46-10.366H103.222z"/>
		<path d="M113.317,139.718h5.757v2.325h-3.222v1.611h3.124v2.326h-3.124v1.779h3.222v2.325h-5.757V139.718z"/>
	</g>
	<g>
		<path d="M26.59,185.634l-0.468,1.283h-2.435l3.562-8.875h1.787l3.526,8.875h-2.459l-0.432-1.283H26.59z M27.213,183.835h1.859
			l-0.912-3.034h-0.012h-0.023L27.213,183.835z"/>
		<path d="M35.183,178.042h2.938c0.995,0,2.771,0,3.922,1.655c0.611,0.84,0.815,1.787,0.815,2.759c0,2.422-1.199,4.461-4.569,4.461
			h-3.106V178.042z M37.45,184.927h0.972c1.691,0,2.171-1.175,2.171-2.435c0-0.503-0.108-1.139-0.432-1.643
			c-0.264-0.396-0.72-0.815-1.728-0.815H37.45V184.927z"/>
		<path d="M47.75,185.634l-0.468,1.283h-2.435l3.562-8.875h1.787l3.526,8.875h-2.459l-0.432-1.283H47.75z M48.373,183.835h1.859
			l-0.912-3.034h-0.012h-0.023L48.373,183.835z"/>
		<path d="M56.403,178.042h2.902c1.643,0,2.255,0.252,2.734,0.647c0.695,0.576,1.044,1.451,1.044,2.351
			c0,0.9-0.372,1.847-0.936,2.327c-0.612,0.516-1.212,0.768-2.591,0.768h-0.983v2.782h-2.171V178.042z M58.574,182.144h0.923
			c0.433,0,1.416,0,1.416-1.067c0-1.043-1.008-1.043-1.5-1.043h-0.839V182.144z"/>
		<path d="M67.136,180.033h-1.751v-1.991h5.757v1.991h-1.739v6.884h-2.267V180.033z"/>
		<path d="M73.808,178.042h2.267v8.875h-2.267V178.042z"/>
		<path d="M81.097,178.042l1.787,6.225h0.024l1.799-6.225h2.339l-2.975,8.875h-2.339l-2.962-8.875H81.097z"/>
		<path d="M89.762,178.042h4.929v1.991h-2.758v1.379h2.674v1.991h-2.674v1.523h2.758v1.991h-4.929V178.042z"/>
		<path d="M9.526,199.042h2.902c1.643,0,2.255,0.252,2.734,0.647c0.695,0.576,1.044,1.451,1.044,2.351
			c0,0.9-0.372,1.847-0.936,2.327c-0.612,0.516-1.212,0.768-2.591,0.768h-0.983v2.782H9.526V199.042z M11.697,203.144h0.923
			c0.433,0,1.416,0,1.416-1.067c0-1.043-1.008-1.043-1.5-1.043h-0.839V203.144z"/>
		<path d="M18.998,199.042h2.807c1.559,0,2.158,0.192,2.734,0.636c0.731,0.576,1.091,1.511,1.091,2.422
			c0,1.02-0.527,2.519-2.206,2.794l2.41,3.022h-2.591l-2.051-2.866h-0.023v2.866h-2.171V199.042z M21.168,203.504h0.804
			c1.331,0,1.486-0.839,1.486-1.271c0-0.803-0.587-1.199-1.463-1.199h-0.827V203.504z"/>
		<path d="M32.891,198.875c2.734,0,4.688,2.135,4.688,4.605s-1.942,4.605-4.701,4.605c-2.794,0-4.665-2.219-4.665-4.498
			c0-0.588,0.084-1.248,0.348-1.895C29.029,200.542,30.408,198.875,32.891,198.875z M32.926,206.094
			c1.607,0,2.387-1.463,2.387-2.603c0-1.151-0.779-2.626-2.41-2.626c-1.571,0-2.423,1.343-2.423,2.591
			C30.48,204.823,31.404,206.094,32.926,206.094z"/>
		<path d="M49.664,202.868c0.012,0.156,0.012,0.288,0.012,0.468c0,2.975-2.278,4.761-4.737,4.761c-2.687,0-4.713-2.099-4.713-4.653
			c0-2.65,2.135-4.569,4.749-4.569c2.123,0,3.946,1.427,4.438,3.142H46.87c-0.349-0.624-0.996-1.151-1.955-1.151
			c-1.115,0-2.423,0.828-2.423,2.579c0,1.859,1.319,2.663,2.435,2.663c1.128,0,1.883-0.563,2.123-1.427h-2.65v-1.811H49.664z"/>
		<path d="M52.729,199.042h2.807c1.559,0,2.158,0.192,2.734,0.636c0.731,0.576,1.091,1.511,1.091,2.422
			c0,1.02-0.527,2.519-2.206,2.794l2.41,3.022h-2.591l-2.051-2.866H54.9v2.866h-2.171V199.042z M54.9,203.504h0.804
			c1.331,0,1.486-0.839,1.486-1.271c0-0.803-0.587-1.199-1.463-1.199H54.9V203.504z"/>
		<path d="M62.468,199.042h4.929v1.991h-2.758v1.379h2.674v1.991h-2.674v1.523h2.758v1.991h-4.929V199.042z"/>
		<path d="M74.28,201.633c-0.048-0.3-0.119-0.863-0.815-0.863c-0.396,0-0.779,0.276-0.779,0.695c0,0.528,0.24,0.636,1.835,1.355
			c1.655,0.744,2.075,1.511,2.075,2.542c0,1.295-0.744,2.723-3.095,2.723c-2.566,0-3.202-1.679-3.202-2.818v-0.288h2.255
			c0,1.032,0.636,1.211,0.924,1.211c0.539,0,0.863-0.444,0.863-0.852c0-0.587-0.372-0.731-1.739-1.307
			c-0.624-0.252-2.171-0.875-2.171-2.543c0-1.667,1.619-2.614,3.106-2.614c0.875,0,1.823,0.324,2.398,1.007
			c0.528,0.648,0.563,1.248,0.588,1.751H74.28z"/>
		<path d="M83.236,201.633c-0.048-0.3-0.119-0.863-0.815-0.863c-0.396,0-0.779,0.276-0.779,0.695c0,0.528,0.24,0.636,1.835,1.355
			c1.655,0.744,2.075,1.511,2.075,2.542c0,1.295-0.744,2.723-3.095,2.723c-2.566,0-3.202-1.679-3.202-2.818v-0.288h2.255
			c0,1.032,0.636,1.211,0.924,1.211c0.539,0,0.863-0.444,0.863-0.852c0-0.587-0.372-0.731-1.739-1.307
			c-0.624-0.252-2.171-0.875-2.171-2.543c0-1.667,1.619-2.614,3.106-2.614c0.876,0,1.823,0.324,2.398,1.007
			c0.528,0.648,0.563,1.248,0.588,1.751H83.236z"/>
		<path d="M88.666,199.042h2.267v8.875h-2.267V199.042z"/>
		<path d="M95.955,199.042l1.787,6.225h0.024l1.799-6.225h2.339l-2.975,8.875H96.59l-2.962-8.875H95.955z"/>
		<path d="M104.62,199.042h4.929v1.991h-2.758v1.379h2.674v1.991h-2.674v1.523h2.758v1.991h-4.929V199.042z"/>
		<path d="M22.387,222.633c-0.048-0.3-0.119-0.863-0.815-0.863c-0.396,0-0.779,0.276-0.779,0.695c0,0.528,0.24,0.636,1.835,1.355
			c1.655,0.744,2.075,1.512,2.075,2.543c0,1.295-0.744,2.723-3.095,2.723c-2.566,0-3.202-1.68-3.202-2.818v-0.288h2.255
			c0,1.032,0.636,1.212,0.924,1.212c0.539,0,0.863-0.444,0.863-0.852c0-0.588-0.372-0.732-1.739-1.308
			c-0.624-0.252-2.171-0.876-2.171-2.543s1.619-2.614,3.106-2.614c0.875,0,1.823,0.324,2.398,1.007
			c0.528,0.648,0.563,1.248,0.588,1.751H22.387z"/>
		<path d="M36.436,225.595c-0.516,2.1-2.339,3.49-4.485,3.49c-2.782,0-4.678-2.219-4.678-4.617c0-2.267,1.751-4.594,4.654-4.594
			c2.782,0,4.27,2.147,4.509,3.538h-2.374c-0.252-0.66-0.924-1.547-2.147-1.547c-1.522,0-2.374,1.332-2.374,2.591
			c0,1.343,0.911,2.638,2.387,2.638c1.415,0,1.99-1.187,2.135-1.499H36.436z"/>
		<path d="M39.458,220.042h2.267v8.875h-2.267V220.042z"/>
		<path d="M45.23,220.042h4.929v1.991h-2.758v1.379h2.674v1.991h-2.674v1.523h2.758v1.99H45.23V220.042z"/>
		<path d="M53.547,220.042h1.955l3.43,5.576l0.024-0.023l-0.097-5.553h2.171v8.875h-1.967l-3.382-5.397l-0.024,0.012l0.061,5.385
			h-2.171V220.042z"/>
		<path d="M65.468,222.033h-1.751v-1.991h5.757v1.991h-1.739v6.884h-2.267V222.033z"/>
		<path d="M72.141,220.042h2.267v8.875h-2.267V220.042z"/>
		<path d="M77.914,220.042h4.845v1.991h-2.674v1.511h2.578v1.99h-2.578v3.383h-2.171V220.042z"/>
		<path d="M85.881,220.042h2.267v8.875h-2.267V220.042z"/>
		<path d="M100.391,225.595c-0.516,2.1-2.339,3.49-4.485,3.49c-2.782,0-4.678-2.219-4.678-4.617c0-2.267,1.751-4.594,4.654-4.594
			c2.782,0,4.27,2.147,4.509,3.538h-2.374c-0.252-0.66-0.924-1.547-2.147-1.547c-1.522,0-2.374,1.332-2.374,2.591
			c0,1.343,0.911,2.638,2.387,2.638c1.415,0,1.99-1.187,2.135-1.499H100.391z"/>
		<path d="M42.909,243.033h-1.751v-1.99h5.757v1.99h-1.739v6.885h-2.267V243.033z"/>
		<path d="M49.582,241.042h4.929v1.99h-2.758v1.38h2.674v1.991h-2.674v1.523h2.758v1.99h-4.929V241.042z"/>
		<path d="M66.566,246.595c-0.516,2.1-2.339,3.49-4.485,3.49c-2.782,0-4.678-2.219-4.678-4.617c0-2.268,1.751-4.594,4.654-4.594
			c2.782,0,4.27,2.146,4.509,3.538h-2.374c-0.252-0.659-0.924-1.548-2.147-1.548c-1.522,0-2.374,1.332-2.374,2.592
			c0,1.343,0.911,2.638,2.387,2.638c1.415,0,1.99-1.187,2.135-1.499H66.566z"/>
		<path d="M69.592,241.042h2.267v3.334h2.902v-3.334h2.267v8.875h-2.267v-3.55h-2.902v3.55h-2.267V241.042z"/>
		<path d="M33.609,262.042h1.955l3.43,5.576l0.024-0.023l-0.097-5.553h2.171v8.875h-1.967l-3.382-5.396l-0.024,0.012l0.061,5.385
			h-2.171V262.042z"/>
		<path d="M44.625,262.042h2.267v8.875h-2.267V262.042z"/>
		<path d="M50.397,262.042h2.914l1.764,5.841h0.023l1.739-5.841h2.926v8.875h-2.086l0.071-6.645l-0.023-0.023l-1.896,6.668h-1.499
			l-1.895-6.668l-0.024,0.023l0.072,6.645h-2.087V262.042z"/>
		<path d="M63.304,262.042h2.734c1.499,0,2.194,0.144,2.843,0.863c0.396,0.408,0.527,0.947,0.527,1.463
			c0,0.684-0.312,1.38-1.031,1.787c1.427,0.504,1.463,1.691,1.463,2.062c0,0.709-0.275,1.488-0.815,1.932
			c-0.815,0.684-1.403,0.768-2.902,0.768h-2.818V262.042z M65.475,265.413h0.804c0.312,0,0.959,0,0.959-0.708
			c0-0.672-0.611-0.672-0.959-0.672h-0.804V265.413z M65.475,268.927h1.067c0.288,0,1.127,0,1.127-0.852
			c0-0.768-0.768-0.768-1.127-0.768h-1.067V268.927z"/>
		<path d="M72.987,262.042h2.267v6.885h2.627v1.99h-4.894V262.042z"/>
		<path d="M80.536,262.042h4.929v1.99h-2.758v1.38h2.674v1.991h-2.674v1.523h2.758v1.99h-4.929V262.042z"/>
	</g>
	<g>
		<g>
			<g>
				<path d="M44.55,33.624c3.561,3.909,7.596,8.338,15.451,8.338s11.891-4.43,15.453-8.338c3.502-3.845,6.527-7.166,12.799-7.166
					c0.709,0,1.373,0.044,2.006,0.125v-3.611c-0.641-0.066-1.309-0.103-2.006-0.103c-7.855,0-11.893,4.43-15.453,8.338
					c-3.502,3.845-6.529,7.167-12.799,7.167s-9.295-3.321-12.799-7.167c-3.561-3.908-7.596-8.338-15.451-8.338v3.589
					C38.021,26.458,41.046,29.779,44.55,33.624z"/>
			</g>
			<g>
				<path d="M44.55,45.768c3.561,3.908,7.596,8.338,15.451,8.338s11.891-4.43,15.453-8.338c3.502-3.845,6.527-7.166,12.799-7.166
					c0.709,0,1.373,0.045,2.006,0.125v-3.611c-0.641-0.067-1.309-0.104-2.006-0.104c-7.855,0-11.893,4.43-15.453,8.338
					c-3.502,3.846-6.529,7.166-12.799,7.166s-9.295-3.32-12.799-7.166c-3.561-3.908-7.596-8.338-15.451-8.338v3.589
					C38.021,38.602,41.046,41.923,44.55,45.768z"/>
			</g>
			<g>
				<path d="M90.259,59.405c-0.641-0.066-1.309-0.104-2.006-0.104c-7.855,0-11.893,4.43-15.453,8.338
					c-3.502,3.846-6.529,7.167-12.799,7.167s-9.295-3.321-12.799-7.167c-3.561-3.908-7.596-8.338-15.451-8.338v3.589
					c6.27,0,9.295,3.321,12.799,7.167c3.561,3.908,7.596,8.338,15.451,8.338s11.891-4.43,15.453-8.338
					c3.502-3.845,6.527-7.167,12.799-7.167c0.709,0,1.373,0.045,2.006,0.126V59.405z"/>
			</g>
			<g>
				<path d="M44.55,57.913c3.561,3.908,7.596,8.338,15.451,8.338s11.891-4.43,15.453-8.338c3.502-3.846,6.527-7.166,12.799-7.166
					c0.709,0,1.373,0.044,2.006,0.125V47.26c-0.641-0.066-1.309-0.103-2.006-0.103c-7.855,0-11.893,4.43-15.453,8.338
					c-3.502,3.845-6.529,7.166-12.799,7.166s-9.295-3.321-12.799-7.166c-3.561-3.908-7.596-8.338-15.451-8.338v3.589
					C38.021,50.747,41.046,54.067,44.55,57.913z"/>
			</g>
		</g>
		<g>
			<path d="M59.536,94.087c-12.555,0-24.357-4.889-33.234-13.767S12.536,59.64,12.536,47.085s4.889-24.357,13.766-33.235
				C35.179,4.973,46.983,0.084,59.536,0.084c12.555,0,24.359,4.889,33.236,13.766c8.877,8.878,13.766,20.681,13.766,33.235
				s-4.889,24.358-13.766,33.235S72.091,94.087,59.536,94.087z M59.536,7.118c-10.674,0-20.711,4.158-28.26,11.707
				S19.569,36.41,19.569,47.085s4.158,20.712,11.707,28.262c7.549,7.549,17.586,11.706,28.26,11.706
				c10.676,0,20.713-4.157,28.262-11.706c7.549-7.549,11.707-17.586,11.707-28.262s-4.158-20.712-11.707-28.261
				S70.212,7.118,59.536,7.118z"/>
		</g>
	</g>
</g>
</svg>
