<?xml version="1.0" encoding="utf-8"?>
<!-- Generator: Adobe Illustrator 18.1.1, SVG Export Plug-In . SVG Version: 6.00 Build 0)  -->
<svg version="1.1" id="Layer_1" xmlns="http://www.w3.org/2000/svg" xmlns:xlink="http://www.w3.org/1999/xlink" x="0px" y="0px"
	 viewBox="-193 -1 94 271" enable-background="new -193 -1 94 271" xml:space="preserve">
<g>
	<g>
		<path d="M-162.6,138.6h5.7v2.3h-3.1v1.8h3v2.3h-3v4h-2.5V138.6z"/>
		<path d="M-153.3,138.6h2.6V149h-2.6V138.6z"/>
		<path d="M-146.5,138.6h3.3c1.8,0,2.5,0.2,3.2,0.7c0.9,0.7,1.3,1.8,1.3,2.8c0,1.2-0.6,2.9-2.6,3.3l2.8,3.5h-3l-2.4-3.3h0v3.3h-2.5
			L-146.5,138.6L-146.5,138.6z M-144,143.8h0.9c1.6,0,1.7-1,1.7-1.5c0-0.9-0.7-1.4-1.7-1.4h-1L-144,143.8L-144,143.8z"/>
		<path d="M-135.2,138.6h5.8v2.3h-3.2v1.6h3.1v2.3h-3.1v1.8h3.2v2.3h-5.8V138.6z"/>
	</g>
	<g>
		<path d="M-190.2,177h2.9c1.6,0,2.3,0.3,2.7,0.6c0.7,0.6,1,1.5,1,2.4s-0.4,1.8-0.9,2.3c-0.6,0.5-1.2,0.8-2.6,0.8h-1v2.8h-2.2
			C-190.2,185.8-190.2,177-190.2,177z M-188,181.1h0.9c0.4,0,1.4,0,1.4-1.1c0-1-1-1-1.5-1h-0.8C-188,178.9-188,181.1-188,181.1z"/>
		<path d="M-179.2,184.5l-0.5,1.3h-2.4l3.6-8.9h1.8l3.5,8.9h-2.5l-0.4-1.3H-179.2z M-178.5,182.8h1.9l-0.9-3h0h0L-178.5,182.8z"/>
		<path d="M-167.1,179.5c0-0.3-0.1-0.9-0.8-0.9c-0.4,0-0.8,0.3-0.8,0.7c0,0.5,0.2,0.6,1.8,1.4c1.7,0.7,2.1,1.5,2.1,2.5
			c0,1.3-0.7,2.7-3.1,2.7c-2.6,0-3.2-1.7-3.2-2.8v-0.3h2.3c0,1,0.6,1.2,0.9,1.2c0.5,0,0.9-0.4,0.9-0.9c0-0.6-0.4-0.7-1.7-1.3
			c-0.6-0.3-2.2-0.9-2.2-2.5c0-1.7,1.6-2.6,3.1-2.6c0.9,0,1.8,0.3,2.4,1c0.5,0.6,0.6,1.2,0.6,1.8L-167.1,179.5L-167.1,179.5z"/>
		<path d="M-158.2,179.5c0-0.3-0.1-0.9-0.8-0.9c-0.4,0-0.8,0.3-0.8,0.7c0,0.5,0.2,0.6,1.8,1.4c1.7,0.7,2.1,1.5,2.1,2.5
			c0,1.3-0.7,2.7-3.1,2.7c-2.6,0-3.2-1.7-3.2-2.8v-0.3h2.3c0,1,0.6,1.2,0.9,1.2c0.5,0,0.9-0.4,0.9-0.9c0-0.6-0.4-0.7-1.7-1.3
			c-0.6-0.3-2.2-0.9-2.2-2.5c0-1.7,1.6-2.6,3.1-2.6c0.9,0,1.8,0.3,2.4,1c0.5,0.6,0.6,1.2,0.6,1.8L-158.2,179.5L-158.2,179.5z"/>
		<path d="M-152.8,177h2.3v8.9h-2.3V177z"/>
		<path d="M-142.7,176.8c2.7,0,4.7,2.1,4.7,4.6s-1.9,4.6-4.7,4.6c-2.8,0-4.7-2.2-4.7-4.5c0-0.6,0.1-1.2,0.3-1.9
			C-146.6,178.5-145.2,176.8-142.7,176.8z M-142.7,184c1.6,0,2.4-1.5,2.4-2.6c0-1.2-0.8-2.6-2.4-2.6c-1.6,0-2.4,1.3-2.4,2.6
			C-145.1,182.7-144.2,184-142.7,184z"/>
		<path d="M-134.9,177h2l3.4,5.6l0,0l-0.1-5.6h2.2v8.9h-2l-3.4-5.4l0,0l0.1,5.4h-2.2L-134.9,177L-134.9,177z"/>
		<path d="M-121.9,184.5l-0.5,1.3h-2.4l3.6-8.9h1.8l3.5,8.9h-2.5l-0.4-1.3H-121.9z M-121.2,182.8h1.9l-0.9-3h0h0L-121.2,182.8z"/>
		<path d="M-112.7,178.9h-1.8v-2h5.8v2h-1.7v6.9h-2.3V178.9z"/>
		<path d="M-106,177h4.9v2h-2.8v1.4h2.7v2h-2.7v1.5h2.8v2h-4.9V177z"/>
		<path d="M-167.6,203.5c-0.5,2.1-2.3,3.5-4.5,3.5c-2.8,0-4.7-2.2-4.7-4.6c0-2.3,1.8-4.6,4.7-4.6c2.8,0,4.3,2.1,4.5,3.5h-2.4
			c-0.3-0.7-0.9-1.5-2.1-1.5c-1.5,0-2.4,1.3-2.4,2.6c0,1.3,0.9,2.6,2.4,2.6c1.4,0,2-1.2,2.1-1.5L-167.6,203.5L-167.6,203.5z"/>
		<path d="M-164.6,198h2.3v3.3h2.9V198h2.3v8.9h-2.3v-3.6h-2.9v3.6h-2.3C-164.6,206.8-164.6,198-164.6,198z"/>
		<path d="M-151.6,205.5l-0.5,1.3h-2.4l3.6-8.9h1.8l3.5,8.9h-2.5l-0.4-1.3H-151.6z M-150.9,203.8h1.9l-0.9-3h0h0L-150.9,203.8z"/>
		<path d="M-142.9,198h2l3.4,5.6l0,0l-0.1-5.6h2.2v8.9h-2l-3.4-5.4l0,0l0.1,5.4h-2.2C-142.9,206.8-142.9,198-142.9,198z"/>
		<path d="M-122.9,201.8c0,0.2,0,0.3,0,0.5c0,3-2.3,4.8-4.7,4.8c-2.7,0-4.7-2.1-4.7-4.7c0-2.6,2.1-4.6,4.8-4.6
			c2.1,0,3.9,1.4,4.4,3.1h-2.5c-0.3-0.6-1-1.2-2-1.2c-1.1,0-2.4,0.8-2.4,2.6c0,1.9,1.3,2.7,2.4,2.7c1.1,0,1.9-0.6,2.1-1.4h-2.7v-1.8
			L-122.9,201.8L-122.9,201.8z"/>
		<path d="M-119.8,198h4.9v2h-2.8v1.4h2.7v2h-2.7v1.5h2.8v2h-4.9V198z"/>
		<path d="M-185,219h4.9v2h-2.8v1.4h2.7v2h-2.7v1.5h2.8v2h-4.9C-185,227.8-185,219-185,219z"/>
		<path d="M-176.7,219h2.3v6.9h2.6v2h-4.9C-176.7,227.8-176.7,219-176.7,219z"/>
		<path d="M-169.1,219h4.9v2h-2.8v1.4h2.7v2h-2.7v1.5h2.8v2h-4.9V219z"/>
		<path d="M-160.8,219h2.9l1.8,5.8h0l1.7-5.8h2.9v8.9h-2.1l0.1-6.6l0,0l-1.9,6.7h-1.5l-1.9-6.7l0,0l0.1,6.6h-2.1
			C-160.8,227.8-160.8,219-160.8,219z"/>
		<path d="M-147.9,219h4.9v2h-2.8v1.4h2.7v2h-2.7v1.5h2.8v2h-4.9V219z"/>
		<path d="M-139.6,219h2l3.4,5.6l0,0l-0.1-5.6h2.2v8.9h-2l-3.4-5.4l0,0l0.1,5.4h-2.2V219z"/>
		<path d="M-127.7,220.9h-1.8v-2h5.8v2h-1.7v6.9h-2.3C-127.7,227.8-127.7,220.9-127.7,220.9z"/>
		<path d="M-119.3,226.5l-0.5,1.3h-2.4l3.6-8.9h1.8l3.5,8.9h-2.5l-0.4-1.3H-119.3z M-118.7,224.8h1.9l-0.9-3h0h0L-118.7,224.8z"/>
		<path d="M-110.6,219h2.3v6.9h2.6v2h-4.9V219z"/>
		<path d="M-189.2,247.5l-0.5,1.3h-2.4l3.6-8.9h1.8l3.5,8.9h-2.5l-0.4-1.3H-189.2z M-188.5,245.8h1.9l-0.9-3h0h0L-188.5,245.8z"/>
		<path d="M-171.9,243.8c0,0.2,0,0.3,0,0.5c0,3-2.3,4.8-4.7,4.8c-2.7,0-4.7-2.1-4.7-4.7c0-2.6,2.1-4.6,4.8-4.6
			c2.1,0,3.9,1.4,4.4,3.1h-2.5c-0.3-0.6-1-1.2-2-1.2c-1.1,0-2.4,0.8-2.4,2.6c0,1.9,1.3,2.7,2.4,2.7c1.1,0,1.9-0.6,2.1-1.4h-2.6v-1.8
			L-171.9,243.8L-171.9,243.8z"/>
		<path d="M-159.8,243.8c0,0.2,0,0.3,0,0.5c0,3-2.3,4.8-4.7,4.8c-2.7,0-4.7-2.1-4.7-4.7c0-2.6,2.1-4.6,4.7-4.6
			c2.1,0,3.9,1.4,4.4,3.1h-2.5c-0.3-0.6-1-1.2-2-1.2c-1.1,0-2.4,0.8-2.4,2.6c0,1.9,1.3,2.7,2.4,2.7c1.1,0,1.9-0.6,2.1-1.4h-2.7v-1.8
			L-159.8,243.8L-159.8,243.8z"/>
		<path d="M-156.7,240h2.8c1.6,0,2.2,0.2,2.7,0.6c0.7,0.6,1.1,1.5,1.1,2.4c0,1-0.5,2.5-2.2,2.8l2.4,3h-2.6l-2.1-2.9h0v2.9h-2.2
			C-156.7,248.8-156.7,240-156.7,240z M-154.6,244.4h0.8c1.3,0,1.5-0.8,1.5-1.3c0-0.8-0.6-1.2-1.5-1.2h-0.8V244.4z"/>
		<path d="M-147,240h4.9v2h-2.8v1.4h2.7v2h-2.7v1.5h2.8v2h-4.9C-147,248.8-147,240-147,240z"/>
		<path d="M-135.2,242.5c0-0.3-0.1-0.9-0.8-0.9c-0.4,0-0.8,0.3-0.8,0.7c0,0.5,0.2,0.6,1.8,1.4c1.7,0.7,2.1,1.5,2.1,2.5
			c0,1.3-0.7,2.7-3.1,2.7c-2.6,0-3.2-1.7-3.2-2.8v-0.3h2.3c0,1,0.6,1.2,0.9,1.2c0.5,0,0.9-0.4,0.9-0.9c0-0.6-0.4-0.7-1.7-1.3
			c-0.6-0.3-2.2-0.9-2.2-2.5c0-1.7,1.6-2.6,3.1-2.6c0.9,0,1.8,0.3,2.4,1c0.5,0.6,0.6,1.2,0.6,1.8L-135.2,242.5L-135.2,242.5z"/>
		<path d="M-126.2,242.5c0-0.3-0.1-0.9-0.8-0.9c-0.4,0-0.8,0.3-0.8,0.7c0,0.5,0.2,0.6,1.8,1.4c1.7,0.7,2.1,1.5,2.1,2.5
			c0,1.3-0.7,2.7-3.1,2.7c-2.6,0-3.2-1.7-3.2-2.8v-0.3h2.3c0,1,0.6,1.2,0.9,1.2c0.5,0,0.9-0.4,0.9-0.9c0-0.6-0.4-0.7-1.7-1.3
			c-0.6-0.3-2.2-0.9-2.2-2.5c0-1.7,1.6-2.6,3.1-2.6c0.9,0,1.8,0.3,2.4,1c0.5,0.6,0.6,1.2,0.6,1.8L-126.2,242.5L-126.2,242.5z"/>
		<path d="M-120.8,240h2.3v8.9h-2.3V240z"/>
		<path d="M-113.5,240l1.8,6.2h0l1.8-6.2h2.3l-3,8.9h-2.3l-3-8.9H-113.5z"/>
		<path d="M-104.9,240h4.9v2h-2.8v1.4h2.7v2h-2.7v1.5h2.8v2h-4.9V240z"/>
		<path d="M-158.7,261h2.3v6.9h2.6v2h-4.9C-158.7,269.8-158.7,261-158.7,261z"/>
		<path d="M-151.2,261h2.3v8.9h-2.3V261z"/>
		<path d="M-145.4,261h4.8v2h-2.7v1.5h2.6v2h-2.6v3.4h-2.2V261z"/>
		<path d="M-137.4,261h4.9v2h-2.8v1.4h2.7v2h-2.7v1.5h2.8v2h-4.9V261z"/>
	</g>
</g>
<path fill="#231F20" d="M-114.1,12.9c-8.5-8.5-19.9-13.2-31.9-13.2c-12.1,0-23.4,4.7-31.9,13.2c-8.5,8.5-13.2,19.9-13.2,31.9
	c0,12.1,4.7,23.4,13.2,31.9c8.5,8.5,19.9,13.2,31.9,13.2c12.1,0,23.4-4.7,31.9-13.2c8.5-8.5,13.2-19.9,13.2-31.9
	C-100.8,32.8-105.5,21.5-114.1,12.9z M-118.8,72c-7.3,7.3-16.9,11.2-27.2,11.2c-10.3,0-19.9-4-27.2-11.2
	c-7.3-7.3-11.2-16.9-11.2-27.2c0-10.3,4-19.9,11.2-27.2c7.3-7.3,16.9-11.2,27.2-11.2c10.3,0,19.9,4,27.2,11.2
	c7.3,7.3,11.2,16.9,11.2,27.2C-107.6,55.1-111.6,64.8-118.8,72z"/>
<g>
	<path fill="#231F20" d="M-125.8,42.9c-1.8-3.8-4.6-7-9.1-10.2c-2.1-1.5-3.7-2.9-5-4.2c-2.2-2.3-3-4.8-2.6-7.5
		c0.1-0.5,0.3-1,0.4-1.6c0.1-0.3,0.2-0.7,0.3-1.1l1.5-5.2l-4.4,3.1c-0.4,0.3-0.8,0.6-1.2,0.8c-0.8,0.6-1.6,1.1-2.4,1.7
		c-5.3,4.1-8.5,9.4-9.6,15.7c-0.2,1.4-0.4,2.8-0.4,4.2c0-0.8-0.1-1.7,0-2.6l0-1c0.1-1.8,0.5-3.9,1.4-5.7c0,0-0.6,0.3-1.9,1.7
		c0,0-0.1,0-0.1,0.1c-0.4,0.4-2.5,2.7-2.5,2.7l-0.7,1c-0.1,0.2-0.3,0.4-0.5,0.6c-0.5,0.7-1.1,1.5-1.8,2.4c0,0,0,0,0,0
		c-0.2,0.2-0.3,0.5-0.5,0.8c-2.6,4.1-3.8,8.9-3.7,15c0.2,8.1,3.5,14.5,10.1,18.9c3.9,2.6,8,3.9,12.2,3.9c2.4,0,4.8-0.4,7.3-1.3
		c4-1.4,7.3-3.6,9.8-6.5c2.5-2.9,4.2-6.5,5-10.7C-123,52.5-123.6,47.6-125.8,42.9z M-127.8,56.9c-1.4,7.1-5.6,12-12.4,14.4
		c-2,0.7-4,1.1-6,1.1c-3.4,0-6.8-1.1-10.1-3.3c-5.5-3.7-8.2-8.9-8.4-15.8c-0.1-5.1,0.8-9,2.7-12.4c0.5,3.3,1.9,6.5,5.3,9.1l3.8,2.9
		l-0.8-4.7c0-0.2-0.1-0.4-0.1-0.6c-0.1-0.4-0.1-0.9-0.2-1.3c-0.8-4.2-0.9-8-0.3-11.5c0.9-5.2,3.3-9.4,7.6-12.9
		c-0.1,3.3,1.2,6.3,3.7,9c1.5,1.5,3.2,3,5.5,4.7c4,2.9,6.4,5.6,7.9,8.8C-127.4,48.4-126.9,52.6-127.8,56.9z"/>
	<path fill="#231F20" d="M-135,41.7c-2.1-2.3-4.9-3.9-7.5-4.5l-3.7-0.8l2.3,3c2.6,3.4,3.6,7,3,10.9c-0.4,2.4-1.3,4.5-2.8,6.3
		c0,0,0-0.1,0-0.1c0.4-1.8,0.4-4.5-0.3-5.8l-1.6-2.9l-1,3.1c-1.8,5.8-5.6,9.2-11.5,10.3l-2,0.4l1.1,1.7c1.7,2.7,6.5,5.7,12.1,5.7
		c0,0,0,0,0,0c1.5,0,2.9-0.2,4.3-0.6c3.5-1,6.7-3.2,8.8-6.2c2.2-3.1,3.3-6.7,3-10.6C-131.1,46.9-133.2,43.6-135,41.7z M-143.4,65.7
		c-1.2,0.3-2.4,0.5-3.6,0.5c-2.3,0-6-0.9-8.3-2.8c3.4-1,6.1-2.8,8.2-5.4c-0.1,0.3-0.2,0.6-0.3,0.9c-0.2,0.5-0.3,1-0.5,1.5l-1.1,3.7
		l3.2-2.1c4.2-2.8,6.7-6.5,7.5-11.2c0.5-3.2,0.1-6.3-1.2-9.3c3.7,2.5,5.7,7.1,5.9,10.3C-133.1,58.3-137.2,64-143.4,65.7z"/>
</g>
</svg>
