<?xml version="1.0" encoding="utf-8"?>
<!-- Generator: Adobe Illustrator 16.0.0, SVG Export Plug-In . SVG Version: 6.00 Build 0)  -->
<!DOCTYPE svg PUBLIC "-//W3C//DTD SVG 1.1//EN" "http://www.w3.org/Graphics/SVG/1.1/DTD/svg11.dtd">
<svg version="1.1" id="Layer_1" xmlns="http://www.w3.org/2000/svg" xmlns:xlink="http://www.w3.org/1999/xlink" x="0px" y="0px"
	 width="94.004px" height="271.001px" viewBox="0 0 94.004 271.001" enable-background="new 0 0 94.004 271.001"
	 xml:space="preserve">
<g>
	<g>
		<path d="M30.44,139.634h5.658v2.325h-3.123v1.765h3.012v2.325h-3.012V150H30.44V139.634z"/>
		<path d="M39.729,139.634h2.648V150h-2.648V139.634z"/>
		<path d="M46.452,139.634h3.277c1.822,0,2.521,0.224,3.195,0.743c0.854,0.672,1.273,1.765,1.273,2.83
			c0,1.19-0.615,2.941-2.576,3.264l2.814,3.53h-3.025l-2.395-3.348h-0.029V150h-2.535V139.634z M48.987,144.845h0.939
			c1.555,0,1.736-0.98,1.736-1.485c0-0.938-0.686-1.401-1.709-1.401h-0.967V144.845z"/>
		<path d="M57.806,139.634h5.758v2.325h-3.223v1.611h3.125v2.326h-3.125v1.779h3.223V150h-5.758V139.634z"/>
	</g>
	<g>
		<path d="M2.787,177.958h2.902c1.643,0,2.254,0.252,2.734,0.647c0.695,0.576,1.043,1.451,1.043,2.351
			c0,0.9-0.371,1.847-0.936,2.327c-0.611,0.516-1.211,0.768-2.59,0.768H4.957v2.782h-2.17V177.958z M4.957,182.06h0.924
			c0.432,0,1.416,0,1.416-1.067c0-1.043-1.008-1.043-1.5-1.043h-0.84V182.06z"/>
		<path d="M13.836,185.55l-0.469,1.283h-2.434l3.561-8.875h1.787l3.527,8.875H17.35l-0.432-1.283H13.836z M14.459,183.751h1.859
			l-0.912-3.034h-0.012h-0.023L14.459,183.751z"/>
		<path d="M25.852,180.549c-0.049-0.3-0.119-0.863-0.816-0.863c-0.395,0-0.779,0.276-0.779,0.695c0,0.528,0.24,0.636,1.836,1.355
			c1.654,0.744,2.074,1.511,2.074,2.542c0,1.295-0.744,2.723-3.094,2.723c-2.566,0-3.203-1.679-3.203-2.818v-0.288h2.256
			c0,1.032,0.635,1.211,0.924,1.211c0.539,0,0.863-0.444,0.863-0.852c0-0.587-0.373-0.731-1.74-1.307
			c-0.623-0.252-2.17-0.875-2.17-2.543c0-1.667,1.619-2.614,3.105-2.614c0.877,0,1.824,0.324,2.398,1.007
			c0.529,0.648,0.564,1.248,0.588,1.751H25.852z"/>
		<path d="M34.807,180.549c-0.047-0.3-0.119-0.863-0.814-0.863c-0.396,0-0.779,0.276-0.779,0.695c0,0.528,0.24,0.636,1.834,1.355
			c1.656,0.744,2.076,1.511,2.076,2.542c0,1.295-0.744,2.723-3.096,2.723c-2.566,0-3.201-1.679-3.201-2.818v-0.288h2.254
			c0,1.032,0.637,1.211,0.924,1.211c0.539,0,0.863-0.444,0.863-0.852c0-0.587-0.371-0.731-1.738-1.307
			c-0.625-0.252-2.172-0.875-2.172-2.543c0-1.667,1.619-2.614,3.107-2.614c0.875,0,1.822,0.324,2.398,1.007
			c0.527,0.648,0.562,1.248,0.588,1.751H34.807z"/>
		<path d="M40.236,177.958h2.268v8.875h-2.268V177.958z"/>
		<path d="M50.273,177.791c2.734,0,4.689,2.135,4.689,4.605s-1.943,4.605-4.703,4.605c-2.793,0-4.664-2.219-4.664-4.498
			c0-0.588,0.084-1.248,0.348-1.895C46.41,179.458,47.789,177.791,50.273,177.791z M50.309,185.01c1.607,0,2.387-1.463,2.387-2.603
			c0-1.151-0.779-2.626-2.41-2.626c-1.572,0-2.424,1.343-2.424,2.591C47.861,183.739,48.785,185.01,50.309,185.01z"/>
		<path d="M58.064,177.958h1.955l3.43,5.577l0.023-0.024l-0.096-5.553h2.17v8.875H63.58l-3.381-5.397l-0.025,0.012l0.061,5.385
			h-2.17V177.958z"/>
		<path d="M71.131,185.55l-0.467,1.283h-2.436l3.562-8.875h1.787l3.525,8.875h-2.459l-0.432-1.283H71.131z M71.754,183.751h1.859
			l-0.912-3.034h-0.012h-0.023L71.754,183.751z"/>
		<path d="M80.311,179.949h-1.75v-1.991h5.756v1.991h-1.738v6.884h-2.268V179.949z"/>
		<path d="M86.984,177.958h4.928v1.991h-2.758v1.379h2.674v1.991h-2.674v1.523h2.758v1.991h-4.928V177.958z"/>
		<path d="M25.395,204.511c-0.516,2.099-2.338,3.49-4.484,3.49c-2.783,0-4.678-2.219-4.678-4.618c0-2.267,1.75-4.593,4.654-4.593
			c2.781,0,4.27,2.147,4.508,3.538h-2.373c-0.252-0.66-0.924-1.547-2.148-1.547c-1.521,0-2.373,1.332-2.373,2.591
			c0,1.343,0.91,2.638,2.387,2.638c1.414,0,1.99-1.187,2.135-1.499H25.395z"/>
		<path d="M28.424,198.958h2.266v3.334h2.902v-3.334h2.268v8.875h-2.268v-3.55h-2.902v3.55h-2.266V198.958z"/>
		<path d="M41.436,206.55l-0.467,1.283h-2.436l3.562-8.875h1.787l3.525,8.875h-2.459l-0.432-1.283H41.436z M42.059,204.751h1.859
			l-0.912-3.034h-0.012h-0.023L42.059,204.751z"/>
		<path d="M50.088,198.958h1.955l3.43,5.577l0.025-0.024l-0.098-5.553h2.172v8.875h-1.967l-3.383-5.397l-0.023,0.012l0.061,5.385
			h-2.172V198.958z"/>
		<path d="M70.113,202.784c0.012,0.156,0.012,0.288,0.012,0.468c0,2.975-2.279,4.761-4.738,4.761c-2.686,0-4.713-2.099-4.713-4.653
			c0-2.65,2.135-4.569,4.75-4.569c2.123,0,3.945,1.427,4.438,3.142h-2.543c-0.348-0.624-0.996-1.151-1.955-1.151
			c-1.115,0-2.422,0.828-2.422,2.579c0,1.859,1.318,2.663,2.434,2.663c1.129,0,1.883-0.563,2.123-1.427h-2.65v-1.811H70.113z"/>
		<path d="M73.178,198.958h4.93v1.991H75.35v1.379h2.674v1.991H75.35v1.523h2.758v1.991h-4.93V198.958z"/>
		<path d="M7.965,219.958h4.93v1.991h-2.758v1.379h2.674v1.991h-2.674v1.523h2.758v1.991h-4.93V219.958z"/>
		<path d="M16.312,219.958h2.266v6.884h2.627v1.991h-4.893V219.958z"/>
		<path d="M23.861,219.958h4.928v1.991h-2.758v1.379h2.674v1.991h-2.674v1.523h2.758v1.991h-4.928V219.958z"/>
		<path d="M32.178,219.958h2.914l1.764,5.841h0.023l1.738-5.841h2.928v8.875h-2.088l0.072-6.645l-0.023-0.024l-1.896,6.668h-1.498
			l-1.895-6.668l-0.025,0.024l0.072,6.645h-2.086V219.958z"/>
		<path d="M45.084,219.958h4.93v1.991h-2.758v1.379h2.674v1.991h-2.674v1.523h2.758v1.991h-4.93V219.958z"/>
		<path d="M53.402,219.958h1.955l3.43,5.577l0.023-0.024l-0.096-5.553h2.17v8.875h-1.967l-3.381-5.397l-0.025,0.012l0.061,5.385
			h-2.17V219.958z"/>
		<path d="M65.324,221.949h-1.752v-1.991h5.758v1.991h-1.74v6.884h-2.266V221.949z"/>
		<path d="M73.676,227.55l-0.469,1.283h-2.434l3.561-8.875h1.787l3.527,8.875h-2.459l-0.432-1.283H73.676z M74.299,225.751h1.859
			l-0.912-3.034h-0.012h-0.023L74.299,225.751z"/>
		<path d="M82.357,219.958h2.266v6.884h2.627v1.991h-4.893V219.958z"/>
		<path d="M3.828,248.55l-0.467,1.283H0.926l3.562-8.875h1.787l3.525,8.875H7.342L6.91,248.55H3.828z M4.451,246.751h1.859
			l-0.912-3.034H5.387H5.363L4.451,246.751z"/>
		<path d="M21.123,244.784c0.012,0.156,0.012,0.288,0.012,0.468c0,2.975-2.279,4.761-4.738,4.761c-2.686,0-4.713-2.099-4.713-4.653
			c0-2.65,2.135-4.569,4.75-4.569c2.123,0,3.945,1.427,4.438,3.142h-2.543c-0.348-0.624-0.996-1.151-1.955-1.151
			c-1.115,0-2.422,0.828-2.422,2.579c0,1.859,1.318,2.663,2.434,2.663c1.129,0,1.883-0.563,2.123-1.427h-2.65v-1.811H21.123z"/>
		<path d="M33.193,244.784c0.012,0.156,0.012,0.288,0.012,0.468c0,2.975-2.277,4.761-4.736,4.761c-2.688,0-4.713-2.099-4.713-4.653
			c0-2.65,2.135-4.569,4.748-4.569c2.123,0,3.947,1.427,4.438,3.142H30.4c-0.348-0.624-0.996-1.151-1.955-1.151
			c-1.115,0-2.424,0.828-2.424,2.579c0,1.859,1.32,2.663,2.436,2.663c1.127,0,1.883-0.563,2.123-1.427h-2.65v-1.811H33.193z"/>
		<path d="M36.26,240.958h2.807c1.559,0,2.158,0.192,2.734,0.636c0.73,0.576,1.09,1.511,1.09,2.422c0,1.02-0.527,2.519-2.205,2.794
			l2.41,3.022h-2.592l-2.051-2.866H38.43v2.866h-2.17V240.958z M38.43,245.42h0.805c1.33,0,1.486-0.839,1.486-1.271
			c0-0.803-0.588-1.199-1.463-1.199H38.43V245.42z"/>
		<path d="M45.998,240.958h4.93v1.991H48.17v1.379h2.674v1.991H48.17v1.523h2.758v1.991h-4.93V240.958z"/>
		<path d="M57.811,243.549c-0.049-0.3-0.119-0.863-0.816-0.863c-0.395,0-0.779,0.276-0.779,0.695c0,0.528,0.24,0.636,1.836,1.355
			c1.654,0.744,2.074,1.511,2.074,2.542c0,1.295-0.744,2.723-3.094,2.723c-2.566,0-3.203-1.679-3.203-2.818v-0.288h2.256
			c0,1.032,0.635,1.211,0.924,1.211c0.539,0,0.863-0.444,0.863-0.852c0-0.587-0.373-0.731-1.74-1.307
			c-0.623-0.252-2.17-0.875-2.17-2.543c0-1.667,1.619-2.614,3.105-2.614c0.877,0,1.824,0.324,2.398,1.007
			c0.529,0.648,0.564,1.248,0.588,1.751H57.811z"/>
		<path d="M66.766,243.549c-0.049-0.3-0.119-0.863-0.816-0.863c-0.395,0-0.779,0.276-0.779,0.695c0,0.528,0.24,0.636,1.836,1.355
			c1.654,0.744,2.074,1.511,2.074,2.542c0,1.295-0.744,2.723-3.094,2.723c-2.566,0-3.203-1.679-3.203-2.818v-0.288h2.256
			c0,1.032,0.635,1.211,0.924,1.211c0.539,0,0.863-0.444,0.863-0.852c0-0.587-0.373-0.731-1.74-1.307
			c-0.623-0.252-2.17-0.875-2.17-2.543c0-1.667,1.619-2.614,3.105-2.614c0.877,0,1.824,0.324,2.398,1.007
			c0.529,0.648,0.564,1.248,0.588,1.751H66.766z"/>
		<path d="M72.195,240.958h2.268v8.875h-2.268V240.958z"/>
		<path d="M79.484,240.958l1.787,6.225h0.025l1.799-6.225h2.338l-2.975,8.875h-2.338l-2.963-8.875H79.484z"/>
		<path d="M88.148,240.958h4.93v1.991H90.32v1.379h2.674v1.991H90.32v1.523h2.758v1.991h-4.93V240.958z"/>
		<path d="M34.277,261.958h2.266v6.884h2.627v1.991h-4.893V261.958z"/>
		<path d="M41.826,261.958h2.266v8.875h-2.266V261.958z"/>
		<path d="M47.598,261.958h4.844v1.991h-2.674v1.511h2.578v1.991h-2.578v3.382h-2.17V261.958z"/>
		<path d="M55.553,261.958h4.93v1.991h-2.758v1.379h2.674v1.991h-2.674v1.523h2.758v1.991h-4.93V261.958z"/>
	</g>
	<g>
		<path fill="none" d="M64.469,39.511c-0.326-1.619-0.846-3.159-1.541-4.567c-0.668-1.349-1.533-2.724-2.648-4.201l-0.016-0.022
			c-0.148-0.201-0.309-0.404-0.48-0.62c-0.1-0.125-0.199-0.251-0.299-0.378c-0.191-0.243-0.367-0.483-0.535-0.716
			c-0.094-0.127-0.186-0.254-0.279-0.38l-0.01-0.012c-0.6-0.812-1.098-1.471-1.57-2.069c-1.207-1.531-2.275-2.738-3.363-3.799
			c-0.361-0.352-0.713-0.675-1.057-0.972c0.24,0.331,0.465,0.662,0.678,0.996c0.973,1.535,1.641,3.117,1.986,4.701
			c0.369,1.66,0.4,3.398,0.088,5.159c-0.26,1.544-0.828,3.146-1.688,4.76l-0.014,0.024c-0.49,0.888-1.027,1.613-1.641,2.218
			c-0.672,0.67-1.465,1.218-2.346,1.623c-0.848,0.396-1.715,0.604-2.482,0.787l-0.057,0.013c-0.516,0.105-0.988,0.16-1.445,0.168
			c-0.598,0.013-1.17-0.067-1.691-0.238c-0.652-0.209-1.24-0.582-1.701-1.08c-0.262-0.279-0.441-0.566-0.566-0.786l-0.037-0.067
			c-0.146-0.282-0.26-0.554-0.342-0.829c-0.004-0.016-0.01-0.03-0.014-0.046c-0.533,0.369-1.027,0.731-1.498,1.097
			c-1.541,1.197-2.754,2.378-3.707,3.609c-1.043,1.351-1.803,2.827-2.254,4.391c-0.441,1.504-0.633,3.19-0.572,5.021
			c0.029,0.807,0.09,1.693,0.186,2.705c0.096,0.973,0.215,1.831,0.367,2.621c0.18,0.922,0.393,1.73,0.652,2.469
			c0.277,0.794,0.621,1.567,1.027,2.303l0.012,0.022c0.17,0.32,0.377,0.646,0.596,0.992l0.041,0.064l0.373,0.536
			c0.092,0.129,0.172,0.253,0.24,0.361l0.178,0.272c0.471,0.7,0.986,1.398,1.578,2.135c0.598,0.739,1.17,1.392,1.752,1.99
			c0.279,0.286,0.543,0.542,0.797,0.773c0.586,0.147,1.201,0.244,1.842,0.29c1.561,0.118,3.178,0.018,4.818-0.299
			c1.57-0.303,3.154-0.789,4.707-1.446c1.545-0.655,2.998-1.454,4.32-2.374c1.408-0.981,2.613-2.066,3.584-3.223
			c0.959-1.144,1.789-2.519,2.465-4.085c0.594-1.4,1.061-2.986,1.383-4.704c0.281-1.511,0.467-3.157,0.562-5.034
			c0.078-1.608,0.105-3.311,0.084-5.198C64.904,42.592,64.752,40.969,64.469,39.511z M60.295,50.035
			c-0.199,2.809-1,5.66-2.314,8.249c-1.381,2.707-3.273,5.019-5.477,6.688c-1.229,0.93-2.545,1.654-3.916,2.155
			c-1.025,0.376-2.082,0.628-3.158,0.751c-0.342,0.342-0.801,0.521-1.264,0.521c-0.375,0-0.752-0.117-1.074-0.358
			c-0.393-0.294-0.703-0.625-0.955-0.91c-0.232-0.266-0.455-0.546-0.691-0.864c-0.383-0.517-0.758-1.077-1.15-1.716
			c-0.369-0.604-0.707-1.206-1.004-1.789c-0.178-0.351-0.326-0.669-0.455-0.974l-0.008-0.016c-0.148-0.358-0.301-0.745-0.391-1.189
			c-0.629-2.401-0.766-4.724-0.41-6.903c0.205-1.241,0.574-2.412,1.098-3.479l0.211-0.422c0.053-0.095,0.107-0.188,0.164-0.281
			c0.021-0.033,0.041-0.067,0.061-0.101l0.287-0.469l0.545-0.758l0.51-0.601l1.764-2.078l1.375,2.771
			c0.344,0.649,0.738,1.158,1.172,1.514c0.434,0.359,0.967,0.596,1.512,0.671c0.568,0.079,1.197,0.017,1.871-0.185
			c0.639-0.19,1.297-0.5,1.955-0.919c1.254-0.803,2.385-1.909,3.266-3.197c0.445-0.652,0.799-1.318,1.051-1.976
			c0.27-0.705,0.42-1.385,0.445-2.021l0.279-6.97l3.119,6.239c0.65,1.301,1.113,2.729,1.375,4.245
			C60.328,47.059,60.398,48.529,60.295,50.035z"/>
		<path fill="none" d="M52.482,52.367c-0.943,0.6-1.902,1.047-2.857,1.333c-1.17,0.351-2.312,0.451-3.393,0.302
			c-1.215-0.169-2.357-0.673-3.303-1.458c-0.227-0.186-0.445-0.39-0.654-0.61c-0.33,0.708-0.568,1.491-0.705,2.327
			c-0.277,1.693-0.16,3.531,0.352,5.46l0.029,0.132c0.027,0.143,0.119,0.369,0.189,0.537c0.098,0.229,0.213,0.474,0.352,0.748
			c0.252,0.497,0.543,1.015,0.863,1.538c0.336,0.547,0.654,1.022,0.973,1.453c0.061,0.08,0.117,0.156,0.174,0.229
			c0.971-0.061,1.928-0.263,2.852-0.601c1.039-0.38,2.041-0.934,2.984-1.646c1.771-1.344,3.309-3.229,4.443-5.455
			c1.1-2.162,1.768-4.54,1.934-6.872c0.035-0.528,0.047-1.051,0.029-1.562C55.596,49.885,54.123,51.316,52.482,52.367z"/>
		<path fill="none" d="M75.264,18.74C67.715,11.191,57.678,7.034,47.002,7.034S26.289,11.191,18.74,18.74S7.035,36.326,7.035,47.002
			s4.156,20.712,11.705,28.261s17.586,11.706,28.262,11.706s20.713-4.157,28.262-11.706s11.705-17.585,11.705-28.261
			S82.812,26.289,75.264,18.74z M68.432,49.843c-0.104,2.045-0.307,3.848-0.619,5.518c-0.369,1.971-0.912,3.806-1.609,5.454
			c-0.82,1.897-1.832,3.569-3.016,4.98c-1.174,1.399-2.615,2.698-4.283,3.861c-1.525,1.062-3.197,1.98-4.971,2.732
			c-1.785,0.757-3.611,1.317-5.428,1.666c-1.953,0.377-3.891,0.496-5.762,0.354c-0.18-0.013-0.359-0.028-0.537-0.048
			c-0.301,0.204-0.654,0.311-1.012,0.311c-0.361,0-0.725-0.108-1.041-0.334c-0.25-0.179-0.498-0.369-0.748-0.574
			c-0.896-0.302-1.752-0.731-2.541-1.279c-0.664-0.461-0.92-1.289-0.686-2.021c-0.119-0.143-0.238-0.288-0.357-0.437
			c-0.662-0.822-1.24-1.604-1.77-2.396l-0.223-0.34c-0.045-0.071-0.092-0.146-0.129-0.199l-0.018-0.023l-0.508-0.74
			c-0.242-0.384-0.494-0.78-0.729-1.218c-0.498-0.906-0.922-1.86-1.262-2.835c-0.318-0.902-0.576-1.876-0.789-2.975
			c-0.174-0.902-0.311-1.87-0.416-2.959c-0.102-1.087-0.168-2.041-0.199-2.923c-0.074-2.218,0.164-4.285,0.711-6.149
			c0.578-1.994,1.541-3.875,2.863-5.583c1.139-1.474,2.561-2.863,4.344-4.249c0.736-0.57,1.521-1.133,2.4-1.718
			c0.445-0.293,0.844-0.551,1.227-0.79l0.887-0.543l1.008-0.529l1.818,1.373l-0.234,1.16c-0.014,0.086-0.023,0.173-0.031,0.26
			c-0.066,0.664-0.043,1.149,0.072,1.527c0.018,0.058,0.043,0.117,0.076,0.185c0.039,0.066,0.055,0.088,0.059,0.093l0.014,0.014
			c0.039,0.042,0.098,0.078,0.158,0.098l0.021,0.007c0.135,0.044,0.311,0.064,0.508,0.062c0.232-0.004,0.482-0.034,0.768-0.091
			c0.648-0.155,1.26-0.303,1.768-0.541l0.016-0.008c0.498-0.228,0.941-0.535,1.322-0.913c0.369-0.363,0.699-0.816,1.018-1.392
			c0.676-1.271,1.117-2.503,1.312-3.663l0.002-0.016c0.227-1.277,0.207-2.58-0.059-3.77c-0.256-1.18-0.766-2.372-1.514-3.553
			c-0.666-1.051-1.514-2.097-2.592-3.197c-0.896-0.91-1.916-1.821-3.201-2.865l-3.104-2.521l3.945-0.644
			c1.076-0.176,2.191-0.14,3.312,0.107c0.963,0.21,1.949,0.58,2.93,1.1c1.539,0.82,3.006,1.933,4.625,3.503
			c1.205,1.175,2.373,2.492,3.678,4.149c0.496,0.628,1.016,1.313,1.637,2.155c0.104,0.138,0.205,0.276,0.305,0.416
			c0.156,0.214,0.305,0.417,0.453,0.604l0.014,0.017c0.09,0.118,0.184,0.234,0.277,0.352c0.184,0.23,0.373,0.469,0.561,0.726
			c1.244,1.653,2.225,3.21,2.992,4.76c0.832,1.689,1.451,3.525,1.842,5.46c0.328,1.681,0.502,3.511,0.533,5.607
			C68.543,46.387,68.514,48.158,68.432,49.843z"/>
		<path d="M80.236,13.767C71.359,4.889,59.557,0,47.002,0S22.645,4.889,13.766,13.767C4.889,22.645,0,34.447,0,47.002
			s4.889,24.357,13.766,33.235c8.879,8.877,20.682,13.766,33.236,13.766s24.357-4.889,33.234-13.766
			c8.879-8.878,13.768-20.681,13.768-33.235S89.115,22.644,80.236,13.767z M75.264,75.263c-7.549,7.549-17.586,11.706-28.262,11.706
			S26.289,82.812,18.74,75.263S7.035,57.678,7.035,47.002S11.191,26.289,18.74,18.74S36.326,7.034,47.002,7.034
			s20.713,4.157,28.262,11.706s11.705,17.586,11.705,28.262S82.812,67.714,75.264,75.263z"/>
		<path d="M67.988,38.812c-0.391-1.935-1.01-3.771-1.842-5.46c-0.768-1.55-1.748-3.106-2.992-4.76
			c-0.188-0.257-0.377-0.495-0.561-0.726c-0.094-0.117-0.188-0.233-0.277-0.352l-0.014-0.017c-0.148-0.188-0.297-0.391-0.453-0.604
			c-0.1-0.14-0.201-0.278-0.305-0.416c-0.621-0.842-1.141-1.527-1.637-2.155c-1.305-1.657-2.473-2.975-3.678-4.149
			c-1.619-1.57-3.086-2.683-4.625-3.503c-0.98-0.52-1.967-0.89-2.93-1.1c-1.121-0.247-2.236-0.283-3.312-0.107l-3.945,0.644
			l3.104,2.521c1.285,1.044,2.305,1.955,3.201,2.865c1.078,1.101,1.926,2.146,2.592,3.197c0.748,1.181,1.258,2.373,1.514,3.553
			c0.266,1.189,0.285,2.492,0.059,3.77l-0.002,0.016c-0.195,1.16-0.637,2.392-1.312,3.663c-0.318,0.575-0.648,1.028-1.018,1.392
			c-0.381,0.378-0.824,0.686-1.322,0.913l-0.016,0.008c-0.508,0.238-1.119,0.386-1.768,0.541c-0.285,0.057-0.535,0.087-0.768,0.091
			c-0.197,0.003-0.373-0.018-0.508-0.062l-0.021-0.007c-0.061-0.02-0.119-0.056-0.158-0.098l-0.014-0.014
			c-0.004-0.005-0.02-0.026-0.059-0.093c-0.033-0.067-0.059-0.127-0.076-0.185c-0.115-0.378-0.139-0.863-0.072-1.527
			c0.008-0.087,0.018-0.174,0.031-0.26l0.234-1.16l-1.818-1.373l-1.008,0.529l-0.887,0.543c-0.383,0.239-0.781,0.497-1.227,0.79
			c-0.879,0.585-1.664,1.147-2.4,1.718c-1.783,1.386-3.205,2.775-4.344,4.249c-1.322,1.708-2.285,3.589-2.863,5.583
			c-0.547,1.864-0.785,3.932-0.711,6.149c0.031,0.882,0.098,1.836,0.199,2.923c0.105,1.089,0.242,2.057,0.416,2.959
			c0.213,1.099,0.471,2.072,0.789,2.975c0.34,0.975,0.764,1.929,1.262,2.835c0.234,0.438,0.486,0.834,0.729,1.218l0.508,0.74
			l0.018,0.023c0.037,0.054,0.084,0.128,0.129,0.199l0.223,0.34c0.529,0.791,1.107,1.573,1.77,2.396
			c0.119,0.148,0.238,0.294,0.357,0.437c-0.234,0.731,0.021,1.56,0.686,2.021c0.789,0.548,1.645,0.978,2.541,1.279
			c0.25,0.205,0.498,0.396,0.748,0.574c0.316,0.226,0.68,0.334,1.041,0.334c0.357,0,0.711-0.106,1.012-0.311
			c0.178,0.02,0.357,0.035,0.537,0.048c1.871,0.142,3.809,0.022,5.762-0.354c1.816-0.349,3.643-0.909,5.428-1.666
			c1.773-0.752,3.445-1.671,4.971-2.732c1.668-1.163,3.109-2.462,4.283-3.861c1.184-1.411,2.195-3.083,3.016-4.98
			c0.697-1.648,1.24-3.483,1.609-5.454c0.312-1.67,0.516-3.473,0.619-5.518c0.082-1.685,0.111-3.456,0.09-5.423
			C68.49,42.323,68.316,40.493,67.988,38.812z M64.848,49.665c-0.096,1.877-0.281,3.523-0.562,5.034
			c-0.322,1.718-0.789,3.304-1.383,4.704c-0.676,1.566-1.506,2.941-2.465,4.085c-0.971,1.156-2.176,2.241-3.584,3.223
			c-1.322,0.92-2.775,1.719-4.32,2.374c-1.553,0.657-3.137,1.144-4.707,1.446c-1.641,0.316-3.258,0.417-4.818,0.299
			c-0.641-0.046-1.256-0.143-1.842-0.29c-0.254-0.231-0.518-0.487-0.797-0.773c-0.582-0.599-1.154-1.251-1.752-1.99
			c-0.592-0.736-1.107-1.435-1.578-2.135l-0.178-0.272c-0.068-0.108-0.148-0.232-0.24-0.361l-0.373-0.536l-0.041-0.064
			c-0.219-0.346-0.426-0.672-0.596-0.992L35.6,63.393c-0.406-0.735-0.75-1.509-1.027-2.303c-0.26-0.738-0.473-1.547-0.652-2.469
			c-0.152-0.79-0.271-1.648-0.367-2.621c-0.096-1.012-0.156-1.898-0.186-2.705c-0.061-1.831,0.131-3.518,0.572-5.021
			c0.451-1.563,1.211-3.04,2.254-4.391c0.953-1.231,2.166-2.412,3.707-3.609c0.471-0.365,0.965-0.728,1.498-1.097
			c0.004,0.016,0.01,0.03,0.014,0.046c0.082,0.275,0.195,0.547,0.342,0.829l0.037,0.067c0.125,0.22,0.305,0.507,0.566,0.786
			c0.461,0.498,1.049,0.871,1.701,1.08c0.521,0.171,1.094,0.251,1.691,0.238c0.457-0.008,0.93-0.062,1.445-0.168l0.057-0.013
			c0.768-0.184,1.635-0.391,2.482-0.787c0.881-0.405,1.674-0.953,2.346-1.623c0.613-0.604,1.15-1.33,1.641-2.218l0.014-0.024
			c0.859-1.614,1.428-3.216,1.688-4.76c0.312-1.761,0.281-3.499-0.088-5.159c-0.346-1.584-1.014-3.166-1.986-4.701
			c-0.213-0.334-0.438-0.665-0.678-0.996c0.344,0.297,0.695,0.62,1.057,0.972c1.088,1.061,2.156,2.268,3.363,3.799
			c0.473,0.599,0.971,1.257,1.57,2.069l0.01,0.012c0.094,0.126,0.186,0.253,0.279,0.38c0.168,0.232,0.344,0.473,0.535,0.716
			c0.1,0.127,0.199,0.253,0.299,0.378c0.172,0.216,0.332,0.419,0.48,0.62l0.016,0.022c1.115,1.478,1.98,2.853,2.648,4.201
			c0.695,1.408,1.215,2.948,1.541,4.567c0.283,1.458,0.436,3.081,0.463,4.956C64.953,46.354,64.926,48.057,64.848,49.665z"/>
		<path d="M58.711,41.419l-3.119-6.239l-0.279,6.97c-0.025,0.636-0.176,1.315-0.445,2.021c-0.252,0.657-0.605,1.323-1.051,1.976
			c-0.881,1.288-2.012,2.395-3.266,3.197c-0.658,0.419-1.316,0.729-1.955,0.919c-0.674,0.201-1.303,0.264-1.871,0.185
			c-0.545-0.075-1.078-0.312-1.512-0.671c-0.434-0.355-0.828-0.864-1.172-1.514l-1.375-2.771l-1.764,2.078l-0.51,0.601l-0.545,0.758
			l-0.287,0.469c-0.02,0.033-0.039,0.067-0.061,0.101c-0.057,0.093-0.111,0.187-0.164,0.281l-0.211,0.422
			c-0.523,1.067-0.893,2.238-1.098,3.479c-0.355,2.18-0.219,4.502,0.41,6.903c0.09,0.444,0.242,0.831,0.391,1.189l0.008,0.016
			c0.129,0.305,0.277,0.623,0.455,0.974c0.297,0.583,0.635,1.185,1.004,1.789c0.393,0.639,0.768,1.199,1.15,1.716
			c0.236,0.318,0.459,0.599,0.691,0.864c0.252,0.285,0.562,0.616,0.955,0.91c0.322,0.241,0.699,0.358,1.074,0.358
			c0.463,0,0.922-0.179,1.264-0.521c1.076-0.123,2.133-0.375,3.158-0.751c1.371-0.501,2.688-1.226,3.916-2.155
			c2.203-1.669,4.096-3.98,5.477-6.688c1.314-2.589,2.115-5.44,2.314-8.249c0.104-1.506,0.033-2.977-0.209-4.371
			C59.824,44.148,59.361,42.72,58.711,41.419z M56.715,49.784c-0.166,2.332-0.834,4.71-1.934,6.872
			c-1.135,2.226-2.672,4.111-4.443,5.455c-0.943,0.713-1.945,1.267-2.984,1.646c-0.924,0.338-1.881,0.54-2.852,0.601
			c-0.057-0.073-0.113-0.149-0.174-0.229c-0.318-0.431-0.637-0.906-0.973-1.453c-0.32-0.523-0.611-1.041-0.863-1.538
			c-0.139-0.274-0.254-0.52-0.352-0.748c-0.07-0.168-0.162-0.395-0.189-0.537l-0.029-0.132c-0.512-1.929-0.629-3.767-0.352-5.46
			c0.137-0.836,0.375-1.619,0.705-2.327c0.209,0.221,0.428,0.425,0.654,0.61c0.945,0.785,2.088,1.289,3.303,1.458
			c1.08,0.149,2.223,0.049,3.393-0.302c0.955-0.286,1.914-0.733,2.857-1.333c1.641-1.051,3.113-2.482,4.262-4.146
			C56.762,48.733,56.75,49.256,56.715,49.784z"/>
	</g>
</g>
</svg>
