<?xml version="1.0" encoding="utf-8"?>
<!-- Generator: Adobe Illustrator 18.1.1, SVG Export Plug-In . SVG Version: 6.00 Build 0)  -->
<svg version="1.1" id="Layer_1" xmlns="http://www.w3.org/2000/svg" xmlns:xlink="http://www.w3.org/1999/xlink" x="0px" y="0px"
	 viewBox="0 13.7 93 254.3" enable-background="new 0 13.7 93 254.3" xml:space="preserve">
<g>
	<g>
		<path d="M31.1,137.1h5.6v2.3h-3.1v1.8h3v2.3h-3v4h-2.5L31.1,137.1L31.1,137.1z"/>
		<path d="M40.3,137.1h2.6v10.3h-2.6V137.1z"/>
		<path d="M47,137.1h3.3c1.8,0,2.5,0.2,3.2,0.7c0.9,0.7,1.3,1.8,1.3,2.8c0,1.2-0.6,2.9-2.6,3.3l2.8,3.5h-3l-2.4-3.3l0,0v3.3h-2.5
			L47,137.1L47,137.1z M49.5,142.2h0.9c1.6,0,1.7-1,1.7-1.5c0-0.9-0.7-1.4-1.7-1.4h-1L49.5,142.2L49.5,142.2z"/>
		<path d="M58.2,137.1h5.7v2.3h-3.2v1.6h3.1v2.3h-3.1v1.8h3.2v2.3h-5.7V137.1z"/>
	</g>
	<g>
		<path d="M3.8,175h2.9c1.6,0,2.3,0.3,2.7,0.6c0.7,0.6,1,1.5,1,2.4s-0.4,1.8-0.9,2.3c-0.6,0.5-1.2,0.8-2.6,0.8h-1v2.8H3.7
			C3.8,183.7,3.8,175,3.8,175z M6,179.1h0.9c0.4,0,1.4,0,1.4-1.1c0-1-1-1-1.5-1H6C6,176.9,6,179.1,6,179.1z"/>
		<path d="M14.7,182.4l-0.5,1.3h-2.4l3.6-8.8h1.8l3.5,8.8h-2.5l-0.4-1.3H14.7z M15.4,180.8h1.9l-0.9-3l0,0l0,0L15.4,180.8z"/>
		<path d="M26.6,177.5c0-0.3-0.1-0.9-0.8-0.9c-0.4,0-0.8,0.3-0.8,0.7c0,0.5,0.2,0.6,1.8,1.4c1.7,0.7,2.1,1.5,2.1,2.5
			c0,1.3-0.7,2.7-3.1,2.7c-2.6,0-3.2-1.7-3.2-2.8v-0.3H25c0,1,0.6,1.2,0.9,1.2c0.5,0,0.9-0.4,0.9-0.9c0-0.6-0.4-0.7-1.7-1.3
			c-0.6-0.3-2.2-0.9-2.2-2.5c0-1.7,1.6-2.6,3.1-2.6c0.9,0,1.8,0.3,2.4,1c0.5,0.6,0.6,1.2,0.6,1.8L26.6,177.5L26.6,177.5z"/>
		<path d="M35.4,177.5c0-0.3-0.1-0.9-0.8-0.9c-0.4,0-0.8,0.3-0.8,0.7c0,0.5,0.2,0.6,1.8,1.4c1.7,0.7,2.1,1.5,2.1,2.5
			c0,1.3-0.7,2.7-3.1,2.7c-2.6,0-3.2-1.7-3.2-2.8v-0.3h2.3c0,1,0.6,1.2,0.9,1.2c0.5,0,0.9-0.4,0.9-0.9c0-0.6-0.4-0.7-1.7-1.3
			c-0.6-0.3-2.2-0.9-2.2-2.5c0-1.7,1.6-2.6,3.1-2.6c0.9,0,1.8,0.3,2.4,1c0.5,0.6,0.6,1.2,0.6,1.8L35.4,177.5L35.4,177.5z"/>
		<path d="M40.8,175H43v8.8h-2.3V175z"/>
		<path d="M50.8,174.8c2.7,0,4.6,2.1,4.6,4.5s-1.9,4.5-4.6,4.5c-2.8,0-4.6-2.2-4.6-4.5c0-0.6,0.1-1.2,0.3-1.9
			C46.9,176.5,48.3,174.8,50.8,174.8z M50.8,182c1.6,0,2.4-1.5,2.4-2.6c0-1.2-0.8-2.6-2.4-2.6c-1.6,0-2.4,1.3-2.4,2.6
			C48.4,180.7,49.3,182,50.8,182z"/>
		<path d="M58.5,175h2l3.4,5.5l0,0l-0.1-5.5h2.2v8.8h-2l-3.4-5.3l0,0l0.1,5.3h-2.2V175L58.5,175z"/>
		<path d="M71.3,182.4l-0.5,1.3h-2.4l3.6-8.8h1.8l3.5,8.8h-2.5l-0.4-1.3H71.3z M72,180.8h1.9l-0.9-3l0,0l0,0L72,180.8z"/>
		<path d="M80.4,176.9h-1.8v-2h5.7v2h-1.7v6.8h-2.3V176.9z"/>
		<path d="M87.1,175h4.8v2h-2.8v1.4h2.7v2h-2.7v1.5h2.8v2h-4.8V175z"/>
		<path d="M26.1,201.2c-0.5,2.1-2.3,3.5-4.5,3.5c-2.8,0-4.6-2.2-4.6-4.5c0-2.3,1.8-4.5,4.6-4.5c2.8,0,4.3,2.1,4.5,3.5h-2.4
			c-0.3-0.7-0.9-1.5-2.1-1.5c-1.5,0-2.4,1.3-2.4,2.6s0.9,2.6,2.4,2.6c1.4,0,2-1.2,2.1-1.5H26.1L26.1,201.2z"/>
		<path d="M29.1,195.8h2.3v3.3h2.9v-3.3h2.3v8.8h-2.3V201h-2.9v3.6h-2.3C29.1,204.5,29.1,195.8,29.1,195.8z"/>
		<path d="M42,203.2l-0.5,1.3h-2.4l3.6-8.8h1.8l3.5,8.8h-2.5l-0.4-1.3H42z M42.7,201.5h1.9l-0.9-3l0,0l0,0L42.7,201.5z"/>
		<path d="M50.6,195.8h2l3.4,5.5l0,0l-0.1-5.5H58v8.8h-2l-3.4-5.3l0,0l0.1,5.3h-2.2C50.6,204.5,50.6,195.8,50.6,195.8z"/>
		<path d="M70.3,199.6c0,0.2,0,0.3,0,0.5c0,3-2.3,4.7-4.6,4.7c-2.7,0-4.6-2.1-4.6-4.6c0-2.6,2.1-4.5,4.7-4.5c2.1,0,3.9,1.4,4.4,3.1
			h-2.5c-0.3-0.6-1-1.2-2-1.2c-1.1,0-2.4,0.8-2.4,2.6c0,1.9,1.3,2.7,2.4,2.7s1.9-0.6,2.1-1.4h-2.7v-1.8L70.3,199.6L70.3,199.6z"/>
		<path d="M73.4,195.8h4.8v2h-2.8v1.4h2.7v2h-2.7v1.5h2.8v2h-4.8V195.8z"/>
		<path d="M8.9,216.6h4.8v2H11v1.4h2.7v2H11v1.5h2.8v2H8.9C8.9,225.3,8.9,216.6,8.9,216.6z"/>
		<path d="M17.1,216.6h2.3v6.8H22v2h-4.8C17.1,225.3,17.1,216.6,17.1,216.6z"/>
		<path d="M24.7,216.6h4.8v2h-2.8v1.4h2.7v2h-2.7v1.5h2.8v2h-4.8V216.6z"/>
		<path d="M32.9,216.6h2.9l1.8,5.7l0,0l1.7-5.7h2.9v8.8H40l0.1-6.5l0,0l-1.9,6.6h-1.5l-1.9-6.6l0,0l0.1,6.5h-2.1
			C32.9,225.3,32.9,216.6,32.9,216.6z"/>
		<path d="M45.6,216.6h4.8v2h-2.8v1.4h2.7v2h-2.7v1.5h2.8v2h-4.8V216.6z"/>
		<path d="M53.8,216.6h2l3.4,5.5l0,0l-0.1-5.5h2.2v8.8h-2l-3.4-5.3l0,0l0.1,5.3h-2.2V216.6z"/>
		<path d="M65.6,218.4h-1.8v-2h5.7v2h-1.7v6.8h-2.3C65.6,225.3,65.6,218.4,65.6,218.4z"/>
		<path d="M73.9,224l-0.5,1.3H71l3.6-8.8h1.8l3.5,8.8h-2.5L77,224H73.9z M74.5,222.3h1.9l-0.9-3l0,0l0,0L74.5,222.3z"/>
		<path d="M82.5,216.6h2.3v6.8h2.6v2h-4.8V216.6z"/>
		<path d="M4.8,244.7L4.3,246H1.9l3.6-8.8h1.8l3.5,8.8H8.2l-0.4-1.3H4.8z M5.5,243.1h1.9l-0.9-3l0,0l0,0L5.5,243.1z"/>
		<path d="M21.9,241.1c0,0.2,0,0.3,0,0.5c0,3-2.3,4.7-4.6,4.7c-2.7,0-4.6-2.1-4.6-4.6c0-2.6,2.1-4.5,4.7-4.5c2.1,0,3.9,1.4,4.4,3.1
			h-2.5c-0.3-0.6-1-1.2-2-1.2c-1.1,0-2.4,0.8-2.4,2.6c0,1.9,1.3,2.7,2.4,2.7c1.1,0,1.9-0.6,2.1-1.4h-2.6v-1.8L21.9,241.1L21.9,241.1
			z"/>
		<path d="M33.9,241.1c0,0.2,0,0.3,0,0.5c0,3-2.3,4.7-4.6,4.7c-2.7,0-4.6-2.1-4.6-4.6c0-2.6,2.1-4.5,4.6-4.5c2.1,0,3.9,1.4,4.4,3.1
			h-2.5c-0.3-0.6-1-1.2-2-1.2c-1.1,0-2.4,0.8-2.4,2.6c0,1.9,1.3,2.7,2.4,2.7c1.1,0,1.9-0.6,2.1-1.4h-2.7v-1.8L33.9,241.1L33.9,241.1
			z"/>
		<path d="M36.9,237.3h2.8c1.6,0,2.2,0.2,2.7,0.6c0.7,0.6,1.1,1.5,1.1,2.4c0,1-0.5,2.5-2.2,2.8l2.4,3h-2.6l-2.1-2.9l0,0v2.9h-2.2
			C36.9,246,36.9,237.3,36.9,237.3z M39,241.7h0.8c1.3,0,1.5-0.8,1.5-1.3c0-0.8-0.6-1.2-1.5-1.2H39V241.7z"/>
		<path d="M46.5,237.3h4.8v2h-2.8v1.4h2.7v2h-2.7v1.5h2.8v2h-4.8C46.5,246,46.5,237.3,46.5,237.3z"/>
		<path d="M58.2,239.8c0-0.3-0.1-0.9-0.8-0.9c-0.4,0-0.8,0.3-0.8,0.7c0,0.5,0.2,0.6,1.8,1.4c1.7,0.7,2.1,1.5,2.1,2.5
			c0,1.3-0.7,2.7-3.1,2.7c-2.6,0-3.2-1.7-3.2-2.8v-0.3h2.3c0,1,0.6,1.2,0.9,1.2c0.5,0,0.9-0.4,0.9-0.9c0-0.6-0.4-0.7-1.7-1.3
			c-0.6-0.3-2.2-0.9-2.2-2.5c0-1.7,1.6-2.6,3.1-2.6c0.9,0,1.8,0.3,2.4,1c0.5,0.6,0.6,1.2,0.6,1.8L58.2,239.8L58.2,239.8z"/>
		<path d="M67.1,239.8c0-0.3-0.1-0.9-0.8-0.9c-0.4,0-0.8,0.3-0.8,0.7c0,0.5,0.2,0.6,1.8,1.4c1.7,0.7,2.1,1.5,2.1,2.5
			c0,1.3-0.7,2.7-3.1,2.7c-2.6,0-3.2-1.7-3.2-2.8v-0.3h2.3c0,1,0.6,1.2,0.9,1.2c0.5,0,0.9-0.4,0.9-0.9c0-0.6-0.4-0.7-1.7-1.3
			c-0.6-0.3-2.2-0.9-2.2-2.5c0-1.7,1.6-2.6,3.1-2.6c0.9,0,1.8,0.3,2.4,1c0.5,0.6,0.6,1.2,0.6,1.8L67.1,239.8L67.1,239.8z"/>
		<path d="M72.4,237.3h2.3v8.8h-2.3V237.3z"/>
		<path d="M79.6,237.3l1.8,6.1l0,0l1.8-6.1h2.3l-3,8.8h-2.3l-3-8.8H79.6z"/>
		<path d="M88.1,237.3H93v2h-2.8v1.4h2.7v2h-2.7v1.5H93v2h-4.8V237.3z"/>
		<path d="M34.9,258.1h2.3v6.8h2.6v2h-4.8C34.9,266.8,34.9,258.1,34.9,258.1z"/>
		<path d="M42.4,258.1h2.3v8.8h-2.3V258.1z"/>
		<path d="M48.1,258.1h4.7v2h-2.7v1.5h2.6v2h-2.6v3.4H48L48.1,258.1L48.1,258.1z"/>
		<path d="M56,258.1h4.8v2h-2.8v1.4h2.7v2h-2.7v1.5h2.8v2H56V258.1z"/>
	</g>
</g>
<path fill="#231F20" d="M79,26.7c-8.4-8.4-19.7-13.1-31.5-13.1c-12,0-23.1,4.6-31.5,13.1S2.9,46.4,2.9,58.3c0,12,4.6,23.1,13.1,31.5
	s19.7,13.1,31.5,13.1c12,0,23.1-4.6,31.5-13.1s13.1-19.7,13.1-31.5C92.2,46.4,87.6,35.3,79,26.7z M74.4,85.2
	c-7.2,7.2-16.7,11.1-26.9,11.1s-19.7-4-26.9-11.1C13.4,78,9.5,68.5,9.5,58.3s4-19.7,11.1-26.9c7.2-7.2,16.7-11.1,26.9-11.1
	s19.7,4,26.9,11.1c7.2,7.2,11.1,16.7,11.1,26.9C85.5,68.5,81.5,78.1,74.4,85.2z"/>
<g>
	<path fill="#231F20" d="M67.5,56.4c-1.8-3.8-4.5-6.9-9-10.1c-2.1-1.5-3.7-2.9-4.9-4.2c-2.2-2.3-3-4.7-2.6-7.4
		c0.1-0.5,0.3-1,0.4-1.6c0.1-0.3,0.2-0.7,0.3-1.1l1.5-5.1L48.8,30c-0.4,0.3-0.8,0.6-1.2,0.8c-0.8,0.6-1.6,1.1-2.4,1.7
		c-5.2,4.1-8.4,9.3-9.5,15.5c-0.2,1.4-0.4,2.8-0.4,4.2c0-0.8-0.1-1.7,0-2.6v-1c0.1-1.8,0.5-3.9,1.4-5.6c0,0-0.6,0.3-1.9,1.7
		c0,0-0.1,0-0.1,0.1c-0.4,0.4-2.5,2.7-2.5,2.7l-0.7,1c-0.1,0.2-0.3,0.4-0.5,0.6c-0.5,0.7-1.1,1.5-1.8,2.4l0,0
		c-0.2,0.2-0.3,0.5-0.5,0.8c-2.6,4.1-3.8,8.8-3.7,14.8c0.2,8,3.5,14.3,10,18.7c3.9,2.6,7.9,3.9,12.1,3.9c2.4,0,4.7-0.4,7.2-1.3
		c4-1.4,7.2-3.6,9.7-6.4c2.5-2.9,4.2-6.4,4.9-10.6C70.2,65.9,69.7,61.1,67.5,56.4z M65.5,70.3c-1.4,7-5.5,11.9-12.3,14.2
		c-2,0.7-4,1.1-5.9,1.1c-3.4,0-6.7-1.1-10-3.3c-5.4-3.7-8.1-8.8-8.3-15.6c-0.1-5,0.8-8.9,2.7-12.3c0.5,3.3,1.9,6.4,5.2,9l3.8,2.9
		l-0.8-4.6c0-0.2-0.1-0.4-0.1-0.6c-0.1-0.4-0.1-0.9-0.2-1.3c-0.8-4.2-0.9-7.9-0.3-11.4c0.9-5.1,3.3-9.3,7.5-12.8
		c-0.1,3.3,1.2,6.2,3.7,8.9c1.5,1.5,3.2,3,5.4,4.6c4,2.9,6.3,5.5,7.8,8.7C65.9,61.9,66.4,66,65.5,70.3z"/>
	<path fill="#231F20" d="M58.4,55.2c-2.1-2.3-4.8-3.9-7.4-4.5L47.3,50l2.3,3c2.6,3.4,3.6,6.9,3,10.8c-0.4,2.4-1.3,4.5-2.8,6.2v-0.1
		c0.4-1.8,0.4-4.5-0.3-5.7l-1.6-2.9l-1,3.1c-1.8,5.7-5.5,9.1-11.4,10.2l-2,0.4l1.1,1.7c1.7,2.7,6.4,5.6,12,5.6l0,0
		c1.5,0,2.9-0.2,4.3-0.6c3.5-1,6.6-3.2,8.7-6.1c2.2-3.1,3.3-6.6,3-10.5C62.2,60.4,60.2,57.1,58.4,55.2z M50.1,79
		c-1.2,0.3-2.4,0.5-3.6,0.5c-2.3,0-5.9-0.9-8.2-2.8c3.4-1,6-2.8,8.1-5.3c-0.1,0.3-0.2,0.6-0.3,0.9c-0.2,0.5-0.3,1-0.5,1.5l-1.1,3.7
		l3.2-2.1c4.2-2.8,6.6-6.4,7.4-11.1c0.5-3.2,0.1-6.2-1.2-9.2c3.7,2.5,5.6,7,5.8,10.2C60.3,71.6,56.2,77.3,50.1,79z"/>
</g>
</svg>
