<?xml version="1.0" encoding="utf-8"?>
<!-- Generator: Adobe Illustrator 16.0.0, SVG Export Plug-In . SVG Version: 6.00 Build 0)  -->
<!DOCTYPE svg PUBLIC "-//W3C//DTD SVG 1.1//EN" "http://www.w3.org/Graphics/SVG/1.1/DTD/svg11.dtd">
<svg version="1.1" id="Layer_1" xmlns="http://www.w3.org/2000/svg" xmlns:xlink="http://www.w3.org/1999/xlink" x="0px" y="0px"
	 width="145.822px" height="292.014px" viewBox="0 0 145.822 292.014" enable-background="new 0 0 145.822 292.014"
	 xml:space="preserve">
<g>
	<g>
		<path fill="none" d="M56.665,53.865c5.336-3.808,8.617-6.068,10.686-7.41L51.7,39.48l-6.521,8.812
			c0.373,4.869,0.85,10.048,1.223,12.989C48.764,59.557,52.694,56.699,56.665,53.865z"/>
		<polygon fill="none" points="62.022,29.627 54.333,36.725 70.428,43.898 72.473,39.555 		"/>
		<path fill="none" d="M69.27,60.794l-9.859-4.481c-3.369,2.396-7.092,5.086-10.742,7.754c1.783,0.991,4.609,2.638,9.193,5.373
			c3.395,2.023,6.77,4.063,8.867,5.335L69.27,60.794z"/>
		<polygon fill="none" points="75.092,37.093 97.159,29.448 86.948,23.199 65.69,28.16 		"/>
		<polygon fill="none" points="72.84,61.225 70.292,75.243 94.065,70.02 96.127,55.907 		"/>
		<polygon fill="none" points="75.95,40.594 74.694,43.264 91.719,37.588 95.1,33.959 		"/>
		<path fill="none" d="M101.172,18.741C93.624,11.192,83.586,7.035,72.911,7.035S52.2,11.192,44.649,18.741
			c-7.547,7.549-11.705,17.585-11.705,28.261s4.158,20.713,11.705,28.262C52.2,82.812,62.235,86.97,72.911,86.97
			s20.713-4.157,28.262-11.706s11.705-17.586,11.705-28.262S108.721,26.29,101.172,18.741z M100.241,52.574l-2.982,20.419
			l-29.652,6.515l-0.615-0.375c-7.613-4.64-20.104-12.128-22.078-12.996c-1.312-0.194-1.611-1.627-1.715-2.119
			c-0.1-0.48-0.205-1.139-0.32-2.013c-0.186-1.399-0.395-3.342-0.623-5.774c-0.389-4.119-0.703-8.293-0.705-8.335l-0.051-0.665
			l8.273-11.18L61.17,25.528l26.395-6.158l16.58,10.146l-9.324,10.008L100.241,52.574z"/>
		<path fill="none" d="M71.559,48.091c-1.047,0.506-4.385,2.751-8.756,5.821l8.674,3.942l24.727-5.646l-4.5-10.832L71.559,48.091z"
			/>
		<path d="M106.147,13.768C97.268,4.89,85.465,0,72.911,0S48.553,4.89,39.676,13.768c-8.877,8.877-13.768,20.68-13.768,33.234
			s4.891,24.357,13.768,33.235s20.68,13.767,33.234,13.767s24.357-4.889,33.236-13.767c8.877-8.878,13.766-20.681,13.766-33.235
			S115.024,22.645,106.147,13.768z M101.172,75.264C93.624,82.812,83.586,86.97,72.911,86.97S52.2,82.812,44.649,75.264
			c-7.547-7.549-11.705-17.586-11.705-28.262s4.158-20.712,11.705-28.261C52.2,11.192,62.235,7.035,72.911,7.035
			s20.713,4.157,28.262,11.706s11.705,17.585,11.705,28.261S108.721,67.715,101.172,75.264z"/>
		<path d="M87.565,19.37L61.17,25.528L49.772,36.051l-8.273,11.18l0.051,0.665c0.002,0.042,0.316,4.216,0.705,8.335
			c0.229,2.433,0.438,4.375,0.623,5.774c0.115,0.874,0.221,1.532,0.32,2.013c0.104,0.492,0.402,1.925,1.715,2.119
			c1.975,0.868,14.465,8.356,22.078,12.996l0.615,0.375l29.652-6.515l2.982-20.419l-5.42-13.05l9.324-10.008L87.565,19.37z
			 M97.159,29.448l-22.066,7.645L65.69,28.16l21.258-4.961L97.159,29.448z M70.428,43.898l-16.096-7.174l7.689-7.098l10.451,9.928
			L70.428,43.898z M51.7,39.48l15.65,6.975c-2.068,1.342-5.35,3.603-10.686,7.41c-3.971,2.834-7.9,5.691-10.264,7.416
			c-0.373-2.941-0.85-8.12-1.223-12.989L51.7,39.48z M48.668,64.066c3.65-2.668,7.373-5.358,10.742-7.754l9.859,4.481l-2.541,13.98
			c-2.098-1.271-5.473-3.312-8.867-5.335C53.278,66.704,50.452,65.058,48.668,64.066z M70.292,75.243l2.549-14.019l23.287-5.317
			L94.065,70.02L70.292,75.243z M96.204,52.209l-24.727,5.646l-8.674-3.942c4.371-3.07,7.709-5.315,8.756-5.821l20.145-6.714
			L96.204,52.209z M91.719,37.588l-17.025,5.676l1.256-2.67l19.15-6.635L91.719,37.588z"/>
	</g>
	<g>
		<path d="M35.784,139.635h3.404l2.059,6.822h0.029l2.031-6.822h3.418V150h-2.438l0.084-7.76l-0.029-0.027L42.129,150h-1.75
			l-2.215-7.787l-0.027,0.027l0.084,7.76h-2.438V139.635z"/>
		<path d="M50.831,139.635h2.646V150h-2.646V139.635z"/>
		<path d="M57.553,139.635h2.283l4.006,6.514l0.027-0.027l-0.111-6.486h2.535V150h-2.297l-3.951-6.303l-0.027,0.014l0.07,6.289
			h-2.535V139.635z"/>
		<path d="M70.395,139.635h5.756v2.325H72.93v1.61h3.123v2.326H72.93v1.779h3.221V150h-5.756V139.635z"/>
		<path d="M80.088,139.635h3.277c1.82,0,2.521,0.225,3.193,0.742c0.855,0.673,1.275,1.766,1.275,2.83
			c0,1.19-0.617,2.941-2.578,3.264L88.073,150h-3.025l-2.396-3.348h-0.027V150h-2.535V139.635z M82.624,144.846h0.938
			c1.555,0,1.738-0.98,1.738-1.484c0-0.939-0.688-1.401-1.709-1.401h-0.967V144.846z"/>
		<path d="M94.206,148.502L93.661,150h-2.844l4.16-10.365h2.086L101.182,150h-2.871l-0.504-1.498H94.206z M94.934,146.4h2.172
			l-1.064-3.544h-0.014h-0.029L94.934,146.4z"/>
		<path d="M104.323,139.635h2.646v8.041h3.068V150h-5.715V139.635z"/>
	</g>
	<g>
		<path d="M39.421,181.785c0.012,0.154,0.012,0.287,0.012,0.467c0,2.975-2.279,4.762-4.738,4.762c-2.686,0-4.713-2.1-4.713-4.654
			c0-2.65,2.135-4.568,4.75-4.568c2.123,0,3.945,1.428,4.438,3.143h-2.543c-0.348-0.625-0.996-1.152-1.955-1.152
			c-1.115,0-2.422,0.828-2.422,2.578c0,1.859,1.318,2.664,2.434,2.664c1.129,0,1.883-0.564,2.123-1.428h-2.65v-1.811H39.421z"/>
		<path d="M42.486,177.959h4.93v1.99h-2.758v1.379h2.674v1.992h-2.674v1.523h2.758v1.99h-4.93V177.959z"/>
		<path d="M54.974,177.791c2.734,0,4.689,2.135,4.689,4.605s-1.943,4.605-4.703,4.605c-2.793,0-4.664-2.219-4.664-4.498
			c0-0.588,0.084-1.248,0.348-1.895C51.111,179.457,52.49,177.791,54.974,177.791z M55.009,185.01c1.607,0,2.387-1.463,2.387-2.602
			c0-1.152-0.779-2.627-2.41-2.627c-1.572,0-2.424,1.344-2.424,2.592C52.562,183.74,53.486,185.01,55.009,185.01z"/>
		<path d="M62.765,177.959h2.914l1.764,5.84h0.023l1.738-5.84h2.928v8.875h-2.088l0.072-6.645l-0.023-0.023l-1.896,6.668h-1.498
			l-1.895-6.668l-0.025,0.023l0.072,6.645h-2.086V177.959z"/>
		<path d="M75.671,177.959h4.93v1.99h-2.758v1.379h2.674v1.992h-2.674v1.523h2.758v1.99h-4.93V177.959z"/>
		<path d="M84.923,179.949h-1.75v-1.99h5.756v1.99h-1.738v6.885h-2.268V179.949z"/>
		<path d="M91.595,177.959h2.807c1.559,0,2.158,0.191,2.734,0.635c0.732,0.576,1.092,1.512,1.092,2.424
			c0,1.02-0.527,2.518-2.207,2.793l2.41,3.023h-2.59l-2.051-2.867h-0.023v2.867h-2.172V177.959z M93.767,182.42h0.803
			c1.332,0,1.486-0.84,1.486-1.271c0-0.803-0.586-1.199-1.463-1.199h-0.826V182.42z"/>
		<path d="M101.33,177.959h2.266v8.875h-2.266V177.959z"/>
		<path d="M115.839,183.512c-0.516,2.1-2.34,3.49-4.486,3.49c-2.781,0-4.678-2.219-4.678-4.617c0-2.268,1.752-4.594,4.654-4.594
			c2.783,0,4.27,2.146,4.51,3.537h-2.375c-0.252-0.658-0.924-1.547-2.146-1.547c-1.523,0-2.375,1.332-2.375,2.592
			c0,1.342,0.912,2.637,2.387,2.637c1.416,0,1.99-1.186,2.135-1.498H115.839z"/>
	</g>
	<g>
		<path d="M30.711,201.549c-0.047-0.299-0.119-0.863-0.814-0.863c-0.396,0-0.779,0.275-0.779,0.695c0,0.527,0.24,0.637,1.834,1.355
			c1.656,0.744,2.076,1.512,2.076,2.543c0,1.295-0.744,2.723-3.096,2.723c-2.566,0-3.201-1.68-3.201-2.818v-0.289h2.254
			c0,1.033,0.637,1.213,0.924,1.213c0.539,0,0.863-0.445,0.863-0.852c0-0.588-0.371-0.732-1.738-1.309
			c-0.625-0.252-2.172-0.875-2.172-2.543c0-1.666,1.619-2.613,3.107-2.613c0.875,0,1.822,0.324,2.398,1.008
			c0.527,0.646,0.562,1.246,0.588,1.75H30.711z"/>
		<path d="M37.139,200.949h-1.75v-1.99h5.756v1.99h-1.738v6.885h-2.268V200.949z"/>
		<path d="M43.813,198.959h2.807c1.559,0,2.158,0.191,2.734,0.635c0.73,0.576,1.09,1.512,1.09,2.424c0,1.02-0.527,2.518-2.205,2.793
			l2.41,3.023h-2.592l-2.051-2.867h-0.023v2.867h-2.17V198.959z M45.983,203.42h0.805c1.33,0,1.486-0.84,1.486-1.271
			c0-0.803-0.588-1.199-1.463-1.199h-0.828V203.42z"/>
		<path d="M55.717,198.959v5.361c0,0.6,0.037,1.689,1.152,1.689c1.127,0,1.127-0.982,1.127-1.689v-5.361h2.268v5.361
			c0,1.486-0.324,2.146-0.889,2.723c-0.574,0.586-1.379,0.959-2.482,0.959c-0.646,0-1.822-0.156-2.555-0.947
			c-0.73-0.805-0.887-1.428-0.887-2.734v-5.361H55.717z"/>
		<path d="M72.444,204.512c-0.516,2.1-2.34,3.49-4.486,3.49c-2.781,0-4.678-2.219-4.678-4.617c0-2.268,1.752-4.594,4.654-4.594
			c2.783,0,4.27,2.146,4.51,3.537h-2.375c-0.252-0.658-0.924-1.547-2.146-1.547c-1.523,0-2.375,1.332-2.375,2.592
			c0,1.342,0.912,2.637,2.387,2.637c1.416,0,1.99-1.186,2.135-1.498H72.444z"/>
		<path d="M76.45,200.949H74.7v-1.99h5.756v1.99h-1.738v6.885H76.45V200.949z"/>
		<path d="M85.377,198.959v5.361c0,0.6,0.035,1.689,1.15,1.689c1.129,0,1.129-0.982,1.129-1.689v-5.361h2.266v5.361
			c0,1.486-0.324,2.146-0.887,2.723c-0.576,0.586-1.379,0.959-2.482,0.959c-0.648,0-1.824-0.156-2.555-0.947
			c-0.732-0.805-0.889-1.428-0.889-2.734v-5.361H85.377z"/>
		<path d="M93.417,198.959h2.807c1.559,0,2.158,0.191,2.734,0.635c0.73,0.576,1.09,1.512,1.09,2.424c0,1.02-0.527,2.518-2.205,2.793
			l2.41,3.023h-2.592l-2.051-2.867h-0.023v2.867h-2.17V198.959z M95.586,203.42h0.805c1.33,0,1.486-0.84,1.486-1.271
			c0-0.803-0.588-1.199-1.463-1.199h-0.828V203.42z"/>
		<path d="M103.159,198.959h4.928v1.99h-2.758v1.379h2.674v1.992h-2.674v1.523h2.758v1.99h-4.928V198.959z"/>
		<path d="M111.415,198.959h2.939c0.994,0,2.77,0,3.922,1.654c0.611,0.84,0.814,1.787,0.814,2.76c0,2.422-1.199,4.461-4.568,4.461
			h-3.107V198.959z M113.682,205.844h0.971c1.691,0,2.172-1.176,2.172-2.436c0-0.504-0.109-1.139-0.432-1.643
			c-0.264-0.396-0.721-0.816-1.729-0.816h-0.982V205.844z"/>
	</g>
	<g>
		<path d="M3.982,222.549c-0.049-0.299-0.119-0.863-0.816-0.863c-0.395,0-0.779,0.275-0.779,0.695c0,0.527,0.24,0.637,1.836,1.355
			c1.654,0.744,2.074,1.512,2.074,2.543c0,1.295-0.744,2.723-3.094,2.723c-2.566,0-3.203-1.68-3.203-2.818v-0.289h2.256
			c0,1.033,0.635,1.213,0.924,1.213c0.539,0,0.863-0.445,0.863-0.852c0-0.588-0.373-0.732-1.74-1.309
			c-0.623-0.252-2.17-0.875-2.17-2.543c0-1.666,1.619-2.613,3.105-2.613c0.877,0,1.824,0.324,2.398,1.008
			c0.529,0.646,0.564,1.246,0.588,1.75H3.982z"/>
		<path d="M13.568,219.791c2.734,0,4.689,2.135,4.689,4.605s-1.943,4.605-4.701,4.605c-2.795,0-4.666-2.219-4.666-4.498
			c0-0.588,0.084-1.248,0.348-1.895C9.707,221.457,11.085,219.791,13.568,219.791z M13.603,227.01c1.607,0,2.387-1.463,2.387-2.602
			c0-1.152-0.779-2.627-2.41-2.627c-1.57,0-2.422,1.344-2.422,2.592C11.158,225.74,12.082,227.01,13.603,227.01z"/>
		<path d="M21.39,219.959h2.266v6.885h2.627v1.99H21.39V219.959z"/>
		<path d="M28.937,219.959h2.268v8.875h-2.268V219.959z"/>
		<path d="M34.65,219.959h2.938c0.996,0,2.771,0,3.922,1.654c0.611,0.84,0.816,1.787,0.816,2.76c0,2.422-1.199,4.461-4.57,4.461
			H34.65V219.959z M36.916,226.844h0.973c1.691,0,2.17-1.176,2.17-2.436c0-0.504-0.107-1.139-0.432-1.643
			c-0.264-0.396-0.719-0.816-1.727-0.816h-0.984V226.844z"/>
		<path d="M50.982,219.959h4.844v1.99h-2.674v1.512h2.578v1.99h-2.578v3.383h-2.17V219.959z"/>
		<path d="M63.099,219.791c2.734,0,4.689,2.135,4.689,4.605s-1.943,4.605-4.701,4.605c-2.795,0-4.666-2.219-4.666-4.498
			c0-0.588,0.084-1.248,0.348-1.895C59.238,221.457,60.617,219.791,63.099,219.791z M63.134,227.01c1.607,0,2.387-1.463,2.387-2.602
			c0-1.152-0.779-2.627-2.41-2.627c-1.57,0-2.422,1.344-2.422,2.592C60.689,225.74,61.613,227.01,63.134,227.01z"/>
		<path d="M73.095,219.959v5.361c0,0.6,0.035,1.689,1.15,1.689c1.129,0,1.129-0.982,1.129-1.689v-5.361h2.266v5.361
			c0,1.486-0.324,2.146-0.887,2.723c-0.576,0.586-1.379,0.959-2.482,0.959c-0.648,0-1.824-0.156-2.555-0.947
			c-0.732-0.805-0.889-1.428-0.889-2.734v-5.361H73.095z"/>
		<path d="M81.134,219.959h1.955l3.43,5.576l0.023-0.023l-0.096-5.553h2.17v8.875H86.65l-3.381-5.396l-0.025,0.012l0.061,5.385
			h-2.17V219.959z"/>
		<path d="M92.091,219.959h2.938c0.996,0,2.771,0,3.922,1.654c0.611,0.84,0.816,1.787,0.816,2.76c0,2.422-1.199,4.461-4.57,4.461
			h-3.105V219.959z M94.357,226.844h0.973c1.691,0,2.17-1.176,2.17-2.436c0-0.504-0.107-1.139-0.432-1.643
			c-0.264-0.396-0.719-0.816-1.727-0.816h-0.984V226.844z"/>
		<path d="M104.658,227.551l-0.469,1.283h-2.434l3.561-8.875h1.787l3.527,8.875h-2.459l-0.432-1.283H104.658z M105.281,225.752
			h1.859l-0.912-3.035h-0.012h-0.023L105.281,225.752z"/>
		<path d="M113.837,221.949h-1.75v-1.99h5.756v1.99h-1.738v6.885h-2.268V221.949z"/>
		<path d="M120.511,219.959h2.266v8.875h-2.266V219.959z"/>
		<path d="M130.546,219.791c2.734,0,4.689,2.135,4.689,4.605s-1.943,4.605-4.703,4.605c-2.793,0-4.664-2.219-4.664-4.498
			c0-0.588,0.084-1.248,0.348-1.895C126.683,221.457,128.062,219.791,130.546,219.791z M130.582,227.01
			c1.607,0,2.387-1.463,2.387-2.602c0-1.152-0.779-2.627-2.41-2.627c-1.572,0-2.424,1.344-2.424,2.592
			C128.134,225.74,129.058,227.01,130.582,227.01z"/>
		<path d="M138.337,219.959h1.955l3.43,5.576l0.025-0.023l-0.098-5.553h2.172v8.875h-1.967l-3.383-5.396l-0.023,0.012l0.061,5.385
			h-2.172V219.959z"/>
	</g>
	<g>
		<path d="M3.245,240.959h4.928v1.99H5.415v1.379h2.674v1.992H5.415v1.523h2.758v1.99H3.245V240.959z"/>
		<path d="M11.561,240.959h1.955l3.43,5.576l0.025-0.023l-0.098-5.553h2.172v8.875h-1.967l-3.383-5.396l-0.023,0.012l0.061,5.385
			h-2.172V240.959z"/>
		<path d="M22.579,240.959h4.928v1.99h-2.758v1.379h2.674v1.992h-2.674v1.523h2.758v1.99h-4.928V240.959z"/>
		<path d="M30.895,240.959h2.807c1.559,0,2.158,0.191,2.734,0.635c0.732,0.576,1.092,1.512,1.092,2.424
			c0,1.02-0.527,2.518-2.207,2.793l2.41,3.023h-2.59l-2.051-2.867h-0.023v2.867h-2.172V240.959z M33.067,245.42h0.803
			c1.332,0,1.486-0.84,1.486-1.271c0-0.803-0.586-1.199-1.463-1.199h-0.826V245.42z"/>
		<path d="M49.557,244.785c0.012,0.154,0.012,0.287,0.012,0.467c0,2.975-2.279,4.762-4.738,4.762c-2.686,0-4.713-2.1-4.713-4.654
			c0-2.65,2.135-4.568,4.75-4.568c2.123,0,3.945,1.428,4.438,3.143h-2.543c-0.348-0.625-0.996-1.152-1.955-1.152
			c-1.115,0-2.422,0.828-2.422,2.578c0,1.859,1.318,2.664,2.434,2.664c1.129,0,1.883-0.564,2.123-1.428h-2.65v-1.811H49.557z"/>
		<path d="M53.94,246.607l-2.65-5.648h2.459l1.318,3.562l1.332-3.562h2.434l-2.625,5.648v3.227H53.94V246.607z"/>
		<path d="M67.057,240.959h2.807c1.559,0,2.158,0.191,2.734,0.635c0.732,0.576,1.092,1.512,1.092,2.424
			c0,1.02-0.527,2.518-2.207,2.793l2.41,3.023h-2.59l-2.051-2.867h-0.023v2.867h-2.172V240.959z M69.229,245.42h0.803
			c1.332,0,1.486-0.84,1.486-1.271c0-0.803-0.586-1.199-1.463-1.199h-0.826V245.42z"/>
		<path d="M76.795,240.959h4.93v1.99h-2.758v1.379h2.674v1.992h-2.674v1.523h2.758v1.99h-4.93V240.959z"/>
		<path d="M88.608,243.549c-0.047-0.299-0.119-0.863-0.814-0.863c-0.396,0-0.779,0.275-0.779,0.695c0,0.527,0.24,0.637,1.834,1.355
			c1.656,0.744,2.076,1.512,2.076,2.543c0,1.295-0.744,2.723-3.096,2.723c-2.566,0-3.201-1.68-3.201-2.818v-0.289h2.254
			c0,1.033,0.637,1.213,0.924,1.213c0.539,0,0.863-0.445,0.863-0.852c0-0.588-0.371-0.732-1.738-1.309
			c-0.625-0.252-2.172-0.875-2.172-2.543c0-1.666,1.619-2.613,3.107-2.613c0.875,0,1.822,0.324,2.398,1.008
			c0.527,0.646,0.562,1.246,0.588,1.75H88.608z"/>
		<path d="M98.196,240.791c2.734,0,4.689,2.135,4.689,4.605s-1.943,4.605-4.703,4.605c-2.793,0-4.664-2.219-4.664-4.498
			c0-0.588,0.084-1.248,0.348-1.895C94.333,242.457,95.711,240.791,98.196,240.791z M98.231,248.01c1.607,0,2.387-1.463,2.387-2.602
			c0-1.152-0.779-2.627-2.41-2.627c-1.572,0-2.424,1.344-2.424,2.592C95.784,246.74,96.708,248.01,98.231,248.01z"/>
		<path d="M108.19,240.959v5.361c0,0.6,0.037,1.689,1.152,1.689c1.127,0,1.127-0.982,1.127-1.689v-5.361h2.268v5.361
			c0,1.486-0.324,2.146-0.889,2.723c-0.574,0.586-1.379,0.959-2.482,0.959c-0.646,0-1.822-0.156-2.555-0.947
			c-0.73-0.805-0.887-1.428-0.887-2.734v-5.361H108.19z"/>
		<path d="M116.229,240.959h2.807c1.559,0,2.158,0.191,2.734,0.635c0.732,0.576,1.092,1.512,1.092,2.424
			c0,1.02-0.527,2.518-2.207,2.793l2.41,3.023h-2.59l-2.051-2.867h-0.023v2.867h-2.172V240.959z M118.401,245.42h0.803
			c1.332,0,1.486-0.84,1.486-1.271c0-0.803-0.586-1.199-1.463-1.199h-0.826V245.42z"/>
		<path d="M134.62,246.512c-0.516,2.1-2.338,3.49-4.484,3.49c-2.783,0-4.678-2.219-4.678-4.617c0-2.268,1.75-4.594,4.654-4.594
			c2.781,0,4.27,2.146,4.508,3.537h-2.373c-0.252-0.658-0.924-1.547-2.148-1.547c-1.521,0-2.373,1.332-2.373,2.592
			c0,1.342,0.91,2.637,2.387,2.637c1.414,0,1.99-1.186,2.135-1.498H134.62z"/>
		<path d="M137.649,240.959h4.928v1.99h-2.758v1.379h2.674v1.992h-2.674v1.523h2.758v1.99h-4.928V240.959z"/>
	</g>
	<g>
		<path d="M53.149,264.549c-0.047-0.299-0.119-0.863-0.814-0.863c-0.396,0-0.779,0.275-0.779,0.695c0,0.527,0.24,0.637,1.834,1.355
			c1.656,0.744,2.076,1.512,2.076,2.543c0,1.295-0.744,2.723-3.096,2.723c-2.566,0-3.201-1.68-3.201-2.818v-0.289h2.254
			c0,1.033,0.637,1.213,0.924,1.213c0.539,0,0.863-0.445,0.863-0.852c0-0.588-0.371-0.732-1.738-1.309
			c-0.625-0.252-2.172-0.875-2.172-2.543c0-1.666,1.619-2.613,3.107-2.613c0.875,0,1.822,0.324,2.398,1.008
			c0.527,0.646,0.562,1.246,0.588,1.75H53.149z"/>
		<path d="M58.567,261.959h2.268v3.334h2.902v-3.334h2.266v8.875h-2.266v-3.551h-2.902v3.551h-2.268V261.959z"/>
		<path d="M71.581,269.551l-0.469,1.283h-2.434l3.561-8.875h1.787l3.527,8.875h-2.459l-0.432-1.283H71.581z M72.204,267.752h1.859
			l-0.912-3.035h-0.012h-0.023L72.204,267.752z"/>
		<path d="M80.233,261.959h2.807c1.559,0,2.158,0.191,2.734,0.635c0.732,0.576,1.092,1.512,1.092,2.424
			c0,1.02-0.527,2.518-2.207,2.793l2.41,3.023h-2.59l-2.051-2.867h-0.023v2.867h-2.172V261.959z M82.405,266.42h0.803
			c1.332,0,1.486-0.84,1.486-1.271c0-0.803-0.586-1.199-1.463-1.199h-0.826V266.42z"/>
		<path d="M89.973,261.959h2.902c1.643,0,2.254,0.252,2.734,0.646c0.695,0.576,1.043,1.451,1.043,2.352s-0.371,1.848-0.936,2.326
			c-0.611,0.516-1.211,0.768-2.59,0.768h-0.984v2.783h-2.17V261.959z M92.143,266.061h0.924c0.432,0,1.416,0,1.416-1.068
			c0-1.043-1.008-1.043-1.5-1.043h-0.84V266.061z"/>
	</g>
	<g>
		<path d="M29.737,290.551l-0.467,1.283h-2.436l3.562-8.875h1.787l3.525,8.875H33.25l-0.432-1.283H29.737z M30.36,288.752h1.859
			l-0.912-3.035h-0.012h-0.023L30.36,288.752z"/>
		<path d="M47.032,286.785c0.012,0.154,0.012,0.287,0.012,0.467c0,2.975-2.279,4.762-4.738,4.762c-2.686,0-4.713-2.1-4.713-4.654
			c0-2.65,2.135-4.568,4.75-4.568c2.123,0,3.945,1.428,4.438,3.143h-2.543c-0.348-0.625-0.996-1.152-1.955-1.152
			c-1.115,0-2.422,0.828-2.422,2.578c0,1.859,1.318,2.664,2.434,2.664c1.129,0,1.883-0.564,2.123-1.428h-2.65v-1.811H47.032z"/>
		<path d="M59.102,286.785c0.012,0.154,0.012,0.287,0.012,0.467c0,2.975-2.277,4.762-4.736,4.762c-2.688,0-4.713-2.1-4.713-4.654
			c0-2.65,2.135-4.568,4.748-4.568c2.123,0,3.947,1.428,4.438,3.143h-2.541c-0.348-0.625-0.996-1.152-1.955-1.152
			c-1.115,0-2.424,0.828-2.424,2.578c0,1.859,1.32,2.664,2.436,2.664c1.127,0,1.883-0.564,2.123-1.428h-2.65v-1.811H59.102z"/>
		<path d="M62.168,282.959h2.807c1.559,0,2.158,0.191,2.734,0.635c0.73,0.576,1.09,1.512,1.09,2.424c0,1.02-0.527,2.518-2.205,2.793
			l2.41,3.023h-2.592l-2.051-2.867h-0.023v2.867h-2.17V282.959z M64.338,287.42h0.805c1.33,0,1.486-0.84,1.486-1.271
			c0-0.803-0.588-1.199-1.463-1.199h-0.828V287.42z"/>
		<path d="M71.907,282.959h4.93v1.99h-2.758v1.379h2.674v1.992h-2.674v1.523h2.758v1.99h-4.93V282.959z"/>
		<path d="M83.719,285.549c-0.049-0.299-0.119-0.863-0.816-0.863c-0.395,0-0.779,0.275-0.779,0.695c0,0.527,0.24,0.637,1.836,1.355
			c1.654,0.744,2.074,1.512,2.074,2.543c0,1.295-0.744,2.723-3.094,2.723c-2.566,0-3.203-1.68-3.203-2.818v-0.289h2.256
			c0,1.033,0.635,1.213,0.924,1.213c0.539,0,0.863-0.445,0.863-0.852c0-0.588-0.373-0.732-1.74-1.309
			c-0.623-0.252-2.17-0.875-2.17-2.543c0-1.666,1.619-2.613,3.105-2.613c0.877,0,1.824,0.324,2.398,1.008
			c0.529,0.646,0.564,1.246,0.588,1.75H83.719z"/>
		<path d="M92.674,285.549c-0.049-0.299-0.119-0.863-0.816-0.863c-0.395,0-0.779,0.275-0.779,0.695c0,0.527,0.24,0.637,1.836,1.355
			c1.654,0.744,2.074,1.512,2.074,2.543c0,1.295-0.744,2.723-3.094,2.723c-2.566,0-3.203-1.68-3.203-2.818v-0.289h2.256
			c0,1.033,0.635,1.213,0.924,1.213c0.539,0,0.863-0.445,0.863-0.852c0-0.588-0.373-0.732-1.74-1.309
			c-0.623-0.252-2.17-0.875-2.17-2.543c0-1.666,1.619-2.613,3.105-2.613c0.877,0,1.824,0.324,2.398,1.008
			c0.529,0.646,0.564,1.246,0.588,1.75H92.674z"/>
		<path d="M98.104,282.959h2.268v8.875h-2.268V282.959z"/>
		<path d="M105.393,282.959l1.787,6.225h0.025l1.799-6.225h2.338l-2.975,8.875h-2.338l-2.963-8.875H105.393z"/>
		<path d="M114.057,282.959h4.93v1.99h-2.758v1.379h2.674v1.992h-2.674v1.523h2.758v1.99h-4.93V282.959z"/>
	</g>
</g>
<g>
	<g>
		<path d="M-427.629,139.634h2.283l4.006,6.514l0.028-0.028l-0.112-6.486h2.536V150h-2.298l-3.95-6.303l-0.027,0.014l0.069,6.29
			h-2.535V139.634z"/>
		<path d="M-412.394,148.501L-412.94,150h-2.844l4.16-10.366h2.087l4.118,10.366h-2.871l-0.504-1.499H-412.394z M-411.666,146.4
			h2.171l-1.064-3.544h-0.014h-0.028L-411.666,146.4z"/>
		<path d="M-400.103,139.634v6.262c0,0.7,0.042,1.975,1.345,1.975c1.317,0,1.317-1.149,1.317-1.975v-6.262h2.647v6.262
			c0,1.737-0.379,2.507-1.037,3.18c-0.672,0.686-1.61,1.121-2.899,1.121c-0.757,0-2.129-0.182-2.983-1.107
			c-0.854-0.938-1.037-1.667-1.037-3.193v-6.262H-400.103z"/>
		<path d="M-389.657,141.959h-2.046v-2.325h6.724v2.325h-2.03V150h-2.647V141.959z"/>
		<path d="M-381.884,139.634h2.647V150h-2.647V139.634z"/>
		<path d="M-375.126,139.634h2.647v8.041h3.067V150h-5.715V139.634z"/>
		<path d="M-363.769,139.634v6.262c0,0.7,0.042,1.975,1.345,1.975c1.317,0,1.317-1.149,1.317-1.975v-6.262h2.647v6.262
			c0,1.737-0.379,2.507-1.037,3.18c-0.672,0.686-1.61,1.121-2.899,1.121c-0.757,0-2.129-0.182-2.983-1.107
			c-0.854-0.938-1.037-1.667-1.037-3.193v-6.262H-363.769z"/>
		<path d="M-350.302,142.66c-0.057-0.35-0.141-1.009-0.953-1.009c-0.462,0-0.91,0.322-0.91,0.812c0,0.616,0.28,0.743,2.144,1.583
			c1.933,0.868,2.423,1.765,2.423,2.97c0,1.513-0.868,3.18-3.614,3.18c-2.997,0-3.739-1.961-3.739-3.292v-0.336h2.633
			c0,1.205,0.742,1.415,1.079,1.415c0.63,0,1.008-0.518,1.008-0.995c0-0.687-0.434-0.854-2.03-1.527
			c-0.729-0.294-2.536-1.022-2.536-2.969c0-1.947,1.892-3.054,3.628-3.054c1.022,0,2.13,0.378,2.802,1.176
			c0.616,0.756,0.658,1.457,0.687,2.045H-350.302z"/>
	</g>
	<g>
		<path d="M-431.189,177.958h2.902c1.643,0,2.255,0.252,2.734,0.647c0.695,0.576,1.044,1.451,1.044,2.351
			c0,0.9-0.372,1.847-0.936,2.327c-0.612,0.516-1.212,0.768-2.591,0.768h-0.983v2.782h-2.171V177.958z M-429.018,182.06h0.923
			c0.433,0,1.416,0,1.416-1.067c0-1.043-1.008-1.043-1.5-1.043h-0.839V182.06z"/>
		<path d="M-421.717,177.958h2.807c1.559,0,2.158,0.192,2.734,0.636c0.731,0.576,1.091,1.511,1.091,2.422
			c0,1.02-0.527,2.519-2.206,2.794l2.41,3.022h-2.591l-2.051-2.866h-0.023v2.866h-2.171V177.958z M-419.546,182.42h0.804
			c1.331,0,1.486-0.839,1.486-1.271c0-0.803-0.587-1.199-1.463-1.199h-0.827V182.42z"/>
		<path d="M-409.611,185.55l-0.468,1.283h-2.435l3.562-8.875h1.787l3.526,8.875h-2.459l-0.432-1.283H-409.611z M-408.988,183.751
			h1.859l-0.912-3.034h-0.012h-0.023L-408.988,183.751z"/>
		<path d="M-392.317,181.784c0.012,0.156,0.012,0.288,0.012,0.468c0,2.975-2.278,4.761-4.737,4.761
			c-2.687,0-4.713-2.099-4.713-4.653c0-2.65,2.135-4.569,4.749-4.569c2.123,0,3.946,1.427,4.438,3.142h-2.542
			c-0.349-0.624-0.996-1.151-1.955-1.151c-1.115,0-2.423,0.828-2.423,2.579c0,1.859,1.319,2.663,2.435,2.663
			c1.128,0,1.883-0.563,2.123-1.427h-2.65v-1.811H-392.317z"/>
		<path d="M-389.251,177.958h2.914l1.764,5.841h0.023l1.739-5.841h2.926v8.875h-2.086l0.071-6.645l-0.023-0.024l-1.896,6.668h-1.499
			l-1.895-6.668l-0.024,0.024l0.072,6.645h-2.087V177.958z"/>
		<path d="M-374.294,185.55l-0.468,1.283h-2.435l3.562-8.875h1.787l3.526,8.875h-2.459l-0.432-1.283H-374.294z M-373.671,183.751
			h1.859l-0.912-3.034h-0.012h-0.023L-373.671,183.751z"/>
		<path d="M-365.115,179.949h-1.751v-1.991h5.757v1.991h-1.739v6.884h-2.267V179.949z"/>
		<path d="M-358.442,177.958h2.267v8.875h-2.267V177.958z"/>
		<path d="M-343.932,183.511c-0.516,2.099-2.339,3.49-4.485,3.49c-2.782,0-4.678-2.219-4.678-4.618c0-2.267,1.751-4.593,4.654-4.593
			c2.782,0,4.27,2.147,4.509,3.538h-2.374c-0.252-0.66-0.924-1.547-2.147-1.547c-1.522,0-2.374,1.332-2.374,2.591
			c0,1.343,0.911,2.638,2.387,2.638c1.415,0,1.99-1.187,2.135-1.499H-343.932z"/>
		<path d="M-413.772,198.958v5.361c0,0.6,0.036,1.691,1.151,1.691c1.128,0,1.128-0.983,1.128-1.691v-5.361h2.267v5.361
			c0,1.487-0.324,2.147-0.888,2.723c-0.575,0.587-1.379,0.959-2.482,0.959c-0.647,0-1.823-0.156-2.555-0.948
			c-0.731-0.803-0.888-1.427-0.888-2.734v-5.361H-413.772z"/>
		<path d="M-405.733,198.958h1.955l3.43,5.577l0.024-0.024l-0.097-5.553h2.171v8.875h-1.967l-3.382-5.397l-0.024,0.012l0.061,5.385
			h-2.171V198.958z"/>
		<path d="M-394.719,198.958h2.267v8.875h-2.267V198.958z"/>
		<path d="M-388.947,198.958h4.845v1.991h-2.674v1.511h2.578v1.991h-2.578v3.382h-2.171V198.958z"/>
		<path d="M-380.979,198.958h2.267v8.875h-2.267V198.958z"/>
		<path d="M-375.208,198.958h4.929v1.991h-2.758v1.379h2.674v1.991h-2.674v1.523h2.758v1.991h-4.929V198.958z"/>
		<path d="M-366.95,198.958h2.938c0.995,0,2.771,0,3.922,1.655c0.611,0.84,0.815,1.787,0.815,2.759c0,2.422-1.199,4.461-4.569,4.461
			h-3.106V198.958z M-364.683,205.843h0.972c1.691,0,2.171-1.175,2.171-2.435c0-0.503-0.108-1.139-0.432-1.643
			c-0.264-0.396-0.72-0.815-1.728-0.815h-0.983V205.843z"/>
		<path d="M-431.29,219.958h2.902c1.643,0,2.255,0.252,2.734,0.647c0.695,0.576,1.043,1.451,1.043,2.351
			c0,0.9-0.371,1.847-0.935,2.327c-0.612,0.516-1.212,0.768-2.591,0.768h-0.983v2.782h-2.171V219.958z M-429.119,224.06h0.923
			c0.433,0,1.416,0,1.416-1.067c0-1.043-1.008-1.043-1.5-1.043h-0.839V224.06z"/>
		<path d="M-421.818,219.958h2.807c1.559,0,2.158,0.192,2.734,0.636c0.731,0.576,1.091,1.511,1.091,2.422
			c0,1.02-0.527,2.519-2.206,2.794l2.41,3.022h-2.591l-2.051-2.866h-0.023v2.866h-2.171V219.958z M-419.647,224.42h0.804
			c1.331,0,1.486-0.839,1.486-1.271c0-0.803-0.587-1.199-1.463-1.199h-0.827V224.42z"/>
		<path d="M-407.924,219.791c2.734,0,4.689,2.135,4.689,4.605s-1.943,4.605-4.702,4.605c-2.794,0-4.665-2.219-4.665-4.498
			c0-0.588,0.084-1.248,0.348-1.895C-411.787,221.458-410.408,219.791-407.924,219.791z M-407.889,227.01
			c1.607,0,2.387-1.463,2.387-2.603c0-1.151-0.779-2.626-2.41-2.626c-1.571,0-2.423,1.343-2.423,2.591
			C-410.335,225.739-409.412,227.01-407.889,227.01z"/>
		<path d="M-399.277,221.949h-1.751v-1.991h5.757v1.991h-1.739v6.884h-2.267V221.949z"/>
		<path d="M-392.604,219.958h4.929v1.991h-2.758v1.379h2.674v1.991h-2.674v1.523h2.758v1.991h-4.929V219.958z"/>
		<path d="M-375.62,225.511c-0.516,2.099-2.339,3.49-4.485,3.49c-2.782,0-4.678-2.219-4.678-4.618c0-2.267,1.751-4.593,4.654-4.593
			c2.782,0,4.27,2.147,4.509,3.538h-2.374c-0.252-0.66-0.924-1.547-2.147-1.547c-1.522,0-2.374,1.332-2.374,2.591
			c0,1.343,0.911,2.638,2.387,2.638c1.415,0,1.99-1.187,2.135-1.499H-375.62z"/>
		<path d="M-371.614,221.949h-1.751v-1.991h5.757v1.991h-1.739v6.884h-2.267V221.949z"/>
		<path d="M-364.941,219.958h2.267v8.875h-2.267V219.958z"/>
		<path d="M-357.652,219.958l1.787,6.225h0.024l1.799-6.225h2.339l-2.975,8.875h-2.339l-2.963-8.875H-357.652z"/>
		<path d="M-348.987,219.958h4.929v1.991h-2.758v1.379h2.674v1.991h-2.674v1.523h2.758v1.991h-4.929V219.958z"/>
		<path d="M-412.69,240.958v5.361c0,0.6,0.036,1.691,1.151,1.691c1.128,0,1.128-0.983,1.128-1.691v-5.361h2.267v5.361
			c0,1.487-0.324,2.147-0.888,2.723c-0.575,0.587-1.379,0.959-2.482,0.959c-0.647,0-1.823-0.156-2.555-0.948
			c-0.731-0.803-0.888-1.427-0.888-2.734v-5.361H-412.69z"/>
		<path d="M-404.651,240.958h1.955l3.43,5.577l0.024-0.024l-0.097-5.553h2.171v8.875h-1.967l-3.382-5.397l-0.024,0.012l0.061,5.385
			h-2.171V240.958z"/>
		<path d="M-393.637,240.958h2.267v8.875h-2.267V240.958z"/>
		<path d="M-378.467,249.989c-0.167,0.012-0.348,0.024-0.563,0.024c-1.223,0-1.847-0.443-2.087-0.695
			c-1.031,0.636-1.906,0.695-2.494,0.695c-2.866,0-4.689-2.314-4.689-4.569c0-2.327,1.799-4.653,4.665-4.653
			s4.737,2.267,4.737,4.533c0,1.476-0.503,2.219-0.731,2.567c0.24,0.228,0.636,0.312,0.972,0.312c0.06,0,0.107,0,0.191-0.012
			V249.989z M-381.166,245.324c0-1.571-1.14-2.542-2.458-2.542c-1.212,0-2.159,0.828-2.399,2.243c0.384-0.156,0.731-0.3,1.26-0.3
			c0.959,0,2.171,0.492,3.298,1.871C-381.297,246.295-381.189,245.9-381.166,245.324z M-385.003,246.379
			c-0.348,0-0.552,0.06-0.791,0.144c0.443,1.055,1.427,1.511,2.158,1.499c0.372,0.012,0.731-0.072,1.031-0.228
			C-382.976,247.351-383.72,246.379-385.003,246.379z"/>
		<path d="M-373.384,240.958v5.361c0,0.6,0.036,1.691,1.151,1.691c1.128,0,1.128-0.983,1.128-1.691v-5.361h2.267v5.361
			c0,1.487-0.324,2.147-0.888,2.723c-0.575,0.587-1.379,0.959-2.482,0.959c-0.647,0-1.823-0.156-2.555-0.948
			c-0.731-0.803-0.888-1.427-0.888-2.734v-5.361H-373.384z"/>
		<path d="M-365.345,240.958h4.929v1.991h-2.758v1.379h2.674v1.991h-2.674v1.523h2.758v1.991h-4.929V240.958z"/>
		<path d="M-441.911,269.55l-0.468,1.283h-2.435l3.562-8.875h1.787l3.526,8.875h-2.459l-0.432-1.283H-441.911z M-441.288,267.751
			h1.859l-0.912-3.034h-0.012h-0.023L-441.288,267.751z"/>
		<path d="M-431.366,261.958v5.361c0,0.6,0.036,1.691,1.151,1.691c1.128,0,1.128-0.983,1.128-1.691v-5.361h2.267v5.361
			c0,1.487-0.324,2.147-0.888,2.723c-0.575,0.587-1.379,0.959-2.482,0.959c-0.647,0-1.823-0.156-2.555-0.948
			c-0.731-0.803-0.888-1.427-0.888-2.734v-5.361H-431.366z"/>
		<path d="M-422.401,263.949h-1.751v-1.991h5.757v1.991h-1.739v6.884h-2.267V263.949z"/>
		<path d="M-415.728,261.958h2.267v3.334h2.902v-3.334h2.267v8.875h-2.267v-3.55h-2.902v3.55h-2.267V261.958z"/>
		<path d="M-400.519,261.791c2.734,0,4.688,2.135,4.688,4.605s-1.942,4.605-4.701,4.605c-2.794,0-4.665-2.219-4.665-4.498
			c0-0.588,0.084-1.248,0.348-1.895C-404.381,263.458-403.002,261.791-400.519,261.791z M-400.484,269.01
			c1.607,0,2.387-1.463,2.387-2.603c0-1.151-0.779-2.626-2.41-2.626c-1.571,0-2.423,1.343-2.423,2.591
			C-402.93,267.739-402.006,269.01-400.484,269.01z"/>
		<path d="M-392.728,261.958h2.807c1.559,0,2.158,0.192,2.734,0.636c0.731,0.576,1.091,1.511,1.091,2.422
			c0,1.02-0.527,2.519-2.206,2.794l2.41,3.022h-2.591l-2.051-2.866h-0.023v2.866h-2.171V261.958z M-390.557,266.42h0.804
			c1.331,0,1.486-0.839,1.486-1.271c0-0.803-0.587-1.199-1.463-1.199h-0.827V266.42z"/>
		<path d="M-382.995,261.958h2.267v8.875h-2.267V261.958z"/>
		<path d="M-376.317,263.949h-1.751v-1.991h5.757v1.991h-1.739v6.884h-2.267V263.949z"/>
		<path d="M-367.965,269.55l-0.468,1.283h-2.435l3.562-8.875h1.787l3.526,8.875h-2.459l-0.432-1.283H-367.965z M-367.342,267.751
			h1.859l-0.912-3.034h-0.012h-0.023L-367.342,267.751z"/>
		<path d="M-358.786,263.949h-1.751v-1.991h5.757v1.991h-1.739v6.884h-2.267V263.949z"/>
		<path d="M-352.113,261.958h2.267v8.875h-2.267V261.958z"/>
		<path d="M-344.824,261.958l1.787,6.225h0.024l1.799-6.225h2.339l-2.975,8.875h-2.339l-2.963-8.875H-344.824z"/>
		<path d="M-336.159,261.958h4.929v1.991h-2.758v1.379h2.674v1.991h-2.674v1.523h2.758v1.991h-4.929V261.958z"/>
	</g>
	<g>
		<path fill="none" d="M-384.573,32.118c-2.571,1.204-4.055,2.444-4.591,2.939c-0.93,2.65-1.67,5.965-1.869,10.012
			c-0.356,7.239,0.296,13.348,1.887,17.667c0.123,0.333,0.251,0.654,0.383,0.961c0.052-0.182,0.105-0.367,0.162-0.556
			c0.814-2.747,2.521-7.632,6.02-15.308c1.859-4.077,6.029-12.873,9.484-17.65c-0.67-0.065-1.411-0.118-2.131-0.147
			C-375.769,30.057-380.686,30.298-384.573,32.118z"/>
		<path fill="none" d="M-386.183,29.068c0.05-0.023,0.099-0.047,0.149-0.071c2.687-1.257,5.689-1.86,7.843-2.148
			c-0.811-0.978-1.926-1.917-3.227-1.917c-0.066,0-0.133,0.002-0.199,0.007c-0.195,0.051-0.594,0.156-1.096,0.294
			C-383.22,25.624-384.656,26.837-386.183,29.068z"/>
		<path fill="none" d="M-380.373,64.367c-0.278,0-0.52-0.013-0.731-0.035c-0.249,0.138-0.497,0.272-0.738,0.398
			c-0.47,0.245-0.903,0.454-1.306,0.634c-0.289,0.424-0.764,1.113-1.272,1.815c-0.282,0.388-0.532,0.726-0.761,1.021
			c0.416,0.207,0.845,0.335,1.282,0.379c2.271,0.228,4.263-2.143,5.562-4.371C-379.176,64.321-379.841,64.367-380.373,64.367z"/>
		<path fill="none" d="M-402.213,35.566c-0.225,1.114-0.378,2.235-0.46,3.362c1.441-4.787,4.418-8.933,8.773-12.154
			c1.364-1.009,2.707-1.812,3.908-2.441c-0.497-0.067-1.02-0.108-1.557-0.108c-2.037,0-3.83,0.582-5.329,1.728
			c-0.847,0.647-1.8,1.538-2.769,2.644C-399.953,29.096-401.418,31.626-402.213,35.566z"/>
		<path fill="none" d="M-371.811,35.101c-0.106-0.031-0.219-0.062-0.336-0.093c-2.08,3.442-4.63,8.399-7.299,14.255
			c-2.632,5.771-4.277,10.038-5.28,13.042c1.931-0.843,5.126-2.695,9.352-6.111c4.654-3.761,8.564-10.217,8.979-10.913
			c1.244-2.65,1.906-5.734,1.389-6.497c-0.846-1.245-4.086-2.768-6.115-3.452L-371.811,35.101z"/>
		<path fill="none" d="M-391.703,65.557c-0.239-0.516-0.466-1.059-0.676-1.631c-1.75-4.75-2.475-11.329-2.096-19.027
			c0.383-7.76,2.565-13.195,4.801-16.797c-0.732,0.435-1.499,0.936-2.27,1.511c-4.902,3.661-7.658,8.454-8.193,14.244
			c-0.633,6.84,3.572,15.466,4.168,16.647C-394.519,62.586-393.056,64.247-391.703,65.557z"/>
		<path fill="none" d="M-358.613,18.741c-7.549-7.549-17.586-11.707-28.262-11.707s-20.712,4.157-28.262,11.707
			c-7.549,7.549-11.705,17.585-11.705,28.261s4.156,20.712,11.705,28.261c7.55,7.549,17.586,11.707,28.262,11.707
			s20.713-4.158,28.262-11.707s11.705-17.585,11.705-28.261S-351.064,26.29-358.613,18.741z M-361.768,51.259
			c0.019,3.167-3.024,6.615-4.155,7.786c-0.696,3.021-1.672,6.965-3.769,9.977c-2.513,3.61-6.313,5.44-11.3,5.44
			c-1.943,0-4.127-0.276-6.487-0.821c-8.624-1.991-13.739-6.897-16.511-10.663c-2.762-3.754-3.803-7.122-3.985-7.77
			c-3.04-7.939-1.598-15.028,0.152-19.583c1.92-4.999,5.229-9.638,8.853-12.409c2.113-1.617,4.61-2.437,7.422-2.437
			c2.994,0,5.563,0.952,6.732,1.465c1.306-0.378,2.422-0.665,2.476-0.678l0.119-0.031l0.122-0.013
			c0.227-0.025,0.456-0.037,0.682-0.037c3.8,0,6.259,3.42,7.26,5.152c4.804,0.279,5.403,1.063,5.734,1.497
			c0.604,0.791,0.633,1.869,0.106,3.978c-0.046,0.184-0.093,0.365-0.142,0.54c1.945,0.792,4.994,2.272,6.301,4.195
			c0.962,1.416,1.018,3.523,0.17,6.444c-0.324,1.115-0.717,2.121-0.99,2.771C-362.513,47.134-361.781,49.153-361.768,51.259z"/>
		<path fill="none" d="M-373.208,58.873c-0.392,0.316-0.781,0.625-1.17,0.927c3.061-1.045,5.332-2.622,5.768-2.936
			c1.441-1.42,3.406-4.037,3.396-5.584c-0.002-0.433-0.051-0.868-0.127-1.287C-367.121,52.568-369.957,56.244-373.208,58.873z"/>
		<path fill="none" d="M-403.024,54.954c-2.006-4.457-2.863-8.566-3.088-12.125c-0.408,3.286-0.199,7.128,1.382,11.219l0.035,0.092
			l0.025,0.096c0.008,0.027,0.879,3.242,3.539,6.813c1.529,2.052,3.309,3.799,5.328,5.232
			C-398.287,63.521-400.826,59.841-403.024,54.954z"/>
		<path fill="none" d="M-374.048,63.313c-0.388,0.904-1.125,2.458-2.186,3.991c-1.25,1.807-2.517,2.963-3.715,3.681
			c3.342-0.211,5.72-1.475,7.43-3.931c1.039-1.493,1.75-3.278,2.338-5.275C-371.291,62.324-372.599,62.875-374.048,63.313z"/>
		<path d="M-353.639,13.767C-362.517,4.889-374.32,0-386.875,0s-24.357,4.889-33.235,13.767
			c-8.877,8.877-13.767,20.681-13.767,33.235s4.89,24.357,13.767,33.235c8.878,8.877,20.681,13.766,33.235,13.766
			s24.357-4.889,33.235-13.766c8.878-8.878,13.767-20.681,13.767-33.235S-344.761,22.644-353.639,13.767z M-358.613,75.263
			c-7.549,7.549-17.586,11.707-28.262,11.707s-20.712-4.158-28.262-11.707c-7.549-7.549-11.705-17.585-11.705-28.261
			s4.156-20.712,11.705-28.261c7.55-7.549,17.586-11.707,28.262-11.707s20.713,4.157,28.262,11.707
			c7.549,7.549,11.705,17.585,11.705,28.261S-351.064,67.714-358.613,75.263z"/>
		<path d="M-362.158,36.847c-1.307-1.923-4.355-3.404-6.301-4.195c0.049-0.174,0.096-0.356,0.142-0.54
			c0.526-2.109,0.498-3.188-0.106-3.978c-0.331-0.434-0.931-1.218-5.734-1.497c-1.001-1.731-3.46-5.152-7.26-5.152
			c-0.226,0-0.455,0.012-0.682,0.037l-0.122,0.013l-0.119,0.031c-0.054,0.014-1.17,0.3-2.476,0.678
			c-1.169-0.514-3.738-1.465-6.732-1.465c-2.812,0-5.309,0.82-7.422,2.437c-3.623,2.771-6.933,7.41-8.853,12.409
			c-1.75,4.555-3.192,11.644-0.152,19.583c0.183,0.647,1.224,4.016,3.985,7.77c2.771,3.766,7.887,8.672,16.511,10.663
			c2.36,0.545,4.544,0.821,6.487,0.821c4.986,0,8.787-1.83,11.3-5.44c2.097-3.011,3.072-6.955,3.769-9.977
			c1.131-1.171,4.174-4.619,4.155-7.786c-0.013-2.106-0.745-4.125-1.21-5.197c0.273-0.651,0.666-1.656,0.99-2.771
			C-361.14,40.371-361.196,38.263-362.158,36.847z M-365.007,38.784c0.518,0.762-0.145,3.846-1.389,6.497
			c-0.414,0.696-4.324,7.152-8.979,10.913c-4.226,3.416-7.421,5.268-9.352,6.111c1.003-3.004,2.648-7.271,5.28-13.042
			c2.669-5.856,5.219-10.812,7.299-14.255c0.117,0.03,0.229,0.062,0.336,0.093l0.688,0.231
			C-369.093,36.016-365.853,37.539-365.007,38.784z M-395.968,60.504c-0.596-1.182-4.801-9.808-4.168-16.647
			c0.535-5.791,3.291-10.583,8.193-14.244c0.771-0.576,1.537-1.077,2.27-1.511c-2.235,3.603-4.418,9.038-4.801,16.797
			c-0.379,7.698,0.346,14.277,2.096,19.027c0.21,0.572,0.437,1.115,0.676,1.631C-393.056,64.247-394.519,62.586-395.968,60.504z
			 M-383.899,68.58c-0.438-0.044-0.866-0.172-1.282-0.379c0.229-0.295,0.479-0.633,0.761-1.021c0.509-0.702,0.983-1.391,1.272-1.815
			c0.402-0.18,0.836-0.389,1.306-0.634c0.241-0.126,0.489-0.261,0.738-0.398c0.212,0.022,0.453,0.035,0.731,0.035
			c0.531,0,1.196-0.046,2.035-0.159C-379.636,66.437-381.627,68.808-383.899,68.58z M-373.097,30.183
			c-3.455,4.777-7.625,13.573-9.484,17.65c-3.498,7.676-5.205,12.561-6.02,15.308c-0.057,0.189-0.11,0.375-0.162,0.556
			c-0.132-0.307-0.26-0.628-0.383-0.961c-1.591-4.319-2.243-10.428-1.887-17.667c0.199-4.047,0.939-7.362,1.869-10.012
			c0.536-0.495,2.02-1.735,4.591-2.939c3.887-1.82,8.804-2.061,9.345-2.083C-374.508,30.064-373.767,30.117-373.097,30.183z
			 M-381.617,24.938c0.066-0.005,0.133-0.007,0.199-0.007c1.301,0,2.416,0.94,3.227,1.917c-2.153,0.288-5.156,0.891-7.843,2.148
			c-0.051,0.024-0.1,0.048-0.149,0.071c1.527-2.231,2.963-3.444,3.471-3.836C-382.21,25.094-381.812,24.989-381.617,24.938z
			 M-396.877,25.953c1.499-1.146,3.292-1.728,5.329-1.728c0.537,0,1.06,0.041,1.557,0.108c-1.201,0.629-2.544,1.433-3.908,2.441
			c-4.355,3.222-7.332,7.367-8.773,12.154c0.082-1.127,0.235-2.248,0.46-3.362c0.795-3.94,2.261-6.471,2.567-6.97
			C-398.677,27.491-397.724,26.601-396.877,25.953z M-399.591,28.509L-399.591,28.509L-399.591,28.509z M-401.13,61.05
			c-2.66-3.571-3.531-6.786-3.539-6.813l-0.025-0.096l-0.035-0.092c-1.581-4.091-1.79-7.933-1.382-11.219
			c0.225,3.559,1.082,7.668,3.088,12.125c2.198,4.887,4.737,8.566,7.222,11.328C-397.822,64.849-399.601,63.102-401.13,61.05z
			 M-372.519,67.054c-1.71,2.456-4.088,3.72-7.43,3.931c1.198-0.718,2.465-1.874,3.715-3.681c1.061-1.533,1.798-3.086,2.186-3.991
			c1.449-0.438,2.758-0.989,3.867-1.534C-370.769,63.775-371.48,65.561-372.519,67.054z M-368.611,56.864
			c-0.436,0.314-2.707,1.89-5.768,2.936c0.389-0.301,0.778-0.61,1.17-0.927c3.252-2.629,6.088-6.305,7.867-8.88
			c0.076,0.419,0.125,0.854,0.127,1.287C-365.205,52.827-367.169,55.444-368.611,56.864z"/>
		
			<line fill="none" stroke="#231F20" stroke-width="0" stroke-linecap="round" stroke-linejoin="round" x1="-399.591" y1="28.509" x2="-399.591" y2="28.509"/>
	</g>
</g>
</svg>
