<?xml version="1.0" encoding="utf-8"?>
<!-- Generator: Adobe Illustrator 16.0.0, SVG Export Plug-In . SVG Version: 6.00 Build 0)  -->
<!DOCTYPE svg PUBLIC "-//W3C//DTD SVG 1.1//EN" "http://www.w3.org/Graphics/SVG/1.1/DTD/svg11.dtd">
<svg version="1.1" id="Layer_1" xmlns="http://www.w3.org/2000/svg" xmlns:xlink="http://www.w3.org/1999/xlink" x="0px" y="0px"
	 width="113.583px" height="271.001px" viewBox="0 0 113.583 271.001" enable-background="new 0 0 113.583 271.001"
	 xml:space="preserve">
<g>
	<g>
		<path d="M16.776,139.634h2.283l4.006,6.514l0.028-0.028l-0.112-6.486h2.536V150H23.22l-3.95-6.303l-0.027,0.014l0.069,6.29h-2.535
			V139.634z"/>
		<path d="M32.012,148.501L31.466,150h-2.844l4.16-10.366h2.087L38.987,150h-2.871l-0.504-1.499H32.012z M32.74,146.4h2.171
			l-1.064-3.544h-0.014h-0.028L32.74,146.4z"/>
		<path d="M44.303,139.634v6.262c0,0.7,0.042,1.975,1.345,1.975c1.317,0,1.317-1.149,1.317-1.975v-6.262h2.647v6.262
			c0,1.737-0.379,2.507-1.037,3.18c-0.672,0.686-1.61,1.121-2.899,1.121c-0.757,0-2.129-0.182-2.983-1.107
			c-0.854-0.938-1.037-1.667-1.037-3.193v-6.262H44.303z"/>
		<path d="M54.749,141.959h-2.046v-2.325h6.724v2.325h-2.03V150h-2.647V141.959z"/>
		<path d="M62.521,139.634h2.647V150h-2.647V139.634z"/>
		<path d="M69.279,139.634h2.647v8.041h3.067V150h-5.715V139.634z"/>
		<path d="M80.637,139.634v6.262c0,0.7,0.042,1.975,1.345,1.975c1.317,0,1.317-1.149,1.317-1.975v-6.262h2.647v6.262
			c0,1.737-0.379,2.507-1.037,3.18c-0.672,0.686-1.61,1.121-2.899,1.121c-0.757,0-2.129-0.182-2.983-1.107
			c-0.854-0.938-1.037-1.667-1.037-3.193v-6.262H80.637z"/>
		<path d="M94.104,142.66c-0.057-0.35-0.141-1.009-0.953-1.009c-0.462,0-0.91,0.322-0.91,0.812c0,0.616,0.28,0.743,2.144,1.583
			c1.933,0.868,2.423,1.765,2.423,2.97c0,1.513-0.868,3.18-3.614,3.18c-2.997,0-3.739-1.961-3.739-3.292v-0.336h2.633
			c0,1.205,0.742,1.415,1.079,1.415c0.63,0,1.008-0.518,1.008-0.995c0-0.687-0.434-0.854-2.03-1.527
			c-0.729-0.294-2.536-1.022-2.536-2.969c0-1.947,1.892-3.054,3.628-3.054c1.022,0,2.13,0.378,2.802,1.176
			c0.616,0.756,0.658,1.457,0.687,2.045H94.104z"/>
	</g>
	<g>
		<path d="M13.624,177.958h2.902c1.643,0,2.255,0.252,2.734,0.647c0.695,0.576,1.044,1.451,1.044,2.351
			c0,0.9-0.372,1.847-0.936,2.327c-0.612,0.516-1.212,0.768-2.591,0.768h-0.983v2.782h-2.171V177.958z M15.795,182.06h0.923
			c0.433,0,1.416,0,1.416-1.067c0-1.043-1.008-1.043-1.5-1.043h-0.839V182.06z"/>
		<path d="M23.096,177.958h2.807c1.559,0,2.158,0.192,2.734,0.636c0.731,0.576,1.091,1.511,1.091,2.422
			c0,1.02-0.527,2.519-2.206,2.794l2.41,3.022h-2.591l-2.051-2.866h-0.023v2.866h-2.171V177.958z M25.267,182.42h0.804
			c1.331,0,1.486-0.839,1.486-1.271c0-0.803-0.587-1.199-1.463-1.199h-0.827V182.42z"/>
		<path d="M35.202,185.55l-0.468,1.283H32.3l3.562-8.875h1.787l3.526,8.875h-2.459l-0.432-1.283H35.202z M35.825,183.751h1.859
			l-0.912-3.034h-0.012h-0.023L35.825,183.751z"/>
		<path d="M52.496,181.784c0.012,0.156,0.012,0.288,0.012,0.468c0,2.975-2.278,4.761-4.737,4.761c-2.687,0-4.713-2.099-4.713-4.653
			c0-2.65,2.135-4.569,4.749-4.569c2.123,0,3.946,1.427,4.438,3.142h-2.542c-0.349-0.624-0.996-1.151-1.955-1.151
			c-1.115,0-2.423,0.828-2.423,2.579c0,1.859,1.319,2.663,2.435,2.663c1.128,0,1.883-0.563,2.123-1.427h-2.65v-1.811H52.496z"/>
		<path d="M55.562,177.958h2.914l1.764,5.841h0.023l1.739-5.841h2.926v8.875h-2.086l0.071-6.645l-0.023-0.024l-1.896,6.668h-1.499
			l-1.895-6.668l-0.024,0.024l0.072,6.645h-2.087V177.958z"/>
		<path d="M70.519,185.55l-0.468,1.283h-2.435l3.562-8.875h1.787l3.526,8.875h-2.459l-0.432-1.283H70.519z M71.142,183.751h1.859
			l-0.912-3.034h-0.012h-0.023L71.142,183.751z"/>
		<path d="M79.698,179.949h-1.751v-1.991h5.757v1.991h-1.739v6.884h-2.267V179.949z"/>
		<path d="M86.371,177.958h2.267v8.875h-2.267V177.958z"/>
		<path d="M100.881,183.511c-0.516,2.099-2.339,3.49-4.485,3.49c-2.782,0-4.678-2.219-4.678-4.618c0-2.267,1.751-4.593,4.654-4.593
			c2.782,0,4.27,2.147,4.509,3.538h-2.374c-0.252-0.66-0.924-1.547-2.147-1.547c-1.522,0-2.374,1.332-2.374,2.591
			c0,1.343,0.911,2.638,2.387,2.638c1.415,0,1.99-1.187,2.135-1.499H100.881z"/>
		<path d="M31.041,198.958v5.361c0,0.6,0.036,1.691,1.151,1.691c1.128,0,1.128-0.983,1.128-1.691v-5.361h2.267v5.361
			c0,1.487-0.324,2.147-0.888,2.723c-0.575,0.587-1.379,0.959-2.482,0.959c-0.647,0-1.823-0.156-2.555-0.948
			c-0.731-0.803-0.888-1.427-0.888-2.734v-5.361H31.041z"/>
		<path d="M39.08,198.958h1.955l3.43,5.577l0.024-0.024l-0.097-5.553h2.171v8.875h-1.967l-3.382-5.397l-0.024,0.012l0.061,5.385
			H39.08V198.958z"/>
		<path d="M50.094,198.958h2.267v8.875h-2.267V198.958z"/>
		<path d="M55.866,198.958h4.845v1.991h-2.674v1.511h2.578v1.991h-2.578v3.382h-2.171V198.958z"/>
		<path d="M63.834,198.958h2.267v8.875h-2.267V198.958z"/>
		<path d="M69.605,198.958h4.929v1.991h-2.758v1.379h2.674v1.991h-2.674v1.523h2.758v1.991h-4.929V198.958z"/>
		<path d="M77.863,198.958h2.938c0.995,0,2.771,0,3.922,1.655c0.611,0.84,0.815,1.787,0.815,2.759c0,2.422-1.199,4.461-4.569,4.461
			h-3.106V198.958z M80.13,205.843h0.972c1.691,0,2.171-1.175,2.171-2.435c0-0.503-0.108-1.139-0.432-1.643
			c-0.264-0.396-0.72-0.815-1.728-0.815H80.13V205.843z"/>
		<path d="M13.523,219.958h2.902c1.643,0,2.255,0.252,2.734,0.647c0.695,0.576,1.043,1.451,1.043,2.351
			c0,0.9-0.371,1.847-0.935,2.327c-0.612,0.516-1.212,0.768-2.591,0.768h-0.983v2.782h-2.171V219.958z M15.694,224.06h0.923
			c0.433,0,1.416,0,1.416-1.067c0-1.043-1.008-1.043-1.5-1.043h-0.839V224.06z"/>
		<path d="M22.995,219.958h2.807c1.559,0,2.158,0.192,2.734,0.636c0.731,0.576,1.091,1.511,1.091,2.422
			c0,1.02-0.527,2.519-2.206,2.794l2.41,3.022H27.24l-2.051-2.866h-0.023v2.866h-2.171V219.958z M25.166,224.42h0.804
			c1.331,0,1.486-0.839,1.486-1.271c0-0.803-0.587-1.199-1.463-1.199h-0.827V224.42z"/>
		<path d="M36.889,219.791c2.734,0,4.689,2.135,4.689,4.605s-1.943,4.605-4.702,4.605c-2.794,0-4.665-2.219-4.665-4.498
			c0-0.588,0.084-1.248,0.348-1.895C33.026,221.458,34.405,219.791,36.889,219.791z M36.924,227.01c1.607,0,2.387-1.463,2.387-2.603
			c0-1.151-0.779-2.626-2.41-2.626c-1.571,0-2.423,1.343-2.423,2.591C34.478,225.739,35.401,227.01,36.924,227.01z"/>
		<path d="M45.536,221.949h-1.751v-1.991h5.757v1.991h-1.739v6.884h-2.267V221.949z"/>
		<path d="M52.209,219.958h4.929v1.991H54.38v1.379h2.674v1.991H54.38v1.523h2.758v1.991h-4.929V219.958z"/>
		<path d="M69.193,225.511c-0.516,2.099-2.339,3.49-4.485,3.49c-2.782,0-4.678-2.219-4.678-4.618c0-2.267,1.751-4.593,4.654-4.593
			c2.782,0,4.27,2.147,4.509,3.538h-2.374c-0.252-0.66-0.924-1.547-2.147-1.547c-1.522,0-2.374,1.332-2.374,2.591
			c0,1.343,0.911,2.638,2.387,2.638c1.415,0,1.99-1.187,2.135-1.499H69.193z"/>
		<path d="M73.199,221.949h-1.751v-1.991h5.757v1.991h-1.739v6.884h-2.267V221.949z"/>
		<path d="M79.872,219.958h2.267v8.875h-2.267V219.958z"/>
		<path d="M87.161,219.958l1.787,6.225h0.024l1.799-6.225h2.339l-2.975,8.875h-2.339l-2.963-8.875H87.161z"/>
		<path d="M95.826,219.958h4.929v1.991h-2.758v1.379h2.674v1.991h-2.674v1.523h2.758v1.991h-4.929V219.958z"/>
		<path d="M32.123,240.958v5.361c0,0.6,0.036,1.691,1.151,1.691c1.128,0,1.128-0.983,1.128-1.691v-5.361h2.267v5.361
			c0,1.487-0.324,2.147-0.888,2.723c-0.575,0.587-1.379,0.959-2.482,0.959c-0.647,0-1.823-0.156-2.555-0.948
			c-0.731-0.803-0.888-1.427-0.888-2.734v-5.361H32.123z"/>
		<path d="M40.162,240.958h1.955l3.43,5.577l0.024-0.024l-0.097-5.553h2.171v8.875h-1.967l-3.382-5.397l-0.024,0.012l0.061,5.385
			h-2.171V240.958z"/>
		<path d="M51.176,240.958h2.267v8.875h-2.267V240.958z"/>
		<path d="M66.346,249.989c-0.167,0.012-0.348,0.024-0.563,0.024c-1.223,0-1.847-0.443-2.087-0.695
			c-1.031,0.636-1.906,0.695-2.494,0.695c-2.866,0-4.689-2.314-4.689-4.569c0-2.327,1.799-4.653,4.665-4.653
			s4.737,2.267,4.737,4.533c0,1.476-0.503,2.219-0.731,2.567c0.24,0.228,0.636,0.312,0.972,0.312c0.06,0,0.107,0,0.191-0.012
			V249.989z M63.647,245.324c0-1.571-1.14-2.542-2.458-2.542c-1.212,0-2.159,0.828-2.399,2.243c0.384-0.156,0.731-0.3,1.26-0.3
			c0.959,0,2.171,0.492,3.298,1.871C63.516,246.295,63.624,245.9,63.647,245.324z M59.81,246.379c-0.348,0-0.552,0.06-0.791,0.144
			c0.443,1.055,1.427,1.511,2.158,1.499c0.372,0.012,0.731-0.072,1.031-0.228C61.837,247.351,61.093,246.379,59.81,246.379z"/>
		<path d="M71.429,240.958v5.361c0,0.6,0.036,1.691,1.151,1.691c1.128,0,1.128-0.983,1.128-1.691v-5.361h2.267v5.361
			c0,1.487-0.324,2.147-0.888,2.723c-0.575,0.587-1.379,0.959-2.482,0.959c-0.647,0-1.823-0.156-2.555-0.948
			c-0.731-0.803-0.888-1.427-0.888-2.734v-5.361H71.429z"/>
		<path d="M79.468,240.958h4.929v1.991h-2.758v1.379h2.674v1.991h-2.674v1.523h2.758v1.991h-4.929V240.958z"/>
		<path d="M2.902,269.55l-0.468,1.283H0l3.562-8.875h1.787l3.526,8.875H6.416l-0.432-1.283H2.902z M3.525,267.751h1.859
			l-0.912-3.034H4.461H4.438L3.525,267.751z"/>
		<path d="M13.447,261.958v5.361c0,0.6,0.036,1.691,1.151,1.691c1.128,0,1.128-0.983,1.128-1.691v-5.361h2.267v5.361
			c0,1.487-0.324,2.147-0.888,2.723c-0.575,0.587-1.379,0.959-2.482,0.959c-0.647,0-1.823-0.156-2.555-0.948
			c-0.731-0.803-0.888-1.427-0.888-2.734v-5.361H13.447z"/>
		<path d="M22.412,263.949h-1.751v-1.991h5.757v1.991h-1.739v6.884h-2.267V263.949z"/>
		<path d="M29.085,261.958h2.267v3.334h2.902v-3.334h2.267v8.875h-2.267v-3.55h-2.902v3.55h-2.267V261.958z"/>
		<path d="M44.294,261.791c2.734,0,4.688,2.135,4.688,4.605s-1.942,4.605-4.701,4.605c-2.794,0-4.665-2.219-4.665-4.498
			c0-0.588,0.084-1.248,0.348-1.895C40.432,263.458,41.811,261.791,44.294,261.791z M44.329,269.01c1.607,0,2.387-1.463,2.387-2.603
			c0-1.151-0.779-2.626-2.41-2.626c-1.571,0-2.423,1.343-2.423,2.591C41.883,267.739,42.807,269.01,44.329,269.01z"/>
		<path d="M52.085,261.958h2.807c1.559,0,2.158,0.192,2.734,0.636c0.731,0.576,1.091,1.511,1.091,2.422
			c0,1.02-0.527,2.519-2.206,2.794l2.41,3.022H56.33l-2.051-2.866h-0.023v2.866h-2.171V261.958z M54.256,266.42h0.804
			c1.331,0,1.486-0.839,1.486-1.271c0-0.803-0.587-1.199-1.463-1.199h-0.827V266.42z"/>
		<path d="M61.818,261.958h2.267v8.875h-2.267V261.958z"/>
		<path d="M68.496,263.949h-1.751v-1.991h5.757v1.991h-1.739v6.884h-2.267V263.949z"/>
		<path d="M76.848,269.55l-0.468,1.283h-2.435l3.562-8.875h1.787l3.526,8.875h-2.459l-0.432-1.283H76.848z M77.471,267.751h1.859
			l-0.912-3.034h-0.012h-0.023L77.471,267.751z"/>
		<path d="M86.027,263.949h-1.751v-1.991h5.757v1.991h-1.739v6.884h-2.267V263.949z"/>
		<path d="M92.7,261.958h2.267v8.875H92.7V261.958z"/>
		<path d="M99.989,261.958l1.787,6.225h0.024l1.799-6.225h2.339l-2.975,8.875h-2.339l-2.963-8.875H99.989z"/>
		<path d="M108.654,261.958h4.929v1.991h-2.758v1.379h2.674v1.991h-2.674v1.523h2.758v1.991h-4.929V261.958z"/>
	</g>
	<g>
		<path fill="none" d="M59.093,32.118c-2.571,1.204-4.055,2.444-4.591,2.939c-0.93,2.65-1.67,5.965-1.869,10.012
			c-0.356,7.239,0.296,13.348,1.887,17.667c0.123,0.333,0.251,0.654,0.383,0.961c0.052-0.182,0.105-0.367,0.162-0.556
			c0.814-2.747,2.521-7.632,6.02-15.308c1.859-4.077,6.029-12.873,9.484-17.65c-0.67-0.065-1.411-0.118-2.131-0.147
			C67.897,30.057,62.98,30.298,59.093,32.118z"/>
		<path fill="none" d="M57.483,29.068c0.05-0.023,0.099-0.047,0.149-0.071c2.687-1.257,5.689-1.86,7.843-2.148
			c-0.811-0.978-1.926-1.917-3.227-1.917c-0.066,0-0.133,0.002-0.199,0.007c-0.195,0.051-0.594,0.156-1.096,0.294
			C60.446,25.624,59.01,26.837,57.483,29.068z"/>
		<path fill="none" d="M63.293,64.367c-0.278,0-0.52-0.013-0.731-0.035c-0.249,0.138-0.497,0.272-0.738,0.398
			c-0.47,0.245-0.903,0.454-1.306,0.634c-0.289,0.424-0.764,1.113-1.272,1.815c-0.282,0.388-0.532,0.726-0.761,1.021
			c0.416,0.207,0.845,0.335,1.282,0.379c2.271,0.228,4.263-2.143,5.562-4.371C64.49,64.321,63.825,64.367,63.293,64.367z"/>
		<path fill="none" d="M41.453,35.566c-0.225,1.114-0.378,2.235-0.46,3.362c1.441-4.787,4.418-8.933,8.773-12.154
			c1.364-1.009,2.707-1.812,3.908-2.441c-0.497-0.067-1.02-0.108-1.557-0.108c-2.037,0-3.83,0.582-5.329,1.728
			c-0.847,0.647-1.8,1.538-2.769,2.644C43.713,29.096,42.248,31.626,41.453,35.566z"/>
		<path fill="none" d="M71.855,35.101c-0.106-0.031-0.219-0.062-0.336-0.093c-2.08,3.442-4.63,8.399-7.299,14.255
			c-2.632,5.771-4.277,10.038-5.28,13.042c1.931-0.843,5.126-2.695,9.352-6.111c4.654-3.761,8.564-10.217,8.979-10.913
			c1.244-2.65,1.906-5.734,1.389-6.497c-0.846-1.245-4.086-2.768-6.115-3.452L71.855,35.101z"/>
		<path fill="none" d="M51.963,65.557c-0.239-0.516-0.466-1.059-0.676-1.631c-1.75-4.75-2.475-11.329-2.096-19.027
			c0.383-7.76,2.565-13.195,4.801-16.797c-0.732,0.435-1.499,0.936-2.27,1.511c-4.902,3.661-7.658,8.454-8.193,14.244
			c-0.633,6.84,3.572,15.466,4.168,16.647C49.147,62.586,50.61,64.247,51.963,65.557z"/>
		<path fill="none" d="M85.053,18.741C77.504,11.191,67.467,7.034,56.792,7.034S36.08,11.191,28.53,18.741
			c-7.549,7.549-11.705,17.585-11.705,28.261s4.156,20.712,11.705,28.261c7.55,7.549,17.586,11.707,28.262,11.707
			s20.713-4.158,28.262-11.707s11.705-17.585,11.705-28.261S92.602,26.29,85.053,18.741z M81.898,51.259
			c0.019,3.167-3.024,6.615-4.155,7.786c-0.696,3.021-1.672,6.965-3.769,9.977c-2.513,3.61-6.313,5.44-11.3,5.44
			c-1.943,0-4.127-0.276-6.487-0.821c-8.624-1.991-13.739-6.897-16.511-10.663c-2.762-3.754-3.803-7.122-3.985-7.77
			c-3.04-7.939-1.598-15.028,0.152-19.583c1.92-4.999,5.229-9.638,8.853-12.409c2.113-1.617,4.61-2.437,7.422-2.437
			c2.994,0,5.563,0.952,6.732,1.465c1.306-0.378,2.422-0.665,2.476-0.678l0.119-0.031l0.122-0.013
			c0.227-0.025,0.456-0.037,0.682-0.037c3.8,0,6.259,3.42,7.26,5.152c4.804,0.279,5.403,1.063,5.734,1.497
			c0.604,0.791,0.633,1.869,0.106,3.978c-0.046,0.184-0.093,0.365-0.142,0.54c1.945,0.792,4.994,2.272,6.301,4.195
			c0.962,1.416,1.018,3.523,0.17,6.444c-0.324,1.115-0.717,2.121-0.99,2.771C81.153,47.134,81.885,49.153,81.898,51.259z"/>
		<path fill="none" d="M70.458,58.873c-0.392,0.316-0.781,0.625-1.17,0.927c3.061-1.045,5.332-2.622,5.768-2.936
			c1.441-1.42,3.406-4.037,3.396-5.584c-0.002-0.433-0.051-0.868-0.127-1.287C76.545,52.568,73.709,56.244,70.458,58.873z"/>
		<path fill="none" d="M40.642,54.954c-2.006-4.457-2.863-8.566-3.088-12.125c-0.408,3.286-0.199,7.128,1.382,11.219l0.035,0.092
			l0.025,0.096c0.008,0.027,0.879,3.242,3.539,6.813c1.529,2.052,3.309,3.799,5.328,5.232C45.379,63.521,42.84,59.841,40.642,54.954
			z"/>
		<path fill="none" d="M69.618,63.313c-0.388,0.904-1.125,2.458-2.186,3.991c-1.25,1.807-2.517,2.963-3.715,3.681
			c3.342-0.211,5.72-1.475,7.43-3.931c1.039-1.493,1.75-3.278,2.338-5.275C72.375,62.324,71.067,62.875,69.618,63.313z"/>
		<path d="M90.027,13.767C81.149,4.889,69.346,0,56.792,0S32.434,4.889,23.556,13.767C14.679,22.644,9.79,34.447,9.79,47.002
			s4.89,24.357,13.767,33.235c8.878,8.877,20.681,13.766,33.235,13.766s24.357-4.889,33.235-13.766
			c8.878-8.878,13.767-20.681,13.767-33.235S98.905,22.644,90.027,13.767z M85.053,75.263c-7.549,7.549-17.586,11.707-28.262,11.707
			S36.08,82.812,28.53,75.263c-7.549-7.549-11.705-17.585-11.705-28.261S20.981,26.29,28.53,18.741
			c7.55-7.549,17.586-11.707,28.262-11.707s20.713,4.157,28.262,11.707c7.549,7.549,11.705,17.585,11.705,28.261
			S92.602,67.714,85.053,75.263z"/>
		<path d="M81.508,36.847c-1.307-1.923-4.355-3.404-6.301-4.195c0.049-0.174,0.096-0.356,0.142-0.54
			c0.526-2.109,0.498-3.188-0.106-3.978c-0.331-0.434-0.931-1.218-5.734-1.497c-1.001-1.731-3.46-5.152-7.26-5.152
			c-0.226,0-0.455,0.012-0.682,0.037l-0.122,0.013l-0.119,0.031c-0.054,0.014-1.17,0.3-2.476,0.678
			c-1.169-0.514-3.738-1.465-6.732-1.465c-2.812,0-5.309,0.82-7.422,2.437c-3.623,2.771-6.933,7.41-8.853,12.409
			c-1.75,4.555-3.192,11.644-0.152,19.583c0.183,0.647,1.224,4.016,3.985,7.77c2.771,3.766,7.887,8.672,16.511,10.663
			c2.36,0.545,4.544,0.821,6.487,0.821c4.986,0,8.787-1.83,11.3-5.44c2.097-3.011,3.072-6.955,3.769-9.977
			c1.131-1.171,4.174-4.619,4.155-7.786c-0.013-2.106-0.745-4.125-1.21-5.197c0.273-0.651,0.666-1.656,0.99-2.771
			C82.526,40.371,82.47,38.263,81.508,36.847z M78.659,38.784c0.518,0.762-0.145,3.846-1.389,6.497
			c-0.414,0.696-4.324,7.152-8.979,10.913c-4.226,3.416-7.421,5.268-9.352,6.111c1.003-3.004,2.648-7.271,5.28-13.042
			c2.669-5.856,5.219-10.812,7.299-14.255c0.117,0.03,0.229,0.062,0.336,0.093l0.688,0.231
			C74.573,36.016,77.813,37.539,78.659,38.784z M47.698,60.504c-0.596-1.182-4.801-9.808-4.168-16.647
			c0.535-5.791,3.291-10.583,8.193-14.244c0.771-0.576,1.537-1.077,2.27-1.511c-2.235,3.603-4.418,9.038-4.801,16.797
			c-0.379,7.698,0.346,14.277,2.096,19.027c0.21,0.572,0.437,1.115,0.676,1.631C50.61,64.247,49.147,62.586,47.698,60.504z
			 M59.767,68.58c-0.438-0.044-0.866-0.172-1.282-0.379c0.229-0.295,0.479-0.633,0.761-1.021c0.509-0.702,0.983-1.391,1.272-1.815
			c0.402-0.18,0.836-0.389,1.306-0.634c0.241-0.126,0.489-0.261,0.738-0.398c0.212,0.022,0.453,0.035,0.731,0.035
			c0.531,0,1.196-0.046,2.035-0.159C64.03,66.437,62.039,68.808,59.767,68.58z M70.569,30.183
			c-3.455,4.777-7.625,13.573-9.484,17.65c-3.498,7.676-5.205,12.561-6.02,15.308c-0.057,0.189-0.11,0.375-0.162,0.556
			c-0.132-0.307-0.26-0.628-0.383-0.961c-1.591-4.319-2.243-10.428-1.887-17.667c0.199-4.047,0.939-7.362,1.869-10.012
			c0.536-0.495,2.02-1.735,4.591-2.939c3.887-1.82,8.804-2.061,9.345-2.083C69.158,30.064,69.899,30.117,70.569,30.183z
			 M62.049,24.938c0.066-0.005,0.133-0.007,0.199-0.007c1.301,0,2.416,0.94,3.227,1.917c-2.153,0.288-5.156,0.891-7.843,2.148
			c-0.051,0.024-0.1,0.048-0.149,0.071c1.527-2.231,2.963-3.444,3.471-3.836C61.456,25.094,61.854,24.989,62.049,24.938z
			 M46.789,25.953c1.499-1.146,3.292-1.728,5.329-1.728c0.537,0,1.06,0.041,1.557,0.108c-1.201,0.629-2.544,1.433-3.908,2.441
			c-4.355,3.222-7.332,7.367-8.773,12.154c0.082-1.127,0.235-2.248,0.46-3.362c0.795-3.94,2.261-6.471,2.567-6.97
			C44.989,27.491,45.942,26.601,46.789,25.953z M44.075,28.509L44.075,28.509L44.075,28.509z M42.536,61.05
			c-2.66-3.571-3.531-6.786-3.539-6.813l-0.025-0.096l-0.035-0.092c-1.581-4.091-1.79-7.933-1.382-11.219
			c0.225,3.559,1.082,7.668,3.088,12.125c2.198,4.887,4.737,8.566,7.222,11.328C45.844,64.849,44.065,63.102,42.536,61.05z
			 M71.147,67.054c-1.71,2.456-4.088,3.72-7.43,3.931c1.198-0.718,2.465-1.874,3.715-3.681c1.061-1.533,1.798-3.086,2.186-3.991
			c1.449-0.438,2.758-0.989,3.867-1.534C72.897,63.775,72.186,65.561,71.147,67.054z M75.055,56.864
			c-0.436,0.314-2.707,1.89-5.768,2.936c0.389-0.301,0.778-0.61,1.17-0.927c3.252-2.629,6.088-6.305,7.867-8.88
			c0.076,0.419,0.125,0.854,0.127,1.287C78.461,52.827,76.497,55.444,75.055,56.864z"/>
		
			<line fill="none" stroke="#231F20" stroke-width="0" stroke-linecap="round" stroke-linejoin="round" x1="44.075" y1="28.509" x2="44.075" y2="28.509"/>
	</g>
</g>
</svg>
