<?xml version="1.0" encoding="utf-8"?>
<!-- Generator: Adobe Illustrator 16.0.4, SVG Export Plug-In . SVG Version: 6.00 Build 0)  -->
<!DOCTYPE svg PUBLIC "-//W3C//DTD SVG 1.1//EN" "http://www.w3.org/Graphics/SVG/1.1/DTD/svg11.dtd">
<svg version="1.1" id="Layer_1" xmlns="http://www.w3.org/2000/svg" xmlns:xlink="http://www.w3.org/1999/xlink" x="0px" y="0px"
	 width="140px" height="90px" viewBox="67.563 16.149 140 90" enable-background="new 67.563 16.149 140 90" xml:space="preserve">
<g>
	<g>
		<g>
			<path d="M155.878,53.441c0.314,0.226,0.898,1.304,0.81,1.169c-0.091-0.18,0.224-1.169-0.449-2.427
				c-0.675-1.258-0.899-1.663-1.17-2.922c-0.314-1.258-0.809-2.247,0.046-3.011c0.898-0.764,1.572-1.888,1.843-3.056
				c0.27-1.169,1.214-2.113,2.291-3.371c1.034-1.304,1.259-1.483,1.259-1.483c-0.27,0.36-0.764,1.708-0.988,2.427
				s-1.394,2.292-1.888,3.146c-0.495,0.854-1.709,2.473-1.798,3.955c-0.09,1.484,1.124,3.327,1.349,3.956
				c0.18,0.674-0.271,2.517,0.224,3.865c0.449,1.348,1.708,2.562,1.933,2.741c0.225,0.136,0.18,0,0.09-0.09
				s-0.225-0.225-0.538-0.854c-0.315-0.63-0.18-1.349,0.044-2.338c0.225-0.989,0.314-1.752,0.225-2.696
				c-0.09-0.989-0.854-2.606-1.078-3.596c-0.226-0.989,0.359-1.978,1.393-3.686c0.989-1.708,1.17-3.146,1.303-4.225
				c0.136-1.078,0.72-2.562,2.293-3.235c0.898-0.36,3.505,0.135,4.809,0.989c0.944,0.629,1.394,1.213,1.528,1.888
				c0.18,0.764-0.313,1.349-0.629,2.111c-0.314,0.765-0.494,1.664-0.179,1.618c0.314-0.045,3.729-2.921,4.538-3.774
				c0.36-0.405,0.899-1.484,0.18-2.472c-0.629-0.854-5.123-1.214-5.978-2.427c-0.765-1.079-2.741-0.989-3.325-0.63
				c-0.54,0.36-1.753,1.349-2.877,1.753c-1.169,0.404-2.337,0.584-3.91,1.394c-1.573,0.809-1.483,1.708-1.663,2.382
				c-0.18,0.675-0.314,2.517-1.572,4.45c-1.303,1.932-0.54,3.281,0.09,5.258C154.665,52.229,155.563,53.172,155.878,53.441z
				 M164.373,52.408c-0.045,0.225,0.179,0,0.36-0.225c0.179-0.27,0.898-1.438,2.021-3.371c1.124-1.978,1.844-3.641,1.753-3.686
				c-0.045-0.045-0.224,0.136-0.404,0.271c-0.18,0.135-0.539,0.494-0.854,0.898c-0.314,0.404-0.584,0.36-0.944,0.449
				c-0.403,0.091-1.124,0.854-1.528,1.214c-0.404,0.314-0.988,0.674-1.482,0.719c-0.539,0.09-0.629-0.135-0.899-0.135
				c-0.224,0.045-0.224,0.449-0.134,0.719c0.09,0.271,0,0.405-0.046,0.854c-0.045,0.494,0.314,0.944,0.585,1.213
				c0.27,0.27,0.179,0.675,0.358,0.81s0.271-0.81,0.271-1.438c0-0.584-0.136-1.168-0.136-1.258c0.045-0.09,0.495-0.226,0.72-0.36
				c0.224-0.135,0.764-0.539,1.033-0.674c0.271-0.135,0.271-0.045,0.225,0.135c-0.091,0.135-0.225,0.404-0.539,0.629
				c-0.314,0.271-1.033,0.45-1.169,0.45c-0.179,0-0.135,0.135,0,0.27c0.18,0.135,0.539,0.135,0.898,0.045
				c0.36-0.09,0.314,0.359,0.271,0.854C164.688,51.329,164.418,52.183,164.373,52.408z M172.103,36.229
				c2.697,0.854,3.281,3.19,2.337,4.225c-0.494,0.585-1.123,0.944-2.472,1.798c-1.348,0.854-1.888,1.259-2.291,1.573
				c-0.405,0.314-0.675,0.809,0.269,0.539c0.09-0.045,5.753-1.258,6.518-1.618c1.213-0.629,1.572-1.078,1.798-1.933
				c0.179-0.854-1.079-2.202-1.664-2.876c-1.213-1.393-4.09-2.831-4.224-2.831c-1.438-0.494-3.236-0.091-4.674,0
				c-0.181,0-0.091,0.225,0,0.314C168.957,36.318,170.53,35.869,172.103,36.229z M167.024,41.621
				c0.359,0.495,0.045,1.978,0.404,1.934c0.36-0.045,1.617-2.518,1.213-3.326c-0.404-0.854-3.415-1.843-3.909-1.843
				c-2.023-0.136-2.606,1.483-2.832,2.786c-0.09,0.584-2.022,4.764-1.933,4.674l4-4.494
				C164.598,40.588,166.485,40.947,167.024,41.621z M173.541,66.341c-2.651,3.416-7.146,3.281-10.202,4.495
				c-3.55,1.438-5.977,3.955-6.651,4.584c-1.079,1.078-2.472,0.809-3.236,0.764c-0.764-0.045-1.483-0.404-1.753-0.494
				c-0.314-0.045-1.034,0-1.034,0s0-0.359,0.271-0.495c0.269-0.18,0.809-0.224,1.708-0.404c0.943-0.179,1.662-0.674,2.021-0.944
				c0.36-0.224,0.136-0.313-0.135-0.269c-0.225,0.045-0.988,0.359-2.292,0.539c-1.303,0.18-1.707,0.09-2.247,0.449
				c-0.495,0.314-0.405,1.214-0.495,1.438c-0.136,0.225-0.225,0.314-0.359,0.135c-0.18-0.135-0.224-0.719-0.09-1.213
				c0.135-0.495,0.898-0.855,1.617-1.034c0.72-0.18,2.248-0.27,3.911-1.124c4.898-2.606,7.056-4.539,11.37-7.91
				c4.63-3.55,8.72-5.528,11.955-7.101c1.978-0.989,7.91-1.709,7.91-1.709s-0.854-0.584-1.707-0.674
				c-0.539-0.045-1.034-0.089-1.528-0.045c0.809-0.449,2.876-2.022,3.146-4.045c0.404-2.741-3.235-4.988-3.281-7.46
				c-0.135-5.798-5.933-6.607-5.663-6.427c1.079,0.673,2.202,1.977,2.428,2.741c0.358,1.349-0.765,2.831-2.473,3.416
				c-0.809,0.27-5.259,1.258-5.843,1.843c-0.584,0.584,0.629,3.73-0.18,5.034c-0.81,1.258-5.214,3.459-5.753,4.09
				c-0.539,0.629-1.079,0.448-1.258,0.404c-0.18,0-0.045,0.225,0.495,0.314c0.539,0.135,1.482-0.225,2.022-0.494
				c0.539-0.315,1.303,0.359,1.258,0.764c-0.045,0.405-0.539,0.539-1.572,1.169c-0.81,0.494-3.057-0.899-3.236-1.393
				c-0.181-0.45,0.494-0.315,0.898-0.81s-0.314-0.585-0.584-0.494c-0.271,0.089-0.404-0.046-0.675-0.135
				c-0.269-0.091-0.583,0-0.764,0.18c-0.18,0.18,0,0.314-0.629,0.404c-0.63,0.09-0.315-0.675-0.226-1.483
				c0.136-0.809,0.63-2.922,0.54-3.236c-0.09-0.269-0.136-0.179-0.36-0.448c-0.224-0.271-0.224-0.72-0.27-1.483
				c0-0.765,0.046-2.202,0.046-2.202s-0.45,0.674-0.675,1.888c-0.225,1.213,0.629,1.888,0.675,2.067
				c0,0.179-0.046,0.629-0.405,2.786s0.09,2.562,0.539,2.967c0.45,0.358,2.562,1.482,2.562,1.482l-0.044,0.989
				c0,0-1.033,0.314-2.022,0.988c-0.989,0.63-1.349,1.799-1.438,2.158s0.135,0.314,0.135,0.314s0.225-0.225,0.989-0.854
				c0.765-0.584,2.427-0.898,2.651-0.943c0.225,0,0.225,0.045-0.045,0.225s-0.944,0.674-2.427,1.798
				c-1.483,1.124-1.708,2.472-1.708,2.831c0,0.315,0.225,0.046,0.225,0.046s0.225-0.495,0.719-0.944s1.663-0.764,2.922-0.943
				c1.258-0.225,1.483-0.539,1.888-1.123c0.404-0.585,1.483-1.663,1.708-1.798c0.224-0.135,0.27-0.045,0.135,0.044
				c-0.135,0.091-0.225,0.18-0.898,0.899c-0.674,0.719-0.765,1.572-0.765,1.572s0.36-0.495,1.213-1.078
				c0.81-0.585,2.832-1.214,3.371-1.349s0.495-0.045,0.404,0c-0.09,0.091-0.134,0.091-0.719,0.404
				c-0.585,0.314-2.606,1.528-5.304,3.506c-2.741,2.022-4.988,4.404-7.19,6.023c-2.202,1.618-3.865,2.381-4.72,2.517
				c-0.854,0.135-1.887-0.359-3.146-0.404c-1.259-0.046-2.112,0.809-2.247,0.988c-0.136,0.18-0.136,0.359,0,0.313
				c0.135,0,0.314-0.224,0.494-0.224s0.18,0.135,0.18,0.135s-0.09,0.046-0.449,0.226c-0.36,0.179-0.899,0.719-1.17,1.527
				c-0.27,0.81,0.36,1.978,0.36,1.978s0.405,0,0.943,0.225c0.539,0.225,0.898,0.36,1.169,0.539c0.27,0.136,0.539,0.18,1.079,0.045
				c0.538-0.135,1.662-0.135,2.427-0.135c0.764,0.045,3.775,0.764,5.663-0.494c6.022-5.259,12.27-4.81,14.562-5.618
				c4.629-1.663,3.865-7.91,12-6.967C183.924,63.284,177.542,61.262,173.541,66.341z M181.586,54.565
				c1.799-1.798,2.067-3.73,2.157-4.494c0.361,1.708-0.628,4.179-1.438,5.304c-0.675,0.044-1.304,0.134-1.933,0.225
				C180.867,55.329,181.137,55.015,181.586,54.565z M180.644,48.768c1.438,2.472-0.54,5.259-0.989,5.663
				c-0.359,0.314-1.079,0.719-1.572,0.944c0.854-0.81,1.662-1.799,1.887-2.967c0.225-1.169-0.135-2.383-0.764-3.686
				c-0.136-0.27-2.293-3.46-2.472-3.641C177.137,45.127,179.924,47.149,180.644,48.768z M173.855,46.116
				c-0.089-0.225,2.337,4.358,1.844,6.382c-0.765,3.191-3.597,5.394-3.597,5.394s1.35-2.606,1.573-3.102
				C173.855,54.341,175.249,49.577,173.855,46.116z M168.642,55.194c0.899-0.539,3.552-4.674,3.641-4.449
				c0.091,0.225,0.225,1.349-0.045,2.157C171.879,53.981,168.642,55.194,168.642,55.194z M147.608,75.104
				c-0.135,0.359-0.629-0.225-0.495-0.629c0.046-0.136,0.63-1.438,1.979-1.169C149.451,73.397,148.104,73.937,147.608,75.104z"/>
		</g>
	</g>
	<g>
		<path d="M104.731,50.16c-0.18,0.36-0.809,1.708-2.472,1.708c-1.708,0-2.741-1.482-2.741-3.056c0-1.438,0.988-2.966,2.741-2.966
			c1.394,0,2.158,1.034,2.472,1.798h2.742c-0.27-1.618-1.978-4.09-5.169-4.09c-3.325,0-5.349,2.695-5.349,5.303
			c0,2.742,2.158,5.304,5.394,5.304c2.472,0,4.584-1.618,5.168-4L104.731,50.16L104.731,50.16z"/>
		<path d="M109.945,53.981l0.54-1.484h3.55l0.495,1.484h2.831l-4.046-10.203h-2.066l-4.09,10.203H109.945z M112.237,46.97
			L112.237,46.97L112.237,46.97l1.079,3.506h-2.157L112.237,46.97z"/>
		<polygon points="120.462,47.779 120.508,47.779 124.373,53.981 126.665,53.981 126.665,43.778 124.148,43.778 124.237,50.16 
			124.237,50.206 120.283,43.778 118.035,43.778 118.035,53.981 120.553,53.981 		"/>
		<polygon points="130.575,47.779 130.62,47.779 134.53,53.981 136.777,53.981 136.777,43.778 134.26,43.778 134.395,50.16 
			134.351,50.206 130.396,43.778 128.148,43.778 128.148,53.981 130.664,53.981 		"/>
		<polygon points="138.306,53.981 143.969,53.981 143.969,51.688 140.777,51.688 140.777,49.936 143.878,49.936 143.878,47.645 
			140.777,47.645 140.777,46.071 143.969,46.071 143.969,43.778 138.306,43.778 		"/>
		<path d="M148.328,54.206c2.696,0,3.551-1.663,3.551-3.146c0-1.168-0.495-2.067-2.382-2.922c-1.844-0.81-2.113-0.943-2.113-1.572
			c0-0.494,0.45-0.809,0.898-0.809c0.81,0,0.899,0.629,0.944,0.988h2.562c-0.045-0.585-0.09-1.259-0.674-2.022
			c-0.674-0.765-1.753-1.169-2.741-1.169c-1.708,0-3.596,1.079-3.596,3.011c0,1.933,1.797,2.651,2.517,2.921
			c1.573,0.675,2.022,0.81,2.022,1.484c0,0.449-0.36,0.988-0.988,0.988c-0.315,0-1.079-0.225-1.079-1.393h-2.606v0.314
			C144.643,52.273,145.361,54.206,148.328,54.206z"/>
		<polygon points="105.451,66.79 100.867,66.79 100.867,54.835 96.911,54.835 96.911,70.295 105.451,70.295 		"/>
		<rect x="106.575" y="54.835" width="3.954" height="15.416"/>
		<path d="M120.373,54.565c-4.314,0-6.697,2.922-7.551,4.899c-0.449,1.123-0.585,2.292-0.585,3.28c0,3.955,3.236,7.819,8.136,7.819
			c4.809,0,8.18-3.729,8.18-7.999C128.508,58.25,125.092,54.565,120.373,54.565z M120.417,67.104c-2.651,0-4.27-2.202-4.27-4.585
			c0-2.157,1.483-4.494,4.225-4.494c2.831,0,4.18,2.562,4.18,4.584C124.552,64.543,123.204,67.104,120.417,67.104z"/>
		<polygon points="139.608,64.498 139.563,64.543 133.632,54.835 130.215,54.835 130.215,70.295 133.99,70.295 133.9,60.902 
			133.945,60.902 139.833,70.295 143.249,70.295 143.249,54.835 139.474,54.835 		"/>
		<path d="M152.103,61.396c-2.786-1.259-3.19-1.438-3.19-2.337c0-0.719,0.674-1.213,1.348-1.213c1.214,0,1.349,0.988,1.438,1.482
			h3.91c-0.045-0.854-0.09-1.932-1.033-3.056c-0.988-1.169-2.651-1.752-4.18-1.752c-2.606,0-5.394,1.662-5.394,4.538
			c0,2.922,2.696,4.001,3.775,4.405c2.382,0.988,3.011,1.259,3.011,2.292c0,0.72-0.584,1.483-1.482,1.483
			c-0.495,0-1.618-0.315-1.618-2.112h-3.91v0.494c0,1.978,1.124,4.899,5.572,4.899c4.09,0,5.394-2.473,5.394-4.72
			C155.699,64.049,154.979,62.7,152.103,61.396z"/>
		<path d="M100.822,87.285c-0.989,0.224-1.933,0.629-2.787,1.124c-1.259,0.764-2.382,1.707-3.46,2.695
			c-0.046,0.046-0.046,0.046-0.091,0.091c0.045,0.044,0.045,0.044,0.091,0.044c1.168,0.315,2.382,0.584,3.595,0.721
			c0.27,0.044,0.495,0.089,0.72,0.134c0.494,0,0.989,0,1.438,0c0.225-0.045,0.494-0.09,0.719-0.134
			c1.349-0.181,2.517-0.721,3.506-1.618c0.584-0.539,1.033-1.124,1.438-1.799c-0.358-0.314-0.764-0.494-1.168-0.719
			C103.608,87.194,102.26,86.971,100.822,87.285z"/>
		<path d="M93.945,83.465c0.09,0.045,0.18,0.09,0.314,0.135c0.18-0.359,0.315-0.674,0.45-0.988c0.539-1.349,0.674-2.697,0.314-4.136
			c-0.314-1.078-0.854-2.021-1.483-2.876c-0.899-1.169-1.933-2.202-3.012-3.191c-0.045,0-0.045-0.045-0.135-0.045
			c-0.045,0.136-0.045,0.225-0.09,0.359c-0.09,0.629-0.18,1.259-0.224,1.889c-0.136,1.303-0.136,2.605,0.089,3.91
			C90.62,80.768,91.833,82.476,93.945,83.465z"/>
		<path d="M86.126,68.318c-0.675,1.348-1.304,2.741-1.618,4.225c-0.226,1.034-0.314,2.113-0.135,3.191
			c0.27,1.438,0.943,2.606,1.978,3.641c0.045,0.045,0.135,0.09,0.225,0.18c0.314-0.314,0.584-0.629,0.854-0.943
			c1.259-1.528,1.708-3.236,1.393-5.169c-0.314-2.112-1.303-3.955-2.337-5.843C86.35,67.914,86.215,68.093,86.126,68.318z"/>
		<path d="M77.855,65.938c0.09-0.047,0.135-0.047,0.18-0.091c0.27-0.18,0.584-0.314,0.854-0.495c1.438-0.943,2.382-2.247,2.786-3.91
			c0.27-1.033,0.27-2.112,0.18-3.191c-0.09-1.168-0.27-2.292-0.539-3.46c0-0.09-0.045-0.136-0.09-0.27
			c-0.495,0.539-0.989,0.988-1.438,1.528c-0.898,0.988-1.708,2.067-2.292,3.326c-0.404,0.854-0.674,1.752-0.764,2.696
			c-0.09,1.303,0.27,2.517,0.854,3.641C77.766,65.801,77.811,65.847,77.855,65.938z"/>
		<path d="M70.26,57.936c1.034,1.753,2.562,2.742,4.584,3.191c0.09-0.27,0.135-0.539,0.18-0.765c0.36-1.797,0.135-3.461-0.899-4.988
			c-0.494-0.72-1.079-1.349-1.708-1.933c-1.124-0.944-2.337-1.708-3.641-2.472c-0.044,0-0.089,0-0.134,0
			c0,1.124,0.27,3.146,0.539,4.359C69.451,56.229,69.766,57.127,70.26,57.936z"/>
		<path d="M76.822,44.048c0.359-0.359,0.674-0.719,0.988-1.078c0.899-1.079,1.394-2.292,1.438-3.686
			c0.045-0.898-0.09-1.753-0.314-2.606c-0.45-1.572-1.124-3.011-1.888-4.449c0-0.045-0.045-0.045-0.09-0.09
			c-0.226,0.404-0.405,0.765-0.585,1.124c-0.764,1.438-1.393,2.921-1.663,4.539c-0.405,2.292,0.18,4.314,1.843,6.022
			C76.642,43.869,76.731,43.913,76.822,44.048z"/>
		<path d="M97.182,81.082c0.539,1.124,1.258,2.113,2.157,3.012c1.572,1.528,3.461,2.112,5.708,1.843
			c-0.046-0.45-0.09-0.854-0.135-1.259c-0.271-1.617-1.034-2.966-2.338-3.999c-0.629-0.495-1.303-0.854-1.978-1.169
			c-1.393-0.584-2.876-0.943-4.359-1.259c-0.09,0-0.135,0-0.225,0c0,0.09,0.045,0.136,0.045,0.18
			C96.328,79.33,96.731,80.229,97.182,81.082z"/>
		<path d="M98.17,86.116c-0.314-0.225-0.584-0.45-0.898-0.63c-1.078-0.719-2.292-1.078-3.596-1.078c-1.123,0-2.157,0.314-3.19,0.809
			c-1.483,0.675-2.786,1.573-4.045,2.563c0,0-0.045,0.044-0.045,0.089c0.045,0.045,0.045,0.045,0.09,0.045
			c1.304,0.495,2.606,0.899,4,1.124c1.213,0.225,2.472,0.27,3.686-0.045C95.878,88.542,97.137,87.555,98.17,86.116z"/>
		<path d="M80.327,39.374c0.225,0,0.404-0.044,0.63-0.044c1.662-0.226,3.101-0.899,4.18-2.203c0.494-0.584,0.854-1.213,1.169-1.888
			c0.539-1.124,0.854-2.292,1.123-3.506c0.09-0.494,0.225-0.988,0.314-1.572c-0.135,0.045-0.225,0.09-0.314,0.09
			c-0.675,0.314-1.349,0.585-2.022,0.944c-1.078,0.539-2.112,1.213-3.011,2.022c-1.349,1.259-2.203,2.786-2.292,4.63
			c-0.045,0.494,0,0.988,0.09,1.483C80.282,39.33,80.282,39.374,80.327,39.374z"/>
		<path d="M76.731,67.509c0.136,0,0.226-0.045,0.359-0.09c0-0.18-0.044-0.314-0.044-0.405c0-0.134-0.045-0.269-0.045-0.358
			c-0.36-1.844-1.259-3.326-2.832-4.359c-0.405-0.225-0.81-0.449-1.213-0.629c-1.213-0.54-2.517-0.854-3.82-1.034
			c-0.494-0.09-1.034-0.136-1.528-0.225c0,0.044-0.045,0.044-0.045,0.089c0.225,0.45,0.45,0.944,0.674,1.394
			c0.629,1.213,1.349,2.382,2.292,3.371C72.192,67.016,74.26,67.869,76.731,67.509z"/>
		<path d="M77.855,46.97c0.09,0.045,0.09,0.045,0.135,0.045c2.292,0.09,4.27-0.629,5.708-2.472c0.495-0.674,0.944-1.349,1.304-2.112
			c0.539-1.213,0.989-2.472,1.349-3.82c-0.674,0.225-1.304,0.405-1.888,0.63c-1.304,0.449-2.518,1.034-3.641,1.842
			c-1.843,1.35-2.876,3.103-2.967,5.394C77.855,46.61,77.855,46.835,77.855,46.97z"/>
		<path d="M77.541,73.981c0.584-0.046,1.124-0.136,1.708-0.36c-0.045-0.224-0.09-0.404-0.18-0.629
			c-0.494-1.618-1.349-2.966-2.832-3.865c-0.764-0.495-1.617-0.764-2.516-0.989c-1.528-0.359-3.102-0.449-4.674-0.449
			c-0.045,0-0.09,0-0.18,0.045c0.404,0.584,0.764,1.124,1.169,1.708c0.674,0.989,1.483,1.888,2.382,2.696
			C73.9,73.441,75.563,74.161,77.541,73.981z"/>
		<path d="M80.822,74.34c0.314-0.224,0.584-0.404,0.898-0.628c1.259-0.989,2.067-2.248,2.382-3.82c0.18-1.034,0.136-2.068,0-3.146
			c-0.225-1.349-0.584-2.651-1.033-3.955c0-0.045-0.045-0.09-0.09-0.225c-0.046,0.09-0.09,0.135-0.09,0.135
			c-0.675,0.854-1.304,1.708-1.888,2.651c-0.54,0.899-1.034,1.843-1.304,2.877c-0.585,2.067-0.27,3.999,0.944,5.753
			C80.643,74.161,80.731,74.251,80.822,74.34z"/>
		<path d="M84.147,79.239c0.09-0.045,0.225-0.135,0.314-0.179c-0.27-0.674-0.629-1.259-1.033-1.799
			c-0.81-1.033-1.843-1.752-3.057-2.112c-0.764-0.224-1.573-0.359-2.382-0.404c-1.438-0.045-2.832,0.135-4.225,0.359
			c-0.18,0.045-0.359,0.09-0.584,0.09c0.09,0.091,0.09,0.136,0.135,0.18c0.54,0.539,1.034,1.079,1.618,1.573
			c0.898,0.854,1.888,1.573,2.966,2.112C79.968,80.229,82.035,80.273,84.147,79.239z"/>
		<path d="M90.709,83.644c0.091-0.045,0.136-0.135,0.181-0.179c-0.045-0.045-0.045-0.091-0.045-0.091
			c-1.573-2.292-3.775-3.281-6.562-2.966c-1.797,0.179-3.46,0.809-5.168,1.438c0.045,0.045,0.045,0.09,0.045,0.09
			c0.18,0.136,0.359,0.27,0.539,0.405c1.259,0.898,2.562,1.707,4.045,2.247c0.989,0.359,2.067,0.584,3.146,0.539
			C88.327,85.037,89.586,84.498,90.709,83.644z"/>
		<path d="M81.137,52.229c0.314-1.033,0.449-2.112,0.539-3.146c0.045-0.719,0.09-1.438,0.09-2.202
			c-0.135,0.045-0.18,0.09-0.225,0.135c-0.584,0.359-1.124,0.72-1.708,1.124c-1.034,0.764-2.022,1.572-2.831,2.606
			c-1.124,1.438-1.753,3.056-1.573,4.898c0.045,0.54,0.136,1.035,0.315,1.573c0.089,0,0.134,0,0.18,0
			c1.258-0.315,2.427-0.854,3.37-1.753C80.237,54.476,80.777,53.396,81.137,52.229z"/>
		<path d="M74.439,52.812c0.36-0.494,0.675-0.988,0.899-1.483c0.584-1.169,0.764-2.427,0.539-3.729
			c-0.18-0.989-0.539-1.933-1.034-2.787c-0.719-1.303-1.618-2.427-2.517-3.551c-0.045-0.044-0.045-0.044-0.135-0.089
			c-0.045,0.089-0.045,0.134-0.09,0.225c-0.36,1.168-0.674,2.337-0.854,3.551c-0.18,1.213-0.225,2.426,0.045,3.595
			C71.698,50.386,72.776,51.779,74.439,52.812z"/>
		<path d="M177.092,88.409c-0.854-0.54-1.798-0.945-2.786-1.124c-1.438-0.27-2.786-0.091-4.045,0.584
			c-0.405,0.179-0.81,0.404-1.168,0.719c0.403,0.674,0.854,1.304,1.438,1.798c0.989,0.898,2.202,1.438,3.506,1.618
			c0.27,0.045,0.495,0.09,0.719,0.135c0.495,0,0.989,0,1.438,0c0.225-0.045,0.494-0.09,0.719-0.135
			c1.214-0.135,2.382-0.405,3.596-0.72c0.046,0,0.046-0.045,0.091-0.045c-0.045-0.045-0.045-0.09-0.091-0.09
			C179.475,90.116,178.351,89.172,177.092,88.409z"/>
		<path d="M180.822,83.6c0.135-0.045,0.225-0.09,0.314-0.135c2.112-1.034,3.325-2.697,3.775-4.989
			c0.225-1.303,0.225-2.606,0.09-3.911c-0.045-0.629-0.136-1.258-0.225-1.887c0-0.09-0.045-0.226-0.09-0.36
			c-0.045,0.045-0.09,0.045-0.136,0.045c-1.078,0.989-2.111,2.022-3.01,3.191c-0.675,0.899-1.213,1.843-1.484,2.876
			c-0.404,1.394-0.224,2.787,0.314,4.136C180.508,82.97,180.688,83.284,180.822,83.6z"/>
		<path d="M188.553,79.554c0.09-0.09,0.18-0.135,0.225-0.18c1.034-0.987,1.753-2.201,1.978-3.641c0.18-1.079,0.09-2.112-0.136-3.19
			c-0.359-1.483-0.943-2.877-1.617-4.226c-0.09-0.225-0.225-0.404-0.36-0.719c-1.033,1.889-2.021,3.73-2.337,5.843
			c-0.314,1.933,0.136,3.641,1.394,5.169C187.924,78.925,188.238,79.239,188.553,79.554z"/>
		<path d="M197.047,65.847c0.045,0.044,0.135,0.044,0.18,0.091c0.045-0.091,0.09-0.137,0.135-0.226
			c0.629-1.124,0.944-2.337,0.854-3.641c-0.045-0.943-0.314-1.842-0.765-2.696c-0.584-1.214-1.393-2.292-2.292-3.326
			c-0.449-0.494-0.942-0.988-1.438-1.527c-0.045,0.134-0.091,0.179-0.091,0.27c-0.224,1.124-0.449,2.292-0.539,3.46
			c-0.09,1.078-0.045,2.157,0.18,3.19c0.405,1.663,1.349,2.967,2.787,3.911C196.463,65.532,196.732,65.712,197.047,65.847z"/>
		<path d="M200.957,55.375c-1.033,1.527-1.258,3.19-0.898,4.988c0.045,0.225,0.136,0.495,0.18,0.764
			c2.022-0.404,3.551-1.438,4.584-3.19c0.495-0.81,0.81-1.708,1.034-2.606c0.314-1.214,0.584-3.19,0.539-4.359
			c-0.045,0-0.09,0-0.135,0c-1.259,0.719-2.518,1.483-3.641,2.472C202.036,54.026,201.452,54.654,200.957,55.375z"/>
		<path d="M197.272,42.97c0.314,0.359,0.674,0.719,0.988,1.078c0.091-0.09,0.18-0.179,0.27-0.225
			c1.663-1.708,2.248-3.686,1.843-6.022c-0.27-1.618-0.898-3.102-1.662-4.539c-0.181-0.359-0.405-0.72-0.585-1.124
			c-0.045,0.045-0.045,0.09-0.089,0.09c-0.765,1.438-1.484,2.876-1.889,4.449c-0.225,0.854-0.359,1.753-0.314,2.606
			C195.879,40.678,196.373,41.891,197.272,42.97z"/>
		<path d="M175.788,84.094c0.899-0.854,1.574-1.889,2.158-3.012c0.45-0.854,0.809-1.798,1.214-2.651c0-0.044,0.045-0.09,0.045-0.18
			c-0.09,0-0.18,0-0.225,0c-1.483,0.315-2.966,0.675-4.359,1.259c-0.719,0.314-1.394,0.674-1.978,1.169
			c-1.303,1.033-2.067,2.337-2.337,3.999c-0.09,0.405-0.09,0.81-0.135,1.259C172.328,86.206,174.215,85.622,175.788,84.094z"/>
		<path d="M184.643,85.172c-1.033-0.449-2.067-0.764-3.191-0.81c-1.303,0-2.472,0.36-3.596,1.08
			c-0.313,0.179-0.584,0.404-0.898,0.628c0.989,1.438,2.292,2.428,4,2.833c1.213,0.313,2.472,0.269,3.686,0.044
			c1.348-0.225,2.695-0.629,3.999-1.124c0.046,0,0.046-0.044,0.091-0.044c0-0.046,0-0.046-0.045-0.091
			C187.385,86.745,186.081,85.847,184.643,85.172z"/>
		<path d="M188.777,35.239c0.315,0.675,0.719,1.304,1.169,1.888c1.078,1.304,2.517,1.978,4.18,2.203
			c0.225,0.044,0.404,0.044,0.629,0.044c0.045,0,0.045,0,0.136-0.044c0.045-0.495,0.09-0.989,0.09-1.483
			c-0.09-1.889-0.944-3.371-2.292-4.63c-0.898-0.854-1.933-1.483-3.012-2.022c-0.674-0.315-1.349-0.63-2.021-0.944
			c-0.091-0.045-0.136-0.045-0.315-0.09c0.136,0.585,0.225,1.078,0.315,1.572C187.924,32.902,188.284,34.115,188.777,35.239z"/>
		<path d="M207.519,60.363c-0.493,0.09-1.033,0.135-1.527,0.225c-1.304,0.225-2.607,0.495-3.82,1.034
			c-0.405,0.18-0.81,0.404-1.214,0.629c-1.618,1.034-2.517,2.517-2.831,4.359c-0.045,0.135-0.045,0.27-0.045,0.36
			c0,0.135-0.045,0.269-0.045,0.404c0.135,0.045,0.224,0.045,0.359,0.09c2.517,0.359,4.54-0.494,6.202-2.292
			c0.943-1.034,1.663-2.157,2.292-3.371c0.225-0.449,0.449-0.898,0.674-1.393C207.564,60.408,207.564,60.363,207.519,60.363z"/>
		<path d="M190.666,39.239c-0.585-0.225-1.214-0.404-1.889-0.63c0.404,1.349,0.81,2.607,1.349,3.821
			c0.359,0.764,0.764,1.482,1.303,2.111c1.438,1.844,3.416,2.607,5.708,2.472c0.045,0,0.045,0,0.135-0.044c0-0.181,0-0.36,0-0.54
			c-0.09-2.292-1.123-4.045-2.966-5.393C193.182,40.273,191.924,39.688,190.666,39.239z"/>
		<path d="M201.362,68.184c-0.899,0.225-1.754,0.494-2.518,0.987c-1.483,0.899-2.382,2.203-2.831,3.866
			c-0.045,0.18-0.091,0.36-0.18,0.63c0.584,0.225,1.123,0.314,1.708,0.359c1.978,0.18,3.64-0.539,5.123-1.844
			c0.899-0.809,1.663-1.708,2.382-2.695c0.405-0.54,0.765-1.079,1.169-1.709c-0.09-0.045-0.135-0.045-0.18-0.045
			C204.463,67.778,202.89,67.823,201.362,68.184z"/>
		<path d="M192.283,62.79c-0.045-0.045-0.045-0.09-0.09-0.135c-0.045,0.09-0.091,0.135-0.091,0.225
			c-0.404,1.303-0.809,2.606-1.033,3.955c-0.135,1.034-0.18,2.067,0,3.146c0.314,1.573,1.124,2.832,2.382,3.821
			c0.27,0.224,0.584,0.404,0.898,0.629c0.09-0.135,0.136-0.224,0.226-0.314c1.213-1.753,1.528-3.685,0.942-5.753
			c-0.314-1.033-0.764-1.978-1.303-2.877C193.586,64.498,192.957,63.644,192.283,62.79z"/>
		<path d="M197.092,74.745c-0.809,0.045-1.618,0.135-2.382,0.404c-1.258,0.405-2.248,1.124-3.056,2.112
			c-0.404,0.539-0.765,1.124-1.034,1.799c0.136,0.045,0.225,0.134,0.315,0.179c2.111,1.034,4.179,0.943,6.246-0.09
			c1.079-0.539,2.067-1.304,2.967-2.112c0.539-0.495,1.078-1.034,1.617-1.573c0.045-0.045,0.091-0.09,0.136-0.179
			c-0.225-0.045-0.405-0.091-0.584-0.091C199.924,74.88,198.53,74.7,197.092,74.745z"/>
		<path d="M184.283,83.374c0,0.046-0.046,0.046-0.046,0.091c0.046,0.045,0.136,0.135,0.181,0.179
			c1.123,0.854,2.381,1.394,3.819,1.438c1.079,0.046,2.112-0.18,3.146-0.539c1.438-0.538,2.786-1.348,4.045-2.248
			c0.18-0.135,0.359-0.27,0.539-0.404c0,0,0-0.044,0.045-0.09c-1.663-0.674-3.37-1.258-5.168-1.438
			C188.059,80.094,185.856,81.082,184.283,83.374z"/>
		<path d="M199.294,57.172c0.181-0.493,0.271-1.033,0.314-1.572c0.181-1.843-0.403-3.46-1.571-4.899
			c-0.81-0.988-1.754-1.843-2.833-2.606c-0.538-0.404-1.123-0.765-1.707-1.123c-0.045-0.046-0.136-0.046-0.225-0.135
			c0.045,0.764,0.045,1.482,0.09,2.202c0.09,1.079,0.225,2.112,0.54,3.146c0.359,1.169,0.897,2.248,1.797,3.146
			c0.943,0.943,2.112,1.483,3.371,1.753C199.204,57.127,199.249,57.127,199.294,57.172z"/>
		<path d="M199.204,47.6c-0.225,1.303-0.044,2.562,0.54,3.729c0.269,0.539,0.539,0.989,0.898,1.483
			c1.662-1.033,2.696-2.427,3.101-4.314c0.271-1.213,0.225-2.382,0.045-3.596c-0.179-1.213-0.494-2.382-0.854-3.551
			c0-0.045-0.045-0.134-0.091-0.225c-0.045,0.046-0.09,0.046-0.135,0.091c-0.943,1.123-1.843,2.292-2.517,3.55
			C199.744,45.666,199.385,46.61,199.204,47.6z"/>
	</g>
</g>
</svg>
