<?xml version="1.0" encoding="utf-8"?>
<!-- Generator: Adobe Illustrator 22.0.0, SVG Export Plug-In . SVG Version: 6.00 Build 0)  -->
<svg version="1.1" id="Layer_2" xmlns="http://www.w3.org/2000/svg" xmlns:xlink="http://www.w3.org/1999/xlink" x="0px" y="0px"
	 viewBox="0 0 169 169" style="enable-background:new 0 0 169 169;" xml:space="preserve">
<style type="text/css">
	.st0{fill:none;stroke:#000000;stroke-width:5;stroke-linecap:round;stroke-miterlimit:10;}
	.st1{fill:none;stroke:#000000;stroke-width:5;stroke-linecap:round;stroke-linejoin:round;stroke-miterlimit:10;}
</style>
<g>
	<line class="st0" x1="259.5" y1="108.7" x2="324.5" y2="108.7"/>
	<line class="st0" x1="259.5" y1="121.9" x2="324.5" y2="121.9"/>
	<polyline class="st0" points="267.1,64.9 282.5,45.2 298.8,64.9 	"/>
	<path class="st0" d="M295.1,60.4l7.8-9.9l11.9,14.4c0,0,3,3.3,5.3,6.5c1.9,2.7,0.1,5.9-2.4,5.9c0,0-46.5,0-46.5,0
		c-1.3,0-2.5,0-4,0.1c-2.3,0.2-4.2,2.4-4.2,5.2c0,2.6,2.6,3.7,4.8,3.8c1,0.1,1.7,0,2.6,0c8.2,0,37.4,0,37.4,0"/>
	<circle cx="315.3" cy="86.4" r="2.8"/>
	<rect x="238.3" y="27.8" class="st0" width="107.3" height="126.1"/>
	<polyline class="st0" points="250.1,14.7 358.8,14.7 358.8,140.5 	"/>
</g>
<g>
	<path class="st0" d="M31.2,34.2c0,0,20.2-24.6,54.3-23.5S136,36.1,136,36.1"/>
	<path class="st0" d="M30.2,58.3c0,0,17.3-33.4,53.3-32.5c36.1,0.9,49.8,30.8,49.8,30.8"/>
	<path class="st0" d="M28.6,82.2c0,0,9.1-9.4,21.5-25.7S91,35,108.1,46.8s19.8,26.8,19.8,26.8s3.1,11.4-1.8,29
		c-4.8,17.6,5.3,23.3,5.3,23.3"/>
	<path class="st0" d="M26.8,104.7c0,0,18.5-16,28.8-31.8s29.8-20.6,44.5-12s15.8,23.7,11,41.4s4.4,37.8,10.3,38.2"/>
	<path class="st0" d="M32.3,123.1c10.9-8.3,24.5-24.2,31.3-35.8c4.9-8.4,13.3-17.1,24-14.9c5.9,1.2,11.8,6,12,12
		c0.1,2.5-0.1,4.1-1.6,6.1c-1.5,2-3.3,3.8-5.3,5.3c-2.9,2.2-6.2,4-9.2,6.1c-5.7,4.2-11.1,8.9-16,14.1c-3.9,4.1-19,22.9-23.1,27.9"/>
	<path class="st0" d="M58.2,155.3c4.9-8,10.5-15.5,16.5-22.6c5.9-7,12-14.1,19.4-19.5"/>
	<path class="st0" d="M76.2,158.3c0,0,6-20.4,24.4-27.1"/>
	<path class="st0" d="M140,70.6c0,0,6.2,20.6-2,39"/>
</g>
<g>
	<rect x="427.4" y="81.2" class="st1" width="43.8" height="68.8"/>
	<polyline class="st1" points="444.9,68.7 444.9,19 591.3,19 591.3,124.6 485.8,124.6 	"/>
	<line class="st1" x1="485.6" y1="102" x2="578.3" y2="102"/>
	<line class="st1" x1="488.7" y1="150" x2="549.4" y2="150"/>
	<line class="st1" x1="444.3" y1="89.6" x2="454.2" y2="89.6"/>
	<circle cx="437.3" cy="89.6" r="2.5"/>
	<path class="st1" d="M502.9,124.6c0,0,0.8,25.3-3.1,25.3"/>
	<path class="st1" d="M534.6,124.6c0,0-0.8,25.3,3.1,25.3"/>
	<circle cx="449.3" cy="138.7" r="3.9"/>
	<circle cx="518.1" cy="113.3" r="3.9"/>
</g>
</svg>
