<?xml version="1.0" encoding="utf-8"?>
<!-- Generator: Adobe Illustrator 16.0.4, SVG Export Plug-In . SVG Version: 6.00 Build 0)  -->
<!DOCTYPE svg PUBLIC "-//W3C//DTD SVG 1.1//EN" "http://www.w3.org/Graphics/SVG/1.1/DTD/svg11.dtd">
<svg version="1.1" id="Layer_1" xmlns="http://www.w3.org/2000/svg" xmlns:xlink="http://www.w3.org/1999/xlink" x="0px" y="0px"
	 width="140px" height="90px" viewBox="0 -0.13 140 90" enable-background="new 0 -0.13 140 90" xml:space="preserve">
<g>
	<g>
		<g>
			<defs>
				<rect id="SVGID_1_" x="31.14" width="77.721" height="89.74"/>
			</defs>
			<clipPath id="SVGID_2_">
				<use xlink:href="#SVGID_1_"  overflow="visible"/>
			</clipPath>
			<path clip-path="url(#SVGID_2_)" d="M55.221,48.222c0,0,8-10.051,5.189-19.841L50.14,45.13c0,0,0.479,3.111,0.56,3.52
				c0,0,0.771,4.58,4.49-0.438"/>
		</g>
	</g>
	<g>
		<g>
			<defs>
				<rect id="SVGID_3_" x="31.14" width="77.721" height="89.74"/>
			</defs>
			<clipPath id="SVGID_4_">
				<use xlink:href="#SVGID_3_"  overflow="visible"/>
			</clipPath>
			<path clip-path="url(#SVGID_4_)" d="M65.64,48.069c0,0,2,2.182,4.699-3.159l-2.421-4.631C67.918,40.28,64.14,45.661,65.64,48.069
				"/>
		</g>
	</g>
	<g>
		<g>
			<defs>
				<rect id="SVGID_5_" x="31.14" width="77.721" height="89.74"/>
			</defs>
			<clipPath id="SVGID_6_">
				<use xlink:href="#SVGID_5_"  overflow="visible"/>
			</clipPath>
			<path clip-path="url(#SVGID_6_)" d="M72.49,28.23c0,0,0.619-1.59-0.182-1.899c0,0-1.17-0.34-2.509,2
				c-0.744,1.457-0.744,3.182,0,4.639C69.801,32.97,72.14,29.701,72.49,28.23"/>
		</g>
	</g>
	<g>
		<g>
			<defs>
				<rect id="SVGID_7_" x="31.14" width="77.721" height="89.74"/>
			</defs>
			<clipPath id="SVGID_8_">
				<use xlink:href="#SVGID_7_"  overflow="visible"/>
			</clipPath>
			<polygon clip-path="url(#SVGID_8_)" points="70.02,61.149 76.701,56.3 66.699,58.491 			"/>
		</g>
	</g>
	<g>
		<g>
			<defs>
				<rect id="SVGID_9_" x="31.14" width="77.721" height="89.74"/>
			</defs>
			<clipPath id="SVGID_10_">
				<use xlink:href="#SVGID_9_"  overflow="visible"/>
			</clipPath>
			<path clip-path="url(#SVGID_10_)" d="M92.681,50l-0.741-0.819c0.04,0.674-0.037,1.353-0.229,2c-1,3.439-3.408,3.279-3.408,3.279
				c-4.562-0.068-7.78-7.59-7.78-7.59c-3.909-8.1-0.61-12.31-0.61-12.31c0.763-1.011,1.965-1.592,3.23-1.56l-3.402-6.351
				l2.149-2.939l12.47,23L92.681,50z M64.979,70.358l-4-2.618l5.621-4.091l-5.07-4l-9.479,2l-4.171-2.891l34.56-7.17l3,3.08
				L64.979,70.358z M62.14,18.76c4.39,12.099,1.72,20.09,1.72,20.09c-3.41,11.219-10,16.479-10,16.479
				c-1.93,1.602-3.9,0.939-4.6-0.199c-0.546-1.023-0.924-2.127-1.12-3.271c-0.2-0.768-1.359-7.269-1.359-7.269L62.14,18.76z
				 M67.32,27.45c3.078-4.82,6-5.23,6-5.23c3-0.68,2.859,2.389,2.859,2.389c0.488,4.492-4.74,11.091-4.74,11.091
				c0.528,1.313,1.199,2.564,2,3.73c0.922-1.37,2.21-6.21,2.21-6.21l4.491-2.361c-0.59,4.091-4.771,12.231-4.771,12.231
				c0.301,0.32,2.812,5,2.812,5l-4.771,2.229l-1.17-2c-5.47,7.891-8.619,6-8.619,6c-2.3-0.771-1.851-6.25-1.851-6.25
				c0.5-5,4.591-11,4.591-11c-2.531-4.649,0.93-9.559,0.93-9.559 M69.998,0L31.14,22.431v44.88l38.858,22.43l38.86-22.43v-44.88
				L69.998,0z"/>
		</g>
	</g>
	<g>
		<g>
			<defs>
				<rect id="SVGID_11_" x="31.14" width="77.721" height="89.74"/>
			</defs>
			<clipPath id="SVGID_12_">
				<use xlink:href="#SVGID_11_"  overflow="visible"/>
			</clipPath>
			<path clip-path="url(#SVGID_12_)" d="M83.199,44.38c2,4.21,3.739,6,5.069,5.28s1.46-4.11,0.08-7.54
				c-1.479-3.68-3.312-5.89-5.08-5.051c-1.509,0.71-1.67,4-0.069,7.321"/>
		</g>
	</g>
</g>
</svg>
