<svg xmlns="http://www.w3.org/2000/svg" id="Layer_2" x="0" y="0" version="1.1" viewBox="0 0 169 169" xml:space="preserve">
  <defs/>
  <style>
    .st0,.st1{fill:#ffffff;stroke:#000;stroke-width:5;stroke-linecap:round;stroke-miterlimit:10}.st1{stroke-linejoin:round}
  </style>
  <path d="M259.5 108.7h65M259.5 121.9h65M267.1 64.9l15.4-19.7 16.3 19.7" class="st0"/>
  <path d="M295.1 60.4l7.8-9.9 11.9 14.4s3 3.3 5.3 6.5c1.9 2.7.1 5.9-2.4 5.9h-46.5c-1.3 0-2.5 0-4 .1-2.3.2-4.2 2.4-4.2 5.2 0 2.6 2.6 3.7 4.8 3.8 1 .1 1.7 0 2.6 0h37.4" class="st0"/>
  <circle cx="315.3" cy="86.4" r="2.8"/>
  <path d="M238.3 27.8h107.3v126.1H238.3z" class="st0"/>
  <path d="M250.1 14.7h108.7v125.8" class="st0"/>
  <g>
    <path d="M31.2 34.2S51.4 9.6 85.5 10.7 136 36.1 136 36.1" class="st0"/>
    <path d="M30.2 58.3s17.3-33.4 53.3-32.5c36.1.9 49.8 30.8 49.8 30.8" class="st0"/>
    <path d="M28.6 82.2s9.1-9.4 21.5-25.7 40.9-21.5 58-9.7 19.8 26.8 19.8 26.8 3.1 11.4-1.8 29c-4.8 17.6 5.3 23.3 5.3 23.3" class="st0"/>
    <path d="M26.8 104.7s18.5-16 28.8-31.8 29.8-20.6 44.5-12 15.8 23.7 11 41.4 4.4 37.8 10.3 38.2" class="st0"/>
    <path d="M32.3 123.1c10.9-8.3 24.5-24.2 31.3-35.8 4.9-8.4 13.3-17.1 24-14.9 5.9 1.2 11.8 6 12 12 .1 2.5-.1 4.1-1.6 6.1s-3.3 3.8-5.3 5.3c-2.9 2.2-6.2 4-9.2 6.1-5.7 4.2-11.1 8.9-16 14.1-3.9 4.1-19 22.9-23.1 27.9M58.2 155.3c4.9-8 10.5-15.5 16.5-22.6 5.9-7 12-14.1 19.4-19.5M76.2 158.3s6-20.4 24.4-27.1M140 70.6s6.2 20.6-2 39" class="st0"/>
  </g>
  <g>
    <path d="M427.4 81.2h43.8V150h-43.8z" class="st1"/>
    <path d="M444.9 68.7V19h146.4v105.6H485.8M485.6 102h92.7M488.7 150h60.7M444.3 89.6h9.9" class="st1"/>
    <circle cx="437.3" cy="89.6" r="2.5"/>
    <path d="M502.9 124.6s.8 25.3-3.1 25.3M534.6 124.6s-.8 25.3 3.1 25.3" class="st1"/>
    <circle cx="449.3" cy="138.7" r="3.9"/>
    <circle cx="518.1" cy="113.3" r="3.9"/>
  </g>
</svg>