<?xml version="1.0" encoding="utf-8"?>
<!-- Generator: Adobe Illustrator 16.0.4, SVG Export Plug-In . SVG Version: 6.00 Build 0)  -->
<!DOCTYPE svg PUBLIC "-//W3C//DTD SVG 1.1//EN" "http://www.w3.org/Graphics/SVG/1.1/DTD/svg11.dtd">
<svg version="1.1" id="Layer_1" xmlns="http://www.w3.org/2000/svg" xmlns:xlink="http://www.w3.org/1999/xlink" x="0px" y="0px"
	 width="140px" height="90px" viewBox="0 0 140 90" enable-background="new 0 0 140 90" xml:space="preserve">
<g>
	<path d="M106.785,23.763c0,0-2.652,5.935-6.566,7.955S84.436,37.778,80.9,39.293s-10.903,5.429-10.903,10.354
		c0-4.924-7.363-8.838-10.898-10.354s-15.404-5.556-19.318-7.576s-6.565-7.955-6.565-7.955c-3.03,7.828-0.884,12.879,0.631,16.288
		c1.516,3.409,4.42,9.596,18.561,19.57c14.142,9.975,11.995,29.166,11.995,29.166h11.196c0,0-2.146-19.191,11.996-29.166
		c14.141-9.975,17.045-16.162,18.561-19.57C107.668,36.642,109.814,31.606,106.785,23.763z"/>
	<path d="M81.129,36.237c0,0.025,0,0.045,0,0.066h0.045C81.156,36.283,81.141,36.261,81.129,36.237z"/>
	<path d="M96.4,22.086C93.506,9.855,82.586,1.216,70.018,1.212l0,0c-12.57,0-23.491,8.641-26.384,20.874
		c-0.652,2.857-0.791,5.807-0.409,8.712v0.045c0,0,4.304,0.677,12.188,3.939c-0.076-1.313-1.606-0.909-2.097-1.954
		c-0.535-1.126,0.142-2.212-1.303-2.915c-0.667-0.328-1.965-0.247-2.717-0.338c-0.479-0.023-0.95-0.111-1.404-0.263
		c-0.672-0.288-0.863-0.818-1.01-1.515c-0.506-2.525,0.166-5.5,0.742-7.97c0.444-1.904,1.202-3.864,2.844-5.051
		c1.081-0.684,2.227-1.263,3.419-1.727c0.959-0.445,1.914-0.924,2.903-1.303c0.824-0.313,3.293-1.278,3.753,0.146
		c0.404,1.273-1.546,2.384-2.368,2.929c-0.521,0.306-0.998,0.683-1.415,1.121c-0.114,0.134-0.219,0.275-0.312,0.424
		c-0.016,0.128-0.052,0.252-0.106,0.369c0.056-0.126,0,0.182-0.035,0.167c0.006,0.054,0.006,0.108,0,0.162
		c-0.003,0.012-0.003,0.023,0,0.035l0.384,0.228c0.258,0.024,0.518-0.014,0.758-0.111l0.04-0.05c0.399-0.57,0.916-1.049,1.516-1.404
		c1.322-0.718,2.929-0.676,4.212,0.111c1.293,0.858,1.116,2.162,0.025,3.106c-0.591,0.505-1.516,0.869-1.753,1.712
		c-0.172,0.646,0.228,1.354,0.449,1.935c0.303,0.673,0.359,1.431,0.162,2.141c-0.437,1.394-1.795,2.288-3.247,2.137
		c-0.718-0.056-1.592-0.333-2.269,0.05c-0.717,0.431-0.95,1.361-0.52,2.079c0.189,0.315,0.487,0.551,0.838,0.664
		c1.081,0.338,2.207-0.505,3.309-0.369c0.676,0.088,1.28,0.466,1.656,1.035c0.172,0.335,0.303,0.689,0.389,1.056l0.025,0.116v0.025
		c0.43,0.323,1.035,0.712,1.384,0.415l0,0c0.002-0.014,0.002-0.027,0-0.041c0.075-0.384,0.397-0.67,0.788-0.697
		c0.478-0.087,0.96-0.141,1.444-0.162c0.811-0.38,1.757-0.333,2.525,0.126c1.177,0.313,1.783,1.308,1.692,2.626
		c-0.139,0.957-0.436,1.883-0.879,2.742c-0.296,0.635-0.538,1.294-0.723,1.97c-0.197,0.843,0,1.439,0.116,2.252
		c0.099,0.395-0.023,0.812-0.318,1.091c0.447,0.128,0.905,0.214,1.369,0.258v0.03h0.293h0.298v-0.03
		c1.099-0.095,2.163-0.43,3.12-0.98c1.602-0.919,3.914-2.964,7.217-4.621c-0.105-1.01,0.111-2.02-1.08-2.576
		c-0.646-0.298-1.348-0.101-1.949-0.586c-0.24-0.202-0.434-0.451-0.57-0.732c0-0.041-0.057-0.071-0.082-0.111
		c-0.449-0.768-0.479-1.98-0.418-3.167c0-0.05,0-0.101,0-0.151c-0.154-1.084-0.225-2.178-0.213-3.273
		c-0.006-0.409,0.182-0.796,0.506-1.045c1.01-0.768,3.277-0.616,4.475-0.561c0.504,0.025,1.01,0.111,1.514,0.091
		c0.262,0.005,0.521-0.038,0.77-0.126c0.553-0.247,0.926-0.779,0.969-1.384c-0.031-0.748-1.051-1.263-1.676-1.313
		c-0.668-0.009-1.326,0.166-1.9,0.505c-1.379,0.722-2.02,1.116-3.484,0.439c-0.799-0.364-2.555-0.263-2.586-1.515
		c0.035-0.503,0.283-0.968,0.682-1.278c0.475-0.382,0.824-0.895,1.01-1.475c0.066-0.277,0.051-0.561,0.137-0.833
		c0.289-0.944,1.051-1.061,1.859-1.101c0.484-0.147,0.982-0.255,1.484-0.323c0.713-0.642,0.455-2.167,0.398-3.03l-0.182-3.03
		c0,0,0-0.03,0-0.051c-0.012-0.133,0.088-0.25,0.221-0.262c0.008,0,0.016-0.001,0.021,0c3.713,0,7.277,0.419,9.354,3.863
		c0.887,1.619,1.543,3.353,1.955,5.151c0.156,0.581,0.303,1.167,0.439,1.753c0.039,0.07,0.061,0.147,0.066,0.227v0.061
		c0.43,1.838,0.777,3.69,1.039,5.556c0.033,0.139-0.053,0.277-0.191,0.309c-0.041,0.009-0.082,0.009-0.121-0.001
		c-0.777-0.138-1.566-0.19-2.354-0.157c-0.266,0.008-0.531,0.037-0.793,0.086c-0.191,0.263-0.395,0.505-0.611,0.763
		c-0.248,0.549-0.004,1.195,0.545,1.443c0.018,0.007,0.033,0.015,0.051,0.021c0.643,0.393,1.223,0.881,1.717,1.449
		c0.506,0.651,0.723,1.288,0.4,1.849c1.562-0.515,3.16-0.927,4.777-1.232v-0.045C97.17,27.86,97.039,24.928,96.4,22.086z
		 M55.522,10.394c-0.701,0.343-3.07,1.394-3.479,0.071c-0.344-1.111,2.409-2.293,3.111-2.616c0.034-0.018,0.072-0.027,0.111-0.025
		c0.782-0.439,2.707-1.01,3.151,0C58.942,9.076,56.235,10.056,55.522,10.394z M71.684,13.025c-0.564,0.455-1.353,0.505-1.479-0.338
		c-0.127-0.843-0.036-1.717,0.816-2.02c0.049-0.021,0.104-0.021,0.152,0l0.156-0.056c0.506-0.293,1.217-0.465,1.289,0.323
		c0.01,0.802-0.332,1.568-0.936,2.096V13.025z M72.814,7.122c-0.176,1.354-1.848,1.777-2.62,2.667
		c-0.706,0.879-0.992,2.023-0.782,3.131c0.113,0.435,0.085,0.895-0.081,1.313c-0.389,0.672-1.202,0.596-1.748,0.151
		c-0.545-0.444-0.757-1.293-1.363-1.772c-0.505-0.389-1.131-0.545-1.565-1.01c-0.329-0.313-0.48-0.77-0.404-1.217
		c0.111-0.505,0.833-0.955,0.858-1.479c-1.101,0.212-2.919,0.455-3.772-0.252c-0.272-0.204-0.398-0.548-0.323-0.879
		c0,0,0-0.036,0-0.051c0.029-0.329,0.181-0.635,0.424-0.858c-0.006-0.088,0.034-0.172,0.106-0.222
		c1.328-0.975,3.228-1.136,4.823-1.323s3.495-0.45,5.05,0c0.789,0.227,1.531,0.884,1.398,1.808V7.122z"/>
</g>
</svg>
