<?xml version="1.0" encoding="utf-8"?>
<!-- Generator: Adobe Illustrator 21.0.2, SVG Export Plug-In . SVG Version: 6.00 Build 0)  -->
<svg version="1.1" id="Layer_1" xmlns="http://www.w3.org/2000/svg" xmlns:xlink="http://www.w3.org/1999/xlink" x="0px" y="0px"
	 viewBox="0 0 201.7 32.3" style="enable-background:new 0 0 201.7 32.3;" xml:space="preserve">
<style type="text/css">
	.st0{fill:#BD9E56;}
</style>
<path class="st0" d="M5.2,20.1c1.4,4.7,5,7.5,9.5,7.5c2.8,0,4.5-1.3,4.5-3.2c0-2.7-3.1-2.9-8.1-4.4c-3.8-1.1-6.3-2-7.5-2.9
	c-2.4-1.8-3.6-4-3.6-6.8C0,4.2,4.8,0,12.3,0c3.7,0,6.9,0.7,10,2.3l0.8-1.5h4.3v10.5h-5.1c-1-4.3-3.8-6.4-8.4-6.4
	c-2.8,0-4.7,1.5-4.7,3.2c0,2.4,2.6,2.5,7,3.5c8.7,2,12.8,4.5,12.8,10.5s-4.8,10-12.8,10c-3.5,0-6.8-0.8-10.1-2.4L5,31.4H0.8V20.1
	H5.2z"/>
<path class="st0" d="M61.3,12.2h-4.8c-0.5-2.5-1.1-4.3-2.3-5.4c-1.5-1.5-3.5-1.6-6.1-1.6h-0.9h-3.9v8.3h1.2c2.8,0,3.7-1.2,3.7-4.5
	V8.8H52v13.8h-3.8c-0.1-3.8-0.6-5.1-3.7-5.1h-1.2V27h4.4h0.9c3,0,5-0.1,6.1-1.7c1-1.5,1.5-3.7,1.7-6.6h5v12.5h-32V27H31
	c2.4,0,2.4-0.5,2.4-2.4v-0.2V7.8c0-2.2-0.2-2.6-2.5-2.6h-1.5V0.9h31.8L61.3,12.2L61.3,12.2z"/>
<path class="st0" d="M76.9,13.4V5.3h1.8c3.2,0,4.5,1.1,4.5,3.9c0,2.9-1.4,4.2-4.6,4.2C78.6,13.4,76.9,13.4,76.9,13.4z M76.9,27v-9.6
	h1.9c3.5,0,5.2,1.4,5.2,4.7c0,3.6-1.5,4.9-5.2,4.9C78.8,27,76.9,27,76.9,27z M63,31.3h17.8c9.2,0,13.5-2,13.5-8.3
	c0-4.1-2.6-6.6-7.8-7.7c4.1-1.3,6.3-3.8,6.3-7.1C92.7,3,88.9,1,81.2,1H63v4.3h1.5c2.3,0,2.5,0.4,2.5,2.6v16.5v0.2
	c0,1.9,0,2.4-2.4,2.4H63V31.3z"/>
<path class="st0" d="M111.8,17.2h-5.3L109,8L111.8,17.2z M110.7,31.3h18.4V27h-1.6c-2.2,0-2.5-0.8-3.3-3.2L117.1,1h-11l-8,22.9
	C97.4,26,96.4,27,94.8,27h-1.1v4.3h13.6V27h-1.5c-1.4,0-2.1-0.3-2.1-0.9c0-0.5,0.2-1.1,0.4-1.7l1-2.9h8.2l1.1,3.3
	c0.1,0.4,0.2,0.9,0.2,1.3c0,0.9-0.7,0.9-2.5,0.9h-1.4L110.7,31.3L110.7,31.3z"/>
<path class="st0" d="M143.9,15.1h16.8v4.3h-1.1c-2.4,0-2.5,0.5-2.5,2.6v9.6h-5.5l-1-1.9c-3,1.7-6,2.5-9,2.5c-9.3,0-15.1-6-15.1-16.1
	c0-9.6,6.3-16.1,15.9-16.1c3.3,0,5.9,0.7,8.1,2.2l0.7-1.7h4.8V13h-5.3c-1-5.6-2.9-8.3-6.6-8.3c-4.3,0-5.9,3.7-5.9,11.4
	c0,7.8,1.6,11.5,5.8,11.5c3,0,3.4-0.9,3.4-3.3V22c0-2.2-0.2-2.6-2.5-2.6h-1V15.1z"/>
<path class="st0" d="M179.3,4.6c4.2,0,5.8,3.8,5.8,11.5s-1.6,11.4-5.9,11.4c-4.3,0-5.8-3.8-5.8-11.5C173.4,8.4,175,4.6,179.3,4.6
	 M161.6,16.1c0,9.9,6.5,16,17.5,16c11.1,0,17.6-6.1,17.6-16S190.2,0,179.2,0C168.2,0,161.6,6.2,161.6,16.1"/>
<path class="st0" d="M197.2,3.7c0-1.2,0.9-2,2-2s2,0.9,2,2c0,1.2-0.9,2-2,2C198.1,5.8,197.2,4.9,197.2,3.7 M199.2,6.2
	c1.3,0,2.5-1,2.5-2.4s-1.1-2.4-2.5-2.4c-1.3,0-2.5,1-2.5,2.4C196.8,5.2,197.9,6.2,199.2,6.2 M198.7,3.9h0.5l0.7,1.2h0.5l-0.8-1.2
	c0.4,0,0.7-0.3,0.7-0.8c0-0.6-0.3-0.8-1-0.8h-1.1v2.8h0.4V3.9H198.7z M198.7,3.6V2.7h0.6c0.3,0,0.6,0.1,0.6,0.4
	c0,0.4-0.3,0.5-0.7,0.5C199.2,3.6,198.7,3.6,198.7,3.6z"/>
</svg>
