<?xml version="1.0" encoding="utf-8"?>
<!-- Generator: Adobe Illustrator 21.1.0, SVG Export Plug-In . SVG Version: 6.00 Build 0)  -->
<svg version="1.1" id="Layer_1" xmlns="http://www.w3.org/2000/svg" xmlns:xlink="http://www.w3.org/1999/xlink" x="0px" y="0px"
	 viewBox="0 0 143 33" style="enable-background:new 0 0 143 33;" xml:space="preserve">
<style type="text/css">
	.st0{clip-path:url(#SVGID_2_);}
	.st1{clip-path:url(#SVGID_4_);fill:#EE3524;}
	.st2{clip-path:url(#SVGID_6_);}
	.st3{clip-path:url(#SVGID_8_);fill:#1A1919;}
	.st4{clip-path:url(#SVGID_10_);}
	.st5{clip-path:url(#SVGID_12_);fill:#00AAE7;}
	.st6{clip-path:url(#SVGID_14_);}
	.st7{clip-path:url(#SVGID_16_);fill:#EE3524;}
	.st8{clip-path:url(#SVGID_18_);}
	.st9{clip-path:url(#SVGID_20_);fill:#EE3524;}
	.st10{clip-path:url(#SVGID_22_);}
	.st11{clip-path:url(#SVGID_24_);fill:#EE3524;}
	.st12{clip-path:url(#SVGID_26_);}
	.st13{clip-path:url(#SVGID_28_);fill:#1A1919;}
	.st14{clip-path:url(#SVGID_30_);}
	.st15{clip-path:url(#SVGID_32_);fill:#1A1919;}
	.st16{clip-path:url(#SVGID_34_);}
	.st17{clip-path:url(#SVGID_36_);fill:#1A1919;}
	.st18{clip-path:url(#SVGID_38_);}
	.st19{clip-path:url(#SVGID_40_);fill:#1A1919;}
	.st20{clip-path:url(#SVGID_42_);}
	.st21{clip-path:url(#SVGID_44_);fill:#1A1919;}
	.st22{clip-path:url(#SVGID_46_);}
	.st23{clip-path:url(#SVGID_48_);fill:#EE3524;}
	.st24{clip-path:url(#SVGID_50_);}
	.st25{clip-path:url(#SVGID_52_);fill:#1A1919;}
</style>
<g>
	<defs>
		<polyline id="SVGID_1_" points="123.5,19.1 123.5,19.1 123.5,19.1 		"/>
	</defs>
	<clipPath id="SVGID_2_">
		<use xlink:href="#SVGID_1_"  style="overflow:visible;"/>
	</clipPath>
	<g class="st0">
		<defs>
			<rect id="SVGID_3_" width="145" height="33"/>
		</defs>
		<clipPath id="SVGID_4_">
			<use xlink:href="#SVGID_3_"  style="overflow:visible;"/>
		</clipPath>
		<rect x="118.5" y="14.1" class="st1" width="10" height="10"/>
	</g>
</g>
<g>
	<defs>
		<path id="SVGID_5_" d="M140.5,26.6l-0.3-0.1c0,0-0.5,1-2,1c-0.6,0-1.1-0.3-1.6-0.7l0-2.5c0-3-2-4-3.6-4.8
			c-1.6-0.8-2.8-1.4-2.8-3.3h0c0-1.3-0.6-2.3-0.7-2.5l-0.5-1c-0.2-0.6-0.3-1.3-0.3-2c0-0.7,0.2-1.5,0.6-2.3l0,0
			c0.6-1.3,1.5-2.4,1.9-2.4c0.3,0,0.6,0.3,0.9,1c0.4,0.7,1,1.8,2.3,1.8c1.6,0,2.6-2,2.6-3.9c0-1.1-0.4-2.1-1-2.8
			c-0.8-0.9-2-1.3-3.5-1.3c-3.2,0-5,1.7-5.7,2.6c-0.6-0.2-1.8-0.6-3.4-0.6c-1.6,0-2.8,0.4-3.4,0.6c-0.7-0.8-2.5-2.6-5.7-2.6
			c-1.5,0-2.7,0.5-3.5,1.3c-0.6,0.7-1,1.7-1,2.8c0,0,0,0,0,0.1c-0.2-0.1-0.5-0.2-0.8-0.2c-0.9,0-1.9,1.5-2.3,2.2
			c-0.4,0.6-1.3,2.3-1.3,3.9c0,2.8,1.3,4.3,2.3,5.4c0.5,0.6,1,1.1,1,1.7c0,0.3-0.7,0.7-1.4,1.1c-1.4,0.8-3.3,1.9-3.3,4.2l0,2.5
			c0,1.1-0.9,2.1-2.1,2.1c-0.9,0-1.4-0.7-1.4-0.7l-0.2-0.3l-0.4,0.1c-0.8,0.1-2.3,0.8-2.3,2.3c0,1.8,2.4,3.1,4.5,3.1
			c1.6,0,2.7-0.4,3.3-0.7c0.4,0.2,1,0.5,1.7,0.5h26.3c0.7,0,1.4-0.3,1.7-0.5c0.5,0.3,1.6,0.6,3.3,0.6c2.4,0,4.4-1.3,4.4-3
			C143,27.4,141.4,26.7,140.5,26.6"/>
	</defs>
	<clipPath id="SVGID_6_">
		<use xlink:href="#SVGID_5_"  style="overflow:visible;"/>
	</clipPath>
	<g class="st2">
		<defs>
			<rect id="SVGID_7_" width="145" height="33"/>
		</defs>
		<clipPath id="SVGID_8_">
			<use xlink:href="#SVGID_7_"  style="overflow:visible;"/>
		</clipPath>
		<rect x="92.8" y="-4.3" class="st3" width="55.2" height="41.4"/>
	</g>
</g>
<g>
	<defs>
		<path id="SVGID_9_" d="M116.2,12.3l2.1-0.4c0.1-0.4,0.1-0.7,0.1-1.1c0-2-1.9-4.6-2.5-4.9c-0.5,0.1-1.4,1.4-1.9,2.6L114,9l-0.5-0.2
			c-0.5-0.2-1.1-0.2-1.6,0L111.4,9l0,0l0,0l-0.2-0.5c-0.5-1.2-1.3-2.5-1.9-2.6c-0.6,0.3-2.5,2.9-2.5,4.9c0,0.4,0,0.8,0.1,1.1
			l2.3,0.4c0.2,0,0.3,0.2,0.3,0.4c0,0.2-0.2,0.3-0.3,0.3c0,0,0,0-0.1,0l-2.1-0.3c0.1,0.4,0.3,0.7,0.5,1.1l1.6-0.3
			c0.2,0,0.4,0.1,0.4,0.3c0,0.2-0.1,0.4-0.3,0.4l-1.3,0.3c0.3,0.4,0.6,0.7,0.9,1.1c0.7,0.8,1.3,1.5,1.3,2.4c0,1-1,1.6-2,2.1
			c-1.3,0.8-2.7,1.5-2.7,3.2v2.5c0,1.8-1.5,3.3-3.3,3.3c-1,0-1.7-0.6-2.1-0.9c-0.4,0.1-1,0.4-1,1c0,0.9,1.6,1.9,3.3,1.9
			c1.9,0,3-0.7,3-0.7l0.3-0.2l0.3,0.2c0,0,0.5,0.4,1.3,0.4h3.5c0.1-0.4,0.2-1.4-0.2-1.9c-0.1-0.1-0.3-0.2-0.5-0.2
			c-1.3-0.1-2.1-0.5-2.4-1.1c-0.3-0.5-0.1-1,0-1.1v0c0.1-0.3,0.4-0.4,0.6-0.3c0.3,0.1,0.4,0.4,0.3,0.6l0,0.1c0,0,0,0.1,0,0.2
			c0,0.1,0.2,0.3,1,0.5l-0.9-3.4c-0.1-0.3,0.1-0.5,0.4-0.6c0.3-0.1,0.5,0.1,0.6,0.4l1,3.9c0.3,0.1,0.6,0.3,0.8,0.6
			c0.6,0.8,0.4,2,0.4,2.5h2.4c0,0,0.5-1.4-0.3-2c-0.7-0.5-0.9-1.5-0.9-1.6v0l-0.8-3.1c-0.1-0.3,0.1-0.5,0.4-0.6
			c0.3-0.1,0.5,0.1,0.6,0.4l0.6,2.5l0.6-2.5c0.1-0.3,0.3-0.4,0.6-0.4c0.3,0.1,0.4,0.3,0.4,0.6l-0.9,3.8c0,0,0.1,0.1,0.1,0.1
			c1.1,0.8,0.9,2.2,0.7,2.8h2.4c0,0,0.6-1.8-0.4-2.2c-0.9-0.4-0.5-1.7,0.3-4.6c0.4-1.2,0.8-2.6,0.8-3.2c0-1.2-0.4-1.9-0.7-2.6
			c-0.3-0.6-0.6-1.1-0.6-1.7c0-0.8,0.2-1.5,0.4-2l-1.2-0.2c-0.2,0-0.3-0.2-0.3-0.4c0-0.2,0.2-0.3,0.4-0.3l1.4,0.3l0.4-0.9
			c0,0,0-0.1,0-0.1l-1.8,0.3c0,0,0,0-0.1,0c-0.2,0-0.3-0.1-0.3-0.3C115.9,12.5,116.1,12.3,116.2,12.3"/>
	</defs>
	<clipPath id="SVGID_10_">
		<use xlink:href="#SVGID_9_"  style="overflow:visible;"/>
	</clipPath>
	<g class="st4">
		<defs>
			<rect id="SVGID_11_" width="145" height="33"/>
		</defs>
		<clipPath id="SVGID_12_">
			<use xlink:href="#SVGID_11_"  style="overflow:visible;"/>
		</clipPath>
		<rect x="94" y="0.9" class="st5" width="29.5" height="35"/>
	</g>
</g>
<g>
	<defs>
		<path id="SVGID_13_" d="M138.6,30.9c-2,0-2.9-0.6-2.9-0.6l-0.4-0.3l-0.4,0.3c0,0-0.6,0.4-1.3,0.4h-4.3c0,0-0.8-1.1-0.5-1.9
			c0.5-1.1,1.6-1.3,3-1.3c0.6,0,0.9-0.3,1.1-0.5c0.4-0.7-0.2-1.7-0.4-2c-0.2-0.2-0.5-0.3-0.7-0.1c-0.2,0.2-0.3,0.5-0.1,0.7
			c0.2,0.3,0.4,0.8,0.4,1c0,0-0.1,0-0.2,0c-0.3,0-0.8,0-1.3,0.1l-0.3-1.2c-0.1-0.3-0.3-0.4-0.6-0.4c-0.3,0.1-0.4,0.3-0.4,0.6
			l0.3,1.2c-0.6,0.3-1.2,0.7-1.6,1.5c-0.4,0.8-0.1,1.7,0.2,2.3h-3.9c-0.1-0.9-0.2-2.2,0.4-2.5c0.2-0.1,0.4-0.1,0.6-0.2
			c0.4-0.1,0.9-0.2,1.1-0.6c0.2-0.4,0.2-0.9-0.1-1.8l-0.5-1.9c-0.1-0.3-0.3-0.4-0.6-0.4c-0.3,0.1-0.4,0.3-0.4,0.6l0.5,1.9
			c0,0,0,0,0,0c0,0,0,0,0,0c0.3,0.8,0.2,1,0.2,1c0,0.1-0.3,0.1-0.5,0.1c-0.2,0.1-0.5,0.1-0.7,0.2c-0.4,0.1-0.6,0.4-0.8,0.7
			c-0.2-0.3-0.4-0.5-0.8-0.7c-0.3-0.1-0.5-0.2-0.7-0.2c-0.2,0-0.4-0.1-0.5-0.1c0,0-0.1-0.2,0.2-1c0,0,0,0,0,0c0,0,0,0,0,0l0.5-1.9
			c0.1-0.3-0.1-0.5-0.4-0.6c-0.3-0.1-0.5,0.1-0.6,0.4l-0.5,1.9c-0.3,0.9-0.3,1.4-0.1,1.8c0.2,0.4,0.7,0.5,1.1,0.6
			c0.2,0,0.4,0.1,0.6,0.2c0.6,0.2,0.6,1.5,0.4,2.4h-4.1c0.3-1,0.3-2.5-0.9-3.2c0-0.5,0.5-2.2,0.8-3.3c0.4-1.4,0.8-2.8,0.8-3.6
			c0-0.6-0.1-1-0.2-1.5c0.4,0.2,0.9,0.3,1.3,0.3c0.3,0,0.6-0.1,0.9-0.1c0.5,0.5,1.2,0.8,2,0.8c0.7,0,1.4-0.3,2-0.8
			c0.3,0.1,0.6,0.1,1,0.1c1.1,0,2.1-0.6,2.8-1.4c0.6,1.4,1.9,2,3.1,2.6c1.6,0.8,3,1.4,3,3.7l0,3l0.2,0.2c0.7,0.8,1.7,1.2,2.6,1.2
			c1.2,0,2.1-0.6,2.5-0.9c0.4,0.1,1.2,0.5,1.2,1.2C141.8,30,140.3,30.9,138.6,30.9"/>
	</defs>
	<clipPath id="SVGID_14_">
		<use xlink:href="#SVGID_13_"  style="overflow:visible;"/>
	</clipPath>
	<g class="st6">
		<defs>
			<rect id="SVGID_15_" width="145" height="33"/>
		</defs>
		<clipPath id="SVGID_16_">
			<use xlink:href="#SVGID_15_"  style="overflow:visible;"/>
		</clipPath>
		<rect x="112.9" y="13" class="st7" width="33.9" height="22.9"/>
	</g>
</g>
<g>
	<defs>
		<path id="SVGID_17_" d="M123.6,17.8c0.2,0.4,0.6,0.8,1,1c-0.3,0.2-0.6,0.3-1,0.3c-0.3,0-0.7-0.1-1-0.3
			C123,18.5,123.3,18.2,123.6,17.8"/>
	</defs>
	<clipPath id="SVGID_18_">
		<use xlink:href="#SVGID_17_"  style="overflow:visible;"/>
	</clipPath>
	<g class="st8">
		<defs>
			<rect id="SVGID_19_" width="145" height="33"/>
		</defs>
		<clipPath id="SVGID_20_">
			<use xlink:href="#SVGID_19_"  style="overflow:visible;"/>
		</clipPath>
		<rect x="117.6" y="12.8" class="st9" width="12" height="11.3"/>
	</g>
</g>
<g>
	<defs>
		<path id="SVGID_21_" d="M135.2,2.8c-0.6-0.6-1.4-0.9-2.6-0.9c-3.5,0-5,2.4-5,2.4l-0.3,0.5l-0.5-0.3c0,0-1.3-0.7-3.3-0.7
			c-2,0-3.3,0.7-3.3,0.7l-0.5,0.3l-0.3-0.5c-0.1-0.1-1.5-2.4-5-2.4c-1.2,0-2,0.3-2.6,0.9c-0.6,0.6-0.7,1.5-0.7,2
			c0,1.5,0.8,2.7,1.4,2.7v0h0v0c0.4,0,0.7-0.2,0.9-0.6c0.1-0.3,0.3-0.5,0.5-0.8c0.4-0.7,0.9-1.5,1.9-1.5h0.1c0.9,0,1.9,1.5,2.3,2.1
			c0.4,0.6,1.3,2.3,1.3,3.9c0,0.8-0.1,1.6-0.4,2.4l0,0.1l-0.5,1.1c0,0-0.5,0.8-0.5,1.9c0.1,1.2,1.2,2.2,2.4,2.2
			c1.3,0,2.4-1.1,2.4-2.4l0-0.9c-0.9-0.2-1.6-1.1-1.6-2.1c0,0,0.9-0.4,2.1-0.4c1.3,0,2.1,0.4,2.1,0.4c0,1-0.7,1.8-1.6,2.1l0,0.9
			c0,1.3,1.1,2.5,2.4,2.5c1.3,0,2.3-1,2.4-2.2c0-1.1-0.5-2-0.5-2l-0.5-1.1c-0.3-0.8-0.4-1.6-0.4-2.4c0-1,0.4-2.1,0.7-2.8
			c0.1-0.2,1.4-3.1,3-3.1c1.1,0,1.6,0.9,2,1.6c0.4,0.7,0.7,1.2,1.3,1.2c0.7,0,1.4-1.3,1.4-2.8C135.9,4.2,135.8,3.4,135.2,2.8"/>
	</defs>
	<clipPath id="SVGID_22_">
		<use xlink:href="#SVGID_21_"  style="overflow:visible;"/>
	</clipPath>
	<g class="st10">
		<defs>
			<rect id="SVGID_23_" width="145" height="33"/>
		</defs>
		<clipPath id="SVGID_24_">
			<use xlink:href="#SVGID_23_"  style="overflow:visible;"/>
		</clipPath>
		<rect x="106.2" y="-3.1" class="st11" width="34.7" height="26.6"/>
	</g>
</g>
<g>
	<defs>
		<path id="SVGID_25_" d="M121.3,11.7c0.5,0,0.8-0.4,0.8-0.8c0-0.5-0.4-0.8-0.8-0.8c-0.5,0-0.8,0.4-0.8,0.8
			C120.5,11.4,120.9,11.7,121.3,11.7"/>
	</defs>
	<clipPath id="SVGID_26_">
		<use xlink:href="#SVGID_25_"  style="overflow:visible;"/>
	</clipPath>
	<g class="st12">
		<defs>
			<rect id="SVGID_27_" width="145" height="33"/>
		</defs>
		<clipPath id="SVGID_28_">
			<use xlink:href="#SVGID_27_"  style="overflow:visible;"/>
		</clipPath>
		<rect x="115.5" y="5.1" class="st13" width="11.7" height="11.7"/>
	</g>
</g>
<g>
	<defs>
		<path id="SVGID_29_" d="M125.8,11.7c0.5,0,0.8-0.4,0.8-0.8c0-0.5-0.4-0.8-0.8-0.8c-0.5,0-0.8,0.4-0.8,0.8
			C125,11.4,125.3,11.7,125.8,11.7"/>
	</defs>
	<clipPath id="SVGID_30_">
		<use xlink:href="#SVGID_29_"  style="overflow:visible;"/>
	</clipPath>
	<g class="st14">
		<defs>
			<rect id="SVGID_31_" width="145" height="33"/>
		</defs>
		<clipPath id="SVGID_32_">
			<use xlink:href="#SVGID_31_"  style="overflow:visible;"/>
		</clipPath>
		<rect x="120" y="5.1" class="st15" width="11.7" height="11.7"/>
	</g>
</g>
<g>
	<defs>
		<path id="SVGID_33_" d="M111.4,10.9c0-0.5-0.4-0.8-0.8-0.8c-0.5,0-0.8,0.4-0.8,0.8c0,0.5,0.4,0.8,0.8,0.8
			C111,11.7,111.4,11.4,111.4,10.9"/>
	</defs>
	<clipPath id="SVGID_34_">
		<use xlink:href="#SVGID_33_"  style="overflow:visible;"/>
	</clipPath>
	<g class="st16">
		<defs>
			<rect id="SVGID_35_" width="145" height="33"/>
		</defs>
		<clipPath id="SVGID_36_">
			<use xlink:href="#SVGID_35_"  style="overflow:visible;"/>
		</clipPath>
		<rect x="104.7" y="5.1" class="st17" width="11.7" height="11.7"/>
	</g>
</g>
<g>
	<defs>
		
			<ellipse id="SVGID_37_" transform="matrix(1 -1.545266e-03 1.545266e-03 1 -1.671322e-02 0.1777)" cx="115" cy="10.9" rx="0.8" ry="0.8"/>
	</defs>
	<clipPath id="SVGID_38_">
		<use xlink:href="#SVGID_37_"  style="overflow:visible;"/>
	</clipPath>
	<g class="st18">
		<defs>
			<rect id="SVGID_39_" width="145" height="33"/>
		</defs>
		<clipPath id="SVGID_40_">
			<use xlink:href="#SVGID_39_"  style="overflow:visible;"/>
		</clipPath>
		<rect x="109.2" y="5.1" class="st19" width="11.7" height="11.7"/>
	</g>
</g>
<g>
	<defs>
		<path id="SVGID_41_" d="M114.6,13.5c0,0.2-0.1,0.4-0.2,0.5c-0.1,0.1-0.3,0.2-0.5,0.2h0c-0.4,0-0.7-0.3-0.7-0.8l0-0.3
			c0,0,0,0,0-0.1c0.4-0.1,0.8-0.6,0.8-1h0c0,0-0.5-0.2-1.1-0.2c-0.6,0-1.1,0.2-1.1,0.2c0,0.5,0.3,0.9,0.8,1c0,0,0,0,0,0.1l0,0.3
			c0,0.4-0.3,0.8-0.8,0.8h0c-0.2,0-0.4-0.1-0.5-0.2c-0.1-0.1-0.2-0.3-0.2-0.5l-0.7,0c0,0.4,0.2,0.8,0.4,1c0.3,0.3,0.6,0.4,1,0.4h0
			c0.4,0,0.8-0.2,1.1-0.5h0c0.3,0.3,0.7,0.5,1.1,0.5h0c0.4,0,0.7-0.2,1-0.4c0.3-0.3,0.4-0.6,0.4-1L114.6,13.5"/>
	</defs>
	<clipPath id="SVGID_42_">
		<use xlink:href="#SVGID_41_"  style="overflow:visible;"/>
	</clipPath>
	<g class="st20">
		<defs>
			<rect id="SVGID_43_" width="145" height="33"/>
		</defs>
		<clipPath id="SVGID_44_">
			<use xlink:href="#SVGID_43_"  style="overflow:visible;"/>
		</clipPath>
		<rect x="105.2" y="6.9" class="st21" width="15.1" height="13.1"/>
	</g>
</g>
<g>
	<defs>
		<path id="SVGID_45_" d="M11.2,25.7c-3,0-4-0.8-5.3-2v4.9c0,4-5.4,3.6-5.4,3.6V5.3h5v2.2C6.9,5.7,9,4.9,12,4.9
			c5.2,0,8.2,5.2,8.2,10.3C20.1,20.3,17.4,25.7,11.2,25.7z M14.6,15.4c0-3.3-1.7-5.7-4.4-5.7s-4.4,2.4-4.4,5.7v0.1
			c0,3.3,2,5.5,4.4,5.5S14.6,18.8,14.6,15.4L14.6,15.4z M22.2,15.3c0-5.7,4.1-10.4,9.8-10.4c6.7,0,8.7,5.2,8.7,8.5
			c0,2.9-3.6,3.1-4.8,3.1h-8.1c0.6,2.6,2.3,4.4,4.9,4.4c1.9,0,4.2-1,5.8-2.4l2.4,3.9c-2.1,2.1-4.9,3.3-8.2,3.3
			C26.7,25.7,22.2,21.5,22.2,15.3L22.2,15.3z M35.5,12.5c-0.2-1.7-1.3-3.2-3.4-3.2c-1.8,0-3.7,1.4-4,3.2H35.5z M44.6,10.1h-2.4V5.3
			h2.4V0.8h5.6v4.5h4.2v4.8h-4.2v7.6c0,1.3,0.9,2.8,2.5,2.8c1,0,1.3,0,2.1-0.1v4.8c-1,0.3-1.5,0.2-2.5,0.2c-3.8,0-7.8-2.1-7.8-7.5
			V10.1z M56.5,15.3c0-5.7,4.3-10.4,10.4-10.4c1.9,0,3.5,0.3,4.8,0.9c2.4,1.1,3.9,3.5,1.8,5.4c-0.9,0.8-1.8,0.9-1.8,0.9
			C71,11,70.1,9.6,66.9,9.6c-2.8,0-4.8,2.7-4.8,5.6v0.1c0,3.1,2,5.5,5.1,5.5c1.9,0,4.2-0.8,5.7-2.5l2.8,3.5
			c-1.9,2.1-4.7,3.8-8.7,3.8C60.9,25.7,56.5,21.1,56.5,15.3L56.5,15.3z M76.2,15.3c0-5.7,4.6-10.4,10.8-10.4
			c6.2,0,10.7,4.6,10.7,10.3v0.1c0,5.7-4.6,10.4-10.8,10.4C80.8,25.7,76.2,21.1,76.2,15.3L76.2,15.3z M92.2,15.3
			c0-2.9-2.1-5.5-5.2-5.5c-3.2,0-5.2,2.5-5.2,5.4v0.1c0,2.9,2.1,5.5,5.2,5.5C90.3,20.8,92.2,18.3,92.2,15.3L92.2,15.3z"/>
	</defs>
	<clipPath id="SVGID_46_">
		<use xlink:href="#SVGID_45_"  style="overflow:visible;"/>
	</clipPath>
	<g class="st22">
		<defs>
			<rect id="SVGID_47_" width="145" height="33"/>
		</defs>
		<clipPath id="SVGID_48_">
			<use xlink:href="#SVGID_47_"  style="overflow:visible;"/>
		</clipPath>
		<rect x="-4.5" y="-4.2" class="st23" width="107.3" height="41.3"/>
	</g>
</g>
<g>
	<defs>
		<path id="SVGID_49_" d="M98.1,22c1,0,1.8,0.8,1.8,1.9c0,1-0.8,1.9-1.8,1.9c-1,0-1.8-0.8-1.8-1.9C96.3,22.8,97.1,22,98.1,22z
			 M98.1,25.3c0.8,0,1.4-0.6,1.4-1.5c0-0.8-0.6-1.5-1.4-1.5c-0.8,0-1.4,0.7-1.4,1.5C96.7,24.7,97.3,25.3,98.1,25.3z M97.4,22.9
			l0.8,0c0.4,0,0.6,0.2,0.6,0.6c0,0.3-0.2,0.5-0.3,0.5v0c0,0,0,0,0.1,0.1l0.4,0.7l-0.5,0l-0.3-0.7l-0.2,0l0,0.7l-0.4,0L97.4,22.9z
			 M98.1,23.8c0.2,0,0.3-0.1,0.3-0.3c0-0.2-0.1-0.3-0.3-0.3l-0.2,0l0,0.6H98.1z"/>
	</defs>
	<clipPath id="SVGID_50_">
		<use xlink:href="#SVGID_49_"  style="overflow:visible;"/>
	</clipPath>
	<g class="st24">
		<defs>
			<rect id="SVGID_51_" width="145" height="33"/>
		</defs>
		<clipPath id="SVGID_52_">
			<use xlink:href="#SVGID_51_"  style="overflow:visible;"/>
		</clipPath>
		<rect x="91.3" y="17" class="st25" width="13.7" height="13.7"/>
	</g>
</g>
</svg>
